<?xml version="1.0" encoding="UTF-8" standalone="no"?>
<!-- Copyright 2017 mathsisfun.com -->
<svg xmlns="http://www.w3.org/2000/svg" width="322.5" height="35.1" version="1.1">
<defs>
</defs>
<g transform="translate(2771.28,-1315.41)">
<rect x="-514.8" y="789.4" width="121" height="117.3"/>
<rect x="596" y="577.5" width="451.3" height="148.2"/>
<rect x="-2719.9" y="1316.6" ry="16.3" width="85.9" height="32.6" style="overflow:visible; fill:#fff8ff; stroke:#0197fd; stroke-width:2.32; stroke-linecap:round;"/>
<rect x="-2589" y="1316.6" ry="16.3" width="85.9" height="32.6" style="overflow:visible; fill:#fffff0; stroke:#0197fd; stroke-width:2.32; stroke-linecap:round;"/>
<g transform="matrix(0.231133,0,0,0.228492,-2080.28,1079.39)">
<path style="overflow:visible; fill:#d9bb7a; stroke-width:4.64; stroke-linecap:round;" d="m -1842.2,1092.3 c 70.8,9 142.6,-1.6 213.7,-3.2 -4.8,36.6 -33.4,37.9 -63.9,35.6 -54.6,3.2 -109.9,4.1 -164.3,2.3 4.8,-11.6 9.6,-23.1 14.4,-34.7 z"/>
<path style="overflow:visible; fill:#d9bb7a; stroke-width:4.64; stroke-linecap:round;" d="m -1709.9,1034 c 33.8,23.7 66.3,51.1 105.2,66.2 -12.1,38.5 -39.7,28.5 -64.1,7.1 -14.1,-19.9 -79.3,-32.5 -54.8,-57.1 4.6,-5.4 9.1,-10.7 13.7,-16.1 z"/>
<path style="overflow:visible; fill:#d9bb7a; stroke-width:4.64; stroke-linecap:round;" d="m -1712,1149.3 c 34.5,-29 76.6,-45.1 117.8,-61.8 0.7,33.6 -23.4,45.3 -51.9,53.1 -24.4,-0.8 -74,64.1 -68.4,29.5 0.8,-6.9 1.7,-13.9 2.5,-20.8 z"/>
</g>
<g transform="matrix(0.231133,0,0,0.228492,-2097.88,1007.45)">
<path style="overflow:visible; fill:#0169c9; stroke-width:4.64; stroke-linecap:round;" d="m -2898.4,1408.7 c 64.1,4.8 128.4,5.8 192.6,5.1 -10.7,60.7 -86.3,18.3 -128,29.6 -34.3,-11.8 -106.8,24.4 -64.6,-34.7 z"/>
<path style="overflow:visible; fill:#0169c9; stroke-width:4.64; stroke-linecap:round;" d="m -2768.1,1355.6 c 24.1,29.5 61,43.8 96.4,54.3 -11.6,51.6 -55.3,16.7 -85.3,2.1 -32.3,-22.4 -51.2,-27 -11.1,-56.4 z"/>
<path style="overflow:visible; fill:#0169c9; stroke-width:4.64; stroke-linecap:round;" d="m -2798,1481.5 c 35.2,-43.2 90.3,-65.5 143.9,-75.7 -1.3,37.5 -31.9,39.7 -60.7,48.6 -33.6,8.7 -73.4,53.3 -51.4,22.9 -10.6,1.4 -21.3,2.8 -31.9,4.2 z"/>
</g>
<g transform="matrix(0.231133,0,0,0.228492,-1977.73,1017.6)">
<path style="overflow:visible; fill:#fdca01; stroke-width:4.64; stroke-linecap:round;" d="m -2853.7,1367 c 64.1,4.8 128.4,5.8 192.6,5.1 -10.7,60.7 -86.3,18.3 -128,29.6 -34.3,-11.8 -106.7,24.4 -64.6,-34.7 z"/>
<path style="overflow:visible; fill:#fdca01; stroke-width:4.64; stroke-linecap:round;" d="m -2723.5,1313.9 c 24.1,29.4 61,43.8 96.4,54.3 -11.6,51.6 -55.3,16.7 -85.3,2.1 -32.3,-22.4 -51.2,-27 -11.1,-56.4 z"/>
<path style="overflow:visible; fill:#fdca01; stroke-width:4.64; stroke-linecap:round;" d="m -2753.3,1439.8 c 35.2,-43.3 90.3,-65.4 143.9,-75.7 -1.3,37.5 -31.9,39.7 -60.7,48.6 -33.6,8.7 -73.4,53.3 -51.4,22.9 -10.6,1.4 -21.3,2.8 -31.9,4.2 z"/>
</g>
<text x="-2696.9" y="1339.7" style="font-family:'Comic Sans MS'; font-size:24px; font-style:italic; color:black; overflow:visible; fill:black; stroke-width:1px;">f( )</text>
<text x="-2565" y="1339" style="font-family:'Comic Sans MS'; font-size:24px; font-style:italic; color:black; overflow:visible; fill:black; stroke-width:1px;">g( )</text>
</g>
</svg>
