<?xml version="1.0" encoding="UTF-8" standalone="no"?>
<svg
   xmlns:dc="http://purl.org/dc/elements/1.1/"
   xmlns:cc="http://creativecommons.org/ns#"
   xmlns:rdf="http://www.w3.org/1999/02/22-rdf-syntax-ns#"
   xmlns:svg="http://www.w3.org/2000/svg"
   xmlns="http://www.w3.org/2000/svg"
   xmlns:sodipodi="http://sodipodi.sourceforge.net/DTD/sodipodi-0.dtd"
   xmlns:inkscape="http://www.inkscape.org/namespaces/inkscape"
   width="360"
   height="226.605"
   version="1.1"
   id="svg6343"
   sodipodi:docname="function-sin-sinh.html"
   inkscape:version="0.92.2 (5c3e80d, 2017-08-06)">
  <metadata
     id="metadata6349">
    <rdf:RDF>
      <cc:Work
         rdf:about="">
        <dc:format>image/svg+xml</dc:format>
        <dc:type
           rdf:resource="http://purl.org/dc/dcmitype/StillImage" />
        <dc:title></dc:title>
      </cc:Work>
    </rdf:RDF>
  </metadata>
  <defs
     id="defs6347" />
  <sodipodi:namedview
     pagecolor="#ffffff"
     bordercolor="#666666"
     borderopacity="1"
     objecttolerance="10"
     gridtolerance="10"
     guidetolerance="10"
     inkscape:pageopacity="0"
     inkscape:pageshadow="2"
     inkscape:window-width="640"
     inkscape:window-height="480"
     id="namedview6345"
     showgrid="false"
     inkscape:current-layer="svg6343" />
  <desc
     id="desc6297">SVG Output</desc>
  <polyline
     points="0.0000 170.00, 550.00 170.00, "
     id="polyline6299"
     style="stroke:#000000;stroke-width:3.060094"
     transform="matrix(0.653636,0,0,0.653513,0.250024,3.28147)" />
  <polyline
     points="275.00 340.00, 275.00 0.0000, "
     id="polyline6301"
     style="stroke:#000000;stroke-width:3.060094"
     transform="matrix(0.653636,0,0,0.653513,0.250024,3.28147)" />
  <polyline
     points="0.0000 335.00, 550.00 335.00, "
     id="polyline6303"
     style="stroke:#888888;stroke-width:0.765024"
     transform="matrix(0.653636,0,0,0.653513,0.250024,3.28147)" />
  <polyline
     points="0.0000 280.00, 550.00 280.00, "
     id="polyline6305"
     style="stroke:#888888;stroke-width:0.765024"
     transform="matrix(0.653636,0,0,0.653513,0.250024,3.28147)" />
  <polyline
     points="0.0000 225.00, 550.00 225.00, "
     id="polyline6307"
     style="stroke:#888888;stroke-width:0.765024"
     transform="matrix(0.653636,0,0,0.653513,0.250024,3.28147)" />
  <polyline
     points="0.0000 170.00, 550.00 170.00, "
     id="polyline6309"
     style="stroke:#888888;stroke-width:0.765024"
     transform="matrix(0.653636,0,0,0.653513,0.250024,3.28147)" />
  <polyline
     points="0.0000 115.00, 550.00 115.00, "
     id="polyline6311"
     style="stroke:#888888;stroke-width:0.765024"
     transform="matrix(0.653636,0,0,0.653513,0.250024,3.28147)" />
  <polyline
     points="0.0000 60.000, 550.00 60.000, "
     id="polyline6313"
     style="stroke:#888888;stroke-width:0.765024"
     transform="matrix(0.653636,0,0,0.653513,0.250024,3.28147)" />
  <polyline
     points="0.0000 5.0000, 550.00 5.0000, "
     id="polyline6315"
     style="stroke:#888888;stroke-width:0.765024"
     transform="matrix(0.653636,0,0,0.653513,0.250024,3.28147)" />
  <polyline
     points="0.0000 340.00, 0.0000 0.0000, "
     id="polyline6317"
     style="stroke:#888888;stroke-width:0.765024"
     transform="matrix(0.653636,0,0,0.653513,0.250024,3.28147)" />
  <polyline
     points="55.000 340.00, 55.000 0.0000, "
     id="polyline6319"
     style="stroke:#888888;stroke-width:0.765024"
     transform="matrix(0.653636,0,0,0.653513,0.250024,3.28147)" />
  <polyline
     points="110.00 340.00, 110.00 0.0000, "
     id="polyline6321"
     style="stroke:#888888;stroke-width:0.765024"
     transform="matrix(0.653636,0,0,0.653513,0.250024,3.28147)" />
  <polyline
     points="165.00 340.00, 165.00 0.0000, "
     id="polyline6323"
     style="stroke:#888888;stroke-width:0.765024"
     transform="matrix(0.653636,0,0,0.653513,0.250024,3.28147)" />
  <polyline
     points="220.00 340.00, 220.00 0.0000, "
     id="polyline6325"
     style="stroke:#888888;stroke-width:0.765024"
     transform="matrix(0.653636,0,0,0.653513,0.250024,3.28147)" />
  <polyline
     points="275.00 340.00, 275.00 0.0000, "
     id="polyline6327"
     style="stroke:#888888;stroke-width:0.765024"
     transform="matrix(0.653636,0,0,0.653513,0.250024,3.28147)" />
  <polyline
     points="330.00 340.00, 330.00 0.0000, "
     id="polyline6329"
     style="stroke:#888888;stroke-width:0.765024"
     transform="matrix(0.653636,0,0,0.653513,0.250024,3.28147)" />
  <polyline
     points="385.00 340.00, 385.00 0.0000, "
     id="polyline6331"
     style="stroke:#888888;stroke-width:0.765024"
     transform="matrix(0.653636,0,0,0.653513,0.250024,3.28147)" />
  <polyline
     points="440.00 340.00, 440.00 0.0000, "
     id="polyline6333"
     style="stroke:#888888;stroke-width:0.765024"
     transform="matrix(0.653636,0,0,0.653513,0.250024,3.28147)" />
  <polyline
     points="495.00 340.00, 495.00 0.0000, "
     id="polyline6335"
     style="stroke:#888888;stroke-width:0.765024"
     transform="matrix(0.653636,0,0,0.653513,0.250024,3.28147)" />
  <polyline
     points="550.00 340.00, 550.00 0.0000, "
     id="polyline6337"
     style="stroke:#888888;stroke-width:0.765024"
     transform="matrix(0.653636,0,0,0.653513,0.250024,3.28147)" />
  <polyline
     points="173.00 341.39, 174.00 338.14, 175.00 334.95, 176.00 331.82, 177.00 328.74, 178.00 325.71, 179.00 322.73, 180.00 319.81, 181.00 316.93, 182.00 314.10, 183.00 311.32, 184.00 308.59, 185.00 305.90, 186.00 303.26, 187.00 300.66, 188.00 298.10, 189.00 295.59, 190.00 293.11, 191.00 290.68, 192.00 288.29, 193.00 285.94, 194.00 283.62, 195.00 281.35, 196.00 279.11, 197.00 276.90, 198.00 274.74, 199.00 272.60, 200.00 270.50, 201.00 268.44, 202.00 266.40, 203.00 264.40, 204.00 262.43, 205.00 260.49, 206.00 258.58, 207.00 256.70, 208.00 254.84, 209.00 253.02, 210.00 251.22, 211.00 249.45, 212.00 247.71, 213.00 245.99, 214.00 244.30, 215.00 242.63, 216.00 240.98, 217.00 239.36, 218.00 237.77, 219.00 236.19, 220.00 234.64, 221.00 233.10, 222.00 231.59, 223.00 230.10, 224.00 228.63, 225.00 227.18, 226.00 225.74, 227.00 224.33, 228.00 222.93, 229.00 221.55, 230.00 220.19, 231.00 218.85, 232.00 217.52, 233.00 216.20, 234.00 214.90, 235.00 213.62, 236.00 212.35, 237.00 211.10, 238.00 209.85, 239.00 208.63, 240.00 207.41, 241.00 206.21, 242.00 205.02, 243.00 203.84, 244.00 202.67, 245.00 201.51, 246.00 200.36, 247.00 199.23, 248.00 198.10, 249.00 196.98, 250.00 195.87, 251.00 194.77, 252.00 193.68, 253.00 192.59, 254.00 191.51, 255.00 190.44, 256.00 189.38, 257.00 188.32, 258.00 187.27, 259.00 186.23, 260.00 185.19, 261.00 184.15, 262.00 183.12, 263.00 182.10, 264.00 181.07, 265.00 180.06, 266.00 179.04, 267.00 178.03, 268.00 177.02, 269.00 176.01, 270.00 175.01, 271.00 174.00, 272.00 173.00, 273.00 172.00, 274.00 171.00, 275.00 170.00, 276.00 169.00, 277.00 168.00, 278.00 167.00, 279.00 166.00, 280.00 164.99, 281.00 163.99, 282.00 162.98, 283.00 161.97, 284.00 160.96, 285.00 159.94, 286.00 158.93, 287.00 157.90, 288.00 156.88, 289.00 155.85, 290.00 154.81, 291.00 153.77, 292.00 152.73, 293.00 151.68, 294.00 150.62, 295.00 149.56, 296.00 148.49, 297.00 147.41, 298.00 146.32, 299.00 145.23, 300.00 144.13, 301.00 143.02, 302.00 141.90, 303.00 140.77, 304.00 139.64, 305.00 138.49, 306.00 137.33, 307.00 136.16, 308.00 134.98, 309.00 133.79, 310.00 132.59, 311.00 131.37, 312.00 130.15, 313.00 128.90, 314.00 127.65, 315.00 126.38, 316.00 125.10, 317.00 123.80, 318.00 122.48, 319.00 121.15, 320.00 119.81, 321.00 118.45, 322.00 117.07, 323.00 115.67, 324.00 114.26, 325.00 112.82, 326.00 111.37, 327.00 109.90, 328.00 108.41, 329.00 106.90, 330.00 105.36, 331.00 103.81, 332.00 102.23, 333.00 100.64, 334.00 99.015, 335.00 97.371, 336.00 95.702, 337.00 94.009, 338.00 92.291, 339.00 90.547, 340.00 88.777, 341.00 86.980, 342.00 85.155, 343.00 83.303, 344.00 81.421, 345.00 79.511, 346.00 77.571, 347.00 75.600, 348.00 73.597, 349.00 71.563, 350.00 69.497, 351.00 67.397, 352.00 65.263, 353.00 63.095, 354.00 60.891, 355.00 58.652, 356.00 56.375, 357.00 54.061, 358.00 51.709, 359.00 49.317, 360.00 46.886, 361.00 44.413, 362.00 41.900, 363.00 39.344, 364.00 36.745, 365.00 34.101, 366.00 31.413, 367.00 28.679, 368.00 25.898, 369.00 23.070, 370.00 20.193, 371.00 17.267, 372.00 14.290, 373.00 11.261, 374.00 8.1804, 375.00 5.0460, 376.00 1.8571, 377.00 -1.3874, 378.00 -4.6886, "
     id="polyline6339"
     style="fill:#ffeedd;fill-opacity:0.2;stroke:#00008b;stroke-width:2.295071"
     transform="matrix(0.653636,0,0,0.653513,0.250024,3.28147)" />
  <polyline
     points="0.0000 117.26, 1.0000 116.98, 2.0000 116.73, 3.0000 116.49, 4.0000 116.26, 5.0000 116.06, 6.0000 115.87, 7.0000 115.71, 8.0000 115.55, 9.0000 115.42, 10.000 115.31, 11.000 115.21, 12.000 115.13, 13.000 115.07, 14.000 115.03, 15.000 115.01, 16.000 115.00, 17.000 115.01, 18.000 115.04, 19.000 115.09, 20.000 115.16, 21.000 115.24, 22.000 115.35, 23.000 115.47, 24.000 115.61, 25.000 115.76, 26.000 115.94, 27.000 116.13, 28.000 116.34, 29.000 116.57, 30.000 116.82, 31.000 117.08, 32.000 117.36, 33.000 117.66, 34.000 117.98, 35.000 118.31, 36.000 118.66, 37.000 119.03, 38.000 119.41, 39.000 119.81, 40.000 120.23, 41.000 120.66, 42.000 121.11, 43.000 121.58, 44.000 122.06, 45.000 122.56, 46.000 123.08, 47.000 123.60, 48.000 124.15, 49.000 124.71, 50.000 125.28, 51.000 125.87, 52.000 126.48, 53.000 127.10, 54.000 127.73, 55.000 128.38, 56.000 129.04, 57.000 129.71, 58.000 130.40, 59.000 131.10, 60.000 131.81, 61.000 132.54, 62.000 133.28, 63.000 134.03, 64.000 134.79, 65.000 135.56, 66.000 136.35, 67.000 137.14, 68.000 137.95, 69.000 138.77, 70.000 139.60, 71.000 140.44, 72.000 141.28, 73.000 142.14, 74.000 143.01, 75.000 143.88, 76.000 144.77, 77.000 145.66, 78.000 146.56, 79.000 147.47, 80.000 148.39, 81.000 149.31, 82.000 150.24, 83.000 151.18, 84.000 152.12, 85.000 153.07, 86.000 154.02, 87.000 154.98, 88.000 155.95, 89.000 156.91, 90.000 157.89, 91.000 158.87, 92.000 159.85, 93.000 160.83, 94.000 161.82, 95.000 162.81, 96.000 163.80, 97.000 164.80, 98.000 165.79, 99.000 166.79, 100.00 167.79, 101.00 168.79, 102.00 169.79, 103.00 170.79, 104.00 171.79, 105.00 172.79, 106.00 173.78, 107.00 174.78, 108.00 175.78, 109.00 176.77, 110.00 177.76, 111.00 178.75, 112.00 179.74, 113.00 180.72, 114.00 181.70, 115.00 182.67, 116.00 183.64, 117.00 184.61, 118.00 185.57, 119.00 186.53, 120.00 187.48, 121.00 188.42, 122.00 189.36, 123.00 190.30, 124.00 191.22, 125.00 192.14, 126.00 193.05, 127.00 193.96, 128.00 194.85, 129.00 195.74, 130.00 196.62, 131.00 197.49, 132.00 198.35, 133.00 199.20, 134.00 200.05, 135.00 200.88, 136.00 201.70, 137.00 202.51, 138.00 203.32, 139.00 204.11, 140.00 204.88, 141.00 205.65, 142.00 206.41, 143.00 207.15, 144.00 207.88, 145.00 208.60, 146.00 209.31, 147.00 210.00, 148.00 210.68, 149.00 211.35, 150.00 212.00, 151.00 212.64, 152.00 213.26, 153.00 213.87, 154.00 214.47, 155.00 215.05, 156.00 215.61, 157.00 216.17, 158.00 216.70, 159.00 217.22, 160.00 217.73, 161.00 218.22, 162.00 218.69, 163.00 219.15, 164.00 219.59, 165.00 220.01, 166.00 220.42, 167.00 220.81, 168.00 221.18, 169.00 221.54, 170.00 221.88, 171.00 222.21, 172.00 222.51, 173.00 222.80, 174.00 223.07, 175.00 223.33, 176.00 223.56, 177.00 223.78, 178.00 223.98, 179.00 224.16, 180.00 224.33, 181.00 224.47, 182.00 224.60, 183.00 224.71, 184.00 224.81, 185.00 224.88, 186.00 224.94, 187.00 224.98, 188.00 225.00, 189.00 225.00, 190.00 224.98, 191.00 224.95, 192.00 224.90, 193.00 224.82, 194.00 224.74, 195.00 224.63, 196.00 224.50, 197.00 224.36, 198.00 224.20, 199.00 224.02, 200.00 223.82, 201.00 223.61, 202.00 223.38, 203.00 223.13, 204.00 222.86, 205.00 222.57, 206.00 222.27, 207.00 221.95, 208.00 221.62, 209.00 221.26, 210.00 220.89, 211.00 220.50, 212.00 220.10, 213.00 219.68, 214.00 219.24, 215.00 218.79, 216.00 218.32, 217.00 217.83, 218.00 217.33, 219.00 216.81, 220.00 216.28, 221.00 215.73, 222.00 215.17, 223.00 214.59, 224.00 214.00, 225.00 213.39, 226.00 212.77, 227.00 212.13, 228.00 211.48, 229.00 210.82, 230.00 210.14, 231.00 209.45, 232.00 208.75, 233.00 208.04, 234.00 207.31, 235.00 206.57, 236.00 205.81, 237.00 205.05, 238.00 204.27, 239.00 203.48, 240.00 202.69, 241.00 201.88, 242.00 201.06, 243.00 200.22, 244.00 199.38, 245.00 198.53, 246.00 197.67, 247.00 196.81, 248.00 195.93, 249.00 195.04, 250.00 194.15, 251.00 193.25, 252.00 192.34, 253.00 191.42, 254.00 190.49, 255.00 189.56, 256.00 188.62, 257.00 187.68, 258.00 186.73, 259.00 185.78, 260.00 184.81, 261.00 183.85, 262.00 182.88, 263.00 181.91, 264.00 180.93, 265.00 179.94, 266.00 178.96, 267.00 177.97, 268.00 176.98, 269.00 175.99, 270.00 174.99, 271.00 174.00, 272.00 173.00, 273.00 172.00, 274.00 171.00, 275.00 170.00, 276.00 169.00, 277.00 168.00, 278.00 167.00, 279.00 166.00, 280.00 165.01, 281.00 164.01, 282.00 163.02, 283.00 162.03, 284.00 161.04, 285.00 160.06, 286.00 159.07, 287.00 158.09, 288.00 157.12, 289.00 156.15, 290.00 155.19, 291.00 154.22, 292.00 153.27, 293.00 152.32, 294.00 151.38, 295.00 150.44, 296.00 149.51, 297.00 148.58, 298.00 147.66, 299.00 146.75, 300.00 145.85, 301.00 144.96, 302.00 144.07, 303.00 143.19, 304.00 142.33, 305.00 141.47, 306.00 140.62, 307.00 139.78, 308.00 138.94, 309.00 138.12, 310.00 137.31, 311.00 136.52, 312.00 135.73, 313.00 134.95, 314.00 134.19, 315.00 133.43, 316.00 132.69, 317.00 131.96, 318.00 131.25, 319.00 130.55, 320.00 129.86, 321.00 129.18, 322.00 128.52, 323.00 127.87, 324.00 127.23, 325.00 126.61, 326.00 126.00, 327.00 125.41, 328.00 124.83, 329.00 124.27, 330.00 123.72, 331.00 123.19, 332.00 122.67, 333.00 122.17, 334.00 121.68, 335.00 121.21, 336.00 120.76, 337.00 120.32, 338.00 119.90, 339.00 119.50, 340.00 119.11, 341.00 118.74, 342.00 118.38, 343.00 118.05, 344.00 117.73, 345.00 117.43, 346.00 117.14, 347.00 116.87, 348.00 116.62, 349.00 116.39, 350.00 116.18, 351.00 115.98, 352.00 115.80, 353.00 115.64, 354.00 115.50, 355.00 115.37, 356.00 115.26, 357.00 115.18, 358.00 115.10, 359.00 115.05, 360.00 115.02, 361.00 115.00, 362.00 115.00, 363.00 115.02, 364.00 115.06, 365.00 115.12, 366.00 115.19, 367.00 115.29, 368.00 115.40, 369.00 115.53, 370.00 115.67, 371.00 115.84, 372.00 116.02, 373.00 116.22, 374.00 116.44, 375.00 116.67, 376.00 116.93, 377.00 117.20, 378.00 117.49, 379.00 117.79, 380.00 118.12, 381.00 118.46, 382.00 118.82, 383.00 119.19, 384.00 119.58, 385.00 119.99, 386.00 120.41, 387.00 120.85, 388.00 121.31, 389.00 121.78, 390.00 122.27, 391.00 122.78, 392.00 123.30, 393.00 123.83, 394.00 124.39, 395.00 124.95, 396.00 125.53, 397.00 126.13, 398.00 126.74, 399.00 127.36, 400.00 128.00, 401.00 128.65, 402.00 129.32, 403.00 130.00, 404.00 130.69, 405.00 131.40, 406.00 132.12, 407.00 132.85, 408.00 133.59, 409.00 134.35, 410.00 135.12, 411.00 135.89, 412.00 136.68, 413.00 137.49, 414.00 138.30, 415.00 139.12, 416.00 139.95, 417.00 140.80, 418.00 141.65, 419.00 142.51, 420.00 143.38, 421.00 144.26, 422.00 145.15, 423.00 146.04, 424.00 146.95, 425.00 147.86, 426.00 148.78, 427.00 149.70, 428.00 150.64, 429.00 151.58, 430.00 152.52, 431.00 153.47, 432.00 154.43, 433.00 155.39, 434.00 156.36, 435.00 157.33, 436.00 158.30, 437.00 159.28, 438.00 160.26, 439.00 161.25, 440.00 162.24, 441.00 163.23, 442.00 164.22, 443.00 165.22, 444.00 166.22, 445.00 167.21, 446.00 168.21, 447.00 169.21, 448.00 170.21, 449.00 171.21, 450.00 172.21, 451.00 173.21, 452.00 174.21, 453.00 175.20, 454.00 176.20, 455.00 177.19, 456.00 178.18, 457.00 179.17, 458.00 180.15, 459.00 181.13, 460.00 182.11, 461.00 183.09, 462.00 184.05, 463.00 185.02, 464.00 185.98, 465.00 186.93, 466.00 187.88, 467.00 188.82, 468.00 189.76, 469.00 190.69, 470.00 191.61, 471.00 192.53, 472.00 193.44, 473.00 194.34, 474.00 195.23, 475.00 196.12, 476.00 196.99, 477.00 197.86, 478.00 198.72, 479.00 199.56, 480.00 200.40, 481.00 201.23, 482.00 202.05, 483.00 202.86, 484.00 203.65, 485.00 204.44, 486.00 205.21, 487.00 205.97, 488.00 206.72, 489.00 207.46, 490.00 208.19, 491.00 208.90, 492.00 209.60, 493.00 210.29, 494.00 210.96, 495.00 211.62, 496.00 212.27, 497.00 212.90, 498.00 213.52, 499.00 214.13, 500.00 214.72, 501.00 215.29, 502.00 215.85, 503.00 216.40, 504.00 216.92, 505.00 217.44, 506.00 217.94, 507.00 218.42, 508.00 218.89, 509.00 219.34, 510.00 219.77, 511.00 220.19, 512.00 220.59, 513.00 220.97, 514.00 221.34, 515.00 221.69, 516.00 222.02, 517.00 222.34, 518.00 222.64, 519.00 222.92, 520.00 223.18, 521.00 223.43, 522.00 223.66, 523.00 223.87, 524.00 224.06, 525.00 224.24, 526.00 224.39, 527.00 224.53, 528.00 224.65, 529.00 224.76, 530.00 224.84, 531.00 224.91, 532.00 224.96, 533.00 224.99, 534.00 225.00, 535.00 224.99, 536.00 224.97, 537.00 224.93, 538.00 224.87, 539.00 224.79, 540.00 224.69, 541.00 224.58, 542.00 224.45, 543.00 224.29, 544.00 224.13, 545.00 223.94, 546.00 223.74, 547.00 223.51, 548.00 223.27, 549.00 223.02, 550.00 222.74, "
     id="polyline6341"
     style="fill:#ffeedd;fill-opacity:0.2;stroke:#9ade00;stroke-width:2.295071"
     transform="matrix(0.653636,0,0,0.653513,0.250024,3.28147)" />
  <text
     xml:space="preserve"
     style="color:#000000;font-style:italic;font-variant:normal;font-weight:normal;font-stretch:normal;font-size:21.333332px;line-height:16.326099px;font-family:'Comic Sans MS';-inkscape-font-specification:'Comic Sans MS, Italic';font-variant-ligatures:normal;font-variant-caps:normal;font-variant-numeric:normal;font-feature-settings:normal;text-indent:0;text-align:start;text-decoration:none;text-decoration-line:none;text-decoration-style:solid;text-decoration-color:#000000;letter-spacing:0px;word-spacing:0px;text-transform:none;writing-mode:lr-tb;direction:ltr;baseline-shift:baseline;text-anchor:start;white-space:normal;clip-rule:nonzero;display:inline;overflow:visible;visibility:visible;opacity:1;isolation:auto;mix-blend-mode:normal;color-interpolation:sRGB;color-interpolation-filters:linearRGB;solid-color:#000000;solid-opacity:1;fill:#00008b;fill-opacity:1;fill-rule:nonzero;stroke:none;stroke-width:1px;stroke-linecap:butt;stroke-linejoin:miter;stroke-miterlimit:4;stroke-dasharray:none;stroke-dashoffset:0;stroke-opacity:1;color-rendering:auto;image-rendering:auto;shape-rendering:auto;text-rendering:auto;enable-background:accumulate;"
     x="245.189"
     y="33.0302"
     id="text5618"
     transform="scale(1.00016,0.999841)"><tspan
       sodipodi:role="line"
       id="tspan5616"
       x="245.189"
       y="33.0302"
       style="font-style:italic;font-variant:normal;font-weight:normal;font-stretch:normal;font-size:21.333332px;font-family:'Comic Sans MS';-inkscape-font-specification:'Comic Sans MS, Italic';font-variant-ligatures:normal;font-variant-caps:normal;font-variant-numeric:normal;font-feature-settings:normal;text-align:start;writing-mode:lr-tb;text-anchor:start;stroke-width:1px;fill:#00008b;">sinh(x)</tspan></text>
  <text
     id="text5622"
     y="69.5189"
     x="254.867"
     style="color:#000000;font-style:italic;font-variant:normal;font-weight:normal;font-stretch:normal;font-size:21.333332px;line-height:16.326099px;font-family:'Comic Sans MS';-inkscape-font-specification:'Comic Sans MS, Italic';font-variant-ligatures:normal;font-variant-caps:normal;font-variant-numeric:normal;font-feature-settings:normal;text-indent:0;text-align:start;text-decoration:none;text-decoration-line:none;text-decoration-style:solid;text-decoration-color:#000000;letter-spacing:0px;word-spacing:0px;text-transform:none;writing-mode:lr-tb;direction:ltr;baseline-shift:baseline;text-anchor:start;white-space:normal;clip-rule:nonzero;display:inline;overflow:visible;visibility:visible;opacity:1;isolation:auto;mix-blend-mode:normal;color-interpolation:sRGB;color-interpolation-filters:linearRGB;solid-color:#000000;solid-opacity:1;fill:#9ade00;fill-opacity:1;fill-rule:nonzero;stroke:none;stroke-width:1px;stroke-linecap:butt;stroke-linejoin:miter;stroke-miterlimit:4;stroke-dasharray:none;stroke-dashoffset:0;stroke-opacity:1;color-rendering:auto;image-rendering:auto;shape-rendering:auto;text-rendering:auto;enable-background:accumulate"
     xml:space="preserve"
     transform="scale(1.00016,0.999841)"><tspan
       y="69.5189"
       x="254.867"
       id="tspan5620"
       sodipodi:role="line"
       style="font-style:italic;font-variant:normal;font-weight:normal;font-stretch:normal;font-size:21.333332px;font-family:'Comic Sans MS';-inkscape-font-specification:'Comic Sans MS, Italic';font-variant-ligatures:normal;font-variant-caps:normal;font-variant-numeric:normal;font-feature-settings:normal;text-align:start;writing-mode:lr-tb;text-anchor:start;stroke-width:1px">sin(x)</tspan></text>
  <text
     xml:space="preserve"
     style="font-style:italic;font-variant:normal;font-weight:bold;font-stretch:normal;font-size:30.012499px;line-height:125%;font-family:'Times New Roman';-inkscape-font-specification:'Times New Roman Bold Italic';text-indent:0;text-align:start;text-decoration:none;text-decoration-line:none;letter-spacing:normal;word-spacing:normal;text-transform:none;writing-mode:lr-tb;direction:ltr;text-anchor:start;display:inline;overflow:visible;visibility:visible;opacity:1;fill:#000000;fill-opacity:1;fill-rule:nonzero;stroke:none;stroke-width:0.535937px;stroke-linecap:butt;stroke-linejoin:miter;stroke-miterlimit:4;stroke-dasharray:none;stroke-dashoffset:0;stroke-opacity:1;marker:none;marker-start:none;marker-mid:none;marker-end:none"
     x="161.53"
     y="18.9619"
     id="text3708"><tspan
       y="18.9619"
       x="161.53"
       id="tspan3710"
       sodipodi:role="line"
       style="stroke-width:0.535937px">y</tspan></text>
  <text
     xml:space="preserve"
     style="font-style:italic;font-variant:normal;font-weight:bold;font-stretch:normal;font-size:30.012499px;line-height:125%;font-family:'Times New Roman';text-indent:0;text-align:start;text-decoration:none;text-decoration-line:none;letter-spacing:normal;word-spacing:normal;text-transform:none;writing-mode:lr-tb;direction:ltr;text-anchor:start;display:inline;overflow:visible;visibility:visible;opacity:1;fill:#000000;fill-opacity:1;fill-rule:nonzero;stroke:none;stroke-width:0.535937px;stroke-linecap:butt;stroke-linejoin:miter;stroke-miterlimit:4;stroke-dasharray:none;stroke-dashoffset:0;stroke-opacity:1;marker:none;marker-start:none;marker-mid:none;marker-end:none"
     x="339.615"
     y="134.379"
     id="text3726"><tspan
       y="134.379"
       x="339.615"
       id="tspan3728"
       sodipodi:role="line"
       style="stroke-width:0.535937px">x</tspan></text>
</svg>
