<?xml version="1.0" encoding="UTF-8" standalone="no"?>
<!-- Copyright 2017 mathsisfun.com -->
<svg xmlns="http://www.w3.org/2000/svg" xmlns:xlink="http://www.w3.org/1999/xlink" width="260.8" height="162.3" version="1.1">
<defs>
<pattern height="478" width="227.1" patternUnits="userSpaceOnUse" patternTransform="matrix(0.82659,-0.5628046,0.5628046,0.82659,1365.417,4872.8044)">
<image x="-227.1" y="0" width="227.1" height="478" transform="scale(-1,1)" xlink:href="../../../file/C_/Images/SVG/Banana.jpg"/>
</pattern>
<marker id="id1" style="overflow:visible;" orient="auto">
<path transform="matrix(-0.4,0,0,-0.4,-4,0)" style="stroke:black; stroke-width:1pt;" d="M 0,0 5,-5 -12.5,0 5,5 Z"/>
</marker>
</defs>
<g transform="translate(75.8531,-1572.77)">
<rect x="-75.9" y="1572.8" width="260.8" height="162.3" style="color:black; overflow:visible; fill:white; stroke-width:4.73;"/>
<g transform="matrix(0.3553,0,0,0.354959,-3.26075,1356.32)">
<g transform="translate(-853.459,49.8897)">
<g style="fill:none; stroke:#d8dadc; stroke-width:2.98; stroke-dasharray:23.9, 3;">
<g>
<path d="M 924.1,601.7 H 1450.8"/>
<path d="M 924.1,535.6 H 1450.8"/>
<path d="M 924.1,469.4 H 1450.8"/>
<path d="M 924.1,403.3 H 1450.8"/>
<path d="M 924.1,932.5 H 1450.8"/>
<path d="M 924.1,800.2 H 1450.8"/>
<path d="M 924.1,734 H 1450.8"/>
<path d="M 924.1,667.9 H 1450.8"/>
<path d="M 926.5,866.3 H 1453.2"/>
</g>
</g>
</g>
<g transform="rotate(-90,786.875,1119.55)">
<g style="fill:none; stroke:#d8dadc; stroke-width:2.98; stroke-dasharray:23.9, 3;">
<g>
<path d="M 924.1,601.7 H 1450.8"/>
<path d="M 924.1,535.6 H 1450.8"/>
<path d="M 924.1,469.4 H 1450.8"/>
<path d="M 924.1,403.3 H 1450.8"/>
<path d="M 924.1,932.5 H 1450.8"/>
<path d="M 924.1,800.2 H 1450.8"/>
<path d="M 924.1,734 H 1450.8"/>
<path d="M 924.1,667.9 H 1450.8"/>
<path d="M 926.5,866.3 H 1453.2"/>
</g>
</g>
</g>
</g>
<path style="marker-end:url(#id1); fill:#2e3436; fill-opacity:0.75; stroke:#2e3436; stroke-width:1.59;" d="M -48.8,1704.9 H 180.9"/>
<path style="marker-end:url(#id1); fill:#2e3436; fill-opacity:0.75; stroke:#2e3436; stroke-width:1.59;" d="M 21.6,1730.4 V 1576.8"/>
<text x="163.7" y="1723.1" transform="scale(1.00048,0.999521)" style="font-family:'Comic Sans MS'; font-weight:bold; font-size:23.5px; font-style:italic; overflow:visible; fill:black; stroke-width:0.53px;">x</text>
<text x="56.9" y="1722" transform="scale(1.00048,0.999521)" style="font-family:'Comic Sans MS'; font-size:20.4px; overflow:visible; fill:#f44800; stroke-width:1.17;">x</text>
<text x="68" y="1726.6" transform="scale(1.00048,0.999521)" style="font-family:'Comic Sans MS'; font-size:13.5px; overflow:visible; fill:#f44800; stroke-width:1.59;">1</text>
<path style="overflow:visible; fill:none; stroke:#0197fd; stroke-width:2.65; stroke-linecap:round;" d="m -44.2,1584.5 c 0,0 76.6,7.5 97.7,22.8 21.1,15.3 21.6,29.6 40,52.4 18.4,22.8 46,9.8 80.4,28.3 34.4,18.5 72.9,61.4 72.9,61.4"/>
<text x="107" y="1721.7" transform="scale(1.00048,0.999521)" style="font-family:'Comic Sans MS'; font-size:20.4px; overflow:visible; fill:#f44800; stroke-width:1.17;">x</text>
<text x="118.1" y="1726.3" transform="scale(1.00048,0.999521)" style="font-family:'Comic Sans MS'; font-size:13.5px; overflow:visible; fill:#f44800; stroke-width:1.59;">2</text>
<path style="overflow:visible; fill:none; stroke:#121513; stroke-width:1.8; stroke-dasharray:1.8, 3.6;" d="m 66.2,1704.4 v -85 H 22.1"/>
<path style="overflow:visible; fill:none; stroke:#121513; stroke-width:1.8; stroke-dasharray:1.8, 3.6;" d="m 114,1704.4 v -31.6 H 22.9"/>
<ellipse cx="66.8" cy="1619.4" rx="3.3" ry="3.3" style="overflow:visible; fill:#f0a513; stroke:#fdca01; stroke-width:2.38;"/>
<text x="4.1" y="1588.5" transform="scale(1.00048,0.999521)" style="font-family:'Comic Sans MS'; font-weight:bold; font-size:23.5px; font-style:italic; overflow:visible; fill:black; stroke-width:0.53px;">y</text>
<path style="color:black; overflow:visible; fill:#0169c9; stroke-width:2.23;" d="m 14.3,1606.8 c -0.1,0 -0.3,0 -0.4,0 -0.2,0 -0.4,0 -0.6,0.1 -0.2,0.1 -0.4,0.1 -0.5,0.1 -0.1,0 -0.2,0.1 -0.4,0.1 -0.1,0.1 -0.3,0.1 -0.4,0.2 -0.1,0.1 -0.2,0.2 -0.3,0.3 -0.1,0.1 -0.3,0.3 -0.4,0.4 -0.1,0.2 -0.2,0.3 -0.4,0.5 -0.1,0.2 -0.2,0.3 -0.3,0.5 -0.1,0.2 -0.2,0.4 -0.3,0.6 -0.1,0.2 -0.2,0.5 -0.3,0.7 -0.1,0.3 -0.2,0.5 -0.3,0.8 -0.1,0.3 -0.2,0.6 -0.3,0.9 -0,0.3 -0.2,0.6 -0.2,0.9 -0,0.3 -0.1,0.6 -0.2,0.9 -0,0.3 -0.1,0.7 -0.1,1.1 -0,0.4 -0,0.7 -0.1,1.1 0,0.4 -0,0.8 -0,1.1 0,0.4 0,0.8 0,1.2 0,0.4 0,0.9 0,1.3 0,0.4 0,0.8 0,1.3 0,0.4 0,0.8 0,1.2 0,0.5 0,0.9 0,1.4 0,0.5 0,1 0,1.5 0,0.5 0,0.9 0,1.4 0,0.4 0,0.9 0,1.3 0,0.4 0,0.9 0,1.3 0,0.4 0,0.8 0,1.1 0,0.4 0,0.8 0,1.1 0,0.4 -0,0.8 -0,1.2 0,0.4 -0,0.8 -0.1,1.2 -0,0.4 -0,0.7 -0.1,1.1 -0,0.4 -0.1,0.8 -0.2,1.1 -0,0.4 -0.1,0.7 -0.2,1.1 -0,0.3 -0.1,0.6 -0.2,1 -0,0.3 -0.1,0.6 -0.2,0.9 -0,0.3 -0.2,0.6 -0.3,0.9 -0.1,0.3 -0.2,0.6 -0.3,0.8 -0.1,0.3 -0.2,0.5 -0.3,0.8 -0.1,0.3 -0.3,0.5 -0.4,0.8 -0.2,0.3 -0.3,0.5 -0.5,0.8 -0.1,0.2 -0.3,0.5 -0.4,0.7 -0.1,0.2 -0.3,0.4 -0.4,0.7 -0.1,0.2 -0.3,0.4 -0.4,0.7 -0.1,0.2 -0.3,0.4 -0.4,0.6 -0.1,0.2 -0.2,0.3 -0.4,0.5 -0.1,0.2 -0.2,0.3 -0.4,0.5 -0.1,0.1 -0.2,0.3 -0.3,0.4 -0.1,0.1 -0.2,0.2 -0.3,0.3 -0.1,0.2 -0.3,0.3 -0.4,0.4 -0.1,0.1 -0.3,0.2 -0.5,0.3 -0.1,0.1 -0.3,0.2 -0.5,0.3 -0.1,0.1 -0.3,0.1 -0.5,0.2 -0.2,0.1 -0.3,0.1 -0.5,0.2 -0.2,0.1 -0.3,0.1 -0.5,0.1 -0.1,0 -0.3,0.1 -0.4,0.1 -0.1,0 -0.2,0 -0.4,0.1 -0.1,0 -0.3,0 -0.4,0 -0.1,0 -0.2,0 -0.3,0 -0,0 -0.2,0 -0.3,0 -0,0 -0.1,0 -0.2,0 -0,0 -0.1,0 -0.2,0 -0,0 -0.1,0 -0.2,0 -0,0 -0,0 -0.1,0 -0,0 -0,0 -0.1,0 -0,0 -0.2,0 -0.3,0 -0,0 -0.2,0 0.1,0 0,0 0,-3.4 0,-3.4 v 0 c 0,0 0.1,0 0.2,0 0,0 -0.2,0 -0,0 0,0 0,0 0.1,0 0,0 0,0 0.1,0 0,0 0.1,0 0.2,0 0,0 0.1,0 0.2,0 0,0 0.1,0 0.2,0 0,0 0.2,0 0.3,0 0,0 0.2,0 0.3,0 0,0 0.2,0 0.2,-0.1 0.1,0 0.2,0 0.3,-0.1 0.1,0 0.2,-0.1 0.3,-0.1 0.1,0 0.3,-0.1 0.4,-0.1 0.1,0 0.2,-0.1 0.3,-0.1 0.1,-0.1 0.2,-0.1 0.3,-0.1 0.1,0 0.2,-0.1 0.3,-0.2 0,0 0.2,-0.1 0.2,-0.2 0,-0.1 0,-0.1 0.1,-0.1 0,-0.1 0.2,-0.2 0.3,-0.3 0.1,-0.1 0.2,-0.2 0.3,-0.3 0,-0.1 0.2,-0.2 0.3,-0.3 0.1,-0.1 0.2,-0.3 0.3,-0.4 0.1,-0.2 0.2,-0.3 0.4,-0.5 0.1,-0.2 0.2,-0.4 0.3,-0.5 0.1,-0.2 0.2,-0.4 0.3,-0.6 0.1,-0.2 0.3,-0.5 0.4,-0.7 0.1,-0.2 0.3,-0.5 0.4,-0.7 0.1,-0.2 0.2,-0.4 0.3,-0.6 0,-0.2 0.2,-0.4 0.3,-0.6 0,-0.2 0.2,-0.4 0.3,-0.7 0,-0.2 0.2,-0.4 0.2,-0.7 0,-0.2 0.1,-0.5 0.2,-0.7 0,-0.3 0.1,-0.6 0.2,-0.9 0,-0.3 0.1,-0.6 0.2,-0.9 0,-0.3 0.1,-0.6 0.1,-0.9 0,-0.3 0,-0.6 0.1,-1 0,-0.3 0,-0.7 0.1,-1 0,-0.3 0,-0.7 0,-1 0,-0.3 0,-0.7 0,-1 0,-0.4 0,-0.7 0,-1.1 0,-0.4 0,-0.8 0,-1.2 0,-0.4 0,-0.9 -0,-1.3 0,-0.5 0,-0.9 0,-1.4 0,-0.5 0,-1 -0,-1.4 0,-0.5 0,-0.9 -0,-1.4 0,-0.4 -0,-0.9 -0,-1.3 0,-0.4 0,-0.9 0,-1.3 0,-0.4 0,-0.9 0,-1.3 0,-0.4 0,-0.9 0,-1.3 0,-0.5 0,-0.9 0,-1.3 0,-0.5 0,-0.9 0.1,-1.4 0,-0.4 0.1,-0.8 0.2,-1.3 0,-0.4 0.1,-0.8 0.2,-1.2 0,-0.4 0.2,-0.7 0.3,-1 0.1,-0.3 0.2,-0.7 0.3,-1 0.1,-0.3 0.2,-0.7 0.3,-1 0.1,-0.3 0.2,-0.7 0.4,-1 0.1,-0.3 0.3,-0.6 0.4,-0.9 0.2,-0.3 0.3,-0.6 0.5,-0.8 0.2,-0.2 0.3,-0.5 0.5,-0.7 0.2,-0.2 0.4,-0.5 0.6,-0.7 0.2,-0.2 0.4,-0.4 0.7,-0.5 0.2,-0.1 0.4,-0.3 0.7,-0.4 0.2,-0.1 0.5,-0.2 0.7,-0.3 0.2,0 0.4,-0.1 0.6,-0.1 0.2,-0.1 0.5,-0.1 0.7,-0.1 0.2,0 0.5,0 0.7,0 0,0 -0.1,3.4 -0.1,3.4 z"/>
<path style="color:black; overflow:visible; fill:#0169c9; stroke-width:2.23;" d="m 14.3,1687.3 c -0.1,0 -0.3,0 -0.4,0 -0.2,-0.1 -0.4,-0.1 -0.6,-0.1 -0.2,0 -0.4,-0.1 -0.5,-0.1 -0.1,0 -0.2,-0.1 -0.4,-0.1 -0.1,-0.1 -0.3,-0.1 -0.4,-0.2 -0.1,-0.1 -0.2,-0.2 -0.3,-0.3 -0.1,-0.1 -0.3,-0.3 -0.4,-0.4 -0.1,-0.2 -0.2,-0.3 -0.4,-0.5 -0.1,-0.2 -0.2,-0.3 -0.3,-0.5 -0.1,-0.2 -0.2,-0.4 -0.3,-0.6 -0.1,-0.2 -0.2,-0.5 -0.3,-0.7 -0.1,-0.3 -0.2,-0.5 -0.3,-0.8 -0.1,-0.3 -0.2,-0.6 -0.3,-0.9 -0,-0.3 -0.2,-0.6 -0.2,-0.9 -0,-0.3 -0.1,-0.6 -0.2,-0.9 -0,-0.4 -0.1,-0.7 -0.1,-1.1 -0,-0.4 -0,-0.7 -0.1,-1.1 0,-0.4 -0,-0.7 -0,-1.1 0,-0.4 0,-0.8 0,-1.2 0,-0.4 0,-0.9 0,-1.3 0,-0.4 0,-0.8 0,-1.2 0,-0.4 0,-0.8 0,-1.2 0,-0.5 0,-0.9 0,-1.4 0,-0.5 0,-1 0,-1.5 0,-0.5 0,-0.9 0,-1.4 0,-0.5 0,-0.9 0,-1.3 0,-0.4 0,-0.9 0,-1.3 0,-0.4 0,-0.8 0,-1.1 0,-0.4 0,-0.8 0,-1.1 0,-0.4 -0,-0.8 -0,-1.2 0,-0.4 -0,-0.8 -0.1,-1.2 -0,-0.4 -0,-0.7 -0.1,-1.1 -0,-0.4 -0.1,-0.8 -0.2,-1.1 -0,-0.4 -0.1,-0.7 -0.2,-1.1 -0,-0.3 -0.1,-0.6 -0.2,-1 -0,-0.3 -0.1,-0.6 -0.2,-0.9 -0,-0.3 -0.2,-0.6 -0.3,-0.9 -0.1,-0.3 -0.2,-0.6 -0.3,-0.8 -0.1,-0.3 -0.2,-0.5 -0.3,-0.8 -0.1,-0.3 -0.3,-0.6 -0.4,-0.8 -0.2,-0.3 -0.3,-0.5 -0.5,-0.8 -0.1,-0.3 -0.3,-0.5 -0.4,-0.7 -0.1,-0.2 -0.3,-0.4 -0.4,-0.6 -0.1,-0.2 -0.3,-0.4 -0.4,-0.7 -0.1,-0.2 -0.3,-0.4 -0.4,-0.6 -0.1,-0.2 -0.2,-0.3 -0.4,-0.5 -0.1,-0.2 -0.2,-0.3 -0.4,-0.5 -0.1,-0.1 -0.2,-0.3 -0.3,-0.4 -0.1,-0.1 -0.2,-0.2 -0.3,-0.3 -0.1,-0.2 -0.3,-0.3 -0.4,-0.4 -0.1,-0.1 -0.3,-0.2 -0.5,-0.3 -0.1,-0.1 -0.3,-0.2 -0.5,-0.2 -0.1,-0.1 -0.3,-0.2 -0.5,-0.2 -0.2,-0.1 -0.3,-0.1 -0.5,-0.2 -0.2,0 -0.3,-0.1 -0.5,-0.1 -0.1,0 -0.3,-0.1 -0.4,-0.1 -0.1,0 -0.2,-0.1 -0.4,-0.1 -0.1,-0.1 -0.3,-0.1 -0.4,-0.1 -0.1,0 -0.2,0 -0.3,0 -0,0 -0.2,0 -0.3,0 -0,0 -0.1,0 -0.2,0 -0,0 -0.1,0 -0.2,0 -0,0 -0.1,0 -0.2,0 -0,0 -0,0 -0.1,0 -0,0 -0,0 -0.1,0 -0,0 -0.2,0 -0.3,0.1 -0,0 -0.2,0 0.1,0 0,0 0,3.4 0,3.4 v 0 c 0,0 0.1,0 0.2,0 0,0 -0.2,0 -0,0 0,0 0,0 0.1,0 0,0 0,0 0.1,0 0,0 0.1,0 0.2,0 0,0 0.1,0 0.2,0 0,0 0.1,0 0.2,0 0,0 0.2,0 0.3,0 0,0 0.2,0 0.3,0 0,0 0.2,0 0.2,0 0.1,0 0.2,0.1 0.3,0.1 0.1,0 0.2,0.1 0.3,0.1 0.1,0 0.3,0.1 0.4,0.1 0.1,0.1 0.2,0.1 0.3,0.1 0.1,0 0.2,0.1 0.3,0.1 0.1,0.1 0.2,0.1 0.3,0.2 0,0 0.2,0.1 0.2,0.2 0,0 0,0.1 0.1,0.1 0,0.1 0.2,0.2 0.3,0.3 0.1,0.1 0.2,0.2 0.3,0.3 0,0.1 0.2,0.2 0.3,0.3 0.1,0.1 0.2,0.3 0.3,0.4 0.1,0.2 0.2,0.3 0.4,0.5 0.1,0.2 0.2,0.4 0.3,0.5 0.1,0.2 0.2,0.4 0.3,0.6 0.1,0.2 0.3,0.5 0.4,0.7 0.1,0.2 0.3,0.5 0.4,0.7 0.1,0.2 0.2,0.4 0.3,0.6 0,0.2 0.2,0.4 0.3,0.6 0,0.2 0.2,0.5 0.3,0.7 0,0.2 0.2,0.4 0.2,0.7 0,0.2 0.1,0.5 0.2,0.7 0,0.3 0.1,0.6 0.2,0.9 0,0.3 0.1,0.6 0.2,0.9 0,0.3 0.1,0.6 0.1,0.9 0,0.3 0,0.7 0.1,1 0,0.3 0,0.7 0.1,1 0,0.3 0,0.7 0,1 0,0.3 0,0.7 0,1 0,0.4 0,0.7 0,1.1 0,0.4 0,0.8 0,1.2 0,0.4 0,0.9 -0,1.3 0,0.5 0,0.9 0,1.4 0,0.5 0,1 -0,1.4 0,0.5 0,0.9 -0,1.4 0,0.4 -0,0.9 -0,1.3 0,0.4 0,0.9 0,1.3 0,0.5 0,0.9 0,1.3 0,0.4 0,0.9 0,1.3 0,0.4 0,0.9 0,1.3 0,0.5 0,0.9 0.1,1.4 0,0.4 0.1,0.8 0.2,1.3 0,0.4 0.1,0.8 0.2,1.2 0,0.4 0.2,0.7 0.3,1 0.1,0.3 0.2,0.7 0.3,1 0.1,0.3 0.2,0.7 0.3,1 0.1,0.3 0.2,0.7 0.4,1 0.1,0.3 0.3,0.6 0.4,0.9 0.2,0.3 0.3,0.6 0.5,0.8 0.2,0.3 0.3,0.5 0.5,0.7 0.2,0.2 0.4,0.5 0.6,0.7 0.2,0.2 0.4,0.4 0.7,0.5 0.2,0.1 0.4,0.3 0.7,0.4 0.2,0.1 0.5,0.2 0.7,0.3 0.2,0.1 0.4,0.1 0.6,0.1 0.2,0.1 0.5,0.1 0.7,0.1 0.2,0.1 0.5,0.1 0.7,0.1 0,0 -0.1,-3.4 -0.1,-3.4 z"/>
<ellipse cx="114.5" cy="1673.2" rx="3.3" ry="3.3" style="overflow:visible; fill:#f0a513; stroke:#fdca01; stroke-width:2.38;"/>
<text x="53.1" y="1808.1" transform="scale(1.00048,0.999521)" style="font-family:'Comic Sans MS'; text-align:center; text-anchor:middle; font-size:20.2px; color:black; overflow:visible; fill:#fb8b00; stroke-width:2.23;">&quot;Injective&quot; (one-to-one)</text>
<text x="-70.4" y="1643.3" style="font-family:'Comic Sans MS'; font-size:20px; font-style:italic; color:black; overflow:visible; fill:#013397; stroke-width:1px;">always</text>
<text x="-66.2" y="1660.9" style="font-family:'Comic Sans MS'; font-size:20px; font-style:italic; color:black; overflow:visible; fill:#013397; stroke-width:1px;">unique</text>
</g>
</svg>
