<?xml version="1.0" encoding="UTF-8" standalone="no"?>
<!-- Copyright 2021 mathsisfun.com -->
<svg xmlns:sodipodi="http://sodipodi.sourceforge.net/DTD/sodipodi-0.dtd" xmlns="http://www.w3.org/2000/svg" width="230" height="44.5" version="1.1" style="font-family:'Trebuchet MS'; stroke-width:1pt;">
<defs>
	<marker style="overflow:visible;" orient="auto">
		<path transform="matrix(0.2,0,0,0.2,1.2,0)" style="stroke:black;" d="M 0,0 5,-5 -12.5,0 5,5 Z"/>
	</marker>
	<marker style="overflow:visible;" orient="auto">
		<path transform="matrix(0.8,0,0,0.8,10,0)" style="stroke:black;" d="M 0,0 5,-5 -12.5,0 5,5 Z"/>
	</marker>
	<marker style="overflow:visible;" orient="auto">
		<path transform="matrix(-0.4,0,0,-0.4,-4,0)" style="stroke:black;" d="M 0,0 5,-5 -12.5,0 5,5 Z"/>
	</marker>
	<marker style="overflow:visible;" orient="auto">
		<path transform="matrix(0.4,0,0,0.4,4,0)" style="stroke:black;" d="M 0,0 5,-5 -12.5,0 5,5 Z"/>
	</marker>
	<marker style="overflow:visible;" orient="auto">
		<path transform="matrix(0.3,0,0,0.3,-0.69,0)" style="stroke-width:0.63; stroke-linejoin:round;" d="M 8.7,4 -2.2,0 8.7,-4 c -1.7,2.4 -1.7,5.6 0,8 z"/>
	</marker>
	<marker style="overflow:visible;" orient="auto">
		<path transform="matrix(1.1,0,0,1.1,1.1,0)" style="stroke-width:0.63; stroke-linejoin:round;" d="M 8.7,4 -2.2,0 8.7,-4 c -1.7,2.4 -1.7,5.6 0,8 z"/>
	</marker>
	<marker style="overflow:visible;" orient="auto">
		<path transform="matrix(-0.8,0,0,-0.8,-10,0)" style="stroke:black;" d="M 0,0 5,-5 -12.5,0 5,5 Z"/>
	</marker>
	<marker style="overflow:visible;" orient="auto">
		<path transform="matrix(0.4,0,0,0.4,4,0)" style="fill:#41ac41; stroke:#41ac41;" d="M 0,0 5,-5 -12.5,0 5,5 Z"/>
	</marker>
	<marker style="overflow:visible;" orient="auto">
		<path transform="matrix(-0.4,0,0,-0.4,-4,0)" style="fill:#41ac41; stroke:#41ac41;" d="M 0,0 5,-5 -12.5,0 5,5 Z"/>
	</marker>
</defs>
<g transform="translate(4327.58,-1722.46)">
	<path style="fill:#0169c9; stroke:#0169c9; stroke-width:1.25;" d="m -4327.6,1753.1 h 230"/>
	<path style="fill:#121513; stroke:#0169c9; stroke-width:1.25;" d="m -4194.4,1739.3 v 27.7"/>
	<circle cx="-4194.2" cy="1753.1" r="5.81164" style="fill:#41ac41; stroke:#41ac41; stroke-width:2.02;"/>
	<text x="-4195.1" y="1737" style="text-align:center; text-anchor:middle; font-size:20px; fill:#005c94; stroke-width:4.18;">3</text>
	<path style="fill:none; stroke:#41ac41; stroke-width:4.18;" d="m -4194.9,1753.1 h -49.5"/>
	<path style="fill:#121513; stroke:#0169c9; stroke-width:1.25;" d="m -4244.1,1739.3 v 27.7"/>
	<circle cx="4244.3" cy="1753.1" r="5.81164" transform="scale(-1,1)" style="fill:#41ac41; stroke:#41ac41; stroke-width:2.02;"/>
	<text x="-4244.4" y="1737.2" style="text-align:center; text-anchor:middle; font-size:20px; fill:#005c94; stroke-width:4.18;">0</text>
</g>
</svg>