<?xml version="1.0" encoding="UTF-8" standalone="no"?>
<!-- Copyright 2017 mathsisfun.com -->
<svg xmlns="http://www.w3.org/2000/svg" width="229.6" height="226.8" version="1.1">
<g transform="translate(646.288,-857.61)">
<rect x="-582.7" y="876.3" width="161.3" height="162.1" style="color:black; overflow:visible; fill:white; stroke-width:3.92;"/>
<path style="fill:none; fill-opacity:0.75; stroke:black; stroke-width:1.29;" d="m -582.7,876.3 v 162.1 h 160.4"/>
<text x="-547.1" y="1083.4" style="font-family:'Comic Sans MS'; font-size:17.8px; color:black; overflow:visible; fill:#729fcf; stroke-width:0.26px;">Items in List</text>
<text x="-1035.5" y="-632.3" transform="rotate(-90)" style="font-family:'Comic Sans MS'; font-size:17.8px; color:black; overflow:visible; fill:#c4a000; stroke-width:0.26px;">Time (milliseconds)</text>
<g style="color:black; overflow:visible; fill:none; stroke:#729fcf; stroke-width:1.29;">
<g>
<path d="m -431.5,1038.7 v 12.6"/>
<path d="m -450.9,1038.7 v 6.4"/>
<path d="m -470.2,1038.7 v 12.6"/>
<path d="m -489.6,1038.7 v 6.4"/>
<path d="m -508.9,1038.7 v 12.6"/>
<path d="m -528.3,1038.7 v 6.4"/>
<path d="m -547.6,1038.7 v 12.6"/>
<path d="m -567,1038.7 v 6.4"/>
</g>
</g>
<g style="color:black; overflow:visible; fill:none; stroke:#c4a000; stroke-width:1.29;">
<g>
<path d="M -422.8,886.5 H -596.5"/>
<path d="m -583.9,905.8 h -6.4"/>
<path d="M -422.8,925.2 H -596.5"/>
<path d="m -583.9,944.5 h -6.4"/>
<path d="M -422.8,963.9 H -596.5"/>
<path d="m -583.9,983.2 h -6.4"/>
<path d="M -422.8,1002.6 H -596.5"/>
</g>
</g>
<text x="-561" y="871.5" style="font-family:'Comic Sans MS'; font-size:17.8px; color:black; overflow:visible; fill:#005c94; stroke-width:0.26px;">Time to Finish</text>
<text x="-621.2" y="1007.6" style="font-family:'Comic Sans MS'; font-size:12.7px; font-style:italic; color:black; overflow:visible; fill:#c4a000; stroke-width:0.74px;">100</text>
<text x="-624.2" y="967.8" style="font-family:'Comic Sans MS'; font-size:12.7px; font-style:italic; color:black; overflow:visible; fill:#c4a000; stroke-width:0.74px;">200</text>
<text x="-623.4" y="930.2" style="font-family:'Comic Sans MS'; font-size:12.7px; font-style:italic; color:black; overflow:visible; fill:#c4a000; stroke-width:0.74px;">300</text>
<text x="-624.7" y="892.5" style="font-family:'Comic Sans MS'; font-size:12.7px; font-style:italic; color:black; overflow:visible; fill:#c4a000; stroke-width:0.74px;">400</text>
<text x="-564.2" y="1063.4" style="font-family:'Comic Sans MS'; font-size:12.7px; font-style:italic; color:black; overflow:visible; fill:#729fcf; stroke-width:0.74px;">1000</text>
<text x="-526.3" y="1063.4" style="font-family:'Comic Sans MS'; font-size:12.7px; font-style:italic; color:black; overflow:visible; fill:#729fcf; stroke-width:0.74px;">2000</text>
<text x="-487.3" y="1063.4" style="font-family:'Comic Sans MS'; font-size:12.7px; font-style:italic; color:black; overflow:visible; fill:#729fcf; stroke-width:0.74px;">3000</text>
<text x="-448.2" y="1063.4" style="font-family:'Comic Sans MS'; font-size:12.7px; font-style:italic; color:black; overflow:visible; fill:#729fcf; stroke-width:0.74px;">4000</text>
<path style="fill:none; fill-opacity:0.75; stroke:#005c94; stroke-width:1.85;" d="m -582.5,1038.1 c 43.6,0.1 80.5,-31.5 108.5,-59 28,-27.5 49,-75.3 52.6,-102.8"/>
<text x="-521.2" y="960.3" style="font-family:'Comic Sans MS'; font-size:39.5px; color:black; overflow:visible; fill:#005c94; stroke-width:0.32px;">x²</text>
<circle cx="-463.9" cy="967.6" r="2.8129" style="color:black; overflow:visible; fill:black; stroke-width:3.92;"/>
<circle cx="-431.6" cy="912.9" r="2.8129" style="color:black; overflow:visible; fill:black; stroke-width:3.92;"/>
<path style="color:black; overflow:visible; fill:none; stroke:#c4a000; stroke-width:1.29;" d="m -583.9,1021.9 h -6.4"/>
<circle cx="-547.6" cy="1031" r="2.8129" style="color:black; overflow:visible; fill:black; stroke-width:3.92;"/>
<circle cx="-508.5" cy="1008.5" r="2.8129" style="color:black; overflow:visible; fill:black; stroke-width:3.92;"/>
</g>
</svg>
