<?xml version="1.0" encoding="UTF-8" standalone="no"?>
<!-- Copyright 2017 mathsisfun.com -->
<svg xmlns="http://www.w3.org/2000/svg" width="369.6" height="106.7" version="1.1">
<defs>
</defs>
<text x="-0.5" y="102.7" style="font-family:'Comic Sans MS'; font-size:14.5px; overflow:visible; fill:#fdca01; stroke-width:7.45;">the set of</text>
<g transform="matrix(0.5,0,0,0.5,1134.86,1508.76)">
<path style="overflow:visible; fill:#fdca01; stroke-width:17.62;" d="m -2047.1,-3013.1 c -8.6,0.2 -8.8,0.4 -11.3,5.2 -4.1,9.7 3.1,20.7 -1.8,30.5 -3.2,8 -10.9,15 -19.5,15.7 0.1,-5.6 6.1,-3.9 9.3,-7.1 -3.6,3.4 6.8,-6.7 6,-10.8 3.4,-10.5 -5.1,-22.9 3.9,-31.8 0.8,-5.2 23.9,-8.7 13.4,-1.7 z"/>
<path style="overflow:visible; fill:#fdca01; stroke-width:17.62;" d="m -2046,-2915.1 c -8.6,-0.2 -8.8,-0.4 -11.3,-5.2 -4.1,-9.7 3.1,-20.7 -1.8,-30.6 -3.1,-8.1 -11.1,-14.8 -19.6,-15.7 0.1,5.6 6.1,4 9.2,7.2 -3.5,-3.4 7.2,7.1 6.2,11.6 2.8,10.2 -5,22.2 3.7,30.8 0.6,5.1 23.6,8.5 13.6,2 z"/>
</g>
<text x="123.7" y="34.9" style="font-family:'Comic Sans MS'; font-size:31.1px; overflow:visible; fill:#0197fd; stroke-width:7.45;">x</text>
<text x="182.9" y="35.4" style="font-family:'Comic Sans MS'; font-size:31.1px; overflow:visible; fill:#0169c9; stroke-width:7.45;">x</text>
<text x="224.7" y="36.3" style="font-family:'Comic Sans MS'; font-size:26.5px; overflow:visible; fill:#0169c9; stroke-width:7;">0</text>
<path style="overflow:visible; fill:none; stroke:#121513; stroke-width:2.25;" d="m 164.1,6 v 41.3"/>
<g transform="matrix(0.160676,0,0,0.160676,201.51,269.12)">
<path style="overflow:visible; fill:#fdca01; stroke-width:17.62;" d="m 321.6,-1661.3 c 27.9,1 25.1,-0.5 35.1,18.3 9.8,31.7 -12.3,67.3 7.1,98 10.2,22.2 33.2,38.6 57,41.8 -0.4,-17.3 -18.9,-12.8 -28.8,-22.4 8,9.4 -28.4,-30.4 -21.7,-48.5 -1.5,-27.8 15.1,-60.3 -8.6,-83.1 -3.4,-17.1 -76.2,-26.4 -40.1,-4.1 z"/>
<path style="overflow:visible; fill:#fdca01; stroke-width:17.62;" d="m 318.2,-1356.3 c 26.4,-0.7 25.6,-0.1 33.8,-15.5 13.1,-30.9 -11,-66.4 6.8,-97.3 9.7,-23.9 33.5,-42.1 58.6,-45.5 -0.4,17.3 -18.9,12.8 -28.8,22.4 8,-9.4 -28.4,30.4 -21.7,48.5 -1.5,27.8 15.1,60.4 -8.6,83.2 -3.3,17.1 -76.2,26.4 -40.1,4.2 z"/>
</g>
<g style="fill:#0197fd;" transform="matrix(0.218956,-0.028849,0.013889,0.10541,302.69,-13.8)">
<path style="overflow:visible; fill:#0197fd; stroke-width:14.9;" d="m -972.1,703.5 c 14.5,-43.1 30.3,-91.6 67.5,-120.3 14.3,0.3 53.7,10.7 43,6.4 26.7,-35.9 24.2,-84.8 35.6,-126.7 8.8,-20.1 -2.6,-56.4 24.7,-60.3 -9,54.4 -18.7,114.3 -33.9,169.4 -8.8,25.5 -38.7,47.1 -61.9,25.4 -22.4,-3.4 -29.1,38.6 -47.8,69.6 -8.4,15.9 -5.2,35.1 -27.2,36.6 z"/>
<path style="overflow:visible; fill:#0197fd; stroke-width:14.9;" d="m -861.5,474.3 c 21.8,-25.6 38.9,-55.6 50.4,-87.1 29.3,-17.7 4.8,26.1 15.5,39.9 2.6,16.3 8,32 13.7,47.4 -16.8,22.4 -18.8,-6.2 -23.5,-19.8 -5,-21.6 -13.7,-46.5 -3.3,-67.6 26.1,-15.4 4.3,15.6 1.4,25.5 -11.6,20.6 -21.8,46.2 -40.6,59.9 -4.5,0.6 -9.1,1.2 -13.6,1.8 z"/>
</g>
<text x="86.6" y="102.7" style="font-family:'Comic Sans MS'; font-size:14.5px; overflow:visible; fill:#0197fd; stroke-width:7.45;">all x</text>
<g transform="matrix(0.160676,0,0,0.141008,30.94,116.35)">
<path style="overflow:visible; fill:#0169c9; stroke-width:14.9;" d="m 1171.9,-407.2 c 18.1,32.6 23.4,72.9 49.5,100.3 24.6,21.5 44.2,-21.2 70.8,-13.1 35.2,15.3 51.6,55.9 66.7,88.8 1.7,17.4 29.8,40.3 3.4,48.9 -20.7,-42.6 -32.3,-95 -73.4,-123.3 -26.4,-6.7 -45.4,32.6 -72.2,14.1 -34.1,-25.4 -38.2,-72.1 -58.6,-107.3 4.6,-2.8 9.2,-5.6 13.8,-8.4 z"/>
<path style="overflow:visible; fill:#0169c9; stroke-width:14.9;" d="m 1146.5,-329.1 c 10.1,-29.7 9.6,-61.8 9.9,-92.5 21,-13.5 20.7,23.5 38.8,28.6 10.6,11.9 48.3,11.6 26.3,30.9 -24.8,-8.2 -53.7,-23.7 -63,-51 17.6,-18.6 12.9,-3 13,13.1 -1.8,21.8 0.6,49.6 -12.1,66.7 -4.3,1.4 -8.6,2.8 -12.9,4.2 z"/>
</g>
<text x="139.1" y="102.7" style="font-family:'Comic Sans MS'; font-size:14.5px; overflow:visible; fill:#121513; stroke-width:7.45;">such that</text>
<text x="221.2" y="102.7" style="font-family:'Comic Sans MS'; font-size:14.5px; overflow:visible; fill:#0169c9; stroke-width:7.45;">x is greater than zero</text>
<path style="overflow:visible; fill:#121513; fill-opacity:0.84; stroke-width:2.5; stroke-linecap:round;" d="m 159.5,86.6 c -0.3,-5.2 6,-12.9 6,-14.7 0.7,-2.9 -1.1,-6.3 -0.5,-8.8 3,-4 2.2,3.5 2.8,5.4 0.6,4.3 -5.1,11.4 -5.2,12.5 -0.3,2.6 -0.9,4.1 -3.1,5.6 z"/>
<path style="overflow:visible; fill:#121513; fill-opacity:0.84; stroke-width:2.5; stroke-linecap:round;" d="m 159.5,70.5 c 2.8,-4 2.1,-2.9 4.1,-7.3 0.6,-5.1 5.2,-2.2 6.3,0.8 1.5,1.8 5.4,4.7 1.5,5.5 -2.3,-2.2 -4.2,-4.8 -6.2,-7.3 3.3,-2.9 -1.1,4 -1.8,6.1 -1.3,1.4 -2.3,6.4 -3.9,2.2 z"/>
<path style="overflow:visible; fill:none; stroke:#0169c9; stroke-width:2.16; stroke-linecap:round;" d="m 208.1,20.6 11.6,6.7 -11.6,6.8"/>
<path style="overflow:visible; fill:#fdca01; fill-opacity:0.84; stroke-width:2.5; stroke-linecap:round;" d="m 43,84.6 c 7.5,-16.5 20.2,-30.9 37,-38.3 6.2,-3.8 0.3,4.6 -3.2,4.2 -5.8,2.4 -14.3,9.3 -15.8,11.3 -6.4,6.2 -11.1,14 -15.1,21.9 -1,0.3 -1.9,0.6 -2.9,0.9 z"/>
<path style="overflow:visible; fill:#fdca01; fill-opacity:0.84; stroke-width:2.5; stroke-linecap:round;" d="m 69.6,45.4 c 4.7,1 9.4,-0.2 13.9,-1.6 -0,3.1 -2.8,3.6 -5.3,4 -3.3,0.7 -6.8,1.3 -10.1,0.3 0.5,-0.9 1,-1.8 1.5,-2.7 z"/>
<path style="overflow:visible; fill:#fdca01; fill-opacity:0.84; stroke-width:2.5; stroke-linecap:round;" d="m 73.3,59.4 c 1.7,-6.1 6.3,-10.9 11,-14.9 0.8,2.8 -3.6,5.8 -2,4.4 -3.1,2.6 -4.5,6.9 -6.7,9.8 -0.8,0.2 -1.6,0.4 -2.3,0.7 z"/>
</svg>
