<?xml version="1.0" encoding="UTF-8" standalone="no"?>
<!-- Copyright 2017 mathsisfun.com -->
<svg xmlns="http://www.w3.org/2000/svg" width="269.1" height="110.5" version="1.1">
<defs>
</defs>
<g style="fill:#0197fd;" transform="matrix(0.220849,0,0,0.123974,275.24,6.85)">
<path style="overflow:visible; fill:#0197fd; stroke-width:14.9;" d="m -972.1,703.5 c 13.6,-42.4 30,-88 64,-118.2 17.5,-15.1 34.2,18.9 50,0.9 2.9,3.1 23.3,-60 25.2,-86.8 5.7,-30.5 11.8,-60.9 16.6,-91.6 32.4,-17 0.5,42.5 3.9,59 -10.6,40.2 -9.4,85.4 -32.4,121.2 -14.3,30.3 -39.7,12.2 -60.5,10 -9.1,3.1 -39,60.6 -48.8,93.7 -0,9.7 -11.6,8.2 -18,11.8 z"/>
<path style="overflow:visible; fill:#0197fd; stroke-width:14.9;" d="m -861.5,474.3 c 21.8,-25.6 38.9,-55.6 50.4,-87.1 27.9,-17.2 6.4,22.3 14.9,36.3 2.6,17.5 8.1,34.5 14.3,51 -14.4,19.3 -18.2,0.7 -21.7,-13.6 -5.8,-23.5 -16.1,-50.5 -5.1,-73.8 26.1,-15.4 4.3,15.6 1.4,25.5 -11.5,20.6 -21.9,45.6 -40.2,59.9 -4.7,0.6 -9.4,1.2 -14,1.8 z"/>
</g>
<g transform="matrix(0.160676,0,0,0.160676,5.8,121.26)">
<path style="overflow:visible; fill:#0169c9; stroke-width:14.9;" d="m 1171.9,-407.2 c 17,31.9 23.7,69.5 46.6,97.8 14.3,17.9 33.7,4.1 47.5,-5.5 28,-17.9 53.6,10.4 66.6,32.9 19.8,27.4 28.5,60.3 43.1,90.4 -20.7,24 -23.1,-21.1 -31.8,-34.4 -13.7,-29.2 -27.6,-64.3 -57.3,-80.3 -25.5,-3.2 -43.8,32.5 -69.9,14.8 -33.4,-24.2 -37.1,-69.4 -56.9,-103.3 -5.5,-6.6 8.9,-8.4 12.1,-12.4 z"/>
<path style="overflow:visible; fill:#0169c9; stroke-width:14.9;" d="m 1146.5,-329.1 c 10.1,-29.7 9.6,-61.8 9.9,-92.5 21,-13.5 20.6,23.4 38.7,28.5 7.9,11.5 45.3,10.7 28.9,27 -12.7,8.6 -34.1,-12.7 -47.2,-20.1 -9.5,-8.9 -30.6,-32.3 -4.7,-34.5 -1.3,-0.5 0.3,24.3 -1,32.4 -3,17.8 1.2,45.2 -14.1,55.8 -3.5,1.1 -7,2.3 -10.5,3.4 z"/>
</g>
<g style="stroke:#0197fd;" transform="matrix(0.084719,0,0,0.084719,228.43,-85.56)">
<g style="overflow:visible; fill:none; stroke:#0197fd; stroke-width:19.54;">
<g>
<g>
<path d="m -1458.2,1325.4 70.4,95.9"/>
<path d="m -1492.4,1324.6 70.4,95.9"/>
<path d="m -1521.9,1323 c 0,0 123.2,14.1 120.4,-52 -2.8,-66.2 -103.1,-52.9 -103.1,-52.9"/>
<path d="m -1502.2,1323.3 c 0,0 72.5,11.5 65.9,-54.5 -6.6,-66 -63.7,-50.6 -63.7,-50.6"/>
<path d="m -1590.3,1423.4 h 106.8"/>
<path d="m -1442.3,1423.4 h 71"/>
<path d="m -1589.7,1217.3 h 97.8"/>
<path d="m -1561.3,1218.1 v 198.2 h 0.4"/>
<path d="m -1521.7,1219.2 v 198.5"/>
</g>
</g>
</g>
</g>
<g transform="matrix(0.160676,0,0,0.160676,149.01,28.36)">
<path style="overflow:visible; fill:#fdca01; stroke-width:17.62;" d="m -658,-162.8 c -15.9,-4 -26.8,3.6 -28.6,7.2 -23.7,30 6.5,69.2 -10.5,102 -9,25.3 -33.7,45.6 -60.1,48.4 0.5,-17.2 18.9,-12.9 28.8,-22.4 -8,9.4 28.4,-30.3 21.7,-48.4 1.5,-27.8 -15.1,-60.3 8.6,-83.1 3.6,-17.1 76.2,-26.7 40.1,-3.7 z"/>
<path style="overflow:visible; fill:#fdca01; stroke-width:17.62;" d="m -654.5,142.2 c -15.9,4 -26.8,-3.6 -28.6,-7.2 -23.7,-30 6.5,-69.2 -10.5,-102 -9,-25.3 -33.7,-45.6 -60.1,-48.4 0.5,17.2 18.9,12.9 28.8,22.4 -8,-9.4 28.4,30.3 21.7,48.4 1.5,27.8 -15.1,60.3 8.6,83.1 3.6,17.1 76.2,26.7 40.1,3.7 z"/>
</g>
<text x="118.5" y="106.4" style="font-family:'Comic Sans MS'; font-size:14.5px; overflow:visible; fill:#121513; stroke-width:7.45;">such that</text>
<text x="-0.5" y="106.4" style="font-family:'Comic Sans MS'; font-size:14.5px; overflow:visible; fill:#0197fd; stroke-width:7.45;">type of number</text>
<text x="201.4" y="106.4" style="font-family:'Comic Sans MS'; font-size:14.5px; overflow:visible; fill:#0169c9; stroke-width:7.45;">conditions</text>
<text x="49.2" y="35.1" style="font-family:'Comic Sans MS'; font-size:31.1px; overflow:visible; fill:#0197fd; stroke-width:7.45;">x</text>
<g style="fill:#0197fd;" transform="matrix(0.160676,0,0,0.160676,409.56,-169.17)">
<path style="overflow:visible; fill:#0197fd; stroke-width:14.9;" d="m -2027.7,1192 c -6.1,-1.9 -12.6,-3.5 -18.9,-2.2 -5.5,1.3 -10.9,3.3 -15,7.4 -1.6,1.3 -2.6,2.2 -0.5,0.5 3.3,-2.7 6.6,-5.5 10,-8.1 -3.6,3.1 -7.3,5.9 -10.2,9.6 -5.8,6.6 -9.6,15.3 -9.2,24.1 0.5,8.7 6.5,16.2 14,20.1 6.2,3.8 13.4,5.8 20.6,6.1 4.5,-0.8 9.8,0.4 13.8,-1.8 1.6,-0 5.8,-3.9 5.8,-2.2 -1.8,5.5 -3.4,11.1 -5.3,16.5 -3.4,1.5 -7,3 -10.8,2.5 -6.9,0.6 -14,0.6 -20.7,-1.4 -10.5,-3.1 -20.8,-8.5 -27.4,-17.4 -3.7,-5.2 -6.2,-11.3 -6.6,-17.6 -0.8,-9.2 2.2,-18.4 7.1,-26.1 2.8,-4.3 6,-8.5 10,-11.7 3.8,-2.7 8.1,-5 11,-8.9 6.4,-5 14.7,-7.1 22.7,-7.5 7,0.4 14,1.6 20.4,4.3 -3.6,4.7 -7.2,9.3 -10.8,14 z"/>
<path style="overflow:visible; fill:#0197fd; stroke-width:14.9;" d="m -2073.4,1208.7 c 8.2,0.1 16.3,0.7 24.5,0.5 10.3,0.2 20.6,-0.7 30.8,-1.4 -2.3,5.5 -4.7,10.9 -7,16.4 -11.3,0.9 -22.7,1.2 -34.1,1.1 -7.2,0.1 -14.4,-0.5 -21.6,-0.6 2.4,-5.3 4.9,-10.7 7.3,-16 z"/>
</g>
<text x="155.4" y="35.4" style="font-family:'Comic Sans MS'; font-size:31.1px; overflow:visible; fill:#0169c9; stroke-width:7.45;">x</text>
<text x="197.2" y="36.6" style="font-family:'Comic Sans MS'; font-size:26.5px; overflow:visible; fill:#0169c9; stroke-width:7;">3</text>
<g style="stroke:#0169c9;" transform="matrix(0.160676,0,0,0.160676,446.29,-266.7)">
<path style="overflow:visible; fill:none; stroke:#0169c9; stroke-width:13.44; stroke-linecap:round;" d="m -1656.5,1778.4 72.4,41.8 -72.1,42"/>
<path style="overflow:visible; fill:none; stroke:#0169c9; stroke-width:13.44; stroke-linecap:round;" d="m -1569,1835.9 -77.2,45"/>
</g>
<path style="overflow:visible; fill:#f44800; stroke:#121513; stroke-width:2.25;" d="m 133.8,6.1 v 41.3"/>
<g transform="matrix(0.160676,0,0,0.160676,167.21,28.36)">
<path style="overflow:visible; fill:#fdca01; stroke-width:17.62;" d="m 345,-162.8 c 15.9,-4 26.8,3.6 28.6,7.2 23.7,30 -6.5,69.2 10.5,102 9,25.3 33.7,45.6 60.1,48.4 -0.5,-17.2 -18.9,-12.9 -28.8,-22.4 8,9.4 -28.4,-30.3 -21.7,-48.4 -1.5,-27.8 15.1,-60.3 -8.6,-83.1 -3.6,-17.1 -76.2,-26.7 -40.1,-3.7 z"/>
<path style="overflow:visible; fill:#fdca01; stroke-width:17.62;" d="m 341.5,142.2 c 15.9,4 26.8,-3.6 28.6,-7.2 23.7,-30 -6.5,-69.2 10.5,-102 9,-25.3 33.7,-45.6 60.1,-48.4 -0.5,17.2 -18.9,12.9 -28.8,22.4 8,-9.4 -28.4,30.3 -21.7,48.4 -1.5,27.8 15.1,60.3 -8.6,83.1 -3.6,17.1 -76.2,26.7 -40.1,3.7 z"/>
</g>
<g transform="matrix(0.160676,0,0,0.160676,169.92,275.62)">
<path style="overflow:visible; fill:#121513; fill-opacity:0.84; stroke-width:5; stroke-linecap:round;" d="m -131.3,-1150.4 c -7.4,-44.2 -44.7,-72.5 -63.9,-110.6 1.4,5.3 -10.8,-49.9 -9.5,-71.4 -26.9,-28.1 -11.6,19.6 -11.9,36.5 2,47 37.5,80.1 61.4,116.9 -7.4,-16.3 9.2,31.8 23.9,28.7 z"/>
<path style="overflow:visible; fill:#121513; fill-opacity:0.84; stroke-width:5; stroke-linecap:round;" d="m -170.9,-1276.4 c -7.4,-11.2 -15.6,-26.2 -17.3,-30.4 -10.8,-13.9 -14.8,-73.4 -38,-47.3 -8.9,23.2 -18.7,46 -30,68.1 18.4,30.9 23.8,-16.9 34.1,-30.8 13.3,-17.5 8.8,-36.3 1.8,-36.9 11.9,33.1 24.8,66.5 45.7,95.1 1.2,-5.9 2.5,-11.9 3.7,-17.8 z"/>
</g>
</svg>
