<?xml version="1.0" encoding="UTF-8" standalone="no"?>
<!-- Copyright 2021 mathsisfun.com -->

<svg
   width="210.443"
   height="137.62"
   version="1.1"
   style="font-family:'Trebuchet MS';stroke-width:1.82"
   id="svg16"
   sodipodi:docname="venn-or.svg"
   inkscape:version="1.1 (c68e22c387, 2021-05-23)"
   xmlns:inkscape="http://www.inkscape.org/namespaces/inkscape"
   xmlns:sodipodi="http://sodipodi.sourceforge.net/DTD/sodipodi-0.dtd"
   xmlns="http://www.w3.org/2000/svg"
   xmlns:svg="http://www.w3.org/2000/svg">
  <sodipodi:namedview
     id="namedview18"
     pagecolor="#ffffff"
     bordercolor="#666666"
     borderopacity="1.0"
     inkscape:pageshadow="2"
     inkscape:pageopacity="0.0"
     inkscape:pagecheckerboard="0"
     showgrid="false"
     inkscape:current-layer="svg16"
     inkscape:snap-object-midpoints="true"
     inkscape:snap-global="false" />
  <defs
     id="defs2" />
  <path
     id="rect2233"
     style="fill:none;stroke:#204a87;stroke-width:1.82;stop-color:#000000;stop-opacity:1"
     d="M 4.66211 0.910156 C 2.58304 0.910156 0.910156 2.58304 0.910156 4.66211 L 0.910156 132.957 C 0.910156 135.036 2.58304 136.711 4.66211 136.711 L 205.779 136.711 C 207.858 136.711 209.533 135.036 209.533 132.957 L 209.533 4.66211 C 209.533 2.58304 207.858 0.910156 205.779 0.910156 L 4.66211 0.910156 z M 70.0488 12.3438 A 57.4707 57.4707 0 0 1 104.297 23.6621 A 57.4707 57.4707 0 0 1 138.299 12.3438 A 57.4707 57.4707 0 0 1 195.77 69.8145 A 57.4707 57.4707 0 0 1 138.299 127.285 A 57.4707 57.4707 0 0 1 104.174 115.873 A 57.4707 57.4707 0 0 1 70.0488 127.285 A 57.4707 57.4707 0 0 1 12.5781 69.8145 A 57.4707 57.4707 0 0 1 70.0488 12.3438 z " />
  <path
     style="fill:#19aeff;stroke:#204a87;stroke-width:1.82"
     d="M 104.042,23.6015 C 89.8956,34.0745 80.639,50.8313 80.639,69.77 c 0,18.939 9.1693,35.783 23.403,46.256 14.147,-10.473 23.404,-27.23 23.404,-46.256 0,-18.9387 -9.169,-35.6955 -23.404,-46.1685 z"
     id="path4" />
  <path
     style="fill:#19aeff;stroke:#204a87;stroke-width:1.82;stop-color:#000000;stop-opacity:1"
     d="m 69.8105,12.4303 c -31.7868,0 -57.6354,25.7461 -57.6354,57.427 0,31.7677 25.7613,57.4267 57.6354,57.4267 12.837,0 24.6261,-4.189 34.2315,-11.258 C 89.8956,105.553 80.639,88.796 80.639,69.77 80.639,50.8313 89.8083,34.0745 104.042,23.6015 94.4366,16.5322 82.6475,12.343 69.8105,12.343 Z"
     id="path6" />
  <path
     style="fill:#19aeff;stroke:#204a87;stroke-width:1.82;stop-color:#000000;stop-opacity:1"
     d="m 138.274,12.343 c -12.837,0 -24.626,4.1892 -34.232,11.2585 14.147,10.473 23.404,27.2298 23.404,46.1685 0,18.939 -9.169,35.783 -23.404,46.256 9.606,7.069 21.395,11.258 34.232,11.258 31.787,0 57.636,-25.746 57.636,-57.4267 0,-31.7681 -25.761,-57.427 -57.636,-57.427 z"
     id="path8" />
  <text
     x="137.535"
     y="43.251"
     style="font-size:28.000029px;fill:#005c94;stroke:#005c94;stroke-width:0.649999"
     id="text10"
     transform="scale(1.00029,0.999708)">B</text>
  <text
     x="56.8694"
     y="43.251"
     style="font-size:28.000029px;fill:#005c94;stroke:#005c94;stroke-width:0.649999"
     id="text12"
     transform="scale(1.00029,0.999708)">A</text>
  <text
     xml:space="preserve"
     style="color:#000000;font-style:italic;font-variant:normal;font-weight:normal;font-stretch:normal;font-size:20px;line-height:25px;font-family:'Trebuchet MS';-inkscape-font-specification:'Trebuchet MS, Italic';text-indent:0;text-align:start;text-decoration:none;text-decoration-line:none;text-decoration-style:solid;text-decoration-color:#000000;letter-spacing:0px;word-spacing:0px;text-transform:none;writing-mode:lr-tb;direction:ltr;baseline-shift:baseline;text-anchor:start;white-space:normal;clip-rule:nonzero;display:inline;overflow:visible;visibility:visible;opacity:1;isolation:auto;mix-blend-mode:normal;color-interpolation:sRGB;color-interpolation-filters:linearRGB;solid-color:#000000;solid-opacity:1;fill:#000000;fill-opacity:1;fill-rule:nonzero;stroke:none;stroke-width:1px;stroke-linecap:butt;stroke-linejoin:miter;stroke-miterlimit:4;stroke-dasharray:none;stroke-dashoffset:0;stroke-opacity:1;color-rendering:auto;image-rendering:auto;shape-rendering:auto;text-rendering:auto;enable-background:accumulate"
     x="93.9744"
     y="75.4944"
     id="text8112"><tspan
       sodipodi:role="line"
       id="tspan8110"
       x="93.9744"
       y="75.4944">or</tspan></text>
</svg>
