<?xml version="1.0" encoding="UTF-8" standalone="no"?>
<!-- Copyright 2017 mathsisfun.com -->
<svg xmlns="http://www.w3.org/2000/svg" width="310.6" height="233.7" version="1.1">
<defs/>
<rect x="0.9" y="0.9" width="308.8" height="231.9" style="color:black; overflow:visible; fill:#d76cff; stroke:black; stroke-width:1.82;"/>
<path style="fill:white; stroke:black; stroke-width:1.82;" d="m 160.3,85.5 c -10.4,0 -20.3,2.4 -29.1,6.7 1.9,20 12.8,37.4 28.6,48.1 16,-10.7 27.1,-28.2 29.1,-48.3 -8.7,-4.2 -18.4,-6.5 -28.7,-6.5 z"/>
<path style="fill:white; stroke:black; stroke-width:1.82;" d="m 160.8,32.2 c -17.7,11.4 -29.4,31 -29.4,53.1 0,2.1 0.1,4.2 0.3,6.2 8.8,-4.2 18.6,-6.5 29.1,-6.5 10.3,0 20,2.3 28.7,6.3 0.2,-2.1 0.3,-4.2 0.3,-6.3 0,-22 -11.5,-41.3 -29,-52.8 z"/>
<path style="fill:#d76cff; stroke:black; stroke-width:1.82;" d="m 159.9,140.8 c -10.6,7 -23.3,11 -36.9,11 -10.4,0 -20.2,-2.4 -28.9,-6.5 -0.2,2.1 -0.3,4.3 -0.3,6.5 0,36.4 29.8,65.8 66.6,65.8 36.8,0 66.6,-29.5 66.6,-65.8 0,-2.2 -0.1,-4.3 -0.3,-6.4 -8.9,4.3 -18.8,6.7 -29.4,6.7 -13.9,0 -26.7,-4.2 -37.4,-11.3 z"/>
<path style="color:black; overflow:visible; fill:white; stroke:black; stroke-width:1.82;" d="m 93.8,145.4 c 18.6,9.2 41.2,9.2 60.4,-1.9 1.8,-1 3.6,-2.2 5.2,-3.4 -7.9,-5.3 -14.7,-12.4 -19.8,-21.2 -5,-8.7 -7.8,-18 -8.4,-27.3 -1.9,0.9 -3.8,1.8 -5.6,2.9 -19.1,11 -30.3,30.4 -31.8,50.9 z"/>
<path style="fill:#d76cff; stroke:black; stroke-width:1.82;" d="m 190,92 c 11.3,5.6 21.1,14.4 27.8,26.2 5.1,8.9 8,18.5 8.7,28.1 2,-0.9 3.9,-1.9 5.8,-3 31.5,-18.2 42.2,-58.5 24,-90 -18.2,-31.6 -58.5,-42.4 -90,-24.2 -1.9,1.1 -3.7,2.2 -5.4,3.5 8.1,5.4 15.2,12.8 20.4,21.8 6.9,11.9 9.6,25 8.7,37.7 z"/>
<path style="fill:#d76cff; stroke:black; stroke-width:1.82;" d="m 225.6,146.7 c -0.9,-20.6 -11.8,-40.3 -30.9,-51.7 -1.8,-1.1 -3.6,-2 -5.5,-2.9 -0.8,9.4 -3.7,18.8 -9,27.4 -5.2,8.5 -12,15.4 -19.8,20.5 1.7,1.2 3.4,2.4 5.2,3.5 18.9,11.3 41.3,11.8 59.9,3.2 z"/>
<path style="fill:white; stroke:black; stroke-width:1.82;" d="m 131.2,91 c -0.8,-12.5 2,-25.4 8.8,-37.1 5.2,-8.9 12.1,-16.1 20.1,-21.5 -1.8,-1.2 -3.6,-2.4 -5.5,-3.5 -31.7,-18.2 -72.2,-7.3 -90.5,24.2 -18.3,31.5 -7.5,71.8 24.2,89.9 1.9,1.1 3.8,2.1 5.7,2.9 0.7,-9.7 3.5,-19.5 8.8,-28.5 6.9,-11.9 17,-20.8 28.5,-26.4 z"/>
<text x="91.8" y="97.8" style="font-family:Georgia; text-align:center; text-anchor:middle; font-size:18.7px; font-style:italic; color:black; overflow:visible; fill:black; stroke-width:0.51px;">hunter</text>
<text x="88" y="74.6" style="font-family:Georgia; text-align:center; text-anchor:middle; font-size:18.7px; font-style:italic; color:black; overflow:visible; fill:black; stroke-width:0.51px;">alex</text>
<text x="160.5" y="75" style="font-family:Georgia; text-align:center; text-anchor:middle; font-size:18.7px; font-style:italic; color:black; overflow:visible; fill:black; stroke-width:0.51px;">casey</text>
<text x="160.9" y="109.5" style="font-family:Georgia; text-align:center; text-anchor:middle; font-size:18.7px; font-style:italic; color:black; overflow:visible; fill:black; stroke-width:0.51px;">drew</text>
<text x="199.6" y="130.7" style="font-family:Georgia; text-align:center; text-anchor:middle; font-size:18.7px; font-style:italic; color:black; overflow:visible; fill:black; stroke-width:0.51px;">jade</text>
<text x="163.7" y="165.6" style="font-family:Georgia; text-align:center; text-anchor:middle; font-size:18.7px; font-style:italic; color:black; overflow:visible; fill:black; stroke-width:0.51px;">glen</text>
<g transform="matrix(0.513,0,0,0.513,-129.36,-666.908)">
<text x="540.5" y="1702.3" style="font-family:Georgia; font-size:64px; fill:#005c94; stroke:#005c94; stroke-width:1.27;">V</text>
<text x="462.5" y="1406.3" style="font-family:Georgia; font-size:64px; fill:#005c94; stroke:#005c94; stroke-width:1.27;">S</text>
<text x="620.5" y="1406.3" style="font-family:Georgia; font-size:64px; fill:#005c94; stroke:#005c94; stroke-width:1.27;">T</text>
</g>
<text x="42.4" y="149.6" style="font-family:Georgia; text-align:center; text-anchor:middle; font-size:18.7px; font-style:italic; color:black; overflow:visible; fill:black; stroke-width:0.51px;">blair</text>
<text x="42.8" y="173.4" style="font-family:Georgia; text-align:center; text-anchor:middle; font-size:18.7px; font-style:italic; color:black; overflow:visible; fill:black; stroke-width:0.51px;">erin</text>
<text x="44.7" y="195.5" style="font-family:Georgia; text-align:center; text-anchor:middle; font-size:18.7px; font-style:italic; color:black; overflow:visible; fill:black; stroke-width:0.51px;">francis</text>
<text x="42.8" y="221.1" style="font-family:Georgia; text-align:center; text-anchor:middle; font-size:18.7px; font-style:italic; color:black; overflow:visible; fill:black; stroke-width:0.51px;">ira</text>
<text x="9.5" y="37.5" style="font-family:Georgia; font-size:32.8px; fill:#005c94; stroke:#005c94; stroke-width:0.65;">U</text>
</svg>
