<?xml version="1.0" encoding="UTF-8" standalone="no"?>
<!-- Copyright 2017 mathsisfun.com -->

<svg
   width="211.8"
   height="199.3"
   version="1.1"
   id="svg42"
   sodipodi:docname="venn-5.svg"
   inkscape:version="1.1 (c68e22c387, 2021-05-23)"
   xmlns:inkscape="http://www.inkscape.org/namespaces/inkscape"
   xmlns:sodipodi="http://sodipodi.sourceforge.net/DTD/sodipodi-0.dtd"
   xmlns="http://www.w3.org/2000/svg"
   xmlns:svg="http://www.w3.org/2000/svg">
  <defs
     id="defs46" />
  <sodipodi:namedview
     id="namedview44"
     pagecolor="#ffffff"
     bordercolor="#666666"
     borderopacity="1.0"
     inkscape:pageshadow="2"
     inkscape:pageopacity="0.0"
     inkscape:pagecheckerboard="0"
     showgrid="false"
     inkscape:current-layer="svg42" />
  <g
     style="fill:#19aeff;stroke:black;stroke-width:1.82"
     id="g18">
    <g
       id="g16"
       style="fill:#19aeff">
      <g
         transform="translate(-1961.99,-905.577)"
         id="g14"
         style="fill:#19aeff">
        <path
           d="m 2068,971.9 c -10.4,0 -20.3,2.4 -29.1,6.7 1.9,20 12.8,37.4 28.6,48.1 16,-10.7 27.1,-28.2 29.1,-48.3 -8.7,-4.2 -18.4,-6.5 -28.7,-6.5 z"
           id="path2"
           style="fill:#19aeff" />
        <path
           d="m 2068.5,918.6 c -17.7,11.4 -29.4,31 -29.4,53.1 0,2.1 0.1,4.2 0.3,6.2 8.8,-4.2 18.6,-6.5 29.1,-6.5 10.3,0 20,2.3 28.7,6.3 0.2,-2.1 0.3,-4.2 0.3,-6.3 0,-22 -11.5,-41.3 -29,-52.8 z"
           id="path4"
           style="fill:#19aeff" />
        <path
           d="m 2067.7,1027.2 c -10.6,7 -23.3,11 -36.9,11 -10.4,0 -20.2,-2.4 -28.9,-6.5 -0.2,2.1 -0.3,4.3 -0.3,6.5 0,36.4 29.8,65.8 66.6,65.8 36.8,0 66.6,-29.5 66.6,-65.8 0,-2.2 -0.1,-4.3 -0.3,-6.4 -8.9,4.3 -18.8,6.7 -29.4,6.7 -13.9,0 -26.7,-4.2 -37.4,-11.3 z"
           id="path6"
           style="fill:#19aeff" />
        <path
           d="m 2001.5,1031.8 c 18.6,9.2 41.2,9.2 60.4,-1.9 1.8,-1 3.6,-2.2 5.2,-3.4 -7.9,-5.3 -14.7,-12.4 -19.8,-21.2 -5,-8.7 -7.7,-18 -8.4,-27.3 -1.9,0.9 -3.8,1.8 -5.6,2.9 -19.1,11 -30.3,30.4 -31.8,50.9 z"
           id="path8"
           style="fill:#19aeff" />
        <path
           d="m 2097.7,978.4 c 11.3,5.6 21.1,14.4 27.8,26.2 5.1,8.9 8,18.5 8.7,28.1 2,-0.9 3.9,-1.9 5.8,-3 31.5,-18.2 42.2,-58.5 24,-90 -18.2,-31.6 -58.5,-42.4 -90,-24.2 -1.9,1.1 -3.7,2.2 -5.4,3.5 8.1,5.4 15.1,12.8 20.4,21.8 6.9,11.9 9.6,25 8.7,37.7 z"
           id="path10"
           style="fill:#19aeff" />
        <path
           d="m 2133.3,1033.1 c -0.9,-20.6 -11.8,-40.3 -30.9,-51.7 -1.8,-1.1 -3.6,-2 -5.5,-2.9 -0.8,9.4 -3.7,18.8 -9,27.4 -5.2,8.5 -12,15.4 -19.8,20.5 1.7,1.2 3.4,2.4 5.2,3.5 18.9,11.3 41.3,11.8 59.9,3.2 z"
           id="path12"
           style="fill:#19aeff" />
      </g>
    </g>
  </g>
  <path
     style="fill:white;stroke:black;stroke-width:1.82"
     d="m 76.9,71.8 c -0.8,-12.5 2,-25.4 8.8,-37.1 5.2,-8.9 12.1,-16.1 20.1,-21.5 -1.8,-1.2 -3.6,-2.4 -5.5,-3.5 -31.7,-18.2 -72.2,-7.3 -90.5,24.2 -18.3,31.5 -7.5,71.8 24.2,89.9 1.9,1.1 3.8,2.1 5.7,2.9 0.7,-9.7 3.5,-19.5 8.8,-28.5 6.9,-11.9 17,-20.8 28.5,-26.4 z"
     id="path20" />
  <text
     x="37.5"
     y="78.6"
     style="color:black;fill:black;font-family:Georgia;font-size:18.7px;font-style:italic;overflow:visible;stroke-width:0.51px;text-align:center;text-anchor:middle"
     id="text22">hunter</text>
  <text
     x="33.7"
     y="55.4"
     style="color:black;fill:black;font-family:Georgia;font-size:18.7px;font-style:italic;overflow:visible;stroke-width:0.51px;text-align:center;text-anchor:middle"
     id="text24">alex</text>
  <text
     x="106.2"
     y="55.8"
     style="color:black;fill:black;font-family:Georgia;font-size:18.7px;font-style:italic;overflow:visible;stroke-width:0.51px;text-align:center;text-anchor:middle"
     id="text26">casey</text>
  <text
     x="106.6"
     y="90.3"
     style="color:black;fill:black;font-family:Georgia;font-size:18.7px;font-style:italic;overflow:visible;stroke-width:0.51px;text-align:center;text-anchor:middle"
     id="text28">drew</text>
  <text
     x="145.3"
     y="111.5"
     style="color:black;fill:black;font-family:Georgia;font-size:18.7px;font-style:italic;overflow:visible;stroke-width:0.51px;text-align:center;text-anchor:middle"
     id="text30">jade</text>
  <text
     x="109.4"
     y="146.4"
     style="color:black;fill:black;font-family:Georgia;font-size:18.7px;font-style:italic;overflow:visible;stroke-width:0.51px;text-align:center;text-anchor:middle"
     id="text32">glen</text>
  <text
     x="93.9865"
     y="187.185"
     style="fill:#005c94;font-family:Georgia;font-size:32.832px;stroke:#005c94;stroke-width:0.65151"
     id="text34">V</text>
  <text
     x="53.9725"
     y="35.3369"
     style="fill:#005c94;font-family:Georgia;font-size:32.832px;stroke:#005c94;stroke-width:0.65151"
     id="text36">S</text>
  <text
     x="135.027"
     y="35.3369"
     style="fill:#005c94;font-family:Georgia;font-size:32.832px;stroke:#005c94;stroke-width:0.65151"
     id="text38">T</text>
</svg>
