<?xml version="1.0" encoding="UTF-8" standalone="no"?>
<!-- Creator: CorelDRAW X5 -->

<svg
   xmlns:dc="http://purl.org/dc/elements/1.1/"
   xmlns:cc="http://creativecommons.org/ns#"
   xmlns:rdf="http://www.w3.org/1999/02/22-rdf-syntax-ns#"
   xmlns:svg="http://www.w3.org/2000/svg"
   xmlns="http://www.w3.org/2000/svg"
   xmlns:sodipodi="http://sodipodi.sourceforge.net/DTD/sodipodi-0.dtd"
   xmlns:inkscape="http://www.inkscape.org/namespaces/inkscape"
   xml:space="preserve"
   width="200"
   height="91.968"
   style="fill-rule:evenodd"
   viewBox="0 0 5644.44 2595.54"
   id="svg2"
   version="1.1"
   inkscape:version="0.92.2 (5c3e80d, 2017-08-06)"
   sodipodi:docname="bread.svg"><metadata
     id="metadata29"><rdf:RDF><cc:Work
         rdf:about=""><dc:format>image/svg+xml</dc:format><dc:type
           rdf:resource="http://purl.org/dc/dcmitype/StillImage" /></cc:Work></rdf:RDF></metadata><sodipodi:namedview
     pagecolor="#ffffff"
     bordercolor="#666666"
     borderopacity="1"
     objecttolerance="10"
     gridtolerance="10"
     guidetolerance="10"
     inkscape:pageopacity="0"
     inkscape:pageshadow="2"
     inkscape:window-width="1920"
     inkscape:window-height="1018"
     id="namedview27"
     showgrid="false"
     fit-margin-top="0"
     fit-margin-left="0"
     fit-margin-right="0"
     fit-margin-bottom="0"
     inkscape:zoom="2.6185038"
     inkscape:cx="331.77974"
     inkscape:cy="152.56804"
     inkscape:window-x="-8"
     inkscape:window-y="-8"
     inkscape:window-maximized="1"
     inkscape:current-layer="svg2" /><defs
     id="defs4"><style
       type="text/css"
       id="style6">
   
    .str0 {stroke:#373435;stroke-width:62.9;stroke-linecap:round;stroke-linejoin:round}
    .fil3 {fill:#BB916D}
    .fil1 {fill:#C09570}
    .fil0 {fill:#CF9F77}
    .fil2 {fill:#F7F1EA}
   
  </style></defs><g
     id="g3010"
     transform="matrix(0.301411,0,0,0.301411,0.040366,0.027364)"><path
       style="fill:#cf9f77;stroke:#373435;stroke-width:62.900002;stroke-linecap:round;stroke-linejoin:round"
       inkscape:connector-curvature="0"
       id="path11"
       d="m 7352.61,303.916 c -1233,-75 -2623,-371 -3900,-239 -1717,283 -2886.999,900 -3352.9993,2063.004 -207.9997,1101 88.0003,1522 510.0003,1617 176,950 346,1812 521.999,2761 63,409 201,459 535,510 2472,315 4938,635 7404,956 849,-516 1572.99,-1082 2433.99,-1591 208,-113 340,-340 296,-616 -38,-283 107,-1981 132,-2472 403,-258 484,-686 491,-1120 57,-201 -75,-579 -409,-912 -226,-421.004 -1673,-604.004 -2716.99,-937.004 -1044,-333 -1302,69 -1944,-19 z"
       class="fil0 str0" /><path
       style="fill:#c09570;stroke:#373435;stroke-width:62.900002;stroke-linecap:round;stroke-linejoin:round"
       inkscape:connector-curvature="0"
       id="path13"
       d="m 8786.61,4498.92 233,3076 c 0,233 -44,283 38,409 -2466,-321 -4932,-642 -7397,-969 -333,-44 -465,-88 -541,-503 -169.999,-944 -345.999,-1812 -515.999,-2755 l 8183.999,742 z"
       class="fil1 str0" /><path
       style="fill:#f7f1ea"
       inkscape:connector-curvature="0"
       id="path15"
       d="m 9031.61,7568.92 c 0,233 57,315 208,252 365,-214 1716.99,-1233 2201.99,-1453 208,-120 333,-333 296,-616 -38,-277 107,-1981 126,-2472 409,-258 491,-686 497,-1120 57,-201 -75,-541 -409,-874 -220,-428.004 -1271,579 -2383.99,736 -1201,585 -1635,1422 -761,2466 l 226,3082 z"
       class="fil2" /><path
       style="fill:#bb916d"
       inkscape:connector-curvature="0"
       id="path17"
       d="m 7654.61,328.916 c -1396,264 -1874,635 -2705,994.004 31,-107 1101,-736.004 1466,-906.004 365,-170 598,-69 1239,-88 z M 93.6107,2127.92 c -207.9997,1101 94.0003,1522 516.0003,1623 l 8189.999,736 c -440,-516 -465,-1069 -321,-1573 -403,491 -1151,837 -2258,579 -874,-472 -2724,-63 -3353,-327 195,-38 -1201,-31 -1623,-333 -502.999,-164 -861.999,-541 -1150.9993,-705 z"
       class="fil3" /><path
       style="fill:#c09570;stroke:#373435;stroke-width:62.900002;stroke-linecap:round;stroke-linejoin:round"
       inkscape:connector-curvature="0"
       id="path19"
       d="m 11076.6,7687.92 c -50,94 -25,138 57,182 1522,19 2566,69 4089,88 862,296 1478,302 2025,-145 289,-421 723,-818 1019,-1245 195,-371 415,-497 390,-962 101,340 -6,579 -182,837 -396,642 -887,1076 -1227,1529 -352,403 -1164,868 -2554,434 -1522,-19 -2038,38 -3560,13 -82,-38 -88,-94 -94,-176 13,-220 -44,-472 38,-554 z"
       class="fil1 str0" /><path
       style="fill:#f7f1ea;stroke:#373435;stroke-width:62.900002;stroke-linecap:round;stroke-linejoin:round"
       inkscape:connector-curvature="0"
       id="path21"
       d="m 11132.6,7870.92 c -82,-44 -107,-88 -57,-182 308,-277 1428,-1245 1724,-1547 107,-120 176,-170 598,-164 1245,-151 1799,-57 3044,-208 277,-38 333,-38 516,-120 403,-164 1447,-302 1705,-44 19,465 -201,591 -396,962 -296,428 -730,824 -1019,1245 -547,447 -1164,440 -2025,145 -1522,-19 -2566,-69 -4089,-88 z"
       class="fil2 str0" /><path
       style="fill:#f7f1ea;stroke:#373435;stroke-width:62.900002;stroke-linecap:round;stroke-linejoin:round"
       inkscape:connector-curvature="0"
       id="path23"
       d="m 10151.6,7297.92 c -82,-44 -107,-82 -57,-176 315,-283 1428,-1245 1724,-1547 107,-120 176,-176 598,-170 1245,-151 1818,-220 3070,-377 277,-38 340,-38 522,-120 396,-157 1440,-302 1698,-38 19,459 -201,591 -396,962 -296,421 -591,849 -887,1271 -541,447 -1321,585 -2183,283 -1522,-19 -2566,-69 -4089,-88 z"
       class="fil2 str0" /><path
       style="fill:#cf9f77;stroke:#373435;stroke-width:62.900002;stroke-linecap:round;stroke-linejoin:round"
       inkscape:connector-curvature="0"
       id="path25"
       d="m 10095.6,7121.92 c -50,94 -25,132 57,176 1522,19 2566,69 4089,88 862,296 1642,164 2189,-289 289,-421 585,-843 881,-1264 195,-371 415,-503 396,-962 v 547 c 19,459 -201,591 -396,962 -296,428 -591,849 -881,1271 -547,447 -1327,585 -2189,289 -1522,-19 -2566,-69 -4089,-88 -82,-44 -88,-101 -94,-182 13,-214 -44,-465 38,-547 z"
       class="fil0 str0" /></g></svg>