<?xml version="1.0" encoding="UTF-8" standalone="no"?>
<!-- Created with Inkscape (http://www.inkscape.org/) -->

<svg
   xmlns:dc="http://purl.org/dc/elements/1.1/"
   xmlns:cc="http://creativecommons.org/ns#"
   xmlns:rdf="http://www.w3.org/1999/02/22-rdf-syntax-ns#"
   xmlns:svg="http://www.w3.org/2000/svg"
   xmlns="http://www.w3.org/2000/svg"
   xmlns:xlink="http://www.w3.org/1999/xlink"
   xmlns:sodipodi="http://sodipodi.sourceforge.net/DTD/sodipodi-0.dtd"
   xmlns:inkscape="http://www.inkscape.org/namespaces/inkscape"
   width="102.144"
   height="158.448"
   id="svg2"
   sodipodi:version="0.32"
   inkscape:version="0.92.2 (5c3e80d, 2017-08-06)"
   sodipodi:docname="candle.svg"
   version="1.1">
  <defs
     id="defs4">
    <linearGradient
       inkscape:collect="always"
       id="linearGradient897">
      <stop
         style="stop-color:#c17d11;stop-opacity:1;"
         offset="0"
         id="stop893" />
      <stop
         style="stop-color:#c17d11;stop-opacity:0;"
         offset="1"
         id="stop895" />
    </linearGradient>
    <linearGradient
       inkscape:collect="always"
       id="linearGradient7570">
      <stop
         style="stop-color:#fd5;stop-opacity:1"
         offset="0"
         id="stop7572" />
      <stop
         style="stop-color:#fd5;stop-opacity:0"
         offset="1"
         id="stop7574" />
    </linearGradient>
    <linearGradient
       inkscape:collect="always"
       id="linearGradient3827">
      <stop
         style="stop-color:yellow;stop-opacity:1"
         offset="0"
         id="stop3829" />
      <stop
         style="stop-color:yellow;stop-opacity:0"
         offset="1"
         id="stop3831" />
    </linearGradient>
    <linearGradient
       inkscape:collect="always"
       xlink:href="#linearGradient3827"
       id="linearGradient3833"
       x1="630.845"
       y1="455.878"
       x2="667.77"
       y2="455.878"
       gradientUnits="userSpaceOnUse"
       gradientTransform="matrix(0.816748,0,0,0.816748,-330.409,490.437)" />
    <radialGradient
       inkscape:collect="always"
       xlink:href="#linearGradient7570"
       id="radialGradient7580"
       cx="652.857"
       cy="445.946"
       fx="652.857"
       fy="445.946"
       r="46.78"
       gradientTransform="matrix(1.07326,0,0,0.881729,-498.498,470.03)"
       gradientUnits="userSpaceOnUse" />
    <linearGradient
       inkscape:collect="always"
       xlink:href="#linearGradient897"
       id="linearGradient901"
       x1="-71.7361"
       y1="145.736"
       x2="-21.758"
       y2="100.18"
       gradientUnits="userSpaceOnUse"
       gradientTransform="matrix(1.36567,0,0,1.15085,264.58,823.933)" />
  </defs>
  <sodipodi:namedview
     id="base"
     pagecolor="#ffffff"
     bordercolor="#666666"
     borderopacity="1.0"
     gridtolerance="10000"
     guidetolerance="10"
     objecttolerance="10"
     inkscape:pageopacity="0.0"
     inkscape:pageshadow="2"
     inkscape:zoom="1.4"
     inkscape:cx="387.73609"
     inkscape:cy="774.39465"
     inkscape:document-units="px"
     inkscape:current-layer="layer1"
     inkscape:window-width="1280"
     inkscape:window-height="977"
     inkscape:window-x="-4"
     inkscape:window-y="-4"
     showgrid="false"
     showguides="true"
     inkscape:guide-bbox="true" />
  <metadata
     id="metadata7">
    <rdf:RDF>
      <cc:Work
         rdf:about="">
        <dc:format>image/svg+xml</dc:format>
        <dc:type
           rdf:resource="http://purl.org/dc/dcmitype/StillImage" />
      </cc:Work>
    </rdf:RDF>
  </metadata>
  <g
     inkscape:label="Layer 1"
     inkscape:groupmode="layer"
     id="layer1"
     transform="translate(-150.258,-821.981)">
    <path
       style="color:#000000;clip-rule:nonzero;display:inline;overflow:visible;visibility:visible;opacity:1;isolation:auto;mix-blend-mode:normal;color-interpolation:sRGB;color-interpolation-filters:linearRGB;solid-color:#000000;solid-opacity:1;vector-effect:none;fill:url(#linearGradient901);fill-opacity:1;fill-rule:nonzero;stroke:none;stroke-width:9.246564;stroke-linecap:butt;stroke-linejoin:miter;stroke-miterlimit:4;stroke-dasharray:none;stroke-dashoffset:0;stroke-opacity:1;marker:none;marker-start:none;marker-mid:none;marker-end:none;color-rendering:auto;image-rendering:auto;shape-rendering:auto;text-rendering:auto;enable-background:accumulate"
       d="m 201.481,949.905 c -27.874,0 -50.614,8.231 -51.162,18.504 h -0.06 v 0.372 12.033 h 102.425 v -12.033 -0.372 h -0.03 c -0.55,-10.274 -23.297,-18.499 -51.175,-18.504 z"
       id="path887"
       inkscape:connector-curvature="0"
       sodipodi:nodetypes="cccccccccc" />
    <path
       sodipodi:type="arc"
       style="opacity:1;fill:url(#radialGradient7580);fill-opacity:1;fill-rule:evenodd;stroke:#000000;stroke-width:0;stroke-linecap:square;stroke-linejoin:round;stroke-miterlimit:4;stroke-dasharray:none;stroke-dashoffset:0;stroke-opacity:0.9875"
       id="path6683"
       sodipodi:cx="202.188"
       sodipodi:cy="863.221"
       sodipodi:rx="50.2133"
       sodipodi:ry="41.2395"
       d="m 163.68,889.688 a 50.2133,41.2395 0 0 1 5.969,-57.876 50.2133,41.2395 0 0 1 70.516,4.43 50.2133,41.2395 0 0 1 -4.819,57.948 50.2133,41.2395 0 0 1 -70.595,-3.485"
       sodipodi:start="2.44478"
       sodipodi:end="2.41216"
       sodipodi:open="true" />
    <path
       style="fill:#ffffff;fill-opacity:1;fill-rule:evenodd;stroke:#000000;stroke-width:0.816748px;stroke-linecap:butt;stroke-linejoin:round;stroke-opacity:0.9875"
       d="m 213.288,968.768 2.168,-72.525 c 0,0 23.101,-8.25 -3.299,-9.075 -26.402,-0.825 -31.352,-0.825 -31.352,-0.825 0,0 0.513,2.603 1.338,4.253 0.825,1.65 3.053,2.191 3.053,2.191 l 3.859,0.981 0.307,73.35 z"
       id="path2928"
       sodipodi:nodetypes="ccsczcccc"
       inkscape:connector-curvature="0" />
    <path
       style="fill:none;fill-rule:evenodd;stroke:#000000;stroke-width:0.816748px;stroke-linecap:butt;stroke-linejoin:miter;stroke-opacity:1"
       d="m 202.054,886.764 c 1.284,-3.219 1.267,-6.483 0.156,-10.927"
       id="path2932"
       sodipodi:nodetypes="cc"
       inkscape:connector-curvature="0" />
    <path
       style="fill:none;fill-rule:evenodd;stroke:#000000;stroke-width:0.79348px;stroke-linecap:butt;stroke-linejoin:miter;stroke-opacity:1"
       d="m 215.415,896.125 c -4.673,19.394 -0.937,40.675 -4.049,22.511 -3.113,-18.164 -0.778,-26.42 -3.113,-18.164 -2.334,8.257 -0.778,19.815 -3.113,8.257 -2.334,-11.559 0.312,-18.656 -2.022,-9.575 -2.335,9.082 -2.261,22.226 -5.868,6.325 -2.415,-10.643 8.56,-10.732 -1.557,-11.558 -10.116,-0.825 -6.894,-0.06 -6.894,-0.06 l -3.164,-1.012"
       id="path2930"
       sodipodi:nodetypes="csssssscc"
       inkscape:connector-curvature="0" />
    <path
       style="fill:url(#linearGradient3833);fill-opacity:1;fill-rule:evenodd;stroke:#000000;stroke-width:0.816748px;stroke-linecap:butt;stroke-linejoin:miter;stroke-opacity:1"
       d="m 194.519,883.601 c 0.239,1.199 4.526,3.435 9.653,2.989 5.138,-0.447 9.352,-2.756 9.946,-6.912 1.423,-9.955 -0.241,-17.969 -7.426,-23.101 -6.521,-4.658 -4.124,-1.054 -4.124,-9.9 0,-7.909 4.023,-12.274 -3.301,-4.951 -4.28,4.281 -8.381,7.341 -10.725,13.201 -3.051,7.627 -3.3,11.733 -3.3,20.626 0,3.626 4.016,3.789 6.426,4.391 1.76,0.44 2.611,2.46 2.851,3.657 z"
       id="path2936"
       sodipodi:nodetypes="czsssssssc"
       inkscape:connector-curvature="0" />
    <path
       style="opacity:1;fill:#ffd42a;fill-opacity:1;fill-rule:evenodd;stroke:#000000;stroke-width:0;stroke-linecap:square;stroke-linejoin:round;stroke-miterlimit:4;stroke-dasharray:none;stroke-dashoffset:0;stroke-opacity:0.9875"
       id="path6659"
       d="m 200.932,842.259 c 0.04,0.473 -0.264,0.839 -0.45,1.235 -0.359,0.488 -0.78,0.913 -1.188,1.351 -0.466,0.488 -1.002,0.889 -1.503,1.333 -0.476,0.364 -0.686,0.89 -0.944,1.432 -0.297,0.679 -0.662,1.318 -1.009,1.966 -0.196,0.693 -0.516,1.288 -0.916,1.875 -0.306,0.44 -0.694,0.798 -1.056,1.181 -0.286,0.385 -0.55,0.787 -0.816,1.189 -0.336,0.472 -0.554,1.018 -0.786,1.555 -0.151,0.673 -0.312,1.345 -0.471,2.016 -0.03,0.674 -0.09,1.326 -0.226,1.99 -0.12,0.573 -0.373,1.1 -0.588,1.634 -0.146,0.432 -0.128,0.89 -0.159,1.34 0.09,0.572 0.04,1.155 0.03,1.731 0.137,0.604 0.145,1.225 0.175,1.841 -0.04,0.544 0.05,1.054 0.122,1.582 0.08,0.564 0.08,1.135 0.1,1.704 0.04,0.586 0.06,1.174 0.08,1.762 0.01,0.63 -0.03,1.26 -0.06,1.889 0.07,0.601 0.02,1.208 0,1.811 -0.149,0.52 0.09,0.797 0.232,1.173 0.48,0.24 0.956,0.477 1.424,0.74 0.433,0.309 0.917,0.393 1.409,0.497 0.178,-0.03 0.536,0.124 0.553,0.127 -0.878,0.548 -1.756,1.097 -2.634,1.644 -0.479,-0.143 -0.559,-0.551 -0.752,-1.024 -0.285,-1.046 -0.409,-2.128 -0.598,-3.198 -0.06,-0.679 -0.302,-1.291 -0.53,-1.913 -0.151,-0.606 -0.362,-1.181 -0.591,-1.755 -0.262,-1.063 -0.121,-2.174 -0.1,-3.261 0.07,-0.999 -0.06,-2 -0.113,-2.999 -0.05,-1.361 0,-2.693 -0.158,-4.046 -0.121,-1.087 -0.115,-2.166 -0.01,-3.247 0.1,-0.613 0.435,-0.956 0.81,-1.37 0.435,-0.318 0.62,-0.779 0.841,-1.263 0.23,-0.623 0.596,-1.168 0.934,-1.722 0.303,-0.622 0.568,-1.258 0.879,-1.876 0.368,-0.556 0.856,-0.982 1.331,-1.418 0.727,-0.622 1.536,-1.124 2.327,-1.642 9.945,-7.114 -0.847,1.717 1.356,-1.194 0,-0.08 0.02,-0.169 0.03,-0.254 l 2.961,-1.88 c -0.05,0.108 -0.09,0.216 -0.142,0.325 -1.722,1.258 -7.115,5.076 -1.066,1.009 -0.803,0.529 -1.613,1.055 -2.366,1.667 -0.497,0.424 -1.01,0.824 -1.343,1.426 -0.33,0.658 -0.675,1.305 -1.011,1.959 -0.317,0.567 -0.642,1.133 -0.93,1.72 -0.25,0.479 -0.464,0.963 -0.886,1.292 -0.366,0.403 -0.705,0.682 -0.707,1.304 0.175,0.98 0.346,1.961 0.481,2.949 0.115,1.361 0.172,2.734 0.08,4.098 -0.06,1.046 -0.185,2.097 -0.113,3.142 0.05,1.083 0.217,2.162 0.123,3.247 -0.02,0.722 0.02,1.251 0.36,1.901 0.227,0.605 0.44,1.202 0.727,1.788 0.394,1.048 0.684,2.073 0.548,3.23 0,0.488 -0.06,0.958 0.24,1.349 -1.845,1.193 -1.907,1.764 -3.408,1.715 -0.529,-0.08 -1.059,-0.13 -1.543,-0.411 -0.396,-0.293 -0.803,-0.569 -1.18,-0.896 -0.231,-0.366 -0.47,-0.534 -0.378,-1.08 -0.02,-0.604 -0.06,-1.214 0,-1.817 -0.03,-0.607 -0.06,-1.216 -0.05,-1.824 0.01,-0.613 0.04,-1.228 0.05,-1.84 -0.05,-0.552 -0.1,-1.104 -0.177,-1.653 -0.01,-0.536 -0.02,-1.076 -0.08,-1.611 -0.08,-0.611 -0.188,-1.225 -0.171,-1.844 -0.02,-0.59 -0.06,-1.187 0.03,-1.772 0.03,-0.446 0.02,-0.9 0.148,-1.333 0.166,-0.494 0.358,-0.98 0.396,-1.512 0.134,-0.686 0.299,-1.36 0.339,-2.062 0.1,-0.666 0.17,-1.347 0.407,-1.976 0.277,-0.543 0.523,-1.108 0.869,-1.608 0.289,-0.424 0.579,-0.843 0.899,-1.24 0.306,-0.334 0.629,-0.659 0.864,-1.06 0.377,-0.622 0.709,-1.273 1.018,-1.94 0.264,-0.633 0.539,-1.258 0.851,-1.866 0.311,-0.533 0.617,-1.074 1.051,-1.5 0.501,-0.444 1.022,-0.865 1.505,-1.333 0.409,-0.437 0.836,-0.861 1.191,-1.354 0.276,-0.498 0.537,-1.012 0.846,-1.485 z"
       inkscape:connector-curvature="0" />
    <path
       style="opacity:1;fill:#fff6d5;fill-opacity:1;fill-rule:evenodd;stroke:#000000;stroke-width:0;stroke-linecap:square;stroke-linejoin:round;stroke-miterlimit:4;stroke-dasharray:none;stroke-dashoffset:0;stroke-opacity:0.9875"
       id="path6661"
       d="m 200.921,885.917 c -1.298,0.1 -2.03,-0.525 -2.951,-1.315 -0.758,-0.93 -1.016,-1.979 -1.161,-3.133 -0.235,-1.445 -0.56,-2.894 -0.747,-4.353 -0.03,-1.255 -0.116,-2.434 -0.563,-3.579 -0.916,-1.256 -1.193,-2.674 -1.408,-4.175 l 4.886,-2.821 c 0.417,1.475 0.749,2.939 0.9,4.468 0.327,1.103 0.755,2.18 1.042,3.303 0.228,1.578 0.318,3.121 0.118,4.716 0.329,1.092 0.679,2.111 1.556,2.905 0.619,0.706 1.208,1.425 2.085,1.815 z"
       inkscape:connector-curvature="0" />
    <path
       style="opacity:1;fill:#ffcc00;fill-opacity:1;fill-rule:evenodd;stroke:#000000;stroke-width:0;stroke-linecap:square;stroke-linejoin:round;stroke-miterlimit:4;stroke-dasharray:none;stroke-dashoffset:0;stroke-opacity:0.9875"
       id="path6667"
       d="m 211.583,881.631 c -4.183,2.595 -3.532,2.603 -3.618,-0.621 -0.283,-2.227 -0.04,-4.452 0.258,-6.661 -0.04,-1.295 -0.1,-2.594 -0.186,-3.886 -0.06,-0.651 -0.389,-1.197 -0.63,-1.743 l 4.104,-2.368 c 0.258,0.55 0.534,1.096 0.766,1.662 0.37,1.183 0.672,2.35 0.682,3.6 0.382,2.167 0.513,4.341 0,6.518 -0.767,3.366 -0.956,3.639 -4.965,5.578 z"
       inkscape:connector-curvature="0" />
    <path
       style="opacity:1;fill:#ffeeaa;fill-opacity:1;fill-rule:evenodd;stroke:#000000;stroke-width:0;stroke-linecap:square;stroke-linejoin:round;stroke-miterlimit:4;stroke-dasharray:none;stroke-dashoffset:0;stroke-opacity:0.9875"
       id="path6669"
       d="m 198.031,881.999 c -0.92,-1.909 -0.286,-3.999 -0.315,-6.02 -0.04,-1.419 -0.26,-2.814 -0.484,-4.21 0.05,-1.014 -0.04,-1.982 -0.166,-2.976 -0.21,-0.908 -0.398,-1.781 -0.464,-2.71 -0.06,-1.267 -0.187,-2.52 -0.197,-3.792 0,-0.653 0.09,-1.303 0.146,-1.952 l 4.373,-2.525 c 0.06,0.594 0.136,1.187 0.143,1.785 0,1.327 -0.159,2.648 -0.11,3.969 0.05,0.948 -0.06,1.912 0.29,2.811 0.189,0.916 0.358,1.837 0.53,2.766 0.167,1.377 0.51,2.688 0.763,4.05 0.299,2.109 0.602,4.246 -0.175,6.302 z"
       inkscape:connector-curvature="0" />
  </g>
</svg>
