<?xml version="1.0" encoding="UTF-8" standalone="no"?>
<!-- Created with Inkscape (http://www.inkscape.org/) -->

<svg
   width="47.4169mm"
   height="47.4167mm"
   viewBox="0 0 47.417 47.4167"
   version="1.1"
   id="svg5"
   inkscape:version="1.1.2 (0a00cf5339, 2022-02-04, custom)"
   sodipodi:docname="donut-puzzle.svg"
   xmlns:inkscape="http://www.inkscape.org/namespaces/inkscape"
   xmlns:sodipodi="http://sodipodi.sourceforge.net/DTD/sodipodi-0.dtd"
   xmlns:xlink="http://www.w3.org/1999/xlink"
   xmlns="http://www.w3.org/2000/svg"
   xmlns:svg="http://www.w3.org/2000/svg">
  <sodipodi:namedview
     id="namedview7"
     pagecolor="#ffffff"
     bordercolor="#666666"
     borderopacity="1.0"
     inkscape:pageshadow="2"
     inkscape:pageopacity="0.0"
     inkscape:pagecheckerboard="0"
     inkscape:document-units="px"
     showgrid="false"
     inkscape:current-layer="layer1"
     inkscape:snap-global="false" />
  <defs
     id="defs2">
    <linearGradient
       inkscape:collect="always"
       id="linearGradient2758">
      <stop
         style="stop-color:#19aeff;stop-opacity:1;"
         offset="0"
         id="stop2754" />
      <stop
         style="stop-color:#ffddaa;stop-opacity:1"
         offset="0.409667"
         id="stop2890" />
      <stop
         style="stop-color:#f57900;stop-opacity:1"
         offset="1"
         id="stop2756" />
    </linearGradient>
    <radialGradient
       inkscape:collect="always"
       xlink:href="#linearGradient2758"
       id="radialGradient2760"
       cx="68.7926"
       cy="86.112"
       fx="68.7926"
       fy="86.112"
       r="23.7085"
       gradientTransform="matrix(1,0,0,0.999996,0,3.72407e-4)"
       gradientUnits="userSpaceOnUse" />
  </defs>
  <g
     inkscape:label="Layer 1"
     inkscape:groupmode="layer"
     id="layer1"
     transform="translate(-44.3576,-64.5833)">
    <path
       id="path846"
       style="color:#000000;overflow:visible;fill:url(#radialGradient2760);stroke:none;stroke-width:0.529166;stop-color:#000000;fill-opacity:1"
       d="M 68.0663,64.5832 A 23.7086,23.7084 0 0 0 44.3576,88.2918 23.7086,23.7084 0 0 0 68.0663,112 23.7086,23.7084 0 0 0 91.7746,88.2918 23.7086,23.7084 0 0 0 68.0663,64.5832 Z m -2e-4,12.6793 A 11.0292,11.0291 0 0 1 79.0954,88.2918 11.0292,11.0291 0 0 1 68.0661,99.3207 11.0292,11.0291 0 0 1 57.037,88.2918 11.0292,11.0291 0 0 1 68.0661,77.2625 Z" />
  </g>
</svg>
