<?xml version="1.0" encoding="UTF-8" standalone="no"?>
<!-- Created with Inkscape (http://www.inkscape.org/) -->

<svg
   width="122.646mm"
   height="54.6742mm"
   viewBox="0 0 122.646 54.6742"
   version="1.1"
   id="svg5"
   inkscape:version="1.1.2 (0a00cf5339, 2022-02-04, custom)"
   sodipodi:docname="donut-soln.svg"
   xmlns:inkscape="http://www.inkscape.org/namespaces/inkscape"
   xmlns:sodipodi="http://sodipodi.sourceforge.net/DTD/sodipodi-0.dtd"
   xmlns:xlink="http://www.w3.org/1999/xlink"
   xmlns="http://www.w3.org/2000/svg"
   xmlns:svg="http://www.w3.org/2000/svg">
  <sodipodi:namedview
     id="namedview7"
     pagecolor="#ffffff"
     bordercolor="#666666"
     borderopacity="1.0"
     inkscape:pageshadow="2"
     inkscape:pageopacity="0.0"
     inkscape:pagecheckerboard="0"
     inkscape:document-units="px"
     showgrid="false"
     inkscape:current-layer="layer1"
     inkscape:snap-global="false" />
  <defs
     id="defs2">
    <radialGradient
       inkscape:collect="always"
       xlink:href="#linearGradient2758"
       id="radialGradient2760"
       cx="68.7926"
       cy="86.112"
       fx="68.7926"
       fy="86.112"
       r="23.7085"
       gradientTransform="matrix(1,0,0,0.999996,-0.109816,62.0154)"
       gradientUnits="userSpaceOnUse" />
    <linearGradient
       inkscape:collect="always"
       id="linearGradient2758">
      <stop
         style="stop-color:#19aeff;stop-opacity:1"
         offset="0"
         id="stop2754" />
      <stop
         style="stop-color:#ffddaa;stop-opacity:1"
         offset="0.409667"
         id="stop2890" />
      <stop
         style="stop-color:#f57900;stop-opacity:1"
         offset="1"
         id="stop2756" />
    </linearGradient>
    <radialGradient
       inkscape:collect="always"
       xlink:href="#linearGradient2758"
       id="radialGradient2760-3"
       cx="68.7926"
       cy="86.112"
       fx="68.7926"
       fy="86.112"
       r="23.7085"
       gradientTransform="matrix(1,0,0,0.999996,67.7823,62.0152)"
       gradientUnits="userSpaceOnUse" />
  </defs>
  <g
     inkscape:label="Layer 1"
     inkscape:groupmode="layer"
     id="layer1"
     transform="translate(-38.6241,-121.912)">
    <path
       id="path846"
       style="color:#000000;overflow:visible;fill:url(#radialGradient2760);fill-opacity:1;stroke:none;stroke-width:0.529166;stop-color:#000000"
       d="m 67.9565,126.597 a 23.7086,23.7084 0 0 0 -23.7087,23.709 23.7086,23.7084 0 0 0 23.7087,23.708 23.7086,23.7084 0 0 0 23.7083,-23.708 23.7086,23.7084 0 0 0 -23.7083,-23.709 z m -2e-4,12.68 a 11.0292,11.0291 0 0 1 11.0293,11.029 11.0292,11.0291 0 0 1 -11.0293,11.029 11.0292,11.0291 0 0 1 -11.0291,-11.029 11.0292,11.0291 0 0 1 11.0291,-11.029 z" />
    <path
       id="path846-3"
       style="color:#000000;overflow:visible;fill:url(#radialGradient2760-3);fill-opacity:1;stroke:none;stroke-width:0.529166;stop-color:#000000"
       d="m 135.848,126.597 a 23.7086,23.7084 0 0 0 -23.708,23.709 23.7086,23.7084 0 0 0 23.708,23.708 23.7086,23.7084 0 0 0 23.709,-23.708 23.7086,23.7084 0 0 0 -23.709,-23.709 z m 0,12.679 a 11.0292,11.0291 0 0 1 11.029,11.03 11.0292,11.0291 0 0 1 -11.029,11.029 11.0292,11.0291 0 0 1 -11.029,-11.029 11.0292,11.0291 0 0 1 11.029,-11.03 z" />
    <path
       style="fill:none;fill-rule:evenodd;stroke:#8f5902;stroke-width:0.529168;stroke-linecap:butt;stroke-linejoin:miter;stroke-miterlimit:4;stroke-dasharray:none;stroke-opacity:1"
       d="m 55.2775,122.088 41.04,46.03"
       id="path1091"
       sodipodi:nodetypes="cc" />
    <path
       style="fill:none;fill-rule:evenodd;stroke:#8f5902;stroke-width:0.529168;stroke-linecap:butt;stroke-linejoin:miter;stroke-miterlimit:4;stroke-dasharray:none;stroke-opacity:1"
       d="m 38.6399,158.691 60.451,-3.605"
       id="path1338"
       sodipodi:nodetypes="cc" />
    <path
       style="fill:none;fill-rule:evenodd;stroke:#8f5902;stroke-width:0.529168;stroke-linecap:butt;stroke-linejoin:miter;stroke-miterlimit:4;stroke-dasharray:none;stroke-opacity:1"
       d="M 76.0746,122.365 46.1275,169.783"
       id="path1340"
       sodipodi:nodetypes="cc" />
    <path
       style="fill:none;fill-rule:evenodd;stroke:#8f5902;stroke-width:0.529168;stroke-linecap:butt;stroke-linejoin:miter;stroke-miterlimit:4;stroke-dasharray:none;stroke-opacity:1"
       d="m 155.453,129.302 -30.64,47.14"
       id="path1342"
       sodipodi:nodetypes="cc" />
    <path
       style="fill:none;fill-rule:evenodd;stroke:#8f5902;stroke-width:0.529168;stroke-linecap:butt;stroke-linejoin:miter;stroke-miterlimit:4;stroke-dasharray:none;stroke-opacity:1"
       d="m 146.92,122.31 -19.133,52.547"
       id="path1344"
       sodipodi:nodetypes="cc" />
    <path
       style="fill:none;fill-rule:evenodd;stroke:#8f5902;stroke-width:0.529168;stroke-linecap:butt;stroke-linejoin:miter;stroke-miterlimit:4;stroke-dasharray:none;stroke-opacity:1"
       d="m 103.807,147.571 57.401,-13.865"
       id="path1346"
       sodipodi:nodetypes="cc" />
  </g>
</svg>
