<?xml version="1.0" encoding="UTF-8" standalone="no"?>
<!-- Generator: Adobe Illustrator 12.0.1, SVG Export Plug-In . SVG Version: 6.00 Build 51448)  -->

<svg
   xmlns:dc="http://purl.org/dc/elements/1.1/"
   xmlns:cc="http://creativecommons.org/ns#"
   xmlns:rdf="http://www.w3.org/1999/02/22-rdf-syntax-ns#"
   xmlns:svg="http://www.w3.org/2000/svg"
   xmlns="http://www.w3.org/2000/svg"
   xmlns:xlink="http://www.w3.org/1999/xlink"
   xmlns:sodipodi="http://sodipodi.sourceforge.net/DTD/sodipodi-0.dtd"
   xmlns:inkscape="http://www.inkscape.org/namespaces/inkscape"
   enable-background="new 0 0 298.392 254.325"
   height="192.525"
   id="Layer_1"
   overflow="visible"
   space="preserve"
   version="1.0"
   viewBox="0 0 55.945 65.8034"
   width="197.306"
   sodipodi:version="0.32"
   inkscape:version="0.92.2 (5c3e80d, 2017-08-06)"
   sodipodi:docname="faucet.svg"
   inkscape:output_extension="org.inkscape.output.svg.inkscape"
   inkscape:export-filename="C:\Documents and Settings\jan.helebrant\Plocha\symboly-monras\kohoutek.png"
   inkscape:export-xdpi="88"
   inkscape:export-ydpi="88"
   style="overflow:visible">
  <defs
     id="defs160">
    <linearGradient
       inkscape:collect="always"
       id="linearGradient829">
      <stop
         style="stop-color:#ffc32f;stop-opacity:1"
         offset="0"
         id="stop825" />
      <stop
         style="stop-color:#000000;stop-opacity:0;"
         offset="1"
         id="stop827" />
    </linearGradient>
    <inkscape:perspective
       sodipodi:type="inkscape:persp3d"
       inkscape:vp_x="0 : 127.162 : 1"
       inkscape:vp_y="0 : 999.999 : 0"
       inkscape:vp_z="298.392 : 127.162 : 1"
       inkscape:persp3d-origin="149.196 : 84.775 : 1"
       id="perspective162" />
    <inkscape:perspective
       id="perspective2542"
       inkscape:persp3d-origin="372.047 : 350.787 : 1"
       inkscape:vp_z="744.094 : 526.182 : 1"
       inkscape:vp_y="0 : 999.999 : 0"
       inkscape:vp_x="0 : 526.182 : 1"
       sodipodi:type="inkscape:persp3d" />
    <linearGradient
       inkscape:collect="always"
       xlink:href="#linearGradient829"
       id="linearGradient831"
       x1="138.572"
       y1="208.198"
       x2="163.793"
       y2="38.9931"
       gradientUnits="userSpaceOnUse" />
    <linearGradient
       inkscape:collect="always"
       xlink:href="#linearGradient829"
       id="linearGradient833"
       gradientUnits="userSpaceOnUse"
       x1="138.572"
       y1="208.198"
       x2="163.793"
       y2="38.9931" />
    <linearGradient
       inkscape:collect="always"
       xlink:href="#linearGradient829"
       id="linearGradient835"
       gradientUnits="userSpaceOnUse"
       x1="138.572"
       y1="208.198"
       x2="163.793"
       y2="38.9931" />
    <linearGradient
       inkscape:collect="always"
       xlink:href="#linearGradient829"
       id="linearGradient837"
       gradientUnits="userSpaceOnUse"
       x1="138.572"
       y1="208.198"
       x2="163.793"
       y2="38.9931" />
    <linearGradient
       inkscape:collect="always"
       xlink:href="#linearGradient829"
       id="linearGradient839"
       gradientUnits="userSpaceOnUse"
       x1="138.572"
       y1="208.198"
       x2="163.793"
       y2="38.9931" />
    <linearGradient
       inkscape:collect="always"
       xlink:href="#linearGradient829"
       id="linearGradient841"
       gradientUnits="userSpaceOnUse"
       x1="138.572"
       y1="208.198"
       x2="163.793"
       y2="38.9931" />
    <linearGradient
       inkscape:collect="always"
       xlink:href="#linearGradient829"
       id="linearGradient843"
       gradientUnits="userSpaceOnUse"
       x1="138.572"
       y1="208.198"
       x2="163.793"
       y2="38.9931" />
    <linearGradient
       inkscape:collect="always"
       xlink:href="#linearGradient829"
       id="linearGradient845"
       gradientUnits="userSpaceOnUse"
       x1="138.572"
       y1="208.198"
       x2="163.793"
       y2="38.9931" />
  </defs>
  <sodipodi:namedview
     inkscape:window-height="694"
     inkscape:window-width="1024"
     inkscape:pageshadow="2"
     inkscape:pageopacity="0.0"
     guidetolerance="10.0"
     gridtolerance="10.0"
     objecttolerance="10.0"
     borderopacity="1.0"
     bordercolor="#666666"
     pagecolor="#ffffff"
     id="base"
     showgrid="false"
     inkscape:zoom="0.31904258"
     inkscape:cx="1038.7658"
     inkscape:cy="333.6725"
     inkscape:window-x="-4"
     inkscape:window-y="-4"
     inkscape:current-layer="layer2"
     showguides="true"
     inkscape:guide-bbox="true" />
  <metadata
     id="metadata3">
    <rdf:RDF>
      <cc:Work
         rdf:about="">
        <dc:title>faucet</dc:title>
        <dc:description />
        <dc:subject>
          <rdf:Bag>
            <rdf:li>tap</rdf:li>
            <rdf:li>faucet</rdf:li>
            <rdf:li>plumbing</rdf:li>
          </rdf:Bag>
        </dc:subject>
        <dc:publisher>
          <cc:Agent
             rdf:about="http://www.openclipart.org/">
            <dc:title>Open Clip Art Library</dc:title>
          </cc:Agent>
        </dc:publisher>
        <dc:creator>
          <cc:Agent>
            <dc:title>John Olsen</dc:title>
          </cc:Agent>
        </dc:creator>
        <dc:rights>
          <cc:Agent>
            <dc:title />
          </cc:Agent>
        </dc:rights>
        <dc:date />
        <dc:format>image/svg+xml</dc:format>
        <dc:type
           rdf:resource="http://purl.org/dc/dcmitype/StillImage" />
        <cc:license
           rdf:resource="http://web.resource.org/cc/PublicDomain" />
        <dc:language>en</dc:language>
      </cc:Work>
      <cc:License
         rdf:about="http://web.resource.org/cc/PublicDomain">
        <cc:permits
           rdf:resource="http://web.resource.org/cc/Reproduction" />
        <cc:permits
           rdf:resource="http://web.resource.org/cc/Distribution" />
        <cc:permits
           rdf:resource="http://web.resource.org/cc/DerivativeWorks" />
      </cc:License>
    </rdf:RDF>
  </metadata>
  <g
     inkscape:groupmode="layer"
     id="layer2"
     inkscape:label="2"
     transform="translate(-36.9502,-176.139)">
    <g
       id="g3171"
       transform="matrix(0.264679,0,0,0.264679,26.0654,174.912)"
       style="fill:url(#linearGradient831);fill-opacity:1">
      <path
         style="display:inline;overflow:visible;fill:url(#linearGradient833);fill-opacity:1;fill-rule:evenodd;stroke:#000000;stroke-width:2.910329;stroke-linecap:butt;stroke-linejoin:miter;stroke-miterlimit:4;stroke-dasharray:none;stroke-opacity:1"
         d="m 21.6435,140.066 -0.7576,61.739 63.2534,6.439 V 135.9 Z"
         id="path3375"
         inkscape:connector-curvature="0" />
      <rect
         style="opacity:1;fill:url(#linearGradient835);fill-opacity:1;stroke:#000000;stroke-width:2.910329;stroke-miterlimit:4;stroke-dasharray:none;stroke-dashoffset:0;stroke-opacity:1"
         id="rect3377"
         width="23.033"
         height="35.6208"
         x="140.76"
         y="38.9931"
         rx="74.0488"
         ry="0.053213" />
      <g
         style="fill:url(#linearGradient839);fill-opacity:1;stroke-width:2.73433;stroke-miterlimit:4;stroke-dasharray:none"
         transform="translate(-12.8556,5.35652)"
         id="g3379">
        <path
           sodipodi:nodetypes="cccccsscccccccccssccccssssssssssssc"
           id="path3381"
           d="m 96.995,130.28 c 3.866,0.257 5.607,4.539 9.28,5.871 3.55,1.012 7.193,0.662 10.794,0.379 1.205,-0.636 8.018,-5.716 8.398,-6.485 3.048,-2.534 7.169,-8.862 7.132,-12.453 l 0.757,-19.8854 c 0.04,-1.0172 -4.13,-4.2248 -4.794,-4.9968 -0.807,-0.9393 1.058,-9.9911 -0.495,-9.817 -1.754,-0.6776 -2.628,0.074 -5.224,-1.1553 -0.64,-1.938 -0.96,-10.1119 1.537,-9.6506 4.21,0.2545 6.848,0.7668 11.635,-0.8684 2.901,0 12.874,-9.217 15.753,-9.217 l 25.483,0.1338 c 1.629,0 4.749,4.2965 5.534,5.0809 3.757,4.5799 8.774,5.6356 15.626,7.8795 1.753,0.2116 7.834,-0.857 8.366,0.3748 1.205,4.014 0.796,8.0735 0.47,9.6086 -0.436,2.0578 -4.521,-0.03 -4.738,2.6339 -0.176,2.1637 -0.06,6.0421 -0.658,8.7194 -3.619,3.7276 -8.004,6.0736 -6.499,7.5806 l -0.1,17.02 c 0.465,3.876 1.668,8.203 3.076,10.693 3.952,8.714 12.115,8.918 13.052,9.16 0.43,0.11 37.324,4.883 58.14,24.808 1.772,1.695 5.666,4.981 10.038,18.37 4.224,12.938 7.097,55.098 5.681,55.679 -12.052,4.939 -28.425,10.087 -47.913,3.787 -2.432,-0.786 0.257,-16.665 -1.326,-24.241 -1.624,-7.768 0.05,-22.862 -16.76,-25.85 -7.006,-1.245 -29.658,2.706 -45.547,6.06 -7.565,1.597 -17.803,2.594 -23.199,1.515 -3.334,-0.667 -23.799,-5.109 -27.569,-6.052 -2.5,-0.625 -8.074,-0.946 -16.496,1.679 -6.252,1.948 -9.6082,6.713 -9.4188,5.052 0.1382,-1.212 0.2366,-70.149 -0.016,-71.413 z"
           style="fill:url(#linearGradient837);fill-opacity:1;fill-rule:evenodd;stroke:#000000;stroke-width:2.910329;stroke-linecap:butt;stroke-linejoin:miter;stroke-miterlimit:4;stroke-dasharray:none;stroke-opacity:1"
           inkscape:connector-curvature="0" />
      </g>
      <path
         style="fill:url(#linearGradient841);fill-opacity:1;fill-rule:evenodd;stroke:#000000;stroke-width:2.910329;stroke-linecap:butt;stroke-linejoin:miter;stroke-miterlimit:4;stroke-dasharray:none;stroke-opacity:1"
         d="m 152.161,6.10414 c -3.837,-0.0442 -9.992,5.50526 -17.399,10.83056 -9.773,6.0549 -21.399,1.7801 -31.328,-1.4633 -9.4217,-3.7398 -24.4533,-0.635 -25.73,11.151 0.2548,6.8669 2.762,17.5581 11.1082,17.9974 14.0248,-1.8987 28.4698,-8.1516 42.5958,-3.5781 5.64,2.4897 6.654,6.3502 7.124,6.2591 h 27.675 c 0.469,0.091 1.484,-3.7694 7.124,-6.2591 14.126,-4.5735 28.571,1.6794 42.596,3.5781 8.346,-0.4393 10.864,-11.1305 11.118,-17.9974 -1.276,-11.786 -16.319,-14.8908 -25.741,-11.151 -9.928,3.2434 -21.555,7.5182 -31.327,1.4633 -7.54,-5.4212 -13.782,-11.07186 -17.602,-10.81988 -0.07,-0.005 -0.143,-0.01 -0.214,-0.0107 z"
         id="path3395"
         sodipodi:nodetypes="ccccccccccccccc"
         inkscape:connector-curvature="0" />
      <path
         sodipodi:nodetypes="cs"
         id="path3399"
         d="m 111.032,77.8278 c 44.727,6.9635 82.825,2.5444 82.825,2.5444"
         style="fill:url(#linearGradient843);fill-opacity:1;fill-rule:evenodd;stroke:#000000;stroke-width:2.910329;stroke-linecap:butt;stroke-linejoin:miter;stroke-miterlimit:4;stroke-dasharray:none;stroke-opacity:1"
         inkscape:connector-curvature="0" />
      <path
         style="fill:url(#linearGradient845);fill-opacity:1;fill-rule:evenodd;stroke:#000000;stroke-width:2.910329;stroke-linecap:butt;stroke-linejoin:miter;stroke-miterlimit:4;stroke-dasharray:none;stroke-opacity:1"
         d="m 109.96,87.2781 c 44.727,6.9635 83.897,3.3478 83.897,3.3478"
         id="path3401"
         sodipodi:nodetypes="cs"
         inkscape:connector-curvature="0" />
    </g>
  </g>
</svg>
