<?xml version="1.0" encoding="UTF-8" standalone="no"?>
<!-- Created with Inkscape (http://www.inkscape.org/) -->

<svg
   width="56.4432mm"
   height="33.1268mm"
   viewBox="0 0 56.4432 33.1268"
   version="1.1"
   id="svg5"
   inkscape:version="1.1 (c68e22c387, 2021-05-23)"
   sodipodi:docname="islands.svg"
   xmlns:inkscape="http://www.inkscape.org/namespaces/inkscape"
   xmlns:sodipodi="http://sodipodi.sourceforge.net/DTD/sodipodi-0.dtd"
   xmlns:xlink="http://www.w3.org/1999/xlink"
   xmlns="http://www.w3.org/2000/svg"
   xmlns:svg="http://www.w3.org/2000/svg">
  <sodipodi:namedview
     id="namedview7"
     pagecolor="#ffffff"
     bordercolor="#666666"
     borderopacity="1.0"
     inkscape:pageshadow="2"
     inkscape:pageopacity="0.0"
     inkscape:pagecheckerboard="0"
     inkscape:document-units="px"
     showgrid="false"
     inkscape:current-layer="layer1"
     inkscape:snap-global="false" />
  <defs
     id="defs2">
    <linearGradient
       inkscape:collect="always"
       id="linearGradient5493">
      <stop
         style="stop-color:#de6060;stop-opacity:1"
         offset="0"
         id="stop5489" />
      <stop
         style="stop-color:#fdb7d6;stop-opacity:1"
         offset="1"
         id="stop5491" />
    </linearGradient>
    <linearGradient
       inkscape:collect="always"
       id="linearGradient962">
      <stop
         style="stop-color:#f6ffba;stop-opacity:1"
         offset="0"
         id="stop958" />
      <stop
         style="stop-color:#ffffff;stop-opacity:1"
         offset="1"
         id="stop960" />
    </linearGradient>
    <linearGradient
       inkscape:collect="always"
       xlink:href="#linearGradient962"
       id="linearGradient2081"
       gradientUnits="userSpaceOnUse"
       x1="62.0152"
       y1="183.964"
       x2="66.8228"
       y2="163.173"
       gradientTransform="matrix(0.2,0,0,0.2,140.361,116.15)" />
    <linearGradient
       inkscape:collect="always"
       xlink:href="#linearGradient5493"
       id="linearGradient5495"
       x1="49.6146"
       y1="123.072"
       x2="88.3805"
       y2="119.772"
       gradientUnits="userSpaceOnUse"
       gradientTransform="matrix(0.108129,0,0,0.108129,148.991,135.009)" />
    <linearGradient
       inkscape:collect="always"
       xlink:href="#linearGradient5493"
       id="linearGradient6701"
       gradientUnits="userSpaceOnUse"
       gradientTransform="matrix(0.108129,0,0,0.108129,157.668,141.587)"
       x1="49.6146"
       y1="123.072"
       x2="88.3805"
       y2="119.772" />
    <linearGradient
       inkscape:collect="always"
       xlink:href="#linearGradient962"
       id="linearGradient6703"
       gradientUnits="userSpaceOnUse"
       x1="62.0152"
       y1="183.964"
       x2="66.8228"
       y2="163.173"
       gradientTransform="matrix(0.200082,0,0,0.153297,151.096,130.474)" />
    <linearGradient
       inkscape:collect="always"
       xlink:href="#linearGradient5493"
       id="linearGradient6709"
       gradientUnits="userSpaceOnUse"
       gradientTransform="matrix(0.125701,-0.022556,0.019098,0.106429,165.209,147.218)"
       x1="49.6146"
       y1="123.072"
       x2="88.3805"
       y2="119.772" />
    <linearGradient
       inkscape:collect="always"
       xlink:href="#linearGradient962"
       id="linearGradient6711"
       gradientUnits="userSpaceOnUse"
       gradientTransform="matrix(0.2,0,0,0.2,163.882,127.431)"
       x1="62.0152"
       y1="183.964"
       x2="66.8228"
       y2="163.173" />
    <linearGradient
       inkscape:collect="always"
       xlink:href="#linearGradient5493"
       id="linearGradient6717"
       gradientUnits="userSpaceOnUse"
       gradientTransform="matrix(0.108129,0,0,0.108129,180.13,154.35)"
       x1="49.6146"
       y1="123.072"
       x2="88.3805"
       y2="119.772" />
    <linearGradient
       inkscape:collect="always"
       xlink:href="#linearGradient962"
       id="linearGradient6719"
       gradientUnits="userSpaceOnUse"
       gradientTransform="matrix(0.2,0,0,0.2,172.22,135.671)"
       x1="62.0152"
       y1="183.964"
       x2="66.8228"
       y2="163.173" />
    <linearGradient
       inkscape:collect="always"
       xlink:href="#linearGradient5493"
       id="linearGradient6725"
       gradientUnits="userSpaceOnUse"
       gradientTransform="matrix(0.107954,0.006145,-0.006145,0.107954,189.992,159.58)"
       x1="49.6146"
       y1="123.072"
       x2="88.3805"
       y2="119.772" />
    <linearGradient
       inkscape:collect="always"
       xlink:href="#linearGradient962"
       id="linearGradient6727"
       gradientUnits="userSpaceOnUse"
       gradientTransform="matrix(0.2,0,0,0.2,184.763,141.892)"
       x1="62.0152"
       y1="183.964"
       x2="66.8228"
       y2="163.173" />
    <linearGradient
       inkscape:collect="always"
       xlink:href="#linearGradient5493"
       id="linearGradient6731"
       gradientUnits="userSpaceOnUse"
       gradientTransform="matrix(0.108129,0,0,0.108129,160.439,140.62)"
       x1="49.6146"
       y1="123.072"
       x2="88.3805"
       y2="119.772" />
    <linearGradient
       inkscape:collect="always"
       xlink:href="#linearGradient5493"
       id="linearGradient7199"
       gradientUnits="userSpaceOnUse"
       gradientTransform="matrix(0.108129,0,0,0.108129,176.003,154.739)"
       x1="49.6146"
       y1="123.072"
       x2="88.3805"
       y2="119.772" />
  </defs>
  <g
     inkscape:label="Layer 1"
     inkscape:groupmode="layer"
     id="layer1"
     transform="translate(-146.778,-144.675)">
    <path
       style="fill:url(#linearGradient6725);fill-opacity:1;fill-rule:evenodd;stroke:none;stroke-width:0.0286092px;stroke-linecap:butt;stroke-linejoin:miter;stroke-opacity:1"
       d="m 194.278,175.626 c 0.367,-1.859 1.166,-2.531 2.366,-4.1 -0.74,-0.148 -1.458,0.248 -2.108,0.651 0.209,-0.619 1.004,-0.957 1.97,-1.228 -0.822,-0.203 -1.306,-0.02 -2.082,0.02 0.469,-0.529 0.909,-0.644 2.198,-0.515 0.113,-0.492 -0.211,-0.451 -1.016,-0.873 1,0.05 1.69,0.512 1.65,1.088 1.11,-0.207 1.235,0.619 1.423,1.353 -0.486,-0.595 -0.744,-1.007 -1.321,-0.654 0.51,0.699 0.86,0.971 0.61,1.835 -0.265,-0.65 -0.295,-1.349 -0.953,-1.434 -1.193,1.527 -1.588,2.167 -2.078,3.974 -0.198,0.04 -0.392,0.1 -0.659,-0.118 z"
       id="path6723"
       sodipodi:nodetypes="cccccccccccccc" />
    <path
       style="fill:url(#linearGradient6731);fill-opacity:1;fill-rule:evenodd;stroke:none;stroke-width:0.0286092px;stroke-linecap:butt;stroke-linejoin:miter;stroke-opacity:1"
       d="m 165.63,156.396 c 0.261,-1.876 1.021,-2.593 2.129,-4.227 -0.747,-0.106 -1.441,0.33 -2.067,0.769 0.173,-0.629 0.948,-1.012 1.897,-1.337 -0.833,-0.157 -1.305,0.05 -2.077,0.139 0.438,-0.555 0.871,-0.695 2.164,-0.639 0.09,-0.498 -0.236,-0.439 -1.064,-0.815 1.002,-0.01 1.717,0.416 1.709,0.993 1.097,-0.27 1.269,0.548 1.498,1.27 -0.519,-0.567 -0.799,-0.963 -1.356,-0.578 0.55,0.669 0.914,0.921 0.714,1.798 -0.302,-0.634 -0.372,-1.33 -1.034,-1.377 -1.103,1.592 -1.461,2.253 -1.848,4.085 -0.195,0.05 -0.386,0.118 -0.665,-0.08 z"
       id="path6729"
       sodipodi:nodetypes="cccccccccccccc" />
    <path
       style="font-variation-settings:normal;opacity:1;vector-effect:none;fill:url(#linearGradient2081);fill-opacity:1;fill-rule:evenodd;stroke:#000000;stroke-width:0.0281138px;stroke-linecap:butt;stroke-linejoin:miter;stroke-miterlimit:4;stroke-dasharray:none;stroke-dashoffset:0;stroke-opacity:1;-inkscape-stroke:none;stop-color:#000000;stop-opacity:1"
       d="m 146.81,152.045 h 11.965 c 0,0 -1.104,-3.14 -5.346,-2.886 -4.243,0.255 -6.619,2.886 -6.619,2.886 z"
       id="path1685"
       sodipodi:nodetypes="ccsc" />
    <path
       style="fill:url(#linearGradient5495);fill-opacity:1;fill-rule:evenodd;stroke:none;stroke-width:0.0286092px;stroke-linecap:butt;stroke-linejoin:miter;stroke-opacity:1"
       d="m 154.182,150.785 c 0.261,-1.876 1.021,-2.593 2.129,-4.227 -0.747,-0.106 -1.441,0.33 -2.067,0.769 0.173,-0.629 0.948,-1.012 1.897,-1.337 -0.833,-0.157 -1.305,0.05 -2.077,0.139 0.438,-0.556 0.871,-0.695 2.164,-0.64 0.09,-0.497 -0.236,-0.438 -1.064,-0.814 1.002,-0.01 1.717,0.416 1.709,0.993 1.097,-0.27 1.269,0.548 1.499,1.27 -0.52,-0.567 -0.8,-0.964 -1.357,-0.578 0.55,0.669 0.915,0.92 0.714,1.798 -0.302,-0.635 -0.372,-1.33 -1.034,-1.378 -1.103,1.592 -1.461,2.254 -1.848,4.085 -0.195,0.05 -0.386,0.119 -0.665,-0.08 z"
       id="path2379"
       sodipodi:nodetypes="cccccccccccccc" />
    <path
       style="font-variation-settings:normal;opacity:1;vector-effect:none;fill:url(#linearGradient6703);fill-opacity:1;fill-rule:evenodd;stroke:#000000;stroke-width:0.0246184px;stroke-linecap:butt;stroke-linejoin:miter;stroke-miterlimit:4;stroke-dasharray:none;stroke-dashoffset:0;stroke-opacity:1;-inkscape-stroke:none;stop-color:#000000;stop-opacity:1"
       d="m 157.548,157.986 h 11.97 c 0,0 -2.064,-1.947 -6.309,-1.752 -4.244,0.195 -5.661,1.752 -5.661,1.752 z"
       id="path6697"
       sodipodi:nodetypes="ccsc" />
    <path
       style="fill:url(#linearGradient6701);fill-opacity:1;fill-rule:evenodd;stroke:none;stroke-width:0.0286092px;stroke-linecap:butt;stroke-linejoin:miter;stroke-opacity:1"
       d="m 162.859,157.363 c 0.261,-1.876 1.021,-2.593 2.129,-4.227 -0.747,-0.106 -1.441,0.33 -2.067,0.769 0.173,-0.629 0.948,-1.012 1.897,-1.337 -0.833,-0.157 -1.306,0.05 -2.078,0.139 0.438,-0.556 0.872,-0.695 2.165,-0.64 0.09,-0.497 -0.236,-0.438 -1.064,-0.814 1.002,-0.01 1.717,0.416 1.709,0.993 1.097,-0.27 1.269,0.548 1.498,1.27 -0.519,-0.567 -0.799,-0.964 -1.356,-0.578 0.549,0.669 0.914,0.92 0.714,1.798 -0.302,-0.635 -0.372,-1.33 -1.034,-1.378 -1.103,1.592 -1.462,2.254 -1.848,4.085 -0.195,0.05 -0.386,0.119 -0.665,-0.08 z"
       id="path6699"
       sodipodi:nodetypes="cccccccccccccc" />
    <path
       style="font-variation-settings:normal;opacity:1;vector-effect:none;fill:url(#linearGradient6711);fill-opacity:1;fill-rule:evenodd;stroke:#000000;stroke-width:0.0281138px;stroke-linecap:butt;stroke-linejoin:miter;stroke-miterlimit:4;stroke-dasharray:none;stroke-dashoffset:0;stroke-opacity:1;-inkscape-stroke:none;stop-color:#000000;stop-opacity:1"
       d="m 170.331,163.325 h 11.965 c 0,0 -3.023,-3.08 -7.266,-2.825 -4.243,0.255 -4.699,2.825 -4.699,2.825 z"
       id="path6705"
       sodipodi:nodetypes="ccsc" />
    <path
       style="fill:url(#linearGradient6709);fill-opacity:1;fill-rule:evenodd;stroke:none;stroke-width:0.0310918px;stroke-linecap:butt;stroke-linejoin:miter;stroke-opacity:1"
       d="m 174.03,161.663 c -0.03,-1.901 0.729,-2.765 1.728,-4.605 -0.887,0.05 -1.616,0.626 -2.267,1.189 0.09,-0.656 0.924,-1.194 1.969,-1.712 -0.995,0.02 -1.508,0.326 -2.39,0.57 0.411,-0.638 0.89,-0.866 2.404,-1.081 0.01,-0.508 -0.352,-0.382 -1.381,-0.579 1.162,-0.219 2.069,0.05 2.162,0.62 1.227,-0.494 1.572,0.275 1.966,0.938 -0.704,-0.45 -1.1,-0.782 -1.679,-0.286 0.757,0.543 1.225,0.715 1.147,1.62 -0.463,-0.561 -0.667,-1.231 -1.444,-1.14 -1.002,1.797 -1.302,2.524 -1.428,4.407 -0.217,0.09 -0.427,0.197 -0.787,0.06 z"
       id="path6707"
       sodipodi:nodetypes="cccccccccccccc" />
    <path
       style="font-variation-settings:normal;opacity:1;vector-effect:none;fill:url(#linearGradient6719);fill-opacity:1;fill-rule:evenodd;stroke:#000000;stroke-width:0.0281138px;stroke-linecap:butt;stroke-linejoin:miter;stroke-miterlimit:4;stroke-dasharray:none;stroke-dashoffset:0;stroke-opacity:1;-inkscape-stroke:none;stop-color:#000000;stop-opacity:1"
       d="m 178.669,171.566 h 11.965 c 0.488,-0.122 0.01,-3.51 -6.666,-2.646 -4.216,0.546 -5.299,2.646 -5.299,2.646 z"
       id="path6713"
       sodipodi:nodetypes="ccsc" />
    <path
       style="fill:url(#linearGradient6717);fill-opacity:1;fill-rule:evenodd;stroke:none;stroke-width:0.0286092px;stroke-linecap:butt;stroke-linejoin:miter;stroke-opacity:1"
       d="m 185.321,170.126 c 0.261,-1.876 1.021,-2.593 2.129,-4.227 -0.747,-0.106 -1.441,0.33 -2.067,0.769 0.173,-0.629 0.948,-1.012 1.897,-1.337 -0.832,-0.157 -1.305,0.05 -2.077,0.139 0.438,-0.556 0.871,-0.695 2.165,-0.64 0.09,-0.497 -0.237,-0.438 -1.065,-0.814 1.002,-0.01 1.718,0.416 1.71,0.993 1.096,-0.27 1.268,0.548 1.498,1.27 -0.52,-0.567 -0.8,-0.964 -1.357,-0.578 0.55,0.669 0.915,0.92 0.714,1.798 -0.302,-0.635 -0.371,-1.33 -1.033,-1.378 -1.104,1.592 -1.462,2.254 -1.849,4.085 -0.195,0.05 -0.386,0.119 -0.665,-0.08 z"
       id="path6715"
       sodipodi:nodetypes="cccccccccccccc" />
    <path
       style="font-variation-settings:normal;opacity:1;vector-effect:none;fill:url(#linearGradient6727);fill-opacity:1;fill-rule:evenodd;stroke:#000000;stroke-width:0.0281138px;stroke-linecap:butt;stroke-linejoin:miter;stroke-miterlimit:4;stroke-dasharray:none;stroke-dashoffset:0;stroke-opacity:1;-inkscape-stroke:none;stop-color:#000000;stop-opacity:1"
       d="m 191.212,177.786 h 11.965 c -0.1,0.07 -2.275,-2.182 -5.346,-2.885 -6.382,-1.462 -6.887,2.87 -6.619,2.885 z"
       id="path6721"
       sodipodi:nodetypes="ccsc" />
    <path
       style="fill:url(#linearGradient7199);fill-opacity:1;fill-rule:evenodd;stroke:none;stroke-width:0.0286092px;stroke-linecap:butt;stroke-linejoin:miter;stroke-opacity:1"
       d="m 181.194,170.515 c 0.261,-1.876 1.021,-2.593 2.129,-4.227 -0.748,-0.106 -1.441,0.33 -2.068,0.769 0.174,-0.629 0.949,-1.012 1.898,-1.337 -0.833,-0.157 -1.306,0.05 -2.078,0.139 0.438,-0.556 0.871,-0.695 2.165,-0.64 0.09,-0.497 -0.236,-0.438 -1.064,-0.814 1.002,-0.01 1.717,0.416 1.709,0.993 1.097,-0.27 1.269,0.548 1.498,1.27 -0.519,-0.567 -0.8,-0.964 -1.356,-0.578 0.549,0.669 0.914,0.92 0.713,1.798 -0.302,-0.635 -0.371,-1.33 -1.033,-1.378 -1.104,1.592 -1.462,2.254 -1.848,4.085 -0.196,0.05 -0.386,0.119 -0.665,-0.08 z"
       id="path7197"
       sodipodi:nodetypes="cccccccccccccc" />
  </g>
</svg>
