<?xml version="1.0" encoding="UTF-8" standalone="no"?>
<!-- Copyright 2017 mathsisfun.com -->

<svg
   xmlns:dc="http://purl.org/dc/elements/1.1/"
   xmlns:cc="http://creativecommons.org/ns#"
   xmlns:rdf="http://www.w3.org/1999/02/22-rdf-syntax-ns#"
   xmlns:svg="http://www.w3.org/2000/svg"
   xmlns="http://www.w3.org/2000/svg"
   xmlns:xlink="http://www.w3.org/1999/xlink"
   xmlns:sodipodi="http://sodipodi.sourceforge.net/DTD/sodipodi-0.dtd"
   xmlns:inkscape="http://www.inkscape.org/namespaces/inkscape"
   width="150.71"
   height="164.256"
   version="1.1"
   id="svg12"
   sodipodi:docname="thought.svg"
   inkscape:version="0.92.2 (5c3e80d, 2017-08-06)">
  <metadata
     id="metadata16">
    <rdf:RDF>
      <cc:Work
         rdf:about="">
        <dc:format>image/svg+xml</dc:format>
        <dc:type
           rdf:resource="http://purl.org/dc/dcmitype/StillImage" />
        <dc:title></dc:title>
      </cc:Work>
    </rdf:RDF>
  </metadata>
  <sodipodi:namedview
     pagecolor="#ffffff"
     bordercolor="#666666"
     borderopacity="1"
     objecttolerance="10"
     gridtolerance="10"
     guidetolerance="10"
     inkscape:pageopacity="0"
     inkscape:pageshadow="2"
     inkscape:window-width="640"
     inkscape:window-height="480"
     id="namedview14"
     showgrid="false"
     inkscape:current-layer="svg12" />
  <defs
     id="defs2">
    <linearGradient
       inkscape:collect="always"
       id="linearGradient830">
      <stop
         style="stop-color:#ffffff;stop-opacity:1;"
         offset="0"
         id="stop826" />
      <stop
         style="stop-color:#c1c8f8;stop-opacity:0"
         offset="1"
         id="stop828" />
    </linearGradient>
    <radialGradient
       inkscape:collect="always"
       xlink:href="#linearGradient830"
       id="radialGradient832"
       cx="75.3554"
       cy="63.3971"
       fx="75.3554"
       fy="63.3971"
       r="73.3736"
       gradientTransform="matrix(1,0,0,0.837029,0,10.3319)"
       gradientUnits="userSpaceOnUse" />
    <radialGradient
       inkscape:collect="always"
       xlink:href="#linearGradient830"
       id="radialGradient840"
       cx="114.059"
       cy="134.601"
       fx="114.059"
       fy="134.601"
       r="11.119"
       gradientTransform="translate(0,5.05498e-5)"
       gradientUnits="userSpaceOnUse" />
    <radialGradient
       inkscape:collect="always"
       xlink:href="#linearGradient830"
       id="radialGradient848"
       cx="126.939"
       cy="155.682"
       fx="126.939"
       fy="155.682"
       r="8.17619"
       gradientTransform="matrix(1,0,0,1.00616,0,-0.958951)"
       gradientUnits="userSpaceOnUse" />
  </defs>
  <path
     inkscape:connector-curvature="0"
     id="path4"
     d="m 87.7295,3.48127 c -9.3608,0 -17.4394,5.06512 -21.9916,12.50253 -4.2316,-2.9493 -9.3608,-4.7446 -14.8748,-4.7446 -14.2977,0 -25.9026,11.605 -25.9026,25.8386 0,1.09 0.1923,2.0517 0.3205,3.0775 C 12.9709,42.1429 3.48178,52.722 3.48178,65.6092 c 0,12.759 9.29672,23.338 21.47872,25.4538 -0.2565,1.4106 -0.4488,2.8852 -0.4488,4.3599 0,14.2981 11.6049,25.9031 25.8385,25.9031 7.0527,0 13.336,-2.822 18.0165,-7.31 4.7445,5.643 11.7331,9.297 19.6834,9.297 11.3485,0 20.9019,-7.373 24.3639,-17.503 2.821,1.025 5.77,1.667 8.912,1.667 14.298,0 25.903,-11.5412 25.903,-25.8389 0,-7.181 -2.95,-13.6566 -7.694,-18.3371 2.372,-3.9751 3.847,-8.4632 3.847,-13.4001 0,-14.2978 -11.605,-25.8386 -25.839,-25.8386 -1.539,0 -3.013,0.1283 -4.424,0.3847 C 110.811,12.5216 100.36,3.48127 87.7295,3.48127 Z"
     style="fill:url(#radialGradient832);stroke:#000000;stroke-width:3;stroke-linejoin:round;stroke-miterlimit:4;stroke-dasharray:none;fill-opacity:1" />
  <path
     inkscape:connector-curvature="0"
     id="path6"
     d="m 123.678,134.601 a 9.619,9.619 0 1 1 -19.238,0 9.619,9.619 0 1 1 19.238,0 z"
     style="fill:url(#radialGradient840);stroke:#000000;stroke-width:3;stroke-linejoin:round;stroke-miterlimit:4;stroke-dasharray:none;fill-opacity:1.0" />
  <path
     inkscape:connector-curvature="0"
     id="path8"
     d="m 133.615,155.682 a 6.67619,6.67619 0 1 1 -13.352,0 6.67619,6.67619 0 1 1 13.352,0 z"
     style="fill:url(#radialGradient848);stroke:#000000;stroke-width:3;stroke-linejoin:round;stroke-miterlimit:4;stroke-dasharray:none;fill-opacity:1.0" />
</svg>
