<?xml version="1.0" encoding="UTF-8" standalone="no"?>
<!-- Copyright 2017 mathsisfun.com -->
<svg xmlns="http://www.w3.org/2000/svg" width="157.6" height="161" version="1.1">
<defs>
<marker id="id03" style="overflow:visible;" orient="auto">
<path transform="matrix(0.8,0,0,0.8,10,0)" style="fill:#4e9a06; stroke:#4e9a06; stroke-width:1pt;" d="M 0,0 5,-5 -12.5,0 5,5 Z"/>
</marker>
<marker id="id04" style="overflow:visible;" orient="auto">
<path transform="matrix(-0.8,0,0,-0.8,-10,0)" style="fill:#4e9a06; stroke:#4e9a06; stroke-width:1pt;" d="M 0,0 5,-5 -12.5,0 5,5 Z"/>
</marker>
<marker id="id01" style="overflow:visible;" orient="auto">
<path transform="matrix(0.8,0,0,0.8,10,0)" style="fill:#3465a4; stroke:#3465a4; stroke-width:1pt;" d="M 0,0 5,-5 -12.5,0 5,5 Z"/>
</marker>
<marker id="id02" style="overflow:visible;" orient="auto">
<path transform="matrix(-0.8,0,0,-0.8,-10,0)" style="fill:#3465a4; stroke:#3465a4; stroke-width:1pt;" d="M 0,0 5,-5 -12.5,0 5,5 Z"/>
</marker>
</defs>
<g transform="translate(-245.849,-573.854)">
<path style="fill:none; stroke:#2e3436; stroke-width:1.35; stroke-linecap:round; stroke-linejoin:round;" d="M 285.2,706.3 372.1,633.7 248,619.1"/>
<text x="373.4" y="671.7" style="font-family:'Comic Sans MS'; font-size:18.9px; fill:#3465a4; stroke-width:0.65;">b</text>
<text x="284.3" y="663.4" style="font-family:'Comic Sans MS'; font-size:18.9px; fill:#4e9a06; stroke-width:0.65;">a</text>
<path transform="rotate(-124.133)" style="color:black; marker-start:url(#id01); marker-end:url(#id02); overflow:visible; fill:none; stroke:#3465a4; stroke-width:1.07; stroke-opacity:0.99;" d="m -737.4,-72.2 a 87.7,87.7 0 0 1 -48.4,-9.5"/>
<path transform="rotate(-124.133)" style="color:black; marker-start:url(#id03); marker-end:url(#id04); overflow:visible; fill:none; stroke:#4e9a06; stroke-width:1.07; stroke-opacity:0.99;" d="m -740.5,-125.3 a 78.6,78.6 0 0 1 56.9,18"/>
<path style="fill:none; stroke:#2e3436; stroke-width:1.35; stroke-linecap:round; stroke-linejoin:round;" d="m 372.1,633.7 -86.8,72.6 113.2,-11.2"/>
<g transform="matrix(1.34945,0.050421,-0.05873,1.57183,-35.3298,-375.168)">
<path style="fill:none; stroke:#ff4141; stroke-width:2.6; stroke-linecap:round;" d="m 336.2,613 c -3.8,2.8 -7.6,5.1 -11.1,9.2"/>
<path style="fill:none; stroke:#ff4141; stroke-width:2.6; stroke-linecap:round;" d="m 325.3,613.4 c 3.9,2.7 7.2,5.8 10.1,9.2"/>
</g>
</g>
</svg>
