<?xml version="1.0" encoding="UTF-8" standalone="no"?>
<!-- Copyright 2017 mathsisfun.com -->
<svg xmlns="http://www.w3.org/2000/svg" width="295.5" height="171.8" version="1.1" style="font-family:'Comic Sans MS'; font-size:17.5px; stroke-width:1.53;">
<defs>
	<marker id="aa3" style="overflow:visible;" orient="auto">
		<path transform="matrix(-0.4,0,0,-0.4,-4,0)" style="stroke:black; stroke-width:1pt;" d="M 0,0 5,-5 -12.5,0 5,5 Z"/>
	</marker>
	<marker id="aa2" style="overflow:visible;" orient="auto">
		<path transform="matrix(0.4,0,0,0.4,4,0)" style="stroke:black; stroke-width:1pt;" d="M 0,0 5,-5 -12.5,0 5,5 Z"/>
	</marker>
	<marker id="aa1" style="overflow:visible;" orient="auto">
		<path transform="matrix(0.4,0,0,0.4,4,0)" style="stroke:black; stroke-width:1pt;" d="M 0,0 5,-5 -12.5,0 5,5 Z"/>
	</marker>
	<path transform="rotate(-34.6301)" style="color:black; marker-start:url(#aa1); overflow:visible; fill:none; stroke:#800000; stroke-width:1.82; stroke-dasharray:3.6, 1.8;" d="m 199,1247.2 a 112.8,86 0 0 1 31.9,67.3"/>
</defs>
<g transform="translate(-2612.51,-2383.97)">
	<path style="marker-start:url(#aa2); marker-end:url(#aa3); overflow:visible; fill:none; stroke:black;" d="m 2748.5,2481.4 a 72.2,72.2 0 0 1 67.5,45"/>
	<path style="marker-start:url(#aa2); marker-end:url(#aa3); overflow:visible; fill:none; stroke:black;" d="m 2676.5,2552.5 a 75.4,75.4 0 0 1 22.1,-49.3"/>
	<text x="2795.5" y="2489.1" style="text-align:center; text-anchor:middle; font-size:25.5px; overflow:visible; fill:#fb8b00; stroke-width:3.15;">b</text>
	<text x="2667.7" y="2528.5" style="text-align:center; text-anchor:middle; overflow:visible; fill:black; stroke-width:3.15;">45°</text>
	<path style="color:black; overflow:visible; fill:none; stroke:#0197fd; stroke-width:2.45; stroke-linejoin:round;" d="m 2613.4,2415.5 139.4,139.4"/>
	<path style="color:black; overflow:visible; fill:none; stroke:#0197fd; stroke-width:2.45; stroke-linejoin:round;" d="m 2739,2384.1 13.8,170.8"/>
	<path style="color:black; overflow:visible; fill:none; stroke:#0197fd; stroke-width:2.45; stroke-linejoin:round;" d="m 2907.5,2490.1 -155.9,63.7"/>
	<path style="color:black; overflow:visible; fill:none; stroke:#0169c9; stroke-width:2.45;" d="m 2613.3,2553.9 h 293.4"/>
	<path style="marker-start:url(#aa2); marker-end:url(#aa3); overflow:visible; fill:none; stroke:black;" d="m 2701,2499.8 a 72.2,72.2 0 0 1 42.7,-18.2"/>
	<path style="marker-start:url(#aa2); marker-end:url(#aa3); overflow:visible; fill:none; stroke:black;" d="m 2817,2528.9 a 72.2,72.2 0 0 1 4.4,23.7"/>
	<text x="2717.6" y="2483.1" style="text-align:center; text-anchor:middle; overflow:visible; fill:black; stroke-width:3.15;">39°</text>
	<text x="2838.3" y="2543.7" style="text-align:center; text-anchor:middle; overflow:visible; fill:black; stroke-width:3.15;">24°</text>
</g>
</svg>