<?xml version="1.0" encoding="UTF-8" standalone="no"?>
<!-- Copyright 2017 mathsisfun.com -->
<svg xmlns="http://www.w3.org/2000/svg" width="234.4" height="167.9" version="1.1">
<defs>
<marker id="id02" style="overflow:visible;" orient="auto">
<path transform="matrix(-0.8,0,0,-0.8,-10,0)" style="stroke:black; stroke-width:1pt;" d="M 0,0 5,-5 -12.5,0 5,5 0,0 Z"/>
</marker>
<marker id="id01" style="overflow:visible;" orient="auto">
<path transform="matrix(0.8,0,0,0.8,10,0)" style="stroke:black; stroke-width:1pt;" d="M 0,0 5,-5 -12.5,0 5,5 0,0 Z"/>
</marker>
</defs>
<g transform="translate(248.62991,-269.70447)">
<rect x="-248.6" y="269.7" rx="31.3" ry="31.3" width="234.4" height="167.9" style="color:black; overflow:visible; fill:#0000ff; fill-opacity:0.08; stroke-width:6.9;"/>
<text x="-198.8" y="362" style="font-family:'Comic Sans MS'; font-size:29.2px; font-style:italic; color:black; overflow:visible; fill:black; stroke-width:1px;">x</text>
<text x="-107.5" y="391.7" style="font-family:'Comic Sans MS'; font-size:29.2px; font-style:italic; color:black; overflow:visible; fill:black; stroke-width:1px;">x</text>
<text x="-241" y="417.6" style="font-family:'Comic Sans MS'; font-size:15.6px; color:black; overflow:visible; fill:#0000ff; stroke-width:1px;">Blue Line Segment is Bisected</text>
<path style="fill:none; stroke:#0000ff; stroke-width:2.02;" d="m -223.5,319.4 182.1,59"/>
<path style="fill:#ff0000; fill-opacity:0.75; stroke:#fd0000; stroke-width:1.8;" d="m -105.9,270.3 -41.9,129.4"/>
<path style="marker-start:url(#id01); marker-end:url(#id02); fill:none; stroke:black; stroke-width:0.71;" d="m -227.4,329.9 90,29.2"/>
<path style="marker-start:url(#id01); marker-end:url(#id02); fill:none; stroke:black; stroke-width:0.71;" d="m -134.7,359.9 90,29.2"/>
<text x="-367.6" y="-25.2" transform="matrix(0.30325152,-0.95291055,0.95291055,0.30325152,0,0)" style="font-family:'Comic Sans MS'; font-size:17.5px; color:black; overflow:visible; fill:#ff0000; stroke-width:1px;">bisector</text>
</g>
</svg>
