<?xml version="1.0" encoding="UTF-8" standalone="no"?>
<!-- Copyright 2021 mathsisfun.com -->
<svg xmlns:sodipodi="http://sodipodi.sourceforge.net/DTD/sodipodi-0.dtd" xmlns="http://www.w3.org/2000/svg" width="381.4" height="243.8" version="1.1" style="font-family:'Trebuchet MS'; font-size:20px;">
<defs/>
<path style="fill:#73d216; stroke:#73d216; stroke-width:1;" d="m 151.1,105.6 c -0.6,-0.7 -1.2,-3.3 -1.2,-5 0,-2.4 0.4,-2.9 2.1,-2.2 0.8,0.3 1.4,0.7 2.3,1.7 1.3,1.3 2.5,3.2 2.3,3.5 -0.1,0.2 -2.8,1.7 -3.7,2 -0.9,0.3 -1.6,0.3 -1.9,0 z m -10,2.2 c 0.2,-0.2 5.6,-2 7.2,-2.5 1.4,-0.4 1.7,-0.4 1.8,-0.2 0.1,0.1 0.2,0.3 0.2,0.3 0,0.1 -1.4,0.5 -3.8,1.1 -0.8,0.2 -1.9,0.5 -2.4,0.7 -0.6,0.2 -1.3,0.3 -1.7,0.4 -0.4,0.1 -0.7,0.1 -0.7,0.2 -0.1,0 -0.2,0.1 -0.4,0.1 -0.2,0 -0.2,-0 -0.2,-0.1 z m -27.3,3.7 c 0.3,-0 0.8,-0 1.1,0 0.3,0.1 0,0.1 -0.6,0.1 -0.6,0 -0.9,-0 -0.5,-0.1 z m 43.8,-0.5 c -0.6,-1.8 -1.2,-3.2 -1.3,-3.6 -0.5,-1.1 -0.8,-2 -0.8,-2.3 0,-0.3 1,-0.9 1.3,-0.8 0.1,0 0.4,0.5 0.6,1.1 0.5,1.4 2,6 2,6.1 0,0.1 -0.2,0.1 -0.4,0.1 -0.2,0 -0.6,0.1 -0.7,0.3 -0.1,0.2 -0.3,0.3 -0.3,0.3 -0,0 -0.2,-0.5 -0.5,-1.2 z m -2.4,1.2 c 0.4,-1.6 0.4,-2.7 -0,-3.4 -0.4,-0.7 -0.4,-0.8 -0,-0.6 0.6,0.3 0.8,0.9 0.7,2.7 -0,1.6 -0.1,1.8 -0.4,1.8 -0.3,0 -0.4,-0.1 -0.3,-0.5 z m 1.1,0.2 c 0.1,-0.2 0.1,-0.7 0.1,-1.1 0,-1 0.3,-1.1 0.6,-0 0.2,0.4 0.3,0.9 0.4,1.1 0.1,0.3 0,0.3 -0.6,0.3 -0.6,0 -0.7,-0.1 -0.6,-0.3 z m -13.4,0.2 c -0.2,-0 0.3,-0.1 1,-0.1 0.7,-0 1.2,0.1 1.1,0.1 -0.2,0.1 -1.4,0.1 -2.1,-0.1 z m -3.7,0 c -0,-0.2 -0,-0.6 0.1,-0.8 0.1,-0.4 0.2,-0.5 0.8,-0.3 1.5,0.3 1.7,0.5 1.2,1.2 -0.2,0.3 -0.4,0.4 -1.2,0.3 -0.7,-0.1 -0.9,-0.1 -0.9,-0.4 z m 9,0.3 c 0,-0.1 0.4,-0.1 1,-0.1 1.7,0.1 1.8,0.2 0.4,0.2 -0.7,0 -1.4,-0 -1.4,-0.1 z m 10.4,-0.4 c -0.1,-0.3 0,-0.4 0.4,-0.4 0.3,0 0.5,0.1 0.5,0.3 0,0.7 -0.8,0.8 -0.9,0.1 z m -82.3,0.3 c -0.7,-0.1 -2.5,-0.3 -4,-0.5 -2.8,-0.3 -5.3,-0.6 -9.9,-1.1 -1.3,-0.2 -3.5,-0.4 -4.9,-0.5 -1.4,-0.1 -3.1,-0.3 -3.9,-0.4 -2.7,-0.4 -11.6,-1 -14.7,-1 -3.2,-0 -7.9,0.5 -10.1,1.1 -0.6,0.2 -1.1,0.3 -1.1,0.2 -0.1,-0.1 0.6,-0.3 1.5,-0.6 5.8,-1.8 11.4,-2.3 18.8,-1.7 3.8,0.3 5.1,0.4 9.4,0.6 1,0.1 2.8,0.2 3.9,0.3 2.3,0.2 9,0.7 11.6,0.8 1.6,0.1 8,0.6 10.3,0.8 0.4,0 0.9,0.1 0.9,0.2 0.1,0.1 -0.4,0.6 -0.9,1.2 l -1,1.1 -2.3,-0.1 c -1.3,-0.1 -2.9,-0.2 -3.6,-0.3 z m 6.8,0.2 c 0,-0.1 0.4,-0.6 1,-1.1 l 1,-1 2.3,0.2 c 3.3,0.2 6.8,0.3 16.8,0.3 4.9,0 8.9,0.1 8.9,0.1 -0,0.1 -1.5,0.2 -3.2,0.3 l -5.8,0.4 c -9,0.6 -20.9,1.1 -20.9,0.8 z m 69.5,0 c 0.4,-0.1 1,-0.1 1.4,0 0.4,0 0.1,0.1 -0.7,0.1 -0.8,0 -1.1,-0 -0.7,-0.1 z m 4,0.2 c 0.1,-0.1 0.3,-0.1 0.4,0 0.1,0.1 -0.1,0.1 -0.2,0.1 -0.2,-0 -0.3,-0.1 -0.1,-0.1 z m 0.9,0 c 0.1,-0.1 0.3,-0.1 0.4,0 0.1,0.1 -0,0.1 -0.2,0.1 -0.2,-0 -0.3,-0.1 -0.1,-0.1 z m 1.8,0 c 0.4,-0.3 0.6,-0.2 0.4,0.1 -0.1,0.1 -0.3,0.2 -0.4,0.2 -0.3,0 -0.3,-0 0.1,-0.3 z m -21.7,2.3 c -1.1,-0.7 -1,-0.8 0.3,-0.3 0.5,0.2 0.9,0.5 0.9,0.7 0,0.4 -0.1,0.4 -1.2,-0.4 z m 13.3,1.9 c -4.6,-0.7 -6.3,-0.9 -6.5,-0.7 -0.2,0.3 -0.3,0.2 -3.6,-0.9 l -1.6,-0.5 -0.1,-1 -0.1,-1 h 1.1 c 1.2,0 1.8,-0.3 1.8,-1.1 0,-0.9 -0.6,-1.3 -1.9,-1.3 -0.6,0 -0.8,-0.1 -0.7,-0.3 0.1,-0.1 0.2,-0.6 0.3,-1.1 0.1,-0.4 0.4,-0.9 0.6,-1 0.2,-0.1 1.4,-0.5 2.5,-0.7 1.2,-0.3 2.4,-0.6 2.6,-0.7 0.3,-0.1 0.8,-0.3 1.2,-0.4 0.4,-0.1 1.4,-0.4 2.3,-0.6 1.4,-0.4 1.6,-0.4 2,-0.1 0.6,0.4 1.1,0.4 2.5,-0.3 0.7,-0.4 1.3,-0.6 1.3,-0.5 0.1,0.2 0.9,2.2 0.9,2.3 0,0.1 -0.2,0.1 -0.4,-0.1 -0.4,-0.2 -2.2,-0.2 -6.6,0.1 -1.9,0.1 -2.3,0.2 -2.3,0.6 0,0.2 0.2,0.3 1.1,0.2 3.4,-0.4 6.1,-0.5 6.4,-0.3 0.7,0.4 1,1.2 0.8,2.9 l -0.1,1.6 -1.3,-0.1 c -9.8,-0.6 -11.1,-0.6 -11.2,-0.1 -0,0.2 0.1,0.4 0.3,0.5 0.2,0.1 2.7,0.3 5.5,0.4 2.8,0.1 5.4,0.2 5.6,0.3 l 0.7,0.1 c 0.2,0 0.2,0.3 0.1,1.1 -0.2,1.8 -0.3,2.1 -0.8,2.5 -0.6,0.4 -0.6,0.4 -2.8,0.1 z m 3.5,-0.2 c 0.3,-0.4 0.4,-1.1 0.5,-2 0.1,-0.9 0.2,-1.4 0.4,-1.4 0.5,-0.2 0.5,0.1 0.3,1.7 -0.2,1.7 -0.6,2.4 -1.1,2.4 -0.4,0 -0.4,-0 0,-0.7 z M 5.7,120.3 c 0.7,-0.2 4.7,-0.6 6.3,-0.6 3.1,0 -2,0.7 -5.8,0.7 -0.8,0 -0.9,-0 -0.5,-0.1 z m 75.5,0.7 c 0,-0.1 -0.1,-0.2 -0.1,-0.4 -0.1,-0.2 0.2,-0.4 1,-0.8 1.3,-0.6 1.4,-0.6 1.4,0 0,0.4 -0.2,0.6 -0.7,0.8 -0.6,0.3 -1.5,0.5 -1.5,0.3 z m 66.6,1.2 c -3.1,-0.9 -6.3,-1.7 -7.5,-1.8 -0.9,-0.1 -1,-0.1 -0.6,-0.8 0.1,-0.3 0.3,-0.8 0.3,-1.2 v -0.7 l 1.2,0.7 c 1.4,0.8 5.5,2.9 6.6,3.3 2.2,0.9 3,1.3 2.8,1.3 -0.1,0 -1.4,-0.3 -2.8,-0.7 z m -62.8,2 c 0,-0.2 -0.3,-1.5 -0.6,-3 -1.4,-5.8 -1.6,-6.9 -1.6,-7.1 0,-0.2 0.8,-0.3 4.8,-0.4 5.1,-0.1 11.8,-0.4 15.5,-0.7 6.3,-0.5 8,-0.6 11.3,-0.9 2,-0.2 4.4,-0.4 5.4,-0.5 3.2,-0.3 3.9,-0.4 6,-0.5 1.1,-0.1 3.1,-0.3 4.4,-0.5 l 2.9,-0.5 c 0.5,-0.1 1.5,-0.3 5.3,-1.1 0.6,-0.1 1.1,-0.2 1.2,-0.2 0,0 -0.1,0.5 -0.3,1.1 -0.2,0.7 -0.4,1.9 -0.5,3.1 -0.1,1.9 -0.1,2 -0.4,1.8 -0.4,-0.2 -3.4,-1.3 -3.6,-1.3 -0.1,0 -0.1,0.1 -0.1,0.2 0,0.2 1.6,1.3 4,2.8 0.9,0.6 1.1,0.7 1,1.2 -0,0.3 -0.1,0.7 -0.1,0.8 0,0.2 -0.2,0.5 -0.4,0.8 -0.4,0.4 -0.5,0.5 -1.2,0.3 -4.4,-1 -21.7,-1 -29.3,0 -0.7,0.1 -1.9,0.2 -2.6,0.3 -2.9,0.3 -9.2,1.2 -11.6,1.8 l -2.8,0.6 c -0.6,0.1 -2.2,0.6 -3.5,1 -2.7,0.8 -3,0.9 -3,0.5 z m 37.1,2.9 c 0.1,-0.1 1,-0.7 2,-1.3 1,-0.6 2.5,-1.7 3.3,-2.3 l 1.5,-1.1 2.1,0.1 c 1.1,0.1 2.1,0.2 2.2,0.3 0.1,0.1 -1.2,0.6 -2.7,1.2 -3.7,1.4 -3.4,1.3 -6,2.4 -2.2,0.9 -2.7,1.1 -2.3,0.8 z m -38.2,1.1 c 0.1,-0.1 0.4,-0.9 0.7,-1.6 l 0.6,-1.4 1.4,-0.5 c 5.9,-2.1 16.2,-3.8 27.4,-4.6 1.4,-0.1 3.1,-0.2 3.6,-0.3 1.3,-0.1 12.3,-0.1 13.7,0 0.6,0.1 2.3,0.2 3.7,0.4 1.4,0.2 2.6,0.3 2.8,0.3 0.1,0 0.2,0.1 0.1,0.2 -0.3,0.3 -3,1.7 -3.2,1.7 -0.2,0 -1.7,-0.1 -3.4,-0.3 -2.5,-0.3 -4,-0.3 -8,-0.2 -2.7,0.1 -5.2,0.2 -5.6,0.2 -0.4,0 -1.7,0.1 -2.8,0.2 -6.6,0.4 -14.6,1.7 -21,3.4 -0.9,0.3 -2.3,0.6 -3,0.8 -0.7,0.2 -2.4,0.7 -3.8,1.2 -2.6,0.9 -3.2,1 -3,0.6 z m 1.2,0.8 c 0.4,-0.9 13.8,-4.3 21.4,-5.4 1.4,-0.2 2.8,-0.4 2.9,-0.5 0.2,-0.1 1.3,-0.1 2.4,-0.2 1.2,-0.1 3.4,-0.2 4.9,-0.3 2.9,-0.2 10.9,-0.3 11,-0.1 0.4,0.4 -1.1,0.5 -5.6,0.5 -5.1,0 -6.3,0.1 -12,0.6 -7.7,0.7 -16.9,2.7 -23.2,4.9 -1,0.4 -1.9,0.7 -1.9,0.7 -0,0 0,-0.1 0.1,-0.2 z m 139.7,-0.1 c -0.2,-0.3 -0.4,-0.4 -0.6,-0.4 -0.3,0.1 -0.4,-0.2 -1.3,-5.1 -1.3,-6.5 -1.7,-7.6 -4.1,-10.1 -1.2,-1.3 -0.9,-1.3 1,0.1 2.9,2 3.7,3.7 5.6,11.7 0.7,3.1 0.8,3.3 0.5,3.8 -0.3,0.5 -0.7,0.5 -1,-0.1 z m -26.9,1.2 c -9.5,-0.5 -15.7,-1 -19.9,-1.5 -0.8,-0.1 -2,-0.2 -2.6,-0.3 -0.7,-0.1 -2.1,-0.2 -3.1,-0.4 l -4.3,-0.6 c -5,-0.8 -13.4,-3.2 -18,-5.2 -0.5,-0.2 -1.5,-0.7 -2.3,-1 -4.9,-2.1 -8.7,-4.4 -8.2,-4.9 0.1,-0.1 2.8,0.8 3.9,1.3 1.5,0.6 12.1,4 14.2,4.6 3,0.8 4.8,1.3 9.8,2.4 3.8,0.9 12.4,2.5 15.7,3 0.5,0.1 2.1,0.3 3.6,0.6 1.5,0.2 3.5,0.5 4.5,0.7 1,0.1 2.6,0.3 3.6,0.5 1,0.1 3.5,0.4 5.6,0.7 6,0.6 6.8,0.8 3.7,0.7 -1.4,-0 -4.2,-0.2 -6.1,-0.3 z M 47.9,114.8 c 0.1,-1.6 0.3,-2.5 0.8,-2.6 0.6,-0.2 0.6,-0.1 0.2,0.8 -0.2,0.4 -0.4,1 -0.4,1.3 0,1 -0.2,2 -0.4,1.9 -0.1,-0.1 -0.2,-0.5 -0.1,-1.4 z m 8,2 c 0.5,-0 1.3,-0 1.7,0 0.4,0 0,0.1 -0.9,0.1 -0.9,0 -1.3,-0 -0.8,-0.1 z m -7.8,4.5 c -0.5,-0.5 -0.6,-1.1 -0.4,-2.6 0.1,-1 0.2,-1.4 0.4,-1.4 0.2,0 0.2,0.1 0.1,0.5 -0.1,0.3 -0.1,1 -0.1,1.6 -0,0.9 0.1,1.2 0.4,1.7 0.5,0.6 0.1,0.9 -0.4,0.3 z m 2.1,1 c 0.1,-0.1 6.1,-0.7 6.8,-0.7 0.1,0 0.1,-0.1 0.1,-0.3 0,-0.3 -0.2,-0.3 -1.5,-0.2 -0.8,0.1 -1.8,0.2 -2.2,0.2 l -2.3,0.2 c -1.7,0.1 -1.9,0.1 -2.4,-0.9 -0.2,-0.4 -0.3,-0.9 -0.2,-1.9 l 0.1,-1.4 5,0 c 2.7,0 5,-0 5.1,-0.1 0.3,-0.2 0.2,-0.6 -0.1,-0.7 -0.2,-0.1 -2.5,-0.2 -5.1,-0.2 l -4.8,-0.1 0.1,-1.3 c 0.1,-1.5 0.4,-2.2 0.9,-2.4 0.4,-0.2 3.1,0 7.1,0.6 1.8,0.2 2,0.2 2,-0.1 0,-0.3 -0.5,-0.4 -3.1,-0.7 -0.9,-0.1 -3,-0.3 -4.5,-0.5 l -2.8,-0.3 -0.4,0.5 c -0.5,0.6 -0.8,2 -0.8,3.3 0,0.7 -0.1,0.9 -0.3,0.9 -0.2,0 -0.3,0.2 -0.3,0.5 0,0.3 0.1,0.5 0.2,0.5 0.1,0 0.2,0.7 0.2,1.8 0,2 0.2,2.7 1.1,3.2 0.5,0.3 1.9,0.4 2.1,0.2 z m -35,3.1 v -6.7 l 0.7,-0.6 c 0.9,-0.8 6.3,-4.3 7.6,-5 2.7,-1.4 8,-2.7 11.3,-2.9 3.7,-0.2 9.6,-0 14.8,0.5 3.4,0.3 6.4,0.6 8.1,0.8 0.7,0.1 2.2,0.2 3.4,0.4 1.2,0.1 3.5,0.4 5.2,0.6 1.7,0.2 3.6,0.4 4.4,0.5 4.4,0.6 7.3,0.8 11.3,0.9 0.1,0 0.2,0.3 0.2,0.7 0.1,0.4 0.2,0.8 0.2,1 0.1,0.3 -1,0.7 -4.4,1.6 -0.9,0.2 -3.5,1 -8.5,2.4 -2.5,0.7 -5.3,1.5 -7.8,2.1 -1.4,0.4 -2.6,0.7 -2.7,0.8 -0.1,0.1 -0.5,0.2 -1,0.3 -0.7,0.1 -3.9,1 -5.6,1.5 -0.4,0.1 -1.4,0.4 -2.3,0.6 -0.9,0.2 -2.3,0.6 -3.1,0.8 -0.8,0.2 -2.1,0.6 -3,0.8 -0.9,0.2 -2.8,0.7 -4.2,1.1 -1.4,0.4 -3.2,0.8 -3.9,1 -0.7,0.2 -1.8,0.4 -2.4,0.6 -0.7,0.2 -1.6,0.3 -2,0.4 -0.4,0.1 -1.9,0.4 -3.2,0.6 -5.2,1.1 -6.7,1.3 -9.8,1.7 -1.8,0.2 -3.2,0.4 -3.3,0.4 -0,-0 -0.1,-3.1 -0.1,-6.8 z m 0.6,8.8 c -0.7,-0.1 -0.7,-0.1 -0.7,-0.8 0.1,-0.7 0.1,-0.7 1.1,-0.8 3,-0.4 5.8,-0.8 8,-1.2 1.3,-0.3 2.7,-0.5 2.9,-0.6 3.2,-0.6 9.8,-2.1 15.2,-3.5 0.9,-0.2 2.6,-0.7 4.5,-1.2 2.6,-0.7 5.3,-1.4 6.3,-1.7 0.4,-0.1 0.9,-0.2 1,-0.3 0.2,-0.1 0.4,-0.1 0.7,-0.2 0.2,-0 1.2,-0.3 2.3,-0.6 1,-0.3 2.9,-0.8 4,-1.1 1.2,-0.3 2.9,-0.8 3.8,-1 2.4,-0.7 7,-1.9 9.3,-2.6 1.1,-0.3 2.3,-0.6 2.6,-0.7 1.1,-0.3 0.7,-0 -0.9,0.7 -1.9,0.9 -12.9,6.4 -16.7,8.4 l -2.8,1.5 -0.8,-0.6 c -1.8,-1.4 -1.5,-1.4 -4.4,-0.2 -1.4,0.6 -3.3,1.4 -4.1,1.7 -5.1,2.2 -12.1,4.1 -17.5,4.7 -4.2,0.5 -11.6,0.6 -13.8,0.3 z m 65,0.8 c 0,-0.5 0.6,-3.5 0.9,-4.4 0.3,-0.9 0.4,-0.9 1.3,-1.3 0.5,-0.2 1,-0.3 1,-0.3 0,0.1 -0.2,0.7 -0.5,1.5 -0.2,0.8 -0.6,2.1 -0.7,2.9 -0.1,0.8 -0.3,1.5 -0.3,1.6 -0.2,0.2 -1.8,0.2 -1.8,-0.1 z m 2.7,-1.7 c 0.5,-2.7 0.8,-3.5 1.6,-3.9 3.4,-1.4 12.4,-3.7 18,-4.6 8.1,-1.2 8.2,-1.2 21.4,-1.5 1,-0 1.7,0 1.7,0.1 -0.1,0.4 -6.9,4.7 -8.3,5.3 -0.4,0.2 -0.9,0.4 -1.1,0.5 -0.4,0.2 -2.9,1.2 -5.5,2.2 -4.1,1.6 -8,2.4 -12.4,2.7 -1.7,0.1 -3.6,0.2 -4.3,0.3 -3.2,0.2 -6.7,0.5 -8.7,0.6 -1.2,0.1 -2.3,0.2 -2.3,0.2 -0.2,0.2 -0.2,-0.2 0.1,-1.8 z m -8.4,0.7 c 4.1,-2 5.7,-2.8 5.8,-2.7 0,0.1 -0.1,0.7 -0.3,1.4 -0.2,0.7 -0.3,1.6 -0.4,1.9 0,0.3 -0,0.6 -0.1,0.6 -0.2,0.1 -6.1,0.5 -7.3,0.5 l -1.4,0 3.6,-1.8 z m -5.5,1.9 c 0,-0.4 10.6,-5.7 11.5,-5.7 0.5,0 -0.1,0.5 -1.8,1.2 -1.1,0.5 -3.6,1.7 -5.6,2.7 -3.3,1.7 -4.1,2 -4.1,1.8 z m 8,-13.1 c -0.7,-0.7 -0.9,-1.3 -0.4,-2.2 0.5,-1 1.9,-1 2.6,0.1 0.3,0.5 0.3,0.7 0.1,1.3 -0.2,0.7 -1,1.4 -1.4,1.4 -0.1,0 -0.5,-0.3 -0.9,-0.6 z m 2.1,0.4 c 0.7,-0.7 0.9,-1.5 0.6,-2.4 -0.2,-0.9 -0.7,-1.3 -1.7,-1.4 -0.6,-0.1 -0.8,-0 -1.4,0.5 -0.5,0.5 -0.6,0.7 -0.7,1.6 -0.1,1 -0.1,1.1 0.6,1.7 0.9,0.9 1.7,0.9 2.5,0.1 z m -21.9,11.3 c -0.2,-0.9 -0.5,-2.5 -0.7,-3.4 -0.2,-0.9 -0.3,-1.8 -0.4,-2 -0,-0.2 0.1,-0.4 0.3,-0.6 1.3,-0.8 17.9,-9.3 18.2,-9.3 0,0 0.8,-0.3 1.6,-0.7 2.6,-1.2 5.6,-2.4 5.7,-2.3 0,0.1 0.2,0.6 0.4,1.2 0.3,1.3 0.3,1.4 -1.1,1.8 -1,0.3 -1.5,1 -1.2,1.6 0.3,0.7 1,0.8 2,0.3 0.5,-0.2 0.9,-0.4 1,-0.4 0.1,0.2 0.9,3.8 0.9,3.8 -0,0 -1,0.4 -2,0.8 -4.2,1.5 -6.7,2.5 -11.1,4.6 -2,0.9 -10.4,5.1 -11.7,5.8 -0.7,0.4 -1.4,0.7 -1.4,0.6 -0.1,-0.1 -0.3,-0.9 -0.5,-1.8 z m -1,2.9 c -0.1,-0.2 -0.4,-1.8 -0.9,-3.4 -0.5,-2 -0.8,-3.6 -0.9,-4.7 l -0.1,-1.7 0.7,0.6 c 0.5,0.5 0.7,0.8 0.8,1.6 0.1,0.5 0.2,1.5 0.4,2.1 1.1,4.8 1.1,4.9 0.8,5.4 -0.4,0.6 -0.6,0.6 -0.7,0.1 z m -34.4,16.1 -0.6,-0.5 -3.3,0.1 -3.3,0.1 -0.1,-9.2 -0.1,-9.2 h 0.4 c 0.2,0 1.5,0.1 2.9,0.2 2.9,0.2 7.8,-0 11.8,-0.6 2.7,-0.4 3.7,-0.5 6.9,-1.2 3.1,-0.7 7.9,-2.3 10.8,-3.6 3,-1.4 5.8,-2.5 6.1,-2.4 0.3,0.1 0.3,0.3 0.3,0.9 0,1.1 0.5,4.2 0.9,5.9 0.2,0.8 0.5,2 0.7,2.8 l 0.4,1.3 -0.4,0.3 c -0.4,0.3 -5.4,3.3 -9.4,5.7 -1.6,1 -11.2,5.7 -13.3,6.6 -1.2,0.5 -3.2,1.3 -6,2.3 -1.2,0.4 -3.6,1.1 -4,1.1 -0.1,0 -0.5,-0.2 -0.8,-0.5 z m -7.1,1 c 0,-0.1 1.1,-0.2 2.9,-0.2 1.9,0 2.9,0.1 2.8,0.2 -0.1,0.1 -1.3,0.2 -2.9,0.2 -1.7,0 -2.8,-0.1 -2.8,-0.2 z m 6.1,0.2 c 0.2,-0.8 -0.2,-0.9 -2.8,-1 l -2.5,-0 2.3,-0.1 c 2.8,-0.1 3.5,0 3.8,0.6 0.2,0.3 0.2,0.4 -0.1,0.6 -0.5,0.4 -0.8,0.3 -0.7,-0.1 z m -6.3,0.7 c 0,-0.2 0.4,-0.3 3.1,-0.3 3.3,0 3.5,0.1 0.8,0.3 -3.3,0.3 -3.9,0.3 -3.9,-0.1 z m 160.9,-0.5 c -0.5,-2.3 -1.3,-4.9 -2.3,-7.3 -0.5,-1.1 -0.9,-2.1 -1,-2.2 -0.1,-0.1 -0.4,-0.7 -0.7,-1.3 -3.5,-6.7 -11.2,-14.4 -19.4,-19.6 -0.7,-0.4 -1.2,-0.8 -1.2,-0.9 0.1,-0.1 4.4,1.6 6.3,2.6 4.5,2.2 10.4,7.8 13.9,13.3 2.1,3.2 4.1,7.4 5.2,10.9 0.5,1.5 1.5,5.5 1.5,5.9 0,0.1 -0.6,0.3 -1.6,0.3 -0.3,0 -0.4,-0.2 -0.7,-1.7 z m -160.6,1.8 c -0.7,-0.3 -0.1,-0.4 1.9,-0.5 3.5,-0.2 6,-0.6 10.7,-1.6 2.6,-0.6 6.7,-1.8 8,-2.5 0.5,-0.2 1.8,-0.8 1.9,-0.8 0,0 -0,0.2 -0.1,0.5 -0.1,0.3 -0.2,0.7 -0.2,1 0,0.4 -0.1,0.6 -0.3,0.6 -0.1,0 -0.7,0.2 -1.2,0.4 -2.2,0.9 -6.4,2 -11,2.6 -2.3,0.3 -9.2,0.5 -9.9,0.3 z m 213.8,-0.1 c -0.6,-0.2 -0.7,-0.2 -0.7,-0.8 0,-0.3 -0.2,-1.8 -0.5,-3.3 -0.3,-1.5 -0.5,-3.1 -0.6,-3.5 -0.1,-0.4 -0.2,-1.5 -0.4,-2.3 -0.4,-2.6 -1.7,-10.4 -1.9,-11.4 -0.1,-0.3 -0.2,-1.6 -0.4,-2.8 -0.2,-1.2 -0.4,-2.4 -0.4,-2.7 0,-0.4 0.1,-0.4 0.4,-0.2 0.2,0.1 0.7,0.2 1,0.1 l 0.6,-0.1 0.3,2 c 0.2,1.1 0.4,2.3 0.4,2.7 0,0.4 0.2,1.1 0.3,1.7 0.4,2 0.8,4.6 1.1,6.9 0.2,1.3 0.5,3.1 0.6,4 0.2,0.9 0.4,2.6 0.6,3.7 0.2,1.1 0.4,2.6 0.6,3.3 0.1,0.7 0.3,1.7 0.4,2.2 0.1,1 0.2,0.9 -1.4,0.5 z m -1.6,1.3 c -0.2,-0.2 -0.3,-1.2 -1.2,-6.8 -0.4,-2.8 -1.2,-7.4 -1.8,-11.2 -0.3,-1.5 -0.6,-3.7 -0.8,-4.9 -0.7,-4.1 -1.4,-7.9 -2,-11 -0.1,-0.5 -0.3,-1.5 -0.5,-2.3 -1.1,-5.3 -2.6,-7.7 -5.4,-9 -2.9,-1.4 -3.8,-1.8 -5.5,-2.4 l -2.6,-1 c -4.7,-1.7 -15.3,-4.3 -22.8,-5.6 -1.2,-0.2 -2.6,-0.5 -3.1,-0.6 -0.5,-0.1 -3.9,-0.3 -7.7,-0.3 -6.9,-0.1 -10.8,0.1 -14.3,0.6 -2.2,0.3 -2.3,0.3 -2.3,-0.1 0,-0.4 0.1,-0.5 2.5,-0.9 1,-0.2 1.9,-0.3 2.1,-0.4 0.5,-0.2 10.5,-1 13.7,-1.1 1.9,-0.1 4.8,-0 6.5,0.1 3,0.2 9.2,0.9 9.5,1.1 0.1,0.1 1.2,0.3 2.5,0.6 1.3,0.3 2.9,0.6 3.6,0.9 0.7,0.2 1.6,0.5 2,0.6 3.8,1.1 8,2.7 12.5,4.9 2.7,1.3 3.6,1.9 5.3,3.5 2.5,2.5 3.4,4.1 4.1,7.4 0.2,1.2 0.7,3.2 0.9,4.4 0.3,1.2 0.6,2.8 0.7,3.6 0.2,0.7 0.4,2.2 0.6,3.3 0.2,1.1 0.4,2.6 0.6,3.3 0.1,0.7 0.3,1.7 0.4,2.3 0.1,0.5 0.2,1.7 0.4,2.5 0.2,0.9 0.4,2.6 0.6,3.9 0.2,1.2 0.5,3.3 0.7,4.5 0.2,1.2 0.5,3.1 0.7,4.1 0.2,1 0.4,2.7 0.6,3.7 0.2,1 0.4,2 0.4,2.2 0,0.4 -0.4,0.5 -0.7,0.1 z m -57.4,-1.5 c -0.8,-6.6 -2.8,-11.8 -6.8,-17.1 -3.5,-4.7 -9.3,-9.4 -15,-12.1 -4.9,-2.3 -5.4,-2.4 -9.1,-2.4 -3.9,0 -5.1,0.3 -11.1,2.8 -2.6,1.1 -6,2.5 -7.5,3.1 -1.5,0.6 -3,1.2 -3.4,1.4 -0.7,0.3 -2.4,1.1 -4.9,2.1 -4.7,1.9 -11.6,3.6 -15.7,3.9 -0.9,0.1 -2.1,0.1 -2.6,0.2 -0.5,0.1 -1.9,0.1 -3.1,0.2 -1.2,0.1 -3,0.2 -4.1,0.3 -2.1,0.2 -3.7,0.3 -6.2,0.5 -0.9,0.1 -1.8,0.1 -2.1,0.2 -0.3,0.1 -1.3,0.1 -2.3,0.2 -4.3,0.2 -10.7,0.7 -11.1,0.8 -0.3,0.1 -0.5,0 -0.5,-0.1 0,-0.1 0.8,-1 1.7,-1.9 l 1.7,-1.7 3.1,-0.1 c 1.7,-0.1 5.4,-0.3 8.3,-0.5 5.7,-0.4 7.7,-0.5 10.2,-0.7 9.2,-0.5 13.7,-1 17.2,-1.9 2,-0.5 9.9,-3.4 11.9,-4.4 0.2,-0.1 1,-0.4 1.7,-0.7 0.7,-0.3 1.6,-0.6 1.9,-0.7 0.3,-0.1 1.5,-0.6 2.6,-1.1 1.1,-0.4 3.1,-1.2 4.3,-1.7 1.2,-0.5 2.7,-1.1 3.4,-1.3 0.6,-0.2 1.3,-0.5 1.6,-0.6 0.3,-0.1 0.6,-0.3 0.7,-0.3 0.1,0 0.2,-0.1 0.3,-0.2 0.1,-0.3 3.7,-2.1 4,-2 0.1,0.1 1.7,0.4 3.4,0.8 5.8,1.3 5.8,1.3 8.8,3.2 9.7,6 16.8,13.4 21,21.9 0.7,1.5 1.6,3.7 2.1,5 0.8,2.5 1.3,5 1,5.2 -0.1,0.1 -0.7,0.2 -1.4,0.4 -0.7,0.1 -1.8,0.5 -2.4,0.8 l -1.2,0.6 -0.1,-0.6 c -0.1,-0.3 -0.2,-0.9 -0.2,-1.4 z m -1.3,-1.4 c -1.2,-7.6 -6.3,-15.8 -13.5,-22.1 -2.5,-2.2 -7.7,-5 -11.3,-6.2 -4.5,-1.4 -8.4,-0.8 -15.6,2.3 -0.5,0.2 -2.9,1.3 -4.3,1.9 -1,0.4 -7.9,3.2 -9.2,3.7 -0.7,0.3 -1.7,0.7 -2.2,0.9 -1.8,0.7 -6.4,2.3 -6.8,2.3 -0.1,0 -0.2,-0.2 -0.2,-0.4 -0.1,-0.3 0.1,-0.4 1.2,-0.8 2.6,-0.8 6.5,-2.2 9.1,-3.4 0.7,-0.3 1.3,-0.6 1.4,-0.6 0.1,0 0.4,-0.1 0.6,-0.3 0.3,-0.1 1,-0.4 1.5,-0.6 0.6,-0.2 1.4,-0.6 1.8,-0.8 0.4,-0.2 2.3,-1 4.2,-1.8 1.9,-0.8 4.3,-1.8 5.4,-2.3 2.8,-1.2 5.3,-1.7 8.1,-1.7 3.1,0 4.8,0.4 8.3,2.1 5.5,2.6 9.9,5.9 13.9,10.4 3.7,4.2 6.6,9.9 7.6,15.1 0.2,0.8 0.3,1.5 0.4,1.6 0.2,0.3 0.5,4.5 0.4,5 -0.1,0.5 -0.2,0.4 -0.3,-0.8 -0.1,-0.8 -0.3,-2.4 -0.5,-3.7 z m 16.4,9.3 c -0.5,-0.5 -0.7,-1.4 -0.6,-2.9 0,-1.7 0.9,-3.1 1.7,-2.5 0.6,0.5 0.8,1.3 0.9,2.7 0,2.5 -0.9,3.8 -1.9,2.7 z m 1.6,0.4 c 0.5,-0.6 0.9,-1.7 0.9,-2.9 0,-1.5 -0.3,-2.4 -0.9,-3.2 l -0.5,-0.6 1,0.4 c 0.6,0.2 1.3,0.5 1.7,0.6 1.8,0.7 3.2,1.7 3.2,2.5 0,0.9 -0.9,1.6 -4,2.9 -1.4,0.6 -1.8,0.6 -1.4,0.1 z m -15.5,-1.1 c -0.9,-0.9 -1.1,-1.8 -0.6,-2.9 0.5,-1.1 1,-1.5 2,-1.6 1.5,-0.2 2.8,0.5 3.4,1.7 0.9,1.7 -0.8,3.5 -3.1,3.5 -0.9,0 -1.1,-0.1 -1.7,-0.7 z m 3.1,1.1 c 0.9,-0.2 2,-1.4 2.3,-2.3 0.4,-1.5 -0.7,-3.2 -2.5,-3.7 -1.3,-0.3 -1.8,-0.3 -2.7,0.2 -2.8,1.6 -1.6,6 1.6,5.9 0.4,-0 1,-0.1 1.3,-0.2 z m 0.1,1.2 c -2.9,-0.5 -4.7,-1.9 -4.7,-3.6 0,-0.3 -0.1,-0.5 -0.3,-0.5 -0.3,0 -0.3,-0 0,-0.3 0.2,-0.1 0.3,-0.4 0.3,-0.7 0,-0.9 1.1,-2.2 2.3,-2.7 0.4,-0.2 1.4,-0.5 2.3,-0.7 2.3,-0.6 6.6,-0.6 9.3,0 1,0.2 1.9,0.5 1.9,0.5 0,0 -0.2,0.3 -0.5,0.5 -0.9,0.8 -1.3,2.8 -0.8,4.7 0.3,1.1 0.8,1.8 1.5,1.8 1.4,0 -1.2,0.7 -3.9,1 -2.2,0.3 -5.2,0.2 -7.3,-0.2 z m -159.4,2.1 c 0.1,-0.3 1,-0.3 3.6,-0 l 1.9,0.2 -1.9,0.1 c -2.4,0.1 -3.7,0 -3.6,-0.3 z m 0.1,0.9 c 0,-0.2 0.4,-0.3 2.8,-0.3 1.5,0 2.8,0.1 2.9,0.1 0.5,0.3 -0.4,0.4 -2.9,0.4 -2.4,0 -2.8,-0.1 -2.8,-0.3 z m 18.8,-0.6 c -2.8,-0.8 -3.9,-1 -5.3,-1.3 -3.8,-0.7 -6,-0.9 -9.7,-0.9 l -3.9,-0 0,-4.4 0,-4.4 3,-0 c 6.8,-0.1 11.4,-0.7 16.9,-2.6 l 2.5,-0.8 v 15.7 l -1.2,-0.5 c -0.7,-0.3 -1.7,-0.6 -2.3,-0.8 z m -17.1,1.3 c 0.2,-0.1 0.5,-0.1 0.7,0 0.2,0.1 0,0.1 -0.3,0.1 -0.4,0 -0.5,-0 -0.3,-0.1 z m 2.7,-0 c 0.7,-0 1.4,-0.2 1.5,-0.3 0.3,-0.3 0.3,-0.8 0,-1 -0.1,-0 -0.1,-0.1 0.2,-0.1 0.5,-0 1.1,0.4 0.9,0.8 -0.2,0.5 -0.9,0.7 -2.4,0.7 l -1.5,-0 1.3,-0.1 z m 16.4,1.7 c -4.9,-2 -13.1,-3.8 -18.6,-4.1 -1.2,-0.1 -2.2,-0.2 -2.2,-0.3 0,-0.5 5.7,-0.5 9,-0.1 5,0.6 6.8,1 10.9,2.4 l 2.4,0.8 v 0.6 c 0,0.3 0.1,0.8 0.2,1 0.2,0.3 0.2,0.4 -0.2,0.2 -0.2,-0.1 -0.9,-0.3 -1.5,-0.6 z m 19.6,7.2 c -3.2,-1.2 -4.8,-1.8 -7.9,-2.9 -3.1,-1.1 -3.7,-1.3 -6.2,-2.3 -2.4,-0.9 -2.7,-1.1 -3.1,-1.8 -0.4,-0.6 -0.4,-1 -0.4,-9.9 0,-8.9 0,-9.3 0.4,-9.9 0.5,-0.8 1,-1 6,-2.9 2.3,-0.8 5.1,-1.9 6.2,-2.3 1.1,-0.4 2.4,-0.9 3,-1.1 0.6,-0.2 1.8,-0.6 2.8,-1 1.9,-0.7 2.2,-0.8 2.3,-0.4 0,0.1 -0.1,1.4 -0.3,2.8 -0.2,1.4 -0.4,3.6 -0.5,4.9 -0.1,1.3 -0.2,2.4 -0.2,2.4 -0,0.1 -0.1,2 -0.2,4.2 -0.2,5.1 0.2,13 0.8,17.5 0.1,1.2 0.3,2.5 0.3,2.9 0,0.7 -0,0.7 -0.5,0.6 -0.3,-0.1 -1.4,-0.4 -2.6,-0.9 z m 17.1,4.4 c -2,-0.1 -4,-0.3 -4.5,-0.4 -0.5,-0.1 -1.7,-0.1 -2.6,-0.2 -1.8,-0.1 -1.7,-0.1 -2.3,-1.9 -0.2,-0.7 -1.1,-4.8 -1.3,-6.4 -0.9,-6.4 -0.9,-19.4 0.1,-25.4 0.8,-4.8 1.6,-7.8 2.1,-7.8 0.5,0 10.3,-0.7 11.3,-0.9 1.4,-0.1 1.3,-0.2 1,2 -1.2,7 -1.6,17.1 -1.2,26.2 0.1,3.3 0.8,10.2 1.1,12.2 0.3,1.8 0.3,2.7 0.1,2.7 -0.1,0 -1.9,-0.1 -3.8,-0.3 z m 30.7,2.8 c -0.8,-0.2 -2,-0.4 -2.7,-0.6 -1.4,-0.3 -3.4,-0.5 -8.5,-0.8 -1.7,-0.1 -4,-0.3 -5.2,-0.4 -1.2,-0.1 -2.8,-0.2 -3.7,-0.3 -2.9,-0.2 -5.8,-0.5 -5.8,-0.5 -0.2,-0.2 -0.9,-4.4 -1.1,-7.3 -0.2,-1.9 -0.4,-4.5 -0.5,-5.7 -0.1,-1.2 -0.2,-5.1 -0.2,-8.5 0,-5.4 0.1,-7.1 0.5,-11.8 0.5,-6 0.7,-7.5 1.1,-8.9 l 0.2,-0.9 2.4,-0.1 c 2.3,-0.1 3.5,-0.2 11.1,-0.8 1.9,-0.1 4.4,-0.3 5.6,-0.4 1.5,-0.1 3.2,-0.3 5.1,-0.8 1.6,-0.4 3,-0.6 3,-0.5 0.1,0.1 0.4,1.2 0.6,2.5 2.1,10.5 2.4,27 0.7,39.6 -0.3,2.1 -1.2,6.6 -1.3,6.6 -0.1,0 -0.7,-0.1 -1.5,-0.3 z m -24.2,5.7 c -0.8,-0.4 -2.9,-1.4 -4.7,-2.3 l -3.3,-1.6 2.4,0.1 c 1.3,0.1 2.7,0.2 2.9,0.2 0.3,0 1.1,0.1 1.9,0.1 1,0 1.5,0.1 1.5,0.2 0,0.1 0.2,1 0.4,1.9 0.2,0.9 0.4,1.8 0.4,1.9 0.1,0.2 0,0.3 -0.1,0.2 z m -0.3,1 c -1.5,-0.5 -9.5,-4.6 -9.5,-4.9 -0,-0.3 0.4,-0.1 4.4,1.9 2.3,1.1 4.8,2.3 5.6,2.7 0.9,0.4 1.5,0.8 1.5,1 0,0.2 -0.1,0.2 -0.7,-0.1 -0.4,-0.2 -1,-0.5 -1.5,-0.6 z m 145.5,-0.4 0.5,-3 c 0.1,-0.9 0.4,-2.5 0.6,-3.4 0.3,-1.8 0.9,-5.5 1.7,-10.3 0.2,-1.6 0.6,-3.8 0.8,-5 0.2,-1.2 0.4,-2.4 0.4,-2.8 0,-0.5 0.1,-0.6 0.8,-0.8 1.1,-0.3 1.4,-0.3 1.3,0.1 -0.1,0.2 -0.1,0.7 -0.2,1.2 -0.1,0.5 -0.2,1.6 -0.4,2.5 -0.2,0.9 -0.5,2.7 -0.7,4.1 -0.2,1.3 -0.4,2.9 -0.6,3.5 -0.3,1.9 -1.5,9.3 -1.7,10.5 -0.1,0.7 -0.3,2 -0.5,2.9 -0.2,0.9 -0.3,1.8 -0.3,1.9 -0,0.2 -0.2,0.2 -0.6,0.1 -0.3,-0.1 -0.8,-0 -1,0.1 -0.5,0.3 -0.5,-0 -0.3,-1.7 z m -141.9,1.8 c -0.7,-0.3 -0.9,-1 -1.5,-3.9 -0.4,-2 -0.4,-1.9 0.6,-1.8 l 0.9,0.1 0.1,0.9 c 0.2,1.3 0.7,3.4 1,4.3 0.1,0.4 0.3,0.8 0.3,0.8 0,0.1 -0.5,-0 -1.4,-0.4 z m -27.6,0.2 c 0.1,-0.9 0.4,-2.9 0.9,-4.6 0.4,-1.7 0.8,-3.2 0.9,-3.4 0.1,-0.5 0.4,-0.5 0.8,0.2 0.2,0.4 0.1,0.9 -0.3,3.2 -0.3,1.5 -0.7,3.2 -0.8,3.9 -0.2,0.9 -0.3,1.4 -0.8,1.8 -0.3,0.3 -0.6,0.6 -0.7,0.6 -0,0 -0,-0.7 0,-1.6 z m -3.2,1.6 c -1.1,-0.5 -3,-1.3 -4.3,-1.8 -8.5,-3.7 -17.9,-5.5 -27.8,-5.2 -2.2,0.1 -4,0.1 -4.2,0.2 -0.2,0.1 -0.3,-1.1 -0.3,-9.2 v -9.3 l 0.7,0 c 5.7,0.2 5.7,0.2 6.4,-0.4 0.6,-0.5 0.7,-0.5 1.5,-0.3 1.9,0.4 6.8,2.1 8.5,2.9 0.5,0.2 1.2,0.5 1.4,0.6 1,0.3 9.2,4.5 12.8,6.4 3.9,2.2 9.7,5.6 9.8,5.8 0.1,0.1 -0,0.5 -0.8,3.5 -0.6,2.1 -0.9,4.1 -1.1,5.8 -0.1,1.3 -0.3,1.8 -0.6,1.8 -0,0 -1,-0.4 -2.1,-0.8 z m 86.3,1.2 c -3.1,-0.4 -5.2,-1.1 -8.9,-2.7 -0.5,-0.2 -2.3,-1 -3.9,-1.7 l -4.2,-1.8 c -0.7,-0.3 -2,-0.8 -3,-1.2 -1,-0.4 -2.1,-0.9 -2.6,-1.1 -0.8,-0.4 -1.9,-0.8 -6.4,-2.3 -1.6,-0.6 -2.9,-1 -3,-1.1 -0,-0 0.1,-0.6 0.2,-1.2 0.5,-1.8 1.3,-8.5 1.5,-12.7 0.2,-3.3 0.1,-16.6 -0.1,-20 -0.3,-3.5 -1.2,-11 -1.5,-11.9 -0.1,-0.3 -0.2,-0.7 -0.1,-0.7 0.1,-0.1 1.6,-0.6 3.5,-1.3 3.9,-1.4 5.8,-2.1 6.6,-2.4 0.3,-0.1 0.9,-0.4 1.3,-0.5 0.9,-0.3 4,-1.6 4.5,-1.8 0.2,-0.1 1.6,-0.7 3.2,-1.4 1.6,-0.7 3.9,-1.7 5.2,-2.3 2.3,-1 3.3,-1.4 4.4,-1.6 0.3,-0.1 0.8,-0.2 1.1,-0.2 0.4,-0.1 1.5,-0.3 2.5,-0.4 1.6,-0.2 2,-0.2 3.6,0.2 2.7,0.6 5.7,1.9 8.9,3.8 0.7,0.4 1.6,0.9 1.9,1.1 1.8,1 6.2,5.3 8.8,8.6 3.3,4.1 6,10 6.9,14.8 0.4,2.2 0.6,8.9 0.3,11.3 -0.3,2.7 -0.3,2.8 -1,4.9 -1.3,4.5 -3.2,8.1 -6.4,12.3 -1.2,1.5 -5.4,5.9 -6.8,7.1 -2.1,1.7 -7.8,4.7 -10.6,5.5 -2.6,0.8 -3.6,0.9 -5.8,0.6 z m -55.6,0.7 c -4.2,-1.6 -8.9,-3.6 -12.4,-5.2 -2.4,-1.1 -8.8,-4.4 -10,-5.1 -0.6,-0.3 -1.2,-0.7 -1.4,-0.8 -0.2,-0.1 -0.5,-0.4 -0.6,-0.6 -0.1,-0.2 -0.7,-0.7 -1.4,-1.1 -0.7,-0.4 -2.8,-1.6 -4.7,-2.7 -5.7,-3.4 -13.9,-7.8 -17.8,-9.4 -4.5,-1.9 -7.3,-2.9 -9.4,-3.4 -1.7,-0.4 -1.8,-0.5 -1.6,-0.7 0.1,-0.1 1,-0 2.4,0.3 l 3.5,0.8 c 1.4,0.3 5.5,1.7 8.4,2.8 2.3,0.9 3,1.1 4.5,1.7 1.2,0.4 3.8,1.4 7,2.6 0.8,0.3 1.8,0.7 2.3,0.8 0.7,0.2 4.4,1.6 6.1,2.3 0.4,0.1 0.9,0.3 1.3,0.3 1,0 1.1,-0.3 0.6,-3.9 -1.2,-9.7 -1.2,-19.5 0.1,-29.7 0.3,-2.5 0.3,-3 -0.3,-3.2 -0.5,-0.2 -1,-0.1 -2.1,0.4 -0.5,0.2 -1.2,0.5 -1.6,0.6 -0.6,0.2 -5,1.8 -5.6,2 -0.2,0.1 -0.4,0.1 -0.5,0.2 -0.1,0 -0.7,0.2 -1.2,0.5 -0.6,0.2 -1.4,0.5 -1.8,0.7 -0.4,0.1 -1.9,0.7 -3.3,1.2 -1.4,0.5 -2.8,1.1 -3.2,1.2 -0.4,0.1 -1.8,0.6 -3.2,1.2 -4.1,1.6 -7.9,2.7 -11.5,3.3 -1.1,0.2 -2,0.3 -2.1,0.3 -0.2,-0.2 0.1,-0.3 3.5,-1.2 0.7,-0.2 1.5,-0.4 1.7,-0.5 0.2,-0.1 1.4,-0.6 2.6,-1 1.2,-0.5 2.8,-1.1 3.6,-1.4 2.9,-1.3 7.8,-3.7 9.7,-4.8 1.1,-0.6 2.5,-1.4 3.2,-1.7 1.4,-0.7 2.1,-1.2 6,-3.5 1.5,-0.9 3.1,-1.9 3.7,-2.1 0.5,-0.3 1,-0.7 1.1,-0.9 0.3,-0.7 9.6,-5.5 16.6,-8.5 3.5,-1.5 9.4,-3.8 9.8,-3.8 0.2,0 -1,3 -1.3,3.3 -0.1,0.1 -1.2,0.6 -2.5,1.1 -2.3,0.9 -4.2,1.7 -5.3,2.3 -7.3,3.8 -9.5,5.4 -11.4,8.5 -1,1.6 -1.8,5.1 -2.5,10.6 -0.5,4.1 -0.5,16.9 0,21.2 0.9,7.6 1.8,10.4 4.3,13 0.8,0.8 3.3,2.9 3.6,2.9 0.1,0 0.6,0.3 1.1,0.6 1.6,1 4.4,2.4 7.3,3.7 2.7,1.2 3.1,1.4 4.7,2 0.7,0.3 0.9,0.5 1,0.8 0.1,0.3 0.4,1 0.6,1.6 0.6,1.4 0.6,1.4 -1.6,0.6 z m 53.7,0.3 c -2.3,-0.4 -4.1,-1 -7.1,-2.3 -0.5,-0.2 -3,-1.3 -4.3,-1.8 -0.6,-0.3 -1.3,-0.5 -1.5,-0.6 -0.2,-0.1 -1.5,-0.6 -2.9,-1.2 -1.4,-0.6 -2.9,-1.2 -3.4,-1.4 -4.6,-2 -8.3,-3.4 -10.1,-3.8 -0.8,-0.2 -1,-0.3 -1,-0.7 0,-0.2 0.1,-0.4 0.2,-0.4 0.5,0 8.3,2.8 10.8,3.9 0.3,0.1 1.7,0.7 3.1,1.3 3.2,1.3 5.1,2.1 6,2.5 7.2,3.3 9.7,4 13.7,4 2.5,0 2.7,-0 4.4,-0.6 3.7,-1.3 8.9,-4.1 11.3,-6.2 5.3,-4.6 9.6,-10.3 11.8,-15.9 0.5,-1.3 1.5,-4.6 1.6,-5.4 0.1,-0.4 0.2,-1.2 0.3,-1.7 0.1,-0.5 0.2,-1.6 0.3,-2.4 0.1,-1 0.2,-1.4 0.3,-1.2 0.3,0.5 -0.2,4.6 -0.9,7.3 -1.2,4.8 -3.1,8.8 -6,12.6 -2.3,3 -6.2,6.7 -9.4,8.9 -3,2 -7.9,4.4 -10.1,5 -0.5,0.1 -1.1,0.3 -1.4,0.3 -0.9,0.3 -4.1,0.2 -5.8,-0.1 z m 15.1,1.9 c 0,-0 0.8,-0.6 1.8,-1.2 12.1,-7.8 20.6,-18.7 22.8,-29.6 l 0.4,-2.1 1,0.1 c 0.5,0.1 1,0.1 1,0.1 0.1,0.1 -0.7,3.8 -1.3,5.6 -2.4,7.7 -6.9,14.6 -12.8,19.9 -3.5,3.1 -5.8,4.6 -9.9,6.2 -1,0.4 -2,0.8 -2.3,0.9 -0.4,0.2 -0.7,0.2 -0.7,0.1 z m -36.3,0.2 c -0.4,-0.1 -2.6,-0.3 -4.9,-0.5 -2.3,-0.2 -4.8,-0.5 -5.5,-0.7 -0.8,-0.1 -2.5,-0.4 -3.8,-0.7 -1.3,-0.2 -2.8,-0.5 -3.3,-0.7 -0.5,-0.1 -1.4,-0.4 -2.1,-0.5 -0.6,-0.1 -1.8,-0.4 -2.7,-0.7 -0.9,-0.2 -1.8,-0.5 -2,-0.5 -0.7,-0.1 -3.3,-1 -4.8,-1.6 -1.2,-0.5 -1.3,-0.6 -1.6,-1.4 -0.4,-1.1 -1,-4.2 -0.8,-4.4 0.1,-0.1 0.2,-0.1 0.2,-0.1 0.1,0.1 9.6,0.7 14.2,1 3.7,0.2 8.2,1 11.3,2 1.2,0.4 7.2,2.7 8.1,3.1 0.2,0.1 0.7,0.3 1.1,0.4 0.7,0.3 4.1,2.3 5.8,3.6 0.6,0.4 1.3,0.9 1.6,1.1 0.3,0.2 0.6,0.5 0.6,0.6 0,0.2 -9.9,0 -11.4,-0.2 z m 11.8,-0.2 c -1.1,-0.8 -2.3,-1.7 -2.7,-1.9 -0.4,-0.3 -0.9,-0.7 -1.3,-0.9 -1.2,-0.7 -0.5,-0.6 1.8,0.4 1.3,0.5 3.1,1.3 4,1.6 2,0.8 3.3,1.3 4.1,1.7 l 0.7,0.3 -0.9,0.1 c -0.5,0.1 -1.5,0.1 -2.3,0.1 l -1.3,0 -2,-1.4 z m -9.4,1.4 c -0.4,-0.1 -1.3,-0.1 -2.1,-0.2 -5.4,-0.4 -7.4,-0.6 -10.7,-1.1 -2.1,-0.3 -4.5,-0.8 -5.4,-1 -0.9,-0.2 -2,-0.4 -2.3,-0.5 -0.4,-0.1 -1.6,-0.4 -2.7,-0.7 -5.5,-1.5 -9,-2.6 -9.1,-2.9 -0,-0.1 0.8,0.1 1.8,0.4 3.2,1.1 9.1,2.7 12.5,3.3 3.6,0.6 6.1,1.1 7.1,1.2 0.6,0.1 1.7,0.2 2.4,0.3 3.5,0.5 8.6,0.8 13.2,0.8 4.8,0 5.9,0.1 5.6,0.6 -0.1,0.2 -8.7,0.1 -10.3,-0.1 z m 19.8,1 c -0.5,-0.3 -0.9,-0.5 -1,-0.5 -0.1,0 -0.4,-0.2 -0.8,-0.5 -0.4,-0.3 -1.3,-0.7 -2,-1 -2.7,-1 -8.5,-3.3 -9.3,-3.7 -0.5,-0.2 -2.5,-1 -4.5,-1.8 -2,-0.8 -3.8,-1.5 -4,-1.6 -0.6,-0.3 -4.6,-1.8 -6,-2.3 -2.5,-0.9 -6.6,-1.7 -9.6,-1.9 -1,-0.1 -2.3,-0.1 -2.7,-0.2 -1.9,-0.1 -12.2,-0.8 -13.6,-0.9 -0.8,-0.1 -4.6,-0.3 -8.5,-0.5 l -6.9,-0.4 -1.8,-1.8 c -1.4,-1.3 -1.7,-1.8 -1.5,-1.9 0.1,-0.1 0.3,-0.1 0.4,-0.1 0.1,0 1.5,0.2 3.2,0.3 6.1,0.4 10.8,0.8 11.6,0.9 0.8,0.1 4.6,0.3 8.5,0.6 0.9,0.1 2.5,0.2 3.4,0.3 0.9,0.1 2.6,0.2 3.8,0.3 2.8,0.1 4.5,0.4 7.2,1 4.6,1.1 6.8,1.8 10.4,3.3 1.4,0.6 3.4,1.4 4.5,1.9 5.5,2.3 9.8,4.1 11.2,4.7 4.6,2 6.4,2.4 10.5,2.4 2.5,-0 3.9,-0.3 5.9,-1 9.2,-3.6 17.3,-10.8 21.3,-18.7 1.8,-3.6 2.8,-6.9 3.4,-10.9 0.2,-1.5 0.4,-2.8 0.4,-2.9 0,-0.1 0.4,0.1 0.9,0.4 0.9,0.6 2.8,1.1 3.9,1.1 h 0.5 l -0.1,1.2 c -0.4,4 -3,10 -6.2,14.7 -0.7,1 -1.3,1.9 -1.4,1.9 -0.1,0.1 -0.6,0.7 -1.2,1.5 -1.4,1.8 -5.4,5.8 -7.3,7.3 -0.8,0.7 -1.5,1.3 -1.6,1.3 -0.2,0.2 -4.7,3.4 -6.2,4.3 -2.9,1.8 -3.1,1.9 -7.9,3 -5.1,1.2 -4.8,1.2 -6.6,0.1 z M 12.2,203 c -1,-0.1 -3,-0.3 -4.6,-0.4 -1.5,-0.1 -2.9,-0.2 -2.9,-0.2 -0.2,-0.2 -0.3,-23.7 -0.3,-50.1 0,-15 0.1,-27.5 0.1,-27.8 0,-0.3 0.1,-1.2 0.1,-2 l 0,-1.5 h 1.5 c 2.4,-0 6.7,-0.4 7.7,-0.7 l 0.5,-0.2 0.1,41.7 c 0,37 0,41.7 -0.2,41.6 -0.2,-0.1 -1.1,-0.2 -2.1,-0.4 z m -4,0.7 c -1.3,-0.1 -2.5,-0.3 -2.6,-0.4 -0.2,-0.2 1.9,-0.2 4.8,0.1 1.2,0.1 2.4,0.3 2.6,0.3 0.4,0 0.4,0 -0.1,0.2 -0.6,0.1 -1.1,0.1 -4.7,-0.2 z m 106.8,0.2 c -1.8,-0.1 -2.8,-0.2 -8.4,-0.8 -8.2,-0.9 -15.4,-2.3 -20.6,-4.1 -0.8,-0.3 -0.9,-0.3 -1.5,-1.9 -0.4,-0.9 -0.7,-1.7 -0.7,-1.7 0,-0.1 1.3,0.3 3,0.9 2.9,1 7.2,2.2 8.5,2.4 0.4,0.1 1,0.2 1.5,0.4 0.5,0.1 1.5,0.4 2.3,0.5 0.8,0.1 2.6,0.5 3.9,0.7 2.8,0.5 2.9,0.5 7.6,1 7.4,0.8 20.3,0.9 23.3,0.2 0.6,-0.1 0.9,-0 2.2,0.7 0.9,0.5 1.6,0.9 1.6,1 0,0.1 -2.8,0.6 -4.9,0.7 -2.1,0.2 -15.6,0.2 -17.8,-0 z m -32.7,0 c -1.1,-0.5 -1.3,-0.7 -1.2,-1 0.2,-0.4 0.5,-0.4 1.5,0.1 0.6,0.3 0.8,0.5 0.8,0.8 0,0.6 -0.1,0.6 -1.2,0.1 z m 57.3,0.1 c -0.3,-0.4 -0.1,-0.6 1.2,-0.8 2.2,-0.4 6.8,-1.6 8.2,-2 0.8,-0.2 1.4,-0.4 1.5,-0.4 0.1,0 -0.1,0.2 -0.4,0.3 -1.7,0.7 -2.6,1.1 -4.9,2.2 -1.4,0.7 -3.1,1.6 -3.9,2 l -1.3,0.7 -0.1,-0.8 c -0.1,-0.5 -0.2,-1 -0.3,-1.1 z m -63.8,1.6 c -0.8,-0.2 -2.2,-0.6 -3,-0.9 -0.9,-0.3 -2.2,-0.6 -2.9,-0.8 -2.1,-0.5 -4.6,-1.2 -6.3,-1.7 -0.9,-0.3 -2.7,-0.8 -4.1,-1.2 -1.4,-0.4 -3.1,-0.8 -3.8,-1 -0.7,-0.2 -2.4,-0.7 -3.8,-1 -1.4,-0.4 -3.3,-0.9 -4.2,-1.2 -0.9,-0.3 -2.3,-0.6 -3,-0.8 -2.5,-0.7 -4.9,-1.3 -5.9,-1.6 -0.6,-0.2 -1.4,-0.4 -1.8,-0.5 -0.4,-0.1 -1.3,-0.3 -2,-0.5 -0.7,-0.2 -2.1,-0.5 -3.2,-0.7 -1.1,-0.2 -2.2,-0.5 -2.5,-0.6 -0.3,-0.1 -1.6,-0.3 -2.8,-0.6 -1.2,-0.2 -3.1,-0.6 -4.2,-0.8 -1.1,-0.2 -2.8,-0.5 -3.8,-0.6 -1,-0.1 -2,-0.2 -2.3,-0.3 -0.3,-0 -0.6,-0.1 -0.8,-0.1 -0.4,-0 -0.5,-1.2 -0,-1.5 0.4,-0.3 10.1,-0.3 12.6,-0 5.3,0.7 9.7,1.6 13.5,2.8 1.8,0.6 2.2,0.7 5.2,2 7.1,3 7.2,3 7.6,2.8 0.2,-0.1 0.8,-0.5 1.3,-0.9 l 0.9,-0.7 2.3,1.2 c 4.9,2.6 6.9,3.6 10.5,5.4 4.6,2.3 7.6,3.8 7.8,3.8 0.1,0 0.3,0.1 0.5,0.3 0.3,0.3 0.3,0.3 0,0.2 -0.2,-0.1 -1,-0.3 -1.8,-0.5 z m 5.1,1.2 c -0.3,-0.1 -1.2,-0.5 -2,-0.9 -2.1,-0.9 -4,-1.8 -10.2,-4.9 -4.3,-2.1 -11.8,-6 -12.1,-6.2 -0,-0 0.4,-2.6 0.7,-4.3 0.1,-0.6 0.7,-3 0.8,-3.3 0.1,-0.2 0.5,0 1.4,0.5 6.5,3.6 15.3,7.6 22.1,10.2 1.4,0.5 2.6,1 2.7,1.1 0.2,0.2 -0.7,3.8 -0.9,3.8 -0.1,0 -0.6,-0.2 -1,-0.4 -1,-0.5 -1.6,-0.4 -1.9,0.3 -0.3,0.7 -0.1,0.9 1.3,1.6 1,0.5 1.3,0.7 1.2,0.9 -0,0.2 -0.1,0.6 -0.2,1 -0.1,0.4 -0.2,0.8 -0.3,1 -0.2,0.3 -0.5,0.3 -1.8,-0.3 z m 58.5,0.6 c 0,-0.6 1.2,-1.4 5.6,-3.6 7.3,-3.6 14.4,-5.9 22.8,-7.4 2.6,-0.5 9.9,-1.3 14.9,-1.8 l 3.4,-0.3 c 2,-0.2 3.1,-0.2 7.2,-0.5 8.6,-0.5 15.8,-0.8 12.9,-0.5 -0.9,0.1 -2.3,0.2 -3.1,0.3 -1.6,0.1 -3.3,0.3 -6.7,0.8 -1.2,0.2 -2.9,0.4 -3.9,0.5 -0.9,0.1 -2.5,0.3 -3.5,0.5 -1,0.2 -2.6,0.4 -3.7,0.6 -5.6,0.8 -13.4,2.3 -20.1,3.9 -0.9,0.2 -2.4,0.6 -3.2,0.7 -0.8,0.2 -2.1,0.5 -2.8,0.7 l -3.7,1.1 c -1.9,0.5 -9.7,3.1 -11.2,3.6 -1.4,0.5 -4.8,1.7 -4.9,1.7 -0.1,0 -0.1,-0.1 -0.1,-0.2 z m -1.7,0.5 c 0.6,-0.4 1.1,-0.6 1.1,-0.4 0.1,0.3 -0.2,0.5 -1,0.8 -1.2,0.4 -1.2,0.3 -0.1,-0.4 z m 17.4,1.5 c -0.1,-0.2 -0.1,-0.6 -0.1,-1.1 -0,-0.9 -0.4,-2.2 -0.7,-2.3 -0.3,-0.1 -0.2,-0.4 0.2,-0.4 0.7,0 1,0.8 1.2,3.2 0.1,0.7 0,0.9 -0.2,0.9 -0.1,0 -0.3,-0.1 -0.4,-0.3 z m -0.5,1 c 0.2,-0.2 1.1,-0.3 1,-0.1 -0.1,0.1 -0.3,0.2 -0.6,0.2 -0.3,0 -0.5,-0 -0.4,-0.1 z m 1.9,-0.1 c 0,-0.1 0.1,-0.2 0.2,-0.2 0.1,0 0.1,0.1 0.1,0.2 -0.1,0.1 -0.2,0.2 -0.2,0.2 -0.1,0 -0.1,-0.1 -0.1,-0.2 z m 2.6,-0.3 c 0.3,-0.1 0.8,0.1 0.8,0.3 0,0.1 -0.2,0.1 -0.5,-0 -0.3,-0.1 -0.4,-0.3 -0.3,-0.3 z m -9.8,0.6 c 0.1,-0.1 0.3,-0.1 0.4,0 0.1,0.1 -0.1,0.1 -0.2,0.1 -0.2,-0 -0.3,-0.1 -0.1,-0.1 z m 1.3,-0 c 0.4,-0.1 1.2,-0.1 1.6,0 0.4,0 0.1,0.1 -0.8,0.1 -0.9,0 -1.2,-0 -0.8,-0.1 z m -4.7,0.2 c 0.2,-0 0.7,-0 0.9,0 0.3,0.1 0.1,0.1 -0.4,0.1 -0.5,0 -0.8,-0 -0.5,-0.1 z m -2.8,0.2 c 0.1,-0.1 0.3,-0 0.4,0 0.1,0.1 -0.1,0.1 -0.2,0.1 -0.2,0 -0.3,-0.1 -0.1,-0.1 z m 75.5,-0.5 c 2,-2 3,-4.3 3.8,-8.3 0.9,-5 1.4,-6.9 1.8,-7 0.2,0 0.4,-0.2 0.6,-0.4 0.3,-0.5 0.9,-0.6 1.1,-0.1 0.3,0.7 0.1,1.4 -1.6,8.2 -0.8,3.2 -2.1,5.6 -3.7,6.8 -0.8,0.6 -2.6,1.7 -2.7,1.6 -0,-0 0.3,-0.4 0.7,-0.9 z m -60.1,0.7 c -0.1,-0.4 0.5,-0.6 0.8,-0.4 0.3,0.3 0,0.8 -0.4,0.8 -0.2,-0 -0.4,-0.2 -0.4,-0.4 z m -19.4,0 c 0,-0.4 0.1,-0.5 0.7,-0.6 0.9,-0.2 1.5,0.1 1.5,0.8 0,0.5 -0.2,0.6 -1.4,0.7 -0.7,0.1 -0.8,-0.1 -0.8,-0.8 z m -55.2,0.3 -1,-1 h 3.7 c 3.2,0 6.2,0.1 11.8,0.5 0.9,0.1 2.5,0.1 3.7,0.2 1.1,0.1 2.6,0.1 3.3,0.2 5.6,0.4 8.9,0.7 9,0.7 0,0 -4.5,0 -10.1,-0 -7.4,-0.1 -11.2,0 -13.9,0.2 -5.7,0.4 -5.1,0.5 -6.3,-0.7 z m -56.7,1.2 c 0,-0.1 0.1,-0.2 0.2,-0.2 0.1,0 0.2,0.1 0.2,0.2 0,0.1 -0.1,0.2 -0.2,0.2 -0.1,0 -0.2,-0.1 -0.2,-0.2 z m 129.2,-0.8 -0.1,-1 0.6,-0.1 0.6,-0.1 -0.4,1.2 c -0.2,0.7 -0.5,1.2 -0.5,1.1 -0.1,-0.1 -0.2,-0.6 -0.2,-1.2 z m -108.8,-6.9 c -0.2,-1.5 -0,-2.3 0.5,-2.7 0.5,-0.5 0.7,-0.2 0.2,0.4 -0.3,0.4 -0.3,0.8 -0.3,2.1 0.1,1.9 -0.2,2.1 -0.4,0.3 z m 0.9,1.9 c 0.5,-0 1.3,-0 1.8,0 0.5,0 0.1,0.1 -0.9,0.1 -1,0 -1.4,-0 -0.9,-0.1 z m -0.3,4 c -0.3,-0.8 -0.5,-3.3 -0.3,-3.4 0.3,-0.2 0.3,-0.1 0.5,1.5 0.1,0.9 0.3,1.7 0.5,2 0.3,0.5 0.3,0.5 -0.1,0.5 -0.3,0 -0.5,-0.2 -0.7,-0.6 z m 5.7,0.7 c 4.9,-0.6 4.9,-0.6 4.8,-0.9 -0,-0.1 -0.2,-0.2 -0.4,-0.2 -1.2,0.1 -3.3,0.3 -4.6,0.5 -3.8,0.4 -3.6,0.4 -4.1,0.1 -0.5,-0.4 -0.8,-1.4 -0.8,-2.8 v -0.8 h 3 c 5.4,0 6.8,-0.1 7,-0.4 0.1,-0.2 0.1,-0.4 0.1,-0.5 -0,-0.1 -2,-0.2 -5.1,-0.2 l -5.1,-0.1 -0.1,-1.2 c -0.2,-1.5 -0.1,-2 0.6,-2.6 0.6,-0.6 1,-0.6 4.1,-0.2 3.2,0.4 3.8,0.4 3.9,0.1 0.1,-0.3 -1.3,-0.5 -5.5,-0.9 -2.6,-0.2 -2.8,-0.2 -3.3,-0 -1,0.3 -1.3,1.2 -1.3,3.2 0,1 -0.1,1.8 -0.2,1.8 -0.3,0 -0.4,0.6 -0,0.9 0.3,0.2 0.4,0.7 0.5,1.7 0.1,1.4 0.4,2.2 0.8,2.8 0.4,0.4 1.3,0.4 5.9,-0.2 z m -21.1,1.6 c -3,-0.5 -6.3,-1.4 -8.1,-2.2 -0.5,-0.2 -1,-0.5 -1.1,-0.5 -0.4,0 -7.3,-4.6 -8,-5.3 l -0.4,-0.5 -0,-6.7 -0,-6.7 1.8,0.1 c 1,0.1 2.4,0.2 3.1,0.4 0.7,0.1 2.2,0.4 3.2,0.6 1,0.2 2.6,0.5 3.6,0.7 0.9,0.2 2.5,0.5 3.6,0.7 3.8,0.7 14.9,3.5 20.3,5.2 0.5,0.2 1.2,0.3 1.5,0.4 0.3,0.1 1.2,0.3 2.1,0.6 0.8,0.2 2.1,0.6 2.8,0.8 3.4,0.9 6.4,1.8 8.6,2.4 1.3,0.4 3.2,0.9 4,1.1 0.9,0.2 2.4,0.7 3.4,0.9 1,0.3 2.5,0.7 3.4,0.9 0.9,0.2 2.4,0.7 3.3,0.9 0.9,0.3 1.7,0.5 1.8,0.5 0.3,0.1 0.9,0.2 0.9,0.3 0,0 -0.1,0.5 -0.2,1 l -0.2,0.9 -1.3,0 c -1.6,0 -4,0.2 -7.5,0.6 -7.3,0.9 -11.1,1.3 -12.8,1.4 -1,0.1 -3.9,0.4 -6.5,0.6 -2.5,0.3 -6,0.6 -7.8,0.7 -1.8,0.1 -3.4,0.2 -3.6,0.3 -0.8,0.1 -8.5,-0.1 -9.8,-0.3 z m 104.1,0.9 c -1.1,-0.2 -2.5,-0.5 -3.2,-0.7 -2.3,-0.5 -5.1,-0.8 -7.7,-1 -1.4,-0.1 -3.3,-0.3 -4,-0.4 -0.8,-0.1 -2.3,-0.2 -3.4,-0.3 -1.1,-0.1 -3.2,-0.2 -4.6,-0.4 -2.5,-0.3 -6.4,-0.5 -10.6,-0.7 -1.1,-0.1 -2.4,-0.1 -3,-0.2 -3.7,-0.3 -11.2,-0.6 -14.8,-0.7 -2.7,0 -2.9,-0 -2.9,-0.4 0,-0.2 0.2,-1.4 0.5,-2.6 0.8,-3.5 1.5,-6.3 1.6,-6.9 0.1,-0.3 0.2,-0.6 0.2,-0.7 0.1,-0.1 1.2,0.2 2.6,0.6 1.3,0.4 2.6,0.8 2.8,0.8 0.2,0 1.1,0.3 1.9,0.5 1.8,0.5 4.8,1 8.3,1.5 9.9,1.4 15.1,1.8 23.9,1.8 4.8,0 8,-0.1 10.7,-0.5 l 2.5,-0.3 c 1,-0.1 1.1,-0.1 1.3,0.3 0.4,0.6 0.6,1.6 0.4,1.9 -0.1,0.2 -0.6,0.6 -1.2,0.9 -1.9,1.2 -3.9,2.6 -3.9,2.8 0,0.3 0.6,0.1 2.3,-0.5 0.9,-0.4 1.8,-0.7 1.8,-0.7 0.1,0 0.2,0.9 0.3,1.9 0.1,1.7 0.3,2.9 0.8,4 0.1,0.3 0.1,0.3 -0.2,0.2 -0.2,-0.1 -1.3,-0.3 -2.3,-0.5 z m -100.6,0.8 c -2.8,-0.4 -5.3,-1 -6.9,-1.5 -1.7,-0.6 -1.5,-0.6 1.2,-0.1 0.9,0.2 2.2,0.4 3,0.5 1.8,0.3 8.8,0.3 11.7,-0 1.2,-0.1 4.2,-0.4 6.6,-0.6 2.4,-0.2 5.4,-0.5 6.8,-0.7 1.3,-0.2 3.4,-0.4 4.6,-0.5 2,-0.2 5.7,-0.6 7.3,-0.8 0.4,-0.1 1.3,-0.1 2.1,-0.2 0.8,-0.1 1.9,-0.2 2.4,-0.3 0.6,-0.1 2.4,-0.2 4.1,-0.3 l 3,-0.1 1,1 c 0.5,0.5 1,1 1,1.1 0,0.1 -0.3,0.2 -0.6,0.2 -0.3,0 -1.8,0.1 -3.2,0.2 -1.4,0.1 -4.7,0.3 -7.1,0.5 -2.5,0.2 -5.4,0.4 -6.6,0.5 -1.1,0.1 -3.6,0.3 -5.5,0.4 -1.9,0.1 -6,0.4 -9.1,0.6 -6,0.5 -12.8,0.5 -15.6,0.1 z m 118.4,0.5 c 0,-0.1 0.2,-0.4 0.4,-0.8 0.4,-0.7 0.4,-1 0.1,-3.4 -0,-0.2 0.1,-0.4 0.2,-0.4 0.2,0 0.3,0.3 0.3,1.8 0.1,1.6 0,1.9 -0.3,2.3 -0.3,0.4 -0.7,0.7 -0.7,0.4 z m 58.7,-1 c 3.4,-1.7 3.9,-2 6,-3.3 2.8,-1.7 4.6,-4.4 5.4,-8.4 0.2,-0.8 0.4,-1.9 0.6,-2.5 0.5,-2.1 0.8,-3.6 1,-4.9 0.1,-0.7 0.2,-1.6 0.3,-1.9 0.1,-0.3 0.3,-1.7 0.5,-3 0.2,-1.3 0.5,-3.2 0.7,-4.1 0.2,-0.9 0.4,-2.2 0.5,-2.9 0.1,-0.7 0.4,-2.8 0.7,-4.7 0.8,-4.5 1.1,-6.5 1.5,-9.4 0.2,-1.3 0.4,-2.5 0.5,-2.6 0.1,-0.1 0.5,-0.5 1.1,-0.8 1.6,-0.8 3.5,-2.8 3.5,-3.6 0,-0.4 -0.3,-0.3 -0.5,0.2 -0.2,0.6 -1.7,2.2 -2.9,2.9 -1,0.6 -3.5,1.4 -3.7,1.2 -0.2,-0.2 0.3,-1.1 0.8,-1.5 0.8,-0.6 1.2,-1.7 1.2,-3.1 0,-1.4 -0.4,-2.5 -1.3,-3.2 -0.4,-0.3 -0.6,-0.7 -0.6,-1 0,-0.5 0,-0.5 0.8,-0.4 1.9,0.3 5,2.5 5.6,3.8 0.2,0.6 0.6,0.7 0.6,0.3 0,-0.8 -1.9,-2.7 -3.5,-3.6 -1.3,-0.7 -1.2,-0.4 -1.8,-4.6 -0.8,-5.1 -1.3,-8.3 -1.6,-9.9 -0.2,-0.9 -0.4,-2.3 -0.5,-3 -0.1,-0.7 -0.3,-2.1 -0.5,-3 -0.4,-2.3 -1.2,-7.4 -1.4,-9 -0.1,-0.7 -0.3,-1.8 -0.4,-2.4 -0.1,-0.6 -0.5,-1.9 -0.7,-2.9 -1.2,-5 -1.8,-6.6 -3.6,-8.5 -1.1,-1.2 -4.6,-3.3 -9.1,-5.6 -3.1,-1.5 -3.3,-1.7 -0.9,-0.8 0.7,0.3 1.8,0.7 2.3,0.9 0.6,0.2 1.2,0.4 1.4,0.5 0.2,0.1 1.7,0.7 3.2,1.4 1.6,0.7 3.3,1.5 3.8,1.8 1,0.6 2,1.8 2.9,3.1 0.7,1 1.6,3.5 1.8,4.9 0.1,0.6 0.3,1.8 0.5,2.6 0.2,0.8 0.4,2.5 0.6,3.7 0.2,1.2 0.4,2.8 0.6,3.5 0.1,0.7 0.3,1.7 0.4,2.3 0.1,0.5 0.2,1.7 0.4,2.6 0.3,1.9 0.6,3.6 0.7,4.6 0.1,0.4 0.3,1.9 0.6,3.5 0.3,1.5 0.6,3.4 0.7,4 0.1,0.7 0.4,2.8 0.7,4.7 0.6,3.8 1.1,5.2 2.7,7.3 1.5,2.1 1.5,2.9 0.1,4.9 -0.8,1.1 -1.8,3.1 -2.2,4.2 -0.1,0.4 -0.5,2.3 -0.8,4.4 -0.3,2.1 -0.8,5.2 -1.1,7 -0.3,1.8 -0.6,3.6 -0.6,4 -0.1,0.4 -0.3,1.7 -0.5,2.9 -0.2,1.2 -0.6,3.3 -0.8,4.6 -1.7,10.8 -2,12.6 -2.8,14.5 -1.3,3.2 -2.9,4.9 -5.7,6.1 -0.7,0.3 -1.7,0.7 -2.2,1 -0.5,0.2 -1,0.4 -1.1,0.4 -0.1,0 -0.4,0.1 -0.7,0.3 -1,0.5 -6,2.3 -6.3,2.3 -0.1,0 1.2,-0.8 3.1,-1.7 z m -61.6,2.6 c -0.2,0 -0.5,0.1 -0.8,0.3 -0.4,0.3 -0.7,0.3 -1.2,0.1 -0.8,-0.2 -2.6,-0.7 -5.3,-1.4 -1,-0.3 -2.1,-0.5 -2.4,-0.6 -1.2,-0.2 -1.9,-0.7 -2.2,-1.4 -0.5,-1.6 -0.5,-1.5 0.1,-1.5 0.7,0 1.8,-0.3 2,-0.6 0.3,-0.4 0.2,-1.1 -0.2,-1.5 -0.2,-0.3 -0.6,-0.3 -1.4,-0.3 h -1.1 v -1.8 l 2.4,-0.9 c 1.3,-0.5 2.5,-0.9 2.6,-0.9 0.1,0 0.2,0.1 0.3,0.3 0.2,0.2 0.4,0.2 1.4,0 0.7,-0.1 1.7,-0.3 2.3,-0.4 0.6,-0.1 1.9,-0.2 2.9,-0.4 1.1,-0.2 1.9,-0.2 2.2,-0.1 0.6,0.2 1,1 1.1,2.5 l 0.1,1.3 -0.6,0.1 c -0.3,0.1 -2.6,0.2 -5,0.3 -6.6,0.3 -7,0.4 -6.7,1 0.1,0.3 0.4,0.3 2.8,0.2 1.5,-0.1 4.2,-0.2 6.2,-0.2 l 3.5,-0.1 0.1,1.4 c 0.1,1.5 -0,2.3 -0.6,2.8 -0.3,0.2 -0.6,0.3 -1.8,0.2 -0.8,-0.1 -1.8,-0.1 -2.1,-0.2 -0.3,-0.1 -1.3,-0.1 -2.2,-0.1 -1.3,-0 -1.6,0 -1.6,0.2 0,0.2 0.7,0.3 4,0.5 2.9,0.2 4.2,0.2 4.6,0.1 0.6,-0.2 0.7,0 0.3,0.7 -0.1,0.2 -0.3,0.6 -0.5,1 l -0.3,0.7 -1.3,-0.6 c -0.7,-0.4 -1.5,-0.6 -1.6,-0.6 z m -3.8,1.2 c -3.6,-1.1 -7.3,-2.5 -6.9,-2.5 0.3,0 4.9,1.2 6.9,1.8 0.9,0.3 1.8,0.5 1.9,0.5 0.3,0 0.4,0.4 0.2,0.6 -0.2,0.2 -0.4,0.2 -2.1,-0.4 z m 8.2,0.9 c -0.4,-0.2 -0.7,-0.5 -0.7,-0.6 0,-0.1 0.2,-0.9 0.6,-1.7 l 1.2,-3.4 c 0.6,-1.8 0.7,-1.9 1,-1.6 0.2,0.2 0.5,0.3 0.7,0.3 0.2,0 0.4,0.1 0.4,0.1 0,0.1 -0.5,1.6 -1.1,3.4 -0.6,1.8 -1.2,3.4 -1.2,3.6 -0.1,0.4 -0.1,0.4 -0.9,-0.1 z m 41.4,-102.7 c -1.1,-1.3 -1,-4.9 0.2,-5.6 0.5,-0.3 0.8,-0.1 1.3,0.9 0.8,1.6 0.1,5 -0.9,5 -0.2,0 -0.4,-0.1 -0.6,-0.3 z m 1.7,0.3 c 0,-0.1 0.1,-0.4 0.3,-0.8 0.3,-0.8 0.4,-3.3 0.1,-4.1 -0.1,-0.3 -0.2,-0.6 -0.1,-0.6 0.1,-0.1 2.9,1.1 4.4,1.9 1.3,0.7 2.5,1.8 2.5,2.2 0,0.6 -2.8,1.3 -5.9,1.4 -0.7,0 -1.3,0 -1.3,-0 z m 8.9,3.3 c 0,-0.7 0,-1.3 0.1,-1.3 0.1,0 0.6,0.1 1.1,0.3 1.2,0.4 2.1,0.9 2,1.2 -0.1,0.2 -2.3,1 -3,1 -0.2,0 -0.3,-0.2 -0.3,-1.3 z m -1.4,1 c -0.2,-0.6 -0.1,-2.1 0.2,-2.4 0.1,-0.1 0.3,-0.1 0.5,0.1 0.3,0.3 0.5,1.8 0.2,2.4 -0.2,0.5 -0.7,0.4 -0.9,-0.2 z m -4.9,4.5 c 0.3,-1.3 0.2,-2.7 -0.2,-3.7 -0.1,-0.3 -0.2,-0.6 -0.2,-0.6 0.1,-0.1 3.6,0.9 4.4,1.4 0.9,0.5 1.9,1.4 1.9,1.9 0,0.5 -0.8,1.2 -1.6,1.4 -0.9,0.2 -4.4,0.9 -4.5,0.8 -0,-0 0.1,-0.6 0.3,-1.2 z m -2.5,0.8 c -0.8,-1.4 -0.8,-3.4 0,-4.6 0.6,-0.9 1.2,-0.8 1.8,0.2 1.3,2.5 -0.5,6.7 -1.8,4.4 z m -2.1,1.3 c -3.1,-0.6 -5.8,-2.1 -7.2,-4.1 -0.5,-0.7 -0.5,-0.8 -0.2,-1.2 0.3,-0.4 1.5,-0.9 3.6,-1.5 1.3,-0.3 2.2,-1.1 2.2,-1.8 0,-0.7 -0.8,-1.6 -1.6,-1.8 -0.9,-0.3 -3.6,-1.7 -4.7,-2.4 -0.4,-0.3 -0.9,-0.8 -1.1,-1.1 -0.3,-0.6 -0.3,-0.6 0.3,-1.1 0.9,-0.9 3.1,-1.8 4.7,-2.1 1.3,-0.2 4,-0.2 4.2,0.1 0.1,0.1 -0.1,0.3 -0.3,0.5 -1.1,1.2 -1,4.8 0.2,6 l 0.5,0.5 2.4,-0.1 c 2.7,-0.1 5.7,-0.6 6.3,-1.1 0.2,-0.2 0.4,-0.5 0.4,-0.6 0,-0.5 0.5,0.3 0.8,1.2 0.1,0.4 0.2,0.9 0.3,1.1 0.1,0.3 0,0.3 -0.4,0.2 -0.8,-0.1 -1.2,0.6 -1.2,2 0,0.9 0.1,1.2 0.4,1.6 0.4,0.5 0.5,0.5 1.3,0.3 0.6,-0.1 1,-0.1 1.1,-0 0.1,0.1 0.1,0.7 0.1,1.4 -0.1,1.4 -0.4,1.9 -1.5,2.6 l -0.7,0.4 0.5,-0.6 c 1,-1.2 0.5,-2.5 -1.3,-3.4 -0.9,-0.5 -4.1,-1.5 -5.5,-1.7 -0.6,-0.1 -0.9,-0.1 -1.3,0.2 -1.6,1.1 -1.6,5.5 0,6.6 0.4,0.3 0.6,0.3 1.4,0.1 0.5,-0.1 1.3,-0.3 1.7,-0.3 0.5,-0.1 1.5,-0.3 2.3,-0.5 2,-0.5 2.2,-0.4 0.6,0.1 -1.1,0.4 -3.4,0.8 -5.5,1.1 -0.3,0 -0.7,0.1 -0.8,0.1 -0.1,0 -1.1,-0.1 -2.2,-0.3 z m 3.6,0.8 c 3.7,-0.6 6,-1.2 7.4,-2 1.1,-0.7 1.6,-1.7 1.6,-3.4 v -1.3 l 0.8,-0.1 c 0.8,-0.1 1.5,-0.7 1.5,-1.2 0,-0.5 -1,-1.4 -2.5,-2.1 -1.1,-0.5 -1.2,-0.7 -1.3,-1.2 -0.1,-0.3 -0.4,-1.1 -0.7,-1.7 -0.8,-1.7 -3,-3.2 -6.2,-4.4 -5.4,-2 -9.5,-1.7 -13.1,0.8 -2,1.4 -1,2.8 3.8,5.2 1.5,0.7 2.7,1.4 2.8,1.6 0.1,0.2 0,0.5 -0.1,0.7 -0.2,0.5 -0.7,0.7 -3.2,1.4 -1,0.3 -1.6,0.6 -2,1 -0.7,0.7 -0.8,1 -0.4,1.7 0.4,0.7 2.1,2.4 3.1,3 2.3,1.5 6.1,2.4 8.5,2 z m 0.9,73.7 c 0.4,-0.8 0.4,-3.4 0,-4.3 -0.2,-0.4 -0.3,-0.7 -0.3,-0.7 0.1,-0.1 2.8,0.4 4.3,0.8 0.9,0.2 1.4,0.4 1.7,0.8 1,1.2 -0.5,2.5 -4,3.5 -2.1,0.6 -2.1,0.6 -1.7,-0.1 z m -2.4,-0.1 c -0.5,-1 -0.5,-3.1 -0,-4.2 0.4,-0.9 0.8,-1.1 1.4,-0.7 0.6,0.4 1,1.4 1,2.6 0,2.8 -1.4,4.1 -2.3,2.3 z m 9,1.8 c 0,-0.7 0,-1.3 0.1,-1.3 0.4,0 3,0.8 3.1,1 0.2,0.3 -0.5,0.9 -1.6,1.3 -1.6,0.5 -1.6,0.6 -1.6,-0.9 z m -1.4,1 c -0.3,-0.7 -0.2,-1.6 0.1,-2.1 0.6,-0.9 1.2,0.4 0.8,1.8 -0.2,0.9 -0.7,1 -0.9,0.3 z m -7.2,7.5 c 0.3,-0.6 0.2,-4 -0.2,-4.7 l -0.3,-0.6 1.7,0.1 c 3.1,0.2 5.6,0.8 5.6,1.4 0,0.1 -0.3,0.5 -0.6,0.8 -0.4,0.4 -1.4,1.1 -3.2,2 -2.8,1.4 -3.3,1.5 -3,1 z m -2.3,0 c -0.8,-1.5 -0.5,-4.6 0.5,-5.1 0.8,-0.4 1.7,1 1.7,2.9 0,1.3 -0.2,2 -0.8,2.7 -0.5,0.6 -0.9,0.5 -1.4,-0.5 z m -5,1.1 c -1.5,-0.3 -3,-1.1 -3.9,-2 -0.5,-0.5 -0.6,-0.6 -0.3,-1.1 0.4,-0.9 2.5,-2.1 6.3,-3.9 1.2,-0.6 1.4,-2 0.3,-2.8 -0.3,-0.2 -1.3,-0.6 -2.4,-0.9 -2.2,-0.6 -2.9,-1.2 -2.7,-1.8 0.2,-0.7 2.4,-2.7 3.6,-3.4 2.3,-1.2 3.2,-1.4 6.3,-1.4 2.5,0 3,0.1 4.7,0.5 1.9,0.5 2.8,1 1.4,0.7 -0.4,-0.1 -1.9,-0.4 -3.2,-0.6 -2.2,-0.4 -2.5,-0.4 -2.9,-0.2 -0.7,0.5 -1.2,1.7 -1.2,3.2 0,1.7 0.2,2.5 0.9,3.2 0.6,0.6 0.7,0.6 3.6,-0.1 4.2,-1 6.2,-2.9 4.9,-4.6 -0.2,-0.3 -0.3,-0.5 -0.2,-0.5 0.4,0 1.2,0.8 1.5,1.4 0.3,0.7 0.4,2.6 0.1,2.8 -0.1,0.1 -0.6,0 -1.1,-0.1 -0.9,-0.2 -1,-0.1 -1.4,0.3 -0.4,0.4 -0.4,0.7 -0.4,1.6 0.1,1.4 0.5,2.1 1.2,1.9 0.2,-0.1 0.4,-0.1 0.4,-0 0,0 -0.2,0.7 -0.4,1.4 -0.4,1.4 -0.7,1.9 -0.7,1.2 0,-1 -2.2,-1.6 -6.3,-1.6 l -3.2,-0 -0.5,0.8 c -0.9,1.6 -0.7,4.5 0.3,5.5 l 0.5,0.5 -0.4,0.1 c -1,0.2 -3.7,0.1 -4.9,-0.2 z m 4.5,0.8 c 2.7,-0.4 6.9,-2.1 9,-3.6 1.2,-0.9 1.8,-1.7 2.3,-3.3 0.3,-1 0.4,-1.1 1.6,-1.7 2.8,-1.5 3.2,-2.7 1,-3.2 l -0.8,-0.2 0,-1.4 c 0,-1.2 -0.1,-1.5 -0.5,-2.2 -0.6,-1 -0.6,-1 -2.8,-1.8 -2.1,-0.8 -5.3,-1.4 -7.3,-1.4 -3,0 -6.3,1.2 -8.3,3 -1.4,1.2 -2,2.2 -1.9,2.8 0.2,1.1 0.7,1.4 3.3,2.2 1.9,0.6 2.6,1 2.5,1.6 -0.1,0.4 -0.8,1.1 -1.1,1.1 -0.4,0 -3.4,1.6 -4.4,2.3 -1.7,1.2 -2.3,2 -1.9,2.9 0.2,0.4 2.1,1.7 3.3,2.2 1.1,0.4 3.5,0.9 4.4,0.9 0.3,-0 1.1,-0.1 1.8,-0.2 z m -33.5,5.8 c -0.5,-0.1 -1.4,-0.2 -2.1,-0.3 -0.6,-0.1 -1.7,-0.2 -2.3,-0.3 -0.6,-0.1 -1.2,-0.2 -1.2,-0.2 0,-0.1 0.6,-1.8 1.3,-4 0.7,-2.1 1.3,-4.2 1.3,-4.6 0,-0.9 -0.4,-1.4 -1.2,-1.2 -0.3,0.1 -1.1,0.1 -1.8,0.2 l -1.2,0 -0.1,-1.6 c -0.1,-1.2 -0.2,-1.8 -0.5,-2.3 l -0.4,-0.7 -1.4,0.1 c -0.8,0.1 -2.9,0.4 -4.8,0.7 -1.9,0.3 -3.5,0.5 -3.7,0.5 -0.7,-0.1 10.2,-3.5 16.4,-5.1 9.6,-2.5 22.9,-4.9 34.3,-6.2 7.6,-0.9 8.9,-1 10.3,-1.1 0.8,-0.1 2.3,-0.2 3.3,-0.3 1,-0.1 3.2,-0.3 4.9,-0.4 1.7,-0.1 3.3,-0.2 3.8,-0.3 0.4,-0 0.9,-0.1 1.2,-0.1 0.2,0 0.4,-0.1 0.4,-0.2 0,-0.2 -1.5,-0.2 -5.7,-0.1 -6,0.1 -14.4,0.4 -16.5,0.6 -0.7,0 -3.5,0.2 -6.2,0.4 -4.7,0.3 -6.1,0.4 -10.7,0.8 -2,0.2 -2.4,0.2 -5.5,0.6 -3.4,0.4 -8.6,1.2 -11,1.7 -1.6,0.3 -2.7,0.6 -6.7,1.8 -1.6,0.5 -1.9,0.5 -1,0.1 3.3,-1.4 6.2,-3.5 9.6,-6.8 6.1,-6 10.2,-13.4 12.2,-21.6 0.3,-1.3 0.6,-2.5 0.6,-2.7 0,-0.3 0.1,-0.4 0.9,-0.4 0.9,0 1.6,-0.1 4.3,-0.6 1.6,-0.3 5,-1.4 6.5,-2.1 1.6,-0.8 2.3,-1.6 2.3,-2.6 0,-0.7 -0.1,-0.9 -0.7,-1.5 -0.9,-0.8 -1.7,-1.2 -4.4,-2.1 -2.5,-0.8 -3.9,-1.1 -6.5,-1.4 -1.9,-0.2 -2.2,-0.3 -2.2,-0.6 0,-0.2 -0.3,-1.4 -0.6,-2.7 -1.9,-8 -6.3,-15.7 -11.9,-21.2 -3.1,-3 -5.4,-4.8 -8,-6.1 -1.1,-0.5 -2,-1.1 -2.1,-1.1 -0.1,-0.1 0.5,0.1 1.3,0.3 4.6,1.4 10.9,2.7 15.9,3.3 1,0.1 2.9,0.3 4,0.5 1.2,0.2 3.9,0.4 6.1,0.6 2.2,0.2 4.9,0.4 6,0.5 3,0.3 12.3,0.8 15.8,0.8 l 8.7,0.2 c 4.1,0.1 5.7,0.1 5.7,-0.1 0,-0.3 -0.7,-0.4 -4,-0.5 -1.6,-0.1 -4,-0.2 -5.5,-0.4 -1.5,-0.1 -3.9,-0.4 -5.3,-0.5 -1.4,-0.1 -3.2,-0.3 -3.9,-0.4 -2.1,-0.3 -7.3,-0.9 -8.3,-1 -0.8,-0.1 -1.7,-0.2 -7.2,-1 -10,-1.5 -20.5,-3.7 -30.2,-6.5 -2.5,-0.7 -10.3,-3.3 -10.2,-3.4 0,-0 0.5,0 1.1,0.1 5.7,0.9 8,1.2 8.5,1.1 0.8,-0.1 1.3,-0.9 1.4,-2.6 0.1,-1.9 0.2,-2.1 0.7,-2.1 0.3,0 1,0.1 1.8,0.2 2.4,0.4 2.5,-0.2 0.6,-5.7 -0.7,-2.1 -1.3,-3.9 -1.3,-3.9 0,-0.1 5.1,-0.7 8,-0.9 3.1,-0.2 9.8,-0.2 12.5,-0 5.6,0.4 15.8,2.6 25.5,5.3 5.8,1.6 12.3,4.4 13.8,5.9 2.1,2.1 3.1,5.6 5.4,18.8 0.2,1.3 0.5,2.7 0.6,3 0.1,0.4 0.2,0.9 0.2,1.2 0,0.3 0.2,1.6 0.5,3.1 0.5,2.9 1.2,7.4 1.8,11.1 0.2,1.4 0.5,3.2 0.6,4.1 0.1,0.9 0.2,1.5 0.1,1.5 -0.2,0 -6.8,-2.2 -7.4,-2.4 -1.1,-0.5 -2.5,-0.7 -2.1,-0.3 0.1,0.1 2.3,0.9 5,1.8 2.7,0.9 5.3,1.9 5.7,2.1 0.9,0.5 1.4,1.2 1.6,2.1 0.1,0.4 0.2,0.6 0.4,0.6 0.1,-0.1 0.3,0 0.3,0.2 0,0.2 -0.1,0.3 -0.3,0.3 -0.2,0 -0.3,0.2 -0.3,0.4 0,0.7 -0.5,1.6 -1.2,2.1 -0.4,0.3 -2.5,1.1 -5.9,2.3 -2.9,1 -5.2,1.8 -5.3,1.8 -0.1,0.1 -0,0.2 0,0.3 0.1,0.1 0.6,0 1.2,-0.2 5.2,-1.8 8.2,-2.8 8.3,-2.7 0.1,0.1 0,0.8 -0.1,1.6 -0.4,3 -1.9,12.5 -2.4,15.2 -0.2,0.9 -0.4,2.2 -0.5,2.9 -0.1,0.7 -0.3,1.9 -0.5,2.8 -0.2,0.9 -0.5,2.7 -0.7,4.1 -0.7,4 -1.2,6.7 -1.8,9.1 -0.3,1.2 -0.6,2.5 -0.6,2.7 -0.2,0.9 -1.6,3.6 -2.4,4.4 -0.4,0.5 -1.3,1.1 -1.8,1.4 -2.6,1.3 -8.1,3.4 -11.3,4.4 l -1.7,0.5 c -0.5,0.2 -1.2,0.3 -1.4,0.4 -0.3,0.1 -0.7,0.2 -0.9,0.3 -1.7,0.6 -10.4,2.5 -16.2,3.6 -3.3,0.6 -3.4,0.6 -4.9,0.7 -0.8,0.1 -1.5,0.1 -1.7,0.2 -0.4,0.1 -13.2,-0.1 -14.4,-0.2 z m 10.1,2.3 c -2.5,-0.1 -6.6,-0.4 -9.9,-0.8 -1.2,-0.2 -2.5,-0.3 -2.9,-0.4 -1.2,-0.1 -3,-0.5 -3.2,-0.6 -0.2,-0.1 -0.2,-0.2 0,-0.4 0.2,-0.3 0.4,-0.3 2.1,-0.1 1,0.1 2.6,0.3 3.6,0.4 0.9,0.1 2.5,0.2 3.4,0.3 2.5,0.2 11.1,0.1 13.9,-0.2 2.4,-0.3 8.3,-1.3 12.5,-2.3 5.8,-1.3 14.6,-3.7 16.1,-4.5 0.3,-0.1 0.6,-0.3 0.7,-0.3 0.7,0 7,-2.9 7.8,-3.6 1.3,-1.2 2.4,-3.1 3,-5.2 0.6,-2.3 1.5,-6.6 2.4,-11.1 0.2,-0.9 0.4,-2.1 0.5,-2.5 0.1,-0.5 0.3,-1.9 0.5,-3.2 0.2,-1.3 0.5,-3.3 0.7,-4.5 0.2,-1.2 0.4,-2.5 0.5,-3 0.1,-0.5 0.2,-1.6 0.4,-2.4 0.3,-1.5 0.8,-4.7 1.5,-9.8 0.3,-2 0.4,-2.2 0.8,-2.4 l 0.5,-0.2 -0.1,1 c -0.1,0.5 -0.2,1.6 -0.4,2.3 -0.1,0.7 -0.4,2.2 -0.5,3.2 -0.2,1 -0.4,2.6 -0.6,3.6 -0.3,1.6 -0.5,3.1 -1.7,10.2 -1.2,7.2 -1.4,8.3 -2.7,14.6 -1.3,6.3 -1.6,7.1 -3.5,9.3 -2.7,3.2 -5.9,5 -14.4,8.2 -7.3,2.7 -15.9,4.5 -22.4,4.6 -1.3,0 -2.4,0.1 -2.4,0.1 -0,0 -2.1,0 -6.2,-0.1 z m -22.9,3.2 c -0.6,-0.4 -0.9,-3.1 -0.4,-4.6 0.1,-0.4 0.2,-0.9 0.3,-1.2 0.1,-0.6 0.6,-1.7 0.9,-1.9 0.1,-0.1 0.5,-0.1 0.9,-0 0.8,0.1 4.3,1.9 4.4,2.3 0.1,0.4 -1.5,2.8 -2.7,3.8 -0.6,0.5 -1.5,1.1 -2,1.3 -1.1,0.4 -1.1,0.4 -1.4,0.3 z m 1.4,0.4 c 1.5,-0.5 2.9,-1.8 4.4,-3.9 0.5,-0.7 0.8,-1.1 1,-1 0.3,0.1 1.3,0.3 2.2,0.4 0.4,0 1.5,0.2 2.5,0.4 3.6,0.6 5.2,0.7 11.6,1.1 6,0.3 12.8,-0.1 17.6,-0.9 3,-0.6 3,-0.6 5,-1.1 1,-0.2 2.3,-0.6 3,-0.8 7.2,-1.8 15.4,-4.6 22.4,-7.8 3.4,-1.5 5.8,-5.4 6.6,-10.6 0.2,-1 0.5,-3.4 0.9,-5.3 0.3,-1.9 0.6,-3.7 0.6,-4 0.1,-0.4 0.3,-1.9 0.6,-3.5 1,-6.3 1.5,-9.1 1.7,-10.8 0.1,-1 0.4,-2.5 0.6,-3.4 0.2,-0.9 0.5,-2.6 0.6,-3.9 0.3,-1.9 0.5,-2.6 1.2,-4.1 0.5,-1 1.1,-2.1 1.5,-2.5 0.9,-1.1 1.2,-2.4 0.8,-3.5 -0.2,-0.5 -0.5,-1.1 -0.7,-1.4 -1.4,-1.7 -2.4,-4.1 -2.7,-6.4 -0.1,-0.9 -0.4,-2.5 -0.6,-3.7 -0.2,-1.1 -0.5,-3.2 -0.7,-4.6 -0.2,-1.4 -0.4,-3 -0.6,-3.5 -0.1,-0.5 -0.4,-2.3 -0.7,-4 -0.3,-1.7 -0.6,-3.6 -0.7,-4.1 -0.1,-0.6 -0.2,-1.4 -0.3,-1.9 -0.1,-0.5 -0.3,-2.3 -0.6,-4 -0.3,-1.8 -0.7,-4.1 -0.8,-5.2 -0.6,-4.1 -2,-7 -4.2,-9.1 -1,-0.9 -3.3,-2.1 -6.7,-3.4 -0.9,-0.4 -2.7,-1 -3.8,-1.5 -1.2,-0.5 -2.7,-1 -3.5,-1.3 -3.8,-1.3 -7.6,-2.4 -9,-2.7 -0.9,-0.2 -2.8,-0.7 -4.2,-1 -2.9,-0.7 -7.8,-1.6 -11.1,-2 -1.3,-0.2 -4.3,-0.2 -8.1,-0.2 -7.2,0 -9.5,0.2 -18.1,1.5 -1.2,0.2 -2.2,0.3 -2.3,0.3 -0.1,0 -0.5,-0.4 -0.8,-0.9 -1.5,-2.3 -4.3,-4.3 -5.6,-4.2 -0.7,0.1 -1.3,1 -1.5,2.3 -0.1,1 0.1,3.1 0.5,4 0.1,0.3 0.2,0.5 0.1,0.5 -0,0 -0.6,0.2 -1.2,0.4 -2.1,0.6 -6.1,2 -7.2,2.4 -5.3,2.2 -11.2,3.4 -18,3.6 -1.8,0.1 -4,0.1 -5,0.2 -1,0.1 -7.1,0.1 -13.5,0.2 -11.5,0.1 -14.1,-0 -21.8,-0.6 -1.5,-0.1 -4.6,-0.3 -6.9,-0.5 -2.3,-0.1 -5.9,-0.4 -8,-0.5 -2.1,-0.2 -5.2,-0.4 -6.9,-0.5 -1.8,-0.1 -5.5,-0.4 -8.3,-0.6 -9.5,-0.7 -14.9,-0.7 -19.1,0.2 -5.6,1.1 -8,2.1 -12.4,5 -1.4,0.9 -2.6,1.7 -2.7,1.8 -0.1,0.1 -0.8,0.5 -1.5,1 -1.4,1 -2.4,1.8 -2.8,2.5 -0.3,0.4 -0.4,0.5 -2.5,0.5 -2.5,0 -5.8,0.3 -6.7,0.6 -1.2,0.4 -1.2,0.4 -1.3,5.6 -0.2,5.9 -0.2,63 -0,71.4 0.1,6.6 0.1,6.5 1.1,7 0.6,0.3 1.6,0.4 5.8,0.6 3.3,0.1 3.3,0.1 3.7,0.6 0.7,1 1.6,1.6 5.3,4.1 4.3,2.8 5.4,3.5 6.8,4 0.6,0.2 1.3,0.5 1.6,0.7 0.9,0.4 5.8,1.6 7.8,1.8 3.2,0.4 13.2,0.3 19.2,-0.3 0.5,-0 2.2,-0.2 3.8,-0.3 1.6,-0.1 3.3,-0.2 3.9,-0.3 0.5,-0.1 1.8,-0.1 2.9,-0.2 1.1,-0.1 3,-0.2 4.3,-0.3 1.3,-0.1 3.7,-0.3 5.3,-0.4 1.6,-0.1 3.1,-0.2 3.4,-0.3 0.3,-0 1.4,-0.1 2.4,-0.2 1.1,-0.1 2.5,-0.1 3.2,-0.2 8.7,-0.7 19.4,-0.8 32.9,-0.4 10.6,0.3 12.1,0.5 16.1,1.3 3.2,0.7 4.2,1 9.3,2.9 3.3,1.2 5.7,2 6.7,2.2 0.7,0.1 0.7,0.2 0.3,1.2 -0.7,2 -0.5,4.8 0.4,5.5 0.6,0.4 0.8,0.5 1.9,0.1 z"/>
<path style="fill:#0084c8; stroke:#0084c8; stroke-width:1;" d="m 141.7,3.4 c 0,-0.1 2.2,-1.4 2.4,-1.4 0.4,0 0.2,0.3 -0.8,0.9 -0.9,0.5 -1.6,0.8 -1.6,0.5 z m -33.5,0.1 c -0.4,-0.7 -0.4,-0.8 0.1,-0.8 0.3,0 0.5,0.2 0.7,0.7 0.3,0.6 0.3,0.7 -0.1,0.7 -0.3,0 -0.5,-0.2 -0.7,-0.5 z m 1.2,-0.2 -0.4,-0.7 0.6,-0.2 c 0.3,-0.1 1.7,-0.4 3,-0.6 5.1,-0.8 7.2,-0.9 16.5,-0.9 7.6,0 9.4,0.1 11.4,0.3 1.3,0.2 2.4,0.4 2.5,0.5 0.1,0.1 -0.3,0.5 -0.9,0.8 -1,0.6 -1.1,0.7 -1.8,0.5 -3.5,-0.8 -15,-1.1 -21.1,-0.5 -3.1,0.3 -9.1,1.2 -9.3,1.4 -0.1,0.1 -0.2,0.1 -0.6,-0.7 z M 86.7,11.5 86,11.3 89.2,9.6 c 3.3,-1.7 7,-3.3 10.3,-4.4 2.3,-0.8 6.1,-1.9 7.2,-2.1 0.8,-0.1 0.8,-0.1 1.2,0.4 0.2,0.3 0.4,0.6 0.3,0.6 -0,0 -1.4,0.4 -3,0.8 -5.5,1.4 -10.1,3.1 -14.8,5.6 -2.5,1.3 -2.7,1.3 -3.7,1 z m 6.4,0.6 c 4.4,-2.5 13.9,-6 18.2,-6.8 1.3,-0.2 0.2,0.2 -1.6,0.7 -2.8,0.7 -7.2,2.3 -10.1,3.6 l -2,0.9 c -0.5,0.2 -1.7,0.8 -2.7,1.3 -2.1,1 -3.4,1.3 -1.7,0.3 z m -38.3,2.2 c 0.2,-0 1.9,-0.2 3.9,-0.4 2,-0.2 5,-0.6 6.7,-0.9 1.7,-0.2 3.5,-0.5 4,-0.6 0.6,-0.1 2.7,-0.4 4.8,-0.7 2.9,-0.4 3.8,-0.5 4.2,-0.4 0.6,0.3 0.4,0.6 -0.4,0.7 -0.4,0 -3,0.3 -5.7,0.6 -6.6,0.7 -15.5,1.7 -16.3,1.7 -0.7,0 -1.6,-0.1 -1.1,-0.2 z m 49,0.5 c -1,-0.2 -3.2,-0.6 -5,-0.9 -1.8,-0.3 -3.7,-0.7 -4.3,-0.8 l -1,-0.2 1.1,-0.6 c 4.1,-2.1 11.8,-5.1 14.6,-5.7 0.5,-0.1 1,-0.2 1.2,-0.3 0.2,-0.1 0.3,-0 0.2,0.2 -0.1,0.2 -0.3,0.6 -0.5,0.8 -0.4,0.5 -2.3,4.4 -3.3,6.5 -0.4,0.9 -0.8,1.4 -0.9,1.4 -0.2,0 -1.1,-0.2 -2,-0.4 z m 2.7,0.5 c 0,-0.4 3.9,-8.3 4.6,-9.1 0.4,-0.5 0.6,-0.2 0.2,0.3 -1,1.4 -4.4,8.2 -4.4,8.6 0,0.1 -0.1,0.3 -0.2,0.3 -0.1,0 -0.2,-0 -0.2,-0.1 z m -87.7,0.4 c -2.4,-1.1 -2.8,-1.4 -2.2,-1.6 0.4,-0.1 5.5,2.4 5.2,2.6 -0.4,0.2 -0.2,0.3 -2.9,-1 z m 159.5,0.6 c -0.2,-0.9 -0.1,-3.5 0.3,-4.2 0.3,-0.5 0.4,-0.6 1.1,-0.5 2.3,0.1 6,1.9 6,2.9 0,0.8 -1.7,1.6 -4.9,2.3 -2,0.5 -2.3,0.4 -2.5,-0.4 z M 5.9,16.9 C 5.6,16.7 4.8,15.9 4.1,15 3,13.5 2.9,13.3 3.2,13.1 c 0.2,-0.1 0.5,-0.2 0.9,-0.1 0.3,0.1 3.1,0.1 6.3,0.1 5.7,0 5.8,0 5.8,0.4 0,0.5 -0.4,0.7 -2.3,1.5 l -2.8,1.1 c -2.5,1 -2.8,1.1 -3.7,1.1 -0.5,0 -1.1,-0.1 -1.5,-0.3 z m 8.8,-0.6 -0.7,-1 0.8,-0.3 0.8,-0.3 2.4,1.1 c 1.3,0.6 2.3,1.1 2.2,1.2 -0.1,0.1 -3.5,0.3 -4.5,0.4 -0.3,0 -0.6,-0.3 -1.1,-1 z m -1.7,0.1 c -0.4,-0.5 -0.4,-0.7 0.2,-0.8 0.3,-0.1 0.5,0.1 1,0.8 0.4,0.5 0.7,0.9 0.7,1 0,0.1 -0.3,0.2 -0.7,0.3 -0.7,0.2 -0.7,0.1 -0.8,-0.3 -0,-0.3 -0.2,-0.7 -0.4,-0.9 z m 168.2,1 -0.8,-0.3 1,-0.2 c 0.6,-0.1 1,-0.2 1.1,-0.2 0,0 0.1,0.4 0.2,0.7 0.1,0.8 0.2,0.8 -1.5,0 z M 70.8,18.3 c -0.5,-0.1 -2.3,-0.4 -4.1,-0.6 -1.7,-0.2 -3.4,-0.5 -3.6,-0.6 -0.4,-0.1 -0.9,-0.9 -0.7,-1.1 0.1,-0.1 2.5,0.4 7.5,1.3 1.5,0.3 3.3,0.6 3.8,0.7 l 1,0.1 -0.8,0.1 c -1.2,0.2 -2.2,0.2 -3.2,0 z m -58.9,0.5 c 0.2,-0.1 0.7,-0.4 1.3,-0.6 1.2,-0.3 4.6,-0.8 4.9,-0.6 0.1,0.1 0,0.1 -0.2,0.1 -0.3,0 -1.4,0.3 -2.4,0.6 -2.1,0.6 -2.6,0.7 -3.4,0.7 -0.4,0 -0.4,0 -0.2,-0.2 z m 140,1.6 c -1,-0.1 -2.5,-0.2 -3.3,-0.3 -1.9,-0.1 -10.5,-1.1 -15,-1.7 -2,-0.3 -4,-0.5 -4.4,-0.6 -1.3,-0.1 -9.6,-1.2 -13.1,-1.7 -1.8,-0.3 -4,-0.6 -5,-0.7 -0.9,-0.1 -1.7,-0.2 -1.7,-0.2 -0,-0 0.7,-1.4 1.7,-2.9 1.7,-2.8 2,-3.4 3,-5 1.2,-1.9 3.3,-2.5 10.3,-2.6 5.1,-0.1 10.2,0.1 12.6,0.6 3.4,0.7 8.4,3.2 13,6.7 2.7,2 3.1,2.4 3,2.8 -0.2,0.5 -0.1,1.3 0.3,2.3 0.2,0.6 0.5,1.6 0.7,2.3 0.4,1.4 0.6,1.3 -2.2,1.1 z m 31.9,-0.3 c -0.7,-2.5 -0.9,-3.5 -0.6,-3.7 0.6,-0.4 0.8,-0.1 1.4,1.8 0.5,1.4 0.7,1.9 1,2.1 0.4,0.2 0.4,0.2 -0.4,0.3 -0.5,0 -0.9,0.1 -1.1,0.1 -0.1,0 -0.3,-0.3 -0.4,-0.6 z M 85.3,20.7 C 80,20 76,19.4 72.7,19.1 71,18.9 68,18.5 65.9,18.2 50.4,16.2 48.1,16 41.1,16 c -5.9,0 -8.5,0.3 -12.4,1.2 -5.2,1.3 -15.9,3.6 -19,4 -0.7,0.1 -0.8,0.1 -0.8,-0.2 0,-0.7 0.5,-1 1.9,-1.3 2,-0.4 4.4,-0.9 7.2,-1.7 13.6,-3.7 22,-4.9 29.2,-4.2 4.4,0.4 11.8,1.5 12.9,2 0.3,0.1 0.9,0.3 1.2,0.3 0.4,0 0.6,0.1 0.7,0.6 0.3,0.9 -0.2,0.8 7,1.8 3,0.4 3.5,0.5 4.9,0.3 1.7,-0.2 1.1,-0.3 8,0.9 1.7,0.3 3.4,0.6 3.9,0.7 0.5,0.1 2,0.3 3.2,0.6 2.1,0.4 2.2,0.4 0.9,0.4 -0.7,-0.1 -2.9,-0.3 -4.8,-0.6 z m 88.3,0.4 c -3.5,-0.6 -7.1,-1.8 -8.8,-3 -0.6,-0.4 -2,-1.5 -3.2,-2.4 -5.4,-4.3 -10.9,-8.2 -11.4,-8 -0.1,0.1 -0.2,0 -0.2,-0.1 0.1,-0.2 -2.5,-1.8 -5.2,-3.1 -1,-0.5 -1.8,-1 -1.8,-1.1 0,-0.1 0.1,-0.2 0.3,-0.3 0.2,-0.1 0.6,-0.3 0.9,-0.5 0.5,-0.4 0.6,-0.4 1.5,-0 1,0.4 4.9,1.9 7.3,2.9 0.8,0.3 1.9,0.8 2.4,1 1.5,0.6 7.7,3.3 12.7,5.5 2.4,1.1 4.8,2.1 5.4,2.3 3,1.3 4.6,2.1 4.7,2.5 0.1,0.4 0.2,0.4 1,0.4 0.7,-0 1.3,0.1 2.3,0.6 1.3,0.6 1.5,0.7 1.6,1.4 0.1,0.4 0.2,0.8 0.2,0.8 -0,0 -1.1,0.3 -2.5,0.6 -2.8,0.6 -4.9,0.7 -7.2,0.3 z M 8.3,21.3 c 0,-0.1 0.1,-0.2 0.2,-0.2 0.1,0 0.1,0.1 0.1,0.2 -0.1,0.1 -0.2,0.2 -0.2,0.2 -0,0 -0.1,-0.1 -0.1,-0.2 z m 83.5,0.1 c 0.2,-0 0.6,-0 0.8,0 0.2,0 -0,0.1 -0.4,0.1 -0.4,0 -0.6,-0 -0.3,-0.1 z m 3.2,-0.6 c -2.9,-0.3 -6.1,-0.6 -6.9,-0.7 -2.2,-0.1 -5.5,-0.7 -11.9,-1.9 -1.3,-0.3 -3.8,-0.7 -5.5,-1 -1.7,-0.3 -4.5,-0.8 -6.1,-1.1 -1.7,-0.3 -3.2,-0.6 -3.4,-0.6 -0.2,0 -1.3,-0.2 -2.5,-0.4 l -2.2,-0.4 1.6,-0.1 c 0.9,-0.1 3.5,-0.3 5.7,-0.6 2.3,-0.3 5,-0.6 6,-0.7 3.7,-0.4 8.6,-1 9,-1.1 0.4,-0.1 0.4,-0.6 0.1,-0.9 -0.1,-0.1 0,-0.2 0.3,-0.2 0.3,-0 1.2,-0.2 2.1,-0.3 1.4,-0.2 3.8,-0.4 3,-0.2 -1.6,0.4 2.4,1.4 13.2,3.4 4.5,0.8 9.1,1.7 9.2,1.8 0,0 -0.4,1 -1,2.3 -0.6,1.2 -1.2,2.5 -1.3,2.9 l -0.3,0.6 -1.8,-0.1 c -1,-0.1 -4.2,-0.4 -7.2,-0.7 z m -1.8,0.8 c 0.2,-0 0.4,-0 0.6,0 0.1,0 -0,0.1 -0.3,0.1 -0.3,0 -0.4,-0 -0.2,-0.1 z m 63.7,-0.2 c -1,-0.1 -1.8,-0.2 -1.9,-0.3 -0.1,-0.1 -0.6,-1.5 -1.1,-3.1 -1.3,-4.1 -1.2,-4.1 3.1,0.2 l 3.5,3.5 -0.9,-0.1 c -0.5,-0.1 -1.7,-0.2 -2.7,-0.2 z M 97,21.9 c -1.6,-0.3 -3.8,-0.7 -4.9,-0.9 -1.1,-0.2 -2,-0.4 -2,-0.4 0,-0 1.6,0.1 3.5,0.3 1.9,0.2 4.6,0.5 6,0.6 4,0.3 4.6,0.5 3.1,0.8 -1.4,0.3 -2.8,0.2 -5.7,-0.4 z m 73.3,-0.2 c -2.7,-0.9 -5.7,-2.7 -8.8,-5.2 -0.7,-0.6 -2.2,-1.8 -3.4,-2.7 -1.2,-0.9 -2.6,-2 -3.1,-2.5 -0.6,-0.5 -1.6,-1.2 -2.4,-1.7 -0.7,-0.5 -1.4,-0.9 -1.4,-1 0,-0.3 4.9,3.2 7.7,5.4 6,4.7 5.8,4.6 8.2,5.6 1.9,0.8 5.6,1.7 7.5,1.8 0.9,0.1 1.5,0.2 1.4,0.2 -0.3,0.3 -2.5,0.7 -3.3,0.6 -0.5,-0 -1.6,-0.3 -2.5,-0.7 z m -18.7,-8.9 c -5.3,-4.3 -10.3,-6.9 -14.5,-7.8 -4,-0.8 -14.9,-1 -18.7,-0.3 -1.8,0.3 -3.3,0.9 -4,1.6 -0.2,0.2 -1,1.4 -1.8,2.7 -0.8,1.3 -1.6,2.6 -1.8,3 -0.7,1.1 -2,3.3 -2,3.4 0,0.1 -0.2,0.1 5.4,0.9 12.6,1.7 29.4,3.8 33,4.1 2.6,0.2 7.1,0.7 7.2,0.8 0.2,0.2 -0.4,0.2 -4.4,-0.2 -2.4,-0.2 -5.3,-0.5 -6.6,-0.6 -1.2,-0.1 -4,-0.4 -6.2,-0.7 -2.2,-0.3 -4.4,-0.5 -5,-0.6 -2.9,-0.2 -15,-1.9 -20.8,-2.8 -1.6,-0.3 -2.9,-0.5 -3,-0.5 -0.3,0 -0.1,-0.4 0.7,-1.7 0.4,-0.8 1,-1.7 1.2,-2.1 0.2,-0.4 1,-1.8 1.7,-3 2.3,-4 2.8,-4.3 7.6,-4.8 4.5,-0.5 9.7,-0.5 14.6,0 7.2,0.7 9.2,1.7 16.8,8.2 2.8,2.4 10.4,9.7 11.2,10.9 0.2,0.3 -1.8,-1.6 -4.5,-4.3 -2.7,-2.7 -5.6,-5.4 -6.3,-6.1 z m -3.3,11.4 c -3.9,-0.2 -9.4,-0.5 -12.1,-0.6 -2.7,-0.1 -7.7,-0.4 -11,-0.6 -3.3,-0.2 -7.8,-0.5 -10,-0.6 -4.6,-0.2 -10.5,-0.7 -10.7,-0.8 -0.1,-0.1 0.5,-1.4 1.3,-3 1.1,-2.2 1.4,-2.9 1.7,-2.8 0.5,0.1 4.2,0.8 5.2,0.9 l 1.6,0.2 c 0.4,0 2,0.3 3.7,0.5 5.1,0.8 19.9,2.6 23,2.8 0.7,0.1 2.8,0.3 4.7,0.5 1.9,0.2 4.5,0.5 5.7,0.6 1.2,0.1 3.9,0.3 5.9,0.5 l 3.6,0.3 1.1,1.2 c 0.6,0.7 1.2,1.3 1.2,1.3 0.1,0.2 -6.1,-0 -14.9,-0.5 z m 14.8,-0.8 c -4.2,-4.7 -8.5,-8.9 -13.5,-13 -5.6,-4.7 -8,-5.8 -13.4,-6.5 -7.2,-0.9 -10.1,-0.9 -15.9,-0.3 -3.6,0.4 -4.3,0.5 -5.2,1.1 -1.5,0.9 -1.5,0.9 -5,7.2 -2.3,4.2 -2.1,3.9 -2.7,3.7 -0.3,-0.1 -0.5,-0.3 -0.4,-0.4 0.1,-0.6 3.3,-6.7 4.4,-8.5 0.6,-1 1.1,-1.9 1.1,-1.9 -0.1,-0.1 -3.3,0.6 -5.3,1.3 -4.8,1.5 -8.8,3 -12.7,5 -2.9,1.5 -3.1,1.5 -3.9,1.4 -0.4,-0.1 -1,-0.2 -1.3,-0.2 -0.3,0 -0.6,-0.1 -0.7,-0.2 -0.2,-0.3 6.2,-3.3 10.3,-4.8 5.2,-1.9 13.1,-3.6 19.7,-4.2 6.1,-0.6 17.1,-0.4 20.9,0.3 4.1,0.8 9.6,4 18,10.5 0.6,0.5 1.4,1.1 1.8,1.4 0.4,0.3 1.2,1 1.8,1.5 0.6,0.5 1.7,1.4 2.4,1.9 0.7,0.5 1.6,1 1.8,1.2 1.4,1 5.2,2.6 6.2,2.7 0.3,0 0.5,0.1 0.5,0.2 -0.1,0.2 -2.3,0.8 -5.2,1.4 -1.2,0.3 -2.2,0.6 -2.2,0.7 0,0.3 -0.5,-0.1 -1.6,-1.4 z m 1.8,1.6 c 0,-0.1 1.1,0.7 1.3,1 0.1,0.2 -0.1,0 -0.5,-0.3 -0.4,-0.3 -0.8,-0.7 -0.8,-0.7 z m -23.1,1.2 c -0.3,-0 -2.5,-0.2 -5.1,-0.3 -2.5,-0.1 -4.9,-0.2 -5.2,-0.3 -0.3,-0 -3.1,-0.3 -6.2,-0.5 -3.1,-0.2 -7.7,-0.6 -10.3,-0.9 l -7.3,-0.7 c -1.4,-0.1 -3.3,-0.4 -4.1,-0.5 l -1.5,-0.2 0.8,-0.2 c 0.5,-0.1 1,-0.3 1.1,-0.4 0.1,-0.1 0.8,-0.1 1.4,-0 1.2,0.1 5.8,0.4 9.3,0.6 1.1,0.1 4.7,0.3 8.1,0.5 3.4,0.2 8.1,0.5 10.6,0.6 2.5,0.1 8.6,0.4 13.7,0.7 5.1,0.3 10.2,0.5 11.4,0.5 1.2,0 2.6,0.1 3.2,0.1 l 1,0.1 -1,0.3 c -0.6,0.2 -2,0.4 -3.1,0.5 -1.1,0.1 -2.2,0.2 -2.4,0.3 -0.5,0.1 -13.8,-0.1 -14.4,-0.2 z m -41.1,1.5 c -0.4,-0.7 -0.5,-1.5 -0.1,-1.8 0.3,-0.2 0.4,0 1,2 0.2,0.7 -0.4,0.5 -0.8,-0.2 z m 0.2,1.1 c -0.9,-0.6 -1.5,-1.8 -1.3,-2.7 0.2,-0.9 0.7,-1.7 1,-1.2 0.1,0.2 0,0.5 -0.2,0.9 -0.2,0.3 -0.4,0.8 -0.4,1 0,0.6 0.7,1.6 1.4,1.9 0.4,0.1 0.7,0.4 0.7,0.5 0,0.3 -0.4,0.2 -1.2,-0.3 z M 215.1,31.7 c -1.3,-1.1 -2.5,-2.2 -2.7,-2.4 -0.3,-0.4 -0.3,-0.4 0.5,-0.1 2.8,0.8 3.6,1.1 4.1,1.5 0.6,0.4 0.6,0.5 0.7,1.8 0,0.7 0,1.4 -0.1,1.4 -0.1,0 -1.2,-0.9 -2.5,-2 z m 3.4,0.6 c 0,-0.2 -0.1,-0.5 -0.1,-0.7 -0.1,-0.3 -0.1,-0.3 0.4,-0 0.8,0.4 1,0.7 0.9,1.5 l -0.1,0.7 -0.5,-0.6 c -0.3,-0.3 -0.5,-0.8 -0.5,-1 z m 1.5,1.2 c -0.1,-0.9 0.3,-0.7 0.5,0.3 0.1,0.5 0.1,0.6 -0.1,0.5 -0.2,-0 -0.3,-0.4 -0.3,-0.8 z m -1.9,-0.3 c 0,-1.1 0,-1.1 0.2,-0.4 0.2,1.1 0.2,1.8 -0,1.7 -0.1,-0.1 -0.2,-0.6 -0.2,-1.3 z m 4.6,3.2 c -0.3,-0.1 -0.8,-0.4 -1,-0.7 -0.3,-0.4 -0.2,-0.3 0.8,0.2 0.6,0.3 1.2,0.6 1.2,0.7 0.2,0.2 -0.4,0 -1,-0.2 z m 0.4,1.6 c -0.9,-0.5 -2.1,-1.3 -2.7,-1.8 -0.6,-0.5 -1.2,-0.9 -1.4,-0.9 -0.2,-0.1 -0.3,-0.4 -0.3,-0.7 0,-0.6 0.1,-0.6 0.3,-0.5 0.2,0.1 0.9,0.7 1.7,1.4 1,0.9 1.6,1.3 2.4,1.6 1.6,0.6 1.8,0.7 1.8,1.3 0,0.3 -0.1,0.6 -0.2,0.6 -0.1,0 -0.9,-0.4 -1.7,-1 z M 2.4,41.8 c -0.2,-0.3 -0.1,-0.6 0.4,-1.7 0.6,-1.3 1.4,-4.2 1.4,-5.4 0,-0.4 0.2,-1.4 0.5,-2.3 0.7,-2.3 2.3,-7.1 2.3,-6.8 0,0.1 -0.2,1 -0.5,2 -0.8,2.6 -1.2,4.6 -1,5.1 0.1,0.3 -0,1.2 -0.9,4 -0.6,1.9 -1.2,4 -1.3,4.6 -0.2,1.1 -0.5,1.3 -0.9,0.5 z M 104.2,42.2 c -0.9,-0.1 -2.5,-0.2 -3.4,-0.3 -0.9,-0.1 -3.5,-0.3 -5.7,-0.6 -2.2,-0.2 -4.8,-0.5 -5.8,-0.6 -1,-0.1 -4.1,-0.4 -6.9,-0.7 -2.8,-0.3 -5.8,-0.6 -6.7,-0.6 -0.8,-0.1 -3.6,-0.3 -6.1,-0.6 -2.5,-0.3 -5.7,-0.6 -7.1,-0.7 -3.9,-0.3 -3.6,-0.2 -4.3,-1.6 -3.1,-6 -8.5,-10.5 -14.7,-12.3 -1.7,-0.5 -2.1,-0.5 -5.2,-0.5 -3.2,0 -3.4,0 -5.4,0.6 -2.5,0.7 -5.5,2.1 -7.5,3.5 -1.5,1 -4.4,3.8 -5.3,5.1 l -0.6,0.8 -1.3,-0.1 C 17.3,33.8 15.3,33.5 13.7,33.3 12,33 9.7,32.7 8.4,32.5 7.2,32.3 6.1,32.2 6.1,32.1 c -0.1,-0.1 -0.2,-0.3 -0.2,-0.6 0,-0.6 0.8,-3.8 1.7,-6.6 0.3,-1 0.6,-1.9 0.5,-1.9 0,-0.1 0.1,-0.4 0.3,-0.8 0.3,-0.6 0.4,-0.6 1,-0.6 0.4,0 1.9,-0.3 3.4,-0.6 1.5,-0.3 3,-0.6 3.4,-0.7 0.4,-0.1 1.6,-0.3 2.7,-0.6 1.1,-0.3 2.3,-0.5 2.5,-0.6 0.7,-0.1 5.1,-1.1 7.8,-1.8 3.5,-0.8 5.9,-1 12.1,-1 5.9,0 10.3,0.3 16.2,1.1 1.9,0.3 5.4,0.7 7.9,1 2.5,0.3 6.5,0.8 8.9,1.1 2.4,0.3 4.9,0.6 5.4,0.7 0.6,0.1 2.6,0.3 4.4,0.6 1.9,0.3 4.2,0.5 5.2,0.6 1,0.1 3,0.3 4.4,0.6 1.4,0.2 3.2,0.4 3.9,0.5 2.5,0.2 2.5,0.2 2.5,0.9 0,0.3 -0.2,0.8 -0.5,1.2 -0.7,0.9 -0.8,2.3 -0.3,3.2 0.5,0.9 1.4,1.6 2.1,1.7 0.6,0.1 0.7,0.3 1.8,3.3 0.8,2.2 2.1,5.6 3,7.6 0.4,0.9 0.7,1.8 0.7,1.8 0,0.2 -0.9,0.1 -2.9,-0.1 z m 2.8,-15.1 c -0.4,-0.4 -0.4,-0.6 0.2,-0.9 0.8,-0.5 1.7,0.3 1,1 -0.3,0.3 -0.8,0.3 -1.2,-0.1 z m 1.4,0.3 c 1,-1 -0.2,-2.2 -1.5,-1.5 -0.5,0.3 -0.5,1.2 0.1,1.6 0.6,0.4 1,0.4 1.5,-0.1 z m 53,7.5 c -0.9,-0.5 -0.2,-1.1 1.2,-1.1 1.1,0 1.7,0.5 1.2,1 -0.3,0.3 -1.8,0.4 -2.4,0.1 z m 2.1,0.4 c 1.3,-0.5 0.5,-1.8 -1.1,-1.8 -1.1,0 -1.9,0.7 -1.6,1.3 0.4,0.7 1.6,1 2.7,0.6 z m -3.9,0 c -3,-0.5 -4.1,-1.1 -3.1,-1.8 0.3,-0.2 1.1,-0.3 3.2,-0.4 2.6,-0.1 2.8,-0.1 3.6,0.3 0.9,0.4 1.2,1 0.9,1.5 -0.2,0.3 -1.2,0.7 -1.9,0.7 -0.3,0 -1.6,-0.2 -2.8,-0.4 z m 3.4,0.6 c 1.8,-0.3 2.2,-1.7 0.8,-2.6 -0.6,-0.4 -0.9,-0.4 -3.9,-0.3 -3,0 -3.3,0.1 -3.6,0.5 -0.6,0.6 -0.4,1.2 0.5,1.6 0.4,0.2 1.6,0.4 2.6,0.6 2.6,0.4 2.7,0.4 3.6,0.3 z m 0,10 c -3,-0.2 -6.7,-0.4 -8.1,-0.5 -1.4,-0.1 -3.2,-0.2 -3.9,-0.2 -2.3,-0.2 -12.8,-0.8 -15.3,-0.9 -1.3,-0.1 -4.2,-0.2 -6.4,-0.4 -2.2,-0.1 -5.7,-0.4 -7.9,-0.5 -2.2,-0.1 -5.9,-0.3 -8.3,-0.5 -2.4,-0.1 -4.6,-0.3 -4.9,-0.3 -0.5,0 -0.6,-0.1 -1.1,-1.1 -0.7,-1.6 -2,-4.9 -2.9,-7.3 -0.4,-1.1 -1,-2.6 -1.2,-3.2 -0.2,-0.6 -0.9,-2.5 -1.5,-4.3 -0.9,-2.6 -1,-3.2 -0.9,-3.5 0.1,-0.2 0.3,-0.4 0.5,-0.3 0.4,0.1 4.1,0.7 6.3,0.9 1.1,0.1 3.5,0.4 5.3,0.6 1.8,0.2 4.5,0.5 5.9,0.6 1.4,0.1 5.3,0.4 8.6,0.6 3.3,0.3 7.2,0.5 8.6,0.6 1.4,0.1 3.9,0.2 5.4,0.3 1.6,0.1 5.6,0.2 9.1,0.2 7,0 9.6,-0.2 12.2,-1.1 2.1,-0.7 1.9,-0.8 7,5 1.5,1.7 2.9,3.3 3.1,3.5 0.2,0.2 0.4,0.5 0.4,0.5 0,0 -0.4,0.8 -0.9,1.6 -1.6,2.7 -2.8,6.4 -2.8,8.7 0,0.8 -0.2,1.2 -0.7,1.2 -0.1,0 -2.7,-0.2 -5.7,-0.4 z m 74.3,-0 c -0.7,-0.4 -1.6,-1.1 -2,-1.4 -3.4,-2.7 -12,-8.7 -13.9,-9.6 -0.2,-0.1 -0.4,-0.3 -0.4,-0.5 0,-0.4 0.1,-0.3 5.1,3 6.5,4.4 12.3,8.4 12.6,8.8 0.2,0.2 0.2,0.5 0.1,0.5 -0.1,0 -0.7,-0.4 -1.4,-0.8 z m -5,1 c -1.1,-0.2 -1.2,-0.3 -4.4,-3 -3.5,-3.1 -10.2,-8.5 -12.7,-10.5 -6.1,-4.7 -7.4,-5.6 -10.3,-7 -4.1,-2.1 -7.7,-3.3 -12.2,-4 -2.3,-0.4 -3.1,-0.4 -5.6,-0.3 -3.9,0.2 -7.6,0.6 -10,1.1 l -4.6,1.1 c -5.7,1.4 -6,1.4 -6.4,1.2 -0.2,-0.1 -0.4,-0.3 -0.4,-0.3 0,-0.1 1.3,-0.4 2.9,-0.8 l 5.7,-1.4 c 2.3,-0.6 4.4,-1.1 8.9,-2 0.3,-0.1 0.4,0 0.4,0.2 0,0.3 0.1,0.3 1.4,0.2 0.7,-0.1 1.4,-0.2 1.4,-0.3 0,-0.1 0.6,-0.2 1.2,-0.2 0.6,0 1.1,-0.1 1.2,-0.2 0,-0.1 0.7,-0 1.4,0.1 0.7,0.1 2.6,0.5 4.1,0.7 4.2,0.7 7.2,1.8 13.5,5 2.5,1.3 3.7,1.9 3.6,2.1 -0.1,0.3 3.9,4 8,7.2 2.2,1.8 5.9,4 6.1,3.7 0.1,-0.1 0.1,-0.4 0.1,-0.9 l 0,-0.8 2.3,1.6 c 3.2,2.2 8.6,6.3 8.9,6.7 0.2,0.2 0.2,0.4 0.1,0.5 -0.4,0.4 -2.9,0.5 -4.5,0.2 z M 14.5,49.9 C 11.1,48.7 6,45.5 3.9,43.3 3.1,42.5 3.2,42.5 5.4,35.2 l 0.6,-1.8 0.6,0.1 c 0.3,0.1 1.6,0.2 2.8,0.4 4.8,0.6 8.8,1.3 9,1.4 0.1,0.1 -0.1,0.7 -0.4,1.4 -1.4,3 -2.3,7.7 -2.3,11.7 0,1.1 -0,1.9 -0.1,1.9 -0,0 -0.5,-0.2 -1.1,-0.4 z m 203.4,0.4 c -3.7,-0.2 -6.8,-0.4 -6.9,-0.5 -0.6,-0.4 -0.2,-0.5 2,-0.4 9.2,0.5 12.5,0.7 12.6,0.8 0.2,0.2 -0.2,0.5 -0.6,0.5 -0.2,0 -3.4,-0.1 -7.1,-0.3 z M 13.9,50.6 C 10.4,49.4 4.3,45.7 2.4,43.5 c -0.4,-0.4 -0.6,-1.1 -0.3,-1.1 0.1,0 0.7,0.5 1.4,1.1 3.8,3.3 7.2,5.5 10.8,6.7 1.1,0.4 1.3,0.4 1.6,0.2 0.2,-0.2 0.3,-0.2 0.6,0.1 0.1,0.2 0.3,0.4 0.3,0.5 0,0.2 -1.3,0 -2.7,-0.5 z m 216.4,0.7 c 1,-0.6 1.1,-0.6 0.7,0 -0.2,0.3 -0.5,0.5 -0.9,0.5 h -0.6 l 0.8,-0.5 z m 1,1.5 c -0.1,-1.5 0.3,-2.2 1.9,-3 0.7,-0.3 1.7,-0.8 2.2,-1 0.5,-0.2 1.1,-0.5 1.4,-0.6 0.5,-0.3 0.8,-1.4 0.7,-1.9 -0.1,-0.2 0.1,-0.2 0.7,0.1 l 0.8,0.4 -0.7,1.1 c -0.4,0.6 -1.4,2.1 -2.3,3.5 l -1.6,2.4 h -2.9 z M 13.3,53.9 C 10.6,53 8.2,52.1 5.4,50.9 4.2,50.4 2.7,49.8 2.1,49.6 1.5,49.4 1,49.1 1,49 c 0,-0.6 0.6,-4.8 0.7,-5.1 0.1,-0.4 0.2,-0.3 1.1,0.5 3.5,3.2 8.7,6.1 12.5,7 1.4,0.3 1.3,0.1 1.6,2.5 l 0.1,1 -0.8,-0.1 c -0.4,-0.1 -1.7,-0.4 -2.9,-0.8 z m 212.2,1 c 0.2,-0.2 0.5,-0.6 0.8,-0.9 l 0.6,-0.4 v 0.7 c 0,0.9 -0.1,1 -1,1 -0.7,0 -0.7,0 -0.4,-0.4 z M 80.3,55.4 c 0,-0.3 18.8,-9.6 20.1,-9.9 1.6,-0.4 8.7,-0.5 15.2,-0.2 2.5,0.1 6.3,0.3 8.4,0.4 2.1,0.1 5.2,0.2 6.9,0.3 4.2,0.2 13.9,0.7 17.6,0.8 6.9,0.3 10,0.7 12.9,1.8 2.4,0.9 4.1,2.1 5.5,3.9 0.3,0.4 0.4,0.4 0.4,0.1 0,-0.4 -2,-2.4 -3.1,-3 -3.2,-1.9 -7.1,-2.8 -12.8,-3 -5.4,-0.2 -7.1,-0.3 -14.3,-0.7 -5.1,-0.3 -10.9,-0.5 -14.7,-0.7 -1.9,-0.1 -3.7,-0.1 -3.9,-0.2 -1.3,-0.2 -8.8,-0.4 -12.4,-0.4 -3.4,0 -4.3,0.1 -5.5,0.4 -1.1,0.3 -3.9,1.6 -11.4,5.3 l -9.9,4.9 -10.6,0.1 c -9.9,0 -10.6,0 -10.5,-0.3 1.6,-4 2.4,-7.1 2.3,-9.3 0,-1.3 -0.6,-5.2 -1,-6 -0.1,-0.3 -0.2,-0.6 -0.1,-0.6 0.1,-0.1 1.4,0 3.1,0.2 1.6,0.2 3.6,0.3 4.3,0.4 0.7,0.1 3.2,0.3 5.4,0.6 2.3,0.2 4.8,0.5 5.7,0.6 0.9,0.1 3.5,0.3 5.8,0.6 2.3,0.3 4.9,0.5 5.8,0.6 0.8,0.1 3.5,0.3 5.9,0.6 2.4,0.3 5,0.5 5.8,0.6 0.8,0.1 2.1,0.2 2.9,0.3 1.4,0.2 7.8,0.6 12.3,0.8 5,0.2 6.4,0.3 12.2,0.7 3.3,0.2 7.2,0.4 8.6,0.5 1.4,0.1 6,0.3 10.1,0.6 7.5,0.5 9.4,0.6 13.8,0.7 3.5,0.2 7.8,0.5 7.9,0.6 0.1,0 0.3,1 0.5,2.1 0.5,3 0.6,3.4 0.9,4.4 0.1,0.5 0.2,0.9 0.1,1 -0.1,0.1 -49.8,0.5 -75.8,0.5 -8,0 -14.5,0.1 -14.5,0.1 -0,0 -0,-0 -0,-0.1 z m 147.5,0 c -0.5,-0.1 -0.6,-0.2 -0.5,-0.9 0.1,-0.4 0.1,-0.9 0.2,-1.2 0.1,-0.6 1.3,-1.2 2.1,-1.2 1.3,0 1.3,0.1 1.3,1.6 0,0.8 -0.1,1.4 -0.2,1.6 -0.2,0.2 -2,0.3 -2.9,0.1 z m -14.8,0.6 c -3.8,-0.1 -4.3,-0.2 -4.1,-0.4 0.1,-0.2 0.4,-1.3 0.8,-2.6 0.4,-1.2 0.7,-2.4 0.8,-2.5 0.1,-0.2 0.4,-0.2 0.8,-0.1 0.6,0.1 11.8,0.7 12.9,0.7 0.5,0 0.3,0.2 -1.8,2.3 -1.3,1.3 -2.3,2.4 -2.3,2.5 0,0.2 -1.3,0.2 -7.2,0.1 z m 7.9,-0.4 c 0.2,-0.3 1.4,-1.6 2.7,-2.8 1.3,-1.3 2.4,-2.4 2.4,-2.6 0,-0.5 -0.7,-0.6 -8.8,-0.9 -3.5,-0.2 -6.4,-0.3 -6.5,-0.4 -0.1,-0 -0.2,-1 -0.3,-2.5 -0.1,-2.7 -0.8,-5.4 -1.8,-7.8 -1.5,-3.4 -4.5,-7 -7.3,-8.9 -1.6,-1.1 -4.8,-2.4 -7.2,-2.9 -6.1,-1.4 -13.6,0.9 -18.6,5.7 -1.3,1.3 -1.7,1.5 -1.8,1.1 -0,-0.1 -0.8,-1 -1.7,-1.9 -0.9,-1 -2.4,-2.7 -3.4,-3.8 l -1.8,-2.1 1.7,-0.4 c 0.9,-0.2 2.8,-0.7 4.3,-1 1.4,-0.3 3.4,-0.8 4.3,-1.1 2.3,-0.6 6,-1 10.2,-1.1 3,-0.1 3.8,-0 5.8,0.3 2.6,0.4 3,0.5 5.2,1.2 3,0.9 6.1,2.3 9.1,4.2 2.2,1.3 9.7,7 12.8,9.7 0.5,0.4 1.1,0.9 1.3,1.1 0.6,0.4 3.7,3 6.6,5.5 1.5,1.3 2.8,2.4 3,2.5 0.7,0.4 2.5,0.6 4.2,0.4 1.6,-0.1 1.7,-0.1 1.7,0.2 0,0.4 -0.5,0.8 -2,1.3 -1.5,0.6 -5.1,2.4 -6.3,3.2 -1.7,1.2 -3.2,2.4 -3.9,3.4 l -0.7,0.9 h -3.6 l 0.4,-0.5 z M 58,56.1 c -0.1,-0.1 0.2,-0.2 0.6,-0.2 2.5,0 61.4,-0.2 84.3,-0.4 15.2,-0.1 27.7,-0.1 27.8,-0 0.1,0.1 -14.6,0.2 -32.6,0.3 -18,0.1 -39.2,0.2 -47.2,0.3 -24.3,0.2 -32.7,0.2 -32.9,0 z m 180,0.7 c 0.1,-0.8 -0,-1.1 -0.9,-1.5 -1.2,-0.6 -1.7,-0.7 -4,-0.9 l -2,-0.1 1.5,-0 c 1.8,-0 3.6,0.3 5.3,1 1.4,0.6 1.8,0.9 1.6,1.3 -0.2,0.4 -1.7,0.7 -1.6,0.3 z m -184.4,1.1 c 0,-0 0.3,-0.5 0.6,-1 1.6,-2.3 3,-5.7 3.3,-8.4 0.1,-0.7 0.1,-2.4 0.1,-3.6 -0.1,-4.8 -2.1,-9.2 -5.8,-12.8 -2.6,-2.5 -5.9,-4.3 -9.3,-5.1 -1.8,-0.4 -5.8,-0.5 -7.7,-0.2 -5.3,0.8 -10.3,4 -13.3,8.5 -0.9,1.3 -2,3.8 -2.6,5.7 -0.6,2.1 -0.8,5.9 -0.5,7.8 0.5,2.6 1.7,5.7 2.7,7.2 0.2,0.3 0.3,0.6 0.3,0.6 C 21.2,56.8 11,54.9 7.3,53.9 6.4,53.7 5.4,53.4 5.1,53.4 4,53.2 1.3,52.2 1.1,52 0.9,51.8 0.9,51.4 0.9,50.7 1,50.2 1.1,49.8 1.1,49.7 c 0.1,-0.1 2.1,0.6 4.4,1.6 3.9,1.7 5.9,2.4 10.3,3.7 1.6,0.5 1.5,0.5 1.4,-1.2 -0.2,-2.8 -0.3,-3.2 -0.8,-3.8 l -0.5,-0.6 0.1,-2.9 c 0.1,-2.4 0.2,-3.3 0.8,-5.4 0.4,-1.4 0.9,-3 1.1,-3.7 0.9,-2.2 0.9,-2.2 0.6,-2.5 -0.3,-0.2 -3.2,-0.7 -7.2,-1.2 -3.1,-0.4 -5.3,-0.8 -5.4,-1 -0.1,-0.1 0.1,-0.2 0.6,-0.1 0.4,0.1 1.6,0.2 2.5,0.3 1,0.1 2.5,0.3 3.4,0.5 2.5,0.4 6.6,0.9 6.9,0.8 0.2,-0.1 0.6,-0.5 1,-1 2.8,-3.9 7.9,-7.2 13.2,-8.5 2.5,-0.6 6.8,-0.6 9.3,0 5.5,1.4 9.8,4.5 13.4,9.7 0.6,0.8 1.3,2.2 2.4,4.1 0.5,0.9 0.9,2.5 1.3,4.9 0.3,2 0.3,2.5 0.1,4.2 -0.2,2 -1.3,5.5 -2.1,7.1 -0.2,0.5 -0.4,1 -0.3,1.2 0.1,0.5 -0.4,1.8 -0.8,1.9 -0.3,0.1 -3.2,0.1 -3.2,0 z M 205.1,57.7 c -0,-0 0.4,-0.8 0.9,-1.6 2.6,-4.5 3.1,-10 1.4,-14.9 -0.8,-2.3 -1.5,-3.6 -3,-5.5 -1.3,-1.7 -2.6,-2.8 -4.6,-4.1 -1.4,-0.9 -4,-2.1 -5.1,-2.3 -0.3,-0.1 -1.1,-0.2 -1.6,-0.3 -1.5,-0.4 -5.2,-0.3 -7.2,0.2 -6.7,1.5 -12,6.6 -13.8,13.4 -0.4,1.7 -0.5,2.3 -0.5,4.5 0,2.2 0.1,2.8 0.5,4.4 0.5,1.9 1.4,4 2.1,5 l 0.4,0.5 h -2.8 l -0.2,-0.7 c -0.5,-1.8 -1.2,-5 -1.5,-7 -0.2,-1.2 -0.4,-2.2 -0.5,-2.3 -0.2,-0.2 -2.6,-0.4 -10.1,-0.7 -2.3,-0.1 -6.9,-0.4 -10.2,-0.6 -3.4,-0.2 -8,-0.5 -10.2,-0.6 -2.3,-0.1 -6.8,-0.4 -10,-0.6 -3.3,-0.2 -7.1,-0.4 -8.5,-0.5 -3.4,-0.1 -10.7,-0.6 -14.1,-0.9 -2.8,-0.2 -4.1,-0.3 -9.6,-0.9 -1.9,-0.2 -4.1,-0.4 -5,-0.5 -0.9,-0.1 -2.7,-0.2 -3.9,-0.4 -2.9,-0.3 -7.5,-0.8 -9.5,-0.9 -0.8,-0.1 -3.4,-0.3 -5.6,-0.6 -2.3,-0.2 -4.9,-0.5 -5.9,-0.6 -3,-0.2 -7.4,-0.7 -7.4,-0.9 0,-0.1 0.1,-0.1 0.2,-0.2 0.4,-0 4.2,0.3 8,0.7 2.4,0.2 5.5,0.5 7,0.7 1.5,0.1 4.2,0.4 5.9,0.6 1.8,0.2 4.4,0.4 5.8,0.6 1.4,0.1 4.6,0.4 6.9,0.7 2.4,0.3 5,0.5 5.8,0.6 0.8,0.1 3.1,0.3 5.1,0.5 3.6,0.4 5.4,0.5 9.6,0.7 1.2,0.1 4.9,0.3 8.2,0.5 9.4,0.6 11.6,0.7 14,0.8 1.2,0.1 4.2,0.2 6.6,0.4 8,0.5 10.1,0.6 12.9,0.8 1.5,0.1 3,0.1 3.4,0.2 0.4,0 2.9,0.2 5.6,0.4 4.7,0.3 5,0.3 5.3,-0 0.3,-0.2 0.4,-0.6 0.4,-1.2 0,-2.5 1.3,-6.4 3.1,-9.1 0.3,-0.5 0.6,-1.1 0.6,-1.2 0,-0.1 -1.2,-1.6 -2.7,-3.3 -3.7,-4.2 -3.8,-4.3 -2.7,-3.2 0.5,0.5 1.9,2.1 3.2,3.4 1.2,1.4 2.3,2.5 2.5,2.5 0.2,0 0.8,-0.5 1.5,-1.1 2.4,-2.3 5,-3.9 8.2,-5 4.5,-1.6 8.2,-1.6 12.6,-0.1 2.7,0.9 4,1.6 5.8,3 4.9,3.9 7.9,9.9 8.1,16.4 0,0.9 0.1,1.9 0.3,2.1 0.2,0.4 0.2,0.6 -0.1,0.8 -0.2,0.2 -0.5,1 -0.8,1.9 -0.2,0.9 -0.6,2 -0.8,2.5 -0.2,0.5 -0.4,1 -0.4,1.1 0,0.1 -0.3,0.3 -0.6,0.5 -0.3,0.1 -0.7,0.5 -0.9,0.8 -0.1,0.3 -0.3,0.6 -0.4,0.7 -0.2,0.1 -1.3,0 -1.4,-0.1 z m 6.7,0.1 c -4.2,-0.1 -4.7,-0.1 -4.7,-0.4 0,-0.2 0.3,-0.5 0.7,-0.6 0.7,-0.4 1.1,-0.4 9.9,-0.4 6.5,0 6.6,0 7,-0.3 0.4,-0.4 0.5,-0.4 3.2,-0.3 3,0.1 3.1,0.1 3.3,-0.8 0.1,-0.3 0.2,-0.4 1.9,-0.3 1.9,0 3.1,0.3 4.2,1 1.6,1 -0,1.9 -4,2.2 -1.8,0.2 -12.4,0.1 -21.4,-0.1 z M 59.1,59.5 c -0.7,-0.1 -0.9,-0.2 -1.2,-0.8 -0.5,-0.8 -0.3,-1.6 0.3,-1.8 0.2,-0.1 22.1,-0.3 48.6,-0.5 26.5,-0.2 51.6,-0.3 55.9,-0.4 7.1,-0.1 7.8,-0.1 8.1,0.2 0.2,0.2 0.4,0.6 0.5,0.8 0.1,0.4 0,0.6 -0.4,0.8 -0.5,0.3 -1.4,0.3 -14.2,0.3 -14.5,-0.1 -72.3,0.3 -74.1,0.4 -0.6,0 -2,0.1 -3.1,0.2 -1.1,0.1 -2.5,0.1 -3,0.2 -0.8,0.1 -5.4,0.3 -9.5,0.5 -2.1,0.1 -7.1,0.1 -7.9,-0 z m 148.3,0.2 c -0.2,-0.2 -0.5,-0.6 -0.5,-1.1 -0.1,-0.7 -0.1,-0.7 0.2,-0.6 0.2,0.1 4.8,0.2 10.3,0.3 12.2,0.2 12.8,0.2 14.7,0 0.9,-0.1 1.5,-0.1 1.3,0 -0.6,0.3 -3.1,0.6 -6.9,0.7 -3.2,0.1 -4.3,0.2 -6.1,0.6 -2,0.4 -2.6,0.5 -7.4,0.5 -4.8,0 -5.3,-0 -5.7,-0.3 z M 36.4,49.9 c -2.5,-0.9 -3.5,-3.7 -2.3,-5.9 0.9,-1.5 2.2,-2.3 3.9,-2.3 1.8,-0 3.4,0.9 4.1,2.5 1.1,2.3 -0.2,5.1 -2.7,5.9 -1.1,0.4 -1.9,0.3 -3,-0.1 z m 3.3,0.4 c 1.4,-0.5 2.7,-1.9 3,-3.2 0.5,-2.5 -0.7,-4.7 -3,-5.5 -2.4,-0.8 -4.9,0.2 -6,2.5 -0.5,0.9 -0.4,2.9 0.1,3.9 0.5,1.1 1.7,2 2.9,2.4 1.3,0.4 1.7,0.4 3,-0.1 z m -6,10.4 c -4.7,-1.5 -8.2,-4.9 -9.9,-9.5 l -0.7,-1.9 v -3.1 c 0,-3 0,-3.1 0.6,-4.9 1.9,-5.5 6.3,-9.3 12,-10.4 1.7,-0.3 4.7,-0.1 6.6,0.5 1.5,0.5 3.6,1.5 4.8,2.4 2.1,1.5 4.2,4.6 5.1,7.2 2.8,8.2 -1.5,17 -9.8,19.7 -2,0.7 -2.1,0.7 -4.8,0.6 -2,-0 -2.6,-0.1 -3.9,-0.6 z m 7.2,0.8 c 1.3,-0.2 3.5,-1 5,-1.9 1.7,-1 3.9,-3.1 5,-4.8 6,-9.2 1.3,-21.4 -9.2,-24.1 -1.7,-0.4 -5.1,-0.5 -6.9,-0.1 -2.8,0.6 -5.3,2 -7.5,4.1 -5.3,5.2 -6.2,13.1 -2.4,19.7 0.9,1.6 3.5,4.1 5.1,5.1 1.6,0.9 3.9,1.8 5.3,2 1.3,0.2 4.3,0.2 5.6,-0 z m -8.3,2.5 c -3.5,-1.1 -5.8,-2.4 -8.3,-4.9 -2.5,-2.5 -4.2,-5.4 -5.1,-8.8 -1.3,-5.2 -0.4,-10.5 2.8,-15.1 4.7,-6.8 13.7,-9.9 21.5,-7.5 7.4,2.3 12.4,8.1 13.6,15.9 0.6,3.9 -0.7,9.1 -3.2,12.7 -2.5,3.7 -6.6,6.6 -10.9,7.7 -2.3,0.6 -3.6,0.7 -6.1,0.7 -1.8,-0.1 -2.6,-0.2 -4.4,-0.7 z M 188.6,51 c -1.1,-0.3 -2.1,-1.4 -2.5,-2.7 -0.5,-1.8 0.2,-3.5 1.9,-4.6 0.5,-0.3 1,-0.4 2,-0.4 1.2,0 1.5,0.1 2.1,0.5 0.4,0.3 1,0.8 1.3,1.2 0.4,0.6 0.5,0.9 0.6,2.1 0.1,1.2 0,1.5 -0.4,2.2 -1,1.7 -2.9,2.4 -5.1,1.8 z m 3.1,0.3 c 1,-0.3 2.5,-1.8 2.7,-2.7 0.3,-1.7 0,-3.2 -0.9,-4.2 -0.8,-0.9 -1.8,-1.4 -3.3,-1.4 -1.3,-0 -1.8,0.1 -2.5,0.6 -1.4,0.8 -2.1,2.1 -2.1,3.8 -0,3 3,5 6.1,4 z m -5.8,9.6 c -2.2,-0.7 -3.9,-1.8 -5.4,-3.2 -1.7,-1.6 -3,-3.4 -3.8,-5.7 -0.6,-1.6 -0.7,-1.9 -0.7,-4.3 -0.1,-3.1 0.2,-4.4 1.4,-6.9 1.8,-3.7 4.8,-6.3 9,-7.6 1.1,-0.4 1.7,-0.4 3.9,-0.4 2.4,0 2.7,0.1 4.3,0.6 2.6,0.9 4,1.8 5.9,3.7 1.2,1.2 1.9,2.1 2.4,3 2.5,4.8 2.4,10.1 -0.4,14.6 -1.5,2.4 -4.4,4.8 -7.3,5.9 -1.8,0.7 -2.8,0.8 -5.5,0.7 -1.9,-0.1 -2.6,-0.2 -3.7,-0.5 z m 5.6,1.1 c 2.8,-0.3 4.9,-1.1 7,-2.5 3.2,-2.2 5.5,-5.5 6.2,-9.2 1.8,-9.5 -5,-17.8 -14.5,-17.8 -7.3,0 -13.5,5.3 -14.6,12.5 -1,6.7 2.6,13.3 8.8,15.9 2,0.8 5.3,1.4 7.1,1.2 z m -4.7,2.8 c -1.4,-0.2 -4.5,-1.3 -6.2,-2.4 -4.4,-2.7 -7.1,-6.5 -8.3,-11.6 -0.3,-1.5 -0.4,-2.2 -0.3,-4.3 0.2,-4.9 1.6,-8.4 5,-11.9 2.1,-2.2 4.4,-3.6 7.6,-4.7 3.2,-1 8,-1 11.1,0.1 3.7,1.3 6.6,3.5 8.9,6.6 2.6,3.5 3.8,8.8 3.1,12.9 -1.2,7.3 -6,12.7 -13.2,14.8 -1.9,0.6 -4.7,0.7 -7.8,0.3 z m 5.7,0.5 c 2.6,-0.4 3,-0.5 5.4,-1.7 2.3,-1.1 4,-2.4 5.6,-4.1 1.1,-1.3 1.2,-1.3 2,-1.3 h 0.9 l 0.2,0.8 c 0.4,1.4 0.3,1.4 6.3,1.4 5.2,0 5.8,-0 8.4,-0.7 0.9,-0.2 2.9,-0.4 6.1,-0.5 3.6,-0.1 5,-0.2 5.8,-0.5 0.6,-0.2 2.2,-0.6 3.6,-1 2.9,-0.8 3.5,-1.2 3.1,-1.8 -0.4,-0.5 -1.7,-1.1 -3.7,-1.6 l -1.7,-0.4 2.2,-3.4 c 1.6,-2.4 2.2,-3.6 2.2,-4 0,-0.6 -0.7,-1.2 -3,-2.9 -0.8,-0.5 -2.4,-1.6 -3.5,-2.5 -1.2,-0.8 -4.3,-2.9 -7,-4.7 -2.7,-1.8 -4.9,-3.3 -4.9,-3.5 -0.2,-0.6 -1.2,-1.6 -1.9,-1.8 -0.4,-0.1 -0.9,-0.4 -1.1,-0.6 -0.5,-0.4 -1.4,-0.9 -2.2,-1 -0.4,-0.1 -0.7,-0.2 -0.8,-0.2 l -0.7,-0.2 c -0.3,-0.1 -1.8,-0.8 -3.2,-1.6 -8.7,-4.8 -13.3,-6.4 -21.2,-7.4 -0.5,-0.1 -1.7,-0.4 -2.7,-0.7 l -1.8,-0.6 -0.3,-1 c -0.6,-1.9 -0.6,-1.9 -0.3,-1.9 0.2,0 0.5,-0.2 0.9,-0.5 1.4,-1.2 0.1,-2.6 -3.5,-3.8 -1.8,-0.6 -3.1,-0.7 -3.4,-0.3 -0.4,0.5 -0.7,1.9 -0.7,3.3 0,1.2 -0,1.3 -0.4,1.1 -0.4,-0.1 -4.2,-1.8 -7.1,-3.1 -0.5,-0.2 -1.9,-0.8 -3.1,-1.4 l -6.8,-3 c -2.5,-1.1 -4.6,-2 -4.6,-2 -0,0 -0.6,-0.3 -1.3,-0.6 -0.7,-0.3 -1.3,-0.6 -1.4,-0.6 -0.1,0 -0.7,-0.2 -1.4,-0.5 -4.4,-1.9 -7.7,-3.2 -9.7,-3.5 -4.3,-0.8 -20.2,-0.8 -26.5,-0.1 -3.2,0.4 -7,1.1 -8.3,1.6 -0.4,0.2 -0.9,0.3 -1.1,0.3 -0.5,0 -4.3,1.1 -6.5,1.9 -3.7,1.3 -8.1,3.2 -11.5,5 l -1.6,0.9 -1,-0.3 c -1.5,-0.4 -1.2,-0.5 -12.2,1.1 -1.7,0.3 -3.9,0.5 -4.8,0.7 -0.9,0.1 -3,0.4 -4.6,0.6 -1.6,0.2 -4.8,0.6 -7,0.9 -4,0.4 -4.2,0.4 -6.6,0.1 -3.4,-0.4 -8.2,-0.6 -11,-0.3 -4.5,0.4 -10.7,1.5 -14.9,2.6 l -1.8,0.5 -2.9,-1.5 c -1.6,-0.8 -3,-1.6 -3,-1.8 -0.2,-0.7 -0.9,-0.7 -7.1,-0.7 -3.5,0 -6.3,0.1 -6.6,0.2 -0.3,0.1 -0.5,0.3 -0.5,0.5 0,0.5 2.6,3.8 3.2,4.1 0.3,0.2 1,0.3 1.5,0.3 0.9,0 1.5,-0.2 3.9,-1.2 1.1,-0.5 1.1,-0.5 1.5,0.2 0.5,0.9 0.4,1.2 -0.4,1.5 -0.5,0.2 -0.8,0.4 -0.8,0.7 0,0.4 -0.1,0.4 -1.8,0.7 -1,0.2 -1.3,0.5 -1.7,1.6 -0.1,0.5 -0.7,2 -1.1,3.3 -0.5,1.3 -1.4,4 -2,6 -0.6,2 -1.2,3.7 -1.4,3.9 -0.8,1.2 -1.8,5.3 -1.8,6.9 0,0.4 -0.1,1.1 -0.3,1.6 -0.2,0.5 -0.3,1.5 -0.4,2.2 -0.1,0.7 -0.2,1.6 -0.3,2.2 -0.1,0.6 -0.2,1.8 -0.3,2.8 -0.1,2.3 -0.1,2.4 2.3,3 6.3,1.8 10.4,2.7 16.4,3.6 l 2.7,0.4 1.1,1.3 c 3.1,3.7 8,6.2 12.8,6.7 1.9,0.2 3.1,0.2 5.7,-0.1 1.3,-0.1 4.4,-1.2 6,-2.1 1.7,-0.9 3.2,-2.1 4.7,-3.6 l 1.1,-1.1 h 3.8 l 0.4,0.8 c 0.3,0.6 0.6,0.9 0.9,0.9 0.8,0.2 11,-0 14.8,-0.3 2,-0.2 5.6,-0.4 8.1,-0.5 5.3,-0.2 58.2,-0.6 76.2,-0.6 6.9,0 12.7,0 12.9,0 0.2,-0 0.7,-0.2 1,-0.5 0.5,-0.4 0.7,-0.5 2,-0.5 h 1.4 l 0.8,1 c 3.8,4.9 10.8,7.6 17,6.7 z"/>
<path style="fill:#c17d11; stroke:#c17d11; stroke-width:1;" d="m 330,5.4 c -0.1,-0 -0.3,-0 -0.5,0 -0.1,0 -0,0.1 0.2,0.1 0.3,0 0.4,-0 0.2,-0.1 z m 13.5,0.6 c -0.1,-0.2 -0.3,-0.3 -0.3,-0.3 -0,0 -0,0.1 0.1,0.3 0.1,0.2 0.2,0.3 0.3,0.3 0.1,0 0.1,-0.1 -0.1,-0.3 z m -0.6,0.1 c 0,-0.1 -0.2,-0.3 -0.4,-0.4 -0.5,-0.2 -5.4,-0.7 -9.7,-0.9 -3.9,-0.2 -15.8,-0.2 -19.3,0 -5.9,0.4 -9.2,0.8 -9.5,1.1 -0.2,0.2 -0.2,0.3 0.3,0.3 0.3,0 1.1,-0.1 1.8,-0.2 7.9,-1.1 26.4,-1.1 34.9,0.1 1,0.1 1.8,0.3 1.8,0.3 0,0 0.1,-0.1 0.1,-0.2 z m -39.4,-0.1 c 0.1,-0.2 0.1,-0.3 0.1,-0.3 -0,0 -0.2,0.1 -0.3,0.3 -0.1,0.2 -0.2,0.3 -0.1,0.3 0.1,0 0.2,-0.1 0.3,-0.3 z m -1.2,1.2 c 0.3,-0.6 0.1,-0.4 -1.3,1.2 l -1.4,1.5 1.3,-1.2 c 0.7,-0.7 1.3,-1.4 1.4,-1.5 z M 273.8,17.6 c 0.7,-0.4 1.3,-0.7 1.3,-0.8 0,-0.2 -0.1,-0.4 -1.5,-1.4 -0.8,-0.7 -1,-1.4 -0.4,-1.5 0.4,-0.1 1.7,0.9 1.6,1.1 -0.1,0.1 0.1,0.3 0.4,0.6 0.4,0.4 0.6,0.5 0.8,0.3 0.5,-0.4 0.3,-0.9 -0.6,-1.5 -1.6,-1.1 -4.1,-1.6 -5.8,-1.1 -1.4,0.5 -3.4,2 -3.4,2.6 0,0.6 1.6,1.7 3.1,2.2 0.4,0.1 1.4,0.2 2.1,0.2 1.1,-0 1.6,-0.2 2.6,-0.7 z m 104.1,0.3 c 1.2,-0.5 2.6,-1.4 2.6,-2 0.1,-0.5 -1.3,-1.7 -2.5,-2.3 -1,-0.5 -3.1,-0.7 -4.3,-0.4 -1.3,0.3 -3,1.4 -3.2,2 -0.2,0.7 0.2,1 0.8,0.4 0.3,-0.2 0.5,-0.6 0.5,-0.7 0,-0.4 1.2,-1.2 1.6,-1.2 0.7,0.1 0.5,0.8 -0.4,1.5 -1.1,0.9 -1.4,1.2 -1.4,1.4 0,0.2 2.1,1.3 2.9,1.5 0.9,0.2 2.1,0.1 3.4,-0.4 z m -17.1,0.7 c 0.1,-0 -0.6,-0.1 -1.5,-0.1 -0.9,0 -1.9,0.1 -2.1,0.1 -0.3,0.1 3.2,0.1 3.6,-0.1 z m -71.3,0.1 c -0.2,-0.1 -1.1,-0.2 -2.1,-0.2 l -1.8,0 1.6,0.1 c 0.9,0.1 1.8,0.1 2.1,0.2 0.4,0 0.4,0 0.2,-0.1 z m 62.9,-1 c -1,-1.9 -3.1,-5.1 -4.1,-6.1 -0.4,-0.4 -0.6,-0.5 -0.3,-0.3 1.6,1.9 5,7.4 5,8 0,0.1 0.1,0.1 0.1,0.1 0.1,-0.1 -0.2,-0.8 -0.7,-1.7 z m 13.5,1.7 c 0,-0.2 -1.5,-0.5 -3,-0.7 -0.8,-0.1 -0.7,-0 0.5,0.2 0.9,0.2 1.7,0.4 1.9,0.5 0.4,0.2 0.6,0.2 0.6,0 z m -82.8,-0.5 c 0.8,-0.1 1.2,-0.3 0.9,-0.3 -0.4,-0 -1.3,0.1 -2.9,0.5 -0.2,0 -0.4,0.2 -0.4,0.3 0,0.1 0.2,0.1 0.5,-0 0.3,-0.1 1.2,-0.3 1.9,-0.4 z m 78.5,1.3 c 0,-0.1 -0.2,-0.4 -0.4,-0.8 -0.4,-0.7 -0.8,-0.7 -2.8,-0.5 l -1,0.1 0.5,0.4 c 0.9,0.7 1.5,0.9 2.6,0.9 0.6,0 1.1,-0.1 1.1,-0.1 z m -73.4,-0.5 c 0.8,-0.5 0.8,-0.6 0.5,-0.7 -0.2,-0.1 -1,-0.1 -1.8,-0.1 l -1.3,-0 -0.3,0.7 c -0.2,0.4 -0.3,0.7 -0.3,0.8 0,0.1 0.5,0.1 1.2,0 0.9,-0.1 1.4,-0.2 2.1,-0.6 z m 74.1,0.4 c -0.4,-0.9 -1,-2.1 -1.1,-1.9 -0.1,0.2 1,2.3 1.2,2.3 0,0 0,-0.2 -0.1,-0.5 z m -77.6,-0.7 c 0.5,-1.1 0.7,-1.6 0.2,-1.1 -0.2,0.3 -1,2.2 -0.9,2.2 0.1,0 0.3,-0.5 0.7,-1.1 z m 80.8,1 c 0.2,-0.5 0.1,-0.6 -0.5,-0.8 -1.1,-0.4 -2.8,-0.5 -2.8,-0.3 0.1,0.7 0.4,1 1.2,1.2 1.3,0.3 1.9,0.3 2,-0 z m -82.9,0.1 c 1,-0.2 1.2,-0.3 1.4,-0.7 0.1,-0.3 0.2,-0.5 0.1,-0.6 -0.1,-0.2 -3,0.3 -3.2,0.5 -0.2,0.2 0,1 0.3,1 0.1,0 0.7,-0.1 1.4,-0.2 z m 70.9,-0 c -0.4,-1.1 -0.6,-1 -0.2,0.2 0.2,0.5 0.3,0.8 0.4,0.8 0.1,-0 -0.1,-0.5 -0.2,-1 z m -59.4,-2.3 c 0.9,-1.7 2.4,-4.2 3.7,-5.9 0.8,-1 0.9,-1.2 0.3,-0.6 -0.8,0.9 -2.8,3.8 -3.8,5.7 -0.7,1.2 -1.7,3.6 -1.6,4 0,0.1 0.2,-0.3 0.4,-0.9 0.2,-0.6 0.7,-1.7 1,-2.3 z m 75.5,3.6 c 0,-0.4 -0.6,-1.7 -0.8,-1.6 -0.2,0.1 -1.1,1.5 -1.1,1.7 0,0.1 0.4,0.1 0.9,0.1 0.5,0 0.9,-0.1 0.9,-0.1 z m -2.5,-0 c 0.2,-0.1 0.8,-0.9 1.4,-1.8 1.4,-2.1 3.2,-4.2 4.1,-4.8 0.7,-0.5 0.9,-0.9 0.5,-0.9 -0.3,0 -0.9,0.5 -0.9,0.8 0,0.1 -0.4,0.7 -0.9,1.2 -0.5,0.5 -1.7,1.9 -2.6,3 l -1.7,2.1 -1.2,0.1 c -0.7,0.1 -1.3,0.2 -1.3,0.3 -0.1,0.2 2.3,0.2 2.7,-0 z m -85.1,0 c 0,-0.1 -0.6,-0.2 -1.3,-0.3 -1.3,-0.1 -1.3,-0.2 -1.9,-0.9 -1,-1.3 -2.6,-3.2 -3.6,-4.3 -0.5,-0.6 -1,-1.2 -1.1,-1.4 -0.1,-0.4 -1,-0.8 -1.2,-0.6 -0.1,0.1 0.1,0.3 0.4,0.5 1,0.7 2.7,2.6 4.3,4.8 0.8,1.2 1.6,2.1 1.7,2.2 0.4,0.2 2.8,0.1 2.8,-0 z m -3.8,-0.7 c -0.3,-0.5 -0.6,-0.9 -0.7,-0.9 -0.1,-0 -0.3,0.3 -0.5,0.8 l -0.4,0.9 h 2.2 z m 11.7,-1 c 0.7,-1.2 1.4,-2.4 1.5,-2.6 0.3,-0.4 0.3,-0.4 -1,-0.6 -3.7,-0.4 -11.7,0.9 -12.4,2 -0.1,0.1 0.2,0.6 0.6,1.1 0.4,0.5 0.7,0.9 0.7,0.9 0,0 0.3,0.1 0.7,0.2 l 0.7,0.1 -0.4,-0.8 c -0.5,-0.9 -0.5,-1.3 -0.2,-1.4 0.1,-0 1.1,-0.2 2.1,-0.4 1,-0.2 2,-0.4 2.1,-0.5 0.2,-0.1 4.4,0.1 5,0.3 0.6,0.2 0.4,0.4 -0.8,1.2 -1.2,0.8 -1.2,0.8 -3.3,0.9 -1.2,0.1 -2.5,0.2 -2.9,0.3 l -0.8,0.1 0.5,0.5 c 0.4,0.4 0.7,0.5 1.6,0.5 0.6,0 1.7,0.1 2.4,0.2 2.8,0.3 2.4,0.5 3.8,-2 z m 71.5,1.9 c 2,-0.1 2.3,-0.2 2.7,-0.6 l 0.4,-0.4 -1,-0.1 c -0.5,-0.1 -1.8,-0.1 -2.8,-0.2 -1.9,-0.1 -2.3,-0.2 -3.9,-1.4 -1.1,-0.8 -0.9,-0.9 2.4,-1.2 1.2,-0.1 2.2,-0.1 2.3,-0 0.1,0.1 0.9,0.3 2,0.5 1.9,0.3 2.6,0.5 2.6,0.9 0,0.1 -0.2,0.5 -0.4,0.9 l -0.4,0.7 h 0.5 c 0.6,0 0.9,-0.2 1.7,-1.3 0.6,-0.7 0.6,-0.8 0.3,-1.1 -0.4,-0.4 -3.1,-1.2 -5.3,-1.5 -2.3,-0.3 -5.9,-0.5 -7.2,-0.3 l -1,0.1 1.5,2.6 1.5,2.6 0.8,-0.1 c 0.5,-0.1 1.8,-0.2 3.1,-0.3 z m -8,1.7 c 0.3,-0.3 0.5,-0.6 0.4,-1.2 l -0,-0.7 -0.1,0.7 c -0.2,0.8 -0.6,1.4 -1.2,1.5 -0.4,0.1 -0.4,0.1 0,0.1 0.2,0 0.6,-0.2 0.9,-0.4 z m -2.4,0.8 c 0.5,-0.1 0.9,-0.2 0.9,-0.3 -0,-0 -0.7,0 -1.4,0.2 -0.7,0.1 -1.1,0.3 -0.9,0.3 0.2,0 0.8,-0.1 1.4,-0.2 z m -56.1,-0.3 c -2,-0.5 -2.4,-0.8 -2.5,-1.9 l -0.1,-0.8 -0,0.8 c -0.1,1.1 0.4,1.5 2.1,1.9 0.8,0.2 1.7,0.4 1.9,0.4 0.2,0 -0.4,-0.2 -1.4,-0.4 z m 54.1,0.5 c -0.1,-0 -0.3,-0 -0.5,0 -0.1,0 -0,0.1 0.2,0.1 0.3,0 0.4,-0 0.2,-0.1 z m -51.3,0 c -0.1,-0 -0.3,-0 -0.5,0 -0.1,0 -0,0.1 0.2,0.1 0.3,0 0.4,-0 0.2,-0.1 z m 47.8,0.6 c 1.3,-0.2 2.3,-0.4 2.3,-0.4 -0.1,-0.1 -1.6,0.1 -3.4,0.3 -1.8,0.2 -3.8,0.4 -4.4,0.5 -0.6,0 -0.1,0 1.1,0 1.2,-0 3.2,-0.2 4.5,-0.4 z m 0.2,-16 c -0.3,-0.3 -0.5,-0.6 -0.4,-0.7 0.1,-0 0.3,0.2 0.6,0.5 0.3,0.3 0.5,0.6 0.4,0.7 -0.1,0 -0.3,-0.2 -0.6,-0.5 z M 333.3,25.6 c 5.8,-0 7.9,-0.2 15,-1 1.6,-0.2 5,-1 5.1,-1.2 0.6,-0.9 0.2,-2.5 -1.5,-5.6 -1.2,-2.3 -2.1,-3.6 -3.9,-6 -1.5,-1.8 -1.7,-2.3 -0.9,-1.5 l 0.5,0.5 -0.5,-0.6 c -0.9,-1.1 -2.7,-3 -3,-3.2 -0.2,-0.1 0.1,0.2 0.6,0.7 0.5,0.5 0.8,0.9 0.7,0.9 -0.1,0 -0.5,-0.4 -1,-0.9 -1,-1 0,-0.9 -7.4,-1.4 -9.7,-0.7 -20,-0.7 -28.8,0.1 -1,0.1 -2.6,0.2 -3.5,0.3 l -1.6,0.1 -1.6,1.8 c -0.9,1 -1.7,1.7 -1.8,1.7 -0.1,-0 -0.3,0.1 -0.5,0.3 l -0.4,0.4 0.4,-0.4 c 0.7,-0.6 0.5,-0.2 -0.8,1.5 -0.7,0.8 -1.5,2.1 -2,2.7 -1.7,2.5 -3.6,6.6 -3.6,7.7 0,1.2 1.4,1.7 7.5,2.4 5.2,0.6 8.6,0.8 14.1,0.8 h 4.6 l 0.2,-0.5 c 0.2,-0.5 0.6,-0.6 1,-0.2 0.2,0.2 0.3,0.2 1.1,0 1.2,-0.3 2.7,-0.3 3.6,0 0.6,0.2 0.8,0.2 1.1,0.1 0.6,-0.3 0.9,-0.2 1.1,0.2 0.1,0.4 0.2,0.4 0.7,0.4 0.3,-0 2.8,-0.1 5.4,-0.1 z m -8.2,-0.2 c 0.1,-0.1 0.1,-0.2 0.1,-0.2 -0.1,0 -0.5,-0.1 -1.1,-0.2 -1,-0.2 -3,0.1 -2.7,0.4 0.4,0.4 3.3,0.4 3.7,-0 z m -18.4,0.3 c -0.5,-0 -2.5,-0.2 -4.5,-0.5 -1.9,-0.2 -3.6,-0.3 -3.6,-0.3 -0.1,0.1 0.1,0.1 0.3,0.1 0.2,0 1.6,0.2 3,0.4 1.4,0.2 3.3,0.3 4.1,0.3 0.9,0 1.2,-0 0.7,-0.1 z m 30.4,0.2 c -0.1,-0 -0.3,-0 -0.5,0 -0.1,0.1 -0,0.1 0.2,0.1 0.3,0 0.4,-0 0.2,-0.1 z m -3.6,0 c -0.2,-0 -0.7,-0 -0.9,0 -0.3,0 -0.1,0.1 0.4,0.1 0.5,0 0.8,-0 0.5,-0.1 z m -18.3,0 c -0.4,-0 -1,-0 -1.3,0 -0.3,0 -0,0.1 0.7,0.1 0.7,0 1,-0 0.6,-0.1 z m 9.6,4.9 c 0.4,-0.4 1,-1 1.2,-1.4 0.6,-1.1 1.1,-3.3 0.9,-3.8 l -0.2,-0.4 -0.8,0.4 c -0.5,0.3 -1.3,0.4 -2.3,0.5 -1.3,0.1 -1.7,0 -2.7,-0.4 -0.6,-0.3 -1.2,-0.4 -1.3,-0.4 -0.2,0.2 -0.1,1.5 0.2,2.5 0.7,2.2 2.6,4.1 3.9,3.8 0.2,-0 0.7,-0.4 1.1,-0.7 z m -29.3,2.5 c -0.2,-2 -1.2,-5.8 -1.7,-6.9 -0.6,-1.2 -0.5,-1.3 0.5,-1.2 1.5,0.2 4.8,0.3 4.7,0.2 -0,-0 -1,-0.2 -2.2,-0.4 -2.8,-0.4 -3.9,-0.7 -4.3,-1.3 -0.5,-0.6 -0.5,-1.3 0,-2.7 1.4,-4.1 4.3,-8.6 9,-13.5 l 1.6,-1.7 -0.7,0.1 c -1,0.2 -1.6,0.6 -3.4,2.8 -1.6,1.9 -1.9,2.3 -4.8,6 -1.4,1.8 -3.5,5.2 -4.5,7 -0.3,0.6 -0.3,0.7 0.1,0.9 1.3,0.8 2.5,2.6 3.9,5.7 0.8,1.9 1.9,5.7 2,6.7 0,0.3 0.1,0.4 0.1,0.2 0.1,-0.1 0,-1 -0.1,-2 z m 56.2,-1.2 c 1,-3.7 3.2,-8 4.8,-9.1 0.4,-0.3 0.8,-0.6 0.8,-0.7 0,-0.3 -2.5,-4.5 -3.6,-6 -1.7,-2.3 -6,-7.7 -7.3,-9 -1,-1 -1.9,-1.6 -2.8,-1.6 -0.1,0 0.4,0.6 1,1.3 4.5,4.7 7.8,9.6 9.2,13.5 1.1,3.3 0.6,3.8 -4.7,4.6 -0.8,0.1 -1.5,0.3 -1.5,0.3 0,0 1.3,-0 2.8,-0.1 1.5,-0.1 2.7,-0.1 2.8,-0.1 0,0 -0.2,0.5 -0.4,1 -0.6,1.2 -1.5,4.9 -1.9,7.6 -0.4,2.7 -0.4,3.8 0,1.6 0.1,-0.9 0.5,-2.4 0.7,-3.4 z m -55.9,3.8 c -0.1,-0.2 -0.1,0 -0.1,0.4 0,0.4 0,0.6 0.1,0.3 0.1,-0.2 0.1,-0.6 0,-0.8 z m 0.2,1.7 c -0.1,-0.2 -0.1,0 -0.1,0.4 0,0.4 0,0.6 0.1,0.3 0.1,-0.2 0.1,-0.6 0,-0.8 z m 54.7,0 c -0.1,-0.3 -0.1,-0.1 -0.1,0.4 0,0.5 0,0.8 0.1,0.5 0.1,-0.2 0.1,-0.7 0,-0.9 z m 22.2,13.7 c 1.9,-0.4 2.5,-0.7 2.3,-0.9 -0.1,-0 -0.7,0.1 -1.6,0.4 -0.8,0.2 -1.9,0.5 -2.4,0.7 -0.5,0.1 -0.9,0.3 -1,0.4 -0.1,0.1 0,0.1 0.2,0.1 0.2,-0.1 1.3,-0.3 2.5,-0.6 z m -96.5,0.4 c -0.3,-0.1 -0.8,-0.3 -1.1,-0.4 -0.4,-0.1 -1.3,-0.3 -2.1,-0.6 -1.4,-0.4 -1.9,-0.5 -1.5,-0.1 0.1,0.1 1.7,0.6 4.5,1.2 0.7,0.2 0.8,0.1 0.3,-0.1 z m 96.9,5.3 c 1,-0.2 1.8,-0.4 1.9,-0.6 0.1,-0.1 0.6,-3.9 0.7,-5.7 0,-0.1 -0.1,-0.1 -0.3,0 -0.5,0.3 -4.7,1.3 -5.2,1.3 -0.2,0 -0.5,0 -0.5,0.1 -0.1,0.1 0.3,1.4 1.2,4 0.2,0.6 0.4,1.2 0.5,1.2 0,0 0.8,-0.2 1.8,-0.4 z m -97.2,-2.2 c 0.5,-1.6 0.8,-2.6 0.6,-2.6 -0.1,-0 -1.2,-0.3 -2.5,-0.6 -1.2,-0.3 -2.5,-0.6 -2.9,-0.8 -0.3,-0.1 -0.6,-0.2 -0.6,-0.1 0,0.1 0.1,1.3 0.3,2.8 0.2,2.3 0.3,2.7 0.6,2.9 0.3,0.2 2.7,0.8 3.4,0.8 0.1,0 0.6,-1.1 1.1,-2.5 z m 91.9,-19.5 c -0.1,-0.1 -0.1,-0 -0.1,0.2 0,0.3 0.1,0.4 0.1,0.2 0.1,-0.1 0.1,-0.3 0,-0.5 z m -1.2,2 c 0.2,-0.2 0.5,-0.4 0.6,-0.3 0.1,0.1 0.2,0 0.3,-0.1 0.1,-0.2 0.1,-0.2 -0.1,-0.1 -0.2,0.1 -0.2,0.1 -0.1,-0.2 0.3,-0.9 0.3,-1.4 -0.1,-2 -0.5,-0.9 -1.4,-1.3 -2.3,-1.2 -1.8,0.2 -2.6,2.5 -1.4,3.7 0.3,0.2 0.4,0.5 0.4,0.6 -0.1,0.1 0.5,0.1 1.1,0.1 1,-0 1.3,-0.1 1.7,-0.4 z m -2.4,1 c -2.1,-0.7 -2.7,-3.2 -1.2,-4.7 0.7,-0.7 1.8,-1.1 2.6,-0.9 0.6,0.2 1.7,0.8 1.7,1 0,0.1 -0.3,-0 -0.7,-0.3 -1.7,-1.2 -4.2,0.1 -4.2,2.2 0,0.6 0.4,1.5 0.9,1.9 0.2,0.1 0.1,-0.1 -0.2,-0.5 -0.6,-0.9 -0.6,-1.8 -0.1,-2.7 1,-1.6 3.5,-1.5 4.4,0.2 0.2,0.3 0.3,0.5 0.3,0.3 0,-0.2 -0.1,-0.4 -0.2,-0.4 -0.2,-0.1 -0.2,-0.5 0,-0.5 0.2,0 0.6,1.1 0.6,1.7 0,1.3 -1.2,2.6 -2.5,2.8 -0.3,0.1 -0.9,-0 -1.3,-0.2 z m 1.3,1.5 c -0.1,-0.1 0.2,-0.3 0.6,-0.5 1.4,-0.8 2.7,-3.2 2.4,-4.7 -0.4,-2.1 -3.4,-3.2 -5.3,-2 -2.5,1.7 -1.5,6.6 1.5,7.1 0.4,0.1 0.8,0.1 0.8,0.1 0,0 0,-0 -0.1,-0.1 z m -1.3,0.6 0.6,-0.2 -0.7,-0.3 c -1.4,-0.6 -2.7,-2.6 -2.7,-4.2 0,-1.5 1.1,-3.2 2.3,-3.7 0.8,-0.3 2.2,-0.2 3,0.1 0.9,0.4 1.8,1.5 2,2.4 0.2,0.7 0.2,0.7 0.1,-0.4 -0.1,-2.2 -1.6,-4.4 -3.1,-4.4 -1.4,0 -3.1,1.5 -4,3.3 -0.6,1.4 -0.7,1.5 -1,1.7 -0.4,0.3 -1,-0.3 -1.2,-1.2 -0.1,-0.4 -0.5,-1.1 -0.9,-1.5 -0.8,-0.8 -1.4,-1 -2.6,-0.5 -1.3,0.6 -3.3,2.9 -3.6,4.1 -0.1,0.4 -0.1,0.4 0.2,-0.2 0.6,-1.5 1.9,-2.3 3.6,-2.3 2.5,0 4.2,2.1 3.7,4.3 -0.1,0.5 -0.3,1.1 -0.5,1.4 -0.2,0.3 -0.2,0.5 -0.1,0.4 0.1,-0.1 0.3,-0.4 0.5,-0.7 0.3,-0.7 0.9,-1.1 1.4,-1 0.2,0.1 0.7,0.8 1.1,1.6 0.8,1.6 0.9,1.6 1.9,1.2 z m -1.6,0.2 c -0.3,-0.9 -1.3,-2.7 -1.5,-2.8 -0.3,-0.1 -0.9,0.4 -1.4,1.3 -0.4,0.6 -0.4,0.6 0,0.4 0.7,-0.4 1.5,-0.2 2.1,0.4 0.3,0.3 0.5,0.7 0.5,0.9 0,0.2 0.1,0.4 0.2,0.3 0.1,-0.1 0.1,-0.3 0.1,-0.5 z m -3.9,-0.3 0.4,-0.8 -0.4,0.5 c -0.2,0.3 -0.7,0.7 -1.1,0.9 l -0.6,0.4 0.7,-0 c 0.6,-0 0.7,-0.1 1.1,-0.9 z m -4.3,-1.4 c 0,-0 -0.1,-0.2 -0.3,-0.3 -0.3,-0.2 -0.3,-0.2 -0.1,0.1 0.2,0.3 0.4,0.4 0.4,0.3 z m 2.9,-0.2 c 0.4,-0.3 0.7,-0.4 0.8,-0.3 0.1,0.1 0.1,0 0,-0.1 -0.1,-0.1 -0,-0.5 0.1,-0.9 0.6,-1.8 -1.7,-3.4 -3.4,-2.4 -1.2,0.7 -1.4,2.5 -0.5,3.4 0.3,0.2 0.4,0.5 0.4,0.5 -0,0.1 0.4,0.1 0.9,0.2 0.8,0 1.1,-0 1.7,-0.4 z m -2.6,0.7 c -0.7,-0.3 -1.5,-1.3 -1.7,-2.1 -0.3,-1.4 1,-3.2 2.5,-3.4 0.8,-0.1 2.1,0.2 2.1,0.5 0,0.1 -0.1,0.1 -0.3,0.1 -1.2,-0.5 -1.8,-0.5 -2.8,0.1 -1,0.5 -1.5,2.5 -0.9,3.3 0.3,0.4 0.3,0.4 0.1,-0 -0.3,-0.6 -0.2,-1.5 0.1,-2.1 0.8,-1.5 3.5,-1.8 4.3,-0.4 0.1,0.2 0.3,0.3 0.3,0.3 0.1,-0.1 -0.1,-0.3 -0.3,-0.6 -0.3,-0.3 -0.3,-0.5 -0.2,-0.4 1,0.3 1.4,2.6 0.6,3.7 -0.9,1.3 -2.4,1.7 -3.8,1.1 z m 2.4,1.4 c 1,-0.5 1.6,-1.1 2.2,-2.3 0.5,-1.1 0.6,-2.5 0.2,-3.3 -0.9,-1.7 -3,-2.4 -4.8,-1.5 -1,0.5 -1.5,1 -1.8,2.2 -0.3,0.9 -0.3,1.1 0,2.1 0.2,0.6 0.5,1.3 0.7,1.5 0.2,0.2 0.3,0.5 0.3,0.6 -0.1,0.1 0,0.1 0.1,0.1 0.1,-0 0.2,0 0.2,0.2 -0,0.1 0.1,0.3 0.3,0.5 0.3,0.2 0.3,0.2 0.1,-0.1 -0.3,-0.4 -0.2,-0.4 0.6,0 0.8,0.5 1.1,0.5 2,0 z m 4.5,1.2 c 0.6,-0.8 0.5,-1.6 -0.4,-2 -0.7,-0.4 -1,-0.3 -1.6,0.2 -0.6,0.6 -0.6,1.2 -0.1,1.9 0.3,0.4 0.6,0.5 1,0.5 0.5,0 0.7,-0.1 1,-0.5 z m -0.2,1.2 0.5,-0.4 -1.1,0.1 c -1,0.1 -1.1,0 -1.5,-0.4 -0.7,-0.7 -0.6,-0.2 0.1,0.6 0.7,0.8 1.2,0.8 2,0.2 z m -2,0.3 c -0.3,-0.3 -0.7,-0.9 -0.8,-1.3 l -0.2,-0.8 -1.6,0.1 c -1.4,0.1 -1.7,0 -2.3,-0.3 -1.2,-0.7 -2.1,-2.4 -2.3,-4.2 -0.1,-0.9 -0.1,-1.2 0.5,-2.2 0.8,-1.7 2.4,-3.2 3.7,-3.6 1.2,-0.4 1.8,-0.3 2.5,0.5 0.6,0.6 0.8,1 1.3,2.1 0.2,0.4 0.4,0.7 0.6,0.7 0.2,0 0.4,-0.3 0.6,-0.7 0.9,-2.2 2.2,-3.6 3.8,-4.2 0.9,-0.3 1.5,-0.1 2.5,0.8 2.6,2.4 2,7.4 -1.2,9.4 -0.5,0.3 -1.5,0.7 -2.2,1 -1.2,0.4 -1.3,0.5 -1.6,1.2 -0.6,1.3 -1.6,2.2 -2.3,2.2 -0.1,0 -0.5,-0.2 -0.9,-0.5 z M 279.1,34.7 c 0.1,-0.2 0,-0.3 -0.1,-0.3 -0.1,0.1 -0.2,0.2 -0.2,0.4 0,0.4 0.1,0.3 0.2,-0.1 z m 3.9,2.6 c 0.3,-0.3 0.6,-0.4 0.6,-0.4 0.3,0.3 0.6,-0.8 0.5,-1.6 -0.1,-0.7 -0.2,-1 -0.9,-1.6 -0.7,-0.6 -0.9,-0.7 -1.6,-0.7 -0.9,0 -1.7,0.3 -2.2,0.9 -0.1,0.2 0.1,0.1 0.5,-0.2 0.9,-0.6 2,-0.7 2.9,-0.1 0.9,0.6 1.5,2.2 1,3 -0.1,0.2 -0.2,0.1 -0.1,-0.5 0.1,-0.9 -0.2,-1.7 -1,-2.3 -0.7,-0.5 -2.1,-0.4 -2.8,0.2 -0.7,0.6 -0.9,1.6 -0.7,2.3 0.3,0.7 0.3,0.8 -0,0.6 -0.1,-0.1 -0.2,-0 -0.1,0.1 0.1,0.1 0.2,0.2 0.3,0.1 0.1,-0 0.3,0 0.4,0.2 0.7,0.8 2.3,0.8 3.2,0 z m -2.9,0.9 c -1.2,-0.6 -1.9,-2.4 -1.4,-3.6 0.3,-0.8 1.4,-1.6 2.1,-1.8 1.5,-0.3 3.3,0.9 3.6,2.4 0.2,0.9 -0.5,2.3 -1.4,2.9 -0.8,0.5 -2.1,0.6 -3,0.1 z m 2.4,1.5 c 1.9,-0.7 2.8,-3.9 1.8,-5.9 -1.1,-2.2 -4.4,-2.2 -5.8,-0.1 -0.5,0.7 -0.5,0.9 -0.4,1.8 0.1,0.6 0.3,1.4 0.6,1.9 0.3,0.5 0.4,0.9 0.4,1.1 -0.1,0.1 -0,0.1 0.1,0.1 0.1,-0.1 0.3,-0 0.3,0.1 0.2,0.4 1.8,1.3 2.3,1.3 0.2,0 0.6,-0.1 0.9,-0.2 z m 1.8,-0.5 c 0.6,-1.2 0.9,-1.6 1.2,-1.6 0.4,0 1.1,0.6 1.3,1.3 0.3,0.9 0.3,0.3 -0,-0.7 -0.4,-1.3 -0.5,-1.7 -0.1,-2.6 0.8,-2 3.3,-2.9 5.3,-1.9 0.9,0.5 1.4,1 1.8,2.1 0.1,0.4 0.3,0.6 0.3,0.4 0,-0.6 -0.7,-2 -1.7,-3 -1.6,-1.8 -3.1,-2.2 -4.3,-1.3 -0.6,0.5 -1.3,1.7 -1.3,2.2 0,0.1 -0.2,0.4 -0.4,0.6 -0.5,0.5 -0.9,0.2 -1.6,-1.3 -1,-2.1 -2.6,-3.5 -4.1,-3.5 -1.4,0 -3.1,2.6 -3.1,4.6 0,0.7 0,0.8 0.2,0.2 0.5,-2.1 2.6,-3.2 4.7,-2.6 2.5,0.7 3.4,4 1.9,6.3 -0.6,0.9 -1.7,1.7 -2.4,1.7 -0.7,0 -0.7,0 0.3,0.4 1.2,0.4 1.3,0.4 2.1,-1.3 z m 5.3,-4.5 c 0.6,-0.3 0.6,-0.3 0.1,-0.2 -0.3,0.1 -0.8,0.3 -1,0.6 -0.3,0.3 -0.3,0.4 -0.1,0.2 0.2,-0.2 0.7,-0.4 1,-0.6 z m -1.5,1.4 c 0.1,-0.2 0,-0.3 -0.1,-0.3 -0.1,0.1 -0.2,0.2 -0.2,0.4 0,0.4 0.1,0.3 0.2,-0.1 z m 4.6,-0.6 c -0.3,-0.5 -0.7,-0.8 -1.3,-1 -0.5,-0.2 -0.9,-0.3 -1,-0.2 -0.1,0.1 0.2,0.2 0.7,0.3 1.1,0.3 1.9,1.3 1.9,2.3 l 0,0.8 0.1,-0.7 c 0.1,-0.5 -0,-0.9 -0.4,-1.4 z m 0.3,2.3 c 0,-0.2 -0.3,0.1 -0.6,0.8 -0.1,0.3 -0.1,0.2 0.2,-0.1 0.2,-0.3 0.4,-0.6 0.4,-0.7 z m -1.3,1.2 c 0.2,-0 0.3,-0.1 0.3,-0.1 -0,-0 0.1,-0.4 0.4,-0.7 0.5,-0.8 0.6,-1.3 0.1,-2.3 -0.6,-1.3 -2.4,-1.6 -3.5,-0.7 -1.7,1.5 -0.5,4.2 1.7,3.9 0.4,-0.1 0.8,-0.1 1,-0.1 z m -2.6,0.5 c -1.9,-1.2 -2.1,-3.5 -0.3,-4.9 1.7,-1.3 3.9,-0.5 4.6,1.7 0.3,1 -0.2,2.2 -1.1,2.9 -0.9,0.7 -2.4,0.8 -3.2,0.3 z m 2.3,1.5 c 0.7,-0.4 0.9,-0.5 0.6,-0.1 -0.4,0.4 -0.1,0.3 0.3,-0.1 0.2,-0.2 0.2,-0.3 0.1,-0.3 -0.2,0.1 -0.2,0.1 -0.2,-0.1 0.1,-0.1 0.2,-0.3 0.4,-0.3 0.2,0 0.4,-0.1 0.5,-0.2 0.1,-0.1 0.1,-0.1 -0.1,-0 -0.3,0.2 -0.3,-0.1 0,-0.4 0.2,-0.2 0.4,-0.8 0.6,-1.4 0.2,-0.9 0.2,-1.2 0,-2 -0.7,-2.6 -3.8,-3.5 -5.9,-1.6 -1.1,1 -1.3,2.7 -0.5,4.2 0.6,1.1 1.3,1.8 2.2,2.3 1,0.4 1.2,0.4 1.9,-0 z m -6.9,-1.1 c 0,-0 0.3,-0.1 0.6,-0.3 0.5,-0.2 1,-0.2 2,0.1 0.4,0.1 0.8,0.7 0.8,1.1 0,0.2 0.1,0.3 0.3,0.3 0.2,0 0.5,0.1 0.8,0.1 0.4,0.1 0.3,0 -0.2,-0.3 -0.4,-0.2 -0.9,-0.7 -1.1,-1.1 -0.3,-0.4 -0.5,-0.6 -0.5,-0.4 -0,0.1 -0.4,-0.2 -0.7,-0.7 -0.4,-0.6 -0.8,-0.9 -0.9,-0.9 -0.3,0.1 -1.4,2 -1.6,2.9 -0.2,0.7 0.1,0.7 0.4,-0 0.1,-0.4 0.2,-0.7 0.2,-0.7 z m 2.4,2.3 c 0.3,-0.3 0.5,-0.7 0.5,-0.9 0,-0.6 -0.8,-1.4 -1.4,-1.4 -0.6,0 -1.4,0.8 -1.4,1.4 0,0.6 0.8,1.4 1.4,1.4 0.3,0 0.7,-0.2 0.9,-0.5 z m 0.3,0.9 c 0.7,-0.8 0.8,-1.3 0.1,-0.6 -0.4,0.4 -0.7,0.5 -1.3,0.5 -0.4,0 -0.9,-0.1 -1,-0.2 -0.1,-0.1 -0.2,-0.2 -0.2,-0.1 0,0.3 1,1.1 1.4,1.1 0.2,0 0.7,-0.3 1,-0.7 z m -1.6,0.8 c -0.5,-0.3 -1.2,-1.2 -1.7,-2 -0.3,-0.6 -0.5,-0.8 -1.6,-1.1 -3.1,-0.9 -4.9,-3.2 -4.9,-6.1 0,-2.1 0.7,-3.8 2.2,-4.7 0.9,-0.6 1.4,-0.6 2.5,-0.1 1.1,0.5 2.1,1.6 3,3.3 0.8,1.7 1.2,1.8 1.6,0.5 0.6,-1.7 1.6,-2.6 2.7,-2.6 1.4,0 3.3,1.5 4.4,3.6 0.5,0.9 0.6,1.2 0.6,2.3 -0,2 -1.1,3.8 -2.5,4.6 -0.5,0.3 -0.9,0.3 -2.1,0.2 l -1.5,-0.1 -0.4,1 c -0.3,0.6 -0.6,1.1 -1,1.3 -0.7,0.4 -0.8,0.4 -1.3,0.1 z m 80.2,4.7 c 0.9,-0.7 1.3,-1.4 2.9,-4.4 3.7,-7.1 5.5,-14 5.2,-19.3 -0.1,-0.9 -0,-1.1 0.1,-0.9 0.3,0.4 0.3,4.1 0,5.6 -0.5,3.1 -1.7,7 -3.1,10.4 -0.8,1.8 -2.9,6.1 -3.7,7.3 -0.5,0.8 -1.5,1.8 -1.9,1.8 -0.1,0 0.1,-0.3 0.5,-0.6 z m -84.8,0.3 c -0.7,-0.4 -1.3,-1.4 -2.8,-4.3 -2.6,-5 -4.3,-9.6 -5.2,-14.4 -0.3,-1.6 -0.4,-5.8 -0.2,-6.2 0.1,-0.1 0.1,1 0.2,2.5 0,2.2 0.1,3.2 0.5,5 0.9,3.9 2,7.1 4.2,11.6 1.8,3.7 2.6,5 3.7,5.7 0.3,0.2 0.4,0.3 0.3,0.3 -0.2,0 -0.5,-0.1 -0.8,-0.3 z m -2.9,7.7 c 1.1,-2.1 2.2,-3.1 4,-3.6 0.8,-0.2 6.8,-0.7 10.6,-0.9 10.1,-0.5 12.6,-0.5 19.9,-0.4 4.4,0.1 8.1,0.2 8.2,0.2 0.2,0.1 0.3,-0.1 0.3,-0.4 0,-0.3 -0.1,-0.6 -0.1,-0.8 -0.1,-0.1 -2.2,-0.2 -7.1,-0.3 -19.7,-0.3 -30.1,-0.7 -30.7,-1.1 -0.2,-0.1 -0,-0.2 0.6,-0.1 0.5,0.1 2.1,0.1 3.5,0.2 1.4,0.1 3.1,0.1 3.9,0.2 0.7,0 6,0.2 11.6,0.3 5.7,0.1 12,0.2 14.1,0.3 l 3.8,0.1 -0.8,-1.3 c -0.8,-1.4 -2.5,-4.3 -3.3,-5.6 -0.2,-0.4 -0.6,-1.1 -0.9,-1.5 -0.7,-1.1 -3.3,-5.7 -3.3,-5.8 0,-0.4 0.5,0.4 2.2,3.2 4.8,8.2 5.9,10.2 6.3,10.5 0.5,0.5 2.7,0.8 4,0.5 1.3,-0.3 1.4,-0.4 3.1,-3.3 1.7,-2.9 5.2,-8.9 5.8,-10 0.6,-1 0.6,-1 0.7,-0.9 0.1,0.1 -1.8,3.5 -3.3,6 -0.3,0.5 -1.3,2.3 -2.4,4 -1,1.8 -2,3.4 -2.2,3.7 l -0.4,0.5 4.2,-0.1 c 2.3,-0.1 6.8,-0.2 10,-0.2 11,-0.2 20.8,-0.5 22.8,-0.8 0.6,-0.1 0.8,-0 0.5,0.1 -0.6,0.4 -12.3,0.8 -29.9,1.1 -4.2,0.1 -7.8,0.2 -7.8,0.2 -0.1,0 -0.1,0.4 -0.1,0.7 0,0.5 0.1,0.6 0.3,0.6 0.1,-0 3.6,-0.2 7.7,-0.2 6.8,-0.1 10.5,-0 20.2,0.4 2.8,0.1 9.2,0.6 10.2,0.8 2,0.3 3.4,1.4 4.5,3.6 l 0.7,1.3 0.8,-0.1 c 0.5,-0 0.9,-0.1 0.9,-0.1 0.1,-0 -0.3,-1.3 -0.8,-2.7 -1,-3 -1,-3.1 0.6,-3.5 2.4,-0.6 4.9,-1.4 5.1,-1.6 0.6,-0.5 1,-7.9 0.8,-14.6 -0.1,-5.2 -0.5,-7.1 -1.7,-9.6 -1,-1.9 -1.8,-2.7 -3.5,-3 -2.2,-0.5 -12.8,-0.2 -14.2,0.4 -1.7,0.7 -4.3,5.5 -5.5,10.2 -0.5,2 -1.2,7.6 -1.4,11.5 -0.1,2.4 -0.4,3 -0.4,0.9 0,-2 0.3,-7.9 0.6,-9.8 0.5,-4.3 1.1,-7.3 2,-9.1 0.3,-0.6 0.4,-1 0.3,-1 -0.1,0 -2.2,0.1 -4.6,0.3 -2.5,0.2 -6.8,0.3 -9.6,0.4 -2.8,0.1 -5.7,0.1 -6.5,0.2 -0.8,0 -2.2,0.1 -3.1,0.1 l -1.7,0 -0.3,1.1 c -0.3,1.4 -0.8,2.3 -1.6,3.1 -1.3,1.3 -2.5,1.5 -3.6,0.7 -0.8,-0.5 -2,-2.5 -2.4,-3.8 l -0.3,-1.1 -2.9,-0.1 c -1.6,-0.1 -5.1,-0.2 -7.9,-0.2 -2.8,-0.1 -7.1,-0.2 -9.6,-0.4 -2.5,-0.1 -4.6,-0.3 -4.8,-0.3 -0.3,0 -0.3,0.1 0.1,0.9 0.4,0.9 1.2,3.9 1.6,5.9 0.5,3.2 1.2,14.4 0.8,14.4 -0.1,0 -0.2,-1 -0.3,-2.2 -0.2,-3.7 -0.9,-9.5 -1.3,-11.2 -1,-4.1 -3.4,-9 -5,-10.1 -1,-0.7 -3.8,-1 -9.5,-0.9 -6.5,0 -7.2,0.3 -8.7,3.3 -1.5,3.1 -2.1,8.1 -1.7,16.1 0.2,5.4 0.5,7.6 0.8,7.9 0.2,0.2 2.7,1 5.1,1.6 1.5,0.4 1.5,0.5 0.5,3.4 -0.5,1.4 -0.8,2.6 -0.8,2.7 0,0.1 0.3,0.3 0.6,0.3 l 0.8,0.1 c 0.1,0 0.5,-0.5 0.9,-1.3 z m 83.8,0.6 c 0.3,-0.2 0.4,-0.4 0.4,-1 -0.1,-0.6 -0.2,-0.7 -0.6,-0.9 -0.3,-0.1 -0.7,-0.1 -1,0 -0.4,0.1 -0.5,0.3 -0.6,0.9 -0.1,0.5 0,0.7 0.4,1 0.2,0.2 0.6,0.3 0.7,0.3 0.2,0 0.5,-0.1 0.7,-0.3 z m -1.6,0.2 c -0.9,-0.6 -0.7,-2 0.4,-2.3 0.7,-0.2 1.3,-0.1 1.8,0.5 0.9,1.2 -0.9,2.7 -2.1,1.8 z m 1.9,0.2 c 1,-0.6 0.7,-2.3 -0.5,-2.7 -1.4,-0.5 -2.9,1.2 -2.1,2.3 0.7,0.9 1.5,1 2.5,0.4 z m -75.7,-0.5 c 0.1,-0.1 0.2,-0.5 0.2,-0.8 0,-1.2 -1.8,-1.5 -2.3,-0.3 -0.4,1.2 1,2 2,1.2 z m -1.9,0.1 c -1.2,-1.2 0.2,-2.9 1.8,-2.1 0.3,0.2 0.6,0.5 0.7,0.8 0.4,1.4 -1.4,2.4 -2.4,1.3 z m 2.2,0.1 c 0.7,-0.7 0.7,-1.4 -0,-2.1 -0.4,-0.4 -0.7,-0.5 -1.1,-0.5 -0.7,0 -1.7,0.9 -1.7,1.5 0,0.7 0.3,1.3 1,1.6 0.7,0.4 1.2,0.3 1.9,-0.4 z m 73.5,0.7 c -0.6,-0.2 -1,-0.8 -1.2,-1.6 -0.1,-0.6 -0,-0.8 0.6,-1.3 0.5,-0.5 0.8,-0.7 1.4,-0.7 1.1,0 1.9,0.8 2,1.7 0,0.8 -0.5,1.7 -1.2,1.9 -0.7,0.2 5.5,-0 6.3,-0.2 0.4,-0.1 0.7,-0.2 0.7,-0.3 0,-0 -0.2,-0.5 -0.5,-1.1 -0.6,-1.2 -1.6,-2.3 -2.6,-2.8 -1.2,-0.6 -6.1,-1 -17.1,-1.5 -4.8,-0.2 -21.4,-0.2 -21.6,0 -0.1,0 -0.2,0.8 -0.3,1.7 -0.2,1.5 -0.6,3.1 -0.8,3.8 -0.1,0.3 0.7,0.3 16.2,0.4 9,0 16.8,0.1 17.4,0.1 0.7,0 1,-0 0.8,-0.1 z M 284.6,57.9 c -0.3,-0.1 -0.6,-0.6 -0.8,-0.9 -0.3,-0.6 -0.3,-0.8 -0.1,-1.2 0.3,-0.8 1,-1.3 1.9,-1.3 0.6,0 0.9,0.1 1.4,0.6 0.4,0.4 0.6,0.8 0.6,1 0,0.6 -0.5,1.5 -1,1.7 -0.4,0.2 2.7,0.2 16.9,0.2 9.5,-0 17.3,-0.1 17.4,-0.1 0,-0 -0.1,-0.4 -0.2,-0.9 -0.2,-0.5 -0.4,-1.7 -0.6,-2.8 -0.2,-1.1 -0.3,-2 -0.4,-2.1 -0.2,-0.3 -18.1,-0.2 -24.1,0.1 -14.7,0.7 -15.3,0.8 -17.1,4 -0.7,1.2 -0.7,1.3 -0.1,1.5 0.5,0.2 3.3,0.4 5.3,0.4 1.4,0 1.5,0 1,-0.2 z m 40.7,0 c 0.3,-0.3 0.9,-2.8 1.1,-4.4 0.1,-1.4 0.1,-1.5 -0.7,-1.1 -0.4,0.2 -0.4,0.2 -0.3,-0.8 l 0.1,-1 -1.7,0.1 c -0.9,0 -2,0 -2.3,-0.1 l -0.7,-0.2 0.2,0.6 c 0.1,0.3 0.2,0.8 0.2,1.1 0,0.5 -0,0.5 -0.5,0.3 -0.3,-0.1 -0.5,-0.2 -0.6,-0.1 -0.2,0.2 0.3,3.8 0.8,4.8 0.4,0.9 0.5,1 1.1,1.1 0.9,0.2 3,0 3.3,-0.3 z m 26.4,3.5 c 10,-0.1 19.1,-0.2 20.3,-0.3 2.5,-0.2 3.1,-0.5 3.6,-1.5 0.3,-0.7 0.3,-0.7 0,-1.4 -0.6,-1.2 -0.7,-1.2 -3.1,-0.7 -1.2,0.2 -2.5,0.4 -3,0.4 -0.5,0 -1.4,0.1 -2.2,0.2 -1.4,0.2 -8.8,0.2 -28.6,0.1 -12,-0.1 -12.3,-0.1 -13.3,0.3 -1.3,0.5 -2.8,0.5 -4.2,-0 l -1.2,-0.4 -19.5,0.1 c -14.1,0.1 -20,0.1 -21.1,-0.1 -0.8,-0.1 -1.9,-0.2 -2.3,-0.2 -0.5,0 -1.8,-0.2 -2.9,-0.4 -2.3,-0.5 -2.7,-0.4 -3.2,0.7 -0.3,0.6 -0.3,0.7 0.1,1.3 0.8,1.7 1.8,1.8 18.1,1.8 6.9,0 16.1,0.1 20.4,0.2 4.3,0.1 11.5,0.1 16,0.1 l 26.2,-0.2 z m 21.1,3.1 c 1.6,-0.2 2.8,-0.6 3.2,-1.2 0.4,-0.6 0.6,-4.2 0.8,-10.4 0.1,-3.7 0.1,-5.3 -0.1,-5.2 -0.1,0.1 -0.2,0.4 -0.2,0.8 0,0.9 -0.3,1.6 -0.7,1.6 -0.2,0 -0.3,0.1 -0.3,0.2 0,0.1 0.1,0.2 0.3,0.2 0.3,0 0.4,0.7 0.1,3.7 -0.1,1.4 -0.3,2.3 -0.5,2.5 -0.3,0.3 -0.2,0.4 0.2,1 0.6,0.7 0.6,1.4 0.2,2.3 -0.6,1.4 -1.8,1.6 -8.7,1.8 l -5,0.1 0.1,0.6 c 0.3,1.5 1.1,2.2 2.6,2.4 1.3,0.1 6.2,0 8.1,-0.2 z m -89.5,-0.3 c 0.6,-0.5 0.9,-0.8 1.1,-1.7 l 0.2,-0.7 -4.9,-0.1 c -7,-0.2 -8.2,-0.4 -8.8,-1.8 -0.4,-0.9 -0.4,-1.6 0.2,-2.3 0.4,-0.5 0.5,-0.6 0.2,-0.9 -0.2,-0.2 -0.4,-1 -0.5,-2.4 -0.3,-2.9 -0.3,-3.9 0.1,-3.9 0.2,0 0.3,-0.1 0.3,-0.2 0,-0.1 -0.1,-0.2 -0.3,-0.2 -0.4,0 -0.5,-0.3 -0.8,-1.8 -0.2,-1.2 -0.2,-0.6 -0.2,4.5 0.1,6.9 0.3,9.9 0.8,10.6 0.6,0.8 2,1.1 5.7,1.3 4.4,0.2 6.3,0 6.9,-0.4 z m -9.5,0.6 c -2.1,-0.2 -3.3,-0.7 -3.6,-1.6 -0.5,-1.3 -0.7,-5 -0.7,-17.8 0,-13.2 0.1,-14.7 0.9,-17.7 0.4,-1.5 1.5,-3.7 2.3,-4.5 0.6,-0.6 1.7,-1.1 3.1,-1.3 0.6,-0.1 0.7,-0.2 1.1,-1.2 0.2,-0.6 0.4,-1.2 0.3,-1.4 -0.1,-0.1 -0.5,-0.7 -1,-1.3 l -0.9,-1.1 -0.9,0.5 c -2.3,1.4 -4.8,1.5 -7,0.2 -0.9,-0.5 -1.9,-1.5 -1.9,-1.9 0,-0.5 1.5,-1.8 2.7,-2.4 2.3,-1.1 4.9,-0.9 6.9,0.6 1.2,0.8 1.4,1.3 1,2 -0.3,0.5 -0.3,0.5 0.2,1.1 0.3,0.3 0.6,0.7 0.8,0.8 0.1,0.1 0.3,0.4 0.4,0.6 0.2,0.3 0.2,0.3 0.8,-0.1 1.7,-1 5.1,-1.6 9.8,-1.7 l 3.9,-0.1 0.8,-1.1 c 2.7,-3.5 3.6,-4.6 5.4,-6.8 1.1,-1.3 2.3,-2.6 2.7,-2.8 0.7,-0.4 0.6,-0.4 9.5,-1.2 4.1,-0.4 15.2,-0.6 20.4,-0.3 6.4,0.3 13.4,1.1 14.4,1.5 1,0.5 3.7,3.7 8,9.4 l 0.9,1.2 4,0.1 c 2.2,0.1 4.6,0.2 5.4,0.4 1.9,0.4 4.2,1 4.5,1.4 0.2,0.1 0.3,0.3 0.4,0.3 0.1,0 0.5,-0.5 1.1,-1.1 1,-1.1 1,-1.1 0.7,-1.6 -0.4,-0.7 -0.2,-1.1 0.9,-1.9 2.7,-2 6.2,-1.8 8.6,0.4 1.4,1.2 1.4,1.6 -0.2,2.7 -2.5,1.8 -5,1.9 -7.8,0.2 l -0.7,-0.4 -0.8,1 c -1.2,1.5 -1.2,1.6 -0.7,2.9 0.4,1.1 0.4,1.1 1.4,1.2 1.8,0.2 2.9,1 3.9,2.8 0.7,1.3 1.1,2.3 1.5,4.4 0.4,1.8 0.4,2.4 0.5,15.2 0.1,13.1 -0.1,17.3 -0.5,18.7 -0.2,0.7 -1,1.2 -2.2,1.5 -1.2,0.3 -9.7,0.5 -10.5,0.2 -0.8,-0.3 -1.7,-1.3 -1.9,-2.3 -0.1,-0.4 -0.2,-0.8 -0.3,-0.8 -0.2,-0.1 -20.1,-0.1 -22.8,0 -2,0.1 -28.2,0.1 -29.8,0 -2.1,-0.1 -23.8,-0.1 -24,-0 -0.1,0.1 -0.2,0.4 -0.3,0.9 -0.1,0.9 -1,2 -1.9,2.3 -0.7,0.2 -5.9,0.2 -9,-0 z"/>
<text x="76.2" y="83" style="font-style:italic; fill:#0084c8; stroke-width:1px;">Side View</text>
<text x="273.7" y="83" style="font-style:italic; fill:#c17d11; stroke-width:1px;">Front View</text>
<text x="75.8" y="243.6" style="font-style:italic; fill:#73d216; stroke-width:1px;">Plan View</text>
</svg>