<?xml version="1.0" encoding="UTF-8" standalone="no"?>
<!-- Copyright 2017 mathsisfun.com -->

<svg
   width="310.4"
   height="250.2"
   version="1.1"
   style="font-family:'Comic Sans MS';font-size:32.3px;stroke-width:0.88"
   id="svg165"
   sodipodi:docname="cartesian-3d.svg"
   inkscape:version="1.1 (c68e22c387, 2021-05-23)"
   xmlns:inkscape="http://www.inkscape.org/namespaces/inkscape"
   xmlns:sodipodi="http://sodipodi.sourceforge.net/DTD/sodipodi-0.dtd"
   xmlns="http://www.w3.org/2000/svg"
   xmlns:svg="http://www.w3.org/2000/svg">
  <sodipodi:namedview
     id="namedview167"
     pagecolor="#ffffff"
     bordercolor="#666666"
     borderopacity="1.0"
     inkscape:pageshadow="2"
     inkscape:pageopacity="0.0"
     inkscape:pagecheckerboard="0"
     showgrid="false"
     inkscape:current-layer="svg165" />
  <defs
     id="defs21">
    <marker
       id="id4"
       style="overflow:visible"
       orient="auto">
      <path
         transform="scale(0.4) rotate(180) translate(10,0)"
         style="fill:black;stroke:black;stroke-width:1pt"
         d="M 0,0 L 5,-5 L -12.5,0 L 5,5 L 0,0 z "
         id="path2" />
    </marker>
    <marker
       id="id5"
       style="overflow:visible"
       orient="auto">
      <path
         transform="scale(0.4) rotate(180) translate(10,0)"
         style="fill:#3465a4;stroke:#3465a4;stroke-width:1pt"
         d="M 0,0 L 5,-5 L -12.5,0 L 5,5 L 0,0 z "
         id="path5" />
    </marker>
    <marker
       style="overflow:visible"
       orient="auto"
       id="marker10">
      <path
         transform="scale(0.8) rotate(180) translate(12.5,0)"
         style="fill:#3465a4;stroke:#3465a4;stroke-width:1pt"
         d="M 0,0 L 5,-5 L -12.5,0 L 5,5 L 0,0 z "
         id="path8" />
    </marker>
    <marker
       id="id2"
       style="overflow:visible"
       orient="auto">
      <path
         transform="matrix(-1.1,0,0,-1.1,-1.1,0)"
         style="fill:#0000ff;stroke:#0000ff;stroke-width:0.63;stroke-linejoin:round"
         d="M 8.7,4 -2.2,0 8.7,-4 C 7,-1.6 7,1.6 8.7,4 Z"
         id="path12" />
    </marker>
    <marker
       id="id1"
       style="overflow:visible"
       orient="auto">
      <path
         transform="matrix(-1.1,0,0,-1.1,-1.1,0)"
         style="fill:#ff0000;stroke:#ff0000;stroke-width:0.63;stroke-linejoin:round"
         d="M 8.7,4 -2.2,0 8.7,-4 C 7,-1.6 7,1.6 8.7,4 Z"
         id="path15" />
    </marker>
    <marker
       id="id3"
       style="overflow:visible"
       orient="auto">
      <path
         transform="matrix(-1.1,0,0,-1.1,-1.1,0)"
         style="fill:#00d800;stroke:#00d800;stroke-width:0.63;stroke-linejoin:round"
         d="M 8.7,4 -2.2,0 8.7,-4 C 7,-1.6 7,1.6 8.7,4 Z"
         id="path18" />
    </marker>
    <marker
       style="overflow:visible"
       orient="auto"
       id="id46925"
       inkscape:stockid="id46925">
      <path
         transform="scale(0.4) rotate(180) translate(10,0)"
         style="fill:#009100;stroke:#009100;stroke-width:1pt;stroke-opacity:1;fill-opacity:1"
         d="M 0,0 L 5,-5 L -12.5,0 L 5,5 L 0,0 z "
         id="path1299" />
    </marker>
  </defs>
  <linearGradient
     gradientTransform="scale(4.5607,0.219265)"
     x1="0"
     y1="114"
     x2="228"
     y2="114"
     gradientUnits="userSpaceOnUse"
     id="linearGradient29">
    <stop
       offset="0"
       style="stop-color:indigo"
       id="stop23" />
    <stop
       offset="25%"
       style="stop-color:blue"
       id="stop25" />
    <stop
       offset="100%"
       style="stop-color:white"
       id="stop27" />
  </linearGradient>
  <path
     style="marker-end:url(#id1);fill:none;fill-opacity:0.75;stroke:#ff0000;stroke-width:1.65"
     d="M 160.9,250.2 V 2.7"
     id="path31" />
  <path
     style="marker-end:url(#id2);fill:none;stroke:#0000ff;stroke-width:1.65"
     d="M 0,152.3 H 304.2"
     id="path33" />
  <text
     x="176.1"
     y="30.7"
     style="fill:#ff0000;stroke-width:1.65;stroke-linecap:round;stroke-linejoin:round"
     id="text35">y</text>
  <text
     x="272.4"
     y="137.3"
     style="fill:#0000ff;stroke-width:1.65;stroke-linecap:round;stroke-linejoin:round"
     id="text37">x</text>
  <path
     style="fill:none;stroke:black;stroke-width:0.55px"
     d="m 301.5,98.3 c 0,0 0,0 0,0 z"
     id="path39" />
  <path
     style="fill:none;stroke:#ff0000;stroke-linecap:round;stroke-linejoin:round"
     d="m 150.4,46.4 h 19.8"
     id="path41" />
  <path
     style="fill:none;stroke:#ff0000;stroke-linecap:round;stroke-linejoin:round"
     d="m 150.4,25.3 h 19.8"
     id="path43" />
  <path
     style="fill:none;stroke:#ff0000;stroke-linecap:round;stroke-linejoin:round"
     d="m 150.4,88.6 h 19.8"
     id="path45" />
  <path
     style="fill:none;stroke:#ff0000;stroke-linecap:round;stroke-linejoin:round"
     d="m 150.4,67.5 h 19.8"
     id="path47" />
  <path
     style="fill:none;stroke:#ff0000;stroke-linecap:round;stroke-linejoin:round"
     d="m 150.4,130.9 h 19.8"
     id="path49" />
  <path
     style="fill:none;stroke:#ff0000;stroke-linecap:round;stroke-linejoin:round"
     d="m 150.4,109.8 h 19.8"
     id="path51" />
  <path
     style="fill:none;stroke:#ff0000;stroke-linecap:round;stroke-linejoin:round"
     d="m 150.4,173.1 h 19.8"
     id="path53" />
  <path
     style="fill:none;stroke:#ff0000;stroke-linecap:round;stroke-linejoin:round"
     d="m 150.4,152 h 19.8"
     id="path55" />
  <path
     style="fill:none;stroke:#ff0000;stroke-linecap:round;stroke-linejoin:round"
     d="m 150.4,215.4 h 19.8"
     id="path57" />
  <path
     style="fill:none;stroke:#ff0000;stroke-linecap:round;stroke-linejoin:round"
     d="m 150.4,194.2 h 19.8"
     id="path59" />
  <path
     style="fill:none;stroke:#ff0000;stroke-linecap:round;stroke-linejoin:round"
     d="m 150.4,236.5 h 19.8"
     id="path61" />
  <path
     style="fill:none;stroke:#0000ff;stroke-linecap:round;stroke-linejoin:round"
     d="m 245.7,142.4 v 19.8"
     id="path63" />
  <path
     style="fill:none;stroke:#0000ff;stroke-linecap:round;stroke-linejoin:round"
     d="m 266.9,142.4 v 19.8"
     id="path65" />
  <path
     style="fill:none;stroke:#0000ff;stroke-linecap:round;stroke-linejoin:round"
     d="m 203.5,142.4 v 19.8"
     id="path67" />
  <path
     style="fill:none;stroke:#0000ff;stroke-linecap:round;stroke-linejoin:round"
     d="m 224.6,142.4 v 19.8"
     id="path69" />
  <path
     style="fill:none;stroke:#0000ff;stroke-linecap:round;stroke-linejoin:round"
     d="m 161.3,142.4 v 19.8"
     id="path71" />
  <path
     style="fill:none;stroke:#0000ff;stroke-linecap:round;stroke-linejoin:round"
     d="m 182.4,142.4 v 19.8"
     id="path73" />
  <path
     style="fill:none;stroke:#0000ff;stroke-linecap:round;stroke-linejoin:round"
     d="m 119,142.4 v 19.8"
     id="path75" />
  <path
     style="fill:none;stroke:#0000ff;stroke-linecap:round;stroke-linejoin:round"
     d="m 140.1,142.4 v 19.8"
     id="path77" />
  <path
     style="fill:none;stroke:#0000ff;stroke-linecap:round;stroke-linejoin:round"
     d="m 76.7,142.4 v 19.8"
     id="path79" />
  <path
     style="fill:none;stroke:#0000ff;stroke-linecap:round;stroke-linejoin:round"
     d="m 97.9,142.4 v 19.8"
     id="path81" />
  <path
     style="fill:none;stroke:#0000ff;stroke-linecap:round;stroke-linejoin:round"
     d="m 34.5,142.4 v 19.8"
     id="path83" />
  <path
     style="fill:none;stroke:#0000ff;stroke-linecap:round;stroke-linejoin:round"
     d="m 55.6,142.4 v 19.8"
     id="path85" />
  <path
     style="fill:none;stroke:#0000ff;stroke-linecap:round;stroke-linejoin:round"
     d="m 13.4,142.4 v 19.8"
     id="path87" />
  <path
     style="marker-end:url(#id3);fill:none;stroke:#00d800;stroke-width:1.65"
     d="M 310,62.2 33.7,228"
     id="path89" />
  <text
     x="43.4"
     y="203.2"
     style="fill:#00d800;stroke-width:1.65;stroke-linecap:round;stroke-linejoin:round"
     id="text91">z</text>
  <g
     transform="matrix(0.55,0,0,0.55,856.054,101.902)"
     id="g125">
    <path
       style="fill:none;stroke:#00d800;stroke-width:1.6;stroke-linecap:round;stroke-linejoin:round"
       d="m -1406,154.5 0.2,36"
       id="path93" />
    <path
       style="fill:none;stroke:#00d800;stroke-width:1.6;stroke-linecap:round;stroke-linejoin:round"
       d="m -1434.3,171.5 0.2,36"
       id="path95" />
    <path
       style="fill:none;stroke:#00d800;stroke-width:1.6;stroke-linecap:round;stroke-linejoin:round"
       d="m -1349.4,120.4 0.2,36"
       id="path97" />
    <path
       style="fill:none;stroke:#00d800;stroke-width:1.6;stroke-linecap:round;stroke-linejoin:round"
       d="m -1377.7,137.5 0.2,36"
       id="path99" />
    <path
       style="fill:none;stroke:#00d800;stroke-width:1.6;stroke-linecap:round;stroke-linejoin:round"
       d="m -1292.8,86.4 0.2,36"
       id="path101" />
    <path
       style="fill:none;stroke:#00d800;stroke-width:1.6;stroke-linecap:round;stroke-linejoin:round"
       d="m -1321.1,103.4 0.2,36"
       id="path103" />
    <path
       style="fill:none;stroke:#00d800;stroke-width:1.6;stroke-linecap:round;stroke-linejoin:round"
       d="m -1236.2,52.3 0.2,36"
       id="path105" />
    <path
       style="fill:none;stroke:#00d800;stroke-width:1.6;stroke-linecap:round;stroke-linejoin:round"
       d="m -1264.5,69.3 0.2,36"
       id="path107" />
    <path
       style="fill:none;stroke:#00d800;stroke-width:1.6;stroke-linecap:round;stroke-linejoin:round"
       d="m -1179.5,18.2 0.2,36"
       id="path109" />
    <path
       style="fill:none;stroke:#00d800;stroke-width:1.6;stroke-linecap:round;stroke-linejoin:round"
       d="m -1207.9,35.3 0.2,36"
       id="path111" />
    <path
       style="fill:none;stroke:#00d800;stroke-width:1.6;stroke-linecap:round;stroke-linejoin:round"
       d="m -1122.9,-15.8 0.2,36"
       id="path113" />
    <path
       style="fill:none;stroke:#00d800;stroke-width:1.6;stroke-linecap:round;stroke-linejoin:round"
       d="m -1151.2,1.2 0.2,36"
       id="path115" />
    <path
       style="fill:none;stroke:#00d800;stroke-width:1.6;stroke-linecap:round;stroke-linejoin:round"
       d="m -1066.3,-49.9 0.2,36"
       id="path117" />
    <path
       style="fill:none;stroke:#00d800;stroke-width:1.6;stroke-linecap:round;stroke-linejoin:round"
       d="m -1094.6,-32.8 0.2,36"
       id="path119" />
    <path
       style="fill:none;stroke:#00d800;stroke-width:1.6;stroke-linecap:round;stroke-linejoin:round"
       d="m -1009.7,-83.9 0.2,36"
       id="path121" />
    <path
       style="fill:none;stroke:#00d800;stroke-width:1.6;stroke-linecap:round;stroke-linejoin:round"
       d="m -1038,-66.9 0.2,36"
       id="path123" />
  </g>
  <text
     x="199"
     y="180.2"
     style="font-family:'Comic Sans MS';font-size:18.7px;fill:#009100;stroke-width:1.32;stroke-linecap:round;stroke-linejoin:round;stroke-dasharray:5.3, 5.3"
     id="text127">(0,0,0)</text>
  <circle
     cx="161.2"
     cy="151.7"
     r="4.37119"
     style="fill:#c4a000;stroke-width:0.83;stroke-linecap:round;stroke-linejoin:round;stroke-dasharray:2.5, 2.5"
     id="circle129" />
  <path
     style="fill:none;stroke:black;stroke-width:0.55px"
     d="m 180.7,106.1 c 0,0 0,0 0,0 z"
     id="path131" />
  <path
     style="fill:none;stroke:#009b9c;stroke-width:1.32;stroke-linecap:round;stroke-linejoin:round;stroke-dasharray:5.3, 5.3"
     d="M 84.2,115 160.2,68.7"
     id="path133" />
  <path
     style="fill:none;stroke:#009b9c;stroke-width:1.32;stroke-linecap:round;stroke-linejoin:round;stroke-dasharray:5.3, 5.3"
     d="m 84,115.5 v 82.6"
     id="path135" />
  <path
     style="fill:none;stroke:#009b9c;stroke-width:1.32;stroke-linecap:round;stroke-linejoin:round;stroke-dasharray:5.3, 5.3"
     d="M 162.3,68 H 203.8"
     id="path137" />
  <path
     style="fill:none;stroke:#009b9c;stroke-width:1.32;stroke-linecap:round;stroke-linejoin:round;stroke-dasharray:5.3, 5.3"
     d="M 202.7,69.2 V 151.8"
     id="path139" />
  <path
     style="fill:none;stroke:#009b9c;stroke-width:1.32;stroke-linecap:round;stroke-linejoin:round;stroke-dasharray:5.3, 5.3"
     d="M 83,198 H 124.7"
     id="path141" />
  <path
     style="fill:none;stroke:#009b9c;stroke-width:1.32;stroke-linecap:round;stroke-linejoin:round;stroke-dasharray:5.3, 5.3"
     d="M 125.5,115.9 201.5,69.5"
     id="path143" />
  <path
     style="fill:none;stroke:#009b9c;stroke-width:1.32;stroke-linecap:round;stroke-linejoin:round;stroke-dasharray:5.3, 5.3"
     d="M 86.4,115.2 H 128.1"
     id="path145" />
  <path
     style="fill:none;stroke:#009b9c;stroke-width:1.32;stroke-linecap:round;stroke-linejoin:round;stroke-dasharray:5.3, 5.3"
     d="m 126.6,116.3 v 82.5"
     id="path147" />
  <path
     style="fill:none;stroke:#009b9c;stroke-width:1.32;stroke-linecap:round;stroke-linejoin:round;stroke-dasharray:5.3, 5.3"
     d="m 126.9,197.3 76,-46.4"
     id="path149" />
  <rect
     x="83.8"
     y="114.8"
     width="43.2"
     height="82.9"
     style="opacity:0.08;fill:#ff00ff;stroke-width:1.64;stroke-linecap:round;stroke-linejoin:round"
     id="rect151" />
  <rect
     x="274.2"
     y="131"
     width="43.2"
     height="89.8"
     transform="matrix(1,0,-0.855721,0.517438,0,0)"
     style="opacity:0.19;fill:#19aeff;stroke-width:1.63;stroke-linecap:round;stroke-linejoin:round"
     id="rect153" />
  <circle
     cx="126"
     cy="116.2"
     r="4.37119"
     style="fill:#3465a4;stroke-width:0.83;stroke-linecap:round;stroke-linejoin:round;stroke-dasharray:2.5, 2.5"
     id="circle155" />
  <text
     x="0.3"
     y="78.1"
     style="font-size:26.4px;fill:#3465a4;stroke-width:1.32;stroke-linecap:round;stroke-linejoin:round;stroke-dasharray:5.3, 5.3"
     id="text157">(2, 4, 5)</text>
  <path
     style="marker-end:url(#id46925);fill:#c4a000;stroke:#009100;stroke-width:1.4"
     d="M 197.7,172.5 168.3,156.8"
     id="path159" />
  <rect
     x="149.8"
     y="194.1"
     width="88.6"
     height="82.9"
     transform="matrix(0.850485,-0.526,0,1,0,0)"
     style="opacity:0.16;fill:#ff00ff;stroke-width:1.64;stroke-linecap:round;stroke-linejoin:round"
     id="rect161" />
  <path
     style="marker-end:url(#id5);fill:none;stroke:#3465a4;stroke-width:1.8"
     d="m 100.2,81.9 19.7,26.9"
     id="path163" />
</svg>
