<?xml version="1.0" encoding="UTF-8" standalone="no"?>
<!-- Copyright 2017 mathsisfun.com -->

<svg
   xmlns:dc="http://purl.org/dc/elements/1.1/"
   xmlns:cc="http://creativecommons.org/ns#"
   xmlns:rdf="http://www.w3.org/1999/02/22-rdf-syntax-ns#"
   xmlns:svg="http://www.w3.org/2000/svg"
   xmlns="http://www.w3.org/2000/svg"
   xmlns:xlink="http://www.w3.org/1999/xlink"
   xmlns:sodipodi="http://sodipodi.sourceforge.net/DTD/sodipodi-0.dtd"
   xmlns:inkscape="http://www.inkscape.org/namespaces/inkscape"
   width="395.844"
   height="179.273"
   version="1.1"
   id="svg137"
   sodipodi:docname="centroid-triangle.svg"
   inkscape:version="0.92.3 (2405546, 2018-03-11)">
  <metadata
     id="metadata141">
    <rdf:RDF>
      <cc:Work
         rdf:about="">
        <dc:format>image/svg+xml</dc:format>
        <dc:type
           rdf:resource="http://purl.org/dc/dcmitype/StillImage" />
        <dc:title></dc:title>
      </cc:Work>
    </rdf:RDF>
  </metadata>
  <sodipodi:namedview
     pagecolor="#ffffff"
     bordercolor="#666666"
     borderopacity="1"
     objecttolerance="10"
     gridtolerance="10"
     guidetolerance="10"
     inkscape:pageopacity="0"
     inkscape:pageshadow="2"
     inkscape:window-width="640"
     inkscape:window-height="480"
     id="namedview139"
     showgrid="false"
     inkscape:current-layer="svg137"
     inkscape:snap-midpoints="true" />
  <defs
     id="defs45">
    <linearGradient
       id="id19"
       gradientTransform="matrix(0.038433,-0.227774,-0.227774,-0.038433,451.367,216.454)"
       xlink:href="#id04"
       x1="303.9"
       y1="549.8"
       x2="303.9"
       y2="559.7"
       gradientUnits="userSpaceOnUse" />
    <linearGradient
       id="id18"
       gradientTransform="matrix(-0.072089,0.427231,-0.427231,-0.072089,583.945,65.6666)"
       xlink:href="#id05"
       x1="244"
       y1="625.7"
       x2="259"
       y2="634.7"
       gradientUnits="userSpaceOnUse" />
    <linearGradient
       id="id05">
      <stop
         offset="0"
         style="stop-color:#6d594e;stop-opacity:1"
         id="stop4" />
      <stop
         offset="1"
         style="stop-color:#6d594e;stop-opacity:0"
         id="stop6" />
    </linearGradient>
    <linearGradient
       id="id17"
       gradientTransform="matrix(-0.072089,0.427231,-0.427231,-0.072089,584.105,65.3646)"
       xlink:href="#id06"
       x1="210.4"
       y1="607.3"
       x2="218.4"
       y2="620.4"
       gradientUnits="userSpaceOnUse" />
    <linearGradient
       id="id06">
      <stop
         offset="0"
         style="stop-color:#796052;stop-opacity:1"
         id="stop10" />
      <stop
         offset="1"
         style="stop-color:#796052;stop-opacity:0"
         id="stop12" />
    </linearGradient>
    <linearGradient
       id="id16"
       gradientTransform="matrix(-0.072089,0.427231,-0.427231,-0.072089,470.185,31.2796)"
       xlink:href="#id07"
       x1="261"
       y1="373.7"
       x2="261.4"
       y2="378.5"
       gradientUnits="userSpaceOnUse" />
    <linearGradient
       id="id07">
      <stop
         offset="0"
         style="stop-color:#514843;stop-opacity:1"
         id="stop16" />
      <stop
         offset="1"
         style="stop-color:#514843;stop-opacity:0"
         id="stop18" />
    </linearGradient>
    <linearGradient
       id="id15"
       gradientTransform="matrix(-0.072089,0.427231,-0.427231,-0.072089,447.612,16.8296)"
       xlink:href="#id08"
       x1="301.2"
       y1="256.9"
       x2="309"
       y2="234.9"
       gradientUnits="userSpaceOnUse" />
    <linearGradient
       id="id08">
      <stop
         offset="0"
         style="stop-color:#3a3b3a;stop-opacity:1"
         id="stop22" />
      <stop
         offset="1"
         style="stop-color:#3a3b3a;stop-opacity:0"
         id="stop24" />
    </linearGradient>
    <linearGradient
       id="id14"
       gradientTransform="matrix(-0.064295,0.381043,-0.413879,-0.069836,463.169,43.7226)"
       xlink:href="#id09"
       x1="288.5"
       y1="365.4"
       x2="297.8"
       y2="365.4"
       gradientUnits="userSpaceOnUse" />
    <linearGradient
       id="id09">
      <stop
         offset="0"
         style="stop-color:black;stop-opacity:1"
         id="stop28" />
      <stop
         offset="1"
         style="stop-color:black;stop-opacity:0"
         id="stop30" />
    </linearGradient>
    <linearGradient
       id="id13"
       gradientTransform="matrix(-0.072089,0.427231,-0.427231,-0.072089,469.951,31.7456)"
       xlink:href="#id10"
       x1="221"
       y1="321.9"
       x2="217.1"
       y2="338.7"
       gradientUnits="userSpaceOnUse" />
    <linearGradient
       id="id10">
      <stop
         offset="0"
         style="stop-color:#363939;stop-opacity:1"
         id="stop34" />
      <stop
         offset="1"
         style="stop-color:#363939;stop-opacity:0"
         id="stop36" />
    </linearGradient>
    <linearGradient
       id="id12"
       gradientTransform="matrix(-0.072089,0.427231,-0.427231,-0.072089,470.738,31.6836)"
       xlink:href="#id11"
       x1="202.2"
       y1="323.3"
       x2="188.8"
       y2="324.7"
       gradientUnits="userSpaceOnUse" />
    <linearGradient
       id="id11">
      <stop
         offset="0"
         style="stop-color:#3b3c3b;stop-opacity:1"
         id="stop40" />
      <stop
         offset="1"
         style="stop-color:#3b3c3b;stop-opacity:0"
         id="stop42" />
    </linearGradient>
  </defs>
  <path
     inkscape:connector-curvature="0"
     id="path47"
     d="m 336.994,138.966 c 1.4,-12.6 3.5,-17.9 5.2,-34.9 0.7,-6.6004 -8.6,-14.1004 -14.8,-16.3004 -4.3,-1.5 -8.2,-4.1 -12.8,-6.3 -1.2,-0.6 -3.3,0.9 -4,2 -0.6,0.9 -0.3,2.5 -0.1,3.5 0.6,3 4.4,5.5 5.3,6.8 0.8,1 -3,-1.3 -4.2,-0.8 -3.9,1.7 -8.1,4.9 -11.3,7.6004 -0.8,0.7 -0.3,2.6 -0.9,3.5 -0.7,1 -4.5,3 -5.2,4 -0.9,2.4 0,1.6 -2.6,3.4 -1.3,1.3 -2.9,3.5 -3,5.4 -0.3,3.7 5,9.6 4.2,11.6 -0.8,1.9 -7.1,7.4 -9.3,11.3 -1.4,2.4 -4.1,4.9 -5.6,7.1 -2.3,3.3 -5.5,7.6 -7.1,11.2 -0.6,1.4 -1.1,3.5 -1.5,5 -0.9,3.1 -1,5.5 -3,10.5 5.5,0.5 30.6,4.5 34.1,5.2 0.7,-2.7 4.4,-7 6.6,-9.8 3.2,-3.8 8.2,-8.3 11.8,-11.7 2.3,-2.1 5.7,-4.5 7.8,-6.8 3.7,-3.9 10,-7 10.5,-11.7 z m -29.4,-21 -5.4,2.4 2.1,-5.6 1.8,-0.7 z"
     style="fill:#db9977;stroke:#000000;stroke-width:0.87" />
  <path
     inkscape:connector-curvature="0"
     id="path49"
     d="m 306.194,95.6656 c 0.5,-0.3 1.6,1.3 1.8,1.9 0.2,0.9 -0.3,2.3 -1,2.9004 -3.7,2.2 -4.5,1.7 -7,0.5 -0.1,-0.2 0,-0.5 0.2,-0.6 1.8,-1.3004 3.6,-3.2004 6,-4.6004 z"
     style="fill:#dbbcb3;stroke:#000000;stroke-width:0.87" />
  <path
     inkscape:connector-curvature="0"
     id="path51"
     d="m 291.394,122.066 2,-9 2.9,-0.2 1.9,1.3 0.5,3.9 -0.6,2 -1.7,1 z"
     style="fill:#dbbcb3;stroke:#000000;stroke-width:0.87" />
  <path
     inkscape:connector-curvature="0"
     id="path53"
     d="m 314.294,99.0656 c 0,0 0.2,3.1004 -2.1,4.5004 -1.3,0.7 -2.4,2.7 -3.7,3.1 -1.4,0.5 -3.5,0.2 -5,-0.2 -1.4,-0.4 -4.1,-2.4 -4.1,-2.4"
     style="fill:none;stroke:#000000;stroke-width:0.87" />
  <path
     inkscape:connector-curvature="0"
     id="path55"
     d="m 311.594,112.066 -7.6,2.7 -2.1,6.6 -2.4,2.8 -3.2,0.7 -3.2,-0.8 -2.8,-1.4 3.6,-14.2"
     style="fill:none;stroke:#000000;stroke-width:0.87" />
  <path
     inkscape:connector-curvature="0"
     id="path57"
     d="m 326.794,117.566 c 0.6,-1 0.4,2.7 1.1,3.6 0.5,0.7 2.5,1 2.2,1.7 -0.8,1.5 -3.9,-2.6 -5.4,-1.8 -1,0.6 -1.2,2.6 -0.9,3.7 0.3,1.1 3.3,1.6 2.8,2.6 -0.4,0.7 -2,-0.4 -2.8,-0.8 -0.4,-0.2 -0.8,-1 -1.3,-0.9 -1,0.2 -2.2,2 -1.8,3 0.4,1.2 2.9,1 4.1,1.5 0.8,0.3 2.9,0.2 2.8,1.1 0,0.5 -1,0.5 -1.5,0.4 -0.9,-0.1 -1.9,-1.2 -2.7,-1.5 -1.4,-0.4 -5.5,0.7 -4.7,-0.5 2.7,-4 6.3,-9.3 8.2,-12.3 z"
     style="fill:#2e3436;stroke:#000000;stroke-width:0.43px" />
  <path
     inkscape:connector-curvature="0"
     id="path59"
     d="m 320.994,91.9656 -1.9,3.7 -2.7,-1.5 -4.6,-4.7 0.9,-2.5 3.1,0.2 z"
     style="fill:url(#id12);stroke-width:0.5" />
  <path
     inkscape:connector-curvature="0"
     id="path61"
     d="m 318.694,95.8656 -3.4,-1.4 -1.2,5.5 -0.4,2.3004 -1.2,1.5 0.4,2.1 -2.8,3.6 -1.5,4.1 c 0,0 2.2,-0.1 2.6,-0.8 0.4,-0.7 4.5,-8.3 4.5,-8.3 l -0.8,-0.6 z"
     style="fill:url(#id13);stroke-width:0.5" />
  <path
     inkscape:connector-curvature="0"
     id="path63"
     d="m 292.894,128.066 1,2.2 0.7,1 -0.8,0.5 -1.7,-0.9 -0.7,-0.9 1.4,-1.4 z"
     style="fill:url(#id14);stroke-width:0.5" />
  <path
     inkscape:connector-curvature="0"
     id="path65"
     d="m 304.094,114.666 1.1,-2.5 -0.9,-2.4 0.2,2.6 z"
     style="fill:none;stroke:#000000;stroke-width:0.87" />
  <path
     inkscape:connector-curvature="0"
     id="path67"
     d="m 327.094,117.166 -2.9,4.3 -2.2,4 -3.1,4.6 -2,3.7 -0.6,7.4 2.4,-2.4 0.8,-4.1 2.3,-4.4 1.7,-3.6 3.1,-4.5 z"
     style="fill:url(#id15);stroke-width:0.5" />
  <path
     inkscape:connector-curvature="0"
     id="path69"
     d="m 293.294,110.866 -3.2,11.4 -1.4,-2.5 -0.3,-2.6 0.4,-1.7 1.4,-2.9 z"
     style="fill:url(#id16);stroke-width:0.5" />
  <path
     inkscape:connector-curvature="0"
     id="path71"
     d="m 315.994,94.2656 3.3,1.3"
     style="fill:none;stroke:#000000;stroke-width:0.87" />
  <path
     inkscape:connector-curvature="0"
     id="path73"
     d="m 310.694,112.566 -4.1,1.3 1.3,4.3 z"
     style="fill:#6d594e;stroke:#000000;stroke-width:0.43px" />
  <path
     inkscape:connector-curvature="0"
     id="path75"
     d="m 307.594,118.466 -3.8,6.2 -1.5,0.8 -1.1,-1.9 1.3,-2.9 z"
     style="fill:#53443b;stroke-width:0.5" />
  <path
     inkscape:connector-curvature="0"
     id="path77"
     d="m 301.394,121.866 0.7,3.8"
     style="fill:none;stroke:#000000;stroke-width:0.87" />
  <path
     inkscape:connector-curvature="0"
     id="path79"
     d="m 293.094,128.066 1.4,3.5"
     style="fill:none;stroke:#000000;stroke-width:0.87" />
  <path
     inkscape:connector-curvature="0"
     id="path81"
     d="m 311.294,109.066 -5.8,3.1 -0.7,2.1 5.2,-2 z"
     style="fill:url(#id17);stroke-width:0.5" />
  <path
     inkscape:connector-curvature="0"
     id="path83"
     d="m 313.394,102.466 2,0.7"
     style="fill:none;stroke:#000000;stroke-width:0.87" />
  <path
     inkscape:connector-curvature="0"
     id="path85"
     d="m 294.094,131.166 -1.7,-5.2 2.5,0.3 2.6,-0.3 -0.5,3.3 z"
     style="fill:#c28e7e;stroke:#000000;stroke-width:0.87" />
  <path
     inkscape:connector-curvature="0"
     id="path87"
     d="m 301.094,122.566 0.8,3.3 -2.7,2.2 -3.3,2.2 -1.4,1 -1.8,-2.6 -1.9,-4.5 2.5,0.9 2.7,0.7 3.3,-0.8 1.6,-1.7 z"
     style="fill:url(#id18);stroke-width:0.5" />
  <path
     inkscape:connector-curvature="0"
     id="path89"
     d="m 335.194,136.466 c -0.2,-2.8 4.3,-15.2 3.8,-20 -0.1,-1.2 -4.5,-1.9 -4.1,-0.7 2.2,6.4 -1.7,13.6 -2.2,18.8 -0.1,0.9 2.5,1.8 2.5,1.8 z"
     style="opacity:0.5;fill:url(#id19);stroke-width:0.5" />
  <g
     id="g109"
     transform="matrix(0.339074,1.09764,-0.56976,0.653225,493.689,-941.398)">
    <path
       inkscape:connector-curvature="0"
       id="path91"
       d="m 566.6,631.1 c 0,0 1.7,2.9 0.2,5.6 -1.6,2.8 -4.9,3.4 -4.9,3.4 l 11.3,6.6 c 0,0 3.6,1.7 6.1,-2.4 2.5,-4 -1.4,-6.7 -1.4,-6.7 z"
       style="color:#000000;overflow:visible;fill:url(#id20);stroke-width:1" />
    <path
       inkscape:connector-curvature="0"
       id="path93"
       d="m 533.4,611.7 -16.6,-3.6 10.3,12.4 2.7,0.5 5.3,-4.7 z"
       style="fill:#ffc148" />
    <path
       inkscape:connector-curvature="0"
       id="path95"
       d="m 533.5,611.6 -14,-2.8 9.9,6.7 3.5,2.2 3.3,-4.5 z"
       style="fill:#ffe0a4" />
    <path
       inkscape:connector-curvature="0"
       id="path97"
       d="m 527.4,620.8 3.4,-1.4 37,21.5 -4.1,0.8 z"
       style="fill:#bf0000;stroke:#000000;stroke-width:0.33" />
    <path
       inkscape:connector-curvature="0"
       id="path99"
       d="m 533.4,611.5 0.3,3.5 36.5,21.3 -1.2,-3.8 z"
       style="fill:#ff6565;stroke:#000000;stroke-width:0.33" />
    <path
       inkscape:connector-curvature="0"
       id="path101"
       d="m 533.7,615 -2.8,4.3 36.8,21.8 2.5,-4.7 z"
       style="fill:#ff0000;stroke:#000000;stroke-width:0.33" />
    <path
       inkscape:connector-curvature="0"
       id="path103"
       d="m 527.3,620.7 -10.5,-12.7 16.5,3.5"
       style="fill:none;stroke:#000000;stroke-width:0.33" />
    <path
       inkscape:connector-curvature="0"
       id="path105"
       d="m 567.5,631.2 c 0,0 2,3.1 0.2,6 -1.9,3 -5.6,3.7 -5.6,3.7 l 5.2,2.8 c 0,0 4.1,0 6,-3.3 2,-3.3 -0.6,-6.5 -0.6,-6.5 z"
       style="color:#000000;overflow:visible;fill:url(#id21);stroke-width:1" />
    <path
       inkscape:connector-curvature="0"
       id="path107"
       d="m 524.2,609.6 -7.6,-2 5.4,6.4 c 2.4,-0.6 2.6,-2.5 2.2,-4.4 z"
       style="color:#000000;overflow:visible;fill:url(#id22);stroke-width:1" />
  </g>
  <g
     id="g1078"
     transform="translate(-1.5241,-6.8324)">
    <path
       sodipodi:nodetypes="cccc"
       inkscape:connector-curvature="0"
       id="path992"
       d="M 3.50209,24.6658 149.4,130.433 184.573,7.6516 Z"
       style="opacity:1;vector-effect:none;fill:#fcffd9;fill-opacity:0.725806;fill-rule:evenodd;stroke:#013397;stroke-width:1.446539;stroke-linecap:butt;stroke-linejoin:miter;stroke-miterlimit:4;stroke-dasharray:none;stroke-dashoffset:0;stroke-opacity:1" />
    <path
       inkscape:connector-curvature="0"
       id="path1008"
       d="M 3.50209,24.6658 166.987,69.0418"
       style="fill:none;fill-rule:evenodd;stroke:#19aeff;stroke-width:0.970832px;stroke-linecap:butt;stroke-linejoin:miter;stroke-opacity:1" />
    <path
       inkscape:connector-curvature="0"
       id="path1010"
       d="M 149.4,130.433 94.0374,16.1587"
       style="fill:none;fill-rule:evenodd;stroke:#19aeff;stroke-width:0.970832px;stroke-linecap:butt;stroke-linejoin:miter;stroke-opacity:1" />
    <path
       inkscape:connector-curvature="0"
       id="path1012"
       d="M 184.573,7.6516 76.4513,77.5489"
       style="fill:none;fill-rule:evenodd;stroke:#19aeff;stroke-width:0.970832px;stroke-linecap:butt;stroke-linejoin:miter;stroke-opacity:1" />
    <circle
       cx="112.268"
       cy="54.3235"
       r="1.57468"
       style="color:#000000;overflow:visible;fill:#ef2929;fill-opacity:0.9;stroke:#ef2929;stroke-width:2.043371"
       id="circle113" />
    <text
       x="88.6506"
       y="48.7616"
       style="color:#000000;font-style:italic;font-variant:normal;font-weight:normal;font-stretch:normal;font-size:21.333332px;font-family:Georgia;-inkscape-font-specification:'Georgia, Italic';font-variant-ligatures:normal;font-variant-caps:normal;font-variant-numeric:normal;font-feature-settings:normal;text-align:start;writing-mode:lr-tb;text-anchor:start;overflow:visible;fill:#ef2929;stroke-width:0.74px"
       id="text115">centroid</text>
  </g>
  <g
     id="g133"
     transform="matrix(0.038433,-0.227774,-0.227774,-0.038433,475.385,355.287)">
    <path
       inkscape:connector-curvature="0"
       id="path123"
       d="m 687.6,990.7 c 0,0 55.2,-13.1 77.7,-22.3 18,-7.3 41.1,-19.5 56.8,-30.8 11.4,-8.2 22.8,-23.6 34.1,-31.7 10.1,-7.3 25.2,-14.7 36.5,-19.9 22.1,-10.2 54.4,-17.4 75.8,-28.9 11.4,-6.1 27.9,-14.3 35.1,-25.1 3.6,-5.5 5.5,-14.8 4.7,-21.3 -0.7,-6.1 -4.6,-14.2 -9,-18.5 -3.7,-3.6 -10.6,-6.2 -15.6,-7.1 -9.6,-1.6 -20.6,2.9 -29.8,5.7 -8.8,2.7 -20.8,8.5 -29.4,11.8 -5,1.9 -12.4,2.5 -17.5,4.3 -6.2,2.1 -13.9,6.5 -19.9,9 -15.3,6.4 -35.2,17.5 -51.6,19.9 C 821.9,837.7 790,832 790,832"
       style="fill:#db9977;stroke:#000000;stroke-width:3.75" />
    <path
       inkscape:connector-curvature="0"
       id="path125"
       d="m 958.8,799.2 c 3.6,6.1 14.3,31 13.3,37.4 6.4,3.7 18.7,0.3 24.2,-4.7 4.2,-3.9 5.4,-12.7 5.2,-18.5 -0.2,-5.4 -2.6,-12.9 -6.2,-17.1 -3.3,-3.8 -8.7,-6.1 -13.7,-6.2 -7.3,-0.1 -19.7,2.3 -22.7,9 z"
       style="fill:#dbbcb3;stroke:#000000;stroke-width:3.75" />
    <path
       inkscape:connector-curvature="0"
       id="path127"
       d="m 914.3,816 c 8.4,12.7 15,27.2 15,27.2 l 2.8,10.8"
       style="fill:none;stroke:#000000;stroke-width:3.75" />
    <path
       inkscape:connector-curvature="0"
       id="path129"
       d="m 912.4,822 c 1.4,1.9 7,15.5 7,15.5 l 4.7,14.1"
       style="fill:none;stroke:#000000;stroke-width:3.75" />
    <path
       inkscape:connector-curvature="0"
       id="path131"
       d="m 849.1,907.5 c 12,-3 102.8,-43.5 122.6,-48.9 5.2,-1.4 3.5,-22.1 0,-18 -18.8,21.8 -85.4,41.3 -107.5,46.4 -19.6,4.5 -15.2,20.5 -15.2,20.5 z"
       style="opacity:0.5;fill:url(#id23)" />
  </g>
  <g
     id="g1092"
     transform="matrix(1,0,0,0.446764,210.169,-1.54728)">
    <path
       style="opacity:1;vector-effect:none;fill:#fcffd9;fill-opacity:0.725806;fill-rule:evenodd;stroke:#013397;stroke-width:1.446539;stroke-linecap:butt;stroke-linejoin:miter;stroke-miterlimit:4;stroke-dasharray:none;stroke-dashoffset:0;stroke-opacity:1"
       d="M 3.50209,24.6658 149.4,130.433 184.573,7.6516 Z"
       id="path1080"
       inkscape:connector-curvature="0"
       sodipodi:nodetypes="cccc" />
    <path
       style="fill:none;fill-rule:evenodd;stroke:#19aeff;stroke-width:0.970832px;stroke-linecap:butt;stroke-linejoin:miter;stroke-opacity:1"
       d="M 3.50209,24.6658 166.987,69.0418"
       id="path1082"
       inkscape:connector-curvature="0" />
    <path
       style="fill:none;fill-rule:evenodd;stroke:#19aeff;stroke-width:0.970832px;stroke-linecap:butt;stroke-linejoin:miter;stroke-opacity:1"
       d="M 149.4,130.433 94.0374,16.1587"
       id="path1084"
       inkscape:connector-curvature="0" />
    <path
       style="fill:none;fill-rule:evenodd;stroke:#19aeff;stroke-width:0.970832px;stroke-linecap:butt;stroke-linejoin:miter;stroke-opacity:1"
       d="M 184.573,7.6516 76.4513,77.5489"
       id="path1086"
       inkscape:connector-curvature="0" />
    <circle
       id="circle1088"
       style="color:#000000;overflow:visible;fill:#ef2929;fill-opacity:0.9;stroke:#ef2929;stroke-width:2.043371"
       r="1.57468"
       cy="54.3235"
       cx="112.268" />
    <text
       id="text1090"
       style="color:#000000;font-style:italic;font-variant:normal;font-weight:normal;font-stretch:normal;font-size:21.333332px;font-family:Georgia;-inkscape-font-specification:'Georgia, Italic';font-variant-ligatures:normal;font-variant-caps:normal;font-variant-numeric:normal;font-feature-settings:normal;text-align:start;writing-mode:lr-tb;text-anchor:start;overflow:visible;fill:#ef2929;stroke-width:0.74px"
       y="48.7616"
       x="88.6506">centroid</text>
  </g>
</svg>
