<?xml version="1.0" encoding="UTF-8" standalone="no"?>
<!-- Copyright 2017 mathsisfun.com -->
<svg xmlns="http://www.w3.org/2000/svg" width="234.7" height="198.7" version="1.1">
<defs>
<marker id="id01" style="overflow:visible;" orient="auto">
<path transform="matrix(-0.4,0,0,-0.4,-4,0)" style="stroke:black; stroke-width:1pt;" d="M 0,0 5,-5 -12.5,0 5,5 Z"/>
</marker>
</defs>
<g transform="translate(-661.024,-375.893)">
<circle cx="741.5" cy="456.4" r="80.2077" style="color:black; overflow:visible; fill:#f0f0c0; stroke:black; stroke-width:0.51;"/>
<rect x="694.9" y="520.7" ry="19.6" width="200.8" height="53.9" style="color:black; overflow:visible; fill:#fce94f; stroke-width:1.75;"/>
<path style="marker-end:url(#id01); fill:none; stroke:black; stroke-width:1.34;" d="m 741.1,456.2 61.9,-48.1"/>
<text x="765.1" y="430.1" style="font-family:'Comic Sans MS'; font-size:22.1px; color:black; overflow:visible; fill:black; stroke-width:0.65px;">r</text>
<text x="702.9" y="542.6" style="font-family:'Comic Sans MS'; font-size:17.7px; color:black; overflow:visible; fill:#ff4141; stroke-width:0.65px;">&quot;Pie Are Squared&quot;</text>
<text x="711.7" y="564.8" style="font-family:'Comic Sans MS'; font-size:17.7px; color:black; overflow:visible; fill:#ff4141; stroke-width:0.65px;">... but they are round!</text>
<text x="760" y="474.9" style="font-family:'Comic Sans MS'; font-size:26.1px; color:black; overflow:visible; fill:#ff4141; stroke-width:0.44px;">π</text>
<text x="688.2" y="474.2" style="font-family:'Comic Sans MS'; font-size:22.2px; color:black; overflow:visible; fill:#ff4141; stroke-width:0.51px;">Area</text>
<text x="777.7" y="474.9" style="font-family:'Comic Sans MS'; font-size:22.2px; color:black; overflow:visible; fill:#ff4141; stroke-width:0.51px;">r</text>
<text x="785.9" y="477" style="font-family:'Comic Sans MS'; font-size:23.9px; color:black; overflow:visible; fill:#ff4141; stroke-width:0.55px;">²</text>
<text x="743.1" y="474.7" style="font-family:'Comic Sans MS'; font-size:22.2px; color:black; overflow:visible; fill:#ff4141; stroke-width:0.51px;">=</text>
<g transform="matrix(0.237176,0,0,0.303533,443.056,210.135)">
<path style="color:black; overflow:visible; fill:#c4a000; stroke:#ffd700; stroke-width:0; stroke-linecap:round;" d="m 1325.6,1040.2 c 1.8,-10.3 10,-17.8 17.2,-24.7 24,-21.7 40.8,-51.7 45.3,-83.8 0.4,-2.7 4.6,-1.3 6.8,-2.1 6.3,-0.7 12.5,-1.5 18.8,-2.2 -3,24.2 -11.1,47.9 -24.7,68.3 -8.5,13.5 -19.3,25.5 -31.4,35.9 -3.4,2.7 -4.7,8 -9.4,7.3 -7.5,0.5 -15.2,1 -22.5,1.4 z"/>
<path style="color:black; overflow:visible; fill:#c4a000; stroke:#ffd700; stroke-width:0; stroke-linecap:round;" d="m 1362.6,951.2 c -4.2,2.5 -13.6,7.6 -14.7,8.5 12,-6.3 21.8,-16.1 30.4,-26.3 6.5,-8.7 11.8,-18.3 16.6,-28.1 8.5,0.7 17,1.3 25.5,2 -7.2,13.9 -14.1,28.3 -24.5,40.2 -10,11.3 -21.3,21.8 -35,28.5 -2.2,1.1 -0.1,-4.2 -0.4,-6 0.7,-6.3 1.4,-12.6 2,-18.8 z"/>
<path style="color:black; overflow:visible; fill:#c4a000; stroke:#ffd700; stroke-width:0; stroke-linecap:round;" d="m 1405.4,977.4 c -1.9,-10.8 -2.6,-22.6 -3.7,-33.8 -1.9,-12.8 -3.5,-25.8 -2.7,-38.7 8.4,-1.4 16.8,-2.8 25.2,-4.2 -1.5,14.2 1.4,28.3 2.8,42.4 0.8,9.1 1.3,18.2 3,27.1 -8.2,2.4 -16.4,4.8 -24.6,7.2 z"/>
</g>
</g>
</svg>
