<?xml version="1.0" encoding="UTF-8" standalone="no"?>
<!-- Copyright 2017 mathsisfun.com -->
<svg xmlns="http://www.w3.org/2000/svg" width="409.6" height="244.7" version="1.0">
<defs>
<marker id="id02" style="overflow:visible;" orient="auto">
<path transform="matrix(-0.4,0,0,-0.4,-4,0)" style="stroke:black; stroke-width:1pt;" d="M 0,0 5,-5 -12.5,0 5,5 Z"/>
</marker>
<marker id="id01" style="overflow:visible;" orient="auto">
<path transform="matrix(0.4,0,0,0.4,4,0)" style="stroke:black; stroke-width:1pt;" d="M 0,0 5,-5 -12.5,0 5,5 Z"/>
</marker>
</defs>
<circle cx="-155" cy="-290.3" r="92.2483" transform="rotate(134.852)" style="fill:none; fill-opacity:0.45; stroke:black; stroke-width:1.69;"/>
<path style="fill:#e6ffe6; stroke:#00ff00; stroke-width:1.69;" d="m 288.3,5.3 a 93.1,93.1 0 0 1 82.7,14.1 93.1,93.1 0 0 1 37.8,74.9 l -93.1,-4e-4 z"/>
<text x="318.9" y="42.6" transform="rotate(-0.148076)" style="font-family:'Comic Sans MS'; font-size:18.2px; fill:#c4a000; stroke-width:1.3;">Sector</text>
<path transform="rotate(134.852)" style="marker-start:url(#id01); marker-end:url(#id02); fill:none; fill-opacity:0.45; stroke:black; stroke-width:0.91;" d="m -174.7,-256.1 a 39.5,39.5 0 0 1 -19.3,-28.1 39.5,39.5 0 0 1 9.8,-32.7"/>
<circle cx="93" cy="93" r="92.2003" style="fill:#e6ffe6; stroke:#00ff00; stroke-width:1.69;"/>
<path style="marker-start:url(#id01); marker-end:url(#id02); fill:none; fill-opacity:0.45; stroke:black; stroke-width:0.91;" d="M 132.5,93 A 39.5,39.5 0 0 1 93.3,132.5 39.5,39.5 0 0 1 53.6,93.6 39.5,39.5 0 0 1 92.2,53.6 39.5,39.5 0 0 1 132.5,91.9"/>
<text x="47.3" y="38.4" style="font-family:'Comic Sans MS'; font-size:18.2px; fill:#c4a000; stroke-width:1.3;">
    Full Circle
 &#160;</text>
<ellipse cx="121.2" cy="64.1" rx="14.6" ry="15.4" style="fill:#e6ffe6; stroke-width:1.69;"/>
<text x="110.6" y="71.9" style="font-family:'Comic Sans MS'; font-size:18.2px; stroke-width:1.3;">2π</text>
<ellipse cx="-207.6" cy="-295.9" rx="10.8" ry="11.4" transform="matrix(-0.678373,0.734718,-0.68215,-0.731212,0,0)" style="fill:#e6ffe6; stroke-width:1.25;"/>
<path style="color:black; marker-start:url(#id01); marker-end:url(#id02); overflow:visible; fill:#3465a4; fill-opacity:0.75; stroke:black; stroke-width:1.56; stroke-linecap:round; stroke-dasharray:3.1, 3.1;" d="M 315.8,94.4 230,126.2"/>
<ellipse cx="-93.1" cy="-264.1" rx="9.7" ry="15.5" transform="rotate(134.852)" style="fill:white; stroke-width:1.38;"/>
<text x="244.7" y="125.3" transform="rotate(-0.148076)" style="font-family:'Comic Sans MS'; font-size:23.4px; fill:black; stroke-width:1.3;">r</text>
<text x="35.4" y="210.1" style="font-family:'Comic Sans MS'; font-size:20.8px; fill:#3465a4; stroke-width:1.3;">   A = π × r²</text>
<path style="fill:none; fill-opacity:0.75; stroke:black; stroke-width:1.3px;" d="M 92.5,93.7 H 186.3"/>
<text x="205.3" y="211.9" style="font-family:'Comic Sans MS'; font-size:20.8px; fill:#3465a4; stroke-width:1.3;">   A = (θ/2π) × π × r²</text>
<text x="227.3" y="240.3" style="font-family:'Comic Sans MS'; font-size:20.8px; fill:#3465a4; stroke-width:1.3;">   = (θ/2) × r²</text>
<path style="color:black; marker-start:url(#id01); marker-end:url(#id02); overflow:visible; fill:#3465a4; fill-opacity:0.75; stroke:black; stroke-width:1.56; stroke-linecap:round; stroke-dasharray:3.1, 3.1;" d="M 91.6,94.7 10,131.1"/>
<ellipse cx="30.3" cy="123.2" rx="7.6" ry="14.7" style="fill:#e6ffe6; stroke-width:1.19;"/>
<text x="24.5" y="128.1" transform="rotate(-0.148076)" style="font-family:'Comic Sans MS'; font-size:23.4px; fill:black; stroke-width:1.3;">r</text>
<text x="335.7" y="71.5" transform="rotate(-0.148076)" style="font-family:'Comic Sans MS'; font-size:18.2px; stroke-width:1.3;">θ</text>
</svg>
