<?xml version="1.0" encoding="UTF-8" standalone="no"?>
<!-- Copyright 2017 mathsisfun.com -->
<svg xmlns="http://www.w3.org/2000/svg" xmlns:xlink="http://www.w3.org/1999/xlink" width="368.1" height="126" version="1.1" style="font-family:'Times New Roman'; font-size:8.8px; fill:#31a52d; stroke-width:1pt;">
<defs>
	<linearGradient id="id3">
		<stop offset="0" style="stop-color:white; stop-opacity:0.88;"/>
		<stop offset="1" style="stop-color:white; stop-opacity:0;"/>
	</linearGradient>
	<marker style="overflow:visible;" orient="auto">
		<path transform="matrix(-0.8,0,0,-0.8,-10,0)" style="stroke:#31a52d;" d="M 0,0 5,-5 -12.5,0 5,5 Z"/>
	</marker>
	<marker style="overflow:visible;" orient="auto">
		<path transform="matrix(-0.8,0,0,-0.8,-10,0)" style="fill:#3465a4; stroke:#3465a4;" d="M 0,0 5,-5 -12.5,0 5,5 Z"/>
	</marker>
	<marker style="overflow:visible;" orient="auto">
		<path transform="matrix(-0.8,0,0,-0.8,-10,0)" style="fill:#3465a4; stroke:#3465a4;" d="M 0,0 5,-5 -12.5,0 5,5 Z"/>
	</marker>
	<linearGradient id="id4" gradientTransform="matrix(0.999415,0,0,0.999415,-1.0388,-18.2343)" xlink:href="#id1" x1="11.4" y1="118.6" x2="93.1" y2="73.3" gradientUnits="userSpaceOnUse"/>
	<linearGradient id="id1" gradientTransform="matrix(0.58995,0,0,0.45394,-93.459,-183.24)" x1="165.4" y1="608.2" x2="281.9" y2="572" gradientUnits="userSpaceOnUse">
		<stop offset="0" stop-color="#7fffff"/>
		<stop offset="1" stop-color="#0000ff"/>
	</linearGradient>
	<radialGradient id="id6" r="453.49" cx="-389.4" cy="288.6" gradientTransform="matrix(0.20657,-0.14611,0.11273,0.15938,-373.1,477.3)" xlink:href="#id2" gradientUnits="userSpaceOnUse"/>
	<linearGradient id="id2">
		<stop offset="0" style="stop-color:white;"/>
		<stop offset="0.5" style="stop-color:#907fed; stop-opacity:0.5;"/>
		<stop offset="1" style="stop-color:#0e0063; stop-opacity:0.46;"/>
	</linearGradient>
	<linearGradient id="id7" gradientTransform="matrix(0.592566,0,0,0.592566,389.521,-238.766)" x1="-179.9" y1="489.6" x2="-35.2" y2="489.6" gradientUnits="userSpaceOnUse">
		<stop offset="0" style="stop-color:white; stop-opacity:0.4;"/>
		<stop offset="1" style="stop-color:#026300; stop-opacity:0.94;"/>
	</linearGradient>
	<radialGradient id="id5" r="453.49" cx="-389.4" cy="288.6" gradientTransform="matrix(0.20657,-0.14611,0.11273,0.15938,-373.1,477.3)" xlink:href="#id2" gradientUnits="userSpaceOnUse"/>
	<marker style="overflow:visible;" orient="auto">
		<path transform="matrix(-0.8,0,0,-0.8,-10,0)" style="stroke:#31a52d;" d="M 0,0 5,-5 -12.5,0 5,5 Z"/>
	</marker>
	<marker style="overflow:visible;" orient="auto">
		<path transform="matrix(-0.8,0,0,-0.8,-10,0)" style="stroke:#31a52d;" d="M 0,0 5,-5 -12.5,0 5,5 Z"/>
	</marker>
	<radialGradient id="id8" r="11.5517" fx="51.2932" fy="186.697" cx="51.3" cy="186.7" gradientTransform="matrix(1.282,0,0,2.79613,-17.3578,-453.973)" xlink:href="#id3" gradientUnits="userSpaceOnUse"/>
	<radialGradient id="id9" r="11.5517" fx="51.2932" fy="186.697" cx="51.3" cy="186.7" gradientTransform="matrix(1.32241,0,0,4.11393,239.625,-747.424)" xlink:href="#id3" gradientUnits="userSpaceOnUse"/>
</defs>
<path style="fill:url(#id4); stroke:black; stroke-width:0.49;" d="m 0.2,98.9 c 0,11.7 20.4,23.8 43.8,23.8 23.4,0 41.6,-11.3 41.2,-23.8 0,-0.8 -42.7,-78.9 -42.7,-78.9 z"/>
<path style="fill:#25d01e; fill-opacity:0.42; stroke:black; stroke-width:0.6;" d="m 367.4,102.3 a 42.3,23 0 0 1 -84.6,0 42.3,23 0 1 1 84.6,0 z"/>
<g transform="matrix(0.587987,0,0,0.587987,411.041,-291.606)">
	<circle cx="-394" cy="606.3" r="73.232" style="fill:#2200db; stroke-width:1;"/>
	<circle cx="-394" cy="606.3" r="73.232" style="fill:url(#id5); stroke-width:1;"/>
	<circle cx="-394" cy="606.3" r="73.232" style="fill:url(#id6); stroke-width:1;"/>
</g>
<path style="color:black; fill:url(#id7); stroke:black; stroke-width:0.6; stroke-linejoin:round;" d="m 325.5,0.3 c -23.4,0 -43.4,11.3 -42.7,23.4 0,4.2 0,79.7 0,79.7 0.8,12.1 19.6,22.3 43.1,22.3 23.4,0 41.6,-11.3 41.9,-21.2 V 23.3 c 0,-10.2 -18.9,-22.7 -42.7,-22.7 z"/>
<path style="fill:#25d01e; fill-opacity:0.42; stroke:black; stroke-width:0.6;" d="m 367.8,23.7 a 42.3,23 0 0 1 -84.6,0 42.3,23 0 1 1 84.6,0 z"/>
<ellipse cx="48.4" cy="68.1" rx="14.2" ry="31.3" transform="matrix(0.884982,0.465624,-0.329945,0.944,0,0)" style="color:black; overflow:visible; fill:url(#id8); stroke-width:0.98;"/>
<ellipse cx="307.5" cy="20.6" rx="14.6" ry="46" transform="matrix(0.977114,0.212716,-0.027647,0.999618,0,0)" style="color:black; overflow:visible; fill:url(#id9); stroke-width:0.99;"/>
</svg>