<?xml version="1.0" encoding="UTF-8" standalone="no"?>
<!-- Copyright 2017 mathsisfun.com -->
<svg xmlns="http://www.w3.org/2000/svg" xmlns:xlink="http://www.w3.org/1999/xlink" width="129.3" height="168.3" version="1.1">
<defs>
<linearGradient id="id05">
<stop offset="0" style="stop-color:#f5dece; stop-opacity:1;"/>
<stop offset="0.5" style="stop-color:#ecc1a2; stop-opacity:1;"/>
<stop offset="1" style="stop-color:#f5dece; stop-opacity:1;"/>
</linearGradient>
<linearGradient id="id04">
<stop offset="0" style="stop-color:#ffc795; stop-opacity:0;"/>
<stop offset="1" style="stop-color:white; stop-opacity:1;"/>
</linearGradient>
<linearGradient id="id03">
<stop offset="0" style="stop-color:black; stop-opacity:1;"/>
<stop offset="0.874" style="stop-color:black; stop-opacity:0.45;"/>
<stop offset="1" style="stop-color:black; stop-opacity:0;"/>
</linearGradient>
<linearGradient id="id02">
<stop offset="0" style="stop-color:#ff902e; stop-opacity:1;"/>
<stop offset="0.5" style="stop-color:#97460b; stop-opacity:1;"/>
<stop offset="1" style="stop-color:#e56a10; stop-opacity:1;"/>
</linearGradient>
<linearGradient id="id01">
<stop offset="0" style="stop-color:#8a510e; stop-opacity:0.8;"/>
<stop offset="1" style="stop-color:#211000; stop-opacity:1;"/>
</linearGradient>
<linearGradient id="id10" gradientTransform="matrix(0.157704,0,0,0.216048,39.8204,2.78262)" xlink:href="#id01" x1="149" y1="143.7" x2="213.6" y2="143.7" gradientUnits="userSpaceOnUse"/>
<linearGradient id="id08" gradientTransform="matrix(0.855534,0,0,0.79549,-138.566,-58.8298)" xlink:href="#id02" x1="190.9" y1="207.7" x2="289.5" y2="207.7" gradientUnits="userSpaceOnUse"/>
<radialGradient id="id07" r="70.8196" fx="235.903" fy="283.603" cx="235.9" cy="283.6" gradientTransform="matrix(0.690328,0,0,0.259768,-95.2057,93.5782)" xlink:href="#id03" gradientUnits="userSpaceOnUse"/>
</defs>
<linearGradient gradientTransform="matrix(0.529663,0.008866,-0.008967,0.535704,103.844,97.775)" xlink:href="#id04" x1="236.5" y1="176.6" x2="204.8" y2="170" gradientUnits="userSpaceOnUse"/>
<linearGradient gradientTransform="translate(-82.562,20.3525)" xlink:href="#id04" x1="322.6" y1="201.4" x2="319.7" y2="123.1" gradientUnits="userSpaceOnUse"/>
<linearGradient id="id12" gradientTransform="matrix(0.855534,0,0,0.78652,-212.979,-54.34)" xlink:href="#id04" x1="319.7" y1="206.7" x2="319.7" y2="123.1" gradientUnits="userSpaceOnUse"/>
<linearGradient id="id06" gradientTransform="matrix(0.842918,0,0,0.842918,-144.999,6.60797)" xlink:href="#id02" x1="414.1" y1="114.5" x2="503.1" y2="190.9" gradientUnits="userSpaceOnUse"/>
<linearGradient id="id11" gradientTransform="matrix(0.956059,0,0,0.78652,-245.812,-54.929)" xlink:href="#id04" x1="319.7" y1="220.4" x2="319.7" y2="123.1" gradientUnits="userSpaceOnUse"/>
<linearGradient id="id13" gradientTransform="matrix(0.855534,0,0,0.78652,-212.543,-53.846)" xlink:href="#id04" x1="319.7" y1="238.7" x2="319.7" y2="123.1" gradientUnits="userSpaceOnUse"/>
<linearGradient id="id09" gradientTransform="matrix(0.590035,0,0,0.252267,-74.6732,44.2294)" xlink:href="#id05" x1="190.9" y1="207.7" x2="289.5" y2="207.7" gradientUnits="userSpaceOnUse"/>
<linearGradient id="id14" gradientTransform="matrix(0.347768,0,0,0.148687,-16.5246,24.8512)" xlink:href="#id05" x1="190.9" y1="207.7" x2="289.5" y2="207.7" gradientUnits="userSpaceOnUse"/>

<g transform="translate(-2.47433,-31.2767)">
<path style="color:black; overflow:visible; fill:#97460b; stroke-width:1.21; stroke-linecap:round; stroke-linejoin:round;" d="m 75.7,143.8 52.5,18.1 c 4.8,2.1 4.8,10.7 0,12.8 l -52.5,23.3 c -4.8,2.1 -12.4,2.1 -17.2,0 l -52.5,-23.3 c -4.8,-2.1 -4.8,-10.6 0,-12.7 L 58.5,143.8 c 4.8,-2.1 12.4,-2.1 17.2,0 z"/>
<rect x="202.8" y="129.4" ry="9.4" width="76.2" height="76.2" style="color:black; overflow:visible; fill:url(#id06); stroke-width:1.21; stroke-linecap:round; stroke-linejoin:round;" transform="matrix(0.913984,0.405751,-0.913984,0.405751,0,0)"/>
<ellipse cx="67.6" cy="167.2" rx="48.9" ry="18.4" style="color:black; overflow:visible; opacity:0.8; fill:url(#id07); stroke-width:0.68; stroke-linecap:round; stroke-linejoin:round;"/>
<path style="color:black; overflow:visible; fill:url(#id08); stroke-width:1.07; stroke-linecap:round; stroke-linejoin:round;" d="M 57.5,34.6 H 76.5 L 109.1,167.7 c -12.3,19.3 -78.7,17.3 -83.8,0 z"/>
<path style="color:black; overflow:visible; opacity:0.6; fill:url(#id09); stroke-width:1.07; stroke-linecap:round; stroke-linejoin:round;" d="m 45.2,87.4 c 15.3,8.7 29.7,6 43.9,0 l 7.1,28.7 c -10.3,14 -55.6,10.8 -57.8,0 z"/>
<ellipse cx="67" cy="34.7" rx="9.5" ry="3.5" style="color:black; overflow:visible; fill:#d36400; stroke-width:1.03; stroke-linecap:round; stroke-linejoin:round;"/>
<ellipse cx="67" cy="34.8" rx="6.5" ry="2.3" style="color:black; overflow:visible; opacity:0.66; fill:url(#id10); stroke-width:0.83; stroke-linecap:round; stroke-linejoin:round;"/>
<path style="color:black; overflow:visible; opacity:0.2; fill:url(#id11); stroke-width:0.86; stroke-linecap:round; stroke-linejoin:round;" d="m 58.7,40 c 0.8,-0.5 1.9,-0.2 2.8,0.8 l -8.5,111.9 c -7.8,4.5 -15.3,2.4 -22.9,0 z"/>
<path style="color:black; overflow:visible; opacity:0.2; fill:url(#id12); stroke-width:0.86; stroke-linecap:round; stroke-linejoin:round;" d="m 59.2,40.5 c 0.7,-0.3 1.2,0 1.7,0.6 L 50.7,153.3 c -5.4,5.2 -11.1,3.8 -16.8,0 z"/>
<path style="color:black; overflow:visible; opacity:0.3; fill:url(#id13); stroke-width:0.86; stroke-linecap:round; stroke-linejoin:round;" d="m 59.6,41.1 c 0.2,-0.2 0.4,0 0.6,0.2 L 49.1,153.8 c -4.8,2.7 -9.6,3 -14.7,0 z"/>
<path style="color:black; overflow:visible; opacity:0.55; fill:url(#id14); stroke-width:1.07; stroke-linecap:round; stroke-linejoin:round;" d="m 54.1,50.3 c 9.3,4.9 17.7,3.5 25.9,0 l 4.2,16.9 c -6.1,8.4 -32.7,6.6 -34.1,0 z"/>
</g>
</svg>
