<?xml version="1.0" encoding="UTF-8" standalone="no"?>
<!-- Copyright 2017 mathsisfun.com -->
<svg xmlns="http://www.w3.org/2000/svg" xmlns:xlink="http://www.w3.org/1999/xlink" width="181.5" height="290.2" version="1.1">
<defs>
<marker id="id02" style="overflow:visible;" orient="auto">
<path transform="matrix(-0.2,0,0,-0.2,-1.2,0)" style="fill:black; stroke:black; stroke-width:1pt;" d="M 0,0 5,-5 -12.5,0 5,5 Z"/>
</marker>
<marker id="id01" style="overflow:visible;" orient="auto">
<path transform="matrix(0.2,0,0,0.2,1.2,0)" style="fill:black; stroke:black; stroke-width:1pt;" d="M 0,0 5,-5 -12.5,0 5,5 Z"/>
</marker>
<marker id="id13" style="overflow:visible;" orient="auto">
<path transform="matrix(0.2,0,0,0.2,1.2,0)" style="fill:black; stroke:black; stroke-width:1pt;" d="M 0,0 5,-5 -12.5,0 5,5 Z"/>
</marker>
<marker id="id05" style="overflow:visible;" orient="auto">
<path transform="matrix(0.2,0,0,0.2,1.2,0)" style="fill:black; stroke:black; stroke-width:1pt;" d="M 0,0 5,-5 -12.5,0 5,5 Z"/>
</marker>
<marker id="id11" style="overflow:visible;" orient="auto">
<path transform="matrix(0.2,0,0,0.2,1.2,0)" style="fill:black; stroke:black; stroke-width:1pt;" d="M 0,0 5,-5 -12.5,0 5,5 Z"/>
</marker>
<marker id="id09" style="overflow:visible;" orient="auto">
<path transform="matrix(0.2,0,0,0.2,1.2,0)" style="fill:black; stroke:black; stroke-width:1pt;" d="M 0,0 5,-5 -12.5,0 5,5 Z"/>
</marker>
<marker id="id07" style="overflow:visible;" orient="auto">
<path transform="matrix(0.2,0,0,0.2,1.2,0)" style="fill:black; stroke:black; stroke-width:1pt;" d="M 0,0 5,-5 -12.5,0 5,5 Z"/>
</marker>
<marker id="id03" style="overflow:visible;" orient="auto">
<path transform="matrix(0.2,0,0,0.2,1.2,0)" style="fill:black; stroke:black; stroke-width:1pt;" d="M 0,0 5,-5 -12.5,0 5,5 Z"/>
</marker>
<marker id="id15" style="overflow:visible;" orient="auto">
<path transform="matrix(0.2,0,0,0.2,1.2,0)" style="fill:black; stroke:black; stroke-width:1pt;" d="M 0,0 5,-5 -12.5,0 5,5 Z"/>
</marker>
<marker id="id14" style="overflow:visible;" orient="auto">
<path transform="matrix(-0.2,0,0,-0.2,-1.2,0)" style="fill:black; stroke:black; stroke-width:1pt;" d="M 0,0 5,-5 -12.5,0 5,5 Z"/>
</marker>
<marker id="id06" style="overflow:visible;" orient="auto">
<path transform="matrix(-0.2,0,0,-0.2,-1.2,0)" style="fill:black; stroke:black; stroke-width:1pt;" d="M 0,0 5,-5 -12.5,0 5,5 Z"/>
</marker>
<marker id="id12" style="overflow:visible;" orient="auto">
<path transform="matrix(-0.2,0,0,-0.2,-1.2,0)" style="fill:black; stroke:black; stroke-width:1pt;" d="M 0,0 5,-5 -12.5,0 5,5 Z"/>
</marker>
<marker id="id10" style="overflow:visible;" orient="auto">
<path transform="matrix(-0.2,0,0,-0.2,-1.2,0)" style="fill:black; stroke:black; stroke-width:1pt;" d="M 0,0 5,-5 -12.5,0 5,5 Z"/>
</marker>
<marker id="id08" style="overflow:visible;" orient="auto">
<path transform="matrix(-0.2,0,0,-0.2,-1.2,0)" style="fill:black; stroke:black; stroke-width:1pt;" d="M 0,0 5,-5 -12.5,0 5,5 Z"/>
</marker>
<marker id="id04" style="overflow:visible;" orient="auto">
<path transform="matrix(-0.2,0,0,-0.2,-1.2,0)" style="fill:black; stroke:black; stroke-width:1pt;" d="M 0,0 5,-5 -12.5,0 5,5 Z"/>
</marker>
<marker id="id16" style="overflow:visible;" orient="auto">
<path transform="matrix(-0.2,0,0,-0.2,-1.2,0)" style="fill:black; stroke:black; stroke-width:1pt;" d="M 0,0 5,-5 -12.5,0 5,5 Z"/>
</marker>
</defs>
<g transform="translate(-782.694,-350.798)">
<path style="fill:none; stroke:#9ade00; stroke-width:2.67;" d="M 919.5,351.2 826.2,640.6"/>
<path style="fill:none; stroke:#007ad2; stroke-width:2;" d="m 783.1,470.2 181,16.9"/>
<path style="fill:none; stroke:#0065a4; stroke-width:2;" d="M 782.8,586.3 961.8,560.9"/>
<path transform="rotate(-2.92114)" style="color:black; marker-start:url(#id01); marker-end:url(#id02); overflow:visible; fill:none; stroke:black; stroke-width:2.1; stroke-linejoin:round;" d="m 870.3,485.7 a 41.5,41.5 0 0 1 23.6,41.6"/>
<path transform="rotate(-2.92114)" style="color:black; marker-start:url(#id03); marker-end:url(#id04); overflow:visible; fill:none; stroke:black; stroke-width:2.1; stroke-linejoin:round;" d="m 833,582.7 a 40.9,40.9 0 0 1 23.4,31.5"/>
<path transform="rotate(-2.92114)" style="color:black; marker-start:url(#id05); marker-end:url(#id06); overflow:visible; fill:none; stroke:black; stroke-width:2.1; stroke-linejoin:round;" d="m 819.3,516.6 a 34,34 0 0 1 15.9,-22.5 34,34 0 0 1 27.4,-3.3"/>
<path transform="rotate(-2.92114)" style="color:black; marker-start:url(#id07); marker-end:url(#id08); overflow:visible; fill:none; stroke:black; stroke-width:2.1; stroke-linejoin:round;" d="m 780.7,621.2 a 35.1,35.1 0 0 1 13.8,-29.3 35.1,35.1 0 0 1 31.9,-5.6"/>
<path transform="rotate(-2.92114)" style="color:black; marker-start:url(#id09); marker-end:url(#id10); overflow:visible; fill:none; stroke:black; stroke-width:2.1; stroke-linejoin:round;" d="m 884,530.8 a 32.3,32.3 0 0 1 -15.3,20.5 32.3,32.3 0 0 1 -25.4,2.9"/>
<path transform="rotate(-2.92114)" style="color:black; marker-start:url(#id11); marker-end:url(#id12); overflow:visible; fill:none; stroke:black; stroke-width:2.1; stroke-linejoin:round;" d="M 835.8,560.2 A 40.6,40.6 0 0 1 812.2,519.8"/>
<path transform="rotate(-2.92114)" style="color:black; marker-start:url(#id13); marker-end:url(#id14); overflow:visible; fill:none; stroke:black; stroke-width:2.1; stroke-linejoin:round;" d="m 798.6,657.9 a 41.8,41.8 0 0 1 -24,-31.5"/>
<path transform="rotate(-2.92114)" style="color:black; marker-start:url(#id15); marker-end:url(#id16); overflow:visible; fill:none; stroke:black; stroke-width:2.1; stroke-linejoin:round;" d="m 850.1,620.2 a 34.3,34.3 0 0 1 -13.8,27.1 34.3,34.3 0 0 1 -29.9,5.5"/>
<circle id="id17" cx="833" cy="490.6" r="10.4643" transform="rotate(-2.92112)" style="color:black; overflow:visible; fill:white; stroke-width:0.92;"/>
<text x="-134.7" y="977.9" transform="rotate(-71.6408)" style="font-family:'Comic Sans MS'; font-size:16px; color:black; overflow:visible; fill:#9ade00; stroke-width:2.31;">transversal</text>
<circle cx="833.4" cy="490.8" r="15.5469" transform="rotate(-2.92112)" style="color:black; overflow:visible; fill:#fce94f; fill-opacity:0.62; stroke-width:1.37;"/>
<text x="850.3" y="453.1" style="font-family:Arial; font-size:22px; color:black; overflow:visible; fill:black; stroke-width:0.5px;">a</text>
<use transform="translate(12.479,155.475)" xlink:href="#id17" x="0" y="0"/>
<text x="863.6" y="610.5" style="font-family:Arial; font-size:22px; color:black; overflow:visible; fill:black; stroke-width:0.5px;">h</text>
<use transform="translate(-17.7978,53.3934)" xlink:href="#id17" x="0" y="0"/>
<text x="832.8" y="506.5" style="font-family:Arial; font-size:22px; color:black; overflow:visible; fill:black; stroke-width:0.5px;">c</text>
<use transform="translate(23.1167,101.877)" xlink:href="#id17" x="0" y="0"/>
<text x="875.6" y="558" style="font-family:Arial; font-size:22px; color:black; overflow:visible; fill:black; stroke-width:0.5px;">f</text>
<use transform="translate(39.278,58.5078)" xlink:href="#id17" x="0" y="0"/>
<text x="889.4" y="513.5" style="font-family:Arial; font-size:22px; color:black; overflow:visible; fill:black; stroke-width:0.5px;">d</text>
<use transform="translate(57.9606,5.1377)" xlink:href="#id17" x="0" y="0"/>
<text x="909.4" y="460.6" style="font-family:Arial; font-size:22px; color:black; overflow:visible; fill:black; stroke-width:0.5px;">b</text>
<use transform="translate(-33.5499,104.128)" xlink:href="#id17" x="0" y="0"/>
<circle cx="793.8" cy="592.3" r="15.5469" transform="rotate(-2.92112)" style="color:black; overflow:visible; fill:#fce94f; fill-opacity:0.62; stroke-width:1.37;"/>
<text x="816.7" y="558.1" style="font-family:Arial; font-size:22px; color:black; overflow:visible; fill:black; stroke-width:0.5px;">e</text>
<use transform="translate(-45.6197,160.59)" xlink:href="#id17" x="0" y="0"/>
<text x="805.4" y="612" style="font-family:Arial; font-size:22px; color:black; overflow:visible; fill:black; stroke-width:0.5px;">g</text>
</g>
</svg>
