<?xml version="1.0" encoding="UTF-8" standalone="no"?>
<!-- Copyright 2017 mathsisfun.com -->
<svg xmlns="http://www.w3.org/2000/svg" width="262.5" height="259.9" version="1.1">
<g transform="translate(1636.1,-1100.3)">
<path style="color:black; fill:#0084c8; fill-opacity:0.36; stroke:black; stroke-width:1.06;" d="m-1517.4 1229.8 122 34.8 19.9-148.2-141.9-15.5z"/>
<path style="color:black; fill:#009100; fill-opacity:0.36; stroke:black; stroke-width:1.06;" d="m-1611.4 1291.3 94-61.5v-128.9l-114.2 19.4z"/>
<path style="color:black; fill:#ff6600; fill-opacity:0.36; stroke:#ba00ff; stroke-width:2.11; stroke-dasharray:12.7, 2.1;" d="m-1631.7 1120.7 236.3 143.9"/>
<path style="color:black; fill:#ff6600; fill-opacity:0.36; stroke:#ba00ff; stroke-width:2.11; stroke-dasharray:12.7, 2.1;" d="m-1611.4 1291.3 216-26.7"/>
<text x="-1688.8" y="1097.4" transform="rotate(-6.4693)" style="font-family:Arial; font-size:22.6px; color:black; fill:#ba00ff;">Diagonal</text>
<text x="-646.5" y="1822.9" transform="rotate(33.268)" style="font-family:Arial; font-size:22.6px; color:black; fill:#ba00ff;">Diagonal</text>
<circle cx="-1611.1" cy="1290.7" r="5.8229" style="color:black; fill:#ba00ff;"/>
<circle cx="-1394.7" cy="1264.7" r="5.8229" style="color:black; fill:#ba00ff;"/>
<circle cx="-1630.3" cy="1120.8" r="5.8229" style="color:black; fill:#ba00ff;"/>
<path style="color:black; fill:#ffff3e; fill-opacity:0.36; stroke:black; stroke-width:1.06;" d="m-1631.7 1120.7 189.3 28.2-16 209.3-153-66.9z"/>
<path style="color:black; fill:#ff6600; fill-opacity:0.36; stroke:black; stroke-width:1.06;" d="m-1458.4 1358.2 63-93.6 19.9-148.2-66.9 32.5z"/>
<path style="color:black; fill:#19aeff; fill-opacity:0.36; stroke:black; stroke-width:1.06;" d="m-1442.4 1148.9 66.9-32.5-141.9-15.5-114.3 19.8z"/>
</g>
</svg>
