<?xml version="1.0" encoding="UTF-8" standalone="no"?>
<!-- Copyright 2017 mathsisfun.com -->
<svg xmlns="http://www.w3.org/2000/svg" width="300" height="350" version="1.0" style="font-family:'Comic Sans MS'; font-size:18.7px;">
<defs>
	<marker id="aa2" style="overflow:visible;" orient="auto">
		<path transform="matrix(-0.8,0,0,-0.8,-10,0)" style="stroke:black; stroke-width:1pt;" d="M 0,0 5,-5 -12.5,0 5,5 Z"/>
	</marker>
	<marker id="aa1" style="overflow:visible;" orient="auto">
		<path transform="matrix(0.8,0,0,0.8,10,0)" style="stroke:black; stroke-width:1pt;" d="M 0,0 5,-5 -12.5,0 5,5 Z"/>
	</marker>
</defs>
<path style="fill:none; stroke:#729fcf; stroke-width:1.68;" d="m 309.1,26.5 c -390,191.7 0,346.6 0,346.6"/>
<path style="fill:none; fill-opacity:0; stroke:#013397; stroke-width:1.7; stroke-linecap:square;" d="m 207.1,252.5 c -32.1,0 -58.1,-22.6 -58.1,-50.5 0,-27.9 26,-50.5 58.1,-50.5 32.1,0 58.1,22.6 58.1,50.5 0,27.9 -26,50.5 -58.1,50.5 z"/>
<path style="fill:black; stroke-width:0.09;" d="m 178,203 c -0.7,0 -1.3,-0.6 -1.3,-1.3 0,-0.7 0.6,-1.3 1.3,-1.3 0.7,0 1.3,0.6 1.3,1.3 0,0.7 -0.6,1.3 -1.3,1.3 z"/>
<text x="319.7" y="126.6" transform="rotate(35.9264)" style="fill:#729fcf; stroke-width:0.19px;">
Parabola
</text>
<text x="-342.8" y="81.5" transform="rotate(-90.5801)" style="font-size:16px; font-style:italic; fill:#c4a000; stroke-width:0.19px;">
directrix
</text>
<text x="-142.4" y="82.7" transform="rotate(-90)" style="font-size:16px; fill:#c4a000; stroke-width:0.41;">
eccentricity = &#160;</text>
<text x="-32.5" y="83.5" transform="rotate(-90)" style="font-size:21.3px; fill:#c4a000; stroke-width:0.41;">
∞
</text>
<text x="286.1" y="-22.8" transform="rotate(67.9154)" style="fill:#b3defd; stroke-width:0.19px;">
Hyperbola
</text>
<g transform="matrix(0.970507,0,0,1,5.22548,1.01978)">
	<path style="text-align:center;" d="m 157.3,168.5 q -1.1,1.2 -2.4,1.5 -1.4,0.2 -2.7,-0.8 -1.4,-1.2 -1.8,-2.8 -0.4,-1.7 0.7,-2.9 0.8,-0.9 1.6,-1.2 1,-0.4 1.8,0.3 0.6,0.5 0.5,1.5 -0,0.4 -0.4,1.7 l -0.8,3 q 0.7,0 1.3,-0.2 0.6,-0.3 1.2,-0.9 0.3,-0.4 0.6,-1 0.4,-0.8 0.3,-1.2 -0.1,-0.4 0,-0.7 0.2,-0.2 0.4,-0.2 0.3,-0 0.5,0.1 0.6,0.5 0.2,1.9 -0.4,1.2 -1,2 z m -5.1,-4.2 q -0.6,0.7 -0.4,1.6 0.1,0.9 1,2 l 0.7,-2.4 q 0.4,-1.4 0.4,-2.1 -0.8,0 -1.6,0.9 z"/>
	<path style="text-align:center;" d="m 163.1,162.9 q -1.1,1 -2.5,1 -1.4,-0 -2.4,-1.2 -1,-1.1 -1.3,-2.9 -0.3,-2 0.7,-2.9 0.5,-0.5 1.4,-0.8 1.1,-0.4 1.5,0 0.2,0.2 0.2,0.5 0,0.3 -0.2,0.5 -0.2,0.1 -0.4,0.2 -0.2,0 -0.4,0 -0.5,0 -1.3,0.7 -0.6,0.5 -0.2,2 0.3,1.3 0.9,2 0.6,0.7 1.5,0.7 0.8,-0 1.5,-0.7 0.3,-0.3 0.5,-0.8 l 0.3,-0.9 q 0,-0.2 0.2,-0.3 0.2,-0.2 0.5,-0.1 0.3,0 0.5,0.2 0.4,0.4 -0.2,1.5 -0.4,1 -0.9,1.4 z"/>
	<path style="text-align:center;" d="m 169.1,158.3 q -1.2,0.8 -2.6,0.7 -1.4,-0.2 -2.3,-1.5 -0.8,-1.2 -0.9,-3.1 -0,-2.1 1,-2.8 0.6,-0.4 1.5,-0.6 1.2,-0.3 1.5,0.2 0.2,0.2 0.1,0.5 -0,0.3 -0.3,0.4 -0.2,0.1 -0.4,0.1 -0.2,-0 -0.4,-0 -0.5,-0 -1.4,0.5 -0.6,0.4 -0.5,1.9 0.1,1.4 0.6,2.1 0.5,0.8 1.4,0.9 0.8,0 1.6,-0.5 0.4,-0.2 0.6,-0.7 l 0.4,-0.8 q 0.1,-0.2 0.2,-0.3 0.2,-0.2 0.5,-0 0.3,0 0.4,0.3 0.3,0.4 -0.3,1.5 -0.6,0.9 -1.1,1.3 z"/>
	<path style="text-align:center;" d="m 175.7,154.3 q -1.5,0.8 -2.7,0.5 -1.4,-0.3 -2.2,-1.7 -0.9,-1.7 -0.6,-3.2 0.2,-1.7 1.7,-2.5 1.1,-0.6 1.9,-0.5 1.1,0 1.5,0.9 0.3,0.6 -0.1,1.6 -0.2,0.4 -1,1.4 l -1.9,2.4 q 0.6,0.3 1.3,0.3 0.7,-0 1.4,-0.4 0.4,-0.2 1,-0.7 0.7,-0.6 0.7,-1.1 0,-0.5 0.3,-0.6 0.2,-0.1 0.5,-0 0.3,0 0.4,0.3 0.4,0.7 -0.5,1.8 -0.8,1 -1.7,1.4 z m -3.2,-5.8 q -0.8,0.4 -1,1.3 -0.2,0.9 0.2,2.2 l 1.5,-2 q 0.9,-1.2 1.2,-1.9 -0.8,-0.2 -1.8,0.3 z"/>
	<path style="text-align:center;" d="m 185.2,150.4 q -0.6,0.2 -0.9,-0.4 l -0.8,-1.4 q -0.4,-0.8 -0.7,-1.5 -0,-0.2 -0.2,-0.7 -0.1,-0.5 -0.2,-0.7 -0.6,-1.5 -1.1,-1.3 -0.8,0.3 -1.1,1.5 -0.3,1.1 -0.2,2.5 0,0.3 0.2,0.7 0,0.4 0.2,0.7 0,0.2 0.3,0.6 0.2,0.4 0.3,0.6 0.1,0.3 -0,0.6 -0.1,0.3 -0.4,0.4 -0.3,0.1 -0.6,-0 -0.3,-0.1 -0.4,-0.4 -0,-0.2 -0.3,-0.6 -0.2,-0.4 -0.3,-0.6 -0.3,-0.7 -0.6,-2 -0.4,-1.3 -0.6,-2 -0,-0.2 -0.3,-0.6 -0.2,-0.4 -0.3,-0.6 -0.1,-0.3 0,-0.5 0.1,-0.3 0.4,-0.4 0.6,-0.2 1,0.6 l 0.3,0.8 q 0.6,-2 1.8,-2.4 1.1,-0.4 1.9,0.4 0.5,0.5 1,1.8 l 0.3,0.7 0.2,0.6 q 0.2,0.6 0.7,1.4 0.5,0.8 0.7,1.4 0.1,0.3 -0,0.6 -0.1,0.3 -0.4,0.4 z"/>
	<path style="text-align:center;" d="m 190.3,142.1 q -0.1,0 -0.4,0 -0.2,0 -0.3,0 -0.2,0 -0.9,0.4 l 1.2,4.1 0,0.3 0.1,0.4 q 0.4,1.5 -0.3,1.7 -0.3,0 -0.5,-0 -0.3,-0.1 -0.3,-0.4 -0,-0.3 -0.2,-0.8 -0.1,-0.5 -0.2,-0.8 l -1.2,-4.1 q -0.5,0.1 -1.6,0.3 -0.6,0 -0.8,-0.5 -0,-0.3 0,-0.6 0.1,-0.3 0.4,-0.3 l 1.5,-0.3 q -0,-0.4 -0.3,-0.9 -0.2,-0.6 -0.3,-0.9 -0,-0.3 0,-0.5 0.2,-0.3 0.4,-0.3 0.6,-0.2 1,0.8 0,0.3 0.2,0.6 l 0,0.4 0.1,0.4 q 0.8,-0.3 1,-0.4 0.7,-0.2 1,-0.2 0.5,0 0.6,0.6 0,0.3 -0,0.6 -0.1,0.2 -0.4,0.3 z"/>
	<path style="text-align:center;" d="m 198.7,141.5 q 0,0.9 -0.6,1 -0.6,0.1 -0.7,-0.6 -0,-0.1 -0.1,-0.5 l -0.1,-0.6 q -1.1,0.3 -1.7,0.9 -0.6,0.6 -0.8,1.6 l 0.6,3.9 q 0.1,0.7 -0.6,0.8 -0.6,0.1 -0.7,-0.6 l -0.8,-5 q -0,-0.2 -0.1,-0.7 -0,-0.5 -0,-0.7 -0.1,-0.7 0.5,-0.8 0.7,-0.1 0.9,1.1 1.2,-1.5 2.9,-1.8 0.6,-0 0.9,0.3 0.4,0.4 0.5,1.3 0,0.4 0,0.5 z"/>
	<path style="text-align:center;" d="m 201.8,137.4 q -0.3,0 -0.6,-0.2 -0.3,-0.2 -0.3,-0.6 -0,-0.3 0.2,-0.6 0.2,-0.3 0.6,-0.3 0.3,-0 0.6,0.2 0.3,0.2 0.3,0.6 0,0.3 -0.2,0.6 -0.2,0.3 -0.6,0.3 z m 0.8,5.9 q 0,0.4 0.1,1.3 0,0.9 0.1,1.3 0,0.3 -0.2,0.5 -0.2,0.2 -0.5,0.2 -0.3,0 -0.5,-0.2 -0.2,-0.2 -0.2,-0.5 -0,-0.4 -0.1,-1.3 -0,-0.9 -0.1,-1.3 -0,-0.7 -0,-1.7 -0,-1 -0,-1.7 -0,-0.3 0.2,-0.5 0.2,-0.2 0.5,-0.2 0.3,-0 0.5,0.2 0.2,0.2 0.2,0.5 0,0.7 0,1.7 0,1 0,1.7 z"/>
	<path style="text-align:center;" d="m 208.6,146.8 q -1.5,-0 -2.5,-0.9 -1,-0.9 -1,-2.5 0,-1.5 1,-3 1.1,-1.7 2.5,-1.7 0.7,0 1.6,0.3 1.1,0.4 1.1,1.1 -0,0.3 -0.2,0.5 -0.2,0.2 -0.5,0.2 -0.2,0 -0.4,-0.1 -0.2,-0.1 -0.3,-0.3 -0.4,-0.3 -1.4,-0.3 -0.7,-0 -1.5,1.3 -0.7,1.2 -0.7,2.1 -0,1 0.7,1.5 0.6,0.5 1.6,0.5 0.4,0 0.9,-0.2 l 0.8,-0.4 q 0.2,-0.1 0.3,-0.1 0.3,0 0.5,0.2 0.2,0.2 0.2,0.5 -0,0.5 -1.1,1 -1,0.4 -1.6,0.4 z"/>
	<path style="text-align:center;" d="m 215.1,137.5 q -0.3,-0 -0.6,-0.3 -0.2,-0.3 -0.2,-0.6 0,-0.3 0.3,-0.6 0.3,-0.2 0.6,-0.2 0.3,0 0.6,0.3 0.2,0.3 0.2,0.6 -0,0.3 -0.3,0.6 -0.3,0.2 -0.6,0.2 z m -0.2,5.9 q -0,0.4 -0,1.3 -0,0.9 -0,1.3 -0,0.3 -0.2,0.5 -0.2,0.2 -0.5,0.2 -0.3,-0 -0.5,-0.2 -0.2,-0.2 -0.2,-0.5 0,-0.4 0,-1.3 0,-0.9 0,-1.3 0,-0.7 0.2,-1.7 0.2,-1 0.2,-1.7 0,-0.3 0.2,-0.5 0.2,-0.2 0.5,-0.2 0.3,0 0.5,0.2 0.2,0.2 0.2,0.5 -0,0.7 -0.2,1.7 -0.2,1 -0.2,1.7 z"/>
	<path style="text-align:center;" d="m 222.9,141.6 q -0.2,-0 -0.4,-0 -0.2,-0 -0.3,-0 -0.2,-0 -1,-0 l -0.5,4.3 -0,0.3 -0,0.4 q -0.2,1.6 -1,1.5 -0.3,-0 -0.5,-0.3 -0.2,-0.2 -0.1,-0.5 0,-0.3 0.2,-0.8 0.1,-0.5 0.2,-0.8 l 0.5,-4.2 q -0.5,-0.1 -1.6,-0.4 -0.6,-0.2 -0.5,-0.8 0,-0.3 0.3,-0.5 0.2,-0.2 0.5,-0.1 l 1.5,0.4 q 0,-0.4 0.1,-1 0,-0.6 0.1,-0.9 0,-0.3 0.3,-0.5 0.2,-0.2 0.5,-0.1 0.6,0.1 0.6,1.2 -0,0.3 -0,0.6 l -0,0.4 -0,0.4 q 0.9,0 1,0 0.7,0.1 1,0.2 0.4,0.2 0.3,0.7 -0,0.3 -0.3,0.5 -0.2,0.2 -0.5,0.1 z"/>
	<path style="text-align:center;" d="m 231.8,143.5 -3.8,4.6 q -1.4,1.7 -2.2,2.8 l -0.8,1.2 q -0.3,0.5 -0.8,0.3 -0.3,-0 -0.5,-0.3 -0.2,-0.2 -0,-0.5 0.2,-0.7 2.6,-3.7 l -1.2,-5.5 -0.2,-0.6 q -0.1,-0.4 -0,-0.6 0,-0.3 0.4,-0.4 0.3,-0.2 0.6,-0 0.3,0 0.4,0.4 0.7,2 1.3,5.4 l 1.7,-2.1 q 0.9,-1.1 1.7,-1.9 0.3,-0.3 0.7,-0.2 0.3,0 0.5,0.3 0.2,0.3 0,0.5 -0,0.2 -0.2,0.3 z"/>
	<path style="text-align:center;" d="m 239.9,145.8 3.1,1.4 q 0.6,0.3 0.3,0.9 -0.3,0.6 -0.9,0.3 l -3.1,-1.5 q -0.2,-0 -0.5,-0.2 -0.3,-0.1 -0.4,-0.2 -0.3,-0.1 -0.3,-0.4 -0,-0.2 0,-0.5 0.2,-0.5 0.8,-0.3 0.2,0 0.9,0.4 z m -1.3,3.7 q 0.4,0.2 1.3,0.6 0.9,0.4 1.3,0.6 0.6,0.3 0.3,0.9 -0.3,0.6 -0.9,0.3 -0.4,-0.2 -1.3,-0.6 -0.9,-0.4 -1.3,-0.6 -0.2,-0 -0.6,-0.3 -0.4,-0.2 -0.6,-0.2 -0.6,-0.3 -0.3,-0.9 0.3,-0.5 0.8,-0.3 0.8,0.3 1.2,0.5 z"/>
	<path style="text-align:center;" d="m 248.9,159.7 q -1.8,-1.3 -1.4,-3.5 0.3,-1.7 1.8,-3.7 1.3,-1.7 3,-2.4 2,-0.8 3.7,0.4 1.5,1.1 1.4,3.1 -0,1.7 -1.3,3.3 -1.9,2.6 -3.7,3.3 -1.8,0.7 -3.5,-0.5 z m 6.2,-8.1 q -1.1,-0.8 -2.5,-0.2 -1.2,0.5 -2.1,1.7 -1.4,1.9 -1.6,3.3 -0.2,1.3 0.9,2.1 1.2,0.9 2.8,-0.1 1.1,-0.7 2.2,-2.2 1.2,-1.6 1.3,-2.7 0,-1.2 -0.9,-1.9 z"/>
	<path style="text-align:center;" d="m 253.7,164.1 q -0.3,-0.3 -0.3,-0.6 -0,-0.4 0.2,-0.6 0.3,-0.3 0.6,-0.3 0.4,-0 0.7,0.2 0.3,0.3 0.3,0.6 0,0.4 -0.2,0.6 -0.3,0.3 -0.6,0.3 -0.4,0 -0.6,-0.2 z"/>
	<path style="text-align:center;" d="m 257.9,168.1 q -1.4,-1.5 -0.9,-3.3 0,-0.2 0.2,-0.4 0.2,-0.2 0.5,-0.2 0.3,0 0.5,0.2 0.2,0.2 0.1,0.6 -0,0.6 -0,0.8 0,0.6 0.6,1.2 0.8,0.9 2.1,0.9 1.2,-0 2.2,-0.9 0.8,-0.7 1.1,-1.4 0.3,-0.9 -0.3,-1.6 -0.5,-0.6 -1,-0.8 -0.4,-0.2 -1,-0.2 l -1.2,-0 q -0.5,-0 -0.7,-0.3 -0.2,-0.2 -0.2,-0.5 0,-0.3 0.2,-0.5 0.1,-0.1 1,-0.8 1.9,-1.3 2.4,-1.8 0.2,-0.2 0.3,-0.5 0.1,-0.3 0.3,-0.4 0.3,-0.3 0.8,0.3 0.1,0.1 0.3,0.3 0.2,0.2 0.3,0.3 0.3,0.3 0.9,0.9 0.6,0.6 0.9,0.9 0.1,0.1 0.4,0.5 0.3,0.3 0.4,0.5 0,0.1 0.3,0.3 0.2,0.2 0.3,0.3 0.2,0.2 0.2,0.5 -0,0.3 -0.2,0.5 -0.6,0.5 -1.7,-0.8 -0.1,-0.2 -0.4,-0.4 -0.2,-0.3 -0.3,-0.3 l -0.8,-0.9 -0.8,-0.9 q -0.2,0.2 -2,1.4 1.3,0.2 2.3,1.5 1.1,1.2 0.7,2.7 -0.3,1.2 -1.6,2.3 -1.5,1.3 -3.2,1.3 -1.8,-0 -3.1,-1.5 z"/>
</g>
<path style="fill:none; stroke:#b3defd; stroke-width:1.68;" d="m 294.1,-88.2 c -390,321 0,580.3 0,580.3"/>
<path style="overflow:visible; fill:none; stroke:#c4a000; stroke-width:1.7;" d="M 91.6,-14.6 V 388.6"/>
<circle cx="179" cy="-201.6" r="2.99292" transform="scale(1,-1)" style="fill:#fce94f; stroke:#2e3436; stroke-width:0.73;"/>
<text x="186.1" y="205.2" style="fill:#edd400; stroke-width:0.41;">
focus
</text>
<text x="178.7" y="270.8" style="fill:#013397; stroke-width:0.41;">
Ellipse
</text>
<path style="overflow:visible; fill:none; stroke-width:1.19;" d="M 190.9,95.1 C 225.8,65 264.4,41.6 305.6,23.2"/>
<path style="overflow:visible; fill:none; stroke-width:1.19;" d="M 134.2,117.3 C 147.8,76.7 172.3,43 193.2,14"/>
<path style="fill:none; fill-opacity:0; stroke-width:1.7; stroke-linecap:square;" d="m 207.9,257.3 c -35.3,0 -63.8,-24.8 -63.8,-55.5 0,-30.6 28.6,-55.5 63.8,-55.5 35.3,0 63.8,24.8 63.8,55.5 0,30.6 -28.6,55.5 -63.8,55.5 z"/>
<path style="fill:none; stroke:#b3defd; stroke-width:1.68;" d="m -115.2,-88.2 c 390,321 0,580.3 0,580.3"/>
<text x="99" y="183.1" transform="rotate(-33.0335)" style="font-size:16px; color:black; overflow:visible; fill:#729fcf; stroke-width:1.1px;">
eccentricity = 1
</text>
<text x="-62.7" y="166.7" transform="rotate(-64.9851)" style="font-size:16px; color:black; overflow:visible; fill:#b3defd; stroke-width:1.1px;">
eccentricity = 2
</text>
<path style="marker-start:url(#aa1); marker-end:url(#aa2); fill:#babdb6; stroke:#2e3436; stroke-width:0.56;" d="M 92.2,241.2 H 169.1"/>
<path style="marker-start:url(#aa1); marker-end:url(#aa2); fill:#babdb6; stroke:#2e3436; stroke-width:0.6;" d="m 170.3,240.2 8.2,-37.4"/>
<text x="-303.8" y="129.9" transform="rotate(-70.7868)" style="fill:#b3defd; stroke-width:0.19px;">
Hyperbola
</text>
</svg>