<?xml version="1.0" encoding="UTF-8" standalone="no"?>
<!-- Copyright 2017 mathsisfun.com -->
<svg xmlns="http://www.w3.org/2000/svg" xmlns:xlink="http://www.w3.org/1999/xlink" width="152.1" height="152.1" version="1.1">
<defs>
<linearGradient id="id1">
<stop offset="0" style="stop-color:white; stop-opacity:0.26;"/>
<stop offset="1" style="stop-color:white; stop-opacity:0;"/>
</linearGradient>
<radialGradient id="id2" r="31.0686" fx="1117.37" fy="914.699" cx="1117.4" cy="914.7" gradientTransform="matrix(1.48744,0,0,0.702841,-1988.39,147.734)" xlink:href="#id1" gradientUnits="userSpaceOnUse"/>
</defs>
<g transform="translate(-277.613,-502.202)">
<g transform="matrix(1.09542,0,0,1.09542,154.261,-289.277)">
<path style="fill:#748e6b; stroke:black; stroke-width:1px;" d="m 113,746.4 95.3,7.8 42.2,-24.9 z"/>
<path style="fill:#3a8053; stroke:black; stroke-width:1px;" d="m 201.7,860 6.6,-105.8 42.2,-24.9 z"/>
<ellipse cx="-326.4" cy="790.6" rx="46.2" ry="21.8" transform="matrix(0.925327,-0.379169,0.601566,0.798823,0,0)" style="color:black; overflow:visible; fill:url(#id2); stroke-width:7.29;"/>
<path style="fill:#85563c; stroke:black; stroke-width:1px;" d="m 113,746.4 88.7,113.6 6.6,-105.8 -95.3,-7.8"/>
</g>
<text x="5.9" y="674.8" transform="matrix(0.82464,-0.567577,0.569737,0.820516,0,0)" style="font-family:Arial; font-size:20.8px; color:black; overflow:visible; fill:#fdca01; stroke-width:1.06;">edge</text>
<text x="642.9" y="122.8" transform="matrix(0.61604,0.786999,-0.790671,0.613179,0,0)" style="font-family:Arial; font-size:20.8px; color:black; overflow:visible; fill:#fdca01; stroke-width:1.06;">edge</text>
<text x="269.4" y="556.2" transform="matrix(0.995383,-0.117259,0.117806,0.99076,0,0)" style="font-family:Arial; font-size:20.8px; color:black; overflow:visible; fill:#fdca01; stroke-width:1.06;">edge</text>
<text x="349.1" y="524.7" transform="matrix(1.00004,0.067369,-0.067683,0.9954,0,0)" style="font-family:Arial; font-size:20.8px; color:black; overflow:visible; fill:#fdca01; stroke-width:1.06;">edge</text>
<text x="-591.8" y="403.7" transform="matrix(0.050757,-0.996398,1.00104,0.050521,0,0)" style="font-family:Arial; font-size:20.8px; color:black; overflow:visible; fill:#fdca01; stroke-width:1.06;">edge</text>
<text x="-434.8" y="587.3" transform="matrix(0.336132,-0.939903,0.944289,0.334571,0,0)" style="font-family:Arial; font-size:20.8px; color:black; overflow:visible; fill:#fdca01; stroke-width:1.06;">edge</text>
</g>
</svg>
