<?xml version="1.0" encoding="UTF-8" standalone="no"?>
<!-- Copyright 2017 mathsisfun.com -->

<svg
   xmlns:dc="http://purl.org/dc/elements/1.1/"
   xmlns:cc="http://creativecommons.org/ns#"
   xmlns:rdf="http://www.w3.org/1999/02/22-rdf-syntax-ns#"
   xmlns:svg="http://www.w3.org/2000/svg"
   xmlns="http://www.w3.org/2000/svg"
   xmlns:sodipodi="http://sodipodi.sourceforge.net/DTD/sodipodi-0.dtd"
   xmlns:inkscape="http://www.inkscape.org/namespaces/inkscape"
   width="220"
   height="143"
   version="1.0"
   id="svg40"
   sodipodi:docname="ellipse-focus.svg"
   inkscape:version="0.92.3 (2405546, 2018-03-11)">
  <sodipodi:namedview
     pagecolor="#ffffff"
     bordercolor="#666666"
     borderopacity="1"
     objecttolerance="10"
     gridtolerance="10"
     guidetolerance="10"
     inkscape:pageopacity="0"
     inkscape:pageshadow="2"
     inkscape:window-width="640"
     inkscape:window-height="480"
     id="namedview42"
     showgrid="false"
     inkscape:snap-object-midpoints="true"
     inkscape:current-layer="svg40"
     inkscape:snap-global="false" />
  <metadata
     id="metadata44">
    <rdf:RDF>
      <cc:Work
         rdf:about="">
        <dc:format>image/svg+xml</dc:format>
        <dc:type
           rdf:resource="http://purl.org/dc/dcmitype/StillImage" />
        <dc:title></dc:title>
      </cc:Work>
    </rdf:RDF>
  </metadata>
  <defs
     id="defs8">
    <marker
       inkscape:stockid="Arrow1Lstart"
       orient="auto"
       refY="0"
       refX="0"
       id="Arrow1Lstart"
       style="overflow:visible"
       inkscape:isstock="true">
      <path
         id="path999"
         d="M 0,0 5,-5 -12.5,0 5,5 Z"
         style="fill:#ff4141;fill-opacity:1;fill-rule:evenodd;stroke:#ff4141;stroke-width:1pt;stroke-opacity:1"
         transform="matrix(0.8,0,0,0.8,10,0)"
         inkscape:connector-curvature="0" />
    </marker>
    <marker
       inkscape:stockid="Arrow1Lend"
       orient="auto"
       refY="0"
       refX="0"
       id="marker1415"
       style="overflow:visible"
       inkscape:isstock="true">
      <path
         id="path1413"
         d="M 0,0 5,-5 -12.5,0 5,5 Z"
         style="fill:#ff4141;fill-opacity:1;fill-rule:evenodd;stroke:#ff4141;stroke-width:1pt;stroke-opacity:1"
         transform="matrix(-0.8,0,0,-0.8,-10,0)"
         inkscape:connector-curvature="0" />
    </marker>
    <marker
       inkscape:stockid="Arrow1Lend"
       orient="auto"
       refY="0"
       refX="0"
       id="marker1357"
       style="overflow:visible"
       inkscape:isstock="true">
      <path
         id="path1355"
         d="M 0,0 5,-5 -12.5,0 5,5 Z"
         style="fill:#ff4141;fill-opacity:1;fill-rule:evenodd;stroke:#ff4141;stroke-width:1pt;stroke-opacity:1"
         transform="matrix(-0.8,0,0,-0.8,-10,0)"
         inkscape:connector-curvature="0" />
    </marker>
    <marker
       inkscape:stockid="Arrow1Lend"
       orient="auto"
       refY="0"
       refX="0"
       id="Arrow1Lend"
       style="overflow:visible"
       inkscape:isstock="true">
      <path
         id="path1002"
         d="M 0,0 5,-5 -12.5,0 5,5 Z"
         style="fill:#0f2cec;fill-opacity:1;fill-rule:evenodd;stroke:#0f2cec;stroke-width:1pt;stroke-opacity:1"
         transform="matrix(-0.8,0,0,-0.8,-10,0)"
         inkscape:connector-curvature="0" />
    </marker>
    <marker
       inkscape:stockid="Arrow1Mend"
       orient="auto"
       refY="0"
       refX="0"
       id="Arrow1Mend"
       style="overflow:visible"
       inkscape:isstock="true">
      <path
         id="path1008"
         d="M 0,0 5,-5 -12.5,0 5,5 Z"
         style="fill:#0f2cec;fill-opacity:1;fill-rule:evenodd;stroke:#0f2cec;stroke-width:1pt;stroke-opacity:1"
         transform="matrix(-0.4,0,0,-0.4,-4,0)"
         inkscape:connector-curvature="0" />
    </marker>
    <marker
       inkscape:stockid="Arrow1Mend"
       orient="auto"
       refY="0"
       refX="0"
       id="marker2973"
       style="overflow:visible"
       inkscape:isstock="true">
      <path
         id="path2971"
         d="M 0,0 5,-5 -12.5,0 5,5 Z"
         style="fill:#ff4141;fill-opacity:1;fill-rule:evenodd;stroke:#ff4141;stroke-width:1pt;stroke-opacity:1"
         transform="matrix(-0.4,0,0,-0.4,-4,0)"
         inkscape:connector-curvature="0" />
    </marker>
    <marker
       inkscape:stockid="Arrow1Mend"
       orient="auto"
       refY="0"
       refX="0"
       id="marker2795"
       style="overflow:visible"
       inkscape:isstock="true">
      <path
         id="path2793"
         d="M 0,0 5,-5 -12.5,0 5,5 Z"
         style="fill:#0f2cec;fill-opacity:1;fill-rule:evenodd;stroke:#0f2cec;stroke-width:1pt;stroke-opacity:1"
         transform="matrix(-0.4,0,0,-0.4,-4,0)"
         inkscape:connector-curvature="0" />
    </marker>
    <marker
       orient="auto"
       style="overflow:visible"
       id="id2">
      <path
         id="path2"
         d="M 0,0 5,-5 -12.5,0 5,5 Z"
         style="stroke:#000000;stroke-width:1pt"
         transform="matrix(-0.8,0,0,-0.8,-10,0)"
         inkscape:connector-curvature="0" />
    </marker>
    <marker
       orient="auto"
       style="overflow:visible"
       id="id1">
      <path
         id="path5"
         d="M 0,0 5,-5 -12.5,0 5,5 Z"
         style="stroke:#000000;stroke-width:1pt"
         transform="matrix(0.8,0,0,0.8,10,0)"
         inkscape:connector-curvature="0" />
    </marker>
  </defs>
  <ellipse
     id="ellipse10"
     style="color:#000000;overflow:visible;fill:none;stroke:#c4a000;stroke-width:1.2"
     ry="70.9"
     rx="109.4"
     cy="71.5"
     cx="110" />
  <path
     inkscape:connector-curvature="0"
     id="path16"
     d="m 28.5,71.5 c 0,-1 -0.8,-1.9 -1.8,-1.9 -1,0 -1.8,0.8 -1.8,1.9 0,1 0.8,1.9 1.8,1.9 1,0 1.8,-0.8 1.8,-1.9 z"
     style="fill:#102feb;fill-opacity:0.95;stroke-width:1;stroke-linejoin:round" />
  <text
     id="text20"
     style="font-size:18.6px;font-family:'Trebuchet MS';overflow:visible;fill:#1b38ec;stroke-width:0.33px"
     y="87.774"
     x="8.17373">focus</text>
  <text
     id="text22"
     style="font-size:18.6px;font-family:'Trebuchet MS';overflow:visible;fill:#ff4141;stroke-width:0.33px"
     y="87.088"
     x="163.895">focus</text>
  <path
     inkscape:connector-curvature="0"
     id="path2117"
     d="M 26.6944,71.5036 137.91,3.91329"
     style="fill:none;fill-rule:evenodd;stroke:#0f2cec;stroke-width:0.987688px;stroke-linecap:butt;stroke-linejoin:miter;stroke-opacity:1;marker-end:url(#Arrow1Lend)"
     sodipodi:nodetypes="cc" />
  <path
     inkscape:connector-curvature="0"
     id="path2119"
     d="M 191.2,71.5 138.843,2.7869"
     style="fill:none;fill-rule:evenodd;stroke:#ff4141;stroke-width:1px;stroke-linecap:butt;stroke-linejoin:miter;stroke-opacity:1;marker-start:url(#Arrow1Lstart)"
     sodipodi:nodetypes="cc" />
  <path
     inkscape:connector-curvature="0"
     id="path18"
     d="m 193.1,71.5 c 0,-1 -0.8,-1.9 -1.9,-1.9 -1,0 -1.9,0.8 -1.9,1.9 0,1 0.8,1.9 1.9,1.9 1,0 1.9,-0.8 1.9,-1.9 z"
     style="fill:#ff4141;fill-opacity:0.95;stroke-width:1;stroke-linejoin:round" />
</svg>
