<?xml version="1.0" encoding="UTF-8" standalone="no"?>
<!-- Copyright 2017 mathsisfun.com -->
<svg xmlns="http://www.w3.org/2000/svg" width="260.6" height="260" version="1.1">
<defs>
</defs>
<g transform="translate(91.5213,843.783)">
<path style="fill:#e9b96e; stroke:#e9b96e; stroke-width:2.25; stroke-dasharray:13.5, 13.5;" d="m -95.6,-711.2 260.6,-0.1"/>
<text x="5.6" y="-698" transform="scale(1.00115,0.998851)" style="font-family:'Comic Sans MS'; font-size:15.8px; overflow:visible; fill:#edd400; stroke-width:0.55;">focus</text>
<text x="631.4" y="-30.7" transform="matrix(-0.010136,-0.998798,1.0011,-0.010112,0,0)" style="font-family:'Comic Sans MS'; font-size:15.8px; font-style:italic; fill:#c4a000; stroke-width:0.25px;">directrix</text>
<text x="63" y="-763.1" transform="scale(1.00115,0.998851)" style="font-family:'Comic Sans MS'; font-size:15.8px; font-style:italic; overflow:visible; fill:#f44800; stroke-width:0.25px;">Latus Rectum</text>
<g transform="matrix(0.127693,-0.030642,-0.030713,-0.127988,-406.352,-743.86)">
<path style="overflow:visible; fill:#f44800; stroke-width:1.57;" d="m 3096.4,-754.5 c 5.9,-2.1 11.8,-3.9 17.7,-5.9 10.4,-3.5 21.1,-6 31.7,-8.8 6.3,-1.7 12.8,-0.5 19.1,-0.7 6.3,0.3 12.6,1.5 18.9,2.2 5.3,0.7 10.5,1.6 15.7,2.5 5.8,0.6 11.4,2.2 17.1,3.3 6.3,1.3 12.1,4.1 18.1,6.2 5.6,2 10.8,4.8 16.2,7.2 5.3,2.3 10.2,5.4 15.3,8.1 5.3,3 10.3,6.3 15.5,9.5 4.9,2.8 9.4,6.3 14,9.4 4.2,2.9 8.3,6.1 12.4,9.1 3.7,2.8 7.3,5.7 10.9,8.5 3.2,2.6 6.5,5.1 9.7,7.6 3.6,2.9 7.5,5.4 11.3,8.1 3.9,2.7 8,5 12,7.5 3.7,2.4 7.8,4.1 11.8,6.1 4.7,2.2 9.7,3.6 14.5,5.5 5.1,1.9 10.4,3.3 15.7,5 4.7,1.6 9.6,2.5 14.4,3.8 4,1.1 8.2,1.5 12.3,2.2 3.8,0.5 7.6,0.2 11.3,0.3 4,0 7.9,-0.4 11.9,-0.6 3.7,-0.5 7.4,-0.8 11.1,-1.3 2.7,-0 5.4,-0.7 8.1,-1.1 2.1,-0.4 4.2,-0.7 6.3,-1 2.7,-0.5 5.4,-1.2 8,-1.7 2.8,-0.6 5.5,-1.4 8.2,-2.1 2,-0.5 4,-0.9 6,-1.4 2.1,-0.6 -4.3,1.1 -6.5,1.7 1.6,-0.5 3.2,-1 4.8,-1.5 5.4,-4 12,-3 18,-4.5 0.2,-0 0.5,-0 0.7,-0.1 l -10.7,13.4 c -0.2,0 -0.4,0.1 -0.7,0.1 2.8,-0.8 5.7,-1.6 8.5,-2.3 -1.6,0.4 -3.2,0.8 -4.7,1.3 -6.7,1.9 -13.3,4.1 -20,5.5 -2,0.5 -3.9,1 -5.9,1.5 -2.8,0.7 -5.6,1.5 -8.4,2 -2.8,0.5 -5.5,1.1 -8.3,1.5 -2.1,0.3 -4.2,0.6 -6.3,1 -2.8,0.3 -5.6,0.5 -8.4,0.8 -3.8,0.4 -7.5,0.9 -11.3,1.1 -4.1,0.1 -8.1,0.5 -12.2,0.3 -4,-0.3 -8.1,-0.2 -12,-1 -4.2,-0.9 -8.5,-1.6 -12.7,-2.7 -4.9,-1.4 -9.9,-2.5 -14.7,-4.1 -5.3,-1.8 -10.6,-3.3 -15.9,-5.3 -5,-2 -10.2,-3.6 -14.9,-6.1 -4.1,-2.2 -8.3,-4.2 -12.2,-6.7 -4.1,-2.6 -8.3,-5.1 -12.2,-7.9 -3.8,-2.8 -7.8,-5.4 -11.5,-8.5 -3.2,-2.5 -6.5,-5.1 -9.7,-7.6 -3.6,-2.8 -7.2,-5.7 -10.9,-8.5 -4.1,-3 -8.1,-6.1 -12.3,-9 -4.6,-3 -9.1,-6.3 -13.8,-9.1 -5.1,-3.1 -10.1,-6.3 -15.3,-9.2 -5,-2.6 -9.8,-5.5 -15,-7.7 -5.3,-2.3 -10.4,-4.9 -15.8,-6.8 -5.8,-1.8 -11.4,-4.3 -17.4,-5.3 -5.6,-1 -11.2,-2.2 -16.8,-2.9 -5.2,-0.8 -10.4,-1.7 -15.6,-2.3 -6.1,-0.6 -12.2,-1.7 -18.3,-1.7 -5.9,0.7 -12,-0.1 -17.7,2 -1.8,0.6 -3.5,1.2 -5.3,1.7 -5.9,1.9 -11.8,3.6 -17.6,5.7 z"/>
<path style="overflow:visible; fill:#f44800; stroke-width:1.57;" d="m 3110,-760.1 c 4.5,-2.1 8.9,-4.4 13.4,-6.6 3.4,-1.7 6.9,-3.3 10.4,-5 2.9,-1.4 5.7,-2.9 8.6,-4.3 2.7,-1.3 5.4,-2.6 8.1,-4 2,-0.9 3.9,-1.9 5.9,-2.8 1.9,-1 3.8,-1.9 5.7,-2.8 1.6,-0.9 3.3,-1.7 4.9,-2.5 1.1,-0.7 2.4,-1.2 3.6,-1.7 1.1,-0.3 2.1,-0.9 3.1,-1.3 1,-0.6 2.1,-1 3.2,-1.5 0.7,-0.3 1.4,-0.6 2.1,-0.9 0.4,-0.2 0.7,-0.3 1.1,-0.5 l 16.2,5.7 c -0.4,0.2 -0.7,0.3 -1.1,0.5 -0.7,0.3 -1.4,0.6 -2.1,0.9 -1,0.4 -2.1,0.9 -3.1,1.3 -1,0.5 -2.2,0.7 -3.1,1.5 -1.1,0.4 -2.3,1 -3.4,1.3 -1.6,0.8 -3.2,1.6 -4.9,2.4 -1.9,1 -3.8,1.9 -5.7,2.9 -2,1 -3.9,2 -5.9,2.9 -2.7,1.3 -5.4,2.4 -8,3.9 -2.9,1.4 -5.8,2.8 -8.6,4.3 -3.5,1.7 -6.9,3.4 -10.4,5 -4.5,2.2 -9,4.3 -13.4,6.6 z"/>
<path style="overflow:visible; fill:#f44800; stroke-width:1.57;" d="m 3126.3,-759.4 c 4.9,-0.1 9.7,0.3 14.6,0.4 4.2,0 8.4,0.8 12.6,1.2 3.5,0.4 6.9,1.6 10.3,2.3 3,0.7 5.6,2.2 8.4,3.3 2.5,1.2 4.9,2.7 7.4,4.1 1.9,1.1 3.7,2.4 5.6,3.5 1.5,0.8 2.8,1.8 4.1,2.7 0.9,0.7 2,1.1 3,1.6 1.1,0.4 1.7,1.3 2.6,2 0.5,0.4 1,0.8 1.4,1.2 0.3,0.2 0.6,0.5 0.8,0.7 0.2,0.1 0.3,0.3 0.5,0.4 l -14.8,8.6 c -0.2,-0.1 -0.3,-0.3 -0.5,-0.4 -0.3,-0.2 -0.6,-0.5 -0.8,-0.7 -0.5,-0.3 -0.9,-0.7 -1.4,-1 -0.7,-0.3 -1.2,-0.6 -1.9,-0.9 -1.1,-0.7 -2.3,-1.4 -3.4,-2.2 -1.4,-0.9 -2.7,-1.8 -4.1,-2.7 -1.8,-1.1 -3.6,-2.3 -5.4,-3.3 -2.3,-1.1 -4.5,-2.5 -6.9,-3.4 -2.6,-0.8 -5,-2 -7.7,-2.4 -3.2,-0.5 -6.4,-1.5 -9.6,-1.6 -4.1,-0.3 -8.1,-0.8 -12.2,-0.8 -4.8,-0 -9.6,-0.4 -14.4,-0.2 z"/>
</g>
<path style="overflow:visible; fill:#3465a4; stroke:#c4a000; stroke-width:2.7; stroke-dasharray:2.7, 5.4;" d="m -33.7,-880.4 c 0,346.5 0,347.5 0,347.5"/>
<circle cx="4.4" cy="711.2" r="2.74097" transform="scale(1,-1)" style="fill:#fce94f; stroke:#2e3436; stroke-width:0.98;"/>
<path style="overflow:visible; fill:none; stroke:#729fcf; stroke-width:2.25;" d="m 107.1,-520.4 c -16.1,-17.9 -32.4,-35.8 -48.5,-53.8 -9.3,-11.3 -18.8,-22.4 -28,-33.8 -5.6,-7.6 -11.5,-15.1 -17,-22.8 -6.2,-9.6 -13,-18.9 -18,-29.1 -8.8,-16.5 -14.9,-34.9 -13.8,-53.7 1,-19.1 8.9,-37 18.4,-53.3 4.1,-7 8.8,-13.7 13.2,-20.5 6.5,-8.6 12.7,-17.3 19.4,-25.7 9.3,-11.1 18.5,-22.4 27.9,-33.4 14.3,-15.8 28.4,-31.8 42.8,-47.5"/>
<path style="overflow:visible; fill:#f44800; stroke:#f44800; stroke-width:1.5;" d="m 4.5,-773.5 v 129.5"/>
</g>
</svg>
