<?xml version="1.0" encoding="UTF-8" standalone="no"?>
<!-- Copyright 2017 mathsisfun.com -->
<svg xmlns="http://www.w3.org/2000/svg" width="260.6" height="260" version="1.1">
<defs>
</defs>
<g transform="translate(505.059,817.901)">
<path style="fill:none; stroke:#735800; stroke-width:1;" d="m -441.5,-775.1 c 12.1,0 12.1,0 12.1,0 v -11.4"/>
<path style="overflow:visible; fill:none; stroke:#729fcf; stroke-width:2.25;" d="m -304.4,-498.2 c -16.1,-17.9 -32.4,-35.8 -48.5,-53.8 -9.3,-11.3 -18.8,-22.4 -28,-33.8 -5.6,-7.6 -11.5,-15.1 -17,-22.8 -6.2,-9.6 -13,-18.9 -18,-29.1 -8.8,-16.5 -14.9,-34.9 -13.8,-53.7 1,-19.1 8.9,-37 18.4,-53.3 4.1,-7 8.8,-13.7 13.2,-20.5 6.5,-8.6 12.7,-17.3 19.4,-25.7 9.3,-11.1 18.5,-22.4 27.9,-33.4 14.3,-15.8 28.4,-31.8 42.8,-47.5"/>
<path style="fill:#e9b96e; stroke:#e9b96e; stroke-width:2.25; stroke-dasharray:13.5, 13.5;" d="m -507.1,-685.4 260.6,-0.1"/>
<text x="608" y="-440.1" transform="matrix(-0.010136,-0.998798,1.0011,-0.010112,0,0)" style="font-family:'Comic Sans MS'; font-size:15.8px; font-style:italic; fill:#c4a000; stroke-width:0.25px;">directrix</text>
<path style="overflow:visible; fill:#3465a4; stroke:#c4a000; stroke-width:2.7; stroke-dasharray:2.7, 5.4;" d="m -440.6,-852.9 c 0,346.5 0,347.5 0,347.5"/>
<path style="fill:#babdb6; stroke:#2e3436; stroke-width:0.75;" d="m -380.1,-786.7 -27,99.4"/>
<circle cx="-407.1" cy="684.6" r="2.74097" transform="scale(1,-1)" style="fill:#fce94f; stroke:#2e3436; stroke-width:0.98;"/>
<path style="fill:#babdb6; stroke:#2e3436; stroke-width:0.75;" d="m -440.6,-786.6 h 59.4"/>
<text x="-461.2" y="-782.9" transform="scale(1.00396,0.996056)" style="font-family:'Comic Sans MS'; font-size:18px; overflow:visible; fill:#013397; stroke:black; stroke-width:1.23;">N</text>
<text x="-370" y="-780.7" transform="scale(1.00396,0.996056)" style="font-family:'Comic Sans MS'; font-size:18px; overflow:visible; fill:#013397; stroke:black; stroke-width:1.23;">P</text>
<text x="-407" y="-663.6" transform="scale(1.00396,0.996056)" style="font-family:'Comic Sans MS'; font-size:18px; overflow:visible; fill:#013397; stroke:black; stroke-width:1.23;">F</text>
</g>
</svg>
