<?xml version="1.0" encoding="UTF-8" standalone="no"?>
<!-- Copyright 2017 mathsisfun.com -->

<svg
   xmlns:dc="http://purl.org/dc/elements/1.1/"
   xmlns:cc="http://creativecommons.org/ns#"
   xmlns:rdf="http://www.w3.org/1999/02/22-rdf-syntax-ns#"
   xmlns:svg="http://www.w3.org/2000/svg"
   xmlns="http://www.w3.org/2000/svg"
   xmlns:xlink="http://www.w3.org/1999/xlink"
   xmlns:sodipodi="http://sodipodi.sourceforge.net/DTD/sodipodi-0.dtd"
   xmlns:inkscape="http://www.inkscape.org/namespaces/inkscape"
   width="220.062"
   height="124.922"
   version="1.1"
   id="svg28"
   sodipodi:docname="hyperbola1.svg"
   inkscape:version="0.92.2 (5c3e80d, 2017-08-06)">
  <metadata
     id="metadata32">
    <rdf:RDF>
      <cc:Work
         rdf:about="">
        <dc:format>image/svg+xml</dc:format>
        <dc:type
           rdf:resource="http://purl.org/dc/dcmitype/StillImage" />
      </cc:Work>
    </rdf:RDF>
  </metadata>
  <sodipodi:namedview
     pagecolor="#ffffff"
     bordercolor="#666666"
     borderopacity="1"
     objecttolerance="10"
     gridtolerance="10"
     guidetolerance="10"
     inkscape:pageopacity="0"
     inkscape:pageshadow="2"
     inkscape:window-width="640"
     inkscape:window-height="480"
     id="namedview30"
     showgrid="false"
     inkscape:current-layer="svg28" />
  <defs
     id="defs3">
    <radialGradient
       id="id2"
       r="18.7143"
       fx="92.7725"
       fy="24.4397"
       cx="92.8"
       cy="24.4"
       gradientTransform="matrix(1,0,0,1.03817,0.038806,-1.13822)"
       xlink:href="#id1"
       gradientUnits="userSpaceOnUse" />
  </defs>
  <linearGradient
     id="id1">
    <stop
       offset="0"
       style="stop-color:#013397;stop-opacity:0.52"
       id="stop5" />
    <stop
       offset="1"
       style="stop-color:#013397;stop-opacity:1"
       id="stop7" />
  </linearGradient>
  <radialGradient
     r="2854.77"
     fx="-39465.4"
     fy="39020.9"
     cx="-39465.4"
     cy="39020.9"
     gradientTransform="matrix(0.981445,0,0,1.01891,2652.54,803.999)"
     xlink:href="#id1"
     gradientUnits="userSpaceOnUse"
     id="radialGradient10" />
  <path
     style="overflow:visible;fill:none;stroke:#0e0000;stroke-width:1"
     d="M 98.3393,36.891"
     id="path12"
     inkscape:connector-curvature="0" />
  <ellipse
     cx="87.2393"
     cy="32.291"
     rx="18.2"
     ry="18.9"
     style="overflow:visible;fill:url(#id2);stroke:#b3defd;stroke-width:1"
     id="ellipse14" />
  <text
     x="62.5393"
     y="66.091"
     style="font-style:italic;font-size:16px;font-family:'Comic Sans MS';fill:#013397"
     id="text16">Planet</text>
  <text
     x="148.539"
     y="56.091"
     style="font-style:italic;font-size:16px;font-family:'Comic Sans MS';fill:#0197fd"
     id="text18">Path of</text>
  <text
     x="138.539"
     y="68.091"
     style="font-style:italic;font-size:16px;font-family:'Comic Sans MS';fill:#0197fd"
     id="text20">spacecraft</text>
  <path
     style="overflow:visible;fill:#0197fd;stroke:#0197fd;stroke-width:0.25px"
     d="m 208.339,41.191 c -1.6,-0.9 -2.7,-2.4 -3.7,-3.9 -1.4,-2.3 -2.6,-4.6 -3.7,-7 -0.2,-0.5 -0.6,-1 -0.2,-1.4 0.3,-0.5 0.5,-1 0.8,-1.5 1,2.2 1.9,4.4 3.2,6.4 1.1,1.9 2.2,3.9 4,5.2 0.2,0.2 -0.1,0.6 -0.1,0.9 -0.1,0.4 -0.2,0.9 -0.3,1.3 z"
     id="path22"
     inkscape:connector-curvature="0" />
  <path
     style="overflow:visible;fill:#0197fd;stroke:#0197fd;stroke-width:0.25px"
     d="m 208.839,41.991 c -2.8,-1.4 -5.9,-2 -9,-2.4 -2.2,-0.2 -4.5,-0.2 -6.7,0 -0.5,0 -1,0.2 -0.9,-0.5 0,-0.6 0,-1.1 0,-1.7 2.2,-0.3 4.4,-0.4 6.6,-0.2 3.1,0.2 6.1,0.8 9,1.9 0.4,0.3 1.4,0.3 1.4,0.9 -0.1,0.6 -0.3,1.3 -0.4,1.9 z"
     id="path24"
     inkscape:connector-curvature="0" />
  <path
     style="overflow:visible;fill:none;stroke:#0197fd;stroke-width:2.25"
     d="m 1.03934,124.491 c 5.8,-14 11.49996,-28 17.39996,-42 3.8,-8.3 7.6,-16.6 11.5,-24.9 2.8,-5.2 5.4,-10.5 8.3,-15.6 3.7,-6 7.1,-12.2 11.5,-17.7 6.8,-9.1 15.4,-17.09997 26.1,-20.59997 10.7,-3.699998 22.6,-2.899998 33.9997,-0.7 4.9,0.9 9.7,2.3 14.6,3.5 6.3,2.1 12.7,3.89997 19,6.09997 8.5,3.2 17,6.3 25.4,9.7 12.3,5.2 24.7,10.3 36.9,15.6"
     id="path26"
     inkscape:connector-curvature="0" />
</svg>
