<?xml version="1.0" encoding="UTF-8" standalone="no"?>
<!-- Copyright 2017 mathsisfun.com -->

<svg
   xmlns:dc="http://purl.org/dc/elements/1.1/"
   xmlns:cc="http://creativecommons.org/ns#"
   xmlns:rdf="http://www.w3.org/1999/02/22-rdf-syntax-ns#"
   xmlns:svg="http://www.w3.org/2000/svg"
   xmlns="http://www.w3.org/2000/svg"
   xmlns:sodipodi="http://sodipodi.sourceforge.net/DTD/sodipodi-0.dtd"
   xmlns:inkscape="http://www.inkscape.org/namespaces/inkscape"
   width="321.105"
   height="282.694"
   version="1.1"
   id="svg52"
   sodipodi:docname="hyperbola2.svg"
   inkscape:version="0.92.2 (5c3e80d, 2017-08-06)">
  <metadata
     id="metadata56">
    <rdf:RDF>
      <cc:Work
         rdf:about="">
        <dc:format>image/svg+xml</dc:format>
        <dc:type
           rdf:resource="http://purl.org/dc/dcmitype/StillImage" />
      </cc:Work>
    </rdf:RDF>
  </metadata>
  <sodipodi:namedview
     pagecolor="#ffffff"
     bordercolor="#666666"
     borderopacity="1"
     objecttolerance="10"
     gridtolerance="10"
     guidetolerance="10"
     inkscape:pageopacity="0"
     inkscape:pageshadow="2"
     inkscape:window-width="640"
     inkscape:window-height="480"
     id="namedview54"
     showgrid="false"
     inkscape:current-layer="svg52" />
  <defs
     id="defs8">
    <marker
       id="id2"
       style="overflow:visible"
       orient="auto">
      <path
         transform="matrix(-0.8,0,0,-0.8,-10,0)"
         style="stroke:#000000;stroke-width:1pt"
         d="M 0,0 5,-5 -12.5,0 5,5 Z"
         id="path2"
         inkscape:connector-curvature="0" />
    </marker>
    <marker
       id="id1"
       style="overflow:visible"
       orient="auto">
      <path
         transform="matrix(0.8,0,0,0.8,10,0)"
         style="stroke:#000000;stroke-width:1pt"
         d="M 0,0 5,-5 -12.5,0 5,5 Z"
         id="path5"
         inkscape:connector-curvature="0" />
    </marker>
  </defs>
  <path
     style="overflow:visible;fill:none;stroke:#0084c8;stroke-width:2.25"
     d="m 204.487,331.047 c -16.2,-17.9 -32.4,-35.8 -48.5,-53.8 -9.3,-11.3 -18.8,-22.4 -28,-33.8 -5.6,-7.6 -11.5,-15.1 -17,-22.8 -6.2,-9.6 -13,-18.9 -18,-29.1 -8.8,-16.5 -14.9,-34.9 -13.8,-53.7 1,-19.1 8.9,-37 18.4,-53.3003 4.1,-7 8.8,-13.7 13.2,-20.5 6.5,-8.6 12.7,-17.3 19.4,-25.7 9.3,-11.1 18.5,-22.4 27.9,-33.4 14.3,-15.8 28.4,-31.8 42.8,-47.5"
     id="path10"
     inkscape:connector-curvature="0" />
  <path
     style="fill:#e9b96e;stroke:#e9b96e;stroke-width:2.25;stroke-dasharray:13.5, 13.5"
     d="m 2.3868,144.447 260.7002,-0.1"
     id="path12"
     inkscape:connector-curvature="0" />
  <text
     x="103.484"
     y="160.596"
     transform="scale(1.00115,0.998851)"
     style="font-size:15.8px;font-family:'Comic Sans MS';overflow:visible;fill:#edd400;stroke-width:0.55"
     id="text14">focus</text>
  <text
     x="213.64"
     y="21.7819"
     transform="matrix(0.551868,0.834966,-0.83437,0.549642,0,0)"
     style="font-size:15.8px;font-family:'Comic Sans MS';fill:#0084c8;stroke-width:0.25px"
     id="text16">Hyperbola</text>
  <text
     x="-227.923"
     y="60.4234"
     transform="matrix(-0.010136,-0.998798,1.0011,-0.010112,0,0)"
     style="font-size:15.8px;font-family:'Comic Sans MS';fill:#c4a000;stroke-width:0.25px"
     id="text18">directrix</text>
  <path
     style="overflow:visible;fill:#3465a4;stroke:#c4a000;stroke-width:2.7;stroke-dasharray:2.7, 5.4"
     d="m 68.787,-23.1533 c 0,346.5003 0,347.5003 0,347.5003"
     id="path20"
     inkscape:connector-curvature="0" />
  <path
     style="fill:#babdb6;stroke:#2e3436;stroke-width:0.75;marker-start:url(#id1);marker-end:url(#id2)"
     d="m 126.787,43.3467 -24.5,99.1003"
     id="path22"
     inkscape:connector-curvature="0" />
  <circle
     cx="102.287"
     cy="-145.147"
     r="2.74097"
     transform="scale(1,-1)"
     style="fill:#fce94f;stroke:#2e3436;stroke-width:0.98"
     id="circle24" />
  <path
     style="fill:#babdb6;stroke:#2e3436;stroke-width:0.75;marker-start:url(#id1);marker-end:url(#id2)"
     d="m 68.787,43.1467 h 56.7"
     id="path26"
     inkscape:connector-curvature="0" />
  <g
     transform="matrix(0.184307,-0.080321,0.06253,0.236746,666.127,680.054)"
     id="g34"
     style="fill:#999999">
    <path
       style="fill:#999999;stroke-width:7.32"
       d="m -1925.5,-3105 c 42.7,-13.1 90.3,-12 131.2,6.9 34.7,16.8 72.5,31.8 111.8,26.3 19.1,-2.1 25.9,-3.6 45.2,-13.2 21.7,-9.5 29.8,-33.1 45.1,-49.3 20.2,-0.5 -7.1,15.7 -8.8,24.8 -17.3,30.8 -54.7,41.6 -87.7,44.7 -39.9,4.9 -77.8,-11 -113,-27.7 -35.5,-16.2 -75.8,-17.8 -113.5,-9.6 2.5,2 -8.4,-2 -10.3,-2.9 z"
       id="path28"
       inkscape:connector-curvature="0" />
    <path
       style="fill:#999999;stroke-width:7.32"
       d="m -1922.8,-3107.1 c 18.5,-6.7 38.2,-10.7 55.1,-21.3 20.4,2.2 -8.6,11.2 -15.2,14.4 -12.2,2.1 -24.9,12.8 -37,8 -1,-0.4 -2,-0.8 -2.9,-1.1 z"
       id="path30"
       inkscape:connector-curvature="0" />
    <path
       style="fill:#999999;stroke-width:7.32"
       d="m -1910.4,-3109.4 c 17.3,5.1 38.3,6.2 49.1,23 -11.2,8.7 -15.9,-8.1 -26.8,-9.4 -5.9,-4.4 -37.4,-3.1 -23.9,-12.2 0.5,-0.5 1.1,-0.9 1.6,-1.4 z"
       id="path32"
       inkscape:connector-curvature="0" />
  </g>
  <g
     transform="matrix(0.172228,-0.028466,0.067848,0.239067,666.387,746.221)"
     id="g42"
     style="fill:#999999">
    <path
       style="fill:#999999;stroke-width:7.32"
       d="m -2028.8,-3205.7 c 24.3,-17.8 52,-30.9 79.6,-42.7 44.3,-16.3 97.4,-25 140.3,-0.2 33.8,17.4 57.3,48.4 76,80.5 17.8,31 58.3,43.2 91.3,31.7 8.9,0.8 22.2,-18.1 34.3,-11.1 -7.6,8.4 -30.5,17.3 -45.8,19.9 -34.5,8.6 -73.1,-8 -90.1,-39.5 -21,-37.6 -52.4,-72.1 -94.6,-85.2 -38.9,-11 -81.2,-3 -117.5,13.1 -21.9,10.8 -44.5,21 -64.3,35.5 -3,-0.7 -6.1,-1.4 -9.1,-2.1 z"
       id="path36"
       inkscape:connector-curvature="0" />
    <path
       style="fill:#999999;stroke-width:7.32"
       d="m -2025.3,-3208.4 c 11,-13 19.7,-27.7 26.4,-43.3 18.6,-3.7 -0.1,15.4 -2.3,23.6 -6.9,7.9 -10.9,25.1 -24.1,19.7 z"
       id="path38"
       inkscape:connector-curvature="0" />
    <path
       style="fill:#999999;stroke-width:7.32"
       d="m -2026,-3206.5 c 17.5,-7.6 36.4,-13.8 55.6,-9.3 6.8,5.4 -15.4,9.4 -21.6,5.4 -11.4,-1.8 -21.1,11.6 -33.5,4.2 z"
       id="path40"
       inkscape:connector-curvature="0" />
  </g>
  <text
     x="239.787"
     y="41.6467"
     style="color:#000000;font-style:italic;font-size:16.200001px;font-family:'Comic Sans MS';text-align:center;text-anchor:middle;overflow:visible;fill:#999999;stroke-width:0.81px"
     id="text44">These distances</text>
  <path
     style="fill:none;stroke:#000000;stroke-width:0.6"
     d="m 68.787,57.8467 h 14.7 v -14.7"
     id="path46"
     inkscape:connector-curvature="0" />
  <text
     x="239.787"
     y="59.6467"
     style="color:#000000;font-style:italic;font-size:16.200001px;font-family:'Comic Sans MS';text-align:center;text-anchor:middle;overflow:visible;fill:#999999;stroke-width:0.81px"
     id="text48">are always in the</text>
  <text
     x="239.787"
     y="77.6467"
     style="color:#000000;font-style:italic;font-size:16.200001px;font-family:'Comic Sans MS';text-align:center;text-anchor:middle;overflow:visible;fill:#999999;stroke-width:0.81px"
     id="text50">same ratio !</text>
</svg>
