<?xml version="1.0" encoding="UTF-8" standalone="no"?>
<!-- Copyright 2017 mathsisfun.com -->

<svg
   width="260"
   height="220"
   version="1.1"
   id="svg85"
   sodipodi:docname="hyperbola6.svg"
   inkscape:version="1.1 (c68e22c387, 2021-05-23)"
   xmlns:inkscape="http://www.inkscape.org/namespaces/inkscape"
   xmlns:sodipodi="http://sodipodi.sourceforge.net/DTD/sodipodi-0.dtd"
   xmlns="http://www.w3.org/2000/svg"
   xmlns:svg="http://www.w3.org/2000/svg"
   xmlns:rdf="http://www.w3.org/1999/02/22-rdf-syntax-ns#"
   xmlns:cc="http://creativecommons.org/ns#"
   xmlns:dc="http://purl.org/dc/elements/1.1/">
  <metadata
     id="metadata89">
    <rdf:RDF>
      <cc:Work
         rdf:about="">
        <dc:format>image/svg+xml</dc:format>
        <dc:type
           rdf:resource="http://purl.org/dc/dcmitype/StillImage" />
      </cc:Work>
    </rdf:RDF>
  </metadata>
  <sodipodi:namedview
     pagecolor="#ffffff"
     bordercolor="#666666"
     borderopacity="1"
     objecttolerance="10"
     gridtolerance="10"
     guidetolerance="10"
     inkscape:pageopacity="0"
     inkscape:pageshadow="2"
     inkscape:window-width="640"
     inkscape:window-height="480"
     id="namedview87"
     showgrid="false"
     inkscape:current-layer="svg85"
     inkscape:pagecheckerboard="0" />
  <defs
     id="defs5">
    <marker
       id="id1"
       style="overflow:visible"
       orient="auto">
      <path
         transform="matrix(-0.8,0,0,-0.8,-10,0)"
         style="stroke:#000000;stroke-width:1pt"
         d="M 0,0 5,-5 -12.5,0 5,5 Z"
         id="path2"
         inkscape:connector-curvature="0" />
    </marker>
    <marker
       style="overflow:visible"
       orient="auto"
       id="id19477"
       inkscape:stockid="id19477">
      <path
         transform="matrix(-0.8,0,0,-0.8,-10,0)"
         style="fill:#204a87;fill-opacity:1;stroke:#204a87;stroke-width:1pt;stroke-opacity:1"
         d="M 0,0 5,-5 -12.5,0 5,5 Z"
         id="path4615"
         inkscape:connector-curvature="0" />
    </marker>
    <marker
       style="overflow:visible"
       orient="auto"
       id="id11898"
       inkscape:stockid="id11898">
      <path
         transform="matrix(-0.8,0,0,-0.8,-10,0)"
         style="fill:#204a87;fill-opacity:1;stroke:#204a87;stroke-width:1pt;stroke-opacity:1"
         d="M 0,0 5,-5 -12.5,0 5,5 Z"
         id="path4618"
         inkscape:connector-curvature="0" />
    </marker>
  </defs>
  <path
     inkscape:connector-curvature="0"
     id="path7"
     d="M -28.7048,112.448 H 257.18"
     style="fill:#e9b96e;stroke:#204a87;stroke-width:0.936;marker-end:url(#id19477)" />
  <path
     inkscape:connector-curvature="0"
     id="path9"
     d="M 130.655,263.288 V 1.8492"
     style="fill:#e9b96e;stroke:#204a87;stroke-width:0.935999;marker-end:url(#id11898)" />
  <text
     id="text11"
     style="font-style:italic;font-size:25.32px;font-family:'Trebuchet MS';overflow:visible;fill:#204a87;stroke-width:0.936001"
     transform="scale(1.00396,0.996056)"
     y="104.908"
     x="235.562">x</text>
  <text
     id="text13"
     style="font-style:italic;font-size:25.32px;font-family:'Trebuchet MS';overflow:visible;fill:#204a87;stroke-width:0.936001"
     transform="scale(1.00396,0.996056)"
     y="17.4582"
     x="108.757">y</text>
  <text
     id="text17"
     style="font-style:italic;font-size:25.32px;font-family:'Trebuchet MS';overflow:visible;fill:#fd3301;stroke:#fd3301;stroke-width:0.936001"
     transform="scale(1.00396,0.996056)"
     y="182.548"
     x="132.602">−b</text>
  <text
     id="text19"
     style="font-style:italic;font-size:25.32px;font-family:'Trebuchet MS';overflow:visible;fill:#fd3301;stroke:#fd3301;stroke-width:0.936001"
     transform="scale(1.00396,0.996056)"
     y="56.3083"
     x="134.642">b</text>
  <circle
     id="circle21"
     style="fill:#f44800;stroke:#f44800;stroke-width:0.744"
     transform="scale(1,-1)"
     r="2.66992"
     cy="-62.7137"
     cx="130.581" />
  <circle
     id="circle23"
     style="fill:#f44800;stroke:#f44800;stroke-width:0.744"
     transform="scale(1,-1)"
     r="2.66992"
     cy="-161.528"
     cx="130.535" />
  <g
     id="g65"
     transform="matrix(-0.355364,0,0,-0.372335,249.658,379.914)">
    <g
       id="g43"
       transform="translate(-853.459,49.8897)">
      <path
         inkscape:connector-curvature="0"
         id="path25"
         d="m 924.1,601.7 h 526.7"
         style="fill:#636466;fill-opacity:0.75;stroke:#0197fd;stroke-width:1.05;stroke-dasharray:8.4, 1" />
      <path
         inkscape:connector-curvature="0"
         id="path27"
         d="m 924.1,535.6 h 526.7"
         style="fill:#636466;fill-opacity:0.75;stroke:#0197fd;stroke-width:1.05;stroke-dasharray:8.4, 1" />
      <path
         inkscape:connector-curvature="0"
         id="path29"
         d="m 924.1,469.4 h 526.7"
         style="fill:#636466;fill-opacity:0.75;stroke:#0197fd;stroke-width:1.05;stroke-dasharray:8.4, 1" />
      <path
         inkscape:connector-curvature="0"
         id="path31"
         d="m 924.1,403.3 h 526.7"
         style="fill:#636466;fill-opacity:0.75;stroke:#0197fd;stroke-width:1.05;stroke-dasharray:8.4, 1" />
      <path
         inkscape:connector-curvature="0"
         id="path33"
         d="m 924.1,932.5 h 526.7"
         style="fill:#636466;fill-opacity:0.75;stroke:#0197fd;stroke-width:1.05;stroke-dasharray:8.4, 1" />
      <path
         inkscape:connector-curvature="0"
         id="path35"
         d="m 924.1,800.2 h 526.7"
         style="fill:#636466;fill-opacity:0.75;stroke:#0197fd;stroke-width:1.05;stroke-dasharray:8.4, 1" />
      <path
         inkscape:connector-curvature="0"
         id="path37"
         d="m 924.1,734 h 526.7"
         style="fill:#636466;fill-opacity:0.75;stroke:#0197fd;stroke-width:1.05;stroke-dasharray:8.4, 1" />
      <path
         inkscape:connector-curvature="0"
         id="path39"
         d="m 924.1,667.9 h 526.7"
         style="fill:#636466;fill-opacity:0.75;stroke:#0197fd;stroke-width:1.05;stroke-dasharray:8.4, 1" />
      <path
         inkscape:connector-curvature="0"
         id="path41"
         d="m 926.5,866.3 h 526.7"
         style="fill:#636466;fill-opacity:0.75;stroke:#0197fd;stroke-width:1.05;stroke-dasharray:8.4, 1" />
    </g>
    <g
       id="g63"
       transform="rotate(-90,786.875,1119.55)">
      <path
         inkscape:connector-curvature="0"
         id="path45"
         d="m 924.1,601.7 h 526.7"
         style="fill:#636466;fill-opacity:0.75;stroke:#0197fd;stroke-width:1.05;stroke-dasharray:8.4, 1" />
      <path
         inkscape:connector-curvature="0"
         id="path47"
         d="m 924.1,535.6 h 526.7"
         style="fill:#636466;fill-opacity:0.75;stroke:#0197fd;stroke-width:1.05;stroke-dasharray:8.4, 1" />
      <path
         inkscape:connector-curvature="0"
         id="path49"
         d="m 924.1,469.4 h 526.7"
         style="fill:#636466;fill-opacity:0.75;stroke:#0197fd;stroke-width:1.05;stroke-dasharray:8.4, 1" />
      <path
         inkscape:connector-curvature="0"
         id="path51"
         d="m 924.1,403.3 h 526.7"
         style="fill:#636466;fill-opacity:0.75;stroke:#0197fd;stroke-width:1.05;stroke-dasharray:8.4, 1" />
      <path
         inkscape:connector-curvature="0"
         id="path53"
         d="m 924.1,932.5 h 526.7"
         style="fill:#636466;fill-opacity:0.75;stroke:#0197fd;stroke-width:1.05;stroke-dasharray:8.4, 1" />
      <path
         inkscape:connector-curvature="0"
         id="path55"
         d="m 924.1,800.2 h 526.7"
         style="fill:#636466;fill-opacity:0.75;stroke:#0197fd;stroke-width:1.05;stroke-dasharray:8.4, 1" />
      <path
         inkscape:connector-curvature="0"
         id="path57"
         d="m 924.1,734 h 526.7"
         style="fill:#636466;fill-opacity:0.75;stroke:#0197fd;stroke-width:1.05;stroke-dasharray:8.4, 1" />
      <path
         inkscape:connector-curvature="0"
         id="path59"
         d="m 924.1,667.9 h 526.7"
         style="fill:#636466;fill-opacity:0.75;stroke:#0197fd;stroke-width:1.05;stroke-dasharray:8.4, 1" />
      <path
         inkscape:connector-curvature="0"
         id="path61"
         d="m 926.5,866.3 h 526.7"
         style="fill:#636466;fill-opacity:0.75;stroke:#0197fd;stroke-width:1.05;stroke-dasharray:8.4, 1" />
    </g>
  </g>
  <path
     inkscape:connector-curvature="0"
     id="path67"
     d="m 290.135,261.488 c -13.92,-14.28 -28.08,-28.44 -42,-42.72 -8.04,-9 -16.32,-17.76 -24.24,-26.88 -4.92,-6.12 -9.96,-12 -14.76,-18.12 -5.4,-7.56 -11.16,-15 -15.6,-23.16 -7.56,-13.08 -12.96,-27.72 -12,-42.72 0.84,-15.1198 7.68,-29.3998 15.96,-42.3598 3.6,-5.52 7.56,-10.92 11.4,-16.32 5.64,-6.84 11.04,-13.68 16.8,-20.4 8.04,-8.88 15.96,-17.76 24.12,-26.52 12.36,-12.6 24.6,-25.2 36.96,-37.8"
     style="overflow:visible;fill:none;stroke:#729fcf;stroke-width:2.568" />
  <text
     id="text69"
     style="font-style:italic;font-size:25.32px;font-family:'Trebuchet MS';overflow:visible;fill:#fd3301;stroke:#fd3301;stroke-width:0.936001"
     transform="scale(1.00396,0.996056)"
     y="107.068"
     x="185.402">a</text>
  <circle
     id="circle71"
     style="fill:#f44800;stroke:#f44800;stroke-width:0.744"
     transform="scale(1,-1)"
     r="2.66992"
     cy="-110.288"
     cx="181.775" />
  <path
     inkscape:connector-curvature="0"
     id="path73"
     d="M -23.6648,-39.8318 287.375,266.888"
     style="overflow:visible;fill:#013397;stroke:#b3defd;stroke-width:1.716" />
  <path
     inkscape:connector-curvature="0"
     id="path75"
     d="m -28.2248,261.488 c 13.92,-14.28 28.07996,-28.44 42,-42.72 8.04,-9 16.32,-17.76 24.24,-26.88 4.92,-6.12 9.96,-12 14.76,-18.12 5.4,-7.56 11.16,-15 15.6,-23.16 7.56,-13.08 12.96,-27.72 12,-42.72 -0.84,-15.1198 -7.68,-29.3998 -15.96,-42.3598 -3.6,-5.52 -7.56,-10.92 -11.4,-16.32 -5.64,-6.84 -11.04,-13.68 -16.8,-20.4 -8.04,-8.88 -15.96,-17.76 -24.12,-26.52 -12.36004,-12.6 -24.6,-25.2 -37.08,-37.8"
     style="overflow:visible;fill:none;stroke:#729fcf;stroke-width:2.568" />
  <path
     inkscape:connector-curvature="0"
     id="path77"
     d="M 284.615,-39.7118 -28.4648,267.128"
     style="overflow:visible;fill:#013397;stroke:#b3defd;stroke-width:1.716" />
  <text
     id="text79"
     style="font-style:italic;font-size:25.32px;font-family:'Trebuchet MS';overflow:visible;fill:#fd3301;stroke:#fd3301;stroke-width:0.936001"
     transform="scale(1.00396,0.996056)"
     y="107.819"
     x="47.0783">−a</text>
  <circle
     id="circle81"
     style="fill:#f44800;stroke:#f44800;stroke-width:0.744"
     transform="scale(1,-1)"
     r="2.66992"
     cy="-111.008"
     cx="80.3752" />
  <rect
     id="rect15"
     style="overflow:visible;fill:none;stroke:#f44800;stroke-width:0.936001"
     height="98.458"
     width="101.735"
     y="62.8389"
     x="80.1354" />
</svg>
