<?xml version="1.0" encoding="UTF-8" standalone="no"?>
<!-- Copyright 2017 mathsisfun.com -->

<svg
   xmlns:dc="http://purl.org/dc/elements/1.1/"
   xmlns:cc="http://creativecommons.org/ns#"
   xmlns:rdf="http://www.w3.org/1999/02/22-rdf-syntax-ns#"
   xmlns:svg="http://www.w3.org/2000/svg"
   xmlns="http://www.w3.org/2000/svg"
   xmlns:sodipodi="http://sodipodi.sourceforge.net/DTD/sodipodi-0.dtd"
   xmlns:inkscape="http://www.inkscape.org/namespaces/inkscape"
   width="378.56"
   height="302.958"
   version="1.1"
   id="svg1570"
   sodipodi:docname="hyperbola-foci.svg"
   inkscape:version="0.92.2 (5c3e80d, 2017-08-06)">
  <metadata
     id="metadata1574">
    <rdf:RDF>
      <cc:Work
         rdf:about="">
        <dc:format>image/svg+xml</dc:format>
        <dc:type
           rdf:resource="http://purl.org/dc/dcmitype/StillImage" />
        <dc:title />
      </cc:Work>
    </rdf:RDF>
  </metadata>
  <sodipodi:namedview
     pagecolor="#ffffff"
     bordercolor="#666666"
     borderopacity="1"
     objecttolerance="10"
     gridtolerance="10"
     guidetolerance="10"
     inkscape:pageopacity="0"
     inkscape:pageshadow="2"
     inkscape:window-width="640"
     inkscape:window-height="480"
     id="namedview1572"
     showgrid="false"
     inkscape:current-layer="svg1570" />
  <defs
     id="defs1512" />
  <rect
     style="color:#000000;clip-rule:nonzero;display:inline;overflow:visible;visibility:visible;opacity:1;isolation:auto;mix-blend-mode:normal;color-interpolation:sRGB;color-interpolation-filters:linearRGB;solid-color:#000000;solid-opacity:1;vector-effect:none;fill:#ffffff;fill-opacity:1;fill-rule:nonzero;stroke:none;stroke-width:1;stroke-linecap:butt;stroke-linejoin:miter;stroke-miterlimit:4;stroke-dasharray:none;stroke-dashoffset:0;stroke-opacity:1;marker:none;marker-start:none;marker-mid:none;marker-end:none;color-rendering:auto;image-rendering:auto;shape-rendering:auto;text-rendering:auto;enable-background:accumulate"
     id="rect1501"
     width="378.56"
     height="302.958"
     x="0"
     y="0" />
  <text
     id="text1514"
     style="font-size:15.8px;font-family:'Comic Sans MS';overflow:visible;fill:#121513;stroke-width:0.25px"
     transform="scale(1.00115,0.998851)"
     y="148.54"
     x="313.702">axis of</text>
  <path
     inkscape:connector-curvature="0"
     id="path1516"
     d="m 9.47779,153.167 407.70021,-0.2"
     style="fill:#e9b96e;stroke:#000000;stroke-width:1.23" />
  <text
     id="text1518"
     style="font-size:15.8px;font-family:'Comic Sans MS';overflow:visible;fill:#edd400;stroke-width:0.55"
     transform="scale(1.00115,0.998851)"
     y="211.884"
     x="-127.979">focus</text>
  <circle
     id="circle1524"
     style="fill:#fce94f;stroke:#2e3436;stroke-width:0.98"
     transform="scale(1,-1)"
     r="2.74097"
     cy="-153.067"
     cx="258.378" />
  <path
     inkscape:connector-curvature="0"
     id="path1526"
     d="m 361.178,342.467 c -16.2,-17.9 -32.4,-35.8 -48.5,-53.8 -9.3,-11.3 -18.8,-22.4 -28,-33.8 -5.6,-7.6 -11.5,-15.1 -17,-22.8 -6.2,-9.6 -13,-18.9 -18.1,-29.1 -8.8,-16.5 -14.9,-34.9 -13.8,-53.7 1,-19.1 8.9,-37 18.4,-53.3003 4.1,-7 8.8,-13.7 13.2,-20.5 6.5,-8.6 12.7,-17.3 19.4,-25.7 9.3,-11.1 18.5,-22.4 27.9,-33.4 14.3,-15.800001 28.4,-31.8 42.8,-47.5"
     style="overflow:visible;fill:none;stroke:#729fcf;stroke-width:2.25" />
  <path
     inkscape:connector-curvature="0"
     id="path1530"
     d="m 15.0778,342.467 c 16.2,-17.9 32.4,-35.8 48.5,-53.8 9.3,-11.3 18.8,-22.4 28,-33.8 5.6,-7.6 11.5002,-15.1 17.0002,-22.8 6.2,-9.6 13,-18.9 18,-29.1 8.8,-16.5 14.9,-34.9 13.8,-53.7 -1,-19.1 -8.9,-37 -18.4,-53.3003 -4.1,-7 -8.8,-13.7 -13.2,-20.5 -6.5,-8.6 -12.7002,-17.3 -19.4002,-25.7 -9.3,-11.1 -18.5,-22.4 -27.9,-33.4 -14.3,-15.800001 -28.4,-31.8 -42.8,-47.5"
     style="overflow:visible;fill:none;stroke:#729fcf;stroke-width:2.25" />
  <path
     inkscape:connector-curvature="0"
     id="path1532"
     d="M 32.2778,-18.0333 375.378,360.567"
     style="overflow:visible;fill:none;stroke:#b3defd;stroke-width:2.25" />
  <path
     inkscape:connector-curvature="0"
     id="path1534"
     d="M 10.0778,349.967 355.478,-31.0333"
     style="overflow:visible;fill:#013397;stroke:#b3defd;stroke-width:2.25" />
  <circle
     id="circle1540"
     style="fill:#fce94f;stroke:#2e3436;stroke-width:0.98"
     transform="scale(1,-1)"
     r="2.74097"
     cy="-153.367"
     cx="114.478" />
  <path
     inkscape:connector-curvature="0"
     id="path1542"
     d="m 187.478,350.167 0.8,-394.5003"
     style="fill:#e9b96e;stroke:#000000;stroke-width:1.23" />
  <text
     id="text1544"
     style="font-size:18px;font-family:'Comic Sans MS';fill:#b3defd;stroke-width:0.25px"
     transform="matrix(0.654905,0.754187,-0.755957,0.656381,0,0)"
     y="-30.7443"
     x="331.857">asymptote</text>
  <text
     id="text1546"
     style="font-size:18px;font-family:'Comic Sans MS';fill:#b3defd;stroke-width:0.25px"
     transform="matrix(0.685623,-0.726374,0.728018,0.687238,0,0)"
     y="258.558"
     x="-154.045">asymptote</text>
  <text
     id="text1548"
     style="font-size:15.8px;font-family:'Comic Sans MS';overflow:visible;fill:#babdb6;stroke-width:0.25px"
     transform="scale(1.00115,0.998851)"
     y="117.501"
     x="54.0962">Vertex</text>
  <g
     id="g1556"
     transform="matrix(0.094426,-0.091259,0.091469,0.094644,13.9278,505.658)">
    <path
       inkscape:connector-curvature="0"
       id="path1550"
       d="m 3096.4,-754.5 c 68.6,-32.3 148.8,-7.6 205.5,37.3 46.7,42.6 111.6,72.5 175.3,53.5 19.9,-3.7 3.3,-2.9 31.3,-8 -19.4,20.7 6,8.3 -27.6,18 -66.4,22.5 -138,-4.2 -187.5,-50.1 -49.8,-38.6 -118.7,-68.8 -181,-44.6 -5.3,-2.1 -10.7,-4.1 -16,-6.2 z"
       style="overflow:visible;fill:#babdb6;stroke-width:10.8;stroke-dasharray:10.8, 21.6" />
    <path
       inkscape:connector-curvature="0"
       id="path1552"
       d="m 3110,-760.1 c 28.8,-6.1 55.8,-43.3 86,-28.1 -28.6,6.9 -57.1,42.1 -86,28.1 z"
       style="overflow:visible;fill:#babdb6;stroke-width:10.8;stroke-dasharray:10.8, 21.6" />
    <path
       inkscape:connector-curvature="0"
       id="path1554"
       d="m 3126.3,-759.4 c 16.5,-4.5 92.4,14.8 58.5,30.9 -12.8,-17.3 -77.2,-12.1 -62,-27.1 l 2.1,-2.2 z"
       style="overflow:visible;fill:#babdb6;stroke-width:10.8;stroke-dasharray:10.8, 21.6" />
  </g>
  <g
     id="g1564"
     transform="matrix(-0.094426,-0.091259,-0.091469,0.094644,361.498,504.589)">
    <path
       inkscape:connector-curvature="0"
       id="path1558"
       d="m 3096.4,-754.5 c 68.6,-32.3 148.8,-7.6 205.5,37.3 46.7,42.6 111.6,72.5 175.3,53.5 19.9,-3.7 3.3,-2.9 31.3,-8 -19.4,20.7 6,8.3 -27.6,18 -66.4,22.5 -138,-4.2 -187.5,-50.1 -49.8,-38.6 -118.7,-68.8 -181,-44.6 -5.3,-2.1 -10.7,-4.1 -16,-6.2 z"
       style="overflow:visible;fill:#babdb6;stroke-width:10.8;stroke-dasharray:10.8, 21.6" />
    <path
       inkscape:connector-curvature="0"
       id="path1560"
       d="m 3110,-760.1 c 28.8,-6.1 55.8,-43.3 86,-28.1 -28.6,6.9 -57.1,42.1 -86,28.1 z"
       style="overflow:visible;fill:#babdb6;stroke-width:10.8;stroke-dasharray:10.8, 21.6" />
    <path
       inkscape:connector-curvature="0"
       id="path1562"
       d="m 3126.3,-759.4 c 16.5,-4.5 92.4,14.8 58.5,30.9 -12.8,-17.3 -77.2,-12.1 -62,-27.1 l 2.1,-2.2 z"
       style="overflow:visible;fill:#babdb6;stroke-width:10.8;stroke-dasharray:10.8, 21.6" />
  </g>
  <text
     id="text1566"
     style="font-size:15.8px;font-family:'Comic Sans MS';overflow:visible;fill:#babdb6;stroke-width:0.25px"
     transform="scale(1.00115,0.998851)"
     y="119.101"
     x="276.596">Vertex</text>
  <text
     x="106.796"
     y="179.242"
     transform="scale(1.00115,0.998851)"
     style="font-style:normal;font-variant:normal;font-weight:normal;font-stretch:normal;font-size:24px;font-family:'Comic Sans MS';-inkscape-font-specification:'Comic Sans MS, Normal';font-variant-ligatures:normal;font-variant-caps:normal;font-variant-numeric:normal;font-feature-settings:normal;text-align:start;writing-mode:lr-tb;text-anchor:start;overflow:visible;fill:#edd400;stroke-width:0.55"
     id="text1179">F</text>
  <text
     id="text1181"
     style="font-style:normal;font-variant:normal;font-weight:normal;font-stretch:normal;font-size:24px;font-family:'Comic Sans MS';-inkscape-font-specification:'Comic Sans MS, Normal';font-variant-ligatures:normal;font-variant-caps:normal;font-variant-numeric:normal;font-feature-settings:normal;text-align:start;writing-mode:lr-tb;text-anchor:start;overflow:visible;fill:#edd400;stroke-width:0.55"
     transform="scale(1.00115,0.998851)"
     y="179.242"
     x="253.416">G</text>
  <text
     xml:space="preserve"
     style="color:#000000;font-style:italic;font-variant:normal;font-weight:normal;font-stretch:normal;font-size:20px;line-height:25px;font-family:'Comic Sans MS';-inkscape-font-specification:'Comic Sans MS, Italic';text-indent:0;text-align:start;text-decoration:none;text-decoration-line:none;text-decoration-style:solid;text-decoration-color:#000000;letter-spacing:0px;word-spacing:0px;text-transform:none;writing-mode:lr-tb;direction:ltr;baseline-shift:baseline;text-anchor:start;white-space:normal;clip-rule:nonzero;display:inline;overflow:visible;visibility:visible;opacity:1;isolation:auto;mix-blend-mode:normal;color-interpolation:sRGB;color-interpolation-filters:linearRGB;solid-color:#000000;solid-opacity:1;fill:#000000;fill-opacity:1;fill-rule:nonzero;stroke:none;stroke-width:1px;stroke-linecap:butt;stroke-linejoin:miter;stroke-miterlimit:4;stroke-dasharray:none;stroke-dashoffset:0;stroke-opacity:1;color-rendering:auto;image-rendering:auto;shape-rendering:auto;text-rendering:auto;enable-background:accumulate"
     x="210.061"
     y="167.585"
     id="text2075"><tspan
       sodipodi:role="line"
       id="tspan2073"
       x="210.061"
       y="167.585">a</tspan></text>
  <text
     xml:space="preserve"
     style="color:#000000;font-style:italic;font-variant:normal;font-weight:normal;font-stretch:normal;font-size:20px;line-height:25px;font-family:'Comic Sans MS';-inkscape-font-specification:'Comic Sans MS, Italic';text-indent:0;text-align:start;text-decoration:none;text-decoration-line:none;text-decoration-style:solid;text-decoration-color:#000000;letter-spacing:0px;word-spacing:0px;text-transform:none;writing-mode:lr-tb;direction:ltr;baseline-shift:baseline;text-anchor:start;white-space:normal;clip-rule:nonzero;display:inline;overflow:visible;visibility:visible;opacity:1;isolation:auto;mix-blend-mode:normal;color-interpolation:sRGB;color-interpolation-filters:linearRGB;solid-color:#000000;solid-opacity:1;fill:#000000;fill-opacity:1;fill-rule:nonzero;stroke:none;stroke-width:1px;stroke-linecap:butt;stroke-linejoin:miter;stroke-miterlimit:4;stroke-dasharray:none;stroke-dashoffset:0;stroke-opacity:1;color-rendering:auto;image-rendering:auto;shape-rendering:auto;text-rendering:auto;enable-background:accumulate"
     x="154.564"
     y="168.104"
     id="text2079"><tspan
       sodipodi:role="line"
       id="tspan2077"
       x="154.564"
       y="168.104">a</tspan></text>
  <text
     x="99.9579"
     y="-45.2627"
     transform="matrix(0.654663,0.757442,-0.755702,0.65316,0,0)"
     style="font-size:15.8px;font-family:'Comic Sans MS';overflow:visible;fill:#b3defd;stroke-width:0.25px"
     id="text2081">asymptote</text>
  <text
     id="text2083"
     style="font-size:15.8px;font-family:'Comic Sans MS';overflow:visible;fill:#b3defd;stroke-width:0.25px"
     transform="matrix(0.6748,-0.739558,0.73786,0.67325,0,0)"
     y="236.243"
     x="77.8145"
     inkscape:transform-center-x="-1.36412"
     inkscape:transform-center-y="0.591819">asymptote</text>
  <text
     x="302.604"
     y="165.156"
     transform="scale(1.00115,0.998851)"
     style="font-size:15.8px;font-family:'Comic Sans MS';overflow:visible;fill:#121513;stroke-width:0.25px"
     id="text2085">symmetry</text>
</svg>
