<?xml version="1.0" encoding="UTF-8" standalone="no"?>
<!-- Copyright 2021 mathsisfun.com -->
<svg xmlns:sodipodi="http://sodipodi.sourceforge.net/DTD/sodipodi-0.dtd" xmlns="http://www.w3.org/2000/svg" width="174.5" height="167.2" version="1.1" style="font-family:'Trebuchet MS'; font-size:16px; fill:#204a87;">
<defs>
	<marker style="overflow:visible;" orient="auto">
		<path transform="matrix(0.4,0,0,0.4,4,0)" style="fill:#ba00ff; stroke:#ba00ff; stroke-width:1pt;" d="M 0,0 5,-5 -12.5,0 5,5 Z"/>
	</marker>
	<marker style="overflow:visible;" orient="auto">
		<path transform="matrix(-0.4,0,0,-0.4,-4,0)" style="fill:#ba00ff; stroke:#ba00ff; stroke-width:1pt;" d="M 0,0 5,-5 -12.5,0 5,5 Z"/>
	</marker>
</defs>
<g transform="translate(92.4109,-1903.47)">
	<circle cx="-9.9" cy="1988.2" r="82.0454" style="font-family:Arial; font-size:69.5px; fill:none; stroke:#f57900; stroke-width:1;"/>
	<text x="-11.8" y="2003.2" style="stroke-width:1;">O</text>
	<text x="71.2" y="2023.9" style="stroke-width:1;">C</text>
	<text x="31.5" y="1914.9" style="stroke-width:1;">B</text>
	<text x="-68.5" y="1918.2" style="stroke-width:1;">A</text>
	<text x="11.4" y="1968.5" style="stroke-width:1;">85</text>
	<circle cx="-9.3" cy="1987.4" r="1.66332" style="font-family:Arial; font-size:116.6px; fill:#ba00ff; stroke:#ba00ff; stroke-width:0.55;"/>
	<path style="fill:none; stroke:#3465a4; stroke-width:1;" d="m -69.6,2043.8 c 13.4,-122.9 13.4,-122.9 13.4,-122.9 124.4,94 124.4,94 124.4,94"/>
	<path style="fill:none; stroke:#3465a4; stroke-width:1;" d="M -69.6,2043.8 C 32.2,1917.7 32.2,1917.7 32.2,1917.7 c 35.2,95.5 35.2,95.5 35.2,95.5"/>
	<text x="-79.1" y="2058.5" style="stroke-width:1;">D</text>
	<path style="fill:none; stroke:#0084c8; stroke-width:0.58;" d="m 3.6,1953.3 a 12.5,12.5 0 0 1 4.7,16" sodipodi:type="arc" sodipodi:cx="-3.05881" sodipodi:cy="1963.92" sodipodi:rx="12.5333" sodipodi:ry="12.5333" sodipodi:start="5.26915" sodipodi:end="0.441568" sodipodi:arc-type="arc"/>
	<path style="fill:none; stroke:#0084c8; stroke-width:0.58;" d="m -68.1,2025 a 12.5,12.5 0 0 1 10,4.8" sodipodi:type="arc" sodipodi:cx="-68.0458" sodipodi:cy="2037.52" sodipodi:rx="12.5333" sodipodi:ry="12.5333" sodipodi:start="4.70715" sodipodi:end="5.62345" sodipodi:arc-type="arc"/>
	<text x="-63.2" y="2012.7" style="stroke-width:1;">32</text>
	<text x="-21.4" y="1968.5" style="stroke-width:1;">X</text>
	<text x="29.4" y="1907.9" transform="scale(0.973467,1.02726)" style="font-size:9.8px; stroke-width:1;">O</text>
	<text x="-47.2" y="1950.3" transform="scale(0.973467,1.02726)" style="font-size:9.8px; stroke-width:1;">O</text>
</g>
</svg>