<?xml version="1.0" encoding="UTF-8" standalone="no"?>
<svg
   xmlns:dc="http://purl.org/dc/elements/1.1/"
   xmlns:cc="http://creativecommons.org/ns#"
   xmlns:rdf="http://www.w3.org/1999/02/22-rdf-syntax-ns#"
   xmlns:svg="http://www.w3.org/2000/svg"
   xmlns="http://www.w3.org/2000/svg"
   xmlns:sodipodi="http://sodipodi.sourceforge.net/DTD/sodipodi-0.dtd"
   xmlns:inkscape="http://www.inkscape.org/namespaces/inkscape"
   width="315.118"
   height="124.96"
   version="1.1"
   id="svg50"
   sodipodi:docname="interior-exterior-angles.svg"
   inkscape:version="1.0.1 (3bc2e813f5, 2020-09-07)">
  <metadata
     id="metadata54">
    <rdf:RDF>
      <cc:Work
         rdf:about="">
        <dc:format>image/svg+xml</dc:format>
        <dc:type
           rdf:resource="http://purl.org/dc/dcmitype/StillImage" />
      </cc:Work>
    </rdf:RDF>
  </metadata>
  <sodipodi:namedview
     pagecolor="#ffffff"
     bordercolor="#666666"
     borderopacity="1"
     objecttolerance="10"
     gridtolerance="10"
     guidetolerance="10"
     inkscape:pageopacity="0"
     inkscape:pageshadow="2"
     inkscape:window-width="640"
     inkscape:window-height="480"
     id="namedview52"
     showgrid="false"
     inkscape:current-layer="svg50"
     inkscape:document-rotation="0" />
  <defs
     id="defs20">
    <marker
       id="id6"
       style="overflow:visible"
       orient="auto">
      <path
         transform="matrix(0.4,0,0,0.4,4,0)"
         style="fill:#ff4141;stroke:#ff4141;stroke-width:1pt"
         d="M 0,0 5,-5 -12.5,0 5,5 Z"
         id="path2"
         inkscape:connector-curvature="0" />
    </marker>
    <marker
       id="id5"
       style="overflow:visible"
       orient="auto">
      <path
         transform="matrix(-0.4,0,0,-0.4,-4,0)"
         style="fill:#ff4141;stroke:#ff4141;stroke-width:1pt"
         d="M 0,0 5,-5 -12.5,0 5,5 Z"
         id="path5"
         inkscape:connector-curvature="0" />
    </marker>
    <marker
       id="id2"
       style="overflow:visible"
       orient="auto">
      <path
         transform="matrix(-0.4,0,0,-0.4,-4,0)"
         style="stroke:#000000;stroke-width:1pt"
         d="M 0,0 5,-5 -12.5,0 5,5 Z"
         id="path8"
         inkscape:connector-curvature="0" />
    </marker>
    <marker
       id="id1"
       style="overflow:visible"
       orient="auto">
      <path
         transform="matrix(0.4,0,0,0.4,4,0)"
         style="stroke:#000000;stroke-width:1pt"
         d="M 0,0 5,-5 -12.5,0 5,5 Z"
         id="path11"
         inkscape:connector-curvature="0" />
    </marker>
    <marker
       id="id3"
       style="overflow:visible"
       orient="auto">
      <path
         transform="matrix(0.4,0,0,0.4,4,0)"
         style="fill:#4e9a06;stroke:#4e9a06;stroke-width:1pt"
         d="M 0,0 5,-5 -12.5,0 5,5 Z"
         id="path14"
         inkscape:connector-curvature="0" />
    </marker>
    <marker
       id="id4"
       style="overflow:visible"
       orient="auto">
      <path
         transform="matrix(-0.4,0,0,-0.4,-4,0)"
         style="fill:#4e9a06;stroke:#4e9a06;stroke-width:1pt"
         d="M 0,0 5,-5 -12.5,0 5,5 Z"
         id="path17"
         inkscape:connector-curvature="0" />
    </marker>
    <marker
       style="overflow:visible"
       orient="auto"
       id="id17008"
       inkscape:stockid="id17008">
      <path
         transform="matrix(0.4,0,0,0.4,4,0)"
         style="stroke:#204a87;stroke-width:1pt;stroke-opacity:1;fill-opacity:1;fill:#204a87"
         d="M 0,0 5,-5 -12.5,0 5,5 Z"
         id="path905"
         inkscape:connector-curvature="0" />
    </marker>
    <marker
       style="overflow:visible"
       orient="auto"
       id="id21807"
       inkscape:stockid="id21807">
      <path
         transform="matrix(-0.4,0,0,-0.4,-4,0)"
         style="stroke:#204a87;stroke-width:1pt;stroke-opacity:1;fill-opacity:1;fill:#204a87"
         d="M 0,0 5,-5 -12.5,0 5,5 Z"
         id="path908"
         inkscape:connector-curvature="0" />
    </marker>
  </defs>
  <path
     inkscape:connector-curvature="0"
     id="path22"
     d="m 140.635,76.9686 a 81,78.9 0 0 1 87.6,-26.4 81,78.9 0 0 1 56.8,70.1004"
     style="overflow:visible;fill:none;stroke:#204a87;stroke-width:1.62;marker-start:url(#id17008);marker-end:url(#id21807)" />
  <text
     id="text24"
     style="font-size:18.6px;font-family:'Comic Sans MS';text-align:center;text-anchor:middle;overflow:visible;fill:#000000;stroke-width:3.94"
     y="2479.47"
     x="3679.73" />
  <path
     inkscape:connector-curvature="0"
     id="path26"
     d="m 212.235,123.619 -211.3,0.1 V 1.6195 l 211.3,121.9995"
     style="overflow:visible;fill:none;stroke:#0169c9;stroke-width:1.87;stroke-miterlimit:4;stroke-dasharray:none"
     sodipodi:nodetypes="cccc" />
  <path
     inkscape:connector-curvature="0"
     id="path28"
     d="m 163.535,120.969 a 37.9,37.9 0 0 1 38.3,-36.0004 37.9,37.9 0 0 1 37.5,36.8004"
     style="overflow:visible;fill:none;stroke:#ff9900;stroke-width:1.62;marker-start:url(#id3);marker-end:url(#id4)" />
  <path
     inkscape:connector-curvature="0"
     id="path30"
     d="m 123.335,121.569 a 81,78.9 0 0 1 14.1,-40.2004"
     style="overflow:visible;fill:none;stroke:#ff4141;stroke-width:1.62;marker-start:url(#id6);marker-end:url(#id5)" />
  <text
     id="text34"
     style="font-size:16.7px;font-family:'Comic Sans MS';text-align:center;text-anchor:middle;overflow:visible;fill:#204a87;stroke-width:3.94"
     y="43.3086"
     x="234.449">150°</text>
  <text
     id="text38"
     style="font-size:16.7px;font-family:'Comic Sans MS';text-align:center;text-anchor:middle;overflow:visible;fill:#ff4141;stroke-width:3.94"
     y="106.769"
     x="99.8937">30°</text>
  <text
     id="text42"
     style="font-size:16.7px;font-family:'Comic Sans MS';text-align:center;text-anchor:middle;overflow:visible;fill:#ff9900;stroke-width:3.94"
     y="80.9125"
     x="203.325">180°</text>
  <text
     id="text44"
     style="font-style:italic;font-size:16px;font-family:'Comic Sans MS';text-align:center;text-anchor:middle;overflow:visible;fill:#204a87;stroke-width:10.06"
     y="23.9241"
     x="229.923">Exterior Angle</text>
  <text
     id="text46"
     style="font-style:italic;font-size:16px;font-family:'Comic Sans MS';text-align:center;text-anchor:middle;overflow:visible;fill:#ff4141;stroke-width:10.06"
     y="84.9396"
     x="60.7292">Interior Angle</text>
  <path
     style="fill:none;fill-rule:evenodd;stroke:#19aeff;stroke-width:1.829342;stroke-linecap:butt;stroke-linejoin:miter;stroke-miterlimit:4;stroke-dasharray:7.317368, 7.31736800000000009;stroke-opacity:1;stroke-dashoffset:0"
     d="M 212.235,123.619 H 315.118"
     id="path955"
     inkscape:connector-curvature="0" />
</svg>
