<?xml version="1.0" encoding="UTF-8" standalone="no"?>
<!-- Copyright 2021 mathsisfun.com -->
<svg xmlns:sodipodi="http://sodipodi.sourceforge.net/DTD/sodipodi-0.dtd" xmlns="http://www.w3.org/2000/svg" xmlns:xlink="http://www.w3.org/1999/xlink" width="123.4" height="112.1" version="1.1" style="font-family:Verdana; font-size:26.1px; stroke-width:1pt;">
<defs>
	<marker style="overflow:visible;" orient="auto">
		<path transform="matrix(-0.4,0,0,-0.4,-4,0)" style="stroke:black;" d="M 0,0 5,-5 -12.5,0 5,5 Z"/>
	</marker>
	<marker style="overflow:visible;" orient="auto">
		<path transform="matrix(0.4,0,0,0.4,4,0)" style="fill:#4e9a06; stroke:#4e9a06;" d="M 0,0 5,-5 -12.5,0 5,5 Z"/>
	</marker>
	<marker style="overflow:visible;" orient="auto">
		<path transform="matrix(-0.4,0,0,-0.4,-4,0)" style="fill:#4e9a06; stroke:#4e9a06;" d="M 0,0 5,-5 -12.5,0 5,5 Z"/>
	</marker>
	<marker style="overflow:visible;" orient="auto">
		<path transform="matrix(0.4,0,0,0.4,4,0)" style="fill:#73d216; stroke:#73d216;" d="M 0,0 5,-5 -12.5,0 5,5 Z"/>
	</marker>
	<marker style="overflow:visible;" orient="auto">
		<path transform="matrix(-0.4,0,0,-0.4,-4,0)" style="fill:#73d216; stroke:#73d216;" d="M 0,0 5,-5 -12.5,0 5,5 Z"/>
	</marker>
	<marker style="overflow:visible;" orient="auto">
		<path transform="matrix(-0.4,0,0,-0.4,-4,0)" style="fill:#204a87; stroke:#204a87;" d="M 0,0 5,-5 -12.5,0 5,5 Z"/>
	</marker>
	<marker style="overflow:visible;" orient="auto">
		<path transform="matrix(-0.4,0,0,-0.4,-4,0)" style="fill:#204a87; stroke:#204a87;" d="M 0,0 5,-5 -12.5,0 5,5 Z"/>
	</marker>
	<marker style="overflow:visible;" orient="auto">
		<path transform="matrix(-0.4,0,0,-0.4,-4,0)" style="fill:#204a87; stroke:#204a87;" d="M 0,0 5,-5 -12.5,0 5,5 Z"/>
	</marker>
	<marker style="overflow:visible;" orient="auto">
		<path transform="matrix(-0.4,0,0,-0.4,-4,0)" style="fill:#204a87; stroke:#204a87;" d="M 0,0 5,-5 -12.5,0 5,5 Z"/>
	</marker>
	<marker id="id4" style="overflow:visible;" orient="auto">
		<path transform="matrix(-0.4,0,0,-0.4,-4,0)" style="fill:#ff0000; stroke:#ff0000;" d="M 0,0 5,-5 -12.5,0 5,5 Z"/>
	</marker>
	<marker id="id1" style="overflow:visible;" orient="auto">
		<path transform="matrix(-0.4,0,0,-0.4,-4,0)" style="fill:#ff0000; stroke:#ff0000;" d="M 0,0 5,-5 -12.5,0 5,5 Z"/>
	</marker>
	<marker id="id2" style="overflow:visible;" orient="auto">
		<path transform="matrix(-0.4,0,0,-0.4,-4,0)" style="fill:#0197fd; stroke:#0197fd;" d="M 0,0 5,-5 -12.5,0 5,5 Z"/>
	</marker>
	<marker id="id3" style="overflow:visible;" orient="auto">
		<path transform="matrix(-0.4,0,0,-0.4,-4,0)" style="fill:#0197fd; stroke:#0197fd;" d="M 0,0 5,-5 -12.5,0 5,5 Z"/>
	</marker>
</defs>
<g style="display:none;" transform="translate(592.202,-135.56)">
	<image x="-1413.5" y="148.4" width="1305" height="787.4" xlink:href="../../Images/SVG/inkscape_pasted_image_20101001_094421.html"/>
</g>
<g transform="translate(592.202,-135.56)">
	<path style="fill:#6255ff; fill-opacity:0.1; stroke-width:2.99;" d="m -530.2,135.6 -62,69.8 61.3,36.2 62.1,-36.2 z"/>
	<text x="-498.5" y="247.3" style="fill:#0197fd; stroke-width:0.6;">b</text>
	<text x="-575.5" y="247.3" style="fill:#0197fd; stroke-width:0.6;">b</text>
	<text x="-499.6" y="167.4" style="fill:#ff0000; stroke-width:0.6;">a</text>
	<text x="-576.6" y="167.4" style="font-size:29.9px; fill:#ff0000; stroke-width:0.6;">a</text>
	<path style="marker-end:url(#id1); fill:none; stroke:#ff0000; stroke-width:1.5;" d="m -529.6,137.2 -59.7,65.8"/>
	<path style="marker-end:url(#id2); fill:none; stroke:#0197fd; stroke-width:1.5;" d="m -591.3,205.6 58.5,33.6"/>
	<path style="marker-end:url(#id3); fill:none; stroke:#0197fd; stroke-width:1.5;" d="m -529.8,240.6 57.2,-34.2"/>
	<path style="marker-end:url(#id4); fill:none; stroke:#ff0000; stroke-width:1.5;" d="m -469.9,204.9 -57.3,-65.3"/>
</g>
</svg>