<?xml version="1.0" encoding="UTF-8" standalone="no"?>
<!-- Copyright 2021 mathsisfun.com -->
<svg xmlns:sodipodi="http://sodipodi.sourceforge.net/DTD/sodipodi-0.dtd" xmlns="http://www.w3.org/2000/svg" xmlns:xlink="http://www.w3.org/1999/xlink" width="106.8" height="93.5" version="1.1" style="font-family:'Trebuchet MS'; stroke-width:1pt;">
<defs>
	<marker style="overflow:visible;" orient="auto">
		<path transform="matrix(-0.4,0,0,-0.4,-4,0)" style="stroke:black;" d="M 0,0 5,-5 -12.5,0 5,5 Z"/>
	</marker>
	<marker id="id1" style="overflow:visible;" orient="auto">
		<path transform="matrix(0.4,0,0,0.4,4,0)" style="fill:#4e9a06; stroke:#4e9a06;" d="M 0,0 5,-5 -12.5,0 5,5 Z"/>
	</marker>
	<marker id="id2" style="overflow:visible;" orient="auto">
		<path transform="matrix(-0.4,0,0,-0.4,-4,0)" style="fill:#4e9a06; stroke:#4e9a06;" d="M 0,0 5,-5 -12.5,0 5,5 Z"/>
	</marker>
	<marker id="id3" style="overflow:visible;" orient="auto">
		<path transform="matrix(0.4,0,0,0.4,4,0)" style="fill:#73d216; stroke:#73d216;" d="M 0,0 5,-5 -12.5,0 5,5 Z"/>
	</marker>
	<marker id="id4" style="overflow:visible;" orient="auto">
		<path transform="matrix(-0.4,0,0,-0.4,-4,0)" style="fill:#73d216; stroke:#73d216;" d="M 0,0 5,-5 -12.5,0 5,5 Z"/>
	</marker>
</defs>
<g style="display:none;" transform="translate(1023.6,-176.453)">
	<image x="-1413.5" y="148.4" width="1305" height="787.4" xlink:href="../../Images/SVG/inkscape_pasted_image_20101001_094421.html"/>
</g>
<g transform="translate(1023.6,-176.453)">
	<path style="fill:#7063f1; fill-opacity:0.13; stroke-width:2.99;" d="m -969,267.1 -51.9,-58.4 51.3,-30.3 52,30.3 z"/>
	<polyline points="89.333,192.691 45.167,142.691 1,192.691   " transform="matrix(1.17545,0,0,-1.17578,-1023.29,435.655)" style="fill:none; stroke:#ff0000; stroke-width:1.7; stroke-linecap:round;"/>
	<polyline points="1,192.691 45.167,218.858 89.333,192.691   " transform="matrix(1.17545,0,0,-1.17578,-1023.29,435.655)" style="fill:none; stroke:#19aeff; stroke-width:1.7; stroke-linecap:round;"/>
	<path style="marker-start:url(#id1); marker-end:url(#id2); fill:#f57900; stroke:#4e9a06; stroke-width:1.5; stroke-dasharray:9, 1.5;" d="m -970.1,181.3 -0.1,83.1"/>
	<path style="marker-start:url(#id3); marker-end:url(#id4); fill:none; stroke:#73d216; stroke-width:1.5; stroke-dasharray:9, 1.5;" d="m -1018.3,209.3 96,-0"/>
	<text x="-992.8" y="223.4" transform="scale(1.00058,0.99942)" style="font-size:21.3px; fill:#73d216; stroke-width:0.6;">p</text>
	<text x="-966.4" y="233" transform="scale(1.00058,0.99942)" style="font-size:21.3px; fill:#4e9a06; stroke-width:0.6;">q</text>
</g>
</svg>