<?xml version="1.0" encoding="UTF-8" standalone="no"?>
<!-- Copyright 2017 mathsisfun.com -->

<svg
   width="253.6"
   height="161.7"
   version="1.1"
   id="svg44"
   sodipodi:docname="latus-rectum.svg"
   inkscape:version="1.1 (c68e22c387, 2021-05-23)"
   xmlns:inkscape="http://www.inkscape.org/namespaces/inkscape"
   xmlns:sodipodi="http://sodipodi.sourceforge.net/DTD/sodipodi-0.dtd"
   xmlns:xlink="http://www.w3.org/1999/xlink"
   xmlns="http://www.w3.org/2000/svg"
   xmlns:svg="http://www.w3.org/2000/svg">
  <sodipodi:namedview
     id="namedview46"
     pagecolor="#ffffff"
     bordercolor="#666666"
     borderopacity="1.0"
     inkscape:pageshadow="2"
     inkscape:pageopacity="0.0"
     inkscape:pagecheckerboard="0"
     showgrid="false"
     inkscape:current-layer="svg44" />
  <defs
     id="defs4">
    <circle
       cx="0"
       cy="0"
       r="100"
       style="stroke-width:0"
       id="circle2" />
  </defs>
  <ellipse
     cx="568.299"
     cy="-971.71"
     rx="0.9"
     ry="0"
     style="fill:#ff0000;stroke:#000000;stroke-width:0.2px"
     id="ellipse6" />
  <text
     x="499.199"
     y="-985.41"
     style="fill:#000000;font-family:Trebuchet MS;font-size:7.4px;stroke-width:0.2px"
     id="text8" />
  <use
     transform="matrix(0.590759,0,0,0.590759,197.334,-761.16)"
     xlink:href="#id1"
     x="0"
     y="0"
     id="use10"
     width="100%"
     height="100%" />
  <use
     transform="matrix(0.590759,0,0,0.590759,197.334,-761.16)"
     xlink:href="#id1"
     x="0"
     y="0"
     id="use12"
     width="100%"
     height="100%" />
  <use
     transform="matrix(0.590759,0,0,0.590759,197.334,-761.16)"
     xlink:href="#id1"
     x="0"
     y="0"
     id="use14"
     width="100%"
     height="100%" />
  <use
     transform="matrix(0.590759,0,0,0.590759,197.334,-761.16)"
     xlink:href="#id1"
     x="0"
     y="0"
     id="use16"
     width="100%"
     height="100%" />
  <use
     transform="matrix(0.590759,0,0,0.590759,166.008,-1093.66)"
     xlink:href="#id1"
     x="0"
     y="0"
     id="use18"
     width="100%"
     height="100%" />
  <path
     style="fill:none;stroke:#729fcf;stroke-width:1.8"
     d="m 192.999,161.39 c -100.1,-293.5 -180.9,0 -180.9,0"
     id="path20" />
  <circle
     cx="46.3899"
     cy="102.299"
     transform="matrix(0,1,1,0,0,0)"
     style="fill:#fce94f;stroke:#2e3436;stroke-width:0.78"
     id="ellipse22"
     r="2.5" />
  <path
     style="fill:#3465a4;stroke:#c4a000;stroke-width:1.4"
     d="m 253.599,15.99 c -252.9,0 -253.6,0 -253.6,0"
     id="path24" />
  <text
     x="51.2898"
     y="-97.89"
     transform="rotate(90)"
     style="fill:#edd400;font-family:Trebuchet MS;font-size:15.5px;font-style:italic;stroke-width:0.44"
     id="text26">focus</text>
  <text
     x="71.8129"
     y="12.8977"
     transform="rotate(-0.580082)"
     style="fill:#c4a000;font-family:Trebuchet MS;font-size:15.5px;font-style:italic;stroke-width:0.2px"
     id="text28">directrix</text>
  <path
     style="fill:none;stroke:#005c94;stroke-width:1.6;stroke-miterlimit:4;stroke-dasharray:none"
     d="m 69.899,46.59 h 64"
     id="path30" />
  <g
     transform="matrix(0.775372,0,0,0.775372,664.557,-3472.72)"
     id="g38"
     style="fill:#005c94;stroke:#005c94">
    <path
       style="fill:#005c94;stroke:#005c94;stroke-width:1.81"
       d="m -701.7,4545.6 c 3.8,5.6 8.2,11.5 14.9,13.9 7.1,2.5 14.6,0.2 21.4,-2.2 10.9,-4.3 21.4,-10.4 33.3,-11.8 2.6,-0.2 6.9,-0.8 8.6,-0.2 -0.7,0.9 -2.1,0.3 -3.1,0.5 -8.6,0 -16.8,2.6 -24.5,6.1 -9,4 -18.1,8.5 -28,9.3 -7.6,0.8 -14.7,-3.5 -19.2,-9.4 -1,-1.8 -4.5,-4.6 -3.6,-6.1 z"
       id="path32" />
    <path
       style="fill:#005c94;stroke:#005c94;stroke-width:1.81"
       d="m -702,4544.6 c 3,1.5 6,3.8 9.5,3.8 0,-0.6 2.3,0 0.3,0.6 -3.2,0.7 -6.2,-1.5 -9,-2.8 -0.8,-0.7 -2.5,-0.7 -0.9,-1.5 z"
       id="path34" />
    <path
       style="fill:#005c94;stroke:#005c94;stroke-width:1.81"
       d="m -702.6,4546 c 1.4,4 1.7,8.4 0.7,12.6 -2.1,0.6 0,-2.6 -0.5,-3.7 0.2,-2.9 -0.3,-5.8 -1.2,-8.6 0.3,-0.1 0.6,-0.2 0.9,-0.3 z"
       id="path36" />
  </g>
  <text
     x="148.513"
     y="50.6975"
     transform="rotate(-0.580082)"
     style="fill:#005c94;font-family:Trebuchet MS;font-size:15.5px;font-style:italic;stroke-width:0.2px"
     id="text40">latus rectum</text>
</svg>
