<?xml version="1.0" encoding="UTF-8" standalone="no"?>
<!-- Copyright 2017 mathsisfun.com -->
<svg xmlns="http://www.w3.org/2000/svg" width="207.6" height="118.9" version="1.1">
<defs>
<marker id="id1" style="overflow:visible;" orient="auto">
<path transform="scale(-0.6)" style="fill:#edd400; stroke:#edd400; stroke-width:0.63; stroke-linejoin:round;" d="M 8.7,4 -2.2,0 8.7,-4 C 7,-1.6 7,1.6 8.7,4 Z"/>
</marker>
<marker id="id2" style="overflow:visible;" orient="auto">
<path transform="scale(-0.6)" style="fill:#edd400; stroke:#edd400; stroke-width:0.63; stroke-linejoin:round;" d="M 8.7,4 -2.2,0 8.7,-4 C 7,-1.6 7,1.6 8.7,4 Z"/>
</marker>
</defs>
<circle cx="175.2" cy="149.2" r="5.1189" transform="rotate(-12.0265)" style="color:black; overflow:visible; fill:#edd400; stroke-width:0.34; stroke-dasharray:0.7, 0.7;"/>
<circle cx="3.9" cy="6.1" r="5.1189" transform="rotate(-12.0265)" style="color:black; overflow:visible; fill:#edd400; stroke-width:0.34; stroke-dasharray:0.7, 0.7;"/>
<text x="41.4" y="112.3" style="font-family:Arial; font-size:20.9px; color:black; overflow:visible; fill:#edd400; stroke-width:0.43px;">points</text>
<path style="marker-end:url(#id1); fill:none; stroke:#edd400; stroke-width:1.1; stroke-linejoin:round;" d="M 45.6,91.1 C 19.1,72.7 28.6,45.3 11.5,17.7"/>
<path style="marker-end:url(#id2); fill:none; stroke:#edd400; stroke-width:1.1;" d="m 101.1,99 c 29.8,3.4 62,24.1 86.3,15.3"/>
<text x="55.6" y="-6" transform="rotate(28.0299)" style="font-family:Arial; font-size:24.2px; color:black; overflow:visible; fill:#3465a4; stroke-width:0.51px;">line segment</text>
<path style="fill:none; stroke:#3465a4; stroke-width:2;" d="M 5.1,5.1 202.5,109.4"/>
<text x="52.5" y="94.7" style="font-family:Arial; font-size:20.9px; color:black; overflow:visible; fill:#edd400; stroke-width:0.43px;">end</text>
</svg>
