<?xml version="1.0" encoding="UTF-8" standalone="no"?>
<!-- Copyright 2017 mathsisfun.com -->
<svg xmlns="http://www.w3.org/2000/svg" width="212.5" height="235.6" version="1.1">
<defs/>
<g transform="translate(-331.667,-270.71)">
<path style="color:black; overflow:visible; fill:#fef9ce; stroke:black; stroke-width:0.62; stroke-linejoin:round;" d="m 539.4,366 -201.3,0 145.8,-89.9 z"/>
<path style="color:black; overflow:visible; fill:none; stroke:black; stroke-width:1.1; stroke-linejoin:round;" d="m 493.9,291.3 -15.9,9.8 -9.8,-15.9"/>
<path style="fill:none; stroke:#007ad2; stroke-width:2.2;" d="m 483.6,276.5 v 89.1"/>
<path style="fill:none; stroke:#19aeff; stroke-width:3.3;" d="m 484.1,365.7 h 54.2"/>
<text x="391.8" y="467.5" style="font-family:Arial; text-align:center; text-anchor:middle; font-size:18.7px; color:black; overflow:visible; fill:#ff4141; stroke-width:0.55px;">hypotenuse</text>
<text x="392.1" y="490.6" style="font-family:Arial; text-align:center; text-anchor:middle; font-size:18.7px; color:black; overflow:visible; fill:#204a87; stroke-width:0.55px;">leg</text>
<text x="512" y="489.4" style="font-family:Arial; text-align:center; text-anchor:middle; font-size:18.7px; color:black; overflow:visible; fill:#19aeff; stroke-width:0.55px;">part</text>
<path style="fill:none; stroke:black; stroke-width:1.65;" d="M 337.9,473.5 H 446.2"/>
<path style="fill:none; stroke:black; stroke-width:1.65;" d="m 486.4,473.5 h 52.3"/>
<text x="458.2" y="482.9" style="font-family:Arial; font-size:30.8px; color:black; overflow:visible; fill:black; stroke-width:0.55px;">=</text>
<g transform="matrix(0.47069,0,0,0.425863,1127.76,288.508)">
<path style="color:black; overflow:visible; fill:#19aeff; stroke-width:20;" d="m -1319.9,69.6 c -7.9,25.9 1.8,53.2 -3.7,79.6 -0.1,21.7 -22.5,9.4 -11.5,-8.7 4.7,-23.1 -6.7,-51.2 4.3,-71.1 3.6,0 7.3,0.1 10.9,0.2 z"/>
<path style="color:black; overflow:visible; fill:#19aeff; stroke-width:20;" d="m -1341.5,122.7 c 8.8,10.5 34,43.7 9.9,48.6 4,-17.4 -31.9,-40.3 -9.9,-48.6 z"/>
<path style="color:black; overflow:visible; fill:#19aeff; stroke-width:20;" d="m -1302.2,131.3 c -22.9,4.2 -10.7,44.8 -30.6,38.4 -3.7,-16.3 9.8,-52.6 30.6,-38.4 z"/>
</g>
<path style="fill:#0065a4; stroke:#204a87; stroke-width:3.3;" d="M 539.4,366 483.6,276.5"/>
<text x="491.4" y="381.6" style="font-family:Arial; font-size:17.6px; color:black; overflow:visible; fill:#19aeff; stroke-width:0.55px;">part</text>
<g transform="matrix(0.55,0,0,0.55,467.455,-378.196)">
<path style="color:black; overflow:visible; fill:#ff4141; stroke-width:1px;" d="m -233.1,1379.3 c -0.2,0.7 -0.3,1.5 -0.2,2.3 0,1 0.4,1.9 0.7,2.9 0.4,1.1 1.1,2.1 1.8,3.1 0.8,1.1 1.7,2 2.7,2.8 1.1,1 2.4,1.7 3.6,2.5 1.2,0.8 2.6,1.5 3.9,2.1 1.5,0.6 3,1.3 4.5,1.8 1.6,0.6 3.2,1 4.9,1.5 1.8,0.5 3.7,0.8 5.6,1.1 2,0.3 3.9,0.6 5.9,0.9 2.1,0.3 4.1,0.5 6.2,0.7 2.2,0.2 4.3,0.4 6.5,0.5 2.2,0.2 4.4,0.3 6.6,0.4 2.2,0.1 4.5,0.2 6.7,0.3 2.2,0.1 4.4,0 6.5,0 2.2,0 4.4,0 6.6,0 2.2,0 4.4,-0.1 6.6,-0.2 2.2,-0.1 4.4,-0.2 6.7,-0.3 2.3,-0.1 4.5,-0.1 6.8,-0.2 2.3,0 4.5,-0.1 6.8,-0.3 2.3,-0.1 4.6,-0.2 6.9,-0.3 2.3,-0.1 4.5,-0.2 6.8,-0.3 2.2,-0.1 4.4,-0.1 6.6,-0.2 2.2,-0.1 4.4,0 6.6,0 2.1,0 4.3,0.1 6.4,0.1 2.1,0 4.2,0.1 6.4,0.1 2.1,0 4.3,0.1 6.4,0.3 2.1,0.2 4.3,0.4 6.4,0.8 2,0.3 4,0.8 5.9,1.2 1.9,0.5 3.7,1.2 5.6,1.8 1.7,0.7 3.4,1.4 5.1,2.2 1.7,0.8 3.3,1.8 4.8,2.9 1.5,1.1 2.8,2.4 4.2,3.7 1.3,1.3 2.3,2.9 3.3,4.4 0.8,1.4 1.5,3 2.1,4.5 0,0 -5.6,2.7 -5.6,2.7 v 0 c -0.5,-1.3 -1,-2.6 -1.7,-3.8 -0.8,-1.3 -1.6,-2.6 -2.7,-3.7 -1.2,-1.2 -2.4,-2.3 -3.7,-3.3 -1.4,-0.9 -2.8,-1.8 -4.3,-2.5 -1.6,-0.7 -3.2,-1.4 -4.9,-2 -1.7,-0.6 -3.4,-1.2 -5.2,-1.6 -1.9,-0.4 -3.8,-0.8 -5.7,-1.1 -2.1,-0.3 -4.1,-0.5 -6.2,-0.6 -2.1,-0.1 -4.2,-0.2 -6.2,-0.2 -2.1,0 -4.3,-0.1 -6.4,-0.1 -2.1,0 -4.3,-0.1 -6.4,-0.1 -2.1,0 -4.3,0 -6.4,0 -2.2,0.1 -4.4,0.1 -6.6,0.2 -2.2,0.1 -4.5,0.2 -6.7,0.3 -2.3,0.1 -4.6,0.2 -6.9,0.4 -2.3,0.1 -4.6,0.2 -6.8,0.2 -2.2,0.1 -4.5,0.1 -6.7,0.2 -2.2,0.1 -4.4,0.2 -6.6,0.3 -2.2,0.1 -4.5,0.1 -6.7,0.1 -2.2,0 -4.4,0 -6.6,0 -2.2,0 -4.5,0 -6.7,-0.1 -2.2,-0.1 -4.5,-0.2 -6.7,-0.3 -2.2,-0.1 -4.5,-0.3 -6.7,-0.4 -2.2,-0.2 -4.4,-0.3 -6.6,-0.5 -2.1,-0.2 -4.2,-0.4 -6.3,-0.7 -2,-0.3 -4,-0.6 -6.1,-1 -1.9,-0.4 -3.9,-0.8 -5.8,-1.3 -1.8,-0.5 -3.5,-1 -5.2,-1.7 -1.6,-0.6 -3.2,-1.3 -4.7,-2 -1.5,-0.7 -2.9,-1.6 -4.3,-2.5 -1.4,-0.9 -2.7,-1.8 -3.9,-2.9 -1.2,-1.1 -2.4,-2.3 -3.3,-3.6 -0.8,-1.2 -1.6,-2.5 -2.2,-3.9 -0.5,-1.3 -0.9,-2.6 -1.1,-3.9 -0.1,-1.1 -0.2,-2.3 0,-3.4 0,0 6.2,-0.5 6.2,-0.5 z"/>
<path style="color:black; overflow:visible; fill:#ff4141; stroke-width:1px;" d="m 124.4,1379.3 c 0.2,0.7 0.3,1.5 0.2,2.3 -0,1 -0.4,1.9 -0.7,2.9 -0.4,1.1 -1.1,2.1 -1.8,3.1 -0.7,1.1 -1.7,2 -2.7,2.8 -1.1,1 -2.4,1.7 -3.6,2.5 -1.2,0.8 -2.6,1.5 -3.9,2.1 -1.5,0.6 -3,1.3 -4.5,1.8 -1.6,0.6 -3.2,1 -4.9,1.5 -1.8,0.5 -3.7,0.8 -5.6,1.1 -2,0.3 -3.9,0.6 -5.9,0.9 -2.1,0.3 -4.1,0.5 -6.2,0.7 -2.2,0.2 -4.3,0.4 -6.5,0.5 -2.2,0.2 -4.4,0.3 -6.6,0.4 -2.2,0.1 -4.5,0.2 -6.7,0.3 -2.2,0.1 -4.4,0 -6.5,0 -2.2,0 -4.4,0 -6.6,0 -2.2,0 -4.4,-0.1 -6.6,-0.2 -2.2,-0.1 -4.4,-0.2 -6.7,-0.3 -2.3,-0.1 -4.5,-0.1 -6.8,-0.2 -2.3,0 -4.5,-0.1 -6.8,-0.3 -2.3,-0.1 -4.6,-0.2 -6.9,-0.3 -2.3,-0.1 -4.5,-0.2 -6.8,-0.3 -2.2,-0.1 -4.4,-0.1 -6.6,-0.2 -2.2,-0.1 -4.4,0 -6.6,0 -2.1,0 -4.3,0.1 -6.4,0.1 -2.1,0 -4.2,0.1 -6.4,0.1 -2.1,0 -4.3,0.1 -6.4,0.3 -2.1,0.2 -4.3,0.4 -6.4,0.8 -2,0.3 -4,0.8 -5.9,1.2 -1.9,0.5 -3.7,1.2 -5.6,1.8 -1.7,0.7 -3.4,1.4 -5.1,2.2 -1.7,0.8 -3.3,1.8 -4.8,2.9 -1.5,1.1 -2.8,2.4 -4.2,3.7 -1.3,1.3 -2.3,2.9 -3.3,4.4 -0.8,1.4 -1.5,3 -2.1,4.5 0,0 5.6,2.7 5.6,2.7 v 0 c 0.5,-1.3 1,-2.6 1.7,-3.8 0.8,-1.3 1.6,-2.6 2.7,-3.7 1.2,-1.2 2.4,-2.3 3.7,-3.3 1.4,-0.9 2.8,-1.8 4.3,-2.5 1.6,-0.7 3.2,-1.4 4.9,-2 1.7,-0.6 3.4,-1.2 5.2,-1.6 1.9,-0.4 3.8,-0.8 5.7,-1.1 2.1,-0.3 4.1,-0.5 6.2,-0.6 2.1,-0.1 4.2,-0.2 6.2,-0.2 2.1,0 4.3,-0.1 6.4,-0.1 2.1,0 4.3,-0.1 6.4,-0.1 2.1,0 4.3,0 6.4,0 2.2,0.1 4.4,0.1 6.6,0.2 2.2,0.1 4.5,0.2 6.7,0.3 2.3,0.1 4.6,0.2 6.9,0.4 2.3,0.1 4.6,0.2 6.8,0.2 2.2,0.1 4.5,0.1 6.7,0.2 2.2,0.1 4.4,0.2 6.6,0.3 2.2,0.1 4.5,0.1 6.7,0.1 2.2,0 4.4,0 6.6,0 2.2,0 4.5,0 6.7,-0.1 2.2,-0.1 4.5,-0.2 6.7,-0.3 2.2,-0.1 4.4,-0.3 6.7,-0.4 2.2,-0.2 4.4,-0.3 6.6,-0.5 2.1,-0.2 4.2,-0.4 6.3,-0.7 2,-0.3 4,-0.6 6.1,-1 1.9,-0.4 3.9,-0.8 5.8,-1.3 1.8,-0.5 3.5,-1 5.2,-1.7 1.6,-0.6 3.2,-1.3 4.7,-2 1.5,-0.7 2.9,-1.6 4.3,-2.5 1.4,-0.9 2.7,-1.8 3.9,-2.9 1.2,-1.1 2.4,-2.3 3.3,-3.6 0.8,-1.2 1.6,-2.5 2.2,-3.9 0.5,-1.3 0.9,-2.6 1.1,-3.9 0.1,-1.1 0.2,-2.3 -0,-3.4 0,0 -6.2,-0.5 -6.2,-0.5 z"/>
</g>
<text x="392.8" y="419.4" style="font-family:Arial; font-size:17.6px; color:black; overflow:visible; fill:#ff4141; stroke-width:0.55px;">hypotenuse</text>
<text x="512.6" y="467.5" style="font-family:Arial; text-align:center; text-anchor:middle; font-size:18.7px; color:black; overflow:visible; fill:#204a87; stroke-width:0.55px;">leg</text>
<text x="498.1" y="-332.3" transform="rotate(64.6702)" style="font-family:Arial; font-size:17.6px; color:black; overflow:visible; fill:#204a87; stroke-width:0.55px;">leg</text>
<rect x="332.3" y="271.4" width="211.2" height="234.3" style="color:black; overflow:visible; fill:none; stroke:#007ad2; stroke-width:1.32;"/>
</g>
</svg>
