<?xml version="1.0" encoding="UTF-8" standalone="no"?>
<!-- Copyright 2017 mathsisfun.com -->
<svg xmlns="http://www.w3.org/2000/svg" xmlns:xlink="http://www.w3.org/1999/xlink" width="197.3" height="107.9" version="1.1" style="fill:black; stroke-width:0.11px;">
<defs>
	<linearGradient id="aa8">
		<stop offset="0" style="stop-color:#0084c8; stop-opacity:1;"/>
		<stop offset="1" style="stop-color:#afe4ff; stop-opacity:1;"/>
	</linearGradient>
	<linearGradient id="aa7">
		<stop offset="0" style="stop-color:#dadada; stop-opacity:1;"/>
		<stop offset="1" style="stop-color:#cbcbcb; stop-opacity:0;"/>
	</linearGradient>
	<linearGradient id="aa5">
		<stop offset="0" style="stop-color:#b4b4b4; stop-opacity:0.58;"/>
		<stop offset="0.606" style="stop-color:#c3c3c3; stop-opacity:0.58;"/>
		<stop offset="1" style="stop-color:#f3f3f3; stop-opacity:0.02;"/>
	</linearGradient>
	<linearGradient id="aa6">
		<stop offset="0" style="stop-color:#9f9f9f; stop-opacity:1;"/>
		<stop offset="0.556" style="stop-color:#d3d3d3; stop-opacity:1;"/>
		<stop offset="1" style="stop-color:#fefefe; stop-opacity:0;"/>
	</linearGradient>
	<linearGradient id="aa4">
		<stop offset="0" style="stop-color:white; stop-opacity:1;"/>
		<stop offset="0.719" style="stop-color:white; stop-opacity:1;"/>
		<stop offset="1" style="stop-color:white; stop-opacity:0;"/>
	</linearGradient>
	<linearGradient id="aa3">
		<stop offset="0" style="stop-color:#848484; stop-opacity:0.58;"/>
		<stop offset="0.566" style="stop-color:#b1b1b1; stop-opacity:0.58;"/>
		<stop offset="1" style="stop-color:#fefefe; stop-opacity:0.02;"/>
	</linearGradient>
	<linearGradient id="aa2">
		<stop offset="0" style="stop-color:#9f9f9f; stop-opacity:1;"/>
		<stop offset="0.48" style="stop-color:#d3d3d3; stop-opacity:1;"/>
		<stop offset="1" style="stop-color:#fefefe; stop-opacity:0;"/>
	</linearGradient>
	<linearGradient id="aa1">
		<stop offset="0" style="stop-color:#464646; stop-opacity:1;"/>
		<stop offset="1" style="stop-color:black; stop-opacity:1;"/>
	</linearGradient>
	<radialGradient id="aa14" r="3.77508" fx="31.4697" fy="4.39236" cx="31.5" cy="4.4" gradientTransform="matrix(0.415626,0,0,0.15922,28.0711,16.521)" xlink:href="#aa1" gradientUnits="userSpaceOnUse"/>
	<radialGradient id="aa13" r="3.77508" fx="31.4697" fy="4.39236" cx="31.5" cy="4.4" gradientTransform="matrix(0.415626,0,0,0.15922,33.9623,15.2189)" xlink:href="#aa1" gradientUnits="userSpaceOnUse"/>
	<radialGradient id="aa15" r="3.77508" fx="31.4697" fy="4.39236" cx="31.5" cy="4.4" gradientTransform="matrix(0.403343,0,0,0.154514,31.8199,18.4042)" xlink:href="#aa1" gradientUnits="userSpaceOnUse"/>
	<radialGradient id="aa12" r="3.77508" fx="31.4697" fy="4.39236" cx="31.5" cy="4.4" gradientTransform="matrix(0.400273,0,0,0.153338,37.4149,17.3899)" xlink:href="#aa1" gradientUnits="userSpaceOnUse"/>
	<radialGradient id="aa11" r="25.0311" fx="43.962" fy="36.1646" cx="44" cy="36.2" gradientTransform="matrix(0.519021,-0.289949,0.110158,0.197189,-10.1958,55.0118)" xlink:href="#aa2" gradientUnits="userSpaceOnUse"/>
	<radialGradient id="aa10" r="25.0311" fx="24.6341" fy="9.64565" cx="24.6" cy="9.6" gradientTransform="matrix(0.152541,-0.096083,0.180555,0.286646,-0.324824,45.8366)" xlink:href="#aa3" gradientUnits="userSpaceOnUse"/>
	<radialGradient id="aa16" r="11.74" fx="34.0391" fy="36.9385" cx="34" cy="36.9" gradientTransform="matrix(0.569545,0.019766,-0.004718,0.135951,-6.50873,40.5505)" xlink:href="#aa4" gradientUnits="userSpaceOnUse"/>
	<radialGradient id="aa17" r="25.0311" fx="23.5473" fy="5.08626" cx="23.5" cy="5.1" gradientTransform="matrix(0.088989,-0.208363,0.311548,0.133057,25.6729,51.8404)" xlink:href="#aa5" gradientUnits="userSpaceOnUse"/>
	<radialGradient id="aa18" r="25.0311" fx="45.3422" fy="40.5604" cx="45.3" cy="40.6" gradientTransform="matrix(0.250788,-0.539035,0.204792,0.09528,23.5551,64.1077)" xlink:href="#aa6" gradientUnits="userSpaceOnUse"/>
	<radialGradient id="aa19" r="4.37914" fx="25.1313" fy="44.4324" cx="25.1" cy="44.4" gradientTransform="matrix(1.00558,0.030683,-0.14897,1.22637,-2.84475,-2.7794)" xlink:href="#aa7" gradientUnits="userSpaceOnUse"/>
	<radialGradient id="aa20" r="3.77508" fx="31.4697" fy="4.39236" cx="31.5" cy="4.4" gradientTransform="matrix(0.400272,0,0,0.153338,40.579,29.9833)" xlink:href="#aa1" gradientUnits="userSpaceOnUse"/>
	<radialGradient id="aa21" r="3.77508" fx="31.4697" fy="4.39236" cx="31.5" cy="4.4" gradientTransform="matrix(0.415627,0,0,0.15922,33.4931,28.9462)" xlink:href="#aa1" gradientUnits="userSpaceOnUse"/>
	<linearGradient id="aa9" xlink:href="#aa8" x1="31.6" y1="60.2" x2="17.1" y2="28.4" gradientUnits="userSpaceOnUse"/>
</defs>
<g transform="matrix(3.78622,0,0,3.78622,8.32968,-112.829)">
	<rect x="-2.2" y="29.8" ry="2.4" width="52.1" height="28.5" style="color:black; overflow:visible; fill:url(#aa9); stroke-width:0.72;"/>
	<path style="fill:#f8f8f8;" d="m 8.2,35.8 c 1.3,-0.6 2.9,-1.6 6.2,-1.3 3.3,0.4 7.8,4.6 8.7,8.4 0.9,3.8 -2.6,7.6 -3.9,8.7 -1.3,1.1 -5.1,4.4 -8.5,4 C 7.4,55.3 3.5,48.7 2.8,46.2 1.5,41.5 3.8,37.8 8.2,35.8 Z"/>
	<path style="fill:url(#aa10);" d="m 8.2,35.8 c 1.3,-0.6 2.9,-1.6 6.2,-1.3 3.3,0.4 7.8,4.6 8.7,8.4 0.9,3.8 -2.6,7.6 -3.9,8.7 -1.3,1.1 -5.1,4.4 -8.5,4 C 7.4,55.3 3.5,48.7 2.8,46.2 1.5,41.5 3.8,37.8 8.2,35.8 Z"/>
	<path style="fill:url(#aa11);" d="m 8.2,35.8 c 1.3,-0.6 2.9,-1.6 6.2,-1.3 3.3,0.4 7.8,4.6 8.7,8.4 0.9,3.8 -2.6,7.6 -3.9,8.7 -1.3,1.1 -5.1,4.4 -8.5,4 C 7.4,55.3 3.5,48.7 2.8,46.2 1.5,41.5 3.8,37.8 8.2,35.8 Z"/>
	<g transform="matrix(0.411584,0.057819,-0.057819,0.411584,0.451646,31.7971)">
		<ellipse cx="21" cy="15.8" rx="3.7" ry="2.7" style="color:black; overflow:visible; fill:#0b0c12; stroke-width:1.42;"/>
		<path style="fill:#514e64; stroke-width:0.26px;" d="m 21.4,16.7 2.5,-2.5 C 23.5,13.8 23,13.5 22.4,13.4 Z"/>
	</g>
	<g transform="matrix(0.411584,0.057819,-0.057819,0.411584,3.73764,30.1777)">
		<ellipse cx="21" cy="15.8" rx="3.7" ry="2.7" style="color:black; overflow:visible; fill:#0b0c12; stroke-width:1.42;"/>
		<path style="fill:#514e64; stroke-width:0.26px;" d="m 21.4,16.7 2.5,-2.5 C 23.5,13.8 23,13.5 22.4,13.4 Z"/>
	</g>
	<g transform="matrix(0.411584,0.057819,-0.057819,0.411584,6.78547,28.6825)">
		<ellipse cx="21" cy="15.8" rx="3.7" ry="2.7" style="color:black; overflow:visible; fill:#0b0c12; stroke-width:1.42;"/>
		<path style="fill:#514e64; stroke-width:0.26px;" d="m 21.4,16.7 2.5,-2.5 C 23.5,13.8 23,13.5 22.4,13.4 Z"/>
	</g>
	<g transform="matrix(0.411584,0.057819,-0.057819,0.411584,11.109,32.6952)">
		<ellipse cx="21" cy="15.8" rx="3.7" ry="2.7" style="color:black; overflow:visible; fill:#0b0c12; stroke-width:1.42;"/>
		<path style="fill:#514e64; stroke-width:0.26px;" d="m 21.4,16.7 2.5,-2.5 C 23.5,13.8 23,13.5 22.4,13.4 Z"/>
	</g>
	<g transform="matrix(0.411584,0.057819,-0.057819,0.411584,8.11,34.2918)">
		<ellipse cx="21" cy="15.8" rx="3.7" ry="2.7" style="color:black; overflow:visible; fill:#0b0c12; stroke-width:1.42;"/>
		<path style="fill:#514e64; stroke-width:0.26px;" d="m 21.4,16.7 2.5,-2.5 C 23.5,13.8 23,13.5 22.4,13.4 Z"/>
	</g>
	<g transform="matrix(0.411584,0.057819,-0.057819,0.411584,4.85106,36.1673)">
		<ellipse cx="21" cy="15.8" rx="3.7" ry="2.7" style="color:black; overflow:visible; fill:#0b0c12; stroke-width:1.42;"/>
		<path style="fill:#514e64; stroke-width:0.26px;" d="m 21.4,16.7 2.5,-2.5 C 23.5,13.8 23,13.5 22.4,13.4 Z"/>
	</g>
	<path style="fill:white;" d="m 5.3,45.9 c -5.4,5.9 -2.7,2.9 0,0 z"/>
	<ellipse cx="50.1" cy="18.3" rx="1.5" ry="0.6" transform="rotate(61.1596)" style="color:black; overflow:visible; fill:url(#aa12); stroke-width:0.59;"/>
	<ellipse cx="47.1" cy="16.2" rx="1.6" ry="0.6" transform="rotate(61.1596)" style="color:black; overflow:visible; fill:url(#aa13); stroke-width:0.61;"/>
	<ellipse cx="41.2" cy="17.5" rx="1.6" ry="0.6" transform="rotate(61.1596)" style="color:black; overflow:visible; fill:url(#aa14); stroke-width:0.61;"/>
	<ellipse cx="44.6" cy="19.4" rx="1.5" ry="0.6" transform="rotate(61.1596)" style="color:black; overflow:visible; fill:url(#aa15); stroke-width:0.59;"/>
	<ellipse cx="-23" cy="46.8" rx="1.7" ry="0.6" transform="matrix(0.713702,-0.70045,0.685733,0.727853,0,0)" style="color:black; overflow:visible; stroke-width:0.63;"/>
	<ellipse cx="-17.2" cy="48" rx="1.7" ry="0.6" transform="matrix(0.713702,-0.70045,0.685733,0.727853,0,0)" style="color:black; overflow:visible; stroke-width:0.63;"/>
	<ellipse cx="-21.8" cy="48.3" rx="1.6" ry="0.6" transform="matrix(0.713702,-0.70045,0.685733,0.727853,0,0)" style="color:black; overflow:visible; stroke-width:0.61;"/>
	<ellipse cx="-20.8" cy="49.6" rx="1.6" ry="0.6" transform="matrix(0.713702,-0.70045,0.685733,0.727853,0,0)" style="color:black; overflow:visible; stroke-width:0.59;"/>
	<ellipse cx="-26" cy="48.6" rx="1.6" ry="0.6" transform="matrix(0.713702,-0.70045,0.685733,0.727853,0,0)" style="color:black; overflow:visible; stroke-width:0.61;"/>
	<path style="fill:url(#aa16);" d="m 8.1,44.2 c 0,0 2.1,1.6 4.5,1.9 2.4,0.4 5.1,-0.4 5.1,-0.4 0,0 -1.3,1 -3.9,0.8 C 11.2,46.4 9.5,45.7 8.8,45.3 8.1,45 8.1,44.2 8.1,44.2 Z"/>
	<path style="fill:white;" d="m 27.2,37.8 c 0.7,-1.2 1.4,-3 4.3,-4.7 2.9,-1.6 9,-0.9 12,1.7 3,2.6 2.4,7.7 2,9.3 -0.4,1.7 -1.6,6.5 -4.6,8.2 -3,1.6 -10,-1.4 -12,-3.1 -3.8,-3 -4.1,-7.4 -1.7,-11.5 z"/>
	<path style="fill:url(#aa17);" d="m 27.2,37.8 c 0.7,-1.2 1.4,-3 4.3,-4.7 2.9,-1.6 9,-0.9 12,1.7 3,2.6 2.4,7.7 2,9.3 -0.4,1.7 -1.6,6.5 -4.6,8.2 -3,1.6 -10,-1.4 -12,-3.1 -3.8,-3 -4.1,-7.4 -1.7,-11.5 z"/>
	<path style="fill:url(#aa18);" d="m 27.2,37.8 c 0.7,-1.2 1.4,-3 4.3,-4.7 2.9,-1.6 9,-0.9 12,1.7 3,2.6 2.4,7.7 2,9.3 -0.4,1.7 -1.6,6.5 -4.6,8.2 -3,1.6 -10,-1.4 -12,-3.1 -3.8,-3 -4.1,-7.4 -1.7,-11.5 z"/>
	<g transform="matrix(0.36744,-0.19425,0.19425,0.36744,23.1645,36.3747)">
		<ellipse cx="21" cy="15.8" rx="3.7" ry="2.7" style="color:black; overflow:visible; fill:#0b0c12; stroke-width:1.42;"/>
		<path style="fill:#514e64; stroke-width:0.26px;" d="m 21.4,16.7 2.5,-2.5 C 23.5,13.8 23,13.5 22.4,13.4 Z"/>
	</g>
	<path style="fill:white;" d="m 30.8,47.6 c -0.9,7.9 -0.5,4 0,0 z"/>
	<ellipse cx="16.5" cy="52.4" rx="4.4" ry="3.2" transform="matrix(0.996721,-0.080914,0.341588,0.93985,0,0)" style="color:black; overflow:visible; fill:url(#aa19); stroke-width:1;"/>
	<ellipse cx="53.2" cy="30.9" rx="1.5" ry="0.6" transform="rotate(25.2996)" style="color:black; overflow:visible; fill:url(#aa20); stroke-width:0.59;"/>
	<ellipse cx="46.6" cy="29.9" rx="1.6" ry="0.6" transform="rotate(25.2996)" style="color:black; overflow:visible; fill:url(#aa21); stroke-width:0.61;"/>
	<ellipse cx="-30.5" cy="49.9" rx="1.7" ry="0.6" transform="matrix(0.168092,-0.985771,0.982134,0.188182,0,0)" style="color:black; overflow:visible; stroke-width:0.63;"/>
	<ellipse cx="-35.2" cy="50.2" rx="1.6" ry="0.6" transform="matrix(0.168092,-0.985771,0.982134,0.188182,0,0)" style="color:black; overflow:visible; stroke-width:0.61;"/>
	<ellipse cx="-39.4" cy="50.5" rx="1.6" ry="0.6" transform="matrix(0.168092,-0.985771,0.982134,0.188182,0,0)" style="color:black; overflow:visible; stroke-width:0.61;"/>
	<path style="fill:white; fill-opacity:0.75; stroke-width:0.12px;" d="m 26.5,40.7 c 0,0 7.2,2.9 9.7,3.1 2.5,0.2 2.7,-1.7 2.7,-1.7 0,0 0.2,2.9 -2.4,3 -2.6,0.1 -9,-2.7 -9.8,-3 -0.7,-0.3 -0.2,-1.4 -0.2,-1.4 z"/>
</g>
</svg>