<?xml version="1.0" encoding="UTF-8" standalone="no"?>
<!-- Copyright 2021 mathsisfun.com -->
<svg xmlns:sodipodi="http://sodipodi.sourceforge.net/DTD/sodipodi-0.dtd" xmlns="http://www.w3.org/2000/svg" xmlns:xlink="http://www.w3.org/1999/xlink" width="221.4" height="112.2" version="1.1" style="fill:#0084c8; stroke-width:2.5;">
<defs/>
<g transform="translate(-662.434,377.164)">
	<image x="-1413.5" y="148.4" width="1305" height="787.4" xlink:href="../../Images/SVG/inkscape_pasted_image_20101001_094421.html"/>
</g>
<path style="fill:#9ade00; stroke:#9ade00; stroke-width:2.31; stroke-dasharray:9.2, 2.3;" d="m 3,110.6 213.6,-88.5"/>
<path style="fill:none; stroke:#204a87; stroke-width:2.75;" d="m 69.1,21.1 h 149.6 l -66.3,89.8 H 2.8 Z"/>
<rect x="65.7" y="-79.2" rx="8.9" ry="8.9" width="127.3" height="19" transform="matrix(0.676605,0.736347,-0.754701,0.656069,0,0)" style="fill:#ffff3e; stroke-width:1.38;"/>
<path style="fill:none; stroke:#4e9a06; stroke-width:2.31; stroke-dasharray:9.2, 2.3;" d="m 69.4,20.6 c -1.2,1.6 83,90 83,90"/>
<g transform="matrix(0.261317,0.29506,0.373139,-0.330465,97.7409,-237.107)">
	<path d="m 449,-373 c -0.3,0.9 -0.6,1.7 -0.8,2.6 -0.3,0.9 -0.5,1.9 -0.6,2.9 -0.1,0.7 0,1.4 0.2,2 0.2,0.5 0.6,0.8 1,1.1 0.6,0.4 1.4,0.7 2.1,1 0.8,0.3 1.7,0.6 2.6,0.8 1,0.2 2,0.3 2.9,0.4 1.1,0.2 2.1,0 3.2,0 1.1,0 2.3,-0.2 3.4,-0.2 1.1,-0.2 2.3,-0.2 3.4,-0.5 1.2,-0.2 2.3,-0.3 3.4,-0.6 1.2,-0.2 2.4,-0.5 3.6,-0.6 1.3,-0.2 2.5,-0.3 3.8,-0.4 1.2,0 2.5,-0.2 3.7,-0.4 1.4,-0.2 2.8,-0.2 4.3,-0.3 1.4,0 2.8,-0.1 4.2,-0.2 1.4,0 2.8,0 4.3,-0.1 1.4,0 2.7,0 4.1,0 1.3,0 2.7,0 4,0.1 1.3,0.2 2.5,0.3 3.8,0.5 1.3,0.3 2.5,0.6 3.7,1.1 1.1,0.4 2.2,0.9 3.2,1.5 1,0.5 1.9,1 2.8,1.6 0.9,0.6 1.8,1.3 2.7,2 0.9,0.7 1.5,1.7 2.2,2.7 0.6,0.9 1.1,2 1.5,3 0.3,1.1 0.5,2.2 0.6,3.3 0,0.2 0,0.4 0,0.5 0,0 -6.1,1.7 -6.1,1.7 v 0 c 0,-0.2 0,-0.3 0,-0.5 -0.1,-0.9 -0.2,-1.7 -0.4,-2.6 -0.2,-0.7 -0.6,-1.4 -1,-2.1 -0.4,-0.6 -0.8,-1.3 -1.5,-1.7 -0.8,-0.6 -1.5,-1.2 -2.4,-1.7 -0.9,-0.5 -1.8,-1 -2.6,-1.5 -0.9,-0.4 -1.8,-0.9 -2.8,-1.2 -1,-0.3 -2,-0.6 -3.1,-0.7 -1.1,-0.2 -2.3,-0.3 -3.4,-0.4 -1.3,0 -2.5,0 -3.8,0 -1.4,0 -2.7,0 -4.1,0 -1.4,0 -2.8,0 -4.2,0.1 -1.4,0 -2.7,0.1 -4.1,0.2 -1.4,0.1 -2.7,0.2 -4.1,0.4 -1.2,0.1 -2.5,0.2 -3.7,0.4 -1.2,0.1 -2.4,0.3 -3.5,0.5 -1.2,0.2 -2.4,0.4 -3.6,0.7 -1.2,0.2 -2.4,0.3 -3.6,0.5 -1.2,0.1 -2.4,0.3 -3.6,0.4 -1.2,0 -2.4,0.2 -3.7,0.1 -1.2,0 -2.4,0 -3.6,-0.3 -1.1,-0.2 -2.2,-0.4 -3.3,-0.7 -1.1,-0.3 -2.2,-0.7 -3.2,-1.2 -1,-0.5 -1.9,-1 -2.7,-1.7 -0.9,-0.8 -1.7,-1.6 -2.2,-2.8 -0.5,-1.2 -0.8,-2.4 -0.7,-3.7 0,-1.2 0.3,-2.3 0.6,-3.5 0.2,-0.9 0.5,-1.9 0.8,-2.8 0,0 6.4,-0.1 6.4,-0.1 z"/>
	<path d="m 592.3,-373 c 0.3,0.9 0.6,1.7 0.8,2.6 0.3,0.9 0.5,1.9 0.6,2.9 0.1,0.7 0,1.4 -0.2,2 -0.2,0.5 -0.6,0.8 -1,1.1 -0.6,0.4 -1.4,0.7 -2.1,1 -0.8,0.3 -1.7,0.6 -2.6,0.8 -1,0.2 -2,0.3 -2.9,0.4 -1.1,0.2 -2.1,0 -3.2,0 -1.1,0 -2.3,-0.2 -3.4,-0.2 -1.1,-0.2 -2.3,-0.2 -3.4,-0.5 -1.1,-0.2 -2.3,-0.3 -3.4,-0.6 -1.2,-0.2 -2.4,-0.5 -3.6,-0.6 -1.3,-0.2 -2.5,-0.3 -3.8,-0.4 -1.2,0 -2.5,-0.2 -3.7,-0.4 -1.4,-0.2 -2.8,-0.2 -4.3,-0.3 -1.4,0 -2.8,-0.1 -4.2,-0.2 -1.4,0 -2.8,0 -4.3,-0.1 -1.4,0 -2.7,0 -4.1,0 -1.3,0 -2.7,0 -4,0.1 -1.3,0.2 -2.5,0.3 -3.8,0.5 -1.3,0.3 -2.5,0.6 -3.7,1.1 -1.1,0.4 -2.2,0.9 -3.2,1.5 -1,0.5 -1.9,1 -2.8,1.6 -0.9,0.6 -1.8,1.3 -2.7,2 -0.9,0.7 -1.5,1.7 -2.2,2.7 -0.6,0.9 -1.1,2 -1.5,3 -0.3,1.1 -0.5,2.2 -0.6,3.3 0,0.2 0,0.4 0,0.5 0,0 6.1,1.7 6.1,1.7 v 0 c 0,-0.2 0,-0.3 0,-0.5 0.1,-0.9 0.2,-1.7 0.4,-2.6 0.2,-0.7 0.6,-1.4 1,-2.1 0.4,-0.6 0.8,-1.3 1.5,-1.7 0.8,-0.6 1.5,-1.2 2.4,-1.7 0.9,-0.5 1.8,-1 2.6,-1.5 0.9,-0.4 1.8,-0.9 2.8,-1.2 1,-0.3 2,-0.6 3.1,-0.7 1.1,-0.2 2.3,-0.3 3.4,-0.4 1.3,0 2.5,0 3.8,0 1.4,0 2.7,0 4.1,0 1.4,0 2.8,0 4.2,0.1 1.4,0 2.7,0.1 4.1,0.2 1.4,0.1 2.7,0.2 4.1,0.4 1.2,0.1 2.5,0.2 3.7,0.4 1.2,0.1 2.4,0.3 3.5,0.5 1.2,0.2 2.4,0.4 3.6,0.7 1.2,0.2 2.4,0.3 3.6,0.5 1.2,0.1 2.4,0.3 3.7,0.4 1.2,0 2.4,0.2 3.7,0.1 1.2,0 2.4,0 3.6,-0.3 1.1,-0.2 2.2,-0.4 3.3,-0.7 1.1,-0.3 2.2,-0.7 3.2,-1.2 1,-0.5 1.9,-1 2.7,-1.7 0.9,-0.8 1.7,-1.6 2.2,-2.8 0.5,-1.2 0.8,-2.4 0.7,-3.7 0,-1.2 -0.3,-2.3 -0.6,-3.5 -0.2,-0.9 -0.5,-1.9 -0.8,-2.8 0,0 -6.4,-0.1 -6.4,-0.1 z"/>
</g>
<g transform="matrix(0.261317,0.29506,0.373139,-0.330465,139.238,-190.251)">
	<path d="m 449,-373 c -0.3,0.9 -0.6,1.7 -0.8,2.6 -0.3,0.9 -0.5,1.9 -0.6,2.9 -0.1,0.7 0,1.4 0.2,2 0.2,0.5 0.6,0.8 1,1.1 0.6,0.4 1.4,0.7 2.1,1 0.8,0.3 1.7,0.6 2.6,0.8 1,0.2 2,0.3 2.9,0.4 1.1,0.2 2.1,0 3.2,0 1.1,0 2.3,-0.2 3.4,-0.2 1.1,-0.2 2.3,-0.2 3.4,-0.5 1.2,-0.2 2.3,-0.3 3.4,-0.6 1.2,-0.2 2.4,-0.5 3.6,-0.6 1.3,-0.2 2.5,-0.3 3.8,-0.4 1.2,0 2.5,-0.2 3.7,-0.4 1.4,-0.2 2.8,-0.2 4.3,-0.3 1.4,0 2.8,-0.1 4.2,-0.2 1.4,0 2.8,0 4.3,-0.1 1.4,0 2.7,0 4.1,0 1.3,0 2.7,0 4,0.1 1.3,0.2 2.5,0.3 3.8,0.5 1.3,0.3 2.5,0.6 3.7,1.1 1.1,0.4 2.2,0.9 3.2,1.5 1,0.5 1.9,1 2.8,1.6 0.9,0.6 1.8,1.3 2.7,2 0.9,0.7 1.5,1.7 2.2,2.7 0.6,0.9 1.1,2 1.5,3 0.3,1.1 0.5,2.2 0.6,3.3 0,0.2 0,0.4 0,0.5 0,0 -6.1,1.7 -6.1,1.7 v 0 c 0,-0.2 0,-0.3 0,-0.5 -0.1,-0.9 -0.2,-1.7 -0.4,-2.6 -0.2,-0.7 -0.6,-1.4 -1,-2.1 -0.4,-0.6 -0.8,-1.3 -1.5,-1.7 -0.8,-0.6 -1.5,-1.2 -2.4,-1.7 -0.9,-0.5 -1.8,-1 -2.6,-1.5 -0.9,-0.4 -1.8,-0.9 -2.8,-1.2 -1,-0.3 -2,-0.6 -3.1,-0.7 -1.1,-0.2 -2.3,-0.3 -3.4,-0.4 -1.3,0 -2.5,0 -3.8,0 -1.4,0 -2.7,0 -4.1,0 -1.4,0 -2.8,0 -4.2,0.1 -1.4,0 -2.7,0.1 -4.1,0.2 -1.4,0.1 -2.7,0.2 -4.1,0.4 -1.2,0.1 -2.5,0.2 -3.7,0.4 -1.2,0.1 -2.4,0.3 -3.5,0.5 -1.2,0.2 -2.4,0.4 -3.6,0.7 -1.2,0.2 -2.4,0.3 -3.6,0.5 -1.2,0.1 -2.4,0.3 -3.6,0.4 -1.2,0 -2.4,0.2 -3.7,0.1 -1.2,0 -2.4,0 -3.6,-0.3 -1.1,-0.2 -2.2,-0.4 -3.3,-0.7 -1.1,-0.3 -2.2,-0.7 -3.2,-1.2 -1,-0.5 -1.9,-1 -2.7,-1.7 -0.9,-0.8 -1.7,-1.6 -2.2,-2.8 -0.5,-1.2 -0.8,-2.4 -0.7,-3.7 0,-1.2 0.3,-2.3 0.6,-3.5 0.2,-0.9 0.5,-1.9 0.8,-2.8 0,0 6.4,-0.1 6.4,-0.1 z"/>
	<path d="m 592.3,-373 c 0.3,0.9 0.6,1.7 0.8,2.6 0.3,0.9 0.5,1.9 0.6,2.9 0.1,0.7 0,1.4 -0.2,2 -0.2,0.5 -0.6,0.8 -1,1.1 -0.6,0.4 -1.4,0.7 -2.1,1 -0.8,0.3 -1.7,0.6 -2.6,0.8 -1,0.2 -2,0.3 -2.9,0.4 -1.1,0.2 -2.1,0 -3.2,0 -1.1,0 -2.3,-0.2 -3.4,-0.2 -1.1,-0.2 -2.3,-0.2 -3.4,-0.5 -1.1,-0.2 -2.3,-0.3 -3.4,-0.6 -1.2,-0.2 -2.4,-0.5 -3.6,-0.6 -1.3,-0.2 -2.5,-0.3 -3.8,-0.4 -1.2,0 -2.5,-0.2 -3.7,-0.4 -1.4,-0.2 -2.8,-0.2 -4.3,-0.3 -1.4,0 -2.8,-0.1 -4.2,-0.2 -1.4,0 -2.8,0 -4.3,-0.1 -1.4,0 -2.7,0 -4.1,0 -1.3,0 -2.7,0 -4,0.1 -1.3,0.2 -2.5,0.3 -3.8,0.5 -1.3,0.3 -2.5,0.6 -3.7,1.1 -1.1,0.4 -2.2,0.9 -3.2,1.5 -1,0.5 -1.9,1 -2.8,1.6 -0.9,0.6 -1.8,1.3 -2.7,2 -0.9,0.7 -1.5,1.7 -2.2,2.7 -0.6,0.9 -1.1,2 -1.5,3 -0.3,1.1 -0.5,2.2 -0.6,3.3 0,0.2 0,0.4 0,0.5 0,0 6.1,1.7 6.1,1.7 v 0 c 0,-0.2 0,-0.3 0,-0.5 0.1,-0.9 0.2,-1.7 0.4,-2.6 0.2,-0.7 0.6,-1.4 1,-2.1 0.4,-0.6 0.8,-1.3 1.5,-1.7 0.8,-0.6 1.5,-1.2 2.4,-1.7 0.9,-0.5 1.8,-1 2.6,-1.5 0.9,-0.4 1.8,-0.9 2.8,-1.2 1,-0.3 2,-0.6 3.1,-0.7 1.1,-0.2 2.3,-0.3 3.4,-0.4 1.3,0 2.5,0 3.8,0 1.4,0 2.7,0 4.1,0 1.4,0 2.8,0 4.2,0.1 1.4,0 2.7,0.1 4.1,0.2 1.4,0.1 2.7,0.2 4.1,0.4 1.2,0.1 2.5,0.2 3.7,0.4 1.2,0.1 2.4,0.3 3.5,0.5 1.2,0.2 2.4,0.4 3.6,0.7 1.2,0.2 2.4,0.3 3.6,0.5 1.2,0.1 2.4,0.3 3.7,0.4 1.2,0 2.4,0.2 3.7,0.1 1.2,0 2.4,0 3.6,-0.3 1.1,-0.2 2.2,-0.4 3.3,-0.7 1.1,-0.3 2.2,-0.7 3.2,-1.2 1,-0.5 1.9,-1 2.7,-1.7 0.9,-0.8 1.7,-1.6 2.2,-2.8 0.5,-1.2 0.8,-2.4 0.7,-3.7 0,-1.2 -0.3,-2.3 -0.6,-3.5 -0.2,-0.9 -0.5,-1.9 -0.8,-2.8 0,0 -6.4,-0.1 -6.4,-0.1 z"/>
</g>
<text x="72.1" y="-65.9" transform="rotate(48.0494)" style="font-family:'Trebuchet MS'; font-size:17.6px; font-style:italic; stroke-width:0.55px;">same distance</text>
<circle cx="110.3" cy="66.4" r="2.71997" style="fill:#19aeff; stroke-width:2.31;"/>
</svg>