<?xml version="1.0" encoding="UTF-8" standalone="no"?>
<!-- Copyright 2021 mathsisfun.com -->
<svg xmlns:sodipodi="http://sodipodi.sourceforge.net/DTD/sodipodi-0.dtd" xmlns="http://www.w3.org/2000/svg" width="168.1" height="99.6" version="1.1" style="font-family:'Trebuchet MS'; font-size:22px;">
<defs>
	<marker style="overflow:visible;" orient="auto">
		<path transform="matrix(-0.4,0,0,-0.4,-4,0)" style="fill:#eec73e; stroke:#eec73e; stroke-width:1pt;" d="M 0,0 5,-5 -12.5,0 5,5 Z"/>
	</marker>
</defs>
<path style="fill:#6d6dff; fill-opacity:0.12; stroke-width:1px;" d="M 1.9,97.7 31,1.9 H 166.2 L 137.1,97.7 Z"/>
<text x="46.3" y="32.2" transform="scale(1.00124,0.998762)" style="fill:#204a87; stroke-width:0.54px;">A</text>
<text x="130.5" y="31.6" transform="scale(1.00124,0.998762)" style="fill:#0084c8; stroke-width:0.54px;">B</text>
<path style="fill:none; stroke:#204a87; stroke-width:1;" d="M 51.7,1.9 A 20.8,20.8 0 0 1 43.4,18.6 20.8,20.8 0 0 1 25,21.8 L 31,1.9 Z" sodipodi:type="arc" sodipodi:cx="30.956" sodipodi:cy="1.89783" sodipodi:rx="20.7711" sodipodi:ry="20.7711" sodipodi:start="0" sodipodi:end="1.86194"/>
<path style="fill:none; stroke:#0084c8; stroke-width:1;" d="M 158.5,25.5 A 24.9,24.9 0 0 1 141.4,1.7 l 24.9,0.2 z" sodipodi:type="arc" sodipodi:cx="166.203" sodipodi:cy="1.89783" sodipodi:rx="24.8526" sodipodi:ry="24.8526" sodipodi:start="1.88654" sodipodi:end="3.14781" sodipodi:arc-type="slice"/>
<path transform="scale(-1)" style="fill:none; stroke:#204a87; stroke-width:1;" d="m -116.4,-97.7 a 20.8,20.8 0 0 1 -8.4,16.7 20.8,20.8 0 0 1 -18.4,3.2 l 6,-19.9 z" sodipodi:type="arc" sodipodi:cx="-137.126" sodipodi:cy="-97.7157" sodipodi:rx="20.7711" sodipodi:ry="20.7711" sodipodi:start="0" sodipodi:end="1.86194" sodipodi:arc-type="slice"/>
<path transform="scale(-1)" style="fill:none; stroke:#0084c8; stroke-width:1;" d="m -9.6,-74.1 a 24.9,24.9 0 0 1 -17.1,-23.8 l 24.9,0.2 z" sodipodi:type="arc" sodipodi:cx="-1.88018" sodipodi:cy="-97.7157" sodipodi:rx="24.8526" sodipodi:ry="24.8526" sodipodi:start="1.88654" sodipodi:end="3.14781" sodipodi:arc-type="slice"/>
<text x="107.2" y="80.5" transform="scale(1.00124,0.998762)" style="fill:#204a87; stroke-width:0.54px;">A</text>
<text x="25.3" y="83.6" transform="scale(1.00124,0.998762)" style="fill:#0084c8; stroke-width:0.54px;">B</text>
<path style="fill:#0197fd; stroke:#3465a4; stroke-width:2; stroke-linecap:round;" d="M 31,1.9 1.9,97.7"/>
<path style="fill:none; stroke:#3465a4; stroke-width:2; stroke-linecap:round;" d="M 166.2,1.9 137.1,97.7"/>
<path style="fill:none; stroke:#ff4141; stroke-width:2;" d="M 31,1.9 H 166.2"/>
<path style="fill:none; stroke:#ff4141; stroke-width:2;" d="M 1.9,97.7 H 137.1"/>
</svg>