<?xml version="1.0" encoding="UTF-8" standalone="no"?>
<!-- Copyright 2017 mathsisfun.com -->

<svg
   width="147.8"
   height="226.6"
   version="1.1"
   style="font-family:'Comic Sans MS';font-size:15.9px;fill:#e9b96e;stroke-width:0.6px"
   id="svg98"
   sodipodi:docname="parabola-x2.svg"
   inkscape:version="1.1 (c68e22c387, 2021-05-23)"
   xmlns:inkscape="http://www.inkscape.org/namespaces/inkscape"
   xmlns:sodipodi="http://sodipodi.sourceforge.net/DTD/sodipodi-0.dtd"
   xmlns:xlink="http://www.w3.org/1999/xlink"
   xmlns="http://www.w3.org/2000/svg"
   xmlns:svg="http://www.w3.org/2000/svg"><sodipodi:namedview
   id="namedview100"
   pagecolor="#ffffff"
   bordercolor="#666666"
   borderopacity="1.0"
   inkscape:pageshadow="2"
   inkscape:pageopacity="0.0"
   inkscape:pagecheckerboard="0"
   showgrid="false"
   inkscape:current-layer="svg98" />
<defs
   id="defs5">
  <marker
     style="overflow:visible"
     id="Arrow1Lend"
     refX="0.0"
     refY="0.0"
     orient="auto"
     inkscape:stockid="Arrow1Lend"
     inkscape:isstock="true">
    <path
       transform="scale(0.8) rotate(180) translate(12.5,0)"
       style="fill-rule:evenodd;fill:context-stroke;stroke:context-stroke;stroke-width:1pt"
       d="M 0.0,0.0 L 5.0,-5.0 L -12.5,0.0 L 5.0,5.0 L 0.0,0.0 z "
       id="path1344" />
  </marker>
  <marker
     style="overflow:visible"
     id="Arrow1Mend"
     refX="0.0"
     refY="0.0"
     orient="auto"
     inkscape:stockid="Arrow1Mend"
     inkscape:isstock="true">
    <path
       transform="scale(0.4) rotate(180) translate(10,0)"
       style="fill-rule:evenodd;fill:context-stroke;stroke:context-stroke;stroke-width:1pt"
       d="M 0.0,0.0 L 5.0,-5.0 L -12.5,0.0 L 5.0,5.0 L 0.0,0.0 z "
       id="path1350" />
  </marker>
  <marker
     id="aa1"
     style="overflow:visible"
     orient="auto">
    <path
       transform="matrix(-0.4,0,0,-0.4,-4,0)"
       style="stroke:black;stroke-width:1pt;fill:none"
       d="M 0,0 5,-5 -12.5,0 5,5 Z"
       id="path2" />
  </marker>
  <marker
     style="overflow:visible"
     refX="0.0"
     refY="0.0"
     orient="auto"
     inkscape:stockid="Arrow1Lend464"
     inkscape:isstock="true"
     id="Arrow1Lend464">
    <path
       transform="scale(0.8) rotate(180) translate(12.5,0)"
       style="fill-rule:evenodd;fill:#0084c8;stroke:#0084c8;stroke-width:1pt;stroke-opacity:1;fill-opacity:1"
       d="M 0.0,0.0 L 5.0,-5.0 L -12.5,0.0 L 5.0,5.0 L 0.0,0.0 z "
       id="path1874" />
  </marker>
  <marker
     style="overflow:visible"
     refX="0.0"
     refY="0.0"
     orient="auto"
     inkscape:stockid="Arrow1Lend2147"
     inkscape:isstock="true"
     id="Arrow1Lend2147">
    <path
       transform="scale(0.8) rotate(180) translate(12.5,0)"
       style="fill-rule:evenodd;fill:#0084c8;stroke:#0084c8;stroke-width:1pt;stroke-opacity:1;fill-opacity:1"
       d="M 0.0,0.0 L 5.0,-5.0 L -12.5,0.0 L 5.0,5.0 L 0.0,0.0 z "
       id="path1877" />
  </marker>
</defs>
<text
   x="64.1328"
   y="84.2545"
   style="font-style:italic;font-variant:normal;font-weight:normal;font-stretch:normal;font-size:19.1px;font-family:Verdana;-inkscape-font-specification:'Verdana Italic';overflow:visible;fill:#0084c8"
   id="text7">y</text>
<text
   x="132.024"
   y="192.105"
   style="font-style:italic;font-size:19.1px;overflow:visible;fill:#0084c8;-inkscape-font-specification:'Verdana Italic';font-family:Verdana;font-weight:normal;font-stretch:normal;font-variant:normal"
   id="text9">x</text>
<path
   style="fill:#2e3436;fill-opacity:0.75;stroke:#0084c8;stroke-width:1.36;marker-end:url(#Arrow1Lend464)"
   d="M 74.7,226.6 V 83.3"
   id="path11" />
<path
   style="fill:#2e3436;fill-opacity:0.75;stroke:#0084c8;stroke-width:1.3;marker-end:url(#Arrow1Lend2147)"
   d="M 1.89485,197.9 H 144.796"
   id="path13" />
<ellipse
   cx="-715.3"
   cy="-395.2"
   rx="1.1"
   ry="0"
   transform="rotate(-90)"
   style="fill:#ff0000;stroke:black;stroke-width:0.16px"
   id="ellipse25" />
<text
   x="-638.5"
   y="-512"
   transform="matrix(0,-1.26,0.793651,0,0,0)"
   style="font-size:7.6px;fill:black;stroke-width:0.16px"
   id="text27" />

   
<use
   transform="matrix(0,-0.761904,0.479913,0,-224.15,1193.81)"
   xlink:href="#aa1"
   x="0"
   y="0"
   id="use29" />
<use
   transform="matrix(0,-0.761904,0.479913,0,-224.15,1193.81)"
   xlink:href="#aa1"
   x="0"
   y="0"
   id="use31" />
<use
   transform="matrix(0,-0.761904,0.479913,0,-224.15,1193.81)"
   xlink:href="#aa1"
   x="0"
   y="0"
   id="use33" />
<use
   transform="matrix(0,-0.761904,0.479913,0,-224.15,1193.81)"
   xlink:href="#aa1"
   x="0"
   y="0"
   id="use35" />
<use
   transform="matrix(0,-0.761904,0.479913,0,-494.264,1234.22)"
   xlink:href="#aa1"
   x="0"
   y="0"
   id="use37" />
<path
   style="fill:none;stroke:#0000ff;stroke-width:1.43"
   d="m 0.7,12.2 c 81,417.9 146.4,0 146.4,0"
   id="path39" />
<path
   style="stroke:#e9b96e;stroke-width:0.52"
   d="M 8.4,48.6 8.3,6.7e-4"
   id="path41" />
<path
   style="stroke:#e9b96e;stroke-width:0.52"
   d="M 140.1,48.2 139.9,6.7e-4"
   id="path43" />
<path
   style="stroke:#e9b96e;stroke-width:0.52"
   d="M 34.7,143.9 34.6,6.7e-4"
   id="path45" />
<path
   style="stroke:#e9b96e;stroke-width:0.52"
   d="M 61.1,192.2 60.9,0"
   id="path47" />
<path
   style="stroke:#e9b96e;stroke-width:0.52"
   d="M 87.4,192.5 87.3,6.7e-4"
   id="path49" />
<path
   style="stroke:#e9b96e;stroke-width:0.52"
   d="M 113.7,145.9 113.6,6.7e-4"
   id="path51" />
<path
   style="stroke:#e9b96e;stroke-width:0.63"
   d="M 74.8,181.9 8.4,48.6"
   id="path53" />
<path
   style="stroke:#e9b96e;stroke-width:0.63"
   d="M 74.8,181.9 34.7,143.9"
   id="path55" />
<path
   style="stroke:#e9b96e;stroke-width:0.63"
   d="M 74.8,181.9 61.1,192.1"
   id="path57" />
<path
   style="stroke:#e9b96e;stroke-width:0.63"
   d="m 74.8,181.9 12.6,10.6"
   id="path59" />
<path
   style="stroke:#e9b96e;stroke-width:0.63"
   d="M 74.8,181.9 113.7,145.9"
   id="path61" />
<path
   style="stroke:#e9b96e;stroke-width:0.63"
   d="M 74.8,181.9 140.1,48.2"
   id="path63" />
<g
   id="aa2"
   transform="matrix(0,-0.2,0.125977,0,-232.78,890.736)">
  <path
     style="color:black;overflow:visible;stroke-width:4.02"
     d="m 4271.7,2955 c 12.4,-0.2 24.9,-1 37.2,-2.4 5.9,-0.8 11.8,-1.7 17.6,-3.2 -3.3,0.8 3.3,-1 4.5,-1.6 11.8,-3.8 22.5,-10.2 32.9,-16.8 2.6,0.7 5.2,1.3 7.8,2 -12.6,8.4 -26,16.1 -40.7,20.2 -18.1,5.7 -37.3,6.6 -56.1,7.5 -2.4,-0.3 -8.1,0.8 -8.4,-0.5 1.7,-1.8 3.4,-3.5 5.1,-5.3 z"
     id="path65" />
  <path
     style="color:black;overflow:visible;stroke-width:4.02"
     d="m 4269.9,2961 c 11.9,0.1 23.8,1 35.6,2.2 6.4,0.9 12.9,1.8 19.2,3.4 -3.3,-0.8 3.3,1 4.5,1.6 11.8,3.8 22.5,10.2 32.9,16.8 2.6,-0.7 5.2,-1.3 7.8,-2 -12.7,-8.6 -26.3,-16.3 -41.2,-20.3 -18.2,-5.7 -37.3,-6.5 -56.2,-7.4 -2,0.4 -8.5,-1.1 -7.7,0.7 1.7,1.7 3.3,3.4 5,5.1 z"
     id="path67" />
</g>
<use
   transform="translate(-26.2915,2.33713e-4)"
   xlink:href="#aa2"
   x="0"
   y="0"
   id="use70" />
<use
   transform="translate(-52.5831,2.33713e-4)"
   xlink:href="#aa2"
   x="0"
   y="0"
   id="use72" />
<use
   transform="translate(-78.8806,2.33713e-4)"
   xlink:href="#aa2"
   x="0"
   y="0"
   id="use74" />
<use
   transform="translate(-105.172,2.33713e-4)"
   xlink:href="#aa2"
   x="0"
   y="0"
   id="use76" />
<use
   transform="translate(-131.464,2.33713e-4)"
   xlink:href="#aa2"
   x="0"
   y="0"
   id="use78" />
<use
   transform="matrix(0.770721,1.04966,-0.402129,0.749818,4.63075,-38.8721)"
   xlink:href="#aa2"
   x="0"
   y="0"
   id="use80" />
<use
   transform="matrix(0.508553,1.40986,-0.544279,0.457458,41.1902,-47.9191)"
   xlink:href="#aa2"
   x="0"
   y="0"
   id="use82" />
<use
   transform="matrix(-0.257752,0.953045,-0.408776,-0.330756,127.289,61.8754)"
   xlink:href="#aa2"
   x="0"
   y="0"
   id="use84" />
<use
   transform="matrix(-0.281824,-0.990985,0.437036,-0.374358,96.788,335.244)"
   xlink:href="#aa2"
   x="0"
   y="0"
   id="use86" />
<use
   transform="matrix(0.512639,-1.41286,0.543431,0.452971,-34.9101,346.239)"
   xlink:href="#aa2"
   x="0"
   y="0"
   id="use88" />
<use
   transform="matrix(0.79119,-1.01629,0.386305,0.767708,-77.3249,241.59)"
   xlink:href="#aa2"
   x="0"
   y="0"
   id="use90" />
<circle
   cx="74.8"
   cy="181.9"
   r="2.09333"
   style="color:black;overflow:visible;fill:#fce94f;stroke:black;stroke-width:1"
   id="circle92" />
<text
   x="71.8434"
   y="56.6256"
   style="color:#000000;font-style:italic;font-variant:normal;font-weight:normal;font-stretch:normal;font-size:26.7px;font-family:Verdana;-inkscape-font-specification:'Verdana Italic';overflow:visible;fill:#0000ff;stroke-width:0.6px"
   id="text94">y=x</text>
<text
   x="124.879"
   y="48.9965"
   style="color:#000000;font-style:italic;font-variant:normal;font-weight:normal;font-stretch:normal;font-size:18.7px;font-family:Verdana;-inkscape-font-specification:'Verdana Italic';overflow:visible;fill:#0000ff;stroke-width:0.6px"
   id="text96">2</text>
</svg>
