<?xml version="1.0" encoding="UTF-8" standalone="no"?>
<!-- Copyright 2017 mathsisfun.com -->

<svg
   width="322"
   height="266.9"
   version="1.1"
   id="svg79"
   sodipodi:docname="parabola-formula.svg"
   inkscape:version="1.1 (c68e22c387, 2021-05-23)"
   xmlns:inkscape="http://www.inkscape.org/namespaces/inkscape"
   xmlns:sodipodi="http://sodipodi.sourceforge.net/DTD/sodipodi-0.dtd"
   xmlns:xlink="http://www.w3.org/1999/xlink"
   xmlns="http://www.w3.org/2000/svg"
   xmlns:svg="http://www.w3.org/2000/svg">
  <sodipodi:namedview
     id="namedview81"
     pagecolor="#ffffff"
     bordercolor="#666666"
     borderopacity="1.0"
     inkscape:pageshadow="2"
     inkscape:pageopacity="0.0"
     inkscape:pagecheckerboard="0"
     showgrid="false"
     inkscape:current-layer="svg79" />
  <defs
     id="defs5">
    <marker
       id="id1"
       style="overflow:visible"
       orient="auto">
      <path
         transform="matrix(-0.8,0,0,-0.8,-10,0)"
         style="stroke:black;stroke-width:1pt"
         d="M 0,0 5,-5 -12.5,0 5,5 Z"
         id="path2" />
    </marker>
    <marker
       style="overflow:visible"
       orient="auto"
       id="id17941"
       inkscape:stockid="id17941">
      <path
         transform="matrix(-0.8,0,0,-0.8,-10,0)"
         style="stroke:#3465a4;stroke-width:1pt;stroke-opacity:1;fill-opacity:1;fill:#3465a4"
         d="M 0,0 5,-5 -12.5,0 5,5 Z"
         id="path1000" />
    </marker>
    <marker
       style="overflow:visible"
       orient="auto"
       id="id17536"
       inkscape:stockid="id17536">
      <path
         transform="matrix(-0.8,0,0,-0.8,-10,0)"
         style="stroke:#3465a4;stroke-width:1pt;stroke-opacity:1;fill-opacity:1;fill:#3465a4"
         d="M 0,0 5,-5 -12.5,0 5,5 Z"
         id="path1003" />
    </marker>
  </defs>
  <path
     style="fill:none;stroke:#4e9a06;stroke-width:0.8;stroke-miterlimit:4;stroke-dasharray:none"
     d="m 163.518,62.5914 h -97.1"
     id="path7" />
  <path
     style="fill:#babdb6;stroke:#4e9a06;stroke-width:0.835665;stroke-miterlimit:4;stroke-dasharray:none"
     d="M 163.518,62.5914 105.379,137.401"
     id="path11"
     sodipodi:nodetypes="cc" />
  <text
     x="114.233"
     y="155.08"
     style="fill:#edd400;font-family:Trebuchet MS;font-size:20px;stroke-width:0.2px"
     id="text13">focus</text>
  <ellipse
     cx="195.133"
     cy="-623.52"
     rx="1.1"
     ry="0"
     style="fill:#ff0000;stroke:#000000;stroke-width:0.2px"
     id="ellipse15" />
  <text
     x="105.933"
     y="-641.22"
     style="fill:#000000;font-family:Trebuchet MS;font-size:9.6px;stroke-width:0.2px"
     id="text17" />
  <path
     style="fill:none;stroke:#3465a4;stroke-width:0.86;marker-end:url(#id17536)"
     d="m 2.333,138.08 317.9,-0.2"
     id="path19" />
  <text
     x="181.733"
     y="150.48"
     style="color:#000000;fill:#729fcf;font-family:Trebuchet MS;font-size:13.3px;font-style:italic;overflow:visible;stroke-width:0.2px"
     id="text21">axis of symmetry</text>
  <text
     x="48.633"
     y="56.7799"
     style="fill:#005c94;font-family:Trebuchet MS;font-size:14.4px;stroke-width:0.2px"
     id="text23">M</text>
  <text
     x="167.033"
     y="77.88"
     style="fill:#005c94;font-family:Trebuchet MS;font-size:14.4px;stroke-width:0.2px"
     id="text25">P(x,y)</text>
  <text
     x="119.433"
     y="131.08"
     style="fill:#edd400;font-family:Trebuchet MS;font-size:14.4px;stroke:#edd400;stroke-width:0.2px"
     id="text27">F=(a,0)</text>
  <text
     x="48.433"
     y="131.58"
     style="fill:#005c94;font-family:Trebuchet MS;font-size:14.4px;stroke-width:0.2px"
     id="text29">N</text>
  <text
     x="293.933"
     y="165.88"
     style="fill:#204a87;font-family:Trebuchet MS;font-size:28.8px;font-style:italic;stroke-width:0.2px"
     id="text31">X</text>
  <text
     x="90.233"
     y="27.2799"
     style="fill:#204a87;font-family:Trebuchet MS;font-size:28.8px;font-style:italic;stroke-width:0.2px"
     id="text33">Y</text>
  <text
     x="70.433"
     y="56.08"
     style="fill:#005c94;font-family:Trebuchet MS;font-size:14.4px;stroke-width:0.2px"
     id="text35">Q</text>
  <text
     x="70.133"
     y="131.88"
     style="fill:#005c94;font-family:Trebuchet MS;font-size:14.4px;stroke-width:0.2px"
     id="text37">O</text>
  <path
     style="fill:none;stroke:#729fcf;stroke-width:1.8"
     d="m 271.333,21.68 c -417.9,129 0,233.3 0,233.3"
     id="path39" />
  <circle
     cx="105.433"
     cy="-137.08"
     r="3.10668"
     transform="scale(1,-1)"
     style="color:#000000;overflow:visible;fill:#fce94f;stroke:#2e3436;stroke-width:0.78"
     id="circle41" />
  <path
     style="color:#000000;overflow:visible;fill:#3465a4;stroke:#c4a000;stroke-width:2.16;stroke-dasharray:2.2, 4.3"
     d="m 66.333,0.48 c 0,265.6 0,266.4 0,266.4"
     id="path43" />
  <text
     x="227.47"
     y="139.812"
     transform="rotate(20.7955)"
     style="fill:#729fcf;font-family:Trebuchet MS;font-size:21.3px;font-style:italic;stroke-width:0.2px"
     id="text45">Parabola</text>
  <text
     x="-261.904"
     y="58.3844"
     transform="rotate(-90.5801)"
     style="fill:#c4a000;font-family:Trebuchet MS;font-size:18.7px;font-style:italic;stroke-width:0.2px"
     id="text47">directrix</text>
  <text
     x="-1.46701"
     y="167.98"
     style="color:#000000;fill:#edd400;font-family:Trebuchet MS;font-size:26px;overflow:visible;stroke-width:0.2px"
     id="text49">&quot;a&quot;</text>
  <path
     style="color:#000000;overflow:visible;fill:#edd400;stroke-width:0.86"
     d="m 78.033,141.98 c -2.8,4.9 -6.6,9.6 -12,11.6 -5.2,1.6 -10.6,1.9 -16,2.6 -3.7,0.3 -7.4,1.1 -11.1,1.8 0.9,-0.2 -2.3,0.9 -3,1.5 -2.1,1.1 -4.2,2.1 -6.2,3.3 -1,-0.3 -2,-0.6 -3.1,-0.9 3.2,-1.9 6.5,-3.6 9.9,-5.2 4.2,-1.4 8.7,-2.1 13.1,-2.7 4.5,-0.4 10.8,-1.2 14,-1.8 4,-1.3 7.1,-4.5 9.4,-7.8 0.9,-1.2 1.4,-3.3 3.3,-2.6 0.5,0 1.1,0.1 1.6,0.1 z"
     id="path51" />
  <path
     style="color:#000000;overflow:visible;fill:#edd400;stroke-width:0.86"
     d="m 94.833,141.68 c -4.1,5.7 -9.1,10.9 -14.8,15 -3.9,2.4 -8.2,4.2 -12.6,5.5 -3.9,1.2 -8.1,1 -11.8,-0.6 -2.9,-1.1 -5.7,-2.3 -8.7,-3 -2.3,-0.4 -4.6,-0.8 -6.9,-0.4 -1.3,0.1 -5.1,1.6 -4.9,0.7 0.5,-0.7 1.1,-1.4 1.6,-2.1 2.7,-0.4 5.3,-1.4 8,-0.9 3,0.2 6,1 8.8,2.1 3.7,1.3 7.5,3.2 11.5,2.6 1.6,0 3.7,-1 5.8,-1.8 4.1,-1.6 8,-3.8 11.1,-6.9 3.5,-3.2 6.9,-6.7 9.6,-10.5 1.1,0.1 2.1,0.2 3.2,0.3 z"
     id="path53" />
  <use
     transform="matrix(0.761904,0,0,0.761904,-283.346,-352.01)"
     xlink:href="#id2"
     x="0"
     y="0"
     id="use55"
     width="100%"
     height="100%" />
  <use
     transform="matrix(0.761904,0,0,0.761904,-283.346,-352.01)"
     xlink:href="#id2"
     x="0"
     y="0"
     id="use57"
     width="100%"
     height="100%" />
  <use
     transform="matrix(0.761904,0,0,0.761904,-283.346,-352.01)"
     xlink:href="#id2"
     x="0"
     y="0"
     id="use59"
     width="100%"
     height="100%" />
  <use
     transform="matrix(0.761904,0,0,0.761904,-283.346,-352.01)"
     xlink:href="#id2"
     x="0"
     y="0"
     id="use61"
     width="100%"
     height="100%" />
  <use
     transform="matrix(0.761904,0,0,0.761904,-323.748,-780.84)"
     xlink:href="#id2"
     x="0"
     y="0"
     id="use63"
     width="100%"
     height="100%" />
  <circle
     cx="162.533"
     cy="-62.68"
     r="3.10668"
     transform="scale(1,-1)"
     style="color:#000000;overflow:visible;fill:#fce94f;stroke:#2e3436;stroke-width:0.78"
     id="circle65" />
  <circle
     cx="66.333"
     cy="-62.68"
     r="3.10668"
     transform="scale(1,-1)"
     style="color:#000000;overflow:visible;fill:#fce94f;stroke:#2e3436;stroke-width:0.78"
     id="circle67" />
  <circle
     cx="85.533"
     cy="-62.68"
     r="3.10668"
     transform="scale(1,-1)"
     style="color:#000000;overflow:visible;fill:#fce94f;stroke:#2e3436;stroke-width:0.78"
     id="circle69" />
  <circle
     cx="85.733"
     cy="-137.08"
     r="3.10668"
     transform="scale(1,-1)"
     style="color:#000000;overflow:visible;fill:#fce94f;stroke:#2e3436;stroke-width:0.78"
     id="circle71" />
  <circle
     cx="65.933"
     cy="-137.08"
     r="3.10668"
     transform="scale(1,-1)"
     style="color:#000000;overflow:visible;fill:#fce94f;stroke:#2e3436;stroke-width:0.78"
     id="circle73" />
  <path
     style="fill:none;stroke:#3465a4;stroke-width:0.86;marker-end:url(#id17941)"
     d="m 85.733,265.68 -0.2,-264"
     id="path75" />
</svg>
