<?xml version="1.0" encoding="UTF-8" standalone="no"?>
<!-- Copyright 2021 mathsisfun.com -->
<svg xmlns:sodipodi="http://sodipodi.sourceforge.net/DTD/sodipodi-0.dtd" xmlns="http://www.w3.org/2000/svg" xmlns:xlink="http://www.w3.org/1999/xlink" width="125.8" height="109.2" version="1.1" style="font-family:'Trebuchet MS'; font-size:28px; stroke-width:1pt; fill:#204a87;">
<defs>
	<marker id="aa14" style="overflow:visible;" orient="auto">
		<path transform="matrix(0.4,0,0,0.4,4,0)" style="fill:#4e9a06; stroke:#4e9a06;" d="M 0,0 5,-5 -12.5,0 5,5 Z"/>
	</marker>
	<marker id="aa15" style="overflow:visible;" orient="auto">
		<path transform="matrix(-0.4,0,0,-0.4,-4,0)" style="fill:#4e9a06; stroke:#4e9a06;" d="M 0,0 5,-5 -12.5,0 5,5 Z"/>
	</marker>
	<linearGradient id="aa1">
		<stop offset="0" style="stop-color:#939393; stop-opacity:1;"/>
		<stop offset="1" style="stop-color:black; stop-opacity:1;"/>
	</linearGradient>
	<marker id="aa13" style="overflow:visible;" orient="auto">
		<path transform="matrix(-0.4,0,0,-0.4,-4,0)" style="stroke:#204a87;" d="M 0,0 5,-5 -12.5,0 5,5 Z"/>
	</marker>
	<marker id="aa12" style="overflow:visible;" orient="auto">
		<path transform="matrix(-0.4,0,0,-0.4,-4,0)" style="stroke:#204a87;" d="M 0,0 5,-5 -12.5,0 5,5 Z"/>
	</marker>
	<marker id="aa11" style="overflow:visible;" orient="auto">
		<path transform="matrix(-0.4,0,0,-0.4,-4,0)" style="stroke:#204a87;" d="M 0,0 5,-5 -12.5,0 5,5 Z"/>
	</marker>
	<marker id="aa10" style="overflow:visible;" orient="auto">
		<path transform="matrix(-0.4,0,0,-0.4,-4,0)" style="stroke:#204a87;" d="M 0,0 5,-5 -12.5,0 5,5 Z"/>
	</marker>
	<marker id="aa8" style="overflow:visible;" orient="auto">
		<path transform="matrix(0.4,0,0,0.4,4,0)" style="stroke:#204a87;" d="M 0,0 5,-5 -12.5,0 5,5 Z"/>
	</marker>
	<marker id="aa9" style="overflow:visible;" orient="auto">
		<path transform="matrix(-0.4,0,0,-0.4,-4,0)" style="stroke:#204a87;" d="M 0,0 5,-5 -12.5,0 5,5 Z"/>
	</marker>
	<marker id="aa6" style="overflow:visible;" orient="auto">
		<path transform="matrix(0.4,0,0,0.4,4,0)" style="stroke:#204a87;" d="M 0,0 5,-5 -12.5,0 5,5 Z"/>
	</marker>
	<marker id="aa7" style="overflow:visible;" orient="auto">
		<path transform="matrix(-0.4,0,0,-0.4,-4,0)" style="stroke:#204a87;" d="M 0,0 5,-5 -12.5,0 5,5 Z"/>
	</marker>
	<marker id="aa4" style="overflow:visible;" orient="auto">
		<path transform="matrix(0.4,0,0,0.4,4,0)" style="stroke:#204a87;" d="M 0,0 5,-5 -12.5,0 5,5 Z"/>
	</marker>
	<marker id="aa5" style="overflow:visible;" orient="auto">
		<path transform="matrix(-0.4,0,0,-0.4,-4,0)" style="stroke:#204a87;" d="M 0,0 5,-5 -12.5,0 5,5 Z"/>
	</marker>
	<marker id="aa2" style="overflow:visible;" orient="auto">
		<path transform="matrix(0.4,0,0,0.4,4,0)" style="stroke:#204a87;" d="M 0,0 5,-5 -12.5,0 5,5 Z"/>
	</marker>
	<marker id="aa3" style="overflow:visible;" orient="auto">
		<path transform="matrix(-0.4,0,0,-0.4,-4,0)" style="stroke:#204a87;" d="M 0,0 5,-5 -12.5,0 5,5 Z"/>
	</marker>
</defs>
<g style="display:none;" transform="translate(516.76,200.052)">
	<image x="-1413.5" y="148.4" width="1305" height="787.4" xlink:href="../../Images/SVG/inkscape_pasted_image_20101001_094421.html"/>
</g>
<g transform="translate(516.76,200.052)">
	<rect x="-1370.1" y="-183" width="93.6" height="56.5" transform="matrix(1,0,-0.352036,0.935987,0,0)" style="fill:#7166ff; fill-opacity:0.1; stroke:#00009a; stroke-width:3.09;"/>
	<path style="marker-start:url(#aa2); marker-end:url(#aa3); fill:none; stroke:#204a87; stroke-width:1.8;" d="M -1199.9,-114.9 V -168.1"/>
	<path style="marker-start:url(#aa4); marker-end:url(#aa5); fill:none; stroke:#204a87; stroke-width:1.8;" d="m -1323.5,-103.7 h 86.7"/>
	<text x="-1189.2" y="-129.5" transform="scale(1.00056,0.999443)" style="stroke-width:0.6;">h</text>
	<text x="-1291.1" y="-76.5" transform="scale(1.00056,0.999443)" style="stroke-width:0.6;">b</text>
	<rect x="-808.9" y="-183" width="93.6" height="56.5" transform="matrix(1,0,-0.352036,0.935987,0,0)" style="fill:#7166ff; fill-opacity:0.1; stroke:#00009a; stroke-width:3.09;"/>
	<path style="marker-start:url(#aa6); marker-end:url(#aa7); fill:none; stroke:#204a87; stroke-width:1.8;" d="M -638.7,-114.9 V -168.1"/>
	<path style="marker-start:url(#aa8); marker-end:url(#aa9); fill:none; stroke:#204a87; stroke-width:1.8;" d="m -762.3,-103.7 h 86.7"/>
	<text x="-628.3" y="-129.5" transform="scale(1.00056,0.999443)" style="stroke-width:0.6;">4</text>
	<text x="-730.2" y="-76.5" transform="scale(1.00056,0.999443)" style="stroke-width:0.6;">7</text>
	<rect x="-1156.6" y="-183" width="93.6" height="56.5" transform="matrix(1,0,-0.352036,0.935987,0,0)" style="fill:#7166ff; fill-opacity:0.1; stroke:#00009a; stroke-width:3.09;"/>
	<rect x="-554" y="-183" width="93.6" height="56.5" transform="matrix(1,0,-0.352036,0.935987,0,0)" style="fill:#7166ff; fill-opacity:0.1; stroke-width:3.09;"/>
	<text x="-402.6" y="-127.8" transform="scale(1.00056,0.999441)" style="stroke-width:0.6;">s</text>
	<text x="-472.8" y="-93.7" transform="scale(1.00056,0.999442)" style="stroke-width:0.6;">b</text>
	<rect x="-982.9" y="-183" width="93.6" height="56.5" transform="matrix(1,0,-0.352036,0.935987,0,0)" style="fill:#7166ff; fill-opacity:0.1; stroke:#00009a; stroke-width:3.09;"/>
	<path style="marker-end:url(#aa10); fill:none; stroke:#204a87; stroke-width:1.8;" d="m -417.2,-119 18.8,-47.5"/>
	<path style="marker-end:url(#aa11); fill:none; stroke:#204a87; stroke-width:1.8;" d="m -396.8,-171 c -29.4,0 -58.9,0 -88.3,0"/>
	<path style="marker-end:url(#aa12); fill:none; stroke:#204a87; stroke-width:1.8;" d="m -508.8,-119.2 c 29.4,0 58.9,0 88.3,0"/>
	<path style="marker-end:url(#aa13); fill:none; stroke:#204a87; stroke-width:1.8;" d="m -489,-170.3 -18.8,47.5"/>
	<text x="-447.6" y="-176.3" transform="scale(1.00056,0.999442)" style="stroke-width:0.6;">b</text>
	<text x="-515.1" y="-148.3" transform="scale(1.00056,0.999442)" style="stroke-width:0.6;">s</text>
	<path style="marker-start:url(#aa14); marker-end:url(#aa15); fill:#f57900; stroke:#4e9a06; stroke-width:1.5; stroke-dasharray:9, 1.5;" d="m -1021,-120.3 -69.7,-50.9"/>
	<path style="marker-start:url(#aa14); marker-end:url(#aa15); fill:#f57900; stroke:#4e9a06; stroke-width:1.5; stroke-dasharray:9, 1.5;" d="m -1110.1,-119.7 106.8,-49.5"/>
	<rect x="-244.6" y="-176.8" width="110.2" height="52.9" style="fill:#7166ff; fill-opacity:0.1; stroke:#00009a; stroke-width:2.99;"/>
	<rect x="-245" y="-142.7" width="19.3" height="19.3" style="fill:none; stroke:#2d2d2d; stroke-width:1.43;"/>
	<rect x="-153.9" y="-142.7" width="19.3" height="19.3" style="fill:none; stroke:#2d2d2d; stroke-width:1.43;"/>
	<rect x="-244.5" y="-176.5" width="19.3" height="19.3" style="fill:none; stroke:#2d2d2d; stroke-width:1.43;"/>
	<rect x="-153.4" y="-176.5" width="19.3" height="19.3" style="fill:none; stroke:#2d2d2d; stroke-width:1.43;"/>
</g>
</svg>