<?xml version="1.0" encoding="UTF-8" standalone="no"?>
<!-- Copyright 2017 mathsisfun.com -->

<svg
   width="208.2"
   height="159.5"
   version="1.1"
   style="font-family:'Comic Sans MS';fill:#e9b96e;stroke-width:0.52"
   id="svg88"
   sodipodi:docname="parabola-y2.svg"
   inkscape:version="1.1 (c68e22c387, 2021-05-23)"
   xmlns:inkscape="http://www.inkscape.org/namespaces/inkscape"
   xmlns:sodipodi="http://sodipodi.sourceforge.net/DTD/sodipodi-0.dtd"
   xmlns:xlink="http://www.w3.org/1999/xlink"
   xmlns="http://www.w3.org/2000/svg"
   xmlns:svg="http://www.w3.org/2000/svg"><sodipodi:namedview
   id="namedview90"
   pagecolor="#ffffff"
   bordercolor="#666666"
   borderopacity="1.0"
   inkscape:pageshadow="2"
   inkscape:pageopacity="0.0"
   inkscape:pagecheckerboard="0"
   showgrid="false"
   inkscape:current-layer="svg88" />
<defs
   id="defs5">
  <marker
     style="overflow:visible"
     id="Arrow1Lend"
     refX="0.0"
     refY="0.0"
     orient="auto"
     inkscape:stockid="Arrow1Lend"
     inkscape:isstock="true">
    <path
       transform="scale(0.8) rotate(180) translate(12.5,0)"
       style="fill-rule:evenodd;fill:context-stroke;stroke:context-stroke;stroke-width:1pt"
       d="M 0.0,0.0 L 5.0,-5.0 L -12.5,0.0 L 5.0,5.0 L 0.0,0.0 z "
       id="path934" />
  </marker>
  <marker
     id="aa1"
     style="overflow:visible"
     orient="auto">
    <path
       transform="matrix(-0.4,0,0,-0.4,-4,0)"
       style="stroke:black;stroke-width:1pt;fill:none"
       d="M 0,0 5,-5 -12.5,0 5,5 Z"
       id="path2" />
  </marker>
  <marker
     style="overflow:visible"
     refX="0.0"
     refY="0.0"
     orient="auto"
     inkscape:stockid="Arrow1Lend8026"
     inkscape:isstock="true"
     id="Arrow1Lend8026">
    <path
       transform="scale(0.8) rotate(180) translate(12.5,0)"
       style="fill-rule:evenodd;fill:#0084c8;stroke:#0084c8;stroke-width:1pt;stroke-opacity:1;fill-opacity:1"
       d="M 0.0,0.0 L 5.0,-5.0 L -12.5,0.0 L 5.0,5.0 L 0.0,0.0 z "
       id="path1252" />
  </marker>
  <marker
     style="overflow:visible"
     refX="0.0"
     refY="0.0"
     orient="auto"
     inkscape:stockid="Arrow1Lend3857"
     inkscape:isstock="true"
     id="Arrow1Lend3857">
    <path
       transform="scale(0.8) rotate(180) translate(12.5,0)"
       style="fill-rule:evenodd;fill:#0084c8;stroke:#0084c8;stroke-width:1pt;stroke-opacity:1;fill-opacity:1"
       d="M 0.0,0.0 L 5.0,-5.0 L -12.5,0.0 L 5.0,5.0 L 0.0,0.0 z "
       id="path1255" />
  </marker>
</defs>
<text
   x="16.0736"
   y="14.1464"
   style="font-style:italic;font-size:19.1px;overflow:visible;fill:#0084c8;stroke-width:0.6px;-inkscape-font-specification:'Verdana Italic';font-family:Verdana;font-weight:normal;font-stretch:normal;font-variant:normal"
   id="text7">y</text>
<text
   x="146.599"
   y="91.4028"
   style="font-style:italic;font-variant:normal;font-weight:normal;font-stretch:normal;font-size:19.1px;font-family:Verdana;-inkscape-font-specification:'Verdana Italic';overflow:visible;fill:#0084c8;stroke-width:0.6px"
   id="text9">x</text>
<path
   style="fill:#2e3436;fill-opacity:0.75;stroke:#0084c8;stroke-width:1.36;marker-end:url(#Arrow1Lend8026)"
   d="M 10.2,155.5 V 2.7"
   id="path11" />
<path
   style="fill:#2e3436;fill-opacity:0.75;stroke:#0084c8;stroke-width:1.3;marker-end:url(#Arrow1Lend3857)"
   d="M 0,86.5 H 142.9"
   id="path13" />
<ellipse
   cx="-604"
   cy="-459.7"
   rx="1.1"
   ry="0"
   transform="rotate(-90)"
   style="fill:#ff0000;stroke:black;stroke-width:0.16px"
   id="ellipse15" />
<text
   x="-550.1"
   y="-593.3"
   transform="matrix(0,-1.26,0.793651,0,0,0)"
   style="font-size:7.6px;fill:black;stroke-width:0.16px"
   id="text17" />


   
<use
   transform="matrix(0,-0.761904,0.479913,0,-288.658,1082.44)"
   xlink:href="#aa1"
   x="0"
   y="0"
   id="use19" />
<use
   transform="matrix(0,-0.761904,0.479913,0,-288.658,1082.44)"
   xlink:href="#aa1"
   x="0"
   y="0"
   id="use21" />
<use
   transform="matrix(0,-0.761904,0.479913,0,-288.658,1082.44)"
   xlink:href="#aa1"
   x="0"
   y="0"
   id="use23" />
<use
   transform="matrix(0,-0.761904,0.479913,0,-288.658,1082.44)"
   xlink:href="#aa1"
   x="0"
   y="0"
   id="use25" />
<use
   transform="matrix(0,-0.761904,0.479913,0,-558.772,1122.85)"
   xlink:href="#aa1"
   x="0"
   y="0"
   id="use27" />
<path
   style="fill:none;stroke:#0000ff;stroke-width:1.43"
   d="m 196,12.3 c -417.9,81 0,146.4 0,146.4"
   id="path29" />
<path
   style="stroke:#e9b96e"
   d="m 159.6,20 48.6,-0.1"
   id="path31" />
<path
   style="stroke:#e9b96e"
   d="M 160,151.7 208.2,151.6"
   id="path33" />
<path
   style="stroke:#e9b96e"
   d="M 64.3,46.4 208.2,46.2"
   id="path35" />
<path
   style="stroke:#e9b96e"
   d="M 16,72.7 208.1,72.6"
   id="path37" />
<path
   style="stroke:#e9b96e"
   d="M 15.7,99 208.2,98.9"
   id="path39" />
<path
   style="stroke:#e9b96e"
   d="M 62.3,125.4 208.2,125.2"
   id="path41" />
<path
   style="stroke:#e9b96e;stroke-width:0.63"
   d="M 26.3,86.5 159.6,20"
   id="path43" />
<path
   style="stroke:#e9b96e;stroke-width:0.63"
   d="M 26.3,86.5 64.3,46.4"
   id="path45" />
<path
   style="stroke:#e9b96e;stroke-width:0.63"
   d="M 26.3,86.5 16.1,72.8"
   id="path47" />
<path
   style="stroke:#e9b96e;stroke-width:0.63"
   d="m 26.3,86.5 -10.6,12.6"
   id="path49" />
<path
   style="stroke:#e9b96e;stroke-width:0.63"
   d="M 26.3,86.5 62.3,125.4"
   id="path51" />
<path
   style="stroke:#e9b96e;stroke-width:0.63"
   d="M 26.3,86.5 160,151.7"
   id="path53" />
<g
   id="aa2"
   transform="matrix(0.2,0,0,0.125977,-682.526,-221.15)">
  <path
     style="color:black;overflow:visible;stroke-width:4.02"
     d="m 4271.7,2955 c 12.4,-0.2 24.9,-1 37.2,-2.4 5.9,-0.8 11.8,-1.7 17.6,-3.2 -3.3,0.8 3.3,-1 4.5,-1.6 11.8,-3.8 22.5,-10.2 32.9,-16.8 2.6,0.7 5.2,1.3 7.8,2 -12.6,8.4 -26,16.1 -40.7,20.2 -18.1,5.7 -37.3,6.6 -56.1,7.5 -2.4,-0.3 -8.1,0.8 -8.4,-0.5 1.7,-1.8 3.4,-3.5 5.1,-5.3 z"
     id="path55" />
  <path
     style="color:black;overflow:visible;stroke-width:4.02"
     d="m 4269.9,2961 c 11.9,0.1 23.8,1 35.6,2.2 6.4,0.9 12.9,1.8 19.2,3.4 -3.3,-0.8 3.3,1 4.5,1.6 11.8,3.8 22.5,10.2 32.9,16.8 2.6,-0.7 5.2,-1.3 7.8,-2 -12.7,-8.6 -26.3,-16.3 -41.2,-20.3 -18.2,-5.7 -37.3,-6.5 -56.2,-7.4 -2,0.4 -8.5,-1.1 -7.7,0.7 1.7,1.7 3.3,3.4 5,5.1 z"
     id="path57" />
</g>
<use
   transform="translate(-5e-4,-26.2915)"
   xlink:href="#aa2"
   x="0"
   y="0"
   id="use60" />
<use
   transform="translate(-5e-4,-52.5831)"
   xlink:href="#aa2"
   x="0"
   y="0"
   id="use62" />
<use
   transform="translate(-5e-4,-78.8806)"
   xlink:href="#aa2"
   x="0"
   y="0"
   id="use64" />
<use
   transform="translate(-5e-4,-105.172)"
   xlink:href="#aa2"
   x="0"
   y="0"
   id="use66" />
<use
   transform="translate(-5e-4,-131.464)"
   xlink:href="#aa2"
   x="0"
   y="0"
   id="use68" />
<use
   transform="matrix(0.749818,0.402129,-1.04966,0.770721,103.17,-76.4302)"
   xlink:href="#aa2"
   x="0"
   y="0"
   id="use70" />
<use
   transform="matrix(0.457458,0.544279,-1.40986,0.508553,177.279,-66.4188)"
   xlink:href="#aa2"
   x="0"
   y="0"
   id="use72" />
<use
   transform="matrix(-0.330756,0.408776,-0.953045,-0.257752,226.286,56.8051)"
   xlink:href="#aa2"
   x="0"
   y="0"
   id="use74" />
<use
   transform="matrix(-0.374358,-0.437036,0.990985,-0.281824,-60.6131,202.691)"
   xlink:href="#aa2"
   x="0"
   y="0"
   id="use76" />
<use
   transform="matrix(0.452971,-0.543431,1.41286,0.512639,-248.773,83.9051)"
   xlink:href="#aa2"
   x="0"
   y="0"
   id="use78" />
<use
   transform="matrix(0.767708,-0.386305,1.01629,0.79119,-205.044,5.53612)"
   xlink:href="#aa2"
   x="0"
   y="0"
   id="use80" />
<circle
   cx="86.5"
   cy="-26.3"
   r="2.09333"
   transform="rotate(90)"
   style="color:black;overflow:visible;fill:#fce94f;stroke:black;stroke-width:1"
   id="circle82" />
<text
   x="44.0536"
   y="26.0691"
   style="color:#000000;font-style:italic;font-variant:normal;font-weight:normal;font-stretch:normal;font-size:26.7px;font-family:Verdana;-inkscape-font-specification:'Verdana Italic';overflow:visible;fill:#0000ff;stroke-width:0.6px"
   id="text94">y</text>
<text
   x="61.0883"
   y="17.3009"
   style="color:#000000;font-style:italic;font-variant:normal;font-weight:normal;font-stretch:normal;font-size:18.7px;font-family:Verdana;-inkscape-font-specification:'Verdana Italic';overflow:visible;fill:#0000ff;stroke-width:0.6px"
   id="text96">2</text>
<text
   x="70.9412"
   y="27.892"
   style="color:#000000;font-style:italic;font-variant:normal;font-weight:normal;font-stretch:normal;font-size:26.7px;font-family:Verdana;-inkscape-font-specification:'Verdana Italic';overflow:visible;fill:#0000ff;stroke-width:0.6px"
   id="text893">=x</text>
</svg>
