<?xml version="1.0" encoding="UTF-8" standalone="no"?>
<!-- Copyright 2021 mathsisfun.com -->
<svg xmlns:sodipodi="http://sodipodi.sourceforge.net/DTD/sodipodi-0.dtd" xmlns="http://www.w3.org/2000/svg" width="226" height="147.8" version="1.1" style="font-size:24px; fill:#0084c8; stroke-width:1pt;">
<defs>
	<marker id="aa7" style="overflow:visible;" orient="auto">
		<path transform="matrix(0.8,0,0,0.8,10,0)" style="stroke:#0084c8;" d="M 0,0 5,-5 -12.5,0 5,5 Z"/>
	</marker>
	<marker id="aa8" style="overflow:visible;" orient="auto">
		<path transform="matrix(-0.8,0,0,-0.8,-10,0)" style="stroke:#0084c8;" d="M 0,0 5,-5 -12.5,0 5,5 Z"/>
	</marker>
	<marker id="aa5" style="overflow:visible;" orient="auto">
		<path transform="matrix(0.8,0,0,0.8,10,0)" style="stroke:#0084c8;" d="M 0,0 5,-5 -12.5,0 5,5 Z"/>
	</marker>
	<marker id="aa6" style="overflow:visible;" orient="auto">
		<path transform="matrix(-0.8,0,0,-0.8,-10,0)" style="stroke:#0084c8;" d="M 0,0 5,-5 -12.5,0 5,5 Z"/>
	</marker>
	<marker id="aa3" style="overflow:visible;" orient="auto">
		<path transform="matrix(0.8,0,0,0.8,10,0)" style="stroke:#0084c8;" d="M 0,0 5,-5 -12.5,0 5,5 Z"/>
	</marker>
	<marker id="aa4" style="overflow:visible;" orient="auto">
		<path transform="matrix(-0.8,0,0,-0.8,-10,0)" style="stroke:#0084c8;" d="M 0,0 5,-5 -12.5,0 5,5 Z"/>
	</marker>
	<marker id="aa1" style="overflow:visible;" orient="auto">
		<path transform="matrix(0.8,0,0,0.8,10,0)" style="stroke:#0084c8;" d="M 0,0 5,-5 -12.5,0 5,5 Z"/>
	</marker>
	<marker id="aa2" style="overflow:visible;" orient="auto">
		<path transform="matrix(-0.8,0,0,-0.8,-10,0)" style="stroke:#0084c8;" d="M 0,0 5,-5 -12.5,0 5,5 Z"/>
	</marker>
</defs>
<g transform="translate(441.984,-139.112)">
	<rect x="-408.2" y="173.8" ry="0.5" width="160.9" height="76.1" style="fill:none; stroke:#f57900; stroke-width:2;"/>
	<text x="-334.3" y="156.1" style="font-family:Arial; stroke-width:0.6px;">7</text>
	<text x="-334.3" y="286.9" style="font-family:Arial; stroke-width:0.6px;">7</text>
	<text x="-228.2" y="220.3" style="font-family:Arial; stroke-width:0.6px;">3</text>
	<text x="-443" y="220.3" style="font-family:Arial; stroke-width:0.6px;">3</text>
	<path style="marker-start:url(#aa1); marker-end:url(#aa2); fill:none; stroke:#0084c8; stroke-width:0.6px;" d="m -408.1,161.1 h 160.8"/>
	<path style="marker-start:url(#aa3); marker-end:url(#aa4); fill:none; stroke:#0084c8; stroke-width:0.6px;" d="m -234,173.6 -0.4,76.5"/>
	<path style="marker-start:url(#aa5); marker-end:url(#aa6); fill:none; stroke:#0084c8; stroke-width:0.6px;" d="m -408.1,264.5 h 160.8"/>
	<path style="marker-start:url(#aa7); marker-end:url(#aa8); fill:none; stroke:#0084c8; stroke-width:0.6px;" d="m -422.4,173.6 -0.4,76.5"/>
</g>
</svg>