<?xml version="1.0" encoding="UTF-8" standalone="no"?>
<!-- Created with Inkscape (http://www.inkscape.org/) -->

<svg
   width="243.864"
   height="115.97"
   id="svg3888"
   sodipodi:version="0.32"
   inkscape:version="1.1.2 (0a00cf5339, 2022-02-04, custom)"
   sodipodi:docname="pi-circle-ex1.svg"
   inkscape:output_extension="org.inkscape.output.svg.inkscape"
   version="1.1"
   xmlns:inkscape="http://www.inkscape.org/namespaces/inkscape"
   xmlns:sodipodi="http://sodipodi.sourceforge.net/DTD/sodipodi-0.dtd"
   xmlns="http://www.w3.org/2000/svg"
   xmlns:svg="http://www.w3.org/2000/svg"
   xmlns:rdf="http://www.w3.org/1999/02/22-rdf-syntax-ns#"
   xmlns:cc="http://creativecommons.org/ns#"
   xmlns:dc="http://purl.org/dc/elements/1.1/">
  <sodipodi:namedview
     id="base"
     pagecolor="#ffffff"
     bordercolor="#000000"
     borderopacity="1"
     inkscape:pageopacity="0.0"
     inkscape:pageshadow="0"
     inkscape:zoom="0.5"
     inkscape:cx="-4537.3542"
     inkscape:cy="-747.65199"
     inkscape:document-units="px"
     inkscape:current-layer="layer1"
     inkscape:window-width="1920"
     inkscape:window-height="1008"
     inkscape:window-x="1911"
     inkscape:window-y="-9"
     showgrid="false"
     inkscape:window-maximized="1"
     inkscape:pagecheckerboard="0" />
  <defs
     id="defs3890">
    <marker
       inkscape:stockid="Arrow1Mend"
       orient="auto"
       refY="0"
       refX="0"
       id="Arrow1Mend"
       style="overflow:visible">
      <path
         id="path3773"
         d="M 0,0 5,-5 -12.5,0 5,5 Z"
         style="fill-rule:evenodd;stroke:#000000;stroke-width:1pt;marker-start:none"
         transform="matrix(-0.4,0,0,-0.4,-4,0)"
         inkscape:connector-curvature="0" />
    </marker>
    <marker
       inkscape:stockid="Arrow1Mstart"
       orient="auto"
       refY="0"
       refX="0"
       id="Arrow1Mstart"
       style="overflow:visible">
      <path
         id="path3770"
         d="M 0,0 5,-5 -12.5,0 5,5 Z"
         style="fill-rule:evenodd;stroke:#000000;stroke-width:1pt;marker-start:none"
         transform="matrix(0.4,0,0,0.4,4,0)"
         inkscape:connector-curvature="0" />
    </marker>
    <marker
       inkscape:stockid="Arrow1Lend"
       orient="auto"
       refY="0"
       refX="0"
       id="Arrow1Lend"
       style="overflow:visible">
      <path
         id="path5840"
         d="M 0,0 5,-5 -12.5,0 5,5 Z"
         style="fill-rule:evenodd;stroke:#000000;stroke-width:1pt;marker-start:none"
         transform="matrix(-0.8,0,0,-0.8,-10,0)"
         inkscape:connector-curvature="0" />
    </marker>
    <marker
       inkscape:stockid="Arrow1Lstart"
       orient="auto"
       refY="0"
       refX="0"
       id="Arrow1Lstart"
       style="overflow:visible">
      <path
         id="path5843"
         d="M 0,0 5,-5 -12.5,0 5,5 Z"
         style="fill-rule:evenodd;stroke:#000000;stroke-width:1pt;marker-start:none"
         transform="matrix(0.8,0,0,0.8,10,0)"
         inkscape:connector-curvature="0" />
    </marker>
    <marker
       inkscape:stockid="Arrow1Lstart"
       orient="auto"
       refY="0"
       refX="0"
       id="Arrow1Lstart-1"
       style="overflow:visible">
      <path
         inkscape:connector-curvature="0"
         id="path3764"
         d="M 0,0 5,-5 -12.5,0 5,5 Z"
         style="fill-rule:evenodd;stroke:#000000;stroke-width:1pt;marker-start:none"
         transform="matrix(0.8,0,0,0.8,10,0)" />
    </marker>
    <marker
       inkscape:stockid="Arrow1Lend"
       orient="auto"
       refY="0"
       refX="0"
       id="Arrow1Lend-7"
       style="overflow:visible">
      <path
         inkscape:connector-curvature="0"
         id="path3767"
         d="M 0,0 5,-5 -12.5,0 5,5 Z"
         style="fill-rule:evenodd;stroke:#000000;stroke-width:1pt;marker-start:none"
         transform="matrix(-0.8,0,0,-0.8,-10,0)" />
    </marker>
    <marker
       inkscape:stockid="Arrow1Mstart6"
       orient="auto"
       refY="0"
       refX="0"
       id="Arrow1Mstart6"
       style="overflow:visible">
      <path
         id="path6061"
         d="M 0,0 5,-5 -12.5,0 5,5 Z"
         style="fill:#73d216;fill-rule:evenodd;stroke:#73d216;stroke-width:1pt;marker-start:none"
         transform="matrix(0.4,0,0,0.4,4,0)"
         inkscape:connector-curvature="0" />
    </marker>
    <marker
       inkscape:stockid="Arrow1Mende"
       orient="auto"
       refY="0"
       refX="0"
       id="Arrow1Mende"
       style="overflow:visible">
      <path
         id="path6064"
         d="M 0,0 5,-5 -12.5,0 5,5 Z"
         style="fill:#73d216;fill-rule:evenodd;stroke:#73d216;stroke-width:1pt;marker-start:none"
         transform="matrix(-0.4,0,0,-0.4,-4,0)"
         inkscape:connector-curvature="0" />
    </marker>
    <path
       sodipodi:end="0.626041"
       sodipodi:start="1.61093"
       transform="matrix(0.821406,0,0,0.821406,1441.66,-734.55)"
       sodipodi:type="arc"
       style="color:#000000;display:inline;overflow:visible;visibility:visible;fill:none;stroke:none;stroke-width:2.6;marker:none;enable-background:accumulate"
       id="path6900-1"
       sodipodi:cx="324.145"
       sodipodi:cy="530.18"
       sodipodi:rx="116.767"
       sodipodi:ry="116.767"
       d="m 319.46,646.853 a 116.767,116.767 0 0 1 -109.611,-92.779 116.767,116.767 0 0 1 63.264,-128.919 116.767,116.767 0 0 1 140.451,29.933 116.767,116.767 0 0 1 5.204,143.511 L 324.145,530.18 Z"
       sodipodi:arc-type="slice" />
    <marker
       inkscape:stockid="Arrow1Lstart"
       orient="auto"
       refY="0"
       refX="0"
       id="Arrow1Lstart-7"
       style="overflow:visible">
      <path
         id="path5843-4"
         d="M 0,0 5,-5 -12.5,0 5,5 Z"
         style="fill-rule:evenodd;stroke:#000000;stroke-width:1pt;marker-start:none"
         transform="matrix(0.8,0,0,0.8,10,0)"
         inkscape:connector-curvature="0" />
    </marker>
    <marker
       inkscape:stockid="Arrow1Lend"
       orient="auto"
       refY="0"
       refX="0"
       id="Arrow1Lend-0"
       style="overflow:visible">
      <path
         id="path5840-9"
         d="M 0,0 5,-5 -12.5,0 5,5 Z"
         style="fill-rule:evenodd;stroke:#000000;stroke-width:1pt;marker-start:none"
         transform="matrix(-0.8,0,0,-0.8,-10,0)"
         inkscape:connector-curvature="0" />
    </marker>
    <marker
       inkscape:stockid="Arrow1Mstart6"
       orient="auto"
       refY="0"
       refX="0"
       id="Arrow1Mstart6-4"
       style="overflow:visible">
      <path
         id="path6061-8"
         d="M 0,0 5,-5 -12.5,0 5,5 Z"
         style="fill:#73d216;fill-rule:evenodd;stroke:#73d216;stroke-width:1pt;marker-start:none"
         transform="matrix(0.4,0,0,0.4,4,0)"
         inkscape:connector-curvature="0" />
    </marker>
    <marker
       inkscape:stockid="Arrow1Mende"
       orient="auto"
       refY="0"
       refX="0"
       id="Arrow1Mende-8"
       style="overflow:visible">
      <path
         id="path6064-2"
         d="M 0,0 5,-5 -12.5,0 5,5 Z"
         style="fill:#73d216;fill-rule:evenodd;stroke:#73d216;stroke-width:1pt;marker-start:none"
         transform="matrix(-0.4,0,0,-0.4,-4,0)"
         inkscape:connector-curvature="0" />
    </marker>
    <marker
       style="overflow:visible"
       id="Arrow1Lstart6"
       refX="0"
       refY="0"
       orient="auto"
       inkscape:stockid="Arrow1Lstart6">
      <path
         transform="matrix(0.8,0,0,0.8,10,0)"
         style="fill:#fd3301;fill-rule:evenodd;stroke:#fd3301;stroke-width:1pt;marker-start:none"
         d="M 0,0 5,-5 -12.5,0 5,5 Z"
         id="path6234"
         inkscape:connector-curvature="0" />
    </marker>
    <marker
       style="overflow:visible"
       id="Arrow1Lend0"
       refX="0"
       refY="0"
       orient="auto"
       inkscape:stockid="Arrow1Lend0">
      <path
         transform="matrix(-0.8,0,0,-0.8,-10,0)"
         style="fill:#fd3301;fill-rule:evenodd;stroke:#fd3301;stroke-width:1pt;marker-start:none"
         d="M 0,0 5,-5 -12.5,0 5,5 Z"
         id="path6237"
         inkscape:connector-curvature="0" />
    </marker>
    <marker
       inkscape:stockid="Arrow1Mstart6"
       orient="auto"
       refY="0"
       refX="0"
       id="Arrow1Mstart6-1"
       style="overflow:visible">
      <path
         id="path6061-1"
         d="M 0,0 5,-5 -12.5,0 5,5 Z"
         style="fill:#73d216;fill-rule:evenodd;stroke:#73d216;stroke-width:1pt;marker-start:none"
         transform="matrix(0.4,0,0,0.4,4,0)"
         inkscape:connector-curvature="0" />
    </marker>
    <marker
       inkscape:stockid="Arrow1Mende"
       orient="auto"
       refY="0"
       refX="0"
       id="Arrow1Mende-3"
       style="overflow:visible">
      <path
         id="path6064-25"
         d="M 0,0 5,-5 -12.5,0 5,5 Z"
         style="fill:#73d216;fill-rule:evenodd;stroke:#73d216;stroke-width:1pt;marker-start:none"
         transform="matrix(-0.4,0,0,-0.4,-4,0)"
         inkscape:connector-curvature="0" />
    </marker>
    <path
       style="opacity:0.319048;fill:none;stroke:none;stroke-width:4;marker-start:none;marker-end:none"
       d="m -1121.97,538.009 c 0,-216.017 175.323,-391.335 391.343,-391.335 204.116,0 372.23,154.155 389.876,357.504"
       id="path2352-1"
       sodipodi:nodetypes="csc"
       inkscape:connector-curvature="0" />
    <marker
       inkscape:stockid="Arrow1Lstart"
       orient="auto"
       refY="0"
       refX="0"
       id="Arrow1Lstart-74"
       style="overflow:visible">
      <path
         id="path5843-0"
         d="M 0,0 5,-5 -12.5,0 5,5 Z"
         style="fill-rule:evenodd;stroke:#000000;stroke-width:1pt;marker-start:none"
         transform="matrix(0.8,0,0,0.8,10,0)"
         inkscape:connector-curvature="0" />
    </marker>
    <marker
       inkscape:stockid="Arrow1Lstart"
       orient="auto"
       refY="0"
       refX="0"
       id="marker3133"
       style="overflow:visible">
      <path
         id="path3135"
         d="M 0,0 5,-5 -12.5,0 5,5 Z"
         style="fill-rule:evenodd;stroke:#000000;stroke-width:1pt;marker-start:none"
         transform="matrix(0.8,0,0,0.8,10,0)"
         inkscape:connector-curvature="0" />
    </marker>
    <marker
       inkscape:stockid="Arrow1Lend"
       orient="auto"
       refY="0"
       refX="0"
       id="Arrow1Lend-9"
       style="overflow:visible">
      <path
         id="path5840-4"
         d="M 0,0 5,-5 -12.5,0 5,5 Z"
         style="fill-rule:evenodd;stroke:#000000;stroke-width:1pt;marker-start:none"
         transform="matrix(-0.8,0,0,-0.8,-10,0)"
         inkscape:connector-curvature="0" />
    </marker>
    <marker
       inkscape:stockid="Arrow1Lstart"
       orient="auto"
       refY="0"
       refX="0"
       id="marker3139"
       style="overflow:visible">
      <path
         id="path3141"
         d="M 0,0 5,-5 -12.5,0 5,5 Z"
         style="fill-rule:evenodd;stroke:#000000;stroke-width:1pt;marker-start:none"
         transform="matrix(0.8,0,0,0.8,10,0)"
         inkscape:connector-curvature="0" />
    </marker>
    <marker
       inkscape:stockid="Arrow1Lend"
       orient="auto"
       refY="0"
       refX="0"
       id="marker3143"
       style="overflow:visible">
      <path
         id="path3145"
         d="M 0,0 5,-5 -12.5,0 5,5 Z"
         style="fill-rule:evenodd;stroke:#000000;stroke-width:1pt;marker-start:none"
         transform="matrix(-0.8,0,0,-0.8,-10,0)"
         inkscape:connector-curvature="0" />
    </marker>
    <marker
       inkscape:stockid="Arrow1Mstartu"
       orient="auto"
       refY="0"
       refX="0"
       id="Arrow1Mstartu"
       style="overflow:visible">
      <path
         id="path6063"
         d="M 0,0 5,-5 -12.5,0 5,5 Z"
         style="fill:#3465a4;fill-rule:evenodd;stroke:#3465a4;stroke-width:1pt;marker-start:none"
         transform="matrix(0.4,0,0,0.4,4,0)"
         inkscape:connector-curvature="0" />
    </marker>
    <marker
       inkscape:stockid="Arrow1Mend1"
       orient="auto"
       refY="0"
       refX="0"
       id="Arrow1Mend1"
       style="overflow:visible">
      <path
         id="path6066"
         d="M 0,0 5,-5 -12.5,0 5,5 Z"
         style="fill:#3465a4;fill-rule:evenodd;stroke:#3465a4;stroke-width:1pt;marker-start:none"
         transform="matrix(-0.4,0,0,-0.4,-4,0)"
         inkscape:connector-curvature="0" />
    </marker>
    <marker
       inkscape:stockid="Arrow1Mstart3"
       orient="auto"
       refY="0"
       refX="0"
       id="Arrow1Mstart3"
       style="overflow:visible">
      <path
         id="path6069"
         d="M 0,0 5,-5 -12.5,0 5,5 Z"
         style="fill:#f57900;fill-rule:evenodd;stroke:#f57900;stroke-width:1pt;marker-start:none"
         transform="matrix(0.4,0,0,0.4,4,0)"
         inkscape:connector-curvature="0" />
    </marker>
    <path
       inkscape:connector-curvature="0"
       style="opacity:0.319048;fill:none;stroke:none;stroke-width:4;marker-start:none;marker-end:none"
       d="m -1121.97,538.009 c 0,-216.017 175.323,-391.335 391.343,-391.335 204.116,0 372.23,154.155 389.876,357.504"
       id="path2352-5"
       sodipodi:nodetypes="csc" />
    <path
       inkscape:connector-curvature="0"
       style="opacity:0.319048;fill:none;stroke:none;stroke-width:4;marker-start:none;marker-end:none"
       d="m -1121.97,538.009 c 0,-216.017 175.323,-391.335 391.343,-391.335 204.116,0 372.23,154.155 389.876,357.504"
       id="path2352-4"
       sodipodi:nodetypes="csc" />
    <path
       inkscape:connector-curvature="0"
       style="opacity:0.319048;fill:none;stroke:none;stroke-width:4;marker-start:none;marker-end:none"
       d="m -1121.97,538.009 c 0,-216.017 175.323,-391.335 391.343,-391.335 204.116,0 372.23,154.155 389.876,357.504"
       id="path2352-9"
       sodipodi:nodetypes="csc" />
    <marker
       inkscape:stockid="Arrow1Lstart"
       orient="auto"
       refY="0"
       refX="0"
       id="Arrow1Lstart-2"
       style="overflow:visible">
      <path
         inkscape:connector-curvature="0"
         id="path5843-3"
         d="M 0,0 5,-5 -12.5,0 5,5 Z"
         style="fill-rule:evenodd;stroke:#000000;stroke-width:1pt;marker-start:none"
         transform="matrix(0.8,0,0,0.8,10,0)" />
    </marker>
    <marker
       inkscape:stockid="Arrow1Lstart"
       orient="auto"
       refY="0"
       refX="0"
       id="marker4607"
       style="overflow:visible">
      <path
         inkscape:connector-curvature="0"
         id="path4609"
         d="M 0,0 5,-5 -12.5,0 5,5 Z"
         style="fill-rule:evenodd;stroke:#000000;stroke-width:1pt;marker-start:none"
         transform="matrix(0.8,0,0,0.8,10,0)" />
    </marker>
    <marker
       inkscape:stockid="Arrow1Lend"
       orient="auto"
       refY="0"
       refX="0"
       id="Arrow1Lend-4"
       style="overflow:visible">
      <path
         inkscape:connector-curvature="0"
         id="path5840-6"
         d="M 0,0 5,-5 -12.5,0 5,5 Z"
         style="fill-rule:evenodd;stroke:#000000;stroke-width:1pt;marker-start:none"
         transform="matrix(-0.8,0,0,-0.8,-10,0)" />
    </marker>
    <marker
       inkscape:stockid="Arrow1Lstart"
       orient="auto"
       refY="0"
       refX="0"
       id="marker4613"
       style="overflow:visible">
      <path
         inkscape:connector-curvature="0"
         id="path4615"
         d="M 0,0 5,-5 -12.5,0 5,5 Z"
         style="fill-rule:evenodd;stroke:#000000;stroke-width:1pt;marker-start:none"
         transform="matrix(0.8,0,0,0.8,10,0)" />
    </marker>
    <marker
       inkscape:stockid="Arrow1Lend"
       orient="auto"
       refY="0"
       refX="0"
       id="marker4617"
       style="overflow:visible">
      <path
         inkscape:connector-curvature="0"
         id="path4619"
         d="M 0,0 5,-5 -12.5,0 5,5 Z"
         style="fill-rule:evenodd;stroke:#000000;stroke-width:1pt;marker-start:none"
         transform="matrix(-0.8,0,0,-0.8,-10,0)" />
    </marker>
    <path
       inkscape:connector-curvature="0"
       style="opacity:0.319048;fill:none;stroke:none;stroke-width:4;marker-start:none;marker-end:none"
       d="m -1121.97,538.009 c 0,-216.017 175.323,-391.335 391.343,-391.335 204.116,0 372.23,154.155 389.876,357.504"
       id="path2352-9-4"
       sodipodi:nodetypes="csc" />
    <marker
       inkscape:stockid="Arrow1Lstart"
       orient="auto"
       refY="0"
       refX="0"
       id="Arrow1Lstart-4"
       style="overflow:visible">
      <path
         inkscape:connector-curvature="0"
         id="path5843-6"
         d="M 0,0 5,-5 -12.5,0 5,5 Z"
         style="fill-rule:evenodd;stroke:#000000;stroke-width:1pt;marker-start:none"
         transform="matrix(0.8,0,0,0.8,10,0)" />
    </marker>
    <marker
       inkscape:stockid="Arrow1Lstart"
       orient="auto"
       refY="0"
       refX="0"
       id="marker4735"
       style="overflow:visible">
      <path
         inkscape:connector-curvature="0"
         id="path4737"
         d="M 0,0 5,-5 -12.5,0 5,5 Z"
         style="fill-rule:evenodd;stroke:#000000;stroke-width:1pt;marker-start:none"
         transform="matrix(0.8,0,0,0.8,10,0)" />
    </marker>
    <marker
       inkscape:stockid="Arrow1Lend"
       orient="auto"
       refY="0"
       refX="0"
       id="Arrow1Lend-1"
       style="overflow:visible">
      <path
         inkscape:connector-curvature="0"
         id="path5840-96"
         d="M 0,0 5,-5 -12.5,0 5,5 Z"
         style="fill-rule:evenodd;stroke:#000000;stroke-width:1pt;marker-start:none"
         transform="matrix(-0.8,0,0,-0.8,-10,0)" />
    </marker>
    <marker
       inkscape:stockid="Arrow1Lstart"
       orient="auto"
       refY="0"
       refX="0"
       id="marker4741"
       style="overflow:visible">
      <path
         inkscape:connector-curvature="0"
         id="path4743"
         d="M 0,0 5,-5 -12.5,0 5,5 Z"
         style="fill-rule:evenodd;stroke:#000000;stroke-width:1pt;marker-start:none"
         transform="matrix(0.8,0,0,0.8,10,0)" />
    </marker>
    <marker
       inkscape:stockid="Arrow1Lend"
       orient="auto"
       refY="0"
       refX="0"
       id="marker4745"
       style="overflow:visible">
      <path
         inkscape:connector-curvature="0"
         id="path4747"
         d="M 0,0 5,-5 -12.5,0 5,5 Z"
         style="fill-rule:evenodd;stroke:#000000;stroke-width:1pt;marker-start:none"
         transform="matrix(-0.8,0,0,-0.8,-10,0)" />
    </marker>
    <marker
       inkscape:stockid="Arrow1Lstart3"
       orient="auto"
       refY="0"
       refX="0"
       id="Arrow1Lstart3"
       style="overflow:visible">
      <path
         id="path5627"
         d="M 0,0 5,-5 -12.5,0 5,5 Z"
         style="fill:#4e9a06;fill-rule:evenodd;stroke:#4e9a06;stroke-width:1pt;marker-start:none"
         transform="matrix(0.8,0,0,0.8,10,0)"
         inkscape:connector-curvature="0" />
    </marker>
    <marker
       inkscape:stockid="Arrow1LstartK"
       orient="auto"
       refY="0"
       refX="0"
       id="Arrow1LstartK"
       style="overflow:visible">
      <path
         id="path5630"
         d="M 0,0 5,-5 -12.5,0 5,5 Z"
         style="fill:#729fcf;fill-rule:evenodd;stroke:#729fcf;stroke-width:1pt;marker-start:none"
         transform="matrix(0.8,0,0,0.8,10,0)"
         inkscape:connector-curvature="0" />
    </marker>
    <marker
       inkscape:stockid="Arrow1Lendf"
       orient="auto"
       refY="0"
       refX="0"
       id="Arrow1Lendf"
       style="overflow:visible">
      <path
         id="path5633"
         d="M 0,0 5,-5 -12.5,0 5,5 Z"
         style="fill:#729fcf;fill-rule:evenodd;stroke:#729fcf;stroke-width:1pt;marker-start:none"
         transform="matrix(-0.8,0,0,-0.8,-10,0)"
         inkscape:connector-curvature="0" />
    </marker>
    <path
       sodipodi:type="arc"
       style="color:#000000;display:inline;overflow:visible;visibility:visible;fill:none;stroke:none;stroke-width:2.6;marker:none;enable-background:accumulate"
       id="path4832-5"
       sodipodi:cx="-4603.97"
       sodipodi:cy="408.566"
       sodipodi:rx="338.406"
       sodipodi:ry="338.406"
       d="M -4307.99,572.623 A 338.406,338.406 0 0 1 -4698.25,733.572 338.406,338.406 0 0 1 -4941.8,388.758"
       sodipodi:start="0.506128"
       sodipodi:end="3.20016"
       sodipodi:open="true"
       sodipodi:arc-type="arc" />
    <marker
       inkscape:stockid="Arrow1LstartKJ"
       orient="auto"
       refY="0"
       refX="0"
       id="Arrow1LstartKJ"
       style="overflow:visible">
      <path
         id="path6259"
         d="M 0,0 5,-5 -12.5,0 5,5 Z"
         style="fill:#3465a4;fill-rule:evenodd;stroke:#3465a4;stroke-width:1pt;marker-start:none"
         transform="matrix(0.8,0,0,0.8,10,0)"
         inkscape:connector-curvature="0" />
    </marker>
    <marker
       inkscape:stockid="Arrow1Lendf8"
       orient="auto"
       refY="0"
       refX="0"
       id="Arrow1Lendf8"
       style="overflow:visible">
      <path
         id="path6262"
         d="M 0,0 5,-5 -12.5,0 5,5 Z"
         style="fill:#3465a4;fill-rule:evenodd;stroke:#3465a4;stroke-width:1pt;marker-start:none"
         transform="matrix(-0.8,0,0,-0.8,-10,0)"
         inkscape:connector-curvature="0" />
    </marker>
    <path
       sodipodi:open="true"
       sodipodi:end="3.20016"
       sodipodi:start="0.506128"
       d="M -4307.99,572.623 A 338.406,338.406 0 0 1 -4698.25,733.572 338.406,338.406 0 0 1 -4941.8,388.758"
       sodipodi:ry="338.406"
       sodipodi:rx="338.406"
       sodipodi:cy="408.566"
       sodipodi:cx="-4603.97"
       id="path4832-1"
       style="color:#000000;display:inline;overflow:visible;visibility:visible;fill:none;stroke:none;stroke-width:2.6;marker:none;enable-background:accumulate"
       sodipodi:type="arc"
       sodipodi:arc-type="arc" />
    <marker
       inkscape:stockid="Arrow1Lstart3"
       orient="auto"
       refY="0"
       refX="0"
       id="Arrow1Lstart3-5"
       style="overflow:visible">
      <path
         inkscape:connector-curvature="0"
         id="path5627-8"
         d="M 0,0 5,-5 -12.5,0 5,5 Z"
         style="fill:#4e9a06;fill-rule:evenodd;stroke:#4e9a06;stroke-width:1pt;marker-start:none"
         transform="matrix(0.8,0,0,0.8,10,0)" />
    </marker>
    <marker
       inkscape:stockid="Arrow1LstartKJ"
       orient="auto"
       refY="0"
       refX="0"
       id="Arrow1LstartKJ-3"
       style="overflow:visible">
      <path
         inkscape:connector-curvature="0"
         id="path6259-8"
         d="M 0,0 5,-5 -12.5,0 5,5 Z"
         style="fill:#3465a4;fill-rule:evenodd;stroke:#3465a4;stroke-width:1pt;marker-start:none"
         transform="matrix(0.8,0,0,0.8,10,0)" />
    </marker>
    <marker
       inkscape:stockid="Arrow1Lendf8"
       orient="auto"
       refY="0"
       refX="0"
       id="Arrow1Lendf8-6"
       style="overflow:visible">
      <path
         inkscape:connector-curvature="0"
         id="path6262-9"
         d="M 0,0 5,-5 -12.5,0 5,5 Z"
         style="fill:#3465a4;fill-rule:evenodd;stroke:#3465a4;stroke-width:1pt;marker-start:none"
         transform="matrix(-0.8,0,0,-0.8,-10,0)" />
    </marker>
    <marker
       inkscape:stockid="Arrow1Lstart"
       orient="auto"
       refY="0"
       refX="0"
       id="Arrow1Lstart-0"
       style="overflow:visible">
      <path
         inkscape:connector-curvature="0"
         id="path5843-47"
         d="M 0,0 5,-5 -12.5,0 5,5 Z"
         style="fill-rule:evenodd;stroke:#000000;stroke-width:1pt;marker-start:none"
         transform="matrix(0.8,0,0,0.8,10,0)" />
    </marker>
    <marker
       inkscape:stockid="Arrow1Lend"
       orient="auto"
       refY="0"
       refX="0"
       id="Arrow1Lend-3"
       style="overflow:visible">
      <path
         inkscape:connector-curvature="0"
         id="path5840-7"
         d="M 0,0 5,-5 -12.5,0 5,5 Z"
         style="fill-rule:evenodd;stroke:#000000;stroke-width:1pt;marker-start:none"
         transform="matrix(-0.8,0,0,-0.8,-10,0)" />
    </marker>
    <marker
       inkscape:stockid="Arrow1Mstart3"
       orient="auto"
       refY="0"
       refX="0"
       id="Arrow1Mstart3-4"
       style="overflow:visible">
      <path
         inkscape:connector-curvature="0"
         id="path6069-5"
         d="M 0,0 5,-5 -12.5,0 5,5 Z"
         style="fill:#f57900;fill-rule:evenodd;stroke:#f57900;stroke-width:1pt;marker-start:none"
         transform="matrix(0.4,0,0,0.4,4,0)" />
    </marker>
    <marker
       inkscape:stockid="Arrow1Mstart"
       orient="auto"
       refY="0"
       refX="0"
       id="Arrow1Mstart-3"
       style="overflow:visible">
      <path
         inkscape:connector-curvature="0"
         id="path3770-0"
         d="M 0,0 5,-5 -12.5,0 5,5 Z"
         style="fill-rule:evenodd;stroke:#000000;stroke-width:1pt;marker-start:none"
         transform="matrix(0.4,0,0,0.4,4,0)" />
    </marker>
    <marker
       inkscape:stockid="Arrow1Mend"
       orient="auto"
       refY="0"
       refX="0"
       id="Arrow1Mend-0"
       style="overflow:visible">
      <path
         inkscape:connector-curvature="0"
         id="path3773-2"
         d="M 0,0 5,-5 -12.5,0 5,5 Z"
         style="fill-rule:evenodd;stroke:#000000;stroke-width:1pt;marker-start:none"
         transform="matrix(-0.4,0,0,-0.4,-4,0)" />
    </marker>
    <marker
       style="overflow:visible"
       id="Arrow1Lstart6-1"
       refX="0"
       refY="0"
       orient="auto"
       inkscape:stockid="Arrow1Lstart6">
      <path
         transform="matrix(0.8,0,0,0.8,10,0)"
         style="fill:#fd3301;fill-rule:evenodd;stroke:#fd3301;stroke-width:1pt;marker-start:none"
         d="M 0,0 5,-5 -12.5,0 5,5 Z"
         id="path6234-7"
         inkscape:connector-curvature="0" />
    </marker>
    <marker
       style="overflow:visible"
       id="Arrow1Lend0-4"
       refX="0"
       refY="0"
       orient="auto"
       inkscape:stockid="Arrow1Lend0">
      <path
         transform="matrix(-0.8,0,0,-0.8,-10,0)"
         style="fill:#fd3301;fill-rule:evenodd;stroke:#fd3301;stroke-width:1pt;marker-start:none"
         d="M 0,0 5,-5 -12.5,0 5,5 Z"
         id="path6237-0"
         inkscape:connector-curvature="0" />
    </marker>
    <marker
       inkscape:stockid="Arrow1Mstart6"
       orient="auto"
       refY="0"
       refX="0"
       id="Arrow1Mstart6-9"
       style="overflow:visible">
      <path
         inkscape:connector-curvature="0"
         id="path6061-4"
         d="M 0,0 5,-5 -12.5,0 5,5 Z"
         style="fill:#73d216;fill-rule:evenodd;stroke:#73d216;stroke-width:1pt;marker-start:none"
         transform="matrix(0.4,0,0,0.4,4,0)" />
    </marker>
    <marker
       inkscape:stockid="Arrow1Mstart6"
       orient="auto"
       refY="0"
       refX="0"
       id="Arrow1Mstart6-1-8"
       style="overflow:visible">
      <path
         id="path6061-1-8"
         d="M 0,0 5,-5 -12.5,0 5,5 Z"
         style="fill:#73d216;fill-rule:evenodd;stroke:#73d216;stroke-width:1pt;marker-start:none"
         transform="matrix(0.4,0,0,0.4,4,0)"
         inkscape:connector-curvature="0" />
    </marker>
    <path
       sodipodi:end="0.626041"
       sodipodi:start="1.61093"
       transform="matrix(0.821406,0,0,0.821406,1441.66,-734.55)"
       sodipodi:type="arc"
       style="color:#000000;display:inline;overflow:visible;visibility:visible;fill:none;stroke:none;stroke-width:2.6;marker:none;enable-background:accumulate"
       id="path6900-6"
       sodipodi:cx="324.145"
       sodipodi:cy="530.18"
       sodipodi:rx="116.767"
       sodipodi:ry="116.767"
       d="m 319.46,646.853 a 116.767,116.767 0 0 1 -109.611,-92.779 116.767,116.767 0 0 1 63.264,-128.919 116.767,116.767 0 0 1 140.451,29.933 116.767,116.767 0 0 1 5.204,143.511 L 324.145,530.18 Z"
       sodipodi:arc-type="slice" />
    <marker
       inkscape:stockid="Arrow1Lstart"
       orient="auto"
       refY="0"
       refX="0"
       id="Arrow1Lstart-5"
       style="overflow:visible">
      <path
         inkscape:connector-curvature="0"
         id="path5843-9"
         d="M 0,0 5,-5 -12.5,0 5,5 Z"
         style="fill-rule:evenodd;stroke:#000000;stroke-width:1pt;marker-start:none"
         transform="matrix(0.8,0,0,0.8,10,0)" />
    </marker>
    <marker
       inkscape:stockid="Arrow1Lend"
       orient="auto"
       refY="0"
       refX="0"
       id="Arrow1Lend-40"
       style="overflow:visible">
      <path
         inkscape:connector-curvature="0"
         id="path5840-5"
         d="M 0,0 5,-5 -12.5,0 5,5 Z"
         style="fill-rule:evenodd;stroke:#000000;stroke-width:1pt;marker-start:none"
         transform="matrix(-0.8,0,0,-0.8,-10,0)" />
    </marker>
    <marker
       inkscape:stockid="Arrow1Mstart6"
       orient="auto"
       refY="0"
       refX="0"
       id="Arrow1Mstart6-7"
       style="overflow:visible">
      <path
         inkscape:connector-curvature="0"
         id="path6061-6"
         d="M 0,0 5,-5 -12.5,0 5,5 Z"
         style="fill:#73d216;fill-rule:evenodd;stroke:#73d216;stroke-width:1pt;marker-start:none"
         transform="matrix(0.4,0,0,0.4,4,0)" />
    </marker>
    <marker
       inkscape:stockid="Arrow1Mende"
       orient="auto"
       refY="0"
       refX="0"
       id="Arrow1Mende-1"
       style="overflow:visible">
      <path
         inkscape:connector-curvature="0"
         id="path6064-23"
         d="M 0,0 5,-5 -12.5,0 5,5 Z"
         style="fill:#73d216;fill-rule:evenodd;stroke:#73d216;stroke-width:1pt;marker-start:none"
         transform="matrix(-0.4,0,0,-0.4,-4,0)" />
    </marker>
    <marker
       inkscape:stockid="Arrow1Mstart6"
       orient="auto"
       refY="0"
       refX="0"
       id="Arrow1Mstart6-0"
       style="overflow:visible">
      <path
         inkscape:connector-curvature="0"
         id="path6061-12"
         d="M 0,0 5,-5 -12.5,0 5,5 Z"
         style="fill:#73d216;fill-rule:evenodd;stroke:#73d216;stroke-width:1pt;marker-start:none"
         transform="matrix(0.4,0,0,0.4,4,0)" />
    </marker>
    <marker
       inkscape:stockid="Arrow1Mende"
       orient="auto"
       refY="0"
       refX="0"
       id="Arrow1Mende-31"
       style="overflow:visible">
      <path
         inkscape:connector-curvature="0"
         id="path6064-3"
         d="M 0,0 5,-5 -12.5,0 5,5 Z"
         style="fill:#73d216;fill-rule:evenodd;stroke:#73d216;stroke-width:1pt;marker-start:none"
         transform="matrix(-0.4,0,0,-0.4,-4,0)" />
    </marker>
    <marker
       inkscape:stockid="Arrow1Lstart"
       orient="auto"
       refY="0"
       refX="0"
       id="Arrow1Lstart-3"
       style="overflow:visible">
      <path
         inkscape:connector-curvature="0"
         id="path5843-2"
         d="M 0,0 5,-5 -12.5,0 5,5 Z"
         style="fill-rule:evenodd;stroke:#000000;stroke-width:1pt;marker-start:none"
         transform="matrix(0.8,0,0,0.8,10,0)" />
    </marker>
    <marker
       inkscape:stockid="Arrow1Lend"
       orient="auto"
       refY="0"
       refX="0"
       id="Arrow1Lend-90"
       style="overflow:visible">
      <path
         inkscape:connector-curvature="0"
         id="path5840-69"
         d="M 0,0 5,-5 -12.5,0 5,5 Z"
         style="fill-rule:evenodd;stroke:#000000;stroke-width:1pt;marker-start:none"
         transform="matrix(-0.8,0,0,-0.8,-10,0)" />
    </marker>
    <path
       d="m 319.46,646.853 a 116.767,116.767 0 0 1 -109.611,-92.779 116.767,116.767 0 0 1 63.264,-128.919 116.767,116.767 0 0 1 140.451,29.933 116.767,116.767 0 0 1 5.204,143.511 L 324.145,530.18 Z"
       sodipodi:ry="116.767"
       sodipodi:rx="116.767"
       sodipodi:cy="530.18"
       sodipodi:cx="324.145"
       id="path6900-4"
       style="color:#000000;display:inline;overflow:visible;visibility:visible;fill:none;stroke:none;stroke-width:2.6;marker:none;enable-background:accumulate"
       sodipodi:type="arc"
       transform="matrix(0.821406,0,0,0.821406,1441.66,-734.55)"
       sodipodi:start="1.61093"
       sodipodi:end="0.626041"
       sodipodi:arc-type="slice" />
  </defs>
  <metadata
     id="metadata3893">
    <rdf:RDF>
      <cc:Work
         rdf:about="">
        <dc:format>image/svg+xml</dc:format>
        <dc:type
           rdf:resource="http://purl.org/dc/dcmitype/StillImage" />
      </cc:Work>
    </rdf:RDF>
  </metadata>
  <g
     inkscape:label="Layer 1"
     inkscape:groupmode="layer"
     id="layer1"
     transform="translate(1206.87,855.675)">
    <g
       id="g2620"
       transform="matrix(0.444886,0,0,0.444886,-669.951,-410.621)">
      <path
         sodipodi:open="true"
         sodipodi:end="5.03941"
         sodipodi:start="5.21319"
         d="m -435.981,813.503 a 540.989,163.989 0 0 1 225.644,216.267 540.989,163.989 0 0 1 -702.97,77.72 540.989,163.989 0 0 1 -286.703,-209.508 540.989,163.989 0 0 1 678.063,-95.926"
         sodipodi:ry="163.989"
         sodipodi:rx="540.989"
         sodipodi:cy="957.354"
         sodipodi:cx="-695.725"
         id="path5157"
         style="color:#000000;display:inline;overflow:visible;visibility:visible;fill:#fce94f;fill-opacity:0.066116;stroke:#73d216;stroke-width:7.8246;stroke-linecap:butt;stroke-linejoin:miter;stroke-miterlimit:4;stroke-dasharray:none;stroke-dashoffset:0;stroke-opacity:0.994819;marker:none;marker-start:url(#Arrow1Mstart6);marker-end:url(#Arrow1Mstart6-1);enable-background:accumulate"
         sodipodi:type="arc"
         sodipodi:arc-type="arc"
         transform="matrix(0.502992,0,0,0.502371,-582.846,-1305.02)" />
      <path
         id="path5164"
         d="m -1088.52,-890.301 322.775,128.648"
         style="display:inline;overflow:visible;visibility:visible;fill:#f44800;fill-opacity:1;fill-rule:nonzero;stroke:#fd3301;stroke-width:3.33499;stroke-linecap:butt;stroke-linejoin:miter;stroke-miterlimit:4;stroke-dasharray:none;stroke-dashoffset:0;stroke-opacity:1;marker:none;marker-start:url(#Arrow1Lstart6);marker-end:url(#Arrow1Lend0);enable-background:accumulate"
         inkscape:connector-curvature="0" />
      <g
         id="g8578"
         transform="matrix(1.93331,0,0,1.93092,-1309,-1197.95)">
        <path
           id="path8580"
           d="m 252.806,151.966 c -0.266,0.131 -0.835,0.176 -1.401,0.176 -0.553,0 -0.978,0.385 -1.401,0.704 -0.212,0.159 -0.81,0.231 -1.05,0.352 -0.38,0.19 -0.526,0.3 -0.526,0.791 0,0.596 0.261,0.615 0.788,0.88 0.536,0.269 1.302,0.176 1.926,0.176 0.696,0 0.873,-0.263 1.401,-0.528 0.4,-0.201 0.531,-0.264 1.138,-0.264 0.218,0 0.385,0.44 0.876,0.44 0.496,0 0.992,0 1.488,0 0.591,0 0.485,-0.276 0.613,-0.792 0.1,-0.383 0,-0.921 0,-1.319 0,-0.08 -0.73,-0.558 -0.788,-0.616 -0.213,-0.214 -0.628,-0.264 -1.05,-0.264 -0.419,0 -0.94,0.02 -1.226,0.09 -0.365,0.09 -0.323,-0.01 -0.788,0.176 z"
           style="fill:#393839;fill-rule:evenodd;stroke:#ffffff;stroke-width:0.576322px;stroke-linecap:butt;stroke-linejoin:miter;stroke-opacity:1"
           inkscape:connector-curvature="0" />
        <path
           sodipodi:nodetypes="csssssssssssssssc"
           id="path8582"
           d="m 262.17,152.005 c 0.255,0.163 0.828,0.279 1.403,0.35 0.562,0.07 0.948,0.504 1.339,0.873 0.196,0.185 0.796,0.331 1.026,0.481 0.362,0.236 0.497,0.364 0.438,0.851 -0.07,0.591 -0.34,0.577 -0.907,0.774 -0.578,0.2 -1.718,-0.03 -2.353,-0.112 -0.707,-0.09 -0.855,-0.37 -1.36,-0.699 -0.382,-0.25 -0.507,-0.328 -1.125,-0.404 -0.221,-0.03 -0.07,0.434 -0.571,0.373 -0.504,-0.06 -1.008,-0.125 -1.513,-0.187 -0.6,-0.07 -0.459,-0.334 -0.527,-0.862 -0.05,-0.392 0.112,-0.914 0.16,-1.309 0.01,-0.08 0.81,-0.462 0.875,-0.512 0.243,-0.186 0.671,-0.183 1.1,-0.13 0.425,0.05 0.954,0.133 1.236,0.24 0.359,0.137 0.329,0.03 0.779,0.273 z"
           style="fill:#393839;fill-rule:evenodd;stroke:#ffffff;stroke-width:0.583136px;stroke-linecap:butt;stroke-linejoin:miter;stroke-opacity:1"
           inkscape:connector-curvature="0" />
        <path
           id="path8584"
           d="m 250.664,126.604 c 0.944,0.08 1.621,1.223 1.523,2.095 0,0.705 -0.07,2.297 -1.045,2.054 0.04,-0.332 0.701,-1.198 0.325,-1.322 -0.01,0.459 -0.431,1.757 -1.009,1.192 0.383,-0.308 0.485,-1.752 0.235,-0.649 0.06,0.594 -1.224,1.235 -0.741,0.33 0.381,-0.245 0.17,-1.577 0.135,-0.714 0.116,0.5 -0.791,1.67 -0.902,0.914 0.758,-1.121 -0.111,-2.64 0.734,-3.714 0.194,-0.194 0.486,-0.233 0.745,-0.186 z"
           style="fill:#393839;fill-opacity:1;fill-rule:nonzero;stroke:#ffffff;stroke-width:1.3235;stroke-opacity:1"
           inkscape:connector-curvature="0" />
        <path
           sodipodi:nodetypes="cccccccccccccc"
           id="path8586"
           d="m 251.846,127.668 c -0.409,3.006 -0.413,4.215 -0.509,8.065 -0.363,3.401 0.21,6.851 -0.507,10.235 0.304,1.528 0.162,2.76 0.164,6.705 2.036,-0.88 6.83,0.791 5.606,-1.673 -0.365,-2.038 -0.863,-5.355 -0.416,-7.462 0.737,-3.615 -0.116,-6.239 0.661,-9.844 0.373,2.881 0.523,4.701 0.393,7.601 -0.179,2.845 0.808,8.44 0.809,11.282 1.482,-0.623 5.916,1.301 5.327,-1.086 0.148,-3.476 -1.176,-9.694 -0.857,-13.168 0.111,-2.46 -0.148,-4.908 -0.01,-7.32 0,-1.556 0.01,-1.613 -0.12,-3.264 -3.442,0 -7.098,-0.07 -10.54,-0.07 z"
           style="fill:#393839;fill-opacity:1;fill-rule:nonzero;stroke:#ffffff;stroke-width:1.3235;stroke-opacity:1"
           inkscape:connector-curvature="0" />
        <path
           sodipodi:nodetypes="cssssssssccccssc"
           id="path8588"
           d="m 256.993,103.89 c -1.309,0 -2.226,0.416 -2.57,2.264 -0.09,0.489 -0.899,0.847 -1.031,1.381 -0.09,0.35 0.868,0.244 0.663,0.533 -0.08,0.119 -0.198,0.541 -0.24,0.663 -0.02,0.07 0.249,0.159 0.225,0.236 -0.04,0.135 -0.295,0.03 -0.3,0.141 -0.01,0.214 -0.08,0.624 -0.08,0.755 -0.03,0.587 0.562,0.661 1.3,0.941 0.19,0.07 0.231,0.583 0.37,0.896 0.05,0.725 -0.312,0.667 -1.062,1.338 1.808,1.296 3.637,1.297 5.065,-0.07 -0.782,-0.999 -0.864,-0.784 -1.129,-1.546 0.149,-2.039 0.999,-2.082 1.409,-3.038 0.878,-2.054 0.102,-4.385 -2.06,-4.45 -0.187,0 -0.37,-0.04 -0.557,-0.04 z"
           style="fill:#393839;fill-opacity:1;fill-rule:nonzero;stroke:#ffffff;stroke-width:1.3235;stroke-opacity:1"
           inkscape:connector-curvature="0" />
        <path
           id="path8590"
           d="m 264.851,130.611 c -0.944,0.09 -1.621,1.222 -1.523,2.095 0,0.705 0.07,2.297 1.045,2.054 -0.04,-0.333 -0.7,-1.198 -0.325,-1.322 0.01,0.458 0.431,1.757 1.009,1.192 -0.383,-0.308 -0.485,-1.752 -0.235,-0.649 -0.06,0.593 1.224,1.234 0.741,0.33 -0.381,-0.245 -0.17,-1.577 -0.135,-0.714 -0.116,0.5 0.791,1.67 0.902,0.913 -0.758,-1.12 0.111,-2.639 -0.734,-3.713 -0.194,-0.195 -0.486,-0.233 -0.745,-0.186 z"
           style="fill:#393839;fill-opacity:1;fill-rule:nonzero;stroke:#ffffff;stroke-width:1.3235;stroke-opacity:1"
           inkscape:connector-curvature="0" />
        <path
           sodipodi:nodetypes="ccccccscccsccccccccscsccccccccccsc"
           id="path8592"
           d="m 254.887,112.357 c -1.946,0.81 -2.874,1.199 -4.067,1.698 l 0.01,0.301 -0.08,-0.05 c -0.254,0.251 -0.509,0.523 -0.763,0.813 l -0.322,0.383 c -0.693,0.714 -0.964,1.135 -1.657,2.155 -0.64,0.943 -1.723,2.469 -1.882,3.495 -0.114,1.831 2.099,4.551 3.374,7.187 l 2.306,-1.161 c -0.457,-1.573 -0.872,-1.267 -1.711,-2.576 -0.95,-1.483 -0.731,-2.045 -1.283,-3.548 0.445,-0.995 2.324,-2.436 2.868,-3.115 l 0.06,1.694 c 0.04,2.274 0.233,5.304 0.08,8.13 l 10.667,0.07 c -0.417,-3.099 -0.432,-4.295 -0.453,-5.855 l 0.217,-2.558 0.241,-1.609 c 0.628,0.968 1.209,1.96 1.766,2.964 0.565,1.018 1.038,1.757 1.555,2.611 -0.304,1.809 -0.788,3.555 -1.32,5.281 -0.483,1.564 -0.317,0.73 -0.787,2.298 l 2.3,1.185 c 1.683,-4.095 2.281,-5.631 2.558,-8.381 l 0.1,-0.396 c -0.09,-0.213 0.06,-0.144 -0.03,-0.352 l -0.317,-0.684 c -1.895,-4.054 -3.79,-7.015 -5.685,-8.888 l -0.399,0.248 -0.02,-0.224 -3.133,-0.996 c -0.348,0.292 -0.766,0.278 -1.093,0.432 -0.673,0.316 -1.363,0.481 -3.083,-0.557 z"
           style="fill:#393839;fill-opacity:1;fill-rule:nonzero;stroke:#ffffff;stroke-width:1.3235;stroke-opacity:1"
           inkscape:connector-curvature="0" />
        <path
           sodipodi:nodetypes="csssssccccsc"
           id="path8594"
           d="m 258.293,103.208 c -1.326,0.01 -2.757,-1.018 -3.105,1.235 -0.09,0.597 1.623,0.224 1.489,0.875 -0.09,0.426 0.368,1.19 0.161,1.544 -0.687,1.173 -0.212,1.399 0.429,1.017 0.397,-0.236 0.471,-1.725 1.482,-1.08 0.794,0.507 -0.1,1.511 -0.416,1.662 0.05,0.884 0.404,0.466 -0.355,1.283 0.283,-0.07 -0.169,1.756 1.277,0.09 0.464,-1.062 -0.153,-0.135 0.463,-1.323 0.649,-2.14 1.6,-2.878 0.183,-4.118 -0.143,-0.126 -1.419,-1.184 -1.608,-1.182 z"
           style="fill:#393839;fill-opacity:1;fill-rule:nonzero;stroke:#ffffff;stroke-width:1.3235;stroke-opacity:1"
           inkscape:connector-curvature="0" />
        <rect
           y="127.932"
           x="251.743"
           height="0.785523"
           width="10.8053"
           id="rect8596"
           style="fill:#393839;fill-opacity:1;fill-rule:nonzero;stroke:#ffffff;stroke-width:1.3235;stroke-opacity:1" />
        <path
           id="path8598"
           d="m 252.064,127.823 v 1.108 h 0.423 v -1.108 z m 2.024,0.02 v 1.108 h 0.429 v -1.108 z m 4.125,0 v 1.108 h 0.428 v -1.108 z m 2.452,0 v 1.108 h 0.429 v -1.108 z"
           style="fill:#393839;fill-opacity:1;fill-rule:nonzero;stroke:#ffffff;stroke-width:1.3235;stroke-opacity:1"
           inkscape:connector-curvature="0" />
        <path
           id="path8600"
           d="m 256.093,127.816 c -0.123,0 -0.224,0.09 -0.224,0.208 v 0.621 c 0,0.115 0.101,0.205 0.224,0.205 h 1.261 c 0.124,0 0.221,-0.09 0.221,-0.205 v -0.621 c 0,-0.115 -0.1,-0.208 -0.221,-0.208 z m 0.101,0.14 h 1.06 c 0.09,0 0.161,0.07 0.161,0.152 v 0.45 c 0,0.08 -0.07,0.153 -0.161,0.153 h -1.06 c -0.09,0 -0.161,-0.07 -0.161,-0.153 v -0.45 c 0,-0.08 0.07,-0.152 0.161,-0.152 z"
           style="fill:#393839;fill-opacity:1;fill-rule:nonzero;stroke:#ffffff;stroke-width:1.3235;stroke-opacity:1"
           inkscape:connector-curvature="0" />
        <path
           sodipodi:nodetypes="cccccccc"
           id="path8602"
           d="m 254.754,112.038 0.572,-0.133 -0.02,0.395 0.459,0.443 0.216,0.409 -0.855,-0.02 -0.665,0.882 c 0.09,-0.702 0.14,-1.695 0.291,-1.977 z"
           style="fill:#393839;fill-opacity:1;fill-rule:nonzero;stroke:#ffffff;stroke-width:0.293982;stroke-miterlimit:4;stroke-dasharray:none;stroke-opacity:1"
           inkscape:connector-curvature="0" />
        <path
           sodipodi:nodetypes="cccccc"
           id="path8604"
           d="m 258.055,126.121 -1.253,1.428 -1.348,-1.428 0.758,-12.445 1.061,0.02 0.782,12.423 z"
           style="fill:#393839;fill-opacity:1;fill-rule:nonzero;stroke:#ffffff;stroke-width:0.239929;stroke-miterlimit:4;stroke-dasharray:none;stroke-opacity:1"
           inkscape:connector-curvature="0" />
        <path
           sodipodi:nodetypes="cccccccc"
           id="path8606"
           d="m 258.953,112.032 -0.572,-0.132 0.02,0.395 -0.459,0.442 -0.216,0.409 0.855,-0.02 0.665,0.882 c -0.09,-0.702 -0.141,-1.696 -0.291,-1.978 z"
           style="fill:#393839;fill-opacity:1;fill-rule:nonzero;stroke:#ffffff;stroke-width:0.293982;stroke-miterlimit:4;stroke-dasharray:none;stroke-opacity:1"
           inkscape:connector-curvature="0" />
        <path
           sodipodi:nodetypes="ccccc"
           id="path8608"
           d="m 255.726,112.839 h 2.01 l -0.42,1.145 -1.122,-0.05 -0.468,-1.094 z"
           style="fill:#393839;fill-opacity:1;fill-rule:nonzero;stroke:#ffffff;stroke-width:0.453621;stroke-miterlimit:4;stroke-opacity:1"
           inkscape:connector-curvature="0" />
      </g>
      <text
         transform="matrix(1.12973,0.459753,-0.568922,0.653641,0,0)"
         xml:space="preserve"
         style="color:#000000;font-style:normal;font-variant:normal;font-weight:normal;font-stretch:normal;font-size:53.3382px;line-height:125%;font-family:Arial;-inkscape-font-specification:Arial;text-indent:0;text-align:start;text-decoration:none;text-decoration-line:none;letter-spacing:0px;word-spacing:0px;text-transform:none;writing-mode:lr-tb;direction:ltr;text-anchor:start;display:inline;overflow:visible;visibility:visible;fill:#000000;fill-opacity:1;fill-rule:nonzero;stroke:none;stroke-width:1px;marker:none;enable-background:accumulate"
         x="-1138.4"
         y="-519.613"
         id="text6878-1"><tspan
           sodipodi:role="line"
           id="tspan6880-7"
           x="-1138.4"
           y="-519.613">100m</tspan></text>
      <text
         xml:space="preserve"
         style="color:#000000;font-style:normal;font-variant:normal;font-weight:normal;font-stretch:normal;font-size:48px;line-height:124%;font-family:Gisha;-inkscape-font-specification:Gisha;text-indent:0;text-align:start;text-decoration:none;text-decoration-line:none;letter-spacing:normal;word-spacing:normal;text-transform:none;writing-mode:lr-tb;direction:ltr;baseline-shift:baseline;text-anchor:start;display:inline;overflow:visible;visibility:visible;fill:#3465a4;fill-opacity:1;fill-rule:nonzero;stroke:none;stroke-width:0.481063px;marker:none;enable-background:accumulate"
         x="-2070.1"
         y="98.7493"
         id="text4894" />
    </g>
  </g>
</svg>
