<?xml version="1.0" encoding="UTF-8" standalone="no"?>
<!-- Copyright 2017 mathsisfun.com -->
<svg xmlns="http://www.w3.org/2000/svg" width="250" height="109.4" version="1.1">
<defs/>
<g transform="translate(-61.1052,-685.638)">
<rect x="964" y="1092.4" width="163.2" height="83" style="color:black; overflow:visible; opacity:0.45; fill:#bcbdff; stroke:white; stroke-width:1.02; stroke-opacity:0.99;" transform="matrix(1,0,-0.757637,0.652676,0,0)"/>
<g transform="matrix(0.175649,0,-0.130753,0.112639,144.812,643.866)">
<rect x="858" y="477.7" width="30.7" height="173.3" style="color:black; overflow:visible; fill:#bcbdff; stroke-width:4.7; stroke-opacity:0.99;"/>
<path transform="matrix(0.795905,0,0,1,817.353,305.206)" style="color:black; overflow:visible; fill:#bcbdff; stroke-width:5.27; stroke-opacity:0.99;" d="m 141.8,189.3 -142.8,0 L 70.4,65.6 Z"/>
</g>
<g transform="matrix(-0.175649,0,0.130753,-0.112639,227.696,836.784)">
<rect x="858" y="477.7" width="30.7" height="173.3" style="color:black; overflow:visible; fill:#bcbdff; stroke-width:4.7; stroke-opacity:0.99;"/>
<path transform="matrix(0.795905,0,0,1,817.353,305.206)" style="color:black; overflow:visible; fill:#bcbdff; stroke-width:5.27; stroke-opacity:0.99;" d="m 141.8,189.3 -142.8,0 L 70.4,65.6 Z"/>
</g>
<g transform="matrix(-0.130753,0.112639,-0.175649,0,490.444,641.687)">
<rect x="858" y="477.7" width="30.7" height="173.3" style="color:black; overflow:visible; fill:#bcbdff; stroke-width:4.7; stroke-opacity:0.99;"/>
<path transform="matrix(0.795905,0,0,1,817.353,305.206)" style="color:black; overflow:visible; fill:#bcbdff; stroke-width:5.27; stroke-opacity:0.99;" d="m 141.8,189.3 -142.8,0 L 70.4,65.6 Z"/>
</g>
<g transform="matrix(0.130753,-0.112639,0.175649,0,-118.233,838.445)">
<rect x="858" y="477.7" width="30.7" height="173.3" style="color:black; overflow:visible; fill:#bcbdff; stroke-width:4.7; stroke-opacity:0.99;"/>
<path transform="matrix(0.795905,0,0,1,817.353,305.206)" style="color:black; overflow:visible; fill:#bcbdff; stroke-width:5.27; stroke-opacity:0.99;" d="m 141.8,189.3 -142.8,0 L 70.4,65.6 Z"/>
</g>
<text x="1075.2" y="736.1" transform="matrix(0.984252,0,-1.25217,1.016,0,0)" style="font-family:'Comic Sans MS'; font-size:29.8px; color:black; overflow:visible; fill:#204a87; stroke-width:0.18px;">plane</text>
</g>
</svg>
