<?xml version="1.0" encoding="UTF-8" standalone="no"?>
<!-- Copyright 2017 mathsisfun.com -->
<svg xmlns="http://www.w3.org/2000/svg" width="226.6" height="117" version="1.1">
<defs/>
<g transform="translate(-188.649,-471.291)">
<path style="opacity:0.72; fill:#008000; stroke:#800000; stroke-width:1.98;" d="m 245.9,522.5 -27.8,-1.2 -27.8,-1.2 14.9,-23.5 14.9,-23.5 12.9,24.6 z"/>
<path transform="matrix(0.370489,0.084484,-0.084484,0.370489,218.131,330.348)" style="opacity:0.72; fill:#0000ff; stroke:#800000; stroke-width:5.2;" d="m 281.5,442.4 -96.5,-2.5 2.5,-96.5 96.5,2.5 z"/>
<path transform="matrix(0.378437,-0.034423,0.034423,0.378437,185.068,341.049)" style="opacity:0.72; fill:#ffff00; stroke:#800000; stroke-width:5.2;" d="m 380.8,508.1 -85,3.6 -29.7,-79.7 66.6,-52.9 70.9,47 z"/>
<path style="opacity:0.72; fill:#ffcc00; stroke:#800000; stroke-width:1.98;" d="m 412.3,511.2 -18.3,12.2 -20.9,-6.7 -7.8,-20.6 11.2,-18.9 21.8,-3 15.9,15.1 z"/>
<path style="fill:#73d216; stroke-width:0.38px;" d="m 226.3,544 c 3,1.2 3.6,-4.4 6.6,-3.3 24.9,-1.1 49.8,-2.6 74.7,-2.8 24.4,0 48.7,2.3 72.8,5.5 -2,1 -3.5,3.6 -6,2.8 -32,-4.5 -64.4,-6.4 -96.6,-4.8 -17.2,0.7 -34.5,1.5 -51.7,2.4 -1,-2.5 7.4,-4.7 2.7,-1.9 -0.9,0.6 -1.7,1.2 -2.6,1.9 z"/>
<path style="fill:#73d216; stroke-width:0.38px;" d="m 364.6,536.5 c -0.1,0 7.3,-4.4 2.5,-1.5 -1.3,1.3 -5.2,2.2 -1.5,0.4 4.5,-4.8 8.6,2.4 12,5.5 2.7,2.1 4.4,3.1 0.6,4.7 -3.6,2.9 -6.2,-4.3 -9,-5.8 -1.5,-2.5 -8.4,-3.3 -2.7,-5.4 6.4,-4 -7,4.7 -0.7,0.4 4.6,-3 1.6,-0.6 -0.6,1.1 -0.3,0.2 -0.5,0.4 -0.8,0.6 z"/>
<path style="fill:#73d216; stroke-width:0.38px;" d="m 375.6,545.2 c -0.9,-0.8 8.1,-4.2 2.2,-0.7 -2,1.1 -6.5,3.5 -2.1,1 2.5,-1.7 -3.3,3.3 -5.2,3.1 -2.3,1.1 -7.4,3.3 -2.5,0.7 2.8,-1.5 -4.3,2.8 -6,3.5 -3.8,2.3 0.3,-0.7 1.5,-1.7 1.3,-1.2 5.4,-3.1 1.4,-0.9 -4.3,2.6 3.5,-2.4 5.4,-3 3,-1.2 4.6,-2 0.8,0.1 -1.4,0.8 4.6,-2.8 6.3,-3.7 3.9,-2.2 -7.8,4.9 -2.3,1.2 1.4,-2.6 7.4,-3.7 2.6,-1 -0.7,0.5 -1.4,1 -2.1,1.5 z"/>
<text x="258.5" y="576" style="font-family:'Comic Sans MS'; font-size:33.9px; font-style:italic; color:black; overflow:visible; fill:#73d216; stroke-width:1.7px;">sides</text>
</g>
</svg>
