<?xml version="1.0" encoding="UTF-8" standalone="no"?>
<!-- Copyright 2017 mathsisfun.com -->

<svg
   width="103.7"
   height="78.7167"
   version="1.1"
   id="svg16"
   sodipodi:docname="poly-square-prism.svg"
   inkscape:version="1.1.2 (0a00cf5339, 2022-02-04, custom)"
   xmlns:inkscape="http://www.inkscape.org/namespaces/inkscape"
   xmlns:sodipodi="http://sodipodi.sourceforge.net/DTD/sodipodi-0.dtd"
   xmlns="http://www.w3.org/2000/svg"
   xmlns:svg="http://www.w3.org/2000/svg">
  <sodipodi:namedview
     id="namedview18"
     pagecolor="#ffffff"
     bordercolor="#666666"
     borderopacity="1.0"
     inkscape:pageshadow="2"
     inkscape:pageopacity="0.0"
     inkscape:pagecheckerboard="0"
     showgrid="false"
     inkscape:current-layer="svg16" />
  <defs
     id="defs2" />
  <polyline
     points="270.29 242.42, 105.61 282.72, 92.210 162.93, 274.10 145.47"
     transform="matrix(0.390712,0,0,0.390537,-35.5713,-56.6303)"
     style="fill:#808080;fill-opacity:0.5;stroke:#000000;stroke-width:0.768001"
     id="polyline4" />
  <polyline
     points="343.21 280.25, 270.29 242.42, 274.10 145.47, 356.02 161.66"
     transform="matrix(0.390712,0,0,0.390537,-35.5713,-56.6303)"
     style="fill:#010180;fill-opacity:0.5;stroke:#000000;stroke-width:0.768001"
     id="polyline6" />
  <polyline
     points="343.21 280.25, 150.24 346.11, 105.61 282.72, 270.29 242.42"
     transform="matrix(0.390712,0,0,0.390537,-35.5713,-56.6303)"
     style="fill:#808001;fill-opacity:0.5;stroke:#000000;stroke-width:0.768001"
     id="polyline8" />
  <polyline
     points="356.02 161.66, 274.10 145.47, 92.210 162.93, 138.68 191.81"
     transform="matrix(0.390712,0,0,0.390537,-35.5713,-56.6303)"
     style="fill:#8080ff;fill-opacity:0.5;stroke:#000000;stroke-width:0.768001"
     id="polyline10" />
  <polyline
     points="343.21 280.25, 356.02 161.66, 138.68 191.81, 150.24 346.11"
     transform="matrix(0.390712,0,0,0.390537,-35.5713,-56.6303)"
     style="fill:#808080;fill-opacity:0.5;stroke:#000000;stroke-width:0.768001"
     id="polyline12" />
  <polyline
     points="150.24 346.11, 138.68 191.81, 92.210 162.93, 105.61 282.72"
     transform="matrix(0.390712,0,0,0.390537,-35.5713,-56.6303)"
     style="fill:#ffff80;fill-opacity:0.5;stroke:#000000;stroke-width:0.768001"
     id="polyline14" />
</svg>
