<?xml version="1.0" encoding="UTF-8" standalone="no"?>
<!-- Copyright 2017 mathsisfun.com -->

<svg
   width="88.2081"
   height="88.0862"
   version="1.1"
   id="svg22"
   sodipodi:docname="poly-cube.svg"
   inkscape:version="1.1.2 (0a00cf5339, 2022-02-04, custom)"
   xmlns:inkscape="http://www.inkscape.org/namespaces/inkscape"
   xmlns:sodipodi="http://sodipodi.sourceforge.net/DTD/sodipodi-0.dtd"
   xmlns:xlink="http://www.w3.org/1999/xlink"
   xmlns="http://www.w3.org/2000/svg"
   xmlns:svg="http://www.w3.org/2000/svg">
  <sodipodi:namedview
     id="namedview24"
     pagecolor="#ffffff"
     bordercolor="#666666"
     borderopacity="1.0"
     inkscape:pageshadow="2"
     inkscape:pageopacity="0.0"
     inkscape:pagecheckerboard="0"
     showgrid="false"
     inkscape:current-layer="svg22" />
  <defs
     id="defs8">
    <linearGradient
       id="id1">
      <stop
         offset="0"
         style="stop-color:#ffff80;stop-opacity:0.9"
         id="stop2" />
      <stop
         offset="1"
         style="stop-color:#ffff80;stop-opacity:0.34"
         id="stop4" />
    </linearGradient>
    <linearGradient
       id="id2"
       xlink:href="#id1"
       x1="292.1"
       y1="182.2"
       x2="248.5"
       y2="99.9"
       gradientUnits="userSpaceOnUse" />
  </defs>
  <polyline
     points="116.19 256.07, 127.52 103.12, 283.64 121.11, 251.44 252.09"
     transform="matrix(0.325369,0,0,0.325567,-37.6499,-33.1876)"
     style="fill:#808080;fill-opacity:0.5;stroke:#000000;stroke-width:0.768124"
     id="polyline10" />
  <polyline
     points="141.97 372.12, 116.19 256.07, 251.44 252.09, 322.26 346.59"
     transform="matrix(0.325369,0,0,0.325567,-37.6499,-33.1876)"
     style="fill:#010180;fill-opacity:0.5;stroke:#000000;stroke-width:0.768124"
     id="polyline12" />
  <polyline
     points="322.26 346.59, 251.44 252.09, 283.64 121.11, 386.27 178.95"
     transform="matrix(0.325369,0,0,0.325567,-37.6499,-33.1876)"
     style="fill:#8080ff;fill-opacity:0.5;stroke:#000000;stroke-width:0.768124"
     id="polyline14" />
  <polyline
     points="141.97 372.12, 167.83 166.41, 127.52 103.12, 116.19 256.07"
     transform="matrix(0.325369,0,0,0.325567,-37.6499,-33.1876)"
     style="fill:#808001;fill-opacity:0.5;stroke:#000000;stroke-width:0.768124"
     id="polyline16" />
  <polyline
     points="167.83 166.41, 386.27 178.95, 283.64 121.11, 127.52 103.12"
     transform="matrix(0.325369,0,0,0.325567,-37.6499,-33.1876)"
     style="fill:url(#id2);stroke:#000000;stroke-width:0.768124"
     id="polyline18" />
  <polyline
     points="141.97 372.12, 322.26 346.59, 386.27 178.95, 167.83 166.41"
     transform="matrix(0.325369,0,0,0.325567,-37.6499,-33.1876)"
     style="fill:#808080;fill-opacity:0.5;stroke:#000000;stroke-width:0.768124"
     id="polyline20" />
</svg>
