<?xml version="1.0" encoding="UTF-8" standalone="no"?>
<!-- Copyright 2017 mathsisfun.com -->

<svg
   width="273.676"
   height="158.394"
   version="1.1"
   style="font-size:16.4px;stroke-width:0.81"
   id="svg489"
   sodipodi:docname="protractor-sm.svg"
   inkscape:version="1.1 (c68e22c387, 2021-05-23)"
   xmlns:inkscape="http://www.inkscape.org/namespaces/inkscape"
   xmlns:sodipodi="http://sodipodi.sourceforge.net/DTD/sodipodi-0.dtd"
   xmlns:xlink="http://www.w3.org/1999/xlink"
   xmlns="http://www.w3.org/2000/svg"
   xmlns:svg="http://www.w3.org/2000/svg">
  <sodipodi:namedview
     id="namedview491"
     pagecolor="#ffffff"
     bordercolor="#666666"
     borderopacity="1.0"
     inkscape:pageshadow="2"
     inkscape:pageopacity="0.0"
     inkscape:pagecheckerboard="0"
     showgrid="false"
     inkscape:current-layer="svg489" />
  <defs
     id="defs2" />
  <text
     x="134.097"
     y="-240.717"
     transform="rotate(90)"
     style="font-size:9.84px;font-family:Arial;fill:#121513;stroke:#3465a4;stroke-width:0.486"
     id="text4">0</text>
  <text
     x="128.517"
     y="-251.577"
     transform="rotate(90)"
     style="font-size:9.84px;font-family:Arial;fill:#121513;stroke:#3465a4;stroke-width:0.486"
     id="text6">180</text>
  <text
     x="152.276"
     y="-215.158"
     transform="rotate(80)"
     style="font-size:9.84px;font-family:Arial;fill:#121513;stroke:#3465a4;stroke-width:0.486"
     id="text8">10</text>
  <text
     x="148.796"
     y="-225.898"
     transform="rotate(80)"
     style="font-size:9.84px;font-family:Arial;fill:#121513;stroke:#3465a4;stroke-width:0.486"
     id="text10">170</text>
  <text
     x="170.216"
     y="-185.878"
     transform="rotate(70)"
     style="font-size:9.84px;font-family:Arial;fill:#121513;stroke:#3465a4;stroke-width:0.486"
     id="text12">20</text>
  <text
     x="165.296"
     y="-197.098"
     transform="rotate(70)"
     style="font-size:9.84px;font-family:Arial;fill:#121513;stroke:#3465a4;stroke-width:0.486"
     id="text14">160</text>
  <text
     x="182.216"
     y="-153.959"
     transform="rotate(60)"
     style="font-size:9.84px;font-family:Arial;fill:#121513;stroke:#3465a4;stroke-width:0.486"
     id="text16">30</text>
  <text
     x="177.236"
     y="-164.699"
     transform="rotate(60)"
     style="font-size:9.84px;font-family:Arial;fill:#121513;stroke:#3465a4;stroke-width:0.486"
     id="text18">150</text>
  <text
     x="187.016"
     y="-120.84"
     transform="rotate(50)"
     style="font-size:9.84px;font-family:Arial;fill:#121513;stroke:#3465a4;stroke-width:0.486"
     id="text20">40</text>
  <text
     x="183.656"
     y="-132.36"
     transform="rotate(50)"
     style="font-size:9.84px;font-family:Arial;fill:#121513;stroke:#3465a4;stroke-width:0.486"
     id="text22">140</text>
  <text
     x="186.595"
     y="-87.9607"
     transform="rotate(40)"
     style="font-size:9.84px;font-family:Arial;fill:#121513;stroke:#3465a4;stroke-width:0.486"
     id="text24">50</text>
  <text
     x="183.955"
     y="-98.5807"
     transform="rotate(40)"
     style="font-size:9.84px;font-family:Arial;fill:#121513;stroke:#3465a4;stroke-width:0.486"
     id="text26">130</text>
  <text
     x="181.136"
     y="-54.5411"
     transform="rotate(29.9999)"
     style="font-size:9.84px;font-family:Arial;fill:#121513;stroke:#3465a4;stroke-width:0.486"
     id="text28">60</text>
  <text
     x="178.196"
     y="-65.8211"
     transform="rotate(29.9999)"
     style="font-size:9.84px;font-family:Arial;fill:#121513;stroke:#3465a4;stroke-width:0.486"
     id="text30">120</text>
  <text
     x="170.096"
     y="-22.9818"
     transform="rotate(20)"
     style="font-size:9.84px;font-family:Arial;fill:#121513;stroke:#3465a4;stroke-width:0.486"
     id="text32">70</text>
  <text
     x="166.796"
     y="-34.2018"
     transform="rotate(20)"
     style="font-size:9.84px;font-family:Arial;fill:#121513;stroke:#3465a4;stroke-width:0.486"
     id="text34">110</text>
  <text
     x="153.896"
     y="6.05755"
     transform="rotate(9.99998)"
     style="font-size:9.84px;font-family:Arial;fill:#121513;stroke:#3465a4;stroke-width:0.486"
     id="text36">80</text>
  <text
     x="150.236"
     y="-4.50244"
     transform="rotate(9.99998)"
     style="font-size:9.84px;font-family:Arial;fill:#121513;stroke:#3465a4;stroke-width:0.486"
     id="text38">100</text>
  <text
     x="127.857"
     y="27.057"
     style="font-size:16.74px;font-family:Arial;fill:#121513;stroke:#3465a4;stroke-width:0.822"
     id="text40">90</text>
  <text
     x="102.658"
     y="53.3362"
     transform="rotate(-9.99998)"
     style="font-size:9.84px;font-family:Arial;fill:#121513;stroke:#3465a4;stroke-width:0.486"
     id="text42">100</text>
  <text
     x="106.018"
     y="42.8362"
     transform="rotate(-9.99998)"
     style="font-size:9.84px;font-family:Arial;fill:#121513;stroke:#3465a4;stroke-width:0.486"
     id="text44">80</text>
  <text
     x="73.5582"
     y="70.0158"
     transform="rotate(-20)"
     style="font-size:9.84px;font-family:Arial;fill:#121513;stroke:#3465a4;stroke-width:0.486"
     id="text46">110</text>
  <text
     x="77.1581"
     y="59.6958"
     transform="rotate(-20)"
     style="font-size:9.84px;font-family:Arial;fill:#121513;stroke:#3465a4;stroke-width:0.486"
     id="text48">70</text>
  <text
     x="41.5189"
     y="81.8361"
     transform="rotate(-29.9999)"
     style="font-size:9.84px;font-family:Arial;fill:#121513;stroke:#3465a4;stroke-width:0.486"
     id="text50">120</text>
  <text
     x="44.8189"
     y="70.7962"
     transform="rotate(-29.9999)"
     style="font-size:9.84px;font-family:Arial;fill:#121513;stroke:#3465a4;stroke-width:0.486"
     id="text52">60</text>
  <text
     x="8.03957"
     y="87.4158"
     transform="rotate(-40)"
     style="font-size:9.84px;font-family:Arial;fill:#121513;stroke:#3465a4;stroke-width:0.486"
     id="text54">130</text>
  <text
     x="11.2196"
     y="76.7358"
     transform="rotate(-40)"
     style="font-size:9.84px;font-family:Arial;fill:#121513;stroke:#3465a4;stroke-width:0.486"
     id="text56">50</text>
  <text
     x="-25.4396"
     y="87.9554"
     transform="rotate(-50)"
     style="font-size:9.84px;font-family:Arial;fill:#121513;stroke:#3465a4;stroke-width:0.486"
     id="text58">140</text>
  <text
     x="-22.6196"
     y="77.0354"
     transform="rotate(-50)"
     style="font-size:9.84px;font-family:Arial;fill:#121513;stroke:#3465a4;stroke-width:0.486"
     id="text60">40</text>
  <text
     x="-58.679"
     y="81.8356"
     transform="rotate(-60)"
     style="font-size:9.84px;font-family:Arial;fill:#121513;stroke:#3465a4;stroke-width:0.486"
     id="text62">150</text>
  <text
     x="-56.699"
     y="71.0957"
     transform="rotate(-60)"
     style="font-size:9.84px;font-family:Arial;fill:#121513;stroke:#3465a4;stroke-width:0.486"
     id="text64">30</text>
  <text
     x="-90.538"
     y="70.1958"
     transform="rotate(-70)"
     style="font-size:9.84px;font-family:Arial;fill:#121513;stroke:#3465a4;stroke-width:0.486"
     id="text66">160</text>
  <text
     x="-88.558"
     y="59.6958"
     transform="rotate(-70)"
     style="font-size:9.84px;font-family:Arial;fill:#121513;stroke:#3465a4;stroke-width:0.486"
     id="text68">20</text>
  <text
     x="-120.357"
     y="53.1564"
     transform="rotate(-80)"
     style="font-size:9.84px;font-family:Arial;fill:#121513;stroke:#3465a4;stroke-width:0.486"
     id="text70">170</text>
  <text
     x="-118.197"
     y="42.4765"
     transform="rotate(-80)"
     style="font-size:9.84px;font-family:Arial;fill:#121513;stroke:#3465a4;stroke-width:0.486"
     id="text72">10</text>
  <text
     x="-147.297"
     y="31.4366"
     transform="rotate(-90)"
     style="font-size:9.84px;font-family:Arial;fill:#121513;stroke:#3465a4;stroke-width:0.486"
     id="text74">180</text>
  <text
     x="-140.517"
     y="20.5166"
     transform="rotate(-90)"
     style="font-size:9.84px;font-family:Arial;fill:#121513;stroke:#3465a4;stroke-width:0.486"
     id="text76">0</text>
  <path
     style="color:#000000;overflow:visible;fill:none;stroke:#3465a4;stroke-width:0.834;stroke-linejoin:round"
     d="m 136.797,0.417 c -75.3004,0 -136.38,61.08 -136.38,136.38 0,7.2 0.6,14.28 1.62,21.18 h 269.46 c 1.08,-6.9 1.68,-13.92 1.68,-21.18 0,-75.3 -61.08,-136.38 -136.38,-136.38 z"
     id="path78" />
  <polyline
     points="585.00 300.00, 610.00 300.00, "
     transform="matrix(0.439966,0,0,0.439966,4.6402,5.3139)"
     style="fill:none;stroke:#3465a4;stroke-width:4.09"
     id="polyline80" />
  <polyline
     points="583.92 275.16, 608.82 272.98, "
     transform="matrix(0.439966,0,0,0.439966,4.6402,5.3139)"
     style="fill:none;stroke:#3465a4;stroke-width:1.88"
     id="polyline82" />
  <polyline
     points="329.54 294.79, 526.51 260.06, "
     transform="matrix(0.439966,0,0,0.439966,4.6402,5.3139)"
     style="fill:none;stroke:#3465a4;stroke-width:1.23"
     id="polyline84" />
  <polyline
     points="580.67 250.51, 605.29 246.17, "
     transform="matrix(0.439966,0,0,0.439966,4.6402,5.3139)"
     style="fill:none;stroke:#3465a4;stroke-width:1.88"
     id="polyline86" />
  <polyline
     points="575.29 226.24, 599.44 219.77, "
     transform="matrix(0.439966,0,0,0.439966,4.6402,5.3139)"
     style="fill:none;stroke:#3465a4;stroke-width:1.88"
     id="polyline88" />
  <polyline
     points="328.19 289.74, 516.13 221.34, "
     transform="matrix(0.439966,0,0,0.439966,4.6402,5.3139)"
     style="fill:none;stroke:#3465a4;stroke-width:1.23"
     id="polyline90" />
  <polyline
     points="567.81 202.52, 591.30 193.97, "
     transform="matrix(0.439966,0,0,0.439966,4.6402,5.3139)"
     style="fill:none;stroke:#3465a4;stroke-width:1.88"
     id="polyline92" />
  <polyline
     points="558.30 179.55, 580.96 168.99, "
     transform="matrix(0.439966,0,0,0.439966,4.6402,5.3139)"
     style="fill:none;stroke:#3465a4;stroke-width:1.88"
     id="polyline94" />
  <polyline
     points="325.98 285.00, 499.19 185.00, "
     transform="matrix(0.439966,0,0,0.439966,4.6402,5.3139)"
     style="fill:none;stroke:#3465a4;stroke-width:1.23"
     id="polyline96" />
  <polyline
     points="546.82 157.50, 568.47 145.00, "
     transform="matrix(0.439966,0,0,0.439966,4.6402,5.3139)"
     style="fill:none;stroke:#3465a4;stroke-width:1.88"
     id="polyline98" />
  <polyline
     points="533.46 136.53, 553.94 122.19, "
     transform="matrix(0.439966,0,0,0.439966,4.6402,5.3139)"
     style="fill:none;stroke:#3465a4;stroke-width:1.88"
     id="polyline100" />
  <polyline
     points="322.98 280.72, 476.19 152.16, "
     transform="matrix(0.439966,0,0,0.439966,4.6402,5.3139)"
     style="fill:none;stroke:#3465a4;stroke-width:1.23"
     id="polyline102" />
  <polyline
     points="518.32 116.81, 537.47 100.74, "
     transform="matrix(0.439966,0,0,0.439966,4.6402,5.3139)"
     style="fill:none;stroke:#3465a4;stroke-width:1.88"
     id="polyline104" />
  <polyline
     points="501.53 98.475, 519.20 80.797, "
     transform="matrix(0.439966,0,0,0.439966,4.6402,5.3139)"
     style="fill:none;stroke:#3465a4;stroke-width:4.09"
     id="polyline106" />
  <polyline
     points="319.28 277.02, 447.84 123.81, "
     transform="matrix(0.439966,0,0,0.439966,4.6402,5.3139)"
     style="fill:none;stroke:#3465a4;stroke-width:1.23"
     id="polyline108" />
  <polyline
     points="483.19 81.677, 499.26 62.526, "
     transform="matrix(0.439966,0,0,0.439966,4.6402,5.3139)"
     style="fill:none;stroke:#3465a4;stroke-width:1.88"
     id="polyline110" />
  <polyline
     points="463.47 66.542, 477.81 46.063, "
     transform="matrix(0.439966,0,0,0.439966,4.6402,5.3139)"
     style="fill:none;stroke:#3465a4;stroke-width:1.88"
     id="polyline112" />
  <polyline
     points="315.00 274.02, 415.00 100.81, "
     transform="matrix(0.439966,0,0,0.439966,4.6402,5.3139)"
     style="fill:none;stroke:#3465a4;stroke-width:1.23"
     id="polyline114" />
  <polyline
     points="442.50 53.183, 455.00 31.532, "
     transform="matrix(0.439966,0,0,0.439966,4.6402,5.3139)"
     style="fill:none;stroke:#3465a4;stroke-width:1.88"
     id="polyline116" />
  <polyline
     points="420.45 41.702, 431.01 19.045, "
     transform="matrix(0.439966,0,0,0.439966,4.6402,5.3139)"
     style="fill:none;stroke:#3465a4;stroke-width:1.88"
     id="polyline118" />
  <polyline
     points="310.26 271.81, 378.66 83.871, "
     transform="matrix(0.439966,0,0,0.439966,4.6402,5.3139)"
     style="fill:none;stroke:#3465a4;stroke-width:1.23"
     id="polyline120" />
  <polyline
     points="397.48 32.188, 406.03 8.6953, "
     transform="matrix(0.439966,0,0,0.439966,4.6402,5.3139)"
     style="fill:none;stroke:#3465a4;stroke-width:1.88"
     id="polyline122" />
  <polyline
     points="373.76 24.711, 380.23 0.56299, "
     transform="matrix(0.439966,0,0,0.439966,4.6402,5.3139)"
     style="fill:none;stroke:#3465a4;stroke-width:1.88"
     id="polyline124" />
  <polyline
     points="305.21 270.46, 339.94 73.494, "
     transform="matrix(0.439966,0,0,0.439966,4.6402,5.3139)"
     style="fill:none;stroke:#3465a4;stroke-width:1.23"
     id="polyline126" />
  <polyline
     points="349.49 19.330, 353.83 -5.2904, "
     transform="matrix(0.439966,0,0,0.439966,4.6402,5.3139)"
     style="fill:none;stroke:#3465a4;stroke-width:1.88"
     id="polyline128" />
  <polyline
     points="324.84 16.085, 327.02 -8.8204, "
     transform="matrix(0.439966,0,0,0.439966,4.6402,5.3139)"
     style="fill:none;stroke:#3465a4;stroke-width:1.88"
     id="polyline130" />
  <polyline
     points="300.00 270.00, 300.00 70.000, "
     transform="matrix(0.104978,0,0,0.567644,105.515,-3.498)"
     style="fill:none;stroke:#3465a4;stroke-width:2.95"
     id="polyline132" />
  <polyline
     points="300.00 15.000, 300.00 -10.000, "
     transform="matrix(0.439966,0,0,0.439966,4.6402,5.3139)"
     style="fill:none;stroke:#3465a4;stroke-width:4.18"
     id="polyline134" />
  <polyline
     points="275.16 16.085, 272.98 -8.8204, "
     transform="matrix(0.439966,0,0,0.439966,4.6402,5.3139)"
     style="fill:none;stroke:#3465a4;stroke-width:1.88"
     id="polyline136" />
  <polyline
     points="294.79 270.46, 260.06 73.494, "
     transform="matrix(0.439966,0,0,0.439966,4.6402,5.3139)"
     style="fill:none;stroke:#3465a4;stroke-width:1.23"
     id="polyline138" />
  <polyline
     points="250.51 19.330, 246.17 -5.2904, "
     transform="matrix(0.439966,0,0,0.439966,4.6402,5.3139)"
     style="fill:none;stroke:#3465a4;stroke-width:1.88"
     id="polyline140" />
  <polyline
     points="226.24 24.711, 219.77 0.56299, "
     transform="matrix(0.439966,0,0,0.439966,4.6402,5.3139)"
     style="fill:none;stroke:#3465a4;stroke-width:1.88"
     id="polyline142" />
  <polyline
     points="289.74 271.81, 221.34 83.871, "
     transform="matrix(0.439966,0,0,0.439966,4.6402,5.3139)"
     style="fill:none;stroke:#3465a4;stroke-width:1.23"
     id="polyline144" />
  <polyline
     points="202.52 32.188, 193.97 8.6953, "
     transform="matrix(0.439966,0,0,0.439966,4.6402,5.3139)"
     style="fill:none;stroke:#3465a4;stroke-width:1.88"
     id="polyline146" />
  <polyline
     points="179.55 41.702, 168.99 19.045, "
     transform="matrix(0.439966,0,0,0.439966,4.6402,5.3139)"
     style="fill:none;stroke:#3465a4;stroke-width:1.88"
     id="polyline148" />
  <polyline
     points="285.00 274.02, 185.00 100.81, "
     transform="matrix(0.439966,0,0,0.439966,4.6402,5.3139)"
     style="fill:none;stroke:#3465a4;stroke-width:1.23"
     id="polyline150" />
  <polyline
     points="157.50 53.183, 145.00 31.532, "
     transform="matrix(0.439966,0,0,0.439966,4.6402,5.3139)"
     style="fill:none;stroke:#3465a4;stroke-width:1.88"
     id="polyline152" />
  <polyline
     points="136.53 66.542, 122.19 46.063, "
     transform="matrix(0.439966,0,0,0.439966,4.6402,5.3139)"
     style="fill:none;stroke:#3465a4;stroke-width:1.88"
     id="polyline154" />
  <polyline
     points="280.72 277.02, 152.16 123.81, "
     transform="matrix(0.439966,0,0,0.439966,4.6402,5.3139)"
     style="fill:none;stroke:#3465a4;stroke-width:1.23"
     id="polyline156" />
  <polyline
     points="116.81 81.677, 100.74 62.526, "
     transform="matrix(0.439966,0,0,0.439966,4.6402,5.3139)"
     style="fill:none;stroke:#3465a4;stroke-width:1.88"
     id="polyline158" />
  <polyline
     points="98.475 98.475, 80.797 80.797, "
     transform="matrix(0.439966,0,0,0.439966,4.6402,5.3139)"
     style="fill:none;stroke:#3465a4;stroke-width:4.09"
     id="polyline160" />
  <polyline
     points="277.02 280.72, 123.81 152.16, "
     transform="matrix(0.439966,0,0,0.439966,4.6402,5.3139)"
     style="fill:none;stroke:#3465a4;stroke-width:1.23"
     id="polyline162" />
  <polyline
     points="81.677 116.81, 62.526 100.74, "
     transform="matrix(0.439966,0,0,0.439966,4.6402,5.3139)"
     style="fill:none;stroke:#3465a4;stroke-width:1.88"
     id="polyline164" />
  <polyline
     points="66.542 136.53, 46.063 122.19, "
     transform="matrix(0.439966,0,0,0.439966,4.6402,5.3139)"
     style="fill:none;stroke:#3465a4;stroke-width:1.88"
     id="polyline166" />
  <polyline
     points="274.02 285.00, 100.81 185.00, "
     transform="matrix(0.439966,0,0,0.439966,4.6402,5.3139)"
     style="fill:none;stroke:#3465a4;stroke-width:1.23"
     id="polyline168" />
  <polyline
     points="53.183 157.50, 31.532 145.00, "
     transform="matrix(0.439966,0,0,0.439966,4.6402,5.3139)"
     style="fill:none;stroke:#3465a4;stroke-width:1.88"
     id="polyline170" />
  <polyline
     points="41.702 179.55, 19.045 168.99, "
     transform="matrix(0.439966,0,0,0.439966,4.6402,5.3139)"
     style="fill:none;stroke:#3465a4;stroke-width:1.88"
     id="polyline172" />
  <polyline
     points="271.81 289.74, 83.871 221.34, "
     transform="matrix(0.439966,0,0,0.439966,4.6402,5.3139)"
     style="fill:none;stroke:#3465a4;stroke-width:1.23"
     id="polyline174" />
  <polyline
     points="32.188 202.52, 8.6953 193.97, "
     transform="matrix(0.439966,0,0,0.439966,4.6402,5.3139)"
     style="fill:none;stroke:#3465a4;stroke-width:1.88"
     id="polyline176" />
  <polyline
     points="24.711 226.24, 0.56299 219.77, "
     transform="matrix(0.439966,0,0,0.439966,4.6402,5.3139)"
     style="fill:none;stroke:#3465a4;stroke-width:1.88"
     id="polyline178" />
  <polyline
     points="270.46 294.79, 73.494 260.06, "
     transform="matrix(0.439966,0,0,0.439966,4.6402,5.3139)"
     style="fill:none;stroke:#3465a4;stroke-width:1.23"
     id="polyline180" />
  <polyline
     points="19.330 250.51, -5.2904 246.17, "
     transform="matrix(0.439966,0,0,0.439966,4.6402,5.3139)"
     style="fill:none;stroke:#3465a4;stroke-width:1.88"
     id="polyline182" />
  <polyline
     points="16.085 275.16, -8.8204 272.98, "
     transform="matrix(0.439966,0,0,0.439966,4.6402,5.3139)"
     style="fill:none;stroke:#3465a4;stroke-width:1.88"
     id="polyline184" />
  <polyline
     points="270.00 300.00, 70.000 300.00, "
     transform="matrix(1.00336,0,0,0.439966,-34.2675,5.3139)"
     style="fill:none;stroke:#3465a4;stroke-width:1.08"
     id="polyline186" />
  <polyline
     points="15.000 300.00, -10.000 300.00, "
     transform="matrix(0.439966,0,0,0.439966,4.6402,5.3139)"
     style="fill:none;stroke:#3465a4;stroke-width:4.09"
     id="polyline188" />
  <circle
     cx="136.797"
     cy="136.797"
     r="12.7549"
     style="color:#000000;overflow:visible;fill:none;stroke:#3465a4;stroke-width:0.828;stroke-linejoin:round"
     id="circle190" />
  <text
     x="35.979"
     y="153.852"
     style="color:#000000;font-size:10.5579px;font-family:Arial;overflow:visible;fill:#204a87;stroke:none;stroke-width:3.02715"
     id="text192">© MathsIsFun.com</text>
  <path
     style="fill:none;stroke:#3465a4;stroke-width:0.6;stroke-dasharray:4.8, 4.8"
     d="m 137.037,137.277 96.06,-96.42"
     id="path194" />
  <path
     style="fill:none;stroke:#3465a4;stroke-width:0.6;stroke-dasharray:4.8, 4.8"
     d="M 137.037,137.277 40.1966,40.857"
     id="path196" />
  <path
     id="aa1"
     style="fill:none;stroke:#3465a4;stroke-width:0.24"
     d="m 0.237,137.277 h 6.18" />
  <use
     xlink:href="#aa1"
     x="0"
     y="0"
     id="use199"
     style="stroke:#3465a4"
     width="100%"
     height="100%" />
  <use
     transform="rotate(1,136.967,137.174)"
     xlink:href="#aa1"
     x="0"
     y="0"
     id="use201"
     style="stroke:#3465a4"
     width="100%"
     height="100%" />
  <use
     transform="rotate(2,136.966,137.175)"
     xlink:href="#aa1"
     x="0"
     y="0"
     id="use203"
     style="stroke:#3465a4"
     width="100%"
     height="100%" />
  <use
     transform="rotate(3,136.966,137.174)"
     xlink:href="#aa1"
     x="0"
     y="0"
     id="use205"
     style="stroke:#3465a4"
     width="100%"
     height="100%" />
  <use
     transform="rotate(4,136.967,137.18)"
     xlink:href="#aa1"
     x="0"
     y="0"
     id="use207"
     style="stroke:#3465a4"
     width="100%"
     height="100%" />
  <use
     transform="rotate(6,136.966,137.179)"
     xlink:href="#aa1"
     x="0"
     y="0"
     id="use209"
     style="stroke:#3465a4"
     width="100%"
     height="100%" />
  <use
     transform="rotate(7,136.967,137.176)"
     xlink:href="#aa1"
     x="0"
     y="0"
     id="use211"
     style="stroke:#3465a4"
     width="100%"
     height="100%" />
  <use
     transform="rotate(8,136.967,137.176)"
     xlink:href="#aa1"
     x="0"
     y="0"
     id="use213"
     style="stroke:#3465a4"
     width="100%"
     height="100%" />
  <use
     transform="rotate(9,136.967,137.176)"
     xlink:href="#aa1"
     x="0"
     y="0"
     id="use215"
     style="stroke:#3465a4"
     width="100%"
     height="100%" />
  <use
     transform="rotate(11,136.967,137.176)"
     xlink:href="#aa1"
     x="0"
     y="0"
     id="use217"
     style="stroke:#3465a4"
     width="100%"
     height="100%" />
  <use
     transform="rotate(12,136.967,137.176)"
     xlink:href="#aa1"
     x="0"
     y="0"
     id="use219"
     style="stroke:#3465a4"
     width="100%"
     height="100%" />
  <use
     transform="rotate(13,136.967,137.176)"
     xlink:href="#aa1"
     x="0"
     y="0"
     id="use221"
     style="stroke:#3465a4"
     width="100%"
     height="100%" />
  <use
     transform="rotate(14,136.967,137.176)"
     xlink:href="#aa1"
     x="0"
     y="0"
     id="use223"
     style="stroke:#3465a4"
     width="100%"
     height="100%" />
  <use
     transform="rotate(16,136.967,137.176)"
     xlink:href="#aa1"
     x="0"
     y="0"
     id="use225"
     style="stroke:#3465a4"
     width="100%"
     height="100%" />
  <use
     transform="rotate(17,136.967,137.176)"
     xlink:href="#aa1"
     x="0"
     y="0"
     id="use227"
     style="stroke:#3465a4"
     width="100%"
     height="100%" />
  <use
     transform="rotate(18,136.967,137.176)"
     xlink:href="#aa1"
     x="0"
     y="0"
     id="use229"
     style="stroke:#3465a4"
     width="100%"
     height="100%" />
  <use
     transform="rotate(19,136.967,137.176)"
     xlink:href="#aa1"
     x="0"
     y="0"
     id="use231"
     style="stroke:#3465a4"
     width="100%"
     height="100%" />
  <use
     transform="rotate(21,136.967,137.176)"
     xlink:href="#aa1"
     x="0"
     y="0"
     id="use233"
     style="stroke:#3465a4"
     width="100%"
     height="100%" />
  <use
     transform="rotate(22,136.967,137.176)"
     xlink:href="#aa1"
     x="0"
     y="0"
     id="use235"
     style="stroke:#3465a4"
     width="100%"
     height="100%" />
  <use
     transform="rotate(23,136.967,137.176)"
     xlink:href="#aa1"
     x="0"
     y="0"
     id="use237"
     style="stroke:#3465a4"
     width="100%"
     height="100%" />
  <use
     transform="rotate(24,136.967,137.176)"
     xlink:href="#aa1"
     x="0"
     y="0"
     id="use239"
     style="stroke:#3465a4"
     width="100%"
     height="100%" />
  <use
     transform="rotate(26,136.967,137.176)"
     xlink:href="#aa1"
     x="0"
     y="0"
     id="use241"
     style="stroke:#3465a4"
     width="100%"
     height="100%" />
  <use
     transform="rotate(27,136.967,137.176)"
     xlink:href="#aa1"
     x="0"
     y="0"
     id="use243"
     style="stroke:#3465a4"
     width="100%"
     height="100%" />
  <use
     transform="rotate(28,136.967,137.176)"
     xlink:href="#aa1"
     x="0"
     y="0"
     id="use245"
     style="stroke:#3465a4"
     width="100%"
     height="100%" />
  <use
     transform="rotate(29,136.967,137.176)"
     xlink:href="#aa1"
     x="0"
     y="0"
     id="use247"
     style="stroke:#3465a4"
     width="100%"
     height="100%" />
  <use
     transform="rotate(31,136.967,137.176)"
     xlink:href="#aa1"
     x="0"
     y="0"
     id="use249"
     style="stroke:#3465a4"
     width="100%"
     height="100%" />
  <use
     transform="rotate(32,136.967,137.176)"
     xlink:href="#aa1"
     x="0"
     y="0"
     id="use251"
     style="stroke:#3465a4"
     width="100%"
     height="100%" />
  <use
     transform="rotate(33,136.967,137.176)"
     xlink:href="#aa1"
     x="0"
     y="0"
     id="use253"
     style="stroke:#3465a4"
     width="100%"
     height="100%" />
  <use
     transform="rotate(34,136.967,137.176)"
     xlink:href="#aa1"
     x="0"
     y="0"
     id="use255"
     style="stroke:#3465a4"
     width="100%"
     height="100%" />
  <use
     transform="rotate(36,136.966,137.176)"
     xlink:href="#aa1"
     x="0"
     y="0"
     id="use257"
     style="stroke:#3465a4"
     width="100%"
     height="100%" />
  <use
     transform="rotate(37,136.967,137.176)"
     xlink:href="#aa1"
     x="0"
     y="0"
     id="use259"
     style="stroke:#3465a4"
     width="100%"
     height="100%" />
  <use
     transform="rotate(38,136.966,137.176)"
     xlink:href="#aa1"
     x="0"
     y="0"
     id="use261"
     style="stroke:#3465a4"
     width="100%"
     height="100%" />
  <use
     transform="rotate(39,136.966,137.176)"
     xlink:href="#aa1"
     x="0"
     y="0"
     id="use263"
     style="stroke:#3465a4"
     width="100%"
     height="100%" />
  <use
     transform="rotate(41,136.967,137.176)"
     xlink:href="#aa1"
     x="0"
     y="0"
     id="use265"
     style="stroke:#3465a4"
     width="100%"
     height="100%" />
  <use
     transform="rotate(42,136.967,137.176)"
     xlink:href="#aa1"
     x="0"
     y="0"
     id="use267"
     style="stroke:#3465a4"
     width="100%"
     height="100%" />
  <use
     transform="rotate(43,136.967,137.176)"
     xlink:href="#aa1"
     x="0"
     y="0"
     id="use269"
     style="stroke:#3465a4"
     width="100%"
     height="100%" />
  <use
     transform="rotate(44,136.967,137.176)"
     xlink:href="#aa1"
     x="0"
     y="0"
     id="use271"
     style="stroke:#3465a4"
     width="100%"
     height="100%" />
  <use
     transform="rotate(46,136.967,137.176)"
     xlink:href="#aa1"
     x="0"
     y="0"
     id="use273"
     style="stroke:#3465a4"
     width="100%"
     height="100%" />
  <use
     transform="rotate(47,136.967,137.176)"
     xlink:href="#aa1"
     x="0"
     y="0"
     id="use275"
     style="stroke:#3465a4"
     width="100%"
     height="100%" />
  <use
     transform="rotate(48,136.967,137.176)"
     xlink:href="#aa1"
     x="0"
     y="0"
     id="use277"
     style="stroke:#3465a4"
     width="100%"
     height="100%" />
  <use
     transform="rotate(49,136.967,137.176)"
     xlink:href="#aa1"
     x="0"
     y="0"
     id="use279"
     style="stroke:#3465a4"
     width="100%"
     height="100%" />
  <use
     transform="rotate(51,136.967,137.176)"
     xlink:href="#aa1"
     x="0"
     y="0"
     id="use281"
     style="stroke:#3465a4"
     width="100%"
     height="100%" />
  <use
     transform="rotate(52,136.967,137.176)"
     xlink:href="#aa1"
     x="0"
     y="0"
     id="use283"
     style="stroke:#3465a4"
     width="100%"
     height="100%" />
  <use
     transform="rotate(53,136.967,137.176)"
     xlink:href="#aa1"
     x="0"
     y="0"
     id="use285"
     style="stroke:#3465a4"
     width="100%"
     height="100%" />
  <use
     transform="rotate(54,136.967,137.176)"
     xlink:href="#aa1"
     x="0"
     y="0"
     id="use287"
     style="stroke:#3465a4"
     width="100%"
     height="100%" />
  <use
     transform="rotate(56,136.967,137.176)"
     xlink:href="#aa1"
     x="0"
     y="0"
     id="use289"
     style="stroke:#3465a4"
     width="100%"
     height="100%" />
  <use
     transform="rotate(57,136.966,137.176)"
     xlink:href="#aa1"
     x="0"
     y="0"
     id="use291"
     style="stroke:#3465a4"
     width="100%"
     height="100%" />
  <use
     transform="rotate(58,136.966,137.176)"
     xlink:href="#aa1"
     x="0"
     y="0"
     id="use293"
     style="stroke:#3465a4"
     width="100%"
     height="100%" />
  <use
     transform="rotate(59,136.966,137.176)"
     xlink:href="#aa1"
     x="0"
     y="0"
     id="use295"
     style="stroke:#3465a4"
     width="100%"
     height="100%" />
  <use
     transform="rotate(61,136.967,137.176)"
     xlink:href="#aa1"
     x="0"
     y="0"
     id="use297"
     style="stroke:#3465a4"
     width="100%"
     height="100%" />
  <use
     transform="rotate(62,136.966,137.176)"
     xlink:href="#aa1"
     x="0"
     y="0"
     id="use299"
     style="stroke:#3465a4"
     width="100%"
     height="100%" />
  <use
     transform="rotate(63,136.966,137.176)"
     xlink:href="#aa1"
     x="0"
     y="0"
     id="use301"
     style="stroke:#3465a4"
     width="100%"
     height="100%" />
  <use
     transform="rotate(64,136.967,137.176)"
     xlink:href="#aa1"
     x="0"
     y="0"
     id="use303"
     style="stroke:#3465a4"
     width="100%"
     height="100%" />
  <use
     transform="rotate(66,136.967,137.176)"
     xlink:href="#aa1"
     x="0"
     y="0"
     id="use305"
     style="stroke:#3465a4"
     width="100%"
     height="100%" />
  <use
     transform="rotate(67,136.966,137.176)"
     xlink:href="#aa1"
     x="0"
     y="0"
     id="use307"
     style="stroke:#3465a4"
     width="100%"
     height="100%" />
  <use
     transform="rotate(68,136.967,137.176)"
     xlink:href="#aa1"
     x="0"
     y="0"
     id="use309"
     style="stroke:#3465a4"
     width="100%"
     height="100%" />
  <use
     transform="rotate(69,136.966,137.176)"
     xlink:href="#aa1"
     x="0"
     y="0"
     id="use311"
     style="stroke:#3465a4"
     width="100%"
     height="100%" />
  <use
     transform="rotate(71,136.966,137.176)"
     xlink:href="#aa1"
     x="0"
     y="0"
     id="use313"
     style="stroke:#3465a4"
     width="100%"
     height="100%" />
  <use
     transform="rotate(72,136.966,137.176)"
     xlink:href="#aa1"
     x="0"
     y="0"
     id="use315"
     style="stroke:#3465a4"
     width="100%"
     height="100%" />
  <use
     transform="rotate(73,136.966,137.176)"
     xlink:href="#aa1"
     x="0"
     y="0"
     id="use317"
     style="stroke:#3465a4"
     width="100%"
     height="100%" />
  <use
     transform="rotate(74,136.967,137.176)"
     xlink:href="#aa1"
     x="0"
     y="0"
     id="use319"
     style="stroke:#3465a4"
     width="100%"
     height="100%" />
  <use
     transform="rotate(76,136.966,137.176)"
     xlink:href="#aa1"
     x="0"
     y="0"
     id="use321"
     style="stroke:#3465a4"
     width="100%"
     height="100%" />
  <use
     transform="rotate(77,136.967,137.176)"
     xlink:href="#aa1"
     x="0"
     y="0"
     id="use323"
     style="stroke:#3465a4"
     width="100%"
     height="100%" />
  <use
     transform="rotate(78,136.967,137.176)"
     xlink:href="#aa1"
     x="0"
     y="0"
     id="use325"
     style="stroke:#3465a4"
     width="100%"
     height="100%" />
  <use
     transform="rotate(79,136.966,137.176)"
     xlink:href="#aa1"
     x="0"
     y="0"
     id="use327"
     style="stroke:#3465a4"
     width="100%"
     height="100%" />
  <use
     transform="rotate(81,136.967,137.176)"
     xlink:href="#aa1"
     x="0"
     y="0"
     id="use329"
     style="stroke:#3465a4"
     width="100%"
     height="100%" />
  <use
     transform="rotate(82,136.966,137.176)"
     xlink:href="#aa1"
     x="0"
     y="0"
     id="use331"
     style="stroke:#3465a4"
     width="100%"
     height="100%" />
  <use
     transform="rotate(83,136.966,137.176)"
     xlink:href="#aa1"
     x="0"
     y="0"
     id="use333"
     style="stroke:#3465a4"
     width="100%"
     height="100%" />
  <use
     transform="rotate(84,136.967,137.176)"
     xlink:href="#aa1"
     x="0"
     y="0"
     id="use335"
     style="stroke:#3465a4"
     width="100%"
     height="100%" />
  <use
     transform="rotate(86,136.967,137.176)"
     xlink:href="#aa1"
     x="0"
     y="0"
     id="use337"
     style="stroke:#3465a4"
     width="100%"
     height="100%" />
  <use
     transform="rotate(87,136.966,137.176)"
     xlink:href="#aa1"
     x="0"
     y="0"
     id="use339"
     style="stroke:#3465a4"
     width="100%"
     height="100%" />
  <use
     transform="rotate(88,136.966,137.176)"
     xlink:href="#aa1"
     x="0"
     y="0"
     id="use341"
     style="stroke:#3465a4"
     width="100%"
     height="100%" />
  <use
     transform="rotate(89,136.966,137.176)"
     xlink:href="#aa1"
     x="0"
     y="0"
     id="use343"
     style="stroke:#3465a4"
     width="100%"
     height="100%" />
  <use
     transform="rotate(91,136.966,137.176)"
     xlink:href="#aa1"
     x="0"
     y="0"
     id="use345"
     style="stroke:#3465a4"
     width="100%"
     height="100%" />
  <use
     transform="rotate(92,136.966,137.176)"
     xlink:href="#aa1"
     x="0"
     y="0"
     id="use347"
     style="stroke:#3465a4"
     width="100%"
     height="100%" />
  <use
     transform="rotate(93,136.967,137.176)"
     xlink:href="#aa1"
     x="0"
     y="0"
     id="use349"
     style="stroke:#3465a4"
     width="100%"
     height="100%" />
  <use
     transform="rotate(94,136.967,137.176)"
     xlink:href="#aa1"
     x="0"
     y="0"
     id="use351"
     style="stroke:#3465a4"
     width="100%"
     height="100%" />
  <use
     transform="rotate(96,136.967,137.176)"
     xlink:href="#aa1"
     x="0"
     y="0"
     id="use353"
     style="stroke:#3465a4"
     width="100%"
     height="100%" />
  <use
     transform="rotate(97,136.967,137.176)"
     xlink:href="#aa1"
     x="0"
     y="0"
     id="use355"
     style="stroke:#3465a4"
     width="100%"
     height="100%" />
  <use
     transform="rotate(98,136.966,137.176)"
     xlink:href="#aa1"
     x="0"
     y="0"
     id="use357"
     style="stroke:#3465a4"
     width="100%"
     height="100%" />
  <use
     transform="rotate(99,136.967,137.176)"
     xlink:href="#aa1"
     x="0"
     y="0"
     id="use359"
     style="stroke:#3465a4"
     width="100%"
     height="100%" />
  <use
     transform="rotate(101,136.967,137.176)"
     xlink:href="#aa1"
     x="0"
     y="0"
     id="use361"
     style="stroke:#3465a4"
     width="100%"
     height="100%" />
  <use
     transform="rotate(102,136.966,137.176)"
     xlink:href="#aa1"
     x="0"
     y="0"
     id="use363"
     style="stroke:#3465a4"
     width="100%"
     height="100%" />
  <use
     transform="rotate(103,136.967,137.176)"
     xlink:href="#aa1"
     x="0"
     y="0"
     id="use365"
     style="stroke:#3465a4"
     width="100%"
     height="100%" />
  <use
     transform="rotate(104,136.967,137.176)"
     xlink:href="#aa1"
     x="0"
     y="0"
     id="use367"
     style="stroke:#3465a4"
     width="100%"
     height="100%" />
  <use
     transform="rotate(106,136.967,137.176)"
     xlink:href="#aa1"
     x="0"
     y="0"
     id="use369"
     style="stroke:#3465a4"
     width="100%"
     height="100%" />
  <use
     transform="rotate(107,136.967,137.176)"
     xlink:href="#aa1"
     x="0"
     y="0"
     id="use371"
     style="stroke:#3465a4"
     width="100%"
     height="100%" />
  <use
     transform="rotate(108,136.967,137.176)"
     xlink:href="#aa1"
     x="0"
     y="0"
     id="use373"
     style="stroke:#3465a4"
     width="100%"
     height="100%" />
  <use
     transform="rotate(109,136.967,137.176)"
     xlink:href="#aa1"
     x="0"
     y="0"
     id="use375"
     style="stroke:#3465a4"
     width="100%"
     height="100%" />
  <use
     transform="rotate(111,136.967,137.176)"
     xlink:href="#aa1"
     x="0"
     y="0"
     id="use377"
     style="stroke:#3465a4"
     width="100%"
     height="100%" />
  <use
     transform="rotate(112,136.967,137.176)"
     xlink:href="#aa1"
     x="0"
     y="0"
     id="use379"
     style="stroke:#3465a4"
     width="100%"
     height="100%" />
  <use
     transform="rotate(113,136.967,137.176)"
     xlink:href="#aa1"
     x="0"
     y="0"
     id="use381"
     style="stroke:#3465a4"
     width="100%"
     height="100%" />
  <use
     transform="rotate(114,136.966,137.176)"
     xlink:href="#aa1"
     x="0"
     y="0"
     id="use383"
     style="stroke:#3465a4"
     width="100%"
     height="100%" />
  <use
     transform="rotate(116,136.966,137.176)"
     xlink:href="#aa1"
     x="0"
     y="0"
     id="use385"
     style="stroke:#3465a4"
     width="100%"
     height="100%" />
  <use
     transform="rotate(117,136.967,137.176)"
     xlink:href="#aa1"
     x="0"
     y="0"
     id="use387"
     style="stroke:#3465a4"
     width="100%"
     height="100%" />
  <use
     transform="rotate(118,136.966,137.176)"
     xlink:href="#aa1"
     x="0"
     y="0"
     id="use389"
     style="stroke:#3465a4"
     width="100%"
     height="100%" />
  <use
     transform="rotate(119,136.966,137.176)"
     xlink:href="#aa1"
     x="0"
     y="0"
     id="use391"
     style="stroke:#3465a4"
     width="100%"
     height="100%" />
  <use
     transform="rotate(121,136.967,137.176)"
     xlink:href="#aa1"
     x="0"
     y="0"
     id="use393"
     style="stroke:#3465a4"
     width="100%"
     height="100%" />
  <use
     transform="rotate(122,136.966,137.176)"
     xlink:href="#aa1"
     x="0"
     y="0"
     id="use395"
     style="stroke:#3465a4"
     width="100%"
     height="100%" />
  <use
     transform="rotate(123,136.967,137.176)"
     xlink:href="#aa1"
     x="0"
     y="0"
     id="use397"
     style="stroke:#3465a4"
     width="100%"
     height="100%" />
  <use
     transform="rotate(124,136.967,137.176)"
     xlink:href="#aa1"
     x="0"
     y="0"
     id="use399"
     style="stroke:#3465a4"
     width="100%"
     height="100%" />
  <use
     transform="rotate(126,136.967,137.176)"
     xlink:href="#aa1"
     x="0"
     y="0"
     id="use401"
     style="stroke:#3465a4"
     width="100%"
     height="100%" />
  <use
     transform="rotate(127,136.966,137.176)"
     xlink:href="#aa1"
     x="0"
     y="0"
     id="use403"
     style="stroke:#3465a4"
     width="100%"
     height="100%" />
  <use
     transform="rotate(128,136.967,137.176)"
     xlink:href="#aa1"
     x="0"
     y="0"
     id="use405"
     style="stroke:#3465a4"
     width="100%"
     height="100%" />
  <use
     transform="rotate(129,136.967,137.176)"
     xlink:href="#aa1"
     x="0"
     y="0"
     id="use407"
     style="stroke:#3465a4"
     width="100%"
     height="100%" />
  <use
     transform="rotate(131,136.967,137.176)"
     xlink:href="#aa1"
     x="0"
     y="0"
     id="use409"
     style="stroke:#3465a4"
     width="100%"
     height="100%" />
  <use
     transform="rotate(132,136.967,137.176)"
     xlink:href="#aa1"
     x="0"
     y="0"
     id="use411"
     style="stroke:#3465a4"
     width="100%"
     height="100%" />
  <use
     transform="rotate(133,136.966,137.176)"
     xlink:href="#aa1"
     x="0"
     y="0"
     id="use413"
     style="stroke:#3465a4"
     width="100%"
     height="100%" />
  <use
     transform="rotate(134,136.967,137.176)"
     xlink:href="#aa1"
     x="0"
     y="0"
     id="use415"
     style="stroke:#3465a4"
     width="100%"
     height="100%" />
  <use
     transform="rotate(136,136.967,137.176)"
     xlink:href="#aa1"
     x="0"
     y="0"
     id="use417"
     style="stroke:#3465a4"
     width="100%"
     height="100%" />
  <use
     transform="rotate(137,136.967,137.176)"
     xlink:href="#aa1"
     x="0"
     y="0"
     id="use419"
     style="stroke:#3465a4"
     width="100%"
     height="100%" />
  <use
     transform="rotate(138,136.966,137.176)"
     xlink:href="#aa1"
     x="0"
     y="0"
     id="use421"
     style="stroke:#3465a4"
     width="100%"
     height="100%" />
  <use
     transform="rotate(139,136.967,137.176)"
     xlink:href="#aa1"
     x="0"
     y="0"
     id="use423"
     style="stroke:#3465a4"
     width="100%"
     height="100%" />
  <use
     transform="rotate(141,136.967,137.176)"
     xlink:href="#aa1"
     x="0"
     y="0"
     id="use425"
     style="stroke:#3465a4"
     width="100%"
     height="100%" />
  <use
     transform="rotate(142,136.967,137.176)"
     xlink:href="#aa1"
     x="0"
     y="0"
     id="use427"
     style="stroke:#3465a4"
     width="100%"
     height="100%" />
  <use
     transform="rotate(143,136.967,137.176)"
     xlink:href="#aa1"
     x="0"
     y="0"
     id="use429"
     style="stroke:#3465a4"
     width="100%"
     height="100%" />
  <use
     transform="rotate(144,136.966,137.176)"
     xlink:href="#aa1"
     x="0"
     y="0"
     id="use431"
     style="stroke:#3465a4"
     width="100%"
     height="100%" />
  <use
     transform="rotate(146,136.967,137.176)"
     xlink:href="#aa1"
     x="0"
     y="0"
     id="use433"
     style="stroke:#3465a4"
     width="100%"
     height="100%" />
  <use
     transform="rotate(147,136.966,137.176)"
     xlink:href="#aa1"
     x="0"
     y="0"
     id="use435"
     style="stroke:#3465a4"
     width="100%"
     height="100%" />
  <use
     transform="rotate(148,136.966,137.176)"
     xlink:href="#aa1"
     x="0"
     y="0"
     id="use437"
     style="stroke:#3465a4"
     width="100%"
     height="100%" />
  <use
     transform="rotate(149,136.967,137.176)"
     xlink:href="#aa1"
     x="0"
     y="0"
     id="use439"
     style="stroke:#3465a4"
     width="100%"
     height="100%" />
  <use
     transform="rotate(151,136.967,137.176)"
     xlink:href="#aa1"
     x="0"
     y="0"
     id="use441"
     style="stroke:#3465a4"
     width="100%"
     height="100%" />
  <use
     transform="rotate(152,136.966,137.176)"
     xlink:href="#aa1"
     x="0"
     y="0"
     id="use443"
     style="stroke:#3465a4"
     width="100%"
     height="100%" />
  <use
     transform="rotate(153,136.966,137.176)"
     xlink:href="#aa1"
     x="0"
     y="0"
     id="use445"
     style="stroke:#3465a4"
     width="100%"
     height="100%" />
  <use
     transform="rotate(154,136.967,137.176)"
     xlink:href="#aa1"
     x="0"
     y="0"
     id="use447"
     style="stroke:#3465a4"
     width="100%"
     height="100%" />
  <use
     transform="rotate(156,136.967,137.176)"
     xlink:href="#aa1"
     x="0"
     y="0"
     id="use449"
     style="stroke:#3465a4"
     width="100%"
     height="100%" />
  <use
     transform="rotate(157,136.966,137.176)"
     xlink:href="#aa1"
     x="0"
     y="0"
     id="use451"
     style="stroke:#3465a4"
     width="100%"
     height="100%" />
  <use
     transform="rotate(158,136.967,137.176)"
     xlink:href="#aa1"
     x="0"
     y="0"
     id="use453"
     style="stroke:#3465a4"
     width="100%"
     height="100%" />
  <use
     transform="rotate(159,136.967,137.176)"
     xlink:href="#aa1"
     x="0"
     y="0"
     id="use455"
     style="stroke:#3465a4"
     width="100%"
     height="100%" />
  <use
     transform="rotate(161,136.967,137.176)"
     xlink:href="#aa1"
     x="0"
     y="0"
     id="use457"
     style="stroke:#3465a4"
     width="100%"
     height="100%" />
  <use
     transform="rotate(162,136.966,137.176)"
     xlink:href="#aa1"
     x="0"
     y="0"
     id="use459"
     style="stroke:#3465a4"
     width="100%"
     height="100%" />
  <use
     transform="rotate(163,136.967,137.176)"
     xlink:href="#aa1"
     x="0"
     y="0"
     id="use461"
     style="stroke:#3465a4"
     width="100%"
     height="100%" />
  <use
     transform="rotate(164,136.966,137.176)"
     xlink:href="#aa1"
     x="0"
     y="0"
     id="use463"
     style="stroke:#3465a4"
     width="100%"
     height="100%" />
  <use
     transform="rotate(166,136.966,137.176)"
     xlink:href="#aa1"
     x="0"
     y="0"
     id="use465"
     style="stroke:#3465a4"
     width="100%"
     height="100%" />
  <use
     transform="rotate(167,136.967,137.176)"
     xlink:href="#aa1"
     x="0"
     y="0"
     id="use467"
     style="stroke:#3465a4"
     width="100%"
     height="100%" />
  <use
     transform="rotate(168,136.967,137.176)"
     xlink:href="#aa1"
     x="0"
     y="0"
     id="use469"
     style="stroke:#3465a4"
     width="100%"
     height="100%" />
  <use
     transform="rotate(169,136.967,137.176)"
     xlink:href="#aa1"
     x="0"
     y="0"
     id="use471"
     style="stroke:#3465a4"
     width="100%"
     height="100%" />
  <use
     transform="rotate(171,136.967,137.176)"
     xlink:href="#aa1"
     x="0"
     y="0"
     id="use473"
     style="stroke:#3465a4"
     width="100%"
     height="100%" />
  <use
     transform="rotate(172,136.967,137.176)"
     xlink:href="#aa1"
     x="0"
     y="0"
     id="use475"
     style="stroke:#3465a4"
     width="100%"
     height="100%" />
  <use
     transform="rotate(173,136.967,137.176)"
     xlink:href="#aa1"
     x="0"
     y="0"
     id="use477"
     style="stroke:#3465a4"
     width="100%"
     height="100%" />
  <use
     transform="rotate(174,136.966,137.176)"
     xlink:href="#aa1"
     x="0"
     y="0"
     id="use479"
     style="stroke:#3465a4"
     width="100%"
     height="100%" />
  <use
     transform="rotate(176,136.967,137.176)"
     xlink:href="#aa1"
     x="0"
     y="0"
     id="use481"
     style="stroke:#3465a4"
     width="100%"
     height="100%" />
  <use
     transform="rotate(177,136.966,137.176)"
     xlink:href="#aa1"
     x="0"
     y="0"
     id="use483"
     style="stroke:#3465a4"
     width="100%"
     height="100%" />
  <use
     transform="rotate(178,136.967,137.176)"
     xlink:href="#aa1"
     x="0"
     y="0"
     id="use485"
     style="stroke:#3465a4"
     width="100%"
     height="100%" />
  <use
     transform="rotate(179,136.966,137.176)"
     xlink:href="#aa1"
     x="0"
     y="0"
     id="use487"
     style="stroke:#3465a4"
     width="100%"
     height="100%" />
</svg>
