<?xml version="1.0" encoding="UTF-8" standalone="no"?>
<!-- Copyright 2017 mathsisfun.com -->
<svg xmlns="http://www.w3.org/2000/svg" xmlns:xlink="http://www.w3.org/1999/xlink" width="278.4" height="186" version="1.1">
<defs>
<marker id="id4" style="overflow:visible;" orient="auto">
<path transform="matrix(0.4,0,0,0.4,4,0)" style="fill:black; stroke:black; stroke-width:1pt;" d="M 0,0 5,-5 -12.5,0 5,5 Z"/>
</marker>
<marker id="id5" style="overflow:visible;" orient="auto">
<path transform="matrix(-0.4,0,0,-0.4,-4,0)" style="fill:black; stroke:black; stroke-width:1pt;" d="M 0,0 5,-5 -12.5,0 5,5 Z"/>
</marker>
<marker id="id7" style="overflow:visible;" orient="auto">
<path transform="matrix(0.4,0,0,0.4,4,0)" style="fill:#0000b9; stroke:#0000b9; stroke-width:1pt;" d="M 0,0 5,-5 -12.5,0 5,5 Z"/>
</marker>
<marker id="id8" style="overflow:visible;" orient="auto">
<path transform="matrix(-0.4,0,0,-0.4,-4,0)" style="fill:#0000b9; stroke:#0000b9; stroke-width:1pt;" d="M 0,0 5,-5 -12.5,0 5,5 Z"/>
</marker>
<radialGradient id="id3" r="7.31617" fx="-148.678" fy="769.068" cx="-148.7" cy="769.1" gradientTransform="matrix(4.65491,0,0,6.7164,45.3894,-4358.52)" xlink:href="#id1" gradientUnits="userSpaceOnUse"/>
<linearGradient id="id1">
<stop offset="0" style="stop-color:white; stop-opacity:0.69;"/>
<stop offset="1" style="stop-color:white; stop-opacity:0;"/>
</linearGradient>
<linearGradient id="id6" gradientTransform="matrix(1.17919,0,0,1.17919,-315.44,-159.122)" xlink:href="#id2" x1="-274.7" y1="828.9" x2="-173.3" y2="833.7" gradientUnits="userSpaceOnUse"/>
<linearGradient id="id2">
<stop offset="0" style="stop-color:#82b200; stop-opacity:0.54;"/>
<stop offset="1" style="stop-color:#82b200; stop-opacity:0.88;"/>
</linearGradient>
</defs>
<g transform="translate(763.997,-747.839)">
<path style="overflow:visible; fill:none; stroke:#0000fe; stroke-width:3.3; stroke-linejoin:round;" d="m -653.5,910.4 162.7,-30.4 -117.2,-38 -154.4,20 z"/>
<path style="overflow:visible; fill:#0000fe; stroke-width:2.24; stroke-linejoin:round;" d="m -600.2,907.3 c 1.1,1.3 1.9,3 2,4.7 0.7,3.2 0,6.8 1.6,9.8 0.5,1.1 1.3,2.1 2.6,2.3 1.3,0.4 2.8,0 4,-0.3 -0.5,0.1 -2.2,0.6 -0.9,0.2 2.4,-0.8 4.8,-1.5 7.2,-2.1 -0.5,0.1 -2,0.5 -1.8,0.5 1,0 1.8,0.7 2.7,1 -0.8,0.3 -2.6,0.7 -2.9,0.8 0.5,-0.1 2.1,-0.6 0.8,-0.2 -2.6,0.7 -5.2,1.8 -7.9,2.2 -2.1,0.4 -4.4,-0.3 -5.6,-2.2 -1.9,-2.5 -1.9,-5.8 -2.1,-8.9 -0.2,-1.6 -0.3,-3.2 -0.8,-4.8 -0.5,-0.8 -1.8,-2.1 -0.2,-2.4 0.4,-0.2 0.8,-0.4 1.2,-0.6 z"/>
<path style="overflow:visible; fill:#0000fe; stroke-width:2.24; stroke-linejoin:round;" d="m -606.2,916.3 c 1.1,-2.8 2.4,-5.6 3.3,-8.5 0.4,-0.9 -0.1,-2.4 1.3,-2.2 0.8,-0.2 2,-0.5 1.6,0.8 -0.5,3.1 -2,6 -3.1,8.9 -0.1,1.5 -1.7,0.9 -2.7,1 -10e-4,-0.1 -0.3,0.1 -0.3,0 z"/>
<path style="overflow:visible; fill:#0000fe; stroke-width:2.24; stroke-linejoin:round;" d="m -600.4,906.1 c 1.6,1.5 3.3,3.1 5.4,4.1 0.5,0.4 2.3,0 1.2,0.8 -0.7,0.6 -1.4,1.8 -2.5,1.1 -1.4,-0.6 -2.5,-1.5 -3.7,-2.4 -0.9,-0.8 -1.7,-1.6 -2.6,-2.4 0.8,-0.4 1.5,-0.9 2.3,-1.3 z"/>
<text x="-579.7" y="928.2" style="font-family:'Comic Sans MS'; font-size:20px; font-style:italic; overflow:visible; fill:#0000fe; stroke-width:2.24;">perimeter</text>
<path style="overflow:visible; fill:#82b200; fill-opacity:0.57; stroke:black; stroke-width:1; stroke-linejoin:round;" d="m -762.3,862 154.4,-20 -21.7,-93.7 z"/>
<path style="overflow:visible; fill:#82b200; fill-opacity:0.57; stroke:black; stroke-width:1; stroke-linejoin:round;" d="m -608,842 117.2,38 -138.9,-131.7 z"/>
<path style="overflow:visible; fill:#19aeff; fill-opacity:0.56; stroke:black; stroke-width:1; stroke-linejoin:round;" d="m -762.3,862 108.8,48.4 162.7,-30.4 -117.2,-38 z"/>
<path style="overflow:visible; fill:#ffe368; fill-opacity:0.68; stroke:black; stroke-width:1; stroke-linejoin:round;" d="m -762.3,862 108.8,48.4 23.9,-162 z"/>
<ellipse cx="-646.7" cy="806.8" rx="33.6" ry="48.6" style="color:black; overflow:visible; fill:url(#id3); stroke-width:1.19;"/>
<text x="-564.1" y="834.3" style="font-family:'Comic Sans MS'; text-align:end; text-anchor:end; font-size:19.9px; font-style:italic; overflow:visible; fill:black; stroke-width:0.25;">height</text>
<path style="marker-start:url(#id4); marker-end:url(#id5); overflow:visible; fill:none; stroke:black; stroke-width:2.7; stroke-linejoin:round;" d="m -627.1,870.4 -0.8,-115.4"/>
<path style="overflow:visible; fill:url(#id6); stroke:black; stroke-width:1; stroke-linejoin:round;" d="M -653.5,910.4 -490.8,880 -629.7,748.3 Z"/>
<text x="-1037.5" y="-139.6" transform="matrix(0.530187,-0.844467,0.802138,0.608503,0,0)" style="font-family:'Comic Sans MS'; text-align:end; text-anchor:end; font-size:14.9px; font-style:italic; overflow:visible; fill:#0000b9; stroke-width:0.3;">slant length</text>
<path style="marker-start:url(#id7); marker-end:url(#id8); overflow:visible; fill:none; stroke:#0000b9; stroke-width:2.54; stroke-linejoin:round;" d="m -713.6,881.6 81.3,-128"/>
</g>
</svg>
