<?xml version="1.0" encoding="UTF-8" standalone="no"?>
<!-- Copyright 2017 mathsisfun.com -->
<svg xmlns="http://www.w3.org/2000/svg" width="245.6" height="139.2" version="1.1">
<defs/>
<g transform="translate(158.505,-185.73)">
<path style="overflow:visible; fill:white; stroke-width:1.68; stroke-linejoin:round;" d="M -158.5,292.6 -87.3,323.9 42.8,300 -63.8,191.9 Z"/>
<path style="overflow:visible; fill:#fd3301; fill-opacity:0.52; stroke:black; stroke-width:1.68; stroke-linejoin:round;" d="M -156.8,293.3 -87.6,324 41.1,301.4 -42.2,278.1 Z"/>
<path style="overflow:visible; fill:#fdca01; fill-opacity:0.52; stroke:black; stroke-width:1.68; stroke-linejoin:round;" d="M -42.2,278 41,300.6 -64.1,191.3 Z"/>
<path style="overflow:visible; fill:#ffff00; fill-opacity:0.52; stroke:black; stroke-width:1.68; stroke-linejoin:round;" d="M -87.6,323.8 41.2,301.1 -64,191.2 Z"/>
<path style="overflow:visible; fill:#ffff99; fill-opacity:0.52; stroke:black; stroke-width:1.68; stroke-linejoin:round;" d="m -157,292.9 69.4,30.8 23.7,-132.6 z"/>
<path style="overflow:visible; fill:#fd3301; fill-opacity:0.52; stroke:black; stroke-width:1.68; stroke-linejoin:round;" d="M -124.1,256.6 -79.7,276 2.9,261.7 -50.6,247 Z"/>
<g transform="matrix(0.6,0,0,0.630084,-14.2907,94.8317)">
<path style="overflow:visible; fill:#fd3301; stroke-width:3;" d="m -33,237 c 1.9,-4.4 5.7,-7.7 8.9,-11.2 6.9,-6.8 14.6,-12.9 22.8,-18 3.3,-1.9 7.3,-3.4 11.1,-2.1 4.5,0.9 9.2,-0.1 13.1,-2.3 8,-3.9 14.8,-9.8 21,-16.1 0,1.4 0.1,2.7 0.2,4.1 -7.5,7.6 -16.2,14.5 -26.4,18.1 -4,1.2 -8.2,0.3 -12.2,-0 -6,0.8 -10.7,5 -15.5,8.3 -7.6,5.7 -14.9,12 -20.3,19.9 0.7,-1.6 3.1,-4 0.7,-1.8 -1.1,0.5 -2.2,0.9 -3.4,1.4 z"/>
<path style="overflow:visible; fill:#fd3301; stroke-width:3;" d="m -30.7,217.4 c 0.4,6.6 0.8,13.5 -1,19.9 -0.4,2.2 -1.8,3.2 -2.9,0.8 6.6,-6.2 16,-8.2 24.7,-7.4 2.3,-0.5 0.2,1.6 0,2.5 -0.5,2.7 -3.8,0.6 -5.7,1.2 -7.3,-0 -14.4,2.9 -19.6,8 -4.6,-0.9 1.3,-5.3 0.5,-8.3 0.7,-4.8 0.7,-9.8 0.2,-14.6 1.2,-0.7 2.5,-1.4 3.7,-2.1 z"/>
</g>
<text x="87.5" y="246.8" style="font-family:'Comic Sans MS'; text-align:end; text-anchor:end; font-size:13.3px; overflow:visible; fill:#fd3301; stroke-width:1.8;">Cross Section</text>
<rect x="14.4" y="186.6" width="59.6" height="45.9" style="overflow:visible; fill:#fd3301; fill-opacity:0.52; stroke:black; stroke-width:1.68; stroke-linejoin:round;"/>
</g>
</svg>
