<?xml version="1.0" encoding="UTF-8" standalone="no"?>
<svg
   xmlns:dc="http://purl.org/dc/elements/1.1/"
   xmlns:cc="http://creativecommons.org/ns#"
   xmlns:rdf="http://www.w3.org/1999/02/22-rdf-syntax-ns#"
   xmlns:svg="http://www.w3.org/2000/svg"
   xmlns="http://www.w3.org/2000/svg"
   xmlns:sodipodi="http://sodipodi.sourceforge.net/DTD/sodipodi-0.dtd"
   xmlns:inkscape="http://www.inkscape.org/namespaces/inkscape"
   width="234.536"
   height="186.155"
   version="1.1"
   id="svg45"
   sodipodi:docname="radian-circle.svg"
   inkscape:version="1.0.1 (3bc2e813f5, 2020-09-07)">
  <metadata
     id="metadata49">
    <rdf:RDF>
      <cc:Work
         rdf:about="">
        <dc:format>image/svg+xml</dc:format>
        <dc:type
           rdf:resource="http://purl.org/dc/dcmitype/StillImage" />
      </cc:Work>
    </rdf:RDF>
  </metadata>
  <sodipodi:namedview
     pagecolor="#ffffff"
     bordercolor="#666666"
     borderopacity="1"
     objecttolerance="10"
     gridtolerance="10"
     guidetolerance="10"
     inkscape:pageopacity="0"
     inkscape:pageshadow="2"
     inkscape:window-width="640"
     inkscape:window-height="480"
     id="namedview47"
     showgrid="false"
     inkscape:current-layer="svg45" />
  <defs
     id="defs17">
    <marker
       style="overflow:visible"
       id="Arrow1Mend"
       refX="0"
       refY="0"
       orient="auto"
       inkscape:stockid="Arrow1Mend"
       inkscape:isstock="true">
      <path
         transform="matrix(-0.4,0,0,-0.4,-4,0)"
         style="fill:#f44800;fill-opacity:1;fill-rule:evenodd;stroke:#f44800;stroke-width:1pt;stroke-opacity:1"
         d="M 0,0 5,-5 -12.5,0 5,5 Z"
         id="path907" />
    </marker>
    <marker
       style="overflow:visible"
       id="Arrow1Mstart"
       refX="0"
       refY="0"
       orient="auto"
       inkscape:stockid="Arrow1Mstart"
       inkscape:isstock="true">
      <path
         transform="matrix(0.4,0,0,0.4,4,0)"
         style="fill:#f44800;fill-opacity:1;fill-rule:evenodd;stroke:#f44800;stroke-width:1pt;stroke-opacity:1"
         d="M 0,0 5,-5 -12.5,0 5,5 Z"
         id="path904" />
    </marker>
    <marker
       id="id1"
       style="overflow:visible"
       orient="auto">
      <path
         transform="matrix(0.8,0,0,0.8,10,0)"
         style="fill:#f44800;stroke:#f44800;stroke-width:1pt"
         d="M 0,0 5,-5 -12.5,0 5,5 Z"
         id="path2" />
    </marker>
    <marker
       id="id2"
       style="overflow:visible"
       orient="auto">
      <path
         transform="matrix(-0.8,0,0,-0.8,-10,0)"
         style="fill:#f44800;stroke:#f44800;stroke-width:1pt"
         d="M 0,0 5,-5 -12.5,0 5,5 Z"
         id="path5" />
    </marker>
    <marker
       id="id3"
       style="overflow:visible"
       orient="auto">
      <path
         transform="matrix(0.8,0,0,0.8,10,0)"
         style="fill:#6600cc;stroke:#6600cc;stroke-width:1pt"
         d="M 0,0 5,-5 -12.5,0 5,5 Z"
         id="path8" />
    </marker>
    <marker
       id="id4"
       style="overflow:visible"
       orient="auto">
      <path
         transform="matrix(-0.8,0,0,-0.8,-10,0)"
         style="fill:#6600cc;stroke:#6600cc;stroke-width:1pt"
         d="M 0,0 5,-5 -12.5,0 5,5 Z"
         id="path11" />
    </marker>
    <filter
       id="id5"
       x="-0.02833"
       y="-0.1371"
       width="1.057"
       height="1.274">
      <feGaussianBlur
         stdDeviation="2.2282282"
         id="feGaussianBlur14" />
    </filter>
  </defs>
  <circle
     cx="83.865"
     cy="102.29"
     r="83.46"
     style="fill:#e6f4fe;fill-opacity:1;stroke:#000000;stroke-width:0.81"
     id="circle19" />
  <circle
     cx="83.865"
     cy="102.29"
     r="2.986"
     style="fill:#000000"
     id="circle21" />
  <path
     style="opacity:0.74;fill:#b3defd;stroke:#000000;stroke-width:1.06"
     d="m 125.765,30.1905 a 83.5,83.5 0 0 1 41.6,72.1995 h -83.5 z"
     id="path23" />
  <path
     style="fill:none;stroke:#f44800;stroke-width:1.58033;stroke-miterlimit:4;stroke-dasharray:none;marker-start:url(#Arrow1Mstart);marker-end:url(#Arrow1Mend)"
     d="m 120.252,43.4206 a 65.8314,65.8314 0 0 1 32.916,56.9474"
     id="path25" />
  <path
     style="fill:none;stroke:#6600cc;stroke-width:0.77;marker-start:url(#id3);marker-end:url(#id4)"
     d="m 84.565,111.79 h 83.1"
     id="path27" />
  <path
     style="fill:none;stroke:#6600cc;stroke-width:3.23"
     d="m 125.165,29.7905 a 83.5,83.5 0 0 1 42.2,72.5995"
     id="path29" />
  <text
     x="235.311"
     y="14.388"
     style="font-size:20.1px;font-family:Arial;text-align:end;text-anchor:end;fill:#6600cc"
     id="text31">length = radius</text>
  <text
     x="157.173"
     y="133.126"
     style="font-size:25px;font-family:Arial;text-align:end;text-anchor:end;fill:#6600cc"
     id="text33">radius</text>
  <path
     style="fill:#6600cc;stroke:#6600cc;stroke-width:1.89218"
     d="m 187.783,21.1567 c 0,0.425 -0.114,0.902 -0.234,1.3773 -0.09,0.569 -0.179,1.1389 -0.373,1.7599 -0.09,0.569 -0.274,1.1936 -0.373,1.7598 -0.09,0.57 -0.274,1.1937 -0.478,1.8129 -0.214,0.53 -0.413,1.1512 -0.633,1.6797 -0.139,0.3833 -0.382,0.8196 -0.519,1.2025 -0.139,0.3835 -0.301,0.6737 -0.57,1.0164 -0.269,0.3429 -0.539,0.6859 -0.832,0.9358 -0.856,0.8418 -1.87,1.5498 -2.8,2.1134 -0.293,0.2499 -0.613,0.4063 -1.037,0.616 -0.32,0.1525 -0.768,0.2752 -1.088,0.4297 -0.319,0.1523 -0.662,0.2179 -1.11,0.3406 -0.343,0.065 -0.664,0.2182 -1.006,0.2835 -0.344,0.066 -0.768,0.2753 -1.111,0.3407 -0.319,0.1523 -0.768,0.2753 -1.087,0.4297 -0.425,0.2097 -0.767,0.275 -1.192,0.4817 -0.426,0.2099 -0.957,0.4701 -1.357,0.7725 -0.507,0.3541 -1.012,0.7077 -1.544,0.9691 -0.4,0.3024 -0.907,0.6565 -1.305,0.9587 0.586,-0.4999 -1.308,0.9572 -0.801,0.604 2.294,-1.7594 2.081,-1.6555 1.387,-1.1039 -0.399,0.3025 -0.775,0.6969 -1.174,0.999 -0.377,0.3947 -0.776,0.6968 -1.045,1.0398 -0.375,0.3951 -0.751,0.7896 -1.019,1.1322 -0.376,0.3954 -0.726,0.8833 -0.996,1.2263 -0.268,0.3427 -0.537,0.6854 -0.806,1.0282 -0.269,0.3428 -0.513,0.7784 -0.783,1.1214 -0.267,0.3424 -0.407,0.7259 -0.675,1.0686 -0.159,0.2915 -0.326,0.5807 -0.49,0.8713 -0.08,0.145 -0.267,0.3425 -0.349,0.4877 -0.08,0.1449 -0.188,0.1977 -0.159,0.2916 0,0 -0.08,0.1449 -0.08,0.1449 -0.104,0.057 -0.08,0.1439 -0.104,0.057 l -2.649,0.8814 c -0.02,-0.087 -0.02,-0.087 0.06,-0.2386 0.104,-0.057 0.08,-0.1449 0.08,-0.1449 0.08,-0.1439 0.188,-0.1967 0.159,-0.2905 0.08,-0.1449 0.269,-0.3427 0.35,-0.4879 0.159,-0.2915 0.325,-0.5817 0.514,-0.7786 0.243,-0.4362 0.512,-0.7791 0.676,-1.0696 0.243,-0.4355 0.488,-0.8711 0.756,-1.2138 0.245,-0.4357 0.514,-0.7784 0.783,-1.1213 0.375,-0.3942 0.725,-0.8831 0.995,-1.225 0.376,-0.3955 0.725,-0.8831 1.101,-1.2788 0.375,-0.3942 0.749,-0.7891 1.044,-1.0395 0.374,-0.3949 0.776,-0.6968 1.15,-1.0917 0.963,-0.8945 1.976,-1.6033 2.989,-2.3113 0.399,-0.3024 0.906,-0.6563 1.331,-0.8652 0.505,-0.3546 1.011,-0.7085 1.543,-0.9699 l 1.487,-0.7309 c 0.425,-0.2099 0.874,-0.3258 1.3,-0.5347 0.45,-0.113 0.767,-0.275 1.218,-0.3882 0.344,-0.066 0.768,-0.2752 1.111,-0.3406 0.342,-0.065 0.662,-0.218 1.005,-0.2833 0.343,-0.066 0.663,-0.2182 0.981,-0.3773 l 0.956,-0.47 c 0.318,-0.1621 0.613,-0.4074 0.906,-0.6563 0.188,-0.1977 0.295,-0.2502 0.506,-0.3549 0.103,-0.057 0.188,-0.1977 0.188,-0.1977 -1.787,1.4056 -2.188,1.7082 -1.494,1.1567 0.294,-0.2502 0.612,-0.4064 0.776,-0.6969 0.188,-0.1977 0.376,-0.3954 0.538,-0.6856 0.139,-0.3834 0.381,-0.8196 0.52,-1.2028 0.214,-0.5301 0.438,-1.0574 0.657,-1.5869 0.194,-0.6209 0.414,-1.1504 0.503,-1.7191 0.09,-0.5689 0.274,-1.1936 0.373,-1.7609 0.09,-0.5689 0.179,-1.1379 0.374,-1.7598 0.109,-0.477 0.114,-0.9021 0.234,-1.3764 l 2.523,-1.348 z"
     id="path35" />
  <path
     style="fill:#6600cc;stroke:#6600cc;stroke-width:1.89218"
     d="m 161.153,38.8861 c 0,0.4241 -0.04,0.7551 -0.05,1.1796 0,0.424 0.01,0.9414 -0.101,1.4174 0,0.425 0.01,0.9418 -0.102,1.4184 0,0.4241 0.01,0.9408 0,1.3653 0,0.425 0.01,0.9417 0,1.3659 0.02,0.5173 0.01,0.9408 -0.103,1.4178 0,0.425 -0.09,0.9929 -0.102,1.4174 l -0.07,1.087 c -0.03,0.3304 0.02,0.5172 -0.01,0.848 0.05,0.1872 -0.03,0.3304 -0.09,0.5689 -0.08,0.1449 -0.05,0.2395 -0.03,0.3314 0.03,0.095 0.03,0.095 -0.05,0.2386 l 0.03,0.095 -0.05,-0.1862 c -0.156,-0.1351 -0.313,-0.2678 -0.468,-0.4021 l -0.03,-0.095 c -0.907,0.6556 -2.4,1.812 -1.6,1.2079 0.882,-0.7493 1.788,-1.4055 2.694,-2.0619 0.293,-0.2499 0.694,-0.5516 1.012,-0.7077 l 1.063,-0.5235 1.273,-0.627 c 0.427,-0.2101 0.769,-0.2754 1.194,-0.4812 0.32,-0.1523 0.768,-0.2752 1.088,-0.4297 0.45,-0.113 0.767,-0.275 1.192,-0.4818 0.321,-0.1528 0.637,-0.3135 0.981,-0.3772 0.213,-0.105 0.451,-0.113 0.768,-0.2753 0.213,-0.1049 0.45,-0.113 0.556,-0.1703 0.103,-0.057 0.342,-0.065 0.45,-0.113 l 0.212,-0.1049 c 0.103,-0.057 0.103,-0.057 0.238,-0.01 l -1.67,2.2948 c 0.131,0.039 0.03,0.095 -0.08,0.145 -0.105,0.047 -0.238,0.01 -0.238,0.01 -0.103,0.057 -0.319,0.1523 -0.45,0.113 -0.238,0.01 -0.343,0.066 -0.556,0.1705 -0.213,0.105 -0.424,0.2097 -0.662,0.2177 -0.343,0.066 -0.664,0.2182 -0.875,0.3248 -0.424,0.2097 -0.743,0.3661 -1.194,0.4822 -0.342,0.065 -0.767,0.2751 -1.085,0.4293 l -1.063,0.5225 -1.275,0.6272 c -0.319,0.1523 -0.638,0.3128 -0.932,0.5628 -0.293,0.2499 -0.587,0.5001 -0.905,0.6563 -1.788,1.4055 2.188,-1.7073 0.987,-0.8015 -0.987,0.8015 -2.357,2.4226 -2.861,0.9873 l -0.03,-0.095 c -0.03,-0.095 0.08,-0.1449 0.05,-0.2385 -0.03,-0.095 0.06,-0.2385 0.04,-0.3305 0.05,-0.2385 0.03,-0.3304 0.09,-0.5699 0.03,-0.3294 0.09,-0.5679 0.01,-0.848 l 0.07,-1.0867 c 0,-0.425 0.09,-0.993 0.102,-1.4175 0,-0.425 0.1,-0.9942 0.103,-1.4186 0,-0.4241 0.01,-0.8478 0,-1.365 -0.02,-0.5173 -0.01,-0.9418 -0.03,-1.4588 -0.02,-0.5172 -0.01,-0.9407 0,-1.3652 0,-0.425 -0.01,-0.9415 0.103,-1.4177 0,-0.4251 0.01,-0.8487 0.05,-1.1795 l 2.525,-1.3481 z"
     id="path37" />
  <path
     style="fill:none;stroke:#6600cc;stroke-width:2.89"
     d="m 85.265,102.89 h 83.2"
     id="path43" />
  <text
     x="141.466"
     y="82.836"
     style="font-size:24px;font-family:'Comic Sans MS';text-align:end;text-anchor:end;fill:#ffffff"
     id="text1332">1 Radian</text>
  <text
     x="140.55"
     y="81.9196"
     style="font-size:24px;font-family:'Comic Sans MS';text-align:end;text-anchor:end;fill:#f44800"
     id="text41">1 Radian</text>
</svg>
