<?xml version="1.0" encoding="UTF-8" standalone="no"?>
<!-- Copyright 2017 mathsisfun.com -->

<svg
   width="147.627"
   height="89.0732"
   version="1.1"
   id="svg10"
   sodipodi:docname="rectangle-diag.svg"
   inkscape:version="1.1 (c68e22c387, 2021-05-23)"
   xmlns:inkscape="http://www.inkscape.org/namespaces/inkscape"
   xmlns:sodipodi="http://sodipodi.sourceforge.net/DTD/sodipodi-0.dtd"
   xmlns="http://www.w3.org/2000/svg"
   xmlns:svg="http://www.w3.org/2000/svg"
   xmlns:rdf="http://www.w3.org/1999/02/22-rdf-syntax-ns#"
   xmlns:cc="http://creativecommons.org/ns#"
   xmlns:dc="http://purl.org/dc/elements/1.1/">
  <metadata
     id="metadata14">
    <rdf:RDF>
      <cc:Work
         rdf:about="">
        <dc:format>image/svg+xml</dc:format>
        <dc:type
           rdf:resource="http://purl.org/dc/dcmitype/StillImage" />
        <dc:title />
      </cc:Work>
    </rdf:RDF>
  </metadata>
  <sodipodi:namedview
     pagecolor="#ffffff"
     bordercolor="#666666"
     borderopacity="1"
     objecttolerance="10"
     gridtolerance="10"
     guidetolerance="10"
     inkscape:pageopacity="0"
     inkscape:pageshadow="2"
     inkscape:window-width="640"
     inkscape:window-height="480"
     id="namedview12"
     showgrid="false"
     inkscape:current-layer="svg10"
     inkscape:pagecheckerboard="0" />
  <defs
     id="defs2">
    <marker
       style="overflow:visible"
       id="Arrow1Mstart"
       refX="0"
       refY="0"
       orient="auto"
       inkscape:stockid="Arrow1Mstart">
      <path
         transform="matrix(0.4,0,0,0.4,4,0)"
         style="fill-rule:evenodd;stroke:#000000;stroke-width:1pt;marker-start:none"
         d="M 0,0 5,-5 -12.5,0 5,5 Z"
         id="path4803"
         inkscape:connector-curvature="0" />
    </marker>
    <marker
       style="overflow:visible"
       id="Arrow1Mend"
       refX="0"
       refY="0"
       orient="auto"
       inkscape:stockid="Arrow1Mend">
      <path
         transform="matrix(-0.4,0,0,-0.4,-4,0)"
         style="fill-rule:evenodd;stroke:#000000;stroke-width:1pt;marker-start:none"
         d="M 0,0 5,-5 -12.5,0 5,5 Z"
         id="path4806"
         inkscape:connector-curvature="0" />
    </marker>
    <marker
       style="overflow:visible"
       id="marker4164"
       refX="0"
       refY="0"
       orient="auto"
       inkscape:stockid="Arrow1Mstart">
      <path
         transform="matrix(0.4,0,0,0.4,4,0)"
         style="fill-rule:evenodd;stroke:#000000;stroke-width:1pt;marker-start:none"
         d="M 0,0 5,-5 -12.5,0 5,5 Z"
         id="path4162"
         inkscape:connector-curvature="0" />
    </marker>
    <marker
       style="overflow:visible"
       id="marker4168"
       refX="0"
       refY="0"
       orient="auto"
       inkscape:stockid="Arrow1Mend">
      <path
         transform="matrix(-0.4,0,0,-0.4,-4,0)"
         style="fill-rule:evenodd;stroke:#000000;stroke-width:1pt;marker-start:none"
         d="M 0,0 5,-5 -12.5,0 5,5 Z"
         id="path4166"
         inkscape:connector-curvature="0" />
    </marker>
    <marker
       style="overflow:visible"
       id="marker4172"
       refX="0"
       refY="0"
       orient="auto"
       inkscape:stockid="Arrow1Mstart">
      <path
         transform="matrix(0.4,0,0,0.4,4,0)"
         style="fill-rule:evenodd;stroke:#000000;stroke-width:1pt;marker-start:none"
         d="M 0,0 5,-5 -12.5,0 5,5 Z"
         id="path4170"
         inkscape:connector-curvature="0" />
    </marker>
    <marker
       style="overflow:visible"
       id="marker4176"
       refX="0"
       refY="0"
       orient="auto"
       inkscape:stockid="Arrow1Mend">
      <path
         transform="matrix(-0.4,0,0,-0.4,-4,0)"
         style="fill-rule:evenodd;stroke:#000000;stroke-width:1pt;marker-start:none"
         d="M 0,0 5,-5 -12.5,0 5,5 Z"
         id="path4174"
         inkscape:connector-curvature="0" />
    </marker>
    <marker
       style="overflow:visible"
       id="marker4180"
       refX="0"
       refY="0"
       orient="auto"
       inkscape:stockid="Arrow1Mstart">
      <path
         transform="matrix(0.4,0,0,0.4,4,0)"
         style="fill-rule:evenodd;stroke:#000000;stroke-width:1pt;marker-start:none"
         d="M 0,0 5,-5 -12.5,0 5,5 Z"
         id="path4178"
         inkscape:connector-curvature="0" />
    </marker>
    <marker
       style="overflow:visible"
       id="marker4184"
       refX="0"
       refY="0"
       orient="auto"
       inkscape:stockid="Arrow1Mend">
      <path
         transform="matrix(-0.4,0,0,-0.4,-4,0)"
         style="fill-rule:evenodd;stroke:#000000;stroke-width:1pt;marker-start:none"
         d="M 0,0 5,-5 -12.5,0 5,5 Z"
         id="path4182"
         inkscape:connector-curvature="0" />
    </marker>
    <marker
       style="overflow:visible"
       id="Arrow1Mstartq9"
       refX="0"
       refY="0"
       orient="auto"
       inkscape:stockid="Arrow1Mstartq9">
      <path
         transform="matrix(0.4,0,0,0.4,4,0)"
         style="fill:#4e9a06;fill-rule:evenodd;stroke:#4e9a06;stroke-width:1pt;marker-start:none"
         d="M 0,0 5,-5 -12.5,0 5,5 Z"
         id="path4267"
         inkscape:connector-curvature="0" />
    </marker>
    <marker
       style="overflow:visible"
       id="Arrow1Mend3l"
       refX="0"
       refY="0"
       orient="auto"
       inkscape:stockid="Arrow1Mend3l">
      <path
         transform="matrix(-0.4,0,0,-0.4,-4,0)"
         style="fill:#4e9a06;fill-rule:evenodd;stroke:#4e9a06;stroke-width:1pt;marker-start:none"
         d="M 0,0 5,-5 -12.5,0 5,5 Z"
         id="path4270"
         inkscape:connector-curvature="0" />
    </marker>
    <marker
       style="overflow:visible"
       id="marker4192"
       refX="0"
       refY="0"
       orient="auto"
       inkscape:stockid="Arrow1Mstartq9">
      <path
         transform="matrix(0.4,0,0,0.4,4,0)"
         style="fill:#4e9a06;fill-rule:evenodd;stroke:#4e9a06;stroke-width:1pt;marker-start:none"
         d="M 0,0 5,-5 -12.5,0 5,5 Z"
         id="path4190"
         inkscape:connector-curvature="0" />
    </marker>
    <marker
       style="overflow:visible"
       id="marker4196"
       refX="0"
       refY="0"
       orient="auto"
       inkscape:stockid="Arrow1Mend3l">
      <path
         transform="matrix(-0.4,0,0,-0.4,-4,0)"
         style="fill:#4e9a06;fill-rule:evenodd;stroke:#4e9a06;stroke-width:1pt;marker-start:none"
         d="M 0,0 5,-5 -12.5,0 5,5 Z"
         id="path4194"
         inkscape:connector-curvature="0" />
    </marker>
    <marker
       style="overflow:visible"
       id="marker4200"
       refX="0"
       refY="0"
       orient="auto"
       inkscape:stockid="Arrow1Mstartq9">
      <path
         transform="matrix(0.4,0,0,0.4,4,0)"
         style="fill:#4e9a06;fill-rule:evenodd;stroke:#4e9a06;stroke-width:1pt;marker-start:none"
         d="M 0,0 5,-5 -12.5,0 5,5 Z"
         id="path4198"
         inkscape:connector-curvature="0" />
    </marker>
    <marker
       style="overflow:visible"
       id="marker4204"
       refX="0"
       refY="0"
       orient="auto"
       inkscape:stockid="Arrow1Mend3l">
      <path
         transform="matrix(-0.4,0,0,-0.4,-4,0)"
         style="fill:#4e9a06;fill-rule:evenodd;stroke:#4e9a06;stroke-width:1pt;marker-start:none"
         d="M 0,0 5,-5 -12.5,0 5,5 Z"
         id="path4202"
         inkscape:connector-curvature="0" />
    </marker>
    <marker
       style="overflow:visible"
       id="marker4208"
       refX="0"
       refY="0"
       orient="auto"
       inkscape:stockid="Arrow1Mstartq9">
      <path
         transform="matrix(0.4,0,0,0.4,4,0)"
         style="fill:#4e9a06;fill-rule:evenodd;stroke:#4e9a06;stroke-width:1pt;marker-start:none"
         d="M 0,0 5,-5 -12.5,0 5,5 Z"
         id="path4206"
         inkscape:connector-curvature="0" />
    </marker>
    <marker
       style="overflow:visible"
       id="marker4212"
       refX="0"
       refY="0"
       orient="auto"
       inkscape:stockid="Arrow1Mend3l">
      <path
         transform="matrix(-0.4,0,0,-0.4,-4,0)"
         style="fill:#4e9a06;fill-rule:evenodd;stroke:#4e9a06;stroke-width:1pt;marker-start:none"
         d="M 0,0 5,-5 -12.5,0 5,5 Z"
         id="path4210"
         inkscape:connector-curvature="0" />
    </marker>
    <marker
       style="overflow:visible"
       id="marker4216"
       refX="0"
       refY="0"
       orient="auto"
       inkscape:stockid="Arrow1Mend">
      <path
         transform="matrix(-0.4,0,0,-0.4,-4,0)"
         style="fill-rule:evenodd;stroke:#000000;stroke-width:1pt;marker-start:none"
         d="M 0,0 5,-5 -12.5,0 5,5 Z"
         id="path4214"
         inkscape:connector-curvature="0" />
    </marker>
    <marker
       style="overflow:visible"
       id="marker4220"
       refX="0"
       refY="0"
       orient="auto"
       inkscape:stockid="Arrow1Mend">
      <path
         transform="matrix(-0.4,0,0,-0.4,-4,0)"
         style="fill-rule:evenodd;stroke:#000000;stroke-width:1pt;marker-start:none"
         d="M 0,0 5,-5 -12.5,0 5,5 Z"
         id="path4218"
         inkscape:connector-curvature="0" />
    </marker>
    <marker
       style="overflow:visible"
       id="marker4224"
       refX="0"
       refY="0"
       orient="auto"
       inkscape:stockid="Arrow1Mend">
      <path
         transform="matrix(-0.4,0,0,-0.4,-4,0)"
         style="fill-rule:evenodd;stroke:#000000;stroke-width:1pt;marker-start:none"
         d="M 0,0 5,-5 -12.5,0 5,5 Z"
         id="path4222"
         inkscape:connector-curvature="0" />
    </marker>
    <marker
       style="overflow:visible"
       id="marker4228"
       refX="0"
       refY="0"
       orient="auto"
       inkscape:stockid="Arrow1Mend">
      <path
         transform="matrix(-0.4,0,0,-0.4,-4,0)"
         style="fill-rule:evenodd;stroke:#000000;stroke-width:1pt;marker-start:none"
         d="M 0,0 5,-5 -12.5,0 5,5 Z"
         id="path4226"
         inkscape:connector-curvature="0" />
    </marker>
    <marker
       style="overflow:visible"
       id="marker4232"
       refX="0"
       refY="0"
       orient="auto"
       inkscape:stockid="Arrow1Mstart">
      <path
         transform="matrix(0.4,0,0,0.4,4,0)"
         style="fill-rule:evenodd;stroke:#000000;stroke-width:1pt;marker-start:none"
         d="M 0,0 5,-5 -12.5,0 5,5 Z"
         id="path4230"
         inkscape:connector-curvature="0" />
    </marker>
    <marker
       style="overflow:visible"
       id="marker4236"
       refX="0"
       refY="0"
       orient="auto"
       inkscape:stockid="Arrow1Mend">
      <path
         transform="matrix(-0.4,0,0,-0.4,-4,0)"
         style="fill-rule:evenodd;stroke:#000000;stroke-width:1pt;marker-start:none"
         d="M 0,0 5,-5 -12.5,0 5,5 Z"
         id="path4234"
         inkscape:connector-curvature="0" />
    </marker>
    <marker
       style="overflow:visible"
       id="marker4240"
       refX="0"
       refY="0"
       orient="auto"
       inkscape:stockid="Arrow1Mstart">
      <path
         transform="matrix(0.4,0,0,0.4,4,0)"
         style="fill-rule:evenodd;stroke:#000000;stroke-width:1pt;marker-start:none"
         d="M 0,0 5,-5 -12.5,0 5,5 Z"
         id="path4238"
         inkscape:connector-curvature="0" />
    </marker>
    <marker
       style="overflow:visible"
       id="marker4244"
       refX="0"
       refY="0"
       orient="auto"
       inkscape:stockid="Arrow1Mend">
      <path
         transform="matrix(-0.4,0,0,-0.4,-4,0)"
         style="fill-rule:evenodd;stroke:#000000;stroke-width:1pt;marker-start:none"
         d="M 0,0 5,-5 -12.5,0 5,5 Z"
         id="path4242"
         inkscape:connector-curvature="0" />
    </marker>
    <marker
       style="overflow:visible"
       id="marker4248"
       refX="0"
       refY="0"
       orient="auto"
       inkscape:stockid="Arrow1Mstart">
      <path
         transform="matrix(0.4,0,0,0.4,4,0)"
         style="fill-rule:evenodd;stroke:#000000;stroke-width:1pt;marker-start:none"
         d="M 0,0 5,-5 -12.5,0 5,5 Z"
         id="path4246"
         inkscape:connector-curvature="0" />
    </marker>
    <marker
       style="overflow:visible"
       id="marker4252"
       refX="0"
       refY="0"
       orient="auto"
       inkscape:stockid="Arrow1Mend">
      <path
         transform="matrix(-0.4,0,0,-0.4,-4,0)"
         style="fill-rule:evenodd;stroke:#000000;stroke-width:1pt;marker-start:none"
         d="M 0,0 5,-5 -12.5,0 5,5 Z"
         id="path4250"
         inkscape:connector-curvature="0" />
    </marker>
    <marker
       style="overflow:visible"
       id="marker4256"
       refX="0"
       refY="0"
       orient="auto"
       inkscape:stockid="Arrow1Mstart">
      <path
         transform="matrix(0.4,0,0,0.4,4,0)"
         style="fill-rule:evenodd;stroke:#000000;stroke-width:1pt;marker-start:none"
         d="M 0,0 5,-5 -12.5,0 5,5 Z"
         id="path4254"
         inkscape:connector-curvature="0" />
    </marker>
    <marker
       style="overflow:visible"
       id="marker4260"
       refX="0"
       refY="0"
       orient="auto"
       inkscape:stockid="Arrow1Mend">
      <path
         transform="matrix(-0.4,0,0,-0.4,-4,0)"
         style="fill-rule:evenodd;stroke:#000000;stroke-width:1pt;marker-start:none"
         d="M 0,0 5,-5 -12.5,0 5,5 Z"
         id="path4258"
         inkscape:connector-curvature="0" />
    </marker>
    <marker
       style="overflow:visible"
       refX="0"
       refY="0"
       orient="auto"
       inkscape:stockid="Arrow1Mstart7096"
       id="Arrow1Mstart7096">
      <path
         transform="matrix(0.4,0,0,0.4,4,0)"
         style="fill:#204a87;fill-opacity:1;fill-rule:evenodd;stroke:#204a87;stroke-width:1pt;stroke-opacity:1;marker-start:none"
         d="M 0,0 5,-5 -12.5,0 5,5 Z"
         id="path1203"
         inkscape:connector-curvature="0" />
    </marker>
    <marker
       style="overflow:visible"
       refX="0"
       refY="0"
       orient="auto"
       inkscape:stockid="Arrow1Mend6095"
       id="Arrow1Mend6095">
      <path
         transform="matrix(-0.4,0,0,-0.4,-4,0)"
         style="fill:#204a87;fill-opacity:1;fill-rule:evenodd;stroke:#204a87;stroke-width:1pt;stroke-opacity:1;marker-start:none"
         d="M 0,0 5,-5 -12.5,0 5,5 Z"
         id="path1206"
         inkscape:connector-curvature="0" />
    </marker>
    <marker
       style="overflow:visible"
       refX="0"
       refY="0"
       orient="auto"
       inkscape:stockid="Arrow1Mstart1359"
       id="Arrow1Mstart1359">
      <path
         transform="matrix(0.4,0,0,0.4,4,0)"
         style="fill:#204a87;fill-opacity:1;fill-rule:evenodd;stroke:#204a87;stroke-width:1pt;stroke-opacity:1;marker-start:none"
         d="M 0,0 5,-5 -12.5,0 5,5 Z"
         id="path1209"
         inkscape:connector-curvature="0" />
    </marker>
    <marker
       style="overflow:visible"
       refX="0"
       refY="0"
       orient="auto"
       inkscape:stockid="Arrow1Mend9609"
       id="Arrow1Mend9609">
      <path
         transform="matrix(-0.4,0,0,-0.4,-4,0)"
         style="fill:#204a87;fill-opacity:1;fill-rule:evenodd;stroke:#204a87;stroke-width:1pt;stroke-opacity:1;marker-start:none"
         d="M 0,0 5,-5 -12.5,0 5,5 Z"
         id="path1212"
         inkscape:connector-curvature="0" />
    </marker>
    <marker
       style="overflow:visible"
       refX="0"
       refY="0"
       orient="auto"
       inkscape:stockid="Arrow1Mstart5715"
       id="Arrow1Mstart5715">
      <path
         transform="matrix(0.4,0,0,0.4,4,0)"
         style="fill:#204a87;fill-opacity:1;fill-rule:evenodd;stroke:#204a87;stroke-width:1pt;stroke-opacity:1;marker-start:none"
         d="M 0,0 5,-5 -12.5,0 5,5 Z"
         id="path1215"
         inkscape:connector-curvature="0" />
    </marker>
    <marker
       style="overflow:visible"
       refX="0"
       refY="0"
       orient="auto"
       inkscape:stockid="Arrow1Mend3922"
       id="Arrow1Mend3922">
      <path
         transform="matrix(-0.4,0,0,-0.4,-4,0)"
         style="fill:#204a87;fill-opacity:1;fill-rule:evenodd;stroke:#204a87;stroke-width:1pt;stroke-opacity:1;marker-start:none"
         d="M 0,0 5,-5 -12.5,0 5,5 Z"
         id="path1218"
         inkscape:connector-curvature="0" />
    </marker>
  </defs>
  <rect
     style="fill:#6a63f1;fill-opacity:0.130252;stroke:#00009a;stroke-width:1.99999;stroke-miterlimit:4;stroke-dasharray:none;stroke-dashoffset:0;stroke-opacity:1"
     id="rect6722"
     width="110.732"
     height="53.3679"
     x="2.21592"
     y="1.29817" />
  <path
     sodipodi:nodetypes="cc"
     id="path6687"
     d="M 109.736,53.9205 2.68362,4.47905"
     style="color:#000000;display:inline;overflow:visible;visibility:visible;fill:#f57900;stroke:#4e9a06;stroke-width:1.49999;stroke-linecap:butt;stroke-linejoin:miter;stroke-miterlimit:4;stroke-dasharray:8.99998, 1.49999;stroke-dashoffset:0;stroke-opacity:1;marker:none;marker-start:url(#Arrow1Mstartq9);marker-end:url(#Arrow1Mend3l);enable-background:accumulate"
     inkscape:connector-curvature="0" />
  <text
     id="text5697-4"
     y="28.5064"
     x="62.6694"
     style="font-style:normal;font-weight:normal;font-size:24px;font-family:Verdana;fill:#4e9a06;fill-opacity:1;stroke:none;stroke-width:0.599997"
     xml:space="preserve"
     transform="scale(0.998921,1.00108)"><tspan
       style="font-size:24px;stroke-width:0.599997"
       y="28.5064"
       x="62.6694"
       id="tspan5699-4"
       sodipodi:role="line">d</tspan></text>
  <path
     style="fill:none;stroke:#204a87;stroke-width:1.8;stroke-linecap:butt;stroke-linejoin:miter;stroke-miterlimit:4;stroke-dasharray:none;stroke-opacity:1;marker-start:url(#Arrow1Mstart5715);marker-end:url(#Arrow1Mend3922)"
     d="M 126.472,54.1125 V 3.54723"
     id="path6726"
     inkscape:connector-curvature="0" />
  <path
     style="fill:none;stroke:#204a87;stroke-width:1.8;stroke-linecap:butt;stroke-linejoin:miter;stroke-miterlimit:4;stroke-dasharray:none;stroke-opacity:1;marker-start:url(#Arrow1Mstart1359);marker-end:url(#Arrow1Mend9609)"
     d="M 6.89032,68.2197 H 107.428"
     id="path6728"
     inkscape:connector-curvature="0" />
  <text
     id="text6730"
     y="35.8192"
     x="134.099"
     style="font-style:normal;font-variant:normal;font-weight:normal;font-stretch:normal;font-size:24px;font-family:Verdana;-inkscape-font-specification:'Verdana, Normal';font-variant-ligatures:normal;font-variant-caps:normal;font-variant-numeric:normal;font-feature-settings:normal;text-align:start;writing-mode:lr-tb;text-anchor:start;fill:#204a87;fill-opacity:1;stroke:none;stroke-width:0.599997"
     xml:space="preserve"
     transform="scale(0.998921,1.00108)"><tspan
       style="font-style:normal;font-variant:normal;font-weight:normal;font-stretch:normal;font-size:24px;font-family:Verdana;-inkscape-font-specification:'Verdana, Normal';font-variant-ligatures:normal;font-variant-caps:normal;font-variant-numeric:normal;font-feature-settings:normal;text-align:start;writing-mode:lr-tb;text-anchor:start;fill:#204a87;stroke-width:0.599997"
       y="35.8192"
       x="134.099"
       id="tspan6732"
       sodipodi:role="line">b</tspan></text>
  <text
     id="text6734"
     y="88.6138"
     x="51.63"
     style="font-style:normal;font-variant:normal;font-weight:normal;font-stretch:normal;font-size:24px;font-family:Verdana;-inkscape-font-specification:'Verdana, Normal';font-variant-ligatures:normal;font-variant-caps:normal;font-variant-numeric:normal;font-feature-settings:normal;text-align:start;writing-mode:lr-tb;text-anchor:start;fill:#204a87;fill-opacity:1;stroke:none;stroke-width:0.599997"
     xml:space="preserve"
     transform="scale(0.998921,1.00108)"><tspan
       style="font-style:normal;font-variant:normal;font-weight:normal;font-stretch:normal;font-size:24px;font-family:Verdana;-inkscape-font-specification:'Verdana, Normal';font-variant-ligatures:normal;font-variant-caps:normal;font-variant-numeric:normal;font-feature-settings:normal;text-align:start;writing-mode:lr-tb;text-anchor:start;fill:#204a87;stroke-width:0.599997"
       y="88.6138"
       x="51.63"
       id="tspan6736"
       sodipodi:role="line">a</tspan></text>
  <path
     inkscape:connector-curvature="0"
     id="path6738"
     d="M 6.89032,68.2197 H 107.428"
     style="fill:none;stroke:#204a87;stroke-width:1.8;stroke-linecap:butt;stroke-linejoin:miter;stroke-miterlimit:4;stroke-dasharray:none;stroke-opacity:1;marker-start:url(#Arrow1Mstart7096);marker-end:url(#Arrow1Mend6095)" />
</svg>
