<?xml version="1.0" encoding="UTF-8" standalone="no"?>
<svg
   xmlns:dc="http://purl.org/dc/elements/1.1/"
   xmlns:cc="http://creativecommons.org/ns#"
   xmlns:rdf="http://www.w3.org/1999/02/22-rdf-syntax-ns#"
   xmlns:svg="http://www.w3.org/2000/svg"
   xmlns="http://www.w3.org/2000/svg"
   xmlns:sodipodi="http://sodipodi.sourceforge.net/DTD/sodipodi-0.dtd"
   xmlns:inkscape="http://www.inkscape.org/namespaces/inkscape"
   width="372.9"
   height="182.9"
   version="1.2"
   style="font-family:'Comic Sans MS';font-size:8.1px;stroke-width:0.83"
   id="svg182"
   sodipodi:docname="regular-polygon-graph.svg"
   inkscape:version="1.0.1 (3bc2e813f5, 2020-09-07)">
  <metadata
     id="metadata188">
    <rdf:RDF>
      <cc:Work
         rdf:about="">
        <dc:format>image/svg+xml</dc:format>
        <dc:type
           rdf:resource="http://purl.org/dc/dcmitype/StillImage" />
      </cc:Work>
    </rdf:RDF>
  </metadata>
  <defs
     id="defs186" />
  <sodipodi:namedview
     pagecolor="#ffffff"
     bordercolor="#666666"
     borderopacity="1"
     objecttolerance="10"
     gridtolerance="10"
     guidetolerance="10"
     inkscape:pageopacity="0"
     inkscape:pageshadow="2"
     inkscape:window-width="640"
     inkscape:window-height="480"
     id="namedview184"
     showgrid="false"
     inkscape:current-layer="svg182" />
  <rect
     x="27.2"
     y="5.3"
     width="344.9"
     height="164"
     style="fill:none;stroke-width:0.44"
     id="rect2" />
  <path
     style="fill:none;stroke:#19aeff;stroke-width:1.05;stroke-linejoin:round"
     d="M 199.7,169.3 H 27.2 V 5.3 H 372.1 V 169.3 Z"
     id="path4" />
  <path
     style="fill:none;stroke:#204a87;stroke-width:0.44;stroke-linejoin:round"
     d="M 372.1,145.9 H 27.2"
     id="path6" />
  <path
     style="fill:none;stroke:black;stroke-width:0.44;stroke-linejoin:round"
     d="M 372.1,122.4 H 27.2"
     id="path8" />
  <path
     style="fill:none;stroke:#204a87;stroke-width:0.44;stroke-linejoin:round"
     d="M 372.1,99 H 27.2"
     id="path10" />
  <path
     style="fill:none;stroke:#204a87;stroke-width:0.44;stroke-linejoin:round"
     d="M 372.1,75.6 H 27.2"
     id="path12" />
  <path
     style="fill:none;stroke:#204a87;stroke-width:0.44;stroke-linejoin:round"
     d="M 372.1,52.2 H 27.2"
     id="path14" />
  <path
     style="fill:none;stroke:#204a87;stroke-width:0.44;stroke-linejoin:round"
     d="M 372.1,28.7 H 27.2"
     id="path16" />
  <path
     style="fill:none;stroke:#204a87;stroke-width:0.44;stroke-linejoin:round"
     d="M 372.1,5.3 H 27.2"
     id="path18" />
  <rect
     x="27.2"
     y="5.3"
     width="0"
     height="164"
     style="fill:none;stroke:#ba00ff;stroke-width:0.44"
     id="rect20" />
  <path
     style="fill:none;stroke:#204a87;stroke-linejoin:round"
     d="m 33.9,173.8 v -6.9"
     id="path22" />
  <path
     style="fill:none;stroke:#204a87;stroke-linejoin:round"
     d="m 46.2,173.8 v -6.9"
     id="path24" />
  <path
     style="fill:none;stroke:#204a87;stroke-linejoin:round"
     d="m 58.5,173.8 v -6.9"
     id="path26" />
  <path
     style="fill:none;stroke:#204a87;stroke-linejoin:round"
     d="m 70.9,173.8 v -6.9"
     id="path28" />
  <path
     style="fill:none;stroke:#204a87;stroke-linejoin:round"
     d="m 83.2,173.8 v -6.9"
     id="path30" />
  <path
     style="fill:none;stroke:#204a87;stroke-linejoin:round"
     d="m 95.5,173.8 v -6.9"
     id="path32" />
  <path
     style="fill:none;stroke:#204a87;stroke-linejoin:round"
     d="m 107.8,173.8 v -6.9"
     id="path34" />
  <path
     style="fill:none;stroke:#204a87;stroke-linejoin:round"
     d="m 120.1,173.8 v -6.9"
     id="path36" />
  <path
     style="fill:none;stroke:#204a87;stroke-linejoin:round"
     d="m 132.4,173.8 v -6.9"
     id="path38" />
  <path
     style="fill:none;stroke:#204a87;stroke-linejoin:round"
     d="m 144.8,173.8 v -6.9"
     id="path40" />
  <path
     style="fill:none;stroke:#204a87;stroke-linejoin:round"
     d="m 157.1,173.8 v -6.9"
     id="path42" />
  <path
     style="fill:none;stroke:#204a87;stroke-linejoin:round"
     d="m 169.4,173.8 v -6.9"
     id="path44" />
  <path
     style="fill:none;stroke:#204a87;stroke-linejoin:round"
     d="m 181.7,173.8 v -6.9"
     id="path46" />
  <path
     style="fill:none;stroke:#204a87;stroke-linejoin:round"
     d="m 194,173.8 v -6.9"
     id="path48" />
  <path
     style="fill:none;stroke:#204a87;stroke-linejoin:round"
     d="m 206.4,173.8 v -6.9"
     id="path50" />
  <path
     style="fill:none;stroke:#204a87;stroke-linejoin:round"
     d="m 218.7,173.8 v -6.9"
     id="path52" />
  <path
     style="fill:none;stroke:#204a87;stroke-linejoin:round"
     d="m 231,173.8 v -6.9"
     id="path54" />
  <path
     style="fill:none;stroke:#204a87;stroke-linejoin:round"
     d="m 243.3,173.8 v -6.9"
     id="path56" />
  <path
     style="fill:none;stroke:#204a87;stroke-linejoin:round"
     d="m 255.6,173.8 v -6.9"
     id="path58" />
  <path
     style="fill:none;stroke:#204a87;stroke-linejoin:round"
     d="m 267.9,173.8 v -6.9"
     id="path60" />
  <path
     style="fill:none;stroke:#204a87;stroke-linejoin:round"
     d="m 280.3,173.8 v -6.9"
     id="path62" />
  <path
     style="fill:none;stroke:#204a87;stroke-linejoin:round"
     d="m 292.6,173.8 v -6.9"
     id="path64" />
  <path
     style="fill:none;stroke:#204a87;stroke-linejoin:round"
     d="m 304.9,173.8 v -6.9"
     id="path66" />
  <path
     style="fill:none;stroke:#204a87;stroke-linejoin:round"
     d="m 317.2,173.8 v -6.9"
     id="path68" />
  <path
     style="fill:none;stroke:#204a87;stroke-linejoin:round"
     d="m 329.5,173.8 v -6.9"
     id="path70" />
  <path
     style="fill:none;stroke:#204a87;stroke-linejoin:round"
     d="m 341.8,173.8 v -6.9"
     id="path72" />
  <path
     style="fill:none;stroke:#204a87;stroke-linejoin:round"
     d="m 354.2,173.8 v -6.9"
     id="path74" />
  <path
     style="fill:none;stroke:#204a87;stroke-linejoin:round"
     d="m 366.5,173.8 v -6.9"
     id="path76" />
  <path
     style="fill:none;stroke:#ba00ff;stroke-width:0.44;stroke-linejoin:round"
     d="m 25.1,145.9 h 2.2"
     id="path78" />
  <path
     style="fill:none;stroke:#ba00ff;stroke-width:0.44;stroke-linejoin:round"
     d="m 25.1,122.4 h 2.2"
     id="path80" />
  <path
     style="fill:none;stroke:#ba00ff;stroke-width:0.44;stroke-linejoin:round"
     d="m 25.1,99 h 2.2"
     id="path82" />
  <path
     style="fill:none;stroke:#ba00ff;stroke-width:0.44;stroke-linejoin:round"
     d="m 25.1,75.6 h 2.2"
     id="path84" />
  <path
     style="fill:none;stroke:#ba00ff;stroke-width:0.44;stroke-linejoin:round"
     d="m 25.1,52.2 h 2.2"
     id="path86" />
  <path
     style="fill:none;stroke:#ba00ff;stroke-width:0.44;stroke-linejoin:round"
     d="m 25.1,28.7 h 2.2"
     id="path88" />
  <path
     style="fill:none;stroke:#ba00ff;stroke-width:0.44;stroke-linejoin:round"
     d="m 25.1,5.3 h 2.2"
     id="path90" />
  <path
     style="fill:none;stroke:#ba00ff;stroke-width:0.44;stroke-linejoin:round"
     d="M 27.2,169.3 V 5.3"
     id="path92" />
  <path
     style="fill:none;stroke:#800080;stroke-width:1.65;stroke-linejoin:round"
     d="m 33.4,88.1 12.3,14.9 12.3,11.2 12.3,8.2 12.3,6.2 12.3,4.8 12.3,3.8 12.3,3.1 12.3,2.6 12.3,2.2 12.3,1.8 12.3,1.6 12.3,1.4 12.3,1.2 12.3,1.1 12.3,0.9 12.3,0.8 12.3,0.8 12.3,0.7 12.3,0.6 12.3,0.6 12.3,0.5 12.3,0.5 12.3,0.4 12.3,0.4 12.3,0.4 12.3,0.4 12.3,0.3"
     id="path94" />
  <path
     style="fill:none;stroke:#ff00ff;stroke-width:1.65;stroke-linejoin:round"
     d="M 33.4,108.4 45.7,75.6 58,57.9 70.3,47.6 l 12.3,-6.5 12.3,-4.3 12.3,-3 12.3,-2.2 12.3,-1.6 12.3,-1.3 12.3,-1 12.3,-0.8 12.3,-0.6 12.3,-0.5 12.3,-0.4 12.3,-0.4 12.3,-0.3 12.3,-0.3 12.3,-0.2 12.3,-0.2 12.3,-0.2 12.3,-0.2 12.3,-0.1 12.3,-0.1 12.3,-0.1 12.3,-0.1 12.3,-0 12.3,-0"
     id="path96" />
  <path
     style="fill:none;stroke:#ffcc00;stroke-width:1.65;stroke-linejoin:round"
     d="m 33.4,122.4 h 12.3 12.3 12.3 12.3 12.3 12.3 12.3 12.3 12.3 12.3 12.3 12.3 12.3 12.3 12.3 12.3 12.3 12.3 12.3 12.3 12.3 12.3 12.3 12.3 12.3 12.3 12.3"
     id="path98" />
  <path
     style="fill:none;stroke:#ff6600;stroke-width:1.65;stroke-linejoin:round"
     d="m 33.4,145.9 12.3,-9.7 12.3,-4.8 12.3,-2.7 12.3,-1.6 12.3,-1.1 12.3,-0.7 12.3,-0.5 12.3,-0.4 12.3,-0.3 12.3,-0.2 12.3,-0.2 12.3,-0.2 12.3,-0.1 12.3,-0.1 12.3,-0 12.3,-0 12.3,-0 12.3,-0 12.3,-0 12.3,-0 12.3,-0 12.3,-0 12.3,-0 12.3,-0 12.3,-0 12.3,-0 12.3,-0"
     id="path100" />
  <text
     x="-1"
     y="174.3"
     style="font-size:14.8px;font-style:italic;color:black;overflow:visible;fill:#204a87;stroke-width:1.01px;"
     id="text102">0.0</text>
  <text
     x="-0.8"
     y="152.2"
     style="font-size:14.8px;font-style:italic;color:black;overflow:visible;fill:#204a87;stroke-width:1.01px;"
     id="text104">0.5</text>
  <text
     x="2.7"
     y="128.8"
     style="font-size:14.8px;font-style:italic;color:black;overflow:visible;fill:#204a87;stroke-width:1.01px;"
     id="text106">1.0</text>
  <text
     x="2.4"
     y="105.3"
     style="font-size:14.8px;font-style:italic;color:black;overflow:visible;fill:#204a87;stroke-width:1.01px;"
     id="text108">1.5</text>
  <text
     x="-0.5"
     y="81.7"
     style="font-size:14.8px;font-style:italic;color:black;overflow:visible;fill:#204a87;stroke-width:1.01px;"
     id="text110">2.0</text>
  <text
     x="-0.8"
     y="58.2"
     style="font-size:14.8px;font-style:italic;color:black;overflow:visible;fill:#204a87;stroke-width:1.01px;"
     id="text112">2.5</text>
  <text
     x="-0.5"
     y="34.7"
     style="font-size:14.8px;font-style:italic;color:black;overflow:visible;fill:#204a87;stroke-width:1.01px;"
     id="text114">3.0</text>
  <text
     x="-0.8"
     y="11.2"
     style="font-size:14.8px;font-style:italic;color:black;overflow:visible;fill:#204a87;stroke-width:1.01px;"
     id="text116">3.5</text>
  <text
     x="244.6"
     y="19.2"
     style="font-size:17.5px;font-style:italic;color:black;overflow:visible;fill:#ff00ff;stroke-width:1.01px"
     id="text118">Area</text>
  <text
     x="69.9"
     y="117.7"
     style="font-size:17.5px;font-style:italic;color:black;overflow:visible;fill:#ffcc00;stroke-width:1.01px"
     id="text120">Radius</text>
  <text
     x="177.9"
     y="138.3"
     style="font-size:17.5px;font-style:italic;color:black;overflow:visible;fill:#ff6600;stroke-width:1.01px"
     id="text122">Apothem</text>
  <text
     x="299.4"
     y="154"
     style="font-size:17.5px;font-style:italic;color:black;overflow:visible;fill:#800080;stroke-width:1.01px"
     id="text124">Side</text>
  <text
     x="31"
     y="182.6"
     style="font-style:italic;color:black;overflow:visible;fill:#204a87;stroke-width:0.3px;"
     id="text126">3</text>
  <text
     x="43.4"
     y="182.7"
     style="font-style:italic;color:black;overflow:visible;fill:#204a87;stroke-width:0.3px;"
     id="text128">4</text>
  <text
     x="55.6"
     y="182.6"
     style="font-style:italic;color:black;overflow:visible;fill:#204a87;stroke-width:0.3px;"
     id="text130">5</text>
  <text
     x="68.1"
     y="182.6"
     style="font-style:italic;color:black;overflow:visible;fill:#204a87;stroke-width:0.3px;"
     id="text132">6</text>
  <text
     x="80"
     y="182.5"
     style="font-style:italic;color:black;overflow:visible;fill:#204a87;stroke-width:0.3px;"
     id="text134">7</text>
  <text
     x="92.8"
     y="182.6"
     style="font-style:italic;color:black;overflow:visible;fill:#204a87;stroke-width:0.3px;"
     id="text136">8</text>
  <text
     x="105"
     y="182.5"
     style="font-style:italic;color:black;overflow:visible;fill:#204a87;stroke-width:0.3px;"
     id="text138">9</text>
  <text
     x="116.1"
     y="182.6"
     style="font-style:italic;color:black;overflow:visible;fill:#204a87;stroke-width:0.3px;"
     id="text140">10</text>
  <text
     x="129.1"
     y="182.7"
     style="font-style:italic;color:black;overflow:visible;fill:#204a87;stroke-width:0.3px;"
     id="text142">11</text>
  <text
     x="140.8"
     y="182.7"
     style="font-style:italic;color:black;overflow:visible;fill:#204a87;stroke-width:0.3px;"
     id="text144">12</text>
  <text
     x="153.3"
     y="182.6"
     style="font-style:italic;color:black;overflow:visible;fill:#204a87;stroke-width:0.3px;"
     id="text146">13</text>
  <text
     x="165.6"
     y="182.7"
     style="font-style:italic;color:black;overflow:visible;fill:#204a87;stroke-width:0.3px;"
     id="text148">14</text>
  <text
     x="177.9"
     y="182.6"
     style="font-style:italic;color:black;overflow:visible;fill:#204a87;stroke-width:0.3px;"
     id="text150">15</text>
  <text
     x="190.4"
     y="182.6"
     style="font-style:italic;color:black;overflow:visible;fill:#204a87;stroke-width:0.3px;"
     id="text152">16</text>
  <text
     x="202.4"
     y="182.6"
     style="font-style:italic;color:black;overflow:visible;fill:#204a87;stroke-width:0.3px;"
     id="text154">17</text>
  <text
     x="215.1"
     y="182.6"
     style="font-style:italic;color:black;overflow:visible;fill:#204a87;stroke-width:0.3px;"
     id="text156">18</text>
  <text
     x="227.3"
     y="182.6"
     style="font-style:italic;color:black;overflow:visible;fill:#204a87;stroke-width:0.3px;"
     id="text158">19</text>
  <text
     x="239.2"
     y="182.6"
     style="font-style:italic;color:black;overflow:visible;fill:#204a87;stroke-width:0.3px;"
     id="text160">20</text>
  <text
     x="252.2"
     y="182.7"
     style="font-style:italic;color:black;overflow:visible;fill:#204a87;stroke-width:0.3px;"
     id="text162">21</text>
  <text
     x="263.9"
     y="182.7"
     style="font-style:italic;color:black;overflow:visible;fill:#204a87;stroke-width:0.3px;"
     id="text164">22</text>
  <text
     x="276.4"
     y="182.6"
     style="font-style:italic;color:black;overflow:visible;fill:#204a87;stroke-width:0.3px;"
     id="text166">23</text>
  <text
     x="288.7"
     y="182.7"
     style="font-style:italic;color:black;overflow:visible;fill:#204a87;stroke-width:0.3px;"
     id="text168">24</text>
  <text
     x="301"
     y="182.6"
     style="font-style:italic;color:black;overflow:visible;fill:#204a87;stroke-width:0.3px;"
     id="text170">25</text>
  <text
     x="313.5"
     y="182.6"
     style="font-style:italic;color:black;overflow:visible;fill:#204a87;stroke-width:0.3px;"
     id="text172">26</text>
  <text
     x="325.5"
     y="182.6"
     style="font-style:italic;color:black;overflow:visible;fill:#204a87;stroke-width:0.3px;"
     id="text174">27</text>
  <text
     x="338.2"
     y="182.6"
     style="font-style:italic;color:black;overflow:visible;fill:#204a87;stroke-width:0.3px;"
     id="text176">28</text>
  <text
     x="350.4"
     y="182.5"
     style="font-style:italic;color:black;overflow:visible;fill:#204a87;stroke-width:0.3px;"
     id="text178">29</text>
  <text
     x="362.8"
     y="182.6"
     style="font-style:italic;color:black;overflow:visible;fill:#204a87;stroke-width:0.3px;"
     id="text180">30</text>
</svg>
