<?xml version="1.0" encoding="UTF-8" standalone="no"?>
<!-- Copyright 2021 mathsisfun.com -->
<svg xmlns:sodipodi="http://sodipodi.sourceforge.net/DTD/sodipodi-0.dtd" xmlns="http://www.w3.org/2000/svg" xmlns:xlink="http://www.w3.org/1999/xlink" width="143.1" height="82.4" version="1.1" style="font-family:'Trebuchet MS'; font-size:24px; stroke-width:1pt; fill:#3465a4;">
<defs>
	<linearGradient id="aa1">
		<stop offset="0" style="stop-color:#939393; stop-opacity:1;"/>
		<stop offset="1" style="stop-color:black; stop-opacity:1;"/>
	</linearGradient>
	<marker id="aa5" style="overflow:visible;" orient="auto">
		<path transform="matrix(-0.4,0,0,-0.4,-4,0)" style="stroke:#3465a4;" d="M 0,0 5,-5 -12.5,0 5,5 Z"/>
	</marker>
	<marker id="aa4" style="overflow:visible;" orient="auto">
		<path transform="matrix(-0.4,0,0,-0.4,-4,0)" style="stroke:#3465a4;" d="M 0,0 5,-5 -12.5,0 5,5 Z"/>
	</marker>
	<marker id="aa3" style="overflow:visible;" orient="auto">
		<path transform="matrix(-0.4,0,0,-0.4,-4,0)" style="stroke:#3465a4;" d="M 0,0 5,-5 -12.5,0 5,5 Z"/>
	</marker>
	<marker id="aa2" style="overflow:visible;" orient="auto">
		<path transform="matrix(-0.4,0,0,-0.4,-4,0)" style="stroke:#3465a4;" d="M 0,0 5,-5 -12.5,0 5,5 Z"/>
	</marker>
</defs>
<g style="display:none;" transform="translate(603.045,-48.9084)">
	<image x="-1413.5" y="148.4" width="1305" height="787.4" xlink:href="../../Images/SVG/inkscape_pasted_image_20101001_094421.html"/>
</g>
<g transform="translate(603.045,-48.9084)">
	<polygon points="253,180.524 202,209.858 151,180.524 202,151.191 " style="fill:#8163f1; fill-opacity:0.09; stroke-width:2.13;" transform="matrix(1.40262,0,0,1.40465,-814.841,-163.462)"/>
	<text x="-494.6" y="126.3" style="stroke-width:0.6;">s</text>
	<text x="-494.6" y="67.2" style="stroke-width:0.6;">s</text>
	<text x="-577.7" y="67.7" style="stroke-width:0.6;">s</text>
	<text x="-577.7" y="126.8" style="stroke-width:0.6;">s</text>
	<path style="marker-end:url(#aa2); fill:none; stroke:#3465a4; stroke-width:1.8;" d="m -531.4,49.8 -66.4,38"/>
	<path style="marker-end:url(#aa3); fill:none; stroke:#3465a4; stroke-width:1.8;" d="m -600.9,90.2 66.4,38"/>
	<path style="marker-end:url(#aa4); fill:none; stroke:#3465a4; stroke-width:1.8;" d="m -531.4,130.1 66.4,-38"/>
	<path style="marker-end:url(#aa5); fill:none; stroke:#3465a4; stroke-width:1.8;" d="M -462.1,89.2 -528.6,51.2"/>
</g>
</svg>