<?xml version="1.0" encoding="UTF-8" standalone="no"?>
<!-- Copyright 2017 mathsisfun.com -->
<svg xmlns="http://www.w3.org/2000/svg" width="288.6" height="162" version="1.1" style="font-family:'Comic Sans MS'; font-size:20.4px; stroke-width:0.87;">
<defs>
	<marker id="id7" style="overflow:visible;" orient="auto">
		<path transform="matrix(0.4,0,0,0.4,4,0)" style="fill:#c17d11; stroke:#c17d11; stroke-width:1pt;" d="M 0,0 5,-5 -12.5,0 5,5 Z"/>
	</marker>
	<marker id="id8" style="overflow:visible;" orient="auto">
		<path transform="matrix(-0.4,0,0,-0.4,-4,0)" style="fill:#c17d11; stroke:#c17d11; stroke-width:1pt;" d="M 0,0 5,-5 -12.5,0 5,5 Z"/>
	</marker>
	<marker id="id6" style="overflow:visible;" orient="auto">
		<path transform="matrix(0.4,0,0,0.4,4,0)" style="fill:#c17d11; stroke:#c17d11; stroke-width:1pt;" d="M 0,0 5,-5 -12.5,0 5,5 Z"/>
	</marker>
	<marker id="id5" style="overflow:visible;" orient="auto">
		<path transform="matrix(-0.4,0,0,-0.4,-4,0)" style="fill:#c17d11; stroke:#c17d11; stroke-width:1pt;" d="M 0,0 5,-5 -12.5,0 5,5 Z"/>
	</marker>
	<marker id="id1" style="overflow:visible;" orient="auto">
		<path transform="matrix(0.4,0,0,0.4,4,0)" style="fill:#3465a4; stroke:#3465a4; stroke-width:1pt;" d="M 0,0 5,-5 -12.5,0 5,5 Z"/>
	</marker>
	<marker id="id2" style="overflow:visible;" orient="auto">
		<path transform="matrix(-0.4,0,0,-0.4,-4,0)" style="fill:#3465a4; stroke:#3465a4; stroke-width:1pt;" d="M 0,0 5,-5 -12.5,0 5,5 Z"/>
	</marker>
	<marker id="id4" style="overflow:visible;" orient="auto">
		<path transform="matrix(-0.4,0,0,-0.4,-4,0)" style="fill:#3465a4; stroke:#3465a4; stroke-width:1pt;" d="M 0,0 5,-5 -12.5,0 5,5 Z"/>
	</marker>
	<marker id="id3" style="overflow:visible;" orient="auto">
		<path transform="matrix(0.4,0,0,0.4,4,0)" style="fill:#3465a4; stroke:#3465a4; stroke-width:1pt;" d="M 0,0 5,-5 -12.5,0 5,5 Z"/>
	</marker>
	<marker style="overflow:visible;" orient="auto">
		<path transform="matrix(-0.4,0,0,-0.4,-4,0)" style="fill:black; stroke:black; stroke-width:1pt;" d="M 0,0 5,-5 -12.5,0 5,5 Z"/>
	</marker>
	<marker style="overflow:visible;" orient="auto">
		<path transform="matrix(-0.4,0,0,-0.4,-4,0)" style="fill:black; stroke:black; stroke-width:1pt;" d="M 0,0 5,-5 -12.5,0 5,5 Z"/>
	</marker>
	<marker style="overflow:visible;" orient="auto">
		<path transform="matrix(0.4,0,0,0.4,4,0)" style="fill:black; stroke:black; stroke-width:1pt;" d="M 0,0 5,-5 -12.5,0 5,5 Z"/>
	</marker>
	<marker style="overflow:visible;" orient="auto">
		<path transform="matrix(-0.4,0,0,-0.4,-4,0)" style="fill:black; stroke:black; stroke-width:1pt;" d="M 0,0 5,-5 -12.5,0 5,5 Z"/>
	</marker>
</defs>
<g transform="translate(633.461,-2702.79)">
	<path style="fill:none; stroke:#3465a4;" d="m -346.5,2863.1 v -44.4"/>
	<path style="marker-start:url(#id1); fill:none; stroke:#3465a4;" d="M -348.8,2856.7 H -470.7"/>
	<path style="marker-end:url(#id2); fill:none; stroke:#3465a4;" d="M -512.9,2856.7 H -621.2"/>
	<path style="fill:none; stroke:#3465a4;" d="m -623.3,2863.5 v -44.4"/>
	<path style="fill:none; stroke:black;" d="m -346.9,2749.1 -10,-46.2"/>
	<path style="marker-start:url(#id3); fill:none; stroke:#3465a4;" d="m -356.2,2716.4 -108.1,23.3"/>
	<path style="marker-end:url(#id4); fill:none; stroke:#3465a4;" d="m -507.4,2749.4 -120.8,26.3"/>
	<path style="fill:none; stroke:black;" d="m -622.9,2809.5 -10.1,-46.6"/>
	<path style="fill:#d0efff; stroke:#005c94; stroke-width:1.53;" d="m -623.1,2813.9 h 277.3 l 0.2,-59.6 z"/>
	<rect x="-364.7" y="2795" width="18.9" height="18.9" style="color:black; overflow:visible; fill:none; stroke:#3465a4; stroke-width:0.82;"/>
	<path style="fill:#ffc5c5; fill-opacity:0.47; stroke:#ff4747; stroke-width:2.48;" d="m -623.1,2813.9 170.8,-36.7 8,36.7 z"/>
	<rect x="-1039.5" y="2620.3" width="14" height="14" transform="rotate(-12.1241)" style="color:black; overflow:visible; fill:none; stroke:#c17d11; stroke-width:0.65;"/>
	<path style="marker-end:url(#id5); fill:none; stroke:#ff4747;" d="m -557.2,2782.6 -67.3,14.1"/>
	<path style="marker-start:url(#id6); fill:none; stroke:#ff4747;" d="m -457.2,2760.8 -67.5,14.1"/>
	<path style="fill:none; stroke:#ff4747;" d="m -452.6,2772.4 -4,-19.2"/>
	<path style="fill:#c17d11; stroke:#ff4747;" d="m -443.9,2846.6 v -28.7"/>
	<path style="marker-start:url(#id7); fill:#c17d11; stroke:#ff4747;" d="m -445.5,2832.3 h -78.3"/>
	<path style="marker-end:url(#id8); fill:#c17d11; stroke:#ff4747; stroke-width:0.85;" d="m -541.9,2832.3 h -79.9"/>
	<text x="-505.9" y="2749.7" style="font-style:italic; color:black; overflow:visible; fill:#3465a4; stroke-width:2.18px;">130</text>
	<text x="-554.2" y="2786.9" style="font-style:italic; color:black; overflow:visible; fill:#ff4747; stroke-width:2.18px;">80</text>
	<text x="-540.8" y="2840.6" style="font-size:27.6px; color:black; overflow:visible; fill:#ff4747; stroke-width:2.18px;">?</text>
	<text x="-506.7" y="2864.1" style="font-style:italic; color:black; overflow:visible; fill:#3465a4; stroke-width:2.18px;">127</text>
</g>
</svg>