<?xml version="1.0" encoding="UTF-8" standalone="no"?>
<svg
   xmlns:dc="http://purl.org/dc/elements/1.1/"
   xmlns:cc="http://creativecommons.org/ns#"
   xmlns:rdf="http://www.w3.org/1999/02/22-rdf-syntax-ns#"
   xmlns:svg="http://www.w3.org/2000/svg"
   xmlns="http://www.w3.org/2000/svg"
   xmlns:sodipodi="http://sodipodi.sourceforge.net/DTD/sodipodi-0.dtd"
   xmlns:inkscape="http://www.inkscape.org/namespaces/inkscape"
   width="130"
   height="80"
   version="1.1"
   style="stroke-width:1.2"
   id="svg44"
   sodipodi:docname="slope-neg.svg"
   inkscape:version="1.0.1 (3bc2e813f5, 2020-09-07)">
  <metadata
     id="metadata48">
    <rdf:RDF>
      <cc:Work
         rdf:about="">
        <dc:format>image/svg+xml</dc:format>
        <dc:type
           rdf:resource="http://purl.org/dc/dcmitype/StillImage" />
      </cc:Work>
    </rdf:RDF>
  </metadata>
  <sodipodi:namedview
     pagecolor="#ffffff"
     bordercolor="#666666"
     borderopacity="1"
     objecttolerance="10"
     gridtolerance="10"
     guidetolerance="10"
     inkscape:pageopacity="0"
     inkscape:pageshadow="2"
     inkscape:window-width="640"
     inkscape:window-height="480"
     id="namedview46"
     showgrid="false"
     inkscape:current-layer="svg44" />
  <defs
     id="defs2" />
  <ellipse
     cx="73.8"
     cy="-0.1"
     rx="10.4"
     ry="10.4"
     transform="matrix(0.884839,0.465897,-0.465764,0.884909,0,0)"
     style="color:black;overflow:visible;fill:none;stroke:#204a87"
     id="ellipse4" />
  <ellipse
     cx="107.2"
     cy="-0.1"
     rx="10.4"
     ry="10.4"
     transform="matrix(0.884839,0.465897,-0.465764,0.884909,0,0)"
     style="color:black;overflow:visible;fill:none;stroke:#005c94"
     id="ellipse6" />
  <path
     style="fill:none;stroke:#005c94"
     d="M 94.7,50 93.4,30.3"
     id="path8" />
  <path
     style="fill:none;stroke:#005c94"
     d="m 66.5,34.1 13.3,-1.7"
     id="path10" />
  <path
     style="fill:none;stroke:#005c94"
     d="M 93.2,31.8 79.4,40.4"
     id="path12" />
  <path
     style="fill:none;stroke:#005c94"
     d="M 92.9,31.4 80,29.4"
     id="path14" />
  <path
     style="fill:none;stroke:#005c94"
     d="M 79.9,19.8 79.7,39.8"
     id="path16" />
  <path
     style="fill:none;stroke:black;stroke-linecap:round"
     d="m 76.9,17.4 5,3.7"
     id="path18" />
  <path
     style="fill:none;stroke:black"
     d="m 92.8,31.3 1.5,-4"
     id="path20" />
  <path
     style="fill:none;stroke:#005c94;stroke-linecap:round;stroke-linejoin:round"
     d="m 92.5,26.4 4.8,3.2 0.7,-2 -5,-3.4"
     id="path22" />
  <ellipse
     cx="73.8"
     cy="-0.1"
     rx="2.1"
     ry="2.1"
     transform="matrix(0.884839,0.465897,-0.465764,0.884909,0,0)"
     style="color:black;overflow:visible;fill:#005c94"
     id="ellipse24" />
  <ellipse
     cx="107.2"
     cy="-0.1"
     rx="1.5"
     ry="1.5"
     transform="matrix(0.884839,0.465897,-0.465764,0.884909,0,0)"
     style="color:black;overflow:visible;fill:#005c94"
     id="ellipse26" />
  <path
     style="fill:none;stroke:#005c94"
     d="m 66.5,34.7 -0.9,3.4"
     id="path28" />
  <path
     style="fill:none;stroke:#005c94"
     d="M 80.3,39 C 75.9,39.4 74.2,40.5 65.3,38.2"
     id="path30" />
  <path
     style="fill:black;stroke:#005c94"
     d="m 92.4,3.1 c 0,0 -6,2.6 -6.3,2.9 -0.3,0.4 -7,6.9 -7.4,7.5 -0.4,0.5 -1.1,1.6 -0.7,3.9 0.5,2.4 6.5,9.6 6.5,9.6 l 4.9,3.9 2.6,10.2 2.1,4 5.2,-1.3 -2.7,-2.9 -3.1,-10.4 1.7,-0.8 -0.6,-3.8 -5.6,-7.9 0,-1.6 1.8,-1.4 c 3.5,3.3 8.7,2.4 13.4,2.6 l -0.8,-5.2 -2.6,3.1 c 0,0 -6.6,-1.5 -6.7,-2.2 -0.5,0.2 0.2,-2.9 0.2,-2.9 0,0 1.6,-0.5 2.2,-0.7 C 97.1,9.5 97.3,11.3 99.8,9.7 102.3,8.1 101.1,4 100.4,3.4 99.7,2.8 95.1,0.8 95.1,0.8 L 92.8,1.3 Z"
     id="path32" />
  <path
     style="fill:none;stroke:#005c94;stroke-width:0.4;stroke-miterlimit:4;stroke-dasharray:none"
     d="M 65.9,21.7 50.8,13.4"
     id="path34" />
  <path
     style="fill:none;stroke:#005c94;stroke-width:0.4;stroke-miterlimit:4;stroke-dasharray:none"
     d="M 57.9,19.4 46.3,13.1"
     id="path36" />
  <path
     style="fill:none;stroke:#005c94;stroke-width:0.4;stroke-miterlimit:4;stroke-dasharray:none"
     d="M 57,21.1 45.4,14.8"
     id="path38" />
  <path
     style="fill:#19aeff;stroke:black;stroke-width:1px"
     d="M -4.8,97.6 122.9,83.7 135.4,82.8 -7.2,7.9 -5.1,16.5 Z"
     id="path40" />
  <text
     x="45.3444"
     y="75.3548"
     transform="scale(0.99992,1.00008)"
     style="color:#000000;font-style:italic;font-variant:normal;font-weight:normal;font-stretch:normal;font-size:53.3333px;font-family:'Comic Sans MS';-inkscape-font-specification:'Comic Sans MS, Italic';font-variant-ligatures:normal;font-variant-caps:normal;font-variant-numeric:normal;font-variant-east-asian:normal;overflow:visible;fill:#ffffff;stroke-width:1px;"
     id="text42">-</text>
</svg>
