<?xml version="1.0" encoding="UTF-8" standalone="no"?>
<!-- Copyright 2021 mathsisfun.com -->
<svg xmlns:sodipodi="http://sodipodi.sourceforge.net/DTD/sodipodi-0.dtd" xmlns="http://www.w3.org/2000/svg" xmlns:xlink="http://www.w3.org/1999/xlink" width="131.2" height="129.4" version="1.1" style="font-family:'Trebuchet MS'; font-size:28px; stroke-width:1pt; fill:#f57900;">
<defs>
	<linearGradient id="aa1">
		<stop offset="0" style="stop-color:#939393; stop-opacity:1;"/>
		<stop offset="1" style="stop-color:black; stop-opacity:1;"/>
	</linearGradient>
	<marker id="aa5" style="overflow:visible;" orient="auto">
		<path transform="matrix(-0.4,0,0,-0.4,-4,0)" style="stroke:#f57900;" d="M 0,0 5,-5 -12.5,0 5,5 Z"/>
	</marker>
	<marker id="aa4" style="overflow:visible;" orient="auto">
		<path transform="matrix(-0.4,0,0,-0.4,-4,0)" style="stroke:#f57900;" d="M 0,0 5,-5 -12.5,0 5,5 Z"/>
	</marker>
	<marker id="aa3" style="overflow:visible;" orient="auto">
		<path transform="matrix(-0.4,0,0,-0.4,-4,0)" style="stroke:#f57900;" d="M 0,0 5,-5 -12.5,0 5,5 Z"/>
	</marker>
	<marker id="aa2" style="overflow:visible;" orient="auto">
		<path transform="matrix(-0.4,0,0,-0.4,-4,0)" style="stroke:#f57900;" d="M 0,0 5,-5 -12.5,0 5,5 Z"/>
	</marker>
</defs>
<g style="display:none;" transform="translate(491.339,429.395)">
	<image x="-1413.5" y="148.4" width="1305" height="787.4" xlink:href="../../Images/SVG/inkscape_pasted_image_20101001_094421.html"/>
</g>
<g transform="translate(491.339,429.395)">
	<rect x="-471.6" y="-410.8" width="94.1" height="91.6" style="fill:#8d66ff; fill-opacity:0.1; stroke-width:0.6;"/>
	<path style="marker-end:url(#aa2); fill:none; stroke:#f57900; stroke-width:1.8;" d="m -378.8,-320.2 c 0,-28.7 0,-57.4 0,-86.1"/>
	<path style="marker-end:url(#aa3); fill:none; stroke:#f57900; stroke-width:1.8;" d="m -379.3,-409.3 c -28.7,0 -57.4,0 -86.1,0"/>
	<path style="marker-end:url(#aa4); fill:none; stroke:#f57900; stroke-width:1.8;" d="m -469.2,-409.6 c 0,28.7 0,57.4 0,86.1"/>
	<path style="marker-end:url(#aa5); fill:none; stroke:#f57900; stroke-width:1.8;" d="m -469,-320.4 c 28.7,0 57.4,0 86.1,0"/>
	<text x="-373.7" y="-356.2" transform="scale(1.00019,0.999809)" style="stroke-width:0.6;">a</text>
	<text x="-430.7" y="-414.6" transform="scale(1.00019,0.999809)" style="stroke-width:0.6;">a</text>
	<g style="stroke-width:0.6;" transform="scale(1.00019,0.999809)">
		<path style="stroke-width:1;" d="m -482.2,-362 q -1.6,2 -4.8,2 -1.7,0 -3,-1.2 -1.3,-1.3 -1.3,-3.1 0,-2.2 1.9,-3.8 2,-1.5 5,-1.5 0.8,0 1.9,0.4 0,-3.6 -3.2,-3.6 -2.4,0 -3.7,1.3 l -1.1,-2.2 q 0.7,-0.6 2,-1 1.3,-0.4 2.5,-0.4 3.2,0 4.6,1.4 1.4,1.4 1.4,4.6 v 5.3 q 0,1.9 1.1,2.6 v 1.3 q -1.6,0 -2.4,-0.5 -0.8,-0.5 -1.1,-1.5 z m -0.2,-5.5 q -1.2,-0.3 -1.7,-0.3 -2,0 -3.2,1 -1.2,1 -1.2,2.4 0,2.3 2.7,2.3 2,0 3.5,-1.9 z"/>
	</g>
	<text x="-433" y="-300.3" transform="scale(1.00019,0.999809)" style="stroke-width:0.6;">a</text>
</g>
</svg>