<?xml version="1.0" encoding="UTF-8" standalone="no"?>
<!-- Created with Inkscape (http://www.inkscape.org/) -->

<svg
   xmlns:dc="http://purl.org/dc/elements/1.1/"
   xmlns:cc="http://creativecommons.org/ns#"
   xmlns:rdf="http://www.w3.org/1999/02/22-rdf-syntax-ns#"
   xmlns:svg="http://www.w3.org/2000/svg"
   xmlns="http://www.w3.org/2000/svg"
   xmlns:sodipodi="http://sodipodi.sourceforge.net/DTD/sodipodi-0.dtd"
   xmlns:inkscape="http://www.inkscape.org/namespaces/inkscape"
   width="500.40173"
   height="109.5536"
   id="svg2"
   sodipodi:version="0.32"
   inkscape:version="0.92.2 (5c3e80d, 2017-08-06)"
   sodipodi:docname="symmetry-folding-no.svg"
   inkscape:output_extension="org.inkscape.output.svg.inkscape"
   version="1.1">
  <defs
     id="defs4">
    <inkscape:perspective
       sodipodi:type="inkscape:persp3d"
       inkscape:vp_x="0 : 526.181 : 1"
       inkscape:vp_y="0 : 1000 : 0"
       inkscape:vp_z="744.094 : 526.181 : 1"
       inkscape:persp3d-origin="372.047 : 350.787 : 1"
       id="perspective2507" />
    <inkscape:perspective
       id="perspective3704"
       inkscape:persp3d-origin="372.047 : 350.787 : 1"
       inkscape:vp_z="744.094 : 526.181 : 1"
       inkscape:vp_y="0 : 1000 : 0"
       inkscape:vp_x="0 : 526.181 : 1"
       sodipodi:type="inkscape:persp3d" />
    <inkscape:perspective
       id="perspective3718"
       inkscape:persp3d-origin="0.5 : 0.333333 : 1"
       inkscape:vp_z="1 : 0.5 : 1"
       inkscape:vp_y="0 : 1000 : 0"
       inkscape:vp_x="0 : 0.5 : 1"
       sodipodi:type="inkscape:persp3d" />
    <inkscape:perspective
       id="perspective3718-7"
       inkscape:persp3d-origin="0.5 : 0.333333 : 1"
       inkscape:vp_z="1 : 0.5 : 1"
       inkscape:vp_y="0 : 1000 : 0"
       inkscape:vp_x="0 : 0.5 : 1"
       sodipodi:type="inkscape:persp3d" />
    <inkscape:perspective
       id="perspective3718-0"
       inkscape:persp3d-origin="0.5 : 0.333333 : 1"
       inkscape:vp_z="1 : 0.5 : 1"
       inkscape:vp_y="0 : 1000 : 0"
       inkscape:vp_x="0 : 0.5 : 1"
       sodipodi:type="inkscape:persp3d" />
    <inkscape:perspective
       id="perspective3718-4"
       inkscape:persp3d-origin="0.5 : 0.333333 : 1"
       inkscape:vp_z="1 : 0.5 : 1"
       inkscape:vp_y="0 : 1000 : 0"
       inkscape:vp_x="0 : 0.5 : 1"
       sodipodi:type="inkscape:persp3d" />
    <inkscape:perspective
       id="perspective3718-8"
       inkscape:persp3d-origin="0.5 : 0.333333 : 1"
       inkscape:vp_z="1 : 0.5 : 1"
       inkscape:vp_y="0 : 1000 : 0"
       inkscape:vp_x="0 : 0.5 : 1"
       sodipodi:type="inkscape:persp3d" />
    <inkscape:perspective
       id="perspective3718-45"
       inkscape:persp3d-origin="0.5 : 0.333333 : 1"
       inkscape:vp_z="1 : 0.5 : 1"
       inkscape:vp_y="0 : 1000 : 0"
       inkscape:vp_x="0 : 0.5 : 1"
       sodipodi:type="inkscape:persp3d" />
    <inkscape:perspective
       id="perspective3718-1"
       inkscape:persp3d-origin="0.5 : 0.333333 : 1"
       inkscape:vp_z="1 : 0.5 : 1"
       inkscape:vp_y="0 : 1000 : 0"
       inkscape:vp_x="0 : 0.5 : 1"
       sodipodi:type="inkscape:persp3d" />
    <inkscape:perspective
       id="perspective3794"
       inkscape:persp3d-origin="0.5 : 0.333333 : 1"
       inkscape:vp_z="1 : 0.5 : 1"
       inkscape:vp_y="0 : 1000 : 0"
       inkscape:vp_x="0 : 0.5 : 1"
       sodipodi:type="inkscape:persp3d" />
    <inkscape:perspective
       id="perspective7937"
       inkscape:persp3d-origin="0.5 : 0.333333 : 1"
       inkscape:vp_z="1 : 0.5 : 1"
       inkscape:vp_y="0 : 1000 : 0"
       inkscape:vp_x="0 : 0.5 : 1"
       sodipodi:type="inkscape:persp3d" />
    <inkscape:perspective
       id="perspective8042"
       inkscape:persp3d-origin="0.5 : 0.333333 : 1"
       inkscape:vp_z="1 : 0.5 : 1"
       inkscape:vp_y="0 : 1000 : 0"
       inkscape:vp_x="0 : 0.5 : 1"
       sodipodi:type="inkscape:persp3d" />
    <inkscape:perspective
       id="perspective8069"
       inkscape:persp3d-origin="0.5 : 0.333333 : 1"
       inkscape:vp_z="1 : 0.5 : 1"
       inkscape:vp_y="0 : 1000 : 0"
       inkscape:vp_x="0 : 0.5 : 1"
       sodipodi:type="inkscape:persp3d" />
    <inkscape:perspective
       id="perspective3561"
       inkscape:persp3d-origin="0.5 : 0.333333 : 1"
       inkscape:vp_z="1 : 0.5 : 1"
       inkscape:vp_y="0 : 1000 : 0"
       inkscape:vp_x="0 : 0.5 : 1"
       sodipodi:type="inkscape:persp3d" />
  </defs>
  <sodipodi:namedview
     id="base"
     pagecolor="#ffffff"
     bordercolor="#666666"
     borderopacity="1.0"
     gridtolerance="10000"
     guidetolerance="10"
     objecttolerance="10"
     inkscape:pageopacity="0.0"
     inkscape:pageshadow="2"
     inkscape:zoom="0.5"
     inkscape:cx="1418.7663"
     inkscape:cy="441.92015"
     inkscape:document-units="px"
     inkscape:current-layer="layer1"
     showborder="true"
     inkscape:window-width="1920"
     inkscape:window-height="1001"
     inkscape:window-x="1911"
     inkscape:window-y="-9"
     showgrid="false"
     inkscape:window-maximized="1"
     fit-margin-top="0"
     fit-margin-left="0"
     fit-margin-right="0"
     fit-margin-bottom="0" />
  <metadata
     id="metadata7">
    <rdf:RDF>
      <cc:Work
         rdf:about="">
        <dc:format>image/svg+xml</dc:format>
        <dc:type
           rdf:resource="http://purl.org/dc/dcmitype/StillImage" />
        <dc:title />
      </cc:Work>
    </rdf:RDF>
  </metadata>
  <g
     inkscape:label="Layer 1"
     inkscape:groupmode="layer"
     id="layer1"
     transform="translate(421.40372,-3314.1164)">
    <path
       sodipodi:type="star"
       style="color:#000000;display:inline;overflow:visible;visibility:visible;fill:#d76cff;stroke:none;stroke-width:0.85715199;marker:none;enable-background:accumulate"
       id="path8007"
       sodipodi:sides="4"
       sodipodi:cx="-1341.62"
       sodipodi:cy="2690.3799"
       sodipodi:r1="150.384"
       sodipodi:r2="130.237"
       sodipodi:arg1="1.0472"
       sodipodi:arg2="1.8326"
       inkscape:flatsided="true"
       inkscape:rounded="-4.02803e-015"
       inkscape:randomized="0"
       d="m -1266.4283,2820.6164 -205.4282,-55.0448 55.0448,-205.4283 205.4283,55.0449 z"
       transform="matrix(0.53211984,-0.07242677,0.14258113,0.27029998,-10.373775,2552.5656)" />
    <path
       style="fill:#ff6600;stroke:#804d00;stroke-width:1.82653546;stroke-linecap:butt;stroke-linejoin:miter;stroke-miterlimit:4;stroke-dasharray:7.30614196, 7.30614196;stroke-dashoffset:0;stroke-opacity:1"
       d="m -258.48305,3418.0531 -162.50837,-82.2215"
       id="path8013"
       inkscape:connector-curvature="0" />
    <path
       style="color:#000000;display:inline;overflow:visible;visibility:visible;fill:#d76cff;stroke:none;stroke-width:4.15200806;marker:none;enable-background:accumulate"
       d="m -148.43816,3347.9949 h 117.161459 v 59.5185 z"
       id="path8021"
       sodipodi:nodetypes="cccc"
       inkscape:connector-curvature="0" />
    <path
       id="path8023"
       d="m -182.74441,3329.7053 183.8881551,93.15"
       style="fill:#ff6600;stroke:#804d00;stroke-width:1.82653546;stroke-linecap:butt;stroke-linejoin:miter;stroke-miterlimit:4;stroke-dasharray:7.30614249, 7.30614249;stroke-dashoffset:0;stroke-opacity:1"
       inkscape:connector-curvature="0" />
    <path
       sodipodi:nodetypes="cccc"
       id="path8026"
       d="m -31.322937,3407.0352 -67.63082,-92.9188 -50.036823,34.3513 z"
       style="color:#000000;display:inline;overflow:visible;visibility:visible;fill:#f1caff;stroke:none;stroke-width:4.15200806;marker:none;enable-background:accumulate"
       inkscape:connector-curvature="0" />
    <g
       transform="matrix(0.37745269,-0.03762201,0.03873588,0.36659561,-387.66727,2057.772)"
       id="g8118">
      <path
         style="color:#000000;display:inline;overflow:visible;visibility:visible;fill:#ff9900;fill-opacity:1;fill-rule:nonzero;stroke:none;stroke-width:7.90241003;marker:none;enable-background:accumulate"
         id="path8120"
         d="m 22.0273,3605.74 c 1.1331,-0.15 2.195,-0.75 3.3131,-1.07 1.432,-0.37 2.805,-0.96 4.1912,-1.49 1.6239,-0.54 3.2419,-1.04 4.9095,-1.37 2.016,-0.54 4.0353,-1.07 6.0626,-1.56 1.9905,-0.39 3.9232,-1.03 5.9019,-1.49 1.9093,-0.39 3.8227,-0.81 5.7646,-0.88 1.9501,-0.1 3.9009,-0.13 5.8517,-0.19 1.9916,-0.1 3.9835,-0.1 5.9754,-0.14 2.0504,-0.12 4.0907,0 6.1368,0.16 1.9686,0.1 3.9238,0.2 5.881,0.43 1.8524,0.21 3.7099,0.35 5.5679,0.48 1.767,0.36 3.5705,0.43 5.3311,0.82 1.6687,0.27 3.3072,0.69 4.9634,1.04 1.7126,0.45 3.4054,0.98 5.1176,1.43 1.7111,0.51 3.3879,1.14 5.0909,1.68 1.703,0.6 3.362,1.35 5.038,2.04 1.679,0.77 3.375,1.47 5.025,2.31 1.634,0.77 3.217,1.66 4.861,2.4 1.614,0.83 3.201,1.73 4.815,2.57 1.56,0.85 3.197,1.48 4.795,2.23 1.629,0.62 3.227,1.34 4.858,1.96 1.51,0.55 3.063,0.93 4.621,1.26 1.607,0.33 3.228,0.56 4.851,0.76 1.672,0.21 3.35,0.35 5.028,0.47 1.666,0.1 3.338,-0.1 5.007,-0.1 1.6,-0.27 3.216,-0.39 4.83,-0.5 1.62,-0.25 3.213,-0.64 4.825,-0.94 1.521,-0.41 2.997,-0.97 4.515,-1.4 1.498,-0.55 3.014,-1.01 4.517,-1.54 1.463,-0.46 2.821,-1.24 4.273,-1.75 1.374,-0.65 2.684,-1.44 4.032,-2.15 0,0 -5.606,13.41 -5.606,13.41 v 0 c -1.448,0.75 -2.962,1.35 -4.474,1.9 -1.467,0.65 -2.97,1.15 -4.49,1.62 -1.557,0.5 -3.129,0.96 -4.696,1.43 -1.615,0.5 -3.266,0.85 -4.925,1.1 -1.734,0.33 -3.487,0.56 -5.245,0.64 -1.69,0.16 -3.384,0.37 -5.082,0.3 -1.804,0 -3.607,0 -5.402,-0.23 -1.754,-0.18 -3.507,-0.38 -5.25,-0.67 -1.749,-0.29 -3.494,-0.62 -5.213,-1.09 -1.734,-0.49 -3.452,-1.05 -5.122,-1.77 -1.667,-0.71 -3.355,-1.36 -4.999,-2.13 -1.702,-0.75 -3.362,-1.61 -5.016,-2.48 -1.542,-0.84 -3.095,-1.65 -4.67,-2.41 -1.619,-0.81 -3.236,-1.64 -4.875,-2.4 -1.601,-0.72 -3.2061,-1.43 -4.8241,-2.1 -1.5742,-0.65 -3.1694,-1.24 -4.784,-1.76 -1.6178,-0.56 -3.2522,-1.06 -4.8988,-1.5 -1.624,-0.46 -3.2584,-0.89 -4.9091,-1.22 -1.5897,-0.34 -3.1914,-0.61 -4.7935,-0.87 -1.6676,-0.16 -3.3214,-0.49 -4.996,-0.56 -1.8783,-0.16 -3.7542,-0.36 -5.6313,-0.54 -1.8956,-0.13 -3.7976,-0.15 -5.6944,-0.28 -1.9579,-0.1 -3.9133,0 -5.8715,0.1 -1.9721,0 -3.9442,0.1 -5.9155,0.18 -1.846,0.1 -3.6979,0.16 -5.5289,0.46 -1.7526,0.4 -3.5206,0.72 -5.2554,1.22 -1.9501,0.53 -3.9119,0.98 -5.8675,1.48 -2.0111,0.54 -4.0284,1.05 -6.0321,1.62 -1.517,0.53 -3.0314,1.07 -4.5308,1.65 -1.4298,0.51 -2.8961,0.89 -4.3188,1.42 -1.1252,0.44 -2.307,0.7 -3.4131,1.13 0,0 6.3801,-13.09 6.3801,-13.09 z"
         inkscape:connector-curvature="0" />
      <path
         style="color:#000000;display:inline;overflow:visible;visibility:visible;fill:#ff9900;fill-opacity:1;fill-rule:nonzero;stroke:none;stroke-width:7.90241003;marker:none;enable-background:accumulate"
         id="path8122"
         d="m 142.41,3588.83 c 0.829,0.84 1.62,1.72 2.482,2.51 1.05,1.09 2.136,2.12 3.206,3.18 1.185,1.12 2.339,2.29 3.533,3.4 1.173,1.09 2.23,2.33 3.435,3.38 1.099,1.04 2.168,2.12 3.322,3.08 1.068,1.03 2.196,1.97 3.431,2.74 1.293,0.86 2.635,1.64 4.012,2.32 1.315,0.86 2.732,1.46 4.177,1.98 1.434,0.49 2.906,0.82 4.38,1.11 1.523,0.3 3.06,0.47 4.587,0.73 1.295,0.19 2.368,0.9 3.262,1.94 1.286,1.75 1.681,3.85 1.137,6.01 -0.5,0.94 -1.2,1.6 -1.855,2.39 -3.759,3.15 -7.828,6.14 -12.27,7.86 -1.138,0.76 -2.388,1.35 -3.642,1.84 -1.241,0.79 -2.619,1.29 -3.957,1.83 -1.361,0.69 -2.82,1.13 -4.199,1.78 -1.537,0.49 -2.993,1.23 -4.491,1.85 -1.445,0.8 -2.888,1.62 -4.367,2.34 -1.426,0.86 -2.818,1.78 -4.246,2.63 22.223,-14.39 -0.846,0.65 -1.29,0.93 -2.818,1.8 5.605,-3.66 8.403,-5.5 0.225,-0.15 -0.458,0.28 -0.689,0.42 -0.981,0.59 -0.367,0.16 -1.329,0.91 -1.351,0.88 -2.541,2.02 -3.812,3.04 -1.166,1.07 -2.334,2.11 -3.425,3.28 0,0 -13.097,-0.94 -13.097,-0.94 v 0 c 1.264,-0.87 2.242,-2.13 3.428,-3.12 1.213,-1.29 2.565,-2.4 3.853,-3.59 0.703,-0.54 1.317,-1.22 2.049,-1.71 3.246,-2.16 6.545,-4.22 9.769,-6.42 0.464,-0.32 -25.385,16.57 1.442,-0.85 1.478,-0.91 3.02,-1.71 4.565,-2.46 1.522,-0.82 3.082,-1.57 4.682,-2.17 1.492,-0.65 3.029,-1.16 4.506,-1.86 1.395,-0.53 2.719,-1.28 4.108,-1.83 1.284,-0.64 2.546,-1.31 3.84,-1.91 1.143,-0.69 2.294,-1.36 3.476,-1.94 6.51,-4.71 -11.54,7.44 -6.428,4.23 0.588,-0.16 0.543,-0.36 0.998,-0.65 0.277,-0.17 0.601,0.15 0.774,-0.35 0.79,0.94 0.958,2.34 1.745,3.3 0.489,0.8 -0.819,0.24 -1.187,0.28 -1.609,-0.27 -3.218,-0.56 -4.804,-0.97 -1.681,-0.46 -3.352,-0.97 -4.959,-1.7 -1.546,-0.71 -3.038,-1.55 -4.532,-2.39 -1.504,-0.87 -3,-1.76 -4.42,-2.79 -1.318,-1.01 -2.568,-2.11 -3.805,-3.23 -1.154,-1.06 -2.286,-2.15 -3.425,-3.22 -1.162,-1.15 -2.284,-2.34 -3.475,-3.45 -1.18,-1.16 -2.38,-2.29 -3.564,-3.44 -1.07,-1.04 -2.122,-2.09 -3.189,-3.13 -0.8,-0.79 -1.59,-1.61 -2.457,-2.31 0,0 10.312,-9.36 10.312,-9.36 z"
         inkscape:connector-curvature="0" />
    </g>
    <g
       id="g8108"
       transform="matrix(0.52541035,0,0,0.52541035,-199.99385,1720.8621)" />
    <path
       style="color:#000000;display:inline;overflow:visible;visibility:visible;fill:#ff0000;fill-opacity:1;fill-rule:nonzero;stroke:none;stroke-width:0.47286931;marker:none;enable-background:accumulate"
       id="path8126"
       d="m 78.998,3363.7046 c -0.733998,0.1997 -1.432269,1.0771 -1.97134,1.6446 -0.97306,1.1191 -1.939815,2.2487 -2.922857,3.3574 -1.178496,1.282 -2.324416,2.5902 -3.480844,3.888 -1.150649,1.3818 -2.238248,2.8214 -3.421998,4.1717 -1.083396,1.3924 -2.315483,2.6481 -3.443539,4.0037 -1.184275,1.3765 -2.488343,2.6323 -3.72621,3.9563 -1.183224,1.3818 -2.485717,2.6481 -3.691533,4.0089 -1.08182,1.1717 -2.207249,2.296 -3.258595,3.494 -1.059228,1.0245 -1.985526,2.1804 -3.038448,3.2102 -0.468141,0.5517 -0.987772,1.0403 -1.46537,1.5815 0,0 -12.123318,-0.1944 -12.123318,-0.1944 v 0 c 0.515953,-0.4729 0.939959,-1.014 1.469047,-1.4711 0.975162,-1.1349 2.11215,-2.1017 3.045278,-3.2786 1.154852,-1.0876 2.184131,-2.3171 3.278036,-3.4677 1.277798,-1.2452 2.400599,-2.6481 3.704668,-3.8723 1.193207,-1.3766 2.409532,-2.7216 3.7136,-3.9878 1.209495,-1.2032 2.265044,-2.5693 3.445641,-3.804 1.121226,-1.3766 2.34228,-2.6691 3.429879,-4.0772 1.080244,-1.4396 2.248756,-2.8109 3.461929,-4.1297 0.974636,-1.0771 1.952425,-2.149 2.881876,-3.2628 0.650983,-0.8249 1.372897,-1.6078 1.914595,-2.5115 0,0 12.199503,0.7408 12.199503,0.7408 z"
       inkscape:connector-curvature="0" />
    <path
       style="color:#000000;display:inline;overflow:visible;visibility:visible;fill:#ff0000;fill-opacity:1;fill-rule:nonzero;stroke:none;stroke-width:0.47286931;marker:none;enable-background:accumulate"
       id="path8128"
       d="m 49.5808,3361.1984 c 0.456581,0.7461 0.98567,1.4397 1.507402,2.1385 0.72927,0.9299 1.43437,1.8757 2.200419,2.7794 0.840656,1.0035 1.598298,2.0753 2.348584,3.1419 0.658339,1.0193 1.360813,2.0124 2.059083,3.0054 0.659916,0.972 1.334542,1.944 2.069592,2.8635 0.689338,0.9247 1.440149,1.8021 2.1773,2.6901 0.734524,0.7986 1.564147,1.5131 2.402702,2.2067 0.896875,0.8301 1.853647,1.5972 2.742116,2.4379 0.900554,0.7303 1.77326,1.4974 2.682745,2.2172 0.897927,0.8144 1.878342,1.5395 2.805692,2.3276 0.993551,0.7829 2.031236,1.5132 3.011652,2.3171 0.779709,0.6042 1.445404,1.324 2.087455,2.0596 0,0 -9.27034,6.2051 -9.27034,6.2051 v 0 c -0.49914,-0.5255 -1.032431,-1.0193 -1.621942,-1.4502 -1.031906,-0.7828 -2.06749,-1.5657 -3.067345,-2.3853 -0.949417,-0.7566 -1.88097,-1.5342 -2.806743,-2.3171 -0.94784,-0.7986 -1.922476,-1.571 -2.833012,-2.4116 -0.886893,-0.7724 -1.771684,-1.55 -2.655949,-2.3276 -0.996704,-0.8879 -2.006017,-1.7706 -2.845623,-2.8057 -0.779709,-0.9195 -1.541554,-1.8599 -2.270298,-2.8214 -0.75554,-0.9931 -1.482183,-2.0071 -2.179402,-3.0422 -0.701423,-0.993 -1.394965,-1.9913 -2.058558,-3.0053 -0.687762,-0.972 -1.379202,-1.944 -2.155759,-2.853 -0.790742,-0.972 -1.561519,-1.9598 -2.334398,-2.9475 -0.564816,-0.7514 -1.114395,-1.508 -1.666601,-2.2646 0,0 9.671228,-5.7585 9.671228,-5.7585 z"
       inkscape:connector-curvature="0" />
  </g>
</svg>
