<?xml version="1.0" encoding="UTF-8" standalone="no"?>
<!-- Copyright 2017 mathsisfun.com -->
<svg xmlns="http://www.w3.org/2000/svg" xmlns:xlink="http://www.w3.org/1999/xlink" width="260.3" height="269.7" version="1.1">
<defs>
<radialGradient id="id3" r="7.31617" fx="-148.678" fy="769.068" cx="-148.7" cy="769.1" gradientTransform="matrix(3.9186,0,0,8.06943,-631.811,-5964.4)" xlink:href="#id1" gradientUnits="userSpaceOnUse"/>
<linearGradient id="id1">
<stop offset="0" style="stop-color:white; stop-opacity:0.69;"/>
<stop offset="1" style="stop-color:white; stop-opacity:0;"/>
</linearGradient>
<linearGradient id="id4" gradientTransform="matrix(1.18305,-0.591706,0.669326,1.33824,-1233.27,-493.144)" xlink:href="#id2" x1="-274.7" y1="828.9" x2="-173.3" y2="833.7" gradientUnits="userSpaceOnUse"/>
<linearGradient id="id2">
<stop offset="0" style="stop-color:#82b200; stop-opacity:0.74;"/>
<stop offset="1" style="stop-color:#82b200; stop-opacity:0.91;"/>
</linearGradient>
</defs>
<g transform="translate(1102.75,-662.617)">
<path style="fill:none; stroke:black; stroke-width:1px;" d="m -984.3,663.5 -117.4,71.7 164,81.2 94.3,-109.9 z"/>
<path style="fill:none; stroke:#0084c8; stroke-width:1px;" d="m -979.1,775.5 -85.7,74.4 -36.9,-114.7 117.4,-71.7 z"/>
<path style="fill:none; stroke:#0084c8; stroke-width:1px;" d="m -979.1,775.5 106.3,47.9 29.4,-117 -141,-43 z"/>
<path style="overflow:visible; fill:#19aeff; fill-opacity:0.56; stroke:black; stroke-width:1.19; stroke-linejoin:round;" d="m -1064.8,849.9 80.5,-186.4 111.6,159.9 z"/>
<path style="overflow:visible; fill:#ffe368; fill-opacity:0.76; stroke:black; stroke-width:1.19; stroke-linejoin:round;" d="m -1064.8,849.9 127.1,-33.5 -46.7,-152.9 z"/>
<ellipse cx="-1214.4" cy="241.5" rx="28.3" ry="58.4" transform="rotate(-26.5721)" style="color:black; overflow:visible; fill:url(#id3); stroke-width:1.2;"/>
<path style="overflow:visible; fill:url(#id4); stroke:black; stroke-width:1.19; stroke-linejoin:round;" d="m -937.7,816.4 64.9,7 -111.6,-159.9 z"/>
<path style="overflow:visible; fill:#82b200; fill-opacity:0.83; stroke:black; stroke-width:1.19; stroke-linejoin:round;" d="m -1064.8,849.9 192,-26.5 -64.9,-7 z"/>
<path style="fill:none; stroke:#0084c8; stroke-width:1px;" d="m -1101.7,735.1 164,81.2 -7.5,114.1 -119.6,-80.6 z"/>
<path style="fill:none; stroke:#0084c8; stroke-width:1px;" d="m -843.3,706.4 -94.3,109.9 -7.5,114.1 72.4,-107.1 z"/>
</g>
</svg>
