<?xml version="1.0" encoding="UTF-8" standalone="no"?>
<!-- Copyright 2017 mathsisfun.com -->
<svg xmlns="http://www.w3.org/2000/svg" width="354" height="169.8" version="1.1">
<defs>
<filter id="id1" x="-0.154142" y="-0.242237" width="1.30828" height="1.48447">
<feGaussianBlur stdDeviation="16.489311"/>
</filter>
<filter id="id2" x="-0.383075" y="-0.332406" width="1.76615" height="1.66481">
<feGaussianBlur stdDeviation="47.169618"/>
</filter>
<filter id="id3" x="-0.0730535" y="-0.114805" width="1.14611" height="1.22961">
<feGaussianBlur stdDeviation="7.8148833"/>
</filter>
</defs>
<g transform="matrix(0.400209,0,0,0.400209,-30.436,-82.713)">
<ellipse cx="623.5" cy="154.9" rx="189" ry="138.3" transform="translate(-263.497,290.873)" style="color:black; overflow:visible; fill:#313a7a; stroke-width:7.5;"/>
<ellipse cx="623.5" cy="154.9" rx="87.3" ry="54.9" transform="matrix(1.11562,0,0,0.919617,-336.846,310.264)" style="color:black; overflow:visible; fill:white; stroke-width:73.44;"/>
<ellipse cx="87.6" cy="433.6" rx="128.4" ry="81.7" transform="matrix(1,0,0,0.976159,271.202,-8.33109)" style="color:black; overflow:visible; fill:none; stroke:#313a7a; stroke-width:30;"/>
<ellipse cx="87.6" cy="433.6" rx="128.4" ry="81.7" transform="matrix(1.05828,0,0,1,267.271,-13.0483)" style="color:black; overflow:visible; fill:none; filter:url(#id1); stroke:white; stroke-width:30;"/>
<circle cx="194.2" cy="166.9" r="150.408" transform="matrix(0.240561,0.049058,-0.017294,0.084806,253.6,513.266)" style="color:black; overflow:visible; opacity:0.81; fill:white; filter:url(#id2); stroke-width:73.44;"/>
<ellipse cx="87.6" cy="433.6" rx="128.4" ry="81.7" transform="matrix(1.06692,0,0,0.987547,263.253,-16.9105)" style="color:black; overflow:visible; fill:none; filter:url(#id3); stroke:white; stroke-width:9.14;"/>
<circle cx="194.2" cy="166.9" r="150.408" transform="matrix(0.178176,0.020009,-0.007054,0.062813,338.157,361.16)" style="color:black; overflow:visible; opacity:0.81; fill:white; filter:url(#id2); stroke-width:73.44;"/>
</g>
<path style="fill:#52c2ff; fill-opacity:0.64; stroke-width:0.2;" d="m 210,103.7 -25,10 c 0.3,0 8.8,-16.4 0.9,-34.2 -7.2,-16.2 -18.2,-22.2 -21.1,-24.5 -2.9,-2.2 -11.4,-2.8 -20.8,7.7 -9.4,10.6 -5,21.9 -3.6,21.3 0,0 5.3,2.9 8,6 2.6,3 3.8,6.6 3.2,6.6 0.2,-0.1 -10.7,11.5 -32.2,12.6 -21.5,1.1 -34.8,-5.5 -34.8,-5.5 -1.1,-1.8 -11.4,-0.6 -20.4,8.4 -9,9 -4.8,22.1 -4.8,22.1 0,0 10.4,7.2 18.2,10.2 7.8,3.1 18.1,4.9 18.1,4.9 l -55.8,20.4 -39.8,-115.3 181.8,-54.4 z"/>
<circle cx="251.8" cy="21.3" r="13.1853" style="color:black; overflow:visible; fill:#ff4141; stroke:black; stroke-width:0.56;"/>
<circle cx="329.6" cy="21.3" r="13.1853" style="color:black; overflow:visible; fill:#ff4141; stroke:black; stroke-width:0.56;"/>
<ellipse cx="-31.7" cy="134.8" rx="19.4" ry="10.9" transform="matrix(0.68279,-0.730615,0.701844,0.71233,0,0)" style="color:black; overflow:visible; fill:#ff4141; fill-opacity:0.65; stroke:black; stroke-width:0.46;"/>
<ellipse cx="63.1" cy="160.3" rx="18.8" ry="10.6" transform="matrix(0.668806,-0.743437,0.68816,0.725559,0,0)" style="color:black; overflow:visible; fill:#ff4141; fill-opacity:0.65; stroke:black; stroke-width:0.46;"/>
<g transform="matrix(0.457247,0,0,0.507972,954.614,-208.541)">
<path style="color:black; overflow:visible; fill:#808a45; stroke-width:0.9;" d="m -1601.3,457.2 c -0.4,0 -0.9,0.1 -1.4,0.2 -1,0 -1.9,0.3 -2.9,0.4 -1.4,0.3 -2.7,0.5 -4.1,0.8 -1.7,0.4 -3.4,0.8 -5.1,1.2 -2.3,0.6 -4.7,1.2 -7,1.8 -2.8,0.7 -5.5,1.5 -8.3,2.3 -2.9,0.8 -5.8,1.7 -8.6,2.6 -3,1 -6,2 -9,3.1 -3.2,1.2 -6.3,2.4 -9.5,3.7 -3.2,1.3 -6.4,2.7 -9.6,4.1 -3.1,1.3 -6.1,2.8 -9.1,4.2 -2.8,1.3 -5.5,2.8 -8.2,4.3 -0.4,0.2 -0.9,0.5 -1.3,0.7 -0.8,0.5 -1.7,0.9 -2.5,1.4 -0.4,0.2 -1.6,0.9 -1.2,0.7 2.1,-1.2 5.1,-2.9 2.2,-1.3 -2.2,1.3 -4.3,2.6 -6.4,4 -1.8,1.2 -3.5,2.4 -5.2,3.7 -1.4,1 -2.8,2.1 -4.1,3.2 -0.8,0.6 -1.6,1.3 -2.4,1.9 0,0 -8.4,-3.2 -8.4,-3.2 v 0 c 0.8,-0.5 1.6,-1 2.3,-1.6 1.4,-1.1 2.8,-2.2 4.2,-3.3 1.7,-1.3 3.5,-2.6 5.3,-3.9 2.2,-1.5 4.3,-3 6.6,-4.4 4,-2.4 8,-4.7 12.2,-6.9 2.8,-1.5 5.6,-2.9 8.4,-4.2 3.1,-1.4 6.1,-2.9 9.3,-4.2 3.2,-1.4 6.5,-2.8 9.8,-4.1 3.2,-1.3 6.4,-2.5 9.7,-3.7 3.1,-1.1 6.1,-2.1 9.2,-3.1 2.9,-0.9 5.8,-1.8 8.8,-2.6 2.8,-0.8 5.6,-1.5 8.4,-2.2 2.4,-0.6 4.7,-1.2 7.1,-1.8 1.7,-0.4 3.5,-0.8 5.2,-1.1 1.5,-0.3 2.9,-0.6 4.4,-0.8 1.1,-0.1 2.1,-0.3 3.2,-0.3 0.6,0 1.2,0 1.8,0 0,0 -3.7,8.2 -3.7,8.2 z"/>
<path style="color:black; overflow:visible; fill:#808a45; stroke-width:0.9;" d="m -1708.1,481.9 c 0.2,0.4 0.3,0.7 0.4,1.1 0.2,0.5 0.3,1.1 0.4,1.6 0.2,0.6 0.2,1.3 0.3,1.9 0.1,0.6 0.1,1.3 0,1.9 0,0.7 0,1.3 -0.1,2 -0.1,0.7 -0.1,1.4 -0.3,2.1 -0.1,0.8 -0.2,1.5 -0.4,2.3 -0.2,0.7 -0.4,1.4 -0.7,2.1 -0.3,0.6 -0.4,1.3 -0.7,1.9 -0.2,0.6 -0.5,1.2 -0.8,1.8 -0.3,0.6 -0.6,1.2 -0.8,1.7 -0.3,0.6 -0.7,1.2 -1,1.8 -0.4,0.5 -0.7,1 -1.1,1.5 -0.4,0.5 -0.7,0.9 -1.1,1.4 -0.4,0.5 -0.8,1 -1.2,1.5 -0.5,0.5 -0.9,1 -1.4,1.5 -0.5,0.4 -1,0.9 -1.6,1.3 -0.3,0.3 -0.7,0.5 -1.1,0.8 -0.3,0.2 -0.5,0.6 -0.3,0 -4.5,-7.4 -1.5,-7 -8.1,-3.3 0,0 0.1,0 0.1,0 0.1,0 -0.1,0.2 0.1,0 0.1,0.2 0,0 0.1,0 0,0 0,0 0,0 0.1,0 0.3,-0.3 0.4,-0.4 0.3,-0.1 0.5,-0.3 0.7,-0.5 0.3,-0.3 0.6,-0.4 0.9,-0.7 0.4,-0.3 0.7,-0.6 1.1,-0.9 0.4,-0.4 0.9,-0.7 1.3,-1 0.5,-0.4 0.9,-0.8 1.4,-1.2 0.5,-0.4 1.1,-0.8 1.6,-1.2 2,-1.4 4.2,-2.4 6.3,-3.7 0.7,-0.3 1.3,-0.6 2,-0.9 0.7,-0.3 1.4,-0.6 2.1,-0.9 0.8,-0.3 1.6,-0.6 2.3,-0.8 0.8,-0.3 1.6,-0.5 2.4,-0.8 0.8,-0.3 1.6,-0.5 2.4,-0.7 0.8,-0.2 1.6,-0.4 2.3,-0.6 0.8,-0.2 1.7,-0.4 2.5,-0.5 0.9,-0.2 1.7,-0.3 2.6,-0.4 0.8,-0.1 1.7,-0.2 2.5,-0.3 0.8,0 1.6,-0.2 2.5,-0.2 0.8,0 1.6,-0.1 2.4,-0.2 0.4,0 0.7,0 1.1,0 0,0 -3.3,8.4 -3.3,8.4 v 0 c -0.3,0 -0.7,0 -1,0 -0.8,0 -1.5,0.1 -2.3,0.2 -0.8,0 -1.5,0.2 -2.3,0.3 -0.8,0.1 -1.6,0.2 -2.4,0.4 -0.8,0.1 -1.6,0.3 -2.3,0.5 -0.8,0.2 -1.5,0.4 -2.3,0.6 -0.7,0.2 -1.5,0.4 -2.2,0.6 -0.7,0.2 -1.5,0.5 -2.2,0.7 -0.7,0.3 -1.5,0.5 -2.2,0.8 -0.7,0.3 -1.4,0.6 -2,0.9 -0.6,0.3 -1.3,0.6 -2,0.9 -0.6,0.3 -1.1,0.6 -1.6,0.9 -0.6,0.3 0,0 -0.5,0.3 -0.1,0 -0.4,0.2 -0.3,0.2 7.5,-4.4 5.4,-3.1 3.8,-2.2 -0.5,0.2 -1,0.5 -1.4,0.8 -0.4,0.3 -0.9,0.6 -1.3,0.9 -0.4,0.4 -0.9,0.7 -1.3,1 -0.4,0.3 -0.8,0.6 -1.1,0.9 -0.4,0.2 -0.6,0.6 -0.9,0.8 -0.3,0.2 -0.5,0.5 -0.8,0.7 -0.3,0 -0.5,0.4 -0.6,0.5 -0.2,0 -0.2,0.2 -0.3,0.3 -6.9,3.8 -3.9,4.3 -8.7,-3 0,0 0.1,-0.4 0.2,-0.4 0,0 0,0.1 0,0 0,0 0.1,0 0.1,-0.1 0,0 0.1,0 0.1,0 0.3,-0.2 0.7,-0.5 1,-0.7 0.5,-0.3 1,-0.6 1.5,-1 0.4,-0.3 0.9,-0.6 1.3,-1 0.4,-0.4 0.8,-0.7 1.1,-1.1 0.3,-0.4 0.7,-0.8 1.1,-1.3 0.3,-0.4 0.8,-0.8 1.1,-1.3 0.4,-0.3 0.6,-0.7 0.9,-1.1 0.3,-0.4 0.6,-0.9 0.8,-1.4 0.3,-0.5 0.5,-1 0.8,-1.5 0.2,-0.6 0.5,-1.1 0.7,-1.7 0.3,-0.6 0.4,-1.2 0.7,-1.8 0.2,-0.5 0.4,-1.1 0.5,-1.6 0.1,-0.6 0.2,-1.2 0.3,-1.7 0.1,-0.5 0.1,-1.1 0.2,-1.6 0,-0.5 0.1,-1 0.1,-1.5 0,-0.4 0,-0.8 -0.1,-1.2 -0.1,-0.4 -0.1,-0.7 -0.2,-1.1 -0.1,-0.3 -0.2,-0.5 -0.3,-0.8 0,0 8.1,-3.8 8.1,-3.8 z"/>
</g>
<text x="288.3" y="62.5" style="font-family:'Comic Sans MS'; text-align:center; text-anchor:middle; font-size:21.6px; overflow:visible; fill:#fd3301; stroke-width:2.65;">Cross</text>
<text x="288" y="84.5" style="font-family:'Comic Sans MS'; text-align:center; text-anchor:middle; font-size:21.6px; overflow:visible; fill:#fd3301; stroke-width:2.65;">Section</text>
</svg>
