<?xml version="1.0" encoding="UTF-8" standalone="no"?>
<!-- Copyright 2017 mathsisfun.com -->

<svg
   width="203.893"
   height="203.893"
   version="1.1"
   style="font-size:24px;font-family:'Comic Sans MS';fill:#000000;stroke-width:1.37px"
   id="svg60"
   sodipodi:docname="translation.svg"
   inkscape:version="1.1 (c68e22c387, 2021-05-23)"
   xmlns:inkscape="http://www.inkscape.org/namespaces/inkscape"
   xmlns:sodipodi="http://sodipodi.sourceforge.net/DTD/sodipodi-0.dtd"
   xmlns:xlink="http://www.w3.org/1999/xlink"
   xmlns="http://www.w3.org/2000/svg"
   xmlns:svg="http://www.w3.org/2000/svg"
   xmlns:rdf="http://www.w3.org/1999/02/22-rdf-syntax-ns#"
   xmlns:cc="http://creativecommons.org/ns#"
   xmlns:dc="http://purl.org/dc/elements/1.1/">
  <metadata
     id="metadata64">
    <rdf:RDF>
      <cc:Work
         rdf:about="">
        <dc:format>image/svg+xml</dc:format>
        <dc:type
           rdf:resource="http://purl.org/dc/dcmitype/StillImage" />
        <dc:title />
      </cc:Work>
    </rdf:RDF>
  </metadata>
  <sodipodi:namedview
     pagecolor="#ffffff"
     bordercolor="#666666"
     borderopacity="1"
     objecttolerance="10"
     gridtolerance="10"
     guidetolerance="10"
     inkscape:pageopacity="0"
     inkscape:pageshadow="2"
     inkscape:window-width="640"
     inkscape:window-height="480"
     id="namedview62"
     showgrid="false"
     inkscape:current-layer="svg60"
     inkscape:pagecheckerboard="0" />
  <defs
     id="defs32">
    <marker
       inkscape:isstock="true"
       style="overflow:visible"
       id="marker26436"
       refX="0.0"
       refY="0.0"
       orient="auto"
       inkscape:stockid="Arrow1Lend">
      <path
         transform="scale(0.8) rotate(180) translate(12.5,0)"
         style="fill-rule:evenodd;stroke:#000000;stroke-width:1pt;stroke-opacity:1;fill:#000000;fill-opacity:1"
         d="M 0.0,0.0 L 5.0,-5.0 L -12.5,0.0 L 5.0,5.0 L 0.0,0.0 z "
         id="path26434" />
    </marker>
    <marker
       inkscape:isstock="true"
       style="overflow:visible"
       id="marker26420"
       refX="0.0"
       refY="0.0"
       orient="auto"
       inkscape:stockid="Arrow1Lend">
      <path
         transform="scale(0.8) rotate(180) translate(12.5,0)"
         style="fill-rule:evenodd;stroke:#000000;stroke-width:1pt;stroke-opacity:1;fill:#000000;fill-opacity:1"
         d="M 0.0,0.0 L 5.0,-5.0 L -12.5,0.0 L 5.0,5.0 L 0.0,0.0 z "
         id="path26418" />
    </marker>
    <marker
       inkscape:isstock="true"
       style="overflow:visible"
       id="marker26222"
       refX="0.0"
       refY="0.0"
       orient="auto"
       inkscape:stockid="Arrow1Mend">
      <path
         transform="scale(0.4) rotate(180) translate(10,0)"
         style="fill-rule:evenodd;stroke:#000000;stroke-width:1pt;stroke-opacity:1;fill:#000000;fill-opacity:1"
         d="M 0.0,0.0 L 5.0,-5.0 L -12.5,0.0 L 5.0,5.0 L 0.0,0.0 z "
         id="path26220" />
    </marker>
    <marker
       inkscape:isstock="true"
       style="overflow:visible"
       id="marker26206"
       refX="0.0"
       refY="0.0"
       orient="auto"
       inkscape:stockid="Arrow1Mend">
      <path
         transform="scale(0.4) rotate(180) translate(10,0)"
         style="fill-rule:evenodd;stroke:#000000;stroke-width:1pt;stroke-opacity:1;fill:#000000;fill-opacity:1"
         d="M 0.0,0.0 L 5.0,-5.0 L -12.5,0.0 L 5.0,5.0 L 0.0,0.0 z "
         id="path26204" />
    </marker>
    <marker
       inkscape:isstock="true"
       style="overflow:visible"
       id="marker1715"
       refX="0"
       refY="0"
       orient="auto"
       inkscape:stockid="DotM">
      <path
         transform="matrix(0.4,0,0,0.4,2.96,0.4)"
         style="fill:#000000;fill-opacity:1;fill-rule:evenodd;stroke:#000000;stroke-width:1pt;stroke-opacity:1"
         d="m -2.5,-1 c 0,2.76 -2.24,5 -5,5 -2.76,0 -5,-2.24 -5,-5 0,-2.76 2.24,-5 5,-5 2.76,0 5,2.24 5,5 z"
         id="path1713"
         inkscape:connector-curvature="0" />
    </marker>
    <marker
       inkscape:isstock="true"
       style="overflow:visible"
       id="marker1630"
       refX="0"
       refY="0"
       orient="auto"
       inkscape:stockid="DotM">
      <path
         transform="matrix(0.4,0,0,0.4,2.96,0.4)"
         style="fill:#000000;fill-opacity:1;fill-rule:evenodd;stroke:#000000;stroke-width:1pt;stroke-opacity:1"
         d="m -2.5,-1 c 0,2.76 -2.24,5 -5,5 -2.76,0 -5,-2.24 -5,-5 0,-2.76 2.24,-5 5,-5 2.76,0 5,2.24 5,5 z"
         id="path1628"
         inkscape:connector-curvature="0" />
    </marker>
    <marker
       inkscape:isstock="true"
       style="overflow:visible"
       id="marker1478"
       refX="0"
       refY="0"
       orient="auto"
       inkscape:stockid="DotM">
      <path
         transform="matrix(0.4,0,0,0.4,2.96,0.4)"
         style="fill:#000000;fill-opacity:1;fill-rule:evenodd;stroke:#000000;stroke-width:1pt;stroke-opacity:1"
         d="m -2.5,-1 c 0,2.76 -2.24,5 -5,5 -2.76,0 -5,-2.24 -5,-5 0,-2.76 2.24,-5 5,-5 2.76,0 5,2.24 5,5 z"
         id="path1476"
         inkscape:connector-curvature="0" />
    </marker>
    <marker
       inkscape:isstock="true"
       style="overflow:visible"
       id="marker1417"
       refX="0"
       refY="0"
       orient="auto"
       inkscape:stockid="DotM">
      <path
         transform="matrix(0.4,0,0,0.4,2.96,0.4)"
         style="fill:#000000;fill-opacity:1;fill-rule:evenodd;stroke:#000000;stroke-width:1pt;stroke-opacity:1"
         d="m -2.5,-1 c 0,2.76 -2.24,5 -5,5 -2.76,0 -5,-2.24 -5,-5 0,-2.76 2.24,-5 5,-5 2.76,0 5,2.24 5,5 z"
         id="path1415"
         inkscape:connector-curvature="0" />
    </marker>
    <marker
       inkscape:isstock="true"
       style="overflow:visible"
       refX="0"
       refY="0"
       orient="auto"
       inkscape:stockid="marker14784768"
       id="marker14784768">
      <path
         transform="matrix(0.4,0,0,0.4,2.96,0.4)"
         style="fill:#3465a4;fill-opacity:1;fill-rule:evenodd;stroke:#3465a4;stroke-width:1pt;stroke-opacity:1"
         d="m -2.5,-1 c 0,2.76 -2.24,5 -5,5 -2.76,0 -5,-2.24 -5,-5 0,-2.76 2.24,-5 5,-5 2.76,0 5,2.24 5,5 z"
         id="path1031"
         inkscape:connector-curvature="0" />
    </marker>
    <marker
       inkscape:isstock="true"
       style="overflow:visible"
       refX="0.0"
       refY="0.0"
       orient="auto"
       inkscape:stockid="marker264363503"
       id="marker264363503">
      <path
         transform="scale(0.8) rotate(180) translate(12.5,0)"
         style="fill-rule:evenodd;stroke:#3465a4;stroke-width:1pt;stroke-opacity:1;fill:#3465a4;fill-opacity:1"
         d="M 0.0,0.0 L 5.0,-5.0 L -12.5,0.0 L 5.0,5.0 L 0.0,0.0 z "
         id="path1034" />
    </marker>
    <marker
       inkscape:isstock="true"
       style="overflow:visible"
       refX="0"
       refY="0"
       orient="auto"
       inkscape:stockid="marker14179811"
       id="marker14179811">
      <path
         transform="matrix(0.4,0,0,0.4,2.96,0.4)"
         style="fill:#3465a4;fill-opacity:1;fill-rule:evenodd;stroke:#3465a4;stroke-width:1pt;stroke-opacity:1"
         d="m -2.5,-1 c 0,2.76 -2.24,5 -5,5 -2.76,0 -5,-2.24 -5,-5 0,-2.76 2.24,-5 5,-5 2.76,0 5,2.24 5,5 z"
         id="path1037"
         inkscape:connector-curvature="0" />
    </marker>
    <marker
       inkscape:isstock="true"
       style="overflow:visible"
       refX="0.0"
       refY="0.0"
       orient="auto"
       inkscape:stockid="marker264209167"
       id="marker264209167">
      <path
         transform="scale(0.8) rotate(180) translate(12.5,0)"
         style="fill-rule:evenodd;stroke:#3465a4;stroke-width:1pt;stroke-opacity:1;fill:#3465a4;fill-opacity:1"
         d="M 0.0,0.0 L 5.0,-5.0 L -12.5,0.0 L 5.0,5.0 L 0.0,0.0 z "
         id="path1040" />
    </marker>
    <marker
       inkscape:stockid="DotM7262"
       orient="auto"
       refY="0"
       refX="0"
       style="overflow:visible"
       inkscape:isstock="true"
       inkscape:collect="always"
       id="DotM7262">
      <path
         id="path1043"
         d="m -2.5,-1 c 0,2.76 -2.24,5 -5,5 -2.76,0 -5,-2.24 -5,-5 0,-2.76 2.24,-5 5,-5 2.76,0 5,2.24 5,5 z"
         style="fill:#3465a4;fill-opacity:1;fill-rule:evenodd;stroke:#3465a4;stroke-width:1pt;stroke-opacity:1"
         transform="matrix(0.4,0,0,0.4,2.96,0.4)"
         inkscape:connector-curvature="0" />
    </marker>
    <marker
       inkscape:stockid="Arrow1Lend7830"
       orient="auto"
       refY="0.0"
       refX="0.0"
       style="overflow:visible"
       inkscape:isstock="true"
       inkscape:collect="always"
       id="Arrow1Lend7830">
      <path
         id="path1046"
         d="M 0.0,0.0 L 5.0,-5.0 L -12.5,0.0 L 5.0,5.0 L 0.0,0.0 z "
         style="fill-rule:evenodd;stroke:#3465a4;stroke-width:1pt;stroke-opacity:1;fill:#3465a4;fill-opacity:1"
         transform="scale(0.8) rotate(180) translate(12.5,0)" />
    </marker>
  </defs>
  <g
     id="g2047"
     transform="matrix(0.886489,0,0,0.886489,226.455,-200.907)"
     style="stroke:#9bbae0;stroke-opacity:1;opacity:0.474684">
    <g
       id="use1945"
       transform="matrix(0,1.00117,-0.989611,0,-15.8561,486.761)"
       style="stroke:#9bbae0;stroke-opacity:1">
      <path
         inkscape:connector-curvature="0"
         id="path1947"
         d="M -259.825,164.499 H -30.0928"
         style="fill:none;fill-rule:evenodd;stroke:#9bbae0;stroke-width:0.836269;stroke-linecap:butt;stroke-linejoin:miter;stroke-miterlimit:4;stroke-dasharray:none;stroke-opacity:1" />
      <path
         style="fill:none;fill-rule:evenodd;stroke:#9bbae0;stroke-width:0.836269;stroke-linecap:butt;stroke-linejoin:miter;stroke-miterlimit:4;stroke-dasharray:none;stroke-opacity:1"
         d="M -259.825,87.3072 H -30.0929"
         id="path1949"
         inkscape:connector-curvature="0" />
      <path
         inkscape:connector-curvature="0"
         id="path1951"
         d="M -259.825,10.1153 H -30.0929"
         style="fill:none;fill-rule:evenodd;stroke:#9bbae0;stroke-width:0.836269;stroke-linecap:butt;stroke-linejoin:miter;stroke-miterlimit:4;stroke-dasharray:none;stroke-opacity:1" />
      <path
         inkscape:connector-curvature="0"
         id="path1953"
         d="M -259.824,102.746 H -30.0932"
         style="fill:none;fill-rule:evenodd;stroke:#9bbae0;stroke-width:0.418135;stroke-linecap:butt;stroke-linejoin:miter;stroke-miterlimit:4;stroke-dasharray:none;stroke-opacity:1" />
      <path
         style="fill:none;fill-rule:evenodd;stroke:#9bbae0;stroke-width:0.418135;stroke-linecap:butt;stroke-linejoin:miter;stroke-miterlimit:4;stroke-dasharray:none;stroke-opacity:1"
         d="M -259.824,25.5537 H -30.0932"
         id="path1955"
         inkscape:connector-curvature="0" />
      <path
         inkscape:connector-curvature="0"
         id="use1957"
         d="M -259.824,118.184 H -30.0932"
         style="fill:none;fill-rule:evenodd;stroke:#9bbae0;stroke-width:0.418135;stroke-linecap:butt;stroke-linejoin:miter;stroke-miterlimit:4;stroke-dasharray:none;stroke-opacity:1" />
      <path
         style="fill:none;fill-rule:evenodd;stroke:#9bbae0;stroke-width:0.418135;stroke-linecap:butt;stroke-linejoin:miter;stroke-miterlimit:4;stroke-dasharray:none;stroke-opacity:1"
         d="M -259.824,40.9921 H -30.0932"
         id="use1959"
         inkscape:connector-curvature="0" />
      <path
         style="fill:none;fill-rule:evenodd;stroke:#9bbae0;stroke-width:0.418135;stroke-linecap:butt;stroke-linejoin:miter;stroke-miterlimit:4;stroke-dasharray:none;stroke-opacity:1"
         d="M -259.824,133.622 H -30.0932"
         id="use1961"
         inkscape:connector-curvature="0" />
      <path
         inkscape:connector-curvature="0"
         id="use1963"
         d="M -259.824,56.4305 H -30.0932"
         style="fill:none;fill-rule:evenodd;stroke:#9bbae0;stroke-width:0.418135;stroke-linecap:butt;stroke-linejoin:miter;stroke-miterlimit:4;stroke-dasharray:none;stroke-opacity:1" />
      <path
         inkscape:connector-curvature="0"
         id="use1965"
         d="M -259.824,149.06 H -30.0932"
         style="fill:none;fill-rule:evenodd;stroke:#9bbae0;stroke-width:0.418135;stroke-linecap:butt;stroke-linejoin:miter;stroke-miterlimit:4;stroke-dasharray:none;stroke-opacity:1" />
      <path
         style="fill:none;fill-rule:evenodd;stroke:#9bbae0;stroke-width:0.418135;stroke-linecap:butt;stroke-linejoin:miter;stroke-miterlimit:4;stroke-dasharray:none;stroke-opacity:1"
         d="M -259.824,71.8689 H -30.0932"
         id="use1967"
         inkscape:connector-curvature="0" />
      <path
         style="fill:none;fill-rule:evenodd;stroke:#9bbae0;stroke-width:0.836269;stroke-linecap:butt;stroke-linejoin:miter;stroke-miterlimit:4;stroke-dasharray:none;stroke-opacity:1"
         d="M -259.825,241.691 H -30.0929"
         id="use1969"
         inkscape:connector-curvature="0" />
      <path
         style="fill:none;fill-rule:evenodd;stroke:#9bbae0;stroke-width:0.418135;stroke-linecap:butt;stroke-linejoin:miter;stroke-miterlimit:4;stroke-dasharray:none;stroke-opacity:1"
         d="M -259.824,179.938 H -30.0932"
         id="use1971"
         inkscape:connector-curvature="0" />
      <path
         inkscape:connector-curvature="0"
         id="use1973"
         d="M -259.824,195.376 H -30.0932"
         style="fill:none;fill-rule:evenodd;stroke:#9bbae0;stroke-width:0.418135;stroke-linecap:butt;stroke-linejoin:miter;stroke-miterlimit:4;stroke-dasharray:none;stroke-opacity:1" />
      <path
         style="fill:none;fill-rule:evenodd;stroke:#9bbae0;stroke-width:0.418135;stroke-linecap:butt;stroke-linejoin:miter;stroke-miterlimit:4;stroke-dasharray:none;stroke-opacity:1"
         d="M -259.824,210.814 H -30.0932"
         id="use1975"
         inkscape:connector-curvature="0" />
      <path
         inkscape:connector-curvature="0"
         id="use1977"
         d="M -259.824,226.253 H -30.0932"
         style="fill:none;fill-rule:evenodd;stroke:#9bbae0;stroke-width:0.418135;stroke-linecap:butt;stroke-linejoin:miter;stroke-miterlimit:4;stroke-dasharray:none;stroke-opacity:1" />
    </g>
    <use
       height="100%"
       width="100%"
       transform="matrix(0,-1,-1,0,201.181,201.181)"
       id="use2027"
       xlink:href="#use1945"
       y="0"
       x="0"
       style="stroke:#9bbae0;stroke-opacity:1" />
  </g>
  <path
     style="fill:#0084c8;fill-opacity:0.802326;fill-rule:evenodd;stroke:#000000;stroke-width:0.820948;stroke-linecap:butt;stroke-linejoin:miter;stroke-miterlimit:4;stroke-dasharray:none;stroke-opacity:1"
     d="M 44.3733,25.5965 68.3564,95.0402 193.149,60.8066 Z"
     id="path1082"
     inkscape:connector-curvature="0" />
  <path
     inkscape:connector-curvature="0"
     id="path1086"
     d="M 14.5307,96.8342 38.5137,166.277 163.306,132.045 Z"
     style="fill:#0084c8;fill-opacity:0.337209;fill-rule:evenodd;stroke:#000000;stroke-width:0.820889;stroke-linecap:butt;stroke-linejoin:miter;stroke-miterlimit:4;stroke-dasharray:none;stroke-opacity:0.426357" />
  <path
     style="fill:none;fill-rule:evenodd;stroke:#3465a4;stroke-width:1;stroke-linecap:butt;stroke-linejoin:miter;stroke-miterlimit:4;stroke-dasharray:none;stroke-opacity:1;marker-start:url(#marker14179811);marker-end:url(#marker264209167)"
     d="M 14.5307,96.8342 44.3733,25.5965"
     id="path1088"
     inkscape:connector-curvature="0" />
  <path
     style="fill:none;fill-rule:evenodd;stroke:#3465a4;stroke-width:1;stroke-linecap:butt;stroke-linejoin:miter;stroke-miterlimit:4;stroke-dasharray:none;stroke-opacity:1;marker-start:url(#DotM7262);marker-end:url(#Arrow1Lend7830)"
     d="M 38.5137,166.277 68.3564,95.0402"
     id="path1090"
     inkscape:connector-curvature="0" />
  <path
     style="fill:none;fill-rule:evenodd;stroke:#3465a4;stroke-width:1;stroke-linecap:butt;stroke-linejoin:miter;stroke-miterlimit:4;stroke-dasharray:none;stroke-opacity:1;marker-start:url(#marker14784768);marker-end:url(#marker264363503)"
     d="M 163.306,132.045 193.149,60.8066"
     id="path1092"
     inkscape:connector-curvature="0" />
</svg>
