<?xml version="1.0" encoding="UTF-8" standalone="no"?>
<!-- Copyright 2017 mathsisfun.com -->
<svg xmlns="http://www.w3.org/2000/svg" width="422.8" height="133.2" version="1.1">
<defs/>
<g transform="matrix(3.77068,0,0,3.77068,-177.718,-356.07)">
<rect x="47.6" y="94.7" ry="1.1" width="34.1" height="34.7" style="color:black; overflow:visible; fill:white; stroke:#cccccc; stroke-width:0.53; stroke-linecap:round;"/>
<rect x="86.2" y="94.7" ry="1.1" width="34.1" height="34.7" style="color:black; overflow:visible; fill:white; stroke:#cccccc; stroke-width:0.53; stroke-linecap:round;"/>
<rect x="124.8" y="94.7" ry="1.1" width="34.1" height="34.7" style="color:black; overflow:visible; fill:white; stroke:#cccccc; stroke-width:0.53; stroke-linecap:round;"/>
<path style="fill:none; stroke:#0084c8; stroke-width:0.53; stroke-linecap:round;" d="m 47.4,100.4 34.3,12.1"/>
<path style="fill:none; stroke:#0084c8; stroke-width:0.53; stroke-linecap:round;" d="m 47.7,123.9 33.9,-6"/>
<path style="fill:none; stroke:#ff4141; stroke-width:0.53; stroke-linecap:round;" d="m 58.4,94.7 8.2,34.6"/>
<path style="fill:none; stroke:#0084c8; stroke-width:0.53; stroke-linecap:round;" d="m 86.1,105.3 h 34.1"/>
<path style="fill:none; stroke:#0084c8; stroke-width:0.53; stroke-linecap:round;" d="m 86.1,113.3 h 34.1"/>
<path style="fill:none; stroke:#ff4141; stroke-width:0.53; stroke-linecap:round;" d="m 96,129.5 c 0.2,-0.7 19.4,-34.8 19.4,-34.8"/>
<path style="fill:none; stroke:#0084c8; stroke-width:0.53; stroke-linecap:round;" d="M 124.9,126.9 146.8,94.8"/>
<path style="fill:none; stroke:#0084c8; stroke-width:0.53; stroke-linecap:round;" d="m 141.6,94.7 5.6,34.7"/>
<path style="fill:none; stroke:#0084c8; stroke-width:0.53; stroke-linecap:round;" d="m 152.7,129.5 2.4,-34.8"/>
<path style="fill:none; stroke:#ff4141; stroke-width:0.53; stroke-linecap:round;" d="M 124.7,101.2 159,120.3"/>
</g>
</svg>
