<?xml version="1.0" encoding="UTF-8" standalone="no"?>
<!-- Copyright 2021 mathsisfun.com -->
<svg xmlns:sodipodi="http://sodipodi.sourceforge.net/DTD/sodipodi-0.dtd" xmlns="http://www.w3.org/2000/svg" xmlns:xlink="http://www.w3.org/1999/xlink" width="151.1" height="127.4" version="1.1" style="font-family:'Trebuchet MS'; font-size:28px; stroke-width:1pt; fill:#204a87;">
<defs>
	<marker id="aa18" style="overflow:visible;" orient="auto">
		<path transform="matrix(0.4,0,0,0.4,4,0)" style="fill:#4e9a06; stroke:#4e9a06;" d="M 0,0 5,-5 -12.5,0 5,5 Z"/>
	</marker>
	<marker id="aa19" style="overflow:visible;" orient="auto">
		<path transform="matrix(-0.4,0,0,-0.4,-4,0)" style="fill:#4e9a06; stroke:#4e9a06;" d="M 0,0 5,-5 -12.5,0 5,5 Z"/>
	</marker>
	<linearGradient id="aa1">
		<stop offset="0" style="stop-color:#939393; stop-opacity:1;"/>
		<stop offset="1" style="stop-color:black; stop-opacity:1;"/>
	</linearGradient>
	<marker id="aa24" style="overflow:visible;" orient="auto">
		<path transform="matrix(0.4,0,0,0.4,4,0)" style="stroke:#204a87;" d="M 0,0 5,-5 -12.5,0 5,5 Z"/>
	</marker>
	<marker id="aa25" style="overflow:visible;" orient="auto">
		<path transform="matrix(-0.4,0,0,-0.4,-4,0)" style="stroke:#204a87;" d="M 0,0 5,-5 -12.5,0 5,5 Z"/>
	</marker>
	<marker id="aa22" style="overflow:visible;" orient="auto">
		<path transform="matrix(0.4,0,0,0.4,4,0)" style="stroke:#204a87;" d="M 0,0 5,-5 -12.5,0 5,5 Z"/>
	</marker>
	<marker id="aa23" style="overflow:visible;" orient="auto">
		<path transform="matrix(-0.4,0,0,-0.4,-4,0)" style="stroke:#204a87;" d="M 0,0 5,-5 -12.5,0 5,5 Z"/>
	</marker>
	<marker id="aa20" style="overflow:visible;" orient="auto">
		<path transform="matrix(0.4,0,0,0.4,4,0)" style="stroke:#204a87;" d="M 0,0 5,-5 -12.5,0 5,5 Z"/>
	</marker>
	<marker id="aa21" style="overflow:visible;" orient="auto">
		<path transform="matrix(-0.4,0,0,-0.4,-4,0)" style="stroke:#204a87;" d="M 0,0 5,-5 -12.5,0 5,5 Z"/>
	</marker>
	<marker id="aa17" style="overflow:visible;" orient="auto">
		<path transform="matrix(-0.4,0,0,-0.4,-4,0)" style="stroke:#204a87;" d="M 0,0 5,-5 -12.5,0 5,5 Z"/>
	</marker>
	<marker id="aa16" style="overflow:visible;" orient="auto">
		<path transform="matrix(-0.4,0,0,-0.4,-4,0)" style="stroke:#204a87;" d="M 0,0 5,-5 -12.5,0 5,5 Z"/>
	</marker>
	<marker id="aa15" style="overflow:visible;" orient="auto">
		<path transform="matrix(-0.4,0,0,-0.4,-4,0)" style="stroke:#204a87;" d="M 0,0 5,-5 -12.5,0 5,5 Z"/>
	</marker>
	<marker id="aa14" style="overflow:visible;" orient="auto">
		<path transform="matrix(-0.4,0,0,-0.4,-4,0)" style="stroke:#204a87;" d="M 0,0 5,-5 -12.5,0 5,5 Z"/>
	</marker>
	<marker id="aa12" style="overflow:visible;" orient="auto">
		<path transform="matrix(0.4,0,0,0.4,4,0)" style="stroke:#204a87;" d="M 0,0 5,-5 -12.5,0 5,5 Z"/>
	</marker>
	<marker id="aa13" style="overflow:visible;" orient="auto">
		<path transform="matrix(-0.4,0,0,-0.4,-4,0)" style="stroke:#204a87;" d="M 0,0 5,-5 -12.5,0 5,5 Z"/>
	</marker>
	<marker id="aa10" style="overflow:visible;" orient="auto">
		<path transform="matrix(0.4,0,0,0.4,4,0)" style="stroke:#204a87;" d="M 0,0 5,-5 -12.5,0 5,5 Z"/>
	</marker>
	<marker id="aa11" style="overflow:visible;" orient="auto">
		<path transform="matrix(-0.4,0,0,-0.4,-4,0)" style="stroke:#204a87;" d="M 0,0 5,-5 -12.5,0 5,5 Z"/>
	</marker>
	<marker id="aa8" style="overflow:visible;" orient="auto">
		<path transform="matrix(0.4,0,0,0.4,4,0)" style="stroke:#204a87;" d="M 0,0 5,-5 -12.5,0 5,5 Z"/>
	</marker>
	<marker id="aa9" style="overflow:visible;" orient="auto">
		<path transform="matrix(-0.4,0,0,-0.4,-4,0)" style="stroke:#204a87;" d="M 0,0 5,-5 -12.5,0 5,5 Z"/>
	</marker>
	<marker id="aa6" style="overflow:visible;" orient="auto">
		<path transform="matrix(0.4,0,0,0.4,4,0)" style="stroke:#204a87;" d="M 0,0 5,-5 -12.5,0 5,5 Z"/>
	</marker>
	<marker id="aa7" style="overflow:visible;" orient="auto">
		<path transform="matrix(-0.4,0,0,-0.4,-4,0)" style="stroke:#204a87;" d="M 0,0 5,-5 -12.5,0 5,5 Z"/>
	</marker>
	<marker id="aa4" style="overflow:visible;" orient="auto">
		<path transform="matrix(0.4,0,0,0.4,4,0)" style="stroke:#204a87;" d="M 0,0 5,-5 -12.5,0 5,5 Z"/>
	</marker>
	<marker id="aa5" style="overflow:visible;" orient="auto">
		<path transform="matrix(-0.4,0,0,-0.4,-4,0)" style="stroke:#204a87;" d="M 0,0 5,-5 -12.5,0 5,5 Z"/>
	</marker>
	<marker id="aa2" style="overflow:visible;" orient="auto">
		<path transform="matrix(0.4,0,0,0.4,4,0)" style="stroke:#204a87;" d="M 0,0 5,-5 -12.5,0 5,5 Z"/>
	</marker>
	<marker id="aa3" style="overflow:visible;" orient="auto">
		<path transform="matrix(-0.4,0,0,-0.4,-4,0)" style="stroke:#204a87;" d="M 0,0 5,-5 -12.5,0 5,5 Z"/>
	</marker>
</defs>
<g style="display:none;" transform="translate(1361.54,86.5069)">
	<image x="-1413.5" y="148.4" width="1305" height="787.4" xlink:href="../../Images/SVG/inkscape_pasted_image_20101001_094421.html"/>
</g>
<g transform="translate(1361.54,86.5069)">
	<path style="fill:#666cff; fill-opacity:0.1; stroke:#00009a; stroke-width:2.99;" d="m -1322.3,-48.4 h 61.4 l 12.6,44.5 h -110.1 z"/>
	<path style="marker-start:url(#aa2); marker-end:url(#aa3); fill:none; stroke:#204a87; stroke-width:1.8;" d="M -1234,-3.6 V -48.5"/>
	<path style="marker-start:url(#aa4); marker-end:url(#aa5); fill:none; stroke:#204a87; stroke-width:1.8;" d="m -1319,-61.8 h 54.1"/>
	<path style="marker-start:url(#aa6); marker-end:url(#aa7); fill:none; stroke:#204a87; stroke-width:1.8;" d="m -1355.5,11.3 h 101.8"/>
	<text x="-1223.4" y="-16.2" transform="scale(1.00047,0.999532)" style="stroke-width:0.6;">h</text>
	<text x="-1298.9" y="-71.6" transform="scale(1.00047,0.999532)" style="stroke-width:0.6;">a</text>
	<text x="-1313.2" y="40.7" transform="scale(1.00047,0.999532)" style="stroke-width:0.6;">b</text>
	<path style="fill:#666cff; fill-opacity:0.1; stroke:#00009a; stroke-width:2.99;" d="m -761.1,-48.4 h 61.4 l 12.6,44.5 h -110.1 z"/>
	<path style="marker-start:url(#aa8); marker-end:url(#aa9); fill:none; stroke:#204a87; stroke-width:1.8;" d="M -672.9,-3.6 V -48.5"/>
	<path style="marker-start:url(#aa10); marker-end:url(#aa11); fill:none; stroke:#204a87; stroke-width:1.8;" d="m -757.9,-61.8 h 54.1"/>
	<path style="marker-start:url(#aa12); marker-end:url(#aa13); fill:none; stroke:#204a87; stroke-width:1.8;" d="m -794.4,11.3 h 101.8"/>
	<text x="-662.5" y="-16.2" transform="scale(1.00047,0.999532)" style="stroke-width:0.6;">2</text>
	<text x="-738.1" y="-71.6" transform="scale(1.00047,0.999532)" style="stroke-width:0.6;">3</text>
	<text x="-752.4" y="40.7" transform="scale(1.00047,0.999532)" style="stroke-width:0.6;">7</text>
	<path style="fill:#666cff; fill-opacity:0.1; stroke:#00009a; stroke-width:2.99;" d="m -1108.8,-48.4 h 61.4 l 12.6,44.5 h -110.1 z"/>
	<path style="stop-color:black; stop-opacity:1; fill:#666cff; fill-opacity:0.1; stroke-width:2.99;" d="m -506.2,-48.4 h 61.4 l 12.6,44.5 h -110.1 z"/>
	<text x="-539.7" y="-32.2" transform="scale(1.00047,0.999532)" style="stroke-width:0.6;">c</text>
	<text x="-481.6" y="-58.2" transform="scale(1.00047,0.999532)" style="stroke-width:0.6;">a</text>
	<text x="-497.6" y="27.2" transform="scale(1.00047,0.999532)" style="stroke-width:0.6;">b</text>
	<path style="fill:#666cff; fill-opacity:0.1; stroke:#00009a; stroke-width:2.99;" d="m -935.2,-48.4 h 61.4 l 12.6,44.5 H -971.3 Z"/>
	<path style="marker-end:url(#aa14); fill:none; stroke:#204a87; stroke-width:1.8;" d="M -433,-3.6 -445.3,-45.4"/>
	<path style="marker-end:url(#aa15); fill:none; stroke:#204a87; stroke-width:1.8;" d="m -542.4,-3.8 c 35.1,0 70.3,0 105.4,0"/>
	<path style="marker-end:url(#aa16); fill:none; stroke:#204a87; stroke-width:1.8;" d="m -446.1,-48.3 c -18.5,0 -36.9,0 -55.4,0"/>
	<path style="marker-end:url(#aa17); fill:none; stroke:#204a87; stroke-width:1.8;" d="m -505.9,-47.9 -34.2,41"/>
	<text x="-432.1" y="-15.4" transform="scale(1.00047,0.999532)" style="stroke-width:0.6;">d</text>
	<path style="marker-start:url(#aa18); marker-end:url(#aa19); fill:#f57900; stroke:#4e9a06; stroke-width:1.5; stroke-dasharray:9, 1.5;" d="m -1037.6,-6.4 -69.2,-40.5"/>
	<path style="marker-start:url(#aa18); marker-end:url(#aa19); fill:#f57900; stroke:#4e9a06; stroke-width:1.5; stroke-dasharray:9, 1.5;" d="m -1141.3,-6 90.2,-40.3"/>
	<path style="fill:#666cff; fill-opacity:0.1; stroke:#00009a; stroke-width:2.99;" d="m -206.8,-16.9 h 110 l 22.6,79.9 H -271.6 Z"/>
	<path style="marker-start:url(#aa20); marker-end:url(#aa21); fill:none; stroke:#204a87; stroke-width:1.8;" d="M -57.5,62.4 V 23.1"/>
	<path style="marker-start:url(#aa22); marker-end:url(#aa23); fill:none; stroke:#204a87; stroke-width:1.8;" d="m -201,-29.7 h 98.6"/>
	<path style="marker-start:url(#aa24); marker-end:url(#aa25); fill:none; stroke:#204a87; stroke-width:1.8;" d="M -270.8,75.4 H -75.9"/>
	<path style="fill:#edd400; stroke:#19aeff; stroke-width:1.8;" d="M -239.9,24 H -86.8"/>
	<text x="-38.4" y="37.5" transform="scale(1.00047,0.999532)" style="stroke-width:0.6;">h</text>
	<text x="-158.9" y="-41.9" transform="scale(1.00047,0.999532)" style="stroke-width:0.6;">a</text>
	<text x="-179.9" y="109.6" transform="scale(1.00047,0.999532)" style="stroke-width:0.6;">b</text>
	<text x="-170.5" y="19.2" transform="scale(1.00047,0.999532)" style="stroke-width:0.6;">m</text>
	<path style="fill:none; stroke:#204a87; stroke-width:1.02;" d="m -259.8,33.3 15.4,10.3"/>
	<path style="fill:none; stroke:#204a87; stroke-width:1.02;" d="m -263.2,37.6 15.4,10.3"/>
	<path style="fill:none; stroke:#204a87; stroke-width:1.02;" d="m -228.6,-7.3 15.4,10.3"/>
	<path style="fill:none; stroke:#204a87; stroke-width:1.02;" d="M -232,-3 -216.7,7.3"/>
	<path style="fill:none; stroke:#204a87; stroke-width:1.02;" d="M -89.5,44.5 -71.7,39.7"/>
	<path style="fill:none; stroke:#204a87; stroke-width:1.02;" d="M -99.9,4.4 -82,-0.4"/>
	<text x="-36" y="64.3" transform="scale(1.00047,0.999532)" style="stroke-width:0.6;">2</text>
	<path style="fill:none; stroke:#204a87; stroke-width:1.2;" d="m -42.2,40.5 h 27.5"/>
</g>
</svg>