<?xml version="1.0" encoding="UTF-8" standalone="no"?>
<!-- Copyright 2021 mathsisfun.com -->
<svg xmlns:sodipodi="http://sodipodi.sourceforge.net/DTD/sodipodi-0.dtd" xmlns="http://www.w3.org/2000/svg" xmlns:xlink="http://www.w3.org/1999/xlink" width="260" height="166.6" version="1.1" style="font-family:'Trebuchet MS'; font-size:28px; stroke-width:1pt;">
<defs>
	<linearGradient id="aa1">
		<stop offset="0" style="stop-color:#939393; stop-opacity:1;"/>
		<stop offset="1" style="stop-color:black; stop-opacity:1;"/>
	</linearGradient>
	<marker id="aa6" style="overflow:visible;" orient="auto">
		<path transform="matrix(0.4,0,0,0.4,4,0)" style="fill:#204a87; stroke:#204a87;" d="M 0,0 5,-5 -12.5,0 5,5 Z"/>
	</marker>
	<marker id="aa7" style="overflow:visible;" orient="auto">
		<path transform="matrix(-0.4,0,0,-0.4,-4,0)" style="fill:#204a87; stroke:#204a87;" d="M 0,0 5,-5 -12.5,0 5,5 Z"/>
	</marker>
	<marker id="aa4" style="overflow:visible;" orient="auto">
		<path transform="matrix(0.4,0,0,0.4,4,0)" style="fill:#204a87; stroke:#204a87;" d="M 0,0 5,-5 -12.5,0 5,5 Z"/>
	</marker>
	<marker id="aa5" style="overflow:visible;" orient="auto">
		<path transform="matrix(-0.4,0,0,-0.4,-4,0)" style="fill:#204a87; stroke:#204a87;" d="M 0,0 5,-5 -12.5,0 5,5 Z"/>
	</marker>
	<marker id="aa2" style="overflow:visible;" orient="auto">
		<path transform="matrix(0.4,0,0,0.4,4,0)" style="fill:#204a87; stroke:#204a87;" d="M 0,0 5,-5 -12.5,0 5,5 Z"/>
	</marker>
	<marker id="aa3" style="overflow:visible;" orient="auto">
		<path transform="matrix(-0.4,0,0,-0.4,-4,0)" style="fill:#204a87; stroke:#204a87;" d="M 0,0 5,-5 -12.5,0 5,5 Z"/>
	</marker>
</defs>
<g style="display:none;" transform="translate(274.709,56.8029)">
	<image x="-1413.5" y="148.4" width="1305" height="787.4" xlink:href="../../Images/SVG/inkscape_pasted_image_20101001_094421.html"/>
</g>
<g transform="translate(274.709,56.8029)">
	<path style="fill:#666cff; fill-opacity:0.1; stroke:#00009a; stroke-width:2.99;" d="m -206.8,-16.9 h 110 l 22.6,79.9 H -271.6 Z"/>
	<path style="marker-start:url(#aa2); marker-end:url(#aa3); fill:none; stroke:#204a87; stroke-width:1.8;" d="M -57.5,62.4 V 23.1"/>
	<path style="marker-start:url(#aa4); marker-end:url(#aa5); fill:none; stroke:#204a87; stroke-width:1.8;" d="m -201,-29.7 h 98.6"/>
	<path style="marker-start:url(#aa6); marker-end:url(#aa7); fill:none; stroke:#204a87; stroke-width:1.8;" d="M -270.8,75.4 H -75.9"/>
	<path style="fill:none; stroke:#0084c8; stroke-width:1.8;" d="M -239.9,24 H -86.8"/>
	<text x="-38.4" y="37.5" transform="scale(1.00047,0.999532)" style="fill:#204a87; stroke-width:0.6;">h</text>
	<text x="-158.9" y="-41.9" transform="scale(1.00047,0.999532)" style="fill:#204a87; stroke-width:0.6;">a</text>
	<text x="-179.9" y="109.6" transform="scale(1.00047,0.999532)" style="fill:#204a87; stroke-width:0.6;">b</text>
	<text x="-170.5" y="19.2" transform="scale(1.00047,0.999532)" style="fill:#0084c8; stroke-width:0.6;">m</text>
	<path style="fill:none; stroke:#204a87; stroke-width:1.02;" d="m -259.8,33.3 15.4,10.3"/>
	<path style="fill:none; stroke:#204a87; stroke-width:1.02;" d="m -263.2,37.6 15.4,10.3"/>
	<path style="fill:none; stroke:#204a87; stroke-width:1.02;" d="m -228.6,-7.3 15.4,10.3"/>
	<path style="fill:none; stroke:#204a87; stroke-width:1.02;" d="M -232,-3 -216.7,7.3"/>
	<path style="fill:none; stroke:#204a87; stroke-width:1.02;" d="M -89.5,44.5 -71.7,39.7"/>
	<path style="fill:none; stroke:#204a87; stroke-width:1.02;" d="M -99.9,4.4 -82,-0.4"/>
	<text x="-36" y="64.3" transform="scale(1.00047,0.999532)" style="fill:#204a87; stroke-width:0.6;">2</text>
	<path style="fill:none; stroke:#204a87; stroke-width:1.2;" d="m -42.2,40.5 h 27.5"/>
</g>
</svg>