<?xml version="1.0" encoding="UTF-8" standalone="no"?>
<!-- Copyright 2017 mathsisfun.com -->
<svg xmlns="http://www.w3.org/2000/svg" width="387.8" height="168.2" version="1.1">
<defs/>
<g transform="translate(-213.418,476.862)">
<g transform="matrix(0.3,0,0,0.3,404.017,-144.645)">
<path style="fill:#b3defd; fill-opacity:0.56; stroke:black; stroke-width:4; stroke-linecap:round; stroke-linejoin:round;" d="m -633.3,-550.4 298.4,-271.3 c 404.2,272 404.2,272 404.2,272 z"/>
<path transform="matrix(2.0609,0.502227,-0.370732,1.52131,-400.848,106.72)" style="fill:#b3defd; fill-opacity:0.56; stroke:black; stroke-width:1.65; stroke-linecap:round; stroke-linejoin:round;" d="m -157.8,-417 a 30.5,59.7 0 0 1 9.3,33.8"/>
<path transform="rotate(13.6956,-332.476,-2054.85)" style="fill:none; fill-opacity:0.56; stroke:black; stroke-width:3; stroke-linecap:round; stroke-linejoin:round;" d="m 13.5,-835.1 a 57.1,60 0 0 1 -38.4,36.7 57.1,60 0 0 1 -50.9,-11"/>
<path transform="rotate(13.6956,-562.078,-4664.87)" style="fill:none; fill-opacity:0.56; stroke:black; stroke-width:3; stroke-linecap:round; stroke-linejoin:round;" d="m 603.4,-972.6 a 35.7,42.9 0 0 1 -24,26.2 35.7,42.9 0 0 1 -31.8,-7.9"/>
<path transform="rotate(13.6956,-234.452,-2067.22)" style="fill:#b3defd; fill-opacity:0.56; stroke:black; stroke-width:3; stroke-linecap:round; stroke-linejoin:round;" d="m 369.7,-651.2 a 52.9,58.6 0 0 1 1.6,-30.9"/>
<path transform="matrix(1.31526,0.320519,-0.250583,1.02827,-1081.76,-132.356)" style="fill:#b3defd; fill-opacity:0.56; stroke:black; stroke-width:2.51; stroke-linecap:round; stroke-linejoin:round;" d="m 695.7,-623.6 a 62.9,81.4 0 0 1 1.9,-42.9"/>
<path transform="rotate(13.6956,-307.123,-3572.31)" style="fill:#b3defd; fill-opacity:0.56; stroke:black; stroke-width:3; stroke-linecap:round; stroke-linejoin:round;" d="m 670.9,-702.7 a 107.1,112.9 0 0 1 3.3,-59.5"/>
</g>
<g transform="matrix(0.291208,0.072096,-0.072096,0.291208,-49.7598,-151.667)">
<path style="fill:#98fc66; fill-opacity:0.53; stroke:black; stroke-width:4; stroke-linecap:round; stroke-linejoin:round;" d="m 698.7,-1064.9 180.6,-267.4 c 365.7,134.9 365.7,134.9 365.7,134.9 z"/>
<path transform="matrix(1.69697,0,0,1.25266,1003.83,-598.204)" style="fill:#98fc66; fill-opacity:0.53; stroke:black; stroke-width:2.06; stroke-linecap:round; stroke-linejoin:round;" d="m -157.8,-417 a 30.5,59.7 0 0 1 9.3,33.8"/>
<path transform="matrix(0.8,0,0,0.8,913.531,-647.363)" style="fill:#98fc66; fill-opacity:0.53; stroke:black; stroke-width:3.75; stroke-linecap:round; stroke-linejoin:round;" d="m 13.5,-835.1 a 57.1,60 0 0 1 -38.4,36.7 57.1,60 0 0 1 -50.9,-11"/>
<path transform="matrix(0.8,0,0,0.8,424.388,-544.505)" style="fill:#98fc66; fill-opacity:0.53; stroke:black; stroke-width:3.75; stroke-linecap:round; stroke-linejoin:round;" d="m 603.4,-972.6 a 35.7,42.9 0 0 1 -24,26.2 35.7,42.9 0 0 1 -31.8,-7.9"/>
<path transform="matrix(0.8,0,0,0.8,908.96,-665.648)" style="fill:#98fc66; fill-opacity:0.53; stroke:black; stroke-width:3.75; stroke-linecap:round; stroke-linejoin:round;" d="m 369.7,-651.2 a 52.9,58.6 0 0 1 1.6,-30.9"/>
<path transform="matrix(1.083,0,0,0.846692,429.309,-655.055)" style="fill:#98fc66; fill-opacity:0.53; stroke:black; stroke-width:3.13; stroke-linecap:round; stroke-linejoin:round;" d="m 695.7,-623.6 a 62.9,81.4 0 0 1 1.9,-42.9"/>
<path transform="matrix(0.8,0,0,0.8,625.531,-617.648)" style="fill:#98fc66; fill-opacity:0.53; stroke:black; stroke-width:3.75; stroke-linecap:round; stroke-linejoin:round;" d="m 670.9,-702.7 a 107.1,112.9 0 0 1 3.3,-59.5"/>
</g>
<g transform="matrix(0.3,0,0,0.3,485.193,-289.991)">
<path style="fill:#0169c9; fill-opacity:0.37; stroke:black; stroke-width:4; stroke-linecap:round; stroke-linejoin:round;" d="m 57.6,-492 79,-117 c 160,59 160,59 160,59 z"/>
<path transform="matrix(0.742425,0,0,0.54804,191.151,-287.815)" style="fill:#0169c9; fill-opacity:0.37; stroke:black; stroke-width:4.7; stroke-linecap:round; stroke-linejoin:round;" d="m -157.8,-417 a 30.5,59.7 0 0 1 9.3,33.8"/>
<path transform="matrix(0.35,0,0,0.35,151.643,-309.322)" style="fill:none; fill-opacity:0.37; stroke:black; stroke-width:8.57; stroke-linecap:round; stroke-linejoin:round;" d="m 13.5,-835.1 a 57.1,60 0 0 1 -38.4,36.7 57.1,60 0 0 1 -50.9,-11"/>
<path transform="matrix(0.35,0,0,0.35,-62.3571,-264.322)" style="fill:none; fill-opacity:0.37; stroke:black; stroke-width:8.57; stroke-linecap:round; stroke-linejoin:round;" d="m 603.4,-972.6 a 35.7,42.9 0 0 1 -24,26.2 35.7,42.9 0 0 1 -31.8,-7.9"/>
<path transform="matrix(0.35,0,0,0.35,149.643,-317.322)" style="fill:#0169c9; fill-opacity:0.37; stroke:black; stroke-width:8.57; stroke-linecap:round; stroke-linejoin:round;" d="m 369.7,-651.2 a 52.9,58.6 0 0 1 1.6,-30.9"/>
<path transform="matrix(0.473812,0,0,0.370428,-60.2042,-312.687)" style="fill:#0169c9; fill-opacity:0.37; stroke:black; stroke-width:7.16; stroke-linecap:round; stroke-linejoin:round;" d="m 695.7,-623.6 a 62.9,81.4 0 0 1 1.9,-42.9"/>
<path transform="matrix(0.35,0,0,0.35,25.6429,-296.322)" style="fill:#0169c9; fill-opacity:0.37; stroke:black; stroke-width:8.57; stroke-linecap:round; stroke-linejoin:round;" d="m 670.9,-702.7 a 107.1,112.9 0 0 1 3.3,-59.5"/>
</g>
<g transform="matrix(0.3,0,0,0.3,417.402,-148.154)">
<path style="fill:#ffff86; fill-opacity:0.48; stroke:black; stroke-width:4; stroke-linecap:round; stroke-linejoin:round;" d="m 264.5,-850.8 -140.4,14.7 C 66.4,-996.6 66.4,-996.6 66.4,-996.6 Z"/>
<path transform="matrix(-0.477222,-0.56873,0.419823,-0.352273,335.078,-1084.36)" style="fill:#ffff86; fill-opacity:0.48; stroke:black; stroke-width:4.7; stroke-linecap:round; stroke-linejoin:round;" d="m -157.8,-417 a 30.5,59.7 0 0 1 9.3,33.8"/>
<path transform="matrix(-0.224976,-0.268116,0.268116,-0.224976,343.998,-1040.27)" style="fill:#ffff86; fill-opacity:0.48; stroke:black; stroke-width:8.57; stroke-linecap:round; stroke-linejoin:round;" d="m 13.5,-835.1 a 57.1,60 0 0 1 -38.4,36.7 57.1,60 0 0 1 -50.9,-11"/>
<path transform="matrix(-0.224976,-0.268116,0.268116,-0.224976,516.026,-905.262)" style="fill:#ffff86; fill-opacity:0.48; stroke:black; stroke-width:8.57; stroke-linecap:round; stroke-linejoin:round;" d="m 603.4,-972.6 a 35.7,42.9 0 0 1 -24,26.2 35.7,42.9 0 0 1 -31.8,-7.9"/>
<path transform="matrix(-0.224976,-0.268116,0.268116,-0.224976,339.155,-1033.6)" style="fill:#ffff86; fill-opacity:0.48; stroke:black; stroke-width:8.57; stroke-linecap:round; stroke-linejoin:round;" d="m 369.7,-651.2 a 52.9,58.6 0 0 1 1.6,-30.9"/>
<path transform="matrix(-0.304561,-0.362961,0.283764,-0.238106,477.592,-875.822)" style="fill:#ffff86; fill-opacity:0.48; stroke:black; stroke-width:7.16; stroke-linecap:round; stroke-linejoin:round;" d="m 695.7,-623.6 a 62.9,81.4 0 0 1 1.9,-42.9"/>
<path transform="matrix(-0.224976,-0.268116,0.268116,-0.224976,434.947,-952.104)" style="fill:#ffff86; fill-opacity:0.48; stroke:black; stroke-width:8.57; stroke-linecap:round; stroke-linejoin:round;" d="m 670.9,-702.7 a 107.1,112.9 0 0 1 3.3,-59.5"/>
</g>
<g transform="matrix(0.3,0,0,0.3,243.568,-311.147)">
<path style="fill:#0197fd; fill-opacity:0.49; stroke:black; stroke-width:4; stroke-linecap:round; stroke-linejoin:round;" d="M 737.4,-35.2 1058.3,-1.6 C 1190.1,-368.4 1190.1,-368.4 1190.1,-368.4 Z"/>
<path transform="matrix(1.09079,-1.29996,-0.959595,-0.805196,576.027,-568.905)" style="fill:#0197fd; fill-opacity:0.49; stroke:black; stroke-width:2.06; stroke-linecap:round; stroke-linejoin:round;" d="m -157.8,-417 a 30.5,59.7 0 0 1 9.3,33.8"/>
<path transform="matrix(0.51423,-0.612835,-0.612835,-0.51423,555.639,-468.131)" style="fill:none; fill-opacity:0.49; stroke:black; stroke-width:3.75; stroke-linecap:round; stroke-linejoin:round;" d="m 13.5,-835.1 a 57.1,60 0 0 1 -38.4,36.7 57.1,60 0 0 1 -50.9,-11"/>
<path transform="matrix(0.51423,-0.612835,-0.612835,-0.51423,162.431,-159.541)" style="fill:none; fill-opacity:0.49; stroke:black; stroke-width:3.75; stroke-linecap:round; stroke-linejoin:round;" d="m 603.4,-972.6 a 35.7,42.9 0 0 1 -24,26.2 35.7,42.9 0 0 1 -31.8,-7.9"/>
<path transform="matrix(0.51423,-0.612835,-0.612835,-0.51423,566.708,-452.875)" style="fill:#0197fd; fill-opacity:0.49; stroke:black; stroke-width:3.75; stroke-linecap:round; stroke-linejoin:round;" d="m 369.7,-651.2 a 52.9,58.6 0 0 1 1.6,-30.9"/>
<path transform="matrix(0.696139,-0.829626,-0.648604,-0.544243,250.28,-92.2508)" style="fill:#0197fd; fill-opacity:0.49; stroke:black; stroke-width:3.13; stroke-linecap:round; stroke-linejoin:round;" d="m 695.7,-623.6 a 62.9,81.4 0 0 1 1.9,-42.9"/>
<path transform="matrix(0.51423,-0.612835,-0.612835,-0.51423,347.754,-266.61)" style="fill:#0197fd; fill-opacity:0.49; stroke:black; stroke-width:3.75; stroke-linecap:round; stroke-linejoin:round;" d="m 670.9,-702.7 a 107.1,112.9 0 0 1 3.3,-59.5"/>
</g>
<rect x="108.6" y="1898.1" width="354.3" height="65.7"/>
<rect x="540" y="1980.9" width="97.1" height="68.6"/>
<rect x="551.4" y="1946.7" width="102.9" height="108.6"/>
<text x="568" y="489.5" style="font-family:'Comic Sans MS'; font-size:12px; fill:black; stroke-width:0.3px;"></text>
<rect x="-254.3" y="3312.4" width="97.1" height="77.1"/>
</g>
</svg>
