<?xml version="1.0" encoding="UTF-8" standalone="no"?>
<!-- Copyright 2017 mathsisfun.com -->
<svg xmlns="http://www.w3.org/2000/svg" xmlns:xlink="http://www.w3.org/1999/xlink" width="500" height="308.3" version="1.1">
<defs>
<linearGradient id="id23" gradientTransform="matrix(1,0,0,-1,591.098,1446.68)" xlink:href="#id1" x1="321.2" y1="583.7" x2="326.1" y2="571.7" gradientUnits="userSpaceOnUse"/>
<linearGradient id="id1">
<stop offset="0" style="stop-color:white; stop-opacity:1;"/>
<stop offset="1" style="stop-color:white; stop-opacity:0;"/>
</linearGradient>
<linearGradient id="id20" gradientTransform="matrix(1.3284,1.93593,-1.8537,1.28018,545.26,520.339)" xlink:href="#id2" x1="48.9" y1="17.4" x2="51" y2="22.3" gradientUnits="userSpaceOnUse"/>
<linearGradient id="id2">
<stop offset="0" style="stop-color:#e8e8ea; stop-opacity:1;"/>
<stop offset="0.5" style="stop-color:#c0c0c3; stop-opacity:1;"/>
<stop offset="1" style="stop-color:#7e7e7e; stop-opacity:1;"/>
</linearGradient>
<linearGradient id="id21" gradientTransform="matrix(1.52154,2.09404,-2.12321,1.38474,543.046,511.398)" xlink:href="#id3" x1="46" y1="19.8" x2="47.7" y2="22.6" gradientUnits="userSpaceOnUse"/>
<linearGradient id="id3">
<stop offset="0" style="stop-color:#939393; stop-opacity:1;"/>
<stop offset="1" style="stop-color:#424242; stop-opacity:1;"/>
</linearGradient>
<linearGradient id="id22" gradientTransform="matrix(1.91844,2.97708,-2.80675,1.79409,559.301,478.108)" xlink:href="#id4" x1="25.7" y1="31" x2="25.5" y2="30.7" gradientUnits="userSpaceOnUse"/>
<linearGradient id="id4">
<stop offset="0" style="stop-color:black; stop-opacity:1;"/>
<stop offset="1" style="stop-color:#c9c9c9; stop-opacity:1;"/>
</linearGradient>
<linearGradient id="id19" gradientTransform="matrix(0.030562,-0.181121,-0.181121,-0.030562,858.432,458.445)" xlink:href="#id1" x1="303.9" y1="549.8" x2="303.9" y2="559.7" gradientUnits="userSpaceOnUse"/>
<linearGradient id="id18" gradientTransform="matrix(-0.057324,0.339726,-0.339726,-0.057324,963.853,338.541)" xlink:href="#id5" x1="244" y1="625.7" x2="259" y2="634.7" gradientUnits="userSpaceOnUse"/>
<linearGradient id="id5">
<stop offset="0" style="stop-color:#6d594e; stop-opacity:1;"/>
<stop offset="1" style="stop-color:#6d594e; stop-opacity:0;"/>
</linearGradient>
<linearGradient id="id17" gradientTransform="matrix(-0.057324,0.339726,-0.339726,-0.057324,963.984,338.301)" xlink:href="#id6" x1="210.4" y1="607.3" x2="218.4" y2="620.4" gradientUnits="userSpaceOnUse"/>
<linearGradient id="id6">
<stop offset="0" style="stop-color:#796052; stop-opacity:1;"/>
<stop offset="1" style="stop-color:#796052; stop-opacity:0;"/>
</linearGradient>
<linearGradient id="id16" gradientTransform="matrix(-0.057324,0.339726,-0.339726,-0.057324,873.395,311.198)" xlink:href="#id7" x1="261" y1="373.7" x2="261.4" y2="378.5" gradientUnits="userSpaceOnUse"/>
<linearGradient id="id7">
<stop offset="0" style="stop-color:#514843; stop-opacity:1;"/>
<stop offset="1" style="stop-color:#514843; stop-opacity:0;"/>
</linearGradient>
<linearGradient id="id15" gradientTransform="matrix(-0.057324,0.339726,-0.339726,-0.057324,855.445,299.707)" xlink:href="#id8" x1="301.2" y1="256.9" x2="309" y2="234.9" gradientUnits="userSpaceOnUse"/>
<linearGradient id="id8">
<stop offset="0" style="stop-color:#3a3b3a; stop-opacity:1;"/>
<stop offset="1" style="stop-color:#3a3b3a; stop-opacity:0;"/>
</linearGradient>
<linearGradient id="id14" gradientTransform="matrix(-0.051126,0.302998,-0.329109,-0.055532,867.816,321.092)" xlink:href="#id9" x1="288.5" y1="365.4" x2="297.8" y2="365.4" gradientUnits="userSpaceOnUse"/>
<linearGradient id="id9">
<stop offset="0" style="stop-color:black; stop-opacity:1;"/>
<stop offset="1" style="stop-color:black; stop-opacity:0;"/>
</linearGradient>
<linearGradient id="id13" gradientTransform="matrix(-0.057324,0.339726,-0.339726,-0.057324,873.208,311.568)" xlink:href="#id10" x1="221" y1="321.9" x2="217.1" y2="338.7" gradientUnits="userSpaceOnUse"/>
<linearGradient id="id10">
<stop offset="0" style="stop-color:#363939; stop-opacity:1;"/>
<stop offset="1" style="stop-color:#363939; stop-opacity:0;"/>
</linearGradient>
<linearGradient id="id12" gradientTransform="matrix(-0.057324,0.339726,-0.339726,-0.057324,873.834,311.519)" xlink:href="#id11" x1="202.2" y1="323.3" x2="188.8" y2="324.7" gradientUnits="userSpaceOnUse"/>
<linearGradient id="id11">
<stop offset="0" style="stop-color:#3b3c3b; stop-opacity:1;"/>
<stop offset="1" style="stop-color:#3b3c3b; stop-opacity:0;"/>
</linearGradient>
</defs>
<g transform="translate(-570.87,-277.575)">
<path style="fill:#db9977; stroke:black; stroke-width:0.69;" d="m 767.5,396.8 c 1.1,-10.1 2.8,-14.2 4.1,-27.7 0.5,-5.2 -6.8,-11.2 -11.8,-12.9 -3.4,-1.2 -6.5,-3.3 -10.2,-5 -1,-0.5 -2.6,0.7 -3.2,1.6 -0.5,0.7 -0.3,2 -0.1,2.8 0.5,2.4 3.5,4.4 4.2,5.4 0.6,0.8 -2.4,-1.1 -3.3,-0.6 -3.1,1.4 -6.5,3.9 -9,6.1 -0.7,0.6 -0.2,2.1 -0.7,2.8 -0.6,0.8 -3.6,2.4 -4.1,3.2 -0.7,1.9 0,1.3 -2.1,2.7 -1.1,1 -2.3,2.8 -2.4,4.3 -0.2,2.9 4,7.7 3.3,9.2 -0.7,1.5 -5.6,5.9 -7.4,9 -1.1,1.9 -3.2,3.9 -4.5,5.7 -1.8,2.6 -4.3,6 -5.7,8.9 -0.5,1.1 -0.8,2.8 -1.2,3.9 -0.7,2.5 -0.8,4.3 -2.4,8.3 4.4,0.4 24.4,3.6 27.1,4.1 0.6,-2.2 3.5,-5.6 5.3,-7.8 2.5,-3 6.5,-6.6 9.4,-9.3 1.8,-1.7 4.5,-3.6 6.2,-5.4 2.9,-3.1 8,-5.5 8.4,-9.3 z m -23.4,-16.7 -4.3,1.9 1.6,-4.5 1.4,-0.6 z"/>
<path style="fill:#dbbcb3; stroke:black; stroke-width:0.69;" d="m 743,362.4 c 0.4,-0.3 1.3,1 1.4,1.5 0.2,0.7 -0.3,1.9 -0.8,2.3 -2.9,1.8 -3.6,1.3 -5.5,0.4 -0,-0.1 0,-0.4 0.2,-0.5 1.5,-1 2.9,-2.5 4.8,-3.7 z"/>
<path style="fill:#dbbcb3; stroke:black; stroke-width:0.69;" d="m 731.3,383.4 1.6,-7.1 2.3,-0.1 1.5,1 0.4,3.1 -0.4,1.6 -1.4,0.8 z"/>
<path style="fill:none; stroke:black; stroke-width:0.69;" d="m 749.4,365.1 c 0,0 0.2,2.5 -1.7,3.6 -1,0.6 -1.9,2.1 -3,2.5 -1.1,0.4 -2.8,0.2 -3.9,-0.1 -1.1,-0.3 -3.3,-1.9 -3.3,-1.9"/>
<path style="fill:none; stroke:black; stroke-width:0.69;" d="m 747.3,375.4 -6,2.2 -1.7,5.3 -1.9,2.2 -2.6,0.5 -2.5,-0.6 -2.2,-1.1 2.9,-11.3"/>
<path style="fill:#2e3436; stroke:black; stroke-width:0.34px;" d="m 759.4,379.8 c 0.5,-0.8 0.3,2.1 0.8,2.9 0.4,0.5 2,0.8 1.7,1.3 -0.6,1.2 -3.1,-2.1 -4.3,-1.4 -0.8,0.4 -0.9,2.1 -0.7,3 0.3,0.9 2.7,1.3 2.2,2.1 -0.3,0.6 -1.6,-0.3 -2.2,-0.6 -0.3,-0.2 -0.7,-0.8 -1,-0.7 -0.8,0.2 -1.7,1.6 -1.5,2.4 0.3,1 2.3,0.8 3.2,1.2 0.7,0.3 2.3,0.2 2.2,0.9 -0,0.4 -0.8,0.4 -1.2,0.3 -0.7,-0 -1.5,-0.9 -2.2,-1.2 -1.1,-0.3 -4.4,0.6 -3.7,-0.4 2.1,-3.2 5,-7.4 6.5,-9.8 z"/>
<path style="fill:url(#id12); stroke-width:0.54;" d="m 754.7,359.5 -1.5,3 -2.1,-1.2 -3.7,-3.7 0.7,-2 2.4,0.2 z"/>
<path style="fill:url(#id13); stroke-width:0.54;" d="m 752.9,362.6 -2.7,-1.1 -1,4.3 -0.3,1.8 -0.9,1.2 0.3,1.7 -2.2,2.8 -1.2,3.3 c 0,0 1.7,-0 2.1,-0.6 0.3,-0.6 3.5,-6.6 3.5,-6.6 l -0.6,-0.4 z"/>
<path style="fill:url(#id14); stroke-width:0.54;" d="m 732.4,388.1 0.8,1.8 0.5,0.8 -0.7,0.4 -1.3,-0.7 -0.6,-0.7 1.1,-1.1 z"/>
<path style="fill:none; stroke:black; stroke-width:0.69;" d="m 741.3,377.5 0.9,-2 -0.7,-1.9 0.2,2 z"/>
<path style="fill:url(#id15); stroke-width:0.54;" d="m 759.6,379.5 -2.3,3.4 -1.8,3.2 -2.5,3.7 -1.6,2.9 -0.5,5.8 1.9,-1.9 0.7,-3.2 1.8,-3.5 1.3,-2.9 2.5,-3.5 z"/>
<path style="fill:url(#id16); stroke-width:0.54;" d="m 732.8,374.5 -2.5,9 -1.1,-2 -0.2,-2.1 0.3,-1.4 1.1,-2.3 z"/>
<path style="fill:none; stroke:black; stroke-width:0.69;" d="m 750.8,361.3 2.6,1.1"/>
<path style="fill:#6d594e; stroke:black; stroke-width:0.34px;" d="m 746.6,375.9 -3.3,1.1 1,3.4 z"/>
<path style="fill:#53443b; stroke-width:0.54;" d="m 744.1,380.5 -3.1,4.9 -1.2,0.7 -0.9,-1.5 1,-2.3 z"/>
<path style="fill:none; stroke:black; stroke-width:0.69;" d="m 739.2,383.3 0.5,3.1"/>
<path style="fill:none; stroke:black; stroke-width:0.69;" d="m 732.6,388.2 1.1,2.8"/>
<path style="fill:url(#id17); stroke-width:0.54;" d="m 747,373.1 -4.6,2.4 -0.5,1.6 4.2,-1.6 z"/>
<path style="fill:none; stroke:black; stroke-width:0.69;" d="m 748.7,367.8 1.6,0.6"/>
<path style="fill:#c28e7e; stroke:black; stroke-width:0.69;" d="m 733.4,390.6 -1.4,-4.1 2,0.2 2.1,-0.3 -0.4,2.6 z"/>
<path style="fill:url(#id18); stroke-width:0.54;" d="m 738.9,383.7 0.6,2.6 -2.1,1.7 -2.7,1.7 -1.1,0.8 -1.4,-2.1 -1.5,-3.6 2,0.7 2.2,0.5 2.6,-0.6 1.3,-1.4 z"/>
<path style="opacity:0.5; fill:url(#id19); stroke-width:0.54;" d="m 766.1,394.8 c -0.2,-2.3 3.4,-12.1 3.1,-15.9 -0.1,-1 -3.6,-1.5 -3.3,-0.6 1.7,5.1 -1.4,10.8 -1.8,15 -0,0.7 2,1.5 2,1.5 z"/>
<g transform="matrix(0.269626,0.872821,-0.453061,0.519433,892.084,-462.258)">
<path style="color:black; overflow:visible; fill:url(#id20); stroke-width:1;" d="m 566.6,631.1 c 0,0 1.7,2.9 0.2,5.6 -1.6,2.8 -4.9,3.4 -4.9,3.4 l 11.3,6.6 c 0,0 3.6,1.7 6.1,-2.4 2.5,-4 -1.4,-6.7 -1.4,-6.7 z"/>
<path style="fill:#ffc148;" d="m 533.4,611.7 -16.6,-3.6 10.3,12.4 2.7,0.5 5.3,-4.7 z"/>
<path style="fill:#ffe0a4;" d="m 533.5,611.6 -14,-2.8 9.9,6.7 3.5,2.2 3.3,-4.5 z"/>
<path style="fill:#bf0000; stroke:black; stroke-width:0.33;" d="m 527.4,620.8 3.4,-1.4 37,21.5 -4.1,0.8 z"/>
<path style="fill:#ff6565; stroke:black; stroke-width:0.33;" d="m 533.4,611.5 0.3,3.5 36.5,21.3 -1.2,-3.8 z"/>
<path style="fill:#ff0000; stroke:black; stroke-width:0.33;" d="m 533.7,615 -2.8,4.3 36.8,21.8 2.5,-4.7 z"/>
<path style="fill:none; stroke:black; stroke-width:0.33;" d="m 527.3,620.7 -10.5,-12.7 16.5,3.5"/>
<path style="color:black; overflow:visible; fill:url(#id21); stroke-width:1;" d="m 567.5,631.2 c 0,0 2,3.1 0.2,6 -1.9,3 -5.6,3.7 -5.6,3.7 l 5.2,2.8 c 0,0 4.1,-0 6,-3.3 2,-3.3 -0.6,-6.5 -0.6,-6.5 z"/>
<path style="color:black; overflow:visible; fill:url(#id22); stroke-width:1;" d="m 524.2,609.6 -7.6,-2 5.4,6.4 c 2.4,-0.6 2.6,-2.5 2.2,-4.4 z"/>
</g>
<g transform="matrix(0.030562,-0.181121,-0.181121,-0.030562,877.529,568.839)">
<path style="fill:#db9977; stroke:black; stroke-width:3.75;" d="m 687.6,990.7 c 0,0 55.2,-13.1 77.7,-22.3 18,-7.3 41.1,-19.5 56.8,-30.8 11.4,-8.2 22.8,-23.6 34.1,-31.7 10.1,-7.3 25.2,-14.7 36.5,-19.9 22.1,-10.2 54.4,-17.4 75.8,-28.9 11.4,-6.1 27.9,-14.3 35.1,-25.1 3.6,-5.5 5.5,-14.8 4.7,-21.3 -0.7,-6.1 -4.6,-14.2 -9,-18.5 -3.7,-3.6 -10.6,-6.2 -15.6,-7.1 -9.6,-1.6 -20.6,2.9 -29.8,5.7 -8.8,2.7 -20.8,8.5 -29.4,11.8 -5,1.9 -12.4,2.5 -17.5,4.3 -6.2,2.1 -13.9,6.5 -19.9,9 -15.3,6.4 -35.2,17.5 -51.6,19.9 -13.6,1.9 -45.5,-3.8 -45.5,-3.8"/>
<path style="fill:#dbbcb3; stroke:black; stroke-width:3.75;" d="m 958.8,799.2 c 3.6,6.1 14.3,31 13.3,37.4 6.4,3.7 18.7,0.3 24.2,-4.7 4.2,-3.9 5.4,-12.7 5.2,-18.5 -0.2,-5.4 -2.6,-12.9 -6.2,-17.1 -3.3,-3.8 -8.7,-6.1 -13.7,-6.2 -7.3,-0.1 -19.7,2.3 -22.7,9 z"/>
<path style="fill:none; stroke:black; stroke-width:3.75;" d="m 914.3,816 c 8.4,12.7 15,27.2 15,27.2 l 2.8,10.8"/>
<path style="fill:none; stroke:black; stroke-width:3.75;" d="m 912.4,822 c 1.4,1.9 7,15.5 7,15.5 l 4.7,14.1"/>
<path style="opacity:0.5; fill:url(#id23);" d="m 849.1,907.5 c 12,-3 102.8,-43.5 122.6,-48.9 5.2,-1.4 3.5,-22.1 0,-18 -18.8,21.8 -85.4,41.3 -107.5,46.4 -19.6,4.5 -15.2,20.5 -15.2,20.5 z"/>
</g>
<path style="color:black; overflow:visible; fill:#fcffd9; fill-opacity:0.87; stroke:#013397; stroke-width:1.18;" d="m 572.3,379.6 142.9,-25.3 -79.6,-58.3 z"/>
<path style="fill:none; stroke:black; stroke-width:0.4px;" d="m 572.6,379.7 99.5,-56.1"/>
<circle cx="637.7" cy="343.4" r="3.25134" style="color:black; overflow:visible; fill:#204a87; stroke-width:1.86;"/>
<path style="fill:none; stroke:black; stroke-width:0.4px;" d="m 635.4,295.8 3.3,72.4"/>
<path style="fill:none; stroke:black; stroke-width:0.4px;" d="M 714.1,354.1 604.6,338.9"/>
<path style="color:black; overflow:visible; fill:#fcffd9; fill-opacity:0.87; stroke:#013397; stroke-width:1.18;" d="M 899.6,561.7 1042.5,536.4 962.8,478.1 Z"/>
<path style="color:black; overflow:visible; fill:#fcffd9; fill-opacity:0.87; stroke:#013397; stroke-width:1.18;" d="M 600.5,560.8 734.4,538.1 654.1,470.9 Z"/>
<path style="fill:none; stroke:black; stroke-width:0.61px;" d="M 580.2,585.7 686.5,460.4"/>
<path style="fill:none; stroke:black; stroke-width:0.62;" d="m 651.9,457.4 19.1,118.8"/>
<path style="fill:none; stroke:black; stroke-width:0.72px;" d="M 752.6,549.3 600.3,460.4"/>
<rect x="567.8" y="645.7" width="5.5" height="5.5" style="color:black; overflow:visible; fill:none; stroke:black; stroke-width:0.6;" transform="rotate(-9.41303)"/>
<rect x="797.5" y="127.6" width="5.5" height="5.5" style="color:black; overflow:visible; fill:none; stroke:black; stroke-width:0.6;" transform="rotate(27.9605)"/>
<rect x="34.6" y="822.8" width="5.5" height="5.5" style="color:black; overflow:visible; fill:none; stroke:black; stroke-width:0.6;" transform="rotate(-51.3474)"/>
<path style="color:black; overflow:visible; fill:#fcffd9; fill-opacity:0.87; stroke:#013397; stroke-width:1.18;" d="m 903.9,398.6 133.9,-22.7 -80.4,-67.2 z"/>
<g transform="matrix(0.39759,0,0,0.39759,749.97,107.406)">
<path style="fill:none; stroke:black; stroke-width:1.82px;" d="M 724.5,779.6 341.4,556.2"/>
<rect x="691.5" y="337.3" width="13.8" height="13.8" style="color:black; overflow:visible; fill:none; stroke:black; stroke-width:1.5;" transform="rotate(27.9605)"/>
</g>
<g transform="matrix(-0.0765,0.390161,-0.390161,-0.0765,1274.36,212.493)">
<path style="fill:none; stroke:black; stroke-width:1.82px;" d="M 724.5,779.6 341.4,556.2"/>
<rect x="691.5" y="337.3" width="13.8" height="13.8" style="color:black; overflow:visible; fill:none; stroke:black; stroke-width:1.5;" transform="rotate(27.9605)"/>
</g>
<path style="fill:none; stroke:black; stroke-width:0.72px;" d="m 952.9,277.6 24.6,174.6"/>
<rect x="-516.8" y="906.2" width="5.5" height="5.5" style="color:black; overflow:visible; fill:none; stroke:black; stroke-width:0.6;" transform="rotate(-97.893)"/>
<circle cx="968.7" cy="376.9" r="69.0652" style="color:black; overflow:visible; fill:none; stroke:#c4a000; stroke-width:0.6;"/>
<path style="color:black; overflow:visible; fill:#ad7fa8; fill-opacity:0.76; stroke:#2e3436; stroke-width:0.56;" d="m 977.6,489 a 18.1,18.1 0 0 1 -12.1,7.3 18.1,18.1 0 0 1 -13.7,-3.6 l 11.1,-14.4 z"/>
<path style="color:black; overflow:visible; fill:#ad7fa8; fill-opacity:0.76; stroke:#2e3436; stroke-width:0.56;" d="m 911.5,546 a 20,20 0 0 1 7.6,12.4 l -19.7,3.5 z"/>
<path style="color:black; overflow:visible; fill:#ad7fa8; fill-opacity:0.76; stroke:#2e3436; stroke-width:0.56;" d="m 1022.4,539.9 a 20,20 0 0 1 3.6,-15.4 l 16.1,11.8 z"/>
<path style="fill:none; stroke:black; stroke-width:0.4px;" d="m 959.8,460.7 16.4,106.1"/>
<path style="fill:none; stroke:black; stroke-width:0.4px;" d="M 1070.8,543.2 884.7,498.8"/>
<path style="fill:none; stroke:black; stroke-width:0.4px;" d="m 878.8,574.8 157.8,-97.7"/>
<circle cx="968.8" cy="519.4" r="29.4991" style="color:black; overflow:visible; fill:none; stroke:#c4a000; stroke-width:0.6;"/>
<text x="983.6" y="436.6" style="font-family:Georgia; font-size:14.7px; font-style:italic; color:black; overflow:visible; fill:#c4a000; stroke-width:0.54px;">circumcircle</text>
<text x="896.3" y="496.7" style="font-family:Georgia; font-size:14.7px; font-style:italic; color:black; overflow:visible; fill:#c4a000; stroke-width:0.54px;">incircle</text>
<text x="937.7" y="339" style="font-family:Georgia; font-size:22.3px; color:black; overflow:visible; fill:black; stroke-width:0.54px;">=</text>
<text x="916.2" y="374.4" style="font-family:Georgia; font-size:22.3px; color:black; overflow:visible; fill:black; stroke-width:0.54px;">=</text>
<text x="916.9" y="547.1" style="font-family:Georgia; font-size:22.3px; color:black; overflow:visible; fill:black; stroke-width:0.54px;">=</text>
<text x="921.6" y="555.1" style="font-family:Georgia; font-size:22.3px; color:black; overflow:visible; fill:black; stroke-width:0.54px;">=</text>
<text x="611.8" y="326.3" style="font-family:Georgia; font-size:22.3px; color:black; overflow:visible; fill:black; stroke-width:0.54px;">=</text>
<text x="587.4" y="358.5" style="font-family:Georgia; font-size:22.3px; color:black; overflow:visible; fill:black; stroke-width:0.54px;">=</text>
<circle cx="657.4" cy="493.7" r="3.25134" style="color:black; overflow:visible; fill:#204a87; stroke-width:1.86;"/>
<circle cx="966.6" cy="375.8" r="3.25134" style="color:black; overflow:visible; fill:#204a87; stroke-width:1.86;"/>
<circle cx="968.9" cy="518.5" r="3.25134" style="color:black; overflow:visible; fill:#204a87; stroke-width:1.86;"/>
<path style="color:black; overflow:visible; fill:#fcffd9; fill-opacity:0.87; stroke:#013397; stroke-width:1.18;" d="M 706.8,318.5 838.8,309.7 734.1,289.4 Z"/>
<path style="fill:none; stroke:black; stroke-width:0.4px;" d="M 707.2,318.6 782.6,299"/>
<ellipse cx="379.9" cy="485.3" rx="3.3" ry="1.8" transform="matrix(1,0,0.776377,0.630268,0,0)" style="color:black; overflow:visible; fill:#204a87; stroke-width:1.38;"/>
<path style="fill:none; stroke:black; stroke-width:0.4px;" d="m 733.9,289.3 34.5,25.3"/>
<path style="fill:none; stroke:black; stroke-width:0.4px;" d="M 837.7,309.6 721.6,304.3"/>
<text x="230" y="517.6" transform="matrix(1.69215,0,0.727961,0.590965,0,0)" style="font-family:Georgia; font-size:9.4px; font-style:italic; color:black; overflow:visible; fill:#204a87; stroke-width:0.23px;">centroid</text>
<rect x="642.3" y="331.3" ry="8" width="67.4" height="15.9" style="color:black; overflow:visible; fill:#ebe2a9; fill-opacity:0.76; stroke:#204a87; stroke-width:0.25;"/>
<rect x="668.4" y="484" ry="8" width="86.3" height="15.9" style="color:black; overflow:visible; fill:#ebe2a9; fill-opacity:0.76; stroke:#204a87; stroke-width:0.25;"/>
<rect x="974.3" y="358.2" ry="8" width="96.8" height="15.9" style="color:black; overflow:visible; fill:#ebe2a9; fill-opacity:0.76; stroke:#204a87; stroke-width:0.25;"/>
<rect x="973.5" y="508.2" ry="8" width="64.2" height="15.9" style="color:black; overflow:visible; fill:#ebe2a9; fill-opacity:0.76; stroke:#204a87; stroke-width:0.25;"/>
<text x="647.1" y="343.5" style="font-family:Georgia; font-size:14.7px; font-style:italic; color:black; overflow:visible; fill:#204a87; stroke:#204a87; stroke-width:0.24;">centroid</text>
<text x="977.8" y="520.3" style="font-family:Georgia; font-size:14.7px; font-style:italic; color:black; overflow:visible; fill:#204a87; stroke:#204a87; stroke-width:0.24;">incenter</text>
<text x="672.5" y="496.1" style="font-family:Georgia; font-size:14.7px; font-style:italic; color:black; overflow:visible; fill:#204a87; stroke:#204a87; stroke-width:0.24;">orthocenter</text>
<text x="980.5" y="369.8" style="font-family:Georgia; font-size:14.7px; font-style:italic; color:black; overflow:visible; fill:#204a87; stroke:#204a87; stroke-width:0.24;">circumcenter</text>
</g>
</svg>
