<?xml version="1.0" encoding="UTF-8" standalone="no"?>
<!-- Created with Inkscape (http://www.inkscape.org/) -->

<svg
   xmlns:dc="http://purl.org/dc/elements/1.1/"
   xmlns:cc="http://creativecommons.org/ns#"
   xmlns:rdf="http://www.w3.org/1999/02/22-rdf-syntax-ns#"
   xmlns:svg="http://www.w3.org/2000/svg"
   xmlns="http://www.w3.org/2000/svg"
   xmlns:sodipodi="http://sodipodi.sourceforge.net/DTD/sodipodi-0.dtd"
   xmlns:inkscape="http://www.inkscape.org/namespaces/inkscape"
   width="542.497"
   height="243.908"
   id="svg2"
   sodipodi:version="0.32"
   inkscape:version="0.92.1 r15371"
   sodipodi:docname="triangle-area.svg"
   inkscape:output_extension="org.inkscape.output.svg.inkscape"
   version="1.1">
  <sodipodi:namedview
     id="base"
     pagecolor="#ffffff"
     bordercolor="#666666"
     borderopacity="1.0"
     gridtolerance="10000"
     guidetolerance="10"
     objecttolerance="10"
     inkscape:pageopacity="0.0"
     inkscape:pageshadow="2"
     inkscape:zoom="0.16"
     inkscape:cx="-987.52788"
     inkscape:cy="98.47437"
     inkscape:document-units="px"
     inkscape:current-layer="layer1"
     showborder="true"
     inkscape:window-width="1680"
     inkscape:window-height="925"
     inkscape:window-x="-4"
     inkscape:window-y="-4"
     showgrid="false"
     showguides="true"
     inkscape:guide-bbox="true" />
  <defs
     id="defs4">
    <marker
       style="overflow:visible"
       id="Arrow1Lend"
       refX="0"
       refY="0"
       orient="auto"
       inkscape:stockid="Arrow1Lend">
      <path
         inkscape:connector-curvature="0"
         transform="matrix(-0.8,0,0,-0.8,-10,0)"
         style="fill-rule:evenodd;stroke:#000000;stroke-width:1pt;marker-start:none"
         d="M 0,0 5,-5 -12.5,0 5,5 Z"
         id="path3319" />
    </marker>
    <marker
       style="overflow:visible"
       id="Arrow1Lstart"
       refX="0"
       refY="0"
       orient="auto"
       inkscape:stockid="Arrow1Lstart">
      <path
         inkscape:connector-curvature="0"
         transform="matrix(0.8,0,0,0.8,10,0)"
         style="fill-rule:evenodd;stroke:#000000;stroke-width:1pt;marker-start:none"
         d="M 0,0 5,-5 -12.5,0 5,5 Z"
         id="path3316" />
    </marker>
    <inkscape:perspective
       id="perspective2566"
       inkscape:persp3d-origin="372.047 : 350.787 : 1"
       inkscape:vp_z="744.094 : 526.181 : 1"
       inkscape:vp_y="0 : 1000 : 0"
       inkscape:vp_x="0 : 526.181 : 1"
       sodipodi:type="inkscape:persp3d" />
  </defs>
  <metadata
     id="metadata7">
    <rdf:RDF>
      <cc:Work
         rdf:about="">
        <dc:format>image/svg+xml</dc:format>
        <dc:type
           rdf:resource="http://purl.org/dc/dcmitype/StillImage" />
        <dc:title></dc:title>
      </cc:Work>
    </rdf:RDF>
  </metadata>
  <g
     transform="translate(-880.729,-745.246)"
     id="layer1"
     inkscape:groupmode="layer"
     inkscape:label="Layer 1">
    <path
       inkscape:connector-curvature="0"
       sodipodi:nodetypes="cccc"
       id="path2160"
       d="m 967.121,745.833 -85.536,85.278 131.155,0.04 z"
       style="opacity:1;fill:#ffffb7;fill-opacity:0.75;fill-rule:evenodd;stroke:#000000;stroke-width:0.708;stroke-linecap:butt;stroke-linejoin:miter;stroke-miterlimit:4;stroke-dasharray:none;stroke-opacity:1" />
    <text
       id="text2162"
       y="797.638"
       x="954.153"
       style="font-style:normal;font-variant:normal;font-weight:normal;font-stretch:normal;font-size:1.44px;line-height:0%;font-family:'Comic Sans MS';-inkscape-font-specification:'Comic Sans MS';text-indent:0;text-align:start;text-decoration:none;text-decoration-line:none;letter-spacing:normal;word-spacing:normal;text-transform:none;writing-mode:lr-tb;direction:ltr;text-anchor:start;display:inline;overflow:visible;visibility:visible;opacity:1;fill:#3465a4;fill-opacity:1;fill-rule:nonzero;stroke:none;stroke-width:0.12px;stroke-linecap:butt;stroke-linejoin:miter;stroke-miterlimit:4;stroke-dasharray:none;stroke-dashoffset:0;stroke-opacity:1;marker:none;marker-start:none;marker-mid:none;marker-end:none;enable-background:accumulate"
       xml:space="preserve"><tspan
         style="font-size:17.280001px;line-height:1.21;stroke-width:0.12px"
         y="797.638"
         x="954.153"
         id="tspan3372"
         sodipodi:role="line">h</tspan></text>
    <rect
       y="819.771"
       x="966.789"
       height="11.1672"
       width="11.1672"
       id="rect2174"
       style="opacity:1;fill:none;fill-opacity:1;stroke:#000000;stroke-width:0.24;stroke-miterlimit:4;stroke-dasharray:none;stroke-dashoffset:0;stroke-opacity:1" />
    <path
       inkscape:connector-curvature="0"
       id="path3358"
       d="m 966.943,745.836 v 84.85"
       style="display:inline;overflow:visible;visibility:visible;opacity:1;fill:none;fill-opacity:1;fill-rule:nonzero;stroke:#000000;stroke-width:0.312;stroke-linecap:butt;stroke-linejoin:miter;stroke-miterlimit:4;stroke-dasharray:none;stroke-dashoffset:0;stroke-opacity:1;marker:none;marker-start:none;marker-mid:none;marker-end:none;enable-background:accumulate" />
    <path
       inkscape:connector-curvature="0"
       sodipodi:nodetypes="cccc"
       id="path3360"
       d="m 1188.83,746.641 -85.54,85.278 131.15,0.04 z"
       style="opacity:1;fill:#ffffb7;fill-opacity:0.75;fill-rule:evenodd;stroke:#000000;stroke-width:0.708;stroke-linecap:butt;stroke-linejoin:miter;stroke-miterlimit:4;stroke-dasharray:none;stroke-opacity:1" />
    <path
       inkscape:connector-curvature="0"
       sodipodi:nodetypes="cccc"
       id="path3366"
       d="m 1103.14,832.113 85.53,-85.278 -131.15,-0.04 z"
       style="opacity:1;fill:#fffff0;fill-opacity:0.75;fill-rule:evenodd;stroke:#000000;stroke-width:0.708;stroke-linecap:butt;stroke-linejoin:miter;stroke-miterlimit:4;stroke-dasharray:none;stroke-opacity:1" />
    <rect
       y="820.956"
       x="1188.47"
       height="11.1672"
       width="11.1672"
       id="rect3368"
       style="opacity:1;fill:none;fill-opacity:1;stroke:#000000;stroke-width:0.24;stroke-miterlimit:4;stroke-dasharray:none;stroke-dashoffset:0;stroke-opacity:1" />
    <path
       inkscape:connector-curvature="0"
       id="path3370"
       d="m 1188.62,747.021 v 84.851"
       style="display:inline;overflow:visible;visibility:visible;opacity:1;fill:none;fill-opacity:1;fill-rule:nonzero;stroke:#000000;stroke-width:0.312;stroke-linecap:butt;stroke-linejoin:miter;stroke-miterlimit:4;stroke-dasharray:none;stroke-dashoffset:0;stroke-opacity:1;marker:none;marker-start:none;marker-mid:none;marker-end:none;enable-background:accumulate" />
    <text
       id="text3374"
       y="847.436"
       x="1163.25"
       style="font-style:normal;font-variant:normal;font-weight:normal;font-stretch:normal;font-size:1.44px;line-height:0%;font-family:'Comic Sans MS';-inkscape-font-specification:'Comic Sans MS';text-indent:0;text-align:start;text-decoration:none;text-decoration-line:none;letter-spacing:normal;word-spacing:normal;text-transform:none;writing-mode:lr-tb;direction:ltr;text-anchor:start;display:inline;overflow:visible;visibility:visible;opacity:1;fill:#3465a4;fill-opacity:1;fill-rule:nonzero;stroke:none;stroke-width:0.12px;stroke-linecap:butt;stroke-linejoin:miter;stroke-miterlimit:4;stroke-dasharray:none;stroke-dashoffset:0;stroke-opacity:1;marker:none;marker-start:none;marker-mid:none;marker-end:none;enable-background:accumulate"
       xml:space="preserve"><tspan
         style="font-size:17.280001px;line-height:1.21;stroke-width:0.12px"
         y="847.436"
         x="1163.25"
         id="tspan3378"
         sodipodi:role="line">b</tspan></text>
    <text
       id="text3380"
       y="796.194"
       x="1174.04"
       style="font-style:normal;font-variant:normal;font-weight:normal;font-stretch:normal;font-size:1.44px;line-height:0%;font-family:'Comic Sans MS';-inkscape-font-specification:'Comic Sans MS';text-indent:0;text-align:start;text-decoration:none;text-decoration-line:none;letter-spacing:normal;word-spacing:normal;text-transform:none;writing-mode:lr-tb;direction:ltr;text-anchor:start;display:inline;overflow:visible;visibility:visible;opacity:1;fill:#3465a4;fill-opacity:1;fill-rule:nonzero;stroke:none;stroke-width:0.12px;stroke-linecap:butt;stroke-linejoin:miter;stroke-miterlimit:4;stroke-dasharray:none;stroke-dashoffset:0;stroke-opacity:1;marker:none;marker-start:none;marker-mid:none;marker-end:none;enable-background:accumulate"
       xml:space="preserve"><tspan
         style="font-size:17.280001px;line-height:1.21;stroke-width:0.12px"
         y="796.194"
         x="1174.04"
         id="tspan3382"
         sodipodi:role="line">h</tspan></text>
    <path
       inkscape:connector-curvature="0"
       sodipodi:nodetypes="cccc"
       id="path3384"
       d="m 1189.57,887.856 -85.54,85.278 131.15,0.04 z"
       style="opacity:1;fill:#ffffb7;fill-opacity:0.75;fill-rule:evenodd;stroke:#000000;stroke-width:0.708;stroke-linecap:butt;stroke-linejoin:miter;stroke-miterlimit:4;stroke-dasharray:none;stroke-opacity:1" />
    <path
       inkscape:connector-curvature="0"
       sodipodi:nodetypes="cccc"
       id="path3386"
       d="m 1103.88,973.088 85.53,-85.277 -85.34,-0.06 z"
       style="opacity:1;fill:#fffff0;fill-opacity:0.75;fill-rule:evenodd;stroke:#000000;stroke-width:0.708;stroke-linecap:butt;stroke-linejoin:miter;stroke-miterlimit:4;stroke-dasharray:none;stroke-opacity:1" />
    <rect
       y="888.133"
       x="1104.09"
       height="11.1672"
       width="11.1672"
       id="rect3388"
       style="opacity:1;fill:none;fill-opacity:1;stroke:none;stroke-width:0.24;stroke-miterlimit:4;stroke-dasharray:none;stroke-dashoffset:0;stroke-opacity:1" />
    <text
       id="text3392"
       y="988.799"
       x="1342.86"
       style="font-style:normal;font-variant:normal;font-weight:normal;font-stretch:normal;font-size:1.44px;line-height:0%;font-family:'Comic Sans MS';-inkscape-font-specification:'Comic Sans MS';text-indent:0;text-align:start;text-decoration:none;text-decoration-line:none;letter-spacing:normal;word-spacing:normal;text-transform:none;writing-mode:lr-tb;direction:ltr;text-anchor:start;display:inline;overflow:visible;visibility:visible;opacity:1;fill:#3465a4;fill-opacity:1;fill-rule:nonzero;stroke:none;stroke-width:0.12px;stroke-linecap:butt;stroke-linejoin:miter;stroke-miterlimit:4;stroke-dasharray:none;stroke-dashoffset:0;stroke-opacity:1;marker:none;marker-start:none;marker-mid:none;marker-end:none;enable-background:accumulate"
       xml:space="preserve"><tspan
         style="font-size:17.280001px;line-height:1.21;stroke-width:0.12px"
         y="988.799"
         x="1342.86"
         id="tspan3394"
         sodipodi:role="line">b</tspan></text>
    <text
       id="text3396"
       y="932.309"
       x="1414.13"
       style="font-style:normal;font-variant:normal;font-weight:normal;font-stretch:normal;font-size:1.44px;line-height:0%;font-family:'Comic Sans MS';-inkscape-font-specification:'Comic Sans MS';text-indent:0;text-align:start;text-decoration:none;text-decoration-line:none;letter-spacing:normal;word-spacing:normal;text-transform:none;writing-mode:lr-tb;direction:ltr;text-anchor:start;display:inline;overflow:visible;visibility:visible;opacity:1;fill:#3465a4;fill-opacity:1;fill-rule:nonzero;stroke:none;stroke-width:0.12px;stroke-linecap:butt;stroke-linejoin:miter;stroke-miterlimit:4;stroke-dasharray:none;stroke-dashoffset:0;stroke-opacity:1;marker:none;marker-start:none;marker-mid:none;marker-end:none;enable-background:accumulate"
       xml:space="preserve"><tspan
         style="font-size:17.280001px;line-height:1.21;stroke-width:0.12px"
         y="932.309"
         x="1414.13"
         id="tspan3398"
         sodipodi:role="line">h</tspan></text>
    <path
       inkscape:connector-curvature="0"
       sodipodi:nodetypes="cccc"
       id="path3410"
       d="m 1363.85,889.24 -85.54,85.278 131.16,0.04 z"
       style="opacity:1;fill:#ffffb7;fill-opacity:0.75;fill-rule:evenodd;stroke:#000000;stroke-width:0.708;stroke-linecap:butt;stroke-linejoin:miter;stroke-miterlimit:4;stroke-dasharray:none;stroke-opacity:1" />
    <path
       inkscape:connector-curvature="0"
       sodipodi:nodetypes="cccc"
       id="path3412"
       d="m 1278.16,974.592 85.54,-85.278 -85.35,-0.06 z"
       style="opacity:1;fill:#fffff0;fill-opacity:0.75;fill-rule:evenodd;stroke:#000000;stroke-width:0.708;stroke-linecap:butt;stroke-linejoin:miter;stroke-miterlimit:4;stroke-dasharray:none;stroke-opacity:1" />
    <path
       inkscape:connector-curvature="0"
       sodipodi:nodetypes="cccc"
       id="path3416"
       d="m 1409.82,974.786 c 0,0 0,-85.453 0,-85.389 l -45.57,0.07 z"
       style="opacity:1;fill:#ffff00;fill-opacity:0.988636;fill-rule:evenodd;stroke:#000000;stroke-width:0.708;stroke-linecap:butt;stroke-linejoin:miter;stroke-miterlimit:4;stroke-dasharray:none;stroke-opacity:1" />
    <text
       id="text3420"
       y="847.128"
       x="937.762"
       style="font-style:normal;font-variant:normal;font-weight:normal;font-stretch:normal;font-size:1.44px;line-height:0%;font-family:'Comic Sans MS';-inkscape-font-specification:'Comic Sans MS';text-indent:0;text-align:start;text-decoration:none;text-decoration-line:none;letter-spacing:normal;word-spacing:normal;text-transform:none;writing-mode:lr-tb;direction:ltr;text-anchor:start;display:inline;overflow:visible;visibility:visible;opacity:1;fill:#3465a4;fill-opacity:1;fill-rule:nonzero;stroke:none;stroke-width:0.12px;stroke-linecap:butt;stroke-linejoin:miter;stroke-miterlimit:4;stroke-dasharray:none;stroke-dashoffset:0;stroke-opacity:1;marker:none;marker-start:none;marker-mid:none;marker-end:none;enable-background:accumulate"
       xml:space="preserve"><tspan
         style="font-size:17.280001px;line-height:1.21;stroke-width:0.12px"
         y="847.128"
         x="937.762"
         id="tspan3422"
         sodipodi:role="line">b</tspan></text>
    <path
       inkscape:connector-curvature="0"
       d="m 1079.2,890.463 c 0.43,-0.457 0.91,-0.892 1.39,-1.322 0.82,-0.702 1.74,-1.333 2.69,-1.949 1.39,-0.888 2.88,-1.695 4.38,-2.486 1.7,-0.879 3.45,-1.7 5.21,-2.513 1.74,-0.8 3.49,-1.592 5.25,-2.381 1.65,-0.748 3.33,-1.467 5.03,-2.163 1.67,-0.678 3.39,-1.307 5.11,-1.929 1.81,-0.656 3.65,-1.277 5.5,-1.874 1.92,-0.615 3.89,-1.156 5.87,-1.67 2.09,-0.535 4.22,-0.993 6.36,-1.43 3.59,-0.721 7.2,-1.367 10.86,-1.903 2.18,-0.315 4.38,-0.565 6.59,-0.76 2.03,-0.185 4.08,-0.284 6.13,-0.339 1.87,-0.06 3.74,-0.07 5.61,-0.05 1.8,0.01 3.6,0.09 5.39,0.179 1.78,0.103 3.55,0.227 5.32,0.39 1.81,0.165 3.62,0.384 5.42,0.632 1.81,0.252 3.6,0.545 5.4,0.852 1.74,0.298 3.46,0.637 5.18,1.005 1.61,0.35 3.21,0.745 4.79,1.156 1.47,0.379 2.93,0.793 4.37,1.228 1.34,0.408 2.68,0.834 4,1.274 1.25,0.407 2.46,0.856 3.63,1.353 1.1,0.466 2.13,0.998 3.13,1.558 0.89,0.501 1.73,1.044 2.55,1.598 0.66,0.443 1.3,0.903 1.97,1.341 0.57,0.37 1.15,0.731 1.71,1.103 0.65,0.43 1.27,0.881 1.87,1.342 0.62,0.471 1.21,0.957 1.8,1.445 0.56,0.463 1.1,0.932 1.63,1.41 0.53,0.474 1.02,0.972 1.49,1.476 0.44,0.483 0.86,0.972 1.27,1.464 0.31,0.365 0.62,0.727 0.93,1.091 0.26,0.315 0.5,0.641 0.73,0.968 0.3,0.421 0.58,0.848 0.87,1.271 0.26,0.364 0.52,0.726 0.79,1.088 0.16,0.214 0.32,0.434 0.52,0.634 0.1,0.104 0.2,0.191 0.3,0.289 l -5.05,1.535 c -0.13,-0.127 -0.25,-0.266 -0.37,-0.401 -0.2,-0.249 -0.4,-0.499 -0.58,-0.757 -0.27,-0.373 -0.55,-0.746 -0.81,-1.123 -0.28,-0.415 -0.56,-0.831 -0.85,-1.242 -0.21,-0.292 -0.43,-0.581 -0.68,-0.861 -0.31,-0.364 -0.61,-0.728 -0.92,-1.093 -0.4,-0.467 -0.8,-0.934 -1.23,-1.389 -0.45,-0.465 -0.91,-0.923 -1.42,-1.362 -0.52,-0.457 -1.05,-0.908 -1.59,-1.352 -0.57,-0.467 -1.15,-0.932 -1.75,-1.38 -0.58,-0.426 -1.18,-0.844 -1.8,-1.24 -0.58,-0.372 -1.16,-0.741 -1.73,-1.124 -0.65,-0.446 -1.29,-0.896 -1.96,-1.334 -0.78,-0.509 -1.58,-1.008 -2.43,-1.46 -0.95,-0.497 -1.93,-0.97 -2.96,-1.375 -1.15,-0.444 -2.33,-0.856 -3.52,-1.237 -1.31,-0.421 -2.62,-0.838 -3.95,-1.225 -1.42,-0.409 -2.85,-0.802 -4.3,-1.163 -1.55,-0.387 -3.11,-0.76 -4.7,-1.082 -1.69,-0.339 -3.39,-0.659 -5.1,-0.937 -1.77,-0.288 -3.54,-0.566 -5.32,-0.792 -1.77,-0.218 -3.54,-0.416 -5.32,-0.555 -1.74,-0.131 -3.48,-0.254 -5.22,-0.325 -1.77,-0.07 -3.53,-0.121 -5.3,-0.113 -1.84,0 -3.67,0.04 -5.51,0.111 -2,0.09 -3.99,0.22 -5.98,0.431 -2.16,0.234 -4.32,0.497 -6.45,0.838 -1.1,0.176 -2.2,0.355 -3.29,0.548 -0.36,0.06 -1.46,0.268 -1.1,0.198 0.8,-0.151 5.1,-0.952 2.02,-0.379 -2.11,0.396 -4.22,0.832 -6.29,1.326 -1.96,0.469 -3.91,0.977 -5.81,1.552 -1.85,0.561 -3.67,1.156 -5.47,1.795 -1.7,0.601 -3.4,1.211 -5.08,1.857 -1.69,0.661 -3.36,1.353 -5,2.086 -1.75,0.779 -3.49,1.57 -5.24,2.363 -1.74,0.792 -3.48,1.587 -5.17,2.429 -1.48,0.744 -2.95,1.51 -4.34,2.337 -0.91,0.547 -1.81,1.111 -2.62,1.736 -0.49,0.37 -0.95,0.758 -1.37,1.166 z"
       id="path3424"
       style="display:inline;overflow:visible;visibility:visible;opacity:1;fill:#ffff00;fill-opacity:0.988636;fill-rule:nonzero;stroke:none;stroke-width:0.816;stroke-miterlimit:4;stroke-dasharray:2.448, 2.448;stroke-dashoffset:0;stroke-opacity:1;marker:none;marker-start:none;marker-mid:none;marker-end:none;enable-background:accumulate" />
    <path
       inkscape:connector-curvature="0"
       d="m 1206.27,888.315 c 0.66,0.04 1.33,0.06 1.99,0.101 0.84,0.06 1.68,0.15 2.51,0.267 0.8,0.127 1.59,0.302 2.36,0.494 0.66,0.184 1.31,0.385 1.95,0.594 0.51,0.163 1.03,0.309 1.54,0.471 0.48,0.143 0.95,0.311 1.38,0.514 0.44,0.192 0.86,0.404 1.27,0.632 0.33,0.197 0.66,0.405 0.98,0.611 0.25,0.118 0.46,0.266 0.67,0.411 0.17,0.116 0.33,0.233 0.5,0.345 0,-10e-4 0.15,0.113 0.16,0.08 0.1,-0.213 -0.36,-0.363 -0.57,-0.527 -5.35,2.115 -4.15,2.61 -4.51,1.062 -0.1,-0.268 -0.15,-0.535 -0.24,-0.801 -0.11,-0.337 -0.23,-0.671 -0.34,-1.007 -0.14,-0.431 -0.27,-0.865 -0.39,-1.3 -0.12,-0.432 -0.21,-0.867 -0.26,-1.305 -0.1,-0.486 0,-0.971 0.1,-1.452 0.11,-0.491 0.31,-0.968 0.54,-1.437 0.23,-0.449 0.54,-0.875 0.87,-1.292 0.32,-0.393 0.72,-0.752 1.13,-1.099 0.36,-0.288 0.75,-0.555 1.15,-0.809 0.29,-0.183 0.6,-0.349 0.9,-0.518 0.22,-0.116 0.42,-0.246 0.64,-0.359 0.1,-0.06 0.19,-0.08 0.28,-0.101 l 5.36,0.882 c -0.1,0.08 -0.17,0.134 -0.3,0.184 -0.21,0.09 -0.43,0.161 -0.61,0.271 -0.3,0.151 -0.58,0.311 -0.88,0.453 -0.38,0.201 -0.76,0.399 -1.1,0.625 -0.39,0.248 -0.77,0.509 -1.08,0.807 -0.34,0.303 -0.63,0.634 -0.85,0.986 -0.25,0.355 -0.43,0.726 -0.56,1.111 -0.12,0.348 -0.19,0.703 -0.17,1.062 0,0.378 0.11,0.753 0.21,1.126 0.11,0.409 0.23,0.817 0.36,1.223 0.11,0.342 0.24,0.682 0.35,1.024 0.1,0.298 0.19,0.598 0.27,0.898 0.42,1.813 0.13,1.154 -4.28,2.767 -0.37,-0.249 -0.71,-0.499 -1.05,-0.762 -0.15,-0.107 -0.3,-0.215 -0.47,-0.311 -0.22,-0.129 -0.45,-0.25 -0.65,-0.39 -0.29,-0.172 -0.58,-0.34 -0.89,-0.488 -0.36,-0.167 -0.72,-0.329 -1.11,-0.467 -0.41,-0.124 -0.82,-0.26 -1.24,-0.378 -0.52,-0.152 -1.03,-0.319 -1.54,-0.474 -0.59,-0.172 -1.19,-0.341 -1.81,-0.46 -0.7,-0.138 -1.41,-0.256 -2.13,-0.317 -0.79,-0.07 -1.58,-0.135 -2.37,-0.165 -0.68,-0.03 -1.36,-0.08 -2.04,-0.134 z"
       id="path3426"
       style="display:inline;overflow:visible;visibility:visible;opacity:1;fill:#ffff00;fill-opacity:0.988636;fill-rule:nonzero;stroke:none;stroke-width:0.816;stroke-miterlimit:4;stroke-dasharray:2.448, 2.448;stroke-dashoffset:0;stroke-opacity:1;marker:none;marker-start:none;marker-mid:none;marker-end:none;enable-background:accumulate" />
    <path
       inkscape:connector-curvature="0"
       d="m 1016.58,790.229 c 0.48,-0.226 0.97,-0.413 1.46,-0.614 0.61,-0.253 1.23,-0.459 1.86,-0.672 1.87,-0.554 3.75,-1.121 5.67,-1.49 0.68,-0.14 1.37,-0.271 2.06,-0.368 0.69,-0.1 1.37,-0.164 2.06,-0.22 0.67,-0.07 1.34,-0.1 2.02,-0.105 0.6,0 1.21,-0.02 1.82,-0.03 0.58,-0.01 1.17,0 1.76,0.05 0.6,0.02 1.2,0.1 1.79,0.162 0.56,0.09 1.12,0.174 1.67,0.283 0.52,0.08 1.03,0.2 1.55,0.299 0.51,0.111 1.02,0.24 1.53,0.377 0.48,0.155 0.97,0.279 1.45,0.418 0.46,0.121 0.92,0.225 1.38,0.351 0.44,0.115 0.88,0.211 1.32,0.339 0.38,0.109 0.78,0.184 1.18,0.242 0.39,0.08 0.79,0.129 1.18,0.209 0.41,0.08 0.82,0.119 1.24,0.155 0.43,0.03 0.87,0.07 1.3,0.123 0.43,0.05 0.86,0.07 1.29,0.1 0.4,0.02 0.79,0.04 1.18,0.06 0.35,0.01 0.7,0.03 1.05,0.03 0.33,-0.04 0.66,-0.07 0.99,-0.144 0.37,-0.04 0.73,-0.119 1.1,-0.162 0.39,-0.05 0.78,-0.08 1.15,-0.173 0.37,-0.08 0.76,-0.14 1.12,-0.262 2.8,-0.773 -4.11,1.135 -2.58,0.68 0.33,-0.05 0.64,-0.167 0.97,-0.252 0.21,-0.09 0.1,-0.05 0.31,-0.105 l 4.47,1.492 c -0.23,0.152 -0.11,0.09 -0.34,0.194 -0.34,0.186 -0.7,0.319 -1.06,0.471 -1.56,0.419 -3.1,0.912 -4.69,1.224 -0.4,0.05 -0.8,0.137 -1.21,0.182 -0.39,0.03 -0.79,0.09 -1.18,0.145 -0.39,0.06 -0.77,0.08 -1.16,0.121 -0.39,0 -0.79,0 -1.19,-0.04 -0.35,-0.02 -0.71,-0.04 -1.07,-0.06 -0.4,-0.03 -0.81,-0.06 -1.21,-0.09 -0.44,-0.04 -0.89,-0.09 -1.33,-0.143 -0.45,-0.05 -0.89,-0.07 -1.33,-0.148 -0.44,-0.07 -0.88,-0.15 -1.31,-0.235 -0.41,-0.06 -0.81,-0.158 -1.21,-0.234 -0.42,-0.105 -0.84,-0.219 -1.25,-0.331 -0.45,-0.102 -0.88,-0.225 -1.32,-0.338 -0.47,-0.113 -0.93,-0.245 -1.4,-0.375 -0.47,-0.128 -0.93,-0.276 -1.41,-0.376 -0.49,-0.111 -0.98,-0.216 -1.47,-0.303 -0.5,-0.101 -1.01,-0.17 -1.51,-0.258 -0.52,-0.07 -1.05,-0.158 -1.58,-0.184 -0.56,-0.05 -1.13,-0.06 -1.7,-0.07 -0.56,0 -1.13,0 -1.69,0.03 -0.6,0.01 -1.19,0.03 -1.79,0.06 -0.64,0.05 -1.28,0.117 -1.92,0.187 -0.66,0.08 -1.31,0.175 -1.96,0.304 -0.66,0.136 -1.32,0.277 -1.98,0.436 -0.16,0.04 -0.5,0.134 -0.67,0.177 -0.11,0.03 -0.45,0.12 -0.34,0.09 5.87,-1.583 3.87,-1.044 2.61,-0.702 -0.61,0.149 -1.21,0.33 -1.8,0.537 -0.48,0.162 -0.95,0.359 -1.43,0.525 z"
       id="path3452"
       style="display:inline;overflow:visible;visibility:visible;opacity:1;fill:#0000ff;fill-opacity:0.75;fill-rule:nonzero;stroke:none;stroke-width:0.816;stroke-miterlimit:4;stroke-dasharray:2.448, 2.448;stroke-dashoffset:0;stroke-opacity:1;marker:none;marker-start:none;marker-mid:none;marker-end:none;enable-background:accumulate" />
    <path
       inkscape:connector-curvature="0"
       d="m 1054.17,783.22 c 0.35,0.334 0.71,0.667 1.05,1.004 0.36,0.326 0.7,0.665 1.08,0.952 0.32,0.264 0.66,0.518 1.02,0.729 0.27,0.177 0.58,0.296 0.89,0.389 0.3,0.09 0.6,0.166 0.91,0.227 0.29,0.05 0.58,0.1 0.87,0.131 0.27,0.03 0.54,0.06 0.82,0.08 0.23,0.02 0.46,0.04 0.69,0.05 0.19,-0.01 0.42,0.07 0.6,-0.01 0.21,-0.06 0.45,0 0.66,-0.08 0.21,-0.04 0.4,-0.127 0.62,-0.163 0.12,-0.01 0.19,-0.1 0.31,-0.133 l -2.87,3.743 c -0.14,0.04 -0.28,0 -0.43,0.04 -0.26,0.05 -0.51,0.03 -0.77,0.03 -0.26,-0.03 -0.52,0 -0.78,-0.03 -0.23,-0.06 -0.47,-0.06 -0.71,-0.09 -0.24,-0.03 -0.49,-0.06 -0.74,-0.1 -0.3,-0.05 -0.6,-0.1 -0.9,-0.164 -0.33,-0.08 -0.66,-0.16 -0.98,-0.272 -0.37,-0.127 -0.73,-0.261 -1.08,-0.439 -0.38,-0.208 -0.76,-0.435 -1.11,-0.701 -0.37,-0.288 -0.75,-0.577 -1.11,-0.892 -0.38,-0.352 -0.77,-0.708 -1.14,-1.072 -0.35,-0.332 -0.7,-0.663 -1.05,-0.995 z"
       id="path3454"
       style="display:inline;overflow:visible;visibility:visible;opacity:1;fill:#0000ff;fill-opacity:0.75;fill-rule:nonzero;stroke:none;stroke-width:0.816;stroke-miterlimit:4;stroke-dasharray:2.448, 2.448;stroke-dashoffset:0;stroke-opacity:1;marker:none;marker-start:none;marker-mid:none;marker-end:none;enable-background:accumulate" />
    <path
       inkscape:connector-curvature="0"
       d="m 1052.73,797.279 c 0.28,-0.402 0.58,-0.794 0.88,-1.189 0.26,-0.371 0.54,-0.733 0.82,-1.096 0.25,-0.355 0.53,-0.693 0.8,-1.031 0.25,-0.301 0.49,-0.61 0.74,-0.908 0.23,-0.248 0.45,-0.497 0.67,-0.744 0.22,-0.239 0.43,-0.479 0.66,-0.702 0.2,-0.201 0.4,-0.381 0.62,-0.561 0.21,-0.22 0.44,-0.414 0.66,-0.63 0.22,-0.159 0.42,-0.345 0.63,-0.524 0.19,-0.189 0.41,-0.337 0.6,-0.518 0.21,-0.168 0.44,-0.304 0.67,-0.45 0.2,-0.101 0.39,-0.21 0.6,-0.296 1.37,-0.56 2.81,-0.991 4.29,-1.122 l -2.94,3.685 c -1.71,0.618 4.6,-1.099 3.03,-0.808 -0.18,0.03 -0.37,0.05 -0.54,0.114 -0.2,0.03 -0.39,0.107 -0.57,0.166 -0.21,0.04 -0.35,0.198 -0.54,0.278 -0.23,0.164 -0.44,0.329 -0.64,0.522 -0.23,0.131 -0.41,0.329 -0.63,0.481 -0.19,0.199 -0.39,0.381 -0.61,0.559 -0.21,0.196 -0.44,0.372 -0.64,0.583 -0.22,0.231 -0.45,0.462 -0.66,0.707 -0.26,0.259 -0.49,0.53 -0.73,0.807 -0.26,0.319 -0.52,0.637 -0.79,0.949 -0.27,0.364 -0.55,0.723 -0.82,1.08 -0.29,0.391 -0.57,0.785 -0.88,1.163 z"
       id="path3456"
       style="display:inline;overflow:visible;visibility:visible;opacity:1;fill:#0000ff;fill-opacity:0.75;fill-rule:nonzero;stroke:none;stroke-width:0.816;stroke-miterlimit:4;stroke-dasharray:2.448, 2.448;stroke-dashoffset:0;stroke-opacity:1;marker:none;marker-start:none;marker-mid:none;marker-end:none;enable-background:accumulate" />
    <text
       id="text3466"
       y="781.941"
       x="1027.7"
       style="font-style:normal;font-variant:normal;font-weight:normal;font-stretch:normal;font-size:1.44px;line-height:0%;font-family:'Comic Sans MS';-inkscape-font-specification:'Comic Sans MS';text-indent:0;text-align:start;text-decoration:none;text-decoration-line:none;letter-spacing:normal;word-spacing:normal;text-transform:none;writing-mode:lr-tb;direction:ltr;text-anchor:start;display:inline;overflow:visible;visibility:visible;opacity:1;fill:#0000ff;fill-opacity:0.75;fill-rule:nonzero;stroke:none;stroke-width:0.816;stroke-miterlimit:4;stroke-dasharray:2.448, 2.448;stroke-dashoffset:0;stroke-opacity:1;marker:none;marker-start:none;marker-mid:none;marker-end:none;enable-background:accumulate"
       xml:space="preserve"><tspan
         style="font-size:17.280001px;line-height:1.21;stroke-width:0.816"
         y="781.941"
         x="1027.7"
         id="tspan3468"
         sodipodi:role="line">x 2</tspan></text>
    <path
       inkscape:connector-curvature="0"
       sodipodi:nodetypes="cccc"
       id="path3408"
       d="m 1103.88,973.088 c 0,0 0,-85.453 -0.1,-85.388 l -45.57,0.07 z"
       style="opacity:1;fill:#ffff00;fill-opacity:0.988636;fill-rule:evenodd;stroke:#000000;stroke-width:0.708;stroke-linecap:butt;stroke-linejoin:miter;stroke-miterlimit:4;stroke-dasharray:none;stroke-opacity:1" />
    <path
       inkscape:connector-curvature="0"
       id="path3390"
       d="m 1103.9,888.458 v 84.85"
       style="display:inline;overflow:visible;visibility:visible;opacity:1;fill:none;fill-opacity:1;fill-rule:nonzero;stroke:#ffffff;stroke-width:1.284;stroke-miterlimit:4;stroke-dasharray:3.852, 3.852;stroke-dashoffset:0;stroke-opacity:1;marker:none;marker-start:none;marker-mid:none;marker-end:none;enable-background:accumulate" />
  </g>
</svg>
