<?xml version="1.0" encoding="UTF-8" standalone="no"?>
<svg
   version="1.0"
   width="181.507"
   height="158.061"
   id="Unit circle angles"
   sodipodi:version="0.32"
   inkscape:version="1.1 (c68e22c387, 2021-05-23)"
   sodipodi:docname="unit-circle-330.svg"
   xmlns:inkscape="http://www.inkscape.org/namespaces/inkscape"
   xmlns:sodipodi="http://sodipodi.sourceforge.net/DTD/sodipodi-0.dtd"
   xmlns="http://www.w3.org/2000/svg"
   xmlns:svg="http://www.w3.org/2000/svg"
   xmlns:rdf="http://www.w3.org/1999/02/22-rdf-syntax-ns#"
   xmlns:cc="http://creativecommons.org/ns#"
   xmlns:dc="http://purl.org/dc/elements/1.1/">
  <sodipodi:namedview
     inkscape:window-height="1005"
     inkscape:window-width="1920"
     inkscape:pageshadow="2"
     inkscape:pageopacity="0.0"
     guidetolerance="10.0"
     gridtolerance="10.0"
     objecttolerance="10.0"
     borderopacity="1.0"
     bordercolor="#666666"
     pagecolor="#ffffff"
     id="base"
     inkscape:zoom="0.391728"
     inkscape:cx="1041.28"
     inkscape:cy="196.43"
     inkscape:window-x="1911"
     inkscape:window-y="-9"
     inkscape:current-layer="Unit circle angles"
     showborder="true"
     showgrid="false"
     inkscape:window-maximized="1"
     inkscape:pagecheckerboard="0" />
  <metadata
     id="metadata354">
    <rdf:RDF>
      <cc:Work
         rdf:about="">
        <dc:format>image/svg+xml</dc:format>
        <dc:type
           rdf:resource="http://purl.org/dc/dcmitype/StillImage" />
      </cc:Work>
    </rdf:RDF>
  </metadata>
  <defs
     id="defs352">
    <inkscape:perspective
       id="perspective4104"
       inkscape:persp3d-origin="360 : -321.939 : 1"
       inkscape:vp_z="720 : -201.939 : 1"
       inkscape:vp_y="0 : 1000 : 0"
       inkscape:vp_x="0 : -201.939 : 1"
       sodipodi:type="inkscape:persp3d" />
    <marker
       style="overflow:visible"
       id="Arrow1Send"
       refX="0"
       refY="0"
       orient="auto"
       inkscape:stockid="Arrow1Send">
      <path
         transform="matrix(-0.2,0,0,-0.2,-1.2,0)"
         style="fill-rule:evenodd;stroke:#000000;stroke-width:1pt;marker-start:none"
         d="M 0,0 5,-5 -12.5,0 5,5 Z"
         id="path3647" />
    </marker>
    <marker
       style="overflow:visible"
       id="Arrow1Sstart"
       refX="0"
       refY="0"
       orient="auto"
       inkscape:stockid="Arrow1Sstart">
      <path
         transform="matrix(0.2,0,0,0.2,1.2,0)"
         style="fill-rule:evenodd;stroke:#000000;stroke-width:1pt;marker-start:none"
         d="M 0,0 5,-5 -12.5,0 5,5 Z"
         id="path3650" />
    </marker>
    <marker
       style="overflow:visible"
       id="Arrow1Mstart"
       refX="0"
       refY="0"
       orient="auto"
       inkscape:stockid="Arrow1Mstart">
      <path
         transform="matrix(0.4,0,0,0.4,4,0)"
         style="fill-rule:evenodd;stroke:#000000;stroke-width:1pt;marker-start:none"
         d="M 0,0 5,-5 -12.5,0 5,5 Z"
         id="path3656" />
    </marker>
    <marker
       style="overflow:visible"
       id="Arrow1Lstart"
       refX="0"
       refY="0"
       orient="auto"
       inkscape:stockid="Arrow1Lstart">
      <path
         transform="matrix(0.8,0,0,0.8,10,0)"
         style="fill-rule:evenodd;stroke:#000000;stroke-width:1pt;marker-start:none"
         d="M 0,0 5,-5 -12.5,0 5,5 Z"
         id="path3662" />
    </marker>
    <marker
       style="overflow:visible"
       id="Dot_m"
       refX="0"
       refY="0"
       orient="auto"
       inkscape:stockid="Dot_m">
      <path
         transform="matrix(0.4,0,0,0.4,2.96,0.4)"
         style="fill-rule:evenodd;stroke:#000000;stroke-width:1pt;marker-start:none;marker-end:none"
         d="m -2.5,-1 c 0,2.76 -2.24,5 -5,5 -2.76,0 -5,-2.24 -5,-5 0,-2.76 2.24,-5 5,-5 2.76,0 5,2.24 5,5 z"
         id="path3597" />
    </marker>
    <marker
       style="overflow:visible"
       id="Arrow2Lend"
       refX="0"
       refY="0"
       orient="auto"
       inkscape:stockid="Arrow2Lend">
      <path
         transform="matrix(-1.1,0,0,-1.1,-1.1,0)"
         d="M 8.71859,4.03374 -2.20729,0.016013 8.71859,-4.00171 c -1.7455,2.37206 -1.73544,5.61745 0,8.03545 z"
         style="font-size:12px;fill-rule:evenodd;stroke-width:0.625;stroke-linejoin:round"
         id="path3641" />
    </marker>
    <marker
       style="overflow:visible"
       id="Arrow1Lend"
       refX="0"
       refY="0"
       orient="auto"
       inkscape:stockid="Arrow1Lend">
      <path
         transform="matrix(-0.8,0,0,-0.8,-10,0)"
         style="fill-rule:evenodd;stroke:#000000;stroke-width:1pt;marker-start:none"
         d="M 0,0 5,-5 -12.5,0 5,5 Z"
         id="path3659" />
    </marker>
    <marker
       style="overflow:visible"
       id="Arrow1Mend"
       refX="0"
       refY="0"
       orient="auto"
       inkscape:stockid="Arrow1Mend">
      <path
         transform="matrix(-0.4,0,0,-0.4,-4,0)"
         style="fill-rule:evenodd;stroke:#000000;stroke-width:1pt;marker-start:none"
         d="M 0,0 5,-5 -12.5,0 5,5 Z"
         id="path3653" />
    </marker>
    <marker
       style="overflow:visible"
       id="Arrow1Mstartd"
       refX="0"
       refY="0"
       orient="auto"
       inkscape:stockid="Arrow1Mstartd">
      <path
         transform="matrix(0.4,0,0,0.4,4,0)"
         style="fill:#ba00ff;fill-rule:evenodd;stroke:#ba00ff;stroke-width:1pt;marker-start:none"
         d="M 0,0 5,-5 -12.5,0 5,5 Z"
         id="path6840" />
    </marker>
    <marker
       style="overflow:visible"
       id="Arrow1Mendk"
       refX="0"
       refY="0"
       orient="auto"
       inkscape:stockid="Arrow1Mendk">
      <path
         transform="matrix(-0.4,0,0,-0.4,-4,0)"
         style="fill:#ba00ff;fill-rule:evenodd;stroke:#ba00ff;stroke-width:1pt;marker-start:none"
         d="M 0,0 5,-5 -12.5,0 5,5 Z"
         id="path6843" />
    </marker>
    <marker
       style="overflow:visible"
       id="Arrow1Mstartdf"
       refX="0"
       refY="0"
       orient="auto"
       inkscape:stockid="Arrow1Mstartdf">
      <path
         transform="matrix(0.4,0,0,0.4,4,0)"
         style="fill:#ef2929;fill-rule:evenodd;stroke:#ef2929;stroke-width:1pt;marker-start:none"
         d="M 0,0 5,-5 -12.5,0 5,5 Z"
         id="path8338" />
    </marker>
    <marker
       style="overflow:visible"
       id="Arrow1Mendkk"
       refX="0"
       refY="0"
       orient="auto"
       inkscape:stockid="Arrow1Mendkk">
      <path
         transform="matrix(-0.4,0,0,-0.4,-4,0)"
         style="fill:#ef2929;fill-rule:evenodd;stroke:#ef2929;stroke-width:1pt;marker-start:none"
         d="M 0,0 5,-5 -12.5,0 5,5 Z"
         id="path8341" />
    </marker>
    <marker
       style="overflow:visible"
       id="Arrow1MstartdT"
       refX="0"
       refY="0"
       orient="auto"
       inkscape:stockid="Arrow1MstartdT">
      <path
         transform="matrix(0.4,0,0,0.4,4,0)"
         style="fill:#ef2929;fill-rule:evenodd;stroke:#ef2929;stroke-width:1pt;marker-start:none"
         d="M 0,0 5,-5 -12.5,0 5,5 Z"
         id="path8344" />
    </marker>
    <marker
       style="overflow:visible"
       id="Arrow1Mendka"
       refX="0"
       refY="0"
       orient="auto"
       inkscape:stockid="Arrow1Mendka">
      <path
         transform="matrix(-0.4,0,0,-0.4,-4,0)"
         style="fill:#ef2929;fill-rule:evenodd;stroke:#ef2929;stroke-width:1pt;marker-start:none"
         d="M 0,0 5,-5 -12.5,0 5,5 Z"
         id="path8347" />
    </marker>
    <marker
       style="overflow:visible"
       id="Arrow1MstartdTr"
       refX="0"
       refY="0"
       orient="auto"
       inkscape:stockid="Arrow1MstartdTr">
      <path
         transform="matrix(0.4,0,0,0.4,4,0)"
         style="fill:#ef2929;fill-rule:evenodd;stroke:#ef2929;stroke-width:1pt;marker-start:none"
         d="M 0,0 5,-5 -12.5,0 5,5 Z"
         id="path8350" />
    </marker>
    <marker
       style="overflow:visible"
       id="Arrow1MendkY"
       refX="0"
       refY="0"
       orient="auto"
       inkscape:stockid="Arrow1MendkY">
      <path
         transform="matrix(-0.4,0,0,-0.4,-4,0)"
         style="fill:#ef2929;fill-rule:evenodd;stroke:#ef2929;stroke-width:1pt;marker-start:none"
         d="M 0,0 5,-5 -12.5,0 5,5 Z"
         id="path8353" />
    </marker>
    <marker
       style="overflow:visible"
       id="Arrow1MstartdT-5"
       refX="0"
       refY="0"
       orient="auto"
       inkscape:stockid="Arrow1MstartdT">
      <path
         inkscape:connector-curvature="0"
         transform="matrix(0.4,0,0,0.4,4,0)"
         style="fill:#ef2929;fill-rule:evenodd;stroke:#ef2929;stroke-width:1pt;marker-start:none"
         d="M 0,0 5,-5 -12.5,0 5,5 Z"
         id="path8344-8" />
    </marker>
    <marker
       style="overflow:visible"
       id="Arrow1Mendka-5"
       refX="0"
       refY="0"
       orient="auto"
       inkscape:stockid="Arrow1Mendka">
      <path
         inkscape:connector-curvature="0"
         transform="matrix(-0.4,0,0,-0.4,-4,0)"
         style="fill:#ef2929;fill-rule:evenodd;stroke:#ef2929;stroke-width:1pt;marker-start:none"
         d="M 0,0 5,-5 -12.5,0 5,5 Z"
         id="path8347-6" />
    </marker>
    <marker
       style="overflow:visible"
       refX="0"
       refY="0"
       orient="auto"
       inkscape:stockid="Arrow1Lend7021"
       id="Arrow1Lend7021">
      <path
         transform="matrix(-0.8,0,0,-0.8,-10,0)"
         style="fill:#19aeff;fill-opacity:1;fill-rule:evenodd;stroke:#19aeff;stroke-width:1pt;stroke-opacity:1;marker-start:none"
         d="M 0,0 5,-5 -12.5,0 5,5 Z"
         id="path5062" />
    </marker>
    <marker
       style="overflow:visible"
       refX="0"
       refY="0"
       orient="auto"
       inkscape:stockid="Arrow1Lend7108"
       id="Arrow1Lend7108">
      <path
         transform="matrix(-0.8,0,0,-0.8,-10,0)"
         style="fill:#19aeff;fill-opacity:1;fill-rule:evenodd;stroke:#19aeff;stroke-width:1pt;stroke-opacity:1;marker-start:none"
         d="M 0,0 5,-5 -12.5,0 5,5 Z"
         id="path5065" />
    </marker>
    <marker
       style="overflow:visible"
       refX="0"
       refY="0"
       orient="auto"
       inkscape:stockid="Arrow1Lend4138"
       id="Arrow1Lend4138">
      <path
         transform="matrix(-0.8,0,0,-0.8,-10,0)"
         style="fill:#19aeff;fill-opacity:1;fill-rule:evenodd;stroke:#19aeff;stroke-width:1pt;stroke-opacity:1;marker-start:none"
         d="M 0,0 5,-5 -12.5,0 5,5 Z"
         id="path5068" />
    </marker>
    <marker
       style="overflow:visible"
       refX="0"
       refY="0"
       orient="auto"
       inkscape:stockid="Arrow1Lend6397"
       id="Arrow1Lend6397">
      <path
         transform="matrix(-0.8,0,0,-0.8,-10,0)"
         style="fill:#19aeff;fill-opacity:1;fill-rule:evenodd;stroke:#19aeff;stroke-width:1pt;stroke-opacity:1;marker-start:none"
         d="M 0,0 5,-5 -12.5,0 5,5 Z"
         id="path5071" />
    </marker>
  </defs>
  <path
     d="M -125.298,19.68 H 177.986"
     style="fill:none;stroke:#19aeff;stroke-width:1.30312;stroke-miterlimit:4;stroke-dasharray:none;marker-end:url(#Arrow1Lend6397)"
     id="path3573"
     inkscape:connector-curvature="0" />
  <path
     d="M 16.478,159.41 V -144.62"
     style="fill:none;stroke:#19aeff;stroke-width:1.30312;stroke-miterlimit:4;stroke-dasharray:none;marker-end:url(#Arrow1Lend4138)"
     id="path3575"
     inkscape:connector-curvature="0" />
  <path
     style="color:#000000;display:inline;overflow:visible;visibility:visible;fill:#ffffff;fill-opacity:1;fill-rule:nonzero;stroke:none;stroke-width:2;marker:none"
     id="path3620"
     cx="102.185"
     cy="63.9099"
     rx="19.3654"
     ry="19.3591" />
  <path
     d="m 140.593,19.39 c 0,-68.76 -55.763,-124.51 -124.551,-124.51 -68.788,0 -124.551,55.75 -124.551,124.51 0,68.77 55.763,124.51 124.551,124.51 68.788,0 124.551,-55.74 124.551,-124.51 z"
     style="fill:none;stroke:#204a87;stroke-width:1.95468;stroke-miterlimit:4;stroke-dasharray:none"
     id="path3624"
     inkscape:connector-curvature="0" />
  <text
     xml:space="preserve"
     style="color:#000000;font-style:italic;font-variant:normal;font-weight:bold;font-stretch:normal;font-size:22.8588px;line-height:125%;font-family:'Trebuchet MS';text-indent:0;text-align:start;text-decoration:none;text-decoration-line:none;letter-spacing:normal;word-spacing:normal;text-transform:none;writing-mode:lr-tb;direction:ltr;text-anchor:start;display:inline;overflow:visible;visibility:visible;fill:#000000;fill-opacity:1;fill-rule:nonzero;stroke:none;stroke-width:1.5198;marker:none"
     x="153.885"
     y="41.5916"
     id="text3630"
     transform="scale(1.00016,0.99984)"><tspan
       sodipodi:role="line"
       id="tspan3632"
       x="153.885"
       y="41.5916"
       style="stroke-width:1.5198">x</tspan></text>
  <g
     id="g3634"
     transform="matrix(0.571563,0,0,0.571379,-593.015,-624.197)"
     style="fill:#c4a000">
    <path
       id="path3636"
       style="fill:#c4a000;stroke:none"
       d="m 1289.71,1126.25 c 0,-3.38 -2.74,-6.12 -6.12,-6.12 -3.38,0 -6.12,2.74 -6.12,6.12 0,3.38 2.74,6.12 6.12,6.12 3.38,0 6.12,-2.74 6.12,-6.12"
       inkscape:connector-curvature="0" />
    <path
       id="path3638"
       style="fill:#c4a000;stroke:none"
       d="m 1259.98,1017.5 c 0,-3.38 -2.74,-6.12 -6.12,-6.12 -3.37,0 -6.11,2.74 -6.11,6.12 0,3.38 2.74,6.12 6.11,6.12 3.38,0 6.12,-2.74 6.12,-6.12"
       inkscape:connector-curvature="0" />
    <path
       id="path3640"
       style="fill:#c4a000;stroke:none"
       d="m 1225.37,972.043 c 0,-3.378 -2.75,-6.12 -6.12,-6.12 -3.38,0 -6.12,2.742 -6.12,6.12 0,3.378 2.74,6.119 6.12,6.119 3.37,0 6.12,-2.741 6.12,-6.119"
       inkscape:connector-curvature="0" />
    <path
       id="path3642"
       style="fill:#c4a000;stroke:none"
       d="m 1180.61,937.424 c 0,-3.377 -2.74,-6.119 -6.12,-6.119 -3.38,0 -6.12,2.742 -6.12,6.119 0,3.378 2.74,6.12 6.12,6.12 3.38,0 6.12,-2.742 6.12,-6.12"
       inkscape:connector-curvature="0" />
    <path
       id="path3644"
       style="fill:#c4a000;stroke:none"
       d="m 1071.51,908.401 c 0,-3.378 -2.74,-6.119 -6.12,-6.119 -3.38,0 -6.12,2.741 -6.12,6.119 0,3.378 2.74,6.119 6.12,6.119 3.38,0 6.12,-2.741 6.12,-6.119"
       inkscape:connector-curvature="0" />
    <path
       id="path3646"
       style="fill:#c4a000;stroke:none"
       d="m 962.407,937.424 c 0,-3.377 -2.741,-6.119 -6.119,-6.119 -3.378,0 -6.12,2.742 -6.12,6.119 0,3.378 2.742,6.12 6.12,6.12 3.378,0 6.119,-2.742 6.119,-6.12"
       inkscape:connector-curvature="0" />
    <path
       id="path3648"
       style="fill:#c4a000;stroke:none"
       d="m 917.299,972.043 c 0,-3.378 -2.742,-6.12 -6.12,-6.12 -3.378,0 -6.119,2.742 -6.119,6.12 0,3.378 2.741,6.119 6.119,6.119 3.378,0 6.12,-2.741 6.12,-6.119"
       inkscape:connector-curvature="0" />
    <path
       id="path3651"
       style="fill:#c4a000;stroke:none"
       d="m 882.68,1017.5 c 0,-3.38 -2.741,-6.12 -6.119,-6.12 -3.378,0 -6.12,2.74 -6.12,6.12 0,3.38 2.742,6.12 6.12,6.12 3.378,0 6.119,-2.74 6.119,-6.12"
       inkscape:connector-curvature="0" />
    <path
       id="path3654"
       style="fill:#c4a000;stroke:none"
       d="m 853.307,1126.25 c 0,-3.38 -2.741,-6.12 -6.119,-6.12 -3.378,0 -6.12,2.74 -6.12,6.12 0,3.38 2.742,6.12 6.12,6.12 3.378,0 6.119,-2.74 6.119,-6.12"
       inkscape:connector-curvature="0" />
    <path
       id="path3657"
       style="fill:#c4a000;stroke:none"
       d="m 882.68,1235.35 c 0,-3.38 -2.741,-6.12 -6.119,-6.12 -3.378,0 -6.12,2.74 -6.12,6.12 0,3.38 2.742,6.12 6.12,6.12 3.378,0 6.119,-2.74 6.119,-6.12"
       inkscape:connector-curvature="0" />
    <path
       id="path3660"
       style="fill:#c4a000;stroke:none"
       d="m 917.299,1280.46 c 0,-3.38 -2.742,-6.12 -6.12,-6.12 -3.378,0 -6.119,2.74 -6.119,6.12 0,3.38 2.741,6.12 6.119,6.12 3.378,0 6.12,-2.74 6.12,-6.12"
       inkscape:connector-curvature="0" />
    <path
       id="path3663"
       style="fill:#c4a000;stroke:none"
       d="m 962.407,1315.08 c 0,-3.38 -2.741,-6.12 -6.119,-6.12 -3.378,0 -6.12,2.74 -6.12,6.12 0,3.38 2.742,6.12 6.12,6.12 3.378,0 6.119,-2.74 6.119,-6.12"
       inkscape:connector-curvature="0" />
    <path
       id="path3665"
       style="fill:#c4a000;stroke:none"
       d="m 1071.51,1344.45 c 0,-3.38 -2.74,-6.12 -6.12,-6.12 -3.38,0 -6.12,2.74 -6.12,6.12 0,3.38 2.74,6.12 6.12,6.12 3.38,0 6.12,-2.74 6.12,-6.12"
       inkscape:connector-curvature="0" />
    <path
       id="path3667"
       style="fill:#c4a000;stroke:none"
       d="m 1180.61,1315.08 c 0,-3.38 -2.74,-6.12 -6.12,-6.12 -3.38,0 -6.12,2.74 -6.12,6.12 0,3.38 2.74,6.12 6.12,6.12 3.38,0 6.12,-2.74 6.12,-6.12"
       inkscape:connector-curvature="0" />
    <path
       id="path3669"
       style="fill:#c4a000;stroke:none"
       d="m 1225.37,1280.46 c 0,-3.38 -2.75,-6.12 -6.12,-6.12 -3.38,0 -6.12,2.74 -6.12,6.12 0,3.38 2.74,6.12 6.12,6.12 3.37,0 6.12,-2.74 6.12,-6.12"
       inkscape:connector-curvature="0" />
    <path
       id="path3671"
       style="fill:#c4a000;stroke:none"
       d="m 1259.98,1235.35 c 0,-3.38 -2.74,-6.12 -6.12,-6.12 -3.37,0 -6.11,2.74 -6.11,6.12 0,3.38 2.74,6.12 6.11,6.12 3.38,0 6.12,-2.74 6.12,-6.12"
       inkscape:connector-curvature="0" />
  </g>
  <path
     inkscape:connector-curvature="0"
     id="path8190"
     style="fill:none;stroke:#19aeff;stroke-width:1.30312;stroke-miterlimit:4;stroke-dasharray:none;marker-end:url(#Arrow1Lend7108)"
     d="M 306.702,19.68 H 609.984" />
  <path
     inkscape:connector-curvature="0"
     id="path8192"
     style="fill:none;stroke:#19aeff;stroke-width:1.30312;stroke-miterlimit:4;stroke-dasharray:none;marker-end:url(#Arrow1Lend7021)"
     d="M 448.478,159.41 V -144.62" />
  <path
     id="path8194"
     style="color:#000000;display:inline;overflow:visible;visibility:visible;fill:#ffffff;fill-opacity:1;fill-rule:nonzero;stroke:none;stroke-width:2;marker:none"
     cx="534.185"
     cy="63.9099"
     rx="19.3654"
     ry="19.3591" />
  <path
     inkscape:connector-curvature="0"
     id="path8196"
     style="fill:none;stroke:#204a87;stroke-width:1.95468;stroke-miterlimit:4;stroke-dasharray:none"
     d="m 572.594,19.39 c 0,-68.76 -55.764,-124.51 -124.552,-124.51 -68.788,0 -124.551,55.75 -124.551,124.51 0,68.77 55.763,124.51 124.551,124.51 68.788,0 124.552,-55.74 124.552,-124.51 z" />
  <text
     transform="scale(1.00016,0.99984)"
     id="text8202"
     y="41.5916"
     x="585.815"
     style="color:#000000;font-style:italic;font-variant:normal;font-weight:bold;font-stretch:normal;font-size:22.8588px;line-height:125%;font-family:'Trebuchet MS';text-indent:0;text-align:start;text-decoration:none;text-decoration-line:none;letter-spacing:normal;word-spacing:normal;text-transform:none;writing-mode:lr-tb;direction:ltr;text-anchor:start;display:inline;overflow:visible;visibility:visible;fill:#000000;fill-opacity:1;fill-rule:nonzero;stroke:none;stroke-width:1.5198;marker:none"
     xml:space="preserve"><tspan
       y="41.5916"
       x="585.815"
       id="tspan8204"
       sodipodi:role="line"
       style="stroke-width:1.5198">x</tspan></text>
  <g
     style="fill:#c4a000"
     transform="matrix(0.571563,0,0,0.571379,-161.015,-624.197)"
     id="g8206">
    <path
       inkscape:connector-curvature="0"
       d="m 1289.71,1126.25 c 0,-3.38 -2.74,-6.12 -6.12,-6.12 -3.38,0 -6.12,2.74 -6.12,6.12 0,3.38 2.74,6.12 6.12,6.12 3.38,0 6.12,-2.74 6.12,-6.12"
       style="fill:#c4a000;stroke:none"
       id="path8208" />
    <path
       inkscape:connector-curvature="0"
       d="m 1259.98,1017.5 c 0,-3.38 -2.74,-6.12 -6.12,-6.12 -3.37,0 -6.11,2.74 -6.11,6.12 0,3.38 2.74,6.12 6.11,6.12 3.38,0 6.12,-2.74 6.12,-6.12"
       style="fill:#c4a000;stroke:none"
       id="path8210" />
    <path
       inkscape:connector-curvature="0"
       d="m 1225.37,972.043 c 0,-3.378 -2.75,-6.12 -6.12,-6.12 -3.38,0 -6.12,2.742 -6.12,6.12 0,3.378 2.74,6.119 6.12,6.119 3.37,0 6.12,-2.741 6.12,-6.119"
       style="fill:#c4a000;stroke:none"
       id="path8212" />
    <path
       inkscape:connector-curvature="0"
       d="m 1180.61,937.424 c 0,-3.377 -2.74,-6.119 -6.12,-6.119 -3.38,0 -6.12,2.742 -6.12,6.119 0,3.378 2.74,6.12 6.12,6.12 3.38,0 6.12,-2.742 6.12,-6.12"
       style="fill:#c4a000;stroke:none"
       id="path8214" />
    <path
       inkscape:connector-curvature="0"
       d="m 1071.51,908.401 c 0,-3.378 -2.74,-6.119 -6.12,-6.119 -3.38,0 -6.12,2.741 -6.12,6.119 0,3.378 2.74,6.119 6.12,6.119 3.38,0 6.12,-2.741 6.12,-6.119"
       style="fill:#c4a000;stroke:none"
       id="path8216" />
    <path
       inkscape:connector-curvature="0"
       d="m 962.407,937.424 c 0,-3.377 -2.741,-6.119 -6.119,-6.119 -3.378,0 -6.12,2.742 -6.12,6.119 0,3.378 2.742,6.12 6.12,6.12 3.378,0 6.119,-2.742 6.119,-6.12"
       style="fill:#c4a000;stroke:none"
       id="path8218" />
    <path
       inkscape:connector-curvature="0"
       d="m 917.299,972.043 c 0,-3.378 -2.742,-6.12 -6.12,-6.12 -3.378,0 -6.119,2.742 -6.119,6.12 0,3.378 2.741,6.119 6.119,6.119 3.378,0 6.12,-2.741 6.12,-6.119"
       style="fill:#c4a000;stroke:none"
       id="path8220" />
    <path
       inkscape:connector-curvature="0"
       d="m 882.68,1017.5 c 0,-3.38 -2.741,-6.12 -6.119,-6.12 -3.378,0 -6.12,2.74 -6.12,6.12 0,3.38 2.742,6.12 6.12,6.12 3.378,0 6.119,-2.74 6.119,-6.12"
       style="fill:#c4a000;stroke:none"
       id="path8222" />
    <path
       inkscape:connector-curvature="0"
       d="m 853.307,1126.25 c 0,-3.38 -2.741,-6.12 -6.119,-6.12 -3.378,0 -6.12,2.74 -6.12,6.12 0,3.38 2.742,6.12 6.12,6.12 3.378,0 6.119,-2.74 6.119,-6.12"
       style="fill:#c4a000;stroke:none"
       id="path8224" />
    <path
       inkscape:connector-curvature="0"
       d="m 882.68,1235.35 c 0,-3.38 -2.741,-6.12 -6.119,-6.12 -3.378,0 -6.12,2.74 -6.12,6.12 0,3.38 2.742,6.12 6.12,6.12 3.378,0 6.119,-2.74 6.119,-6.12"
       style="fill:#c4a000;stroke:none"
       id="path8226" />
    <path
       inkscape:connector-curvature="0"
       d="m 917.299,1280.46 c 0,-3.38 -2.742,-6.12 -6.12,-6.12 -3.378,0 -6.119,2.74 -6.119,6.12 0,3.38 2.741,6.12 6.119,6.12 3.378,0 6.12,-2.74 6.12,-6.12"
       style="fill:#c4a000;stroke:none"
       id="path8228" />
    <path
       inkscape:connector-curvature="0"
       d="m 962.407,1315.08 c 0,-3.38 -2.741,-6.12 -6.119,-6.12 -3.378,0 -6.12,2.74 -6.12,6.12 0,3.38 2.742,6.12 6.12,6.12 3.378,0 6.119,-2.74 6.119,-6.12"
       style="fill:#c4a000;stroke:none"
       id="path8230" />
    <path
       inkscape:connector-curvature="0"
       d="m 1071.51,1344.45 c 0,-3.38 -2.74,-6.12 -6.12,-6.12 -3.38,0 -6.12,2.74 -6.12,6.12 0,3.38 2.74,6.12 6.12,6.12 3.38,0 6.12,-2.74 6.12,-6.12"
       style="fill:#c4a000;stroke:none"
       id="path8232" />
    <path
       inkscape:connector-curvature="0"
       d="m 1180.61,1315.08 c 0,-3.38 -2.74,-6.12 -6.12,-6.12 -3.38,0 -6.12,2.74 -6.12,6.12 0,3.38 2.74,6.12 6.12,6.12 3.38,0 6.12,-2.74 6.12,-6.12"
       style="fill:#c4a000;stroke:none"
       id="path8234" />
    <path
       inkscape:connector-curvature="0"
       d="m 1225.37,1280.46 c 0,-3.38 -2.75,-6.12 -6.12,-6.12 -3.38,0 -6.12,2.74 -6.12,6.12 0,3.38 2.74,6.12 6.12,6.12 3.37,0 6.12,-2.74 6.12,-6.12"
       style="fill:#c4a000;stroke:none"
       id="path8236" />
    <path
       inkscape:connector-curvature="0"
       d="m 1259.98,1235.35 c 0,-3.38 -2.74,-6.12 -6.12,-6.12 -3.37,0 -6.11,2.74 -6.11,6.12 0,3.38 2.74,6.12 6.11,6.12 3.38,0 6.12,-2.74 6.12,-6.12"
       style="fill:#c4a000;stroke:none"
       id="path8238" />
  </g>
  <path
     style="fill:none;stroke:#ba00ff;stroke-width:2.34;stroke-linecap:butt;stroke-linejoin:miter;stroke-miterlimit:4;stroke-dasharray:none;stroke-opacity:1;marker-start:url(#Arrow1Mstartd);marker-end:url(#Arrow1Mendk)"
     d="M 118.741,81.61 H 20.248"
     id="path9880"
     inkscape:connector-curvature="0" />
  <text
     xml:space="preserve"
     style="color:#000000;font-style:normal;font-variant:normal;font-weight:normal;font-stretch:normal;font-size:25.7016px;line-height:125%;font-family:'Trebuchet MS';-inkscape-font-specification:'Trebuchet MS';text-indent:0;text-align:start;text-decoration:none;text-decoration-line:none;letter-spacing:0px;word-spacing:0px;text-transform:none;writing-mode:lr-tb;direction:ltr;baseline-shift:baseline;text-anchor:start;display:inline;overflow:visible;visibility:visible;fill:#4e9a06;fill-opacity:1;fill-rule:nonzero;stroke:none;stroke-width:0.6px;marker:none;enable-background:accumulate"
     x="90.4842"
     y="7.46497"
     id="text9882"
     transform="rotate(28.3048)"><tspan
       sodipodi:role="line"
       id="tspan9884"
       x="90.4842"
       y="7.46497"
       style="stroke-width:0.6px">330°</tspan></text>
  <path
     style="fill:none;stroke:#ef2929;stroke-width:2.34;stroke-linecap:butt;stroke-linejoin:miter;stroke-miterlimit:4;stroke-dasharray:none;stroke-opacity:1;marker-start:url(#Arrow1MstartdT);marker-end:url(#Arrow1Mendka)"
     d="M 340.743,23.3 V 77.34"
     id="path8240-7"
     inkscape:connector-curvature="0" />
  <text
     xml:space="preserve"
     style="color:#000000;font-style:normal;font-variant:normal;font-weight:normal;font-stretch:normal;font-size:21.8198px;line-height:125%;font-family:'Trebuchet MS';text-indent:0;text-align:start;text-decoration:none;text-decoration-line:none;letter-spacing:normal;word-spacing:normal;text-transform:none;writing-mode:lr-tb;direction:ltr;text-anchor:start;display:inline;overflow:visible;visibility:visible;fill:#4e9a06;fill-opacity:1;fill-rule:nonzero;stroke:none;stroke-width:0.6px;marker:none"
     x="283.359"
     y="233.961"
     id="text2105-6"
     transform="matrix(0.872147,-0.489393,0.489572,0.871879,0,0)"><tspan
       y="233.961"
       x="283.359"
       id="tspan2185-1"
       sodipodi:role="line"
       style="stroke-width:0.6px">7π/6</tspan></text>
  <text
     transform="matrix(1.00007,-0.001546,0.001834,0.999927,0,0)"
     id="text10062"
     y="40.7559"
     x="298.042"
     style="color:#000000;font-style:normal;font-variant:normal;font-weight:normal;font-stretch:normal;font-size:32.0792px;line-height:125%;font-family:'Trebuchet MS';-inkscape-font-specification:'Trebuchet MS';text-indent:0;text-align:start;text-decoration:none;text-decoration-line:none;letter-spacing:normal;word-spacing:normal;text-transform:none;writing-mode:lr-tb;direction:ltr;text-anchor:start;display:inline;overflow:visible;visibility:visible;fill:#000000;fill-opacity:1;fill-rule:nonzero;stroke:none;stroke-width:0.6px;marker:none"
     xml:space="preserve"><tspan
       sodipodi:role="line"
       id="tspan10066"
       x="298.042"
       y="40.7559"
       style="stroke-width:0.6px">π</tspan></text>
  <path
     id="path24602-7"
     d="M 126.439,82.11 16.054,19.48"
     style="fill:none;fill-opacity:0.75;fill-rule:evenodd;stroke:#4e9a06;stroke-width:1.30312;stroke-linecap:butt;stroke-linejoin:miter;stroke-miterlimit:4;stroke-dasharray:none;stroke-opacity:1"
     inkscape:connector-curvature="0" />
  <path
     inkscape:connector-curvature="0"
     style="fill:none;stroke:#4e9a06;stroke-width:1.30312;stroke-linecap:butt;stroke-linejoin:miter;stroke-miterlimit:4;stroke-dasharray:none;stroke-opacity:1"
     d="M 337.364,83.75 447.748,21.12"
     id="path10110" />
  <rect
     style="color:#000000;overflow:visible;fill:#976b63;stroke:#19aeff;stroke-width:2;stop-color:#000000"
     id="rect5313"
     width="179.507"
     height="156.061"
     x="284.547"
     y="0.26732"
     ry="4.33002" />
</svg>
