<?xml version="1.0" encoding="UTF-8" standalone="no"?>
<!-- Copyright 2017 mathsisfun.com -->

<svg
   width="256.1"
   height="218.8"
   version="1.0"
   id="svg34"
   sodipodi:docname="unit-circle-angle0.svg"
   inkscape:version="1.1 (c68e22c387, 2021-05-23)"
   xmlns:inkscape="http://www.inkscape.org/namespaces/inkscape"
   xmlns:sodipodi="http://sodipodi.sourceforge.net/DTD/sodipodi-0.dtd"
   xmlns="http://www.w3.org/2000/svg"
   xmlns:svg="http://www.w3.org/2000/svg">
  <sodipodi:namedview
     id="namedview36"
     pagecolor="#ffffff"
     bordercolor="#666666"
     borderopacity="1.0"
     inkscape:pageshadow="2"
     inkscape:pageopacity="0.0"
     inkscape:pagecheckerboard="0"
     showgrid="false"
     inkscape:current-layer="svg34" />
  <defs
     id="defs8">
    <marker
       id="id1"
       style="overflow:visible"
       orient="auto">
      <path
         transform="matrix(-0.8,0,0,-0.8,-10,0)"
         style="stroke:black;stroke-width:1pt"
         d="M 0,0 5,-5 -12.5,0 5,5 Z"
         id="path2" />
    </marker>
    <marker
       id="id2"
       style="overflow:visible"
       orient="auto">
      <path
         transform="matrix(-0.4,0,0,-0.4,-4,0)"
         style="stroke:black;stroke-width:1pt"
         d="M 0,0 5,-5 -12.5,0 5,5 Z"
         id="path5" />
    </marker>
    <marker
       style="overflow:visible"
       orient="auto"
       id="id23917"
       inkscape:stockid="id23917">
      <path
         transform="matrix(-0.4,0,0,-0.4,-4,0)"
         style="stroke:#4e9a06;stroke-width:1pt;stroke-opacity:1;fill-opacity:1;fill:#4e9a06"
         d="M 0,0 5,-5 -12.5,0 5,5 Z"
         id="path1041" />
    </marker>
    <marker
       style="overflow:visible"
       orient="auto"
       id="id14546"
       inkscape:stockid="id14546">
      <path
         transform="matrix(-0.8,0,0,-0.8,-10,0)"
         style="stroke:#19aeff;stroke-width:1pt;stroke-opacity:1;fill-opacity:1;fill:#19aeff"
         d="M 0,0 5,-5 -12.5,0 5,5 Z"
         id="path1149" />
    </marker>
    <marker
       style="overflow:visible"
       orient="auto"
       id="id15840"
       inkscape:stockid="id15840">
      <path
         transform="matrix(-0.8,0,0,-0.8,-10,0)"
         style="stroke:#19aeff;stroke-width:1pt;stroke-opacity:1;fill-opacity:1;fill:#19aeff"
         d="M 0,0 5,-5 -12.5,0 5,5 Z"
         id="path1152" />
    </marker>
    <marker
       style="overflow:visible"
       orient="auto"
       inkscape:stockid="id239176021"
       id="id239176021">
      <path
         transform="matrix(-0.4,0,0,-0.4,-4,0)"
         style="stroke:#4e9a06;stroke-width:1pt;stroke-opacity:1;fill-opacity:1;fill:#4e9a06"
         d="M 0,0 5,-5 -12.5,0 5,5 Z"
         id="path1295" />
    </marker>
  </defs>
  <path
     style="marker-end:url(#id15840);fill:none;stroke:#19aeff;stroke-width:0.95"
     d="M 0,118.4 H 254.2"
     id="path10" />
  <path
     style="marker-end:url(#id14546);fill:none;stroke:#19aeff;stroke-width:0.94"
     d="M 98.9,218.8 V 1.8"
     id="path12" />
  <path
     style="fill:none;stroke:#204a87;stroke-width:1.51"
     d="m 176.3,118.4 c 0,-42.7 -34.6,-77.3 -77.3,-77.3 -42.7,0 -77.3,34.6 -77.3,77.3 0,42.7 34.6,77.2 77.3,77.2 42.7,0 77.3,-34.6 77.3,-77.2 z"
     id="path14" />
  <text
     x="86.6"
     y="13"
     transform="scale(1.0001,0.9999)"
     style="color:black;fill:#19aeff;font-family:Trebuchet MS;font-size:14.3px;font-style:italic;font-weight:bold;stroke-width:1.4"
     id="text16">y</text>
  <text
     x="233.6"
     y="132.775"
     transform="scale(1.0001,0.9999)"
     style="color:#000000;font-style:italic;font-weight:bold;font-size:14.3px;font-family:'Trebuchet MS';fill:#19aeff;stroke-width:1.4"
     id="text18">x</text>
  <text
     x="119.5"
     y="113.6"
     transform="scale(0.998801,1.0012)"
     style="fill:#fcaf3e;font-family:Trebuchet MS;font-size:14.7px;stroke-width:1.4"
     id="text20">cos=1</text>
  <text
     x="180.1"
     y="113.7"
     transform="matrix(0.999097,-0.00127,0.00366,1.0009,0,0)"
     style="fill:#3465a4;font-family:Trebuchet MS;font-size:14.7px;stroke-width:1.4"
     id="text22">tan=0</text>
  <text
     x="182.2"
     y="127.2"
     transform="scale(0.998801,1.0012)"
     style="fill:#fb0f0c;font-family:Trebuchet MS;font-size:14.7px;stroke-width:3.55"
     id="text24">sin=0</text>
  <text
     x="154.3"
     y="56"
     transform="scale(1.0001,0.9999)"
     style="color:black;fill:#4e9a06;font-family:Trebuchet MS;font-size:14.3px;stroke-width:1.4"
     id="text26">(cos 0°, sin 0°)</text>
  <path
     style="fill:#fcaf3e;fill-opacity:0.75;stroke:#fcaf3e;stroke-width:2.53"
     d="m 98.8,118.6 h 77.7"
     id="path28" />
  <path
     style="marker-end:url(#id239176021);fill:none;stroke:#4e9a06;stroke-width:1.81"
     d="m 199.4,60.2 c 0,0 1.5,15 -7.8,22.8 -9.3,7.8 -9.8,4.9 -13.5,24.3"
     id="path30" />
  <path
     style="fill:black;stroke:#ad7fa8;stroke-width:0.5"
     d="m 178.6,118.7 c 0,-1.2 -1,-2.2 -2.2,-2.2 -1.2,0 -2.2,1 -2.2,2.2 0,1.2 1,2.2 2.2,2.2 1.2,0 2.2,-1 2.2,-2.2"
     id="path32" />
</svg>
