<?xml version="1.0" encoding="UTF-8" standalone="no"?>
<!-- Copyright 2017 mathsisfun.com -->
<svg xmlns="http://www.w3.org/2000/svg" width="199.1" height="149.7" version="1.1">
<defs>
<marker id="id4" style="overflow:visible;" orient="auto">
<path transform="matrix(-0.4,0,0,-0.4,-4,0)" style="fill:#ff9900; stroke:#ff9900; stroke-width:1pt;" d="M 0,0 5,-5 -12.5,0 5,5 Z"/>
</marker>
<marker id="id3" style="overflow:visible;" orient="auto">
<path transform="matrix(0.4,0,0,0.4,4,0)" style="fill:#ff9900; stroke:#ff9900; stroke-width:1pt;" d="M 0,0 5,-5 -12.5,0 5,5 Z"/>
</marker>
<marker id="id2" style="overflow:visible;" orient="auto">
<path transform="matrix(-0.4,0,0,-0.4,-4,0)" style="fill:#ff9900; stroke:#ff9900; stroke-width:1pt;" d="M 0,0 5,-5 -12.5,0 5,5 Z"/>
</marker>
<marker id="id1" style="overflow:visible;" orient="auto">
<path transform="matrix(0.4,0,0,0.4,4,0)" style="fill:#ff9900; stroke:#ff9900; stroke-width:1pt;" d="M 0,0 5,-5 -12.5,0 5,5 Z"/>
</marker>
</defs>
<g transform="translate(-255.356,-411.235)">
<rect x="261.8" y="417.5" width="192.6" height="139.5" style="color:black; overflow:visible; fill:white; stroke-width:4.97;"/>
<path style="fill:none; stroke:#204a87; stroke-width:1.66;" d="M 292,411.8 429.9,560.4"/>
<path style="fill:none; stroke:#0084c8; stroke-width:1.66;" d="M 255.6,533.3 454.2,472.1"/>
<path transform="matrix(0.44969,-0.893185,0.892813,0.450428,0,0)" style="color:black; marker-start:url(#id1); marker-end:url(#id2); overflow:visible; fill:none; stroke:#ff9900; stroke-width:1.11; stroke-linejoin:round;" d="m -250.4,587.2 a 41.8,41.8 0 0 1 -37.3,6.4"/>
<path transform="matrix(-0.449697,0.893181,-0.892808,-0.450438,0,0)" style="color:black; marker-start:url(#id3); marker-end:url(#id4); overflow:visible; fill:none; stroke:#ff9900; stroke-width:1.11; stroke-linejoin:round;" d="m 302.4,-522.6 a 41.8,41.8 0 0 1 -37.3,6.4"/>
<text x="422.2" y="520.7" transform="scale(0.999484,1.00052)" style="font-family:'Comic Sans MS'; font-size:21px; font-style:italic; color:black; overflow:visible; fill:#ff9900; stroke-width:0.37px;">b°</text>
<text x="304.9" y="486.7" transform="scale(0.999484,1.00052)" style="font-family:'Comic Sans MS'; font-size:21px; font-style:italic; color:black; overflow:visible; fill:#ff9900; stroke-width:0.37px;">a°</text>
</g>
</svg>
