<?xml version="1.0" encoding="UTF-8" standalone="no"?>
<!-- Copyright 2017 mathsisfun.com -->
<svg xmlns="http://www.w3.org/2000/svg" width="196.4" height="115.8" version="1.1">
<defs>
<marker id="id8" style="overflow:visible;" orient="auto">
<path transform="matrix(-0.4,0,0,-0.4,-4,0)" style="fill:#ff9900; stroke:#ff9900; stroke-width:1pt;" d="M 0,0 5,-5 -12.5,0 5,5 Z"/>
</marker>
<marker id="id7" style="overflow:visible;" orient="auto">
<path transform="matrix(0.4,0,0,0.4,4,0)" style="fill:#ff9900; stroke:#ff9900; stroke-width:1pt;" d="M 0,0 5,-5 -12.5,0 5,5 Z"/>
</marker>
<marker id="id6" style="overflow:visible;" orient="auto">
<path transform="matrix(-0.4,0,0,-0.4,-4,0)" style="fill:#ff9900; stroke:#ff9900; stroke-width:1pt;" d="M 0,0 5,-5 -12.5,0 5,5 Z"/>
</marker>
<marker id="id5" style="overflow:visible;" orient="auto">
<path transform="matrix(0.4,0,0,0.4,4,0)" style="fill:#ff9900; stroke:#ff9900; stroke-width:1pt;" d="M 0,0 5,-5 -12.5,0 5,5 Z"/>
</marker>
<marker id="id4" style="overflow:visible;" orient="auto">
<path transform="matrix(-0.4,0,0,-0.4,-4,0)" style="fill:#ff9900; stroke:#ff9900; stroke-width:1pt;" d="M 0,0 5,-5 -12.5,0 5,5 Z"/>
</marker>
<marker id="id3" style="overflow:visible;" orient="auto">
<path transform="matrix(0.4,0,0,0.4,4,0)" style="fill:#ff9900; stroke:#ff9900; stroke-width:1pt;" d="M 0,0 5,-5 -12.5,0 5,5 Z"/>
</marker>
<marker id="id2" style="overflow:visible;" orient="auto">
<path transform="matrix(-0.4,0,0,-0.4,-4,0)" style="fill:#ff9900; stroke:#ff9900; stroke-width:1pt;" d="M 0,0 5,-5 -12.5,0 5,5 Z"/>
</marker>
<marker id="id1" style="overflow:visible;" orient="auto">
<path transform="matrix(0.4,0,0,0.4,4,0)" style="fill:#ff9900; stroke:#ff9900; stroke-width:1pt;" d="M 0,0 5,-5 -12.5,0 5,5 Z"/>
</marker>
</defs>
<g transform="translate(-260.082,-427.4)">
<rect x="261.2" y="427.4" width="195.3" height="115.8" style="color:black; overflow:visible; fill:white; stroke-width:4.97;"/>
<path style="fill:none; stroke:#204a87; stroke-width:1.66;" d="m 260.3,455.6 195.5,53.3"/>
<path style="fill:none; stroke:#0084c8; stroke-width:1.66;" d="M 260.9,542.5 456.1,441.7"/>
<path transform="matrix(0.964801,0.262981,-0.262646,0.964892,0,0)" style="color:black; marker-start:url(#id1); marker-end:url(#id2); overflow:visible; fill:none; stroke:#ff9900; stroke-width:1.11; stroke-linejoin:round;" d="m 519.7,373.3 a 33.5,33.5 0 0 1 -21.1,28.9 33.5,33.5 0 0 1 -35.2,-6.7"/>
<path transform="matrix(-0.964797,-0.262997,0.26266,-0.964888,0,0)" style="color:black; marker-start:url(#id3); marker-end:url(#id4); overflow:visible; fill:none; stroke:#ff9900; stroke-width:1.11; stroke-linejoin:round;" d="m -455,-367.3 a 33.5,33.5 0 0 1 -20.6,28.7 33.5,33.5 0 0 1 -34.8,-5.7"/>
<path transform="matrix(-0.089388,-0.995997,0.995986,-0.08951,0,0)" style="color:black; marker-start:url(#id5); marker-end:url(#id6); overflow:visible; fill:none; stroke:#ff9900; stroke-width:1.11; stroke-linejoin:round;" d="m -502.7,365.6 a 41.8,41.8 0 0 1 -25.9,0.4"/>
<path transform="matrix(0.08938,0.995998,-0.995987,0.089502,0,0)" style="color:black; marker-start:url(#id7); marker-end:url(#id8); overflow:visible; fill:none; stroke:#ff9900; stroke-width:1.11; stroke-linejoin:round;" d="m 530.3,-288.6 a 41.8,41.8 0 0 1 -24.4,-0.2"/>
<text x="359.9" y="445.9" transform="scale(0.999659,1.00034)" style="font-family:'Comic Sans MS'; font-size:21px; font-style:italic; color:black; overflow:visible; fill:#ff9900; stroke-width:0.37px;">c째</text>
<text x="300.7" y="498.7" transform="scale(0.999659,1.00034)" style="font-family:'Comic Sans MS'; font-size:21px; font-style:italic; color:black; overflow:visible; fill:#ff9900; stroke-width:0.37px;">b째</text>
<text x="360.6" y="541.3" transform="scale(0.999659,1.00034)" style="font-family:'Comic Sans MS'; font-size:21px; font-style:italic; color:black; overflow:visible; fill:#ff9900; stroke-width:0.37px;">a째</text>
<text x="418.8" y="485.8" transform="scale(0.999659,1.00034)" style="font-family:'Comic Sans MS'; font-size:21px; font-style:italic; color:black; overflow:visible; fill:#ff9900; stroke-width:0.37px;">40째</text>
</g>
</svg>
