<?xml version="1.0" encoding="UTF-8" standalone="no"?>
<!-- Copyright 2021 mathsisfun.com -->

<svg
   width="220"
   height="220"
   version="1.0"
   style="font-size:1.2px;font-family:'Trebuchet MS';fill:#000000;stroke-width:0.63"
   id="svg828"
   sodipodi:docname="clock-0515.svg"
   inkscape:version="1.1 (c68e22c387, 2021-05-23)"
   xmlns:inkscape="http://www.inkscape.org/namespaces/inkscape"
   xmlns:sodipodi="http://sodipodi.sourceforge.net/DTD/sodipodi-0.dtd"
   xmlns:xlink="http://www.w3.org/1999/xlink"
   xmlns="http://www.w3.org/2000/svg"
   xmlns:svg="http://www.w3.org/2000/svg">
  <sodipodi:namedview
     id="namedview830"
     pagecolor="#ffffff"
     bordercolor="#666666"
     borderopacity="1.0"
     inkscape:pageshadow="2"
     inkscape:pageopacity="0.0"
     inkscape:pagecheckerboard="0"
     showgrid="false"
     inkscape:current-layer="svg828" />
  <defs
     id="defs544">
    <linearGradient
       id="id13">
      <stop
         offset="0"
         style="stop-color:#cccccc;stop-opacity:1"
         id="stop2" />
      <stop
         offset="1"
         style="stop-color:#cccccc;stop-opacity:0"
         id="stop4" />
    </linearGradient>
    <linearGradient
       id="id12">
      <stop
         offset="0"
         style="stop-color:#19aeff;stop-opacity:1"
         id="stop7" />
      <stop
         offset="1"
         style="stop-color:#75ceff;stop-opacity:1"
         id="stop9" />
    </linearGradient>
    <linearGradient
       id="id11">
      <stop
         offset="0"
         style="stop-color:#88d5ff;stop-opacity:1"
         id="stop12" />
      <stop
         offset="1"
         style="stop-color:#c2e9ff;stop-opacity:1"
         id="stop14" />
    </linearGradient>
    <linearGradient
       id="id14"
       xlink:href="#id11"
       x1="8"
       y1="16.1"
       x2="17.5"
       y2="7.8"
       gradientUnits="userSpaceOnUse"
       gradientTransform="matrix(9.95926,0,0,9.95926,0.448166,0.448166)" />
    <linearGradient
       id="id15"
       xlink:href="#id12"
       x1="17.7"
       y1="3.6"
       x2="1.1"
       y2="19.1"
       gradientUnits="userSpaceOnUse"
       gradientTransform="matrix(9.95926,0,0,9.95926,0.448166,0.448166)" />
    <filter
       id="id16"
       x="-0.0262861"
       y="-0.0853072"
       width="1.05257"
       height="1.17061">
      <feGaussianBlur
         stdDeviation="0.064905"
         id="feGaussianBlur537" />
    </filter>
    <filter
       id="id17"
       x="-0.2241"
       y="-0.0327951"
       width="1.4482"
       height="1.06559">
      <feGaussianBlur
         stdDeviation="0.0974666"
         id="feGaussianBlur540" />
    </filter>
    <radialGradient
       id="id18"
       r="0.71653"
       fx="10.8373"
       fy="10.9024"
       cx="10.8"
       cy="10.9"
       xlink:href="#id13"
       gradientUnits="userSpaceOnUse"
       gradientTransform="matrix(9.95926,0,0,9.95926,0.448166,0.448166)" />
  </defs>
  <circle
     cx="110"
     cy="110"
     r="92.5676"
     style="fill:url(#id14);stroke:#19aeff;stroke-width:1.49389;stop-color:#000000"
     id="circle546" />
  <g
     transform="matrix(3.33859,0,0,3.33859,-275.5,-276.513)"
     id="g754">
    <g
       id="g752">
      <g
         transform="matrix(0.547041,0,0,0.547041,81.7339,81.9249)"
         id="g550">
        <path
           d="m 70.9,19.2 c -0.6,0 -1.1,-0.5 -1.1,-1.1 0,-0.6 0.5,-1.1 1.1,-1.1 0.6,0 1.1,0.5 1.1,1.1 0,0.6 -0.5,1.1 -1.1,1.1 z"
           id="path548" />
      </g>
      <g
         transform="matrix(0.547041,0,0,0.547041,81.7339,81.9249)"
         id="g554">
        <path
           d="m 66,18.6 c -0.6,0 -1.1,-0.5 -1.1,-1.1 0,-0.6 0.5,-1.1 1.1,-1.1 0.6,0 1.1,0.5 1.1,1.1 0,0.6 -0.5,1.1 -1.1,1.1 z"
           id="path552" />
      </g>
      <g
         transform="matrix(0.547041,0,0,0.547041,81.7339,81.9249)"
         id="g558">
        <path
           d="m 75.5,20.5 c -0.6,0 -1.1,-0.5 -1.1,-1.1 0,-0.6 0.5,-1.1 1.1,-1.1 0.6,0 1.1,0.5 1.1,1.1 0,0.6 -0.5,1.1 -1.1,1.1 z"
           id="path556" />
      </g>
      <g
         transform="matrix(0.547041,0,0,0.547041,81.7339,81.9249)"
         id="g562">
        <path
           d="m 79.6,22.1 c -0.6,0 -1.1,-0.5 -1.1,-1.1 0,-0.6 0.5,-1.1 1.1,-1.1 0.6,0 1.1,0.5 1.1,1.1 0,0.6 -0.5,1.1 -1.1,1.1 z"
           id="path560" />
      </g>
      <g
         transform="matrix(0.547041,0,0,0.547041,81.7339,81.9249)"
         id="g566">
        <path
           d="m 87.9,26.7 c -0.6,0 -1.1,-0.5 -1.1,-1.1 0,-0.6 0.5,-1.1 1.1,-1.1 0.6,0 1.1,0.5 1.1,1.1 0,0.6 -0.5,1.1 -1.1,1.1 z"
           id="path564" />
      </g>
      <g
         transform="matrix(0.547041,0,0,0.547041,81.7339,81.9249)"
         id="g570">
        <path
           d="m 95,33.1 c -0.6,0 -1.1,-0.5 -1.1,-1.1 0,-0.6 0.5,-1.1 1.1,-1.1 0.6,0 1.1,0.5 1.1,1.1 0,0.6 -0.5,1.1 -1.1,1.1 z"
           id="path568" />
      </g>
      <g
         transform="matrix(0.547041,0,0,0.547041,81.7339,81.9249)"
         id="g574">
        <path
           d="m 98,36.8 c -0.6,0 -1.1,-0.5 -1.1,-1.1 0,-0.6 0.5,-1.1 1.1,-1.1 0.6,0 1.1,0.5 1.1,1.1 0,0.6 -0.5,1.1 -1.1,1.1 z"
           id="path572" />
      </g>
      <g
         transform="matrix(0.547041,0,0,0.547041,81.7339,81.9249)"
         id="g578">
        <path
           d="m 102.8,45.2 c -0.6,0 -1.1,-0.5 -1.1,-1.1 0,-0.6 0.5,-1.1 1.1,-1.1 0.6,0 1.1,0.5 1.1,1.1 0,0.6 -0.5,1.1 -1.1,1.1 z"
           id="path576" />
      </g>
      <g
         transform="matrix(0.547041,0,0,0.547041,81.7339,81.9249)"
         id="g582">
        <path
           d="m 104.5,49.4 c -0.6,0 -1.1,-0.5 -1.1,-1.1 0,-0.6 0.5,-1.1 1.1,-1.1 0.6,0 1.1,0.5 1.1,1.1 0,0.6 -0.5,1.1 -1.1,1.1 z"
           id="path580" />
      </g>
      <g
         transform="matrix(0.547041,0,0,0.547041,81.7339,81.9249)"
         id="g586">
        <path
           d="m 105.5,53.7 c -0.6,0 -1.1,-0.5 -1.1,-1.1 0,-0.6 0.5,-1.1 1.1,-1.1 0.6,0 1.1,0.5 1.1,1.1 0,0.6 -0.5,1.1 -1.1,1.1 z"
           id="path584" />
      </g>
      <g
         transform="matrix(0.547041,0,0,0.547041,81.7339,81.9249)"
         id="g590">
        <path
           d="m 106.5,58.6 c -0.6,0 -1.1,-0.5 -1.1,-1.1 0,-0.6 0.5,-1.1 1.1,-1.1 0.6,0 1.1,0.5 1.1,1.1 0,0.6 -0.5,1.1 -1.1,1.1 z"
           id="path588" />
      </g>
      <g
         transform="matrix(0.547041,0,0,0.547041,81.7339,81.9249)"
         id="g594">
        <path
           d="m 106.4,68.1 c -0.6,0 -1.1,-0.5 -1.1,-1.1 0,-0.6 0.5,-1.1 1.1,-1.1 0.6,0 1.1,0.5 1.1,1.1 0,0.6 -0.5,1.1 -1.1,1.1 z"
           id="path592" />
      </g>
      <g
         transform="matrix(0.547041,0,0,0.547041,81.7339,81.9249)"
         id="g598">
        <path
           d="m 105.6,72.7 c -0.6,0 -1.1,-0.5 -1.1,-1.1 0,-0.6 0.5,-1.1 1.1,-1.1 0.6,0 1.1,0.5 1.1,1.1 0,0.6 -0.5,1.1 -1.1,1.1 z"
           id="path596" />
      </g>
      <g
         transform="matrix(0.547041,0,0,0.547041,81.7339,81.9249)"
         id="g602">
        <path
           d="m 104.4,77.5 c -0.6,0 -1.1,-0.5 -1.1,-1.1 0,-0.6 0.5,-1.1 1.1,-1.1 0.6,0 1.1,0.5 1.1,1.1 0,0.6 -0.5,1.1 -1.1,1.1 z"
           id="path600" />
      </g>
      <g
         transform="matrix(0.547041,0,0,0.547041,81.7339,81.9249)"
         id="g606">
        <path
           d="m 102.4,81.7 c -0.6,0 -1.1,-0.5 -1.1,-1.1 0,-0.6 0.5,-1.1 1.1,-1.1 0.6,0 1.1,0.5 1.1,1.1 0,0.6 -0.5,1.1 -1.1,1.1 z"
           id="path604" />
      </g>
      <g
         transform="matrix(0.547041,0,0,0.547041,81.7339,81.9249)"
         id="g610">
        <path
           d="m 98,90 c -0.6,0 -1.1,-0.5 -1.1,-1.1 0,-0.6 0.5,-1.1 1.1,-1.1 0.6,0 1.1,0.5 1.1,1.1 0,0.6 -0.5,1.1 -1.1,1.1 z"
           id="path608" />
      </g>
      <g
         transform="matrix(0.547041,0,0,0.547041,81.7339,81.9249)"
         id="g614">
        <path
           d="m 94.9,93.7 c -0.6,0 -1.1,-0.5 -1.1,-1.1 0,-0.6 0.5,-1.1 1.1,-1.1 0.6,0 1.1,0.5 1.1,1.1 0,0.6 -0.5,1.1 -1.1,1.1 z"
           id="path612" />
      </g>
      <g
         transform="matrix(0.547041,0,0,0.547041,81.7339,81.9249)"
         id="g618">
        <path
           d="m 91.6,97 c -0.6,0 -1.1,-0.5 -1.1,-1.1 0,-0.6 0.5,-1.1 1.1,-1.1 0.6,0 1.1,0.5 1.1,1.1 0,0.6 -0.5,1.1 -1.1,1.1 z"
           id="path616" />
      </g>
      <g
         transform="matrix(0.547041,0,0,0.547041,81.7339,81.9249)"
         id="g622">
        <path
           d="m 88,100 c -0.6,0 -1.1,-0.5 -1.1,-1.1 0,-0.6 0.5,-1.1 1.1,-1.1 0.6,0 1.1,0.5 1.1,1.1 0,0.6 -0.5,1.1 -1.1,1.1 z"
           id="path620" />
      </g>
      <g
         transform="matrix(0.547041,0,0,0.547041,81.7339,81.9249)"
         id="g626">
        <path
           d="m 79.5,104.7 c -0.6,0 -1.1,-0.5 -1.1,-1.1 0,-0.6 0.5,-1.1 1.1,-1.1 0.6,0 1.1,0.5 1.1,1.1 0,0.6 -0.5,1.1 -1.1,1.1 z"
           id="path624" />
      </g>
      <g
         transform="matrix(0.547041,0,0,0.547041,81.7339,81.9249)"
         id="g630">
        <path
           d="m 75.4,106.6 c -0.6,0 -1.1,-0.5 -1.1,-1.1 0,-0.6 0.5,-1.1 1.1,-1.1 0.6,0 1.1,0.5 1.1,1.1 0,0.6 -0.5,1.1 -1.1,1.1 z"
           id="path628" />
      </g>
      <g
         transform="matrix(0.547041,0,0,0.547041,81.7339,81.9249)"
         id="g634">
        <path
           d="m 70.6,107.6 c -0.6,0 -1.1,-0.5 -1.1,-1.1 0,-0.6 0.5,-1.1 1.1,-1.1 0.6,0 1.1,0.5 1.1,1.1 0,0.6 -0.5,1.1 -1.1,1.1 z"
           id="path632" />
      </g>
      <g
         transform="matrix(0.547041,0,0,0.547041,81.7339,81.9249)"
         id="g638">
        <path
           d="m 66.1,108.5 c -0.6,0 -1.1,-0.5 -1.1,-1.1 0,-0.6 0.5,-1.1 1.1,-1.1 0.6,0 1.1,0.5 1.1,1.1 0,0.6 -0.5,1.1 -1.1,1.1 z"
           id="path636" />
      </g>
      <g
         transform="matrix(0.547041,0,0,0.547041,81.7339,81.9249)"
         id="g642">
        <path
           d="m 51.5,19.2 c -0.6,0 -1.1,-0.5 -1.1,-1.1 0,-0.6 0.5,-1.1 1.1,-1.1 0.6,0 1.1,0.5 1.1,1.1 0,0.6 -0.5,1.1 -1.1,1.1 z"
           id="path640" />
      </g>
      <g
         transform="matrix(0.547041,0,0,0.547041,81.7339,81.9249)"
         id="g646">
        <path
           d="m 56.4,18.6 c -0.6,0 -1.1,-0.5 -1.1,-1.1 0,-0.6 0.5,-1.1 1.1,-1.1 0.6,0 1.1,0.5 1.1,1.1 0,0.6 -0.5,1.1 -1.1,1.1 z"
           id="path644" />
      </g>
      <g
         transform="matrix(0.547041,0,0,0.547041,81.7339,81.9249)"
         id="g650">
        <path
           d="m 47,20.5 c -0.6,0 -1.1,-0.5 -1.1,-1.1 0,-0.6 0.5,-1.1 1.1,-1.1 0.6,0 1.1,0.5 1.1,1.1 0,0.6 -0.5,1.1 -1.1,1.1 z"
           id="path648" />
      </g>
      <g
         transform="matrix(0.547041,0,0,0.547041,81.7339,81.9249)"
         id="g654">
        <path
           d="m 42.8,22.1 c -0.6,0 -1.1,-0.5 -1.1,-1.1 0,-0.6 0.5,-1.1 1.1,-1.1 0.6,0 1.1,0.5 1.1,1.1 0,0.6 -0.5,1.1 -1.1,1.1 z"
           id="path652" />
      </g>
      <g
         transform="matrix(0.547041,0,0,0.547041,81.7339,81.9249)"
         id="g658">
        <path
           d="m 34.5,26.7 c -0.6,0 -1.1,-0.5 -1.1,-1.1 0,-0.6 0.5,-1.1 1.1,-1.1 0.6,0 1.1,0.5 1.1,1.1 0,0.6 -0.5,1.1 -1.1,1.1 z"
           id="path656" />
      </g>
      <g
         transform="matrix(0.547041,0,0,0.547041,81.7339,81.9249)"
         id="g662">
        <path
           d="m 27.4,33.1 c -0.6,0 -1.1,-0.5 -1.1,-1.1 0,-0.6 0.5,-1.1 1.1,-1.1 0.6,0 1.1,0.5 1.1,1.1 0,0.6 -0.5,1.1 -1.1,1.1 z"
           id="path660" />
      </g>
      <g
         transform="matrix(0.547041,0,0,0.547041,81.7339,81.9249)"
         id="g666">
        <path
           d="m 31,29.7 c -0.6,0 -1.1,-0.5 -1.1,-1.1 0,-0.6 0.5,-1.1 1.1,-1.1 0.6,0 1.1,0.5 1.1,1.1 0,0.6 -0.5,1.1 -1.1,1.1 z"
           id="path664" />
      </g>
      <g
         transform="matrix(0.547041,0,0,0.547041,81.7339,81.9249)"
         id="g670">
        <path
           d="m 24.5,36.8 c -0.6,0 -1.1,-0.5 -1.1,-1.1 0,-0.6 0.5,-1.1 1.1,-1.1 0.6,0 1.1,0.5 1.1,1.1 0,0.6 -0.5,1.1 -1.1,1.1 z"
           id="path668" />
      </g>
      <g
         transform="matrix(0.547041,0,0,0.547041,81.7339,81.9249)"
         id="g674">
        <path
           d="m 19.6,45.2 c -0.6,0 -1.1,-0.5 -1.1,-1.1 0,-0.6 0.5,-1.1 1.1,-1.1 0.6,0 1.1,0.5 1.1,1.1 0,0.6 -0.5,1.1 -1.1,1.1 z"
           id="path672" />
      </g>
      <g
         transform="matrix(0.547041,0,0,0.547041,81.7339,81.9249)"
         id="g678">
        <path
           d="m 17.9,49.4 c -0.6,0 -1.1,-0.5 -1.1,-1.1 0,-0.6 0.5,-1.1 1.1,-1.1 0.6,0 1.1,0.5 1.1,1.1 0,0.6 -0.5,1.1 -1.1,1.1 z"
           id="path676" />
      </g>
      <g
         transform="matrix(0.547041,0,0,0.547041,81.7339,81.9249)"
         id="g682">
        <path
           d="m 16.9,53.7 c -0.6,0 -1.1,-0.5 -1.1,-1.1 0,-0.6 0.5,-1.1 1.1,-1.1 0.6,0 1.1,0.5 1.1,1.1 0,0.6 -0.5,1.1 -1.1,1.1 z"
           id="path680" />
      </g>
      <g
         transform="matrix(0.547041,0,0,0.547041,81.7339,81.9249)"
         id="g686">
        <path
           d="m 15.9,58.6 c -0.6,0 -1.1,-0.5 -1.1,-1.1 0,-0.6 0.5,-1.1 1.1,-1.1 0.6,0 1.1,0.5 1.1,1.1 0,0.6 -0.5,1.1 -1.1,1.1 z"
           id="path684" />
      </g>
      <g
         transform="matrix(0.547041,0,0,0.547041,81.7339,81.9249)"
         id="g690">
        <path
           d="m 16,68.1 c -0.6,0 -1.1,-0.5 -1.1,-1.1 0,-0.6 0.5,-1.1 1.1,-1.1 0.6,0 1.1,0.5 1.1,1.1 0,0.6 -0.5,1.1 -1.1,1.1 z"
           id="path688" />
      </g>
      <g
         transform="matrix(0.547041,0,0,0.547041,81.7339,81.9249)"
         id="g694">
        <path
           d="m 16.8,72.7 c -0.6,0 -1.1,-0.5 -1.1,-1.1 0,-0.6 0.5,-1.1 1.1,-1.1 0.6,0 1.1,0.5 1.1,1.1 0,0.6 -0.5,1.1 -1.1,1.1 z"
           id="path692" />
      </g>
      <g
         transform="matrix(0.547041,0,0,0.547041,81.7339,81.9249)"
         id="g698">
        <path
           d="m 18,77.5 c -0.6,0 -1.1,-0.5 -1.1,-1.1 0,-0.6 0.5,-1.1 1.1,-1.1 0.6,0 1.1,0.5 1.1,1.1 0,0.6 -0.5,1.1 -1.1,1.1 z"
           id="path696" />
      </g>
      <g
         transform="matrix(0.547041,0,0,0.547041,81.7339,81.9249)"
         id="g702">
        <path
           d="m 20,81.7 c -0.6,0 -1.1,-0.5 -1.1,-1.1 0,-0.6 0.5,-1.1 1.1,-1.1 0.6,0 1.1,0.5 1.1,1.1 0,0.6 -0.5,1.1 -1.1,1.1 z"
           id="path700" />
      </g>
      <g
         transform="matrix(0.547041,0,0,0.547041,81.7339,81.9249)"
         id="g706">
        <path
           d="m 24.5,90 c -0.6,0 -1.1,-0.5 -1.1,-1.1 0,-0.6 0.5,-1.1 1.1,-1.1 0.6,0 1.1,0.5 1.1,1.1 0,0.6 -0.5,1.1 -1.1,1.1 z"
           id="path704" />
      </g>
      <g
         transform="matrix(0.547041,0,0,0.547041,81.7339,81.9249)"
         id="g710">
        <path
           d="m 27.5,93.7 c -0.6,0 -1.1,-0.5 -1.1,-1.1 0,-0.6 0.5,-1.1 1.1,-1.1 0.6,0 1.1,0.5 1.1,1.1 0,0.6 -0.5,1.1 -1.1,1.1 z"
           id="path708" />
      </g>
      <g
         transform="matrix(0.547041,0,0,0.547041,81.7339,81.9249)"
         id="g714">
        <path
           d="m 30.8,97 c -0.6,0 -1.1,-0.5 -1.1,-1.1 0,-0.6 0.5,-1.1 1.1,-1.1 0.6,0 1.1,0.5 1.1,1.1 0,0.6 -0.5,1.1 -1.1,1.1 z"
           id="path712" />
      </g>
      <g
         transform="matrix(0.547041,0,0,0.547041,81.7339,81.9249)"
         id="g718">
        <path
           d="m 34.4,100 c -0.6,0 -1.1,-0.5 -1.1,-1.1 0,-0.6 0.5,-1.1 1.1,-1.1 0.6,0 1.1,0.5 1.1,1.1 0,0.6 -0.5,1.1 -1.1,1.1 z"
           id="path716" />
      </g>
      <g
         transform="matrix(0.547041,0,0,0.547041,81.7339,81.9249)"
         id="g722">
        <path
           d="m 42.9,104.7 c -0.6,0 -1.1,-0.5 -1.1,-1.1 0,-0.6 0.5,-1.1 1.1,-1.1 0.6,0 1.1,0.5 1.1,1.1 0,0.6 -0.5,1.1 -1.1,1.1 z"
           id="path720" />
      </g>
      <g
         transform="matrix(0.547041,0,0,0.547041,81.7339,81.9249)"
         id="g726">
        <path
           d="m 47,106.6 c -0.6,0 -1.1,-0.5 -1.1,-1.1 0,-0.6 0.5,-1.1 1.1,-1.1 0.6,0 1.1,0.5 1.1,1.1 0,0.6 -0.5,1.1 -1.1,1.1 z"
           id="path724" />
      </g>
      <g
         transform="matrix(0.547041,0,0,0.547041,81.7339,81.9249)"
         id="g730">
        <path
           d="m 51.8,107.6 c -0.6,0 -1.1,-0.5 -1.1,-1.1 0,-0.6 0.5,-1.1 1.1,-1.1 0.6,0 1.1,0.5 1.1,1.1 0,0.6 -0.5,1.1 -1.1,1.1 z"
           id="path728" />
      </g>
      <g
         transform="matrix(0.547041,0,0,0.547041,81.7339,81.9249)"
         id="g734">
        <path
           d="m 56.3,108.5 c -0.6,0 -1.1,-0.5 -1.1,-1.1 0,-0.6 0.5,-1.1 1.1,-1.1 0.6,0 1.1,0.5 1.1,1.1 0,0.6 -0.5,1.1 -1.1,1.1 z"
           id="path732" />
      </g>
      <polygon
         points="62.875,111.25 60.874,111.25 60.874,102.624 62.875,102.624 "
         transform="matrix(0.547041,0,0,0.547041,81.7339,81.9249)"
         id="polygon736" />
      <polygon
         points="62.874,21.458 60.874,21.458 60.874,12.5 62.874,12.5 "
         transform="matrix(0.547041,0,0,0.547041,81.7339,81.9249)"
         id="polygon738" />
      <polygon
         points="111.021,63.104 102.395,63.104 102.395,61.103 111.021,61.103 "
         transform="matrix(0.547041,0,0,0.547041,81.7339,81.9249)"
         id="polygon740" />
      <polygon
         points="21.354,63.104 12.728,63.104 12.728,61.104 21.354,61.104 "
         transform="matrix(0.547041,0,0,0.547041,81.7339,81.9249)"
         id="polygon742" />
      <g
         transform="matrix(0.547041,0,0,0.547041,81.7339,81.9249)"
         id="g746">
        <path
           d="m 26.4,42.4 0.9,-1.5 -7.8,-4.4 -0.9,1.5 0.3,0.2 z m 10.1,-22.9 0.2,0.3 4.3,7.4 1.5,-0.9 -4.5,-7.7 z m 0,84.8 0.3,0.2 1.2,0.7 4.4,-7.8 -1.5,-0.9 z m -17.8,-18.5 0.2,0.3 0.7,1.2 7.7,-4.5 -0.9,-1.5 z m 78.6,-43.5 7.8,-4.4 -0.9,-1.5 -7.8,4.4 0.2,0.3 z m -14.5,-15.1 4.5,-7.7 -1.5,-0.9 -4.5,7.7 0.3,0.2 z m -1.5,70.2 0.2,0.3 4.2,7.4 1.5,-0.9 -4.4,-7.8 z m 15.1,-14.5 0.3,0.2 7.4,4.3 0.9,-1.5 -7.7,-4.5 z"
           id="path744" />
      </g>
      <g
         transform="matrix(0.547041,0,0,0.547041,83.9454,83.7272)"
         id="g750">
        <path
           d="m 87.9,26.7 c -0.6,0 -1.1,-0.5 -1.1,-1.1 0,-0.6 0.5,-1.1 1.1,-1.1 0.6,0 1.1,0.5 1.1,1.1 0,0.6 -0.5,1.1 -1.1,1.1 z"
           id="path748" />
      </g>
    </g>
  </g>
  <path
     style="fill:url(#id15);stroke:#2d2d2d;stroke-width:0.896333;stop-color:#000000"
     d="M 110,0.448166 A 109.552,109.552 0 0 0 0.448166,110 109.552,109.552 0 0 0 110,219.552 109.552,109.552 0 0 0 219.552,110 109.552,109.552 0 0 0 110,0.448166 Z M 110,20.3667 A 89.6333,89.6333 0 0 1 199.633,110 89.6333,89.6333 0 0 1 110,199.633 89.6333,89.6333 0 0 1 20.3667,110 89.6333,89.6333 0 0 1 110,20.3667 Z"
     id="path756" />
  <text
     x="104.024"
     y="212.58"
     style="font-size:11.9511px;font-family:Arial;fill:#605c6c;stroke:#19aeff;stroke-width:0.298778;stroke-opacity:0.71"
     id="text758">30</text>
  <text
     x="108.008"
     y="15.3871"
     style="font-size:11.9511px;font-family:Arial;fill:#605c6c;stroke:#19aeff;stroke-width:0.298778;stroke-opacity:0.71"
     id="text760">0</text>
  <text
     x="201.625"
     y="115.976"
     style="font-size:11.9511px;font-family:Arial;fill:#605c6c;stroke:#19aeff;stroke-width:0.298778;stroke-opacity:0.71"
     id="text762">15</text>
  <text
     x="4.43187"
     y="113.984"
     style="font-size:11.9511px;font-family:Arial;fill:#605c6c;stroke:#19aeff;stroke-width:0.298778;stroke-opacity:0.71"
     id="text764">45</text>
  <text
     x="157.809"
     y="28.3298"
     transform="scale(0.990688,1.0094)"
     style="font-size:11.9511px;font-family:Arial;fill:#605c6c;stroke:#19aeff;stroke-width:0.298778;stroke-opacity:0.71"
     id="text766">5</text>
  <text
     x="190.674"
     y="65.1791"
     transform="scale(0.990688,1.0094)"
     style="font-size:11.9511px;font-family:Arial;fill:#605c6c;stroke:#19aeff;stroke-width:0.298778;stroke-opacity:0.71"
     id="text768">10</text>
  <text
     x="190.674"
     y="161.784"
     transform="scale(0.990688,1.0094)"
     style="font-size:11.9511px;font-family:Arial;fill:#605c6c;stroke:#19aeff;stroke-width:0.298778;stroke-opacity:0.71"
     id="text770">20</text>
  <text
     x="152.829"
     y="199.629"
     transform="scale(0.990688,1.0094)"
     style="font-size:11.9511px;font-family:Arial;fill:#605c6c;stroke:#19aeff;stroke-width:0.298778;stroke-opacity:0.71"
     id="text772">25</text>
  <text
     x="56.2242"
     y="198.633"
     transform="scale(0.990688,1.0094)"
     style="font-size:11.9511px;font-family:Arial;fill:#605c6c;stroke:#19aeff;stroke-width:0.298778;stroke-opacity:0.71"
     id="text774">35</text>
  <text
     x="17.383"
     y="161.784"
     transform="scale(0.990688,1.0094)"
     style="font-size:11.9511px;font-family:Arial;fill:#605c6c;stroke:#19aeff;stroke-width:0.298778;stroke-opacity:0.71"
     id="text776">40</text>
  <text
     x="17.383"
     y="65.1791"
     transform="scale(0.990688,1.0094)"
     style="font-size:11.9511px;font-family:Arial;fill:#605c6c;stroke:#19aeff;stroke-width:0.298778;stroke-opacity:0.71"
     id="text778">50</text>
  <text
     x="55.2282"
     y="28.3298"
     transform="scale(0.990688,1.0094)"
     style="font-size:11.9511px;font-family:Arial;fill:#605c6c;stroke:#19aeff;stroke-width:0.298778;stroke-opacity:0.71"
     id="text780">55</text>
  <text
     x="105.674"
     y="179.979"
     style="font-weight:bold;font-size:19.9436px;stroke:#d5d5d5;stroke-width:0.125771;stop-color:#000000"
     id="text782">6</text>
  <text
     x="169.755"
     y="116.971"
     style="font-weight:bold;font-size:19.9185px;stroke:#d5d5d5;stroke-width:0.0995926"
     id="text784">3</text>
  <text
     x="40.0047"
     y="117"
     style="font-weight:bold;font-size:19.9436px;stroke:#d5d5d5;stroke-width:0.125771;stop-color:#000000"
     id="text786">9</text>
  <text
     x="138.886"
     y="62.1914"
     transform="scale(0.990707,1.00938)"
     style="font-weight:bold;font-size:19.9185px;stroke:#d5d5d5;stroke-width:0.0995926"
     id="text788">1</text>
  <text
     x="162.788"
     y="84.1018"
     transform="scale(0.990707,1.00938)"
     style="font-weight:bold;font-size:19.9185px;stroke:#d5d5d5;stroke-width:0.0995926"
     id="text790">2</text>
  <text
     x="162.149"
     y="148.118"
     transform="scale(0.990699,1.00939)"
     style="font-weight:bold;font-size:19.9437px;stroke:#d5d5d5;stroke-width:0.125771;stop-color:#000000"
     id="text792">4</text>
  <text
     x="138.971"
     y="170.988"
     transform="scale(0.990699,1.00939)"
     style="font-weight:bold;font-size:19.9437px;stroke:#d5d5d5;stroke-width:0.125771;stop-color:#000000"
     id="text794">5</text>
  <text
     x="74.1247"
     y="169.616"
     transform="scale(0.990699,1.00939)"
     style="font-weight:bold;font-size:19.9437px;stroke:#d5d5d5;stroke-width:0.125771;stop-color:#000000"
     id="text796">7</text>
  <text
     x="51.0951"
     y="148.814"
     transform="scale(0.990699,1.00939)"
     style="font-weight:bold;font-size:19.9437px;stroke:#d5d5d5;stroke-width:0.125771;stop-color:#000000"
     id="text798">8</text>
  <g
     transform="matrix(9.95926,0,0,9.95926,132.296,-67.559)"
     id="g804">
    <text
       x="-9"
       y="15.6"
       transform="scale(0.990707,1.00938)"
       style="font-weight:bold;font-size:2px;stroke:#d5d5d5;stroke-width:0.01"
       id="text800">1</text>
    <text
       x="-8"
       y="15.6"
       transform="scale(0.990707,1.00938)"
       style="font-weight:bold;font-size:2px;stroke:#d5d5d5;stroke-width:0.01"
       id="text802">0</text>
  </g>
  <g
     transform="matrix(9.95926,0,0,9.95926,154.656,-112.977)"
     id="g810">
    <text
       x="-8.9"
       y="17.5"
       transform="scale(0.990707,1.00938)"
       style="font-weight:bold;font-size:2px;stroke:#d5d5d5;stroke-width:0.01"
       id="text806">1</text>
    <text
       x="-8"
       y="17.5"
       transform="scale(0.990707,1.00938)"
       style="font-weight:bold;font-size:2px;stroke:#d5d5d5;stroke-width:0.01"
       id="text808">1</text>
  </g>
  <g
     transform="matrix(9.95926,0,0,9.95926,187.065,-142.189)"
     id="g816">
    <text
       x="-8.9"
       y="19.6"
       transform="scale(0.990707,1.00938)"
       style="font-weight:bold;font-size:2px;stroke:#d5d5d5;stroke-width:0.01"
       id="text812">1</text>
    <text
       x="-8"
       y="19.6"
       transform="scale(0.990707,1.00938)"
       style="font-weight:bold;font-size:2px;stroke:#d5d5d5;stroke-width:0.01"
       id="text814">2</text>
  </g>
  <path
     transform="matrix(1.81078,9.79326,-9.79326,1.81078,199.972,-16.366)"
     style="fill:#4d4d4d;stroke-width:0.07;stroke-linecap:square;stroke-linejoin:round;filter:url(#id16)"
     d="m 11,10.6 c -0.3,0.1 -0.5,0.4 -0.4,0.7 0.1,0.3 0.4,0.5 0.7,0.4 0.2,0 0.4,-0.2 0.5,-0.4 0,0 1.5,-0.1 4.7,-1.4 -3.5,0.3 -4.8,0.9 -4.8,0.9 -0.1,-0.2 -0.4,-0.3 -0.6,-0.2 z"
     id="path818" />
  <path
     transform="matrix(0.146405,-9.95818,9.95818,0.146405,-2.89503,221.896)"
     style="fill:#4d4d4d;stroke:#63737c;stroke-width:0.07;stroke-linecap:square;stroke-linejoin:round;filter:url(#id17)"
     d="m 11.8,11.1 c 0,-0.3 -0.3,-0.6 -0.6,-0.6 -0.4,0 -0.6,0.3 -0.6,0.6 0,0.2 0.1,0.4 0.3,0.5 0,-0.2 -0.4,1.7 0.3,7.1 0.6,-5.4 0.2,-7 0.2,-7 0.2,-0.1 0.4,-0.2 0.4,-0.5 z"
     id="path820" />
  <path
     style="fill:#009100;stroke:#009100;stroke-width:0.697148;stroke-linecap:square;stroke-linejoin:round"
     d="m 115.976,108.008 c -0.996,-2.988 -4.98,-3.984 -7.968,-2.988 -2.988,0.996 -3.984,4.98 -2.988,6.972 0.996,1.992 2.988,3.984 4.98,3.984 0,0 2.988,14.938 20.914,43.82 -8.963,-33.861 -15.934,-45.812 -15.934,-45.812 1.991,-0.996 1.991,-3.984 0.996,-6.972 z"
     id="path822" />
  <path
     style="fill:#8f5902;stroke:#8f5902;stroke-width:0.697148;stroke-linecap:square;stroke-linejoin:round"
     d="m 111.992,104.024 c -2.988,0 -5.976,2.988 -5.976,5.976 0,3.984 2.988,5.976 5.976,5.976 1.992,0 3.984,-0.996 4.979,-2.988 -1.991,0 16.931,3.983 70.711,-2.988 -53.78,-5.976 -69.715,-1.992 -69.715,-1.992 -0.996,-1.992 -1.991,-3.984 -4.979,-3.984 z"
     id="path824" />
  <circle
     cx="110"
     cy="110"
     r="6.10862"
     style="fill:url(#id18);stroke:#63737c;stroke-width:2.09144;stroke-linecap:square;stroke-linejoin:round"
     id="circle826" />
</svg>
