<?xml version="1.0" encoding="UTF-8" standalone="no"?>
<svg
   xmlns:dc="http://purl.org/dc/elements/1.1/"
   xmlns:cc="http://creativecommons.org/ns#"
   xmlns:rdf="http://www.w3.org/1999/02/22-rdf-syntax-ns#"
   xmlns:svg="http://www.w3.org/2000/svg"
   xmlns="http://www.w3.org/2000/svg"
   xmlns:sodipodi="http://sodipodi.sourceforge.net/DTD/sodipodi-0.dtd"
   xmlns:inkscape="http://www.inkscape.org/namespaces/inkscape"
   id="Layer_1"
   data-name="Layer 1"
   viewBox="0 0 93.6634 37.3171"
   version="1.1"
   sodipodi:docname="facebook.svg"
   width="93.6634"
   height="37.3171"
   inkscape:version="0.92.2 (5c3e80d, 2017-08-06)">
  <metadata
     id="metadata30">
    <rdf:RDF>
      <cc:Work
         rdf:about="">
        <dc:format>image/svg+xml</dc:format>
        <dc:type
           rdf:resource="http://purl.org/dc/dcmitype/StillImage" />
      </cc:Work>
    </rdf:RDF>
  </metadata>
  <sodipodi:namedview
     pagecolor="#ffffff"
     bordercolor="#666666"
     borderopacity="1"
     objecttolerance="10"
     gridtolerance="10"
     guidetolerance="10"
     inkscape:pageopacity="0"
     inkscape:pageshadow="2"
     inkscape:window-width="640"
     inkscape:window-height="480"
     id="namedview28"
     showgrid="false"
     inkscape:current-layer="Layer_1" />
  <defs
     id="defs4">
    <style
       id="style2">.cls-1{fill:#4267b2;}.cls-2{fill:#fff;}</style>
  </defs>
  <title
     id="title6">FindUs-FB-RGB-1024</title>
  <path
     class="cls-1"
     d="M 0.106267,2.0691 H 10.2311 V 4.1706 H 2.33015 v 5.3522 h 6.53721 v 2.0834 H 2.33015 v 6.9225 H 0.106267 Z"
     id="path8"
     inkscape:connector-curvature="0"
     style="fill:#4267b2;stroke-width:0.135198" />
  <path
     class="cls-1"
     d="m 13.8301,3.8082 c -0.972,0 -1.4179,-0.7367 -1.4179,-1.5552 0,-0.8178 0.4459,-1.553 1.4179,-1.553 0.9721,0 1.4179,0.7382 1.4179,1.553 0,0.8155 -0.4478,1.5552 -1.4179,1.5552 z M 12.7499,18.5287 V 6.4146 l 2.151,-0.3422 v 12.4563 z"
     id="path10"
     inkscape:connector-curvature="0"
     style="fill:#4267b2;stroke-width:0.135198" />
  <path
     class="cls-1"
     d="m 25.8373,18.5287 v -7.5849 c 0,-2.0797 -0.7873,-2.7917 -2.4923,-2.7917 -1.2595,0 -2.4683,0.658 -3.1493,1.3182 v 9.0584 H 18.0426 V 6.4146 l 2.1531,-0.3422 v 1.8171 c 1.1026,-1.1058 2.5205,-1.8171 3.9085,-1.8171 2.442,0 3.8862,1.5538 3.8862,4.1602 v 8.2961 z"
     id="path12"
     inkscape:connector-curvature="0"
     style="fill:#4267b2;stroke-width:0.135198" />
  <path
     class="cls-1"
     d="m 39.0051,0.7795 2.1512,-0.3421 v 18.0913 h -2.1512 v -1.1088 c -0.8694,0.8178 -1.9421,1.502 -3.36,1.502 -3.3805,0 -5.3545,-2.7392 -5.3545,-6.3733 0,-3.6597 2.5206,-6.4777 6.1157,-6.4777 a 9.21509,9.21509 0 0 1 2.5988,0.3977 z M 36.328,8.0223 c -2.4403,0 -3.8059,1.9994 -3.8059,4.4745 0,2.6611 1.3394,4.4257 3.5669,4.4257 1.1325,0 2.1009,-0.4494 2.9161,-1.1592 V 8.8904 C 38.2942,8.3112 37.3764,8.0223 36.328,8.0223 Z"
     id="path14"
     inkscape:connector-curvature="0"
     style="fill:#4267b2;stroke-width:0.135198" />
  <path
     class="cls-1"
     d="m 2.15291,22.4668 v 7.5834 c 0,2.0812 0.78553,2.7924 2.36005,2.7924 A 4.89282,4.89282 0 0 0 7.79473,31.5252 V 22.4668 H 9.94568 V 34.581 L 7.79473,34.9231 V 33.157 C 6.69403,34.2636 5.27612,34.9216 3.75174,34.9216 1.44396,34.9216 0,33.3686 0,30.7615 v -8.2947 z"
     id="path16"
     inkscape:connector-curvature="0"
     style="fill:#4267b2;stroke-width:0.135198" />
  <path
     class="cls-1"
     d="m 16.8301,34.9471 c -1.4683,0 -3.097,-0.4472 -4.1996,-1.1314 l 0.5522,-1.9754 a 7.03976,7.03976 0 0 0 3.7014,1.1329 c 1.3639,0 2.388,-0.6325 2.388,-1.7128 0,-1.2169 -1.4197,-1.6063 -2.8395,-2.0009 -1.7051,-0.4742 -3.5689,-1.3167 -3.5689,-3.5284 0,-2.2387 1.8935,-3.6605 4.3058,-3.6605 a 8.88116,8.88116 0 0 1 3.8825,0.8958 l -0.5485,1.9747 A 7.95506,7.95506 0 0 0 17.0669,24.046 c -1.2873,0 -2.125,0.526 -2.125,1.5013 0,1.1584 1.2855,1.553 2.7817,1.9476 1.7575,0.4749 3.6493,1.3174 3.6493,3.6087 0,2.292 -1.9161,3.8435 -4.5428,3.8435 z"
     id="path18"
     inkscape:connector-curvature="0"
     style="fill:#4267b2;stroke-width:0.135198" />
  <path
     class="cls-1"
     d="m 34.0686,34.9216 c -3.4103,0 -5.7966,-2.5283 -5.7966,-6.4259 0,-3.869 2.4646,-6.4521 5.9291,-6.4521 3.4383,0 5.7741,2.5554 5.7741,6.4521 0,3.872 -2.5167,6.4259 -5.9066,6.4259 z m 0.028,-10.9281 c -2.3879,0 -3.7014,1.8696 -3.7014,4.4767 0,2.5809 1.3917,4.503 3.7537,4.503 2.388,0 3.7014,-1.8441 3.7014,-4.4505 0,-2.5808 -1.39,-4.5292 -3.7517,-4.5292 z"
     id="path20"
     inkscape:connector-curvature="0"
     style="fill:#4267b2;stroke-width:0.135198" />
  <path
     class="cls-1"
     d="M 50.128,34.5269 V 26.942 c 0,-2.0789 -0.7872,-2.7917 -2.4923,-2.7917 -1.2613,0 -2.4683,0.6587 -3.1512,1.3182 v 9.0584 h -2.151 V 22.4135 l 2.1454,-0.3429 v 1.8179 c 1.1007,-1.1059 2.5186,-1.8179 3.9105,-1.8179 2.4347,0 3.8842,1.5538 3.8842,4.1609 v 8.2954 z"
     id="path22"
     inkscape:connector-curvature="0"
     style="fill:#4267b2;stroke-width:0.135198" />
  <path
     class="cls-1"
     d="M 91.61,0 H 58.4124 a 2.05976,2.05976 0 0 0 -2.0598,2.0601 v 33.1976 a 2.05976,2.05976 0 0 0 2.0598,2.0594 H 76.287 V 22.8854 h -4.8468 v -5.6493 h 4.8468 v -4.1556 c 0,-4.8218 2.9432,-7.4447 7.2436,-7.4447 a 40.2309,40.2309 0 0 1 4.3469,0.2221 v 5.0371 h -2.9679 c -2.3393,0 -2.7924,1.1111 -2.7924,2.7429 v 3.5982 h 5.593 l -0.7269,5.6493 H 82.1172 V 37.3171 H 91.61 a 2.05976,2.05976 0 0 0 2.0534,-2.0594 V 2.0601 A 2.05976,2.05976 0 0 0 91.61,0 Z"
     id="path24"
     inkscape:connector-curvature="0"
     style="fill:#4267b2;stroke-width:0.192861" />
  <path
     id="f"
     class="cls-2"
     d="M 82.1172,37.3171 V 22.8854 h 4.8661 l 0.7269,-5.6493 h -5.593 v -3.5967 c 0,-1.6318 0.4531,-2.7421 2.7924,-2.7421 h 2.9679 V 5.8579 A 40.2309,40.2309 0 0 0 83.5329,5.6358 c -4.3012,0 -7.2444,2.6251 -7.2444,7.4447 v 4.1556 h -4.8483 v 5.6493 h 4.8468 v 14.4317 z"
     inkscape:connector-curvature="0"
     style="fill:#ffffff;stroke-width:0.192861" />
</svg>
