<?xml version="1.0" encoding="UTF-8" standalone="no"?>
<!-- Copyright 2017 mathsisfun.com -->

<svg
   width="53.1664"
   height="58.6679"
   version="1.1"
   id="svg12"
   sodipodi:docname="thought-sm.svg"
   inkscape:version="1.1 (c68e22c387, 2021-05-23)"
   xmlns:inkscape="http://www.inkscape.org/namespaces/inkscape"
   xmlns:sodipodi="http://sodipodi.sourceforge.net/DTD/sodipodi-0.dtd"
   xmlns:xlink="http://www.w3.org/1999/xlink"
   xmlns="http://www.w3.org/2000/svg"
   xmlns:svg="http://www.w3.org/2000/svg"
   xmlns:rdf="http://www.w3.org/1999/02/22-rdf-syntax-ns#"
   xmlns:cc="http://creativecommons.org/ns#"
   xmlns:dc="http://purl.org/dc/elements/1.1/">
  <metadata
     id="metadata16">
    <rdf:RDF>
      <cc:Work
         rdf:about="">
        <dc:format>image/svg+xml</dc:format>
        <dc:type
           rdf:resource="http://purl.org/dc/dcmitype/StillImage" />
        <dc:title />
      </cc:Work>
    </rdf:RDF>
  </metadata>
  <sodipodi:namedview
     pagecolor="#ffffff"
     bordercolor="#666666"
     borderopacity="1"
     objecttolerance="10"
     gridtolerance="10"
     guidetolerance="10"
     inkscape:pageopacity="0"
     inkscape:pageshadow="2"
     inkscape:window-width="640"
     inkscape:window-height="480"
     id="namedview14"
     showgrid="false"
     inkscape:current-layer="svg12"
     inkscape:pagecheckerboard="0" />
  <defs
     id="defs2">
    <linearGradient
       inkscape:collect="always"
       id="linearGradient1159">
      <stop
         style="stop-color:#f1f0fe;stop-opacity:1"
         offset="0"
         id="stop1155" />
      <stop
         style="stop-color:#c1c8f8;stop-opacity:1"
         offset="1"
         id="stop1157" />
    </linearGradient>
    <radialGradient
       inkscape:collect="always"
       xlink:href="#linearGradient1159"
       id="radialGradient832"
       cx="75.3554"
       cy="63.3971"
       fx="75.3554"
       fy="63.3971"
       r="73.3736"
       gradientTransform="matrix(0.362298,0,0,0.303254,-0.718033,3.0252)"
       gradientUnits="userSpaceOnUse" />
    <radialGradient
       inkscape:collect="always"
       xlink:href="#linearGradient1159"
       id="radialGradient840"
       cx="114.059"
       cy="134.601"
       fx="114.059"
       fy="134.601"
       r="11.119"
       gradientTransform="matrix(0.362298,0,0,0.362298,-0.718033,-0.71765)"
       gradientUnits="userSpaceOnUse" />
    <radialGradient
       inkscape:collect="always"
       xlink:href="#linearGradient1159"
       id="radialGradient848"
       cx="126.939"
       cy="155.682"
       fx="126.939"
       fy="155.682"
       r="8.17619"
       gradientTransform="matrix(0.362298,0,0,0.36453,-0.718033,-1.06465)"
       gradientUnits="userSpaceOnUse" />
  </defs>
  <path
     inkscape:connector-curvature="0"
     id="path4"
     d="m 31.0663,0.54345 c -3.3915,0 -6.3183,1.83576 -7.9675,4.53032 -1.5332,-1.06921 -3.3915,-1.71886 -5.3892,-1.71886 -5.18,0 -9.38448,4.20425 -9.38448,9.36079 0,0.395 0.0696,0.7432 0.11615,1.1148 -4.45993,0.721 -7.89782,4.5537 -7.89782,9.2229 0,4.6226 3.36819,8.4553 7.78171,9.2218 -0.0929,0.5106 -0.16261,1.0446 -0.16261,1.5786 0,5.1812 4.20435,9.3854 9.36115,9.3854 2.5553,0 4.8317,-1.0224 6.5274,-2.649 1.719,2.0449 4.251,3.3688 7.1313,3.3688 4.1115,0 7.5727,-2.6712 8.827,-6.3414 1.0221,0.3716 2.0904,0.6041 3.2288,0.6041 5.1802,0 9.3847,-4.1821 9.3847,-9.362 0,-2.6011 -1.0689,-4.9474 -2.7876,-6.6429 0.8594,-1.4408 1.3938,-3.0661 1.3938,-4.8551 0,-5.18 -4.2045,-9.36083 -9.3615,-9.36083 -0.5576,0 -1.0916,0.0492 -1.6028,0.13904 C 39.4286,3.81877 35.6422,0.54345 31.0663,0.54345 Z"
     style="fill:url(#radialGradient832);fill-opacity:1;stroke:#000000;stroke-width:1.0869;stroke-linejoin:round;stroke-miterlimit:4;stroke-dasharray:none" />
  <path
     inkscape:connector-curvature="0"
     id="path6"
     d="m 44.0903,48.0488 a 3.48496,3.48496 0 1 1 -6.9699,0 3.48496,3.48496 0 1 1 6.9699,0 z"
     style="fill:url(#radialGradient840);fill-opacity:1.0;stroke:#000000;stroke-width:1.0869;stroke-linejoin:round;stroke-miterlimit:4;stroke-dasharray:none" />
  <path
     inkscape:connector-curvature="0"
     id="path8"
     d="m 47.6905,55.6859 a 2.41878,2.41878 0 1 1 -4.8374,0 2.41878,2.41878 0 1 1 4.8374,0 z"
     style="fill:url(#radialGradient848);fill-opacity:1.0;stroke:#000000;stroke-width:1.0869;stroke-linejoin:round;stroke-miterlimit:4;stroke-dasharray:none" />
</svg>
