<?xml version="1.0" encoding="UTF-8" standalone="no"?>
<svg
   width="32.0004"
   height="21.9398"
   version="1.1"
   id="svg7"
   sodipodi:docname="us-map.svg"
   inkscape:version="1.1 (c68e22c387, 2021-05-23)"
   xmlns:inkscape="http://www.inkscape.org/namespaces/inkscape"
   xmlns:sodipodi="http://sodipodi.sourceforge.net/DTD/sodipodi-0.dtd"
   xmlns="http://www.w3.org/2000/svg"
   xmlns:svg="http://www.w3.org/2000/svg">
  <defs
     id="defs11" />
  <sodipodi:namedview
     id="namedview9"
     pagecolor="#ffffff"
     bordercolor="#666666"
     borderopacity="1.0"
     inkscape:pageshadow="2"
     inkscape:pageopacity="0.0"
     inkscape:pagecheckerboard="0"
     showgrid="false"
     inkscape:current-layer="svg7" />
  <!-- Created with SVG-edit - http://svg-edit.googlecode.com/ -->
  <path
     d="m 2.57419,1.55412 c 0.4658,-0.2754 0.426,-1.848004 1.2161,-1.505604 -0.067,0.839 0.8274,0.5471 1.3319,0.7528 0.952,0.01 1.8189,0.357104 2.7796,0.347504 0.8605,0.283 1.7466,0.1379 2.60591,0.4053 0.9285,0.061 1.8496,0.2056 2.7795,0.2896 0.7997,0.056 1.6068,0.1885 2.3949,0.2895 0.5018,-0.089 1.4021,0.4057 1.0217,-0.058 0.7863,-0.6283 1.0082,0.8272 1.8531,0.8686 0.7169,0.2412 1.2674,-0.4185 1.9895,-0.3474 0.8776,-0.1587 1.306,0.7419 1.9435,1.1534 1.0337,0.062 1.086,0.9702 1.4524,1.6262 0.3306,0.581 0.2152,1.2904 0.2316,1.9109 -0.7283,0.6446 0.4351,0.7713 0.7528,0.2896 0.3113,-0.5518 1.5967,-0.8806 1.0035,-1.5742 0.4095,-0.5223 1.6921,-0.2251 1.6024,-1.3212 0.5237,-0.5701 1.2817,-0.6995 1.9687,-0.9266 0.707,-0.1912 0.489,-0.9497 0.521,-1.5056 0.07,-0.912 1.171,-1.513604 1.39,-0.2895 0,0.705 1.047,1.3889 0.347,2.0132 -0.586,0.08 -0.957,0.317 -1.1,1.0186 -0.134,0.4164 0.07,1.6425 0.406,1.2121 0.886,0.4895 -0.03,0.8498 -0.521,0.5046 -0.345,0.016 -1.603,1.0463 -0.695,0.6369 1.076,-0.049 -0.706,0.5067 -0.753,0.6949 0.396,0.3111 0.09,1.7443 -0.448,1.2362 -0.399,-0.8657 0.406,0.5977 0.216,1.00558 0.1,1.0947 -0.653,-0.1252 -0.653,-0.62428 -0.04,0.51808 -0.697,1.00988 0.19,1.27798 0.171,0.5115 0.877,1.0637 0.232,1.6793 0.483,0.88 -1.1213,1.0932 -1.3216,1.8134 -0.4825,0.5766 -0.6584,1.386 -0.8214,2.1243 -0.6584,0.7977 0.3836,1.6814 0.5211,2.4901 0.2918,0.7763 0.9229,1.7508 0.6119,2.532 -0.6785,0.3628 -0.9217,-0.5279 -1.4226,-0.7948 -0.5224,-0.5199 -0.8776,-1.2398 -0.7374,-2.0041 -0.1822,-0.7282 -1.1321,-0.6278 -1.6947,-0.7175 -0.5961,0 -1.1218,-0.4269 -1.7579,-0.2896 -0.5555,-0.083 -2.2488,0.2519 -1.0217,0.7528 0.3543,1.1167 -0.9759,-0.013 -1.47,0.3869 -0.4498,-0.5939 -1.2537,-0.1216 -1.8886,-0.2132 -0.7147,0.5409 -1.6513,0.9275 -2.1426,1.5635 -0.09,0.4939 -0.2147,1.069 -0.1882,1.636 -1.2324,0.2924 -1.358,-0.8859 -1.6649,-1.7518 C 13.24,19.4132 12.4597,17.695 11.6066,18.9274 10.6513,19.376 10.4098,17.9203 10.0444,17.305 9.72299,16.57 8.97159,16.5488 8.27189,16.479 c -0.6162,0.7367 -2.1325,-0.01 -2.9181,-0.39 -0.8022,-0.2539 -1.2788,-0.7016 -1.4627,-1.2912 -0.9363,0.1019 -1.6643,-0.3641 -1.838,-1.3422 -0.2293,-0.9187 -1.429102,-0.5767 -1.274002,-1.6518 -0.6889,-1.0578 0.093,-2.20018 -0.5212,-3.24288 -0.6283,-0.7877 0.052,-1.8045 0.3475,-2.5479 0.07,-1.3757 0.636202,-2.6314 1.285202,-3.8041 0.081,-0.5973 0.1214,-1.2057 0.1046,-1.813004 0.4288,0.1322 0.9641,0.842004 1.2739,0.752804"
     id="svg_2"
     stroke-width="4.99999"
     stroke="#000000"
     fill="none"
     style="fill:#19aeff;stroke:none" />
</svg>
