<?xml version="1.0" standalone="no"?>
<!DOCTYPE svg PUBLIC "-//W3C//DTD SVG 20010904//EN" "http://www.w3.org/TR/2001/REC-SVG-20010904/DTD/svg10.dtd">
<svg width="300px" height="200px" xmlns="http://www.w3.org/2000/svg" style="stroke-width:2px;">
<desc>SVG Output</desc>
<g transform="translate(-100,-80)">
<polyline points='150.00 83.000, 302.00 258.00, ' stroke-width='2' stroke='#aacccc' fill='#def' fill-opacity='0.5'  />
<polyline points='302.00 258.00, 370.00 140.00, ' stroke-width='2' stroke='#aacccc' fill='#def' fill-opacity='0.5'  />
<circle cx="150" cy="83" r="3" stroke-width='2' stroke='#aacccc' fill='#8888ff' fill-opacity='0.5'  />
<circle cx="302" cy="258" r="3" stroke-width='2' stroke='#aacccc' fill='#8888ff' fill-opacity='0.5'  />
<circle cx="370" cy="140" r="3" stroke-width='2' stroke='#aacccc' fill='#8888ff' fill-opacity='0.5'  />
<path d="M 291 134.3 A 150 150 0 0 1 300 83" fill="none" stroke="#ffcc66" />
<path d="M 150 233 A 150 150 0 0 1 201.3 224" fill="none" stroke="#ffcc66" />
<path d="M 288.9 108.6 A 150 150 0 0 1 315.1 108.6" fill="none" stroke="#ffcc66" />
<path d="M 152.6 244.9 A 150 150 0 0 1 157.1 219.2" fill="none" stroke="#ffcc66" />
<polyline points='370.00 140.00, 150.00 83.000, ' stroke-width='2' stroke='#aacccc' fill='#def' fill-opacity='0.5'  />
<path d="M 302 168 A 90 90 0 0 1 271.2 173.4" fill="none" stroke="#ffcc66" />
<path d="M 391.7 250.2 A 90 90 0 0 1 383.6 220" fill="none" stroke="#ffcc66" />
<path d="M 292.1 185 A 90 90 0 0 1 281.4 155.6" fill="none" stroke="#ffcc66" />
<path d="M 400.8 224.6 A 90 90 0 0 1 377.8 229.7" fill="none" stroke="#ffcc66" />
<polyline points='154.00 233.00, 298.00 108.00, ' stroke-width='2' stroke='#8888ff' fill='#8888ff' fill-opacity='0.5'  />
<circle cx="250" cy="150" r="3" stroke-width='2' stroke='#8888ff' fill='#8888ff' fill-opacity='0.5'  />
<path d="M 370 150 A 120 120 0 0 1 370 150" fill="none" stroke="#ffcc66" />
<polyline points='182.00 110.00, 386.00 228.00, ' stroke-width='2' stroke='#8888ff' fill='#8888ff' fill-opacity='0.5'  />
<circle cx="250" cy="150" r="120" stroke-width='2' stroke='#8888ff' fill='none' fill-opacity='0.5'  />
</g>
</svg>