<?xml version="1.0" encoding="UTF-8" standalone="no"?>
<!-- Copyright 2017 mathsisfun.com -->
<svg xmlns="http://www.w3.org/2000/svg" width="215" height="107.8" version="1.1">
<defs>
<marker id="id4" style="overflow:visible;" orient="auto">
<path transform="matrix(-0.4,0,0,-0.4,-4,0)" style="fill:black; stroke:black; stroke-width:1pt;" d="M 0,0 5,-5 -12.5,0 5,5 Z"/>
</marker>
<marker id="id3" style="overflow:visible;" orient="auto">
<path transform="matrix(0.4,0,0,0.4,4,0)" style="fill:black; stroke:black; stroke-width:1pt;" d="M 0,0 5,-5 -12.5,0 5,5 Z"/>
</marker>
<marker id="id2" style="overflow:visible;" orient="auto">
<path transform="matrix(-0.4,0,0,-0.4,-4,0)" style="fill:#ff4141; stroke:#ff4141; stroke-width:1pt;" d="M 0,0 5,-5 -12.5,0 5,5 Z"/>
</marker>
<marker id="id1" style="overflow:visible;" orient="auto">
<path transform="matrix(-0.8,0,0,-0.8,-10,0)" style="stroke:black; stroke-width:1pt;" d="M 0,0 5,-5 -12.5,0 5,5 Z"/>
</marker>
</defs>
<rect x="-0" y="-0" width="215" height="107.8" style="color:black; overflow:visible; fill:white; stroke-width:7.12;"/>
<g style="fill:none; stroke:#0000ff; stroke-width:1.08;">
<g>
<g transform="translate(-1004.63,-2378.21)">
<path d="m 1017.4,2410.8 v 28.3"/>
<path d="m 1055.3,2410.8 v 28.3"/>
<path d="m 1093.2,2410.8 v 28.3"/>
<path d="m 1131.1,2410.8 v 28.3"/>
<path d="m 1169,2410.8 v 28.3"/>
<path d="m 1206.9,2410.8 v 28.3"/>
</g>
</g>
</g>
<text x="8.1" y="78" style="font-family:'Comic Sans MS'; font-size:16px; color:black; overflow:visible; fill:#0000ff; stroke-width:0.5px;">4</text>
<text x="45.5" y="77.8" style="font-family:'Comic Sans MS'; font-size:16px; color:black; overflow:visible; fill:#0000ff; stroke-width:0.5px;">5</text>
<text x="83.4" y="78" style="font-family:'Comic Sans MS'; font-size:16px; color:black; overflow:visible; fill:#0000ff; stroke-width:0.5px;">6</text>
<text x="121.1" y="78" style="font-family:'Comic Sans MS'; font-size:16px; color:black; overflow:visible; fill:#0000ff; stroke-width:0.5px;">7</text>
<text x="159" y="78" style="font-family:'Comic Sans MS'; font-size:16px; color:black; overflow:visible; fill:#0000ff; stroke-width:0.5px;">8</text>
<text x="196.9" y="78" style="font-family:'Comic Sans MS'; font-size:16px; color:black; overflow:visible; fill:#0000ff; stroke-width:0.5px;">9</text>
<path style="marker-end:url(#id1); fill:#0000ff; fill-opacity:0.75; stroke:#0000ff; stroke-width:1.89;" d="m -139.9,46.8 h 429.4"/>
<path style="marker-end:url(#id2); fill:none; fill-opacity:0.75; stroke:#ff4141; stroke-width:1.89;" d="m 136.5,21 v 21.6"/>
<text x="122.6" y="18.1" style="font-family:'Comic Sans MS'; font-size:19.9px; color:black; overflow:visible; fill:#ff4141; stroke-width:0.5px;">&quot;7&quot;</text>
<path style="fill:none; stroke:black; stroke-width:0.5;" d="m 107.6,51.2 v 56.4"/>
<path style="fill:none; stroke:black; stroke-width:0.5;" d="m 145.5,51.2 v 56.4"/>
<path style="marker-start:url(#id3); marker-end:url(#id4); fill:none; stroke:black; stroke-width:1px;" d="m 109.1,101.8 h 34.9"/>
<text x="122.6" y="99" style="font-family:'Comic Sans MS'; font-size:16px; color:black; overflow:visible; fill:black; stroke-width:0.5px;">1</text>
</svg>
