<?xml version="1.0" encoding="UTF-8" standalone="no"?>
<!-- Copyright 2017 mathsisfun.com -->
<svg xmlns="http://www.w3.org/2000/svg" xmlns:xlink="http://www.w3.org/1999/xlink" width="179.6" height="181.6" version="1.1">
<defs>
<filter id="id1" x="-0.036" y="-0.036" width="1.072" height="1.072">
<feGaussianBlur stdDeviation="2.528"/>
</filter>
<filter id="id2" x="-0.192" y="-0.192" width="1.384" height="1.384">
<feGaussianBlur stdDeviation="1.18872"/>
</filter>
</defs>
<circle cx="91.3" cy="93.3" r="84.2665" style="color:black; overflow:visible; fill:#666666; filter:url(#id1); stroke-width:0.2;"/>
<g transform="translate(-43.321,34.8906)">
<circle cx="128.6" cy="50.4" r="79.549" style="color:black; overflow:visible; fill:white; stroke:#0015b4; stroke-width:11.43;"/>
<circle cx="128.6" cy="50.4" r="59.207" style="color:black; overflow:visible; fill:none; stroke:#00b400; stroke-width:11.43;"/>
<circle cx="128.6" cy="50.4" r="35.8138" style="color:black; overflow:visible; fill:none; stroke:#7338b4; stroke-width:11.43;"/>
<circle cx="128.6" cy="50.4" r="16.9972" style="color:black; overflow:visible; fill:#b40000; stroke-width:11.43;"/>
</g>
<g id="id6" transform="translate(12.4685,-12.4685)">
<circle cx="-133.8" cy="144.8" r="7.42951" transform="rotate(-45,-91.4032,-112.813)" style="color:black; overflow:visible; fill:#666666; filter:url(#id2); stroke:#999999; stroke-width:0.9;"/>
<circle cx="-27.3" cy="106.8" r="7.42951" transform="rotate(-45)" style="color:black; overflow:visible; fill:#e1ed27; stroke-width:12;"/>
<rect x="-107.9" y="-35.6" ry="1.3" width="2.3" height="7.8" transform="rotate(-135)" style="color:black; overflow:visible; fill:#2d2d2d; stroke:#009100; stroke-width:0.2;"/>
<rect x="-107.9" y="-26.9" ry="1.3" width="2.3" height="7.8" transform="rotate(-135)" style="color:black; overflow:visible; fill:#2d2d2d; stroke:#009100; stroke-width:0.2;"/>
<rect x="26.2" y="-106.1" ry="1.3" width="2.3" height="7.8" transform="rotate(135)" style="color:black; overflow:visible; fill:#2d2d2d; stroke:#009100; stroke-width:0.2;"/>
<rect x="26.2" y="-115.1" ry="1.3" width="2.3" height="7.8" transform="rotate(135)" style="color:black; overflow:visible; fill:#2d2d2d; stroke:#009100; stroke-width:0.2;"/>
</g>
<use id="id4" transform="translate(-16.9572,-29.1763)" xlink:href="#id3" x="0" y="0"/>
<use id="id5" transform="translate(9.47609,12.7178)" xlink:href="#id4" x="0" y="0"/>
<use transform="translate(-11.4709,18.4535)" xlink:href="#id5" x="0" y="0"/>
<use id="id3" transform="translate(29.6749,13.4659)" xlink:href="#id6" x="0" y="0"/>
</svg>
