<?xml version="1.0" encoding="UTF-8" standalone="no"?>
<!-- Copyright 2017 mathsisfun.com -->
<svg xmlns="http://www.w3.org/2000/svg" width="226.9" height="111.1" version="1.1">
<defs>
</defs>
<g transform="translate(1674.34,-657.785)">
<path style="fill:#007ad2; stroke:#6a3900; stroke-width:1.04;" d="m -1673.4,767.4 c 2.9,-10.4 9.3,-19.5 16.4,-33.8 2.3,-4.7 3.8,-12.6 3.5,-17.8 0,0 -3.1,-2.7 -4,-3.9 -1.8,-2.4 -3.8,-5.7 -4.7,-8.5 -1,-3.2 -1.5,-7.7 -1.2,-11 0.3,-3.1 1.1,-7.4 2.8,-10 1.8,-2.9 5.6,-5.8 8.6,-7.3 3,-1.6 7.6,-2.7 11,-3 3.3,-0.3 7.8,0.4 11,1.2 3.7,1 8.6,2.8 11.5,5.2 7.1,6.2 7,14.3 7.5,22.9 0.5,2.1 2.2,4.4 3.5,6.1 0.5,0.7 1.7,1.4 2.1,2.3 0.3,0.5 0.6,1.4 0.3,1.9 -0.3,0.8 -1.6,1.2 -2.3,1.6 -0.5,0.3 -1.3,0.2 -1.6,0.7 -0.6,1.1 1,2.8 0.3,3.8 -0.4,0.5 -1.8,0.6 -1.8,0.6 0,0 1.8,2.3 1,2.3 -0.4,0 -1.7,2.1 -1.4,2.8 0,0 0.9,2 0.9,3 0,1 -0.2,2.6 -0.9,3.3 -0.7,0.8 -2.3,0.8 -3.3,1 -1.6,0.4 -4.2,0.2 -5.9,0.6 -1.2,0.3 -2.7,0.9 -3.7,1.5 -0.7,0.5 -1.7,1.1 -2.1,1.9 -1.1,2.4 0.1,6.3 -0.2,8.9 -0.2,1.4 -1.2,3.3 -1,4.7 0.2,1.7 1.6,3.8 2.6,5.2 1,1.4 3,2.8 4,4.2 1.5,2 3,5 4.4,7 0.5,0.8 1.9,2.4 1.9,2.4 h -59.3 z"/>
<path style="fill:#ffff3e; stroke:#454a4b; stroke-width:1.05;" d="m -1642.1,712.8 c 0,0 -1.3,1 -1.9,1.2 -0.6,0.2 -1.5,0.2 -2,0 -0.5,-0.2 -1.2,-1.2 -1.2,-1.2 -5,1.3 -7.5,-3.1 -7.8,-5.8 0,0 -1.8,-0.5 -2.5,-0.5 -2.2,-0.2 -3.3,-6 -3.3,-6.3 -0.4,-10.1 0.9,-15.1 7.6,-21.7 2.9,-2.9 7.3,-4.4 13.8,-4.6 4.1,-0.1 7.6,0 10.4,1.5 0,0 5.8,2.5 7.9,4.1 2,1.6 4.2,4.2 5.7,6.5 2,4.5 0.9,9.9 -3.2,12.3 l -4,2.4 c -1.4,0.8 -8.1,-1.1 -10.9,1.3 -1,0.8 -0.8,3.4 -1.1,3.7 0,0 -1.5,2.2 -2,3.2 -0.5,1 -1,2.4 -1.2,3.5 -0.2,0.8 -0.9,4.3 -1.6,4.7 -1.8,1.1 -2.7,-0.3 -2.7,-0.8 z"/>
<rect x="-58.8" y="1781.8" width="8.2" height="5.3" style="color:black; overflow:visible; fill:#ff6600; stroke-width:1;" transform="rotate(65.6393)"/>
<rect x="-1763.7" y="-270.6" width="8.2" height="5.3" style="color:black; overflow:visible; fill:#19aeff; stroke-width:1;" transform="rotate(-31.7498)"/>
<rect x="-1338.8" y="1171.4" width="8.2" height="5.3" style="color:black; overflow:visible; fill:#4e9a06; stroke-width:1;" transform="rotate(18.5095)"/>
<rect x="-1348.9" y="1189.4" width="8.2" height="5.3" style="color:black; overflow:visible; fill:#73d216; stroke-width:1;" transform="rotate(18.5095)"/>
<rect x="-975.7" y="1498.2" width="8.2" height="5.3" style="color:black; overflow:visible; fill:#ff6600; stroke-width:1;" transform="rotate(33.8894)"/>
<rect x="-1745" y="-285" width="8.2" height="5.3" style="color:black; overflow:visible; fill:#19aeff; stroke-width:1;" transform="rotate(-31.7498)"/>
<rect x="-985.5" y="1474.9" width="8.2" height="5.3" style="color:black; overflow:visible; fill:#73d216; stroke-width:1;" transform="rotate(33.8894)"/>
<rect x="-50.8" y="1760.7" width="8.2" height="5.3" style="color:black; overflow:visible; fill:#ef2929; stroke-width:1;" transform="rotate(65.6393)"/>
<rect x="-1631.7" y="689.6" width="8.2" height="5.3" style="color:black; overflow:visible; fill:#007ad2; stroke-width:1;"/>
<rect x="-1780.2" y="230.5" width="8.2" height="5.3" style="color:black; overflow:visible; fill:#0065a4; stroke-width:1;" transform="rotate(-15.3799)"/>
<rect x="-1632.9" y="-687.2" width="8.2" height="5.3" style="color:black; overflow:visible; fill:#999999; stroke-width:1;" transform="rotate(-45.0225)"/>
<rect x="-257.2" y="1733.3" width="8.2" height="5.3" style="color:black; overflow:visible; fill:#edd400; stroke-width:1;" transform="rotate(59.5113)"/>
<text x="-1616" y="679.4" style="font-family:Arial; font-size:25.5px; color:black; overflow:visible; fill:#ba00ff; stroke-width:1px;">Get</text>
<path style="fill:#007ad2; stroke:#6a3900; stroke-width:1.04;" d="m -1549.7,767.4 c 2.9,-10.4 9.3,-19.5 16.4,-33.8 2.3,-4.7 3.8,-12.6 3.5,-17.8 0,0 -3.1,-2.7 -4,-3.9 -1.8,-2.4 -3.8,-5.7 -4.7,-8.5 -1,-3.2 -1.5,-7.7 -1.2,-11 0.3,-3.1 1.1,-7.4 2.8,-10 1.8,-2.9 5.6,-5.8 8.6,-7.3 3,-1.6 7.6,-2.7 11,-3 3.3,-0.3 7.8,0.4 11,1.2 3.7,1 8.6,2.8 11.5,5.2 7.1,6.2 7,14.3 7.5,22.9 0.5,2.1 2.2,4.4 3.5,6.1 0.5,0.7 1.7,1.4 2.1,2.3 0.3,0.5 0.6,1.4 0.3,1.9 -0.3,0.8 -1.6,1.2 -2.3,1.6 -0.5,0.3 -1.3,0.2 -1.6,0.7 -0.6,1.1 1,2.8 0.3,3.8 -0.4,0.5 -1.8,0.6 -1.8,0.6 0,0 1.8,2.3 1,2.3 -0.4,0 -1.7,2.1 -1.4,2.8 0,0 0.9,2 0.9,3 0,1 -0.2,2.6 -0.9,3.3 -0.7,0.8 -2.3,0.8 -3.3,1 -1.6,0.4 -4.2,0.2 -5.9,0.6 -1.2,0.3 -2.7,0.9 -3.7,1.5 -0.7,0.5 -1.7,1.1 -2.1,1.9 -1.1,2.4 0.1,6.3 -0.2,8.9 -0.2,1.4 -1.2,3.3 -1,4.7 0.2,1.7 1.6,3.8 2.6,5.2 1,1.4 3,2.8 4,4.2 1.5,2 3,5 4.4,7 0.5,0.8 1.9,2.4 1.9,2.4 h -59.3 z"/>
<path style="fill:#ffff3e; stroke:#454a4b; stroke-width:1.05;" d="m -1518.4,712.8 c 0,0 -1.3,1 -1.9,1.2 -0.6,0.2 -1.5,0.2 -2,0 -0.5,-0.2 -1.2,-1.2 -1.2,-1.2 -5,1.3 -7.5,-3.1 -7.8,-5.8 0,0 -1.8,-0.5 -2.5,-0.5 -2.2,-0.2 -3.3,-6 -3.3,-6.3 -0.4,-10.1 0.9,-15.1 7.6,-21.7 2.9,-2.9 7.3,-4.4 13.8,-4.6 4.1,-0.1 7.6,0 10.4,1.5 0,0 5.8,2.5 7.9,4.1 2,1.6 4.2,4.2 5.7,6.5 2,4.5 0.9,9.9 -3.2,12.3 l -4,2.4 c -1.4,0.8 -8.1,-1.1 -10.9,1.3 -1,0.8 -0.8,3.4 -1.1,3.7 0,0 -1.5,2.2 -2,3.2 -0.5,1 -1,2.4 -1.2,3.5 -0.2,0.8 -0.9,4.3 -1.6,4.7 -1.8,1.1 -2.7,-0.3 -2.7,-0.8 z"/>
<rect x="-1532.6" y="684.4" width="8.2" height="5.3" style="color:black; overflow:visible; fill:#ff6600; stroke-width:1;"/>
<rect x="-1532.5" y="690.8" width="8.2" height="5.3" style="color:black; overflow:visible; fill:#19aeff; stroke-width:1;"/>
<rect x="-1512.9" y="690.8" width="8.2" height="5.3" style="color:black; overflow:visible; fill:#4e9a06; stroke-width:1;"/>
<rect x="-1532.5" y="697.4" width="8.2" height="5.3" style="color:black; overflow:visible; fill:#73d216; stroke-width:1;"/>
<rect x="-1503.2" y="690.8" width="8.2" height="5.3" style="color:black; overflow:visible; fill:#ff6600; stroke-width:1;"/>
<rect x="-1513.1" y="678" width="8.2" height="5.3" style="color:black; overflow:visible; fill:#19aeff; stroke-width:1;"/>
<rect x="-1522.7" y="697.4" width="8.2" height="5.3" style="color:black; overflow:visible; fill:#73d216; stroke-width:1;"/>
<rect x="-1503.4" y="684.4" width="8.2" height="5.3" style="color:black; overflow:visible; fill:#ef2929; stroke-width:1;"/>
<rect x="-1522.9" y="684.4" width="8.2" height="5.3" style="color:black; overflow:visible; fill:#007ad2; stroke-width:1;"/>
<rect x="-1513.1" y="684.4" width="8.2" height="5.3" style="color:black; overflow:visible; fill:#0065a4; stroke-width:1;"/>
<rect x="-1522.8" y="678" width="8.2" height="5.3" style="color:black; overflow:visible; fill:#999999; stroke-width:1;"/>
<rect x="-1522.7" y="690.8" width="8.2" height="5.3" style="color:black; overflow:visible; fill:#edd400; stroke-width:1;"/>
<text x="-1491.7" y="680.5" style="font-family:Arial; font-size:25.5px; color:black; overflow:visible; fill:#ba00ff; stroke-width:1px;">Use</text>
<text x="-1873.6" y="1147.2" style="font-family:Georgia; font-size:17.4px; color:black; overflow:visible; fill:black; stroke-width:1px;"/>
 &#160; &#160;

<text x="-1955.1" y="1142.3" transform="scale(1.00004,0.999963)" style="font-family:Arial; font-size:11px; color:black; overflow:visible; fill:#666666; stroke-width:1px;"/>
 &#160; &#160;

<text x="-1979" y="1160" transform="scale(1.00004,0.999963)" style="font-family:Arial; font-size:11px; color:black; overflow:visible; fill:#666666; stroke-width:1px;"/>
 &#160;

</g>
</svg>
