<?xml version="1.0" encoding="UTF-8" standalone="no"?>
<!-- Created with Inkscape (http://www.inkscape.org/) -->

<svg
   width="67.7113mm"
   height="54.1834mm"
   viewBox="0 0 239.925 191.989"
   id="svg4354"
   version="1.1"
   inkscape:version="1.1 (c68e22c387, 2021-05-23)"
   sodipodi:docname="ci1.svg"
   xmlns:inkscape="http://www.inkscape.org/namespaces/inkscape"
   xmlns:sodipodi="http://sodipodi.sourceforge.net/DTD/sodipodi-0.dtd"
   xmlns="http://www.w3.org/2000/svg"
   xmlns:svg="http://www.w3.org/2000/svg"
   xmlns:rdf="http://www.w3.org/1999/02/22-rdf-syntax-ns#"
   xmlns:cc="http://creativecommons.org/ns#"
   xmlns:dc="http://purl.org/dc/elements/1.1/">
  <defs
     id="defs4356">
    <rect
       x="60.9512"
       y="188.004"
       width="147.268"
       height="59.434"
       id="rect13211" />
    <marker
       inkscape:isstock="true"
       style="overflow:visible"
       refX="0"
       refY="0"
       orient="auto"
       inkscape:stockid="marker98694830"
       id="marker98694830">
      <path
         transform="matrix(-0.4,0,0,-0.4,-4,0)"
         style="fill:#19aeff;fill-opacity:1;fill-rule:evenodd;stroke:#19aeff;stroke-width:1pt;stroke-opacity:1"
         d="M 0,0 5,-5 -12.5,0 5,5 Z"
         id="path14933"
         inkscape:connector-curvature="0" />
    </marker>
  </defs>
  <sodipodi:namedview
     id="base"
     pagecolor="#ffffff"
     bordercolor="#666666"
     borderopacity="1.0"
     inkscape:pageopacity="0.0"
     inkscape:pageshadow="2"
     inkscape:zoom="0.41184233"
     inkscape:cx="479.39896"
     inkscape:cy="538.96026"
     inkscape:document-units="px"
     inkscape:current-layer="layer1"
     showgrid="false"
     inkscape:window-width="1536"
     inkscape:window-height="801"
     inkscape:window-x="1528"
     inkscape:window-y="-8"
     inkscape:window-maximized="1"
     showborder="true"
     inkscape:pagecheckerboard="0" />
  <metadata
     id="metadata4359">
    <rdf:RDF>
      <cc:Work
         rdf:about="">
        <dc:format>image/svg+xml</dc:format>
        <dc:type
           rdf:resource="http://purl.org/dc/dcmitype/StillImage" />
      </cc:Work>
    </rdf:RDF>
  </metadata>
  <g
     inkscape:label="Layer 1"
     inkscape:groupmode="layer"
     id="layer1"
     transform="translate(-166.021,-482.926)">
    <path
       id="path4904"
       style="color:#000000;clip-rule:nonzero;display:inline;overflow:visible;visibility:visible;opacity:1;isolation:auto;mix-blend-mode:normal;color-interpolation:sRGB;color-interpolation-filters:linearRGB;solid-color:#000000;solid-opacity:1;fill:#73d216;fill-opacity:1;fill-rule:nonzero;stroke:none;stroke-width:2.99998;stroke-linecap:butt;stroke-linejoin:round;stroke-miterlimit:4;stroke-dasharray:none;stroke-dashoffset:0;stroke-opacity:1;marker:none;marker-start:none;marker-mid:none;marker-end:none;color-rendering:auto;image-rendering:auto;shape-rendering:auto;text-rendering:auto;enable-background:accumulate"
       d="m 324.276,521.657 a 3.27102,3.27102 0 0 0 -0.465,0.04 3.27102,3.27102 0 0 0 -2.697,2.478 3.27103,3.27103 0 0 0 -0.334,0.05 3.27103,3.27103 0 0 0 -4.03,0.866 3.27104,3.27104 0 0 0 -1.172,1.446 3.27102,3.27102 0 0 0 -2.8,-0.941 3.27102,3.27102 0 0 0 -2.755,3.716 3.27102,3.27102 0 0 0 0.615,1.463 3.27102,3.27102 0 0 0 0.246,0.442 h -10.057 a 3.27103,3.27103 0 0 0 -0.183,-1.608 3.27103,3.27103 0 0 0 0.159,-0.176 3.27103,3.27103 0 0 0 -0.55,-4.593 3.27103,3.27103 0 0 0 -2.735,-0.615 3.27103,3.27103 0 0 0 -3.34,0.222 3.27103,3.27103 0 0 0 -0.07,0.05 3.27103,3.27103 0 0 0 0,-0.01 3.27103,3.27103 0 0 0 -4.446,-1.285 3.27103,3.27103 0 0 0 -1.63,2.269 3.27104,3.27104 0 0 0 -3.854,-1.371 3.27104,3.27104 0 0 0 -0.432,0.189 3.27103,3.27103 0 0 0 -1.145,0.415 3.27103,3.27103 0 0 0 -2.525,-0.474 3.27103,3.27103 0 0 0 -0.259,-0.128 3.27103,3.27103 0 0 0 -3.147,0.4 3.27103,3.27103 0 0 0 -0.01,-0.01 3.27103,3.27103 0 0 0 -4.443,-1.284 3.27103,3.27103 0 0 0 -1.142,1.062 3.27104,3.27104 0 0 0 -1.796,-1.538 3.27104,3.27104 0 0 0 -4.168,2.006 3.27104,3.27104 0 0 0 -0.07,0.248 3.27102,3.27102 0 0 0 -2.134,1.543 3.27104,3.27104 0 0 0 -4.003,-1.622 3.27104,3.27104 0 0 0 -2.167,3.404 3.27102,3.27102 0 0 0 -0.567,0.178 3.27104,3.27104 0 0 0 -2.423,-1.851 3.27104,3.27104 0 0 0 -0.954,-0.02 3.27104,3.27104 0 0 0 -2.527,-2.105 3.27104,3.27104 0 0 0 -3.636,2.164 3.27102,3.27102 0 0 0 -1.301,-0.492 3.27102,3.27102 0 0 0 -2.542,0.703 3.27104,3.27104 0 0 0 -2.125,1.506 3.27104,3.27104 0 0 0 -1.099,1.292 3.27103,3.27103 0 0 0 -1.582,-0.644 3.27104,3.27104 0 0 0 -2.711,-3.525 3.27104,3.27104 0 0 0 -3.771,2.681 3.27104,3.27104 0 0 0 2.681,3.768 3.27104,3.27104 0 0 0 0.152,0.02 3.27103,3.27103 0 0 0 0.676,2.32 3.27103,3.27103 0 0 0 4.595,0.55 3.27103,3.27103 0 0 0 0.325,-0.295 3.27102,3.27102 0 0 0 2.068,1.194 3.27102,3.27102 0 0 0 0.531,0.03 3.27103,3.27103 0 0 0 0.536,3.037 3.27103,3.27103 0 0 0 2.224,1.223 3.27103,3.27103 0 0 0 3.667,-0.248 3.27103,3.27103 0 0 0 0.583,-0.593 3.27102,3.27102 0 0 0 1.448,0.602 3.27102,3.27102 0 0 0 1.591,-0.167 3.27104,3.27104 0 0 0 -0.607,1.402 3.27104,3.27104 0 0 0 0.462,2.287 3.27102,3.27102 0 0 0 -0.09,0.572 3.27103,3.27103 0 0 0 -0.123,-0.152 3.27102,3.27102 0 0 0 -3.285,-1.94 3.27104,3.27104 0 0 0 -1.134,-0.42 3.27104,3.27104 0 0 0 -2.102,0.356 3.27104,3.27104 0 0 0 -3.758,2.683 3.27104,3.27104 0 0 0 -0.01,0.09 3.27102,3.27102 0 0 0 -1.356,-0.09 3.27102,3.27102 0 0 0 -0.701,0.193 3.27104,3.27104 0 0 0 -0.07,-0.108 3.27104,3.27104 0 0 0 -0.486,-0.567 3.27103,3.27103 0 0 0 0.09,-0.08 3.27103,3.27103 0 0 0 0.11,-0.11 3.27103,3.27103 0 0 0 0.204,-0.236 3.27103,3.27103 0 0 0 0.09,-0.125 3.27103,3.27103 0 0 0 0.17,-0.261 3.27103,3.27103 0 0 0 0.07,-0.136 3.27103,3.27103 0 0 0 0.13,-0.284 3.27103,3.27103 0 0 0 0.05,-0.145 3.27103,3.27103 0 0 0 0.09,-0.299 3.27103,3.27103 0 0 0 0.03,-0.151 3.27103,3.27103 0 0 0 0.529,-0.332 3.27103,3.27103 0 0 0 0.55,-4.595 3.27103,3.27103 0 0 0 -4.593,-0.549 3.27103,3.27103 0 0 0 -1.191,1.956 3.27103,3.27103 0 0 0 -0.527,0.329 3.27103,3.27103 0 0 0 -0.995,1.327 3.27102,3.27102 0 0 0 -0.07,-0.01 3.27102,3.27102 0 0 0 -0.393,-0.03 3.27102,3.27102 0 0 0 -0.492,-0.113 3.27102,3.27102 0 0 0 -2.942,1.083 3.27102,3.27102 0 0 0 -0.282,0.372 3.27102,3.27102 0 0 0 -0.492,1.301 3.27102,3.27102 0 0 0 2.756,3.715 3.27102,3.27102 0 0 0 0.399,0.03 3.27102,3.27102 0 0 0 0.486,0.113 3.27102,3.27102 0 0 0 0.743,0.02 3.27104,3.27104 0 0 0 0.6,1.518 3.27104,3.27104 0 0 0 -0.798,1.125 3.27104,3.27104 0 0 0 -0.152,0.442 3.27104,3.27104 0 0 0 -0.02,0.07 3.27104,3.27104 0 0 0 -0.01,-0.07 3.27104,3.27104 0 0 0 -2.208,-2.424 3.27104,3.27104 0 0 0 -2.747,-1.382 3.27104,3.27104 0 0 0 -0.452,0.04 3.27104,3.27104 0 0 0 -0.273,-0.14 3.27104,3.27104 0 0 0 -1.83,-0.218 3.27104,3.27104 0 0 0 -2,1.171 3.27103,3.27103 0 0 0 -0.582,0.07 3.27103,3.27103 0 0 0 -0.323,0.09 3.27102,3.27102 0 0 0 -1.149,-1.999 3.27103,3.27103 0 0 0 -0.459,-0.789 3.27103,3.27103 0 0 0 -2.103,-1.207 3.27103,3.27103 0 0 0 -0.694,-2.14 3.27103,3.27103 0 0 0 -4.595,-0.549 3.27103,3.27103 0 0 0 -0.301,0.272 3.27104,3.27104 0 0 0 -0.03,-0.02 3.27104,3.27104 0 0 0 -1.417,-0.606 3.27104,3.27104 0 0 0 -3.77,2.68 3.27104,3.27104 0 0 0 2.68,3.769 3.27104,3.27104 0 0 0 2.87,-0.934 3.27103,3.27103 0 0 0 1.516,0.639 3.27103,3.27103 0 0 0 0.697,2.14 3.27103,3.27103 0 0 0 0.496,0.497 3.27102,3.27102 0 0 0 2.547,2.01 3.27102,3.27102 0 0 0 1.49,-0.131 3.27103,3.27103 0 0 0 1.494,2.239 3.27102,3.27102 0 0 0 -0.785,2.643 3.27102,3.27102 0 0 0 3.716,2.755 3.27102,3.27102 0 0 0 2.239,-1.419 3.27104,3.27104 0 0 0 0,1.037 3.27104,3.27104 0 0 0 1.525,2.248 3.27104,3.27104 0 0 0 0.415,0.215 3.27104,3.27104 0 0 0 1.83,0.218 3.27104,3.27104 0 0 0 1.868,-1.018 3.27102,3.27102 0 0 0 0.73,0.244 3.27103,3.27103 0 0 0 -0.655,0.394 3.27103,3.27103 0 0 0 -0.345,0.312 3.27103,3.27103 0 0 0 -0.607,3.603 3.27103,3.27103 0 0 0 -0.03,0.05 3.27103,3.27103 0 0 0 -0.328,0.873 3.27103,3.27103 0 0 0 -0.01,0.05 3.27102,3.27102 0 0 0 -0.03,-0.02 3.27102,3.27102 0 0 0 -1.217,-0.235 3.27102,3.27102 0 0 0 -0.921,0.134 3.27102,3.27102 0 0 0 -0.235,0.09 3.27103,3.27103 0 0 0 -0.218,-0.101 3.27103,3.27103 0 0 0 -0.279,-0.08 3.27102,3.27102 0 0 0 -1.652,-1.059 3.27103,3.27103 0 0 0 -1.38,-4.252 3.27103,3.27103 0 0 0 -4.443,1.283 3.27103,3.27103 0 0 0 1.283,4.445 3.27103,3.27103 0 0 0 0.725,0.284 3.27102,3.27102 0 0 0 -0.316,1.393 3.27102,3.27102 0 0 0 1.059,2.402 3.27103,3.27103 0 0 0 0.253,0.373 3.27103,3.27103 0 0 0 2.195,1.22 3.27103,3.27103 0 0 0 1.718,0.303 3.27102,3.27102 0 0 0 0.1,0.09 3.27103,3.27103 0 0 0 0.69,1.914 3.27103,3.27103 0 0 0 4.593,0.551 3.27103,3.27103 0 0 0 0.237,-0.204 3.27103,3.27103 0 0 0 0.11,-0.11 3.27103,3.27103 0 0 0 0.811,-1.488 3.27103,3.27103 0 0 0 0.03,-0.151 3.27103,3.27103 0 0 0 0.04,-0.308 3.27103,3.27103 0 0 0 0.01,-0.156 3.27103,3.27103 0 0 0 -0.359,-1.655 3.27103,3.27103 0 0 0 -0.07,-0.136 3.27103,3.27103 0 0 0 -0.169,-0.261 3.27103,3.27103 0 0 0 -0.09,-0.125 3.27103,3.27103 0 0 0 -0.405,-0.42 3.27103,3.27103 0 0 0 3.178,-0.521 3.27103,3.27103 0 0 0 0.369,1.202 3.27103,3.27103 0 0 0 1.775,1.514 3.27102,3.27102 0 0 0 -1.56,2.782 3.27102,3.27102 0 0 0 2.87,3.243 3.27103,3.27103 0 0 0 -0.01,0.03 3.27103,3.27103 0 0 0 -1.139,0.736 3.27103,3.27103 0 0 0 -0.848,0.319 3.27103,3.27103 0 0 0 -1.696,2.63 3.27102,3.27102 0 0 0 -0.64,1.441 3.27103,3.27103 0 0 0 -0.267,-0.652 3.27103,3.27103 0 0 0 -1.82,-1.525 3.27102,3.27102 0 0 0 -0.02,-0.03 3.27102,3.27102 0 0 0 1.872,-1.869 3.27102,3.27102 0 0 0 -3.271,-3.272 3.27102,3.27102 0 0 0 -0.613,0.615 3.27103,3.27103 0 0 0 -0.207,-0.149 3.27103,3.27103 0 0 0 -1.78,-0.484 3.27103,3.27103 0 0 0 -2.72,1.558 3.27103,3.27103 0 0 0 -0.07,0.141 3.27102,3.27102 0 0 0 -3.195,-3.195 3.27102,3.27102 0 0 0 -2.241,2.241 3.27103,3.27103 0 0 0 -2.736,0.18 3.27103,3.27103 0 0 0 -0.371,0.238 3.27103,3.27103 0 0 0 -0.06,-0.156 3.27103,3.27103 0 0 0 -3.012,-1.853 3.27103,3.27103 0 0 0 -3.206,3.336 3.27103,3.27103 0 0 0 3.335,3.206 3.27103,3.27103 0 0 0 1.87,-0.635 3.27103,3.27103 0 0 0 0.139,0.303 3.27103,3.27103 0 0 0 2.175,1.63 3.27103,3.27103 0 0 0 0.461,0.07 3.27103,3.27103 0 0 0 0.466,0 3.27103,3.27103 0 0 0 0.912,-0.196 3.27103,3.27103 0 0 0 0.424,-0.193 3.27103,3.27103 0 0 0 1.56,-1.912 3.27102,3.27102 0 0 0 0.286,0.286 3.27102,3.27102 0 0 0 3.041,-3.044 3.27103,3.27103 0 0 0 -0.257,1.334 3.27103,3.27103 0 0 0 1.344,2.571 3.27102,3.27102 0 0 0 -0.167,1.017 3.27102,3.27102 0 0 0 0.996,2.338 3.27103,3.27103 0 0 0 -0.145,0.906 3.27103,3.27103 0 0 0 3.203,3.337 3.27103,3.27103 0 0 0 0.07,0 3.27102,3.27102 0 0 0 2.015,2.015 3.27102,3.27102 0 0 0 0.686,-0.685 3.27103,3.27103 0 0 0 0.371,1.924 3.27103,3.27103 0 0 0 4.043,1.488 3.27102,3.27102 0 0 0 0.15,0.01 3.27102,3.27102 0 0 0 3.272,-3.27 3.27102,3.27102 0 0 0 -0.104,-0.813 3.27102,3.27102 0 0 0 0.04,-0.04 3.27102,3.27102 0 0 0 1.514,1.516 3.27102,3.27102 0 0 0 1.11,-1.109 3.27103,3.27103 0 0 0 1.118,0.558 3.27103,3.27103 0 0 0 0.05,0.04 3.27102,3.27102 0 0 0 -1.34,2.633 3.27102,3.27102 0 0 0 0.02,0.235 3.27102,3.27102 0 0 0 -0.791,-0.102 3.27102,3.27102 0 0 0 -3.272,3.27 3.27102,3.27102 0 0 0 0.407,1.558 3.27103,3.27103 0 0 0 -2.901,3.184 3.27103,3.27103 0 0 0 0.484,1.777 3.27103,3.27103 0 0 0 0.05,0.07 3.27102,3.27102 0 0 0 -2.221,-2.221 3.27102,3.27102 0 0 0 -3.074,3.076 3.27102,3.27102 0 0 0 -0.02,-0.113 3.27102,3.27102 0 0 0 -0.07,-0.3 3.27102,3.27102 0 0 0 -0.05,-0.15 3.27102,3.27102 0 0 0 -0.114,-0.288 3.27102,3.27102 0 0 0 -0.07,-0.14 3.27102,3.27102 0 0 0 -0.156,-0.271 3.27102,3.27102 0 0 0 -0.09,-0.127 3.27102,3.27102 0 0 0 -0.191,-0.246 3.27102,3.27102 0 0 0 -0.106,-0.115 3.27102,3.27102 0 0 0 -0.227,-0.215 3.27102,3.27102 0 0 0 -0.118,-0.101 3.27102,3.27102 0 0 0 -0.255,-0.18 3.27102,3.27102 0 0 0 -0.132,-0.08 3.27102,3.27102 0 0 0 -0.277,-0.143 3.27102,3.27102 0 0 0 -0.03,-0.01 3.27102,3.27102 0 0 0 0.646,-0.646 3.27102,3.27102 0 0 0 -0.569,-0.569 3.27103,3.27103 0 0 0 3.065,-3.329 3.27103,3.27103 0 0 0 -3.335,-3.204 3.27103,3.27103 0 0 0 -3.204,3.336 3.27103,3.27103 0 0 0 0.207,1.061 3.27102,3.27102 0 0 0 -2.705,2.705 3.27102,3.27102 0 0 0 1.834,1.836 3.27102,3.27102 0 0 0 -0.54,1.798 3.27102,3.27102 0 0 0 1.45,2.712 3.27102,3.27102 0 0 0 -1.988,1.989 3.27102,3.27102 0 0 0 2.746,2.746 3.27103,3.27103 0 0 0 0.319,0.846 3.27103,3.27103 0 0 0 0.424,0.589 3.27103,3.27103 0 0 0 -1.195,2.461 3.27103,3.27103 0 0 0 0.01,0.129 3.27103,3.27103 0 0 0 -0.03,0 3.27103,3.27103 0 0 0 -0.147,-0.05 3.27102,3.27102 0 0 0 0.03,-0.447 3.27102,3.27102 0 0 0 0,-0.156 3.27102,3.27102 0 0 0 -0.03,-0.309 3.27102,3.27102 0 0 0 -0.03,-0.155 3.27102,3.27102 0 0 0 -0.07,-0.302 3.27102,3.27102 0 0 0 -0.05,-0.148 3.27102,3.27102 0 0 0 -0.117,-0.29 3.27102,3.27102 0 0 0 -0.07,-0.138 3.27102,3.27102 0 0 0 -0.154,-0.27 3.27102,3.27102 0 0 0 -0.09,-0.13 3.27102,3.27102 0 0 0 -0.193,-0.244 3.27102,3.27102 0 0 0 -0.104,-0.117 3.27102,3.27102 0 0 0 -0.226,-0.212 3.27102,3.27102 0 0 0 -0.121,-0.102 3.27102,3.27102 0 0 0 -0.253,-0.182 3.27102,3.27102 0 0 0 -0.131,-0.08 3.27102,3.27102 0 0 0 -0.277,-0.141 3.27102,3.27102 0 0 0 -0.143,-0.06 3.27102,3.27102 0 0 0 -0.295,-0.101 3.27102,3.27102 0 0 0 -0.151,-0.03 3.27102,3.27102 0 0 0 -0.306,-0.06 3.27102,3.27102 0 0 0 -0.153,-0.02 3.27102,3.27102 0 0 0 -0.08,0 3.27103,3.27103 0 0 0 -0.178,-0.133 3.27102,3.27102 0 0 0 -0.849,-0.845 3.27102,3.27102 0 0 0 -0.334,0.333 3.27103,3.27103 0 0 0 -0.439,-0.07 3.27103,3.27103 0 0 0 -1.802,0.39 3.27103,3.27103 0 0 0 -1.657,3.402 3.27103,3.27103 0 0 0 -0.382,-0.246 3.27103,3.27103 0 0 0 -3.133,0 3.27103,3.27103 0 0 0 -1.308,4.438 3.27103,3.27103 0 0 0 4.013,1.501 3.27103,3.27103 0 0 0 0.316,-0.144 3.27103,3.27103 0 0 0 2.083,1.941 3.27103,3.27103 0 0 0 2.755,1.625 3.27103,3.27103 0 0 0 3.118,-2.116 3.27103,3.27103 0 0 0 0.646,-0.113 3.27103,3.27103 0 0 0 2.923,1.944 3.27103,3.27103 0 0 0 2.021,-0.657 3.27103,3.27103 0 0 0 2.068,0.798 3.27103,3.27103 0 0 0 1.318,-0.252 3.27102,3.27102 0 0 0 1.589,0.424 3.27102,3.27102 0 0 0 3.265,-3.165 3.27103,3.27103 0 0 0 3.013,1.849 3.27103,3.27103 0 0 0 1.612,-0.464 3.27102,3.27102 0 0 0 2.769,1.536 3.27102,3.27102 0 0 0 2.476,-1.136 3.27102,3.27102 0 0 0 2.65,1.366 3.27102,3.27102 0 0 0 2.619,-1.323 3.27103,3.27103 0 0 0 2.576,1.356 3.27103,3.27103 0 0 0 2.012,-0.652 3.27103,3.27103 0 0 0 1.519,0.349 3.27103,3.27103 0 0 0 1.384,-0.338 3.27103,3.27103 0 0 0 2.197,0.26 3.27103,3.27103 0 0 0 2.103,-0.346 3.27103,3.27103 0 0 0 0.114,-0.07 3.27103,3.27103 0 0 0 2.064,0.691 3.27103,3.27103 0 0 0 3.065,-2.326 3.27103,3.27103 0 0 0 1.145,0.62 3.27103,3.27103 0 0 0 0.419,0.277 3.27103,3.27103 0 0 0 1.995,0.362 3.27103,3.27103 0 0 0 1.02,0.873 3.27103,3.27103 0 0 0 3.637,-0.354 3.27103,3.27103 0 0 0 3.209,-0.523 3.27103,3.27103 0 0 0 1.348,1.4 3.27103,3.27103 0 0 0 4.438,-1.308 3.27103,3.27103 0 0 0 0.365,-2.041 3.27103,3.27103 0 0 0 1.435,1.591 3.27103,3.27103 0 0 0 1.011,0.345 3.27103,3.27103 0 0 0 2.746,-0.797 3.27102,3.27102 0 0 0 1.866,0.59 3.27102,3.27102 0 0 0 2.151,-0.809 3.27103,3.27103 0 0 0 3.267,2.644 3.27103,3.27103 0 0 0 2.868,-1.824 3.27103,3.27103 0 0 0 1.18,0.252 3.27103,3.27103 0 0 0 1.821,-0.514 3.27103,3.27103 0 0 0 0.96,0.807 3.27103,3.27103 0 0 0 4.098,-0.81 3.27102,3.27102 0 0 0 1.745,1.744 3.27102,3.27102 0 0 0 1.483,-1.483 3.27102,3.27102 0 0 0 1.367,1.367 3.27102,3.27102 0 0 0 0.855,-0.855 3.27103,3.27103 0 0 0 2.057,0.683 3.27103,3.27103 0 0 0 1.238,-0.273 3.27103,3.27103 0 0 0 2.831,-1.12 3.27103,3.27103 0 0 0 2.738,1.393 3.27103,3.27103 0 0 0 3.146,-2.65 3.27103,3.27103 0 0 0 0.101,0.134 3.27103,3.27103 0 0 0 0.325,0.339 3.27103,3.27103 0 0 0 0.51,0.369 3.27102,3.27102 0 0 0 1.053,0.853 3.27103,3.27103 0 0 0 1.019,0.871 3.27103,3.27103 0 0 0 2.833,0.137 3.27102,3.27102 0 0 0 1.959,-1.49 3.27102,3.27102 0 0 0 2.962,1.888 3.27102,3.27102 0 0 0 3.272,-3.272 3.27102,3.27102 0 0 0 -3.272,-3.27 3.27102,3.27102 0 0 0 -0.387,0.02 3.27103,3.27103 0 0 0 -0.01,-0.712 3.27103,3.27103 0 0 0 0.139,0.09 3.27103,3.27103 0 0 0 4.437,-1.307 3.27103,3.27103 0 0 0 0.189,-2.718 3.27103,3.27103 0 0 0 2.942,-0.488 3.27103,3.27103 0 0 0 1.654,3.402 3.27103,3.27103 0 0 0 1.633,0.391 3.27102,3.27102 0 0 0 3.02,3.023 3.27102,3.27102 0 0 0 3.273,-3.271 3.27102,3.27102 0 0 0 -3.089,-3.09 3.27103,3.27103 0 0 0 -0.01,-0.233 3.27102,3.27102 0 0 0 0.83,-0.831 3.27102,3.27102 0 0 0 -2.384,-2.386 3.27103,3.27103 0 0 0 0.719,0.534 3.27103,3.27103 0 0 0 4.436,-1.307 3.27103,3.27103 0 0 0 -1.308,-4.439 3.27103,3.27103 0 0 0 -4.435,1.308 3.27103,3.27103 0 0 0 0.522,3.839 3.27102,3.27102 0 0 0 -0.819,-0.82 3.27102,3.27102 0 0 0 -1.163,1.162 3.27103,3.27103 0 0 0 -1.599,0.62 3.27103,3.27103 0 0 0 -1.664,-3.395 3.27103,3.27103 0 0 0 -1.257,-0.38 3.27102,3.27102 0 0 0 -1.323,-0.279 3.27102,3.27102 0 0 0 -3.018,2.025 3.27103,3.27103 0 0 0 -0.282,-0.08 3.27103,3.27103 0 0 0 -2.061,0.236 3.27103,3.27103 0 0 0 -0.03,-0.02 3.27103,3.27103 0 0 0 0.422,-0.592 3.27103,3.27103 0 0 0 0.165,-0.348 3.27102,3.27102 0 0 0 2.896,-3.246 3.27102,3.27102 0 0 0 -3.272,-3.272 3.27102,3.27102 0 0 0 -1.033,0.174 3.27103,3.27103 0 0 0 -0.01,-0.02 3.27103,3.27103 0 0 0 -2.799,-1.692 3.27103,3.27103 0 0 0 -3.338,3.205 3.27103,3.27103 0 0 0 1.385,2.732 3.27103,3.27103 0 0 0 -0.128,1.123 3.27103,3.27103 0 0 0 -1.893,-0.565 3.27103,3.27103 0 0 0 -3.087,2.402 3.27102,3.27102 0 0 0 0,-0.08 3.27102,3.27102 0 0 0 -0.546,-1.513 3.27102,3.27102 0 0 0 1.725,-2.875 3.27102,3.27102 0 0 0 -0.785,-2.127 3.27102,3.27102 0 0 0 0.08,-0.146 3.27102,3.27102 0 0 0 0.267,-0.952 3.27103,3.27103 0 0 0 0.131,-0.574 3.27102,3.27102 0 0 0 0.09,-0.03 3.27102,3.27102 0 0 0 0.585,0.06 3.27102,3.27102 0 0 0 3.272,-3.271 3.27102,3.27102 0 0 0 -3.272,-3.271 3.27102,3.27102 0 0 0 -0.69,0.08 3.27103,3.27103 0 0 0 -1.808,-0.506 3.27103,3.27103 0 0 0 -1.782,0.574 3.27103,3.27103 0 0 0 -1.301,-1.298 3.27103,3.27103 0 0 0 -3.151,0.01 3.27103,3.27103 0 0 0 -0.231,-2.171 3.27102,3.27102 0 0 0 0.459,-0.03 3.27102,3.27102 0 0 0 2.569,-2.037 3.27102,3.27102 0 0 0 0.156,-0.156 3.27103,3.27103 0 0 0 1.964,-2.105 3.27102,3.27102 0 0 0 0.715,-0.321 3.27102,3.27102 0 0 0 -0.929,2.272 3.27102,3.27102 0 0 0 3.271,3.272 3.27102,3.27102 0 0 0 0.466,-0.03 3.27102,3.27102 0 0 0 2.698,-2.437 3.27103,3.27103 0 0 0 0.532,-0.259 3.27103,3.27103 0 0 0 0.323,0.479 3.27103,3.27103 0 0 0 0.323,0.336 3.27103,3.27103 0 0 0 0.03,0.03 3.27103,3.27103 0 0 0 -0.32,0.365 3.27103,3.27103 0 0 0 -0.252,0.393 3.27103,3.27103 0 0 0 1.307,4.437 3.27103,3.27103 0 0 0 2.711,0.193 3.27103,3.27103 0 0 0 0.06,-0.02 3.27102,3.27102 0 0 0 -0.272,1.299 3.27102,3.27102 0 0 0 3.272,3.271 3.27102,3.27102 0 0 0 3.269,-3.271 3.27102,3.27102 0 0 0 -0.01,-0.24 3.27102,3.27102 0 0 0 0.784,0.102 3.27102,3.27102 0 0 0 2.787,-1.568 3.27102,3.27102 0 0 0 0.433,0.434 3.27102,3.27102 0 0 0 3.269,-3.272 3.27102,3.27102 0 0 0 -0.86,-0.86 3.27103,3.27103 0 0 0 3.163,-1.689 3.27103,3.27103 0 0 0 0.329,-2.224 3.27103,3.27103 0 0 0 1.872,-1.542 3.27103,3.27103 0 0 0 -1.305,-4.439 3.27103,3.27103 0 0 0 -4.439,1.307 3.27103,3.27103 0 0 0 -0.355,1.09 3.27102,3.27102 0 0 0 -0.78,0.78 3.27102,3.27102 0 0 0 0.48,0.482 3.27103,3.27103 0 0 0 -1.548,1.417 3.27103,3.27103 0 0 0 -0.172,2.751 3.27102,3.27102 0 0 0 -1.233,1.233 3.27102,3.27102 0 0 0 -1.012,-0.381 3.27102,3.27102 0 0 0 -0.819,-0.819 3.27102,3.27102 0 0 0 -0.987,0.986 3.27102,3.27102 0 0 0 -1.866,1.866 3.27102,3.27102 0 0 0 -0.42,0.42 3.27102,3.27102 0 0 0 0.237,0.237 3.27102,3.27102 0 0 0 -0.04,0.52 3.27102,3.27102 0 0 0 0.02,0.235 3.27102,3.27102 0 0 0 -0.789,-0.101 3.27102,3.27102 0 0 0 -1.205,0.236 3.27103,3.27103 0 0 0 0.203,-1.964 3.27103,3.27103 0 0 0 1.872,-1.542 3.27103,3.27103 0 0 0 -1.305,-4.436 3.27103,3.27103 0 0 0 -0.426,-0.194 3.27103,3.27103 0 0 0 -1.116,-0.198 3.27103,3.27103 0 0 0 -0.169,-0.167 3.27102,3.27102 0 0 0 0.256,-0.52 3.27102,3.27102 0 0 0 0.161,-0.161 3.27103,3.27103 0 0 0 2.098,-3.118 3.27103,3.27103 0 0 0 -0.02,-0.305 3.27103,3.27103 0 0 0 0.536,-0.222 3.27102,3.27102 0 0 0 0.394,0.927 3.27102,3.27102 0 0 0 -1.258,2.569 3.27102,3.27102 0 0 0 3.271,3.272 3.27102,3.27102 0 0 0 3.271,-3.272 3.27102,3.27102 0 0 0 -0.497,-1.734 3.27102,3.27102 0 0 0 1.256,-2.566 3.27102,3.27102 0 0 0 -3.273,-3.272 3.27102,3.27102 0 0 0 -1.501,0.374 3.27103,3.27103 0 0 0 -2.695,-2.431 3.27102,3.27102 0 0 0 0.01,-0.219 3.27102,3.27102 0 0 0 -3.27,-3.27 3.27102,3.27102 0 0 0 -3.272,3.27 3.27102,3.27102 0 0 0 0.05,0.538 3.27102,3.27102 0 0 0 -2.356,-1.002 3.27102,3.27102 0 0 0 -0.92,0.132 3.27102,3.27102 0 0 0 -0.112,0.04 3.27103,3.27103 0 0 0 -1.098,-0.09 3.27103,3.27103 0 0 0 -0.754,-1.881 3.27102,3.27102 0 0 0 0.657,-0.617 3.27103,3.27103 0 0 0 1.881,-1.169 3.27103,3.27103 0 0 0 0.694,-2.163 3.27102,3.27102 0 0 0 0.613,-0.613 3.27102,3.27102 0 0 0 -1.277,-1.276 3.27103,3.27103 0 0 0 0.359,0 3.27103,3.27103 0 0 0 1.333,-0.398 3.27103,3.27103 0 0 0 1.609,-3.588 3.27103,3.27103 0 0 0 2.686,-1.239 3.27103,3.27103 0 0 0 -0.549,-4.593 3.27103,3.27103 0 0 0 -2.464,-0.661 3.27102,3.27102 0 0 0 -0.805,-2.329 3.27103,3.27103 0 0 0 1.494,-2.244 3.27102,3.27102 0 0 0 1.481,0.13 3.27102,3.27102 0 0 0 0.571,-0.138 3.27104,3.27104 0 0 0 -1.01,1.85 3.27104,3.27104 0 0 0 2.681,3.77 3.27104,3.27104 0 0 0 2.504,-0.615 3.27102,3.27102 0 0 0 -0.247,1.235 3.27102,3.27102 0 0 0 1.854,2.944 3.27103,3.27103 0 0 0 0.226,0.328 3.27103,3.27103 0 0 0 -1.561,0.312 3.27103,3.27103 0 0 0 -1.199,0.378 3.27103,3.27103 0 0 0 -1.489,1.735 3.27102,3.27102 0 0 0 -1.141,1.141 3.27103,3.27103 0 0 0 -2.041,1.202 3.27103,3.27103 0 0 0 0.549,4.592 3.27103,3.27103 0 0 0 4.592,-0.549 3.27103,3.27103 0 0 0 0.701,-2.02 3.27103,3.27103 0 0 0 1.81,-0.292 3.27103,3.27103 0 0 0 2.192,-1.217 3.27103,3.27103 0 0 0 0,-4.052 3.27103,3.27103 0 0 0 1.729,-0.4 3.27103,3.27103 0 0 0 1.284,-4.445 3.27103,3.27103 0 0 0 -1.434,-1.353 3.27102,3.27102 0 0 0 -0.05,-0.07 3.27102,3.27102 0 0 0 -0.09,-0.128 3.27102,3.27102 0 0 0 -0.193,-0.246 3.27102,3.27102 0 0 0 -0.101,-0.114 3.27102,3.27102 0 0 0 -0.226,-0.216 3.27102,3.27102 0 0 0 -0.121,-0.1 3.27102,3.27102 0 0 0 -0.253,-0.18 3.27102,3.27102 0 0 0 -0.132,-0.08 3.27102,3.27102 0 0 0 -0.173,-0.09 3.27102,3.27102 0 0 0 2.733,-2.749 3.27102,3.27102 0 0 0 -0.773,-2.634 3.27103,3.27103 0 0 0 1.14,-4.331 3.27103,3.27103 0 0 0 0.285,0.259 3.27103,3.27103 0 0 0 4.593,-0.549 3.27103,3.27103 0 0 0 0.696,-2.14 3.27103,3.27103 0 0 0 2.104,-1.209 3.27103,3.27103 0 0 0 -0.55,-4.592 3.27103,3.27103 0 0 0 -4.595,0.549 3.27103,3.27103 0 0 0 -0.694,2.14 3.27103,3.27103 0 0 0 -2.103,1.209 3.27103,3.27103 0 0 0 -0.307,3.568 3.27103,3.27103 0 0 0 -0.928,-0.637 3.27104,3.27104 0 0 0 -0.02,-0.182 3.27104,3.27104 0 0 0 -3.771,-2.681 3.27104,3.27104 0 0 0 -1.435,0.63 3.27103,3.27103 0 0 0 -0.08,-0.07 3.27103,3.27103 0 0 0 -0.235,-0.204 3.27103,3.27103 0 0 0 -4.594,0.551 3.27103,3.27103 0 0 0 -0.696,2.14 3.27103,3.27103 0 0 0 -1.03,0.321 3.27103,3.27103 0 0 0 -0.369,0.227 3.27104,3.27104 0 0 0 -1.206,-0.464 3.27104,3.27104 0 0 0 -1.672,0.163 3.27102,3.27102 0 0 0 -2.791,-3.175 3.27102,3.27102 0 0 0 -3.386,1.749 3.27102,3.27102 0 0 0 -0.162,-0.295 3.27102,3.27102 0 0 0 -1.877,-1.371 3.27102,3.27102 0 0 0 -2.745,-2.7 3.27102,3.27102 0 0 0 -0.678,-0.02 3.27103,3.27103 0 0 0 -0.961,-2.226 3.27103,3.27103 0 0 0 0.765,-0.49 3.27103,3.27103 0 0 0 0.668,0.714 3.27103,3.27103 0 0 0 0.547,0.341 3.27103,3.27103 0 0 0 1.233,2.296 3.27103,3.27103 0 0 0 4.592,-0.549 3.27103,3.27103 0 0 0 0.09,-0.126 3.27103,3.27103 0 0 0 0.09,-0.129 3.27103,3.27103 0 0 0 0.157,-0.268 3.27103,3.27103 0 0 0 0.07,-0.141 3.27103,3.27103 0 0 0 0.253,-0.841 3.27103,3.27103 0 0 0 1.033,1.419 3.27103,3.27103 0 0 0 0.53,0.332 3.27103,3.27103 0 0 0 1.19,1.951 3.27103,3.27103 0 0 0 4.593,-0.549 3.27103,3.27103 0 0 0 -0.351,-4.421 3.27102,3.27102 0 0 0 1.489,-1.42 3.27103,3.27103 0 0 0 0.433,0.422 3.27103,3.27103 0 0 0 2.454,0.664 3.27104,3.27104 0 0 0 -0.09,1.443 3.27104,3.27104 0 0 0 0.286,0.888 3.27104,3.27104 0 0 0 0.232,0.402 3.27104,3.27104 0 0 0 3.253,1.391 3.27104,3.27104 0 0 0 2.681,-3.77 3.27104,3.27104 0 0 0 -3.306,-2.725 3.27104,3.27104 0 0 0 -0.347,0.03 3.27103,3.27103 0 0 0 -1.125,-3.469 3.27103,3.27103 0 0 0 -4.592,0.552 3.27103,3.27103 0 0 0 -0.308,0.479 3.27102,3.27102 0 0 0 -0.331,-0.33 3.27102,3.27102 0 0 0 -0.321,-0.237 3.27103,3.27103 0 0 0 -1.04,-3.72 3.27103,3.27103 0 0 0 -4.594,0.549 3.27103,3.27103 0 0 0 -0.641,2.626 3.27104,3.27104 0 0 0 -0.436,0.04 3.27104,3.27104 0 0 0 -1.98,1.145 3.27104,3.27104 0 0 0 -0.219,0.31 3.27103,3.27103 0 0 0 -0.185,-0.156 3.27103,3.27103 0 0 0 -2.039,-0.692 3.27104,3.27104 0 0 0 0,-1.013 3.27104,3.27104 0 0 0 -0.334,-0.974 3.27102,3.27102 0 0 0 0.898,-2.766 3.27102,3.27102 0 0 0 -3.25,-2.793 z m -35.811,6.13 a 3.27103,3.27103 0 0 0 1.43,1.25 3.27104,3.27104 0 0 0 -0.828,0.734 3.27103,3.27103 0 0 0 -0.802,-1.312 3.27104,3.27104 0 0 0 0.2,-0.672 z m -66.296,0.76 a 3.27102,3.27102 0 0 0 -3.25,2.791 3.27102,3.27102 0 0 0 2.755,3.715 3.27102,3.27102 0 0 0 2.654,-0.797 3.27104,3.27104 0 0 0 1.64,0.791 3.27104,3.27104 0 0 0 1.819,-0.213 3.27103,3.27103 0 0 0 0.622,2.716 3.27103,3.27103 0 0 0 4.592,0.549 3.27103,3.27103 0 0 0 0.549,-4.593 3.27103,3.27103 0 0 0 -3.849,-0.984 3.27104,3.27104 0 0 0 0.04,-0.156 3.27104,3.27104 0 0 0 -2.681,-3.77 3.27104,3.27104 0 0 0 -2.718,0.788 3.27102,3.27102 0 0 0 -1.705,-0.802 3.27102,3.27102 0 0 0 -0.466,-0.03 z m 71.002,0.154 a 3.27103,3.27103 0 0 0 0.218,0.352 3.27104,3.27104 0 0 0 -0.406,-0.222 3.27103,3.27103 0 0 0 0.188,-0.13 z m -30.368,0.936 a 3.27102,3.27102 0 0 0 0.141,0.253 3.27104,3.27104 0 0 0 -0.35,0.06 3.27104,3.27104 0 0 0 0.209,-0.315 z m 31.478,0.248 a 3.27103,3.27103 0 0 0 0.134,0.09 3.27103,3.27103 0 0 0 -0.02,0.1 3.27104,3.27104 0 0 0 -0.114,-0.183 z m -46.352,0.583 a 3.27104,3.27104 0 0 0 1.242,0.49 3.27104,3.27104 0 0 0 0.96,0.01 3.27104,3.27104 0 0 0 2.52,2.108 3.27104,3.27104 0 0 0 1.824,-0.216 3.27102,3.27102 0 0 0 0.971,1.211 3.27103,3.27103 0 0 0 -0.208,0.141 3.27103,3.27103 0 0 0 -0.818,0.96 3.27102,3.27102 0 0 0 -2.483,-1.855 3.27102,3.27102 0 0 0 -3.076,1.259 3.27103,3.27103 0 0 0 -1.588,-0.613 3.27103,3.27103 0 0 0 -1.701,-0.444 3.27102,3.27102 0 0 0 0.132,-0.538 3.27102,3.27102 0 0 0 0.03,-0.428 3.27102,3.27102 0 0 0 2.19,-2.09 z m -34.607,1.602 a 3.27104,3.27104 0 0 0 -3.304,2.724 3.27104,3.27104 0 0 0 2.68,3.771 3.27104,3.27104 0 0 0 3.769,-2.681 3.27104,3.27104 0 0 0 -2.679,-3.768 3.27104,3.27104 0 0 0 -0.466,-0.05 z m 105.212,2.48 a 3.27103,3.27103 0 0 0 0.03,0.03 3.27103,3.27103 0 0 0 -0.101,0.04 3.27102,3.27102 0 0 0 0.07,-0.08 z m -1.082,0.877 a 3.27103,3.27103 0 0 0 -0.09,0.106 3.27103,3.27103 0 0 0 -0.523,0.986 3.27102,3.27102 0 0 0 -0.743,0.126 3.27103,3.27103 0 0 0 -0.16,-0.873 3.27102,3.27102 0 0 0 0.532,-0.03 3.27102,3.27102 0 0 0 0.989,-0.314 z m -63.153,2.733 a 3.27103,3.27103 0 0 0 0.115,0.24 3.27104,3.27104 0 0 0 -0.339,0.106 3.27102,3.27102 0 0 0 0.224,-0.345 z m 58.881,1.87 a 3.27103,3.27103 0 0 0 -0.354,0.163 3.27103,3.27103 0 0 0 -0.277,0.18 v -0.33 a 3.27103,3.27103 0 0 0 0.631,-0.01 z m 5.128,2.751 a 3.27103,3.27103 0 0 0 0.835,1.158 3.27104,3.27104 0 0 0 -0.33,0.352 3.27102,3.27102 0 0 0 -1.038,0.123 3.27102,3.27102 0 0 0 -0.361,-0.03 3.27102,3.27102 0 0 0 -0.02,0 3.27103,3.27103 0 0 0 0.284,-1.415 3.27102,3.27102 0 0 0 0.632,-0.193 z m 10.517,2.334 a 3.27102,3.27102 0 0 0 0.878,0.905 3.27104,3.27104 0 0 0 -0.682,0.1 3.27104,3.27104 0 0 0 -0.319,0.11 3.27103,3.27103 0 0 0 0.123,-1.114 z m 13.634,2.702 a 3.27104,3.27104 0 0 0 1.028,0.365 3.27104,3.27104 0 0 0 2.096,-0.356 3.27104,3.27104 0 0 0 0.451,0.04 3.27103,3.27103 0 0 0 0.08,0.09 3.27102,3.27102 0 0 0 -1.51,2.296 3.27102,3.27102 0 0 0 0,0.952 3.27104,3.27104 0 0 0 -2.162,-1.387 3.27104,3.27104 0 0 0 -1.591,0.135 3.27102,3.27102 0 0 0 0.816,-1.187 3.27103,3.27103 0 0 0 0.488,-0.488 3.27103,3.27103 0 0 0 0.09,-0.125 3.27103,3.27103 0 0 0 0.09,-0.13 3.27103,3.27103 0 0 0 0.125,-0.211 z m -18.4,0.398 a 3.27103,3.27103 0 0 0 1.11,0.343 3.27103,3.27103 0 0 0 -0.335,0.89 3.27104,3.27104 0 0 0 -0.03,-0.07 3.27104,3.27104 0 0 0 -0.783,-1.11 3.27103,3.27103 0 0 0 0.03,-0.05 z m -11.51,0.05 a 3.27103,3.27103 0 0 0 0.989,0.288 3.27103,3.27103 0 0 0 -0.406,1.773 3.27103,3.27103 0 0 0 -0.08,0.09 3.27103,3.27103 0 0 0 -0.503,0.923 z m 48.495,1.031 a 3.27102,3.27102 0 0 0 -3.27,3.271 3.27102,3.27102 0 0 0 3.27,3.272 3.27102,3.27102 0 0 0 3.272,-3.272 3.27102,3.27102 0 0 0 -3.272,-3.271 z m -117.25,0.138 a 3.27103,3.27103 0 0 0 0,0.433 3.27104,3.27104 0 0 0 -0.228,-0.05 3.27104,3.27104 0 0 0 -0.06,-0.01 3.27102,3.27102 0 0 0 0.287,-0.378 z m -3.869,1.281 a 3.27102,3.27102 0 0 0 0.217,0.08 3.27102,3.27102 0 0 0 0.427,0.09 3.27104,3.27104 0 0 0 -0.769,1.611 3.27104,3.27104 0 0 0 0.417,2.219 3.27104,3.27104 0 0 0 0.03,0.653 3.27104,3.27104 0 0 0 3.771,2.68 3.27104,3.27104 0 0 0 1.03,-0.36 3.27103,3.27103 0 0 0 1.558,-0.659 3.27103,3.27103 0 0 0 1.178,-3.254 3.27102,3.27102 0 0 0 0.701,0.193 3.27102,3.27102 0 0 0 1.694,-0.204 3.27103,3.27103 0 0 0 1.213,0.167 3.27102,3.27102 0 0 0 1.608,1.076 3.27103,3.27103 0 0 0 0.178,0.659 3.27102,3.27102 0 0 0 -2.661,-0.801 3.27102,3.27102 0 0 0 -2.755,3.715 3.27102,3.27102 0 0 0 1.107,2.004 3.27103,3.27103 0 0 0 -0.521,1.081 3.27102,3.27102 0 0 0 -0.12,0.06 3.27103,3.27103 0 0 0 -1.191,-0.956 3.27103,3.27103 0 0 0 -1.47,-1.688 3.27103,3.27103 0 0 0 -4.443,1.286 3.27103,3.27103 0 0 0 1.283,4.443 3.27103,3.27103 0 0 0 0.176,0.08 3.27103,3.27103 0 0 0 0.186,0.402 3.27103,3.27103 0 0 0 1.391,1.336 3.27103,3.27103 0 0 0 0.666,2.305 3.27103,3.27103 0 0 0 -0.343,1.624 3.27102,3.27102 0 0 0 -1.175,-1.176 3.27103,3.27103 0 0 0 -0.06,-3.006 3.27103,3.27103 0 0 0 -4.439,-1.307 3.27103,3.27103 0 0 0 -0.47,0.32 3.27103,3.27103 0 0 0 -0.128,-0.597 3.27102,3.27102 0 0 0 0.203,-0.202 3.27102,3.27102 0 0 0 0.799,-2.143 3.27102,3.27102 0 0 0 0,-0.156 3.27102,3.27102 0 0 0 -0.03,-0.31 3.27102,3.27102 0 0 0 -0.03,-0.153 3.27102,3.27102 0 0 0 -0.07,-0.304 3.27102,3.27102 0 0 0 -0.05,-0.147 3.27102,3.27102 0 0 0 -0.117,-0.29 3.27102,3.27102 0 0 0 -0.07,-0.138 3.27102,3.27102 0 0 0 -0.156,-0.271 3.27102,3.27102 0 0 0 -0.09,-0.129 3.27102,3.27102 0 0 0 -0.191,-0.244 3.27102,3.27102 0 0 0 -0.106,-0.116 3.27102,3.27102 0 0 0 -0.224,-0.214 3.27102,3.27102 0 0 0 -0.121,-0.1 3.27102,3.27102 0 0 0 -0.252,-0.182 3.27102,3.27102 0 0 0 -0.134,-0.08 3.27102,3.27102 0 0 0 -0.277,-0.141 3.27102,3.27102 0 0 0 -0.143,-0.06 3.27102,3.27102 0 0 0 -0.295,-0.103 3.27102,3.27102 0 0 0 -0.149,-0.04 3.27102,3.27102 0 0 0 -0.189,-0.04 3.27102,3.27102 0 0 0 1.263,-2.118 3.27102,3.27102 0 0 0 -0.439,-2.178 3.27103,3.27103 0 0 0 0.776,-0.301 3.27103,3.27103 0 0 0 1.68,-3.1 3.27104,3.27104 0 0 0 0.119,-0.811 z m -6.643,1.044 a 3.27103,3.27103 0 0 0 0.4,1.586 3.27103,3.27103 0 0 0 0.08,0.115 3.27102,3.27102 0 0 0 -1.334,0.685 3.27102,3.27102 0 0 0 -0.281,0.279 3.27104,3.27104 0 0 0 -0.132,-0.07 3.27104,3.27104 0 0 0 -1.831,-0.218 3.27104,3.27104 0 0 0 -1.979,1.145 3.27104,3.27104 0 0 0 -0.192,0.268 3.27102,3.27102 0 0 0 0,-0.976 3.27102,3.27102 0 0 0 -1.507,-2.296 3.27103,3.27103 0 0 0 0.08,-0.09 3.27104,3.27104 0 0 0 0.446,-0.04 3.27104,3.27104 0 0 0 0.569,0.244 3.27104,3.27104 0 0 0 2.123,1.344 3.27104,3.27104 0 0 0 3.557,-1.971 z m 91.896,0.02 a 3.27104,3.27104 0 0 0 3.484,1.958 3.27104,3.27104 0 0 0 2.33,-0.545 3.27102,3.27102 0 0 0 -0.555,1.384 3.27102,3.27102 0 0 0 -0.02,0.321 3.27103,3.27103 0 0 0 -1.296,-0.494 3.27104,3.27104 0 0 0 -0.843,-0.264 3.27104,3.27104 0 0 0 -1.831,0.217 3.27104,3.27104 0 0 0 -0.131,0.07 3.27102,3.27102 0 0 0 -1.438,-0.914 3.27102,3.27102 0 0 0 -0.03,-0.288 3.27103,3.27103 0 0 0 0.341,-1.443 z m 6.732,0.457 a 3.27103,3.27103 0 0 0 0.03,0.04 3.27102,3.27102 0 0 0 -0.03,0.02 3.27102,3.27102 0 0 0 -0.08,0.06 3.27104,3.27104 0 0 0 0.07,-0.118 z m 13.218,0.321 a 3.27102,3.27102 0 0 0 1.255,1.101 3.27102,3.27102 0 0 0 -1.274,0.479 3.27102,3.27102 0 0 0 -0.191,0.143 3.27104,3.27104 0 0 0 0.204,-0.693 3.27104,3.27104 0 0 0 0,-1.03 z m -133.559,1.058 a 3.27102,3.27102 0 0 0 -3.27,3.272 3.27102,3.27102 0 0 0 3.27,3.272 3.27102,3.27102 0 0 0 3.272,-3.272 3.27102,3.27102 0 0 0 -3.272,-3.272 z m 106.838,0.774 a 3.27102,3.27102 0 0 0 2.237,2.511 3.27102,3.27102 0 0 0 0.01,0.207 3.27102,3.27102 0 0 0 0.196,0.703 3.27102,3.27102 0 0 0 -1.158,2.041 3.27102,3.27102 0 0 0 -0.02,0.71 3.27103,3.27103 0 0 0 -0.798,0.956 3.27103,3.27103 0 0 0 -0.208,2.65 3.27104,3.27104 0 0 0 -1.04,0.171 3.27102,3.27102 0 0 0 -0.178,-1.07 3.27103,3.27103 0 0 0 0.198,-2.037 3.27103,3.27103 0 0 0 0.244,-0.268 3.27103,3.27103 0 0 0 -0.22,-4.293 3.27104,3.27104 0 0 0 0.526,-1.301 3.27104,3.27104 0 0 0 0.05,-0.662 3.27104,3.27104 0 0 0 0.164,-0.318 z m 50.233,0.483 a 3.27103,3.27103 0 0 0 -2.637,1.699 3.27103,3.27103 0 0 0 1.307,4.436 3.27103,3.27103 0 0 0 4.438,-1.307 3.27103,3.27103 0 0 0 -1.307,-4.437 3.27103,3.27103 0 0 0 -1.801,-0.391 z m -36.746,2.929 a 3.27102,3.27102 0 0 0 0.407,0.222 3.27102,3.27102 0 0 0 0.892,0.268 3.27102,3.27102 0 0 0 0.93,0 3.27103,3.27103 0 0 0 0.08,0.888 3.27103,3.27103 0 0 0 -1.7,0.4 3.27103,3.27103 0 0 0 -0.391,0.255 3.27103,3.27103 0 0 0 -0.352,0.305 3.27103,3.27103 0 0 0 -0.303,0.356 3.27103,3.27103 0 0 0 -0.251,0.393 3.27103,3.27103 0 0 0 0.01,3.136 3.27103,3.27103 0 0 0 0.178,0.272 3.27102,3.27102 0 0 0 -0.173,0.174 3.27103,3.27103 0 0 0 -1.263,0.323 3.27103,3.27103 0 0 0 -0.36,0.06 3.27102,3.27102 0 0 0 -0.08,0 3.27102,3.27102 0 0 0 -1.393,0.314 3.27102,3.27102 0 0 0 -0.163,-0.163 3.27103,3.27103 0 0 0 -0.164,-0.391 3.27103,3.27103 0 0 0 0.272,-3.575 3.27103,3.27103 0 0 0 -0.141,-0.217 3.27103,3.27103 0 0 0 2.283,-0.33 3.27103,3.27103 0 0 0 1.688,-2.689 z m -77.647,0.714 a 3.27103,3.27103 0 0 0 0.175,0.26 3.27103,3.27103 0 0 0 0.765,0.698 3.27103,3.27103 0 0 0 -0.714,1.64 3.27103,3.27103 0 0 0 -0.826,-1.088 3.27102,3.27102 0 0 0 0.6,-1.51 z m -50.733,0.677 a 3.27103,3.27103 0 0 0 -1.336,0.391 3.27103,3.27103 0 0 0 -1.308,4.439 3.27103,3.27103 0 0 0 4.439,1.305 3.27103,3.27103 0 0 0 1.307,-4.436 3.27103,3.27103 0 0 0 -3.102,-1.699 z m 150.958,0 a 3.27103,3.27103 0 0 0 -2.635,1.699 3.27103,3.27103 0 0 0 1.307,4.436 3.27103,3.27103 0 0 0 4.436,-1.307 3.27103,3.27103 0 0 0 -1.307,-4.437 3.27103,3.27103 0 0 0 -1.801,-0.391 z m -138.981,1.874 a 3.27102,3.27102 0 0 0 -3.272,3.272 3.27102,3.27102 0 0 0 3.272,3.27 3.27102,3.27102 0 0 0 3.272,-3.27 3.27102,3.27102 0 0 0 -3.272,-3.272 z m 38.725,3.283 a 3.27103,3.27103 0 0 0 0.283,0.604 3.27102,3.27102 0 0 0 -0.802,0.82 3.27103,3.27103 0 0 0 -0.389,-0.534 3.27103,3.27103 0 0 0 0.908,-0.89 z m -58.002,2.553 a 3.27103,3.27103 0 0 0 -2.177,0.697 3.27103,3.27103 0 0 0 -0.55,4.592 3.27103,3.27103 0 0 0 4.593,0.552 3.27103,3.27103 0 0 0 0.549,-4.595 3.27103,3.27103 0 0 0 -2.415,-1.246 z m 14.551,0.849 a 3.27103,3.27103 0 0 0 -1.336,0.391 3.27103,3.27103 0 0 0 -1.306,4.438 3.27103,3.27103 0 0 0 4.437,1.305 3.27103,3.27103 0 0 0 1.307,-4.436 3.27103,3.27103 0 0 0 -3.102,-1.698 z m 136.455,0 a 3.27103,3.27103 0 0 0 -2.634,1.696 3.27103,3.27103 0 0 0 0.865,4.144 3.27102,3.27102 0 0 0 2.997,1.969 3.27102,3.27102 0 0 0 0.385,-0.03 3.27103,3.27103 0 0 0 1.466,1.652 3.27103,3.27103 0 0 0 3.77,-0.466 3.27103,3.27103 0 0 0 2.71,1.541 3.27103,3.27103 0 0 0 3.335,-3.204 3.27103,3.27103 0 0 0 -3.203,-3.338 3.27103,3.27103 0 0 0 -2.273,0.864 3.27103,3.27103 0 0 0 -1.208,-1.141 3.27103,3.27103 0 0 0 -1.945,-0.369 3.27102,3.27102 0 0 0 -1.026,-1.362 3.27103,3.27103 0 0 0 -1.437,-1.571 3.27103,3.27103 0 0 0 -1.802,-0.389 z m -25.473,0.85 a 3.27103,3.27103 0 0 0 0.119,0.06 3.27103,3.27103 0 0 0 0.508,0.545 3.27103,3.27103 0 0 0 -0.101,0.03 3.27102,3.27102 0 0 0 -0.558,-0.562 3.27104,3.27104 0 0 0 0.03,-0.08 z m -6.699,0.569 a 3.27103,3.27103 0 0 0 0.01,0.03 3.27102,3.27102 0 0 0 -0.05,0 3.27103,3.27103 0 0 0 0.03,-0.03 z m -2.499,0.817 a 3.27103,3.27103 0 0 0 0.637,0 3.27102,3.27102 0 0 0 -0.637,0.767 z m -111.009,1.732 a 3.27103,3.27103 0 0 0 -3.203,3.338 3.27103,3.27103 0 0 0 3.335,3.203 3.27103,3.27103 0 0 0 3.206,-3.335 3.27103,3.27103 0 0 0 -3.338,-3.206 z m 44.476,1.841 a 3.27103,3.27103 0 0 0 0.663,0.431 3.27102,3.27102 0 0 0 0.378,0.378 3.27102,3.27102 0 0 0 0.01,0.02 3.27103,3.27103 0 0 0 -0.537,0.714 3.27103,3.27103 0 0 0 -0.298,0.765 3.27103,3.27103 0 0 0 -1.51,-1.016 3.27102,3.27102 0 0 0 1.29,-1.289 z m 10.024,0.684 a 3.27103,3.27103 0 0 0 -0.09,0.395 3.27103,3.27103 0 0 0 -0.191,-0.182 3.27104,3.27104 0 0 0 0.281,-0.213 z m 119.765,0.02 a 3.27104,3.27104 0 0 0 -3.305,2.727 3.27104,3.27104 0 0 0 2.681,3.771 3.27104,3.27104 0 0 0 3.769,-2.681 3.27104,3.27104 0 0 0 -2.679,-3.77 3.27104,3.27104 0 0 0 -0.466,-0.05 z m -55.159,0.102 a 3.27103,3.27103 0 0 0 2.973,1.23 3.27102,3.27102 0 0 0 -1.198,2.525 3.27102,3.27102 0 0 0 0.521,1.767 3.27102,3.27102 0 0 0 0.09,0.118 3.27103,3.27103 0 0 0 -1.469,1 3.27103,3.27103 0 0 0 -0.03,-0.521 3.27103,3.27103 0 0 0 0.358,-0.516 3.27103,3.27103 0 0 0 -1.307,-4.439 3.27103,3.27103 0 0 0 -1.204,-0.371 3.27102,3.27102 0 0 0 0.672,-0.672 3.27102,3.27102 0 0 0 0.606,-0.121 z m 5.087,0.09 a 3.27103,3.27103 0 0 0 0.134,0.405 3.27102,3.27102 0 0 0 -0.02,0 3.27102,3.27102 0 0 0 -0.156,0 3.27102,3.27102 0 0 0 -0.387,0.02 3.27103,3.27103 0 0 0 0.427,-0.424 z m -113.191,5.226 a 3.27102,3.27102 0 0 0 -3.25,2.793 3.27102,3.27102 0 0 0 2.756,3.715 3.27102,3.27102 0 0 0 3.715,-2.757 3.27102,3.27102 0 0 0 -2.755,-3.716 3.27102,3.27102 0 0 0 -0.466,-0.03 z m 12.76,0.718 a 3.27102,3.27102 0 0 0 -2.771,2.771 3.27102,3.27102 0 0 0 -1.261,0.965 3.27103,3.27103 0 0 0 -1.806,-0.503 3.27103,3.27103 0 0 0 -2.296,1.017 3.27103,3.27103 0 0 0 -1.55,0.391 3.27103,3.27103 0 0 0 -1.307,4.436 3.27103,3.27103 0 0 0 1.874,1.543 3.27103,3.27103 0 0 0 0.33,2.226 3.27103,3.27103 0 0 0 4.436,1.305 3.27103,3.27103 0 0 0 1.308,-4.436 3.27103,3.27103 0 0 0 -0.572,-0.756 3.27103,3.27103 0 0 0 0.4,-0.42 3.27102,3.27102 0 0 0 1.736,0.501 3.27102,3.27102 0 0 0 0.404,-0.03 3.27102,3.27102 0 0 0 1.833,1.832 3.27102,3.27102 0 0 0 3.272,-3.271 3.27102,3.27102 0 0 0 -2.272,-2.272 3.27102,3.27102 0 0 0 -0.09,-0.424 3.27102,3.27102 0 0 0 1.605,-1.604 3.27102,3.27102 0 0 0 -3.27,-3.272 z m -21.553,0.227 a 3.27102,3.27102 0 0 0 -3.27,3.269 3.27102,3.27102 0 0 0 3.27,3.272 3.27102,3.27102 0 0 0 3.272,-3.272 3.27102,3.27102 0 0 0 -3.272,-3.269 z m 131.775,0.441 a 3.27103,3.27103 0 0 0 0.02,0.02 3.27102,3.27102 0 0 0 -0.01,0.02 3.27103,3.27103 0 0 0 0,-0.04 z m -99.187,2.613 a 3.27102,3.27102 0 0 0 0.09,0.231 3.27103,3.27103 0 0 0 -0.02,0.349 3.27103,3.27103 0 0 0 0.563,1.769 3.27103,3.27103 0 0 0 -0.02,0.103 3.27103,3.27103 0 0 0 0,0.358 3.27102,3.27102 0 0 0 -0.36,-0.358 3.27102,3.27102 0 0 0 0.189,-0.189 3.27102,3.27102 0 0 0 -0.972,-0.971 3.27103,3.27103 0 0 0 0.528,-1.292 z m 14.511,0.782 a 3.27103,3.27103 0 0 0 1.281,1.176 3.27102,3.27102 0 0 0 -0.565,0.505 3.27103,3.27103 0 0 0 -0.134,-0.279 3.27103,3.27103 0 0 0 -0.749,-0.912 3.27102,3.27102 0 0 0 0.167,-0.49 z m 121.575,2.942 a 3.27103,3.27103 0 0 0 -2.874,1.853 3.27102,3.27102 0 0 0 -2.972,2.973 3.27102,3.27102 0 0 0 3.271,3.269 3.27102,3.27102 0 0 0 1.697,-1.696 3.27103,3.27103 0 0 0 1.01,0.143 3.27103,3.27103 0 0 0 3.204,-3.338 3.27103,3.27103 0 0 0 -3.336,-3.204 z m -164.506,0.796 a 3.27102,3.27102 0 0 0 -3.272,3.271 3.27102,3.27102 0 0 0 3.272,3.272 3.27102,3.27102 0 0 0 1.402,-0.32 3.27102,3.27102 0 0 0 2.006,0.698 3.27102,3.27102 0 0 0 3.272,-3.271 3.27102,3.27102 0 0 0 -3.272,-3.272 3.27102,3.27102 0 0 0 -1.395,0.316 3.27102,3.27102 0 0 0 -0.115,-0.09 3.27102,3.27102 0 0 0 -1.898,-0.606 z m -19.316,0.758 a 3.27102,3.27102 0 0 0 -3.272,3.272 3.27102,3.27102 0 0 0 3.272,3.269 3.27102,3.27102 0 0 0 3.271,-3.269 3.27102,3.27102 0 0 0 -3.271,-3.272 z m 123.948,1.068 a 3.27102,3.27102 0 0 0 1.187,0.424 3.27103,3.27103 0 0 0 2.737,1.393 3.27103,3.27103 0 0 0 0.961,-0.168 3.27103,3.27103 0 0 0 0.598,0.745 3.27103,3.27103 0 0 0 1.636,2.215 3.27103,3.27103 0 0 0 0.159,0.07 3.27103,3.27103 0 0 0 -0.657,0.832 3.27103,3.27103 0 0 0 1.307,4.436 3.27103,3.27103 0 0 0 4.155,-0.876 3.27103,3.27103 0 0 0 1.272,0.59 3.27102,3.27102 0 0 0 -0.07,0.645 3.27102,3.27102 0 0 0 0.538,1.797 3.27102,3.27102 0 0 0 -0.716,0.716 3.27103,3.27103 0 0 0 -3.105,-2.076 3.27103,3.27103 0 0 0 -1.106,0.226 3.27103,3.27103 0 0 0 -1.847,-1.345 3.27103,3.27103 0 0 0 -2.806,-2.087 3.27103,3.27103 0 0 0 0.452,-0.622 3.27103,3.27103 0 0 0 -1.307,-4.438 3.27103,3.27103 0 0 0 -3.384,0.164 z m 45.708,1.698 a 3.27103,3.27103 0 0 0 -3.204,3.338 3.27103,3.27103 0 0 0 3.336,3.204 3.27103,3.27103 0 0 0 3.204,-3.336 3.27103,3.27103 0 0 0 -3.336,-3.206 z m -158.063,0 a 3.27103,3.27103 0 0 0 -3.336,3.204 3.27103,3.27103 0 0 0 3.204,3.338 3.27103,3.27103 0 0 0 3.335,-3.207 3.27103,3.27103 0 0 0 -3.203,-3.335 z m 25.108,1.929 a 3.27102,3.27102 0 0 0 -3.272,3.272 3.27102,3.27102 0 0 0 3.272,3.27 3.27102,3.27102 0 0 0 3.269,-3.27 3.27102,3.27102 0 0 0 -3.269,-3.272 z m 34.117,0.969 a 3.27102,3.27102 0 0 0 0.01,0.06 v 1.209 a 3.27102,3.27102 0 0 0 -0.286,0.285 3.27102,3.27102 0 0 0 0.01,0 3.27102,3.27102 0 0 0 -0.08,-0.02 3.27102,3.27102 0 0 0 -0.178,-0.178 3.27102,3.27102 0 0 0 -0.327,-0.33 3.27103,3.27103 0 0 0 0.848,-1.027 z m 125.212,0.343 a 3.27103,3.27103 0 0 0 -2.177,0.696 3.27103,3.27103 0 0 0 -0.549,4.593 3.27103,3.27103 0 0 0 4.592,0.55 3.27103,3.27103 0 0 0 0.549,-4.593 3.27103,3.27103 0 0 0 -2.415,-1.246 z m -19.606,0.684 a 3.27103,3.27103 0 0 0 -2.178,0.694 3.27103,3.27103 0 0 0 -0.549,4.595 3.27103,3.27103 0 0 0 4.595,0.549 3.27103,3.27103 0 0 0 0.549,-4.593 3.27103,3.27103 0 0 0 -2.417,-1.245 z m -117.366,0.125 a 3.27102,3.27102 0 0 0 0.462,0.08 3.27103,3.27103 0 0 0 0.08,0.986 3.27103,3.27103 0 0 0 -0.595,-0.25 3.27102,3.27102 0 0 0 0.06,-0.576 3.27102,3.27102 0 0 0 -0.01,-0.239 z m -37.929,1.966 a 3.27103,3.27103 0 0 0 -1.334,0.392 3.27103,3.27103 0 0 0 -1.307,4.438 3.27103,3.27103 0 0 0 4.438,1.305 3.27103,3.27103 0 0 0 1.305,-4.436 3.27103,3.27103 0 0 0 -3.102,-1.699 z m 44.442,0.06 a 3.27102,3.27102 0 0 0 0.947,0.947 3.27102,3.27102 0 0 0 -0.03,0.14 3.27103,3.27103 0 0 0 0.202,2.193 3.27103,3.27103 0 0 0 -0.389,-0.138 3.27103,3.27103 0 0 0 -1.263,-2.485 3.27103,3.27103 0 0 0 0.531,-0.657 z m 58.377,0.294 a 3.27103,3.27103 0 0 0 0.253,0.162 3.27103,3.27103 0 0 0 0.391,0.178 3.27102,3.27102 0 0 0 0.615,0.615 3.27103,3.27103 0 0 0 -0.529,1.844 3.27103,3.27103 0 0 0 0.03,0.409 3.27103,3.27103 0 0 0 -0.767,0.679 z m -125.464,0.714 a 3.27102,3.27102 0 0 0 -3.27,3.271 3.27102,3.27102 0 0 0 3.27,3.271 3.27102,3.27102 0 0 0 3.271,-3.271 3.27102,3.27102 0 0 0 -3.271,-3.271 z m 184.276,0 a 3.27102,3.27102 0 0 0 -3.269,3.271 3.27102,3.27102 0 0 0 3.269,3.271 3.27102,3.27102 0 0 0 3.273,-3.271 3.27102,3.27102 0 0 0 -3.273,-3.271 z m -151.579,0.732 a 3.27103,3.27103 0 0 0 -3.203,3.336 3.27103,3.27103 0 0 0 3.335,3.205 3.27103,3.27103 0 0 0 3.206,-3.336 3.27103,3.27103 0 0 0 -3.338,-3.205 z m -46.169,1.72 a 3.27104,3.27104 0 0 0 -3.305,2.725 3.27104,3.27104 0 0 0 2.681,3.77 3.27104,3.27104 0 0 0 3.768,-2.68 3.27104,3.27104 0 0 0 -2.678,-3.771 3.27104,3.27104 0 0 0 -0.466,-0.05 z m 20.821,0.189 a 3.27103,3.27103 0 0 0 -2.177,0.694 3.27103,3.27103 0 0 0 -0.552,4.595 3.27103,3.27103 0 0 0 4.595,0.549 3.27103,3.27103 0 0 0 0.549,-4.595 3.27103,3.27103 0 0 0 -2.415,-1.243 z m 184.238,0.77 a 3.27103,3.27103 0 0 0 -2.177,0.696 3.27103,3.27103 0 0 0 -0.549,4.592 3.27103,3.27103 0 0 0 4.592,0.549 3.27103,3.27103 0 0 0 0.549,-4.592 3.27103,3.27103 0 0 0 -2.415,-1.245 z m -131.05,0.593 a 3.27103,3.27103 0 0 0 0.08,0.184 3.27103,3.27103 0 0 0 3.103,1.697 3.27103,3.27103 0 0 0 0.158,0.549 3.27103,3.27103 0 0 0 -0.899,-0.146 3.27103,3.27103 0 0 0 -2.975,1.785 3.27102,3.27102 0 0 0 -1.059,1.072 3.27102,3.27102 0 0 0 -0.771,-0.771 3.27102,3.27102 0 0 0 1.65,-2.83 3.27102,3.27102 0 0 0 -0.31,-1.384 3.27103,3.27103 0 0 0 1.02,-0.156 z m 9.912,0.08 a 3.27103,3.27103 0 0 0 1.36,0.01 3.27103,3.27103 0 0 0 0.259,0.632 3.27103,3.27103 0 0 0 0.279,0.422 v 1.714 a 3.27103,3.27103 0 0 0 -1.898,-2.782 z m -17.405,0.678 a 3.27103,3.27103 0 0 0 0.02,0.01 3.27102,3.27102 0 0 0 -0.02,-0.02 z m 0,0.175 a 3.27103,3.27103 0 0 0 0.38,1.874 3.27103,3.27103 0 0 0 0.576,0.761 3.27102,3.27102 0 0 0 0.314,0.342 3.27102,3.27102 0 0 0 -1.569,1.569 3.27102,3.27102 0 0 0 2.006,2.006 3.27103,3.27103 0 0 0 -0.43,0.196 3.27103,3.27103 0 0 0 -0.161,0.101 3.27102,3.27102 0 0 0 -0.01,0 3.27102,3.27102 0 0 0 -0.118,-0.101 3.27102,3.27102 0 0 0 -0.255,-0.18 3.27102,3.27102 0 0 0 -0.132,-0.08 3.27102,3.27102 0 0 0 -0.277,-0.143 3.27102,3.27102 0 0 0 -0.143,-0.07 3.27102,3.27102 0 0 0 -0.294,-0.102 3.27102,3.27102 0 0 0 -0.152,-0.04 3.27102,3.27102 0 0 0 -0.305,-0.06 3.27102,3.27102 0 0 0 -0.154,-0.02 3.27102,3.27102 0 0 0 -0.284,-0.01 3.27103,3.27103 0 0 0 0.04,-0.553 3.27103,3.27103 0 0 0 -1.718,-2.804 3.27102,3.27102 0 0 0 2.687,-2.687 z m -6.22,0.145 a 3.27102,3.27102 0 0 0 2.153,2.156 3.27103,3.27103 0 0 0 -0.237,-0.01 3.27103,3.27103 0 0 0 -2.633,1.431 3.27103,3.27103 0 0 0 -0.654,-0.02 3.27103,3.27103 0 0 0 -0.35,0.06 3.27102,3.27102 0 0 0 -0.444,-0.445 3.27102,3.27102 0 0 0 0.255,-0.09 3.27102,3.27102 0 0 0 1.912,-2.976 3.27102,3.27102 0 0 0 0,-0.08 z m 91.789,1.246 a 3.27102,3.27102 0 0 0 0.824,0.824 3.27102,3.27102 0 0 0 -1.206,1.496 3.27103,3.27103 0 0 0 -0.04,0 3.27103,3.27103 0 0 0 -0.73,-0.765 3.27103,3.27103 0 0 0 1.165,-1.558 z m -5.684,0.877 a 3.27103,3.27103 0 0 0 0.641,0.641 3.27103,3.27103 0 0 0 -0.911,1.002 3.27103,3.27103 0 0 0 -1.291,-0.384 3.27102,3.27102 0 0 0 -0.03,-0.113 3.27103,3.27103 0 0 0 1.599,-1.146 z m -7.465,0.114 a 3.27103,3.27103 0 0 0 0.183,0.211 3.27102,3.27102 0 0 0 -0.183,0.266 z m -53.117,0 v 0.788 a 3.27103,3.27103 0 0 0 -0.18,0.06 3.27103,3.27103 0 0 0 0.18,-0.84 z m -44.91,2.132 a 3.27103,3.27103 0 0 0 -1.334,0.388 3.27103,3.27103 0 0 0 -1.307,4.439 3.27103,3.27103 0 0 0 4.438,1.307 3.27103,3.27103 0 0 0 1.306,-4.439 3.27103,3.27103 0 0 0 -3.103,-1.695 z m -10.773,0.392 a 3.27102,3.27102 0 0 0 -3.27,3.272 3.27102,3.27102 0 0 0 0.161,0.998 3.27102,3.27102 0 0 0 -2.433,3.155 3.27102,3.27102 0 0 0 3.27,3.272 3.27102,3.27102 0 0 0 0.466,-0.03 3.27102,3.27102 0 0 0 2.805,-3.237 3.27102,3.27102 0 0 0 0,-0.156 3.27102,3.27102 0 0 0 -0.03,-0.309 3.27102,3.27102 0 0 0 -0.03,-0.155 3.27102,3.27102 0 0 0 -0.07,-0.301 3.27102,3.27102 0 0 0 -0.02,-0.08 3.27102,3.27102 0 0 0 2.428,-3.155 3.27102,3.27102 0 0 0 -3.272,-3.272 z m 41.865,0.398 a 3.27102,3.27102 0 0 0 -0.06,0.6 3.27102,3.27102 0 0 0 0.504,1.738 3.27103,3.27103 0 0 0 -0.224,0.387 3.27103,3.27103 0 0 0 -1.543,-1.398 3.27102,3.27102 0 0 0 1.327,-1.327 z m 85.89,0.455 a 3.27103,3.27103 0 0 0 0.511,1.573 3.27102,3.27102 0 0 0 -1.76,2.892 3.27102,3.27102 0 0 0 0.01,0.162 3.27102,3.27102 0 0 0 -0.807,0.809 3.27102,3.27102 0 0 0 0.357,0.355 3.27103,3.27103 0 0 0 -0.491,0.143 3.27103,3.27103 0 0 0 0,-0.127 3.27103,3.27103 0 0 0 -1.19,-2.458 3.27103,3.27103 0 0 0 0.42,-0.592 3.27103,3.27103 0 0 0 0.164,-0.348 3.27102,3.27102 0 0 0 0.09,0 3.27102,3.27102 0 0 0 2.692,-2.402 z m -18.955,0.475 a 3.27102,3.27102 0 0 0 2.527,1.562 3.27103,3.27103 0 0 0 1.022,1.501 3.27102,3.27102 0 0 0 -0.02,0.01 3.27102,3.27102 0 0 0 0.277,0.277 3.27103,3.27103 0 0 0 -0.634,0.558 3.27102,3.27102 0 0 0 -3.255,-2.97 3.27102,3.27102 0 0 0 -3.272,3.272 3.27102,3.27102 0 0 0 1.881,2.957 3.27103,3.27103 0 0 0 -0.232,0.295 3.27103,3.27103 0 0 0 -2.46,-1.191 3.27103,3.27103 0 0 0 -1.086,0.168 3.27102,3.27102 0 0 0 -3.232,-3.23 3.27102,3.27102 0 0 0 -3.271,3.271 3.27102,3.27102 0 0 0 1.773,1.773 3.27103,3.27103 0 0 0 -0.57,0.39 3.27102,3.27102 0 0 0 -3.209,-2.638 3.27102,3.27102 0 0 0 -0.601,0.06 3.27103,3.27103 0 0 0 -0.05,-0.567 3.27102,3.27102 0 0 0 2.554,-3.183 3.27102,3.27102 0 0 0 -0.226,-1.2 3.27103,3.27103 0 0 0 0.256,-0.62 h 11.822 z m -29.99,0.5 h 0.283 a 3.27103,3.27103 0 0 0 1.558,1.927 3.27103,3.27103 0 0 0 3.736,-0.435 3.27102,3.27102 0 0 0 0.267,1.009 3.27103,3.27103 0 0 0 -0.735,-0.08 3.27103,3.27103 0 0 0 -2.749,1.606 3.27103,3.27103 0 0 0 -0.802,-1.008 3.27103,3.27103 0 0 0 -1.293,-1.63 3.27103,3.27103 0 0 0 -0.265,-1.392 z m -98.72,2.712 a 3.27103,3.27103 0 0 0 -3.204,3.335 3.27103,3.27103 0 0 0 3.336,3.207 3.27103,3.27103 0 0 0 3.204,-3.338 3.27103,3.27103 0 0 0 -3.336,-3.204 z m 190.773,0 a 3.27103,3.27103 0 0 0 -3.336,3.204 3.27103,3.27103 0 0 0 3.204,3.338 3.27103,3.27103 0 0 0 3.336,-3.207 3.27103,3.27103 0 0 0 -3.204,-3.335 z m -104.009,0.448 a 3.27103,3.27103 0 0 0 0.213,0.259 3.27103,3.27103 0 0 0 -0.476,0.07 3.27103,3.27103 0 0 0 0.263,-0.33 z m 70.793,0.471 a 3.27103,3.27103 0 0 0 0.02,0.485 3.27103,3.27103 0 0 0 -0.134,-0.08 3.27103,3.27103 0 0 0 -0.318,-0.145 3.27102,3.27102 0 0 0 0.05,-0.136 3.27103,3.27103 0 0 0 0.385,-0.121 z m -95.488,0.696 a 3.27103,3.27103 0 0 0 2.916,1.681 3.27103,3.27103 0 0 0 2.395,-1.116 3.27103,3.27103 0 0 0 0.349,1.042 3.27103,3.27103 0 0 0 1.125,1.19 3.27103,3.27103 0 0 0 -0.795,0.705 3.27102,3.27102 0 0 0 -2.523,-1.188 3.27102,3.27102 0 0 0 -1.678,0.468 3.27103,3.27103 0 0 0 -2.835,-1.539 3.27103,3.27103 0 0 0 -0.03,0 3.27103,3.27103 0 0 0 1.074,-1.245 z m -4.766,1.259 a 3.27103,3.27103 0 0 0 1.934,0.56 3.27103,3.27103 0 0 0 -1.411,2.591 3.27102,3.27102 0 0 0 -1.072,-1.261 3.27103,3.27103 0 0 0 0.549,-1.879 3.27103,3.27103 0 0 0 0,-0.01 z m 73.789,0.281 a 3.27103,3.27103 0 0 0 0,0.02 3.27103,3.27103 0 0 0 -0.02,0 3.27102,3.27102 0 0 0 0.01,-0.01 z m 36.458,0.708 a 3.27103,3.27103 0 0 0 -3.204,3.336 3.27103,3.27103 0 0 0 3.336,3.202 3.27103,3.27103 0 0 0 3.205,-3.334 3.27103,3.27103 0 0 0 -3.337,-3.204 z m 9.982,0.263 a 3.27103,3.27103 0 0 0 -3.204,3.336 3.27103,3.27103 0 0 0 3.336,3.204 3.27103,3.27103 0 0 0 3.205,-3.336 3.27103,3.27103 0 0 0 -3.337,-3.204 z m -70.64,0.168 a 3.27103,3.27103 0 0 0 0.883,1.079 3.27103,3.27103 0 0 0 -0.112,1.432 3.27103,3.27103 0 0 0 -1.407,-1.566 3.27103,3.27103 0 0 0 0.631,-0.945 z m -34.362,0 a 3.27103,3.27103 0 0 0 0.873,0.657 3.27102,3.27102 0 0 0 -0.218,0.217 3.27103,3.27103 0 0 0 -0.833,-0.754 3.27103,3.27103 0 0 0 0.178,-0.12 z" />
    <text
       xml:space="preserve"
       style="color:#000000;font-style:normal;font-variant:normal;font-weight:normal;font-stretch:normal;font-size:22.5003px;line-height:100%;font-family:'Trebuchet MS';-inkscape-font-specification:'Trebuchet MS';text-indent:0;text-align:start;text-decoration:none;text-decoration-line:none;text-decoration-style:solid;text-decoration-color:#000000;letter-spacing:0px;word-spacing:0px;text-transform:none;writing-mode:lr-tb;direction:ltr;baseline-shift:baseline;text-anchor:start;white-space:normal;clip-rule:nonzero;display:inline;overflow:visible;visibility:visible;opacity:1;isolation:auto;mix-blend-mode:normal;color-interpolation:sRGB;color-interpolation-filters:linearRGB;solid-color:#000000;solid-opacity:1;fill:#4e9a06;fill-opacity:1;fill-rule:nonzero;stroke:none;stroke-width:1.2px;stroke-linecap:butt;stroke-linejoin:miter;stroke-miterlimit:4;stroke-dasharray:none;stroke-dashoffset:0;stroke-opacity:1;marker:none;marker-start:none;marker-mid:none;marker-end:none;color-rendering:auto;image-rendering:auto;shape-rendering:auto;text-rendering:auto;enable-background:accumulate"
       x="260.085"
       y="499.306"
       id="text5107"><tspan
         sodipodi:role="line"
         id="tspan5109"
         x="260.085"
         y="499.306"
         style="font-size:22.5003px;stroke-width:1.2px">84.9</tspan></text>
    <text
       xml:space="preserve"
       style="color:#000000;font-style:normal;font-variant:normal;font-weight:normal;font-stretch:normal;font-size:22.5003px;line-height:100%;font-family:'Trebuchet MS';-inkscape-font-specification:'Trebuchet MS';text-indent:0;text-align:start;text-decoration:none;text-decoration-line:none;letter-spacing:0px;word-spacing:0px;text-transform:none;writing-mode:lr-tb;direction:ltr;baseline-shift:baseline;text-anchor:start;display:inline;overflow:visible;visibility:visible;fill:#3465a4;fill-opacity:1;fill-rule:nonzero;stroke:none;stroke-width:1.2px;stroke-linecap:butt;stroke-linejoin:miter;stroke-opacity:1;marker:none;marker-start:none;marker-mid:none;marker-end:none;enable-background:accumulate"
       x="249.27"
       y="674.641"
       id="text5111"><tspan
         sodipodi:role="line"
         id="tspan5113"
         x="249.27"
         y="674.641"
         style="font-size:22.5003px;stroke-width:1.2px">86  1.79</tspan></text>
    <path
       style="fill:none;fill-rule:evenodd;stroke:#19aeff;stroke-width:2.87999;stroke-linecap:butt;stroke-linejoin:miter;stroke-miterlimit:4;stroke-dasharray:none;stroke-opacity:1;marker-end:url(#marker98694830)"
       d="M 166.021,623.747 H 400.27"
       id="path4902"
       inkscape:connector-curvature="0" />
    <g
       id="g5511"
       transform="matrix(1.45398,0,0,1.45398,-93.9668,-278.019)"
       style="fill:#3465a4;stroke-width:0.825318">
      <path
         inkscape:connector-curvature="0"
         d="m 253.419,630.537 c 0.05,0.234 0.111,0.466 0.169,0.699 0.08,0.328 0.182,0.652 0.269,0.979 0.08,0.31 0.172,0.618 0.308,0.909 0.138,0.262 0.317,0.5 0.516,0.719 0.212,0.237 0.483,0.403 0.742,0.582 0.354,0.198 0.736,0.337 1.117,0.475 0.441,0.174 0.9,0.273 1.366,0.353 0.462,0.05 0.928,0.09 1.393,0.1 0.486,0.01 0.972,0.02 1.458,0 0.457,-0.05 0.917,-0.06 1.373,-0.104 0.524,-0.1 1.054,-0.09 1.585,-0.09 0.501,0.01 0.989,0.114 1.465,0.268 0.422,0.14 0.804,0.367 1.167,0.621 0.32,0.23 0.589,0.517 0.834,0.825 0.24,0.3 0.402,0.644 0.535,1.002 0.124,0.337 0.195,0.689 0.246,1.044 0.03,0.236 0.02,0.126 0.03,0.332 0,0 -2.552,0.684 -2.552,0.684 v 0 c -0.02,-0.197 -0.01,-0.106 -0.02,-0.275 -0.02,-0.244 -0.05,-0.49 -0.129,-0.723 -0.06,-0.193 -0.131,-0.379 -0.269,-0.533 -0.148,-0.176 -0.315,-0.336 -0.514,-0.454 -0.24,-0.141 -0.494,-0.254 -0.77,-0.306 -0.359,-0.06 -0.723,-0.09 -1.088,-0.06 -0.498,0.02 -0.99,0.1 -1.487,0.128 -0.489,0.03 -0.977,0.07 -1.467,0.06 -0.517,0 -1.034,-0.02 -1.55,-0.04 -0.537,-0.04 -1.077,-0.09 -1.603,-0.209 -0.541,-0.125 -1.07,-0.293 -1.586,-0.5 -0.491,-0.2 -0.977,-0.417 -1.409,-0.728 -0.361,-0.258 -0.708,-0.535 -0.995,-0.875 -0.283,-0.337 -0.544,-0.694 -0.745,-1.086 -0.18,-0.379 -0.32,-0.775 -0.428,-1.181 -0.09,-0.335 -0.184,-0.666 -0.276,-1 -0.06,-0.248 -0.124,-0.494 -0.185,-0.741 0,0 2.494,-0.871 2.494,-0.871 z"
         id="path5507"
         style="color:#000000;clip-rule:nonzero;display:inline;overflow:visible;visibility:visible;opacity:1;isolation:auto;mix-blend-mode:normal;color-interpolation:sRGB;color-interpolation-filters:linearRGB;solid-color:#000000;solid-opacity:1;fill:#3465a4;fill-opacity:1;fill-rule:nonzero;stroke:none;stroke-width:1.65064;stroke-linecap:butt;stroke-linejoin:round;stroke-miterlimit:4;stroke-dasharray:none;stroke-dashoffset:0;stroke-opacity:1;marker:none;marker-start:none;marker-mid:none;marker-end:none;color-rendering:auto;image-rendering:auto;shape-rendering:auto;text-rendering:auto;enable-background:accumulate" />
      <path
         style="color:#000000;clip-rule:nonzero;display:inline;overflow:visible;visibility:visible;opacity:1;isolation:auto;mix-blend-mode:normal;color-interpolation:sRGB;color-interpolation-filters:linearRGB;solid-color:#000000;solid-opacity:1;fill:#3465a4;fill-opacity:1;fill-rule:nonzero;stroke:none;stroke-width:1.65064;stroke-linecap:butt;stroke-linejoin:round;stroke-miterlimit:4;stroke-dasharray:none;stroke-dashoffset:0;stroke-opacity:1;marker:none;marker-start:none;marker-mid:none;marker-end:none;color-rendering:auto;image-rendering:auto;shape-rendering:auto;text-rendering:auto;enable-background:accumulate"
         id="path5509"
         d="m 279.501,630.537 c -0.05,0.234 -0.111,0.466 -0.169,0.699 -0.08,0.328 -0.182,0.652 -0.269,0.979 -0.08,0.31 -0.172,0.618 -0.308,0.909 -0.138,0.262 -0.317,0.5 -0.516,0.719 -0.212,0.237 -0.483,0.403 -0.742,0.582 -0.354,0.198 -0.736,0.337 -1.117,0.475 -0.441,0.174 -0.9,0.273 -1.366,0.353 -0.462,0.05 -0.928,0.09 -1.393,0.1 -0.486,0.01 -0.972,0.02 -1.458,0 -0.457,-0.05 -0.916,-0.06 -1.373,-0.104 -0.524,-0.1 -1.054,-0.09 -1.584,-0.09 -0.502,0.01 -0.99,0.114 -1.465,0.268 -0.423,0.14 -0.805,0.367 -1.168,0.621 -0.32,0.23 -0.589,0.517 -0.834,0.825 -0.24,0.3 -0.402,0.644 -0.535,1.002 -0.124,0.337 -0.195,0.689 -0.245,1.044 -0.03,0.236 -0.02,0.126 -0.03,0.332 0,0 2.552,0.684 2.552,0.684 v 0 c 0.02,-0.197 0.01,-0.106 0.02,-0.275 0.03,-0.244 0.05,-0.49 0.129,-0.723 0.06,-0.193 0.131,-0.379 0.269,-0.533 0.148,-0.176 0.315,-0.336 0.514,-0.454 0.24,-0.141 0.494,-0.254 0.77,-0.306 0.359,-0.06 0.723,-0.09 1.088,-0.06 0.498,0.02 0.99,0.1 1.487,0.128 0.489,0.03 0.977,0.07 1.467,0.06 0.517,0 1.034,-0.02 1.55,-0.04 0.537,-0.04 1.077,-0.09 1.603,-0.209 0.541,-0.125 1.07,-0.293 1.586,-0.5 0.491,-0.2 0.977,-0.417 1.409,-0.728 0.361,-0.258 0.708,-0.535 0.995,-0.875 0.283,-0.337 0.544,-0.694 0.745,-1.086 0.18,-0.379 0.321,-0.775 0.428,-1.181 0.09,-0.335 0.184,-0.666 0.276,-1 0.06,-0.248 0.124,-0.494 0.185,-0.741 0,0 -2.494,-0.871 -2.494,-0.871 z"
         inkscape:connector-curvature="0" />
    </g>
    <g
       id="g5656"
       transform="matrix(1.45398,0,0,1.45398,43.2817,-388.456)"
       style="stroke-width:0.825318">
      <circle
         transform="scale(-1,1)"
         r="2.2497"
         cy="687.722"
         cx="-184.191"
         id="circle7574"
         style="color:#000000;clip-rule:nonzero;display:inline;overflow:visible;visibility:visible;opacity:1;isolation:auto;mix-blend-mode:normal;color-interpolation:sRGB;color-interpolation-filters:linearRGB;solid-color:#000000;solid-opacity:1;fill:#3465a4;fill-opacity:1;fill-rule:nonzero;stroke:none;stroke-width:2.06329;stroke-linecap:butt;stroke-linejoin:round;stroke-miterlimit:4;stroke-dasharray:none;stroke-dashoffset:0;stroke-opacity:1;marker:none;marker-start:none;marker-mid:none;marker-end:none;color-rendering:auto;image-rendering:auto;shape-rendering:auto;text-rendering:auto;enable-background:accumulate" />
      <circle
         transform="scale(-1,1)"
         r="2.2497"
         cy="672.809"
         cx="-191.078"
         id="circle7598"
         style="color:#000000;clip-rule:nonzero;display:inline;overflow:visible;visibility:visible;opacity:1;isolation:auto;mix-blend-mode:normal;color-interpolation:sRGB;color-interpolation-filters:linearRGB;solid-color:#000000;solid-opacity:1;fill:#3465a4;fill-opacity:1;fill-rule:nonzero;stroke:none;stroke-width:2.06329;stroke-linecap:butt;stroke-linejoin:round;stroke-miterlimit:4;stroke-dasharray:none;stroke-dashoffset:0;stroke-opacity:1;marker:none;marker-start:none;marker-mid:none;marker-end:none;color-rendering:auto;image-rendering:auto;shape-rendering:auto;text-rendering:auto;enable-background:accumulate" />
      <circle
         transform="scale(-1,1)"
         r="2.2497"
         cy="660.014"
         cx="-221.159"
         id="circle7600"
         style="color:#000000;clip-rule:nonzero;display:inline;overflow:visible;visibility:visible;opacity:1;isolation:auto;mix-blend-mode:normal;color-interpolation:sRGB;color-interpolation-filters:linearRGB;solid-color:#000000;solid-opacity:1;fill:#3465a4;fill-opacity:1;fill-rule:nonzero;stroke:none;stroke-width:2.06329;stroke-linecap:butt;stroke-linejoin:round;stroke-miterlimit:4;stroke-dasharray:none;stroke-dashoffset:0;stroke-opacity:1;marker:none;marker-start:none;marker-mid:none;marker-end:none;color-rendering:auto;image-rendering:auto;shape-rendering:auto;text-rendering:auto;enable-background:accumulate" />
      <circle
         transform="scale(-1,1)"
         r="2.2497"
         cy="691.109"
         cx="-204.593"
         id="circle7616"
         style="color:#000000;clip-rule:nonzero;display:inline;overflow:visible;visibility:visible;opacity:1;isolation:auto;mix-blend-mode:normal;color-interpolation:sRGB;color-interpolation-filters:linearRGB;solid-color:#000000;solid-opacity:1;fill:#3465a4;fill-opacity:1;fill-rule:nonzero;stroke:none;stroke-width:2.06329;stroke-linecap:butt;stroke-linejoin:round;stroke-miterlimit:4;stroke-dasharray:none;stroke-dashoffset:0;stroke-opacity:1;marker:none;marker-start:none;marker-mid:none;marker-end:none;color-rendering:auto;image-rendering:auto;shape-rendering:auto;text-rendering:auto;enable-background:accumulate" />
      <circle
         transform="scale(-1,1)"
         r="2.2497"
         cy="691.109"
         cx="-193.653"
         id="circle7618"
         style="color:#000000;clip-rule:nonzero;display:inline;overflow:visible;visibility:visible;opacity:1;isolation:auto;mix-blend-mode:normal;color-interpolation:sRGB;color-interpolation-filters:linearRGB;solid-color:#000000;solid-opacity:1;fill:#3465a4;fill-opacity:1;fill-rule:nonzero;stroke:none;stroke-width:2.06329;stroke-linecap:butt;stroke-linejoin:round;stroke-miterlimit:4;stroke-dasharray:none;stroke-dashoffset:0;stroke-opacity:1;marker:none;marker-start:none;marker-mid:none;marker-end:none;color-rendering:auto;image-rendering:auto;shape-rendering:auto;text-rendering:auto;enable-background:accumulate" />
      <circle
         transform="scale(-1,1)"
         r="2.2497"
         cy="679.135"
         cx="-181.931"
         id="circle7656"
         style="color:#000000;clip-rule:nonzero;display:inline;overflow:visible;visibility:visible;opacity:1;isolation:auto;mix-blend-mode:normal;color-interpolation:sRGB;color-interpolation-filters:linearRGB;solid-color:#000000;solid-opacity:1;fill:#3465a4;fill-opacity:1;fill-rule:nonzero;stroke:none;stroke-width:2.06329;stroke-linecap:butt;stroke-linejoin:round;stroke-miterlimit:4;stroke-dasharray:none;stroke-dashoffset:0;stroke-opacity:1;marker:none;marker-start:none;marker-mid:none;marker-end:none;color-rendering:auto;image-rendering:auto;shape-rendering:auto;text-rendering:auto;enable-background:accumulate" />
      <circle
         transform="matrix(-0.878095,0.478486,0.478486,0.878095,0,0)"
         style="color:#000000;clip-rule:nonzero;display:inline;overflow:visible;visibility:visible;opacity:1;isolation:auto;mix-blend-mode:normal;color-interpolation:sRGB;color-interpolation-filters:linearRGB;solid-color:#000000;solid-opacity:1;fill:#3465a4;fill-opacity:1;fill-rule:nonzero;stroke:none;stroke-width:2.06329;stroke-linecap:butt;stroke-linejoin:round;stroke-miterlimit:4;stroke-dasharray:none;stroke-dashoffset:0;stroke-opacity:1;marker:none;marker-start:none;marker-mid:none;marker-end:none;color-rendering:auto;image-rendering:auto;shape-rendering:auto;text-rendering:auto;enable-background:accumulate"
         id="circle7668"
         cx="183.385"
         cy="659.026"
         r="2.2497" />
      <circle
         transform="matrix(-0.878095,0.478486,0.478486,0.878095,0,0)"
         style="color:#000000;clip-rule:nonzero;display:inline;overflow:visible;visibility:visible;opacity:1;isolation:auto;mix-blend-mode:normal;color-interpolation:sRGB;color-interpolation-filters:linearRGB;solid-color:#000000;solid-opacity:1;fill:#3465a4;fill-opacity:1;fill-rule:nonzero;stroke:none;stroke-width:2.06329;stroke-linecap:butt;stroke-linejoin:round;stroke-miterlimit:4;stroke-dasharray:none;stroke-dashoffset:0;stroke-opacity:1;marker:none;marker-start:none;marker-mid:none;marker-end:none;color-rendering:auto;image-rendering:auto;shape-rendering:auto;text-rendering:auto;enable-background:accumulate"
         id="circle7672"
         cx="200.832"
         cy="662.614"
         r="2.2497" />
      <circle
         transform="matrix(-0.878095,0.478486,0.478486,0.878095,0,0)"
         style="color:#000000;clip-rule:nonzero;display:inline;overflow:visible;visibility:visible;opacity:1;isolation:auto;mix-blend-mode:normal;color-interpolation:sRGB;color-interpolation-filters:linearRGB;solid-color:#000000;solid-opacity:1;fill:#3465a4;fill-opacity:1;fill-rule:nonzero;stroke:none;stroke-width:2.06329;stroke-linecap:butt;stroke-linejoin:round;stroke-miterlimit:4;stroke-dasharray:none;stroke-dashoffset:0;stroke-opacity:1;marker:none;marker-start:none;marker-mid:none;marker-end:none;color-rendering:auto;image-rendering:auto;shape-rendering:auto;text-rendering:auto;enable-background:accumulate"
         id="circle7674"
         cx="143.75"
         cy="674.005"
         r="2.2497" />
      <circle
         transform="matrix(-0.878095,0.478486,0.478486,0.878095,0,0)"
         style="color:#000000;clip-rule:nonzero;display:inline;overflow:visible;visibility:visible;opacity:1;isolation:auto;mix-blend-mode:normal;color-interpolation:sRGB;color-interpolation-filters:linearRGB;solid-color:#000000;solid-opacity:1;fill:#3465a4;fill-opacity:1;fill-rule:nonzero;stroke:none;stroke-width:2.06329;stroke-linecap:butt;stroke-linejoin:round;stroke-miterlimit:4;stroke-dasharray:none;stroke-dashoffset:0;stroke-opacity:1;marker:none;marker-start:none;marker-mid:none;marker-end:none;color-rendering:auto;image-rendering:auto;shape-rendering:auto;text-rendering:auto;enable-background:accumulate"
         id="circle7688"
         cx="208.863"
         cy="647.602"
         r="2.2497" />
      <circle
         transform="matrix(-0.878095,0.478486,0.478486,0.878095,0,0)"
         style="color:#000000;clip-rule:nonzero;display:inline;overflow:visible;visibility:visible;opacity:1;isolation:auto;mix-blend-mode:normal;color-interpolation:sRGB;color-interpolation-filters:linearRGB;solid-color:#000000;solid-opacity:1;fill:#3465a4;fill-opacity:1;fill-rule:nonzero;stroke:none;stroke-width:2.06329;stroke-linecap:butt;stroke-linejoin:round;stroke-miterlimit:4;stroke-dasharray:none;stroke-dashoffset:0;stroke-opacity:1;marker:none;marker-start:none;marker-mid:none;marker-end:none;color-rendering:auto;image-rendering:auto;shape-rendering:auto;text-rendering:auto;enable-background:accumulate"
         id="circle7762"
         cx="197.712"
         cy="653.034"
         r="2.2497" />
      <circle
         transform="matrix(-0.878095,0.478486,0.478486,0.878095,0,0)"
         style="color:#000000;clip-rule:nonzero;display:inline;overflow:visible;visibility:visible;opacity:1;isolation:auto;mix-blend-mode:normal;color-interpolation:sRGB;color-interpolation-filters:linearRGB;solid-color:#000000;solid-opacity:1;fill:#3465a4;fill-opacity:1;fill-rule:nonzero;stroke:none;stroke-width:2.06329;stroke-linecap:butt;stroke-linejoin:round;stroke-miterlimit:4;stroke-dasharray:none;stroke-dashoffset:0;stroke-opacity:1;marker:none;marker-start:none;marker-mid:none;marker-end:none;color-rendering:auto;image-rendering:auto;shape-rendering:auto;text-rendering:auto;enable-background:accumulate"
         id="circle7764"
         cx="173.623"
         cy="657.89"
         r="2.2497" />
      <circle
         transform="matrix(-0.878095,0.478486,0.478486,0.878095,0,0)"
         style="color:#000000;clip-rule:nonzero;display:inline;overflow:visible;visibility:visible;opacity:1;isolation:auto;mix-blend-mode:normal;color-interpolation:sRGB;color-interpolation-filters:linearRGB;solid-color:#000000;solid-opacity:1;fill:#3465a4;fill-opacity:1;fill-rule:nonzero;stroke:none;stroke-width:2.06329;stroke-linecap:butt;stroke-linejoin:round;stroke-miterlimit:4;stroke-dasharray:none;stroke-dashoffset:0;stroke-opacity:1;marker:none;marker-start:none;marker-mid:none;marker-end:none;color-rendering:auto;image-rendering:auto;shape-rendering:auto;text-rendering:auto;enable-background:accumulate"
         id="circle7770"
         cx="192.837"
         cy="666.529"
         r="2.2497" />
      <circle
         r="2.2497"
         cy="453.597"
         cx="479.458"
         id="circle7848"
         style="color:#000000;clip-rule:nonzero;display:inline;overflow:visible;visibility:visible;opacity:1;isolation:auto;mix-blend-mode:normal;color-interpolation:sRGB;color-interpolation-filters:linearRGB;solid-color:#000000;solid-opacity:1;fill:#3465a4;fill-opacity:1;fill-rule:nonzero;stroke:none;stroke-width:2.06329;stroke-linecap:butt;stroke-linejoin:round;stroke-miterlimit:4;stroke-dasharray:none;stroke-dashoffset:0;stroke-opacity:1;marker:none;marker-start:none;marker-mid:none;marker-end:none;color-rendering:auto;image-rendering:auto;shape-rendering:auto;text-rendering:auto;enable-background:accumulate"
         transform="matrix(-0.483062,0.875586,0.875586,0.483062,0,0)" />
      <circle
         transform="matrix(-0.020114,0.999798,0.999798,0.020114,0,0)"
         style="color:#000000;clip-rule:nonzero;display:inline;overflow:visible;visibility:visible;opacity:1;isolation:auto;mix-blend-mode:normal;color-interpolation:sRGB;color-interpolation-filters:linearRGB;solid-color:#000000;solid-opacity:1;fill:#3465a4;fill-opacity:1;fill-rule:nonzero;stroke:none;stroke-width:2.06329;stroke-linecap:butt;stroke-linejoin:round;stroke-miterlimit:4;stroke-dasharray:none;stroke-dashoffset:0;stroke-opacity:1;marker:none;marker-start:none;marker-mid:none;marker-end:none;color-rendering:auto;image-rendering:auto;shape-rendering:auto;text-rendering:auto;enable-background:accumulate"
         id="circle7904"
         cx="665.279"
         cy="236.777"
         r="2.2497" />
      <circle
         transform="matrix(-0.020114,0.999798,0.999798,0.020114,0,0)"
         style="color:#000000;clip-rule:nonzero;display:inline;overflow:visible;visibility:visible;opacity:1;isolation:auto;mix-blend-mode:normal;color-interpolation:sRGB;color-interpolation-filters:linearRGB;solid-color:#000000;solid-opacity:1;fill:#3465a4;fill-opacity:1;fill-rule:nonzero;stroke:none;stroke-width:2.06329;stroke-linecap:butt;stroke-linejoin:round;stroke-miterlimit:4;stroke-dasharray:none;stroke-dashoffset:0;stroke-opacity:1;marker:none;marker-start:none;marker-mid:none;marker-end:none;color-rendering:auto;image-rendering:auto;shape-rendering:auto;text-rendering:auto;enable-background:accumulate"
         id="circle7972"
         cx="681.773"
         cy="176.482"
         r="2.2497" />
      <circle
         transform="matrix(-0.020114,0.999798,0.999798,0.020114,0,0)"
         style="color:#000000;clip-rule:nonzero;display:inline;overflow:visible;visibility:visible;opacity:1;isolation:auto;mix-blend-mode:normal;color-interpolation:sRGB;color-interpolation-filters:linearRGB;solid-color:#000000;solid-opacity:1;fill:#3465a4;fill-opacity:1;fill-rule:nonzero;stroke:none;stroke-width:2.06329;stroke-linecap:butt;stroke-linejoin:round;stroke-miterlimit:4;stroke-dasharray:none;stroke-dashoffset:0;stroke-opacity:1;marker:none;marker-start:none;marker-mid:none;marker-end:none;color-rendering:auto;image-rendering:auto;shape-rendering:auto;text-rendering:auto;enable-background:accumulate"
         id="circle7980"
         cx="681.93"
         cy="198.366"
         r="2.2497" />
      <circle
         transform="matrix(-0.986028,0.16658,0.16658,0.986028,0,0)"
         style="color:#000000;clip-rule:nonzero;display:inline;overflow:visible;visibility:visible;opacity:1;isolation:auto;mix-blend-mode:normal;color-interpolation:sRGB;color-interpolation-filters:linearRGB;solid-color:#000000;solid-opacity:1;fill:#3465a4;fill-opacity:1;fill-rule:nonzero;stroke:none;stroke-width:2.06329;stroke-linecap:butt;stroke-linejoin:round;stroke-miterlimit:4;stroke-dasharray:none;stroke-dashoffset:0;stroke-opacity:1;marker:none;marker-start:none;marker-mid:none;marker-end:none;color-rendering:auto;image-rendering:auto;shape-rendering:auto;text-rendering:auto;enable-background:accumulate"
         id="circle8010"
         cx="-81.9906"
         cy="672.666"
         r="2.2497" />
      <circle
         transform="matrix(-0.986028,0.16658,0.16658,0.986028,0,0)"
         style="color:#000000;clip-rule:nonzero;display:inline;overflow:visible;visibility:visible;opacity:1;isolation:auto;mix-blend-mode:normal;color-interpolation:sRGB;color-interpolation-filters:linearRGB;solid-color:#000000;solid-opacity:1;fill:#3465a4;fill-opacity:1;fill-rule:nonzero;stroke:none;stroke-width:2.06329;stroke-linecap:butt;stroke-linejoin:round;stroke-miterlimit:4;stroke-dasharray:none;stroke-dashoffset:0;stroke-opacity:1;marker:none;marker-start:none;marker-mid:none;marker-end:none;color-rendering:auto;image-rendering:auto;shape-rendering:auto;text-rendering:auto;enable-background:accumulate"
         id="circle8026"
         cx="-56.4494"
         cy="684.73"
         r="2.2497" />
      <circle
         r="2.2497"
         cy="598.585"
         cx="279.998"
         id="circle8046"
         style="color:#000000;clip-rule:nonzero;display:inline;overflow:visible;visibility:visible;opacity:1;isolation:auto;mix-blend-mode:normal;color-interpolation:sRGB;color-interpolation-filters:linearRGB;solid-color:#000000;solid-opacity:1;fill:#3465a4;fill-opacity:1;fill-rule:nonzero;stroke:none;stroke-width:2.06329;stroke-linecap:butt;stroke-linejoin:round;stroke-miterlimit:4;stroke-dasharray:none;stroke-dashoffset:0;stroke-opacity:1;marker:none;marker-start:none;marker-mid:none;marker-end:none;color-rendering:auto;image-rendering:auto;shape-rendering:auto;text-rendering:auto;enable-background:accumulate"
         transform="matrix(-0.78612,0.618074,0.618074,0.78612,0,0)" />
      <circle
         r="2.2497"
         cy="621.656"
         cx="253.932"
         id="circle8054"
         style="color:#000000;clip-rule:nonzero;display:inline;overflow:visible;visibility:visible;opacity:1;isolation:auto;mix-blend-mode:normal;color-interpolation:sRGB;color-interpolation-filters:linearRGB;solid-color:#000000;solid-opacity:1;fill:#3465a4;fill-opacity:1;fill-rule:nonzero;stroke:none;stroke-width:2.06329;stroke-linecap:butt;stroke-linejoin:round;stroke-miterlimit:4;stroke-dasharray:none;stroke-dashoffset:0;stroke-opacity:1;marker:none;marker-start:none;marker-mid:none;marker-end:none;color-rendering:auto;image-rendering:auto;shape-rendering:auto;text-rendering:auto;enable-background:accumulate"
         transform="matrix(-0.78612,0.618074,0.618074,0.78612,0,0)" />
      <circle
         r="2.2497"
         cy="607.714"
         cx="267.956"
         id="circle8066"
         style="color:#000000;clip-rule:nonzero;display:inline;overflow:visible;visibility:visible;opacity:1;isolation:auto;mix-blend-mode:normal;color-interpolation:sRGB;color-interpolation-filters:linearRGB;solid-color:#000000;solid-opacity:1;fill:#3465a4;fill-opacity:1;fill-rule:nonzero;stroke:none;stroke-width:2.06329;stroke-linecap:butt;stroke-linejoin:round;stroke-miterlimit:4;stroke-dasharray:none;stroke-dashoffset:0;stroke-opacity:1;marker:none;marker-start:none;marker-mid:none;marker-end:none;color-rendering:auto;image-rendering:auto;shape-rendering:auto;text-rendering:auto;enable-background:accumulate"
         transform="matrix(-0.78612,0.618074,0.618074,0.78612,0,0)" />
      <circle
         r="2.2497"
         cy="636.27"
         cx="257.726"
         id="circle8086"
         style="color:#000000;clip-rule:nonzero;display:inline;overflow:visible;visibility:visible;opacity:1;isolation:auto;mix-blend-mode:normal;color-interpolation:sRGB;color-interpolation-filters:linearRGB;solid-color:#000000;solid-opacity:1;fill:#3465a4;fill-opacity:1;fill-rule:nonzero;stroke:none;stroke-width:2.06329;stroke-linecap:butt;stroke-linejoin:round;stroke-miterlimit:4;stroke-dasharray:none;stroke-dashoffset:0;stroke-opacity:1;marker:none;marker-start:none;marker-mid:none;marker-end:none;color-rendering:auto;image-rendering:auto;shape-rendering:auto;text-rendering:auto;enable-background:accumulate"
         transform="matrix(-0.78612,0.618074,0.618074,0.78612,0,0)" />
      <circle
         r="2.2497"
         cy="660.396"
         cx="262.95"
         id="circle8090"
         style="color:#000000;clip-rule:nonzero;display:inline;overflow:visible;visibility:visible;opacity:1;isolation:auto;mix-blend-mode:normal;color-interpolation:sRGB;color-interpolation-filters:linearRGB;solid-color:#000000;solid-opacity:1;fill:#3465a4;fill-opacity:1;fill-rule:nonzero;stroke:none;stroke-width:2.06329;stroke-linecap:butt;stroke-linejoin:round;stroke-miterlimit:4;stroke-dasharray:none;stroke-dashoffset:0;stroke-opacity:1;marker:none;marker-start:none;marker-mid:none;marker-end:none;color-rendering:auto;image-rendering:auto;shape-rendering:auto;text-rendering:auto;enable-background:accumulate"
         transform="matrix(-0.78612,0.618074,0.618074,0.78612,0,0)" />
      <circle
         r="2.2497"
         cy="590.896"
         cx="287.903"
         id="circle8092"
         style="color:#000000;clip-rule:nonzero;display:inline;overflow:visible;visibility:visible;opacity:1;isolation:auto;mix-blend-mode:normal;color-interpolation:sRGB;color-interpolation-filters:linearRGB;solid-color:#000000;solid-opacity:1;fill:#3465a4;fill-opacity:1;fill-rule:nonzero;stroke:none;stroke-width:2.06329;stroke-linecap:butt;stroke-linejoin:round;stroke-miterlimit:4;stroke-dasharray:none;stroke-dashoffset:0;stroke-opacity:1;marker:none;marker-start:none;marker-mid:none;marker-end:none;color-rendering:auto;image-rendering:auto;shape-rendering:auto;text-rendering:auto;enable-background:accumulate"
         transform="matrix(-0.78612,0.618074,0.618074,0.78612,0,0)" />
      <circle
         transform="matrix(-0.330458,0.943821,0.943821,0.330458,0,0)"
         style="color:#000000;clip-rule:nonzero;display:inline;overflow:visible;visibility:visible;opacity:1;isolation:auto;mix-blend-mode:normal;color-interpolation:sRGB;color-interpolation-filters:linearRGB;solid-color:#000000;solid-opacity:1;fill:#3465a4;fill-opacity:1;fill-rule:nonzero;stroke:none;stroke-width:2.06329;stroke-linecap:butt;stroke-linejoin:round;stroke-miterlimit:4;stroke-dasharray:none;stroke-dashoffset:0;stroke-opacity:1;marker:none;marker-start:none;marker-mid:none;marker-end:none;color-rendering:auto;image-rendering:auto;shape-rendering:auto;text-rendering:auto;enable-background:accumulate"
         id="circle8124"
         cx="539.954"
         cy="379.758"
         r="2.2497" />
      <circle
         r="2.2497"
         cy="96.2646"
         cx="668.351"
         id="circle8160"
         style="color:#000000;clip-rule:nonzero;display:inline;overflow:visible;visibility:visible;opacity:1;isolation:auto;mix-blend-mode:normal;color-interpolation:sRGB;color-interpolation-filters:linearRGB;solid-color:#000000;solid-opacity:1;fill:#3465a4;fill-opacity:1;fill-rule:nonzero;stroke:none;stroke-width:2.06329;stroke-linecap:butt;stroke-linejoin:round;stroke-miterlimit:4;stroke-dasharray:none;stroke-dashoffset:0;stroke-opacity:1;marker:none;marker-start:none;marker-mid:none;marker-end:none;color-rendering:auto;image-rendering:auto;shape-rendering:auto;text-rendering:auto;enable-background:accumulate"
         transform="matrix(0.146714,0.989179,0.989179,-0.146714,0,0)" />
      <circle
         r="2.2497"
         cy="106.163"
         cx="667.57"
         id="circle8162"
         style="color:#000000;clip-rule:nonzero;display:inline;overflow:visible;visibility:visible;opacity:1;isolation:auto;mix-blend-mode:normal;color-interpolation:sRGB;color-interpolation-filters:linearRGB;solid-color:#000000;solid-opacity:1;fill:#3465a4;fill-opacity:1;fill-rule:nonzero;stroke:none;stroke-width:2.06329;stroke-linecap:butt;stroke-linejoin:round;stroke-miterlimit:4;stroke-dasharray:none;stroke-dashoffset:0;stroke-opacity:1;marker:none;marker-start:none;marker-mid:none;marker-end:none;color-rendering:auto;image-rendering:auto;shape-rendering:auto;text-rendering:auto;enable-background:accumulate"
         transform="matrix(0.146714,0.989179,0.989179,-0.146714,0,0)" />
      <circle
         r="2.2497"
         cy="676.099"
         cx="175.275"
         id="circle8230"
         style="color:#000000;clip-rule:nonzero;display:inline;overflow:visible;visibility:visible;opacity:1;isolation:auto;mix-blend-mode:normal;color-interpolation:sRGB;color-interpolation-filters:linearRGB;solid-color:#000000;solid-opacity:1;fill:#3465a4;fill-opacity:1;fill-rule:nonzero;stroke:none;stroke-width:2.06329;stroke-linecap:butt;stroke-linejoin:round;stroke-miterlimit:4;stroke-dasharray:none;stroke-dashoffset:0;stroke-opacity:1;marker:none;marker-start:none;marker-mid:none;marker-end:none;color-rendering:auto;image-rendering:auto;shape-rendering:auto;text-rendering:auto;enable-background:accumulate"
         transform="matrix(-0.878095,0.478486,0.478486,0.878095,0,0)" />
      <circle
         r="2.2497"
         cy="180.999"
         cx="685.286"
         id="circle8264"
         style="color:#000000;clip-rule:nonzero;display:inline;overflow:visible;visibility:visible;opacity:1;isolation:auto;mix-blend-mode:normal;color-interpolation:sRGB;color-interpolation-filters:linearRGB;solid-color:#000000;solid-opacity:1;fill:#3465a4;fill-opacity:1;fill-rule:nonzero;stroke:none;stroke-width:2.06329;stroke-linecap:butt;stroke-linejoin:round;stroke-miterlimit:4;stroke-dasharray:none;stroke-dashoffset:0;stroke-opacity:1;marker:none;marker-start:none;marker-mid:none;marker-end:none;color-rendering:auto;image-rendering:auto;shape-rendering:auto;text-rendering:auto;enable-background:accumulate"
         transform="matrix(-0.020114,0.999798,0.999798,0.020114,0,0)" />
      <circle
         r="2.2497"
         cy="180.796"
         cx="677.847"
         id="circle8416"
         style="color:#000000;clip-rule:nonzero;display:inline;overflow:visible;visibility:visible;opacity:1;isolation:auto;mix-blend-mode:normal;color-interpolation:sRGB;color-interpolation-filters:linearRGB;solid-color:#000000;solid-opacity:1;fill:#3465a4;fill-opacity:1;fill-rule:nonzero;stroke:none;stroke-width:2.06329;stroke-linecap:butt;stroke-linejoin:round;stroke-miterlimit:4;stroke-dasharray:none;stroke-dashoffset:0;stroke-opacity:1;marker:none;marker-start:none;marker-mid:none;marker-end:none;color-rendering:auto;image-rendering:auto;shape-rendering:auto;text-rendering:auto;enable-background:accumulate"
         transform="matrix(-0.020114,0.999798,0.999798,0.020114,0,0)" />
      <circle
         transform="matrix(-0.78612,0.618074,0.618074,0.78612,0,0)"
         style="color:#000000;clip-rule:nonzero;display:inline;overflow:visible;visibility:visible;opacity:1;isolation:auto;mix-blend-mode:normal;color-interpolation:sRGB;color-interpolation-filters:linearRGB;solid-color:#000000;solid-opacity:1;fill:#3465a4;fill-opacity:1;fill-rule:nonzero;stroke:none;stroke-width:2.06329;stroke-linecap:butt;stroke-linejoin:round;stroke-miterlimit:4;stroke-dasharray:none;stroke-dashoffset:0;stroke-opacity:1;marker:none;marker-start:none;marker-mid:none;marker-end:none;color-rendering:auto;image-rendering:auto;shape-rendering:auto;text-rendering:auto;enable-background:accumulate"
         id="circle8424"
         cx="273.709"
         cy="603.529"
         r="2.2497" />
      <circle
         transform="matrix(-0.78612,0.618074,0.618074,0.78612,0,0)"
         style="color:#000000;clip-rule:nonzero;display:inline;overflow:visible;visibility:visible;opacity:1;isolation:auto;mix-blend-mode:normal;color-interpolation:sRGB;color-interpolation-filters:linearRGB;solid-color:#000000;solid-opacity:1;fill:#3465a4;fill-opacity:1;fill-rule:nonzero;stroke:none;stroke-width:2.06329;stroke-linecap:butt;stroke-linejoin:round;stroke-miterlimit:4;stroke-dasharray:none;stroke-dashoffset:0;stroke-opacity:1;marker:none;marker-start:none;marker-mid:none;marker-end:none;color-rendering:auto;image-rendering:auto;shape-rendering:auto;text-rendering:auto;enable-background:accumulate"
         id="circle8440"
         cx="255.304"
         cy="613.293"
         r="2.2497" />
    </g>
    <path
       style="fill:none;fill-rule:evenodd;stroke:#3465a4;stroke-width:2.17465;stroke-linecap:butt;stroke-linejoin:miter;stroke-miterlimit:4;stroke-dasharray:none;stroke-opacity:1"
       d="M 293.365,518.381 V 636.693"
       id="path9331"
       inkscape:connector-curvature="0" />
    <text
       xml:space="preserve"
       transform="matrix(1.12501,0,0,1.12501,166.021,479.104)"
       id="text13209"
       style="color:#000000;font-style:italic;font-variant:normal;font-weight:normal;font-stretch:normal;font-size:20px;line-height:25px;font-family:'Trebuchet MS';-inkscape-font-specification:'Trebuchet MS, Italic';text-indent:0;text-align:start;text-decoration:none;text-decoration-line:none;text-decoration-style:solid;text-decoration-color:#000000;letter-spacing:0px;word-spacing:0px;text-transform:none;writing-mode:lr-tb;direction:ltr;baseline-shift:baseline;white-space:pre;shape-inside:url(#rect13211);clip-rule:nonzero;display:inline;overflow:visible;visibility:visible;opacity:1;isolation:auto;mix-blend-mode:normal;color-interpolation:sRGB;color-interpolation-filters:linearRGB;solid-color:#000000;solid-opacity:1;fill:#000000;fill-opacity:1;fill-rule:nonzero;stroke:none;stroke-width:1px;stroke-linecap:butt;stroke-linejoin:miter;stroke-miterlimit:4;stroke-dasharray:none;stroke-dashoffset:0;stroke-opacity:1;color-rendering:auto;image-rendering:auto;shape-rendering:auto;text-rendering:auto;enable-background:accumulate" />
    <path
       style="fill:none;fill-rule:evenodd;stroke:#3465a4;stroke-width:1.68752;stroke-linecap:butt;stroke-linejoin:miter;stroke-miterlimit:4;stroke-dasharray:5.06255, 5.06255;stroke-dashoffset:0;stroke-opacity:1"
       d="M 313.615,518.381 V 641.472"
       id="path15071"
       inkscape:connector-curvature="0" />
    <path
       style="fill:none;fill-rule:evenodd;stroke:#3465a4;stroke-width:1.68752;stroke-linecap:butt;stroke-linejoin:miter;stroke-miterlimit:4;stroke-dasharray:5.06255, 5.06255;stroke-dashoffset:0;stroke-opacity:1"
       d="M 273.115,518.381 V 641.472"
       id="path15073"
       inkscape:connector-curvature="0" />
    <path
       style="fill:none;fill-rule:evenodd;stroke:#4e9a06;stroke-width:2.47502;stroke-linecap:butt;stroke-linejoin:miter;stroke-miterlimit:4;stroke-dasharray:none;stroke-opacity:1"
       d="M 282.436,507.131 V 623.56"
       id="path8422"
       inkscape:connector-curvature="0" />
  </g>
</svg>
