<?xml version="1.0" encoding="UTF-8" standalone="no"?>
<!-- Copyright 2017 mathsisfun.com -->
<svg xmlns="http://www.w3.org/2000/svg" width="361" height="37.1" version="1.1" style="font-size:12.9px; fill:#0000ff; stroke-width:0.52px;">
<defs>
	<marker id="aa1" style="overflow:visible;" orient="auto">
		<path transform="matrix(-0.8,0,0,-0.8,-10,0)" style="fill-opacity:0.75; stroke:#0000ff; stroke-width:1pt;" d="M 0,0 5,-5 -12.5,0 5,5 Z"/>
	</marker>
	<marker id="aa2" style="overflow:visible;" orient="auto">
		<path transform="matrix(0.8,0,0,0.8,10,0)" style="fill:#ff0000; fill-opacity:0.75; stroke:#ff0000; stroke-width:1pt;" d="M 0,0 5,-5 -12.5,0 5,5 Z"/>
	</marker>
	<marker style="overflow:visible;" orient="auto">
		<path transform="matrix(0.8,0,0,0.8,10,0)" style="fill:none; stroke:black; stroke-width:1pt;" d="M 0,0 5,-5 -12.5,0 5,5 Z"/>
	</marker>
	<marker style="overflow:visible;" orient="auto">
		<path transform="matrix(-0.8,0,0,-0.8,-10,0)" style="fill:none; stroke:black; stroke-width:1pt;" d="M 0,0 5,-5 -12.5,0 5,5 Z"/>
	</marker>
</defs>
<text x="66.7" y="35.7" style="font-family:Arial;">2</text>
<text x="87" y="35.6" style="font-family:Arial;">3</text>
<text x="107.6" y="35.7" style="font-family:Arial;">4</text>
<text x="127.7" y="35.5" style="font-family:Arial;">5</text>
<text x="148.2" y="35.6" style="font-family:Arial;">6</text>
<text x="168.5" y="35.6" style="font-family:Arial;">7</text>
<text x="189" y="35.6" style="font-family:Arial;">8</text>
<text x="209.4" y="35.6" style="font-family:Arial;">9</text>
<path style="fill:none; stroke:#0000ff; stroke-width:0.27px;" d="M 233.4,1.3 V 20.9"/>
<text x="225.8" y="35.6" style="font-family:Arial;">10</text>
<path style="marker-end:url(#aa1); fill-opacity:0.75; stroke:#0000ff; stroke-width:1.02;" d="m 28.2,11 h 330.9"/>
<path style="marker-start:url(#aa2); fill:#ff0000; fill-opacity:0.75; stroke:#ff0000; stroke-width:1.02;" d="m 2,11 h 26.6"/>
<text x="24.2" y="36.8" style="font-family:Arial; font-size:18.7px; fill:black;">0</text>
<path style="fill:none; stroke:#0000ff; stroke-width:0.27px;" d="M 253.7,1.3 V 20.9"/>
<path style="fill:none; stroke:#0000ff; stroke-width:0.27px;" d="M 274.1,1.3 V 20.9"/>
<path style="fill:none; stroke:#0000ff; stroke-width:0.27px;" d="M 294.4,1.3 V 20.9"/>
<path style="fill:none; stroke:#0000ff; stroke-width:0.27px;" d="M 314.8,1.3 V 20.9"/>
<path style="fill:none; stroke:#0000ff; stroke-width:0.27px;" d="M 335.2,1.3 V 20.9"/>
<text x="246.4" y="35.7" style="font-family:Arial;">11</text>
<text x="266.4" y="35.7" style="font-family:Arial;">12</text>
<text x="286.7" y="35.6" style="font-family:Arial;">13</text>
<text x="307.3" y="35.7" style="font-family:Arial;">14</text>
<text x="327.5" y="35.5" style="font-family:Arial;">15</text>
<circle cx="69.8" cy="10.9" r="3.16759" style="fill:#ff6600; fill-opacity:0.67; stroke:#ff6600; stroke-width:1.83; stroke-linejoin:round;"/>
<circle cx="172.9" cy="10.9" r="3.16759" style="fill:#ff6600; fill-opacity:0.67; stroke:#ff6600; stroke-width:1.83; stroke-linejoin:round;"/>
<circle cx="151.6" cy="10.9" r="3.16759" style="fill:#ff6600; fill-opacity:0.67; stroke:#ff6600; stroke-width:1.83; stroke-linejoin:round;"/>
<circle cx="192.6" cy="10.9" r="3.16759" style="fill:#ff6600; fill-opacity:0.67; stroke:#ff6600; stroke-width:1.83; stroke-linejoin:round;"/>
<circle cx="232.8" cy="10.9" r="3.16759" style="fill:#ff6600; fill-opacity:0.67; stroke:#ff6600; stroke-width:1.83; stroke-linejoin:round;"/>
<circle cx="334.6" cy="10.9" r="3.16759" style="fill:#ff6600; fill-opacity:0.67; stroke:#ff6600; stroke-width:1.83; stroke-linejoin:round;"/>
<circle cx="204" cy="10.9" r="3.16759" style="fill:#ff6600; fill-opacity:0.67; stroke:#ff6600; stroke-width:1.83; stroke-linejoin:round;"/>
<path style="fill:none; stroke:#0000ff; stroke-width:0.27px;" d="M 131.6,1.3 V 20.9"/>
<path style="fill:none; stroke:#0000ff; stroke-width:0.27px;" d="M 152,1.3 V 20.9"/>
<path style="fill:none; stroke:#0000ff; stroke-width:0.27px;" d="M 172.3,1.3 V 20.9"/>
<path style="fill:none; stroke:#0000ff; stroke-width:0.27px;" d="M 192.7,1.3 V 20.9"/>
<path style="fill:none; stroke:#0000ff; stroke-width:0.27px;" d="M 213,1.3 V 20.9"/>
<path style="fill:none; stroke:#0000ff; stroke-width:0.27px;" d="M 29.8,1.3 V 20.9"/>
<path style="fill:none; stroke:#0000ff; stroke-width:0.27px;" d="M 50.2,1.3 V 20.9"/>
<path style="fill:none; stroke:#0000ff; stroke-width:0.27px;" d="M 70.5,1.3 V 20.9"/>
<path style="fill:none; stroke:#0000ff; stroke-width:0.27px;" d="M 90.9,1.3 V 20.9"/>
<path style="fill:none; stroke:#0000ff; stroke-width:0.27px;" d="M 111.2,1.3 V 20.9"/>
<text x="46.7" y="35.7" style="font-family:Arial;">1</text>
</svg>