<?xml version="1.0" encoding="UTF-8" standalone="no"?>
<!-- Copyright 2017 mathsisfun.com -->
<svg xmlns="http://www.w3.org/2000/svg" width="220.3" height="175.7" version="1.1" style="font-family:'Comic Sans MS'; font-size:17.3px; fill:#0000ff; stroke-width:0.42px;">
<defs/>
<path style="fill:#000080;" d="m 27.6,26.7 c 2.1,2.8 -3.1,11.4 -1.4,17.3 -0.5,24.5 0.4,49 -1.2,73.5 -0.5,17 -0.3,33.9 -1,50.9 -5.8,-4.5 -0.9,-14 -2.3,-20.6 -0.3,-28.7 2,-57.4 1.6,-86.1 0.2,-10.9 -0.3,-21.9 1.5,-32.6 0.6,-3.1 5.9,-4.7 4.4,-0.9 -0.6,-0.5 -1.2,-1 -1.8,-1.4 z"/>
<path style="fill:#000080;" d="m 134.4,30.1 c -1.5,12.5 -0.7,25.1 -1.4,37.6 -0.3,22.6 2.2,45.1 3.6,67.6 0.4,11.2 0.3,22.3 -0.9,33.5 -5.4,-3.8 -0.2,-12.5 -1.5,-18.2 0.6,-26.7 -4.2,-53.2 -3.9,-79.9 0,-13.2 0.3,-26.4 1.3,-39.5 0.2,-3.6 0.7,-2.8 2.8,-1.1 z"/>
<path style="fill:#000080;" d="m 212.1,27.7 c 5.1,4.9 0.7,15.2 2.2,22.2 -0.4,26.7 -0.6,53.4 -1.7,80.1 -1,15.3 0.6,30.5 1.7,45.7 -5.4,-3.4 -1.9,-12.1 -3.8,-17.6 -2.3,-27.1 0.9,-54.3 0.4,-81.5 0.4,-16.3 0.4,-32.6 1.2,-48.9 3.1,2.1 2.1,1.4 0,0 z"/>
<path style="fill:#000080;" d="m 19.1,54.3 c 12.8,-3.3 26.4,-2.2 39.6,-2.9 24.5,0.2 49.1,0.7 73.6,0 22.6,0 45.1,0.8 67.6,0.5 6.7,0.8 14.4,-1.5 20.4,1.4 -4,1.1 -14.9,0.1 -21.5,0.5 -28.7,0.4 -57.5,-0.9 -86.2,0 -29.7,0.3 -59.5,-1.9 -89.2,1.2 -1.9,1.1 -2.9,0.3 -4.4,-0.9 z"/>
<path style="fill:#000080;" d="m 20.1,28.2 c 8.2,-2.5 17.1,-0.4 25.5,-1.1 25.6,0.5 51.2,-1.1 76.8,-0.6 31.3,0.9 62.6,1.3 93.9,1.5 5.8,3.6 -8.2,0.7 -10.6,1.7 -45.1,0.7 -90.3,-2.3 -135.4,-0.3 -15.2,0.1 -30.5,-0.8 -45.7,-0.5 -2,0.7 -3.1,0.9 -4.6,-0.7 z"/>
<path style="fill:#000080;" d="m 16.3,162.5 c -0.4,-2.6 1,-1.1 -3,1 39.7,0 79.4,0.2 119.1,0 18,0 36,0.5 53.9,1.9 10.1,-0.1 20.4,1.9 30.3,0.7 5.1,-3.3 -8.2,-0.5 -10.3,-1.8 -16.2,-0.7 -32.4,-2.2 -48.7,-2.7 -44.1,-0.8 -88.1,-0.1 -132.2,0 -3,-1.9 -18,4.1 -9.2,0.9 z"/>
<text x="34" y="44.5" style="font-family:'Comic Sans MS'; font-size:17.3px; fill:#ff0000;">Sport </text>
<text x="145.7" y="46.3" style="font-family:'Comic Sans MS'; font-size:17.3px; fill:#ff0000;">People</text>
<text x="0.5" y="15.1" style="font-weight:bold; font-size:15.9px; font-style:italic; fill:#000080; stroke-width:1.33px;">&quot;What sport do you play?&quot; </text>
<text x="33" y="71.3">Soccer</text>
<text x="32.5" y="110.4">Gymnastics</text>
<text x="32.2" y="91.9">Tennis</text>
<text x="32.1" y="130.7">Swimming </text>
<text x="31.3" y="153.7">Track </text>
<text x="154.1" y="71.3" style="font-style:italic; stroke-width:1px;">106</text>
<text x="161" y="93.3" style="font-style:italic; stroke-width:1px;">45</text>
<text x="161.5" y="113.5" style="font-style:italic; stroke-width:1px;">54</text>
<text x="161.5" y="133.6" style="font-style:italic; stroke-width:1px;">82</text>
<text x="161.9" y="153.7" style="font-style:italic; stroke-width:1px;">68</text>
</svg>