<?xml version="1.0" encoding="UTF-8" standalone="no"?>
<!-- Copyright 2017 mathsisfun.com -->
<svg xmlns="http://www.w3.org/2000/svg" width="350" height="184.3" version="1.1">
<defs />
<g transform="translate(-12.98,-1311.89)">
<rect x="13.6" y="1336.4" width="87.2" height="69.2" style="color:black; overflow:visible; fill:none; stroke:black; stroke-width:1.2;" />
<rect x="100.8" y="1336.4" width="87.2" height="69.2" style="color:black; overflow:visible; fill:#ffff3e; stroke:black; stroke-width:1.2;" />
<rect x="188" y="1336.4" width="87.2" height="69.2" style="color:black; overflow:visible; fill:#ffff3e; stroke:black; stroke-width:1.2;" />
<rect x="275.2" y="1336.4" width="87.2" height="69.2" style="color:black; overflow:visible; fill:none; stroke:black; stroke-width:1.2;" />
<text x="102.9" y="1327.9" style="font-family:Verdana; text-align:center; text-anchor:middle; font-size:21.6px; fill:black; stroke-width:0.6;">Q1</text>
<text x="189.3" y="1327.9" style="font-family:Verdana; text-align:center; text-anchor:middle; font-size:21.6px; fill:black; stroke-width:0.6;">Q2</text>
<text x="276.8" y="1327.9" style="font-family:Verdana; text-align:center; text-anchor:middle; font-size:21.6px; fill:black; stroke-width:0.6;">Q3</text>
<rect x="-37" y="1769.4" width="528" height="192" />
<text x="29.8" y="1380" style="font-family:Verdana; font-size:24px; fill:black; stroke-width:0.6;">25%</text>
<text x="118.3" y="1380" style="font-family:Verdana; font-size:24px; fill:black; stroke-width:0.6;">25%</text>
<text x="206.8" y="1380" style="font-family:Verdana; font-size:24px; fill:black; stroke-width:0.6;">25%</text>
<text x="295.4" y="1380" style="font-family:Verdana; font-size:24px; fill:black; stroke-width:0.6;">25%</text>
<path d="m 103.9,1413.9 c 0.1,0.5 0.3,1.1 0.4,1.6 0.2,0.6 0.4,1.2 0.7,1.8 0.3,0.7 0.7,1.3 1.1,2 0.5,0.7 0.9,1.3 1.5,2 0.6,0.7 1.2,1.3 1.9,1.8 0.8,0.5 1.6,1.1 2.4,1.6 0.9,0.5 1.8,1 2.7,1.3 1,0.4 2,0.7 3,1.1 1,0.4 2.1,0.7 3.1,1 1.1,0.3 2.2,0.6 3.3,0.8 1.1,0.2 2.3,0.4 3.4,0.5 1.2,0.2 2.3,0.2 3.5,0.4 1.2,0.1 2.4,0.1 3.6,0.1 1.2,0 2.3,0 3.5,-0.1 1.2,-0.1 2.3,-0.2 3.5,-0.2 1.2,-0.1 2.4,-0.2 3.5,-0.4 1.2,-0.2 2.3,-0.4 3.5,-0.5 1.1,-0.2 2.3,-0.4 3.4,-0.7 1.2,-0.2 2.3,-0.5 3.5,-0.7 1.1,-0.3 2.3,-0.4 3.4,-0.7 1.1,-0.2 2.2,-0.4 3.4,-0.6 1.1,-0.2 2.3,-0.4 3.4,-0.5 1.1,-0.2 2.3,-0.2 3.4,-0.2 1.1,0 2.2,0.1 3.3,0.2 1.1,0.1 2.1,0.4 3.2,0.5 1,0.2 2,0.5 3,0.8 1,0.3 2,0.7 2.9,1.1 0.9,0.4 1.9,1 2.7,1.5 0.9,0.5 1.7,1.3 2.4,2 0.8,0.7 1.5,1.5 2.1,2.4 0.6,0.9 1.1,1.9 1.4,2.9 0,0.2 0.1,0.4 0.2,0.5 0,0 -5.5,3.1 -5.5,3.1 v 0 c -0,-0.1 -0,-0.3 -0.1,-0.4 -0.3,-1 -0.8,-1.9 -1.4,-2.8 -0.6,-0.8 -1.3,-1.6 -2,-2.2 -0.8,-0.7 -1.6,-1.4 -2.4,-1.9 -0.9,-0.5 -1.8,-1 -2.7,-1.4 -1,-0.4 -1.9,-0.8 -2.9,-1 -1,-0.3 -2,-0.5 -3,-0.8 -1.1,-0.2 -2.1,-0.4 -3.2,-0.5 -1.1,-0.1 -2.2,-0.1 -3.3,-0.1 -1.1,0.1 -2.3,0.1 -3.4,0.3 -1.1,0.1 -2.3,0.3 -3.4,0.5 -1.1,0.2 -2.2,0.4 -3.4,0.6 -1.1,0.2 -2.3,0.4 -3.4,0.7 -1.2,0.2 -2.3,0.5 -3.5,0.7 -1.1,0.2 -2.3,0.4 -3.4,0.7 -1.2,0.2 -2.3,0.4 -3.5,0.5 -1.2,0.2 -2.4,0.3 -3.6,0.4 -1.2,0.1 -2.4,0.2 -3.5,0.2 -1.2,0.1 -2.3,0.1 -3.5,0.1 -1.2,0 -2.4,-0.1 -3.6,-0.1 -1.2,-0.1 -2.3,-0.2 -3.5,-0.4 -1.1,-0.2 -2.3,-0.4 -3.4,-0.6 -1.1,-0.2 -2.2,-0.5 -3.3,-0.8 -1.1,-0.4 -2.1,-0.7 -3.2,-1.1 -1,-0.4 -2,-0.7 -3,-1.1 -0.9,-0.4 -1.9,-0.8 -2.7,-1.4 -0.8,-0.5 -1.6,-1.1 -2.4,-1.7 -0.7,-0.5 -1.4,-1.2 -2,-1.9 -0.5,-0.7 -1,-1.3 -1.5,-2 -0.4,-0.7 -0.8,-1.3 -1.1,-2 -0.3,-0.6 -0.6,-1.3 -0.7,-1.9 -0.2,-0.5 -0.3,-1.1 -0.5,-1.7 0,0 5.6,-3 5.6,-3 z" style="fill:#009100; stroke-width:0.6;" />
<path d="m 270.6,1413.9 c -0.1,0.5 -0.3,1.1 -0.4,1.6 -0.2,0.6 -0.4,1.2 -0.7,1.8 -0.3,0.7 -0.7,1.3 -1.1,2 -0.5,0.7 -0.9,1.3 -1.5,2 -0.6,0.7 -1.2,1.3 -1.9,1.8 -0.8,0.5 -1.5,1.1 -2.4,1.6 -0.9,0.5 -1.8,1 -2.7,1.3 -1,0.4 -2,0.7 -3,1.1 -1,0.4 -2.1,0.7 -3.1,1 -1.1,0.3 -2.2,0.6 -3.3,0.8 -1.1,0.2 -2.3,0.4 -3.4,0.5 -1.2,0.2 -2.3,0.2 -3.5,0.4 -1.2,0.1 -2.4,0.1 -3.5,0.1 -1.2,0 -2.3,0 -3.5,-0.1 -1.2,-0.1 -2.3,-0.2 -3.5,-0.2 -1.2,-0.1 -2.4,-0.2 -3.5,-0.4 -1.2,-0.2 -2.3,-0.4 -3.5,-0.5 -1.1,-0.2 -2.3,-0.4 -3.4,-0.7 -1.2,-0.2 -2.3,-0.5 -3.5,-0.7 -1.1,-0.3 -2.3,-0.4 -3.4,-0.7 -1.1,-0.2 -2.2,-0.4 -3.4,-0.6 -1.1,-0.2 -2.3,-0.4 -3.4,-0.5 -1.1,-0.2 -2.3,-0.2 -3.4,-0.2 -1.1,0 -2.2,0.1 -3.3,0.2 -1.1,0.1 -2.1,0.4 -3.2,0.5 -1,0.2 -2,0.5 -3,0.8 -1,0.3 -2,0.7 -2.9,1.1 -0.9,0.4 -1.9,1 -2.7,1.5 -0.9,0.5 -1.7,1.3 -2.4,2 -0.8,0.7 -1.5,1.5 -2.1,2.4 -0.6,0.9 -1.1,1.9 -1.4,2.9 -0,0.2 -0.1,0.4 -0.2,0.5 0,0 5.5,3.1 5.5,3.1 v 0 c 0,-0.1 0,-0.3 0.1,-0.4 0.3,-1 0.8,-1.9 1.4,-2.8 0.6,-0.8 1.3,-1.6 2,-2.2 0.8,-0.7 1.5,-1.4 2.4,-1.9 0.9,-0.5 1.8,-1 2.7,-1.4 1,-0.4 1.9,-0.8 2.9,-1 1,-0.3 2,-0.5 3,-0.8 1.1,-0.2 2.1,-0.4 3.2,-0.5 1.1,-0.1 2.2,-0.1 3.3,-0.1 1.1,0.1 2.3,0.1 3.4,0.3 1.1,0.1 2.3,0.3 3.4,0.5 1.1,0.2 2.2,0.4 3.4,0.6 1.1,0.2 2.3,0.4 3.4,0.7 1.2,0.2 2.3,0.5 3.5,0.7 1.1,0.2 2.3,0.4 3.4,0.7 1.2,0.2 2.3,0.4 3.5,0.5 1.2,0.2 2.4,0.3 3.6,0.4 1.2,0.1 2.4,0.2 3.5,0.2 1.2,0.1 2.3,0.1 3.5,0.1 1.2,0 2.4,-0.1 3.6,-0.1 1.2,-0.1 2.3,-0.2 3.5,-0.4 1.1,-0.2 2.3,-0.4 3.4,-0.6 1.1,-0.2 2.2,-0.5 3.3,-0.8 1.1,-0.4 2.1,-0.7 3.2,-1.1 1,-0.4 2,-0.7 3,-1.1 0.9,-0.4 1.8,-0.8 2.7,-1.4 0.8,-0.5 1.6,-1.1 2.4,-1.7 0.7,-0.5 1.4,-1.2 2,-1.9 0.5,-0.7 1,-1.3 1.5,-2 0.4,-0.7 0.8,-1.3 1.1,-2 0.3,-0.6 0.6,-1.3 0.8,-1.9 0.2,-0.5 0.3,-1.1 0.5,-1.7 0,0 -5.6,-3 -5.6,-3 z" style="fill:#009100; stroke-width:0.6;" />
<text x="186.9" y="1462.5" style="font-family:Verdana; text-align:center; text-anchor:middle; font-size:20.2px; fill:#009100; stroke-width:0.6;">Interquartile Range</text>
<text x="188.9" y="1491.6" style="font-family:Verdana; text-align:center; text-anchor:middle; font-size:23.9px; fill:#009100; stroke-width:0.6;">= Q3 - Q1</text>
<rect x="-516" y="2352.4" width="1404" height="380" />
</g>
</svg>
