<?xml version="1.0" encoding="UTF-8" standalone="no"?>
<svg
   width="279.368"
   height="79.5559"
   version="1.1"
   style="font-size:24px;font-family:'Comic Sans MS';fill:#73d216;stroke-width:0.64px"
   id="svg41"
   sodipodi:docname="median.svg"
   inkscape:version="1.1 (c68e22c387, 2021-05-23)"
   xmlns:inkscape="http://www.inkscape.org/namespaces/inkscape"
   xmlns:sodipodi="http://sodipodi.sourceforge.net/DTD/sodipodi-0.dtd"
   xmlns="http://www.w3.org/2000/svg"
   xmlns:svg="http://www.w3.org/2000/svg"
   xmlns:rdf="http://www.w3.org/1999/02/22-rdf-syntax-ns#"
   xmlns:cc="http://creativecommons.org/ns#"
   xmlns:dc="http://purl.org/dc/elements/1.1/">
  <metadata
     id="metadata45">
    <rdf:RDF>
      <cc:Work
         rdf:about="">
        <dc:format>image/svg+xml</dc:format>
        <dc:type
           rdf:resource="http://purl.org/dc/dcmitype/StillImage" />
      </cc:Work>
    </rdf:RDF>
  </metadata>
  <sodipodi:namedview
     pagecolor="#ffffff"
     bordercolor="#666666"
     borderopacity="1"
     objecttolerance="10"
     gridtolerance="10"
     guidetolerance="10"
     inkscape:pageopacity="0"
     inkscape:pageshadow="2"
     inkscape:window-width="640"
     inkscape:window-height="480"
     id="namedview43"
     showgrid="false"
     inkscape:current-layer="svg41"
     inkscape:pagecheckerboard="0" />
  <defs
     id="defs13">
    <marker
       style="overflow:visible"
       id="Arrow1Mend"
       refX="0.0"
       refY="0.0"
       orient="auto"
       inkscape:stockid="Arrow1Mend"
       inkscape:isstock="true">
      <path
         transform="scale(0.4) rotate(180) translate(10,0)"
         style="fill-rule:evenodd;stroke:#204a87;stroke-width:1pt;stroke-opacity:1;fill:#204a87;fill-opacity:1"
         d="M 0.0,0.0 L 5.0,-5.0 L -12.5,0.0 L 5.0,5.0 L 0.0,0.0 z "
         id="path897" />
    </marker>
    <marker
       style="overflow:visible"
       id="Arrow1Lend"
       refX="0.0"
       refY="0.0"
       orient="auto"
       inkscape:stockid="Arrow1Lend"
       inkscape:isstock="true">
      <path
         transform="scale(0.8) rotate(180) translate(12.5,0)"
         style="fill-rule:evenodd;stroke:#204a87;stroke-width:1pt;stroke-opacity:1;fill:#204a87;fill-opacity:1"
         d="M 0.0,0.0 L 5.0,-5.0 L -12.5,0.0 L 5.0,5.0 L 0.0,0.0 z "
         id="path891" />
    </marker>
    <marker
       id="id1"
       style="overflow:visible"
       orient="auto">
      <path
         transform="matrix(-0.4,0,0,-0.4,-4,0)"
         style="fill:#000000;stroke:#000000;stroke-width:1pt"
         d="M 0,0 5,-5 -12.5,0 5,5 Z"
         id="path2" />
    </marker>
    <marker
       style="overflow:visible"
       orient="auto"
       id="marker7">
      <path
         transform="matrix(-0.8,0,0,-0.8,-10,0)"
         style="fill:#000000;stroke:#000000;stroke-width:1pt"
         d="M 0,0 5,-5 -12.5,0 5,5 Z"
         id="path5" />
    </marker>
    <marker
       style="overflow:visible"
       orient="auto"
       id="marker11">
      <path
         transform="matrix(-0.4,0,0,-0.4,-4,0)"
         style="fill:none;stroke:#000000;stroke-width:1pt"
         d="M 0,0 5,-5 -12.5,0 5,5 Z"
         id="path9" />
    </marker>
  </defs>
  <path
     style="opacity:1;fill:#a0a0ff;fill-opacity:0.92;stroke-width:4.46388"
     d="m 271.43,24.8152 c 0,0 0,0 0,0 0,0 -0.121,0 -0.181,-0.066 -0.121,0 -0.302,-0.068 -0.422,-0.1336 -0.242,0 -0.482,-0.1347 -0.784,-0.2029 -0.362,-0.069 -0.663,-0.1375 -1.025,-0.2067 -0.483,-0.1346 -0.905,-0.2048 -1.388,-0.3394 -0.542,-0.1356 -1.147,-0.2086 -1.689,-0.3442 -0.664,-0.1374 -1.328,-0.2749 -1.992,-0.4124 -0.785,-0.1394 -1.629,-0.3432 -2.414,-0.4826 -0.965,-0.2057 -1.992,-0.3489 -2.958,-0.4911 -1.147,-0.2086 -2.356,-0.3546 -3.504,-0.4997 -1.328,-0.2114 -2.718,-0.3603 -4.048,-0.4447 -1.451,-0.1498 -2.962,-0.3006 -4.413,-0.3869 -1.632,-0.1527 -3.204,-0.2409 -4.837,-0.3301 -1.754,-0.091 -3.447,-0.1812 -5.201,-0.2722 -1.815,-0.029 -3.63,-0.1205 -5.504,-0.2135 -1.876,-0.03 -3.813,-0.06 -5.687,-0.1528 -1.937,-0.03 -3.933,-0.062 -5.87,-0.092 -1.997,-0.031 -3.993,-0.063 -5.99,-0.094 -2.057,-0.032 -4.115,-0.065 -6.112,-0.096 -2.057,-0.032 -4.175,-0.066 -6.232,-0.098 -2.057,-0.032 -4.175,-0.066 -6.234,0.029 -2.058,-0.032 -4.117,0.062 -6.114,0.095 -1.998,0.032 -4.056,0.063 -6.055,0.159 -1.998,0.032 -3.996,0.1278 -5.995,0.2235 -1.938,0.097 -3.936,0.1923 -5.875,0.2889 -1.938,0.097 -3.876,0.1932 -5.814,0.2898 -1.877,0.098 -3.755,0.1951 -5.693,0.2918 -1.817,0.099 -3.695,0.196 -5.512,0.2946 -1.756,0.099 -3.513,0.1989 -5.331,0.3609 -1.757,0.099 -3.453,0.2634 -5.21,0.3629 -1.696,0.1004 -3.393,0.2643 -5.089,0.3647 -1.696,0.1004 -3.333,0.2653 -5.03,0.4292 -1.636,0.1649 -3.272,0.2663 -4.908,0.4311 -1.637,0.1649 -3.272,0.2663 -4.909,0.4312 -1.636,0.1648 -3.272,0.2662 -4.908,0.4311 -1.636,0.1648 -3.272,0.2662 -4.969,0.4301 -1.636,0.1649 -3.332,0.2653 -4.969,0.4302 -1.636,0.1649 -3.332,0.2653 -4.969,0.4302 -1.697,0.1639 -3.332,0.2653 -5.0294,0.4292 -1.697,0.1639 -3.393,0.2643 -5.0891,0.3647 -1.696,0.1004 -3.3921,0.2009 -5.0872,0.2378 -1.7566,0.099 -3.5123,0.1354 -5.2679,0.1713 -1.7557,0.036 -3.5719,0.071 -5.3284,0.1705 -1.8162,0.035 -3.5719,0.071 -5.3881,0.1059 -1.7547,-0.027 -3.5718,0.071 -5.3265,0.043 -1.7548,-0.027 -3.5105,0.01 -5.2661,0.044 -1.6943,-0.027 -3.3885,-0.053 -5.0837,-0.016 -1.6337,-0.026 -3.2675,-0.051 -4.9012,-0.077 -1.5732,-0.025 -3.1465,-0.049 -4.7197,-0.074 -1.5732,-0.025 -3.086,-0.048 -4.6592,-0.073 -1.5127,-0.024 -3.0245,-0.111 -4.5363,-0.1983 -1.4523,-0.023 -2.9036,-0.1091 -4.3549,-0.1954 -1.3917,-0.022 -2.7211,-0.1698 -4.1119,-0.2551 -1.2697,-0.084 -2.5386,-0.2305 -3.8084,-0.3139 -1.1488,-0.082 -2.2966,-0.2267 -3.4445,-0.3718 C 21.1657,25.0784 20.1388,24.9352 19.112,24.792 18.2062,24.6508 17.2407,24.445 16.3358,24.2402 15.4905,24.0999 14.7066,23.897 13.8622,23.6932 13.1388,23.4907 12.475,23.3532 11.7516,23.1513 11.1484,23.0147 10.546,22.8147 10.0041,22.6156 9.46225,22.4165 8.91948,22.281 8.37762,22.0819 7.83575,21.8828 7.35349,21.7482 6.87214,21.5501 6.39078,21.3519 5.84892,21.1528 5.36666,21.0182 4.88439,20.8836 4.46355,20.6864 3.98219,20.4883 3.62095,20.3556 3.25971,20.2228 2.89846,20.0901 l 1.77635,2.7595 c 0.36124,0.1327 0.72248,0.2654 1.02322,0.3972 0.48135,0.1981 0.9031,0.3318 1.38446,0.5299 0.48136,0.1981 1.02322,0.3972 1.50548,0.5318 0.54186,0.1991 1.02413,0.3337 1.56603,0.5328 0.5418,0.1991 1.0846,0.3347 1.6265,0.5338 0.6023,0.2 1.2056,0.3365 1.8089,0.473 0.7234,0.202 1.4477,0.3404 2.1711,0.5423 0.8444,0.2039 1.6897,0.3442 2.5341,0.548 0.9654,0.2058 1.8713,0.347 2.8376,0.4892 1.0268,0.1432 2.1142,0.2873 3.141,0.4305 1.1479,0.1451 2.2966,0.2267 3.505,0.3727 1.2698,0.083 2.5387,0.2304 3.869,0.3148 1.3908,0.085 2.721,0.1698 4.1118,0.2552 1.4523,0.023 2.9036,0.1091 4.3549,0.1954 1.5127,0.024 3.0245,0.111 4.5363,0.1983 1.5733,0.025 3.086,0.048 4.6592,0.073 1.5732,0.025 3.1465,0.049 4.7197,0.074 1.6337,0.026 3.2675,0.051 4.9021,0.013 1.6943,0.027 3.3885,0.053 5.1442,0.017 1.7548,0.027 3.5104,-0.01 5.2661,-0.044 1.8152,0.029 3.5718,-0.071 5.388,-0.1059 1.8162,-0.035 3.5718,-0.071 5.388,-0.106 1.8162,-0.035 3.5718,-0.071 5.3889,-0.1695 1.7557,-0.036 3.5122,-0.1354 5.2679,-0.1713 1.6961,-0.1004 3.4517,-0.1364 5.1487,-0.3003 1.6961,-0.1004 3.3921,-0.2009 5.089,-0.3648 1.697,-0.1639 3.333,-0.2653 5.03,-0.4292 1.636,-0.1649 3.332,-0.2653 4.969,-0.4302 1.636,-0.1648 3.332,-0.2652 4.969,-0.4301 1.636,-0.1649 3.332,-0.2653 4.968,-0.4302 1.637,-0.1649 3.272,-0.2662 4.909,-0.4311 1.636,-0.1649 3.272,-0.2662 4.908,-0.4311 1.637,-0.1649 3.273,-0.3298 4.909,-0.4311 1.697,-0.164 3.332,-0.2653 5.029,-0.4292 1.696,-0.1005 3.393,-0.2644 5.089,-0.3648 1.757,-0.099 3.454,-0.2634 5.211,-0.3629 1.756,-0.099 3.513,-0.1989 5.33,-0.2974 1.817,-0.099 3.634,-0.197 5.511,-0.2946 1.878,-0.098 3.756,-0.1951 5.633,-0.2927 1.938,-0.097 3.876,-0.1932 5.815,-0.2898 1.938,-0.097 3.876,-0.1932 5.873,-0.2254 1.999,-0.096 3.997,-0.1278 5.995,-0.2235 1.998,-0.032 4.057,-0.1268 6.055,-0.159 2.058,-0.031 4.056,-0.063 6.114,-0.095 2.057,0.032 4.176,0 6.233,0.034 2.058,0.032 4.175,0.066 6.233,0.098 2.057,0.032 4.114,0.065 6.111,0.096 1.997,0.031 3.994,0.063 5.99,0.094 1.937,0.03 3.934,0.062 5.87,0.092 1.876,0.029 3.812,0.06 5.687,0.1528 1.815,0.028 3.629,0.1205 5.444,0.2125 1.754,0.091 3.447,0.1812 5.14,0.2713 1.573,0.088 3.205,0.2409 4.777,0.3291 1.45,0.1499 2.962,0.2371 4.412,0.4505 1.329,0.1479 2.658,0.2958 3.987,0.5073 1.148,0.145 2.295,0.3536 3.503,0.4996 0.966,0.1423 1.932,0.348 2.958,0.5547 0.785,0.1394 1.629,0.3432 2.414,0.4826 0.664,0.1374 1.327,0.2749 1.991,0.4124 0.543,0.1355 1.147,0.2086 1.69,0.3441 0.482,0.1347 0.905,0.2048 1.387,0.3394 0.362,0.069 0.664,0.1375 1.025,0.2702 0.242,0 0.482,0.1347 0.784,0.2029 0.181,0 0.363,0.01 0.483,0.071 0.121,0 0.182,0 0.303,0 0,0 0.06,9e-4 0.121,0 z"
     id="path15" />
  <path
     style="opacity:1;fill:#a0a0ff;fill-opacity:0.92;stroke-width:4.46388"
     d="m 248.756,15.6078 c 0,-0.127 -0.06,-0.3185 -0.114,-0.51 0,0 0,-0.127 -0.06,-0.1915 0.06,10e-4 0.179,0.1299 0.24,0.1308 0.12,0.066 0.301,0.1318 0.421,0.1972 0.241,0.067 0.481,0.1982 0.722,0.2655 0.301,0.1317 0.662,0.2645 0.963,0.3962 0.361,0.1328 0.722,0.2655 1.083,0.4617 0.421,0.1337 0.782,0.3299 1.203,0.5271 0.42,0.1972 0.902,0.3953 1.323,0.5925 0.481,0.1981 0.962,0.3963 1.444,0.5944 0.542,0.1991 1.024,0.3337 1.566,0.5328 0.542,0.1991 1.084,0.3346 1.626,0.5337 0.543,0.1356 1.085,0.3347 1.628,0.4702 0.542,0.1356 1.084,0.3347 1.566,0.5328 0.482,0.1346 0.963,0.3328 1.445,0.5309 0.481,0.1981 0.963,0.3328 1.385,0.4664 0.482,0.1347 0.903,0.3318 1.385,0.4665 0.422,0.1336 0.903,0.3318 1.325,0.4654 0.421,0.1972 0.903,0.3318 1.325,0.4655 0.482,0.1346 0.903,0.3318 1.385,0.4664 0.483,0.1347 0.965,0.2693 1.447,0.4039 0.543,0.1356 1.026,0.2067 1.569,0.3423 0.544,0.072 1.147,0.2085 1.691,0.2806 0.543,0.072 1.025,0.2067 1.569,0.2787 0.483,0.071 0.906,0.1413 1.389,0.2124 l -2.691,1.9905 c -0.483,-0.071 -0.906,-0.1412 -1.389,-0.2123 -0.544,-0.072 -1.026,-0.2067 -1.57,-0.2788 -0.603,-0.1365 -1.147,-0.2086 -1.75,-0.3451 -0.543,-0.1356 -1.086,-0.2711 -1.628,-0.4067 -0.483,-0.1346 -1.025,-0.2702 -1.507,-0.4683 -0.482,-0.1347 -0.963,-0.3328 -1.445,-0.5309 -0.421,-0.1972 -0.903,-0.3318 -1.324,-0.529 -0.421,-0.1337 -0.842,-0.3309 -1.325,-0.4655 -0.482,-0.1346 -0.903,-0.3318 -1.385,-0.4664 -0.482,-0.1346 -0.964,-0.3328 -1.385,-0.4664 -0.483,-0.1347 -0.964,-0.3328 -1.446,-0.4674 -0.543,-0.1356 -1.024,-0.3337 -1.567,-0.4693 -0.542,-0.1991 -1.085,-0.3346 -1.627,-0.5337 -0.541,-0.1991 -1.084,-0.3347 -1.626,-0.5338 -0.542,-0.199 -1.084,-0.3981 -1.626,-0.5972 -0.481,-0.1981 -1.023,-0.3972 -1.503,-0.6589 -0.421,-0.1971 -0.902,-0.3953 -1.323,-0.5925 -0.422,-0.1336 -0.782,-0.3299 -1.204,-0.4635 -0.361,-0.1327 -0.723,-0.2655 -1.083,-0.4617 -0.301,-0.1318 -0.662,-0.2645 -0.963,-0.3963 -0.3,-0.1317 -0.541,-0.2626 -0.841,-0.3943 -0.18,-0.1299 -0.361,-0.1963 -0.48,-0.3252 -0.06,-9e-4 -0.12,-0.065 -0.18,-0.1299 -0.06,-0.1279 -0.239,-0.1943 -0.237,-0.3213 0,-0.1905 -0.177,-0.3204 -0.174,-0.5109 z"
     id="path17" />
  <path
     style="opacity:1;fill:#a0a0ff;fill-opacity:0.92;stroke-width:4.46388"
     d="m 245.638,29.6194 c 0,0 0,-0.127 0,-0.1905 0,-0.1271 0.125,-0.2522 0.127,-0.3792 0.123,-0.1886 0.307,-0.3128 0.49,-0.437 0.245,-0.1867 0.609,-0.2445 0.854,-0.4312 0.364,-0.1214 0.79,-0.2417 1.155,-0.363 0.486,-0.1195 0.971,-0.2389 1.397,-0.3593 0.486,-0.1194 1.031,-0.1743 1.517,-0.2938 1.395,-0.2321 2.85,-0.3999 4.246,-0.632 0.485,-0.056 1.03,-0.1109 1.576,-0.1659 0.545,-0.055 1.03,-0.1108 1.576,-0.1658 0.545,-0.055 1.03,-0.1109 1.575,-0.1658 0.545,0.01 1.091,-0.1099 1.636,-0.1014 0.545,0.01 1.03,-0.047 1.575,-0.1023 0.484,0.01 1.03,-0.047 1.515,-0.1033 0.544,0.01 1.029,-0.047 1.575,-0.1023 0.484,0.01 1.029,-0.047 1.514,-0.1032 0.484,0.01 0.968,0.015 1.514,-0.04 0.484,0.01 0.907,0.014 1.392,0.022 0.484,0.01 0.907,0.014 1.391,0.022 0.484,0.01 0.968,0.015 1.452,0.086 0.484,0.01 0.907,0.014 1.39,0.085 0.363,0.01 0.726,0.011 1.089,0.081 0.121,0 0.242,0 0.302,0 l -2.632,2.055 c -0.121,0 -0.181,0 -0.302,0 -0.363,-0.01 -0.726,-0.011 -1.088,-0.081 -0.424,-0.01 -0.908,-0.014 -1.331,-0.085 -0.484,-0.01 -0.968,-0.015 -1.391,-0.022 -0.424,-0.01 -0.908,-0.014 -1.332,-0.021 -0.484,-0.01 -0.907,-0.014 -1.391,-0.022 -0.484,-0.01 -0.968,-0.015 -1.454,0.1042 -0.484,-0.01 -1.03,0.047 -1.515,0.1033 -0.544,-0.01 -1.029,0.047 -1.575,0.1023 -0.484,-0.01 -1.029,0.047 -1.514,0.1033 -0.545,-0.01 -1.03,0.047 -1.575,0.1023 -0.545,-0.01 -1.091,0.1099 -1.576,0.1658 -0.485,-0.01 -1.031,0.1109 -1.516,0.1668 -0.545,0.055 -1.03,0.1109 -1.576,0.1658 -0.485,0.056 -1.03,0.1109 -1.516,0.2303 0.485,-0.056 1.82,-0.289 1.395,-0.2322 -0.485,0.056 -1.031,0.1744 -1.516,0.2303 -0.485,0.056 -0.911,0.1763 -1.396,0.2322 -0.363,0.058 -0.728,0.1791 -1.092,0.2369 -0.243,0.06 -0.547,0.1185 -0.791,0.2417 -0.121,0 -0.242,0.06 -0.364,0.1213 0,0 -0.121,0 -0.121,-0.065 0,0 0,-0.1905 0,-0.127 z"
     id="path19" />
  <text
     x="83.6484"
     y="18.3695"
     id="text23">13</text>
  <text
     x="-1.85156"
     y="18.4695"
     id="text25">10</text>
  <text
     x="251.048"
     y="18.2695"
     id="text27">26</text>
  <text
     x="42.9484"
     y="18.6695"
     id="text29">11</text>
  <text
     x="125.548"
     y="18.2695"
     style="fill:#3465a4"
     id="text31">15</text>
  <text
     x="168.248"
     y="18.2695"
     id="text33">16</text>
  <text
     x="208.748"
     y="18.2695"
     id="text35">23</text>
  <text
     x="65.8868"
     y="79.1926"
     style="font-style:normal;font-variant:normal;font-weight:normal;font-stretch:normal;font-family:Verdana;-inkscape-font-specification:Verdana;fill:#204a87"
     id="text37">middle number</text>
  <path
     style="fill:none;stroke:#204a87;stroke-width:2.35;marker-end:url(#Arrow1Mend);stroke-miterlimit:4;stroke-dasharray:none"
     d="m 140.248,60.6695 v -33"
     id="path39" />
</svg>
