<?xml version="1.0" encoding="UTF-8" standalone="no"?>
<!-- Copyright 2017 mathsisfun.com -->

<svg
   width="260"
   height="142.1"
   version="1.1"
   style="font-family:Verdana;stroke-width:0.5"
   id="svg56"
   sodipodi:docname="normal-distribution-exb1.svg"
   inkscape:version="1.1 (c68e22c387, 2021-05-23)"
   xmlns:inkscape="http://www.inkscape.org/namespaces/inkscape"
   xmlns:sodipodi="http://sodipodi.sourceforge.net/DTD/sodipodi-0.dtd"
   xmlns="http://www.w3.org/2000/svg"
   xmlns:svg="http://www.w3.org/2000/svg">
  <sodipodi:namedview
     id="namedview58"
     pagecolor="#ffffff"
     bordercolor="#666666"
     borderopacity="1.0"
     inkscape:pageshadow="2"
     inkscape:pageopacity="0.0"
     inkscape:pagecheckerboard="0"
     showgrid="false"
     inkscape:current-layer="svg56" />
  <defs
     id="defs2" />
  <g
     transform="matrix(0.5,0,0,0.5,-575.44,-706.253)"
     id="g4" />
  <line
     x1="127.6"
     y1="128.5"
     x2="127.6"
     y2="-2"
     style="fill:#2d2d2d;stroke:#204a87;stroke-width:1.26;stroke-linejoin:round"
     id="line6" />
  <path
     style="fill:#ff4141;stroke:#ccff42"
     d="m 89.5,53.6 c -3.4,6.4 -6.8,12.7 -10.3,19 -3.4,6.1 -7.1,12 -11.1,17.7 -3.9,5.5 -8.3,11 -13.3,15.4 -0.6,0.5 -1.2,1.1 -1.8,1.6 v 15.8 H 90.3 V 52.3 c -0.2,0.5 -0.5,0.9 -0.7,1.4 z"
     id="path8" />
  <path
     style="fill:#ff4141;stroke:#ccff42"
     d="m 127.2,6.3 c -3.3,0.3 -6.5,1.5 -9.2,3.7 -2.7,2.3 -5.1,4.7 -7.3,7.5 -4.2,5.4 -7.9,11.4 -11.2,17.4 -3.2,5.7 -6.3,11.5 -9.3,17.3 v 70.9 h 37.3 V 6.3 c -0.1,0 -0.2,0 -0.3,0 z"
     id="path12" />
  <path
     style="fill:#ff4141;stroke:#ccff42"
     d="m 155.3,34.5 c -3.5,-6.1 -7.1,-12.3 -11.5,-17.7 -2.2,-2.6 -4.5,-5.3 -7.3,-7.2 -2.6,-1.8 -5.7,-3.5 -9,-3.3 V 123.1 h 37.3 V 52.3 c -3.1,-5.9 -6.2,-11.9 -9.6,-17.8 z"
     id="path14" />
  <path
     style="fill:#ff4141;stroke:#ccff42"
     d="m 199.9,105.3 c -5.1,-4.8 -9.6,-10.3 -13.7,-16.1 -4,-5.7 -7.6,-11.6 -11,-17.7 -3.5,-6.2 -6.9,-12.6 -10.2,-18.9 0,-0.1 -0.1,-0.2 -0.1,-0.2 v 70.9 h 37.3 v -15.8 c -0.8,-0.7 -1.6,-1.4 -2.3,-2.1 z"
     id="path16" />
  <line
     x1="-21.8"
     y1="123.2"
     x2="276.8"
     y2="123.2"
     style="fill:#19aeff;stroke:#204a87;stroke-width:0.38;stroke-linecap:round;stroke-linejoin:round"
     id="line20" />
  <path
     style="fill:none;stroke:#204a87;stroke-width:0.38;stroke-linecap:round;stroke-linejoin:round"
     d="m -21.7,123.1 c 6.7,0 13.5,-0.1 20.2,-0.3 6.4,-0.2 12.9,-0.4 19.3,-1.3 6.8,-0.9 13.4,-2.3 19.8,-4.9 6.4,-2.6 12,-6.5 17.2,-11 5,-4.4 9.5,-9.9 13.3,-15.4 4,-5.7 7.7,-11.6 11.1,-17.7 3.6,-6.3 6.9,-12.6 10.3,-19 3.3,-6.3 6.6,-12.5 10,-18.7 3.4,-6 7,-12 11.2,-17.4 2.2,-2.8 4.6,-5.3 7.3,-7.5 2.6,-2.2 5.8,-3.4 9.2,-3.7 3.4,-0.3 6.6,1.5 9.3,3.3 2.8,1.9 5.1,4.6 7.3,7.2 4.4,5.4 8,11.6 11.5,17.7 3.4,5.9 6.5,12 9.7,18 3.3,6.4 6.7,12.7 10.2,18.9 3.4,6.1 7,12 11,17.7 4.1,5.8 8.6,11.3 13.7,16.1 5,4.8 10.8,8.5 17.1,11.2 6,2.7 12.6,4.1 19.1,4.9 6.6,0.8 13.3,1.2 20,1.4 6.6,0.2 13.2,0.2 19.8,0.3 0.3,0 0.7,0 1,0"
     id="path22" />
  <line
     x1="15.6"
     y1="127.8"
     x2="15.6"
     y2="123.1"
     style="fill:none;stroke:#204a87;stroke-width:0.38;stroke-linejoin:round"
     id="line24" />
  <line
     x1="52.9"
     y1="127.8"
     x2="52.9"
     y2="123.1"
     style="fill:none;stroke:#204a87;stroke-width:0.38;stroke-linejoin:round"
     id="line26" />
  <line
     x1="90.3"
     y1="127.8"
     x2="90.3"
     y2="123.1"
     style="fill:none;stroke:#204a87;stroke-width:0.38;stroke-linejoin:round"
     id="line28" />
  <line
     x1="164.9"
     y1="127.8"
     x2="164.9"
     y2="123.1"
     style="fill:none;stroke:#204a87;stroke-width:0.38;stroke-linejoin:round"
     id="line30" />
  <line
     x1="202.2"
     y1="127.8"
     x2="202.2"
     y2="123.1"
     style="fill:none;stroke:#204a87;stroke-width:0.38;stroke-linejoin:round"
     id="line32" />
  <line
     x1="239.5"
     y1="127.8"
     x2="239.5"
     y2="123.1"
     style="fill:none;stroke:#204a87;stroke-width:0.38;stroke-linejoin:round"
     id="line34" />
  <text
     x="44.7"
     y="139.9"
     style="font-size:12px;fill:#3465a4"
     id="text36">1.1</text>
  <text
     x="78.3"
     y="139.9"
     style="font-size:12px;fill:#3465a4"
     id="text38">1.25</text>
  <text
     x="152.2"
     y="139.9"
     style="font-size:12px;fill:#3465a4"
     id="text40">1.55</text>
  <text
     x="3.9"
     y="139.9"
     style="font-size:12px;fill:#3465a4"
     id="text42">0.95</text>
  <text
     x="227.3"
     y="139.9"
     style="font-size:12px;fill:#3465a4"
     id="text44">1.85</text>
  <text
     x="193.1"
     y="139.9"
     style="font-size:12px;fill:#3465a4"
     id="text46">1.7</text>
  <line
     x1="127.6"
     y1="122.4"
     x2="127.6"
     y2="6.6"
     style="fill:#19aeff;stroke:white;stroke-width:0.25;stroke-linejoin:round"
     id="line48" />
  <text
     x="118.3"
     y="139.9"
     style="font-size:12px;fill:#3465a4"
     id="text50">1.4</text>
  <text
     x="104"
     y="102.1"
     style="font-size:24px;fill:#000000"
     id="text52">95%</text>
  <rect
     x="1657.7"
     y="675.1"
     width="803.5"
     height="500.8"
     style="stroke-width:1"
     id="rect54" />
</svg>
