<?xml version="1.0" encoding="UTF-8" standalone="no"?>
<!-- Copyright 2021 mathsisfun.com -->
<svg xmlns:sodipodi="http://sodipodi.sourceforge.net/DTD/sodipodi-0.dtd" xmlns="http://www.w3.org/2000/svg" width="201.8" height="177.4" version="1.1" style="font-family:'Trebuchet MS'; font-size:12.8px; fill:black; stroke-width:0.5;">
<defs>
	<marker style="overflow:visible;" orient="auto">
		<path transform="matrix(-0.4,0,0,-0.4,-4,0)" style="fill:none; stroke:black; stroke-width:1pt;" d="M 0,0 5,-5 -12.5,0 5,5 Z"/>
	</marker>
	<marker style="overflow:visible;" orient="auto">
		<path transform="matrix(0.4,0,0,0.4,4,0)" style="fill:none; stroke:black; stroke-width:1pt;" d="M 0,0 5,-5 -12.5,0 5,5 Z"/>
	</marker>
	<marker style="overflow:visible;" orient="auto">
		<path transform="matrix(-0.8,0,0,-0.8,-10,0)" style="fill:#ff9900; stroke:#ff9900; stroke-width:1pt;" d="M 0,0 5,-5 -12.5,0 5,5 Z"/>
	</marker>
	<marker style="overflow:visible;" orient="auto">
		<path transform="matrix(-0.8,0,0,-0.8,-10,0)" style="fill:#005c94; stroke:#005c94; stroke-width:1pt;" d="M 0,0 5,-5 -12.5,0 5,5 Z"/>
	</marker>
</defs>
<line x1="25" y1="163.7" x2="25" y2="166.4" style="fill-opacity:0; stroke:#204a87; stroke-width:0.71;"/>
<line x1="58.1" y1="163.7" x2="58.1" y2="166.4" style="fill-opacity:0; stroke:#204a87; stroke-width:0.71;"/>
<line x1="91.3" y1="163.7" x2="91.3" y2="166.4" style="fill-opacity:0; stroke:#204a87; stroke-width:0.71;"/>
<line x1="124.5" y1="163.7" x2="124.5" y2="166.4" style="fill-opacity:0; stroke:#204a87; stroke-width:0.71;"/>
<line x1="157.7" y1="163.7" x2="157.7" y2="166.4" style="fill-opacity:0; stroke:#204a87; stroke-width:0.71;"/>
<line x1="190.8" y1="163.7" x2="190.8" y2="166.4" style="fill-opacity:0; stroke:#204a87; stroke-width:0.71;"/>
<text x="18" y="177.2" transform="scale(1.00002,0.99998)" style="fill:#013397; stroke-width:0.5;">40</text>
<text x="50.9" y="177.2" transform="scale(1.00002,0.99998)" style="fill:#013397; stroke-width:0.5;">60</text>
<text x="84" y="177.2" transform="scale(1.00002,0.99998)" style="fill:#013397; stroke-width:0.5;">80</text>
<text x="113.7" y="177.2" transform="scale(1.00002,0.99998)" style="fill:#013397; stroke-width:0.5;">100</text>
<text x="147" y="177.2" transform="scale(1.00002,0.99998)" style="fill:#013397; stroke-width:0.5;">120</text>
<text x="179.2" y="177.2" transform="scale(1.00002,0.99998)" style="fill:#013397; stroke-width:0.5;">140</text>
<line x1="17" y1="163.7" x2="17" y2="17.9" style="fill-opacity:0; stroke:#204a87; stroke-width:0.71;"/>
<line x1="17" y1="163.7" x2="14.4" y2="163.7" style="fill-opacity:0; stroke:#204a87; stroke-width:0.71;"/>
<line x1="17" y1="134.6" x2="14.4" y2="134.6" style="fill-opacity:0; stroke:#204a87; stroke-width:0.71;"/>
<line x1="17" y1="105.4" x2="14.4" y2="105.4" style="fill-opacity:0; stroke:#204a87; stroke-width:0.71;"/>
<line x1="17" y1="76.3" x2="14.4" y2="76.3" style="fill-opacity:0; stroke:#204a87; stroke-width:0.71;"/>
<line x1="17" y1="47.1" x2="14.4" y2="47.1" style="fill-opacity:0; stroke:#204a87; stroke-width:0.71;"/>
<line x1="17" y1="17.9" x2="14.4" y2="17.9" style="fill-opacity:0; stroke:#204a87; stroke-width:0.71;"/>
<text x="6.5" y="168.1" transform="scale(1.00002,0.99998)" style="fill:#986601; stroke-width:0.5;">0</text>
<text x="6.5" y="138.8" transform="scale(1.00002,0.99998)" style="fill:#986601; stroke-width:0.5;">5</text>
<text x="-0.6" y="109.5" transform="scale(1.00002,0.99998)" style="fill:#986601; stroke-width:0.5;">10</text>
<text x="-0.6" y="80.3" transform="scale(1.00002,0.99998)" style="fill:#986601; stroke-width:0.5;">15</text>
<text x="-0.4" y="51.4" transform="scale(1.00002,0.99998)" style="fill:#986601; stroke-width:0.5;">20</text>
<text x="-0.4" y="22.2" transform="scale(1.00002,0.99998)" style="fill:#986601; stroke-width:0.5;">25</text>
<polyline points="16.67 , 264.08 353.02 , 264.08 353.02 , 8.33 16.67 , 8.33 16.67 , 264.08 " transform="matrix(0.548607,0,0,0.639061,7.86847,-4.96833)" style="fill-opacity:0; stroke:#204a87; stroke-width:1.11;"/>
<rect x="25" y="140.9" width="16.6" height="22.9" style="stop-color:black; stop-opacity:1; fill:#d6af58; stroke:black; stroke-width:0.52;"/>
<rect x="41.6" y="135.2" width="16.6" height="28.6" style="stop-color:black; stop-opacity:1; fill:#d6af58; stroke:black; stroke-width:0.52;"/>
<rect x="58.2" y="120.6" width="16.6" height="43.1" style="stop-color:black; stop-opacity:1; fill:#d6af58; stroke:black; stroke-width:0.52;"/>
<rect x="74.8" y="124.3" width="16.6" height="39.5" style="stop-color:black; stop-opacity:1; fill:#d6af58; stroke:black; stroke-width:0.52;"/>
<rect x="91.3" y="93.2" width="16.6" height="70.6" style="stop-color:black; stop-opacity:1; fill:#d6af58; stroke:black; stroke-width:0.52;"/>
<rect x="107.9" y="85.2" width="16.6" height="78.6" style="stop-color:black; stop-opacity:1; fill:#d6af58; stroke:black; stroke-width:0.52;"/>
<rect x="124.5" y="43.6" width="16.6" height="120.2" style="stop-color:black; stop-opacity:1; fill:#d6af58; stroke:black; stroke-width:0.52;"/>
<rect x="141.1" y="12.9" width="16.6" height="150.9" style="stop-color:black; stop-opacity:1; fill:#d6af58; stroke:black; stroke-width:0.52;"/>
<rect x="157.6" y="105.8" width="16.6" height="58" style="stop-color:black; stop-opacity:1; fill:#d6af58; stroke:black; stroke-width:0.52;"/>
<rect x="174.2" y="147.4" width="16.6" height="16.4" style="stop-color:black; stop-opacity:1; fill:#d6af58; stroke:black; stroke-width:0.52;"/>
</svg>