<?xml version="1.0" encoding="UTF-8" standalone="no"?>
<!-- Copyright 2021 mathsisfun.com -->
<svg xmlns:sodipodi="http://sodipodi.sourceforge.net/DTD/sodipodi-0.dtd" xmlns="http://www.w3.org/2000/svg" width="206.4" height="177.4" version="1.1" style="font-family:'Trebuchet MS'; font-size:12.8px; fill:black; stroke-width:0.5;">
<defs>
	<marker style="overflow:visible;" orient="auto">
		<path transform="matrix(-0.4,0,0,-0.4,-4,0)" style="fill:none; stroke:black; stroke-width:1pt;" d="M 0,0 5,-5 -12.5,0 5,5 Z"/>
	</marker>
	<marker style="overflow:visible;" orient="auto">
		<path transform="matrix(0.4,0,0,0.4,4,0)" style="fill:none; stroke:black; stroke-width:1pt;" d="M 0,0 5,-5 -12.5,0 5,5 Z"/>
	</marker>
	<marker style="overflow:visible;" orient="auto">
		<path transform="matrix(-0.8,0,0,-0.8,-10,0)" style="fill:#ff9900; stroke:#ff9900; stroke-width:1pt;" d="M 0,0 5,-5 -12.5,0 5,5 Z"/>
	</marker>
	<marker style="overflow:visible;" orient="auto">
		<path transform="matrix(-0.8,0,0,-0.8,-10,0)" style="fill:#005c94; stroke:#005c94; stroke-width:1pt;" d="M 0,0 5,-5 -12.5,0 5,5 Z"/>
	</marker>
</defs>
<line x1="29.5" y1="163.7" x2="29.5" y2="166.4" style="fill-opacity:0; stroke:#204a87; stroke-width:0.71;"/>
<line x1="62.7" y1="163.7" x2="62.7" y2="166.4" style="fill-opacity:0; stroke:#204a87; stroke-width:0.71;"/>
<line x1="95.8" y1="163.7" x2="95.8" y2="166.4" style="fill-opacity:0; stroke:#204a87; stroke-width:0.71;"/>
<line x1="129.1" y1="163.7" x2="129.1" y2="166.4" style="fill-opacity:0; stroke:#204a87; stroke-width:0.71;"/>
<line x1="162.2" y1="163.7" x2="162.2" y2="166.4" style="fill-opacity:0; stroke:#204a87; stroke-width:0.71;"/>
<line x1="195.4" y1="163.7" x2="195.4" y2="166.4" style="fill-opacity:0; stroke:#204a87; stroke-width:0.71;"/>
<text x="26.2" y="177.2" transform="scale(1.00002,0.99998)" style="fill:#013397; stroke-width:0.5;">0</text>
<text x="55.5" y="177.2" transform="scale(1.00002,0.99998)" style="fill:#013397; stroke-width:0.5;">30</text>
<text x="88.6" y="177.2" transform="scale(1.00002,0.99998)" style="fill:#013397; stroke-width:0.5;">60</text>
<text x="122.8" y="177.2" transform="scale(1.00002,0.99998)" style="fill:#013397; stroke-width:0.5;">90</text>
<text x="151.5" y="177.2" transform="scale(1.00002,0.99998)" style="fill:#013397; stroke-width:0.5;">120</text>
<text x="183.8" y="177.2" transform="scale(1.00002,0.99998)" style="fill:#013397; stroke-width:0.5;">150</text>
<line x1="21.6" y1="163.7" x2="21.6" y2="17.9" style="fill-opacity:0; stroke:#204a87; stroke-width:0.71;"/>
<line x1="21.6" y1="163.7" x2="18.9" y2="163.7" style="fill-opacity:0; stroke:#204a87; stroke-width:0.71;"/>
<line x1="21.6" y1="134.6" x2="18.9" y2="134.6" style="fill-opacity:0; stroke:#204a87; stroke-width:0.71;"/>
<line x1="21.6" y1="105.4" x2="18.9" y2="105.4" style="fill-opacity:0; stroke:#204a87; stroke-width:0.71;"/>
<line x1="21.6" y1="76.3" x2="18.9" y2="76.3" style="fill-opacity:0; stroke:#204a87; stroke-width:0.71;"/>
<line x1="21.6" y1="47.1" x2="18.9" y2="47.1" style="fill-opacity:0; stroke:#204a87; stroke-width:0.71;"/>
<line x1="21.6" y1="17.9" x2="18.9" y2="17.9" style="fill-opacity:0; stroke:#204a87; stroke-width:0.71;"/>
<text x="11.1" y="168.1" transform="scale(1.00002,0.99998)" style="fill:#986601; stroke-width:0.5;">0</text>
<text x="0.3" y="138.8" transform="scale(1.00002,0.99998)" style="fill:#986601; stroke-width:0.5;">0.5</text>
<text x="-0.5" y="109.5" transform="scale(1.00002,0.99998)" style="fill:#986601; stroke-width:0.5;">1.0</text>
<text x="-0.5" y="80.3" transform="scale(1.00002,0.99998)" style="fill:#986601; stroke-width:0.5;">1.5</text>
<text x="-0.3" y="51.4" transform="scale(1.00002,0.99998)" style="fill:#986601; stroke-width:0.5;">2.0</text>
<text x="-0.4" y="22.2" transform="scale(1.00002,0.99998)" style="fill:#986601; stroke-width:0.5;">2.5</text>
<polyline points="16.67 , 264.08 353.02 , 264.08 353.02 , 8.33 16.67 , 8.33 16.67 , 264.08 " transform="matrix(0.548607,0,0,0.639061,12.4347,-4.96833)" style="fill-opacity:0; stroke:#204a87; stroke-width:1.11;"/>
<rect x="29.6" y="12.2" width="16.6" height="151.6" style="stop-color:black; fill:#0084c8; stroke:black; stroke-width:0.5;"/>
<rect x="46.1" y="106.7" width="16.6" height="57.1" style="stop-color:black; fill:#0084c8; stroke:black; stroke-width:0.5;"/>
<rect x="62.7" y="41" width="16.6" height="122.8" style="stop-color:black; fill:#0084c8; stroke:black; stroke-width:0.5;"/>
<rect x="79.3" y="130.2" width="16.6" height="33.6" style="stop-color:black; fill:#0084c8; stroke:black; stroke-width:0.5;"/>
<rect x="95.9" y="105.4" width="16.6" height="58.4" style="stop-color:black; fill:#0084c8; stroke:black; stroke-width:0.5;"/>
<rect x="112.5" y="52.9" width="16.6" height="110.9" style="stop-color:black; fill:#0084c8; stroke:black; stroke-width:0.5;"/>
<rect x="129" y="6.2" width="16.6" height="157.6" style="stop-color:black; fill:#0084c8; stroke:black; stroke-width:0.5;"/>
<rect x="145.6" y="87.9" width="16.6" height="75.9" style="stop-color:black; fill:#0084c8; stroke:black; stroke-width:0.5;"/>
<rect x="162.2" y="64.4" width="16.6" height="99.4" style="stop-color:black; fill:#0084c8; stroke:black; stroke-width:0.5;"/>
<rect x="178.8" y="105.8" width="16.6" height="58" style="stop-color:black; fill:#0084c8; stroke:black; stroke-width:0.5;"/>
</svg>