<?xml version="1.0" encoding="UTF-8" standalone="no"?>
<!-- Copyright 2017 mathsisfun.com -->
<svg xmlns="http://www.w3.org/2000/svg" width="422.4" height="93.2" version="1.1">
<defs>
<marker style="overflow:visible;" orient="auto" id="id02">
<path d="M 0,0 5,-5 -12.5,0 5,5 Z" transform="matrix(0.8,0,0,0.8,10,0)" style="stroke:black; stroke-width:1pt;" />
</marker>
<marker style="overflow:visible;" orient="auto" id="id01">
<path d="M 0,0 5,-5 -12.5,0 5,5 Z" transform="matrix(-0.8,0,0,-0.8,-10,0)" style="stroke:black; stroke-width:1pt;" />
</marker>
</defs>
<g transform="translate(2181.96,-431.874)">
<rect x="359.1" y="-120" width="215.7" height="83.1" />
<path d="m -2123.3,479.5 v 17.8" style="fill:none; stroke:#ff0000; stroke-width:0.24px;" />
<path d="m -2089.9,479.5 v 17.8" style="fill:none; stroke:#ff0000; stroke-width:0.24px;" />
<path d="m -2056.6,479.5 v 17.8" style="fill:none; stroke:#ff0000; stroke-width:0.24px;" />
<path d="m -2023.2,479.5 v 17.8" style="fill:none; stroke:#ff0000; stroke-width:0.24px;" />
<path d="m -1956.5,479.5 v 17.8" style="fill:none; stroke:#ff0000; stroke-width:0.24px;" />
<path d="m -1923.1,479.5 v 17.8" style="fill:none; stroke:black; stroke-width:0.73;" />
<path d="m -1889.8,479.5 v 17.8" style="fill:none; stroke:#0000ff; stroke-width:0.24px;" />
<path d="m -1856.4,479.5 v 17.8" style="fill:none; stroke:#0000ff; stroke-width:0.24px;" />
<path d="m -1823,479.5 v 17.8" style="fill:none; stroke:#0000ff; stroke-width:0.24px;" />
<path d="m -1789.7,479.5 v 17.8" style="fill:none; stroke:#0000ff; stroke-width:0.24px;" />
<text x="-1897.2" y="511.9" style="font-family:Arial; font-size:11.7px; color:black; overflow:visible; fill:#0000ff; stroke-width:0.5px;">0.1</text>
<text x="-1864.3" y="511.9" style="font-family:Arial; font-size:11.7px; color:black; overflow:visible; fill:#0000ff; stroke-width:0.5px;">0.2</text>
<text x="-1831.1" y="511.8" style="font-family:Arial; font-size:11.7px; color:black; overflow:visible; fill:#0000ff; stroke-width:0.5px;">0.3</text>
<text x="-1798.1" y="511.8" style="font-family:Arial; font-size:11.7px; color:black; overflow:visible; fill:#0000ff; stroke-width:0.5px;">0.4</text>
<text x="-1968.1" y="511.9" style="font-family:Arial; font-size:11.7px; color:black; overflow:visible; fill:#ff0000; stroke-width:0.5px;">-0.1</text>
<text x="-2002" y="511.9" style="font-family:Arial; font-size:11.7px; color:black; overflow:visible; fill:#ff0000; stroke-width:0.5px;">-0.2</text>
<text x="-2034.8" y="511.8" style="font-family:Arial; font-size:11.7px; color:black; overflow:visible; fill:#ff0000; stroke-width:0.5px;">-0.3</text>
<text x="-2068.9" y="511.8" style="font-family:Arial; font-size:11.7px; color:black; overflow:visible; fill:#ff0000; stroke-width:0.5px;">-0.4</text>
<text x="-2101.7" y="511.7" style="font-family:Arial; font-size:11.7px; color:black; overflow:visible; fill:#ff0000; stroke-width:0.5px;">-0.5</text>
<text x="-2135.3" y="511.8" style="font-family:Arial; font-size:11.7px; color:black; overflow:visible; fill:#ff0000; stroke-width:0.5px;">-0.6</text>
<text x="-2169.1" y="511.8" style="font-family:Arial; font-size:11.7px; color:black; overflow:visible; fill:#ff0000; stroke-width:0.5px;">-0.7</text>
<path d="m -2156.7,479.5 v 17.8" style="fill:none; stroke:#ff0000; stroke-width:0.24px;" />
<path d="m -1989.8,479.5 v 17.8" style="fill:none; stroke:#ff0000; stroke-width:0.24px;" />
<path d="m -1971.2,489.5 h 209.8" style="marker-end:url(#id01); fill:#0000ff; fill-opacity:0.75; stroke:#0000ff; stroke-width:0.92;" />
<path d="m -2180.2,489.5 h 209.4" style="marker-start:url(#id02); fill:#ff0000; fill-opacity:0.75; stroke:#ff0000; stroke-width:0.92;" />
<text x="-1927.4" y="512.9" style="font-family:Arial; font-size:16.9px; color:black; overflow:visible; fill:black; stroke-width:0.5px;">0</text>
<circle cx="-2107.3" cy="489.5" r="7.75528" style="color:black; overflow:visible; fill:#204a87; stroke:#19aeff; stroke-width:1.09;" />
<circle cx="-1902.8" cy="489.5" r="6.25252" style="color:black; overflow:visible; fill:#204a87; stroke-width:1.09;" />
<circle cx="-1886.8" cy="489.5" r="6.25252" style="color:black; overflow:visible; fill:#204a87; stroke-width:1.09;" />
<circle cx="-1881.8" cy="489.5" r="6.25252" style="color:black; overflow:visible; fill:#204a87; stroke-width:1.09;" />
<circle cx="-1873.8" cy="489.5" r="6.25252" style="color:black; overflow:visible; fill:#204a87; stroke-width:1.09;" />
<g transform="matrix(0.5,0,0,0.5,-1030.13,300.185)">
<path d="m -2121.6,391.7 32.3,29.6 9,9.3 3.5,13 12.3,4.5 22,-4.8 12.8,-8.3 7,-6.5 -8,-25.8 3.8,-11.3 -4.8,-25.8 -7.8,-24.3 -26.8,-23.5 -33.6,-27.8 -20.8,-14.3 -20.8,-11.3 -10,1.8 -0.8,7.8 4.5,5.8 18.8,12.8 23.5,18.5 3.5,5 -0.8,2 -3.8,-0.3 -7.3,8.5 -1,9 2,5.5 -6.3,-1 -6,11.8 c 0,0 2.5,7 2.5,8.8 0,1.8 -5.5,5.5 -5.5,5.5 l -1.5,6.5 4.3,17.3 z" style="fill:#bdffc0; stroke:black; stroke-width:1px;" />
<g transform="matrix(0.019629,0.016348,-0.01636,0.019644,-2059.57,174.823)">
<path d="m 2820,4399 1514,56 c 84,-28 158,-42 222,-42 167,0 373,97 618,292 246,194 406,305 480,333 333,222 564,389 694,500 130,111 227,268 292,472 46,56 185,158 416,306 232,148 380,273 445,375 0,324 -63,625 -188,902 -125,278 -308,538 -548,778 -84,37 -178,81 -285,132 -106,51 -197,77 -271,77 -28,0 -55,0 -83,0 -37,-19 -72,-42 -104,-70 -33,-28 -118,-83 -257,-167 -139,-83 -218,-129 -236,-138 -158,37 -348,55 -570,55 -176,0 -456,-18 -840,-55 -384,-37 -627,-56 -729,-56 -195,-139 -357,-257 -486,-354 -130,-97 -186,-229 -167,-396 37,-46 56,-88 56,-125 0,-46 -56,-90 -167,-132 -111,-42 -178,-99 -202,-174 -23,-74 -44,-157 -62,-250 -19,-92 -28,-148 -28,-166 0,-102 28,-181 84,-236 -195,-130 -292,-338 -292,-625 0,-56 9,-139 28,-250 46,-47 64,-79 55,-98 l -55,-27 c -158,27 -311,41 -459,41 -92,0 -231,-4 -416,-14 -186,-9 -320,-13 -403,-13 -232,0 -421,23 -570,69 -157,9 -273,14 -347,14 -102,0 -190,-19 -264,-56 -139,-101 -194,-217 -166,-347 74,-204 231,-338 472,-403 315,-46 537,-78 667,-97 129,-46 245,-74 347,-83 102,-9 236,-14 403,-14 92,0 236,5 430,14 195,9 343,14 445,14 166,0 342,-14 527,-42 z m 1792,2028 c 18,120 81,224 187,312 107,88 234,174 382,257 l -41,42 c -102,-9 -192,-46 -271,-111 -79,-65 -155,-148 -229,-250 h -70 c -55,37 -83,79 -83,125 46,120 69,208 69,264 -55,148 -159,273 -312,375 -153,102 -303,199 -451,291 -47,93 -93,186 -139,278 l 527,56 c 195,0 357,4 487,14 129,9 250,18 361,27 231,0 433,-32 604,-97 171,-65 303,-185 396,-361 46,-148 92,-296 139,-444 27,55 60,111 97,166 65,28 106,19 125,-28 9,38 25,75 48,112 24,37 63,88 118,152 l -55,-27 c -46,-28 -83,-12 -111,48 -28,60 -67,155 -118,285 -51,130 -169,194 -354,194 138,-157 243,-275 312,-354 69,-79 104,-160 104,-243 -55,-74 -102,-111 -139,-111 0,139 -25,273 -76,403 -51,129 -132,231 -243,305 37,56 86,107 146,153 60,46 122,88 187,125 158,19 287,-16 389,-104 102,-88 218,-220 347,-396 l -222,-180 c 93,27 185,55 278,83 -259,-232 -519,-463 -778,-695 19,-18 12,-53 -21,-104 -32,-51 -34,-90 -7,-118 269,93 491,232 667,417 -65,-28 -162,-81 -292,-160 -129,-79 -227,-127 -291,-146 74,93 139,165 194,216 56,51 241,201 556,451 37,37 74,39 111,7 37,-32 60,-72 69,-118 l -347,-250 c 28,0 86,30 174,90 88,60 159,90 215,90 55,-64 92,-155 111,-270 18,-116 28,-225 28,-327 -65,-18 -174,-83 -327,-194 -152,-111 -252,-171 -298,-181 l 486,375 c -83,0 -185,-48 -306,-146 -120,-97 -194,-155 -222,-173 -46,55 -86,104 -118,146 -32,41 -67,62 -104,62 -28,-28 -19,-69 28,-125 46,-55 69,-97 69,-125 -74,139 -238,236 -493,292 -255,55 -391,88 -410,97 l -583,-125 v 97 C 4945,6723 4779,6575 4612,6427 Z M 890,4580 c -65,18 -102,76 -111,173 -10,97 -24,160 -42,188 37,18 62,62 76,132 14,69 30,113 49,132 56,-10 125,-10 208,0 84,9 181,18 292,27 83,0 167,-14 250,-41 -28,-74 -42,-153 -42,-236 0,-74 5,-149 14,-223 9,-74 19,-148 28,-222 -37,-9 -102,-14 -194,-14 -65,0 -153,12 -264,35 -111,23 -199,39 -264,49 z m 2666,-84 14,139 c -18,-28 -41,-44 -69,-48 -28,-5 -46,11 -56,48 l -69,-125 c -19,0 -37,28 -56,83 -27,-46 -60,-69 -97,-69 -148,65 -259,102 -333,111 -84,-9 -137,37 -160,139 -23,102 -62,162 -118,181 -130,18 -236,9 -319,-28 -84,-37 -167,-107 -250,-209 -38,38 -47,86 -28,146 18,60 28,109 28,146 55,130 145,220 270,271 125,51 280,76 466,76 157,0 273,0 347,0 157,0 264,-18 319,-55 56,-37 93,-97 111,-181 -9,74 -13,144 -13,209 129,18 236,-5 319,-70 l -83,139 c 83,28 194,42 333,42 176,0 306,-42 389,-125 83,-10 143,-14 180,-14 56,0 98,18 125,55 -250,47 -444,125 -583,236 l 667,875 c 203,75 382,135 534,181 153,46 290,69 410,69 213,0 380,-74 500,-222 56,-102 93,-180 111,-236 19,-55 28,-129 28,-222 0,-56 -35,-151 -104,-285 -70,-134 -306,-331 -708,-590 -403,-259 -651,-435 -743,-528 -38,19 -79,14 -125,-14 -47,-28 -98,-65 -153,-111 -139,28 -278,42 -417,42 -120,0 -245,-7 -375,-21 -130,-14 -227,-25 -292,-35 z M 709,4635 c -259,0 -467,19 -625,56 -157,37 -296,115 -416,236 -19,55 -28,106 -28,153 0,111 37,180 111,208 65,9 127,14 187,14 61,0 123,0 188,0 92,0 190,-5 292,-14 101,-9 199,-28 291,-56 z m 1417,28 c 74,204 217,273 430,208 -9,-92 -62,-146 -159,-159 -98,-14 -188,-31 -271,-49 z m 458,83 c 19,47 37,70 56,70 v -56 z m 528,750 c -102,0 -234,-11 -396,-34 -162,-24 -252,-35 -271,-35 -83,0 -162,14 -236,41 0,223 9,382 28,480 18,97 93,173 222,229 139,28 313,46 521,55 208,10 326,14 354,14 139,0 278,0 417,0 139,0 282,-4 430,-14 l 70,-69 c -74,-111 -111,-213 -111,-306 0,-46 14,-97 41,-152 -37,-74 -132,-125 -284,-153 -153,-28 -257,-60 -313,-97 z m 1208,417 c -18,55 -27,97 -27,125 0,46 13,83 41,111 19,19 44,21 77,7 32,-14 48,-35 48,-63 z m -41,403 c 18,83 37,159 55,229 19,69 60,104 125,104 0,-185 -9,-287 -28,-306 -83,-27 -134,-37 -152,-27 z m -1778,41 c -83,47 -125,111 -125,195 37,120 60,213 69,278 28,55 67,99 118,132 51,32 114,62 188,90 546,-56 1065,-158 1555,-306 -27,-55 -55,-118 -83,-187 -28,-70 -28,-141 0,-216 -74,10 -157,14 -250,14 -93,0 -162,0 -208,0 -148,0 -294,0 -438,0 -143,0 -289,-4 -437,-14 -167,0 -297,5 -389,14 z m 4361,28 c 65,65 150,141 257,229 106,88 197,142 271,160 -74,-83 -167,-160 -278,-229 -111,-70 -194,-123 -250,-160 z M 1737,4510 c 0,74 -12,185 -35,333 -23,149 -34,246 -34,292 18,46 74,70 166,70 93,-10 153,-14 181,-14 l -84,-167 c -27,-56 -41,-120 -41,-194 0,-139 51,-237 153,-292 64,0 166,18 305,55 139,38 245,56 320,56 129,0 231,-51 305,-153 -213,0 -421,3 -625,7 -204,5 -407,7 -611,7 z m 2486,2417 c 46,46 93,88 139,125 l -14,-97 c 0,-56 -23,-84 -69,-84 -47,0 -65,19 -56,56 z m -139,-14 c -148,55 -363,109 -646,160 -282,51 -479,95 -590,132 -28,46 -42,92 -42,138 0,56 10,112 28,167 19,56 37,111 56,167 176,120 310,208 403,264 92,55 180,88 263,97 74,-120 112,-185 112,-195 -84,38 -167,75 -250,112 18,-37 16,-61 -7,-70 -24,-9 -44,-23 -63,-42 185,-92 380,-194 583,-305 204,-111 366,-236 487,-375 -84,37 -156,25 -216,-35 -60,-60 -99,-132 -118,-215 z m 2403,361 -42,-69 z m 236,194 42,42 z m -2750,-347 -14,222 -28,-291 z m -55,-722 c 37,0 69,46 97,139 l -84,250 c 10,-83 5,-213 -13,-389 z m -28,-736 c 28,9 55,51 83,125 -18,130 -55,231 -111,305 -19,-46 -16,-120 7,-222 23,-102 30,-171 21,-208 z m 2750,1986 55,42 -125,-84 z" style="fill:black; stroke:white;" />
</g>
</g>
<text x="-2064.4" y="455.6" style="font-family:'Comic Sans MS'; font-size:29.2px; font-style:italic; color:black; overflow:visible; fill:#ef2929; stroke-width:0.5px;">Out, Liar!</text>
</g>
</svg>
