<?xml version="1.0" encoding="UTF-8" standalone="no"?>
<!-- Copyright 2017 mathsisfun.com -->
<svg xmlns="http://www.w3.org/2000/svg" width="328.3" height="103.4" version="1.1">
<defs>
</defs>
<rect x="1.1" y="53.2" width="40.5" height="27.4" style="color:black; overflow:visible; fill:#8fd7ff; stroke:black; stroke-width:0.5;" />
<rect x="41.6" y="53.2" width="162.3" height="27.4" style="color:black; overflow:visible; fill:#8fd7ff; stroke:black; stroke-width:0.5;" />
<rect x="203.8" y="53.2" width="96.7" height="27.4" style="color:black; overflow:visible; fill:#8fd7ff; stroke:black; stroke-width:0.5;" />
<rect x="300.5" y="53.2" width="28" height="27.4" style="color:black; overflow:visible; fill:#8fd7ff; stroke:black; stroke-width:0.5;" />
<path d="m 251.6,30 v 56.8" style="fill:none; stroke:#ef2929; stroke-width:2.14; stroke-dasharray:6.4, 2.1;" />
<text x="35.8" y="22.1" style="font-family:Georgia; font-size:17.3px; font-style:italic; color:black; overflow:visible; fill:#ef2929; stroke-width:0.5px;">Percentile Rank for &quot;B&quot;</text>
<text x="15" y="73" style="font-family:Arial; font-size:17px; overflow:visible; fill:#013397; stroke-width:0.5;">D</text>
<text x="114.2" y="73" style="font-family:Arial; font-size:17px; overflow:visible; fill:#013397; stroke-width:0.5;">C</text>
<text x="245.7" y="73" style="font-family:Arial; font-size:17px; overflow:visible; fill:#013397; stroke-width:0.5;">B</text>
<text x="307.9" y="73" style="font-family:Arial; font-size:17px; overflow:visible; fill:#013397; stroke-width:0.5;">A</text>
<text x="2" y="102" style="font-family:Arial; font-size:17px; overflow:visible; fill:#013397; stroke-width:0.5;">12%</text>
<text x="105.2" y="102" style="font-family:Arial; font-size:17px; overflow:visible; fill:#013397; stroke-width:0.5;">50%</text>
<text x="238" y="102.9" style="font-family:Arial; font-size:17px; overflow:visible; fill:#013397; stroke-width:0.5;">30%</text>
<text x="304.9" y="102" style="font-family:Arial; font-size:17px; overflow:visible; fill:#013397; stroke-width:0.5;">8%</text>
<g transform="matrix(0.496329,0,0,0.5,-6.408,-97.114)">
<path d="m 13.4,284.8 c 0.5,-0.5 1,-1.1 1.5,-1.6 1.1,-1.2 2.2,-2.2 3.4,-3.2 1.4,-1.3 2.9,-2.5 4.4,-3.7 1.5,-1.2 3,-2.4 4.6,-3.5 2.8,-2 5.7,-3.9 8.7,-5.3 2.1,-1 4.3,-1.8 6.5,-2.5 2.5,-0.8 5.1,-1.4 7.6,-2 2.7,-0.6 5.3,-1.2 8,-1.6 3.3,-0.5 6.6,-0.7 9.9,-1 3.3,-0.2 6.6,-0.3 9.9,-0.4 3.2,0 6.4,0 9.5,0.3 3.3,0.3 6.7,0.6 10,0.9 3.2,0.4 6.4,0.8 9.6,1.2 3.1,0.4 6.1,0.8 9.1,1.3 3.1,0.5 6.2,1 9.3,1.4 3.1,0.5 6.1,0.9 9.2,1.3 3.4,0.4 6.8,0.8 10.2,1.1 3.2,0.3 6.3,0.6 9.5,0.9 3,0.3 6,0.5 9.1,0.7 2.9,0.2 5.8,0.4 8.7,0.6 2.8,0.2 5.6,0.3 8.4,0.4 2.7,0.1 5.4,0 8,0 2.6,0 5.2,-0.1 7.7,-0.2 2.4,-0.1 4.8,-0.3 7.2,-0.5 2.3,-0.2 4.5,-0.4 6.8,-0.7 2.1,-0.2 4.3,-0.5 6.4,-0.9 2,-0.3 4,-0.7 6.1,-1.1 1.9,-0.3 3.9,-0.7 5.8,-1.1 1.8,-0.4 3.7,-0.8 5.5,-1.2 1.8,-0.4 3.7,-0.7 5.5,-1.1 1.7,-0.5 3.5,-0.8 5.3,-1.2 1.7,-0.4 3.3,-0.8 4.9,-1.3 1.5,-0.4 3.1,-0.9 4.6,-1.4 1.4,-0.6 2.8,-1.2 4.1,-1.9 1.4,-0.8 6.4,-4 0.3,-0.2 1.2,-0.7 2.3,-1.5 3.4,-2.4 1,-0.9 2,-2 2.9,-3 0.6,-0.8 0.3,-0.4 0.9,-1.2 0,0 6.7,1.5 6.7,1.5 v 0 c -0.6,0.8 -0.3,0.4 -0.9,1.2 -0.9,1.3 -1.9,2.5 -3,3.7 -1.1,1.2 -2.3,2.3 -3.6,3.2 -2.5,1.6 -5,3.3 -7.7,4.5 -1.5,0.6 -3,1.3 -4.5,1.8 -1.6,0.5 -3.2,0.9 -4.8,1.4 -1.7,0.4 -3.4,0.9 -5.1,1.2 -1.8,0.4 -3.5,0.8 -5.3,1.2 -1.8,0.4 -3.7,0.7 -5.5,1.1 -1.9,0.4 -3.7,0.8 -5.6,1.1 -1.9,0.4 -3.9,0.7 -5.8,1.1 -2,0.4 -4.1,0.7 -6.2,1 -2.2,0.3 -4.4,0.6 -6.5,0.8 -2.3,0.2 -4.6,0.5 -6.9,0.6 -2.4,0.2 -4.9,0.3 -7.3,0.4 -2.6,0 -5.2,0.1 -7.8,0.2 -2.7,0 -5.5,0 -8.2,0 -2.9,-0.1 -5.7,-0.3 -8.5,-0.5 -2.9,-0.2 -5.8,-0.4 -8.7,-0.6 -3,-0.2 -6.1,-0.5 -9.1,-0.8 -3.2,-0.3 -6.4,-0.6 -9.5,-1 -3.4,-0.4 -6.8,-0.7 -10.2,-1.2 -3.1,-0.4 -6.2,-0.8 -9.3,-1.3 -3.1,-0.5 -6.2,-1 -9.3,-1.4 -3,-0.4 -6,-0.9 -9.1,-1.2 -3.2,-0.4 -6.3,-0.8 -9.5,-1.1 -3.3,-0.3 -6.6,-0.6 -9.8,-0.8 -3.1,-0.2 -6.2,-0.2 -9.3,-0.1 -3.2,0 -6.5,0.2 -9.7,0.5 -3.2,0.2 -6.4,0.5 -9.5,1.1 -2.6,0.5 -5.2,1.1 -7.8,1.7 -2.4,0.6 -4.9,1.3 -7.3,2.1 -2,0.7 -4,1.6 -6,2.6 -0.9,0.5 -0.8,0.4 -1.7,1 -0.3,0.2 -1.1,0.7 -0.8,0.5 5.4,-3.4 2.3,-1.5 1.1,-0.7 -1.5,1 -3,2.1 -4.5,3.2 -1.4,1.2 -2.9,2.3 -4.4,3.5 -1.1,1 -2.2,1.9 -3.3,2.9 -0.5,0.5 -1.1,1 -1.5,1.6 0,0 -6.5,-2.1 -6.5,-2.1 z" style="color:black; overflow:visible; fill:#ef2929; stroke-width:6;" />
<path d="m 522.6,284.8 c -0.5,-0.5 -1,-1.1 -1.5,-1.6 -1.1,-1.2 -2.2,-2.2 -3.4,-3.2 -1.4,-1.3 -2.9,-2.5 -4.4,-3.7 -1.5,-1.2 -3,-2.4 -4.6,-3.5 -2.8,-2 -5.7,-3.9 -8.7,-5.3 -2.1,-1 -4.3,-1.8 -6.5,-2.5 -2.5,-0.8 -5.1,-1.4 -7.6,-2 -2.7,-0.6 -5.3,-1.2 -8,-1.6 -3.3,-0.5 -6.6,-0.7 -9.9,-1 -3.3,-0.2 -6.6,-0.3 -9.9,-0.4 -3.2,0 -6.4,0 -9.5,0.3 -3.3,0.3 -6.7,0.6 -10,0.9 -3.2,0.4 -6.4,0.8 -9.6,1.2 -3.1,0.4 -6.1,0.8 -9.1,1.3 -3.1,0.5 -6.2,1 -9.3,1.4 -3.1,0.5 -6.1,0.9 -9.2,1.3 -3.4,0.4 -6.8,0.8 -10.2,1.1 -3.2,0.3 -6.3,0.6 -9.5,0.9 -3,0.3 -6,0.5 -9.1,0.7 -2.9,0.2 -5.8,0.4 -8.7,0.6 -2.8,0.2 -5.6,0.3 -8.4,0.4 -2.7,0.1 -5.4,0 -8,0 -2.6,0 -5.2,-0.1 -7.7,-0.2 -2.4,-0.1 -4.8,-0.3 -7.2,-0.5 -2.3,-0.2 -4.5,-0.4 -6.8,-0.7 -2.1,-0.2 -4.3,-0.5 -6.4,-0.9 -2,-0.3 -4,-0.7 -6.1,-1.1 -1.9,-0.3 -3.9,-0.7 -5.8,-1.1 -1.8,-0.4 -3.7,-0.8 -5.5,-1.2 -1.8,-0.4 -3.7,-0.7 -5.5,-1.1 -1.8,-0.5 -3.5,-0.8 -5.3,-1.2 -1.7,-0.4 -3.3,-0.8 -4.9,-1.3 -1.5,-0.4 -3.1,-0.9 -4.6,-1.4 -1.4,-0.6 -2.8,-1.2 -4.1,-1.9 -1.4,-0.8 -6.4,-4 -0.3,-0.2 -1.2,-0.7 -2.3,-1.5 -3.4,-2.4 -1,-0.9 -2,-2 -2.9,-3 -0.6,-0.8 -0.3,-0.4 -0.9,-1.2 0,0 -6.7,1.5 -6.7,1.5 v 0 c 0.6,0.8 0.3,0.4 0.9,1.2 0.9,1.3 1.9,2.5 3,3.7 1.1,1.2 2.3,2.3 3.6,3.2 2.5,1.6 5,3.3 7.7,4.5 1.5,0.6 3,1.3 4.5,1.8 1.6,0.5 3.2,0.9 4.8,1.4 1.7,0.4 3.4,0.9 5.1,1.2 1.8,0.4 3.5,0.8 5.3,1.2 1.8,0.4 3.7,0.7 5.5,1.1 1.9,0.4 3.7,0.8 5.6,1.1 1.9,0.4 3.9,0.7 5.8,1.1 2,0.4 4.1,0.7 6.2,1 2.2,0.3 4.4,0.6 6.5,0.8 2.3,0.2 4.6,0.5 6.9,0.6 2.4,0.2 4.9,0.3 7.3,0.4 2.6,0 5.2,0.1 7.8,0.2 2.7,0 5.5,0 8.2,0 2.9,-0.1 5.7,-0.3 8.5,-0.5 2.9,-0.2 5.8,-0.4 8.7,-0.6 3,-0.2 6.1,-0.5 9.1,-0.8 3.2,-0.3 6.4,-0.6 9.5,-1 3.4,-0.4 6.8,-0.7 10.2,-1.2 3.1,-0.4 6.2,-0.8 9.3,-1.3 3.1,-0.5 6.2,-1 9.3,-1.4 3,-0.4 6,-0.9 9.1,-1.2 3.2,-0.4 6.4,-0.8 9.5,-1.1 3.3,-0.3 6.6,-0.6 9.8,-0.8 3.1,-0.2 6.2,-0.2 9.3,-0.1 3.2,0 6.5,0.2 9.7,0.5 3.2,0.2 6.4,0.5 9.5,1.1 2.6,0.5 5.2,1.1 7.8,1.7 2.4,0.6 4.9,1.3 7.3,2.1 2,0.7 4,1.6 6,2.6 0.9,0.5 0.8,0.4 1.7,1 0.3,0.2 1.1,0.7 0.8,0.5 -5.4,-3.4 -2.3,-1.5 -1.1,-0.7 1.5,1 3,2.1 4.5,3.2 1.4,1.2 2.9,2.3 4.4,3.5 1.1,1 2.2,1.9 3.3,2.9 0.5,0.5 1.1,1 1.5,1.6 0,0 6.5,-2.1 6.5,-2.1 z" style="color:black; overflow:visible; fill:#ef2929; stroke-width:6;" />
</g>
<text x="231.6" y="22.8" style="font-family:Arial; font-size:24px; overflow:visible; fill:#ef2929; stroke-width:0.5;">77%</text>
</svg>
