<?xml version="1.0" encoding="UTF-8" standalone="no"?>
<!-- Copyright 2017 mathsisfun.com -->
<svg xmlns="http://www.w3.org/2000/svg" width="480.8" height="177.3" version="1.0" style="font-family:Georgia; font-size:17.3px; stroke-width:10.9;">
<defs>
	<marker id="aa1" style="overflow:visible;" orient="auto">
		<path transform="matrix(-0.4,0,0,-0.4,-4,0)" style="stroke:black; stroke-width:1pt;" d="M 0,0 5,-5 -12.5,0 5,5 Z"/>
	</marker>
</defs>
<g transform="translate(2676.12,-620.592)">
	<rect x="-2658.9" y="716.2" rx="40.9" ry="40.9" width="154.4" height="81.7" style="fill:#19aeff; stroke-width:0.5;"/>
	<circle cx="-2381.5" cy="709.9" r="49.5" style="fill:#19aeff; stroke-width:0.5;"/>
	<rect x="-2658.9" y="623.6" rx="40.9" ry="40.9" width="154.4" height="81.7" style="fill:#19aeff; stroke-width:0.5;"/>
	<g transform="matrix(0.277896,0,0,0.277896,-2233.59,717.625)">
		<path style="fill:none; stroke:black; stroke-linecap:round;" d="m -1441.8,-135.4 -11.7,40.3"/>
		<path style="fill:none; stroke:black; stroke-linecap:round;" d="m -1446,-181.7 -30.1,7.5"/>
		<path style="fill:none; stroke:black; stroke-linecap:round;" d="m -1431.4,-134.7 11.7,40.3"/>
		<path style="fill:none; stroke:black; stroke-linecap:round;" d="m -1426.8,-181.3 30.2,7.5"/>
		<ellipse cx="-1378" cy="-282.8" rx="10.9" ry="22.6" transform="matrix(1.40315,0,0,1.40315,497.09,230.88)" style="fill:#0957c0; stroke:#060507; stroke-width:2.08; stroke-linecap:round; stroke-linejoin:round;"/>
		<circle cx="-1365.4" cy="-357.4" r="10.0645" transform="matrix(1.47731,0,0,1.47731,579.85,318.019)" style="fill:#0957c0; stroke:#060507; stroke-width:1.98; stroke-linecap:round; stroke-linejoin:round;"/>
	</g>
	<g transform="matrix(0.277896,0,0,0.277896,-2207.63,713.116)">
		<path style="fill:#ccff42; stroke:black; stroke-linecap:round;" d="m -1441.8,-135.4 -11.7,40.3"/>
		<path style="fill:#ccff42; stroke:black; stroke-linecap:round;" d="m -1446,-181.7 -30.1,7.5"/>
		<path style="fill:#ccff42; stroke:black; stroke-linecap:round;" d="m -1431.4,-134.7 11.7,40.3"/>
		<path style="fill:#ccff42; stroke:black; stroke-linecap:round;" d="m -1426.8,-181.3 30.2,7.5"/>
		<ellipse cx="-1378" cy="-282.8" rx="10.9" ry="22.6" transform="matrix(1.40315,0,0,1.40315,497.09,230.88)" style="fill:#ccff42; stroke:#060507; stroke-width:2.08; stroke-linecap:round; stroke-linejoin:round;"/>
		<circle cx="-1365.4" cy="-357.4" r="10.0645" transform="matrix(1.47731,0,0,1.47731,579.85,318.019)" style="fill:#ccff42; stroke:#060507; stroke-width:1.98; stroke-linecap:round; stroke-linejoin:round;"/>
	</g>
	<g transform="matrix(0.277896,0,0,0.277896,-2178.97,715.995)">
		<path style="fill:none; stroke:black; stroke-linecap:round;" d="m -1441.8,-135.4 -11.7,40.3"/>
		<path style="fill:none; stroke:black; stroke-linecap:round;" d="m -1446,-181.7 -30.1,7.5"/>
		<path style="fill:none; stroke:black; stroke-linecap:round;" d="m -1431.4,-134.7 11.7,40.3"/>
		<path style="fill:none; stroke:black; stroke-linecap:round;" d="m -1426.8,-181.3 30.2,7.5"/>
		<ellipse cx="-1378" cy="-282.8" rx="10.9" ry="22.6" transform="matrix(1.40315,0,0,1.40315,497.09,230.88)" style="fill:#0957c0; stroke:#060507; stroke-width:2.08; stroke-linecap:round; stroke-linejoin:round;"/>
		<circle cx="-1365.4" cy="-357.4" r="10.0645" transform="matrix(1.47731,0,0,1.47731,579.85,318.019)" style="fill:#0957c0; stroke:#060507; stroke-width:1.98; stroke-linecap:round; stroke-linejoin:round;"/>
	</g>
	<g transform="matrix(0.277896,0,0,0.277896,-2152.88,720.071)">
		<path style="fill:none; stroke:black; stroke-linecap:round;" d="m -1441.8,-135.4 -11.7,40.3"/>
		<path style="fill:none; stroke:black; stroke-linecap:round;" d="m -1446,-181.7 -30.1,7.5"/>
		<path style="fill:none; stroke:black; stroke-linecap:round;" d="m -1431.4,-134.7 11.7,40.3"/>
		<path style="fill:none; stroke:black; stroke-linecap:round;" d="m -1426.8,-181.3 30.2,7.5"/>
		<ellipse cx="-1378" cy="-282.8" rx="10.9" ry="22.6" transform="matrix(1.40315,0,0,1.40315,497.09,230.88)" style="fill:#0957c0; stroke:#060507; stroke-width:2.08; stroke-linecap:round; stroke-linejoin:round;"/>
		<circle cx="-1365.4" cy="-357.4" r="10.0645" transform="matrix(1.47731,0,0,1.47731,579.85,318.019)" style="fill:#0957c0; stroke:#060507; stroke-width:1.98; stroke-linecap:round; stroke-linejoin:round;"/>
	</g>
	<g transform="matrix(0.277896,0,0,0.277896,-2128.42,716.81)">
		<path style="fill:none; stroke:black; stroke-linecap:round;" d="m -1441.8,-135.4 -11.7,40.3"/>
		<path style="fill:none; stroke:black; stroke-linecap:round;" d="m -1446,-181.7 -30.1,7.5"/>
		<path style="fill:none; stroke:black; stroke-linecap:round;" d="m -1431.4,-134.7 11.7,40.3"/>
		<path style="fill:none; stroke:black; stroke-linecap:round;" d="m -1426.8,-181.3 30.2,7.5"/>
		<ellipse cx="-1378" cy="-282.8" rx="10.9" ry="22.6" transform="matrix(1.40315,0,0,1.40315,497.09,230.88)" style="fill:#0957c0; stroke:#060507; stroke-width:2.08; stroke-linecap:round; stroke-linejoin:round;"/>
		<circle cx="-1365.4" cy="-357.4" r="10.0645" transform="matrix(1.47731,0,0,1.47731,579.85,318.019)" style="fill:#0957c0; stroke:#060507; stroke-width:1.98; stroke-linecap:round; stroke-linejoin:round;"/>
	</g>
	<path style="marker-end:url(#aa1); fill:none; stroke:black; stroke-width:1.56;" d="m -2657.9,636 40,15.3"/>
	<text x="-2677.3" y="632.6" style="font-style:italic; fill:black; stroke-width:0.5px;">You</text>
	<g transform="matrix(0.277896,0,0,0.277896,-2239.75,808.745)">
		<path style="fill:none; stroke:black; stroke-linecap:round;" d="m -1441.8,-135.4 -11.7,40.3"/>
		<path style="fill:none; stroke:black; stroke-linecap:round;" d="m -1446,-181.7 -30.1,7.5"/>
		<path style="fill:none; stroke:black; stroke-linecap:round;" d="m -1431.4,-134.7 11.7,40.3"/>
		<path style="fill:none; stroke:black; stroke-linecap:round;" d="m -1426.8,-181.3 30.2,7.5"/>
		<ellipse cx="-1378" cy="-282.8" rx="10.9" ry="22.6" transform="matrix(1.40315,0,0,1.40315,497.09,230.88)" style="fill:#0957c0; stroke:#060507; stroke-width:2.08; stroke-linecap:round; stroke-linejoin:round;"/>
		<circle cx="-1365.4" cy="-357.4" r="10.0645" transform="matrix(1.47731,0,0,1.47731,579.85,318.019)" style="fill:#0957c0; stroke:#060507; stroke-width:1.98; stroke-linecap:round; stroke-linejoin:round;"/>
	</g>
	<g transform="matrix(0.277896,0,0,0.277896,-2221.09,786.857)">
		<path style="fill:none; stroke:black; stroke-linecap:round;" d="m -1441.8,-135.4 -11.7,40.3"/>
		<path style="fill:none; stroke:black; stroke-linecap:round;" d="m -1446,-181.7 -30.1,7.5"/>
		<path style="fill:none; stroke:black; stroke-linecap:round;" d="m -1431.4,-134.7 11.7,40.3"/>
		<path style="fill:none; stroke:black; stroke-linecap:round;" d="m -1426.8,-181.3 30.2,7.5"/>
		<ellipse cx="-1378" cy="-282.8" rx="10.9" ry="22.6" transform="matrix(1.40315,0,0,1.40315,497.09,230.88)" style="fill:#0957c0; stroke:#060507; stroke-width:2.08; stroke-linecap:round; stroke-linejoin:round;"/>
		<circle cx="-1365.4" cy="-357.4" r="10.0645" transform="matrix(1.47731,0,0,1.47731,579.85,318.019)" style="fill:#0957c0; stroke:#060507; stroke-width:1.98; stroke-linecap:round; stroke-linejoin:round;"/>
	</g>
	<g transform="matrix(0.277896,0,0,0.277896,-2200.63,802.507)">
		<path style="fill:none; stroke:black; stroke-linecap:round;" d="m -1441.8,-135.4 -11.7,40.3"/>
		<path style="fill:none; stroke:black; stroke-linecap:round;" d="m -1446,-181.7 -30.1,7.5"/>
		<path style="fill:none; stroke:black; stroke-linecap:round;" d="m -1431.4,-134.7 11.7,40.3"/>
		<path style="fill:none; stroke:black; stroke-linecap:round;" d="m -1426.8,-181.3 30.2,7.5"/>
		<ellipse cx="-1378" cy="-282.8" rx="10.9" ry="22.6" transform="matrix(1.40315,0,0,1.40315,497.09,230.88)" style="fill:#0957c0; stroke:#060507; stroke-width:2.08; stroke-linecap:round; stroke-linejoin:round;"/>
		<circle cx="-1365.4" cy="-357.4" r="10.0645" transform="matrix(1.47731,0,0,1.47731,579.85,318.019)" style="fill:#0957c0; stroke:#060507; stroke-width:1.98; stroke-linecap:round; stroke-linejoin:round;"/>
	</g>
	<g transform="matrix(0.277896,0,0,0.277896,-2178.36,788.923)">
		<path style="fill:none; stroke:black; stroke-linecap:round;" d="m -1441.8,-135.4 -11.7,40.3"/>
		<path style="fill:none; stroke:black; stroke-linecap:round;" d="m -1446,-181.7 -30.1,7.5"/>
		<path style="fill:none; stroke:black; stroke-linecap:round;" d="m -1431.4,-134.7 11.7,40.3"/>
		<path style="fill:none; stroke:black; stroke-linecap:round;" d="m -1426.8,-181.3 30.2,7.5"/>
		<ellipse cx="-1378" cy="-282.8" rx="10.9" ry="22.6" transform="matrix(1.40315,0,0,1.40315,497.09,230.88)" style="fill:#0957c0; stroke:#060507; stroke-width:2.08; stroke-linecap:round; stroke-linejoin:round;"/>
		<circle cx="-1365.4" cy="-357.4" r="10.0645" transform="matrix(1.47731,0,0,1.47731,579.85,318.019)" style="fill:#0957c0; stroke:#060507; stroke-width:1.98; stroke-linecap:round; stroke-linejoin:round;"/>
	</g>
	<g transform="matrix(0.277896,0,0,0.277896,-2150.26,785.09)">
		<path style="fill:none; stroke:black; stroke-linecap:round;" d="m -1441.8,-135.4 -11.7,40.3"/>
		<path style="fill:none; stroke:black; stroke-linecap:round;" d="m -1446,-181.7 -30.1,7.5"/>
		<path style="fill:none; stroke:black; stroke-linecap:round;" d="m -1431.4,-134.7 11.7,40.3"/>
		<path style="fill:none; stroke:black; stroke-linecap:round;" d="m -1426.8,-181.3 30.2,7.5"/>
		<ellipse cx="-1378" cy="-282.8" rx="10.9" ry="22.6" transform="matrix(1.40315,0,0,1.40315,497.09,230.88)" style="fill:#0957c0; stroke:#060507; stroke-width:2.08; stroke-linecap:round; stroke-linejoin:round;"/>
		<circle cx="-1365.4" cy="-357.4" r="10.0645" transform="matrix(1.47731,0,0,1.47731,579.85,318.019)" style="fill:#0957c0; stroke:#060507; stroke-width:1.98; stroke-linecap:round; stroke-linejoin:round;"/>
	</g>
	<g transform="matrix(0.277896,0,0,0.277896,-2128.16,804.493)">
		<path style="fill:none; stroke:black; stroke-linecap:round;" d="m -1441.8,-135.4 -11.7,40.3"/>
		<path style="fill:none; stroke:black; stroke-linecap:round;" d="m -1446,-181.7 -30.1,7.5"/>
		<path style="fill:none; stroke:black; stroke-linecap:round;" d="m -1431.4,-134.7 11.7,40.3"/>
		<path style="fill:none; stroke:black; stroke-linecap:round;" d="m -1426.8,-181.3 30.2,7.5"/>
		<ellipse cx="-1378" cy="-282.8" rx="10.9" ry="22.6" transform="matrix(1.40315,0,0,1.40315,497.09,230.88)" style="fill:#0957c0; stroke:#060507; stroke-width:2.08; stroke-linecap:round; stroke-linejoin:round;"/>
		<circle cx="-1365.4" cy="-357.4" r="10.0645" transform="matrix(1.47731,0,0,1.47731,579.85,318.019)" style="fill:#0957c0; stroke:#060507; stroke-width:1.98; stroke-linecap:round; stroke-linejoin:round;"/>
	</g>
	<g transform="matrix(0.277896,0,0,0.277896,-2165.57,817.016)">
		<path style="fill:none; stroke:black; stroke-linecap:round;" d="m -1441.8,-135.4 -11.7,40.3"/>
		<path style="fill:none; stroke:black; stroke-linecap:round;" d="m -1446,-181.7 -30.1,7.5"/>
		<path style="fill:none; stroke:black; stroke-linecap:round;" d="m -1431.4,-134.7 11.7,40.3"/>
		<path style="fill:none; stroke:black; stroke-linecap:round;" d="m -1426.8,-181.3 30.2,7.5"/>
		<ellipse cx="-1378" cy="-282.8" rx="10.9" ry="22.6" transform="matrix(1.40315,0,0,1.40315,497.09,230.88)" style="fill:#0957c0; stroke:#060507; stroke-width:2.08; stroke-linecap:round; stroke-linejoin:round;"/>
		<circle cx="-1365.4" cy="-357.4" r="10.0645" transform="matrix(1.47731,0,0,1.47731,579.85,318.019)" style="fill:#0957c0; stroke:#060507; stroke-width:1.98; stroke-linecap:round; stroke-linejoin:round;"/>
	</g>
	<path style="fill:#f1caff; stroke-width:0.5;" d="m -2508.7,746.2 c 0.5,0.2 1.1,0.3 1.7,0.4 0.9,0.2 1.8,0.3 2.8,0.5 1.3,0.2 2.5,0.3 3.8,0.4 1.6,0.2 3.2,0.3 4.7,0.4 1.8,0.1 3.6,0.2 5.3,0.3 1.9,0 3.8,0 5.7,0 2,0 4,-0 6,-0.2 2,-0.1 4.1,-0.3 6.1,-0.4 2,-0.2 3.9,-0.4 5.8,-0.6 1.8,-0.2 3.6,-0.5 5.5,-0.8 1.7,-0.3 3.3,-0.5 5,-0.9 1.1,-0.2 0.5,-0.1 1.6,-0.3 0.3,-0 1.1,-0.2 0.8,-0.2 -3.9,0.8 -1.1,0.2 -0.3,0 1.5,-0.3 3,-0.7 4.5,-1 1.4,-0.3 2.8,-0.7 4.2,-1 1.3,-0.3 2.7,-0.7 4,-1.1 1.3,-0.4 2.5,-0.8 3.7,-1.2 1.2,-0.4 2.4,-0.8 3.6,-1.1 1.2,-0.4 2.3,-0.7 3.5,-1 1.2,-0.4 2.3,-0.7 3.5,-1 1.2,-0.3 2.3,-0.6 3.5,-0.9 2,-0.5 4.1,-0.9 6.2,-1.2 1.2,-0.2 2.4,-0.3 3.6,-0.3 1.2,-0 2.3,-0.1 3.5,-0.2 1.1,-0 2.3,0 3.4,0.1 0.6,0 0.3,0 0.8,0 0,0 -2.5,3.1 -2.5,3.1 v 0 c -0.5,-0 -0.3,-0 -0.8,-0 -1.1,-0 -2.1,-0 -3.2,0 -1.1,0 -2.3,0.1 -3.4,0.2 -1.1,0.1 -2.2,0.2 -3.3,0.4 -0.6,0.1 -1.1,0.2 -1.7,0.3 -0.2,0 -0.7,0.2 -0.6,0.1 2,-0.4 2.8,-0.6 1.5,-0.3 -1.1,0.2 -2.3,0.5 -3.4,0.8 -1.2,0.3 -2.3,0.7 -3.5,1 -1.2,0.4 -2.3,0.7 -3.5,1.1 -1.2,0.4 -2.4,0.7 -3.6,1.1 -1.3,0.4 -2.5,0.8 -3.8,1.2 -1.4,0.4 -2.7,0.8 -4.1,1.2 -1.4,0.4 -2.8,0.7 -4.2,1.1 -1.5,0.4 -3,0.8 -4.5,1.1 -2.5,0.6 -5,1.1 -7.5,1.5 -1.7,0.3 -3.4,0.6 -5.1,0.8 -1.8,0.3 -3.7,0.5 -5.5,0.7 -2,0.2 -4,0.4 -6,0.6 -2.1,0.2 -4.1,0.3 -6.2,0.4 -2.1,0 -4.1,0.1 -6.2,0.1 -1.9,-0 -3.9,-0 -5.8,-0.1 -1.8,-0 -3.6,-0.2 -5.5,-0.4 -1.6,-0.1 -3.2,-0.3 -4.8,-0.5 -1.3,-0.1 -2.6,-0.3 -4,-0.5 -1,-0.2 -2,-0.4 -2.9,-0.6 -0.6,-0.2 -1.3,-0.3 -1.9,-0.6 0,0 3.1,-2.7 3.1,-2.7 z"/>
	<path style="fill:#f1caff; stroke-width:0.5;" d="m -2422.3,728.8 c 0.3,0.2 0.7,0.3 1,0.5 0.4,0.2 0.9,0.3 1.3,0.5 0.5,0.2 1.1,0.4 1.6,0.6 0.6,0.2 1.2,0.4 1.9,0.6 0.7,0.2 1.4,0.5 2,0.7 0.7,0.2 1.4,0.5 2.1,0.7 0.7,0.2 1.4,0.4 2.1,0.6 0.7,0.2 1.5,0.3 2.2,0.5 0.4,0 0.8,0.1 1.1,0.2 0,0 -2.2,2.9 -2.2,2.9 v 0 c -0.4,-0 -0.8,-0.1 -1.2,-0.2 -0.8,-0.2 -1.5,-0.3 -2.3,-0.5 -0.8,-0.2 -1.5,-0.4 -2.2,-0.7 -0.7,-0.3 -1.5,-0.5 -2.2,-0.8 -0.7,-0.2 -1.3,-0.5 -2,-0.7 -0.6,-0.2 -1.3,-0.4 -1.9,-0.6 -0.6,-0.2 -1.1,-0.4 -1.7,-0.6 -0.5,-0.2 -0.9,-0.4 -1.4,-0.6 -0.3,-0.2 -0.6,-0.3 -1,-0.4 0,0 2.5,-2.6 2.5,-2.6 z"/>
	<path style="fill:#f1caff; stroke-width:0.5;" d="m -2514,664 c 0.4,-0.1 0.9,-0.2 1.3,-0.3 0.7,-0.1 1.3,-0.2 2,-0.3 0.8,-0 1.6,-0.1 2.5,-0.1 1,-0 1.9,-0 2.9,-0 1.1,0 2.2,0 3.2,0.1 1.2,0 2.3,0.1 3.5,0.2 1.2,0 2.4,0.2 3.6,0.3 1.2,0.1 2.4,0.2 3.6,0.4 1.2,0.1 2.3,0.3 3.5,0.5 1.1,0.2 2.3,0.4 3.4,0.7 1.1,0.3 2.2,0.6 3.3,0.9 1.1,0.3 2.2,0.6 3.3,1 1.1,0.4 2.2,0.7 3.3,1.1 1.1,0.4 2.2,0.7 3.2,1.1 1,0.4 2.1,0.8 3.1,1.1 1.1,0.4 2.1,0.8 3.2,1.2 1.1,0.4 2.2,0.8 3.3,1.2 1,0.4 2.1,0.8 3.1,1.2 1,0.4 2,0.8 3.1,1.2 1,0.4 2,0.8 3,1.2 1,0.4 2,0.8 3,1.3 1,0.4 1.9,0.9 2.9,1.4 0.9,0.5 1.8,0.9 2.7,1.4 0.9,0.4 1.7,0.9 2.6,1.3 0.8,0.4 1.6,0.8 2.5,1.2 0.8,0.4 1.6,0.7 2.5,1.1 0.9,0.4 1.7,0.8 2.5,1.1 0.8,0.4 1.7,0.7 2.5,1.1 0.8,0.3 1.7,0.7 2.5,1 0.8,0.3 1.6,0.6 2.5,0.9 0.8,0.3 1.6,0.6 2.4,0.8 0.8,0.2 1.6,0.4 2.4,0.6 0.8,0.1 1.6,0.2 2.4,0.3 0.8,0 1.6,0.1 2.4,0.1 0.4,0 0.8,-0 1.2,-0 0,0 -1.2,3.5 -1.2,3.5 v 0 c -0.4,0 -0.9,0 -1.3,0 -0.9,-0 -1.8,-0 -2.6,-0.2 -0.9,-0.1 -1.8,-0.2 -2.6,-0.4 -0.9,-0.2 -1.7,-0.4 -2.6,-0.7 -0.9,-0.3 -1.7,-0.6 -2.6,-0.9 -0.8,-0.3 -1.7,-0.6 -2.5,-1 -0.9,-0.3 -1.7,-0.7 -2.6,-1.1 -0.9,-0.4 -1.7,-0.7 -2.6,-1.1 -0.9,-0.4 -1.7,-0.8 -2.6,-1.1 -0.8,-0.4 -1.7,-0.7 -2.5,-1.1 -0.8,-0.4 -1.7,-0.8 -2.5,-1.2 -0.9,-0.4 -1.7,-0.9 -2.6,-1.3 -0.9,-0.5 -1.8,-0.9 -2.7,-1.4 -0.9,-0.5 -1.9,-0.9 -2.8,-1.3 -1,-0.4 -2,-0.8 -2.9,-1.2 -1,-0.4 -2,-0.8 -2.9,-1.1 -1,-0.4 -2,-0.8 -3,-1.1 -1.1,-0.4 -2.1,-0.8 -3.2,-1.2 -1.1,-0.4 -2.2,-0.8 -3.2,-1.2 -1.1,-0.4 -2.1,-0.8 -3.2,-1.2 -1,-0.4 -2,-0.8 -3.1,-1.1 -1.1,-0.4 -2.1,-0.7 -3.2,-1.1 -1.1,-0.4 -2.2,-0.7 -3.3,-1.1 -1.1,-0.3 -2.2,-0.7 -3.2,-1 -1.1,-0.3 -2.1,-0.6 -3.2,-0.8 -1.1,-0.2 -2.2,-0.5 -3.3,-0.6 -1.1,-0.2 -2.3,-0.3 -3.4,-0.5 -1.2,-0.1 -2.3,-0.2 -3.5,-0.3 -1.2,-0.1 -2.4,-0.2 -3.6,-0.3 -1.2,-0 -2.3,-0.1 -3.5,-0.2 -1.1,-0 -2.1,-0 -3.2,-0 -0.9,0 -1.9,0 -2.8,0 -0.8,0 -1.6,0.1 -2.3,0.2 -0.6,0 -1.2,0.2 -1.7,0.3 -0.4,0.1 -0.8,0.2 -1.2,0.3 0,0 0.7,-3.6 0.7,-3.6 z"/>
	<path style="fill:#f1caff; stroke-width:0.5;" d="m -2435.5,694.3 c 0.4,-0.1 0.8,-0.3 1.2,-0.4 0.5,-0.2 1,-0.4 1.6,-0.6 0.6,-0.2 1.3,-0.4 1.9,-0.6 0.7,-0.2 1.4,-0.4 2.1,-0.6 0.8,-0.2 1.5,-0.4 2.3,-0.6 0.8,-0.2 1.5,-0.3 2.3,-0.5 0.8,-0.2 1.6,-0.3 2.4,-0.4 0.8,-0.1 1.6,-0.2 2.4,-0.3 0,0 -1,3.5 -1,3.5 v 0 c -0.8,0 -1.5,0.2 -2.3,0.3 -0.8,0.1 -1.5,0.3 -2.3,0.4 -0.7,0.2 -1.5,0.3 -2.2,0.5 -0.7,0.2 -1.4,0.4 -2.1,0.6 -0.7,0.2 -1.4,0.4 -2,0.6 -0.6,0.2 -1.2,0.4 -1.8,0.6 -0.5,0.2 -1,0.3 -1.5,0.6 -0.4,0.2 -0.7,0.3 -1.1,0.5 0,0 0.3,-3.6 0.3,-3.6 z"/>
	<path style="fill:#f1caff; stroke-width:0.5;" d="m -2426.5,681.9 c 0.1,0.3 0.3,0.6 0.4,0.8 0.2,0.3 0.4,0.7 0.7,1 0.3,0.4 0.6,0.7 0.9,1.1 0.3,0.4 0.7,0.8 1,1.2 0.4,0.4 0.8,0.8 1.2,1.2 0.4,0.4 0.8,0.9 1.3,1.3 0.4,0.4 0.8,0.8 1.3,1.2 0.4,0.4 0.9,0.7 1.4,0.9 0.4,0.3 0.9,0.5 1.4,0.7 0,0 -2.1,3 -2.1,3 v 0 c -0.5,-0.2 -1,-0.5 -1.5,-0.8 -0.6,-0.4 -1.2,-0.7 -1.7,-1.2 -0.5,-0.4 -0.9,-0.9 -1.4,-1.3 -0.4,-0.4 -0.8,-0.9 -1.3,-1.3 -0.4,-0.4 -0.8,-0.8 -1.2,-1.3 -0.4,-0.4 -0.7,-0.8 -1.1,-1.3 -0.4,-0.4 -0.7,-0.8 -1,-1.3 -0.3,-0.4 -0.5,-0.8 -0.8,-1.2 -0.2,-0.4 -0.4,-0.7 -0.6,-1.1 0,0 3.2,-1.8 3.2,-1.8 z"/>
	<path style="fill:#f1caff; stroke-width:0.5;" d="m -2420.1,743.4 c 0.2,-0.3 0.4,-0.6 0.7,-0.9 0.3,-0.3 0.6,-0.7 0.9,-1.1 0.3,-0.3 0.7,-0.7 1.1,-1 0.4,-0.4 0.8,-0.7 1.2,-1.1 0.5,-0.4 1,-0.7 1.5,-1 0.5,-0.3 1,-0.7 1.5,-1 0.5,-0.3 1.1,-0.7 1.6,-1 0.5,-0.3 1.1,-0.7 1.6,-1.1 0.3,-0.2 0.5,-0.4 0.8,-0.5 0,0 3.2,1.7 3.2,1.7 v 0 c -0.3,0.2 -0.6,0.3 -0.8,0.5 -0.6,0.3 -1.1,0.7 -1.6,1.1 -0.5,0.3 -1.1,0.7 -1.6,1 -0.5,0.3 -1,0.7 -1.5,1 -0.5,0.3 -0.9,0.6 -1.4,0.9 -0.4,0.3 -0.8,0.6 -1.2,0.9 -0.3,0.3 -0.7,0.6 -1.1,0.9 -0.3,0.2 -0.6,0.6 -0.9,0.9 -0.2,0.2 -0.5,0.5 -0.6,0.7 0,0 -3.5,-1.1 -3.5,-1.1 z"/>
	<text x="-2058.3" y="1543" transform="rotate(21.9972)" style="font-style:italic; fill:#19aeff; stroke-width:0.5px;">Winner</text>
	<text x="-2577.2" y="334.5" transform="rotate(-9.27491)" style="font-style:italic; fill:#19aeff; stroke-width:0.5px;">Winner</text>
	<text x="-2377.1" y="703.8" style="font-size:24px; fill:white; stroke-width:0.5px;">1/2</text>
	<text x="-2596.7" y="645.1" style="font-size:24px; fill:white; stroke-width:0.5px;">1/5</text>
	<path style="fill:#f1caff; stroke-width:0.5;" d="m -2338,715.1 c 0.3,-0 0.6,-0.2 0.9,-0.3 0.5,-0.1 0.9,-0.3 1.4,-0.5 0.6,-0.2 1.2,-0.3 1.9,-0.4 0.8,-0.2 1.6,-0.3 2.4,-0.4 1,-0.2 1.9,-0.3 2.9,-0.4 1,-0.1 2.1,-0.2 3.1,-0.3 1,-0 2,-0.1 3.1,-0.2 0.9,-0 1.9,-0.1 2.8,-0.2 0.9,-0 1.8,-0 2.7,-0 0.9,0 1.8,0 2.8,0 0.9,0 1.8,0.2 2.8,0.3 0.9,0.1 1.9,0.3 2.8,0.5 1,0.2 2,0.5 3,0.7 1,0.3 2.1,0.5 3.1,0.8 1,0.3 2,0.5 3,0.7 1,0.2 1.9,0.4 2.8,0.6 0.9,0.2 1.8,0.3 2.6,0.4 0.9,0.1 1.7,0.2 2.6,0.3 0.8,0 1.7,0.1 2.5,0.2 0.8,0 1.6,0 2.4,0 0.8,-0 1.6,-0 2.4,-0 0.8,-0 1.5,-0.2 2.3,-0.2 0.7,-0 1.4,-0.2 2.1,-0.3 0.7,-0 1.4,-0.2 2,-0.3 0.6,-0.1 1.3,-0.2 1.9,-0.4 0.4,-0 0.2,-0 0.6,-0.1 0,0 0.5,3.4 0.5,3.4 v 0 c -0.4,0 -0.2,0 -0.6,0.1 -0.6,0.1 -1.3,0.3 -1.9,0.4 -0.7,0 -1.4,0.2 -2,0.3 -0.7,0 -1.4,0.2 -2.1,0.3 -0.8,0 -1.5,0.2 -2.3,0.2 -0.8,0 -1.6,0 -2.5,0 -0.8,0 -1.6,-0 -2.4,-0 -0.8,-0 -1.7,-0.1 -2.5,-0.2 -0.9,-0 -1.7,-0.2 -2.6,-0.4 -0.9,-0.1 -1.8,-0.3 -2.7,-0.5 -1,-0.2 -1.9,-0.4 -2.9,-0.6 -1,-0.2 -2,-0.5 -3,-0.7 -1,-0.3 -2.1,-0.5 -3.1,-0.8 -1,-0.2 -2,-0.5 -3,-0.7 -0.9,-0.2 -1.9,-0.4 -2.8,-0.5 -0.9,-0.1 -1.8,-0.2 -2.7,-0.2 -0.9,-0 -1.8,-0 -2.7,-0 -0.9,0 -1.8,0 -2.7,0 -0.9,0 -1.9,0.1 -2.8,0.2 -1,0 -2,0.1 -3,0.2 -1,0 -2.1,0.2 -3.1,0.3 -1,0.1 -1.9,0.2 -2.9,0.4 -0.8,0.1 -1.6,0.2 -2.4,0.4 -0.6,0.1 -1.2,0.3 -1.8,0.5 -0.5,0.2 -0.9,0.3 -1.4,0.5 -0.3,0.1 -0.6,0.2 -0.9,0.3 0,0 -0.6,-3.4 -0.6,-3.4 z"/>
	<path style="fill:#f1caff; stroke-width:0.5;" d="m -2291.8,709.1 c 0.3,0.2 0.5,0.3 0.8,0.4 0.4,0.2 0.8,0.4 1.1,0.6 0.5,0.3 1,0.6 1.5,0.8 0.5,0.3 1.1,0.6 1.6,0.9 0.6,0.3 1.1,0.6 1.7,0.8 0.6,0.3 1.2,0.6 1.8,0.8 0.6,0.3 1.3,0.6 1.9,0.8 0.6,0.3 1.3,0.5 2,0.7 0.6,0.2 1.3,0.4 1.9,0.6 0.7,0.2 1.3,0.3 2,0.5 0.7,0.1 1.4,0.3 2.1,0.4 0.4,0 0.7,0.1 1,0.2 0,0 -1.5,2.7 -1.5,2.7 v 0 c -0.4,-0 -0.7,-0.1 -1.1,-0.2 -0.7,-0.1 -1.4,-0.3 -2.1,-0.4 -0.7,-0.2 -1.4,-0.3 -2.1,-0.5 -0.7,-0.2 -1.4,-0.4 -2,-0.7 -0.7,-0.2 -1.4,-0.5 -2,-0.8 -0.7,-0.3 -1.3,-0.5 -1.9,-0.8 -0.6,-0.3 -1.2,-0.6 -1.9,-0.9 -0.6,-0.3 -1.2,-0.6 -1.7,-0.9 -0.6,-0.3 -1.1,-0.6 -1.6,-0.9 -0.5,-0.3 -1,-0.5 -1.4,-0.8 -0.4,-0.2 -0.8,-0.4 -1.2,-0.6 -0.3,-0.1 -0.5,-0.3 -0.8,-0.5 0,0 2,-2.3 2,-2.3 z"/>
	<path style="fill:#f1caff; stroke-width:0.5;" d="m -2293.1,722.7 c 0.4,-0.2 0.8,-0.3 1.2,-0.4 0.5,-0.2 0.9,-0.3 1.4,-0.4 0.6,-0.1 1.1,-0.3 1.7,-0.5 0.7,-0.2 1.3,-0.4 2,-0.6 0.7,-0.2 1.4,-0.4 2.1,-0.6 0.7,-0.2 1.4,-0.4 2.1,-0.5 0.7,-0.1 1.5,-0.3 2.2,-0.5 0.7,-0.1 1.5,-0.3 2.2,-0.5 0.8,-0.2 1.5,-0.3 2.3,-0.4 0.6,-0.1 1.3,-0.2 1.9,-0.4 0,0 -1.1,3.5 -1.1,3.5 v 0 c -0.6,0.1 -1.3,0.2 -1.9,0.4 -0.7,0.1 -1.5,0.3 -2.2,0.5 -0.7,0.2 -1.5,0.3 -2.2,0.5 -0.7,0.2 -1.5,0.3 -2.2,0.5 -0.7,0.2 -1.4,0.3 -2.1,0.5 -0.7,0.2 -1.4,0.4 -2,0.6 -0.6,0.2 -1.3,0.4 -1.9,0.6 -0.6,0.2 -1.2,0.3 -1.7,0.5 -0.5,0.1 -1,0.3 -1.5,0.4 -0.4,0.1 -0.7,0.3 -1.1,0.4 0,0 0.8,-3.6 0.8,-3.6 z"/>
	<text x="-2266.8" y="725.1" style="font-size:32.1px; fill:#9ade00; stroke-width:0.5px;">$$$s</text>
	<text x="-2334" y="695.3" transform="rotate(-0.314853)" style="font-style:italic; fill:#19aeff; stroke-width:0.5px;">Winner</text>
	<g transform="matrix(0.277896,0,0,0.277896,-1998.6,733.702)">
		<path style="fill:none; stroke:black; stroke-linecap:round;" d="m -1441.8,-135.4 -11.7,40.3"/>
		<path style="fill:none; stroke:black; stroke-linecap:round;" d="m -1446,-181.7 -30.1,7.5"/>
		<path style="fill:none; stroke:black; stroke-linecap:round;" d="m -1431.4,-134.7 11.7,40.3"/>
		<path style="fill:none; stroke:black; stroke-linecap:round;" d="m -1426.8,-181.3 30.2,7.5"/>
		<ellipse cx="-1378" cy="-282.8" rx="10.9" ry="22.6" transform="matrix(1.40315,0,0,1.40315,497.09,230.88)" style="fill:#0957c0; stroke:#060507; stroke-width:2.08; stroke-linecap:round; stroke-linejoin:round;"/>
		<circle cx="-1365.4" cy="-357.4" r="10.0645" transform="matrix(1.47731,0,0,1.47731,579.85,318.019)" style="fill:#0957c0; stroke:#060507; stroke-width:1.98; stroke-linecap:round; stroke-linejoin:round;"/>
	</g>
	<g transform="matrix(0.277896,0,0,0.277896,-1991.77,775.714)">
		<path style="fill:none; stroke:black; stroke-linecap:round;" d="m -1441.8,-135.4 -11.7,40.3"/>
		<path style="fill:none; stroke:black; stroke-linecap:round;" d="m -1446,-181.7 -30.1,7.5"/>
		<path style="fill:none; stroke:black; stroke-linecap:round;" d="m -1431.4,-134.7 11.7,40.3"/>
		<path style="fill:none; stroke:black; stroke-linecap:round;" d="m -1426.8,-181.3 30.2,7.5"/>
		<ellipse cx="-1378" cy="-282.8" rx="10.9" ry="22.6" transform="matrix(1.40315,0,0,1.40315,497.09,230.88)" style="fill:#0957c0; stroke:#060507; stroke-width:2.08; stroke-linecap:round; stroke-linejoin:round;"/>
		<circle cx="-1365.4" cy="-357.4" r="10.0645" transform="matrix(1.47731,0,0,1.47731,579.85,318.019)" style="fill:#0957c0; stroke:#060507; stroke-width:1.98; stroke-linecap:round; stroke-linejoin:round;"/>
	</g>
</g>
</svg>