<?xml version="1.0" encoding="UTF-8" standalone="no"?>
<!-- Copyright 2017 mathsisfun.com -->
<svg xmlns="http://www.w3.org/2000/svg" xmlns:xlink="http://www.w3.org/1999/xlink" width="85.1" height="161.1" version="1.1">
<defs/>
<g transform="translate(381.638,-40.7322)">
	<g id="id5" transform="translate(-1.77145)">
		<circle id="id1" cx="-373.8" cy="46.8" r="6.0476" style="fill:#45bdff; stroke-width:1.4;"/>
		<use id="id2" transform="translate(18.0169,4e-6)" xlink:href="#id1" x="0" y="0"/>
		<use id="id3" transform="translate(18.0169)" xlink:href="#id2" x="0" y="0"/>
		<use id="id4" transform="translate(18.0168,-2e-6)" xlink:href="#id3" x="0" y="0"/>
		<use transform="translate(18.0169)" xlink:href="#id4" x="0" y="0"/>
	</g>
	<use id="id6" transform="translate(4e-6,16.4549)" xlink:href="#id5" x="0" y="0"/>
	<use id="id7" transform="translate(4e-6,16.455)" xlink:href="#id6" x="0" y="0"/>
	<use id="id8" transform="translate(0,16.4549)" xlink:href="#id7" x="0" y="0"/>
	<use id="id9" transform="translate(4e-6,16.4549)" xlink:href="#id8" x="0" y="0"/>
	<use id="id10" transform="translate(-3e-6,16.4549)" xlink:href="#id9" x="0" y="0"/>
	<use id="id11" transform="translate(-3e-6,16.455)" xlink:href="#id10" x="0" y="0"/>
	<use id="id12" transform="translate(0,16.455)" xlink:href="#id11" x="0" y="0"/>
	<use id="id13" transform="translate(0,16.455)" xlink:href="#id12" x="0" y="0"/>
	<use transform="translate(0,16.4549)" xlink:href="#id13" x="0" y="0"/>
	<circle id="id14" cx="-339.6" cy="63.2" r="6.94901" style="fill:black; stroke-width:1.66;"/>
	<use transform="translate(-18.0165,32.9099)" xlink:href="#id14" x="0" y="0"/>
	<use transform="translate(18.0172,49.3648)" xlink:href="#id14" x="0" y="0"/>
	<use transform="translate(3.65592e-4,65.8197)" xlink:href="#id14" x="0" y="0"/>
	<use transform="translate(-18.0165,98.7297)" xlink:href="#id14" x="0" y="0"/>
	<use transform="translate(3.62592e-4,131.64)" xlink:href="#id14" x="0" y="0"/>
	<use transform="translate(-18.0165,5.16577e-6)" xlink:href="#id14" x="0" y="0"/>
	<use transform="translate(-18.0165,115.185)" xlink:href="#id14" x="0" y="0"/>
	<use transform="translate(36.0341,16.455)" xlink:href="#id14" x="0" y="0"/>
	<use transform="translate(36.0341,65.8197)" xlink:href="#id14" x="0" y="0"/>
</g>
</svg>