<?xml version="1.0" encoding="UTF-8" standalone="no"?>
<!-- Copyright 2017 mathsisfun.com -->
<svg xmlns="http://www.w3.org/2000/svg" xmlns:xlink="http://www.w3.org/1999/xlink" width="86" height="162" version="1.1">
<defs/>
<g transform="translate(382.539,-39.8308)">
	<g id="id5" transform="translate(-1.77145)">
		<circle id="id1" cx="-373.8" cy="46.8" r="6.0476" style="fill:#45bdff; stroke-width:1.4;"/>
		<use id="id2" transform="translate(18.0169,4e-6)" xlink:href="#id1" x="0" y="0"/>
		<use id="id3" transform="translate(18.0169)" xlink:href="#id2" x="0" y="0"/>
		<use id="id4" transform="translate(18.0168,-2e-6)" xlink:href="#id3" x="0" y="0"/>
		<use transform="translate(18.0169)" xlink:href="#id4" x="0" y="0"/>
	</g>
	<use id="id6" transform="translate(4e-6,16.4549)" xlink:href="#id5" x="0" y="0"/>
	<use id="id7" transform="translate(4e-6,16.455)" xlink:href="#id6" x="0" y="0"/>
	<use id="id8" transform="translate(0,16.4549)" xlink:href="#id7" x="0" y="0"/>
	<use id="id9" transform="translate(4e-6,16.4549)" xlink:href="#id8" x="0" y="0"/>
	<use id="id10" transform="translate(-3e-6,16.4549)" xlink:href="#id9" x="0" y="0"/>
	<use id="id11" transform="translate(-3e-6,16.455)" xlink:href="#id10" x="0" y="0"/>
	<use id="id12" transform="translate(0,16.455)" xlink:href="#id11" x="0" y="0"/>
	<use id="id13" transform="translate(0,16.455)" xlink:href="#id12" x="0" y="0"/>
	<use transform="translate(0,16.4549)" xlink:href="#id13" x="0" y="0"/>
	<circle id="id14" cx="-339.6" cy="63.2" r="6.94901" style="fill:black; stroke-width:1.66;"/>
	<use transform="translate(-36.0334,32.9099)" xlink:href="#id14" x="0" y="0"/>
	<use transform="translate(36.0341,32.9099)" xlink:href="#id14" x="0" y="0"/>
	<use transform="translate(5.0002e-6,65.8197)" xlink:href="#id14" x="0" y="0"/>
	<use transform="translate(-18.0165,82.2747)" xlink:href="#id14" x="0" y="0"/>
	<use transform="translate(36.0341,98.7297)" xlink:href="#id14" x="0" y="0"/>
	<use id="id15" transform="translate(18.0168,-16.4549)" xlink:href="#id14" x="0" y="0"/>
	<use transform="translate(-36.0334,98.7297)" xlink:href="#id14" x="0" y="0"/>
	<use transform="translate(-18.0165,16.455)" xlink:href="#id14" x="0" y="0"/>
	<use transform="translate(18.0172,49.3648)" xlink:href="#id14" x="0" y="0"/>
	<use transform="translate(3.62592e-4,131.64)" xlink:href="#id15" x="0" y="0"/>
	<use transform="translate(-18.0164,148.095)" xlink:href="#id15" x="0" y="0"/>
</g>
</svg>