<?xml version="1.0" encoding="UTF-8" standalone="no"?>
<!-- Copyright 2017 mathsisfun.com -->
<svg xmlns="http://www.w3.org/2000/svg" xmlns:xlink="http://www.w3.org/1999/xlink" width="500" height="292.1" version="1.1" style="font-size:0.5px; stroke-width:1.07;">
<path style="fill:none; stroke:#b3b3b3; stroke-linejoin:round;" d="M 286.3,235.4 H 81 V 6.3 H 491.6 V 235.4 Z"/>
<path style="fill:none; stroke:#b3b3b3; stroke-linejoin:round;" d="M 81,6.2 V 235.4"/>
<path style="fill:none; stroke:#b3b3b3; stroke-linejoin:round;" d="M 139.7,6.2 V 235.4"/>
<path style="fill:none; stroke:#b3b3b3; stroke-linejoin:round;" d="M 198.3,6.2 V 235.4"/>
<path style="fill:none; stroke:#b3b3b3; stroke-linejoin:round;" d="M 257,6.2 V 235.4"/>
<path style="fill:none; stroke:#b3b3b3; stroke-linejoin:round;" d="M 315.6,6.2 V 235.4"/>
<path style="fill:none; stroke:#b3b3b3; stroke-linejoin:round;" d="M 374.3,6.2 V 235.4"/>
<path style="fill:none; stroke:#b3b3b3; stroke-linejoin:round;" d="M 433,6.2 V 235.4"/>
<path style="fill:none; stroke:#b3b3b3; stroke-linejoin:round;" d="M 491.6,6.2 V 235.4"/>
<path style="fill:none; stroke:#b3b3b3; stroke-linejoin:round;" d="M 491.6,235.4 H 81"/>
<path style="fill:none; stroke:#b3b3b3; stroke-linejoin:round;" d="M 491.6,202.6 H 81"/>
<path style="fill:none; stroke:#b3b3b3; stroke-linejoin:round;" d="M 491.6,169.9 H 81"/>
<path style="fill:none; stroke:#b3b3b3; stroke-linejoin:round;" d="M 491.6,137.2 H 81"/>
<path style="fill:none; stroke:#b3b3b3; stroke-linejoin:round;" d="M 491.6,104.4 H 81"/>
<path style="fill:none; stroke:#b3b3b3; stroke-linejoin:round;" d="M 491.6,71.7 H 81"/>
<path style="fill:none; stroke:#b3b3b3; stroke-linejoin:round;" d="M 491.6,39 H 81"/>
<path style="fill:none; stroke:#b3b3b3; stroke-linejoin:round;" d="M 491.6,6.2 H 81"/>
<path style="fill:none; stroke:#b3b3b3; stroke-linejoin:round;" d="m 81,241 v -5.7"/>
<path style="fill:none; stroke:#b3b3b3; stroke-linejoin:round;" d="m 81,241 v -5.7"/>
<path style="fill:none; stroke:#b3b3b3; stroke-linejoin:round;" d="m 139.7,241 v -5.7"/>
<path style="fill:none; stroke:#b3b3b3; stroke-linejoin:round;" d="m 139.7,241 v -5.7"/>
<path style="fill:none; stroke:#b3b3b3; stroke-linejoin:round;" d="m 198.3,241 v -5.7"/>
<path style="fill:none; stroke:#b3b3b3; stroke-linejoin:round;" d="m 198.3,241 v -5.7"/>
<path style="fill:none; stroke:#b3b3b3; stroke-linejoin:round;" d="m 257,241 v -5.7"/>
<path style="fill:none; stroke:#b3b3b3; stroke-linejoin:round;" d="m 257,241 v -5.7"/>
<path style="fill:none; stroke:#b3b3b3; stroke-linejoin:round;" d="m 315.6,241 v -5.7"/>
<path style="fill:none; stroke:#b3b3b3; stroke-linejoin:round;" d="m 315.6,241 v -5.7"/>
<path style="fill:none; stroke:#b3b3b3; stroke-linejoin:round;" d="m 374.3,241 v -5.7"/>
<path style="fill:none; stroke:#b3b3b3; stroke-linejoin:round;" d="m 374.3,241 v -5.7"/>
<path style="fill:none; stroke:#b3b3b3; stroke-linejoin:round;" d="m 433,241 v -5.7"/>
<path style="fill:none; stroke:#b3b3b3; stroke-linejoin:round;" d="m 433,241 v -5.7"/>
<path style="fill:none; stroke:#b3b3b3; stroke-linejoin:round;" d="m 491.6,241 v -5.7"/>
<path style="fill:none; stroke:#b3b3b3; stroke-linejoin:round;" d="m 491.6,241 v -5.7"/>
<path style="fill:none; stroke:#b3b3b3; stroke-linejoin:round;" d="M 81,235.4 H 491.6"/>
<path style="fill:none; stroke:#b3b3b3; stroke-linejoin:round;" d="m 75.4,235.4 h 5.7"/>
<path style="fill:none; stroke:#b3b3b3; stroke-linejoin:round;" d="m 75.4,235.4 h 5.7"/>
<path style="fill:none; stroke:#b3b3b3; stroke-linejoin:round;" d="m 75.4,202.6 h 5.7"/>
<path style="fill:none; stroke:#b3b3b3; stroke-linejoin:round;" d="m 75.4,202.6 h 5.7"/>
<path style="fill:none; stroke:#b3b3b3; stroke-linejoin:round;" d="m 75.4,169.9 h 5.7"/>
<path style="fill:none; stroke:#b3b3b3; stroke-linejoin:round;" d="m 75.4,169.9 h 5.7"/>
<path style="fill:none; stroke:#b3b3b3; stroke-linejoin:round;" d="m 75.4,137.2 h 5.7"/>
<path style="fill:none; stroke:#b3b3b3; stroke-linejoin:round;" d="m 75.4,137.2 h 5.7"/>
<path style="fill:none; stroke:#b3b3b3; stroke-linejoin:round;" d="m 75.4,104.4 h 5.7"/>
<path style="fill:none; stroke:#b3b3b3; stroke-linejoin:round;" d="m 75.4,104.4 h 5.7"/>
<path style="fill:none; stroke:#b3b3b3; stroke-linejoin:round;" d="m 75.4,71.7 h 5.7"/>
<path style="fill:none; stroke:#b3b3b3; stroke-linejoin:round;" d="m 75.4,71.7 h 5.7"/>
<path style="fill:none; stroke:#b3b3b3; stroke-linejoin:round;" d="m 75.4,39 h 5.7"/>
<path style="fill:none; stroke:#b3b3b3; stroke-linejoin:round;" d="m 75.4,39 h 5.7"/>
<path style="fill:none; stroke:#b3b3b3; stroke-linejoin:round;" d="m 75.4,6.2 h 5.7"/>
<path style="fill:none; stroke:#b3b3b3; stroke-linejoin:round;" d="m 75.4,6.2 h 5.7"/>
<path style="fill:none; stroke:#b3b3b3; stroke-linejoin:round;" d="M 81,235.4 V 6.2"/>
<text x="25.2" y="-31.9">10</text>
<text x="25.2" y="-31.9">15</text>
<text x="25.2" y="-31.9">20</text>
<text x="25.2" y="-31.9">25</text>
<text x="25.2" y="-31.9">30</text>
<text x="25.2" y="-31.9">35</text>
<text x="25.2" y="-31.9">40</text>
<text x="25.2" y="-31.9">45</text>
<text x="25.2" y="-31.9">$0</text>
<text x="25.2" y="-31.9">$100</text>
<text x="25.2" y="-31.9">$200</text>
<text x="25.2" y="-31.9">$300</text>
<text x="25.2" y="-31.9">$400</text>
<text x="25.2" y="-31.9">$500</text>
<text x="25.2" y="-31.9">$600</text>
<text x="25.2" y="-31.9">$700</text>
<text x="176.9" y="289.6" style="font-family:Georgia; font-size:24.2px; font-style:italic; fill:black; stroke-width:1.04;">Temperature °C</text>
<circle id="aa1" cx="103" cy="175.4" r="4.33936" style="color:black; overflow:visible; fill:#013397; stroke-width:5.3;"/>
<use transform="translate(26.4961,-10.5055)" xlink:href="#aa1"/>
<use transform="translate(39.7361,-48.4155)" xlink:href="#aa1"/>
<use transform="translate(53.8961,-45.6755)" xlink:href="#aa1"/>
<use transform="translate(61.6661,-73.9955)" xlink:href="#aa1"/>
<use id="aa2" transform="translate(72.1661,-78.1055)" xlink:href="#aa1"/>
<use id="aa3" transform="translate(6.39614,6.39455)" xlink:href="#aa2"/>
<use transform="translate(-0.003862,0.004547)" xlink:href="#aa3"/>
<use transform="translate(52.9861,-7.30545)" xlink:href="#aa2"/>
<use transform="translate(15.9861,3.19455)" xlink:href="#aa2"/>
<use transform="translate(46.5961,-32.8855)" xlink:href="#aa2"/>
<use transform="translate(62.5761,-41.1055)" xlink:href="#aa2"/>
<use transform="translate(83.5861,-62.5755)" xlink:href="#aa2"/>
<use transform="translate(117.846,-47.0455)" xlink:href="#aa2"/>
<use id="aa4" transform="translate(155.306,-52.5255)" xlink:href="#aa2"/>
<use transform="translate(23.7561,58.0145)" xlink:href="#aa4"/>
<use transform="translate(51.1561,33.3445)" xlink:href="#aa4"/>
<use transform="translate(69.8861,58.9245)" xlink:href="#aa4"/>
<use transform="translate(74.9061,90.4445)" xlink:href="#aa4"/>
<use transform="translate(93.1861,93.1845)" xlink:href="#aa4"/>
<use transform="translate(104.596,102.315)" xlink:href="#aa4"/>
<use transform="translate(121.506,121.505)" xlink:href="#aa4"/>
<text x="48.8" y="240.5" style="font-family:Arial; font-size:15.6px; stroke-width:1.04;">$0</text>
<text x="31.4" y="208" style="font-family:Arial; font-size:15.6px; stroke-width:1.04;">$100</text>
<text x="31.4" y="175.6" style="font-family:Arial; font-size:15.6px; stroke-width:1.04;">$200</text>
<text x="31.4" y="143.1" style="font-family:Arial; font-size:15.6px; stroke-width:1.04;">$300</text>
<text x="31.4" y="110.6" style="font-family:Arial; font-size:15.6px; stroke-width:1.04;">$400</text>
<text x="31.4" y="78.2" style="font-family:Arial; font-size:15.6px; stroke-width:1.04;">$500</text>
<text x="31.4" y="45.7" style="font-family:Arial; font-size:15.6px; stroke-width:1.04;">$600</text>
<text x="31.4" y="13.3" style="font-family:Arial; font-size:15.6px; stroke-width:1.04;">$700</text>
<text x="-156.5" y="20.1" transform="rotate(-90)" style="font-family:Georgia; font-size:24.2px; font-style:italic; stroke-width:1.04;">Sales</text>
<text x="73.5" y="258.4" style="font-family:Arial; font-size:15.6px; stroke-width:1.04;">10</text>
<text x="131.8" y="258.5" style="font-family:Arial; font-size:15.6px; stroke-width:1.04;">15</text>
<text x="190.8" y="258.5" style="font-family:Arial; font-size:15.6px; stroke-width:1.04;">20</text>
<text x="249.1" y="258.4" style="font-family:Arial; font-size:15.6px; stroke-width:1.04;">25</text>
<text x="307.4" y="258.4" style="font-family:Arial; font-size:15.6px; stroke-width:1.04;">30</text>
<text x="365.7" y="258.4" style="font-family:Arial; font-size:15.6px; stroke-width:1.04;">35</text>
<text x="424.3" y="258.5" style="font-family:Arial; font-size:15.6px; stroke-width:1.04;">40</text>
<text x="482.6" y="258.4" style="font-family:Arial; font-size:15.6px; stroke-width:1.04;">45</text>
</svg>