<?xml version="1.0" encoding="UTF-8" standalone="no"?>
<!-- Copyright 2017 mathsisfun.com -->
<svg xmlns="http://www.w3.org/2000/svg" xmlns:xlink="http://www.w3.org/1999/xlink" width="711" height="149.8" version="1.1">
<defs/>
<ellipse cx="64.5" cy="85.7" rx="63.8" ry="63.5" style="fill:#ba00ff; fill-opacity:0.25; stroke:black; stroke-width:1.35;"/>
<text x="-1889.9" y="-40.5" style="font-family:Arial; font-size:15.2px; fill:black; stroke-width:0.38;"/>
  
<ellipse cx="143.6" cy="85.7" rx="51.4" ry="51.2" style="fill:#9ade00; fill-opacity:0.28; stroke:black; stroke-width:1.35;"/>
<text x="119" y="27.7" style="font-family:Georgia; font-size:20px; font-style:italic; fill:#9ade00; stroke:#9ade00; stroke-width:0.48;">Kings</text>
<text x="37.4" y="17.1" style="font-family:Georgia; font-size:20px; font-style:italic; fill:#ba00ff; stroke:#ba00ff; stroke-width:0.48;">Hearts</text>
<g transform="matrix(0.294009,0,0,0.293344,-1203.48,22.257)">
<path d="m 4608.4,296.8 h -24.8 c 0,0 3.9,0.8 14.7,-9.5 10.8,-10.3 10.1,-15.8 10.1,-15.8 m -24.8,25.2 c 0,0 5.4,-0.8 15.5,10.3 10.1,11 9.3,15 9.3,15 v -25.2 m 0,25.2 c 0,0 -0.8,-5.5 10.1,-15.8 10.8,-10.3 14.7,-9.5 14.7,-9.5 h -24.8 m 24.8,0 c 0,0 -5.4,0.8 -15.5,-10.3 -10.1,-11 -9.3,-15 -9.3,-15 v 25.2" style="fill:#e61408;"/>
<text x="4551.6" y="321.3" style="font-family:Arial; font-size:68.6px; color:black; overflow:visible; fill:#e61408; stroke-width:1px;">K</text>
</g>
<g transform="matrix(0.294009,0,0,0.293344,-1190.14,1.81795)">
<g transform="matrix(1.25,0,0,1.25,4523.33,162.912)">
<g>
<path d="m 43.9,51 c -4.4,0 -6.6,-4.6 -7.8,-9.3 -1.2,-4.6 -1.3,-9.3 -1.3,-9.3 h -2.2 c 0,0 -0.4,18.6 -9.1,18.6 H 44 Z"/>
</g>
<path d="M 51.3,32.4 C 51.2,23.3 37.7,16.7 33.7,9.6 c -4,7.1 -17.6,13.7 -17.6,22.8 0,4.3 3.9,7.7 8.8,7.7 4.9,0 8.8,-3.5 8.8,-7.7 0,4.3 3.9,7.7 8.8,7.7 4.9,0 8.8,-3.5 8.8,-7.7 z"/>
</g>
<text x="4505.5" y="226.2" style="font-family:Arial; font-size:68.6px; color:black; overflow:visible; fill:#2d2d2d; stroke-width:1px;">K</text>
</g>
<g transform="matrix(0.294009,0,0,0.293344,-1202.11,18.423)">
<g transform="matrix(1.25,0,0,1.25,4635.57,189.486)">
<path d="m 42.3,17.9 c 0,4.7 -3.9,8.6 -8.8,8.6 -4.9,0 -8.8,-3.8 -8.8,-8.6 0,-4.7 3.9,-8.6 8.8,-8.6 4.9,0 8.8,3.8 8.8,8.6 z"/>
<path d="m 53.7,34.1 c 0,4.7 -3.9,8.6 -8.8,8.6 -4.9,0 -8.8,-3.8 -8.8,-8.6 0,-4.7 3.9,-8.6 8.8,-8.6 4.9,0 8.8,3.8 8.8,8.6 z"/>
<path d="m 31.1,34.2 c 0,1.7 -0.5,3.3 -1.4,4.7 -1.6,2.3 -4.3,3.9 -7.4,3.9 -4.9,0 -8.8,-3.8 -8.8,-8.6 0,-4.7 3.9,-8.6 8.8,-8.6 4.9,0 8.8,3.8 8.8,8.6 z"/>
<g>
<path d="m 43.9,50.8 c -4.4,0 -6.6,-3.5 -7.8,-7.1 -1.2,-3.5 -1.3,-7.1 -1.3,-7.1 h -2.2 c 0,0 -0.4,14.2 -9.1,14.2 H 44 Z"/>
</g>
<g>
<path d="m 27.5,24.2 c 5,5 5,12.4 5,12.4 h 2.2 c 0,0 0,-7.6 4.8,-12.4"/>
</g>
<g>
<path d="m 28.5,40.1 c 5,-5 12.4,-5 12.4,-5 v -2.2 c 0,0 -7.6,0 -12.4,-4.8"/>
</g>
<g>
<path d="m 38.4,40.2 c -4.9,-5 -12.3,-5 -12.3,-5 V 33 c 0,0 7.6,0 12.4,-4.8"/>
</g>
</g>
<text x="4614.6" y="252.5" style="font-family:Arial; font-size:68.6px; color:black; overflow:visible; fill:#2d2d2d; stroke-width:1px;">K</text>
</g>
<g transform="matrix(0.294009,0,0,0.293344,-1204.66,2.15295)">
<path d="m 4467.2,270.3 c 0,15 18.8,25.9 24.3,37.7 5.6,-11.8 24.4,-22.6 24.5,-37.6 0,-7.1 -5.4,-12.8 -12.2,-12.8 -6.7,0 -12.2,5.7 -12.2,12.8 0,-7.1 -5.4,-12.8 -12.2,-12.8 -6.7,0 -12.2,5.7 -12.2,12.8 z" style="fill:#e61408;"/>
<text x="4422.6" y="307.3" style="font-family:Arial; font-size:68.6px; color:black; overflow:visible; fill:#e61408; stroke-width:1px;">K</text>
</g>
<g transform="translate(-3395.22,-283.833)" id="id01">
<path d="m 3458,314.6 c 0,4.4 5.5,7.6 7.1,11.1 1.6,-3.5 7.2,-6.6 7.2,-11 0,-2.1 -1.6,-3.8 -3.6,-3.8 -2,0 -3.6,1.7 -3.6,3.7 0,-2.1 -1.6,-3.8 -3.6,-3.8 -2,0 -3.6,1.7 -3.6,3.7 z" style="fill:#e61408; stroke-width:0.38;"/>
<text x="3442.7" y="325.8" transform="scale(1.00113,0.99887)" style="font-family:Arial; font-size:20.1px; color:black; overflow:visible; fill:#e61408; stroke-width:0.38px;">A</text>
<g transform="matrix(0.294009,0,0,0.293344,2235.64,268.114)">
<path d="m 4053.9,207.3 c 0,15 18.8,25.9 24.3,37.7 5.6,-11.8 24.4,-22.6 24.5,-37.6 0,-7.1 -5.4,-12.8 -12.2,-12.8 -6.7,0 -12.2,5.7 -12.2,12.8 0,-7.1 -5.4,-12.8 -12.2,-12.8 -6.7,0 -12.2,5.7 -12.2,12.8 z" style="fill:#e61408;"/>
<text x="4017.2" y="244.4" style="font-family:Arial; font-size:68.6px; color:black; overflow:visible; fill:#e61408; stroke-width:1px;">2</text>
</g>
<g transform="matrix(0.294009,0,0,0.293344,2272.16,302.954)">
<path d="m 3880.7,178.1 c 0,15 18.8,25.9 24.3,37.7 5.5,-11.8 24.4,-22.6 24.5,-37.6 0,-7.1 -5.4,-12.8 -12.2,-12.8 -6.7,0 -12.2,5.7 -12.2,12.8 0,-7.1 -5.4,-12.8 -12.2,-12.8 -6.7,0 -12.2,5.7 -12.2,12.8 z" style="fill:#e61408;"/>
<text x="3844" y="214.8" style="font-family:Arial; font-size:68.6px; color:black; overflow:visible; fill:#e61408; stroke-width:1px;">3</text>
</g>
<g transform="matrix(0.294009,0,0,0.293344,2232.32,297.218)">
<path d="m 4016.7,284.3 c 0,15 18.8,25.9 24.3,37.7 5.6,-11.8 24.4,-22.6 24.5,-37.6 0,-7.1 -5.4,-12.8 -12.2,-12.8 -6.7,0 -12.2,5.7 -12.2,12.8 0,-7.1 -5.4,-12.8 -12.2,-12.8 -6.7,0 -12.2,5.7 -12.2,12.8 z" style="fill:#e61408;"/>
<text x="3984" y="321.3" style="font-family:Arial; font-size:68.6px; color:black; overflow:visible; fill:#e61408; stroke-width:1px;">4</text>
</g>
<g transform="matrix(0.294009,0,0,0.293344,2215.38,320.011)">
<path d="m 4132.4,284.3 c 0,15 18.8,25.9 24.3,37.7 5.6,-11.8 24.4,-22.6 24.5,-37.6 0,-7.1 -5.4,-12.8 -12.2,-12.8 -6.7,0 -12.2,5.7 -12.2,12.8 0,-7.1 -5.4,-12.8 -12.2,-12.8 -6.7,0 -12.2,5.7 -12.2,12.8 z" style="fill:#e61408;"/>
<text x="4097.7" y="320.6" style="font-family:Arial; font-size:68.6px; color:black; overflow:visible; fill:#e61408; stroke-width:1px;">5</text>
</g>
<g transform="matrix(0.294009,0,0,0.293344,2208.14,302.721)">
<path d="m 4226.9,284.3 c 0,15 18.8,25.9 24.3,37.7 5.6,-11.8 24.4,-22.6 24.5,-37.6 0,-7.1 -5.4,-12.8 -12.2,-12.8 -6.7,0 -12.2,5.7 -12.2,12.8 0,-7.1 -5.4,-12.8 -12.2,-12.8 -6.7,0 -12.2,5.7 -12.2,12.8 z" style="fill:#e61408;"/>
<text x="4192.2" y="321" style="font-family:Arial; font-size:68.6px; color:black; overflow:visible; fill:#e61408; stroke-width:1px;">6</text>
</g>
<g transform="matrix(0.294009,0,0,0.293344,2165.27,282.926)">
<path d="m 4329.6,284.3 c 0,15 18.8,25.9 24.3,37.7 5.6,-11.8 24.4,-22.6 24.5,-37.6 0,-7.1 -5.4,-12.8 -12.2,-12.8 -6.7,0 -12.2,5.7 -12.2,12.8 0,-7.1 -5.4,-12.8 -12.2,-12.8 -6.7,0 -12.2,5.7 -12.2,12.8 z" style="fill:#e61408;"/>
<text x="4294.9" y="321" style="font-family:Arial; font-size:68.6px; color:black; overflow:visible; fill:#e61408; stroke-width:1px;">7</text>
</g>
<g transform="matrix(0.294009,0,0,0.293344,2197.27,285.814)">
<path d="m 4246.4,205 c 0,15 18.8,25.9 24.3,37.7 5.6,-11.8 24.4,-22.6 24.5,-37.6 0,-7.1 -5.4,-12.8 -12.2,-12.8 -6.7,0 -12.2,5.7 -12.2,12.8 0,-7.1 -5.4,-12.8 -12.2,-12.8 -6.7,0 -12.2,5.7 -12.2,12.8 z" style="fill:#e61408;"/>
<text x="4209.7" y="241.7" style="font-family:Arial; font-size:68.6px; color:black; overflow:visible; fill:#e61408; stroke-width:1px;">8</text>
</g>
<g transform="matrix(0.294009,0,0,0.293344,2256.55,294.487)">
<path d="m 4149.6,352 c 0,15 18.8,25.9 24.3,37.7 5.5,-11.8 24.4,-22.6 24.5,-37.6 0,-7.1 -5.4,-12.8 -12.2,-12.8 -6.7,0 -12.2,5.7 -12.2,12.8 0,-7.1 -5.4,-12.8 -12.2,-12.8 -6.7,0 -12.2,5.7 -12.2,12.8 z" style="fill:#e61408;"/>
<text x="4112.9" y="388.7" style="font-family:Arial; font-size:68.6px; color:black; overflow:visible; fill:#e61408; stroke-width:1px;">9</text>
</g>
<g transform="matrix(0.294009,0,0,0.293344,2188.28,303.97)">
<path d="m 4348.7,210.8 c 0,15 18.8,25.9 24.3,37.7 5.6,-11.8 24.4,-22.6 24.5,-37.6 0.1,-7.1 -5.4,-12.8 -12.2,-12.8 -6.7,0 -12.2,5.7 -12.2,12.8 0,-7.1 -5.4,-12.8 -12.2,-12.8 -6.7,0 -12.2,5.7 -12.2,12.8 z" style="fill:#e61408;"/>
<text x="4316" y="247.4" style="font-family:Arial; font-size:68.6px; color:black; overflow:visible; fill:#e61408; stroke-width:1px;">J</text>
</g>
<g transform="matrix(0.294009,0,0,0.293344,2185.21,229.95)">
<path d="m 4390.8,350.8 c 0,15 18.8,25.9 24.3,37.7 5.6,-11.8 24.4,-22.6 24.5,-37.6 0,-7.1 -5.4,-12.8 -12.2,-12.8 -6.7,0 -12.2,5.7 -12.2,12.8 0,-7.1 -5.4,-12.8 -12.2,-12.8 -6.7,0 -12.2,5.7 -12.2,12.8 z" style="fill:#e61408;"/>
<text x="4338.2" y="386.4" style="font-family:Arial; font-size:68.6px; color:black; overflow:visible; fill:#e61408; stroke-width:1px;">Q</text>
</g>
<g transform="matrix(0.294009,0,0,0.293344,2202.72,313.043)">
<path d="m 4275.5,352 c 0,15 18.8,25.9 24.3,37.7 5.5,-11.8 24.4,-22.6 24.5,-37.6 0,-7.1 -5.4,-12.8 -12.2,-12.8 -6.7,0 -12.2,5.7 -12.2,12.8 0,-7.1 -5.4,-12.8 -12.2,-12.8 -6.7,0 -12.2,5.7 -12.2,12.8 z" style="fill:#e61408;"/>
<text x="4239.1" y="388.7" style="font-family:Arial; font-size:68.6px; color:black; overflow:visible; fill:#e61408; stroke-width:1px;">0</text>
<text x="4212.7" y="389.1" style="font-family:Arial; font-size:68.6px; color:black; overflow:visible; fill:#e61408; stroke-width:1px;">1</text>
</g>
</g>
<path d="m 679.4,43.8 c -12.7,9.3 -20.9,24.3 -20.9,41.2 0,16.9 8.2,31.9 20.9,41.2 9.5,-11.1 15.2,-25.5 15.2,-41.2 0,-15.7 -5.7,-30.1 -15.2,-41.2 z" style="fill:#a78863; fill-opacity:0.33; stroke:black; stroke-width:1.35;"/>
<g transform="matrix(0.294009,0,0,0.293344,-638.385,1.44695)">
<path d="m 4467.2,270.3 c 0,15 18.8,25.9 24.3,37.7 5.6,-11.8 24.4,-22.6 24.5,-37.6 0,-7.1 -5.4,-12.8 -12.2,-12.8 -6.7,0 -12.2,5.7 -12.2,12.8 0,-7.1 -5.4,-12.8 -12.2,-12.8 -6.7,0 -12.2,5.7 -12.2,12.8 z" style="fill:#e61408;"/>
<text x="4422.6" y="307.3" style="font-family:Arial; font-size:68.6px; color:black; overflow:visible; fill:#e61408; stroke-width:1px;">K</text>
</g>
<ellipse cx="367.8" cy="85.7" rx="63.8" ry="63.5" style="fill:#ba00ff; fill-opacity:0.25; stroke:black; stroke-width:1.35;"/>
<text x="338.5" y="17.1" style="font-family:Georgia; font-size:20px; font-style:italic; fill:#ba00ff; stroke:#ba00ff; stroke-width:0.48;">Hearts</text>
<ellipse cx="544.1" cy="85.7" rx="51.4" ry="51.2" style="fill:#9ade00; fill-opacity:0.28; stroke:black; stroke-width:1.35;"/>
<text x="521.8" y="27.7" style="font-family:Georgia; font-size:20px; font-style:italic; fill:#9ade00; stroke:#9ade00; stroke-width:0.48;">Kings</text>
<g transform="matrix(0.294009,0,0,0.293344,-802.945,22.257)">
<path d="m 4608.4,296.8 h -24.8 c 0,0 3.9,0.8 14.7,-9.5 10.8,-10.3 10.1,-15.8 10.1,-15.8 m -24.8,25.2 c 0,0 5.4,-0.8 15.5,10.3 10.1,11 9.3,15 9.3,15 v -25.2 m 0,25.2 c 0,0 -0.8,-5.5 10.1,-15.8 10.8,-10.3 14.7,-9.5 14.7,-9.5 h -24.8 m 24.8,0 c 0,0 -5.4,0.8 -15.5,-10.3 -10.1,-11 -9.3,-15 -9.3,-15 v 25.2" style="fill:#e61408;"/>
<text x="4551.6" y="321.3" style="font-family:Arial; font-size:68.6px; color:black; overflow:visible; fill:#e61408; stroke-width:1px;">K</text>
</g>
<g transform="matrix(0.294009,0,0,0.293344,-789.605,1.81795)">
<g transform="matrix(1.25,0,0,1.25,4523.33,162.912)">
<g>
<path d="m 43.9,51 c -4.4,0 -6.6,-4.6 -7.8,-9.3 -1.2,-4.6 -1.3,-9.3 -1.3,-9.3 h -2.2 c 0,0 -0.4,18.6 -9.1,18.6 H 44 Z"/>
</g>
<path d="M 51.3,32.4 C 51.2,23.3 37.7,16.7 33.7,9.6 c -4,7.1 -17.6,13.7 -17.6,22.8 0,4.3 3.9,7.7 8.8,7.7 4.9,0 8.8,-3.5 8.8,-7.7 0,4.3 3.9,7.7 8.8,7.7 4.9,0 8.8,-3.5 8.8,-7.7 z"/>
</g>
<text x="4505.5" y="226.2" style="font-family:Arial; font-size:68.6px; color:black; overflow:visible; fill:#2d2d2d; stroke-width:1px;">K</text>
</g>
<g transform="matrix(0.294009,0,0,0.293344,-801.575,18.423)">
<g transform="matrix(1.25,0,0,1.25,4635.57,189.486)">
<path d="m 42.3,17.9 c 0,4.7 -3.9,8.6 -8.8,8.6 -4.9,0 -8.8,-3.8 -8.8,-8.6 0,-4.7 3.9,-8.6 8.8,-8.6 4.9,0 8.8,3.8 8.8,8.6 z"/>
<path d="m 53.7,34.1 c 0,4.7 -3.9,8.6 -8.8,8.6 -4.9,0 -8.8,-3.8 -8.8,-8.6 0,-4.7 3.9,-8.6 8.8,-8.6 4.9,0 8.8,3.8 8.8,8.6 z"/>
<path d="m 31.1,34.2 c 0,1.7 -0.5,3.3 -1.4,4.7 -1.6,2.3 -4.3,3.9 -7.4,3.9 -4.9,0 -8.8,-3.8 -8.8,-8.6 0,-4.7 3.9,-8.6 8.8,-8.6 4.9,0 8.8,3.8 8.8,8.6 z"/>
<g>
<path d="m 43.9,50.8 c -4.4,0 -6.6,-3.5 -7.8,-7.1 -1.2,-3.5 -1.3,-7.1 -1.3,-7.1 h -2.2 c 0,0 -0.4,14.2 -9.1,14.2 H 44 Z"/>
</g>
<g>
<path d="m 27.5,24.2 c 5,5 5,12.4 5,12.4 h 2.2 c 0,0 0,-7.6 4.8,-12.4"/>
</g>
<g>
<path d="m 28.5,40.1 c 5,-5 12.4,-5 12.4,-5 v -2.2 c 0,0 -7.6,0 -12.4,-4.8"/>
</g>
<g>
<path d="m 38.4,40.2 c -4.9,-5 -12.3,-5 -12.3,-5 V 33 c 0,0 7.6,0 12.4,-4.8"/>
</g>
</g>
<text x="4614.6" y="252.5" style="font-family:Arial; font-size:68.6px; color:black; overflow:visible; fill:#2d2d2d; stroke-width:1px;">K</text>
</g>
<text x="444.7" y="100.6" style="font-family:Arial; font-size:54.7px; color:black; overflow:visible; fill:black; stroke-width:0.38px;">+</text>
<text x="615.7" y="97.5" style="font-family:Arial; font-size:54.7px; color:black; overflow:visible; fill:black; stroke-width:0.38px;">-</text>
<text x="674.8" y="15.4" style="font-family:Georgia; text-align:center; text-anchor:middle; font-size:20px; font-style:italic; fill:#a78863; stroke:#a78863; stroke-width:0.48;">King of</text>
<text x="231" y="100.6" style="font-family:Arial; font-size:54.7px; color:black; overflow:visible; fill:black; stroke-width:0.38px;">=</text>
<path d="m 513.8,44.2 c -12.7,9.3 -20.9,24.3 -20.9,41.2 0,16.9 8.2,31.9 20.9,41.2 9.5,-11.1 15.2,-25.5 15.2,-41.2 0,-15.7 -5.7,-30.1 -15.2,-41.2 z" style="fill:#e2d8cc; stroke:black; stroke-width:1.35;"/>
<path d="m 416.1,44.2 c -12.7,9.3 -20.9,24.3 -20.9,41.2 0,16.9 8.2,31.9 20.9,41.2 9.5,-11.1 15.2,-25.5 15.2,-41.2 0,-15.7 -5.7,-30.1 -15.2,-41.2 z" style="fill:#e2d8cc; stroke:black; stroke-width:1.35;"/>
<g transform="matrix(0.294009,0,0,0.293344,-804.125,2.15295)">
<path d="m 4467.2,270.3 c 0,15 18.8,25.9 24.3,37.7 5.6,-11.8 24.4,-22.6 24.5,-37.6 0,-7.1 -5.4,-12.8 -12.2,-12.8 -6.7,0 -12.2,5.7 -12.2,12.8 0,-7.1 -5.4,-12.8 -12.2,-12.8 -6.7,0 -12.2,5.7 -12.2,12.8 z" style="fill:#e61408;"/>
<text x="4422.6" y="307.3" style="font-family:Arial; font-size:68.6px; color:black; overflow:visible; fill:#e61408; stroke-width:1px;">K</text>
</g>
<g transform="matrix(0.294009,0,0,0.293344,-901.405,2.15295)">
<path d="m 4467.2,270.3 c 0,15 18.8,25.9 24.3,37.7 5.6,-11.8 24.4,-22.6 24.5,-37.6 0,-7.1 -5.4,-12.8 -12.2,-12.8 -6.7,0 -12.2,5.7 -12.2,12.8 0,-7.1 -5.4,-12.8 -12.2,-12.8 -6.7,0 -12.2,5.7 -12.2,12.8 z" style="fill:#e61408;"/>
<text x="4422.6" y="307.3" style="font-family:Arial; font-size:68.6px; color:black; overflow:visible; fill:#e61408; stroke-width:1px;">K</text>
</g>
<use transform="translate(301.21)" xlink:href="#id01"/>
<text x="674.8" y="39.4" style="font-family:Georgia; text-align:center; text-anchor:middle; font-size:20px; font-style:italic; fill:#a78863; stroke:#a78863; stroke-width:0.48;">Hearts</text>
</svg>
