<?xml version="1.0" encoding="UTF-8" standalone="no"?>
<!-- Copyright 2017 mathsisfun.com -->

<svg
   width="279.3"
   height="211.4"
   version="1.1"
   id="svg90"
   sodipodi:docname="skewed-distribution.svg"
   inkscape:version="1.1 (c68e22c387, 2021-05-23)"
   xmlns:inkscape="http://www.inkscape.org/namespaces/inkscape"
   xmlns:sodipodi="http://sodipodi.sourceforge.net/DTD/sodipodi-0.dtd"
   xmlns="http://www.w3.org/2000/svg"
   xmlns:svg="http://www.w3.org/2000/svg">
  <sodipodi:namedview
     id="namedview92"
     pagecolor="#ffffff"
     bordercolor="#666666"
     borderopacity="1.0"
     inkscape:pageshadow="2"
     inkscape:pageopacity="0.0"
     inkscape:pagecheckerboard="0"
     showgrid="false"
     inkscape:current-layer="svg90" />
  <defs
     id="defs8">
    <marker
       style="overflow:visible"
       orient="auto"
       id="id02">
      <path
         d="M 0,0 5,-5 -12.5,0 5,5 Z"
         transform="matrix(-0.8,0,0,-0.8,-10,0)"
         style="stroke:black;stroke-width:1pt"
         id="path2" />
    </marker>
    <marker
       style="overflow:visible"
       orient="auto"
       id="id01">
      <path
         d="M 0,0 5,-5 -12.5,0 5,5 Z"
         transform="matrix(-0.8,0,0,-0.8,-10,0)"
         style="fill:#005c94;stroke:#005c94;stroke-width:1pt"
         id="path5" />
    </marker>
  </defs>
  <rect
     x="0"
     y="0"
     width="279.3"
     height="211.4"
     style="color:#000000;overflow:visible;fill:#ffffff;stroke-width:5.26"
     id="rect10"
     ry="26.123" />
  <path
     style="fill:none;fill-rule:evenodd;stroke:#204a87;stroke-width:0.999999px;stroke-linecap:butt;stroke-linejoin:miter;stroke-opacity:1"
     d="M 35.788,4.80704 V 187.8"
     id="path1320" />
  <g
     id="g34">
    <rect
       x="74.2"
       y="27.1"
       width="18.7"
       height="161"
       style="color:black;overflow:visible;fill:#f1caff;stroke:black;stroke-width:0.8"
       id="rect12" />
    <rect
       x="55.8"
       y="60.7"
       width="18.9"
       height="127.1"
       style="color:black;overflow:visible;fill:#f1caff;stroke:black;stroke-width:0.8"
       id="rect14" />
    <rect
       x="92.9"
       y="92.3"
       width="18.4"
       height="95.7"
       style="color:black;overflow:visible;fill:#f1caff;stroke:black;stroke-width:0.8"
       id="rect16" />
    <rect
       x="111.3"
       y="123.2"
       width="18.4"
       height="64.8"
       style="color:black;overflow:visible;fill:#f1caff;stroke:black;stroke-width:0.8"
       id="rect18" />
    <rect
       x="129.7"
       y="163.4"
       width="18"
       height="24.9"
       style="color:black;overflow:visible;fill:#f1caff;stroke:black;stroke-width:0.8"
       id="rect20" />
    <rect
       x="147.7"
       y="142.3"
       width="18.3"
       height="45.9"
       style="color:black;overflow:visible;fill:#f1caff;stroke:black;stroke-width:0.8"
       id="rect22" />
    <rect
       x="166.5"
       y="170.3"
       width="18.4"
       height="17.8"
       style="color:black;overflow:visible;fill:#f1caff;stroke:black;stroke-width:0.8"
       id="rect24" />
    <rect
       x="185"
       y="174.8"
       width="18.4"
       height="13.3"
       style="color:black;overflow:visible;fill:#f1caff;stroke:black;stroke-width:0.8"
       id="rect26" />
    <rect
       x="37.6"
       y="168.6"
       width="18.2"
       height="19.2"
       style="color:black;overflow:visible;fill:#f1caff;stroke:black;stroke-width:0.8"
       id="rect28" />
    <rect
       x="203.4"
       y="179.4"
       width="18.4"
       height="8.7"
       style="color:black;overflow:visible;fill:#f1caff;stroke:black;stroke-width:0.8"
       id="rect30" />
    <rect
       x="222.3"
       y="182.6"
       width="18.4"
       height="5.5"
       style="color:black;overflow:visible;fill:#f1caff;stroke:black;stroke-width:0.8"
       id="rect32" />
  </g>
  <circle
     cx="233.4"
     cy="67.1"
     r="16.7763"
     style="color:black;overflow:visible;fill:#19aeff;fill-opacity:0.61;stroke-width:1.05"
     id="circle36" />
  <g
     transform="matrix(0.5,0,0,0.5,830.89,-296.53)"
     id="g38" />
  <text
     x="29.8"
     y="203"
     style="font-family:Verdana;font-size:14.2px;fill:#013397;stroke-width:0.5"
     id="text40">10</text>
  <text
     x="66.4"
     y="203"
     style="font-family:Verdana;font-size:14.2px;fill:#013397;stroke-width:0.5"
     id="text42">20</text>
  <text
     x="103.2"
     y="203"
     style="font-family:Verdana;font-size:14.2px;fill:#013397;stroke-width:0.5"
     id="text44">30</text>
  <text
     x="140.2"
     y="203"
     style="font-family:Verdana;font-size:14.2px;fill:#013397;stroke-width:0.5"
     id="text46">40</text>
  <text
     x="177.1"
     y="203"
     style="font-family:Verdana;font-size:14.2px;fill:#013397;stroke-width:0.5"
     id="text48">50</text>
  <text
     x="212.9"
     y="203"
     style="font-family:Verdana;font-size:14.2px;fill:#013397;stroke-width:0.5"
     id="text50">60</text>
  <text
     x="17"
     y="192.9"
     style="font-family:Verdana;font-size:14.2px;fill:#986601;stroke-width:0.5"
     id="text52">0</text>
  <text
     x="7"
     y="160.4"
     style="font-family:Verdana;font-size:14.2px;fill:#986601;stroke-width:0.5"
     id="text54">10</text>
  <text
     x="7.1"
     y="127.8"
     style="font-family:Verdana;font-size:14.2px;fill:#986601;stroke-width:0.5"
     id="text56">20</text>
  <text
     x="7.1"
     y="95.3"
     style="font-family:Verdana;font-size:14.2px;fill:#986601;stroke-width:0.5"
     id="text58">30</text>
  <text
     x="7.4"
     y="63.2"
     style="font-family:Verdana;font-size:14.2px;fill:#986601;stroke-width:0.5"
     id="text60">40</text>
  <text
     x="7.4"
     y="30.8"
     style="font-family:Verdana;font-size:14.2px;fill:#986601;stroke-width:0.5"
     id="text62">50</text>
  <text
     x="149"
     y="113.8"
     style="font-family:Georgia;font-size:16px;font-style:italic;color:black;overflow:visible;fill:#005c94;stroke-width:0.5px"
     id="text64">Long &quot;Tail&quot;</text>
  <path
     d="m 179.4,119.4 31.9,51.3"
     style="marker-end:url(#id01);fill:none;stroke:#005c94;stroke-width:1.4"
     id="path66" />
  <text
     x="144.9"
     y="37.6"
     style="font-family:Georgia;font-size:16px;font-style:italic;color:black;overflow:visible;fill:#0e232e;stroke-width:0.5px"
     id="text68">Mean</text>
  <path
     d="m 138.9,34.5 -30,3"
     style="marker-end:url(#id02);fill:none;stroke:black;stroke-width:0.9"
     id="path70" />
  <text
     x="218.548"
     y="78.8209"
     style="color:#000000;font-size:36.1772px;font-family:Verdana;overflow:visible;fill:#000000;stroke-width:0.359998px"
     id="text72">+</text>
  <g
     transform="translate(747.35,-799.345)"
     id="g74" />
  <path
     d="m 28.5,26.9 h 7.4"
     style="fill:none;stroke:#999999;stroke-width:0.84"
     id="path76" />
  <path
     d="m 28.5,59.3 h 7.4"
     style="fill:none;stroke:#999999;stroke-width:0.84"
     id="path78" />
  <path
     d="m 28.5,91.7 h 7.4"
     style="fill:none;stroke:#999999;stroke-width:0.84"
     id="path80" />
  <path
     d="m 28.5,124 h 7.4"
     style="fill:none;stroke:#999999;stroke-width:0.84"
     id="path82" />
  <path
     d="m 28.5,156.4 h 7.4"
     style="fill:none;stroke:#999999;stroke-width:0.84"
     id="path84" />
  <path
     d="M 105,19.7 V 57.1"
     style="fill:none;stroke:black;stroke-width:1.44px"
     id="path86" />
  <path
     d="m 61.6,70 c -4.8,38.8 -7.8,57 -11.8,74.6 -4,17.6 -21.8,42 -36.9,42.4 -7.1,1 -28.1,1.1 -26.4,1.1 93.4,0 255.4,-0.2 348.8,-0.2 -25.3,0.1 -134.6,-2.5 -168.2,-27.2 -33.6,-24.7 -48.4,-42.8 -66.3,-102.5 -17.9,-59.7 -34.5,-27 -39.2,11.8 z m -79.1,118.2 c 94.7,0 261.2,0 355.9,0 -94.7,0 -261.2,0 -355.9,0 z"
     style="fill:#ffff3e;fill-opacity:0.54;stroke:#005c94;stroke-width:1.08;stroke-linecap:round;stroke-linejoin:round"
     id="path88" />
</svg>
