<?xml version="1.0" encoding="UTF-8" standalone="no"?>
<!-- Copyright 2017 mathsisfun.com -->
<svg xmlns="http://www.w3.org/2000/svg" xmlns:xlink="http://www.w3.org/1999/xlink" width="300" height="180.5" version="1.1">
<defs>
</defs>
<g transform="translate(766.491,166.434)">
<text x="-690.9" y="-116" transform="scale(1.10211,0.907351)" style="font-family:Georgia; font-size:18.7px; font-style:italic; overflow:visible; fill:#005c94; stroke-width:4.58;">Red</text>
<text x="-690.6" y="-37.4" transform="scale(1.10211,0.907351)" style="font-family:Georgia; font-size:18.7px; font-style:italic; overflow:visible; fill:#005c94; stroke-width:4.58;">Green</text>
<text x="-689" y="-155.1" transform="scale(1.10211,0.907351)" style="font-family:Georgia; font-size:18.7px; font-style:italic; overflow:visible; fill:#005c94; stroke-width:4.58;">Yellow</text>
<text x="-690.9" y="-76.8" transform="scale(1.10211,0.907351)" style="font-family:Georgia; font-size:18.7px; font-style:italic; overflow:visible; fill:#005c94; stroke-width:4.58;">Blue</text>
<text x="-690.8" y="1.6" transform="scale(1.10211,0.907351)" style="font-family:Georgia; font-size:18.7px; font-style:italic; overflow:visible; fill:#005c94; stroke-width:4.58;">Pink</text>
<path d="m -665.4,-159.4 c -0.5,7.4 -2.3,14.6 -3.9,21.8 -5.2,4.1 -2.2,-2.6 -1.6,-5.9 2,-4.6 0.4,-11.5 3.5,-14.9 0.6,-0.3 1.3,-0.7 1.9,-1 z" style="overflow:visible; fill:#0169c9; stroke-width:0.75;"/>
<path d="m -658.1,-160 c -2,8.1 -4.5,16.1 -5.2,24.4 -5.1,3.9 -2.6,-2.9 -2.1,-6.2 1.4,-5.5 2.3,-11.6 4.3,-16.7 1,-0.5 2,-1 2.9,-1.4 z" style="overflow:visible; fill:#0169c9; stroke-width:0.75;"/>
<path d="m -650.1,-158.8 c -2.7,6.9 -5,14 -5.8,21.4 -4.3,3.4 -3.1,-0.3 -2.3,-4.1 1.5,-5.4 2.4,-12 5.9,-16.2 0.7,-0.4 1.7,-0.8 2.2,-1.1 z" style="overflow:visible; fill:#0169c9; stroke-width:0.75;"/>
<path d="m -641.6,-161 c -2,7.4 -4,14.8 -4.3,22.6 0.7,1.8 -5.2,4.4 -3.4,2.4 0.8,-6.9 1.5,-13.8 3.7,-20.4 0,-3 1.6,-3.6 4,-4.6 z" style="overflow:visible; fill:#0169c9; stroke-width:0.75;"/>
<path d="m -665.2,-122.3 c -0.2,6.8 -1.5,13.5 -2.4,20.3 -5.1,4.9 -2.1,-3.5 -1.7,-6.6 1.6,-4 -0.9,-10.1 2.7,-12.7 0.5,-0.3 1,-0.6 1.5,-0.9 z" style="overflow:visible; fill:#0169c9; stroke-width:0.75;"/>
<path d="m -657.2,-120 c -1.6,6.7 -2.5,13.6 -3.2,20.4 -3.4,3.5 -3.3,0.4 0.2,-0.6 -4.5,6.8 -2.7,-4 -2.1,-7.2 1.4,-4.2 -0.1,-10.7 4.8,-12.5 z" style="overflow:visible; fill:#0169c9; stroke-width:0.75;"/>
<path d="m -650.1,-121.9 c -0.7,7 -1.7,14.1 -2.5,21.1 -5,4.7 -2.1,-3.1 -2.1,-6.4 1.3,-4.3 -0.2,-10.4 2.8,-13.6 0.6,-0.4 1.2,-0.8 1.9,-1.1 z" style="overflow:visible; fill:#0169c9; stroke-width:0.75;"/>
<path d="m -641.3,-125.5 c -2.3,7.7 -4.1,15.5 -4.4,23.6 0.2,3.6 -6.1,6.2 -2.9,0.6 0.2,-7.7 1.9,-15.5 4.5,-22.5 0.9,-0.6 1.9,-1.1 2.8,-1.7 z" style="overflow:visible; fill:#0169c9; stroke-width:0.75;"/>
<path d="m -664.7,-84.9 c -0.3,6 -2.6,12.1 -1.4,18.2 -3.8,4.6 -4,-1.8 -3.3,-5.1 1.6,-4 -0.8,-10.5 3.7,-12.5 0.3,-0.2 0.6,-0.4 1,-0.5 z" style="overflow:visible; fill:#0169c9; stroke-width:0.75;"/>
<path d="m -655.3,-85.2 c -2.1,6.8 -3.5,14 -2.9,21.2 -0.6,-1.3 -4.4,4.6 -3.2,-0.5 -0.3,-6.4 1.1,-12.9 2.9,-19 1.1,-0.6 2.1,-1.2 3.2,-1.7 z" style="overflow:visible; fill:#0169c9; stroke-width:0.75;"/>
<path d="m -646.8,-84.3 c -0.8,5.9 -1.9,11.8 -1.8,17.7 -4.3,4.1 -3.1,-1.7 -2.8,-5 1.3,-3.8 -0.6,-9.9 3.4,-12 0.4,-0.2 0.8,-0.5 1.2,-0.7 z" style="overflow:visible; fill:#0169c9; stroke-width:0.75;"/>
<path d="m -636.7,-87.9 c -2.8,7 -4.2,14.4 -4.6,21.9 -5.7,4.9 -1.9,-5.8 -1.8,-9 1.6,-4 1,-10.4 5.5,-12.4 0.3,-0.2 0.6,-0.3 0.9,-0.5 z" style="overflow:visible; fill:#0169c9; stroke-width:0.75;"/>
<path d="m -617.4,-88.6 c -1.4,7.5 -2.6,15.3 -4.8,22.4 -2.3,0.9 -3.5,2.2 -0.3,0.4 1.1,-0.2 -5.1,3.9 -2.1,-1.1 1.9,-6.5 2.6,-13.7 4.3,-20 0.9,-0.5 1.9,-1.1 2.8,-1.6 z" style="overflow:visible; fill:#0169c9; stroke-width:0.75;"/>
<path d="m -662.7,-15.9 c -2.3,7.2 -4.4,15.3 -5.6,22.2 -4,4.3 -3,-1.1 -2.1,-4.4 1.7,-5.4 2.2,-11.9 5,-16.6 0.9,-0.4 1.7,-0.8 2.6,-1.3 z" style="overflow:visible; fill:#0169c9; stroke-width:0.75;"/>
<path d="m -655.8,-16.7 c -0.9,7.5 -3.5,14.6 -5.3,21.8 -5.9,4.2 -1.2,-4.2 -0.7,-7.4 2.4,-4.1 0.7,-10.9 4.5,-13.6 0.5,-0.3 1.1,-0.5 1.6,-0.8 z" style="overflow:visible; fill:#0169c9; stroke-width:0.75;"/>
<path d="m -647.4,-18.1 c -1.7,8.9 -4.4,17.6 -6.4,26.4 -4.4,2.9 -3,-0.3 -1.9,-3.9 1.7,-7 3.7,-13.8 5.1,-20.9 1.1,-0.5 2.2,-1.1 3.3,-1.6 z" style="overflow:visible; fill:#0169c9; stroke-width:0.75;"/>
<path d="m -640.1,-15 c -3,7.3 -3.6,15.4 -4.1,23.2 -2.9,2.6 -4.4,0.9 -1,-0.4 3.3,-0.7 -4.6,4.5 -2,-0.8 0.8,-6.9 1,-14.5 4.2,-20.6 1,-0.5 2,-0.9 2.9,-1.4 z" style="overflow:visible; fill:#0169c9; stroke-width:0.75;"/>
<path d="m -673.2,-105.8 c 9.9,-2.4 19,-7.3 28.6,-10.3 4.5,-2.9 3.1,-0.7 0.2,1.1 -5.4,2.3 -10.9,4.3 -16.4,6.4 -3.8,1.6 -13.2,5.6 -14.3,4.5 0.6,-0.6 1.2,-1.1 1.8,-1.7 z" style="overflow:visible; fill:#0169c9; stroke-width:0.75;"/>
<path d="m -671.7,-71.6 c 6.8,-3.8 14.1,-6.7 21.8,-7.6 3.6,-1.6 14,-5.7 14.4,-4.5 -4.7,3.3 6.7,-4.7 0.8,0.1 -5.3,3.7 5.3,-3.6 -0.8,0.6 -5.4,2.4 -11.6,3.4 -17,6.1 -7.7,0.9 -15,4 -21.8,7.7 0.9,-0.8 1.8,-1.6 2.7,-2.4 z" style="overflow:visible; fill:#0169c9; stroke-width:0.75;"/>
<path d="M -765.9,-165.9 H -467.5" style="overflow:visible; fill:none; stroke:black; stroke-width:1.16;"/>
<path d="M -765.9,-130 H -467.5" style="overflow:visible; fill:none; stroke:black; stroke-width:1.16;"/>
<path d="M -765.9,-94.1 H -467.5" style="overflow:visible; fill:none; stroke:black; stroke-width:1.16;"/>
<path d="M -765.9,-58.3 H -467.5" style="overflow:visible; fill:none; stroke:black; stroke-width:1.16;"/>
<path d="M -765.9,-22.4 H -467.5" style="overflow:visible; fill:none; stroke:black; stroke-width:1.16;"/>
<path d="M -765.9,13.5 H -467.5" style="overflow:visible; fill:none; stroke:black; stroke-width:1.16;"/>
<path d="M -765.9,-165.9 V 13.5" style="overflow:visible; fill:none; stroke:black; stroke-width:1.16;"/>
<path d="M -467.1,-165.9 V 13.5" style="overflow:visible; fill:none; stroke:black; stroke-width:1.16;"/>
<path d="M -682.1,-165.7 V 13.7" style="overflow:visible; fill:#0e232e; stroke:black; stroke-width:1.16;"/>
<path d="m -660.8,-52.7 c -3,7.3 -3.6,15.4 -4.1,23.2 -2.9,2.6 -4.4,0.9 -1,-0.4 3.3,-0.7 -4.6,4.5 -2,-0.8 0.8,-6.9 1,-14.5 4.2,-20.6 1,-0.5 2,-0.9 2.9,-1.4 z" style="overflow:visible; fill:#0169c9; stroke-width:0.75;"/>
<path d="M -510.4,-165.7 V 13.7" style="overflow:visible; fill:none; stroke:black; stroke-width:1.16;"/>
<path d="m -487.5,-155.1 c -0.3,0.3 -0.5,0.7 -0.8,1 -0.3,0.5 -0.5,1.1 -0.8,1.7 -0.3,0.7 -0.6,1.4 -0.9,2.1 -0.3,0.7 -0.7,1.5 -1,2.2 -0.3,0.7 -0.6,1.4 -0.9,2.2 -0.3,0.7 -0.6,1.5 -0.9,2.2 -0.3,0.7 -0.6,1.4 -1,2.1 -0.3,0.6 -0.7,1.3 -1,1.9 -0.2,0.2 -0.4,0.9 -0.6,1 -0.1,-0.2 -0.2,-0.5 -0.3,-0.7 0,-0 -0,-0 0,-0.1 0,-0 0.5,-0.2 0.7,-0.3 0.5,-0.1 1,-0.3 1.5,-0.4 0.6,-0 1.2,-0.3 1.7,-0.4 0.6,-0.2 1.3,-0.3 2,-0.5 0.7,-0.2 1.4,-0.3 2.2,-0.5 0.8,-0.1 1.6,-0.2 2.4,-0.3 0.8,-0 1.6,-0 2.5,-0 0.8,0 1.5,0.1 2.3,0.3 0.4,0.1 0.2,0 0.6,0.2 0,0 -2.8,3.1 -2.8,3.1 v 0 c -0.3,-0 -0.2,-0 -0.5,-0 -0.7,-0 -1.4,-0.1 -2.1,-0.1 -0.8,0 -1.6,0 -2.3,0.1 -0.8,0.1 -1.5,0.2 -2.2,0.4 -0.7,0.2 -1.4,0.3 -2.1,0.5 -0.6,0.2 -1.3,0.4 -1.9,0.5 -0.6,0.2 -1.1,0.3 -1.7,0.5 -0.5,0.2 -1,0.3 -1.5,0.4 -0.5,0 -1,0.1 -1.4,-0.1 -0.5,-0.4 -0.9,-0.9 -1,-1.6 0,-0.5 0.3,-1 0.6,-1.5 0.4,-0.6 0.8,-1.2 1,-1.8 0.3,-0.6 0.7,-1.3 1,-1.9 0.3,-0.7 0.6,-1.4 0.9,-2.2 0.3,-0.8 0.6,-1.5 0.9,-2.3 0.3,-0.7 0.7,-1.4 1,-2.2 0.3,-0.7 0.6,-1.4 0.9,-2 0.2,-0.6 0.5,-1.2 0.8,-1.8 0.2,-0.5 0.5,-0.9 0.7,-1.3 0,0 4.2,-0.1 4.2,-0.1 z" style="color:black; overflow:visible; fill:#0169c9; stroke-width:2.88;"/>
<path d="m -484.9,-146.6 c -0.2,0.4 -0.3,0.8 -0.4,1.3 -0.1,0.6 -0.3,1.1 -0.5,1.7 -0.2,0.7 -0.3,1.3 -0.5,2 -0.2,0.7 -0.3,1.3 -0.5,2 -0.1,0.7 -0.3,1.4 -0.4,2.1 -0.1,0.8 -0.3,1.5 -0.4,2.3 -0.1,0.6 -0,0.3 -0.2,0.8 0,0 -4.1,0.8 -4.1,0.8 v 0 c 0.2,-0.5 0,-0.3 0.2,-0.7 0.2,-0.7 0.3,-1.5 0.5,-2.2 0.1,-0.7 0.2,-1.4 0.4,-2.1 0.1,-0.7 0.2,-1.4 0.4,-2.1 0.2,-0.6 0.3,-1.3 0.5,-1.9 0.1,-0.6 0.2,-1.2 0.5,-1.7 0,-0.5 0.2,-0.9 0.4,-1.4 0,0 4.1,-0.7 4.1,-0.7 z" style="color:black; overflow:visible; fill:#0169c9; stroke-width:2.88;"/>
<path d="m -491.2,-119.5 c -0.2,0.4 -0.4,0.8 -0.6,1.3 -0.2,0.6 -0.5,1.2 -0.8,1.8 -0.3,0.6 -0.6,1.3 -0.8,2 -0.2,0.5 -0.3,0.9 -0.4,1.4 0,0.2 0,0.2 0.1,0.2 0.3,0 0.6,-0 0.8,-0 0.6,-0 1.1,0 1.7,0 0.7,0 1.3,0.3 2,0.6 0.6,0.3 1.2,0.8 1.7,1.2 0.5,0.5 1,1 1.4,1.6 0.4,0.6 0.6,1.3 0.7,1.9 0.2,0.8 0.1,1.5 -0,2.3 -0.2,0.7 -0.5,1.4 -0.8,2.1 -0.3,0.6 -0.7,1.3 -1,1.9 -0.4,0.6 -0.9,1.1 -1.4,1.6 -1.4,1.4 -3.1,2 -4.9,2.3 -0.7,0.1 -1.5,0 -2.2,-0.1 -0.7,-0.2 -1.4,-0.5 -2,-0.8 -0.7,-0.3 -1.2,-0.8 -1.8,-1.2 -0.6,-0.5 -1,-1.1 -1.3,-1.8 -0,-0.1 -0,-0.2 -0.1,-0.3 0,0 3.8,-1.8 3.8,-1.8 v 0 c 0,0 0,0.1 0,0.2 0.2,0.5 0.5,0.8 0.9,1.1 0.4,0.3 0.9,0.7 1.4,0.9 0.5,0.2 1.1,0.4 1.7,0.5 0.6,0 1.1,-0 1.7,-0.3 0.3,-0 0.5,-0.2 0.8,-0.3 0,-0 0.3,-0.2 0.2,-0.1 -2.8,1.6 -3.6,1.9 -2.4,1.4 0.6,-0.2 1,-0.7 1.4,-1.1 0.4,-0.5 0.8,-1 1.1,-1.6 0.3,-0.6 0.6,-1.2 0.8,-1.8 0.1,-0.5 0.4,-1 0.3,-1.5 -0,-0.5 -0.2,-1 -0.5,-1.4 -0.3,-0.4 -0.7,-0.8 -1.1,-1.2 -0.4,-0.3 -0.9,-0.7 -1.4,-0.8 -0.5,-0.2 -1,-0.2 -1.6,-0.3 -0.5,-0 -1.1,0 -1.6,-0 -0.6,-0 -1.1,-0.2 -1.6,-0.6 -0.5,-0.4 -0.8,-0.9 -0.9,-1.5 -0,-0.7 0,-1.4 0.3,-2.1 0.2,-0.7 0.5,-1.4 0.8,-2 0.2,-0.6 0.5,-1.2 0.8,-1.8 0.2,-0.5 0.4,-0.9 0.5,-1.4 0,0 4.2,-0.5 4.2,-0.5 z" style="color:black; overflow:visible; fill:#0169c9; stroke-width:2.88;"/>
<path d="m -492.2,-119.6 c 0.4,0 0.8,0.2 1.2,0.2 0.5,0 1.1,0 1.6,0 0.6,-0 1.2,-0.2 1.8,-0.3 0.7,-0.1 1.3,-0.3 2,-0.4 0.6,-0.1 1.2,-0.4 1.9,-0.5 0.5,-0.2 1.1,-0.4 1.6,-0.6 0,0 -2,3.7 -2,3.7 v 0 c -0.5,0.2 -1.1,0.4 -1.7,0.5 -0.7,0.2 -1.3,0.3 -2,0.4 -0.7,0.1 -1.3,0.3 -2,0.3 -0.6,0 -1.3,0.1 -1.9,0.2 -0.6,-0 -1.3,-0 -1.9,-0.2 -0.5,-0 -1,-0.2 -1.4,-0.4 0,0 2.9,-3.1 2.9,-3.1 z" style="color:black; overflow:visible; fill:#0169c9; stroke-width:2.88;"/>
<path d="m -484.6,-84.2 c -0.9,0.7 -0.2,0.2 2.6,-1.5 0,-0 -0.1,0 -0.2,0.1 -0.3,0.2 -0.5,0.4 -0.8,0.5 -0.6,0.4 -1.2,0.8 -1.7,1.2 -0.6,0.5 -1.1,1 -1.6,1.5 -0.5,0.6 -1.1,1.2 -1.6,1.8 -0.5,0.7 -0.9,1.3 -1.4,2.1 -0.4,0.7 -0.8,1.5 -1.2,2.2 -0.4,0.7 -0.7,1.4 -1,2.1 -0.3,0.7 -0.5,1.4 -0.7,2.1 -0.2,0.7 -0.3,1.4 -0.3,2.1 0,0.7 0,1.3 0.3,2 0.2,0.6 0.5,1 0.9,1.4 0.3,0.4 0.7,0.5 1.2,0.5 0.4,0 0.8,-0.2 1.1,-0.4 1.8,-1.2 -4.3,2.2 -1.9,1 0.4,-0.2 0.7,-0.6 1,-1 0.3,-0.5 0.5,-1 0.7,-1.6 0.2,-0.5 0.2,-1 0.2,-1.5 0,-0.5 -0.2,-1 -0.4,-1.4 -0.2,-0.4 -0.5,-0.8 -0.8,-1.1 -0.3,-0.4 -0.7,-0.7 -1.1,-0.9 0,0 3.2,-2.7 3.2,-2.7 v 0 c 0.5,0.4 1,0.8 1.4,1.3 0.4,0.5 0.8,1 1.1,1.6 0.2,0.6 0.5,1.2 0.6,1.9 0.1,0.7 0.1,1.4 0,2.1 -0.1,0.7 -0.3,1.4 -0.6,2 -0.2,0.6 -0.6,1.1 -0.9,1.6 -1.1,1.3 -2.7,2.2 -4.4,2.5 -0.6,0.1 -1.3,0 -1.9,-0.2 -0.7,-0.3 -1.3,-0.7 -1.8,-1.2 -0.6,-0.6 -1,-1.3 -1.3,-2.1 -0.3,-0.8 -0.4,-1.6 -0.5,-2.4 -0,-0.9 0,-1.7 0.2,-2.5 0.2,-0.8 0.4,-1.6 0.7,-2.3 0.3,-0.8 0.7,-1.5 1,-2.3 0.4,-0.8 0.8,-1.5 1.2,-2.3 0.4,-0.7 0.8,-1.5 1.3,-2.2 0.5,-0.7 1,-1.4 1.5,-2 0.5,-0.6 1.1,-1.2 1.6,-1.7 0.5,-0.5 1.1,-1 1.7,-1.5 1.3,-1 2.9,-1.7 4.3,-2.6 0,0 -1.7,3.8 -1.7,3.8 z" style="color:black; overflow:visible; fill:#0169c9; stroke-width:2.88;"/>
<path d="m -484.1,-16 c -0.2,0.4 -0.4,0.9 -0.6,1.3 -0.3,0.7 -0.7,1.3 -1.2,1.8 -0.5,0.7 -1,1.3 -1.5,2 -0.5,0.7 -1,1.4 -1.4,2.1 -0.5,0.7 -0.9,1.4 -1.4,2.1 -0.5,0.7 -0.9,1.4 -1.3,2.2 -0.4,0.7 -0.8,1.4 -1.3,2.1 -0.5,0.8 -1,1.5 -1.5,2.2 -0.5,0.7 -1,1.4 -1.5,2.2 -0.4,0.6 -0.7,1.2 -1.1,1.8 -0.2,0.3 -0.2,0 -0.3,-0.2 -0.1,-0.2 -0.2,-0.3 -0.3,-0.5 0,-0.2 0.5,-0.2 0.7,-0.2 0.5,-0.1 1,-0.2 1.5,-0.4 0.7,-0.2 1.4,-0.3 2.2,-0.4 0.7,-0.2 1.4,-0.3 2.1,-0.5 0.7,-0.1 1.5,-0.3 2.2,-0.5 0.8,-0.2 1.5,-0.3 2.3,-0.4 0.8,-0 1.6,-0.2 2.4,-0.2 0.8,-0 1.6,-0.1 2.4,-0.1 0.8,-0 1.6,-0 2.5,-0 0.5,0 0.3,0 0.8,0 0,0 -2.5,3.4 -2.5,3.4 v 0 c -0.4,0 -0.2,0 -0.7,0 -0.8,0 -1.6,0 -2.4,0.1 -0.8,0 -1.6,0 -2.4,0.2 -0.8,0 -1.5,0.2 -2.3,0.3 -0.7,0.1 -1.5,0.3 -2.2,0.4 -0.7,0.2 -1.5,0.3 -2.2,0.5 -0.7,0.2 -1.5,0.3 -2.2,0.4 -0.7,0.1 -1.4,0.3 -2.1,0.5 -0.6,0.1 -1.2,0.3 -1.8,0.2 -0.5,0 -0.9,0 -1.3,-0.3 -0.5,-0.5 -0.9,-1.2 -0.6,-1.9 0.3,-0.7 0.8,-1.2 1.2,-1.9 0.5,-0.8 1,-1.5 1.5,-2.2 0.5,-0.7 1,-1.4 1.5,-2.2 0.5,-0.7 0.9,-1.3 1.3,-2.1 0.4,-0.7 0.8,-1.5 1.3,-2.2 0.4,-0.7 0.9,-1.4 1.4,-2.1 0.4,-0.7 0.9,-1.4 1.4,-2.1 0.5,-0.7 1,-1.4 1.5,-2.1 0.4,-0.5 0.8,-1 1.2,-1.6 0.2,-0.4 0.5,-0.8 0.6,-1.2 0,0 4.2,-0.5 4.2,-0.5 z" style="color:black; overflow:visible; fill:#0169c9; stroke-width:2.88;"/>
<path d="m -484.5,-6.6 c -0,0.5 -0.2,0.9 -0.2,1.4 -0.1,0.6 -0.2,1.2 -0.2,1.8 -0,0.7 -0.2,1.4 -0.3,2.1 -0,0.7 -0.1,1.5 -0.2,2.2 -0,0.7 -0.2,1.5 -0.2,2.2 -0,0.8 -0.2,1.5 -0.3,2.2 -0,0.8 -0.2,1.5 -0.3,2.3 0,0 -4,1 -4,1 v 0 c 0,-0.8 0.2,-1.5 0.3,-2.3 0,-0.7 0.2,-1.5 0.3,-2.2 0,-0.8 0.1,-1.5 0.2,-2.3 0.1,-0.7 0.2,-1.5 0.2,-2.2 0,-0.7 0.2,-1.4 0.3,-2.1 0.1,-0.6 0.1,-1.2 0.2,-1.9 0,-0.4 0.2,-0.9 0.2,-1.3 0,0 4.1,-1 4.1,-1 z" style="color:black; overflow:visible; fill:#0169c9; stroke-width:2.88;"/>
<path d="m -495.7,-43.8 c 0.4,-0.2 0.6,-0.5 1,-0.8 0.5,-0.4 1,-0.9 1.5,-1.3 0.5,-0.5 1,-1 1.5,-1.5 0.4,-0.5 0.7,-1 1.1,-1.5 1.4,-1.9 2.9,-3 4.4,-1.3 0.3,0.4 0.4,0.9 0.5,1.4 0,0.5 0,1.1 -0,1.6 -0,0.6 -0.1,1.3 -0.2,1.9 -0,0.7 -0.2,1.4 -0.2,2 -0.1,0.7 -0.2,1.3 -0.3,2 -0,0.8 -0.2,1.5 -0.3,2.2 -0,0.8 -0.2,1.6 -0.3,2.4 -0.1,0.8 -0.2,1.6 -0.3,2.4 -0.1,0.8 -0.3,1.6 -0.5,2.5 -0.2,0.7 -0.4,1.5 -0.6,2.2 -0.1,0.5 -0.2,0.9 -0.4,1.4 0,0 -4.1,0.9 -4.1,0.9 v 0 c 0.1,-0.5 0.2,-1 0.4,-1.5 0.2,-0.7 0.3,-1.5 0.6,-2.2 0.2,-0.8 0.4,-1.5 0.5,-2.3 0.1,-0.8 0.2,-1.6 0.3,-2.4 0.1,-0.8 0.2,-1.6 0.3,-2.3 0,-0.7 0.2,-1.5 0.3,-2.2 0,-0.7 0.2,-1.4 0.3,-2.1 0.1,-0.6 0.2,-1.3 0.3,-1.9 0,-0.6 0,-1.3 0.2,-1.9 0,-0.5 0.1,-0.9 0,-1.4 0,-0 -0,-0.6 0,-0.3 0,0 0.5,0.6 0.6,0.6 0.9,-0.4 4.1,-1.9 2.7,-1.6 -0.4,0.4 -0.9,0.7 -1.2,1.3 -0.4,0.6 -1,1.2 -1.5,1.7 -0.5,0.5 -1,0.9 -1.5,1.4 -0.3,0.3 -0.7,0.5 -0.9,0.9 0,0 -4.2,-0.2 -4.2,-0.2 z" style="color:black; overflow:visible; fill:#0169c9; stroke-width:2.88;"/>
</g>
</svg>
