<?xml version="1.0" encoding="UTF-8" standalone="no"?>
<!-- Copyright 2017 mathsisfun.com -->
<svg xmlns="http://www.w3.org/2000/svg" xmlns:xlink="http://www.w3.org/1999/xlink" width="133" height="36.9" version="1.1">
<defs/>
<g transform="translate(-1078.38,371.82)">
<g id="id01">
<path d="m 1114.6,-339 c -0.3,3.6 -6.6,4.3 -8,0.8 -1.9,-3.2 2.7,-6.8 6,-4.7 1.4,0.8 2.3,2.4 2,3.9 z" style="color:black; overflow:visible; fill:#005c94; stroke-width:0.37;"/>
<path d="m 1085,-342.2 c 3.1,2.6 0.6,7.8 -3.2,6.7 -3.8,-0.7 -4.7,-6.5 -1.2,-7.6 1.4,-0.6 3.2,-0.2 4.4,1 z" style="color:black; overflow:visible; fill:#005c94; stroke-width:0.36;"/>
<path d="m 1087,-368 c 0.9,4 -4,6.7 -6.4,3.5 -2.6,-2.8 0,-8.1 3.5,-6.9 1.5,0.4 2.7,1.8 2.9,3.5 z" style="color:black; overflow:visible; fill:#005c94; stroke-width:0.36;"/>
<path d="m 1115.4,-369.3 c 2,3.6 -2.1,7.6 -5.3,5.2 -3.4,-2 -2.2,-7.8 1.5,-7.6 1.5,-0 3.1,1 3.8,2.5 z" style="color:black; overflow:visible; fill:#005c94; stroke-width:0.37;"/>
<path d="m 1084,-367.7 c 8.7,-0.6 17.4,0.6 26,-0.4 -1,3.4 -6.5,0.8 -9.3,1.6 -5.8,0 -11.5,-0.3 -17.3,0 0.2,-0.4 0.4,-0.9 0.6,-1.3 z" style="color:black; overflow:visible; fill:#005c94; stroke:#005c94; stroke-width:0.83;"/>
<path d="m 1110.3,-367.8 c 0.1,8.9 0.3,17.8 -0.6,26.6 3.2,1.1 0.9,-5.9 1.9,-7.8 0.4,-6.1 0,-12.3 0.1,-18.4 -0.5,-0.1 -0.9,-0.3 -1.4,-0.4 z" style="color:black; overflow:visible; fill:#005c94; stroke:#005c94; stroke-width:0.83;"/>
<path d="m 1082.6,-366.7 c -0.3,9 -1.2,18.1 -0.2,27.1 3.3,0.5 0,-5.9 0.9,-8.1 0,-6.2 0.5,-12.5 0.7,-18.7 -0.5,-0.1 -0.9,-0.3 -1.4,-0.4 z" style="color:black; overflow:visible; fill:#005c94; stroke:#005c94; stroke-width:0.83;"/>
<path d="m 1083.5,-340.3 c 8.4,-0.2 16.7,-0.3 25.1,-0.2 2.6,1.1 -2.4,1.6 -3.9,1.3 -7.3,-0.1 -14.6,0.2 -21.8,0.2 0.2,-0.4 0.4,-0.8 0.7,-1.2 z" style="color:black; overflow:visible; fill:#005c94; stroke:#005c94; stroke-width:0.83;"/>
<path d="m 1084.2,-367.9 c 2.9,3.9 7.1,6.7 10.2,10.5 5.3,6 10.7,11.9 16.9,17 -2.9,2.2 -6,-4.9 -8.7,-6.1 -6.3,-6.3 -11.8,-13.4 -18.6,-19.2 -1,-1.2 -1.3,-1.7 0.2,-2.2 z" style="color:black; overflow:visible; fill:#005c94; stroke:#005c94; stroke-width:0.83;"/>
<path d="m 1081.7,-340 c 6.6,-4.6 11.7,-10.9 17.2,-16.7 3.8,-3.7 7.7,-7.3 11.5,-11.1 3.2,0.9 -4,4.6 -5,6.6 -5.4,4.7 -9.9,10.3 -14.9,15.5 -2.6,1.5 -5.5,6.9 -8.7,5.8 z" style="color:black; overflow:visible; fill:#005c94; stroke:#005c94; stroke-width:0.83;"/>
</g>
<g transform="matrix(0.5,0,0,0.5,403.77,-23.8061)">
<path d="m 1612.7,-629.4 c -0.7,7.3 -13.1,8.5 -16.1,1.6 -3.8,-6.5 5.4,-13.6 12,-9.3 2.9,1.6 4.5,4.8 4,7.7 z" style="color:black; overflow:visible; fill:#005c94; stroke-width:0.73;"/>
<path d="m 1553.6,-635.8 c 6.1,5.2 1.1,15.5 -6.5,13.3 -7.6,-1.3 -9.3,-12.9 -2.3,-15.2 2.8,-1.2 6.4,-0.4 8.8,1.9 z" style="color:black; overflow:visible; fill:#005c94; stroke-width:0.73;"/>
<path d="m 1557.4,-687.5 c 1.8,8 -8.1,13.3 -12.8,6.9 -5.2,-5.7 0.1,-16.2 7,-13.8 2.9,0.8 5.3,3.6 5.9,6.9 z" style="color:black; overflow:visible; fill:#005c94; stroke-width:0.73;"/>
<path d="m 1614.4,-690.1 c 4,7.1 -4.3,15.1 -10.6,10.3 -6.7,-4 -4.4,-15.6 3,-15.3 3.1,-0 6.2,1.9 7.6,5 z" style="color:black; overflow:visible; fill:#005c94; stroke-width:0.73;"/>
<path d="m 1551.6,-686.9 c 17.3,-1.2 34.8,1.2 52,-0.8 -2.1,6.7 -13.1,1.7 -18.6,3.2 -11.5,0 -23.1,-0.7 -34.6,0 0.4,-0.8 0.8,-1.7 1.1,-2.5 z" style="color:black; overflow:visible; fill:#005c94; stroke:#005c94; stroke-width:1.65;"/>
<path d="m 1603.4,-685.9 c 0.2,17.5 0.8,35.1 -1.1,52.5 4.9,5.2 2.5,-8.7 3.7,-11.7 0.9,-13.3 0.1,-26.7 0.2,-40 -0.9,-0.3 -1.8,-0.5 -2.7,-0.8 z" style="color:black; overflow:visible; fill:#005c94; stroke:#005c94; stroke-width:1.65;"/>
<path d="m 1550.6,-632 c 16.7,-0.3 33.4,-0.5 50.1,-0.4 5.4,2.4 -5.6,3.1 -8.6,2.6 -14.3,-0.3 -28.6,0.5 -42.9,0.3 0.4,-0.8 0.9,-1.7 1.3,-2.5 z" style="color:black; overflow:visible; fill:#005c94; stroke:#005c94; stroke-width:1.65;"/>
</g>
<use transform="translate(48)" xlink:href="#id01"/>
</g>
</svg>
