<?xml version="1.0" encoding="UTF-8" standalone="no"?>
<!-- Copyright 2017 mathsisfun.com -->
<svg xmlns="http://www.w3.org/2000/svg" width="162.8" height="150.6" version="1.1">
<defs>
<marker style="overflow:visible;" orient="auto" id="id01">
<path d="M 0,0 5,-5 -12.5,0 5,5 Z" transform="matrix(-0.8,0,0,-0.8,-10,0)" style="stroke:black; stroke-width:1pt;"/>
</marker>
<marker style="overflow:visible;" orient="auto" id="id02">
<path d="M 0,0 5,-5 -12.5,0 5,5 Z" transform="matrix(-0.4,0,0,-0.4,-4,0)" style="fill:#c4a000; stroke:#c4a000; stroke-width:1pt;"/>
</marker>
</defs>
<g transform="translate(-813.814,-795.094)">
<path d="m 813.8,884.1 h 7.8" style="fill:#ff0000; fill-opacity:0.75; stroke:#ff0000; stroke-width:1.24;"/>
<rect x="911.7" y="869.2" width="20.5" height="14.9" style="color:black; overflow:visible; fill:#19aeff; stroke:black; stroke-width:0.33px;"/>
<rect x="837.5" y="869.2" width="20.5" height="14.9" style="color:black; overflow:visible; fill:#19aeff; stroke:black; stroke-width:0.33px;"/>
<rect x="862.2" y="869.2" width="20.5" height="14.9" style="color:black; overflow:visible; fill:#19aeff; stroke:black; stroke-width:0.33px;"/>
<rect x="886.9" y="795.3" width="20.5" height="88.8" style="color:black; overflow:visible; fill:#19aeff; stroke:black; stroke-width:0.33px;"/>
<path d="m 822,870.8 v 23.9" style="fill:none; stroke:black; stroke-width:0.98;"/>
<path d="m 846.9,870.8 v 23.9" style="fill:none; stroke:#0000ff; stroke-width:0.33px;"/>
<path d="m 871.8,870.8 v 23.9" style="fill:none; stroke:#0000ff; stroke-width:0.33px;"/>
<path d="m 896.8,870.8 v 23.9" style="fill:none; stroke:#0000ff; stroke-width:0.33px;"/>
<path d="m 921.7,870.8 v 23.9" style="fill:none; stroke:#0000ff; stroke-width:0.33px;"/>
<path d="m 946.6,870.8 v 23.9" style="fill:none; stroke:#0000ff; stroke-width:0.33px;"/>
<text x="843.7" y="914.3" style="font-family:'Comic Sans MS'; font-size:15.7px; color:black; overflow:visible; fill:#0000ff; stroke-width:0.5px;">1</text>
<text x="868.2" y="914.3" style="font-family:'Comic Sans MS'; font-size:15.7px; color:black; overflow:visible; fill:#0000ff; stroke-width:0.5px;">2</text>
<text x="892.9" y="914.2" style="font-family:'Comic Sans MS'; font-size:15.7px; color:black; overflow:visible; fill:#0000ff; stroke-width:0.5px;">3</text>
<text x="918" y="914.3" style="font-family:'Comic Sans MS'; font-size:15.7px; color:black; overflow:visible; fill:#0000ff; stroke-width:0.5px;">4</text>
<text x="942.6" y="914.1" style="font-family:'Comic Sans MS'; font-size:15.7px; color:black; overflow:visible; fill:#0000ff; stroke-width:0.5px;">5</text>
<path d="m 821.3,884.2 h 152.9" style="marker-end:url(#id01); fill:#0000ff; fill-opacity:0.75; stroke:#0000ff; stroke-width:1.24;"/>
<text x="816.4" y="915.7" style="font-family:'Comic Sans MS'; font-size:22.8px; color:black; overflow:visible; fill:black; stroke-width:0.5px;">0</text>
<path d="M 892.4,926.2 V 888.8" style="marker-end:url(#id02); fill:none; stroke:#c4a000; stroke-width:2.13;"/>
<text x="880.4" y="944.7" style="font-family:'Comic Sans MS'; font-size:20.9px; color:black; overflow:visible; fill:#c4a000; stroke-width:0.5px;">2.8</text>
<text x="851.8" y="811" style="font-family:'Comic Sans MS'; text-align:center; text-anchor:middle; font-size:18.3px; color:black; overflow:visible; fill:black; stroke-width:0.5px;">More</text>
<g transform="matrix(0.48245,0.270195,0.270195,-0.482449,-159,1308.75)">
<path d="m 1251.7,1666.8 c -1.5,-2.2 -2.6,-4.6 -3.7,-7 -0.8,-2.8 -1.4,-5.7 -1.3,-8.6 1.7,-0.3 3.4,-0.5 5.1,-0.8 -0.2,2.7 0.4,5.4 1.2,7.9 1.1,2 1.9,4.1 3.3,6 -1.5,0.9 -3,1.7 -4.5,2.6 z" style="color:black; overflow:visible; fill:black; stroke-width:1px;"/>
<path d="m 1252.2,1668.3 c -2.9,-0.9 -6.1,-1.3 -9.1,-1.1 -1.9,0 -4.6,1.1 -5.9,1.1 0.4,-1.6 0.7,-3.2 1.1,-4.8 5.5,-1.7 11.3,-1.2 16.7,0.5 -0.9,1.5 -1.9,2.9 -2.8,4.4 z" style="color:black; overflow:visible; fill:black; stroke-width:1px;"/>
<path d="m 1205.4,1661 c 3,-1.9 6.6,-2.9 10,-3.9 4,-0.9 8,-1.7 12.1,-1.8 6.1,-0.1 12.4,0.1 18.1,2.6 2.7,1.2 4.9,3.2 7.3,4.9 -1.3,1.2 -2.6,2.3 -3.8,3.5 -2.8,-2.1 -5.6,-4.4 -9.1,-5.1 -4.9,-1.3 -10.1,-1.4 -15.1,-1.1 -4.3,0.4 -8.5,1.3 -12.6,2.5 -0.8,0.2 -3.6,1.3 -3.2,1.2 0.7,-0.3 3.5,-1.5 1.5,-0.7 -0.8,0.5 -1.5,-0.3 -2.2,-0.5 -1,-0.5 -2.1,-0.9 -3,-1.5 z" style="color:black; overflow:visible; fill:black; stroke-width:1px;"/>
</g>
<text x="851.8" y="829.4" style="font-family:'Comic Sans MS'; text-align:center; text-anchor:middle; font-size:18.3px; color:black; overflow:visible; fill:black; stroke-width:0.5px;">Weight</text>
</g>
</svg>
