<?xml version="1.0" encoding="UTF-8" standalone="no"?>
<!-- Copyright 2017 mathsisfun.com -->

<svg
   width="296.7"
   height="291.9"
   version="1.1"
   id="svg92"
   sodipodi:docname="area-conversion.svg"
   inkscape:version="1.1.2 (0a00cf5339, 2022-02-04, custom)"
   xmlns:inkscape="http://www.inkscape.org/namespaces/inkscape"
   xmlns:sodipodi="http://sodipodi.sourceforge.net/DTD/sodipodi-0.dtd"
   xmlns:xlink="http://www.w3.org/1999/xlink"
   xmlns="http://www.w3.org/2000/svg"
   xmlns:svg="http://www.w3.org/2000/svg">
  <sodipodi:namedview
     id="namedview94"
     pagecolor="#ffffff"
     bordercolor="#666666"
     borderopacity="1.0"
     inkscape:pageshadow="2"
     inkscape:pageopacity="0.0"
     inkscape:pagecheckerboard="0"
     showgrid="false"
     inkscape:current-layer="svg92" />
  <defs
     id="defs11">
    <inkscape:perspective
       sodipodi:type="inkscape:persp3d"
       inkscape:vp_x="0 : 145.95 : 1"
       inkscape:vp_y="0 : 1000 : 0"
       inkscape:vp_z="296.7 : 145.95 : 1"
       inkscape:persp3d-origin="148.35 : 97.3 : 1"
       id="perspective1105" />
    <marker
       id="id2"
       style="overflow:visible"
       orient="auto">
      <path
         transform="matrix(0.4,0,0,0.4,4,0)"
         style="stroke:black;stroke-width:1pt"
         d="M 0,0 5,-5 -12.5,0 5,5 0,0 Z"
         id="path2" />
    </marker>
    <path
       style="overflow:visible;fill:none;stroke:#c47cce;stroke-width:2.5"
       d="m -944.3,1062.3 c 0,0 382,-88.1 379.2,66.3 -2.8,154.4 -94.6,162.6 -261.1,155.7 -166.5,-6.8 -226.9,123.7 -200.1,173.8"
       id="path5" />
    <filter
       x="-0.5"
       y="-0.5"
       width="2"
       height="2"
       id="filter9">
      <feGaussianBlur
         stdDeviation="5.0"
         id="feGaussianBlur7" />
    </filter>
    <marker
       style="overflow:visible"
       orient="auto"
       id="id26048"
       inkscape:stockid="id26048">
      <path
         transform="matrix(0.4,0,0,0.4,4,0)"
         style="stroke:#336699;stroke-width:1pt;stroke-opacity:1;fill-opacity:1;fill:#336699"
         d="M 0,0 5,-5 -12.5,0 5,5 0,0 Z"
         id="path1411" />
    </marker>
    <marker
       style="overflow:visible"
       orient="auto"
       id="id23358"
       inkscape:stockid="id23358">
      <path
         transform="matrix(0.4,0,0,0.4,4,0)"
         style="stroke:#336699;stroke-width:1pt;stroke-opacity:1;fill-opacity:1;fill:#336699"
         d="M 0,0 5,-5 -12.5,0 5,5 0,0 Z"
         id="path1414" />
    </marker>
    <marker
       style="overflow:visible"
       orient="auto"
       id="id21881"
       inkscape:stockid="id21881">
      <path
         transform="matrix(0.4,0,0,0.4,4,0)"
         style="stroke:#204a87;stroke-width:1pt;stroke-opacity:1;fill-opacity:1;fill:#204a87"
         d="M 0,0 5,-5 -12.5,0 5,5 0,0 Z"
         id="path1789" />
    </marker>
    <marker
       style="overflow:visible"
       orient="auto"
       id="id26444"
       inkscape:stockid="id26444">
      <path
         transform="matrix(0.4,0,0,0.4,4,0)"
         style="stroke:#204a87;stroke-width:1pt;stroke-opacity:1;fill-opacity:1;fill:#204a87"
         d="M 0,0 5,-5 -12.5,0 5,5 0,0 Z"
         id="path1792" />
    </marker>
    <marker
       style="overflow:visible"
       orient="auto"
       inkscape:stockid="id218819408"
       id="id218819408">
      <path
         transform="matrix(0.4,0,0,0.4,4,0)"
         style="stroke:#005c94;stroke-width:1pt;stroke-opacity:1;fill-opacity:1;fill:#005c94"
         d="M 0,0 5,-5 -12.5,0 5,5 0,0 Z"
         id="path1993" />
    </marker>
    <marker
       style="overflow:visible"
       orient="auto"
       inkscape:stockid="id264443868"
       id="id264443868">
      <path
         transform="matrix(0.4,0,0,0.4,4,0)"
         style="stroke:#005c94;stroke-width:1pt;stroke-opacity:1;fill-opacity:1;fill:#005c94"
         d="M 0,0 5,-5 -12.5,0 5,5 0,0 Z"
         id="path1996" />
    </marker>
    <marker
       style="overflow:visible"
       orient="auto"
       id="id23104"
       inkscape:stockid="id23104">
      <path
         transform="matrix(0.4,0,0,0.4,4,0)"
         style="stroke:#6699cc;stroke-width:1pt;stroke-opacity:1;fill-opacity:1;fill:#6699cc"
         d="M 0,0 5,-5 -12.5,0 5,5 0,0 Z"
         id="path2349" />
    </marker>
    <marker
       style="overflow:visible"
       orient="auto"
       id="id29256"
       inkscape:stockid="id29256">
      <path
         transform="matrix(0.4,0,0,0.4,4,0)"
         style="stroke:#6699cc;stroke-width:1pt;stroke-opacity:1;fill-opacity:1;fill:#6699cc"
         d="M 0,0 5,-5 -12.5,0 5,5 0,0 Z"
         id="path2352" />
    </marker>
  </defs>
  <g
     transform="matrix(0.43835,0,0,0.3994,382.34,-23.05)"
     id="g32">
    <rect
       id="id1"
       x="-682.2"
       y="259.4"
       ry="0"
       width="161.2"
       height="174.6"
       style="overflow:visible;fill:none;stroke:#6699cc;stroke-width:2.17" />
    <use
       xlink:href="#id1"
       x="0"
       y="0"
       id="use14"
       width="100%"
       height="100%" />
    <use
       transform="translate(0,174.62)"
       xlink:href="#id1"
       x="0"
       y="0"
       id="use16"
       width="100%"
       height="100%" />
    <use
       transform="translate(0,349.24)"
       xlink:href="#id1"
       x="0"
       y="0"
       id="use18"
       width="100%"
       height="100%" />
    <use
       transform="translate(161.17)"
       xlink:href="#id1"
       x="0"
       y="0"
       id="use20"
       width="100%"
       height="100%" />
    <use
       transform="translate(161.17,174.62)"
       xlink:href="#id1"
       x="0"
       y="0"
       id="use22"
       width="100%"
       height="100%" />
    <use
       transform="translate(161.17,349.24)"
       xlink:href="#id1"
       x="0"
       y="0"
       id="use24"
       width="100%"
       height="100%" />
    <use
       transform="translate(322.34)"
       xlink:href="#id1"
       x="0"
       y="0"
       id="use26"
       width="100%"
       height="100%" />
    <use
       transform="translate(322.34,174.62)"
       xlink:href="#id1"
       x="0"
       y="0"
       id="use28"
       width="100%"
       height="100%" />
    <use
       transform="translate(322.34,349.24)"
       xlink:href="#id1"
       x="0"
       y="0"
       id="use30"
       width="100%"
       height="100%" />
  </g>
  <rect
     x="83.5"
     y="79.85"
     width="212"
     height="210.8"
     style="overflow:visible;fill:none;stroke:#336699;stroke-width:2.75;stroke-miterlimit:4;stroke-dasharray:none"
     id="rect34" />
  <path
     style="overflow:visible;fill:none;stroke:#005c94;stroke-width:1.14"
     d="M 83.8,68.05 V 9.15"
     id="path36" />
  <path
     style="overflow:visible;fill:none;stroke:#005c94;stroke-width:1.14"
     d="M 294.7,68.05 V 9.15"
     id="path38" />
  <path
     style="overflow:visible;fill:none;stroke:#6699cc;stroke-width:1.14"
     d="M 224.4,68.05 V 34.45"
     id="path40" />
  <path
     style="overflow:visible;fill:none;stroke:#6699cc;stroke-width:1.14"
     d="M 154.1,68.05 V 34.45"
     id="path42" />
  <path
     style="overflow:visible;fill:none;stroke:#005c94;stroke-width:1.14;marker-start:url(#id218819408)"
     d="m 87.2,10.05 h 62.2"
     id="path44" />
  <text
     x="156.2"
     y="16.85"
     style="font-size:25.5px;font-family:'Trebuchet MS';overflow:visible;fill:#005c94;stroke-width:2.5"
     id="text46">1 yard</text>
  <path
     style="overflow:visible;fill:none;stroke:#005c94;stroke-width:1.14;marker-start:url(#id264443868)"
     d="M 291.3,10.05 H 229.1"
     id="path48" />
  <text
     x="107"
     y="49.25"
     style="font-size:16.4px;font-family:'Trebuchet MS';overflow:visible;fill:#6699cc;stroke-width:2.5"
     id="text50">1 ft</text>
  <path
     style="overflow:visible;fill:none;stroke:#6699cc;stroke-width:1.14;marker-start:url(#id23104)"
     d="m 86.1,44.65 h 16.8"
     id="path52" />
  <path
     style="overflow:visible;fill:none;stroke:#6699cc;stroke-width:1.14;marker-start:url(#id29256)"
     d="M 151.2,44.65 H 134.4"
     id="path54" />
  <text
     x="177.668"
     y="49.25"
     style="font-size:16.4px;font-family:'Trebuchet MS';overflow:visible;fill:#6699cc;stroke-width:2.5"
     id="text2625">1 ft</text>
  <path
     style="overflow:visible;fill:none;stroke:#6699cc;stroke-width:1.14;marker-start:url(#id23104)"
     d="m 156.768,44.65 h 16.8"
     id="path2627" />
  <path
     style="overflow:visible;fill:none;stroke:#6699cc;stroke-width:1.14;marker-start:url(#id29256)"
     d="m 221.868,44.65 h -16.8"
     id="path2629" />
  <text
     x="247.592"
     y="49.25"
     style="font-size:16.4px;font-family:'Trebuchet MS';overflow:visible;fill:#6699cc;stroke-width:2.5"
     id="text2631">1 ft</text>
  <path
     style="overflow:visible;fill:none;stroke:#6699cc;stroke-width:1.14;marker-start:url(#id23104)"
     d="m 226.692,44.65 h 16.8"
     id="path2633" />
  <path
     style="overflow:visible;fill:none;stroke:#6699cc;stroke-width:1.14;marker-start:url(#id29256)"
     d="m 291.792,44.65 h -16.8"
     id="path2635" />
  <g
     id="g2791"
     transform="rotate(-90,188.657,186.073)">
    <path
       style="overflow:visible;fill:none;stroke:#005c94;stroke-width:1.14"
       d="M 83.8,68.05 V 9.15"
       id="path2743" />
    <path
       style="overflow:visible;fill:none;stroke:#005c94;stroke-width:1.14"
       d="M 294.7,68.05 V 9.15"
       id="path2745" />
    <path
       style="overflow:visible;fill:none;stroke:#6699cc;stroke-width:1.14"
       d="M 224.4,68.05 V 34.45"
       id="path2747" />
    <path
       style="overflow:visible;fill:none;stroke:#6699cc;stroke-width:1.14"
       d="M 154.1,68.05 V 34.45"
       id="path2749" />
    <path
       style="overflow:visible;fill:none;stroke:#005c94;stroke-width:1.14;marker-start:url(#id218819408)"
       d="m 87.2,10.05 h 62.2"
       id="path2751" />
    <text
       x="156.2"
       y="16.85"
       style="font-size:25.5px;font-family:'Trebuchet MS';overflow:visible;fill:#005c94;stroke-width:2.5"
       id="text2753">1 yard</text>
    <path
       style="overflow:visible;fill:none;stroke:#005c94;stroke-width:1.14;marker-start:url(#id264443868)"
       d="M 291.3,10.05 H 229.1"
       id="path2755" />
    <text
       x="107"
       y="49.25"
       style="font-size:16.4px;font-family:'Trebuchet MS';overflow:visible;fill:#6699cc;stroke-width:2.5"
       id="text2757">1 ft</text>
    <path
       style="overflow:visible;fill:none;stroke:#6699cc;stroke-width:1.14;marker-start:url(#id23104)"
       d="m 86.1,44.65 h 16.8"
       id="path2759" />
    <path
       style="overflow:visible;fill:none;stroke:#6699cc;stroke-width:1.14;marker-start:url(#id29256)"
       d="M 151.2,44.65 H 134.4"
       id="path2761" />
    <text
       x="177.668"
       y="49.25"
       style="font-size:16.4px;font-family:'Trebuchet MS';overflow:visible;fill:#6699cc;stroke-width:2.5"
       id="text2763">1 ft</text>
    <path
       style="overflow:visible;fill:none;stroke:#6699cc;stroke-width:1.14;marker-start:url(#id23104)"
       d="m 156.768,44.65 h 16.8"
       id="path2765" />
    <path
       style="overflow:visible;fill:none;stroke:#6699cc;stroke-width:1.14;marker-start:url(#id29256)"
       d="m 221.868,44.65 h -16.8"
       id="path2767" />
    <text
       x="247.592"
       y="49.25"
       style="font-size:16.4px;font-family:'Trebuchet MS';overflow:visible;fill:#6699cc;stroke-width:2.5"
       id="text2769">1 ft</text>
    <path
       style="overflow:visible;fill:none;stroke:#6699cc;stroke-width:1.14;marker-start:url(#id23104)"
       d="m 226.692,44.65 h 16.8"
       id="path2771" />
    <path
       style="overflow:visible;fill:none;stroke:#6699cc;stroke-width:1.14;marker-start:url(#id29256)"
       d="m 291.792,44.65 h -16.8"
       id="path2773" />
  </g>
</svg>
