<?xml version="1.0" encoding="UTF-8" standalone="no"?>
<svg
   width="118.648"
   height="248.556"
   version="1.1"
   id="svg150"
   sodipodi:docname="bottle-2l.svg"
   inkscape:version="1.1.2 (0a00cf5339, 2022-02-04, custom)"
   xmlns:inkscape="http://www.inkscape.org/namespaces/inkscape"
   xmlns:sodipodi="http://sodipodi.sourceforge.net/DTD/sodipodi-0.dtd"
   xmlns:xlink="http://www.w3.org/1999/xlink"
   xmlns="http://www.w3.org/2000/svg"
   xmlns:svg="http://www.w3.org/2000/svg"
   xmlns:rdf="http://www.w3.org/1999/02/22-rdf-syntax-ns#"
   xmlns:cc="http://creativecommons.org/ns#"
   xmlns:dc="http://purl.org/dc/elements/1.1/">
  <metadata
     id="metadata154">
    <rdf:RDF>
      <cc:Work
         rdf:about="">
        <dc:format>image/svg+xml</dc:format>
        <dc:type
           rdf:resource="http://purl.org/dc/dcmitype/StillImage" />
      </cc:Work>
    </rdf:RDF>
  </metadata>
  <sodipodi:namedview
     pagecolor="#ffffff"
     bordercolor="#666666"
     borderopacity="1"
     objecttolerance="10"
     gridtolerance="10"
     guidetolerance="10"
     inkscape:pageopacity="0"
     inkscape:pageshadow="2"
     inkscape:window-width="640"
     inkscape:window-height="480"
     id="namedview152"
     showgrid="false"
     inkscape:current-layer="svg150"
     inkscape:pagecheckerboard="0" />
  <defs
     id="defs16">
    <linearGradient
       inkscape:collect="always"
       id="linearGradient11423">
      <stop
         style="stop-color:#4dc3ff;stop-opacity:1"
         offset="0"
         id="stop11419" />
      <stop
         style="stop-color:#0084c8;stop-opacity:1"
         offset="1"
         id="stop11421" />
    </linearGradient>
    <linearGradient
       inkscape:collect="always"
       xlink:href="#linearGradient11423"
       id="linearGradient11425"
       x1="19.0257"
       y1="57.2569"
       x2="97.3838"
       y2="107.257"
       gradientUnits="userSpaceOnUse" />
  </defs>
  <path
     style="fill:#ffffff;stroke:url(#linearGradient11425);stroke-width:3.64154;fill-opacity:1"
     d="m 43.1197,1.8202 v 22.796 c 0,0 -32.264,9.6137 -31.9727,61.2507 l 0.437,89.0721 c 0,0 0.6555,12.381 12.7454,12.381 h 31.3172 7.3559 31.2444 c 12.0901,0 12.7451,-12.381 12.7451,-12.381 l 0.51,-89.0721 C 107.721,34.2299 75.4566,24.6162 75.4566,24.6162 V 1.8202 H 63.0025 55.6466 Z"
     id="path138" />
  <path
     style="fill:#89e4eb;stroke-width:3.64154;fill-opacity:1"
     d="m 12.9949,82.4828 c 0,1.0925 -0.073,2.1849 -0.073,3.3502 l 0.437,88.999 c 0,0 0.2185,2.695 1.6751,5.39 1.4566,2.694 3.86,5.244 9.3223,5.244 h 31.2444 7.3559 31.2444 c 5.4624,0 7.866,-2.55 9.323,-5.244 1.456,-2.695 1.675,-5.39 1.675,-5.39 l 0.437,-88.999 c 0,-1.1653 0,-2.2577 -0.07,-3.3502 z"
     id="path140" />
  <path
     style="overflow:visible;fill:#ffffff;fill-opacity:0.69;stroke-width:3.89669;stroke-linecap:round;stroke-linejoin:round"
     d="m 53.0554,8.66366 c -0.5827,2.25164 -1.0196,4.67014 -1.2381,7.00514 -0.1457,2.752 -0.3642,5.504 -0.6555,8.2561 -0.1457,2.0014 -0.2185,3.9195 -0.1457,5.921 0.1457,1.4177 0.1457,2.8354 0.2185,4.1697 0.073,1.0007 0.073,2.0015 0.073,2.9188 0,0.8339 0,1.6679 0,2.5018 0,1.4177 -4.5883,4.5033 -4.5883,3.0856 v 0 c 0,-0.8339 0,-1.6679 0,-2.5018 0,-1.0007 0,-2.0015 0,-3.0022 0,-1.4177 -0.073,-2.752 -0.2185,-4.1697 0,-2.0849 0.1457,-4.0864 0.437,-6.0878 0.2185,-2.7521 0.437,-5.5041 0.5826,-8.2561 0.2185,-2.2516 0.6555,-4.5867 0.9468,-6.8383 0.1457,-1.4177 4.9525,-4.41995 4.5884,-3.00224 z"
     id="path142" />
  <path
     style="overflow:visible;fill:#ffffff;fill-opacity:0.69;stroke-width:3.63223;stroke-linecap:round;stroke-linejoin:round"
     d="m 48.4326,29.7896 c -0.1502,0 -0.3003,-0.01 -0.378,0.058 -8.0921,3.3235 -12.7891,10.4105 -18.7603,15.3482 -0.078,0.068 -0.078,0.068 -0.08,0.138 -8.3612,8.5853 -9.7745,20.4161 -12.1927,30.9495 0,0 0,0 0,0 -1.7682,9.2193 -0.077,18.4093 -0.7835,27.3817 0,0 0,0.07 0,0.07 -0.2922,7.932 -0.6622,15.931 -0.056,23.962 v 0 c -0.044,7.307 0.055,16.867 0.4308,25.031 0.2255,4.083 0.4639,7.815 0.8783,10.851 0.4171,2.964 0.8651,5.087 1.8699,6.384 1.3596,1.871 2.7088,4.023 4.6717,5.843 1.9629,1.82 4.6172,3.241 8.2969,3.359 0.075,0 0.1502,0 0.3003,0.01 1.0643,-0.317 1.823,-0.504 2.4367,-0.835 0.3056,-0.131 0.6111,-0.262 0.8494,-0.605 0.2356,-0.274 0.3288,-0.763 0.2692,-1.186 -0.2745,-0.712 -0.8649,-1.012 -1.6004,-1.457 -0.738,-0.376 -1.6987,-0.828 -2.8821,-1.358 -2.1442,-0.983 -4.1589,-3.437 -5.7049,-6.368 -1.471,-2.929 -2.4758,-6.264 -2.7556,-8.873 -0.5596,-5.218 -0.4199,-9.008 -0.5677,-13.159 -0.073,-0.07 0,-0.07 0,-0.07 0.093,-8.64 1.0921,-17.392 -0.3895,-26.154 -1.2744,-10.301 -1.4173,-20.7061 -0.063,-30.9225 0.6421,-3.1417 1.8072,-6.1962 3.1925,-9.1031 0.448,2.1226 0.8133,4.4534 1.1422,5.7289 0.1321,0.4962 0.2667,0.9222 0.3315,1.2054 0.07,0.1428 0.1424,0.2154 0.2848,0.4308 0.07,0.1428 0.1347,0.426 0.8106,0.4477 0.3004,0.01 0.6085,-0.1912 0.7639,-0.3268 0.08,-0.1379 0.1579,-0.2057 0.1605,-0.2759 0.088,-0.3485 0.091,-0.4187 0.098,-0.6293 0.01,-0.1404 -0.062,-0.3534 -0.052,-0.6341 -0.057,-0.4938 -0.1088,-1.1279 -0.2254,-2.0452 -0.1272,-6.7504 0.2041,-11.6589 0.1468,-20.3044 1.5611,-7.6799 6.9858,-14.111 11.5948,-20.8494 2.8406,-3.6331 5.4584,-7.3436 8.6589,-10.5434 0.3107,-0.2711 0.3236,-0.6221 0.1864,-0.9778 -0.1373,-0.3558 -0.505,-0.5785 -0.8831,-0.5204 z"
     id="path144" />
  <text
     xml:space="preserve"
     style="color:#000000;font-style:normal;font-variant:normal;font-weight:normal;font-stretch:normal;font-size:40px;line-height:50px;font-family:'Trebuchet MS';-inkscape-font-specification:'Trebuchet MS';text-indent:0;text-align:start;text-decoration:none;text-decoration-line:none;text-decoration-style:solid;text-decoration-color:#000000;letter-spacing:0px;word-spacing:0px;text-transform:none;writing-mode:lr-tb;direction:ltr;baseline-shift:baseline;text-anchor:start;white-space:normal;clip-rule:nonzero;display:inline;overflow:visible;visibility:visible;opacity:1;isolation:auto;mix-blend-mode:normal;color-interpolation:sRGB;color-interpolation-filters:linearRGB;solid-color:#000000;solid-opacity:1;fill:#204a87;fill-opacity:1;fill-rule:nonzero;stroke:none;stroke-width:1px;stroke-linecap:butt;stroke-linejoin:miter;stroke-miterlimit:4;stroke-dasharray:none;stroke-dashoffset:0;stroke-opacity:1;color-rendering:auto;image-rendering:auto;shape-rendering:auto;text-rendering:auto;enable-background:accumulate"
     x="39.9297"
     y="140.84"
     id="text4191"><tspan
       sodipodi:role="line"
       id="tspan4189"
       x="39.9297"
       y="140.84">2L</tspan></text>
  <rect
     style="color:#000000;overflow:visible;fill:#ccff42;stroke:#009100;stroke-width:1.84144;stop-color:#000000"
     id="rect5556"
     width="116.807"
     height="50.1583"
     x="0.92072"
     y="197.477"
     ry="3.98673" />
  <text
     xml:space="preserve"
     style="color:#000000;font-style:normal;font-variant:normal;font-weight:bold;font-stretch:normal;font-size:30.5069px;line-height:38.1336px;font-family:Arial;-inkscape-font-specification:'Arial Bold';text-indent:0;text-align:start;text-decoration:none;text-decoration-line:none;text-decoration-style:solid;text-decoration-color:#000000;letter-spacing:0px;word-spacing:0px;text-transform:none;writing-mode:lr-tb;direction:ltr;baseline-shift:baseline;text-anchor:start;white-space:normal;clip-rule:nonzero;display:inline;overflow:visible;visibility:visible;opacity:1;isolation:auto;mix-blend-mode:normal;color-interpolation:sRGB;color-interpolation-filters:linearRGB;solid-color:#000000;solid-opacity:1;fill:#000000;fill-opacity:1;fill-rule:nonzero;stroke:none;stroke-width:1.52534px;stroke-linecap:butt;stroke-linejoin:miter;stroke-miterlimit:4;stroke-dasharray:none;stroke-dashoffset:0;stroke-opacity:1;color-rendering:auto;image-rendering:auto;shape-rendering:auto;text-rendering:auto;enable-background:accumulate"
     x="21.2243"
     y="232.917"
     id="text6410"><tspan
       sodipodi:role="line"
       id="tspan6408"
       x="21.2243"
       y="232.917"
       style="font-style:normal;font-variant:normal;font-weight:bold;font-stretch:normal;font-family:Arial;-inkscape-font-specification:'Arial Bold';stroke-width:1.52534px">$3.80</tspan></text>
</svg>
