<?xml version="1.0" encoding="UTF-8" standalone="no"?>
<!-- Copyright 2017 mathsisfun.com -->
<svg xmlns="http://www.w3.org/2000/svg" width="395.5" height="123.8" version="1.1">
<defs>
<marker id="id1" style="overflow:visible;" orient="auto">
<path transform="matrix(-0.8,0,0,-0.8,-10,0)" style="fill:#73d216; stroke:#73d216; stroke-width:1pt;" d="M 0,0 5,-5 -12.5,0 5,5 Z"/>
</marker>
<marker id="id2" style="overflow:visible;" orient="auto">
<path transform="matrix(-0.8,0,0,-0.8,-10,0)" style="fill:black; stroke:black; stroke-width:1pt;" d="M 0,0 5,-5 -12.5,0 5,5 Z"/>
</marker>
<marker id="id3" style="overflow:visible;" orient="auto">
<path transform="scale(-0.6)" style="fill:#ff4141; stroke:#ff4141; stroke-width:0.63; stroke-linejoin:round;" d="M 8.7,4 -2.2,0 8.7,-4 C 7,-1.6 7,1.6 8.7,4 Z"/>
</marker>
</defs>
<g transform="translate(130.7,-1091.97)">
<path style="marker-end:url(#id1); fill:none; stroke:#73d216; stroke-width:1.33;" d="M -127.2,1209 H 262.2"/>
<path style="marker-end:url(#id2); fill:none; stroke:black; stroke-width:1.25;" d="M -111.6,1208.2 V 1094.4"/>
<text x="-1157.4" y="-118.4" transform="rotate(-90)" style="font-family:'Comic Sans MS'; font-size:15px; overflow:visible; fill:black; stroke-width:1.18;">speed</text>
<path style="fill:none; stroke:#ff4141; stroke-width:1.83;" d="m -111.6,1208.2 c 0,0 13.2,-38.6 23.9,-45.2 11.6,-7.2 26.8,-18.1 33.2,-18.8 14.9,-1.7 27.1,2.2 32.1,2.2 18.8,0 26,-7.2 33.7,1.7 20.5,23.4 7.1,60.4 32.1,60.5 40.9,0.1 7.1,-46.5 42,-47.7 30.4,-1.1 30.1,-20.9 50.5,-20.8 29,0.1 23,13.6 37.1,20.6 19.7,9.8 26.3,48 26.3,48"/>
<path style="color:black; overflow:visible; fill:#ba00ff; stroke-width:1.96;" d="m 84.1,1161 a 0.7,0.7 0 0 1 -0.7,0.7 0.7,0.7 0 0 1 -0.7,-0.7 0.7,0.7 0 0 1 0.7,-0.7 0.7,0.7 0 0 1 0.7,0.7"/>
<path style="color:black; marker-end:url(#id3); overflow:visible; fill:#ff4141; stroke:#ff4141; stroke-width:1.39;" d="m 70.7,1134.5 10.7,23.1"/>
<path style="fill:#19aeff; stroke:#0084c8; stroke-width:1.2; stroke-dasharray:4.8, 4.8;" d="m -130.7,1171.1 h 395"/>
<text x="204.7" y="1165.2" style="font-family:'Comic Sans MS'; font-size:15px; overflow:visible; fill:#0084c8; stroke-width:1.18;">average</text>
<text x="13.9" y="1131.9" style="font-family:'Comic Sans MS'; font-size:15px; overflow:visible; fill:#ff4141; stroke-width:1.18;">instantaneous</text>
<g transform="matrix(0.392334,0,0,0.392334,34.49,700.923)">
<path style="fill:#dc0000; stroke:black; stroke-width:1px;" d="m -281.9,1098.2 c 0,-8.4 0.6,-14.1 2.9,-14.6 l 11.8,-1.5 c 8.4,-3.9 17.1,-8.7 24.8,-10.6 5.9,-1.2 12.1,-1.9 18.8,-2 13.4,0.2 28.4,-0.7 37.9,2.5 9,4.2 17.9,8.6 26.5,13.9 11.5,0.8 34.9,4 38.3,7.7 1.7,2.3 3,4.7 3.7,7.5 1.5,0.6 1.4,2.8 0.8,5.5 l -0.2,5.5 -5.7,2.3 -11.2,1.4 -2.9,0.8 c -4.2,10 -20,8.7 -24.3,-0.5 l -3.5,0.6 -63.1,-0.6 -0.8,1.1 -4.9,-0.2 c -3.3,10.1 -22.2,11.1 -25.1,-1.4 h -2.5 l -7.4,-1.1 -11.2,-1.5 c -3.1,-1.8 -4.3,-3.2 -4.6,-4.3 l 0.8,-1.1 -0.6,-6.2 c 0.4,-2.1 0.8,-2.8 1.8,-3.2 z m 68.2,-26.4 c -6.8,0 -13.4,0.3 -19.3,1.6 l 1.4,11.8 20.9,0.7 c 0.9,-0.2 1.8,-0.3 1.6,-1.8 l -2.2,-12.3 c -0.8,0 -1.6,0 -2.4,0 z m -20.3,1.8 c -4,1 -7.7,2.5 -10.9,4.7 -1.3,0.9 -1.7,1.9 -1.7,3 0.6,2.5 2.1,3.6 4.3,3.5 l 9.7,0.3 z m 27.3,-1.7 4.5,12.7 c 0.6,0.9 1.4,1.6 2.9,1.7 l 21.7,0.9 c -3.1,-2.1 -0.5,-6 2.6,-5.2 -5.9,-4.9 -12.2,-8 -19.1,-9.2 -4,-0.7 -8.3,-0.8 -12.5,-0.9 z m -71.9,12.6 c -1.8,0.6 -2.2,5.2 -2.3,10.8 h 5.8 c 0.2,-2 0.3,-3.9 0,-5.9 -0.6,-3.4 -2.2,-3.8 -3.6,-4.9 z m 38.6,5.2 h 5.5 c 0.4,0 0.8,0.4 0.8,0.8 0,0.4 -0.4,0.8 -0.8,0.8 h -5.5 c -0.4,0 -0.8,-0.4 -0.8,-0.8 0,-0.4 0.4,-0.8 0.8,-0.8 z m 38,0.9 h 5.5 c 0.4,0 0.8,0.4 0.8,0.8 0,0.4 -0.4,0.8 -0.8,0.8 h -5.5 c -0.4,0 -0.8,-0.4 -0.8,-0.8 0,-0.4 0.4,-0.8 0.8,-0.8 z m -34.3,21.2 c 0,5 -4.1,9.1 -9.1,9.1 -5,0 -9.1,-4.1 -9.1,-9.1 0,-5 4.1,-9.1 9.1,-9.1 5,0 9.1,4.1 9.1,9.1 z m 97.4,-1.2 c 0,5 -4.1,9.1 -9.1,9.1 -5,0 -9.1,-4.1 -9.1,-9.1 0,-5 4.1,-9.1 9.1,-9.1 5,0 9.1,4.1 9.1,9.1 z m 7.6,-11 11.8,0.1 c -0.9,-2 -2.1,-3.7 -3.9,-5.1 l -4.6,0.4 c -0.8,0.1 -1.2,0.5 -1.5,0.9 l -1.8,3.8 z"/>
<circle cx="-245.2" cy="1112" r="12.0303" style="color:black; overflow:visible; fill:none; stroke:black; stroke-width:3.23;"/>
<circle cx="-147.8" cy="1110.8" r="12.0303" style="color:black; overflow:visible; fill:none; stroke:black; stroke-width:3.23;"/>
</g>
<text x="218.9" y="1199.3" style="font-family:'Comic Sans MS'; font-size:15px; overflow:visible; fill:#73d216; stroke-width:1.18;">time</text>
</g>
</svg>
