<?xml version="1.0" encoding="UTF-8" standalone="no"?>
<!-- Copyright 2017 mathsisfun.com -->
<svg xmlns="http://www.w3.org/2000/svg" xmlns:xlink="http://www.w3.org/1999/xlink" width="176.5" height="174.3" version="1.1">
<defs>
<linearGradient id="id10" gradientTransform="matrix(2.61212,0,0,2.94761,-110.516,-616.404)" xlink:href="#id1" x1="35.4" y1="107.5" x2="35.4" y2="108.6" gradientUnits="userSpaceOnUse"/>
<linearGradient id="id1">
<stop offset="0" style="stop-color:#ff4141; stop-opacity:1;"/>
<stop offset="1" style="stop-color:#f5ce90; stop-opacity:1;"/>
</linearGradient>
<linearGradient id="id6" gradientTransform="matrix(2.94031,0,0,2.94761,96.8541,-74.8839)" xlink:href="#id2" x1="10.4" y1="99" x2="44.4" y2="115.6" gradientUnits="userSpaceOnUse"/>
<linearGradient id="id2">
<stop offset="0" style="stop-color:#c3eaff; stop-opacity:1;"/>
<stop offset="1" style="stop-color:#fafafa; stop-opacity:1;"/>
</linearGradient>
<radialGradient id="id5" r="24.4976" fx="27.0347" fy="107.863" cx="27" cy="107.9" gradientTransform="matrix(2.91253,0,0,2.91752,97.6128,-71.642)" xlink:href="#id3" gradientUnits="userSpaceOnUse"/>
<linearGradient id="id3" gradientTransform="matrix(1,0,0,-1,0,-538)" x1="62.4" y1="-595" x2="62.4" y2="-603.2" gradientUnits="userSpaceOnUse">
<stop offset="0" style="stop-color:#8BA4D6;"/>
<stop offset="0.917" style="stop-color:#b4c2ed; stop-opacity:1;"/>
<stop offset="1" style="stop-color:#274ee1; stop-opacity:1;"/>
</linearGradient>
<marker id="id12" style="overflow:visible;" orient="auto">
<path transform="matrix(-0.4,0,0,-0.4,-4,0)" style="fill:#009100; stroke:#009100; stroke-width:1pt;" d="M 0,0 5,-5 -12.5,0 5,5 Z"/>
</marker>
<linearGradient id="id11" gradientTransform="matrix(1,0,0,-1,0,-538)" xlink:href="#id4" x1="62.4" y1="-595" x2="62.4" y2="-603.2" gradientUnits="userSpaceOnUse"/>
<linearGradient id="id4" gradientTransform="matrix(1,0,0,-1,0,-538)" x1="62.4" y1="-595" x2="62.4" y2="-603.2" gradientUnits="userSpaceOnUse">
<stop offset="0" style="stop-color:#8BA4D6;"/>
<stop offset="1" style="stop-color:#1B3EA6;"/>
</linearGradient>
<linearGradient id="id9" gradientTransform="matrix(3.31156,0,0,2.94761,-343.614,-143.72)" xlink:href="#id4" x1="35.4" y1="107.5" x2="35.4" y2="108.6" gradientUnits="userSpaceOnUse"/>
</defs>
<g transform="translate(-87.6586,-155.705)">
<ellipse cx="176.3" cy="243" rx="71.3" ry="71.5" style="color:black; overflow:visible; fill:url(#id5); stroke:#204a87; stroke-width:0;"/>
<ellipse cx="176.3" cy="243" rx="64" ry="64.1" style="color:black; overflow:visible; fill:url(#id6); stroke-width:0.39;"/>
<text x="172.8" y="304.1" transform="scale(0.998761,1.00124)" style="font-family:Verdana; font-weight:bold; font-size:11.5px; fill:#2e3436; stroke:black; stroke-width:0.01; stroke-opacity:0.71;">6</text>
<text x="228.2" y="246.8" transform="scale(0.998761,1.00124)" style="font-family:Verdana; font-weight:bold; font-size:11.5px; fill:#2e3436; stroke:black; stroke-width:0.01; stroke-opacity:0.71;">3</text>
<text x="116.1" y="246.6" transform="scale(0.998761,1.00124)" style="font-family:Verdana; font-weight:bold; font-size:11.5px; fill:#2e3436; stroke:black; stroke-width:0.01; stroke-opacity:0.71;">9</text>
<text x="204.6" y="196.8" transform="scale(0.989471,1.01064)" style="font-family:Verdana; font-weight:bold; font-size:11.5px; fill:#2e3436; stroke:black; stroke-width:0; stroke-opacity:0.71;">1</text>
<text x="224.3" y="216.8" transform="scale(0.989471,1.01064)" style="font-family:Verdana; font-weight:bold; font-size:11.5px; fill:#2e3436; stroke:black; stroke-width:0; stroke-opacity:0.71;">2</text>
<text x="223.1" y="272.3" transform="scale(0.989471,1.01064)" style="font-family:Verdana; font-weight:bold; font-size:11.5px; fill:#2e3436; stroke:black; stroke-width:0; stroke-opacity:0.71;">4</text>
<text x="203.4" y="294.1" transform="scale(0.989471,1.01064)" style="font-family:Verdana; font-weight:bold; font-size:11.5px; fill:#2e3436; stroke:black; stroke-width:0; stroke-opacity:0.71;">5</text>
<text x="146" y="294.9" transform="scale(0.989471,1.01064)" style="font-family:Verdana; font-weight:bold; font-size:11.5px; fill:#2e3436; stroke:black; stroke-width:0; stroke-opacity:0.71;">7</text>
<text x="124.5" y="271" transform="scale(0.989471,1.01064)" style="font-family:Verdana; font-weight:bold; font-size:11.5px; fill:#2e3436; stroke:black; stroke-width:0; stroke-opacity:0.71;">8</text>
<ellipse id="id7" cx="181.2" cy="196.9" rx="0.9" ry="0.9" style="color:black; overflow:visible; fill:#005c94; stroke-width:0.09;"/>
<path style="fill:#204a87; stroke-width:0.07;" d="m 176.4,243.9 c -0.4,0 -0.9,-0.3 -0.9,-0.9 0,-0.4 0.3,-0.9 0.9,-0.9 0.4,0 0.9,0.3 0.9,0.9 0,0.4 -0.3,0.9 -0.9,0.9 z"/>
<use transform="matrix(0.978148,0.208428,-0.207397,0.978148,49.5943,-32.6829)" xlink:href="#id7" x="0" y="0"/>
<use transform="matrix(0.951057,0.309784,-0.308252,0.951057,79.0437,-44.4479)" xlink:href="#id7" x="0" y="0"/>
<use transform="matrix(0.913545,0.407747,-0.405729,0.913545,109.551,-53.0651)" xlink:href="#id7" x="0" y="0"/>
<use transform="matrix(0.809017,0.589245,-0.586329,0.809017,172.407,-60.5043)" xlink:href="#id7" x="0" y="0"/>
<use transform="matrix(0.743145,0.670792,-0.667473,0.743145,204.092,-59.2534)" xlink:href="#id7" x="0" y="0"/>
<use transform="matrix(0.669131,0.74499,-0.741304,0.669131,235.458,-54.6766)" xlink:href="#id7" x="0" y="0"/>
<use transform="matrix(0.587785,0.811026,-0.807013,0.587785,266.171,-46.8404)" xlink:href="#id7" x="0" y="0"/>
<use transform="matrix(0.406737,0.915814,-0.911283,0.406737,324.312,-21.7888)" xlink:href="#id7" x="0" y="0"/>
<use transform="matrix(0.309017,0.953418,-0.948701,0.309017,351.096,-4.83636)" xlink:href="#id7" x="0" y="0"/>
<use transform="matrix(0.207912,0.980576,-0.975725,0.207912,376.024,14.8806)" xlink:href="#id7" x="0" y="0"/>
<use transform="matrix(0.104528,0.996991,-0.992059,0.104528,398.681,37.0174)" xlink:href="#id7" x="0" y="0"/>
<use transform="matrix(-0.104528,0.996991,-0.992059,-0.104528,436.564,87.8879)" xlink:href="#id7" x="0" y="0"/>
<use transform="matrix(-0.207912,0.980576,-0.975725,-0.207912,451.293,116.01)" xlink:href="#id7" x="0" y="0"/>
<use transform="matrix(-0.309017,0.953418,-0.948701,-0.309017,463.052,145.529)" xlink:href="#id7" x="0" y="0"/>
<use transform="matrix(-0.406737,0.915814,-0.911283,-0.406737,471.641,176.105)" xlink:href="#id7" x="0" y="0"/>
<use transform="matrix(-0.587785,0.811026,-0.807013,-0.587785,479.087,239.147)" xlink:href="#id7" x="0" y="0"/>
<use transform="matrix(-0.669131,0.74499,-0.741304,-0.669131,477.821,270.882)" xlink:href="#id7" x="0" y="0"/>
<use transform="matrix(-0.743145,0.670792,-0.667473,-0.743145,473.245,302.285)" xlink:href="#id7" x="0" y="0"/>
<use transform="matrix(-0.809017,0.589245,-0.586329,-0.809017,465.446,333.144)" xlink:href="#id7" x="0" y="0"/>
<use transform="matrix(-0.913545,0.407747,-0.405729,-0.913545,440.437,391.397)" xlink:href="#id7" x="0" y="0"/>
<use transform="matrix(-0.951057,0.309784,-0.308252,-0.951057,423.518,418.333)" xlink:href="#id7" x="0" y="0"/>
<use transform="matrix(-0.978148,0.208428,-0.207397,-0.978148,403.892,443.22)" xlink:href="#id7" x="0" y="0"/>
<use transform="matrix(-0.994522,0.104788,-0.10427,-0.994522,381.768,466.033)" xlink:href="#id7" x="0" y="0"/>
<use transform="matrix(-0.994522,-0.104788,0.10427,-0.994522,331.04,503.882)" xlink:href="#id7" x="0" y="0"/>
<use transform="matrix(-0.978148,-0.208428,0.207397,-0.978148,302.975,518.727)" xlink:href="#id7" x="0" y="0"/>
<use transform="matrix(-0.951057,-0.309784,0.308252,-0.951057,273.556,530.439)" xlink:href="#id7" x="0" y="0"/>
<use transform="matrix(-0.913545,-0.407747,0.405729,-0.913545,243.026,539.125)" xlink:href="#id7" x="0" y="0"/>
<use transform="matrix(-0.809017,-0.589245,0.586329,-0.809017,180.178,546.518)" xlink:href="#id7" x="0" y="0"/>
<use transform="matrix(-0.743145,-0.670792,0.667473,-0.743145,148.482,545.324)" xlink:href="#id7" x="0" y="0"/>
<use transform="matrix(-0.669131,-0.74499,0.741304,-0.669131,117.128,540.709)" xlink:href="#id7" x="0" y="0"/>
<use transform="matrix(-0.587785,-0.811026,0.807013,-0.587785,86.442,532.852)" xlink:href="#id7" x="0" y="0"/>
<use transform="matrix(-0.406737,-0.915814,0.911283,-0.406737,28.2542,507.828)" xlink:href="#id7" x="0" y="0"/>
<use transform="matrix(-0.309017,-0.953418,0.948701,-0.309017,1.46248,490.855)" xlink:href="#id7" x="0" y="0"/>
<use transform="matrix(-0.207912,-0.980576,0.975725,-0.207912,-23.4342,471.19)" xlink:href="#id7" x="0" y="0"/>
<use transform="matrix(-0.104528,-0.996991,0.992059,-0.104528,-46.1219,449.003)" xlink:href="#id7" x="0" y="0"/>
<use transform="matrix(0.104528,-0.996991,0.992059,0.104528,-83.9969,398.165)" xlink:href="#id7" x="0" y="0"/>
<use transform="matrix(0.207912,-0.980576,0.975725,0.207912,-98.6988,370.012)" xlink:href="#id7" x="0" y="0"/>
<use transform="matrix(0.309017,-0.953418,0.948701,0.309017,-110.486,340.525)" xlink:href="#id7" x="0" y="0"/>
<use transform="matrix(0.406737,-0.915814,0.911283,0.406737,-119.065,309.931)" xlink:href="#id7" x="0" y="0"/>
<use transform="matrix(0.587785,-0.811026,0.807013,0.587785,-126.475,246.9)" xlink:href="#id7" x="0" y="0"/>
<use transform="matrix(0.669131,-0.74499,0.741304,0.669131,-125.22,215.154)" xlink:href="#id7" x="0" y="0"/>
<use transform="matrix(0.743145,-0.670792,0.667473,0.743145,-120.664,183.713)" xlink:href="#id7" x="0" y="0"/>
<use transform="matrix(0.809017,-0.589245,0.586329,0.809017,-112.866,152.926)" xlink:href="#id7" x="0" y="0"/>
<use transform="matrix(0.913545,-0.407747,0.405729,0.913545,-87.8584,94.6268)" xlink:href="#id7" x="0" y="0"/>
<use transform="matrix(0.951057,-0.309784,0.308252,0.951057,-70.9299,67.7563)" xlink:href="#id7" x="0" y="0"/>
<use transform="matrix(0.978148,-0.208428,0.207397,0.978148,-51.3153,42.8098)" xlink:href="#id7" x="0" y="0"/>
<use transform="matrix(0.994522,-0.104788,0.10427,0.994522,-29.1856,20.0549)" xlink:href="#id7" x="0" y="0"/>
<rect id="id8" x="175.5" y="192.7" ry="0.7" width="1.8" height="9.5" style="color:black; overflow:visible; fill:black; stroke-width:0.02;"/>
<use transform="translate(-0.001436,-0.003032)" xlink:href="#id8" x="0" y="0"/>
<use transform="matrix(0.866025,0.501242,-0.498762,0.866025,144.815,-55.8452)" xlink:href="#id8" x="0" y="0"/>
<use transform="matrix(0.5,0.868176,-0.86388,0.5,298.082,-31.6207)" xlink:href="#id8" x="0" y="0"/>
<use transform="matrix(0,1.00248,-0.997523,0,418.734,66.1811)" xlink:href="#id8" x="0" y="0"/>
<use transform="matrix(-0.5,0.868176,-0.86388,-0.5,474.44,211.356)" xlink:href="#id8" x="0" y="0"/>
<use transform="matrix(-0.866025,0.501242,-0.498762,-0.866025,450.254,365.01)" xlink:href="#id8" x="0" y="0"/>
<use transform="rotate(180,176.347,242.976)" xlink:href="#id8" x="0" y="0"/>
<use transform="matrix(-0.866025,-0.501242,0.498762,-0.866025,207.879,541.795)" xlink:href="#id8" x="0" y="0"/>
<use transform="matrix(-0.5,-0.868176,0.86388,-0.5,54.6239,517.551)" xlink:href="#id8" x="0" y="0"/>
<use transform="matrix(0,-1.00248,0.997523,0,-66.02,419.751)" xlink:href="#id8" x="0" y="0"/>
<use transform="matrix(0.5,-0.868176,0.86388,0.5,-121.731,274.59)" xlink:href="#id8" x="0" y="0"/>
<use transform="matrix(0.866025,-0.501242,0.498762,0.866025,-97.5604,120.951)" xlink:href="#id8" x="0" y="0"/>
<text x="170.1" y="188" transform="scale(0.989471,1.01064)" style="font-family:Verdana; font-weight:bold; font-size:11.5px; fill:#2e3436; stroke:black; stroke-width:0; stroke-opacity:0.71;">1</text>
<text x="141.4" y="195.6" transform="scale(0.989471,1.01064)" style="font-family:Verdana; font-weight:bold; font-size:11.5px; fill:#2e3436; stroke:black; stroke-width:0; stroke-opacity:0.71;">1</text>
<text x="120" y="217.2" transform="scale(0.989471,1.01064)" style="font-family:Verdana; font-weight:bold; font-size:11.5px; fill:#2e3436; stroke:black; stroke-width:0; stroke-opacity:0.71;">1</text>
<text x="126.5" y="217.2" transform="scale(0.989471,1.01064)" style="font-family:Verdana; font-weight:bold; font-size:11.5px; fill:#2e3436; stroke:black; stroke-width:0; stroke-opacity:0.71;">0</text>
<text x="177.3" y="188" transform="scale(0.989471,1.01064)" style="font-family:Verdana; font-weight:bold; font-size:11.5px; fill:#2e3436; stroke:black; stroke-width:0; stroke-opacity:0.71;">2</text>
<text x="148.1" y="195.6" transform="scale(0.989471,1.01064)" style="font-family:Verdana; font-weight:bold; font-size:11.5px; fill:#2e3436; stroke:black; stroke-width:0; stroke-opacity:0.71;">1</text>
<rect x="-254.2" y="171.6" ry="0.9" width="58.7" height="4.9" style="color:black; overflow:visible; fill:url(#id9); stroke-width:0;" transform="rotate(-90.605)"/>
<rect x="-40" y="-301.1" ry="0.9" width="46.3" height="4.9" style="color:black; overflow:visible; fill:url(#id10); stroke-width:0;" transform="rotate(150.26)"/>
<g transform="matrix(0.91169,0,0,0.913955,119.463,187.001)">
<g>
<linearGradient gradientTransform="matrix(1,0,0,-1,0,-538)" x1="62.4" y1="-595" x2="62.4" y2="-603.2" gradientUnits="userSpaceOnUse">
<stop offset="0" style="stop-color:#8BA4D6;"/>
<stop offset="0.917" style="stop-color:#b4c2ed; stop-opacity:1;"/>
<stop offset="1" style="stop-color:#274ee1; stop-opacity:1;"/>
</linearGradient>
<circle cx="62.4" cy="61.3" r="4.469" style="fill:url(#id11); stroke-width:0.09;"/>
</g>
</g>
<path style="marker-end:url(#id12); overflow:visible; fill:none; stroke:#009100; stroke-width:2;" d="m 176.3,161.6 a 83.5,83.7 0 0 1 83.5,82.9 83.5,83.7 0 0 1 -81.8,84.6 83.5,83.7 0 0 1 -85.2,-81.2 83.5,83.7 0 0 1 80.1,-86.2"/>
<text x="257.5" y="69.5" transform="matrix(0.919406,0.391118,-0.39015,0.921688,0,0)" style="font-family:Verdana; font-size:13.9px; color:black; overflow:visible; fill:#009100; stroke-width:0.06px;">6</text>
<path style="color:black; overflow:visible; fill:#ccff42; fill-opacity:0.76; stroke-width:0.12;" d="m 251.1,243 a 74.8,73.7 0 0 1 -74.8,73.7 74.8,73.7 0 0 1 -74.8,-73.7 74.8,73.7 0 0 1 74.8,-73.7 74.8,73.7 0 0 1 74.8,73.7 z"/>
<text x="270.1" y="52" transform="matrix(0.891665,0.451067,-0.449949,0.893881,0,0)" style="font-family:Verdana; font-size:13.9px; color:black; overflow:visible; fill:#009100; stroke-width:0.06px;">0</text>
<text x="286.2" y="-25.7" transform="matrix(0.738745,0.673814,-0.672145,0.740579,0,0)" style="font-family:Verdana; font-size:13.9px; color:black; overflow:visible; fill:#009100; stroke-width:0.06px;">m</text>
<text x="295.9" y="-47.9" transform="matrix(0.686486,0.727237,-0.725437,0.688193,0,0)" style="font-family:Verdana; font-size:13.9px; color:black; overflow:visible; fill:#009100; stroke-width:0.06px;">i</text>
<text x="291.4" y="-81.5" transform="matrix(0.599368,0.800909,-0.798925,0.600856,0,0)" style="font-family:Verdana; font-size:13.9px; color:black; overflow:visible; fill:#009100; stroke-width:0.06px;">n</text>
<text x="291.2" y="-106.7" transform="matrix(0.529941,0.848674,-0.846573,0.531258,0,0)" style="font-family:Verdana; font-size:13.9px; color:black; overflow:visible; fill:#009100; stroke-width:0.06px;">u</text>
<text x="294.7" y="-118.6" transform="matrix(0.495486,0.869341,-0.86719,0.496716,0,0)" style="font-family:Verdana; font-size:13.9px; color:black; overflow:visible; fill:#009100; stroke-width:0.06px;">t</text>
<text x="297.8" y="-123.2" transform="matrix(0.482029,0.876913,-0.874741,0.483225,0,0)" style="font-family:Verdana; font-size:13.9px; color:black; overflow:visible; fill:#009100; stroke-width:0.06px;">e</text>
<text x="283.2" y="-167.6" transform="matrix(0.344478,0.939801,-0.937474,0.345336,0,0)" style="font-family:Verdana; font-size:13.9px; color:black; overflow:visible; fill:#009100; stroke-width:0.06px;">s</text>
<text x="160.2" y="255" transform="scale(0.998761,1.00124)" style="font-family:Verdana; font-weight:bold; font-size:45.3px; color:black; overflow:visible; fill:black; stroke:black; stroke-width:0.03;">1</text>
</g>
</svg>
