<?xml version="1.0" encoding="UTF-8" standalone="no"?>
<!-- Copyright 2017 mathsisfun.com -->
<svg xmlns="http://www.w3.org/2000/svg" xmlns:xlink="http://www.w3.org/1999/xlink" width="650" height="216.4" version="1.1">
<defs>
<linearGradient id="id1">
<stop offset="0" style="stop-color:black; stop-opacity:1;"/>
<stop offset="0.305" style="stop-color:#ffff99; stop-opacity:1;"/>
<stop offset="0.666" style="stop-color:#ffff99; stop-opacity:1;"/>
<stop offset="1" style="stop-color:black; stop-opacity:1;"/>
</linearGradient>
<linearGradient id="id2" gradientTransform="matrix(0.092131,0,0,0.026639,282.973,-51.4857)" xlink:href="#id1" x1="-950.7" y1="764.5" x2="13.6" y2="764.5" gradientUnits="userSpaceOnUse"/>
<linearGradient id="id3" gradientTransform="matrix(0.348392,0,0,0.739554,564.179,590.483)" xlink:href="#id1" x1="-950.7" y1="764.5" x2="13.6" y2="764.5" gradientUnits="userSpaceOnUse"/>
<linearGradient id="id5" gradientTransform="matrix(0.214518,0,0,0.741146,-417.01,1625.2)" xlink:href="#id1" x1="-950.7" y1="764.5" x2="13.6" y2="764.5" gradientUnits="userSpaceOnUse"/>
</defs>
<g transform="translate(-195.222,37.3372)">
<rect x="195.4" y="-37.2" width="88.8" height="12.1" style="overflow:visible; fill:url(#id2); stroke:#2916ca; stroke-width:0.32;"/>
<g transform="matrix(0.074613,0,0,0.036633,211.227,-13.2044)">
<rect id="id4" x="233" y="987.8" width="335.9" height="336.1" style="overflow:visible; fill:url(#id3); stroke:#2916ca; stroke-width:2;"/>
<use xlink:href="#id4" x="0" y="0"/>
<use transform="translate(335.949)" xlink:href="#id4" x="0" y="0"/>
<use transform="translate(671.899)" xlink:href="#id4" x="0" y="0"/>
<use transform="translate(1007.85)" xlink:href="#id4" x="0" y="0"/>
<use transform="translate(1343.8)" xlink:href="#id4" x="0" y="0"/>
<use transform="translate(1679.75)" xlink:href="#id4" x="0" y="0"/>
<use transform="translate(2015.7)" xlink:href="#id4" x="0" y="0"/>
</g>
<g transform="matrix(0.048386,0,0,0.036633,308.736,9.10475)">
<rect id="id6" x="-620.9" y="2023.4" width="206.9" height="336.8" style="overflow:visible; fill:url(#id5); stroke:#2916ca; stroke-width:2.65;"/>
<use xlink:href="#id6" x="0" y="0"/>
<use transform="translate(206.856)" xlink:href="#id6" x="0" y="0"/>
<use transform="translate(413.713)" xlink:href="#id6" x="0" y="0"/>
<use transform="translate(620.569)" xlink:href="#id6" x="0" y="0"/>
<use transform="translate(827.426)" xlink:href="#id6" x="0" y="0"/>
<use transform="translate(1034.28)" xlink:href="#id6" x="0" y="0"/>
<use transform="translate(1241.14)" xlink:href="#id6" x="0" y="0"/>
<use transform="translate(1448)" xlink:href="#id6" x="0" y="0"/>
<use transform="translate(1654.85)" xlink:href="#id6" x="0" y="0"/>
<use transform="translate(1861.71)" xlink:href="#id6" x="0" y="0"/>
<use transform="translate(2068.56)" xlink:href="#id6" x="0" y="0"/>
<use transform="translate(2275.42)" xlink:href="#id6" x="0" y="0"/>
<use transform="translate(2482.28)" xlink:href="#id6" x="0" y="0"/>
<use transform="translate(2689.13)" xlink:href="#id6" x="0" y="0"/>
<use transform="translate(2895.99)" xlink:href="#id6" x="0" y="0"/>
<use transform="translate(3102.85)" xlink:href="#id6" x="0" y="0"/>
<use transform="translate(3309.7)" xlink:href="#id6" x="0" y="0"/>
<use transform="translate(3516.56)" xlink:href="#id6" x="0" y="0"/>
<use transform="translate(3723.42)" xlink:href="#id6" x="0" y="0"/>
<use transform="translate(3930.27)" xlink:href="#id6" x="0" y="0"/>
<use transform="translate(4137.13)" xlink:href="#id6" x="0" y="0"/>
<use transform="translate(4343.99)" xlink:href="#id6" x="0" y="0"/>
<use transform="translate(4550.84)" xlink:href="#id6" x="0" y="0"/>
<use transform="translate(4757.7)" xlink:href="#id6" x="0" y="0"/>
<use transform="translate(4964.56)" xlink:href="#id6" x="0" y="0"/>
<use transform="translate(5171.41)" xlink:href="#id6" x="0" y="0"/>
<use transform="translate(5378.27)" xlink:href="#id6" x="0" y="0"/>
<use transform="translate(5585.12)" xlink:href="#id6" x="0" y="0"/>
<use transform="translate(5791.98)" xlink:href="#id6" x="0" y="0"/>
<use transform="translate(5998.84)" xlink:href="#id6" x="0" y="0"/>
</g>
<g transform="matrix(0.031451,0,0,0.036633,428.038,29.2601)">
<use id="id7" transform="matrix(0.188606,0,0,1,-858.883,1094.73)" xlink:href="#id6" x="0" y="0"/>
<use xlink:href="#id7" x="0" y="0"/>
<use transform="translate(39.0145)" xlink:href="#id7" x="0" y="0"/>
<use transform="translate(78.0289)" xlink:href="#id7" x="0" y="0"/>
<use transform="translate(117.043)" xlink:href="#id7" x="0" y="0"/>
<use transform="translate(156.058)" xlink:href="#id7" x="0" y="0"/>
<use transform="translate(195.072)" xlink:href="#id7" x="0" y="0"/>
<use transform="translate(234.087)" xlink:href="#id7" x="0" y="0"/>
<use transform="translate(273.101)" xlink:href="#id7" x="0" y="0"/>
<use transform="translate(312.116)" xlink:href="#id7" x="0" y="0"/>
<use transform="translate(351.13)" xlink:href="#id7" x="0" y="0"/>
<use transform="translate(390.145)" xlink:href="#id7" x="0" y="0"/>
<use transform="translate(429.159)" xlink:href="#id7" x="0" y="0"/>
<use transform="translate(468.174)" xlink:href="#id7" x="0" y="0"/>
<use transform="translate(507.188)" xlink:href="#id7" x="0" y="0"/>
<use transform="translate(546.202)" xlink:href="#id7" x="0" y="0"/>
<use transform="translate(585.217)" xlink:href="#id7" x="0" y="0"/>
<use transform="translate(624.231)" xlink:href="#id7" x="0" y="0"/>
<use transform="translate(663.246)" xlink:href="#id7" x="0" y="0"/>
<use transform="translate(702.26)" xlink:href="#id7" x="0" y="0"/>
<use transform="translate(741.275)" xlink:href="#id7" x="0" y="0"/>
<use transform="translate(780.289)" xlink:href="#id7" x="0" y="0"/>
<use transform="translate(819.304)" xlink:href="#id7" x="0" y="0"/>
<use transform="translate(858.318)" xlink:href="#id7" x="0" y="0"/>
<use transform="translate(897.333)" xlink:href="#id7" x="0" y="0"/>
<use transform="translate(936.347)" xlink:href="#id7" x="0" y="0"/>
<use transform="translate(975.362)" xlink:href="#id7" x="0" y="0"/>
<use transform="translate(1014.38)" xlink:href="#id7" x="0" y="0"/>
<use transform="translate(1053.39)" xlink:href="#id7" x="0" y="0"/>
<use transform="translate(1092.4)" xlink:href="#id7" x="0" y="0"/>
<use transform="translate(1131.42)" xlink:href="#id7" x="0" y="0"/>
<use transform="translate(1170.43)" xlink:href="#id7" x="0" y="0"/>
<use transform="translate(1209.45)" xlink:href="#id7" x="0" y="0"/>
<use transform="translate(1248.46)" xlink:href="#id7" x="0" y="0"/>
<use transform="translate(1287.48)" xlink:href="#id7" x="0" y="0"/>
<use transform="translate(1326.49)" xlink:href="#id7" x="0" y="0"/>
<use transform="translate(1365.51)" xlink:href="#id7" x="0" y="0"/>
<use transform="translate(1404.52)" xlink:href="#id7" x="0" y="0"/>
<use transform="translate(1443.54)" xlink:href="#id7" x="0" y="0"/>
<use transform="translate(1482.55)" xlink:href="#id7" x="0" y="0"/>
<use transform="translate(1521.56)" xlink:href="#id7" x="0" y="0"/>
<use transform="translate(1560.58)" xlink:href="#id7" x="0" y="0"/>
<use transform="translate(1599.59)" xlink:href="#id7" x="0" y="0"/>
<use transform="translate(1638.61)" xlink:href="#id7" x="0" y="0"/>
<use transform="translate(1677.62)" xlink:href="#id7" x="0" y="0"/>
<use transform="translate(1716.64)" xlink:href="#id7" x="0" y="0"/>
<use transform="translate(1755.65)" xlink:href="#id7" x="0" y="0"/>
<use transform="translate(1794.67)" xlink:href="#id7" x="0" y="0"/>
<use transform="translate(1833.68)" xlink:href="#id7" x="0" y="0"/>
<use transform="translate(1872.69)" xlink:href="#id7" x="0" y="0"/>
<use transform="translate(1911.71)" xlink:href="#id7" x="0" y="0"/>
<use transform="translate(1950.72)" xlink:href="#id7" x="0" y="0"/>
<use transform="translate(1989.74)" xlink:href="#id7" x="0" y="0"/>
<use transform="translate(2028.75)" xlink:href="#id7" x="0" y="0"/>
<use transform="translate(2067.77)" xlink:href="#id7" x="0" y="0"/>
<use transform="translate(2106.78)" xlink:href="#id7" x="0" y="0"/>
<use transform="translate(2145.8)" xlink:href="#id7" x="0" y="0"/>
<use transform="translate(2184.81)" xlink:href="#id7" x="0" y="0"/>
<use transform="translate(2223.82)" xlink:href="#id7" x="0" y="0"/>
<use transform="translate(2262.84)" xlink:href="#id7" x="0" y="0"/>
<use transform="translate(2301.85)" xlink:href="#id7" x="0" y="0"/>
<use transform="translate(2340.87)" xlink:href="#id7" x="0" y="0"/>
<use transform="translate(2379.88)" xlink:href="#id7" x="0" y="0"/>
<use transform="translate(2418.9)" xlink:href="#id7" x="0" y="0"/>
<use transform="translate(2457.91)" xlink:href="#id7" x="0" y="0"/>
<use transform="translate(2496.93)" xlink:href="#id7" x="0" y="0"/>
<use transform="translate(2535.94)" xlink:href="#id7" x="0" y="0"/>
<use transform="translate(2574.95)" xlink:href="#id7" x="0" y="0"/>
<use transform="translate(2613.97)" xlink:href="#id7" x="0" y="0"/>
<use transform="translate(2652.98)" xlink:href="#id7" x="0" y="0"/>
<use transform="translate(2692)" xlink:href="#id7" x="0" y="0"/>
<use transform="translate(2731.01)" xlink:href="#id7" x="0" y="0"/>
<use transform="translate(2770.03)" xlink:href="#id7" x="0" y="0"/>
<use transform="translate(2809.04)" xlink:href="#id7" x="0" y="0"/>
<use transform="translate(2848.06)" xlink:href="#id7" x="0" y="0"/>
<use transform="translate(2887.07)" xlink:href="#id7" x="0" y="0"/>
<use transform="translate(2926.08)" xlink:href="#id7" x="0" y="0"/>
<use transform="translate(2965.1)" xlink:href="#id7" x="0" y="0"/>
<use transform="translate(3004.11)" xlink:href="#id7" x="0" y="0"/>
<use transform="translate(3043.13)" xlink:href="#id7" x="0" y="0"/>
<use transform="translate(3082.14)" xlink:href="#id7" x="0" y="0"/>
<use transform="translate(3121.16)" xlink:href="#id7" x="0" y="0"/>
<use transform="translate(3160.17)" xlink:href="#id7" x="0" y="0"/>
<use transform="translate(3199.19)" xlink:href="#id7" x="0" y="0"/>
<use transform="translate(3238.2)" xlink:href="#id7" x="0" y="0"/>
<use transform="translate(3277.21)" xlink:href="#id7" x="0" y="0"/>
<use transform="translate(3316.23)" xlink:href="#id7" x="0" y="0"/>
<use transform="translate(3355.24)" xlink:href="#id7" x="0" y="0"/>
<use transform="translate(3394.26)" xlink:href="#id7" x="0" y="0"/>
<use transform="translate(3433.27)" xlink:href="#id7" x="0" y="0"/>
<use transform="translate(3472.29)" xlink:href="#id7" x="0" y="0"/>
<use transform="translate(3511.3)" xlink:href="#id7" x="0" y="0"/>
<use transform="translate(3550.32)" xlink:href="#id7" x="0" y="0"/>
<use transform="translate(3589.33)" xlink:href="#id7" x="0" y="0"/>
<use transform="translate(3628.34)" xlink:href="#id7" x="0" y="0"/>
<use transform="translate(3667.36)" xlink:href="#id7" x="0" y="0"/>
<use transform="translate(3706.37)" xlink:href="#id7" x="0" y="0"/>
<use transform="translate(3745.39)" xlink:href="#id7" x="0" y="0"/>
<use transform="translate(3784.4)" xlink:href="#id7" x="0" y="0"/>
<use transform="translate(3823.42)" xlink:href="#id7" x="0" y="0"/>
<use transform="translate(3862.43)" xlink:href="#id7" x="0" y="0"/>
<use transform="translate(3901.45)" xlink:href="#id7" x="0" y="0"/>
<use transform="translate(3940.46)" xlink:href="#id7" x="0" y="0"/>
<use transform="translate(3979.48)" xlink:href="#id7" x="0" y="0"/>
<use transform="translate(4018.49)" xlink:href="#id7" x="0" y="0"/>
<use transform="translate(4057.5)" xlink:href="#id7" x="0" y="0"/>
<use transform="translate(4096.52)" xlink:href="#id7" x="0" y="0"/>
<use transform="translate(4135.53)" xlink:href="#id7" x="0" y="0"/>
<use transform="translate(4174.55)" xlink:href="#id7" x="0" y="0"/>
<use transform="translate(4213.56)" xlink:href="#id7" x="0" y="0"/>
<use transform="translate(4252.58)" xlink:href="#id7" x="0" y="0"/>
<use transform="translate(4291.59)" xlink:href="#id7" x="0" y="0"/>
<use transform="translate(4330.61)" xlink:href="#id7" x="0" y="0"/>
<use transform="translate(4369.62)" xlink:href="#id7" x="0" y="0"/>
<use transform="translate(4408.63)" xlink:href="#id7" x="0" y="0"/>
<use transform="translate(4447.65)" xlink:href="#id7" x="0" y="0"/>
<use transform="translate(4486.66)" xlink:href="#id7" x="0" y="0"/>
<use transform="translate(4525.68)" xlink:href="#id7" x="0" y="0"/>
<use transform="translate(4564.69)" xlink:href="#id7" x="0" y="0"/>
<use transform="translate(4603.71)" xlink:href="#id7" x="0" y="0"/>
<use transform="translate(4642.72)" xlink:href="#id7" x="0" y="0"/>
<use transform="translate(4681.74)" xlink:href="#id7" x="0" y="0"/>
<use transform="translate(4720.75)" xlink:href="#id7" x="0" y="0"/>
<use transform="translate(4759.76)" xlink:href="#id7" x="0" y="0"/>
<use transform="translate(4798.78)" xlink:href="#id7" x="0" y="0"/>
<use transform="translate(4837.79)" xlink:href="#id7" x="0" y="0"/>
<use transform="translate(4876.81)" xlink:href="#id7" x="0" y="0"/>
<use transform="translate(4915.82)" xlink:href="#id7" x="0" y="0"/>
<use transform="translate(4954.84)" xlink:href="#id7" x="0" y="0"/>
<use transform="translate(4993.85)" xlink:href="#id7" x="0" y="0"/>
<use transform="translate(5032.87)" xlink:href="#id7" x="0" y="0"/>
<use transform="translate(5071.88)" xlink:href="#id7" x="0" y="0"/>
<use transform="translate(5110.89)" xlink:href="#id7" x="0" y="0"/>
<use transform="translate(5149.91)" xlink:href="#id7" x="0" y="0"/>
<use transform="translate(5188.92)" xlink:href="#id7" x="0" y="0"/>
<use transform="translate(5227.94)" xlink:href="#id7" x="0" y="0"/>
<use transform="translate(5266.95)" xlink:href="#id7" x="0" y="0"/>
<use transform="translate(5305.97)" xlink:href="#id7" x="0" y="0"/>
<use transform="translate(5344.98)" xlink:href="#id7" x="0" y="0"/>
<use transform="translate(5384)" xlink:href="#id7" x="0" y="0"/>
<use transform="translate(5423.01)" xlink:href="#id7" x="0" y="0"/>
<use transform="translate(5462.02)" xlink:href="#id7" x="0" y="0"/>
<use transform="translate(5501.04)" xlink:href="#id7" x="0" y="0"/>
<use transform="translate(5540.05)" xlink:href="#id7" x="0" y="0"/>
<use transform="translate(5579.07)" xlink:href="#id7" x="0" y="0"/>
<use transform="translate(5618.08)" xlink:href="#id7" x="0" y="0"/>
<use transform="translate(5657.1)" xlink:href="#id7" x="0" y="0"/>
<use transform="translate(5696.11)" xlink:href="#id7" x="0" y="0"/>
<use transform="translate(5735.13)" xlink:href="#id7" x="0" y="0"/>
<use transform="translate(5774.14)" xlink:href="#id7" x="0" y="0"/>
<use transform="translate(5813.15)" xlink:href="#id7" x="0" y="0"/>
<use transform="translate(5852.17)" xlink:href="#id7" x="0" y="0"/>
<use transform="translate(5891.18)" xlink:href="#id7" x="0" y="0"/>
<use transform="translate(5930.2)" xlink:href="#id7" x="0" y="0"/>
<use transform="translate(5969.21)" xlink:href="#id7" x="0" y="0"/>
<use transform="translate(6008.23)" xlink:href="#id7" x="0" y="0"/>
<use transform="translate(6047.24)" xlink:href="#id7" x="0" y="0"/>
<use transform="translate(6086.26)" xlink:href="#id7" x="0" y="0"/>
<use transform="translate(6125.27)" xlink:href="#id7" x="0" y="0"/>
<use transform="translate(6164.28)" xlink:href="#id7" x="0" y="0"/>
<use transform="translate(6203.3)" xlink:href="#id7" x="0" y="0"/>
<use transform="translate(6242.31)" xlink:href="#id7" x="0" y="0"/>
<use transform="translate(6281.33)" xlink:href="#id7" x="0" y="0"/>
<use transform="translate(6320.34)" xlink:href="#id7" x="0" y="0"/>
<use transform="translate(6359.36)" xlink:href="#id7" x="0" y="0"/>
<use transform="translate(6398.37)" xlink:href="#id7" x="0" y="0"/>
<use transform="translate(6437.39)" xlink:href="#id7" x="0" y="0"/>
<use transform="translate(6476.4)" xlink:href="#id7" x="0" y="0"/>
<use transform="translate(6515.41)" xlink:href="#id7" x="0" y="0"/>
<use transform="translate(6554.43)" xlink:href="#id7" x="0" y="0"/>
<use transform="translate(6593.44)" xlink:href="#id7" x="0" y="0"/>
<use transform="translate(6632.46)" xlink:href="#id7" x="0" y="0"/>
<use transform="translate(6671.47)" xlink:href="#id7" x="0" y="0"/>
<use transform="translate(6710.49)" xlink:href="#id7" x="0" y="0"/>
<use transform="translate(6749.5)" xlink:href="#id7" x="0" y="0"/>
<use transform="translate(6788.52)" xlink:href="#id7" x="0" y="0"/>
<use transform="translate(6827.53)" xlink:href="#id7" x="0" y="0"/>
<use transform="translate(6866.55)" xlink:href="#id7" x="0" y="0"/>
<use transform="translate(6905.56)" xlink:href="#id7" x="0" y="0"/>
<use transform="translate(6944.57)" xlink:href="#id7" x="0" y="0"/>
<use transform="translate(6983.59)" xlink:href="#id7" x="0" y="0"/>
<use transform="translate(7022.6)" xlink:href="#id7" x="0" y="0"/>
<use transform="translate(7061.62)" xlink:href="#id7" x="0" y="0"/>
<use transform="translate(7100.63)" xlink:href="#id7" x="0" y="0"/>
<use transform="translate(7139.65)" xlink:href="#id7" x="0" y="0"/>
<use transform="translate(7178.66)" xlink:href="#id7" x="0" y="0"/>
<use transform="translate(7217.68)" xlink:href="#id7" x="0" y="0"/>
<use transform="translate(7256.69)" xlink:href="#id7" x="0" y="0"/>
<use transform="translate(7295.7)" xlink:href="#id7" x="0" y="0"/>
<use transform="translate(7334.72)" xlink:href="#id7" x="0" y="0"/>
<use transform="translate(7373.73)" xlink:href="#id7" x="0" y="0"/>
<use transform="translate(7412.75)" xlink:href="#id7" x="0" y="0"/>
<use transform="translate(7451.76)" xlink:href="#id7" x="0" y="0"/>
<use transform="translate(7490.78)" xlink:href="#id7" x="0" y="0"/>
<use transform="translate(7529.79)" xlink:href="#id7" x="0" y="0"/>
<use transform="translate(7568.81)" xlink:href="#id7" x="0" y="0"/>
<use transform="translate(7607.82)" xlink:href="#id7" x="0" y="0"/>
<use transform="translate(7646.83)" xlink:href="#id7" x="0" y="0"/>
<use transform="translate(7685.85)" xlink:href="#id7" x="0" y="0"/>
<use transform="translate(7724.86)" xlink:href="#id7" x="0" y="0"/>
<use transform="translate(7763.88)" xlink:href="#id7" x="0" y="0"/>
<use transform="translate(7802.89)" xlink:href="#id7" x="0" y="0"/>
<use transform="translate(7841.91)" xlink:href="#id7" x="0" y="0"/>
<use transform="translate(7880.92)" xlink:href="#id7" x="0" y="0"/>
<use transform="translate(7919.94)" xlink:href="#id7" x="0" y="0"/>
<use transform="translate(7958.95)" xlink:href="#id7" x="0" y="0"/>
<use transform="translate(7997.96)" xlink:href="#id7" x="0" y="0"/>
<use transform="translate(8036.98)" xlink:href="#id7" x="0" y="0"/>
<use transform="translate(8075.99)" xlink:href="#id7" x="0" y="0"/>
<use transform="translate(8115.01)" xlink:href="#id7" x="0" y="0"/>
<use transform="translate(8154.02)" xlink:href="#id7" x="0" y="0"/>
<use transform="translate(8193.04)" xlink:href="#id7" x="0" y="0"/>
<use transform="translate(8232.05)" xlink:href="#id7" x="0" y="0"/>
<use transform="translate(8271.07)" xlink:href="#id7" x="0" y="0"/>
<use transform="translate(8310.08)" xlink:href="#id7" x="0" y="0"/>
<use transform="translate(8349.09)" xlink:href="#id7" x="0" y="0"/>
<use transform="translate(8388.11)" xlink:href="#id7" x="0" y="0"/>
<use transform="translate(8427.12)" xlink:href="#id7" x="0" y="0"/>
<use transform="translate(8466.14)" xlink:href="#id7" x="0" y="0"/>
<use transform="translate(8505.15)" xlink:href="#id7" x="0" y="0"/>
<use transform="translate(8544.17)" xlink:href="#id7" x="0" y="0"/>
<use transform="translate(8583.18)" xlink:href="#id7" x="0" y="0"/>
<use transform="translate(8622.2)" xlink:href="#id7" x="0" y="0"/>
<use transform="translate(8661.21)" xlink:href="#id7" x="0" y="0"/>
<use transform="translate(8700.22)" xlink:href="#id7" x="0" y="0"/>
<use transform="translate(8739.24)" xlink:href="#id7" x="0" y="0"/>
<use transform="translate(8778.25)" xlink:href="#id7" x="0" y="0"/>
<use transform="translate(8817.27)" xlink:href="#id7" x="0" y="0"/>
<use transform="translate(8856.28)" xlink:href="#id7" x="0" y="0"/>
<use transform="translate(8895.3)" xlink:href="#id7" x="0" y="0"/>
<use transform="translate(8934.31)" xlink:href="#id7" x="0" y="0"/>
<use transform="translate(8973.33)" xlink:href="#id7" x="0" y="0"/>
<use transform="translate(9012.34)" xlink:href="#id7" x="0" y="0"/>
<use transform="translate(9051.35)" xlink:href="#id7" x="0" y="0"/>
<use transform="translate(9090.37)" xlink:href="#id7" x="0" y="0"/>
<use transform="translate(9129.38)" xlink:href="#id7" x="0" y="0"/>
<use transform="translate(9168.4)" xlink:href="#id7" x="0" y="0"/>
<use transform="translate(9207.41)" xlink:href="#id7" x="0" y="0"/>
<use transform="translate(9246.43)" xlink:href="#id7" x="0" y="0"/>
<use transform="translate(9285.44)" xlink:href="#id7" x="0" y="0"/>
<use transform="translate(9324.46)" xlink:href="#id7" x="0" y="0"/>
<use transform="translate(9363.47)" xlink:href="#id7" x="0" y="0"/>
<use transform="translate(9402.48)" xlink:href="#id7" x="0" y="0"/>
<use transform="translate(9441.5)" xlink:href="#id7" x="0" y="0"/>
<use transform="translate(9480.51)" xlink:href="#id7" x="0" y="0"/>
<use transform="translate(9519.53)" xlink:href="#id7" x="0" y="0"/>
<use transform="translate(9558.54)" xlink:href="#id7" x="0" y="0"/>
<use transform="translate(9597.56)" xlink:href="#id7" x="0" y="0"/>
<use transform="translate(9636.57)" xlink:href="#id7" x="0" y="0"/>
<use transform="translate(9675.59)" xlink:href="#id7" x="0" y="0"/>
<use transform="translate(9714.6)" xlink:href="#id7" x="0" y="0"/>
<use transform="translate(9753.62)" xlink:href="#id7" x="0" y="0"/>
<use transform="translate(9792.63)" xlink:href="#id7" x="0" y="0"/>
<use transform="translate(9831.64)" xlink:href="#id7" x="0" y="0"/>
<use transform="translate(9870.66)" xlink:href="#id7" x="0" y="0"/>
<use transform="translate(9909.67)" xlink:href="#id7" x="0" y="0"/>
<use transform="translate(9948.69)" xlink:href="#id7" x="0" y="0"/>
<use transform="translate(9987.7)" xlink:href="#id7" x="0" y="0"/>
<use transform="translate(10026.7)" xlink:href="#id7" x="0" y="0"/>
<use transform="translate(10065.7)" xlink:href="#id7" x="0" y="0"/>
<use transform="translate(10104.7)" xlink:href="#id7" x="0" y="0"/>
<use transform="translate(10143.8)" xlink:href="#id7" x="0" y="0"/>
<use transform="translate(10182.8)" xlink:href="#id7" x="0" y="0"/>
<use transform="translate(10221.8)" xlink:href="#id7" x="0" y="0"/>
<use transform="translate(10260.8)" xlink:href="#id7" x="0" y="0"/>
<use transform="translate(10299.8)" xlink:href="#id7" x="0" y="0"/>
<use transform="translate(10338.8)" xlink:href="#id7" x="0" y="0"/>
<use transform="translate(10377.8)" xlink:href="#id7" x="0" y="0"/>
<use transform="translate(10416.9)" xlink:href="#id7" x="0" y="0"/>
<use transform="translate(10455.9)" xlink:href="#id7" x="0" y="0"/>
<use transform="translate(10494.9)" xlink:href="#id7" x="0" y="0"/>
<use transform="translate(10533.9)" xlink:href="#id7" x="0" y="0"/>
<use transform="translate(10572.9)" xlink:href="#id7" x="0" y="0"/>
<use transform="translate(10611.9)" xlink:href="#id7" x="0" y="0"/>
<use transform="translate(10650.9)" xlink:href="#id7" x="0" y="0"/>
<use transform="translate(10690)" xlink:href="#id7" x="0" y="0"/>
<use transform="translate(10729)" xlink:href="#id7" x="0" y="0"/>
<use transform="translate(10768)" xlink:href="#id7" x="0" y="0"/>
<use transform="translate(10807)" xlink:href="#id7" x="0" y="0"/>
<use transform="translate(10846)" xlink:href="#id7" x="0" y="0"/>
<use transform="translate(10885)" xlink:href="#id7" x="0" y="0"/>
<use transform="translate(10924)" xlink:href="#id7" x="0" y="0"/>
<use transform="translate(10963.1)" xlink:href="#id7" x="0" y="0"/>
<use transform="translate(11002.1)" xlink:href="#id7" x="0" y="0"/>
<use transform="translate(11041.1)" xlink:href="#id7" x="0" y="0"/>
<use transform="translate(11080.1)" xlink:href="#id7" x="0" y="0"/>
<use transform="translate(11119.1)" xlink:href="#id7" x="0" y="0"/>
<use transform="translate(11158.1)" xlink:href="#id7" x="0" y="0"/>
<use transform="translate(11197.1)" xlink:href="#id7" x="0" y="0"/>
<use transform="translate(11236.2)" xlink:href="#id7" x="0" y="0"/>
<use transform="translate(11275.2)" xlink:href="#id7" x="0" y="0"/>
<use transform="translate(11314.2)" xlink:href="#id7" x="0" y="0"/>
<use transform="translate(11353.2)" xlink:href="#id7" x="0" y="0"/>
<use transform="translate(11392.2)" xlink:href="#id7" x="0" y="0"/>
<use transform="translate(11431.2)" xlink:href="#id7" x="0" y="0"/>
<use transform="translate(11470.3)" xlink:href="#id7" x="0" y="0"/>
<use transform="translate(11509.3)" xlink:href="#id7" x="0" y="0"/>
<use transform="translate(11548.3)" xlink:href="#id7" x="0" y="0"/>
<use transform="translate(11587.3)" xlink:href="#id7" x="0" y="0"/>
<use transform="translate(11626.3)" xlink:href="#id7" x="0" y="0"/>
<use transform="translate(11665.3)" xlink:href="#id7" x="0" y="0"/>
<use transform="translate(11704.3)" xlink:href="#id7" x="0" y="0"/>
<use transform="translate(11743.4)" xlink:href="#id7" x="0" y="0"/>
<use transform="translate(11782.4)" xlink:href="#id7" x="0" y="0"/>
<use transform="translate(11821.4)" xlink:href="#id7" x="0" y="0"/>
<use transform="translate(11860.4)" xlink:href="#id7" x="0" y="0"/>
<use transform="translate(11899.4)" xlink:href="#id7" x="0" y="0"/>
<use transform="translate(11938.4)" xlink:href="#id7" x="0" y="0"/>
<use transform="translate(11977.4)" xlink:href="#id7" x="0" y="0"/>
<use transform="translate(12016.5)" xlink:href="#id7" x="0" y="0"/>
<use transform="translate(12055.5)" xlink:href="#id7" x="0" y="0"/>
<use transform="translate(12094.5)" xlink:href="#id7" x="0" y="0"/>
<use transform="translate(12133.5)" xlink:href="#id7" x="0" y="0"/>
<use transform="translate(12172.5)" xlink:href="#id7" x="0" y="0"/>
<use transform="translate(12211.5)" xlink:href="#id7" x="0" y="0"/>
<use transform="translate(12250.5)" xlink:href="#id7" x="0" y="0"/>
<use transform="translate(12289.6)" xlink:href="#id7" x="0" y="0"/>
<use transform="translate(12328.6)" xlink:href="#id7" x="0" y="0"/>
<use transform="translate(12367.6)" xlink:href="#id7" x="0" y="0"/>
<use transform="translate(12406.6)" xlink:href="#id7" x="0" y="0"/>
<use transform="translate(12445.6)" xlink:href="#id7" x="0" y="0"/>
<use transform="translate(12484.6)" xlink:href="#id7" x="0" y="0"/>
<use transform="translate(12523.6)" xlink:href="#id7" x="0" y="0"/>
<use transform="translate(12562.7)" xlink:href="#id7" x="0" y="0"/>
<use transform="translate(12601.7)" xlink:href="#id7" x="0" y="0"/>
<use transform="translate(12640.7)" xlink:href="#id7" x="0" y="0"/>
<use transform="translate(12679.7)" xlink:href="#id7" x="0" y="0"/>
<use transform="translate(12718.7)" xlink:href="#id7" x="0" y="0"/>
<use transform="translate(12757.7)" xlink:href="#id7" x="0" y="0"/>
<use transform="translate(12796.7)" xlink:href="#id7" x="0" y="0"/>
<use transform="translate(12835.8)" xlink:href="#id7" x="0" y="0"/>
<use transform="translate(12874.8)" xlink:href="#id7" x="0" y="0"/>
<use transform="translate(12913.8)" xlink:href="#id7" x="0" y="0"/>
<use transform="translate(12952.8)" xlink:href="#id7" x="0" y="0"/>
<use transform="translate(12991.8)" xlink:href="#id7" x="0" y="0"/>
<use transform="translate(13030.8)" xlink:href="#id7" x="0" y="0"/>
<use transform="translate(13069.8)" xlink:href="#id7" x="0" y="0"/>
<use transform="translate(13108.9)" xlink:href="#id7" x="0" y="0"/>
<use transform="translate(13147.9)" xlink:href="#id7" x="0" y="0"/>
<use transform="translate(13186.9)" xlink:href="#id7" x="0" y="0"/>
<use transform="translate(13225.9)" xlink:href="#id7" x="0" y="0"/>
<use transform="translate(13264.9)" xlink:href="#id7" x="0" y="0"/>
<use transform="translate(13303.9)" xlink:href="#id7" x="0" y="0"/>
<use transform="translate(13342.9)" xlink:href="#id7" x="0" y="0"/>
<use transform="translate(13382)" xlink:href="#id7" x="0" y="0"/>
<use transform="translate(13421)" xlink:href="#id7" x="0" y="0"/>
<use transform="translate(13460)" xlink:href="#id7" x="0" y="0"/>
<use transform="translate(13499)" xlink:href="#id7" x="0" y="0"/>
<use transform="translate(13538)" xlink:href="#id7" x="0" y="0"/>
<use transform="translate(13577)" xlink:href="#id7" x="0" y="0"/>
<use transform="translate(13616)" xlink:href="#id7" x="0" y="0"/>
<use transform="translate(13655.1)" xlink:href="#id7" x="0" y="0"/>
<use transform="translate(13694.1)" xlink:href="#id7" x="0" y="0"/>
<use transform="translate(13733.1)" xlink:href="#id7" x="0" y="0"/>
<use transform="translate(13772.1)" xlink:href="#id7" x="0" y="0"/>
<use transform="translate(13811.1)" xlink:href="#id7" x="0" y="0"/>
<use transform="translate(13850.1)" xlink:href="#id7" x="0" y="0"/>
<use transform="translate(13889.1)" xlink:href="#id7" x="0" y="0"/>
<use transform="translate(13928.2)" xlink:href="#id7" x="0" y="0"/>
<use transform="translate(13967.2)" xlink:href="#id7" x="0" y="0"/>
<use transform="translate(14006.2)" xlink:href="#id7" x="0" y="0"/>
<use transform="translate(14045.2)" xlink:href="#id7" x="0" y="0"/>
<use transform="translate(14084.2)" xlink:href="#id7" x="0" y="0"/>
<use transform="translate(14123.2)" xlink:href="#id7" x="0" y="0"/>
<use transform="translate(14162.2)" xlink:href="#id7" x="0" y="0"/>
<use transform="translate(14201.3)" xlink:href="#id7" x="0" y="0"/>
</g>
<path style="overflow:visible; fill:#121513; stroke:#121513; stroke-width:0.37;" d="m 230.2,38 46.2,41.7"/>
<path style="overflow:visible; fill:#121513; stroke:#121513; stroke-width:0.37;" d="m 196.2,-22 31,41.1"/>
<path style="overflow:visible; fill:#121513; stroke:#121513; stroke-width:0.37;" d="M 280,97.7 395.1,141.6"/>
<path style="overflow:visible; fill:#121513; stroke:#121513; stroke-width:0.37;" d="M 283.8,-22.5 255.1,19.7"/>
<path style="overflow:visible; fill:#121513; stroke:#121513; stroke-width:0.37;" d="M 402.4,37.1 350.1,81.6"/>
<path style="overflow:visible; fill:#121513; stroke:#121513; stroke-width:0.36;" d="M 436.2,141.6 578.4,97.5"/>
<text x="221.5" y="-7.5" style="font-family:'Comic Sans MS'; font-size:15.8px; overflow:visible; fill:#0169c9; stroke-width:28.03;">1 Day</text>
<text x="261.4" y="55.4" style="font-family:'Comic Sans MS'; font-size:15.8px; overflow:visible; fill:#0169c9; stroke-width:28.03;">1 Week = 7 Days </text>
<text x="339.5" y="114.5" style="font-family:'Comic Sans MS'; font-size:15.8px; overflow:visible; fill:#0169c9; stroke-width:28.03;">1 Month (about 30 Days)</text>
<text x="571.5" y="175.6" style="font-family:'Comic Sans MS'; font-size:15.8px; overflow:visible; fill:#0169c9; stroke-width:28.03;">1 Year (365 or 366 Days)</text>
</g>
</svg>
