<?xml version="1.0" encoding="UTF-8" standalone="no"?>
<!-- Copyright 2021 mathsisfun.com -->
<svg xmlns:sodipodi="http://sodipodi.sourceforge.net/DTD/sodipodi-0.dtd" xmlns="http://www.w3.org/2000/svg" width="326.9" height="161.3" version="1.1" style="font-family:'Trebuchet MS'; font-size:15px; stroke-width:1;">
<defs>
	<marker id="id9" style="overflow:visible;" orient="auto">
		<path transform="matrix(-0.4,0,0,-0.4,-4,0)" style="fill:#0084c8; stroke:#0084c8; stroke-width:1pt;" d="M 0,0 5,-5 -12.5,0 5,5 Z"/>
	</marker>
	<marker id="id8" style="overflow:visible;" orient="auto">
		<path transform="matrix(-0.4,0,0,-0.4,-4,0)" style="fill:#0084c8; stroke:#0084c8; stroke-width:1pt;" d="M 0,0 5,-5 -12.5,0 5,5 Z"/>
	</marker>
	<marker id="id7" style="overflow:visible;" orient="auto">
		<path transform="matrix(-0.4,0,0,-0.4,-4,0)" style="fill:#0084c8; stroke:#0084c8; stroke-width:1pt;" d="M 0,0 5,-5 -12.5,0 5,5 Z"/>
	</marker>
	<marker id="id6" style="overflow:visible;" orient="auto">
		<path transform="matrix(0.8,0,0,0.8,10,0)" style="fill:#005c94; stroke:#005c94; stroke-width:1pt;" d="M 0,0 5,-5 -12.5,0 5,5 Z"/>
	</marker>
	<marker id="id5" style="overflow:visible;" orient="auto">
		<path transform="matrix(0.8,0,0,0.8,10,0)" style="fill:#005c94; stroke:#005c94; stroke-width:1pt;" d="M 0,0 5,-5 -12.5,0 5,5 Z"/>
	</marker>
	<marker id="id4" style="overflow:visible;" orient="auto">
		<path transform="matrix(0.8,0,0,0.8,10,0)" style="fill:#005c94; stroke:#005c94; stroke-width:1pt;" d="M 0,0 5,-5 -12.5,0 5,5 Z"/>
	</marker>
	<marker id="id3" style="overflow:visible;" orient="auto">
		<path transform="matrix(0.8,0,0,0.8,10,0)" style="fill:#005c94; stroke:#005c94; stroke-width:1pt;" d="M 0,0 5,-5 -12.5,0 5,5 Z"/>
	</marker>
	<marker id="id2" style="overflow:visible;" orient="auto">
		<path transform="matrix(0.8,0,0,0.8,10,0)" style="fill:#005c94; stroke:#005c94; stroke-width:1pt;" d="M 0,0 5,-5 -12.5,0 5,5 Z"/>
	</marker>
	<marker id="id1" style="overflow:visible;" orient="auto">
		<path transform="matrix(0.8,0,0,0.8,10,0)" style="fill:#005c94; stroke:#005c94; stroke-width:1pt;" d="M 0,0 5,-5 -12.5,0 5,5 Z"/>
	</marker>
</defs>
<g transform="matrix(0.5028,0,0,0.5028,670.949,-147.881)">
	<text x="0" y="15" style="fill:black;"/> &#160; &#160; &#160; &#160; &#160; &#160; &#160; &#160;
	<text x="7.8" y="15" style="fill:black;"/> &#160; &#160; &#160; &#160; &#160; &#160;

</g>
<g transform="matrix(0.5028,0,0,0.5028,602.649,-60.6813)">
	<text x="277.6" y="14.3" style="fill:black;"/> &#160; &#160; &#160; &#160; &#160; &#160; &#160; &#160;
	<text x="286.5" y="14.3" style="fill:black;"/> &#160; &#160; &#160; &#160; &#160; &#160;

</g>
<text x="192.2" y="287.8" style="font-weight:bold; font-size:28.2px; fill:black;"/> &#160; &#160; &#160; &#160; &#160;

<path style="marker-start:url(#id1); fill:none; stroke:#005c94; stroke-width:0.7;" d="m 5.6,17 v 76.4"/>
<text x="-0.3" y="12.9" transform="scale(0.996801,1.00321)" style="font-weight:bold; font-size:18.7px; fill:#204a87;">N</text>
<text x="52.9" y="69.8" style="font-size:12.1px; fill:#0084c8;">o</text>
<text x="26.1" y="79.2" style="font-family:Arial; font-size:16.1px; fill:#0084c8;">026</text>
<text x="132.4" y="12.9" transform="scale(0.996801,1.00321)" style="font-weight:bold; font-size:18.7px; fill:#204a87;">N</text>
<path style="marker-start:url(#id2); fill:none; stroke:#005c94; stroke-width:0.7;" d="m 300,17.8 v 76.4"/>
<text x="294.2" y="12.9" transform="scale(0.996801,1.00321)" style="font-weight:bold; font-size:18.7px; fill:#204a87;">N</text>
<text x="192.2" y="88.9" style="font-size:12.1px; fill:#0084c8;">o</text>
<text x="164.9" y="98.3" style="font-family:Arial; font-size:16.1px; fill:#0084c8;">147</text>
<text x="320.3" y="124.3" style="font-size:12.1px; fill:#0084c8;">o</text>
<text x="278.9" y="134.4" style="font-family:Arial; font-size:16.1px; fill:#0084c8;">243.4</text>
<path style="marker-start:url(#id3); fill:none; stroke:#005c94; stroke-width:0.7;" d="M 231.9,125.2 301,92.5"/>
<path style="marker-start:url(#id4); fill:none; stroke:#005c94; stroke-width:0.7;" d="M 39.8,26.1 5.2,94.2"/>
<path style="marker-start:url(#id5); fill:none; stroke:#005c94; stroke-width:0.7;" d="m 138.5,17.8 v 76.4"/>
<path style="marker-start:url(#id6); fill:none; stroke:#005c94; stroke-width:0.7;" d="M 172.5,160.1 137.7,92.2"/>
<path style="color:black; marker-end:url(#id7); fill:none; stroke:#0084c8; stroke-width:1.3;" d="m 300,71 a 23.2,23.2 0 0 1 22.9,19.5 23.2,23.2 0 0 1 -15.6,25.7 23.2,23.2 0 0 1 -27.8,-11.4"/>
<path style="color:black; marker-end:url(#id8); fill:none; stroke:#0084c8; stroke-width:1.3;" d="m 138.5,71 a 23.2,23.2 0 0 1 22.3,17.1 23.2,23.2 0 0 1 -10.6,26"/>
<path style="color:black; marker-end:url(#id9); fill:none; stroke:#0084c8; stroke-width:1.3;" d="m 5.2,70.2 a 23.2,23.2 0 0 1 10,2.3"/>
<circle cx="300.1" cy="93.3" r="1.488" style="color:black; fill:#19aeff;"/>
<circle cx="138.5" cy="93.3" r="1.488" style="color:black; fill:#19aeff;"/>
<circle cx="5.7" cy="93" r="1.488" style="fill:#19aeff;"/>
</svg>