<?xml version="1.0" encoding="UTF-8" standalone="no"?>
<!-- Copyright 2017 mathsisfun.com -->
<svg xmlns="http://www.w3.org/2000/svg" width="498.7" height="78.5" version="1.1">
<defs/>
<g transform="translate(1882.03,1892.29)">
<text x="-1882.9" y="-1879.8" style="font-family:'Comic Sans MS'; font-size:16px; overflow:visible; fill:#fd3301; stroke-width:0.15;">Monday, Tuesday, Wednesday, Thursday, Friday, Saturday, Sunday</text>
<path style="overflow:visible; fill:none; stroke:#0197fd; stroke-width:2.66;" d="m -1877.1,-1866 c 15.8,16.4 55.2,5.9 106.3,6.7 51.1,0.8 68.6,6.5 68.8,19"/>
<path style="overflow:visible; fill:none; stroke:#0197fd; stroke-width:2.66;" d="m -1527.3,-1866 c -15.8,16.4 -55.2,5.9 -106.3,6.7 -51.1,0.8 -68.6,6.5 -68.8,19"/>
<path style="overflow:visible; fill:none; stroke:#fdca01; stroke-width:2.63;" d="m -1512.6,-1866.5 c 5.8,16.9 20.2,6.1 38.9,6.9 18.7,0.8 25.1,6.7 25.2,19.6"/>
<path style="overflow:visible; fill:none; stroke:#fdca01; stroke-width:2.63;" d="m -1384.6,-1866.5 c -5.8,16.9 -20.2,6.1 -38.9,6.9 -18.7,0.8 -25.1,6.7 -25.2,19.6"/>
<text x="-1754.8" y="-1819.8" style="font-family:'Comic Sans MS'; font-size:21.1px; font-style:italic; overflow:visible; fill:#0197fd; stroke-width:0.15;">Weekdays</text>
<text x="-1496.7" y="-1819.8" style="font-family:'Comic Sans MS'; font-size:21.1px; font-style:italic; overflow:visible; fill:#fdca01; stroke-width:0.15;">Weekend</text>
</g>
</svg>
