<?xml version="1.0" encoding="UTF-8" standalone="no"?>
<!-- Copyright 2017 mathsisfun.com -->
<svg xmlns="http://www.w3.org/2000/svg" width="347.5" height="130.2" version="1.1">
<defs>
</defs>
<g transform="translate(3057.28,-4596.74)">
<path style="fill:#aae2ff;" d="m -2772.3,4669 c 0,32 -31.4,57.9 -70.3,57.9 -38.8,0 -70.2,-25.9 -70.2,-57.9 0,-32 31.4,-57.9 70.2,-57.9 38.9,0 70.3,25.9 70.3,57.9 z"/>
<path style="fill:#fef9ce;" d="m -2916.7,4669 c 0,32 -31.4,57.9 -70.3,57.9 -38.8,0 -70.2,-25.9 -70.2,-57.9 0,-31.9 31.4,-57.8 70.2,-57.8 38.9,0 70.3,25.9 70.3,57.8 z"/>
<rect x="-3100" y="2947.4" width="955" height="275"/>
<text x="-3043.1" y="4670.7" style="font-family:'Comic Sans MS'; font-size:15.2px; color:black; overflow:visible; fill:black; stroke-width:0.13px;">Alex</text>
<text x="-2974.8" y="4671" style="font-family:'Comic Sans MS'; font-size:15.2px; color:black; overflow:visible; fill:black; stroke-width:0.13px;">Bank</text>
<g transform="matrix(0.13,0,0,0.13,-2911.61,4456.4)">
<path style="color:black; overflow:visible; fill:#ad7fa8; stroke-width:6;" d="m -385.4,1534.6 c -6.7,-11.4 -16.9,-19 -27.5,-26.4 -11.9,-7.3 -24.3,-13.8 -36.7,-20.3 -12.7,-6.8 -25.9,-12.5 -39.2,-18 -12.5,-5.5 -25.8,-8 -39.2,-10.2 -12.7,-2.2 -25.5,-3.4 -38.3,-4.5 -13,-1.3 -26,-0.2 -38.9,0.8 -13.1,0.9 -26.2,2.9 -39.2,4.9 -13.4,2.1 -26.5,5.3 -39.6,8.5 -31.6,8.6 27.5,-8 -12.6,3.6 -12.9,4 -25.7,8.4 -38.4,12.9 -12.4,4.1 -24.1,9.8 -35.6,15.9 -10.9,6.1 -20.8,13.5 -30.5,21.3 -5.1,4.6 -10.7,8.5 -16.1,12.7 l -33,-8.6 c 5.4,-3.7 11.1,-6.9 15.8,-11.5 9.9,-8.4 19.7,-16.9 31.1,-23.4 11.6,-7.2 23.5,-14 36.5,-18.5 12.8,-4.8 25.7,-9.3 38.6,-13.6 21.5,-6.7 43.3,-12.7 65.2,-17.9 13.5,-3 26.9,-5.9 40.6,-7.7 13.3,-1.7 26.6,-3.5 40.1,-4.1 13.5,-0.6 27,-0.9 40.5,0.7 13.1,1.4 26.2,3 39.2,5.4 14.1,3.1 28,6.6 41.1,12.6 13.5,6 27,12.1 40,19.1 12.8,6.9 25.7,13.6 37.7,21.8 11.7,9.3 23,18.8 30.4,32.2 z"/>
<path style="color:black; overflow:visible; fill:#ad7fa8; stroke-width:6;" d="m -809.8,1459.8 c -0.6,14.6 -5.7,28 -10.8,41.4 -5.3,12.1 -9.8,24.5 -14.3,36.8 8.3,-5 21.1,-5.6 31.5,-7.9 12.4,-3.5 25.2,-5.3 38,-7.3 11.1,-1.8 22.2,-2.9 33.3,-4.1 l -22.3,25.9 c -11,1.3 -22,2.6 -32.9,4.5 -12.6,2.2 -25.1,4.8 -37.6,7.5 -19.5,2.2 -36,3 -44.2,-18.7 4.7,-12.5 9.1,-25 14.3,-37.2 4.9,-11.7 10,-23.5 11.1,-36.3 z"/>
</g>
<text x="-3018.6" y="4638.2" style="font-family:'Comic Sans MS'; font-size:18.7px; font-style:italic; color:black; overflow:visible; fill:#ad7fa8; stroke-width:0.13px;">$1,000</text>
<text x="-2890.9" y="4672.8" style="font-family:'Comic Sans MS'; font-size:15.2px; color:black; overflow:visible; fill:black; stroke-width:0.13px;">Alex</text>
<text x="-2822.6" y="4673" style="font-family:'Comic Sans MS'; font-size:15.2px; color:black; overflow:visible; fill:black; stroke-width:0.13px;">Bank</text>
<text x="-2868.8" y="4712.7" style="font-family:'Comic Sans MS'; font-size:18.7px; font-style:italic; color:black; overflow:visible; fill:#c4a000; stroke-width:0.13px;">$100</text>
<text x="-3013.7" y="4611.3" style="font-family:'Comic Sans MS'; font-size:18.7px; font-style:italic; color:black; overflow:visible; fill:#fce94f; stroke-width:0.13px;">Today</text>
<text x="-2884.6" y="4614" style="font-family:'Comic Sans MS'; font-size:18.7px; font-style:italic; color:black; overflow:visible; fill:#0084c8; stroke-width:0.13px;">Next Year</text>
<g transform="matrix(-0.13,0,0,0.13,-2919.5,4456.16)">
<path style="color:black; overflow:visible; fill:#ad7fa8; stroke-width:6;" d="m -385.4,1534.6 c -6.7,-11.4 -16.9,-19 -27.5,-26.4 -11.9,-7.3 -24.3,-13.8 -36.7,-20.3 -12.7,-6.8 -25.9,-12.5 -39.2,-18 -12.5,-5.5 -25.8,-8 -39.2,-10.2 -12.7,-2.2 -25.5,-3.4 -38.3,-4.5 -13,-1.3 -26,-0.2 -38.9,0.8 -13.1,0.9 -26.2,2.9 -39.2,4.9 -13.4,2.1 -26.5,5.3 -39.6,8.5 -31.6,8.6 27.5,-8 -12.6,3.6 -12.9,4 -25.7,8.4 -38.4,12.9 -12.4,4.1 -24.1,9.8 -35.6,15.9 -10.9,6.1 -20.8,13.5 -30.5,21.3 -5.1,4.6 -10.7,8.5 -16.1,12.7 l -33,-8.6 c 5.4,-3.7 11.1,-6.9 15.8,-11.5 9.9,-8.4 19.7,-16.9 31.1,-23.4 11.6,-7.2 23.5,-14 36.5,-18.5 12.8,-4.8 25.7,-9.3 38.6,-13.6 21.5,-6.7 43.3,-12.7 65.2,-17.9 13.5,-3 26.9,-5.9 40.6,-7.7 13.3,-1.7 26.6,-3.5 40.1,-4.1 13.5,-0.6 27,-0.9 40.5,0.7 13.1,1.4 26.2,3 39.2,5.4 14.1,3.1 28,6.6 41.1,12.6 13.5,6 27,12.1 40,19.1 12.8,6.9 25.7,13.6 37.7,21.8 11.7,9.3 23,18.8 30.4,32.2 z"/>
<path style="color:black; overflow:visible; fill:#ad7fa8; stroke-width:6;" d="m -809.8,1459.8 c -0.6,14.6 -5.7,28 -10.8,41.4 -5.3,12.1 -9.8,24.5 -14.3,36.8 8.3,-5 21.1,-5.6 31.5,-7.9 12.4,-3.5 25.2,-5.3 38,-7.3 11.1,-1.8 22.2,-2.9 33.3,-4.1 l -22.3,25.9 c -11,1.3 -22,2.6 -32.9,4.5 -12.6,2.2 -25.1,4.8 -37.6,7.5 -19.5,2.2 -36,3 -44.2,-18.7 4.7,-12.5 9.1,-25 14.3,-37.2 4.9,-11.7 10,-23.5 11.1,-36.3 z"/>
</g>
<text x="-2872" y="4638.7" style="font-family:'Comic Sans MS'; font-size:18.7px; font-style:italic; color:black; overflow:visible; fill:#ad7fa8; stroke-width:0.13px;">$1,000</text>
<g transform="matrix(-0.13,0,0,-0.13,-2919.39,4879.31)">
<path style="color:black; overflow:visible; fill:#c4a000; stroke-width:6;" d="m -385.4,1534.6 c -6.7,-11.4 -16.9,-19 -27.5,-26.4 -11.9,-7.3 -24.3,-13.8 -36.7,-20.3 -12.7,-6.8 -25.9,-12.5 -39.2,-18 -12.5,-5.5 -25.8,-8 -39.2,-10.2 -12.7,-2.2 -25.5,-3.4 -38.3,-4.5 -13,-1.3 -26,-0.2 -38.9,0.8 -13.1,0.9 -26.2,2.9 -39.2,4.9 -13.4,2.1 -26.5,5.3 -39.6,8.5 -31.6,8.6 27.5,-8 -12.6,3.6 -12.9,4 -25.7,8.4 -38.4,12.9 -12.4,4.1 -24.1,9.8 -35.6,15.9 -10.9,6.1 -20.8,13.5 -30.5,21.3 -5.1,4.6 -10.7,8.5 -16.1,12.7 l -33,-8.6 c 5.4,-3.7 11.1,-6.9 15.8,-11.5 9.9,-8.4 19.7,-16.9 31.1,-23.4 11.6,-7.2 23.5,-14 36.5,-18.5 12.8,-4.8 25.7,-9.3 38.6,-13.6 21.5,-6.7 43.3,-12.7 65.2,-17.9 13.5,-3 26.9,-5.9 40.6,-7.7 13.3,-1.7 26.6,-3.5 40.1,-4.1 13.5,-0.6 27,-0.9 40.5,0.7 13.1,1.4 26.2,3 39.2,5.4 14.1,3.1 28,6.6 41.1,12.6 13.5,6 27,12.1 40,19.1 12.8,6.9 25.7,13.6 37.7,21.8 11.7,9.3 23,18.8 30.4,32.2 z"/>
<path style="color:black; overflow:visible; fill:#c4a000; stroke-width:6;" d="m -809.8,1459.8 c -0.6,14.6 -5.7,28 -10.8,41.4 -5.3,12.1 -9.8,24.5 -14.3,36.8 8.3,-5 21.1,-5.6 31.5,-7.9 12.4,-3.5 25.2,-5.3 38,-7.3 11.1,-1.8 22.2,-2.9 33.3,-4.1 l -22.3,25.9 c -11,1.3 -22,2.6 -32.9,4.5 -12.6,2.2 -25.1,4.8 -37.6,7.5 -19.5,2.2 -36,3 -44.2,-18.7 4.7,-12.5 9.1,-25 14.3,-37.2 4.9,-11.7 10,-23.5 11.1,-36.3 z"/>
</g>
<text x="-2771.4" y="4716.1" style="font-family:'Comic Sans MS'; font-size:15.2px; color:black; overflow:visible; fill:#c4a000; stroke-width:0.13px;">Interest</text>
<path style="color:black; overflow:visible; fill:#c4a000; stroke-width:0.66;" d="m -2818.8,4705.4 c 1.6,-1 3.2,-1.6 4.9,-1.9 1.3,-0.3 2.6,-0.3 3.9,-0.3 1.2,0 2.5,0.3 3.7,0.6 1.3,0.4 2.6,1 3.9,1.6 1.3,0.7 2.5,1.2 3.8,1.6 1.3,0.5 2.6,1.1 3.9,1.5 1.3,0.5 2.6,0.8 3.9,1.3 1.3,0.5 2.6,0.7 3.9,0.9 1.4,0.1 2.7,0.3 4.1,0.2 1.3,-0.1 2.6,-0.4 3.9,-0.6 1.3,-0.2 2.5,-0.6 3.7,-0.9 l -1,2 c -1.3,0.4 -2.5,0.7 -3.8,0.9 -1.3,0.2 -2.6,0.5 -4,0.5 -1.4,0 -2.7,-0.1 -4.1,-0.3 -1.3,-0.2 -2.6,-0.6 -3.9,-1 -1.3,-0.4 -2.6,-0.8 -3.9,-1.3 -1.3,-0.5 -2.6,-1.1 -3.9,-1.5 -1.3,-0.5 -2.6,-1 -3.9,-1.7 -1.3,-0.6 -2.6,-1.1 -3.9,-1.5 -1.2,-0.3 -2.4,-0.5 -3.6,-0.5 -1.3,0 -2.6,0.1 -3.8,0.4 -2.4,0.6 -0.6,0.1 -2.4,0.8 z"/>
</g>
</svg>
