<?xml version="1.0" encoding="UTF-8" standalone="no"?>
<!-- Copyright 2017 mathsisfun.com -->
<svg xmlns="http://www.w3.org/2000/svg" width="438.6" height="239" version="1.1">
<defs>
</defs>
<g transform="translate(3034.76,-4921.19)">
<path style="fill:#fef9ce;" d="m -2894.2,4993.3 c 0,32 -31.4,57.9 -70.3,57.9 -38.8,0 -70.2,-25.9 -70.2,-57.9 0,-31.9 31.4,-57.8 70.2,-57.8 38.9,0 70.3,25.9 70.3,57.8 z"/>
<path style="fill:#aae2ff;" d="m -2596.1,5102 c 0,32 -31.4,57.9 -70.3,57.9 -38.8,0 -70.2,-25.9 -70.2,-57.9 0,-32 31.4,-57.9 70.2,-57.9 38.9,0 70.3,25.9 70.3,57.9 z"/>
<path style="fill:#0084c8;" d="m -2705.7,5038.9 c -0.5,2.2 -0.9,4.2 -1,5.8 -0.4,2.5 -0.6,3.8 -0.7,4 h 3 c 0.2,0 0.4,0.1 0.6,0.2 0.1,0.1 0.2,0.3 0.2,0.5 0,0.3 -0.1,0.6 -0.3,0.8 -0.2,0.2 -0.4,0.3 -0.7,0.3 -0.3,0 -0.9,0 -1.5,0.1 h -1 c -1,0 -1.8,0.1 -2.5,0.2 -0.8,0.2 -1.4,0.2 -1.8,0.2 -0.2,0 -0.5,-0.1 -0.6,-0.2 -0.1,-0.2 -0.2,-0.3 -0.2,-0.5 0,-0.3 0.1,-0.6 0.3,-0.8 0.2,-0.2 0.5,-0.3 0.7,-0.3 0.5,0 1.1,-0.1 2,-0.2 0.2,-0.6 0.4,-1.9 0.6,-4.1 0.2,-1.2 0.6,-3.1 1.2,-5.9 l -2.4,0.1 c -0.2,0 -0.4,-0.1 -0.6,-0.2 -0.2,-0.2 -0.2,-0.3 -0.2,-0.6 0,-0.3 0.1,-0.6 0.2,-0.7 0.2,-0.2 0.5,-0.3 0.8,-0.4 0.3,0 1.3,-0.1 2.8,-0.1 0.8,0 1.8,0.1 2.8,0.2 1,0.1 1.7,0.2 1.8,0.2 0.2,0 0.2,0.1 0.4,0.2 0.1,0.1 0.1,0.2 0.1,0.5 0,0.3 -0.1,0.6 -0.3,0.8 -0.2,0.2 -0.5,0.3 -0.7,0.3 -0.5,0 -1,-0.1 -1.4,-0.2 z"/>
<path style="fill:#0084c8;" d="m -2698.8,5042.8 c 1.3,-1.4 2.4,-2 3.5,-2 1.3,0 2,0.8 2,2.5 0,0.4 -0.1,0.8 -0.2,1.4 l -0.2,1.8 c -0.2,0.5 -0.2,1.1 -0.2,1.9 0,1.3 -0.1,2.1 -0.2,2.4 -0.2,0.3 -0.5,0.5 -1,0.5 -0.5,0 -0.7,-0.2 -0.7,-0.9 l 0.1,-2 c 0,-0.5 0.1,-1.2 0.2,-2 0.2,-0.9 0.3,-1.4 0.4,-1.7 0,-0.4 0.1,-0.7 0.1,-1 0,-0.7 -0.2,-1 -0.6,-1 -0.8,0 -1.6,0.6 -2.5,1.6 -0.8,1 -1.3,2 -1.5,2.8 0,0.2 -0.1,0.3 -0.1,0.5 -0.2,0.5 -0.2,0.9 -0.2,1.3 l -0.1,1.1 c -0.1,0.3 -0.2,0.6 -0.4,0.8 -0.2,0.2 -0.4,0.2 -0.7,0.2 -0.5,0 -0.7,-0.2 -0.7,-0.7 l 0.1,-1.4 c 0.1,-0.6 0.2,-1.6 0.6,-3 0.3,-1.4 0.6,-2.6 0.6,-3.5 l 0.1,-0.7 c 0,-0.3 0.1,-0.6 0.3,-0.7 0.2,-0.2 0.5,-0.3 0.7,-0.3 0.6,0 0.8,0.4 0.7,1.2 z"/>
<path style="fill:#0084c8;" d="m -2684.2,5048.8 1.9,-0.2 c 0.8,-0.1 1.8,-0.1 2.8,-0.1 0.6,0 1,0.1 1.4,0.2 0.4,0.2 0.6,0.5 0.6,0.7 0,0.2 -0.2,0.5 -0.3,0.7 -0.2,0.2 -0.5,0.3 -0.7,0.3 -0.1,0 -0.3,0 -0.6,-0.2 -0.3,-0.1 -0.5,-0.1 -0.6,-0.1 -0.3,0 -0.8,0 -1.4,0 -0.6,0.1 -1,0.1 -1.4,0.1 -0.2,0 -0.6,0.1 -1,0.1 -0.4,0.1 -0.7,0.1 -1.1,0.1 h -0.6 c -0.5,0 -0.7,-0.3 -0.7,-0.9 0,-0.8 0.2,-1.5 0.5,-2.3 0.3,-0.7 0.6,-1.4 1.1,-1.8 0.5,-0.5 1.6,-1.3 3.4,-2.4 1.4,-0.9 2.3,-1.6 2.6,-2.2 0.3,-0.6 0.5,-1 0.5,-1.4 0,-0.3 -0.2,-0.6 -0.6,-0.9 -0.4,-0.3 -0.8,-0.4 -1.2,-0.4 -0.6,0 -1.1,0.2 -1.7,0.5 l -1.4,1 c -0.3,0.2 -0.6,0.3 -0.7,0.3 -0.6,0 -0.8,-0.2 -0.8,-0.6 0,-0.6 0.6,-1.2 1.8,-1.9 1.2,-0.7 2.2,-1 3.1,-1 1,0 1.8,0.2 2.5,0.7 0.7,0.6 1,1.2 1,1.9 0,0.6 -0.2,1.4 -0.6,2.4 -0.5,1 -1.7,1.9 -3.6,3 -1.4,0.8 -2.3,1.4 -2.9,2 -0.6,0.6 -0.9,1.3 -1,2.2 z"/>
<path style="fill:#0084c8;" d="m -2664.5,5046.3 c -0.9,-1.4 -1.4,-2.5 -1.6,-3.3 -0.2,-0.7 -0.6,-1.5 -1,-2.5 -0.3,-0.6 -0.6,-1.2 -0.8,-1.8 -0.3,-0.5 -0.4,-0.9 -0.4,-1 0,-0.2 0.1,-0.5 0.3,-0.7 0.2,-0.2 0.5,-0.3 0.8,-0.3 0.2,0 0.5,0.2 0.6,0.4 l 0.6,1.2 c 0.6,1.3 1,2.1 1.3,2.6 0.2,0.5 0.3,1 0.5,1.4 0.1,0.5 0.4,1.2 1,2.1 l 2.9,-5.1 1,-1.4 c 0.3,-0.5 0.6,-0.8 0.7,-1 0.2,-0.1 0.3,-0.2 0.6,-0.2 0.2,0 0.4,0.1 0.6,0.2 0.2,0.2 0.2,0.3 0.2,0.6 0,0.3 -0.3,0.9 -1,1.8 -0.2,0.2 -0.2,0.4 -0.4,0.6 l -2.2,3.9 c -0.6,1 -1.4,2.2 -2.4,3.8 l -1.4,2 -0.6,1 c -0.2,0.4 -0.6,0.6 -0.9,0.6 -0.2,0 -0.4,-0.1 -0.6,-0.2 -0.2,-0.2 -0.2,-0.3 -0.2,-0.6 0,-0.2 0.4,-0.9 1.1,-2.1 z"/>
<path style="fill:#0084c8;" d="m -2656.1,5047.9 c 0.6,1 1.4,1.5 2.8,1.5 0.5,0 1,-0.2 1.7,-0.3 0.7,-0.2 1.1,-0.5 1.4,-0.7 0.2,-0.3 0.5,-0.5 0.7,-0.5 0.2,0 0.4,0 0.6,0.2 0.1,0.2 0.2,0.3 0.2,0.5 0,0.6 -0.5,1.2 -1.6,1.8 -1,0.5 -2.1,0.7 -3.1,0.7 -1.3,0 -2.3,-0.3 -3,-0.9 -0.7,-0.6 -1.1,-1.4 -1.1,-2.5 0,-1.5 0.5,-3 1.5,-4.4 1,-1.4 2.3,-2.2 4,-2.2 1,0 1.8,0.2 2.4,0.5 0.6,0.4 0.9,0.9 0.9,1.6 0,0.5 -0.2,1 -0.6,1.4 -0.4,0.4 -0.8,0.7 -1.2,0.9 -0.4,0.2 -1,0.5 -1.7,0.8 z m 0.2,-1.7 3,-1.4 c 1.3,-0.6 2.2,-1 2.6,-1.4 -0.4,-0.5 -1.1,-0.7 -2.1,-0.7 -1.4,0 -2.6,1.2 -3.4,3.5 z"/>
<path style="fill:#0084c8;" d="m -2641.5,5050.1 c -1.4,0.6 -2.2,1 -2.8,1 -2.3,0 -3.4,-1 -3.4,-3.3 0,-2 0.6,-3.6 1.9,-4.9 1.3,-1.2 2.6,-1.8 4.2,-1.8 0.6,0 1.2,0.2 1.8,0.4 0.6,0.3 1,0.7 1,1.1 0,0.2 -0.1,0.4 -0.2,0.6 -0.2,0.2 -0.3,0.9 -0.6,2.1 -0.2,1.1 -0.3,1.9 -0.3,2.4 0,0.6 0.2,1.5 0.5,2.6 l 0.1,0.2 c -0.2,0.6 -0.5,0.9 -1,0.9 -0.1,0 -0.2,-0.2 -0.5,-0.4 -0.3,-0.2 -0.5,-0.5 -0.6,-0.7 z m 0.6,-7.1 c -0.4,-0.2 -0.7,-0.3 -0.9,-0.3 -1,0 -2,0.5 -2.9,1.4 -0.9,1 -1.3,2.1 -1.3,3.4 0,1.4 0.6,2 1.7,2 1,0 1.8,-0.3 2.6,-1 0.1,-2.6 0.4,-4.4 0.8,-5.5 z"/>
<path style="fill:#0084c8;" d="m -2629.5,5043.9 c 0,0.2 -0.2,0.5 -0.3,0.7 -0.2,0.2 -0.4,0.4 -0.8,0.4 -0.4,0 -0.6,-0.2 -0.6,-0.6 l 0.1,-0.5 c 0,-0.2 0,-0.2 0,-0.4 l 0.1,-0.8 c -1.8,0.2 -3.1,1 -4.1,2.6 l -0.7,5 c -0.1,0.6 -0.5,1 -1,1 -0.6,0 -0.8,-0.3 -0.7,-1 l 1,-6.4 c 0.2,-1.4 0.4,-2.2 0.6,-2.5 0.2,-0.2 0.4,-0.2 0.7,-0.2 0.5,0 0.7,0.3 0.7,1 0,0.1 0,0.3 0,0.5 1.3,-1.1 2.7,-1.8 4.2,-1.8 0.7,0 1.1,0.5 1.1,1.4 0,0.2 0,0.6 -0.1,0.9 z"/>
<path style="fill:#0084c8;" d="m -2622.2,5042.2 c -0.2,0.1 -0.6,0.2 -1,0.3 -1,0.2 -1.8,0.6 -2.2,0.8 -0.5,0.3 -0.7,0.6 -0.7,1 0.2,0 0.3,0.1 0.5,0.1 1.4,0.2 2.5,0.6 3.1,1.2 0.6,0.5 1,1.2 1,2.1 0,1 -0.4,1.9 -1.3,2.5 -0.8,0.6 -1.8,1 -3.2,1 -0.9,0 -1.7,-0.2 -2.4,-0.5 -0.7,-0.3 -1,-0.7 -1,-1.2 0,-0.2 0.1,-0.6 0.3,-0.7 0.2,-0.2 0.5,-0.3 0.8,-0.3 0.2,0 0.4,0.1 0.6,0.4 0.1,0.2 0.4,0.2 0.8,0.3 0.5,0.1 0.8,0.2 1.1,0.2 1.6,0 2.4,-0.4 2.4,-1.3 0,-0.7 -0.5,-1.2 -1.5,-1.4 l -0.9,-0.2 c -1,-0.2 -1.5,-0.5 -1.8,-0.7 -0.2,-0.3 -0.4,-0.6 -0.4,-1 0,-0.6 0.2,-1 0.5,-1.6 0.2,-0.5 0.6,-0.9 1.2,-1.2 0.5,-0.3 1.3,-0.6 2.4,-0.9 0.9,-0.2 1.5,-0.5 1.8,-0.6 0.2,-0.2 0.6,-0.2 0.9,-0.2 0.5,0 0.7,0.3 0.7,0.8 v 0.6 0.6 c 0,0.6 -0.1,0.9 -0.3,1.1 -0.2,0.2 -0.5,0.2 -0.7,0.2 -0.3,0 -0.6,-0.1 -0.6,-0.2 -0.1,-0.2 -0.1,-0.6 -0.1,-1.1 z"/>
<rect x="-3100" y="2947.4" width="955" height="275"/>
<ellipse cx="-2815" cy="5102" rx="70.3" ry="57.9" style="color:black; overflow:visible; fill:none; stroke:#999999; stroke-width:0.74; stroke-dasharray:2.2, 2.2;"/>
<text x="-3021.4" y="4995.5" style="font-family:'Comic Sans MS'; font-size:15.2px; color:black; overflow:visible; fill:black; stroke-width:0.13px;">Alex</text>
<text x="-2953.1" y="4995.7" style="font-family:'Comic Sans MS'; font-size:15.2px; color:black; overflow:visible; fill:black; stroke-width:0.13px;">Bank</text>
<g transform="matrix(0.13,0,0,0.13,-2889.87,4781.17)">
<path style="color:black; overflow:visible; fill:#ad7fa8; stroke-width:6;" d="m -385.4,1534.6 c -6.7,-11.4 -16.9,-19 -27.5,-26.4 -11.9,-7.3 -24.3,-13.8 -36.7,-20.3 -12.7,-6.8 -25.9,-12.5 -39.2,-18 -12.5,-5.5 -25.8,-8 -39.2,-10.2 -12.7,-2.2 -25.5,-3.4 -38.3,-4.5 -13,-1.3 -26,-0.2 -38.9,0.8 -13.1,0.9 -26.2,2.9 -39.2,4.9 -13.4,2.1 -26.5,5.3 -39.6,8.5 -31.6,8.6 27.5,-8 -12.6,3.6 -12.9,4 -25.7,8.4 -38.4,12.9 -12.4,4.1 -24.1,9.8 -35.6,15.9 -10.9,6.1 -20.8,13.5 -30.5,21.3 -5.1,4.6 -10.7,8.5 -16.1,12.7 l -33,-8.6 c 5.4,-3.7 11.1,-6.9 15.8,-11.5 9.9,-8.4 19.7,-16.9 31.1,-23.4 11.6,-7.2 23.5,-14 36.5,-18.5 12.8,-4.8 25.7,-9.3 38.6,-13.6 21.5,-6.7 43.3,-12.7 65.2,-17.9 13.5,-3 26.9,-5.9 40.6,-7.7 13.3,-1.7 26.6,-3.5 40.1,-4.1 13.5,-0.6 27,-0.9 40.5,0.7 13.1,1.4 26.2,3 39.2,5.4 14.1,3.1 28,6.6 41.1,12.6 13.5,6 27,12.1 40,19.1 12.8,6.9 25.7,13.6 37.7,21.8 11.7,9.3 23,18.8 30.4,32.2 z"/>
<path style="color:black; overflow:visible; fill:#ad7fa8; stroke-width:6;" d="m -809.8,1459.8 c -0.6,14.6 -5.7,28 -10.8,41.4 -5.3,12.1 -9.8,24.5 -14.3,36.8 8.3,-5 21.1,-5.6 31.5,-7.9 12.4,-3.5 25.2,-5.3 38,-7.3 11.1,-1.8 22.2,-2.9 33.3,-4.1 l -22.3,25.9 c -11,1.3 -22,2.6 -32.9,4.5 -12.6,2.2 -25.1,4.8 -37.6,7.5 -19.5,2.2 -36,3 -44.2,-18.7 4.7,-12.5 9.1,-25 14.3,-37.2 4.9,-11.7 10,-23.5 11.1,-36.3 z"/>
</g>
<text x="-2996.4" y="4964.8" style="font-family:'Comic Sans MS'; font-size:18.7px; font-style:italic; color:black; overflow:visible; fill:#ad7fa8; stroke-width:0.13px;">$1,000</text>
<text x="-2717.8" y="5106.6" style="font-family:'Comic Sans MS'; font-size:15.2px; color:black; overflow:visible; fill:black; stroke-width:0.13px;">Alex</text>
<text x="-2649.5" y="5106.8" style="font-family:'Comic Sans MS'; font-size:15.2px; color:black; overflow:visible; fill:black; stroke-width:0.13px;">Bank</text>
<text x="-2688.4" y="5142.5" style="font-family:'Comic Sans MS'; font-size:18.7px; font-style:italic; color:black; overflow:visible; fill:#c4a000; stroke-width:0.13px;">$110</text>
<g transform="matrix(-0.13,0,0,0.13,-2746.48,4890.01)">
<path style="color:black; overflow:visible; fill:#ad7fa8; stroke-width:6;" d="m -385.4,1534.6 c -6.7,-11.4 -16.9,-19 -27.5,-26.4 -11.9,-7.3 -24.3,-13.8 -36.7,-20.3 -12.7,-6.8 -25.9,-12.5 -39.2,-18 -12.5,-5.5 -25.8,-8 -39.2,-10.2 -12.7,-2.2 -25.5,-3.4 -38.3,-4.5 -13,-1.3 -26,-0.2 -38.9,0.8 -13.1,0.9 -26.2,2.9 -39.2,4.9 -13.4,2.1 -26.5,5.3 -39.6,8.5 -31.6,8.6 27.5,-8 -12.6,3.6 -12.9,4 -25.7,8.4 -38.4,12.9 -12.4,4.1 -24.1,9.8 -35.6,15.9 -10.9,6.1 -20.8,13.5 -30.5,21.3 -5.1,4.6 -10.7,8.5 -16.1,12.7 l -33,-8.6 c 5.4,-3.7 11.1,-6.9 15.8,-11.5 9.9,-8.4 19.7,-16.9 31.1,-23.4 11.6,-7.2 23.5,-14 36.5,-18.5 12.8,-4.8 25.7,-9.3 38.6,-13.6 21.5,-6.7 43.3,-12.7 65.2,-17.9 13.5,-3 26.9,-5.9 40.6,-7.7 13.3,-1.7 26.6,-3.5 40.1,-4.1 13.5,-0.6 27,-0.9 40.5,0.7 13.1,1.4 26.2,3 39.2,5.4 14.1,3.1 28,6.6 41.1,12.6 13.5,6 27,12.1 40,19.1 12.8,6.9 25.7,13.6 37.7,21.8 11.7,9.3 23,18.8 30.4,32.2 z"/>
<path style="color:black; overflow:visible; fill:#ad7fa8; stroke-width:6;" d="m -809.8,1459.8 c -0.6,14.6 -5.7,28 -10.8,41.4 -5.3,12.1 -9.8,24.5 -14.3,36.8 8.3,-5 21.1,-5.6 31.5,-7.9 12.4,-3.5 25.2,-5.3 38,-7.3 11.1,-1.8 22.2,-2.9 33.3,-4.1 l -22.3,25.9 c -11,1.3 -22,2.6 -32.9,4.5 -12.6,2.2 -25.1,4.8 -37.6,7.5 -19.5,2.2 -36,3 -44.2,-18.7 4.7,-12.5 9.1,-25 14.3,-37.2 4.9,-11.7 10,-23.5 11.1,-36.3 z"/>
</g>
<text x="-2696.7" y="5072.8" style="font-family:'Comic Sans MS'; font-size:18.7px; font-style:italic; color:black; overflow:visible; fill:#ad7fa8; stroke-width:0.13px;">$1,100</text>
<g transform="matrix(-0.13,0,0,-0.13,-2746.37,5311.64)">
<path style="color:black; overflow:visible; fill:#c4a000; stroke-width:6;" d="m -385.4,1534.6 c -6.7,-11.4 -16.9,-19 -27.5,-26.4 -11.9,-7.3 -24.3,-13.8 -36.7,-20.3 -12.7,-6.8 -25.9,-12.5 -39.2,-18 -12.5,-5.5 -25.8,-8 -39.2,-10.2 -12.7,-2.2 -25.5,-3.4 -38.3,-4.5 -13,-1.3 -26,-0.2 -38.9,0.8 -13.1,0.9 -26.2,2.9 -39.2,4.9 -13.4,2.1 -26.5,5.3 -39.6,8.5 -31.6,8.6 27.5,-8 -12.6,3.6 -12.9,4 -25.7,8.4 -38.4,12.9 -12.4,4.1 -24.1,9.8 -35.6,15.9 -10.9,6.1 -20.8,13.5 -30.5,21.3 -5.1,4.6 -10.7,8.5 -16.1,12.7 l -33,-8.6 c 5.4,-3.7 11.1,-6.9 15.8,-11.5 9.9,-8.4 19.7,-16.9 31.1,-23.4 11.6,-7.2 23.5,-14 36.5,-18.5 12.8,-4.8 25.7,-9.3 38.6,-13.6 21.5,-6.7 43.3,-12.7 65.2,-17.9 13.5,-3 26.9,-5.9 40.6,-7.7 13.3,-1.7 26.6,-3.5 40.1,-4.1 13.5,-0.6 27,-0.9 40.5,0.7 13.1,1.4 26.2,3 39.2,5.4 14.1,3.1 28,6.6 41.1,12.6 13.5,6 27,12.1 40,19.1 12.8,6.9 25.7,13.6 37.7,21.8 11.7,9.3 23,18.8 30.4,32.2 z"/>
<path style="color:black; overflow:visible; fill:#c4a000; stroke-width:6;" d="m -809.8,1459.8 c -0.6,14.6 -5.7,28 -10.8,41.4 -5.3,12.1 -9.8,24.5 -14.3,36.8 8.3,-5 21.1,-5.6 31.5,-7.9 12.4,-3.5 25.2,-5.3 38,-7.3 11.1,-1.8 22.2,-2.9 33.3,-4.1 l -22.3,25.9 c -11,1.3 -22,2.6 -32.9,4.5 -12.6,2.2 -25.1,4.8 -37.6,7.5 -19.5,2.2 -36,3 -44.2,-18.7 4.7,-12.5 9.1,-25 14.3,-37.2 4.9,-11.7 10,-23.5 11.1,-36.3 z"/>
</g>
<ellipse cx="-2815" cy="4993.4" rx="70.3" ry="57.9" style="color:black; overflow:visible; fill:none; stroke:#999999; stroke-width:0.74; stroke-dasharray:2.2, 2.2;"/>
<text x="-2865.6" y="4997.7" style="font-family:'Comic Sans MS'; font-size:15.2px; color:black; overflow:visible; fill:black; stroke-width:0.13px;">Alex</text>
<text x="-2797.3" y="4997.9" style="font-family:'Comic Sans MS'; font-size:15.2px; color:black; overflow:visible; fill:black; stroke-width:0.13px;">Bank</text>
<text x="-2837.7" y="5033.6" style="font-family:'Comic Sans MS'; font-size:18.7px; font-style:italic; color:black; overflow:visible; fill:#c4a000; stroke-width:0.13px;">$100</text>
<text x="-2868.1" y="4935.9" style="font-family:'Comic Sans MS'; font-size:18.7px; font-style:italic; color:black; overflow:visible; fill:#999999; stroke-width:0.13px;">(Next Year)</text>
<g transform="matrix(-0.13,0,0,0.13,-2894.19,4781.08)">
<path style="color:black; overflow:visible; fill:#ad7fa8; stroke-width:6;" d="m -385.4,1534.6 c -6.7,-11.4 -16.9,-19 -27.5,-26.4 -11.9,-7.3 -24.3,-13.8 -36.7,-20.3 -12.7,-6.8 -25.9,-12.5 -39.2,-18 -12.5,-5.5 -25.8,-8 -39.2,-10.2 -12.7,-2.2 -25.5,-3.4 -38.3,-4.5 -13,-1.3 -26,-0.2 -38.9,0.8 -13.1,0.9 -26.2,2.9 -39.2,4.9 -13.4,2.1 -26.5,5.3 -39.6,8.5 -31.6,8.6 27.5,-8 -12.6,3.6 -12.9,4 -25.7,8.4 -38.4,12.9 -12.4,4.1 -24.1,9.8 -35.6,15.9 -10.9,6.1 -20.8,13.5 -30.5,21.3 -5.1,4.6 -10.7,8.5 -16.1,12.7 l -33,-8.6 c 5.4,-3.7 11.1,-6.9 15.8,-11.5 9.9,-8.4 19.7,-16.9 31.1,-23.4 11.6,-7.2 23.5,-14 36.5,-18.5 12.8,-4.8 25.7,-9.3 38.6,-13.6 21.5,-6.7 43.3,-12.7 65.2,-17.9 13.5,-3 26.9,-5.9 40.6,-7.7 13.3,-1.7 26.6,-3.5 40.1,-4.1 13.5,-0.6 27,-0.9 40.5,0.7 13.1,1.4 26.2,3 39.2,5.4 14.1,3.1 28,6.6 41.1,12.6 13.5,6 27,12.1 40,19.1 12.8,6.9 25.7,13.6 37.7,21.8 11.7,9.3 23,18.8 30.4,32.2 z"/>
<path style="color:black; overflow:visible; fill:#ad7fa8; stroke-width:6;" d="m -809.8,1459.8 c -0.6,14.6 -5.7,28 -10.8,41.4 -5.3,12.1 -9.8,24.5 -14.3,36.8 8.3,-5 21.1,-5.6 31.5,-7.9 12.4,-3.5 25.2,-5.3 38,-7.3 11.1,-1.8 22.2,-2.9 33.3,-4.1 l -22.3,25.9 c -11,1.3 -22,2.6 -32.9,4.5 -12.6,2.2 -25.1,4.8 -37.6,7.5 -19.5,2.2 -36,3 -44.2,-18.7 4.7,-12.5 9.1,-25 14.3,-37.2 4.9,-11.7 10,-23.5 11.1,-36.3 z"/>
</g>
<text x="-2846.1" y="4963.9" style="font-family:'Comic Sans MS'; font-size:18.7px; font-style:italic; color:black; overflow:visible; fill:#ad7fa8; stroke-width:0.13px;">$1,000</text>
<g transform="matrix(-0.13,0,0,-0.13,-2894.08,5202.72)">
<path style="color:black; overflow:visible; fill:#c4a000; stroke-width:6;" d="m -385.4,1534.6 c -6.7,-11.4 -16.9,-19 -27.5,-26.4 -11.9,-7.3 -24.3,-13.8 -36.7,-20.3 -12.7,-6.8 -25.9,-12.5 -39.2,-18 -12.5,-5.5 -25.8,-8 -39.2,-10.2 -12.7,-2.2 -25.5,-3.4 -38.3,-4.5 -13,-1.3 -26,-0.2 -38.9,0.8 -13.1,0.9 -26.2,2.9 -39.2,4.9 -13.4,2.1 -26.5,5.3 -39.6,8.5 -31.6,8.6 27.5,-8 -12.6,3.6 -12.9,4 -25.7,8.4 -38.4,12.9 -12.4,4.1 -24.1,9.8 -35.6,15.9 -10.9,6.1 -20.8,13.5 -30.5,21.3 -5.1,4.6 -10.7,8.5 -16.1,12.7 l -33,-8.6 c 5.4,-3.7 11.1,-6.9 15.8,-11.5 9.9,-8.4 19.7,-16.9 31.1,-23.4 11.6,-7.2 23.5,-14 36.5,-18.5 12.8,-4.8 25.7,-9.3 38.6,-13.6 21.5,-6.7 43.3,-12.7 65.2,-17.9 13.5,-3 26.9,-5.9 40.6,-7.7 13.3,-1.7 26.6,-3.5 40.1,-4.1 13.5,-0.6 27,-0.9 40.5,0.7 13.1,1.4 26.2,3 39.2,5.4 14.1,3.1 28,6.6 41.1,12.6 13.5,6 27,12.1 40,19.1 12.8,6.9 25.7,13.6 37.7,21.8 11.7,9.3 23,18.8 30.4,32.2 z"/>
<path style="color:black; overflow:visible; fill:#c4a000; stroke-width:6;" d="m -809.8,1459.8 c -0.6,14.6 -5.7,28 -10.8,41.4 -5.3,12.1 -9.8,24.5 -14.3,36.8 8.3,-5 21.1,-5.6 31.5,-7.9 12.4,-3.5 25.2,-5.3 38,-7.3 11.1,-1.8 22.2,-2.9 33.3,-4.1 l -22.3,25.9 c -11,1.3 -22,2.6 -32.9,4.5 -12.6,2.2 -25.1,4.8 -37.6,7.5 -19.5,2.2 -36,3 -44.2,-18.7 4.7,-12.5 9.1,-25 14.3,-37.2 4.9,-11.7 10,-23.5 11.1,-36.3 z"/>
</g>
<text x="-2865.4" y="5105.8" style="font-family:'Comic Sans MS'; font-size:15.2px; color:black; overflow:visible; fill:black; stroke-width:0.13px;">Alex</text>
<text x="-2797.1" y="5106" style="font-family:'Comic Sans MS'; font-size:15.2px; color:black; overflow:visible; fill:black; stroke-width:0.13px;">Bank</text>
<g transform="matrix(0.13,0,0,0.13,-2733.85,4891.46)">
<path style="color:black; overflow:visible; fill:#ad7fa8; stroke-width:6;" d="m -385.4,1534.6 c -6.7,-11.4 -16.9,-19 -27.5,-26.4 -11.9,-7.3 -24.3,-13.8 -36.7,-20.3 -12.7,-6.8 -25.9,-12.5 -39.2,-18 -12.5,-5.5 -25.8,-8 -39.2,-10.2 -12.7,-2.2 -25.5,-3.4 -38.3,-4.5 -13,-1.3 -26,-0.2 -38.9,0.8 -13.1,0.9 -26.2,2.9 -39.2,4.9 -13.4,2.1 -26.5,5.3 -39.6,8.5 -31.6,8.6 27.5,-8 -12.6,3.6 -12.9,4 -25.7,8.4 -38.4,12.9 -12.4,4.1 -24.1,9.8 -35.6,15.9 -10.9,6.1 -20.8,13.5 -30.5,21.3 -5.1,4.6 -10.7,8.5 -16.1,12.7 l -33,-8.6 c 5.4,-3.7 11.1,-6.9 15.8,-11.5 9.9,-8.4 19.7,-16.9 31.1,-23.4 11.6,-7.2 23.5,-14 36.5,-18.5 12.8,-4.8 25.7,-9.3 38.6,-13.6 21.5,-6.7 43.3,-12.7 65.2,-17.9 13.5,-3 26.9,-5.9 40.6,-7.7 13.3,-1.7 26.6,-3.5 40.1,-4.1 13.5,-0.6 27,-0.9 40.5,0.7 13.1,1.4 26.2,3 39.2,5.4 14.1,3.1 28,6.6 41.1,12.6 13.5,6 27,12.1 40,19.1 12.8,6.9 25.7,13.6 37.7,21.8 11.7,9.3 23,18.8 30.4,32.2 z"/>
<path style="color:black; overflow:visible; fill:#ad7fa8; stroke-width:6;" d="m -809.8,1459.8 c -0.6,14.6 -5.7,28 -10.8,41.4 -5.3,12.1 -9.8,24.5 -14.3,36.8 8.3,-5 21.1,-5.6 31.5,-7.9 12.4,-3.5 25.2,-5.3 38,-7.3 11.1,-1.8 22.2,-2.9 33.3,-4.1 l -22.3,25.9 c -11,1.3 -22,2.6 -32.9,4.5 -12.6,2.2 -25.1,4.8 -37.6,7.5 -19.5,2.2 -36,3 -44.2,-18.7 4.7,-12.5 9.1,-25 14.3,-37.2 4.9,-11.7 10,-23.5 11.1,-36.3 z"/>
</g>
<text x="-2844.6" y="5075.1" style="font-family:'Comic Sans MS'; font-size:18.7px; font-style:italic; color:black; overflow:visible; fill:#ad7fa8; stroke-width:0.13px;">$1,100</text>
<text x="-2994.1" y="4935.9" style="font-family:'Comic Sans MS'; font-size:18.7px; font-style:italic; color:black; overflow:visible; fill:#fce94f; stroke-width:0.13px;">Today</text>
</g>
</svg>
