<?xml version="1.0" encoding="UTF-8" standalone="no"?>
<!-- Copyright 2017 mathsisfun.com -->
<svg xmlns="http://www.w3.org/2000/svg" width="374.9" height="66.5" version="1.1">
<defs/>
<g transform="translate(3026.29,-3920.85)">
<rect x="-3100" y="2947.4" width="955" height="275"/>
<text x="-3007.6" y="3970" style="font-family:'Comic Sans MS'; font-size:25.5px; font-style:italic; color:black; overflow:visible; fill:#204a87; stroke-width:0.58px;">$1,000</text>
<text x="-2750.3" y="3970" style="font-family:'Comic Sans MS'; font-size:25.5px; font-style:italic; color:black; overflow:visible; fill:#4e9a06; stroke-width:0.58px;">$1,100</text>
<g transform="translate(0.242275,-1.21138)">
<path style="color:black; overflow:visible; fill:#729fcf; stroke-width:1.08;" d="m -2773.8,3952.2 c -5,-2.5 -10.3,-4.5 -15.6,-6.2 -7.5,-2.5 -15.2,-4.1 -22.9,-5.5 -5.2,-0.9 -10.4,-1.5 -15.6,-2 -5.4,-0.4 -10.9,-0.5 -16.3,-0.5 -5.4,0.1 -10.8,0.5 -16.1,1.1 -5.3,0.6 -10.6,1.4 -15.9,2.3 -5.7,0.8 -11.4,2.1 -17,3.7 -5.3,1.4 -10.3,3.7 -15.1,6.3 l 6.1,4.3 c 4.7,-2.3 9.5,-4.4 14.7,-5.7 5.5,-1.5 11.1,-2.6 16.7,-3.4 5.2,-0.8 10.5,-1.6 15.8,-2.1 5.3,-0.5 10.6,-0.9 15.9,-0.9 5.4,0 10.8,0.2 16.1,0.7 5.1,0.5 10.3,1.2 15.4,2.2 6.7,1.3 11,2.3 11.3,2.5 5.3,1.6 10.4,3.4 15.4,5.7 z"/>
<path style="color:black; overflow:visible; fill:#729fcf; stroke-width:1.08;" d="m -2779.3,3940.7 c 1.5,4.5 3.8,8.7 6,13 0.7,1.5 1.7,2.8 2.5,4.1 l -7.3,-0.6 c -0.8,-1.5 -1.8,-2.9 -2.5,-4.4 -2.3,-4.4 -4.6,-8.9 -6,-13.5 z"/>
<path style="color:black; overflow:visible; fill:#729fcf; stroke-width:1.08;" d="m -2796.4,3953.1 c 4.9,-0.4 9.9,-0.5 14.9,-0.6 1.6,-0.1 3.3,0.2 4.9,0.3 l 5.4,5.3 c -1.6,-0.2 -3.1,-0.5 -4.7,-0.5 -4.9,-0.1 -9.8,0 -14.6,0.4 z"/>
</g>
<text x="-3027.3" y="3936.1" style="font-family:'Comic Sans MS'; font-size:19.3px; font-style:italic; color:black; overflow:visible; fill:#204a87; stroke-width:0.58px;">Present Value</text>
<text x="-2768.1" y="3936.1" style="font-family:'Comic Sans MS'; font-size:19.3px; font-style:italic; color:black; overflow:visible; fill:#4e9a06; stroke-width:0.58px;">Future Value</text>
<text x="-2858.5" y="3971.2" style="font-family:'Comic Sans MS'; font-size:24.6px; color:black; overflow:visible; fill:#999999; stroke-width:0.58px;">10%</text>
<g transform="rotate(180,-2839.01,3962.73)">
<path style="color:black; overflow:visible; fill:#729fcf; stroke-width:1.08;" d="m -2773.8,3952.2 c -5,-2.5 -10.3,-4.5 -15.6,-6.2 -7.5,-2.5 -15.2,-4.1 -22.9,-5.5 -5.2,-0.9 -10.4,-1.5 -15.6,-2 -5.4,-0.4 -10.9,-0.5 -16.3,-0.5 -5.4,0.1 -10.8,0.5 -16.1,1.1 -5.3,0.6 -10.6,1.4 -15.9,2.3 -5.7,0.8 -11.4,2.1 -17,3.7 -5.3,1.4 -10.3,3.7 -15.1,6.3 l 6.1,4.3 c 4.7,-2.3 9.5,-4.4 14.7,-5.7 5.5,-1.5 11.1,-2.6 16.7,-3.4 5.2,-0.8 10.5,-1.6 15.8,-2.1 5.3,-0.5 10.6,-0.9 15.9,-0.9 5.4,0 10.8,0.2 16.1,0.7 5.1,0.5 10.3,1.2 15.4,2.2 6.7,1.3 11,2.3 11.3,2.5 5.3,1.6 10.4,3.4 15.4,5.7 z"/>
<path style="color:black; overflow:visible; fill:#729fcf; stroke-width:1.08;" d="m -2779.3,3940.7 c 1.5,4.5 3.8,8.7 6,13 0.7,1.5 1.7,2.8 2.5,4.1 l -7.3,-0.6 c -0.8,-1.5 -1.8,-2.9 -2.5,-4.4 -2.3,-4.4 -4.6,-8.9 -6,-13.5 z"/>
<path style="color:black; overflow:visible; fill:#729fcf; stroke-width:1.08;" d="m -2796.4,3953.1 c 4.9,-0.4 9.9,-0.5 14.9,-0.6 1.6,-0.1 3.3,0.2 4.9,0.3 l 5.4,5.3 c -1.6,-0.2 -3.1,-0.5 -4.7,-0.5 -4.9,-0.1 -9.8,0 -14.6,0.4 z"/>
</g>
</g>
</svg>
