<?xml version="1.0" encoding="UTF-8" standalone="no"?>
<!-- Copyright 2017 mathsisfun.com -->
<svg xmlns="http://www.w3.org/2000/svg" xmlns:xlink="http://www.w3.org/1999/xlink" width="527.2" height="114.3" version="1.1">
<defs/>
<g transform="translate(1864.5,-5114.56)">
<text x="-1747.1" y="5180.9" style="font-family:'Comic Sans MS'; font-size:24px; font-style:italic; color:black; overflow:visible; fill:#ad7fa8; stroke-width:0.22px;">$1,000</text>
<text x="-1598.4" y="5180.9" style="font-family:'Comic Sans MS'; font-size:24px; font-style:italic; color:black; overflow:visible; fill:#ad7fa8; stroke-width:0.22px;">$1,050</text>
<text x="-1447.5" y="5180.9" style="font-family:'Comic Sans MS'; font-size:24px; font-style:italic; color:black; overflow:visible; fill:#ad7fa8; stroke-width:0.22px;">$1,102.50</text>
<text x="-1665.8" y="5224.2" style="font-family:'Comic Sans MS'; font-size:24px; font-style:italic; color:black; overflow:visible; fill:#c4a000; stroke-width:0.22px;">$50</text>
<text x="-1514.8" y="5224.2" style="font-family:'Comic Sans MS'; font-size:24px; font-style:italic; color:black; overflow:visible; fill:#c4a000; stroke-width:0.22px;">$52.50</text>
<g id="id2">
<path style="color:black; overflow:visible; fill:#afc9e4; stroke-width:1.32;" d="m -1640.8,5202.2 c -0.9,-3.3 -0.6,-6.5 0.1,-9.7 0.8,-3.1 2.6,-5.7 4.6,-8.3 2.1,-2.6 4.9,-4.6 7.7,-6.5 2.9,-1.9 6.4,-3 9.8,-4 4.6,-1.6 9,-1.7 13.9,-1.4 0.6,0.1 1.2,0.2 1.7,0.3 l -3.7,2.9 c -0.5,-0.1 -1.1,-0.1 -1.6,-0.2 -1.7,0 -11.2,0.7 -5.7,0 -3.3,0.8 -6.7,1.7 -9.6,3.4 -2.8,1.8 -5.5,3.6 -7.6,6 -1.9,2.3 -3.8,4.7 -4.6,7.5 -0.6,3 -1.1,5.9 -0.3,8.8 z"/>
<path style="color:black; overflow:visible; fill:#afc9e4; stroke-width:1.32;" d="m -1609.2,5166.6 c 2.5,1.7 5.4,3 8.3,4.4 0.9,0.5 2,0.8 2.9,1.2 l -4,2.6 c -1,-0.4 -2.1,-0.8 -3,-1.3 -2.9,-1.4 -5.9,-2.8 -8.5,-4.7 z"/>
<path style="color:black; overflow:visible; fill:#afc9e4; stroke-width:1.32;" d="m -1613.4,5179.2 c 2.7,-1.8 5.5,-3.4 8.4,-4.9 0.9,-0.5 1.9,-0.9 2.9,-1.3 l 4.8,1.4 c -1,0.4 -2,0.7 -2.9,1.2 -2.9,1.5 -5.6,3 -8.3,4.7 z"/>
<path style="color:black; overflow:visible; fill:#afc9e4; stroke-width:1.32;" d="m -1667.3,5174.8 c 2.8,-1.8 5.9,-3 9.1,-4.2 4.6,-1.7 9.1,-1.8 13.8,-1.6 3.4,0.1 6.6,0.6 9.9,1.2 3.2,0.8 6.4,1.5 9.6,2.1 3.2,0.5 6.4,0.5 9.6,0.5 2.7,0.1 5.3,-0.5 8,-1 l -3.1,3.4 c -2.8,0.4 -5.5,0.9 -8.3,0.7 -3.3,-0.1 -6.6,-0.1 -9.8,-0.7 -3.2,-0.6 -6.4,-1.4 -9.7,-2.1 -3.2,-0.5 -6.4,-0.9 -9.7,-1 -5.4,0 -5.5,0.1 -5.6,0 -3.1,1 -6.2,2.1 -8.9,3.8 z"/>
</g>
<text x="-1865.1" y="5177.8" style="font-family:'Comic Sans MS'; font-size:17.6px; color:black; overflow:visible; fill:#ad7fa8; stroke-width:0.22px;">Investment:</text>
<text x="-1843.7" y="5217.2" style="font-family:'Comic Sans MS'; font-size:17.6px; color:black; overflow:visible; fill:#c4a000; stroke-width:0.22px;">Interest:</text>
<path style="fill:#3465a4; fill-opacity:0.75; stroke:#729fcf; stroke-width:1.52;" d="m -1700.5,5125.3 v 27.1"/>
<path style="fill:none; fill-opacity:0.75; stroke:#729fcf; stroke-width:1.52;" d="m -1400.3,5125.3 v 27.1"/>
<path style="color:black; overflow:visible; fill:#e9b96e; stroke-width:1.32;" d="m -1425.7,5124.3 c 3.4,0.8 6.5,2.4 9.6,3.9 3,1.5 6.2,2.5 9.4,3.3 2.1,0.4 4.3,0.5 6.5,0.6 l -3.5,3.6 c -2.3,-0.2 -4.5,-0.3 -6.7,-0.9 -3.3,-1 -6.6,-2.1 -9.7,-3.6 -3,-1.4 -6,-2.9 -9.3,-3.5 z"/>
<path style="color:black; overflow:visible; fill:#e9b96e; stroke-width:1.32;" d="m -1430.1,5143.5 c 3,-1.9 6,-3.5 9.1,-5.1 3,-1.5 6.2,-2.7 9.4,-3.7 4.1,-1.6 8.1,-2 12.4,-1.9 l -3.5,3.6 c -1.3,0.1 -9.7,1.2 -4.2,0.2 -3.2,1 -6.3,2 -9.3,3.4 -3.1,1.5 -6.2,3.1 -9.1,4.9 z"/>
<path style="color:black; overflow:visible; fill:#e9b96e; stroke-width:1.32;" d="m -1675.1,5126.6 c -3.4,0.8 -6.5,2.4 -9.6,3.9 -3,1.5 -6.2,2.5 -9.4,3.3 -2.1,0.4 -4.3,0.5 -6.5,0.6 l 3.5,3.6 c 2.3,-0.2 4.5,-0.3 6.7,-0.9 3.3,-1 6.6,-2.1 9.7,-3.6 3,-1.4 6,-2.9 9.3,-3.5 z"/>
<path style="color:black; overflow:visible; fill:#e9b96e; stroke-width:1.32;" d="m -1670.1,5145.2 c -3,-1.9 -6,-3.5 -9.1,-5.1 -3,-1.5 -6.2,-2.7 -9.4,-3.7 -4.1,-1.6 -8.1,-2 -12.4,-1.9 l 3.5,3.6 c 1.3,0.1 9.7,1.2 4.2,0.2 3.2,1 6.3,2 9.3,3.4 3.1,1.5 6.2,3.1 9.1,4.9 z"/>
<path style="color:black; overflow:visible; fill:#e9b96e; stroke-width:1.33;" d="m -1680.7,5133.8 c 21.6,-0.4 43.3,-0.7 65,-1.1 22.4,-0.5 44.8,-0.7 67.3,-0.8 21.9,0 43.8,0.1 65.7,0.1 21.3,-0.1 42.1,0.6 62.9,1.2 6.3,0.4 12.9,0 19.2,0 l -21.4,3.7 c -7,-0.1 -14.2,0 -21.1,-0.4 -20.3,-0.6 -40.6,-1.1 -61.3,-1 -21.7,-0.1 -43.4,-0.1 -65.2,0 -22.3,0.2 -44.5,0.5 -66.7,0.9 -21.5,0.4 -43.1,0.7 -64.6,1.2 z"/>
<text x="-1587.4" y="5127.6" style="font-family:'Comic Sans MS'; font-size:17.6px; color:black; overflow:visible; fill:#e9b96e; stroke-width:0.22px;">One Year</text>
<rect x="-3100" y="2947.4" width="955" height="275"/>
<g id="id1" transform="translate(12.8885,-69.5058)">
<text x="-1737.5" y="5286.5" style="font-family:'Comic Sans MS'; font-size:29.8px; color:black; overflow:visible; fill:#c4a000; stroke-width:0.22px;">×</text>
<path style="color:black; overflow:visible; fill:#ffeb3f; stroke-width:1.32;" d="m -1718.8,5257.7 c -0.1,3.6 0.6,7 1.6,10.2 1.1,3.1 2.8,5.6 4.8,7.9 2,2.4 4.4,4 6.8,5.6 2.5,1.5 5.2,2.1 8,2.5 3.7,0.9 7,0.3 10.6,-0.8 0.4,-0.2 0.8,-0.4 1.2,-0.6 l -3.2,-2.5 c -0.4,0.1 -0.8,0.3 -1.2,0.4 -1.2,0.3 -8.5,1.1 -4.2,0.9 -2.6,-0.3 -5.2,-0.6 -7.7,-1.9 -2.4,-1.4 -4.7,-2.9 -6.6,-5 -1.8,-2.1 -3.6,-4.3 -4.6,-7.1 -0.9,-3 -1.8,-6 -1.6,-9.3 z"/>
<path style="color:black; overflow:visible; fill:#ffeb3f; stroke-width:1.32;" d="m -1689.6,5290 c 1.6,-2.3 3.6,-4.1 5.5,-6 0.6,-0.7 1.3,-1.2 2,-1.7 l -3.4,-2 c -0.7,0.6 -1.4,1.2 -2,1.9 -2,2 -4,3.9 -5.6,6.3 z"/>
<path style="color:black; overflow:visible; fill:#ffeb3f; stroke-width:1.32;" d="m -1694.7,5277.5 c 2.3,1.4 4.7,2.6 7,3.8 0.8,0.4 1.6,0.6 2.4,0.9 l 3.3,-2.2 c -0.8,-0.3 -1.6,-0.4 -2.3,-0.8 -2.4,-1.1 -4.7,-2.3 -7,-3.6 z"/>
<text x="-1722.3" y="5284" style="font-family:'Comic Sans MS'; font-size:19.9px; color:black; overflow:visible; fill:#c4a000; stroke-width:0.22px;">5%</text>
</g>
<use transform="translate(151.44,0.460343)" xlink:href="#id1" x="0" y="0"/>
<use transform="translate(150)" xlink:href="#id2" x="0" y="0"/>
</g>
</svg>
