<?xml version="1.0" encoding="UTF-8" standalone="no"?>
<!-- Created with Inkscape (http://www.inkscape.org/) -->

<svg
   xmlns:dc="http://purl.org/dc/elements/1.1/"
   xmlns:cc="http://creativecommons.org/ns#"
   xmlns:rdf="http://www.w3.org/1999/02/22-rdf-syntax-ns#"
   xmlns:svg="http://www.w3.org/2000/svg"
   xmlns="http://www.w3.org/2000/svg"
   xmlns:sodipodi="http://sodipodi.sourceforge.net/DTD/sodipodi-0.dtd"
   xmlns:inkscape="http://www.inkscape.org/namespaces/inkscape"
   id="svg2"
   xml:space="preserve"
   viewBox="0 0 172.87 136.218"
   version="1.1"
   sodipodi:docname="fruit-salad.svg"
   width="172.87"
   height="136.218"
   inkscape:version="0.92.2 (5c3e80d, 2017-08-06)"><sodipodi:namedview
     pagecolor="#ffffff"
     bordercolor="#666666"
     borderopacity="1"
     objecttolerance="10"
     gridtolerance="10"
     guidetolerance="10"
     inkscape:pageopacity="0"
     inkscape:pageshadow="2"
     inkscape:window-width="640"
     inkscape:window-height="480"
     id="namedview402"
     showgrid="false"
     inkscape:current-layer="svg2" /><defs
     id="defs6"><linearGradient
       id="linearGradient24"
       y2="19.826"
       gradientUnits="userSpaceOnUse"
       x2="44.75"
       gradientTransform="matrix(0.6,0,0,-0.6,0,21.181)"
       y1="19.826"
       x1="0.25"><stop
         id="stop26"
         style="stop-color:#557c8c"
         offset="0" /><stop
         id="stop28"
         style="stop-color:#86a7b5"
         offset="1" /></linearGradient><radialGradient
       id="radialGradient44"
       gradientUnits="userSpaceOnUse"
       cy="-8.2578"
       cx="24.272"
       gradientTransform="matrix(0.40648,-0.44136,0.46056,0.41168,7.4976,27.883)"
       r="4.2993"><stop
         id="stop46"
         style="stop-color:#bd325a"
         offset="0" /><stop
         id="stop48"
         style="stop-color:#70102e"
         offset="1" /></radialGradient><radialGradient
       id="radialGradient62"
       gradientUnits="userSpaceOnUse"
       cy="-13.41"
       cx="26.599"
       gradientTransform="matrix(0.40296,-0.44456,0.44744,0.4056,11.962,32.024)"
       r="4.406"><stop
         id="stop64"
         style="stop-color:#821725"
         offset="0" /><stop
         id="stop66"
         style="stop-color:#5c1320"
         offset="1" /></radialGradient><clipPath
       id="clipPath76"><path
         id="path78"
         d="m 18,12.181 h 1 v 3 h -1 z"
         inkscape:connector-curvature="0" /></clipPath><mask
       id="mask80"><g
         id="g82"><g
           id="g84"
           clip-path="url(#clipPath76)"><path
             id="path86"
             style="fill:#000000;fill-opacity:0.3281"
             d="m 18,12.181 h 1 v 3 h -1 z"
             inkscape:connector-curvature="0" /></g></g></mask><clipPath
       id="clipPath92"><path
         id="path94"
         d="m 18,12.181 h 1 v 3 h -1 z"
         inkscape:connector-curvature="0" /></clipPath><clipPath
       id="clipPath96"><path
         id="path98"
         d="m 18,13 h 1 v 3 h -1 z"
         inkscape:connector-curvature="0" /></clipPath><radialGradient
       id="radialGradient126"
       gradientUnits="userSpaceOnUse"
       cy="8.1099"
       cx="12.383"
       gradientTransform="matrix(0.47768,-0.36312,0.3664,0.482,-5.9168,13.398)"
       r="4.4"><stop
         id="stop128"
         style="stop-color:#821725"
         offset="0" /><stop
         id="stop130"
         style="stop-color:#5c1320"
         offset="1" /></radialGradient><clipPath
       id="clipPath140"><path
         id="path142"
         d="m 4,10.181 h 2 v 3 H 4 Z"
         inkscape:connector-curvature="0" /></clipPath><mask
       id="mask144"><g
         id="g146"><g
           id="g148"
           clip-path="url(#clipPath140)"><path
             id="path150"
             style="fill:#000000;fill-opacity:0.3281"
             d="m 4,10.181 h 2 v 3 H 4 Z"
             inkscape:connector-curvature="0" /></g></g></mask><clipPath
       id="clipPath156"><path
         id="path158"
         d="m 4,10.181 h 2 v 3 H 4 Z"
         inkscape:connector-curvature="0" /></clipPath><clipPath
       id="clipPath160"><path
         id="path162"
         d="m 4,11 h 2 v 3 H 4 Z"
         inkscape:connector-curvature="0" /></clipPath><radialGradient
       id="radialGradient190"
       gradientUnits="userSpaceOnUse"
       cy="9.876"
       cx="25.345"
       gradientTransform="matrix(0.47768,-0.36312,0.3664,0.482,-7.2052,11.703)"
       r="4.4"><stop
         id="stop192"
         style="stop-color:#bd325a"
         offset="0" /><stop
         id="stop194"
         style="stop-color:#40091a"
         offset="1" /></radialGradient><clipPath
       id="clipPath204"><path
         id="path206"
         d="m 10,5.1808 h 1 v 3 h -1 z"
         inkscape:connector-curvature="0" /></clipPath><mask
       id="mask208"><g
         id="g210"><g
           id="g212"
           clip-path="url(#clipPath204)"><path
             id="path214"
             style="fill:#000000;fill-opacity:0.3281"
             d="m 10,5.1808 h 1 v 3 h -1 z"
             inkscape:connector-curvature="0" /></g></g></mask><clipPath
       id="clipPath220"><path
         id="path222"
         d="m 10,5.1808 h 1 v 3 h -1 z"
         inkscape:connector-curvature="0" /></clipPath><clipPath
       id="clipPath224"><path
         id="path226"
         d="m 10,6 h 1 v 3 h -1 z"
         inkscape:connector-curvature="0" /></clipPath><linearGradient
       id="linearGradient254"
       y2="24.65"
       gradientUnits="userSpaceOnUse"
       x2="31.712"
       gradientTransform="matrix(0.6,0,0,-0.6,0,21.181)"
       y1="24.65"
       x1="28.787"><stop
         id="stop256"
         style="stop-color:#fff9d1"
         offset="0" /><stop
         id="stop258"
         style="stop-color:#fff08e"
         offset="1" /></linearGradient><linearGradient
       id="linearGradient272"
       y2="30.396"
       gradientUnits="userSpaceOnUse"
       x2="26.087"
       gradientTransform="matrix(0.6,0,0,-0.6,0,21.181)"
       y1="30.396"
       x1="19.212"><stop
         id="stop274"
         style="stop-color:#fff9d1"
         offset="0" /><stop
         id="stop276"
         style="stop-color:#fff08e"
         offset="1" /></linearGradient><linearGradient
       id="linearGradient294"
       y2="32.225"
       gradientUnits="userSpaceOnUse"
       x2="26.913"
       gradientTransform="matrix(0.6,0,0,-0.6,0,21.181)"
       y1="32.225"
       x1="19.288"><stop
         id="stop296"
         style="stop-color:#e63c39"
         offset="0" /><stop
         id="stop298"
         style="stop-color:#821e00"
         offset="1" /></linearGradient><linearGradient
       id="linearGradient312"
       y2="-19.825"
       gradientUnits="userSpaceOnUse"
       x2="11.234"
       gradientTransform="matrix(-0.46096,-0.38408,-0.38408,0.46096,-6.4e-4,21.181)"
       y1="-19.825"
       x1="4.3999"><stop
         id="stop314"
         style="stop-color:#fff9d1"
         offset="0" /><stop
         id="stop316"
         style="stop-color:#fff08e"
         offset="1" /></linearGradient><linearGradient
       id="linearGradient330"
       y2="-17.984"
       gradientUnits="userSpaceOnUse"
       x2="12.079"
       gradientTransform="matrix(-0.46096,-0.38408,-0.38408,0.46096,0,21.181)"
       y1="-17.984"
       x1="4.4639"><stop
         id="stop332"
         style="stop-color:#e63c39"
         offset="0" /><stop
         id="stop334"
         style="stop-color:#821e00"
         offset="1" /></linearGradient><linearGradient
       id="linearGradient348"
       y2="25.725"
       gradientUnits="userSpaceOnUse"
       x2="31.738"
       gradientTransform="matrix(0.6,0,0,-0.6,0,21.181)"
       y1="25.725"
       x1="27.963"><stop
         id="stop350"
         style="stop-color:#e63c39"
         offset="0" /><stop
         id="stop352"
         style="stop-color:#821e00"
         offset="1" /></linearGradient><linearGradient
       id="linearGradient366"
       y2="14.367"
       gradientUnits="userSpaceOnUse"
       x2="9.6426"
       gradientTransform="matrix(0.6,0,0,-0.6,0,21.181)"
       y1="15.913"
       x1="18.068"><stop
         id="stop368"
         style="stop-color:#e63c39"
         offset="0" /><stop
         id="stop370"
         style="stop-color:#821e00"
         offset="1" /></linearGradient><linearGradient
       id="linearGradient384"
       y2="18.57"
       gradientUnits="userSpaceOnUse"
       x2="9.6597"
       gradientTransform="matrix(0.6,0,0,-0.6,0,21.181)"
       y1="14.344"
       x1="22.884"><stop
         id="stop386"
         style="stop-color:#fff9d1"
         offset="0" /><stop
         id="stop388"
         style="stop-color:#fff08e"
         offset="1" /></linearGradient><linearGradient
       id="linearGradient414"
       y2="4.1302"
       gradientUnits="userSpaceOnUse"
       x2="25.732"
       gradientTransform="matrix(0.6,0,0,-0.6,0,21.181)"
       y1="10.531"
       x1="26.653"><stop
         id="stop416"
         style="stop-color:#e63c39"
         offset="0" /><stop
         id="stop418"
         style="stop-color:#821e00"
         offset="1" /></linearGradient><linearGradient
       id="linearGradient432"
       y2="5.2738"
       gradientUnits="userSpaceOnUse"
       x2="22.828"
       gradientTransform="matrix(0.6,0,0,-0.6,0,21.181)"
       y1="13.749"
       x1="29.053"><stop
         id="stop434"
         style="stop-color:#fff9d1"
         offset="0" /><stop
         id="stop436"
         style="stop-color:#fff08e"
         offset="1" /></linearGradient><radialGradient
       id="radialGradient450"
       gradientUnits="userSpaceOnUse"
       cy="-14.374"
       cx="17.533"
       gradientTransform="matrix(0.33776,-0.49592,0.49832,0.33944,14.29,30.914)"
       r="5.5822"><stop
         id="stop452"
         style="stop-color:#821725"
         offset="0" /><stop
         id="stop454"
         style="stop-color:#5c1320"
         offset="1" /></radialGradient><clipPath
       id="clipPath464"><path
         id="path466"
         d="m 14,14.181 h 2 v 3 h -2 z"
         inkscape:connector-curvature="0" /></clipPath><mask
       id="mask468"><g
         id="g470"><g
           id="g472"
           clip-path="url(#clipPath464)"><path
             id="path474"
             style="fill:#000000;fill-opacity:0.3281"
             d="m 14,14.181 h 2 v 3 h -2 z"
             inkscape:connector-curvature="0" /></g></g></mask><clipPath
       id="clipPath480"><path
         id="path482"
         d="m 14,14.181 h 2 v 3 h -2 z"
         inkscape:connector-curvature="0" /></clipPath><clipPath
       id="clipPath484"><path
         id="path486"
         d="m 14,15 h 2 v 3 h -2 z"
         inkscape:connector-curvature="0" /></clipPath><radialGradient
       id="radialGradient518"
       gradientUnits="userSpaceOnUse"
       cy="1.4785"
       cx="32.991"
       gradientTransform="matrix(0.33776,-0.49592,0.49832,0.33944,-1.4699,20.179)"
       r="5.5822"><stop
         id="stop520"
         style="stop-color:#bd325a"
         offset="0" /><stop
         id="stop522"
         style="stop-color:#821337"
         offset="1" /></radialGradient><clipPath
       id="clipPath532"><path
         id="path534"
         d="m 11,1.1808 h 3 v 3 h -3 z"
         inkscape:connector-curvature="0" /></clipPath><mask
       id="mask536"><g
         id="g538"><g
           id="g540"
           clip-path="url(#clipPath532)"><path
             id="path542"
             style="fill:#000000;fill-opacity:0.3281"
             d="m 11,1.1808 h 3 v 3 h -3 z"
             inkscape:connector-curvature="0" /></g></g></mask><clipPath
       id="clipPath548"><path
         id="path550"
         d="m 11,1.1808 h 3 v 3 h -3 z"
         inkscape:connector-curvature="0" /></clipPath><clipPath
       id="clipPath552"><path
         id="path554"
         d="m 11,2 h 3 v 3 h -3 z"
         inkscape:connector-curvature="0" /></clipPath><radialGradient
       id="radialGradient586"
       gradientUnits="userSpaceOnUse"
       cy="-8.896"
       cx="33.566"
       gradientTransform="matrix(0.51576,-0.30648,0.30888,0.51976,5.4744,30.393)"
       r="5.5696"><stop
         id="stop588"
         style="stop-color:#821725"
         offset="0" /><stop
         id="stop590"
         style="stop-color:#5c1320"
         offset="1" /></radialGradient><clipPath
       id="clipPath600"><path
         id="path602"
         d="m 22,13.181 h 2 v 3 h -2 z"
         inkscape:connector-curvature="0" /></clipPath><mask
       id="mask604"><g
         id="g606"><g
           id="g608"
           clip-path="url(#clipPath600)"><path
             id="path610"
             style="fill:#000000;fill-opacity:0.3281"
             d="m 22,13.181 h 2 v 3 h -2 z"
             inkscape:connector-curvature="0" /></g></g></mask><clipPath
       id="clipPath616"><path
         id="path618"
         d="m 22,13.181 h 2 v 3 h -2 z"
         inkscape:connector-curvature="0" /></clipPath><clipPath
       id="clipPath620"><path
         id="path622"
         d="m 22,14 h 2 v 3 h -2 z"
         inkscape:connector-curvature="0" /></clipPath><radialGradient
       id="radialGradient650"
       gradientUnits="userSpaceOnUse"
       cy="2.3423"
       cx="24.691"
       gradientTransform="matrix(0.44736,-0.39984,0.4028,0.45072,-1.8799,19.078)"
       r="5.5786"><stop
         id="stop652"
         style="stop-color:#821725"
         offset="0" /><stop
         id="stop654"
         style="stop-color:#5c1320"
         offset="1" /></radialGradient><clipPath
       id="clipPath664"><path
         id="path666"
         d="m 12,7.1808 h 2 v 3 h -2 z"
         inkscape:connector-curvature="0" /></clipPath><mask
       id="mask668"><g
         id="g670"><g
           id="g672"
           clip-path="url(#clipPath664)"><path
             id="path674"
             style="fill:#000000;fill-opacity:0.3281"
             d="m 12,7.1808 h 2 v 3 h -2 z"
             inkscape:connector-curvature="0" /></g></g></mask><clipPath
       id="clipPath680"><path
         id="path682"
         d="m 12,7.1808 h 2 v 3 h -2 z"
         inkscape:connector-curvature="0" /></clipPath><clipPath
       id="clipPath684"><path
         id="path686"
         d="m 12,8 h 2 v 3 h -2 z"
         inkscape:connector-curvature="0" /></clipPath><linearGradient
       id="linearGradient718"
       y2="27.656"
       gradientUnits="userSpaceOnUse"
       x2="15.688"
       gradientTransform="matrix(0.6,0,0,-0.6,0,21.181)"
       y1="27.656"
       x1="10.312"><stop
         id="stop720"
         style="stop-color:#fff9d1"
         offset="0" /><stop
         id="stop722"
         style="stop-color:#fff08e"
         offset="1" /></linearGradient><linearGradient
       id="linearGradient736"
       y2="28.125"
       gradientUnits="userSpaceOnUse"
       x2="14.45"
       gradientTransform="matrix(0.6,0,0,-0.6,0,21.181)"
       y1="28.125"
       x1="8.9502"><stop
         id="stop738"
         style="stop-color:#e63c39"
         offset="0" /><stop
         id="stop740"
         style="stop-color:#821e00"
         offset="1" /></linearGradient><radialGradient
       id="radialGradient758"
       gradientUnits="userSpaceOnUse"
       cy="-1.5864"
       cx="31.251"
       gradientTransform="matrix(0.4748,-0.3668,0.36976,0.47864,1.1688,22.693)"
       r="6.8829"><stop
         id="stop760"
         style="stop-color:#821725"
         offset="0" /><stop
         id="stop762"
         style="stop-color:#5c1320"
         offset="1" /></radialGradient><clipPath
       id="clipPath772"><path
         id="path774"
         d="m 18,7.1808 h 2 v 3 h -2 z"
         inkscape:connector-curvature="0" /></clipPath><mask
       id="mask776"><g
         id="g778"><g
           id="g780"
           clip-path="url(#clipPath772)"><path
             id="path782"
             style="fill:#000000;fill-opacity:0.3281"
             d="m 18,7.1808 h 2 v 3 h -2 z"
             inkscape:connector-curvature="0" /></g></g></mask><clipPath
       id="clipPath788"><path
         id="path790"
         d="m 18,7.1808 h 2 v 3 h -2 z"
         inkscape:connector-curvature="0" /></clipPath><clipPath
       id="clipPath792"><path
         id="path794"
         d="m 18,8 h 2 v 3 h -2 z"
         inkscape:connector-curvature="0" /></clipPath><clipPath
       id="clipPath852"><path
         id="path854"
         d="m 2,-0.8192 h 15 v 9 H 2 Z"
         inkscape:connector-curvature="0" /></clipPath><mask
       id="mask856"><g
         id="g858"><g
           id="g860"
           clip-path="url(#clipPath852)"><path
             id="path862"
             style="fill:#000000;fill-opacity:0.4414"
             d="m 2,-0.8192 h 15 v 9 H 2 Z"
             inkscape:connector-curvature="0" /></g></g></mask><clipPath
       id="clipPath868"><path
         id="path870"
         d="m 2,-0.8192 h 15 v 9 H 2 Z"
         inkscape:connector-curvature="0" /></clipPath><clipPath
       id="clipPath872"><path
         id="path874"
         d="M 2,0 H 17 V 9 H 2 Z"
         inkscape:connector-curvature="0" /></clipPath><linearGradient
       id="linearGradient880"
       y2="-33.543"
       gradientUnits="userSpaceOnUse"
       x2="-7.9905"
       gradientTransform="matrix(0.6,-0.00198,0.00198,0.6,18.553,25.011)"
       y1="-33.543"
       x1="-23.266"><stop
         id="stop882"
         style="stop-color:#ffffff"
         offset="0" /><stop
         id="stop884"
         style="stop-color:#a0daf2"
         offset="1" /></linearGradient><clipPath
       id="clipPath912"><path
         id="path914"
         d="m 0,1.1808 h 8 v 9 H 0 Z"
         inkscape:connector-curvature="0" /></clipPath><mask
       id="mask916"><g
         id="g918"><g
           id="g920"
           clip-path="url(#clipPath912)"><path
             id="path922"
             style="fill:#000000;fill-opacity:0.1719"
             d="m 0,1.1808 h 8 v 9 H 0 Z"
             inkscape:connector-curvature="0" /></g></g></mask><clipPath
       id="clipPath928"><path
         id="path930"
         d="m 0,1.1808 h 8 v 9 H 0 Z"
         inkscape:connector-curvature="0" /></clipPath><clipPath
       id="clipPath932"><path
         id="path934"
         d="m 0,2 h 8 v 9 H 0 Z"
         inkscape:connector-curvature="0" /></clipPath></defs><g
     id="g14"
     transform="matrix(6.43143,0,0,-6.43143,0,136.224)"><g
       id="g16"><g
         id="g22"><path
           style="fill:url(#linearGradient24);fill-rule:evenodd"
           d="M 22.922,11.04 C 24.2169,10.7368 25.7019,10.6037 26.7099,9.65268 27.1498,8.341 25.1494,8.10709 24.2561,7.79174 19.4483,6.70181 14.4721,6.67971 9.5695,6.88293 6.72498,7.08333 3.81031,7.28234 1.12375,8.30388 -0.502381,8.71872 0.393305,10.3666 1.67261,10.4536 c 4.15927,1.2163 8.54259,1.3459 12.84819,1.3298 2.8126,-0.041 5.6336,-0.2186 8.4012,-0.7434 z"
           id="path30"
           inkscape:connector-curvature="0" /></g></g></g><path
     style="fill:#b6e0f2;fill-rule:evenodd;stroke-width:6.43143"
     d="m 172.87,75.2412 c -5.741,0.9372 -7.598,-6.7234 -14.158,-6.4218 C 130.242,62.013 100.694,61.8574 71.5792,62.3391 51.2018,63.1919 30.4283,64.0698 10.853,70.2311 6.06362,71.318 5.30258,76.8242 0,75.2412 c 4.33123,-6.854 13.7602,-7.3878 20.9218,-9.4684 32.7548,-6.3555 66.4138,-6.5298 99.6032,-4.3212 15.646,1.5068 31.657,2.9282 46.398,8.7184 2.321,1.1409 5.028,2.4399 5.947,5.0712 z"
     id="path32"
     inkscape:connector-curvature="0" /><g
     id="g34"
     transform="matrix(6.43143,0,0,-6.43143,0,136.224)"><g
       id="g36"><g
         id="g42"><path
           style="fill:url(#radialGradient44);fill-rule:evenodd"
           d="m 15.93,14.22 c 0.8342,-1.0119 0.1032,-2.3874 -0.9098,-2.9322 -1.1129,-0.8056 -2.9845,-0.1692 -3.0784,1.286 -0.1806,1.5285 1.5811,2.5301 2.924,2.3374 0.4272,-0.082 0.8166,-0.3326 1.0642,-0.6912 z"
           id="path50"
           inkscape:connector-curvature="0" /></g></g></g><g
     id="g52"
     transform="matrix(6.43143,0,0,-6.43143,0,136.224)"><g
       id="g54"><g
         id="g60"><path
           style="fill:url(#radialGradient62);fill-rule:evenodd"
           d="m 19.02,15.181 c 0.8107,-0.9939 0.1842,-2.4211 -0.8506,-2.9634 -1.1532,-0.8276 -3.0186,-0.135 -3.1331,1.3406 -0.2903,1.9423 2.869,3.2974 3.9837,1.6228 z"
           id="path68"
           inkscape:connector-curvature="0" /></g></g></g><path
     style="fill:#ad5d80;fill-rule:evenodd;stroke-width:6.43143"
     d="m 104.961,38.5885 c 11.082,-4.7619 -5.726,16.7519 -4.045,4.6242 0.74,-1.9436 2.067,-3.8017 4.045,-4.6242 z"
     id="path70"
     inkscape:connector-curvature="0" /><g
     id="g72"
     transform="matrix(6.43143,0,0,-6.43143,0,136.224)"><g
       id="g88"
       mask="url(#mask80)"><g
         id="g100"><g
           id="g102"
           clip-path="url(#clipPath92)"><g
             id="g104"
             transform="translate(0,-0.8192)"><g
               id="g108"><g
                 id="g110"
                 clip-path="url(#clipPath96)"><g
                   id="g112"><path
                     style="fill:#ffffff;fill-rule:evenodd"
                     d="m 18.98,14.609 c 0.088,-0.7833 -1.3524,-1.597 -0.4725,-0.4782 0.158,0.3416 0.563,1.5418 0.4725,0.4782 z"
                     id="path114"
                     inkscape:connector-curvature="0" /></g></g></g></g></g></g></g></g><g
     id="g116"
     transform="matrix(6.43143,0,0,-6.43143,0,136.224)"><g
       id="g118"><g
         id="g124"><path
           style="fill:url(#radialGradient126);fill-rule:evenodd"
           d="M 5.219,13.65 C 6.30715,12.6661 5.67076,10.9131 4.51513,10.2904 3.36639,9.55545 1.59546,10.2651 1.50895,11.6883 1.31326,13.4174 3.90739,15.0127 5.219,13.65 Z"
           id="path132"
           inkscape:connector-curvature="0" /></g></g></g><path
     style="fill:#ad5d80;fill-rule:evenodd;stroke-width:6.43143"
     d="m 16.4066,51.5028 c 10.1337,-6.6707 -2.3939,17.6967 -3.2929,5.2287 0.4405,-2.051 1.5308,-4.028 3.2929,-5.2287 z"
     id="path134"
     inkscape:connector-curvature="0" /><g
     id="g136"
     transform="matrix(6.43143,0,0,-6.43143,0,136.224)"><g
       id="g152"
       mask="url(#mask144)"><g
         id="g164"><g
           id="g166"
           clip-path="url(#clipPath156)"><g
             id="g168"
             transform="translate(0,-0.8192)"><g
               id="g172"><g
                 id="g174"
                 clip-path="url(#clipPath160)"><g
                   id="g176"><path
                     style="fill:#ffffff;fill-rule:evenodd"
                     d="M 5.422,13.121 C 5.67648,12.3667 4.36561,11.2685 5.03688,12.5423 5.10239,12.8796 5.32181,14.1374 5.422,13.121 Z"
                     id="path178"
                     inkscape:connector-curvature="0" /></g></g></g></g></g></g></g></g><g
     id="g180"
     transform="matrix(6.43143,0,0,-6.43143,0,136.224)"><g
       id="g182"><g
         id="g188"><path
           style="fill:url(#radialGradient190);fill-rule:evenodd"
           d="M 10.77,8.103 C 12.0076,6.98865 11.03,4.93059 9.59711,4.55203 8.33673,4.06194 6.85613,5.19072 7.06127,6.53892 7.25144,7.81946 8.70682,8.79309 9.96426,8.56709 10.2707,8.49451 10.5494,8.32588 10.77,8.103 Z"
           id="path196"
           inkscape:connector-curvature="0" /></g></g></g><path
     style="fill:#f797b1;fill-rule:evenodd;stroke-width:6.43143"
     d="m 52.1074,87.2036 c 10.062,-6.5463 -2.4103,18.0524 -3.2928,5.2224 0.4156,-2.058 1.5146,-4.0422 3.2928,-5.2224 z"
     id="path198"
     inkscape:connector-curvature="0" /><g
     id="g200"
     transform="matrix(6.43143,0,0,-6.43143,0,136.224)"><g
       id="g216"
       mask="url(#mask208)"><g
         id="g228"><g
           id="g230"
           clip-path="url(#clipPath220)"><g
             id="g232"
             transform="translate(0,-0.8192)"><g
               id="g236"><g
                 id="g238"
                 clip-path="url(#clipPath224)"><g
                   id="g240"><path
                     style="fill:#ffffff;fill-rule:evenodd"
                     d="M 10.941,7.559 C 11.2071,6.82861 9.89136,5.71596 10.5574,6.96675 c 0.07,0.33284 0.2797,1.61439 0.3836,0.59225 z"
                     id="path242"
                     inkscape:connector-curvature="0" /></g></g></g></g></g></g></g></g><g
     id="g244"
     transform="matrix(6.43143,0,0,-6.43143,0,136.224)"><g
       id="g246"><g
         id="g252"><path
           style="fill:url(#linearGradient254);fill-rule:evenodd"
           d="M 18.09,5.552 C 17.6664,5.52387 17.0724,5.32613 17.3205,5.96646 17.357,6.40764 17.3935,6.84882 17.43,7.29 17.9342,6.93472 18.4238,6.53323 19.051,6.419 18.7307,6.13 18.4103,5.841 18.09,5.552 Z"
           id="path260"
           inkscape:connector-curvature="0" /></g></g></g><g
     id="g262"
     transform="matrix(6.43143,0,0,-6.43143,0,136.224)"><g
       id="g264"><g
         id="g270"><path
           style="fill:url(#linearGradient272);fill-rule:evenodd"
           d="M 14.551,1.56 C 13.7022,1.21028 12.0637,1.05985 11.6266,1.64672 12.1291,2.69596 12.8378,3.6293 13.441,4.622 14.0353,3.73072 14.6464,2.80938 15.66,2.341 15.2903,2.08067 14.9207,1.82033 14.551,1.56 Z"
           id="path278"
           inkscape:connector-curvature="0" /></g></g></g><path
     style="fill:#f5eca2;fill-rule:evenodd;stroke-width:6.43143"
     d="m 120.01,74.463 c 3.928,-8.5493 7.855,-17.0993 11.783,-25.6486 3.1,1.8928 6.909,3.192 9.583,5.4423 2.959,6.8488 2.917,14.6167 0.212,21.5763 -2.759,6.1279 -4.732,14.7239 -11.93,16.9724 -4.245,-0.9626 -8.49,-1.9251 -12.735,-2.8877 1.029,-5.1516 2.058,-10.3031 3.087,-15.4547 z"
     id="path280"
     inkscape:connector-curvature="0" /><path
     style="fill:#fffac4;fill-rule:evenodd;stroke-width:6.43143"
     d="m 126.969,48.6151 c 9.703,-1.9944 9.302,11.3244 7.566,17.6214 -2.185,8.7029 -4.885,19.9016 -14.531,22.9964 -9.343,2.8379 -10.017,-9.0777 -8.188,-15.2287 1.948,-9.5292 4.608,-21.9741 15.153,-25.3891 z"
     id="path282"
     inkscape:connector-curvature="0" /><g
     id="g284"
     transform="matrix(6.43143,0,0,-6.43143,0,136.224)"><g
       id="g286"><g
         id="g292"><path
           style="fill:url(#linearGradient294);fill-rule:evenodd"
           d="M 15.48,2.673 C 15.7003,2.32267 15.9207,1.97233 16.141,1.622 14.8525,1.00159 13.3984,1.01147 12,1.021 c -0.2408,0.34772 -0.6653,0.78485 0.056,0.66435 1.2141,0.0212 2.3894,0.33404 3.4242,0.98765 z"
           id="path300"
           inkscape:connector-curvature="0" /></g></g></g><g
     id="g302"
     transform="matrix(6.43143,0,0,-6.43143,0,136.224)"><g
       id="g304"><g
         id="g310"><path
           style="fill:url(#linearGradient312);fill-rule:evenodd"
           d="M 4.652,11.489 C 4.83167,10.2793 5.01133,9.06967 5.191,7.86 4.21987,8.14931 3.21691,8.46738 2.19757,8.2113 1.85861,8.21986 2.33131,8.94807 2.32023,9.24734 2.60638,10.3177 3.7397,10.9872 4.652,11.489 Z"
           id="path318"
           inkscape:connector-curvature="0" /></g></g></g><g
     id="g320"
     transform="matrix(6.43143,0,0,-6.43143,0,136.224)"><g
       id="g322"><g
         id="g328"><path
           style="fill:url(#linearGradient330);fill-rule:evenodd"
           d="M 2.398,8.071 C 1.99833,8.191 1.59867,8.311 1.199,8.431 1.8037,9.73967 2.95389,10.6355 4.02,11.552 4.51213,11.4494 4.95637,11.3349 4.34476,10.96 3.44446,10.1848 2.77912,9.20117 2.398,8.071 Z"
           id="path336"
           inkscape:connector-curvature="0" /></g></g></g><g
     id="g338"
     transform="matrix(6.43143,0,0,-6.43143,0,136.224)"><g
       id="g340"><g
         id="g346"><path
           style="fill:url(#linearGradient348);fill-rule:evenodd"
           d="M 18.18,5.071 C 17.6677,5.24962 16.0202,5.97135 17.4202,6.0787 18.129,6.19201 19.6314,6.81458 18.6226,5.67837 18.4868,5.46775 18.3405,5.26363 18.18,5.071 Z"
           id="path354"
           inkscape:connector-curvature="0" /></g></g></g><g
     id="g356"
     transform="matrix(6.43143,0,0,-6.43143,0,136.224)"><g
       id="g358"><g
         id="g364"><path
           style="fill:url(#linearGradient366);fill-rule:evenodd"
           d="M 7.41,12.872 C 6.13,13.411 4.85,13.95 3.57,14.489 5.11849,15.8884 7.3662,16.5093 9.41971,16.1983 11.2593,15.6925 13.079,14.3708 13.6342,12.4715 13.9639,10.6079 13.4395,8.6463 12.512,7.021 10.8113,8.97133 9.11067,10.9217 7.41,12.872 Z"
           id="path372"
           inkscape:connector-curvature="0" /></g></g></g><g
     id="g374"
     transform="matrix(6.43143,0,0,-6.43143,0,136.224)"><g
       id="g376"><g
         id="g382"><path
           style="fill:url(#linearGradient384);fill-rule:evenodd"
           d="m 3.57,14.489 c 2.66071,0.5085 5.81731,0.4391 7.8541,-1.6039 1.6046,-1.457 1.8804,-3.92057 1.0879,-5.8641 -2.83132,2.66812 -5.81278,5.1563 -8.942,7.468 z"
           id="path390"
           inkscape:connector-curvature="0" /></g></g></g><path
     style="fill:#733913;fill-rule:evenodd;stroke-width:6.43143"
     d="m 55.574,64.0634 c 4.7373,-6.717 9.7346,2.1558 1.5115,0.1157 -0.5036,-0.064 -1.0077,-0.077 -1.5115,-0.1157 z"
     id="path392"
     inkscape:connector-curvature="0" /><path
     style="fill:#733913;fill-rule:evenodd;stroke-width:6.43143"
     d="m 62.1276,70.6234 c 3.0196,-2.2085 9.1005,2.2026 2.6813,1.0503 L 63.571,71.2235 Z"
     id="path394"
     inkscape:connector-curvature="0" /><path
     style="fill:#733913;fill-rule:evenodd;stroke-width:6.43143"
     d="m 48.6152,59.6192 c -3.2862,-3.3977 2.5509,-8.7557 2.5328,-3.3443 -0.589,1.2844 -1.5792,2.3275 -2.5328,3.3443 z"
     id="path396"
     inkscape:connector-curvature="0" /><path
     style="fill:#ffffff;fill-rule:evenodd;stroke-width:6.43143"
     d="m 49.7664,54.6156 c -0.5763,3.3244 -2.1822,1.1474 -0.1585,0.05 z"
     id="path398"
     inkscape:connector-curvature="0" /><path
     style="fill:#ffffff;fill-rule:evenodd;stroke-width:6.43143"
     d="m 57.1047,63.0858 c 2.1589,-2.5597 4.6899,-0.1351 0,0 z"
     id="path400"
     inkscape:connector-curvature="0" /><path
     style="fill:#ffffff;fill-rule:evenodd;stroke-width:6.43143"
     d="m 64.4429,70.6234 c 2.4433,-0.9673 4.0898,1.836 0,0 z"
     id="path402"
     inkscape:connector-curvature="0" /><g
     id="g404"
     transform="matrix(6.43143,0,0,-6.43143,0,136.224)"><g
       id="g406"><g
         id="g412"><path
           style="fill:url(#linearGradient414);fill-rule:evenodd"
           d="m 16.051,17.7 c 0.07,1.1603 0.1407,2.3207 0.211,3.481 1.3635,-0.9288 2.3124,-2.4066 2.6475,-4.018 0.1758,-1.6682 -0.2822,-3.6595 -1.7503,-4.6413 -1.2299,-0.6389 -2.6823,-0.6796 -4.0182,-0.3997 0.97,1.8593 1.94,3.7187 2.91,5.578 z"
           id="path420"
           inkscape:connector-curvature="0" /></g></g></g><g
     id="g422"
     transform="matrix(6.43143,0,0,-6.43143,0,136.224)"><g
       id="g424"><g
         id="g430"><path
           style="fill:url(#linearGradient432);fill-rule:evenodd"
           d="m 16.258,21.181 c 1.276,-2.2575 1.8843,-5.3137 0.3079,-7.5822 -0.7831,-1.0411 -2.1417,-1.5676 -3.4249,-1.4768 1.2146,2.9581 2.2384,5.985 3.117,9.059 z"
           id="path438"
           inkscape:connector-curvature="0" /></g></g></g><g
     id="g440"
     transform="matrix(6.43143,0,0,-6.43143,0,136.224)"><g
       id="g442"><g
         id="g448"><path
           style="fill:url(#radialGradient450);fill-rule:evenodd"
           d="m 16.078,17.462 c 0.7819,-1.3292 -0.1466,-2.9647 -1.4661,-3.4965 -1.4259,-0.789 -3.5421,-0.027 -3.7882,1.6881 -0.3019,1.4997 0.9921,2.7674 2.3995,2.9745 1.0773,0.2849 2.3539,-0.1105 2.8548,-1.1661 z"
           id="path456"
           inkscape:connector-curvature="0" /></g></g></g><path
     style="fill:#945772;fill-rule:evenodd;stroke-width:6.43143"
     d="m 81.4219,20.6512 c 10.4157,-3.5302 0.647,10.6543 -4.3489,10.4292 -5.9272,-1.6805 0.9763,-9.8169 4.3489,-10.4292 z"
     id="path458"
     inkscape:connector-curvature="0" /><g
     id="g460"
     transform="matrix(6.43143,0,0,-6.43143,0,136.224)"><g
       id="g476"
       mask="url(#mask468)"><g
         id="g488"><g
           id="g490"
           clip-path="url(#clipPath480)"><g
             id="g492"
             transform="translate(0,-0.8192)"><g
               id="g496"><g
                 id="g498"
                 clip-path="url(#clipPath484)"><g
                   id="g500"><path
                     style="fill:#ffffff;fill-rule:evenodd"
                     d="m 15.762,16.559 c 0.1078,-0.5278 -1.1955,-1.5758 -1.172,-1.11 0.5212,0.3214 0.9551,1.7158 1.2522,1.597 -0.015,-0.1641 -0.047,-0.3258 -0.08,-0.487 z"
                     id="path502"
                     inkscape:connector-curvature="0" /></g></g></g></g></g></g></g></g><path
     style="fill:#f5eca2;fill-rule:evenodd;stroke-width:6.43143"
     d="M 52.8599,26.2273 C 58.7125,18.833 64.5651,11.4395 70.4177,4.04525 c 2.6388,2.3777 5.2783,4.75476 7.9171,7.13245 2.8665,11.8441 -4.9618,23.0509 -12.7445,31.2175 -2.488,3.1296 -7.1921,5.3381 -10.6452,2.4922 -2.9482,-1.521 -5.8964,-3.0414 -8.8446,-4.5625 2.2531,-4.6994 4.5063,-9.3982 6.7594,-14.0976 z"
     id="path504"
     inkscape:connector-curvature="0" /><path
     style="fill:#fffac4;fill-rule:evenodd;stroke-width:6.43143"
     d="M 65.7935,2.71394 C 75.9063,2.93261 72.0893,15.9833 68.9739,21.7568 64.7954,29.7279 59.3127,39.7969 49.2195,40.4838 39.4658,41.0047 41.6972,29.1413 44.859,23.5769 48.9905,14.7909 54.7779,3.39761 65.7935,2.71394 Z"
     id="path506"
     inkscape:connector-curvature="0" /><g
     id="g508"
     transform="matrix(6.43143,0,0,-6.43143,0,136.224)"><g
       id="g510"><g
         id="g516"><path
           style="fill:url(#radialGradient518);fill-rule:evenodd"
           d="M 13.41,4.443 C 14.1598,3.17589 13.3925,1.56018 12.1216,0.994395 10.7002,0.122855 8.45015,0.841888 8.18405,2.60405 7.88259,4.0978 9.16488,5.36048 10.5645,5.57758 11.6223,5.8446 12.9264,5.50327 13.41,4.443 Z"
           id="path524"
           inkscape:connector-curvature="0" /></g></g></g><path
     style="fill:#f797b1;fill-rule:evenodd;stroke-width:6.43143"
     d="m 64.4429,104.588 c 10.4981,-3.501 0.4882,10.733 -4.5494,10.427 -5.8484,-1.632 1.2717,-9.862 4.5494,-10.427 z"
     id="path526"
     inkscape:connector-curvature="0" /><g
     id="g528"
     transform="matrix(6.43143,0,0,-6.43143,0,136.224)"><g
       id="g544"
       mask="url(#mask536)"><g
         id="g556"><g
           id="g558"
           clip-path="url(#clipPath548)"><g
             id="g560"
             transform="translate(0,-0.8192)"><g
               id="g564"><g
                 id="g566"
                 clip-path="url(#clipPath552)"><g
                   id="g568"><path
                     style="fill:#ffffff;fill-rule:evenodd"
                     d="M 13.121,3.531 C 13.2443,2.99836 11.8867,1.99069 11.949,2.449 12.4713,2.72124 12.8721,4.1986 13.1996,4.00506 13.186,3.84513 13.154,3.68776 13.121,3.531 Z"
                     id="path570"
                     inkscape:connector-curvature="0" /></g></g></g></g></g></g></g></g><path
     style="fill:#fffac4;fill-rule:evenodd;stroke-width:6.43143"
     d="m 119.232,99.1854 c -7.846,8.2906 -15.692,16.5806 -23.5388,24.8706 -2.5037,-1.473 -5.0081,-2.946 -7.5119,-4.419 -2.0323,-9.188 4.5239,-18.184 11.7065,-23.2872 4.4622,-2.9704 10.8182,-4.2444 14.9092,-0.1402 1.478,0.992 2.957,1.9839 4.435,2.9758 z"
     id="path572"
     inkscape:connector-curvature="0" /><path
     style="fill:#f5eca2;fill-rule:evenodd;stroke-width:6.43143"
     d="m 120.589,102.073 c -2.023,9.985 -8.599,20.2 -18.66,23.483 -9.957,2.508 -10.6406,-11.213 -4.2414,-15.765 4.6274,-6.478 11.5544,-13.7199 20.3394,-11.3929 1.601,0.4506 2.663,2.0279 2.562,3.6749 z"
     id="path574"
     inkscape:connector-curvature="0" /><g
     id="g576"
     transform="matrix(6.43143,0,0,-6.43143,0,136.224)"><g
       id="g578"><g
         id="g584"><path
           style="fill:url(#radialGradient586);fill-rule:evenodd"
           d="m 22.742,16.86 c 1.2531,-0.8805 1.1256,-2.7391 0.1508,-3.7766 -0.9095,-1.248 -2.9733,-1.5472 -3.996,-0.2646 -1.063,1.143 -0.5738,2.9482 0.6294,3.7782 0.8612,0.7877 2.2638,1.0749 3.2158,0.263 z"
           id="path592"
           inkscape:connector-curvature="0" /></g></g></g><path
     style="fill:#ad5d80;fill-rule:evenodd;stroke-width:6.43143"
     d="m 125.033,34.1443 c 7.863,-7.5369 4.868,9.4787 0.245,11.2396 -5.9,0.9203 -3.111,-9.4201 -0.245,-11.2396 z"
     id="path594"
     inkscape:connector-curvature="0" /><g
     id="g596"
     transform="matrix(6.43143,0,0,-6.43143,0,136.224)"><g
       id="g612"
       mask="url(#mask604)"><g
         id="g624"><g
           id="g626"
           clip-path="url(#clipPath616)"><g
             id="g628"
             transform="translate(0,-0.8192)"><g
               id="g632"><g
                 id="g634"
                 clip-path="url(#clipPath620)"><g
                   id="g636"><path
                     style="fill:#ffffff;fill-rule:evenodd"
                     d="m 23.18,16.02 c 0.4559,-0.6903 -0.982,-2.4537 -0.4234,-0.9588 0.1492,0.3285 0.031,2.5191 0.4234,0.9588 z"
                     id="path638"
                     inkscape:connector-curvature="0" /></g></g></g></g></g></g></g></g><g
     id="g640"
     transform="matrix(6.43143,0,0,-6.43143,0,136.224)"><g
       id="g642"><g
         id="g648"><path
           style="fill:url(#radialGradient650);fill-rule:evenodd"
           d="M 13.02,11.103 C 14.0284,10.0404 13.6618,8.31247 12.5641,7.465 11.4059,6.24575 9.04813,6.40876 8.37075,8.06688 7.74146,9.43941 8.64512,10.993 9.96663,11.5247 10.9354,12.0292 12.2826,11.9954 13.02,11.103 Z"
           id="path656"
           inkscape:connector-curvature="0" /></g></g></g><path
     style="fill:#ad5d80;fill-rule:evenodd;stroke-width:6.43143"
     d="m 61.7546,67.1569 c 9.2149,-6.1337 3.19,10.3135 -1.8482,11.1776 -6.1292,-0.4009 -1.4306,-9.8154 1.8482,-11.1776 z"
     id="path658"
     inkscape:connector-curvature="0" /><g
     id="g660"
     transform="matrix(6.43143,0,0,-6.43143,0,136.224)"><g
       id="g676"
       mask="url(#mask668)"><g
         id="g688"><g
           id="g690"
           clip-path="url(#clipPath680)"><g
             id="g692"
             transform="translate(0,-0.8192)"><g
               id="g696"><g
                 id="g698"
                 clip-path="url(#clipPath684)"><g
                   id="g700"><path
                     style="fill:#ffffff;fill-rule:evenodd"
                     d="M 13.121,10.16 C 13.4463,9.39775 11.6413,7.91171 12.5345,9.32806 12.7459,9.63475 13.0725,11.7859 13.121,10.16 Z"
                     id="path702"
                     inkscape:connector-curvature="0" /></g></g></g></g></g></g></g></g><path
     style="fill:#f5eca2;fill-rule:evenodd;stroke-width:6.43143"
     d="m 39.7462,83.7371 c 2.9564,-7.0767 5.9126,-14.1536 8.869,-21.2302 2.6724,1.5076 5.9928,2.4048 8.2756,4.2795 4.73,8.4787 1.3207,18.6629 -3.0605,26.556 -1.784,5.0943 -6.7377,5.2741 -11.0118,3.7708 -2.2764,-0.7298 -6.6991,0.02 -4.7579,-3.6174 0.5619,-3.2529 1.1237,-6.5058 1.6856,-9.7587 z"
     id="path704"
     inkscape:connector-curvature="0" /><path
     style="fill:#fffac4;fill-rule:evenodd;stroke-width:6.43143"
     d="m 44.5698,62.5069 c 9.6654,-2.9468 8.3777,10.1888 6.7218,15.9852 C 49.6867,85.6839 46.485,95.347 37.8104,95.8925 29.3284,94.3428 32.9482,83.0484 33.957,76.9895 35.4207,71.1379 38.2988,64.4602 44.5698,62.5069 Z"
     id="path706"
     inkscape:connector-curvature="0" /><g
     id="g708"
     transform="matrix(6.43143,0,0,-6.43143,0,136.224)"><g
       id="g710"><g
         id="g716"><path
           style="fill:url(#linearGradient718);fill-rule:evenodd"
           d="M 9.391,5.103 C 9.16033,4.44267 8.92967,3.78233 8.699,3.122 7.72581,2.81141 6.74619,3.42116 6.36109,4.31554 5.99981,4.69322 6.38601,5.18341 6.41896,5.62043 6.3724,6.23025 6.84682,6.12656 7.28977,6.06596 7.88002,5.94833 8.56933,6.12634 9.08591,5.90707 9.19214,5.6405 9.3335,5.38633 9.391,5.103 Z"
           id="path724"
           inkscape:connector-curvature="0" /></g></g></g><g
     id="g726"
     transform="matrix(6.43143,0,0,-6.43143,0,136.224)"><g
       id="g728"><g
         id="g734"><path
           style="fill:url(#linearGradient736);fill-rule:evenodd"
           d="M 6.539,6.122 C 6.89123,5.03201 7.20771,3.69071 8.33728,3.17619 9.1202,3.12633 7.88203,2.86852 7.61285,2.70481 6.79763,2.13983 6.14363,3.2487 5.69781,3.81445 5.43573,4.34052 5.21878,5.26255 5.55672,5.72076 5.88415,5.85451 6.21157,5.98825 6.539,6.122 Z"
           id="path742"
           inkscape:connector-curvature="0" /></g></g></g><path
     style="fill:#f5eca2;fill-rule:evenodd;stroke-width:6.43143"
     d="m 37.2315,80.2706 c 0.8383,-6.6909 1.6765,-13.3819 2.5147,-20.0725 -3.4086,0.4521 -6.8173,0.9049 -10.2259,1.357 5.4404,-9.8446 22.7845,-7.3305 24.5249,3.9888 0.4001,7.3656 -0.6722,16.7351 -7.1359,21.187 -4.6299,2.7571 -12.2962,4.8763 -9.8176,-3.3612 0.047,-1.033 0.093,-2.0661 0.1398,-3.0991 z"
     id="path744"
     inkscape:connector-curvature="0" /><path
     style="fill:#fffac4;fill-rule:evenodd;stroke-width:6.43143"
     d="m 35.5015,56.7315 c 6.8013,-2.2465 14.5197,2.2491 14.8015,9.6607 0.8083,7.6601 -1.0688,16.7853 -7.5145,21.6382 -8.2611,5.5742 -21.5744,-1.9089 -19.6298,-12.1115 1.0515,-7.414 3.9783,-17.3055 12.3428,-19.1874 z"
     id="path746"
     inkscape:connector-curvature="0" /><g
     id="g748"
     transform="matrix(6.43143,0,0,-6.43143,0,136.224)"><g
       id="g750"><g
         id="g756"><path
           style="fill:url(#radialGradient758);fill-rule:evenodd"
           d="M 18.93,11.759 C 20.0959,10.7251 20.0688,8.85314 19.0969,7.69908 18.0598,6.0343 15.4618,5.46309 14.008,6.9 c -1.2728,1.21577 -1.11,3.4968 0.317,4.5278 1.2129,1.1348 3.3434,1.7312 4.605,0.3312 z"
           id="path764"
           inkscape:connector-curvature="0" /></g></g></g><path
     style="fill:#ad5d80;fill-rule:evenodd;stroke-width:6.43143"
     d="m 94.9408,65.221 c 4.7721,-5.221 8.3632,0.2508 4.9605,5.1252 0,5.6059 -9.8401,13.7834 -10.0008,4.2867 0.3923,-3.6249 1.9049,-7.3268 5.0403,-9.4119 z"
     id="path766"
     inkscape:connector-curvature="0" /><g
     id="g768"
     transform="matrix(6.43143,0,0,-6.43143,0,136.224)"><g
       id="g784"
       mask="url(#mask776)"><g
         id="g796"><g
           id="g798"
           clip-path="url(#clipPath788)"><g
             id="g800"
             transform="translate(0,-0.8192)"><g
               id="g804"><g
                 id="g806"
                 clip-path="url(#clipPath792)"><g
                   id="g808"><path
                     style="fill:#ffffff;fill-rule:evenodd"
                     d="M 18.82,10.34 C 19.1757,11.7731 19.5547,9.26076 18.846,8.98781 18.4595,8.40835 17.9441,8.3627 18.4824,9.14173 18.6393,9.5264 18.769,9.92623 18.82,10.34 Z"
                     id="path810"
                     inkscape:connector-curvature="0" /></g></g></g></g></g></g></g></g><path
     style="fill:#f5eca2;fill-rule:evenodd;stroke-width:6.43143"
     d="m 156.29,72.7329 c 0.122,5.2074 0.251,10.4146 0.373,15.622 -5.418,-0.2412 -10.976,0.5074 -16.296,-0.4213 -6.125,-5.1904 -7.597,-13.9557 -8.748,-21.5163 -0.743,-6.2443 0.598,-12.6777 4.615,-17.5829 1.333,-2.4073 4.896,-1.6272 7.198,-2.6491 2.419,-0.2444 6.206,-2.7733 6.013,1.3319 2.281,8.4053 4.563,16.8105 6.845,25.2157 z"
     id="path812"
     inkscape:connector-curvature="0" /><path
     style="fill:#fffac4;fill-rule:evenodd;stroke-width:6.43143"
     d="m 156.464,87.9818 c -11.004,-2.0205 -14.046,-14.543 -14.56,-24.0606 -0.521,-6.9138 -0.115,-19.1515 9.25,-18.9277 10.901,2.2838 14.282,14.7113 14.536,24.415 -0.06,6.3731 1.081,16.9732 -6.922,18.7644 l -1.11,-0.013 z"
     id="path814"
     inkscape:connector-curvature="0" /><path
     style="fill:#d6ce83;fill-rule:evenodd;stroke-width:6.43143"
     d="M 57.8829,17.1589 C 54.5408,22.7105 57.1694,6.81848 58.3646,15.4797 Z"
     id="path816"
     inkscape:connector-curvature="0" /><path
     style="fill:#d6ce83;fill-rule:evenodd;stroke-width:6.43143"
     d="m 54.59,21.4294 c -0.9889,4.4235 -8.678,3.5977 -2.6884,0 0.6741,-0.418 2.0742,-0.847 2.6884,0 z"
     id="path818"
     inkscape:connector-curvature="0" /><path
     style="fill:#d6ce83;fill-rule:evenodd;stroke-width:6.43143"
     d="m 54.4163,24.8959 c 4.349,0.3538 -4.102,10.3675 -1.9358,3.2672 0.4733,-1.1705 0.88,-2.4568 1.9358,-3.2672 z"
     id="path820"
     inkscape:connector-curvature="0" /><path
     style="fill:#d6ce83;fill-rule:evenodd;stroke-width:6.43143"
     d="m 58.6611,22.7607 c 4.4779,2.7269 -4.245,6.0378 -0.9663,0.193 l 0.4334,-0.238 z"
     id="path822"
     inkscape:connector-curvature="0" /><path
     style="fill:#d6ce83;fill-rule:evenodd;stroke-width:6.43143"
     d="m 61.7546,16.4065 c 6.0217,1.3486 -7.2963,7.1787 -1.5475,0.7145 z"
     id="path824"
     inkscape:connector-curvature="0" /><path
     style="fill:#d6ce83;fill-rule:evenodd;stroke-width:6.43143"
     d="m 152.418,54.6156 c 4.686,0.09 3.113,13.524 0.161,4.8686 -0.566,-1.3854 -1.606,-3.7052 -0.161,-4.8686 z"
     id="path826"
     inkscape:connector-curvature="0" /><path
     style="fill:#d6ce83;fill-rule:evenodd;stroke-width:6.43143"
     d="m 153.197,63.6646 c -0.915,6.5298 -9.116,-5.2635 -1.745,-1.4201 l 0.828,0.6303 z"
     id="path828"
     inkscape:connector-curvature="0" /><path
     style="fill:#d6ce83;fill-rule:evenodd;stroke-width:6.43143"
     d="m 153.775,66.9511 c 4.202,2.934 -5.749,7.9656 -2.308,1.9358 l 1.154,-1.2599 z"
     id="path830"
     inkscape:connector-curvature="0" /><path
     style="fill:#d6ce83;fill-rule:evenodd;stroke-width:6.43143"
     d="m 157.441,69.0606 c 4.774,3.6246 -2.42,8.7822 -0.977,1.7365 0.206,-0.064 0.328,-2.4421 0.977,-1.7365 z"
     id="path832"
     inkscape:connector-curvature="0" /><path
     style="fill:#d6ce83;fill-rule:evenodd;stroke-width:6.43143"
     d="m 158.599,66.9511 c 8.521,-1.267 -1.014,8.1939 0,0 z"
     id="path834"
     inkscape:connector-curvature="0" /><path
     style="fill:#d6ce83;fill-rule:evenodd;stroke-width:6.43143"
     d="m 158.798,60.7705 c 7.195,3.8106 -7.699,7.7929 0,0 z"
     id="path836"
     inkscape:connector-curvature="0" /><path
     style="fill:#d6ce83;fill-rule:evenodd;stroke-width:6.43143"
     d="m 41.3026,74.2893 c 5.1088,-7.7029 5.4709,4.0938 -0.1986,1.1251 z"
     id="path838"
     inkscape:connector-curvature="0" /><path
     style="fill:#d6ce83;fill-rule:evenodd;stroke-width:6.43143"
     d="m 40.3251,74.463 c -0.6454,6.6036 -5.1644,-5.059 -0.016,-0.5214 z"
     id="path840"
     inkscape:connector-curvature="0" /><path
     style="fill:#d6ce83;fill-rule:evenodd;stroke-width:6.43143"
     d="m 45.1486,75.82 c 10.0731,2.1161 -7.6141,5.4418 0,0 z"
     id="path842"
     inkscape:connector-curvature="0" /><path
     style="fill:#a0daf2;fill-rule:evenodd;stroke-width:6.43143"
     d="m 171.713,77.5565 c -0.111,7.4015 -6.37,17.661 -11.495,24.6645 -18.78,24.188 -50.412,36.052 -80.5448,33.794 C 49.0496,134.415 18.3518,117.235 4.707,89.1484 4.05749,85.974 -1.8687,77.594 1.73649,76.9777 12.8646,84.9204 27.0912,86.0965 40.1859,88.3765 c 33.2437,4.1412 67.1311,4.0103 100.2761,-0.9735 10.688,-2.0113 21.991,-3.7615 31.251,-9.8465 z"
     id="path844"
     inkscape:connector-curvature="0" /><path
     style="fill:#8cc7de;fill-rule:evenodd;stroke-width:6.43143"
     d="m 164.979,81.2224 c -5.886,17.9264 -19.727,32.1696 -34.968,42.6936 -8.964,5.675 -18.885,10.114 -29.494,11.343 16.563,-6.411 31.46,-19.204 36.575,-36.6708 1.486,-6.2009 -0.205,-13.504 8.507,-12.2662 6.583,-1.1564 13.163,-2.5998 19.38,-5.0996 z"
     id="path846"
     inkscape:connector-curvature="0" /><g
     id="g908"
     transform="matrix(6.43143,0,0,-6.43143,0,136.224)"><g
       id="g924"
       mask="url(#mask916)"><g
         id="g936"><g
           id="g938"
           clip-path="url(#clipPath928)"><g
             id="g940"
             transform="translate(0,-0.8192)"><g
               id="g944"><g
                 id="g946"
                 clip-path="url(#clipPath932)"><g
                   id="g948"><path
                     style="fill:#000000;fill-rule:evenodd"
                     d="M 7.48,2.012 C 3.99049,3.43811 1.01792,6.38526 0.039,10.082 0.902873,10.0313 0.864789,8.95806 1.22925,8.37984 2.5227,5.64151 4.66892,3.23372 7.48,2.012 Z"
                     id="path950"
                     inkscape:connector-curvature="0" /></g></g></g></g></g></g></g></g><path
     style="fill:#c9e5f2;fill-rule:evenodd;stroke-width:6.43143"
     d="m 169.024,75.2412 c 7.782,-1.7559 1.024,7.2602 -3.285,7.3549 -19.182,6.759 -39.787,7.9886 -59.949,9.0672 C 74.7956,92.5011 43.2945,92.2423 13.0546,84.6306 8.83846,83.8897 -2.83714,78.9859 1.32054,75.2412 6.88825,74.9011 9.5207,82.258 16.223,81.9566 c 30.1618,6.7817 61.3516,6.897 92.109,6.0041 18.372,-1.0107 37.085,-2.0262 54.705,-7.6966 2.28,-1.037 5.621,-2.1 5.987,-5.0229 z"
     id="path952"
     inkscape:connector-curvature="0" /><metadata
     id="metadata399"><rdf:RDF><cc:Work><dc:format>image/svg+xml</dc:format><dc:type
           rdf:resource="http://purl.org/dc/dcmitype/StillImage" /><cc:license
           rdf:resource="http://creativecommons.org/publicdomain/zero/1.0/" /><dc:publisher><cc:Agent
             rdf:about="http://openclipart.org/"><dc:title>Openclipart</dc:title></cc:Agent></dc:publisher><dc:title></dc:title></cc:Work><cc:License
         rdf:about="http://creativecommons.org/publicdomain/zero/1.0/"><cc:permits
           rdf:resource="http://creativecommons.org/ns#Reproduction" /><cc:permits
           rdf:resource="http://creativecommons.org/ns#Distribution" /><cc:permits
           rdf:resource="http://creativecommons.org/ns#DerivativeWorks" /></cc:License></rdf:RDF></metadata></svg>