<?xml version="1.0" encoding="UTF-8" standalone="no"?>
<!-- Copyright 2017 mathsisfun.com -->
<svg xmlns="http://www.w3.org/2000/svg" width="592.4" height="342.5" version="1.1">
<defs/>
<rect x="-853.3" y="-78.5" width="36" height="48.2"/>
<path style="fill:#ff4141; stroke:black; stroke-width:1.14;" d="m 221.7,107.5 c 0.1,1.5 -1,3.7 -1.1,5.2 -0.1,1.1 0,2.2 -0.5,3.1 -0.5,1.1 -1.8,1.4 -2,2.4 -0.3,1.1 0.5,2.1 0.5,3.4 0,1.2 -2.3,1.2 -3.6,1.5 -0.6,0.2 -1.2,0.9 -1.6,0.6 -3,-0.9 -0.7,-3.8 -4.6,-4 -1.5,0 -2.4,2.1 -3.9,2.3 -2.6,0.5 -5.9,-2.3 -8.2,0.6 -1,1.2 -0.3,5.4 -2,6.1 -0.6,0.2 -1.5,-0.5 -2.1,-0.2 -2.4,1.5 1.1,2.6 -2.8,3.2 -1.3,0.2 -3.9,-3.2 -5.2,-1.1 -0.4,0.8 0.3,2.1 -0.3,2.8 -1.7,1.7 -6.5,0.6 -8.6,2.1 -2,1.2 0.1,3.4 0.8,4.3 0.6,1.1 -12.4,3.4 -14.3,3.1 -2.9,-0.6 -5,-4.6 -7.8,-4.9 -0.6,-0.2 -1.1,0 -1.4,0.2 -1.8,-2 -3.4,-4 -4.8,-6.3 -0.9,-1.5 1.4,-3.7 1.3,-5.7 2.1,-9 7.2,-1.5 11.7,-7.2 0.3,-0.5 -0.2,-1.2 0.2,-1.7 0.5,-0.6 1.5,-0.3 2,-0.9 0,0 1.2,-4.7 1.2,-4.9 1.4,-2.4 5,-4.4 7.7,-5.7 0.3,0.5 1.4,-0.3 1.9,0.2 0.5,0.5 -0.3,1.5 0.1,2 2.5,2 4.4,-5.8 6,-4.7 0.9,0.6 0.9,2 1.7,2.8 0.1,0.2 0.7,-0.3 0.8,-0.2 0.2,0.3 -0.4,0.9 -0.1,1.1 0.7,0.2 1.5,-0.6 2.1,-0.3 1.1,0.5 0.1,3.4 0.1,3.7 0,0.8 1.4,-0.5 2.1,-0.6 0.7,-0.1 1.3,1.1 1.9,0.8 0.3,-0.2 2,-4.9 4.2,-5.4 0.7,-0.2 1.3,0.5 1.9,0.5 0.7,-0.2 0.9,-1.1 1.5,-0.9 1.3,0.2 2.1,1.8 3.2,1.8 0.9,0 1.6,-0.9 2.1,-1.7 0.2,-0.3 -0.7,-0.3 -0.7,-0.6 0.5,-2.2 1.3,0 2,-0.3 0.5,-0.2 0.5,-1.1 0.9,-1.1 2.3,-0.6 7.5,-0.5 9.5,1.1 0.5,0.5 0.3,1.5 0.9,1.8 0.9,0.6 2.1,0.6 3.1,0.9 1.4,0.5 2.7,0.6 4.2,0.8 z"/>
<path style="fill:#f1caff; stroke:black; stroke-width:1.14;" d="m 149.9,126.3 c 2.3,-9 7.4,-1.4 11.9,-7.2 0.3,-0.5 -0.2,-1.2 0.2,-1.7 0.5,-0.6 1.5,-0.3 2,-0.9 0,0 1.2,-4.7 1.2,-4.9 1.4,-2.4 5,-4.4 7.7,-5.7 -0.6,-0.8 -0.1,-2.1 -0.7,-2.9 -0.7,-0.6 -1.9,-0.2 -2.4,-0.6 -0.2,-0.2 -1.6,-3.8 -1.7,-4 -0.8,-0.6 -2.1,-0.2 -3,-0.5 -0.7,-0.2 -2.4,-0.6 -3.1,-1.1 -0.3,-0.2 -0.3,-0.8 -0.6,-0.6 -2.6,1.1 2.4,1.4 -2,1.8 -0.3,0 -0.7,-0.2 -1.1,-0.5 -0.5,-0.5 -0.4,-1.2 -0.8,-1.7 -0.6,-0.5 -2.7,-0.6 -2.2,-1.1 2,-1.8 3.3,0.5 1.4,-3.2 0,-0.1 -0.3,-0.1 -0.5,0 -0.1,0.3 0,0.9 -0.3,1.1 -0.7,0.3 -1.4,0 -2,0 -0.7,0 -1.4,0.3 -2.1,0.2 -1.3,-0.5 -3.9,-2.7 -6.2,-2.4 -1,0.2 2.4,3.5 2.3,3.8 -0.5,0.9 -2,0.6 -2.8,1.2 -0.5,0.5 -0.3,1.5 -1,1.8 -2.3,0.9 -3.2,-3.1 -3.6,-3.7 l -3.5,-2.1 c -0.3,-2 5.5,-2.8 1.4,-4.7 -0.8,-0.5 -4.1,1.4 -4.1,1.4 -0.5,-0.5 0,-1.2 -0.5,-1.7 -0.2,-0.3 -0.6,0 -1.1,0.2 -0.1,0 -0.3,0.5 -0.6,0.3 -0.4,-0.5 -0.2,-1.2 -0.8,-1.7 -2,-1.2 -4,0.2 -6.4,-1.8 -1.7,-1.2 0.6,-2.4 -2.2,-2.8 -4.2,-0.8 0.7,2.6 -3.4,3.2 -0.4,0.6 -0.5,1.1 -1,1.1 -2,0.5 -5.2,-8 -6.9,-3.2 -0.3,0.8 2.5,1.4 1.9,1.8 -1.9,1.5 -4.4,1.7 -6.3,2.8 -0.3,0.2 0,0.9 -0.3,1.1 -1.3,0.6 -2.9,-0.3 -3.8,0.5 -0.8,0.6 -0.5,1.8 -1.3,2.4 -0.3,0.3 -0.6,-0.8 -1,-0.6 -1.4,0.3 -1.6,2.1 -2.5,2.7 -0.5,0.5 -1.4,-0.3 -1.8,0.2 -0.5,0.3 0,1.2 -0.5,1.7 -0.7,0.8 -2.3,-0.6 -2.8,-0.6 -3.8,0.6 -4.4,3.5 -5.7,6 -0.3,0.6 -0.3,-1.5 -0.9,-2 -0.4,-0.6 -1.4,-0.8 -2.1,-0.9 -1.4,-0.3 1.5,4.6 4.5,6.6 0.3,0.2 1.4,0.3 1.5,1.2 0.5,2.1 -1.5,1.4 -1.8,3.1 -0.2,0.5 3.2,6.1 3.6,6.6 2.6,2.6 3.2,0.8 4.9,2.4 1.1,1.1 1.3,2.8 2.3,3.7 2.1,1.5 7.4,3.5 8.6,6.6 h 0.2 c 2.4,1.2 4.2,4.4 7.5,3.2 0.6,-0.2 0.5,-1.4 1.1,-1.4 1.1,0 2.1,1.4 3.2,1.1 l 1.2,-4 c 0.7,-0.5 1.7,0.6 2,0.2 0.3,-0.3 0,-4.7 0.2,-5 0.4,-0.5 1.4,-0.2 1.9,0.2 0.4,0.2 0,0.9 0.4,1.1 0.7,0 1.3,-0.9 2.1,-0.9 4.4,0 7.9,3.4 12.1,3.8 0.6,0 1.3,0.3 2,0.2 0.9,-0.5 1.2,-1.7 2,-2 1.1,-0.3 2.6,1.7 3.4,1.8 0.5,0 1.1,-0.9 1.5,-0.6 0.8,0.6 1.1,1.2 1.1,1.8 z"/>
<path style="fill:#f1caff; stroke:black; stroke-width:1.14;" d="m 143.9,162.5 c 0.7,0 1.9,4.7 5.1,7.3 4.1,3.4 7.6,5.2 10.8,9.3 0.5,0.6 3.5,0.2 3.8,0.3 1.3,0.5 2.2,1.5 3.2,2 2.2,0.9 8.9,0.8 10.9,-0.9 0.3,-0.3 0.5,-2.5 1.5,-2.5 2.9,-0.5 2.4,0.2 5.1,-2.8 0.5,-0.5 1.1,1.1 2.4,0 1.4,-1.1 2.3,-2.9 4,-3.8 3.6,-2.3 0.6,0 3.2,0.2 0.1,0 4.1,-1.2 4.3,-1.2 0.8,0 1.5,0.8 2.2,0.8 0.3,-0.2 0.5,-0.8 0.8,-0.9 0.9,-0.3 5.5,-0.8 5.9,-1.8 0.3,-0.6 -2.1,-1.4 0.7,-1.8 1.1,-0.2 2.1,0.9 3,0.6 3,-1.1 2,-6.6 2.7,-8.3 0.4,-0.5 1.1,-0.5 1.4,-0.9 l 1.7,-5.4 c 0.3,-0.8 0.8,-1.4 0.8,-2.1 0,-0.3 -0.8,-0.3 -0.8,-0.6 0.2,-1.4 1.9,-5.7 2.6,-6.9 0.3,-0.3 1.1,0 1.1,-0.5 0.7,-2.9 -0.3,-5 3,-8.3 1.1,-1.2 2.3,-0.5 4,-1.1 1.7,-0.8 1.9,-3.1 3.1,-4.3 -1.9,-1.5 0.6,-1.2 -1.4,-2.6 -0.3,-0.2 -0.8,-0.5 -1.3,-0.5 -0.6,0.2 -1.1,0.9 -1.7,0.8 -0.9,-0.6 -1.1,-2.1 -2,-2.8 -0.5,-0.3 -1.1,0.5 -1.6,0.3 -2.4,-0.9 -0.1,-2.6 -3.6,-2.8 0,1.2 -2.3,1.2 -3.6,1.5 -0.6,0.2 -1.2,0.9 -1.6,0.6 -3,-0.9 -0.7,-3.8 -4.6,-4 -1.5,0 -2.4,2.1 -3.9,2.3 -2.6,0.5 -5.9,-2.3 -8.2,0.6 -1,1.2 -0.3,5.4 -2,6.1 -0.6,0.2 -1.5,-0.5 -2.1,-0.2 -2.4,1.5 1.1,2.6 -2.8,3.2 -1.3,0.2 -3.9,-3.2 -5.2,-1.1 -0.4,0.8 0.3,2.1 -0.3,2.8 -1.7,1.7 -6.5,0.6 -8.6,2.1 -2,1.2 0.1,3.4 0.8,4.3 0.6,1.1 -12.4,3.4 -14.3,3.1 -2.9,-0.6 -5,-4.6 -7.8,-4.9 -0.6,-0.2 -1.1,0 -1.4,0.2 -2.2,0.9 0,5.8 -0.1,6.4 -0.9,1.7 -6.5,-0.8 -8.6,1.1 -0.9,0.8 3.6,0.5 3.8,3.1 0.3,3.1 -2.3,0.8 -3.3,2.9 -0.8,1.5 1.9,4.7 1.6,5.4 -1.3,2.3 -2.6,2.8 -5.4,5.8 l -0.1,0.2 c 0.3,-0.2 0.4,-0.3 0.7,-0.3 l 1.7,-0.2 z"/>
<path style="fill:#f1caff; stroke:black; stroke-width:1.14;" d="m 109,171.7 c -0.3,3.1 -4.2,2.5 -4.4,4.9 -0.4,1.8 3.2,1.5 4,2.1 1,0.9 -1.9,2.1 -2.3,3.5 -0.6,2 1.8,-0.2 2.1,0.6 0.3,0.8 -1.4,2.8 -0.3,3.4 1.5,0.9 7.7,4.6 2.3,4.3 0.3,-0.8 0.3,-1.4 -0.3,-2.2 -2.9,-2.8 -2.8,-1.5 -4.4,0.6 0.1,-0.2 0.1,-0.3 0.1,-0.3 0,-1.5 -2.8,-1.8 -4.2,-1.2 -0.7,0.5 0,2.1 -0.6,2.8 -0.7,0.6 -1.7,0.2 -2.6,0.5 -2.1,0.9 -4.1,3.4 -6.5,3.8 -0.8,0.2 -1.5,-0.6 -2.2,-0.2 -0.6,0.2 0,1.1 -0.3,1.7 -0.1,0.5 -0.5,1.1 -0.9,1.5 0.1,-0.2 0.1,-0.3 0.3,-0.3 0.7,0 0,1.7 0.7,2 0.3,0.2 0.5,-0.9 0.8,-0.6 0.3,0.6 0.9,1.8 0.3,2.3 -0.3,0.2 -0.5,0.5 -0.3,0.8 0.1,0.2 0.5,-0.2 0.7,-0.2 0.9,0.8 2.4,1.2 2.6,2.3 0.9,4.3 -2.8,2.6 -3.8,5.2 -0.3,0.8 1.6,9 2.1,9.9 0.9,1.5 11.6,9.2 13.8,10.4 2.1,1.2 2.7,0.5 4.8,2.1 2.1,1.8 5,13.9 6.7,17 1.7,3.2 5.3,6.1 8,8.3 0.9,0.6 2.3,0.8 3,1.5 0.5,0.3 0,1.2 0.3,1.5 4.2,4.3 12,2.9 16.9,2.2 1,-0.2 3.3,-1.8 4.7,-0.3 3.8,4.3 -7.7,5.8 -1.8,9.8 5.5,3.7 13.1,3.4 18.8,6.3 2,1.1 2.8,2.8 5.1,3.5 1.9,0.8 6.9,1.5 8.4,2.8 0.7,0.5 0,1.5 0.5,2 1.9,2.6 6.7,2.1 8.2,7.5 0.6,2 -0.7,1.4 -1.2,2.8 -0.4,0.8 0.1,3.8 -0.5,4.1 -0.7,0.5 -1.7,0 -2.6,-0.5 -4.8,-1.8 -2.8,-4.6 -5.2,-7.8 -1.4,-1.8 -5.7,0 -8.1,-0.8 -3.1,-1.1 -4.8,-4.6 -7.7,-1.5 -0.3,0.5 -4.2,8.1 -4.2,8.4 0,0.5 0.8,0.9 0.6,1.5 -0.6,2.9 -3.6,2.7 -1.1,6.1 1.5,1.8 2,0.2 3.6,0.6 1.9,0.6 3.1,2.5 4.8,3.2 0.6,0.3 1.5,0 1.9,0.6 0.3,0.5 -0.7,1.1 -0.7,1.7 0.1,4.3 2.2,0.3 1.8,5.8 -0.2,3.2 -6.3,2 -9,5.2 -2,2.3 0.7,4.6 0,7.3 -0.5,2.3 -2,1.7 -3.5,2.9 -3.6,3.2 -1.1,10.5 -8.7,8.4 -1.6,-0.5 -3.2,-4.4 -2.3,-6.1 0.7,-0.9 2.2,-0.8 2.9,-1.5 0.4,-0.6 0.4,-1.5 0.7,-2.3 0.1,-0.8 0.7,-1.4 0.5,-2.1 -0.1,-0.9 -1.7,-1.4 -1.5,-2.3 0.7,-2.8 4.3,-1.3 5.4,-2.8 2.6,-3.1 -0.4,-3.5 -1.7,-5.2 -1.3,-1.8 -0.6,-4.4 -1.5,-6.4 -0.5,-1.2 -1.1,-2.3 -1.9,-3.2 -0.1,-0.3 -0.7,-0.3 -1.1,-0.6 -2.8,-4.1 0.1,-1.7 -1.7,-6.3 -2.4,-5.8 -3.7,-2.9 -8.3,-2.6 -0.1,0 0.1,-0.5 0,-0.8 -0.6,-0.6 -1.4,-1.4 -2.3,-1.8 -0.9,-0.5 -2.7,0 -3.4,-1.1 -0.6,-1.1 1.3,-2.2 1.1,-3.4 -0.2,-1.2 -1.1,-2.3 -1.7,-3.2 -3.7,-5 -4.2,2 -8.6,0.5 -0.5,-0.2 2.9,-2.6 1.5,-3.7 -5.5,-4 -0.2,0.2 -6.1,-0.6 -0.5,-0.2 0,-0.9 -0.2,-1.4 -0.6,-1.8 -3.8,-6.7 -5.3,-7.3 -4.1,-1.5 -0.9,1.4 -2.3,1.1 -1.3,-0.3 -2.6,-2 -4.1,-1.8 -1.4,0.3 -2.4,2.2 -3.7,1.8 -1.3,-0.3 -1.2,-2.3 -2.1,-3.2 -1.1,-0.9 -3.8,-0.6 -4.7,-1.2 l -2.3,-3.2 c -1.1,-0.9 -2.7,-1.1 -3.7,-2.2 -1.8,-2.8 0.3,-2.3 -1.8,-4 -0.9,-0.8 -1.9,-1.4 -3,-2 -0.3,-0.2 -0.9,0.3 -1.2,0.2 -1.7,-1.4 -1.7,-4 -3.4,-5.4 -2.9,-2.5 -4.7,-0.6 -7.8,-1.8 -0.5,-0.2 0.8,-0.6 1.1,-0.9 0.9,-1.2 -0.9,-3.2 -1.4,-3.7 -0.3,-0.3 -0.9,0 -1.3,-0.3 -0.5,-0.6 -0.5,-1.5 -1.1,-2 -0.8,-0.6 -2.3,-0.1 -2.9,-1.1 -0.5,-0.6 0.9,-1.8 0.1,-2.3 -0.9,-0.8 -2.4,0.2 -3.6,-0.3 -0.8,-0.3 0.4,-1.7 0.4,-2.6 0.5,-3.1 0,-4.1 -1.6,-6.7 -3.2,-4.6 -0.9,-8.7 -4.7,-12.2 -0.3,-0.5 -0.9,-0.6 -1.4,-0.8 -0.2,0 -0.3,0.5 -0.5,0.3 -0.7,-0.3 -1.3,-1.2 -2,-1.2 -0.4,0 0.5,1.4 0,1.2 -1.3,-0.3 -2.1,-1.2 -3.2,-2 -0.5,-0.3 -4.3,-4.3 -5.5,-4.3 -0.3,0 0.2,0.8 -0.1,0.9 -0.3,0.1 -0.7,0 -0.9,-0.3 -0.8,-0.9 -4,-2.5 -5.5,-2.5 -0.7,0 -4.6,2.3 -4.9,2.9 -0.3,0.6 0.1,1.5 -0.3,2 -0.4,0.6 -1.6,0.5 -2.1,0.9 -1.1,1.1 -1.8,3.5 -3.1,4.6 -2,2 -5.5,1.8 -7.8,2.1 -0.8,-2.8 4.4,-6.3 2.1,-8 -0.7,-0.4 -1.8,0.2 -2.7,0.3 -0.9,0 -2,0.5 -3,0.2 -1.6,-0.5 -5.6,-3.4 -5.5,-5.5 0,-0.3 0.8,-0.3 0.8,-0.6 -0.2,-0.5 -1.7,-0.9 -1.3,-1.8 0.7,-0.6 1.4,-1.1 1.8,-1.8 0.2,-0.2 -0.3,-0.5 -0.1,-0.8 0.1,-0.5 1.5,0.3 1.6,-0.2 0,-1.2 -0.1,-2.4 -0.6,-3.4 -0.7,-1.2 -5.8,-3.2 -5.5,-5.7 0,-0.8 1.4,-0.8 2.1,-0.9 0.5,0 0.8,0.9 1.3,0.8 0.7,-0.2 5.7,-4.1 4.9,-5.5 -0.5,-0.9 -2,-1.1 -2.5,-2.1 -0.5,-0.6 0.2,-1.7 -0.1,-2.3 -2.1,-3.7 -6.1,-1.8 0.9,-6 1.6,2.8 5.7,-0.3 7.6,-0.8 1.4,-0.3 2.4,1.5 3.8,1.5 0.1,0 4.4,-4.4 4.4,-5.2 0.2,-0.8 -1.2,-1.1 -1.1,-1.7 0.3,-0.9 1.6,-1.2 2.3,-1.8 0.7,-0.6 1.4,-1.2 2.1,-1.8 0.3,-0.2 0.6,-0.5 0.8,-0.3 0.3,0.9 0.1,1.8 0.1,2.8 0,0.5 -0.5,1.1 -0.3,1.7 1.1,2 3.5,2.5 5.1,3.1 0.1,0 0.5,0.3 0.5,0.6 -0.1,0.6 -1.2,1.1 -1.1,1.7 0.2,0.6 1.3,0.3 1.7,0.8 0.6,0.8 0.9,3.4 1.8,2.6 2.6,-2 -0.5,-1.4 -0.5,-2.9 0,-3.4 3.6,-4.3 4.3,-7 0,-0.3 -1.7,-4.4 0.9,-4 2,0.3 -0.5,3.4 3.5,4.3 2.5,0.8 0.5,-2.3 4.6,-1.5 1.3,0.2 0.6,2.6 1.7,3.2 0.6,0.3 1.8,-0.3 1.7,-0.9 -0.4,-0.5 -1,-0.8 -1.1,-1.4 0,-0.6 0.9,-1.1 0.7,-1.7 -0.3,-0.8 -3,-2.4 -0.9,-4 2.7,-2 1.6,2.4 4.9,1.7 1.8,-0.6 -1.1,-2.8 -1.1,-3.1 0.3,-0.6 0.7,-1.1 0.9,-1.7 0.4,-0.6 0.2,-1.4 0.4,-2 2.4,1.2 0.3,-0.3 2.6,0 1.3,0.2 2.5,3.4 4.9,2 l 2,-4.1 c 1.3,-0.9 6.6,-0.3 7.9,-0.5 2.3,-0.2 4.2,-2.1 6.5,-2.1 0.6,0 -1.1,0.8 -1.3,1.4 -0.7,3.2 1.3,1.1 2.4,2.9 0.3,0.5 -0.4,1.1 -0.1,1.7 0.1,0.3 0.6,-0.3 1,0 2.8,2.2 3.6,2.5 7.6,3.1 3.8,0.5 7.6,0.8 11.5,1.1 z"/>
<text x="167.9" y="120.1" transform="scale(0.99995,1.00005)" style="font-family:'Comic Sans MS'; font-size:11.3px; fill:black; stroke-width:1;">Slovakia</text>
<text x="105.1" y="115.9" transform="scale(0.99995,1.00005)" style="font-family:'Comic Sans MS'; font-size:11.3px; fill:black; stroke-width:1;">Republic</text>
<text x="101" y="103.7" transform="scale(0.99995,1.00005)" style="font-family:'Comic Sans MS'; font-size:11.3px; fill:black; stroke-width:1;">Czech</text>
<text x="164.8" y="158.5" transform="scale(0.99995,1.00005)" style="font-family:'Comic Sans MS'; font-size:11.3px; fill:black; stroke-width:1;">Hungary</text>
<text x="49.2" y="205.2" transform="scale(0.99995,1.00005)" style="font-family:'Comic Sans MS'; font-size:11.3px; fill:black; stroke-width:1;">Italy</text>
<path style="fill:#ffc022; stroke:black; stroke-width:1.14;" d="m 118.9,84 c 4.1,-0.6 -0.8,-4 3.4,-3.2 2.8,0.3 0.5,1.5 2.2,2.8 2.4,2 4.4,0.6 6.4,1.8 0.6,0.5 0.4,1.2 0.8,1.7 0.3,0.2 0.5,-0.3 0.6,-0.3 0.5,-0.2 0.9,-0.5 1.1,-0.2 0.5,0.5 0,1.2 0.5,1.7 0,0 3.3,-1.8 4.1,-1.4 4.1,2 -1.7,2.8 -1.4,4.7 l 3.5,2.1 c 0.5,0.6 1.4,4.6 3.6,3.7 0.7,-0.3 0.5,-1.4 0.9,-1.8 0.8,-0.6 2.4,-0.3 2.8,-1.2 0.1,-0.3 -3.3,-3.7 -2.3,-3.8 2.3,-0.3 4.9,2 6.2,2.4 0.7,0.2 1.4,-0.2 2,-0.2 0.6,0 1.3,0.3 2,0 0.3,-0.2 0.1,-0.8 0.3,-1.1 0.2,-0.1 0.5,-0.1 0.5,0 1.9,3.7 0.7,1.4 -1.4,3.2 -0.5,0.5 1.6,0.6 2.2,1.1 0.4,0.5 0.3,1.2 0.8,1.7 0.3,0.3 0.7,0.5 1.1,0.5 4.4,-0.5 -0.6,-0.8 2,-1.8 0.3,-0.2 0.3,0.5 0.6,0.6 0.7,0.5 2.4,0.9 3.1,1.1 0.9,0.3 2.2,-0.2 3,0.5 0.1,0.2 1.5,3.8 1.7,4 0.5,0.5 1.8,0 2.4,0.6 0.6,0.8 0.1,2.1 0.7,2.9 0.3,0.5 1.4,-0.3 1.9,0.2 0.5,0.5 -0.3,1.5 0.1,2 2.5,2 4.4,-5.8 6,-4.7 0.9,0.6 0.9,2 1.7,2.8 0.1,0.2 0.7,-0.3 0.8,-0.2 0.2,0.3 -0.4,0.9 -0.1,1.1 0.7,0.2 1.5,-0.6 2.1,-0.3 1.1,0.5 0.1,3.4 0.1,3.7 0,0.8 1.4,-0.5 2.1,-0.6 0.7,-0.2 1.3,1.1 1.9,0.8 0.3,-0.2 2,-4.9 4.2,-5.3 0.7,-0.2 1.3,0.5 1.9,0.5 0.7,-0.2 0.9,-1.1 1.5,-0.9 1.3,0.2 2,1.8 3.2,1.8 0.9,0 1.7,-0.9 2.1,-1.7 0.2,-0.3 -0.7,-0.3 -0.7,-0.6 0.5,-2.1 1.3,0 2,-0.3 0.5,-0.2 0.5,-1.1 0.9,-1.1 2.3,-0.6 7.5,-0.5 9.5,1.1 0.5,0.5 0.3,1.5 0.9,1.8 0.9,0.6 2,0.6 3.1,0.9 2,0.6 3.8,0.8 5.7,1.1 0.7,0 1.5,-0.3 2.3,-0.2 0.3,0.2 0.9,0.9 0.7,0.6 -1.9,-5.8 -0.3,0.3 -2.9,-2.9 -0.6,-0.6 0.6,-1.7 0.5,-2.4 -0.5,-1.5 -2.1,-2.8 -2.3,-4.4 -0.5,-1.2 8.9,-18.5 10,-19.6 2.8,-2.3 4.6,1.1 5,-4.4 0,-1.2 -3.1,-4 -3.2,-4.1 -0.7,-1.5 2.8,-1.4 2.3,-1.8 -2.4,-1.8 -6.9,-4.7 -8.2,-7.6 -0.3,-0.8 0.3,-1.8 0,-2.7 -0.5,-1.1 -1.8,-1.8 -2.2,-2.9 -1.3,-2.8 1.9,-8 -1.1,-10.4 -1.2,-0.9 -2.7,-1.4 -4.1,-1.5 -0.3,-0.2 -0.7,0.6 -1,0.5 -4.4,-1.7 5.2,-9.8 6.3,-10.9 0.2,-0.1 0.5,-0.5 0.5,-0.8 -0.5,-8.4 -7.2,-15.6 -9.8,-23.4 -1,-0.6 0,-2.3 -1,-3.5 -2.8,-4 -1.1,-0.6 -5.4,-2.4 -1.5,-0.6 -0.5,-2.6 -2.6,-1.8 -0.5,0.2 -0.5,0.9 -1,1.2 -7,4.1 -27.6,4.9 -36.3,3.7 -2.8,2.9 -7.1,4.6 -10.6,3.2 -3.1,-1.2 -2.4,-4.1 -3.4,-6 -0.3,-0.5 -1.4,-1.7 -0.7,-1.5 0.4,0 0.9,0 1.2,0.2 -0.8,-0.5 -1.7,-0.9 -2.6,-1.1 -5.5,-0.9 -11.6,4 -15.7,6.4 -1.4,0.8 -3.1,0.5 -4.2,1.4 -2.6,2.3 -3.2,6 -4,6.1 -5.7,1.4 -11,3.8 -16.4,6 -1.3,0.6 -2.2,2.3 -3.6,2.6 -0.7,0.3 -1.5,-0.5 -2.3,-0.2 -1.3,0.8 1.8,4.1 0.5,4.4 0.4,2.4 2.8,7.2 3.1,8.7 0.4,3.7 -4.4,6.1 -3.4,9 0.7,1.8 6.4,2.6 6.4,4.9 0,2.3 -1.8,3.1 -0.4,4.7 0.4,0.8 1.5,1.1 1.8,2 0.5,0.8 -0.3,1.8 0,2.6 0.1,0.5 0.7,0.3 0.9,0.6 0.7,1.1 -1.1,3.7 -1.6,4.6 -0.9,1.4 1.5,2.1 1.9,3.5 0.3,0.8 -0.7,1.7 -0.3,2.3 0.6,0.9 2,0.6 2.6,1.2 1.9,1.7 1.5,9.5 0.4,12.4 z m -15.4,-57.6 h 0.1 c 0.1,0.2 0.4,0.2 0.5,0.3 -0.1,-0.2 -0.4,-0.2 -0.5,-0.3 z m 0.8,0.3 v 0.2 h 0.1 0.2 z m 0.3,0 c 0,0 0,0.2 0.1,0.2 -0.1,0 -0.1,-0.2 -0.1,-0.2 z m 0.1,0.2 h 0.2 c 0.1,0 0.1,0 0.1,0.1 0,-0.1 0,-0.1 -0.1,-0.1 z m 0.1,0.1 h 0.2 0.2 z m 1.4,0.3 z m 0,0 h 0.1 z"/>
<path style="fill:#ff4141; stroke:black; stroke-width:1.14;" d="m 107.7,27.4 c 0.4,2.4 2.8,7.2 3.1,8.7 0.4,3.7 -4.4,6.1 -3.4,9 0.7,1.8 6.4,2.6 6.4,4.9 0,2.3 -1.9,3.1 -0.4,4.7 0.4,0.8 1.5,1.1 1.8,2 0.5,0.8 -0.2,1.8 0,2.6 0.1,0.5 0.8,0.3 0.9,0.6 0.7,1.1 -1.1,3.7 -1.6,4.6 -0.9,1.4 1.5,2.1 1.9,3.5 0.3,0.8 -0.7,1.7 -0.3,2.3 0.6,0.9 2,0.6 2.6,1.2 2.2,2 1.3,13.2 -0.6,13.5 -2,0.5 -5.2,-8 -6.9,-3.2 -0.3,0.8 2.5,1.4 1.9,1.8 -1.9,1.5 -4.4,1.7 -6.3,2.7 -0.3,0.2 0,0.9 -0.3,1.1 -1.3,0.6 -2.9,-0.3 -3.8,0.5 -0.8,0.6 -0.5,1.8 -1.3,2.4 -0.3,0.3 -0.6,-0.8 -1.1,-0.6 -1.3,0.3 -1.5,2.1 -2.4,2.7 -0.5,0.5 -1.4,-0.3 -1.8,0.2 -0.5,0.3 0,1.2 -0.5,1.7 -0.7,0.8 -2.3,-0.6 -2.8,-0.6 -3.8,0.6 -4.4,3.5 -5.7,6 -0.3,0.6 -0.3,-1.5 -0.9,-2 -0.4,-0.6 -1.4,-0.8 -2.1,-0.9 -1.4,-0.3 1.5,4.6 4.6,6.6 0.3,0.2 1.4,0.3 1.5,1.2 0.5,2.1 -1.5,1.4 -1.8,3.1 -0.2,0.5 3.2,6.1 3.6,6.6 2.6,2.6 3.2,0.8 4.9,2.5 1.1,1.1 1.3,2.8 2.3,3.7 2.4,1.7 9,4 8.8,8 -0.1,4.1 -1.1,3.2 -4.3,2.5 -0.3,0 -0.6,0.2 -0.7,0.5 -0.3,1.5 0.6,3.2 -1,4.4 -1.3,1.1 -7.7,2.6 -7.9,5 0,0 3.7,5 3.7,5.2 0.1,0.2 -2,2 -1.2,2.6 1.6,1.5 3.3,-0.8 2,4.3 0,0.3 -0.4,0.8 -0.7,0.8 -4.9,-1.4 -1.1,-3.8 -3.4,-4 -1.2,0 -2.3,1.1 -3.5,0.9 -0.6,-0.2 -0.5,-1.2 -0.9,-1.4 -0.9,-0.3 -1.8,0.5 -2.6,0.2 -0.3,-0.2 0.3,-1.1 0,-1.1 -1.8,0.1 -0.1,2.6 -0.6,2.7 -2.2,0.6 -5.7,-0.3 -7.6,0.5 -0.7,0.3 -0.3,1.4 -0.9,1.7 -0.7,0.5 -1.4,-0.3 -2,0.2 -0.5,0.2 0.1,0.9 -0.1,1.2 -0.3,0.2 -5.4,1.5 -6,1.2 -0.3,-0.3 0,-1.1 -0.3,-1.4 -0.2,-0.3 -0.9,-0.3 -1.1,-0.6 -0.1,-0.3 0.7,-0.2 0.7,-0.5 -0.7,-2 -4.9,0.5 -6.1,-0.9 0,0 0.3,-0.2 0.3,-0.3 -0.9,-0.6 0,2 -0.3,3.1 0,0.6 -2.9,4.1 -4,3.1 -0.6,-0.6 1.1,-1.5 0.7,-2.1 -0.2,-0.2 -0.7,0.5 -1,0.5 -0.3,0 -0.7,-0.2 -0.9,-0.5 -0.3,-0.5 0.7,-1.1 0,-1.7 -0.6,-0.5 -1,-1.2 -1.5,-1.5 -0.5,-0.3 -1.1,0.5 -1.7,0.3 -0.3,-0.3 0,-1.1 -0.3,-1.4 -0.7,-0.6 -0.5,2.1 -3,1.4 -1.6,-0.6 -2.7,-2.3 -4.4,-2.8 -0.2,0 -5.2,0.3 -5.2,0.3 -0.6,-0.3 -0.6,-1.4 -1.3,-1.7 -0.1,-0.3 0.3,0.8 0,0.9 -0.3,0.2 -0.9,0 -1,-0.3 -0.2,-0.5 0.5,-1.1 0.3,-1.4 -2.3,-2.3 -4.9,1.8 -4.4,2 0.9,0.2 1.8,-0.2 2.8,0 0.6,0.2 -1.1,0.3 -1.6,0.6 -0.3,0.2 0.1,0.9 0,1.1 -3.8,2 -1.1,-0.9 -4.1,-0.8 -0.5,0 -7.5,1.7 -7.9,0.8 -0.2,-0.3 0.9,-0.5 0.7,-0.6 -1.5,-1.1 -2,3.5 -2,-1.8 -0.2,-2.1 1.3,-4.1 1.5,-6.3 0,-0.3 -0.6,-0.3 -0.6,-0.8 -0.2,-0.8 0.1,-1.5 0.4,-2.3 l 2.2,-3.5 c 0.1,-0.9 0.3,-4.3 0.8,-5.4 1.2,-2.4 4.3,-4.3 6,-7.2 0.5,-1.1 -8.6,-2.1 -9.2,-2.6 -0.5,-0.5 -0.1,-1.4 -0.6,-1.8 -0.8,-0.6 -5.7,1.4 -5.9,0.9 -0.2,-0.5 0.4,-1.1 0,-1.4 -4.5,-4.1 -1.5,2.1 -3.4,0.2 -1.5,-1.5 -2.2,-5 -3.5,-5.8 -0.5,-0.5 -1.3,0 -1.6,-0.5 -1.7,-3 4.4,-4.3 2.3,-6.9 -0.3,-0.5 -4,-0.8 -4.8,-4 -1.4,-5.7 5.6,-5.4 3.5,-8.9 -0.5,-0.8 -1.8,-0.6 -2.1,-1.5 -0.2,-0.6 1.1,-1.2 0.9,-1.8 0,-0.5 -0.9,0.2 -1.2,-0.2 -0.2,-0.2 -2.3,-3.4 -2.2,-3.8 0.1,-0.6 1.2,-0.6 1.3,-1.2 0.5,-2.6 -4,-3.5 -2.6,-3.8 0.4,-0.2 0.8,0.5 1.1,0.5 l 2.8,-2.6 c 0.2,-0.8 -1.8,0.2 -1.2,-1.1 0.5,-1.1 1.5,-1.8 2,-2.9 1.3,-3.4 -2,-5.8 -2.9,-7.5 -0.1,-0.3 0.1,-0.8 0.3,-1.1 0,-0.3 -0.3,-0.8 0,-0.9 0.9,-0.5 1.7,0 2.6,-0.3 0.3,-0.1 -0.3,-1.1 0,-0.9 0.9,0.3 1.5,1.4 2.6,1.4 1.1,0.1 5.2,-1.2 5.7,-2.3 0.5,-1.1 -2.9,-1.2 -1.5,-2.1 2.5,-1.7 5.3,-2.3 4.7,-6.1 -0,-2.1 -5.7,-1.2 -4.4,-3.5 0.2,-0.5 1,0 1,-0.3 0,-0.5 -0.7,-0.9 -0.5,-1.4 0,-0.3 0.5,-0.3 0.7,-0.3 1.1,0 2,0.5 3.1,0.5 1.2,0 0,-2.4 0.5,-3.7 0.4,-1.1 3,-6 2.6,-8.6 0.5,-0.2 1,-0.5 1.5,-1.1 0.7,-0.6 -0.7,-0.3 -2.2,-0.3 -0.3,-0.3 -0.7,-0.2 -1.1,-0.2 -0.3,0 -0.4,-0.2 -0.6,-0.3 -1.3,-1.5 2.1,-6.3 3.4,-6.9 0.7,-0.5 1.6,0.5 2.4,0.5 11.5,-0.5 -11.9,-1.4 5.5,-0.9 0.1,0 0.7,0.2 0.9,0.3 0.9,1.7 1.5,8.7 5.3,7.2 1.1,-0.4 -1.3,-11 2.2,-11 0.3,0 0.3,0.9 0.7,1.1 0.5,0.3 1.3,0.3 1.9,0.3 1.5,0.3 3.2,-1.2 4.5,-0.6 1.1,0.5 1.1,2 1.7,2.9 0.7,1.2 4.8,9 4.8,3.8 0,-1.1 -2.2,-0.8 -3.2,-1.7 -1.5,-1.4 -1.2,-4.9 -4.2,-5.3 -0.4,0 -4,0.8 -3.7,-1.4 0.2,-1.4 2.3,-5.7 1,-7.3 -0.5,-0.5 -3.8,1.2 -4.4,-0.5 -0.1,-0.3 1,0 1.1,-0.3 0.3,-0.3 -1.1,-0.9 -0.8,-0.9 1.5,-0.5 4.2,1.1 4.6,-2 0,-0.3 -3.6,-4.1 -3.8,-4.7 -0.5,-1.1 -0.6,-2.3 -0.6,-3.4 1.1,0.2 2.8,0 3.3,0 2,0.3 4,1.4 6,1.7 -0.1,0.5 -0.1,0.6 0.2,0.5 0.5,-0.5 0.9,-1.2 1.5,-1.4 0.3,0 -0.1,0.8 0,1.1 0.4,0.3 1.1,0.2 1.5,0.3 1.1,0.2 2.2,0.2 2.9,0.6 0.5,0.3 0.5,0.9 0.5,1.4 0,0.2 -0.3,0 -0.3,0 -0.3,0.2 -0.9,0.5 -0.6,0.6 0.1,0.3 0.9,-0.3 1.1,0 0.5,0.8 0.3,1.7 0,2.5 -0.3,0.8 -2.4,1.2 -1.8,2 0.8,1.1 3.7,-1.7 3.8,-0.3 0.2,0.9 -1.5,2.6 -0.6,2.9 1.1,0.5 1.1,-2.1 2.2,-2.3 0.9,-0.2 4.4,2.9 5.2,2.6 0,0 3.2,-3.5 4.2,-1.7 2.2,4 -8.5,8.1 -2.7,8.7 1.2,0.2 2.1,-1.4 3.4,-1.4 1.5,0.2 -0.2,4.6 3.2,2.3 0.8,-0.5 1.3,-4.3 2.6,-5 2,-1.1 4.2,-1.5 5.1,0.6 -0.2,-0.5 -0.4,-1.2 -0.2,-1.4 0.9,-1.1 2.2,-1.5 2.9,-2.5 0.9,-1.1 1.1,-2.7 2,-3.8 0.3,-0.3 2.2,0.5 4.1,1.1 0.8,-0.2 1.5,-0.3 1.8,-0.3 1.1,0 0.5,2.1 1.1,3.1 0.4,0.6 1.5,0.3 1.9,0.9 1,0.8 1.5,2.9 2.8,2.7 1,0 2.2,-0.8 3.5,-0.5 0.5,0.2 -0.7,0.9 -0.7,1.4 0.2,1.2 0.7,2.4 1.1,3.7 0.4,1.2 2,1.7 3.2,2.1 0.9,0.3 1.5,0.5 2,0.3 z m -13.9,-11.8 c 0.3,-1.4 -0.3,-3.1 0.1,-4.4 0.5,-1.4 5.1,2.6 4.1,1.2 -0.6,-0.9 -2.6,-0.5 -3,-1.5 -0.1,-0.9 1.2,-1.7 1.8,-2.4 0.6,-0.5 -0.5,1.8 0.1,2 1.1,0.3 2.1,-0.1 3,0.2 1,0.3 -1.2,1.5 -0.9,2.5 0.4,1.1 1.7,1.2 2.2,2.3 0.3,0.3 -1.7,1.8 -4.1,2.4 -1.3,0.5 -2.3,-1.4 -3.4,-2.1 z"/>
<path style="fill:#ffff3e; stroke:black; stroke-width:1.14;" d="m 63.5,166.3 c -0.2,0.6 0,1.4 -0.4,2 -0.1,0.6 -0.6,1.1 -0.9,1.7 0,0.3 2.9,2.5 1.1,3.1 -3.2,0.8 -2.2,-3.7 -4.9,-1.7 -2.2,1.5 0.5,3.2 0.9,4 0.2,0.6 -0.7,1.1 -0.7,1.7 0.1,0.6 0.7,0.9 1.1,1.4 0,0.6 -1.1,1.2 -1.7,0.9 -1.1,-0.6 -0.5,-3.1 -1.7,-3.2 -4.1,-0.8 -2.1,2.3 -4.6,1.5 -4,-0.9 -1.5,-4 -3.5,-4.3 -2.6,-0.5 -0.9,3.7 -0.9,4 -0.7,2.8 -4.3,3.7 -4.3,7 0,1.5 3,0.9 0.5,2.9 -1,0.8 -1.3,-1.8 -1.8,-2.6 -0.5,-0.5 -1.5,-0.1 -1.7,-0.8 -0.1,-0.6 0.9,-1.1 1.1,-1.7 0,-0.3 -0.3,-0.6 -0.5,-0.6 -1.6,-0.6 -4.1,-1.1 -5.1,-3.1 -0.2,-0.6 0.3,-1.2 0.3,-1.7 0,-0.9 0.2,-1.8 -0.1,-2.8 -0.1,-0.1 -0.5,0.2 -0.8,0.3 -0.7,0.6 -1.4,1.2 -2.1,1.8 -0.7,0.6 -2,0.9 -2.3,1.8 -0.1,0.6 1.3,0.9 1.1,1.7 0,0.8 -4.3,5.2 -4.4,5.2 -1.4,0 -2.4,-1.8 -3.8,-1.5 -2,0.5 -6.1,3.5 -7.6,0.8 -0.6,-0.9 -0.6,-2 -1.3,-2.8 -0.2,-0.3 -0.8,0.6 -0.9,0.3 -0.2,-0.5 0.6,-1.2 0.3,-1.7 -0.1,-0.5 -1.1,0 -1.4,-0.3 -0.9,-1.5 1.3,-1.4 1.1,-2.3 -0.2,-0.8 -1.1,-1.1 -1.1,-1.8 -0.1,-0.5 1.1,-1.4 0.5,-1.5 -2,-0.9 -6.3,-0.9 -7.6,1.2 -0.3,0.3 -0.1,0.6 -0.1,1.1 0.1,0.3 0.9,0.6 0.8,0.9 -0.9,1.8 -3,2.6 -4.9,2.1 -0.1,0 0.7,-0.3 0.7,-0.6 0,-2 1.5,-1.2 1.6,-1.7 0.7,-2.4 -1.2,-4.6 0.6,-6.9 1.1,-1.5 3.8,-1.5 4.5,-3.2 0.5,-0.9 -0.5,-2.3 0,-3.4 0.6,-1.2 2.7,-0.8 3.6,-1.8 1.1,-0.9 2.3,-4 3.7,-5.1 0.8,-0.6 1.5,1.1 1.7,-1.1 0,-0.8 -2.4,0.8 -2.5,0 -0.3,-0.8 0.9,-1.4 1.4,-2 0,0 0.3,0.2 0.3,0 0,-0.3 -0.6,-0.9 -0.3,-1.1 4.3,-1.2 2.4,4.6 7.6,-0.8 0.1,0 0.4,-0.3 0.6,-0.6 l 0.3,-0.3 c 0.3,-0.2 0.7,-0.2 0.9,0.2 0.1,0.2 -0.9,0.3 -0.7,0.6 0.5,0.9 7.5,-0.8 7.9,-0.8 3,-0.2 0.3,2.8 4.1,0.8 0.1,-0.2 -0.3,-0.9 0,-1.1 0.5,-0.3 2.2,-0.5 1.6,-0.6 -0.9,-0.2 -1.8,0.2 -2.8,0 -0.5,-0.2 2.1,-4.3 4.4,-2 0.3,0.3 -0.5,0.9 -0.3,1.4 0.1,0.3 0.7,0.5 1,0.3 0.3,-0.2 -0.1,-1.2 0,-0.9 0.7,0.3 0.7,1.4 1.3,1.7 0,0 5,-0.3 5.2,-0.3 1.5,0.3 2.6,1.8 4,2.6 v 0.2 c 0,1.1 1.9,1.4 1.3,2.9 -0.1,0.3 -0.8,0.2 -0.9,0.3 -0.4,0.8 -2,6.3 -1.6,6.4 0.3,0.2 5.3,0.6 5.5,0.6 0.3,0.3 -0.5,0.8 -0.1,1.1 0.7,0.9 1.6,1.5 2.8,2 2.4,1.2 2.9,-2.9 4.6,-2.6 0.5,0 0.8,0.2 1.1,0.3 l -0,1.4 c -0.2,0.5 -0.4,0.8 0,0.9 z"/>
<path style="fill:#ffc022; stroke:black; stroke-width:1.14;" d="m 51.6,153.1 c 0,1.1 1.9,1.4 1.3,2.9 -0.1,0.3 -0.8,0.1 -0.9,0.3 -0.1,0.5 -0.6,1.7 -1.1,3.1 l 0.7,1.7 v 1.8 c 1.6,0.2 4,0.5 4.2,0.5 0.3,0.3 -0.5,0.8 -0.1,1.1 0.7,0.9 1.6,1.5 2.8,2 2.4,1.2 2.9,-2.9 4.5,-2.6 3.2,0.5 -0.2,2.1 1,2.6 2.4,1.2 0.3,-0.3 2.6,0 1.3,0.2 2.5,3.4 4.9,2 l 2,-4.1 c 1.3,-0.9 6.6,-0.3 7.9,-0.5 2.3,-0.2 4.2,-2.1 6.5,-2.1 0.6,0 -1.1,0.8 -1.3,1.4 -0.7,3.2 1.3,1.1 2.4,2.9 0.3,0.5 -0.4,1.1 -0.1,1.7 0.1,0.3 0.6,-0.3 1,0 2.8,2.1 3.6,2.4 7.6,3.1 4.5,0.6 9.3,0.8 14,1.5 1.3,0.2 2.4,1.1 3.6,1.2 1.3,0.2 2.5,-0.8 3.7,-0.6 0.8,0.2 1.3,1.2 2,1.2 0.3,0.1 0.2,-0.8 0.5,-0.9 0.7,-0.8 2,-1.1 2.7,-2 0.7,-0.5 0.1,-1.5 0.7,-2 2.8,-2.3 5.9,0.6 8.6,-0.6 0.9,-0.5 1.1,-1.8 2,-2.1 0.1,-0.2 5.2,0.6 5.3,0.5 0.5,-0.2 -0.4,-0.8 -0.5,-1.2 -0.3,-1.5 0.3,-2.4 1.3,-2.8 2.8,-3.1 4,-3.5 5.3,-5.8 0.3,-0.6 -2.4,-3.8 -1.6,-5.4 1,-2.1 3.6,0.2 3.3,-2.9 -0.2,-2.6 -4.7,-2.3 -3.8,-3.1 2.1,-1.8 7.7,0.6 8.6,-1.1 0.1,-0.6 -2,-5.5 0.1,-6.4 -1.8,-2 -3.4,-4 -4.7,-6.3 -1.3,-2 3.2,-5.2 0,-7.5 -0.5,-0.3 -1.1,0.6 -1.5,0.6 -0.8,-0.2 -2.3,-2.1 -3.4,-1.8 -0.8,0.3 -1.1,1.5 -2,2 -0.7,0.2 -1.4,-0.2 -2,-0.2 -4.2,-0.5 -7.7,-3.8 -12.1,-3.8 -0.8,0 -1.4,0.9 -2.1,0.9 -0.4,-0.2 0,-0.9 -0.4,-1.1 -0.5,-0.3 -1.5,-0.6 -1.9,-0.2 -0.2,0.3 0.1,4.7 -0.2,5 -0.3,0.5 -1.3,-0.6 -2,-0.2 l -1.2,4 c -1.1,0.3 -2.2,-1.1 -3.2,-1.1 -0.6,0 -0.5,1.2 -1.1,1.4 -3.2,1.2 -5.1,-2 -7.5,-3.2 h -0.2 c 0.2,0.5 0.3,0.9 0.3,1.4 -0.1,4.1 -1.1,3.2 -4.3,2.4 -0.3,0 -0.6,0.2 -0.7,0.5 -0.3,1.5 0.6,3.2 -1,4.4 -1.3,1.1 -7.7,2.6 -7.9,5 0,0 3.7,5 3.7,5.2 0.1,0.2 -2,2 -1.3,2.6 1.6,1.5 3.4,-0.8 2,4.3 0,0.3 -0.4,0.8 -0.7,0.8 -4.9,-1.4 -1.1,-3.8 -3.4,-4 -1.2,0 -2.3,1.1 -3.5,0.9 -0.6,-0.2 -0.5,-1.2 -0.9,-1.4 -0.9,-0.3 -1.8,0.5 -2.6,0.2 -0.3,-0.2 0.3,-1.1 0,-1.1 -1.8,0.2 -0.1,2.6 -0.6,2.7 -2.2,0.6 -5.7,-0.3 -7.6,0.5 -0.7,0.3 -0.3,1.4 -0.9,1.7 -0.7,0.5 -1.4,-0.3 -2,0.2 -0.5,0.2 0.1,0.9 -0.1,1.2 -0.3,0.2 -5.4,1.5 -6,1.2 -0.3,-0.3 0,-1.1 -0.3,-1.4 -0.2,-0.3 -0.9,-0.3 -1.1,-0.6 -0.1,-0.3 0.7,-0.2 0.7,-0.5 -0.7,-2 -4.9,0.5 -6.1,-0.9 0,0 0.3,-0.2 0.3,-0.3 -0.9,-0.6 0,2 -0.3,3.1 0,0.6 -2.9,4.1 -4,3.1 -0.6,-0.6 1.1,-1.5 0.7,-2.2 -0.2,-0.2 -0.7,0.5 -1,0.5 -0.3,0 -0.7,-0.2 -0.9,-0.5 -0.3,-0.5 0.7,-1.1 0,-1.7 -0.6,-0.5 -1,-1.2 -1.5,-1.5 -0.5,-0.3 -1.1,0.5 -1.7,0.3 -0.3,-0.3 0,-1.1 -0.3,-1.4 -0.8,-0.6 -0.5,2.1 -3,1.4 -0.1,-0.2 -0.3,-0.2 -0.4,-0.2 v 0.2 z"/>
<path style="fill:none; stroke:black; stroke-width:1.14;" d="m 51,159.4 0.7,1.7 v 1.8 c -0.7,0 -1.3,-0.2 -1.3,-0.2 -0.2,-0.2 0.3,-1.7 0.6,-3.4 z"/>
<path style="fill:#ffff3e; stroke:black; stroke-width:1.14;" d="m 148.5,169.9 c -1.1,-0.2 -3.6,-0.8 -4.4,-0.6 -1.7,0.3 0.7,2.5 -0.3,3.1 -0.7,0.3 -1.7,-0.2 -2.4,0.2 -0.3,0.2 0.1,0.8 -0.1,1.1 -1.5,1.2 -4,1.4 -5.5,2.8 -1.8,1.7 3.4,6 1.1,7.7 -5.3,3.8 -2,-2.6 -5.5,2.4 -0.4,0.6 1.5,0.8 1.7,1.5 0.3,0.6 -1.5,0.5 -1.5,1.1 0,0.3 1.5,2.3 0.9,3.1 -1.7,1.7 -4.1,-0.9 -5.7,-0.9 -2.2,0 2.2,2.1 -1.7,1.1 -1.1,-0.3 -2.4,-2 -2.9,-2.9 -0.3,-0.3 -0.7,-1.2 -0.7,-0.9 -0.7,0.9 -0.5,2 -1.1,2.8 -2,2.6 -4.7,0 -7,0.8 -0.4,0.2 0.3,0.8 0,1.1 -1.4,0.8 -4.2,0.6 -5.5,0 0,0 0,-0.2 0.1,-0.2 0.8,-0.8 1.7,-1.5 2,-2.3 5.3,0.3 -0.9,-3.4 -2.3,-4.3 -1.1,-0.6 0.6,-2.6 0.3,-3.4 -0.3,-0.8 -2.7,1.4 -2.1,-0.6 0.5,-1.4 3.3,-2.6 2.3,-3.5 -0.8,-0.6 -4.4,-0.3 -4,-2.1 0.3,-2.5 4.1,-1.8 4.4,-4.9 h -0.3 c 0.9,0.2 1.8,0.3 2.9,0.5 1.3,0.2 2.4,1.1 3.6,1.2 1.3,0.2 2.5,-0.8 3.7,-0.6 0.8,0.2 1.3,1.2 2,1.2 0.3,0.1 0.2,-0.8 0.5,-0.9 0.7,-0.8 2,-1.1 2.7,-2 0.7,-0.5 0.1,-1.5 0.7,-2 2.8,-2.3 5.9,0.6 8.6,-0.6 0.9,-0.5 1.1,-1.8 2.1,-2.1 0.1,-0.2 5.2,0.6 5.3,0.5 0.5,-0.2 -0.4,-0.8 -0.5,-1.2 -0.5,-2.5 1.3,-3.1 3.6,-3.1 0.7,0 1.9,4.7 5.1,7.3 z"/>
<text x="38.7" y="75.3" transform="scale(0.99995,1.00005)" style="font-family:'Comic Sans MS'; font-size:11.3px; fill:black; stroke-width:1;">Germany</text>
<text x="104.4" y="157.2" transform="scale(0.99995,1.00005)" style="font-family:'Comic Sans MS'; font-size:11.3px; fill:black; stroke-width:1;">Austria</text>
<text x="32.7" y="164.3" transform="scale(0.99995,1.00005)" style="font-family:'Comic Sans MS'; text-align:center; text-anchor:middle; font-size:9.5px; fill:black; stroke-width:1;">Switzerland</text>
<text x="153.2" y="56.3" transform="scale(0.99995,1.00005)" style="font-family:'Comic Sans MS'; font-size:11.3px; fill:black; stroke-width:1;">Poland</text>
<text x="114" y="187.4" transform="scale(0.99995,1.00005)" style="font-family:'Comic Sans MS'; font-size:11.3px; fill:black; stroke-width:1;">Slovenia</text>
<path style="color:black; fill:#ffc022; stroke:black; stroke-width:1.3;" d="m 379.9,73 a 118.4,118.4 0 0 1 115.1,-52.2 118.4,118.4 0 0 1 96.6,81.5 l -112.8,35.7 z"/>
<path style="color:black; fill:#f1caff; stroke:black; stroke-width:1.3;" d="m 503.1,226.3 a 91.6,91.6 0 0 1 -109.3,-53.9 l 84.9,-34.4 z"/>
<path style="color:black; fill:#ffff3e; stroke:black; stroke-width:1.3;" d="m 393.9,172.6 a 91.6,91.6 0 0 1 -6.7,-38.3 l 91.5,3.7 z"/>
<path style="color:black; fill:#ff4141; stroke:black; stroke-width:1.3;" d="m 387.2,134 a 91.6,91.6 0 0 1 83.4,-87.3 l 8.1,91.3 z"/>
<path style="color:black; fill:#f1caff; stroke:black; stroke-width:1.3;" d="m 470.8,46.8 a 91.6,91.6 0 0 1 78.7,33.1 l -70.7,58.2 z"/>
<path style="color:black; fill:#ff4141; stroke:black; stroke-width:1.3;" d="m 549.1,79.4 a 91.6,91.6 0 0 1 20.8,50.1 l -91.2,8.6 z"/>
<path style="color:black; fill:#f1caff; stroke:black; stroke-width:1.3;" d="m 570,129.7 a 91.6,91.6 0 0 1 -22.9,69.4 l -68.3,-61 z"/>
<path style="color:black; fill:#ffff3e; stroke:black; stroke-width:1.3;" d="m 547,199.1 a 91.6,91.6 0 0 1 -43.8,27.2 l -24.4,-88.3 z"/>
<circle cx="478.7" cy="138" r="40.44" style="color:black; fill:#ffc022; stroke:black; stroke-width:1.3;"/>
<path style="fill:none; stroke:black; stroke-width:0.25px;" d="M 481.8,166.3 Z"/>
<path style="fill:#c0c0c0; stroke:white; stroke-width:0.13;" d="m 590.7,169.6 c -1,0.3 -0.5,-0.6 -0.4,-0.6 0.6,-0.1 0.7,0.2 0.4,0.6 z"/>
<text x="403.1" y="103.2" style="font-family:'Comic Sans MS'; font-size:10.5px; fill:black;">Germany</text>
<text x="477" y="39.5" style="font-family:'Comic Sans MS'; font-size:10.5px; fill:black;">Poland</text>
<text x="490.4" y="86.4" style="font-family:'Comic Sans MS'; font-size:10.5px; fill:black;">Republic</text>
<text x="484.9" y="75.2" style="font-family:'Comic Sans MS'; font-size:10.5px; fill:black;">Czech</text>
<text x="522.4" y="119.4" style="font-family:'Comic Sans MS'; font-size:10.5px; fill:black;">Slovakia</text>
<text x="522.6" y="161.1" style="font-family:'Comic Sans MS'; font-size:10.5px; fill:black;">Hungary</text>
<text x="462.4" y="150.4" style="font-family:'Comic Sans MS'; font-size:10.5px; fill:black;">Austria</text>
<text x="500.3" y="202.7" style="font-family:'Comic Sans MS'; font-size:10.5px; fill:black;">Slovenia</text>
<text x="442" y="197.9" style="font-family:'Comic Sans MS'; font-size:10.5px; fill:black;">Italy</text>
<text x="410.3" y="149.4" style="font-family:'Comic Sans MS'; text-align:center; text-anchor:middle; font-size:8.8px; fill:black;">Switzerland</text>
<g transform="matrix(0.4582,-0.02131,0.02131,0.4582,-1458,-485.498)">
<path style="color:black; fill:#9ade00;" d="m 3678,1526 c 1,-0.6 2,-1.3 3,-2 7.1,-4.4 14.6,-8.8 23.1,-11.4 1.9,-0.8 4,-1.4 5.9,-2.2 2.5,-0.9 4.9,-1.7 7.3,-2.5 2.6,-0.9 5.2,-1.5 7.8,-2.1 2.4,-0.6 5,-1.1 7.5,-1.5 2.5,-0.5 5.1,-0.8 7.6,-1.2 2.6,-0.4 5.1,-0.5 7.7,-0.7 2.5,-0.2 5.1,-0.2 7.6,-0.3 2.4,-0.1 4.9,0 7.4,0 2.4,0 4.9,0.1 7.4,0.3 l 7.2,0.6 c 2.4,0.3 4.8,0.5 7.2,0.9 2.4,0.1 4.6,0.6 6.9,1 2.2,0.3 4.3,0.8 6.5,1.2 2.1,0.4 4.1,0.9 6.2,1.3 2.2,0.6 4.3,1 6.4,1.6 2.1,0.6 4.1,1.2 6.1,1.9 1.9,0.6 3.9,1.2 5.8,1.8 1.8,0.6 3.7,1.2 5.6,1.8 1.7,0.5 3.5,1.1 5.3,1.5 1.7,0.5 3.5,0.9 5.3,1.2 1.8,0.4 3.6,0.6 5.4,0.7 1.9,0.3 3.7,0.3 5.6,0.3 1.9,0.1 3.7,0 5.6,-0.2 1.9,-0.3 3.8,-0.5 5.7,-0.8 1.9,-0.4 3.9,-0.5 5.7,-1 1.8,-0.5 3.7,-0.8 5.4,-1.4 1.9,-0.4 3.6,-1 5.4,-1.4 1.7,-0.6 3.4,-1.1 5.1,-1.6 0.9,-0.4 0.4,-0.2 1.5,-0.6 l -11.3,19.5 c -1.2,0.4 -0.5,0.2 -1.9,0.5 -1.8,0.5 -3.6,1 -5.5,1.4 -1.8,0.5 -3.7,0.9 -5.6,1.3 -2,0.3 -4,0.8 -6.1,1.1 -2.2,0.2 -4.3,0.6 -6.5,0.7 -2.2,0.2 -4.5,0.4 -6.7,0.3 -2.2,0 -4.4,-0.1 -6.5,-0.3 -2.2,-0.2 -4.4,-0.5 -6.6,-0.8 -2.2,-0.4 -4.3,-0.7 -6.4,-1.3 -1.9,-0.5 -3.9,-1 -5.8,-1.6 -1.9,-0.6 -3.9,-1.1 -5.8,-1.8 -1.9,-0.6 -3.7,-1.2 -5.6,-1.8 -1.9,-0.5 -3.8,-1.2 -5.7,-1.8 -1.8,-0.5 -3.7,-1 -5.5,-1.5 -2,-0.4 -4,-0.9 -5.9,-1.2 -2,-0.5 -4.1,-0.9 -6.1,-1.2 -2,-0.4 -4,-0.8 -6.1,-1.1 -2.1,-0.3 -4.3,-0.4 -6.4,-0.7 -2.3,-0.2 -4.5,-0.4 -6.8,-0.6 -2.3,-0.2 -4.6,-0.3 -6.9,-0.4 h -6.8 c -2.3,0 -4.6,0.2 -6.9,0.3 -2.4,0.1 -4.6,0.4 -6.9,0.6 -2.4,0.2 -4.7,0.7 -7,1 -2.3,0.4 -4.6,0.9 -6.9,1.4 -2.3,0.6 -4.6,1.1 -6.8,1.8 -2.3,0.8 -4.6,1.6 -6.8,2.4 -2.3,0.9 -4.7,1.7 -6.9,2.7 -1.9,0.7 -3.7,1.5 -5.5,2.4 -1.9,1.1 0.6,-0.4 -1.4,0.7 -0.3,0.1 -0.8,0.5 -0.6,0.4 36.3,-18.2 22.9,-10.8 16.5,-8.5 -1,0.4 -2.1,0.9 -2.9,1.5 z"/>
<path style="color:black; fill:#9ade00;" d="m 3837,1481 c 0.7,0.7 1.4,1.3 2.1,2 1.1,1 2,2 3,3 1.2,1.2 2.4,2.4 3.5,3.6 1.2,1.2 2.4,2.4 3.7,3.6 1.1,1.1 2.4,2.2 3.6,3.3 1.2,1.1 2.6,2.1 3.9,3.1 1.3,1.1 2.9,2 4.4,2.9 1.6,1 3.2,1.9 5,2.8 1.5,0.9 3.1,1.5 4.8,2.1 1.7,0.8 3.5,1.2 5.2,1.8 1.8,0.5 3.5,1.1 5.3,1.5 1.8,0.5 3.6,0.9 5.4,1.5 1.7,0.4 3.4,0.9 5.2,1.3 1.6,0.4 3.2,0.5 4.9,0.6 1.6,0 3.3,0.1 4.9,-0.2 h 0.8 l -15,18 c -0.3,-0.1 -0.6,-0.1 -0.9,-0.1 -2.2,-0.2 -4.3,-0.2 -6.4,-0.7 -2.2,-0.3 -4.3,-0.9 -6.3,-1.4 -1.8,-0.6 -3.7,-1 -5.5,-1.5 -1.9,-0.5 -3.7,-1 -5.5,-1.6 -1.9,-0.6 -3.8,-1.1 -5.7,-1.8 -1.9,-0.6 -3.7,-1.4 -5.6,-2.2 -2,-0.8 -3.9,-1.8 -5.8,-2.9 -1.9,-1 -3.8,-2.1 -5.7,-3.2 -1.8,-1.2 -3.5,-2.4 -5.1,-3.6 -1.6,-1.2 -3.1,-2.4 -4.5,-3.7 -1.3,-1.2 -2.6,-2.4 -3.8,-3.6 -1.3,-1.2 -2.5,-2.5 -3.8,-3.8 -1.1,-1.2 -2.3,-2.4 -3.5,-3.5 -0.9,-0.9 -1.8,-1.9 -2.8,-2.7 -0.8,-0.7 -1.5,-1.4 -2.3,-2.1 z"/>
<path style="color:black; fill:#9ade00;" d="m 3814,1559 c 0.9,-0.8 1.7,-1.6 2.6,-2.4 1.4,-1.1 2.6,-2.1 4,-3.1 1.5,-1.2 3.1,-2.4 4.7,-3.5 1.7,-1.3 3.4,-2.4 5,-3.7 1.7,-1.3 3.5,-2.5 5.3,-3.8 1.8,-1.2 3.7,-2.2 5.6,-3.4 1.9,-1 3.7,-2.1 5.7,-3.1 7.6,-4.7 16.1,-8.2 24.2,-12.2 2,-0.8 3.9,-1.8 6,-2.5 2,-0.8 4,-1.5 6,-2.3 2.1,-0.6 4.1,-1.2 6.1,-1.9 2,-0.6 4.2,-1 6.3,-1.5 1.8,-0.3 3.7,-0.5 5.5,-0.7 0,0 -13.3,18.8 -13.3,18.8 -1.5,0.3 -2.9,0.6 -4.3,1.1 -1.8,0.6 -3.6,1.2 -5.4,1.9 -1.8,0.6 -3.7,1.2 -5.5,2.1 -1.9,0.7 -3.8,1.5 -5.6,2.3 -1.8,1 -3.7,1.8 -5.4,2.7 -1,0.4 -1.8,1 -2.8,1.4 -0.3,0.2 -1.3,0.6 -1,0.5 16.6,-8.5 23.6,-11.6 16.5,-8.4 -1.8,1 -3.9,1.8 -5.6,2.9 -1.9,1 -3.8,2 -5.6,3 -1.8,1 -3.5,2 -5.2,3.1 -1.8,1.1 -3.4,2.4 -5,3.6 -1.5,1.2 -3.1,2.2 -4.7,3.3 -1.3,1 -2.7,1.9 -4,2.9 -0.8,0.7 -1.8,1.2 -2.5,2 z"/>
<g transform="rotate(180,3755.5,1595)">
<path style="color:black; fill:#9ade00;" d="m 3777,1633 c 0.7,0.7 1.4,1.3 2.1,2 1.1,1 2,2 3,3 1.2,1.2 2.4,2.4 3.5,3.6 1.2,1.2 2.4,2.4 3.7,3.6 1.1,1.1 2.4,2.2 3.6,3.3 1.2,1.1 2.6,2.1 3.9,3.1 1.3,1.1 2.9,2 4.4,2.9 1.6,1 3.2,1.9 5,2.8 1.5,0.9 3.1,1.5 4.8,2.1 1.7,0.8 3.5,1.2 5.2,1.8 1.8,0.5 3.5,1.1 5.3,1.5 1.8,0.5 3.6,0.9 5.4,1.5 1.7,0.4 3.4,0.9 5.2,1.3 1.6,0.4 3.2,0.5 4.9,0.6 1.6,0 3.3,0.1 4.9,-0.2 h 0.8 l -15,18 c -0.3,-0.1 -0.6,-0.1 -0.9,-0.1 -2.2,-0.2 -4.3,-0.2 -6.4,-0.7 -2.2,-0.3 -4.3,-0.9 -6.3,-1.4 -1.8,-0.6 -3.7,-1 -5.5,-1.5 -1.9,-0.5 -3.7,-1 -5.5,-1.6 -1.9,-0.6 -3.8,-1.1 -5.7,-1.8 -1.9,-0.6 -3.7,-1.4 -5.6,-2.2 -2,-0.8 -3.9,-1.8 -5.8,-2.9 -1.9,-1 -3.8,-2.1 -5.7,-3.2 -1.8,-1.2 -3.5,-2.4 -5.1,-3.6 -1.6,-1.2 -3.1,-2.4 -4.5,-3.7 -1.3,-1.2 -2.6,-2.4 -3.8,-3.6 -1.3,-1.2 -2.5,-2.5 -3.8,-3.8 -1.1,-1.2 -2.3,-2.4 -3.5,-3.5 -0.9,-0.9 -1.8,-1.9 -2.8,-2.7 -0.8,-0.7 -1.5,-1.4 -2.3,-2.1 z"/>
<path style="color:black; fill:#9ade00;" d="m 3754,1711 c 0.9,-0.8 1.7,-1.6 2.6,-2.4 1.4,-1.1 2.6,-2.1 4,-3.1 1.5,-1.2 3.1,-2.4 4.7,-3.5 1.7,-1.3 3.4,-2.4 5,-3.7 1.7,-1.3 3.5,-2.5 5.3,-3.8 1.8,-1.2 3.7,-2.2 5.6,-3.4 1.9,-1 3.7,-2.1 5.7,-3.1 7.6,-4.7 16.1,-8.2 24.2,-12.2 2,-0.8 3.9,-1.8 6,-2.5 2,-0.8 4,-1.5 6,-2.3 2.1,-0.6 4.1,-1.2 6.1,-1.9 2,-0.6 4.2,-1 6.3,-1.5 1.8,-0.3 3.7,-0.5 5.5,-0.7 0,0 -13.3,18.8 -13.3,18.8 -1.5,0.3 -2.9,0.6 -4.3,1.1 -1.8,0.6 -3.6,1.2 -5.4,1.9 -1.8,0.6 -3.7,1.2 -5.5,2.1 -1.9,0.7 -3.8,1.5 -5.6,2.3 -1.8,1 -3.7,1.8 -5.4,2.7 -1,0.4 -1.8,1 -2.8,1.4 -0.3,0.2 -1.3,0.6 -1,0.5 16.6,-8.5 23.6,-11.6 16.5,-8.4 -1.8,1 -3.9,1.8 -5.6,2.9 -1.9,1 -3.8,2 -5.6,3 -1.8,1 -3.5,2 -5.2,3.1 -1.8,1.1 -3.4,2.4 -5,3.6 -1.5,1.2 -3.1,2.2 -4.7,3.3 -1.3,1 -2.7,1.9 -4,2.9 -0.8,0.7 -1.8,1.2 -2.5,2 z"/>
</g>
</g>
</svg>
