<?xml version="1.0" encoding="UTF-8" standalone="no"?>
<!-- Copyright 2017 mathsisfun.com -->
<svg xmlns="http://www.w3.org/2000/svg" width="455" height="143.6" version="1.1">
<g transform="translate(3214 -23.83)">
<g transform="matrix(.2605 0 0 .2605 -2791 44.99)">
<circle cx="-520" cy="264.1" r="40" transform="matrix(.1773 0 0 .1773 -1436 44.6)" style="color:black; fill:#f1caff; stroke:#0084c8; stroke-width:28.19; stroke-linecap:round;"/>
<circle cx="-520" cy="264.1" r="40" transform="matrix(.1773 0 0 .1773 -1310 44.6)" style="color:black; fill:#f1caff; stroke:#0084c8; stroke-width:28.19; stroke-linecap:round;"/>
<circle cx="-520" cy="264.1" r="40" transform="matrix(.1773 0 0 .1773 -1436 170.2)" style="color:black; fill:#f1caff; stroke:#0084c8; stroke-width:28.19; stroke-linecap:round;"/>
<circle cx="-520" cy="264.1" r="40" transform="matrix(.1773 0 0 .1773 -1310 170.2)" style="color:black; fill:#f1caff; stroke:#0084c8; stroke-width:28.19; stroke-linecap:round;"/>
</g>
<g transform="matrix(.2605 0 0 .2605 -3303 42.92)">
<g style="color:black; fill:#f1caff; stroke:#0084c8; stroke-width:28.19; stroke-linecap:round;">
<g>
<circle cx="-520" cy="264.1" r="40" transform="matrix(.1773 0 0 .1773 1722 44.6)"/>
<circle cx="-520" cy="264.1" r="40" transform="matrix(.1773 0 0 .1773 1471 44.6)"/>
<circle cx="-520" cy="264.1" r="40" transform="matrix(.1773 0 0 .1773 1596 44.6)"/>
<circle cx="-520" cy="264.1" r="40" transform="matrix(.1773 0 0 .1773 1848 44.6)"/>
<circle cx="-520" cy="264.1" r="40" transform="matrix(.1773 0 0 .1773 1722 170.2)"/>
<circle cx="-520" cy="264.1" r="40" transform="matrix(.1773 0 0 .1773 1471 170.2)"/>
<circle cx="-520" cy="264.1" r="40" transform="matrix(.1773 0 0 .1773 1596 170.2)"/>
<circle cx="-520" cy="264.1" r="40" transform="matrix(.1773 0 0 .1773 1848 170.2)"/>
<circle cx="-520" cy="264.1" r="40" transform="matrix(.1773 0 0 .1773 1722 295.8)"/>
<circle cx="-520" cy="264.1" r="40" transform="matrix(.1773 0 0 .1773 1471 295.8)"/>
<circle cx="-520" cy="264.1" r="40" transform="matrix(.1773 0 0 .1773 1596 295.8)"/>
<circle cx="-520" cy="264.1" r="40" transform="matrix(.1773 0 0 .1773 1848 295.8)"/>
<circle cx="-520" cy="264.1" r="40" transform="matrix(.1773 0 0 .1773 1722 421.4)"/>
<circle cx="-520" cy="264.1" r="40" transform="matrix(.1773 0 0 .1773 1471 421.4)"/>
<circle cx="-520" cy="264.1" r="40" transform="matrix(.1773 0 0 .1773 1596 421.4)"/>
<circle cx="-520" cy="264.1" r="40" transform="matrix(.1773 0 0 .1773 1848 421.4)"/>
</g>
</g>
</g>
<text x="-3215.7" y="38.2" style="font-family:'Comic Sans MS'; font-size:18.4px; color:black; fill:black;">1 by 1 grid</text>
<text x="-3085.7" y="38.2" style="font-family:'Comic Sans MS'; font-size:18.4px; color:black; fill:black;">2 by 2 grid</text>
<text x="-2936.7" y="38.2" style="font-family:'Comic Sans MS'; font-size:18.4px; color:black; fill:black;">3 by 3 grid</text>
<text x="-2806" y="39.6" style="font-family:'Comic Sans MS'; font-size:18.4px; color:black; fill:black;">... etc</text>
<g transform="matrix(.6279 0 0 .6279 -1186 62.29)">
<g style="color:black; fill:#f1caff; stroke:#0084c8; stroke-width:28.19; stroke-linecap:round;">
<g>
<circle cx="-520" cy="264.1" r="40" transform="matrix(.07357 0 0 .07357 -2867 -12.35)"/>
<circle cx="-520" cy="264.1" r="40" transform="matrix(.07357 0 0 .07357 -2971 -12.35)"/>
<circle cx="-520" cy="264.1" r="40" transform="matrix(.07357 0 0 .07357 -2919 -12.35)"/>
<circle cx="-520" cy="264.1" r="40" transform="matrix(.07357 0 0 .07357 -2867 39.76)"/>
<circle cx="-520" cy="264.1" r="40" transform="matrix(.07357 0 0 .07357 -2971 39.76)"/>
<circle cx="-520" cy="264.1" r="40" transform="matrix(.07357 0 0 .07357 -2919 39.76)"/>
<circle cx="-520" cy="264.1" r="40" transform="matrix(.07357 0 0 .07357 -2867 91.87)"/>
<circle cx="-520" cy="264.1" r="40" transform="matrix(.07357 0 0 .07357 -2971 91.87)"/>
<circle cx="-520" cy="264.1" r="40" transform="matrix(.07357 0 0 .07357 -2919 91.87)"/>
</g>
</g>
</g>
</g>
</svg>
