<?xml version="1.0" encoding="UTF-8" standalone="no"?>
<!-- Copyright 2017 mathsisfun.com -->

<svg
   xmlns:dc="http://purl.org/dc/elements/1.1/"
   xmlns:cc="http://creativecommons.org/ns#"
   xmlns:rdf="http://www.w3.org/1999/02/22-rdf-syntax-ns#"
   xmlns:svg="http://www.w3.org/2000/svg"
   xmlns="http://www.w3.org/2000/svg"
   xmlns:xlink="http://www.w3.org/1999/xlink"
   xmlns:sodipodi="http://sodipodi.sourceforge.net/DTD/sodipodi-0.dtd"
   xmlns:inkscape="http://www.inkscape.org/namespaces/inkscape"
   width="430.601"
   height="430.601"
   version="1.1"
   id="svg106"
   sodipodi:docname="fishing-rod-square.svg"
   inkscape:version="0.92.3 (2405546, 2018-03-11)">
  <metadata
     id="metadata110">
    <rdf:RDF>
      <cc:Work
         rdf:about="">
        <dc:format>image/svg+xml</dc:format>
        <dc:type
           rdf:resource="http://purl.org/dc/dcmitype/StillImage" />
        <dc:title></dc:title>
      </cc:Work>
    </rdf:RDF>
  </metadata>
  <sodipodi:namedview
     pagecolor="#ffffff"
     bordercolor="#666666"
     borderopacity="1"
     objecttolerance="10"
     gridtolerance="10"
     guidetolerance="10"
     inkscape:pageopacity="0"
     inkscape:pageshadow="2"
     inkscape:window-width="640"
     inkscape:window-height="480"
     id="namedview108"
     showgrid="false"
     inkscape:current-layer="svg106" />
  <defs
     id="defs22">
    <linearGradient
       id="id3">
      <stop
         offset="0"
         style="stop-color:#005c94;stop-opacity:1"
         id="stop2" />
      <stop
         offset="1"
         style="stop-color:#c3eaff;stop-opacity:1"
         id="stop4" />
    </linearGradient>
    <linearGradient
       id="id2">
      <stop
         offset="0"
         style="stop-color:black;stop-opacity:1"
         id="stop7" />
      <stop
         offset="1"
         style="stop-color:#ad76f8;stop-opacity:1"
         id="stop9" />
    </linearGradient>
    <linearGradient
       id="id1">
      <stop
         offset="0"
         style="stop-color:#19aeff;stop-opacity:1"
         id="stop12" />
      <stop
         offset="1"
         style="stop-color:#c3eaff;stop-opacity:1"
         id="stop14" />
    </linearGradient>
    <linearGradient
       id="id7"
       xlink:href="#id1"
       x1="939.4"
       y1="358.7"
       x2="996.1"
       y2="358.7"
       gradientUnits="userSpaceOnUse" />
    <linearGradient
       id="id6"
       xlink:href="#id1"
       x1="889.2"
       y1="358.8"
       x2="960.9"
       y2="358.8"
       gradientUnits="userSpaceOnUse" />
    <radialGradient
       id="id5"
       r="60.992"
       fx="774.24"
       fy="365.03"
       cx="774.2"
       cy="365"
       gradientTransform="matrix(1,0,0,1.0515,0,-18.799)"
       xlink:href="#id1"
       gradientUnits="userSpaceOnUse" />
    <linearGradient
       id="id4"
       xlink:href="#id2"
       x1="924.9"
       y1="658.2"
       x2="924.8"
       y2="649.3"
       gradientUnits="userSpaceOnUse" />
    <linearGradient
       id="id8"
       xlink:href="#id3"
       x1="626.6"
       y1="663.1"
       x2="626.6"
       y2="637.8"
       gradientUnits="userSpaceOnUse" />
  </defs>
  <rect
     style="color:#000000;clip-rule:nonzero;display:inline;overflow:visible;visibility:visible;opacity:1;isolation:auto;mix-blend-mode:normal;color-interpolation:sRGB;color-interpolation-filters:linearRGB;solid-color:#000000;solid-opacity:1;vector-effect:none;fill:#b5e5ff;fill-opacity:1;fill-rule:nonzero;stroke:none;stroke-width:6.267153;stroke-linecap:butt;stroke-linejoin:miter;stroke-miterlimit:4;stroke-dasharray:none;stroke-dashoffset:0;stroke-opacity:1;marker:none;marker-start:none;marker-mid:none;marker-end:none;color-rendering:auto;image-rendering:auto;shape-rendering:auto;text-rendering:auto;enable-background:accumulate"
     id="rect957"
     width="430.601"
     height="430.601"
     x="0"
     y="0" />
  <g
     id="g999"
     transform="rotate(-45,508.893,209.52)">
    <g
       transform="matrix(0.17377,0,0,0.16322,-45.078,-20.9817)"
       id="g26">
      <path
         style="fill:#d9d9d9;stroke:#005c94;stroke-width:21.459999px"
         d="m 1000.4,339.5 c 0,-2.2 -1.7,-4 -3.8,-4 h -7.5 c -2.1,0 -3.8,1.8 -3.8,4 V 378 c 0,2.2 1.7,4 3.8,4 h 7.5 c 2.1,0 3.8,-1.8 3.8,-4 z"
         id="path24"
         inkscape:connector-curvature="0" />
    </g>
    <g
       transform="matrix(1.0136,0,0,0.58586,-646.018,-376.884)"
       id="g30">
      <path
         style="fill:url(#id4)"
         d="m 757.3,649 467.4,5.7 0.1,2.9 -467.5,2.8 v -11.3 z"
         id="path28"
         inkscape:connector-curvature="0" />
    </g>
    <g
       transform="matrix(0.17377,0,0,0.16322,-32.048,-22.2717)"
       id="g34">
      <ellipse
         cx="774.2"
         cy="365"
         rx="50.3"
         ry="53.4"
         style="fill:url(#id5);stroke:#005c94;stroke-width:21.35"
         id="ellipse32" />
    </g>
    <g
       transform="matrix(0.44632,0,0,0.40141,-217.728,-256.072)"
       id="g38">
      <path
         style="fill:none;stroke:#005c94;stroke-width:8.78px"
         d="m 707.7,666 c 0,0 13.3,-1.3 0.8,19.4 -12.4,20.7 -7.5,16.6 -7.5,33.1"
         id="path36"
         inkscape:connector-curvature="0" />
    </g>
    <g
       transform="matrix(0.17377,0,0,0.16322,-45.078,-21.2517)"
       id="g42">
      <path
         style="fill:url(#id6);stroke:#005c94;stroke-width:15.58"
         d="m 950.2,312.4 c 0,-7.4 -5.6,-13.4 -12.6,-13.4 h -25.1 c -6.9,0 -12.6,6 -12.6,13.4 V 405 c 0,7.4 5.6,13.4 12.6,13.4 h 25.1 c 6.9,0 12.6,-6 12.6,-13.4 z"
         id="path40"
         inkscape:connector-curvature="0" />
    </g>
    <g
       transform="matrix(0.17377,0,0,0.16322,-45.078,-21.2517)"
       id="g46">
      <path
         style="fill:url(#id7);stroke:#005c94;stroke-width:6.21"
         d="m 985.3,321 c 0,-5.2 -3.9,-9.4 -8.8,-9.4 h -17.6 c -4.9,0 -8.8,4.2 -8.8,9.4 v 75.5 c 0,5.2 3.9,9.4 8.8,9.4 h 17.6 c 4.9,0 8.8,-4.2 8.8,-9.4 z"
         id="path44"
         inkscape:connector-curvature="0" />
    </g>
    <g
       transform="matrix(0.193579,0.113581,-0.018957,0.032309,-79.3895,-56.2008)"
       id="g50">
      <path
         style="fill:#d9d9d9;stroke:#000000;stroke-width:22.48px"
         d="m 899.9,339.6 c 0,-10.6 -1.4,-19.2 -3.2,-19.2 h -53.9 c -1.8,0 -3.2,8.6 -3.2,19.2 v 38.3 c 0,10.6 1.4,19.2 3.2,19.2 h 53.9 c 1.8,0 3.2,-8.6 3.2,-19.2 z"
         id="path48"
         inkscape:connector-curvature="0" />
    </g>
    <g
       transform="matrix(0.310871,-0.255094,0.018962,0.020592,-184.572,260.331)"
       id="g54">
      <path
         style="fill:#d9d9d9;stroke:#000000;stroke-width:12.64px"
         d="m 899.9,339.6 c 0,-10.6 -0.6,-19.2 -1.3,-19.2 h -57.7 c -0.7,0 -1.3,8.6 -1.3,19.2 v 38.3 c 0,10.6 0.6,19.2 1.3,19.2 h 57.7 c 0.7,0 1.3,-8.6 1.3,-19.2 z"
         id="path52"
         inkscape:connector-curvature="0" />
    </g>
    <rect
       x="115.682"
       y="24.7283"
       ry="1.2"
       width="12.4"
       height="2.9"
       style="fill:#005c94;stroke:#005c94;stroke-width:0"
       id="rect56" />
    <rect
       x="115.282"
       y="47.0283"
       ry="1.4"
       width="12.4"
       height="2.9"
       style="fill:#005c94;stroke:#005c94;stroke-width:0"
       id="rect58" />
    <g
       transform="matrix(0.58586,0,0,0.58586,-295.118,-376.21)"
       id="g68">
      <g
         transform="matrix(1,0,0,1.2806,0,-193.34)"
         id="g62">
        <ellipse
           cx="1101.4"
           cy="681.3"
           rx="3.3"
           ry="7.8"
           style="fill:none;stroke:#000000;stroke-width:2.91px"
           id="ellipse60" />
      </g>
      <path
         style="fill:none;stroke:#000000;stroke-width:0.78px"
         d="m 1101.5,669 c 0.2,-5 -1.3,-8.5 -5.7,-9.9"
         id="path64"
         inkscape:connector-curvature="0" />
      <path
         style="fill:none;stroke:#000000;stroke-width:2.21px"
         d="m 1095.8,659.2 -16.4,0.1"
         id="path66"
         inkscape:connector-curvature="0" />
    </g>
    <g
       transform="matrix(0.58586,0,0,0.58586,-420.818,-376.21)"
       id="g78">
      <g
         transform="matrix(1,0,0,1.2806,0,-193.34)"
         id="g72">
        <ellipse
           cx="1101.4"
           cy="681.3"
           rx="3.3"
           ry="7.8"
           style="fill:none;stroke:#000000;stroke-width:2.91px"
           id="ellipse70" />
      </g>
      <path
         style="fill:none;stroke:#000000;stroke-width:0.78px"
         d="m 1101.5,669 c 0.2,-5 -1.3,-8.5 -5.7,-9.9"
         id="path74"
         inkscape:connector-curvature="0" />
      <path
         style="fill:none;stroke:#000000;stroke-width:2.21px"
         d="m 1095.8,659.2 -16.4,0.1"
         id="path76"
         inkscape:connector-curvature="0" />
    </g>
    <g
       transform="matrix(0.58586,0,0,0.58586,-81.288,-377.862)"
       id="g88">
      <g
         transform="matrix(1,0,0,1.2806,0,-193.34)"
         id="g82">
        <ellipse
           cx="1101.4"
           cy="681.3"
           rx="3.3"
           ry="7.8"
           style="fill:none;stroke:#000000;stroke-width:2.91px"
           id="ellipse80" />
      </g>
      <path
         style="fill:none;stroke:#000000;stroke-width:0.78px"
         d="m 1101.5,669 c 0.2,-5 -1.3,-8.5 -5.7,-9.9"
         id="path84"
         inkscape:connector-curvature="0" />
      <path
         style="fill:none;stroke:#000000;stroke-width:2.21px"
         d="m 1095.8,659.2 -16.4,0.1"
         id="path86"
         inkscape:connector-curvature="0" />
    </g>
    <g
       transform="matrix(0.58586,0,0,0.58586,-195.098,-377.862)"
       id="g98">
      <g
         transform="matrix(1,0,0,1.2806,0,-193.34)"
         id="g92">
        <ellipse
           cx="1101.4"
           cy="681.3"
           rx="3.3"
           ry="7.8"
           style="fill:none;stroke:#000000;stroke-width:2.91px"
           id="ellipse90" />
      </g>
      <path
         style="fill:none;stroke:#000000;stroke-width:0.78px"
         d="m 1101.5,669 c 0.2,-5 -1.3,-8.5 -5.7,-9.9"
         id="path94"
         inkscape:connector-curvature="0" />
      <path
         style="fill:none;stroke:#000000;stroke-width:2.21px"
         d="m 1095.8,659.2 -16.4,0.1"
         id="path96"
         inkscape:connector-curvature="0" />
    </g>
    <g
       transform="matrix(0.5175,0,0,0.58586,-269.928,-376.884)"
       id="g102">
      <path
         style="fill:url(#id8)"
         d="m 762.9,649 c 0,-3.1 -2.9,-5.7 -6.4,-5.7 H 528 c -3.5,0 -6.4,2.5 -6.4,5.7 v 11.3 c 0,3.1 2.9,5.7 6.4,5.7 h 228.5 c 3.5,0 6.4,-2.5 6.4,-5.7 z"
         id="path100"
         inkscape:connector-curvature="0" />
    </g>
  </g>
  <text
     xml:space="preserve"
     style="color:#000000;font-style:normal;font-variant:normal;font-weight:normal;font-stretch:normal;font-size:42.666668px;line-height:25px;font-family:'Trebuchet MS';-inkscape-font-specification:'Trebuchet MS';text-indent:0;text-align:start;text-decoration:none;text-decoration-line:none;text-decoration-style:solid;text-decoration-color:#000000;letter-spacing:0px;word-spacing:0px;text-transform:none;writing-mode:lr-tb;direction:ltr;baseline-shift:baseline;text-anchor:start;white-space:normal;clip-rule:nonzero;display:inline;overflow:visible;visibility:visible;opacity:1;isolation:auto;mix-blend-mode:normal;color-interpolation:sRGB;color-interpolation-filters:linearRGB;solid-color:#000000;solid-opacity:1;fill:#0084c8;fill-opacity:1;fill-rule:nonzero;stroke:none;stroke-width:1px;stroke-linecap:butt;stroke-linejoin:miter;stroke-miterlimit:4;stroke-dasharray:none;stroke-dashoffset:0;stroke-opacity:1;color-rendering:auto;image-rendering:auto;shape-rendering:auto;text-rendering:auto;enable-background:accumulate;"
     x="186.727"
     y="36.5538"
     id="text1003"><tspan
       sodipodi:role="line"
       id="tspan1001"
       x="186.727"
       y="36.5538">1 m</tspan></text>
  <text
     id="text1007"
     y="420.136"
     x="-285.168"
     style="color:#000000;font-style:normal;font-variant:normal;font-weight:normal;font-stretch:normal;font-size:42.666668px;line-height:25px;font-family:'Trebuchet MS';-inkscape-font-specification:'Trebuchet MS';text-indent:0;text-align:start;text-decoration:none;text-decoration-line:none;text-decoration-style:solid;text-decoration-color:#000000;letter-spacing:0px;word-spacing:0px;text-transform:none;writing-mode:lr-tb;direction:ltr;baseline-shift:baseline;text-anchor:start;white-space:normal;clip-rule:nonzero;display:inline;overflow:visible;visibility:visible;opacity:1;isolation:auto;mix-blend-mode:normal;color-interpolation:sRGB;color-interpolation-filters:linearRGB;solid-color:#000000;solid-opacity:1;fill:#0084c8;fill-opacity:1;fill-rule:nonzero;stroke:none;stroke-width:1px;stroke-linecap:butt;stroke-linejoin:miter;stroke-miterlimit:4;stroke-dasharray:none;stroke-dashoffset:0;stroke-opacity:1;color-rendering:auto;image-rendering:auto;shape-rendering:auto;text-rendering:auto;enable-background:accumulate;"
     xml:space="preserve"
     transform="rotate(-90)"><tspan
       y="420.136"
       x="-285.168"
       id="tspan1005"
       sodipodi:role="line">1 m</tspan></text>
  <text
     xml:space="preserve"
     style="color:#000000;font-style:normal;font-variant:normal;font-weight:normal;font-stretch:normal;font-size:42.666668px;line-height:25px;font-family:'Trebuchet MS';-inkscape-font-specification:'Trebuchet MS';text-indent:0;text-align:start;text-decoration:none;text-decoration-line:none;text-decoration-style:solid;text-decoration-color:#000000;letter-spacing:0px;word-spacing:0px;text-transform:none;writing-mode:lr-tb;direction:ltr;baseline-shift:baseline;text-anchor:start;white-space:normal;clip-rule:nonzero;display:inline;overflow:visible;visibility:visible;opacity:1;isolation:auto;mix-blend-mode:normal;color-interpolation:sRGB;color-interpolation-filters:linearRGB;solid-color:#000000;solid-opacity:1;fill:#204a87;fill-opacity:1;fill-rule:nonzero;stroke:none;stroke-width:1px;stroke-linecap:butt;stroke-linejoin:miter;stroke-miterlimit:4;stroke-dasharray:none;stroke-dashoffset:0;stroke-opacity:1;color-rendering:auto;image-rendering:auto;shape-rendering:auto;text-rendering:auto;enable-background:accumulate"
     x="-45.0912"
     y="294.822"
     id="text1011"
     transform="rotate(-45)"><tspan
       sodipodi:role="line"
       id="tspan1009"
       x="-45.0912"
       y="294.822">1.4 m</tspan></text>
</svg>
