<?xml version="1.0" encoding="UTF-8" standalone="no"?>
<!-- Copyright 2017 mathsisfun.com -->
<svg xmlns="http://www.w3.org/2000/svg" width="367.7" height="250.8" version="1.1" style="font-size:11px; fill:white; stroke-width:1.88;">
<defs>
	<marker id="id1" style="overflow:visible;" orient="auto">
		<path transform="matrix(-0.8,0,0,-0.8,-10,0)" style="fill:black; fill-opacity:0.87; stroke:black; stroke-width:1pt;" d="M 0,0 5,-5 -12.5,0 5,5 Z"/>
	</marker>
</defs>
<rect x="0.2" y="0.4" ry="0.6" width="324.6" height="250.2" style="color:black; overflow:visible; fill:#fdf200; stroke:#005c94; stroke-width:0.4;"/>
<path style="color:black; overflow:visible; fill-opacity:0.87; stroke:black; stroke-width:0.93; stroke-linejoin:round;" d="m 163.7,175.9 c 83.8,0 151.8,-68 151.8,-151.8 0,-8 -0.6,-15.9 -1.8,-23.6 H 13.8 c -1.2,7.7 -1.9,15.6 -1.9,23.6 0,83.8 68,151.8 151.8,151.8 z"/>
<polyline points="585.00 300.00, 610.00 300.00, " transform="matrix(-0.48974,0,0,-0.48974,310.79,170.425)" style="fill-opacity:0.87; stroke:black; stroke-width:5;"/>
<polyline points="583.92 275.16, 608.82 272.98, " transform="matrix(-0.48974,0,0,-0.48974,310.79,170.425)" style="fill-opacity:0.87; stroke:black;"/>
<polyline points="329.54 294.79, 526.51 260.06, " transform="matrix(-0.48974,0,0,-0.48974,310.79,170.425)" style="fill-opacity:0.87; stroke:black;"/>
<polyline points="580.67 250.51, 605.29 246.17, " transform="matrix(-0.48974,0,0,-0.48974,310.79,170.425)" style="fill-opacity:0.87; stroke:black;"/>
<polyline points="575.29 226.24, 599.44 219.77, " transform="matrix(-0.48974,0,0,-0.48974,310.79,170.425)" style="fill-opacity:0.87; stroke:black;"/>
<polyline points="328.19 289.74, 516.13 221.34, " transform="matrix(-0.48974,0,0,-0.48974,310.79,170.425)" style="fill-opacity:0.87; stroke:black;"/>
<polyline points="567.81 202.52, 591.30 193.97, " transform="matrix(-0.48974,0,0,-0.48974,310.79,170.425)" style="fill-opacity:0.87; stroke:black;"/>
<polyline points="558.30 179.55, 580.96 168.99, " transform="matrix(-0.48974,0,0,-0.48974,310.79,170.425)" style="fill-opacity:0.87; stroke:black;"/>
<polyline points="325.98 285.00, 499.19 185.00, " transform="matrix(-0.48974,0,0,-0.48974,310.79,170.425)" style="fill-opacity:0.87; stroke:black;"/>
<polyline points="546.82 157.50, 568.47 145.00, " transform="matrix(-0.48974,0,0,-0.48974,310.79,170.425)" style="fill-opacity:0.87; stroke:black;"/>
<polyline points="533.46 136.53, 553.94 122.19, " transform="matrix(-0.48974,0,0,-0.48974,310.79,170.425)" style="fill-opacity:0.87; stroke:black; stroke-width:1.88;"/>
<polyline points="322.98 280.72, 476.19 152.16, " transform="matrix(-0.48974,0,0,-0.48974,310.79,170.425)" style="fill-opacity:0.87; stroke:black;"/>
<polyline points="518.32 116.81, 537.47 100.74, " transform="matrix(-0.48974,0,0,-0.48974,310.79,170.425)" style="fill-opacity:0.87; stroke:black;"/>
<polyline points="501.53 98.475, 519.20 80.797, " transform="matrix(-0.48974,0,0,-0.48974,310.79,170.425)" style="fill-opacity:0.87; stroke:black; stroke-width:5.1;"/>
<polyline points="319.28 277.02, 447.84 123.81, " transform="matrix(-0.48974,0,0,-0.48974,310.79,170.425)" style="fill-opacity:0.87; stroke:black;"/>
<polyline points="483.19 81.677, 499.26 62.526, " transform="matrix(-0.48974,0,0,-0.48974,310.79,170.425)" style="fill-opacity:0.87; stroke:black;"/>
<polyline points="463.47 66.542, 477.81 46.063, " transform="matrix(-0.48974,0,0,-0.48974,310.79,170.425)" style="fill-opacity:0.87; stroke:black;"/>
<polyline points="315.00 274.02, 415.00 100.81, " transform="matrix(-0.48974,0,0,-0.48974,310.79,170.425)" style="fill-opacity:0.87; stroke:black;"/>
<polyline points="442.50 53.183, 455.00 31.532, " transform="matrix(-0.48974,0,0,-0.48974,310.79,170.425)" style="fill-opacity:0.87; stroke:black;"/>
<polyline points="420.45 41.702, 431.01 19.045, " transform="matrix(-0.48974,0,0,-0.48974,310.79,170.425)" style="fill-opacity:0.87; stroke:black;"/>
<polyline points="310.26 271.81, 378.66 83.871, " transform="matrix(-0.48974,0,0,-0.48974,310.79,170.425)" style="fill-opacity:0.87; stroke:black;"/>
<polyline points="397.48 32.188, 406.03 8.6953, " transform="matrix(-0.48974,0,0,-0.48974,310.79,170.425)" style="fill-opacity:0.87; stroke:black;"/>
<polyline points="373.76 24.711, 380.23 0.56299, " transform="matrix(-0.48974,0,0,-0.48974,310.79,170.425)" style="fill-opacity:0.87; stroke:black;"/>
<polyline points="305.21 270.46, 339.94 73.494, " transform="matrix(-0.48974,0,0,-0.48974,310.79,170.425)" style="fill-opacity:0.87; stroke:black;"/>
<polyline points="349.49 19.330, 353.83 -5.2904, " transform="matrix(-0.48974,0,0,-0.48974,310.79,170.425)" style="fill-opacity:0.87; stroke:black;"/>
<polyline points="324.84 16.085, 327.02 -8.8204, " transform="matrix(-0.48974,0,0,-0.48974,310.79,170.425)" style="fill-opacity:0.87; stroke:black;"/>
<polyline points="300.00 15.000, 300.00 -10.000, " transform="matrix(-0.48974,0,0,-0.48974,310.79,170.425)" style="fill-opacity:0.87; stroke:black; stroke-width:5;"/>
<polyline points="275.16 16.085, 272.98 -8.8204, " transform="matrix(-0.48974,0,0,-0.48974,310.79,170.425)" style="fill-opacity:0.87; stroke:black;"/>
<polyline points="294.79 270.46, 260.06 73.494, " transform="matrix(-0.48974,0,0,-0.48974,310.79,170.425)" style="fill-opacity:0.87; stroke:black;"/>
<polyline points="250.51 19.330, 246.17 -5.2904, " transform="matrix(-0.48974,0,0,-0.48974,310.79,170.425)" style="fill-opacity:0.87; stroke:black;"/>
<polyline points="226.24 24.711, 219.77 0.56299, " transform="matrix(-0.48974,0,0,-0.48974,310.79,170.425)" style="fill-opacity:0.87; stroke:black;"/>
<polyline points="289.74 271.81, 221.34 83.871, " transform="matrix(-0.48974,0,0,-0.48974,310.79,170.425)" style="fill-opacity:0.87; stroke:black;"/>
<polyline points="202.52 32.188, 193.97 8.6953, " transform="matrix(-0.48974,0,0,-0.48974,310.79,170.425)" style="fill-opacity:0.87; stroke:black;"/>
<polyline points="179.55 41.702, 168.99 19.045, " transform="matrix(-0.48974,0,0,-0.48974,310.79,170.425)" style="fill-opacity:0.87; stroke:black;"/>
<polyline points="285.00 274.02, 185.00 100.81, " transform="matrix(-0.48974,0,0,-0.48974,310.79,170.425)" style="fill-opacity:0.87; stroke:black;"/>
<polyline points="157.50 53.183, 145.00 31.532, " transform="matrix(-0.48974,0,0,-0.48974,310.79,170.425)" style="fill-opacity:0.87; stroke:black;"/>
<polyline points="136.53 66.542, 122.19 46.063, " transform="matrix(-0.48974,0,0,-0.48974,310.79,170.425)" style="fill-opacity:0.87; stroke:black;"/>
<polyline points="280.72 277.02, 152.16 123.81, " transform="matrix(-0.48974,0,0,-0.48974,310.79,170.425)" style="fill-opacity:0.87; stroke:black;"/>
<polyline points="116.81 81.677, 100.74 62.526, " transform="matrix(-0.48974,0,0,-0.48974,310.79,170.425)" style="fill-opacity:0.87; stroke:black;"/>
<polyline points="98.475 98.475, 80.797 80.797, " transform="matrix(-0.48974,0,0,-0.48974,310.79,170.425)" style="fill-opacity:0.87; stroke:black; stroke-width:5;"/>
<polyline points="277.02 280.72, 123.81 152.16, " transform="matrix(-0.48974,0,0,-0.48974,310.79,170.425)" style="fill-opacity:0.87; stroke:black;"/>
<polyline points="81.677 116.81, 62.526 100.74, " transform="matrix(-0.48974,0,0,-0.48974,310.79,170.425)" style="fill-opacity:0.87; stroke:black;"/>
<polyline points="66.542 136.53, 46.063 122.19, " transform="matrix(-0.48974,0,0,-0.48974,310.79,170.425)" style="fill-opacity:0.87; stroke:black;"/>
<polyline points="274.02 285.00, 100.81 185.00, " transform="matrix(-0.48974,0,0,-0.48974,310.79,170.425)" style="fill-opacity:0.87; stroke:black;"/>
<polyline points="53.183 157.50, 31.532 145.00, " transform="matrix(-0.48974,0,0,-0.48974,310.79,170.425)" style="fill-opacity:0.87; stroke:black;"/>
<polyline points="41.702 179.55, 19.045 168.99, " transform="matrix(-0.48974,0,0,-0.48974,310.79,170.425)" style="fill-opacity:0.87; stroke:black;"/>
<polyline points="271.81 289.74, 83.871 221.34, " transform="matrix(-0.48974,0,0,-0.48974,310.79,170.425)" style="fill-opacity:0.87; stroke:black;"/>
<polyline points="32.188 202.52, 8.6953 193.97, " transform="matrix(-0.48974,0,0,-0.48974,310.79,170.425)" style="fill-opacity:0.87; stroke:black;"/>
<polyline points="24.711 226.24, 0.56299 219.77, " transform="matrix(-0.48974,0,0,-0.48974,310.79,170.425)" style="fill-opacity:0.87; stroke:black;"/>
<polyline points="270.46 294.79, 73.494 260.06, " transform="matrix(-0.48974,0,0,-0.48974,310.79,170.425)" style="fill-opacity:0.87; stroke:black;"/>
<polyline points="19.330 250.51, -5.2904 246.17, " transform="matrix(-0.48974,0,0,-0.48974,310.79,170.425)" style="fill-opacity:0.87; stroke:black;"/>
<polyline points="16.085 275.16, -8.8204 272.98, " transform="matrix(-0.48974,0,0,-0.48974,310.79,170.425)" style="fill-opacity:0.87; stroke:black;"/>
<polyline points="270.00 300.00, 70.000 300.00, " transform="matrix(-1.1169,0,0,-0.48974,354.1,170.425)" style="fill-opacity:0.87; stroke:black; stroke-width:2.7;"/>
<polyline points="15.000 300.00, -10.000 300.00, " transform="matrix(-0.48974,0,0,-0.48974,310.79,170.425)" style="fill-opacity:0.87; stroke:black; stroke-width:5;"/>
<circle cx="-163.7" cy="-24.1" r="14.198" transform="scale(-1)" style="color:black; overflow:visible; fill-opacity:0.87; stroke:black; stroke-width:0.92; stroke-linejoin:round;"/>
<text x="-125.7" y="-5" transform="scale(-1)" style="font-family:Arial; color:black; overflow:visible; fill-opacity:0.87; stroke-width:5;">© mathsisfun.com</text>
<polyline points="300.00 270.00, 300.00 70.000, " transform="matrix(-0.11685,0,0,-0.63186,198.5,180.235)" style="fill-opacity:0.87; stroke:black; stroke-width:11.12;"/>
<text x="-27.1" y="48" transform="rotate(-90)" style="font-family:Arial; fill:#121513; stroke:#636466; stroke-width:0.54;">0</text>
<text x="-33.4" y="35.9" transform="rotate(-90)" style="font-family:Arial; fill:#121513; stroke:#636466; stroke-width:0.54;">180</text>
<text x="-59" y="41.1" transform="rotate(-100)" style="font-family:Arial; fill:#121513; stroke:#636466; stroke-width:0.54;">10</text>
<text x="-63" y="29.1" transform="rotate(-100)" style="font-family:Arial; fill:#121513; stroke:#636466; stroke-width:0.54;">170</text>
<text x="-84.3" y="29.7" transform="rotate(-110)" style="font-family:Arial; fill:#121513; stroke:#636466; stroke-width:0.54;">20</text>
<text x="-89.8" y="17.2" transform="rotate(-110)" style="font-family:Arial; fill:#121513; stroke:#636466; stroke-width:0.54;">160</text>
<text x="-107.9" y="14.2" transform="rotate(-120)" style="font-family:Arial; fill:#121513; stroke:#636466; stroke-width:0.54;">30</text>
<text x="-113.5" y="2.2" transform="rotate(-120)" style="font-family:Arial; fill:#121513; stroke:#636466; stroke-width:0.54;">150</text>
<text x="-130" y="-5.8" transform="rotate(-130)" style="font-family:Arial; fill:#121513; stroke:#636466; stroke-width:0.54;">40</text>
<text x="-133.8" y="-18.6" transform="rotate(-130)" style="font-family:Arial; fill:#121513; stroke:#636466; stroke-width:0.54;">140</text>
<text x="-147.6" y="-29.8" transform="rotate(-140)" style="font-family:Arial; fill:#121513; stroke:#636466; stroke-width:0.54;">50</text>
<text x="-150.6" y="-41.7" transform="rotate(-140)" style="font-family:Arial; fill:#121513; stroke:#636466; stroke-width:0.54;">130</text>
<text x="-160.2" y="-55.5" transform="rotate(-150)" style="font-family:Arial; fill:#121513; stroke:#636466; stroke-width:0.54;">60</text>
<text x="-163.4" y="-68" transform="rotate(-150)" style="font-family:Arial; fill:#121513; stroke:#636466; stroke-width:0.54;">120</text>
<text x="-167.8" y="-83.3" transform="rotate(-160)" style="font-family:Arial; fill:#121513; stroke:#636466; stroke-width:0.54;">70</text>
<text x="-171.5" y="-95.8" transform="rotate(-160)" style="font-family:Arial; fill:#121513; stroke:#636466; stroke-width:0.54;">110</text>
<text x="-170.4" y="-112.1" transform="rotate(-170)" style="font-family:Arial; fill:#121513; stroke:#636466; stroke-width:0.54;">80</text>
<text x="-174.5" y="-123.8" transform="rotate(-170)" style="font-family:Arial; fill:#121513; stroke:#636466; stroke-width:0.54;">100</text>
<text x="-173.6" y="-146.2" transform="scale(-1)" style="font-family:Arial; font-size:18.6px; fill:#121513; stroke:#636466; stroke-width:0.92;">90</text>
<text x="-166.3" y="-169.2" transform="rotate(170)" style="font-family:Arial; fill:#121513; stroke:#636466; stroke-width:0.54;">100</text>
<text x="-162.6" y="-180.9" transform="rotate(170)" style="font-family:Arial; fill:#121513; stroke:#636466; stroke-width:0.54;">80</text>
<text x="-154.7" y="-195.9" transform="rotate(160)" style="font-family:Arial; fill:#121513; stroke:#636466; stroke-width:0.54;">110</text>
<text x="-150.7" y="-207.3" transform="rotate(160)" style="font-family:Arial; fill:#121513; stroke:#636466; stroke-width:0.54;">70</text>
<text x="-139.3" y="-219.7" transform="rotate(150)" style="font-family:Arial; fill:#121513; stroke:#636466; stroke-width:0.54;">120</text>
<text x="-135.6" y="-232" transform="rotate(150)" style="font-family:Arial; fill:#121513; stroke:#636466; stroke-width:0.54;">60</text>
<text x="-119.8" y="-240.8" transform="rotate(140)" style="font-family:Arial; fill:#121513; stroke:#636466; stroke-width:0.54;">130</text>
<text x="-116.3" y="-252.8" transform="rotate(140)" style="font-family:Arial; fill:#121513; stroke:#636466; stroke-width:0.54;">50</text>
<text x="-96.4" y="-257.5" transform="rotate(130)" style="font-family:Arial; fill:#121513; stroke:#636466; stroke-width:0.54;">140</text>
<text x="-93.2" y="-269.6" transform="rotate(130)" style="font-family:Arial; fill:#121513; stroke:#636466; stroke-width:0.54;">40</text>
<text x="-70.6" y="-270.6" transform="rotate(120)" style="font-family:Arial; fill:#121513; stroke:#636466; stroke-width:0.54;">150</text>
<text x="-68.3" y="-282.7" transform="rotate(120)" style="font-family:Arial; fill:#121513; stroke:#636466; stroke-width:0.54;">30</text>
<text x="-43.1" y="-279.1" transform="rotate(110)" style="font-family:Arial; fill:#121513; stroke:#636466; stroke-width:0.54;">160</text>
<text x="-40.9" y="-290.7" transform="rotate(110)" style="font-family:Arial; fill:#121513; stroke:#636466; stroke-width:0.54;">20</text>
<text x="-15.1" y="-282.6" transform="rotate(100)" style="font-family:Arial; fill:#121513; stroke:#636466; stroke-width:0.54;">170</text>
<text x="-12.7" y="-294.5" transform="rotate(100)" style="font-family:Arial; fill:#121513; stroke:#636466; stroke-width:0.54;">10</text>
<text x="12.4" y="-281" transform="rotate(90)" style="font-family:Arial; fill:#121513; stroke:#636466; stroke-width:0.54;">180</text>
<text x="20" y="-293.1" transform="rotate(90)" style="font-family:Arial; fill:#121513; stroke:#636466; stroke-width:0.54;">0</text>
<path style="color:black; marker-end:url(#id1); overflow:visible; fill:black; fill-opacity:0.87; stroke:black; stroke-width:1.5;" d="M 355.3,208 H 261"/>
<text x="330.6" y="185.1" style="font-family:Verdana; text-align:center; text-anchor:middle; font-size:14.7px; color:black; overflow:visible; fill:black; stroke-width:1px;">Cardboard</text>
<text x="322.8" y="201.1" style="font-family:Verdana; text-align:center; text-anchor:middle; font-size:14.7px; color:black; overflow:visible; fill:black; stroke-width:1px;">or Wood</text>
</svg>