<?xml version="1.0" encoding="UTF-8" standalone="no"?>
<!-- Copyright 2017 mathsisfun.com -->
<svg xmlns="http://www.w3.org/2000/svg" xmlns:xlink="http://www.w3.org/1999/xlink" width="157.7" height="239.3" version="1.1">
<defs>
<radialGradient id="id2" r="92.14" cx="-850.1" cy="-629.6" gradientTransform="matrix(.8484 .000006663 -.000003038 .3869 -140.2 -342.6)" gradientUnits="userSpaceOnUse">
<stop offset="0" style="stop-color:white;"/>
<stop offset="1" style="stop-color:#d2d2d2;"/>
</radialGradient>
<linearGradient id="id1" gradientTransform="matrix(.8484 0 0 .8484 -140.2 -57.43)" x1="-923.4" y1="-500.2" x2="-739.6" y2="-500.2" gradientUnits="userSpaceOnUse">
<stop offset="0" style="stop-color:#ffd700;"/>
<stop offset="1" style="stop-color:#ffd700; stop-opacity:0;"/>
</linearGradient>
</defs>
<g transform="translate(924.9 618)">
<rect x="442.9" y="-896.2" width="245.7" height="131.4"/>
<text x="-284.3" y="2167.5" transform="scale(.9993 1.001)" style="font-family:'Comic Sans MS'; font-weight:bold; font-size:22px; fill:black;"></text>
<path style="fill:url(#id1); stroke:black; stroke-width:2.55;" d="m-769.4-580.90.8 167c-0.7 11.6-15.2 23-38.8 29.2-23.5 6.2-52.5 6.2-76.1 0-23.5-6.2-38-17.6-37.9-31l-1.3-168.8"/>
<ellipse cx="-846.1" cy="-581.7" rx="77.1" ry="34.6" style="color:black; fill:url(#id2); stroke:#0e0000; stroke-width:3.39;"/>
<path style="color:black; fill:#c17d11; stroke:black; stroke-width:2.95;" d="m-861.4-487s21.7 4 43.6 2.1 49-19.6 49-19.6l0.1 28.9s-25.7 16.4-48.8 18.3c-23.2 1.9-43.5-3.7-43.5-3.7z"/>
<path style="color:black; fill:#c17d11; stroke:black; stroke-width:2.95;" d="m-920.7-517.4s7.1-15.4 25.7-15.4c18.6 0 35 20.9 35 56.5 0 35.6-14.4 50.4-36.9 50.4s-24.5-19.1-24.5-19.1"/>
<path style="color:black; fill:#9ade00; stroke:black; stroke-width:2.95;" d="m-914.2-501.5s-3.5-6.4 8.3-5.8 25 12.8 22.1 19.9c-2.9 7.1-10.6 22.5-18.3 21.2-7.7-1.3-17.3-9.6-16.4-17 1-7.4 4.2-18.3 4.2-18.3z"/>
<path style="color:black; fill:#73d216; stroke:black; stroke-width:2.95;" d="m-902.1-438.4c13.80.3 26.6-5.8 25.3-15.7-1.3-10-6.7-26.3-16.7-26.6s-25.7 6.1-23.7 19.3c1.9 13.2 15.1 23.1 15.1 23.1z"/>
<path style="color:black; fill:#c17d11; stroke:black; stroke-width:1.27;" d="m-846.2-479.1c0.9 11.4-0.5 12.8-0.5 12.8"/>
<path style="color:black; fill:#c17d11; stroke:black; stroke-width:1.27;" d="m-841-474.3c1 7.6-0.5 8.5-0.5 8.5"/>
<path style="color:black; fill:#c17d11; stroke:black; stroke-width:1.27;" d="m-835.8-474.4c1 7.6-0.5 8.5-0.5 8.5"/>
<path style="color:black; fill:#c17d11; stroke:black; stroke-width:1.27;" d="m-830.7-473.4c1 7.6-0.5 8.5-0.5 8.5"/>
<path style="color:black; fill:#c17d11; stroke:black; stroke-width:1.27;" d="m-825.2-478c0.9 10.8-0.4 12.2-0.4 12.2"/>
<path style="color:black; fill:#c17d11; stroke:black; stroke-width:1.27;" d="m-789-487.1c0.9 11.4-0.5 12.8-0.5 12.8"/>
<path style="color:black; fill:#c17d11; stroke:black; stroke-width:1.27;" d="m-810.7-476c1 7.6-0.5 8.5-0.5 8.5"/>
<path style="color:black; fill:#c17d11; stroke:black; stroke-width:1.27;" d="m-804.5-478c1 7.6-0.5 8.5-0.5 8.5"/>
<path style="color:black; fill:#c17d11; stroke:black; stroke-width:1.27;" d="m-798.8-478.3c1 7.6-0.5 8.5-0.5 8.5"/>
<path style="color:black; fill:#c17d11; stroke:black; stroke-width:1.27;" d="m-794.1-482.3c0.9 10.8-0.4 12.2-0.4 12.2"/>
</g>
</svg>
