<?xml version="1.0" encoding="UTF-8" standalone="no"?>
<!-- Copyright 2021 mathsisfun.com -->

<svg
   width="263.04"
   height="235.033"
   version="1.1"
   style="stroke-width:0.2"
   id="svg301"
   sodipodi:docname="sage-walks.svg"
   inkscape:version="1.1 (c68e22c387, 2021-05-23)"
   xmlns:inkscape="http://www.inkscape.org/namespaces/inkscape"
   xmlns:sodipodi="http://sodipodi.sourceforge.net/DTD/sodipodi-0.dtd"
   xmlns:xlink="http://www.w3.org/1999/xlink"
   xmlns="http://www.w3.org/2000/svg"
   xmlns:svg="http://www.w3.org/2000/svg">
  <sodipodi:namedview
     id="namedview303"
     pagecolor="#ffffff"
     bordercolor="#666666"
     borderopacity="1.0"
     inkscape:pageshadow="2"
     inkscape:pageopacity="0.0"
     inkscape:pagecheckerboard="0"
     showgrid="false"
     inkscape:current-layer="svg301"
     inkscape:snap-global="false" />
  <defs
     id="defs108">
    <linearGradient
       inkscape:collect="always"
       id="linearGradient121958">
      <stop
         style="stop-color:#986445;stop-opacity:1"
         offset="0"
         id="stop121954" />
      <stop
         style="stop-color:#986445;stop-opacity:0"
         offset="1"
         id="stop121956" />
    </linearGradient>
    <linearGradient
       inkscape:collect="always"
       id="linearGradient105058">
      <stop
         style="stop-color:#c1874e;stop-opacity:1"
         offset="0"
         id="stop105054" />
      <stop
         style="stop-color:#c1874e;stop-opacity:1"
         offset="0.802647"
         id="stop105446" />
      <stop
         style="stop-color:#694725;stop-opacity:1"
         offset="1"
         id="stop105056" />
    </linearGradient>
    <linearGradient
       inkscape:collect="always"
       id="linearGradient102124">
      <stop
         style="stop-color:#c1874e;stop-opacity:1"
         offset="0"
         id="stop102120" />
      <stop
         style="stop-color:#c1874e;stop-opacity:1"
         offset="0.289882"
         id="stop103740" />
      <stop
         style="stop-color:#8d5e31;stop-opacity:1"
         offset="0.677935"
         id="stop103806" />
      <stop
         style="stop-color:#c1874e;stop-opacity:1"
         offset="1"
         id="stop102122" />
    </linearGradient>
    <linearGradient
       inkscape:collect="always"
       id="linearGradient100690">
      <stop
         style="stop-color:#ac7446;stop-opacity:1"
         offset="0"
         id="stop100686" />
      <stop
         style="stop-color:#ac7446;stop-opacity:1"
         offset="0.532395"
         id="stop101078" />
      <stop
         style="stop-color:#5e3f26;stop-opacity:1"
         offset="1"
         id="stop100688" />
    </linearGradient>
    <linearGradient
       inkscape:collect="always"
       id="linearGradient99261">
      <stop
         style="stop-color:#c18754;stop-opacity:1"
         offset="0"
         id="stop99257" />
      <stop
         style="stop-color:#c18754;stop-opacity:1"
         offset="0.503934"
         id="stop99457" />
      <stop
         style="stop-color:#9e784c;stop-opacity:1"
         offset="0.683365"
         id="stop104686" />
      <stop
         style="stop-color:#382415;stop-opacity:1"
         offset="1"
         id="stop99259" />
    </linearGradient>
    <linearGradient
       inkscape:collect="always"
       id="linearGradient84314">
      <stop
         style="stop-color:#7d593a;stop-opacity:1"
         offset="0"
         id="stop84310" />
      <stop
         style="stop-color:#ab7950;stop-opacity:1"
         offset="0.617758"
         id="stop84638" />
      <stop
         style="stop-color:#c18754;stop-opacity:1"
         offset="1"
         id="stop84312" />
    </linearGradient>
    <inkscape:path-effect
       effect="skeletal"
       id="path-effect13724"
       is_visible="true"
       lpeversion="1"
       pattern="M 0,18.8679 C 0,8.45283 8.45283,0 18.8679,0 29.283,0 37.7358,8.45283 37.7358,18.8679 37.7358,29.283 29.283,37.7358 18.8679,37.7358 8.45283,37.7358 0,29.283 0,18.8679 Z"
       copytype="single_stretched"
       prop_scale="1"
       scale_y_rel="false"
       spacing="0"
       normal_offset="0"
       tang_offset="0"
       prop_units="false"
       vertical_pattern="false"
       hide_knot="false"
       fuse_tolerance="0" />
    <inkscape:path-effect
       effect="skeletal"
       id="path-effect13508"
       is_visible="true"
       lpeversion="1"
       pattern="m -475.06,742.5 c 2.242,0 4.062,1.821 4.062,4.063 0,2.242 -1.82,4.063 -4.062,4.063 -2.243,0 -4.063,-1.821 -4.063,-4.063 0,-2.242 1.82,-4.063 4.063,-4.063 z"
       copytype="single_stretched"
       prop_scale="1"
       scale_y_rel="false"
       spacing="0"
       normal_offset="0"
       tang_offset="0"
       prop_units="false"
       vertical_pattern="false"
       hide_knot="false"
       fuse_tolerance="0" />
    <linearGradient
       inkscape:collect="always"
       id="linearGradient48715">
      <stop
         style="stop-color:#dfc9b4;stop-opacity:1"
         offset="0"
         id="stop48711" />
      <stop
         style="stop-color:#dfc9b4;stop-opacity:0"
         offset="1"
         id="stop48713" />
    </linearGradient>
    <linearGradient
       inkscape:collect="always"
       id="linearGradient47371">
      <stop
         style="stop-color:#ffffff;stop-opacity:0.72549"
         offset="0"
         id="stop47367" />
      <stop
         style="stop-color:#ffffff;stop-opacity:0"
         offset="1"
         id="stop47369" />
    </linearGradient>
    <linearGradient
       id="id14">
      <stop
         offset="0"
         style="stop-color:#4c4b1f;stop-opacity:1"
         id="stop2" />
      <stop
         offset="1"
         style="stop-color:#ecffba;stop-opacity:0"
         id="stop4" />
    </linearGradient>
    <linearGradient
       id="id13">
      <stop
         offset="0"
         style="stop-color:#5e5d26;stop-opacity:1"
         id="stop7" />
      <stop
         offset="1"
         style="stop-color:#ecffba;stop-opacity:1"
         id="stop9" />
    </linearGradient>
    <linearGradient
       id="id11">
      <stop
         offset="0"
         style="stop-color:#c4a000;stop-opacity:0"
         id="stop12" />
      <stop
         offset="1"
         style="stop-color:white;stop-opacity:1"
         id="stop14" />
    </linearGradient>
    <linearGradient
       id="id9">
      <stop
         offset="0"
         style="stop-color:#a7a748;stop-opacity:1"
         id="stop17" />
      <stop
         offset="0.257"
         style="stop-color:#5f5f29;stop-opacity:1"
         id="stop19" />
      <stop
         offset="1"
         style="stop-color:#5a5a27;stop-opacity:0"
         id="stop21" />
    </linearGradient>
    <linearGradient
       id="id10">
      <stop
         offset="0"
         style="stop-color:#5a5a27;stop-opacity:1"
         id="stop24" />
      <stop
         offset="1"
         style="stop-color:#5a5a27;stop-opacity:0"
         id="stop26" />
    </linearGradient>
    <linearGradient
       id="id12">
      <stop
         offset="0"
         style="stop-color:white;stop-opacity:1"
         id="stop29" />
      <stop
         offset="1"
         style="stop-color:white;stop-opacity:0"
         id="stop31" />
    </linearGradient>
    <linearGradient
       id="id8">
      <stop
         offset="0"
         style="stop-color:#ab9f92;stop-opacity:1"
         id="stop34" />
      <stop
         offset="0.343"
         style="stop-color:#a99e91;stop-opacity:1"
         id="stop36" />
      <stop
         offset="1"
         style="stop-color:#ab9f92;stop-opacity:1"
         id="stop38" />
    </linearGradient>
    <linearGradient
       id="id7">
      <stop
         offset="0"
         style="stop-color:#c6c6a2;stop-opacity:1"
         id="stop41" />
      <stop
         offset="0.46"
         style="stop-color:#ebebde;stop-opacity:1"
         id="stop43" />
      <stop
         offset="1"
         style="stop-color:#c6c6a2;stop-opacity:1"
         id="stop45" />
    </linearGradient>
    <linearGradient
       id="id6">
      <stop
         offset="0"
         style="stop-color:#a1a16f;stop-opacity:1"
         id="stop48" />
      <stop
         offset="1"
         style="stop-color:#c5c5a1;stop-opacity:1"
         id="stop50" />
    </linearGradient>
    <linearGradient
       id="id5">
      <stop
         offset="0"
         style="stop-color:white;stop-opacity:1"
         id="stop53" />
      <stop
         offset="1"
         style="stop-color:white;stop-opacity:0"
         id="stop55" />
    </linearGradient>
    <linearGradient
       id="id4">
      <stop
         offset="0"
         style="stop-color:#8b8b55;stop-opacity:1"
         id="stop58" />
      <stop
         offset="0.278"
         style="stop-color:#8e8e58;stop-opacity:1"
         id="stop60" />
      <stop
         offset="0.427"
         style="stop-color:#a0a069;stop-opacity:1"
         id="stop62" />
      <stop
         offset="0.748"
         style="stop-color:#65653d;stop-opacity:1"
         id="stop64" />
      <stop
         offset="1"
         style="stop-color:#7a7a43;stop-opacity:1"
         id="stop66" />
    </linearGradient>
    <linearGradient
       id="id3">
      <stop
         offset="0"
         style="stop-color:#f18752;stop-opacity:1"
         id="stop69" />
      <stop
         offset="1"
         style="stop-color:#f5ff53;stop-opacity:1"
         id="stop71" />
    </linearGradient>
    <linearGradient
       id="id2">
      <stop
         offset="0"
         style="stop-color:#adad7f;stop-opacity:1"
         id="stop74" />
      <stop
         offset="1"
         style="stop-color:#d1d1b7;stop-opacity:1"
         id="stop76" />
    </linearGradient>
    <linearGradient
       id="id1">
      <stop
         offset="0"
         style="stop-color:#5f6133;stop-opacity:1"
         id="stop79" />
      <stop
         offset="0.336"
         style="stop-color:#41451d;stop-opacity:1"
         id="stop81" />
      <stop
         offset="1"
         style="stop-color:#d5d6bd;stop-opacity:1"
         id="stop83" />
    </linearGradient>
    <linearGradient
       id="id19"
       gradientTransform="translate(-7.97923,62.2445)"
       xlink:href="#id1"
       x1="30.3"
       y1="59.4"
       x2="30.2"
       y2="53.8"
       gradientUnits="userSpaceOnUse" />
    <linearGradient
       id="id20"
       gradientTransform="translate(-47.6515,19.3061)"
       xlink:href="#id2"
       x1="25.1"
       y1="40.4"
       x2="24.3"
       y2="38.7"
       gradientUnits="userSpaceOnUse" />
    <linearGradient
       id="id37"
       gradientTransform="translate(-47.6515,19.3061)"
       xlink:href="#id2"
       x1="25.1"
       y1="40.4"
       x2="24.3"
       y2="38.7"
       gradientUnits="userSpaceOnUse" />
    <linearGradient
       id="id18"
       gradientTransform="translate(18.6786,3.09296)"
       xlink:href="#id3"
       x1="42.6"
       y1="-28.9"
       x2="56.7"
       y2="-28.9"
       gradientUnits="userSpaceOnUse" />
    <linearGradient
       id="id55"
       gradientTransform="translate(18.6786,3.09296)"
       xlink:href="#id3"
       x1="42.6"
       y1="-28.9"
       x2="56.7"
       y2="-28.9"
       gradientUnits="userSpaceOnUse" />
    <linearGradient
       id="id56"
       gradientTransform="translate(18.6786,3.09296)"
       xlink:href="#id3"
       x1="42.6"
       y1="-28.9"
       x2="56.7"
       y2="-28.9"
       gradientUnits="userSpaceOnUse" />
    <linearGradient
       id="id15"
       gradientTransform="translate(15.8677,5.30505)"
       xlink:href="#id4"
       x1="17"
       y1="128.6"
       x2="31.4"
       y2="128.9"
       gradientUnits="userSpaceOnUse" />
    <radialGradient
       id="id16"
       r="7.04785"
       fx="37.0179"
       fy="171.495"
       cx="37"
       cy="171.5"
       gradientTransform="matrix(0.03608,0.511837,-0.767023,0.054067,163.029,135.112)"
       xlink:href="#id5"
       gradientUnits="userSpaceOnUse" />
    <radialGradient
       id="id17"
       r="7.917"
       fx="34.3131"
       fy="157.013"
       cx="34.3"
       cy="157"
       gradientTransform="matrix(0.631732,0,0,1.58088,12.6168,-91.2845)"
       xlink:href="#id5"
       gradientUnits="userSpaceOnUse" />
    <linearGradient
       id="id59"
       gradientTransform="translate(139.745,-88.1724)"
       xlink:href="#id6"
       x1="-68.5"
       y1="129"
       x2="-68.5"
       y2="134.2"
       gradientUnits="userSpaceOnUse" />
    <linearGradient
       id="id58"
       gradientTransform="translate(139.745,-88.1724)"
       xlink:href="#id7"
       x1="-80.1"
       y1="126.6"
       x2="-56.4"
       y2="126.5"
       gradientUnits="userSpaceOnUse" />
    <linearGradient
       id="id57"
       xlink:href="#id8"
       x1="55.1"
       y1="45"
       x2="86.8"
       y2="45"
       gradientUnits="userSpaceOnUse" />
    <linearGradient
       id="id60"
       gradientTransform="translate(-45.0156,11.7419)"
       xlink:href="#id9"
       x1="30.6"
       y1="124.3"
       x2="33.9"
       y2="116.1"
       gradientUnits="userSpaceOnUse" />
    <linearGradient
       id="id61"
       gradientTransform="translate(-45.0156,11.7419)"
       xlink:href="#id10"
       x1="47.1"
       y1="119.8"
       x2="43"
       y2="110.6"
       gradientUnits="userSpaceOnUse" />
    <linearGradient
       id="id62"
       xlink:href="#id11"
       x1="11.2"
       y1="124"
       x2="10.8"
       y2="119.1"
       gradientUnits="userSpaceOnUse" />
    <radialGradient
       id="id63"
       r="23.6614"
       fx="94.9255"
       fy="120.604"
       cx="94.9"
       cy="120.6"
       gradientTransform="matrix(0.631207,0.07283,-0.028954,0.242825,30.6556,-68.5523)"
       xlink:href="#id12"
       gradientUnits="userSpaceOnUse" />
    <linearGradient
       id="id68"
       gradientTransform="translate(0.881511,1.237)"
       xlink:href="#id13"
       x1="26.7"
       y1="130.3"
       x2="25"
       y2="122.4"
       gradientUnits="userSpaceOnUse" />
    <linearGradient
       id="id69"
       gradientTransform="translate(0.881535,1.23717)"
       xlink:href="#id14"
       x1="30.8"
       y1="128.3"
       x2="24.8"
       y2="123.8"
       gradientUnits="userSpaceOnUse" />
    <linearGradient
       id="id65"
       gradientTransform="translate(11.4936,31.3481)"
       xlink:href="#id14"
       x1="30.8"
       y1="128.3"
       x2="24.8"
       y2="123.8"
       gradientUnits="userSpaceOnUse" />
    <linearGradient
       id="id64"
       gradientTransform="translate(11.4936,31.3481)"
       xlink:href="#id13"
       x1="26.7"
       y1="130.3"
       x2="25"
       y2="122.4"
       gradientUnits="userSpaceOnUse" />
    <linearGradient
       id="id66"
       gradientTransform="translate(11.4936,31.3481)"
       xlink:href="#id13"
       x1="26.7"
       y1="130.3"
       x2="25"
       y2="122.4"
       gradientUnits="userSpaceOnUse" />
    <linearGradient
       id="id67"
       gradientTransform="translate(11.4936,31.3481)"
       xlink:href="#id14"
       x1="30.8"
       y1="128.3"
       x2="24.8"
       y2="123.8"
       gradientUnits="userSpaceOnUse" />
    <linearGradient
       inkscape:collect="always"
       xlink:href="#linearGradient84314"
       id="linearGradient84316"
       x1="-796.662"
       y1="18.9009"
       x2="-795.758"
       y2="45.3419"
       gradientUnits="userSpaceOnUse"
       gradientTransform="matrix(0.812812,0,0,0.812714,699.627,-9.84005)" />
    <linearGradient
       inkscape:collect="always"
       xlink:href="#linearGradient99261"
       id="linearGradient99263"
       x1="-742.669"
       y1="115.455"
       x2="-727.228"
       y2="213.902"
       gradientUnits="userSpaceOnUse"
       gradientTransform="matrix(0.812812,0,0,0.812714,699.627,-9.84005)" />
    <linearGradient
       inkscape:collect="always"
       xlink:href="#linearGradient100690"
       id="linearGradient100692"
       x1="-803.284"
       y1="211.162"
       x2="-766.964"
       y2="221.334"
       gradientUnits="userSpaceOnUse"
       gradientTransform="matrix(0.812812,0,0,0.812714,699.627,-9.84005)" />
    <linearGradient
       inkscape:collect="always"
       xlink:href="#linearGradient102124"
       id="linearGradient102126"
       x1="-647.019"
       y1="160.761"
       x2="-618.675"
       y2="251.696"
       gradientUnits="userSpaceOnUse"
       gradientTransform="matrix(0.812812,0,0,0.812714,699.627,-9.84005)" />
    <radialGradient
       inkscape:collect="always"
       xlink:href="#linearGradient105058"
       id="radialGradient106198"
       cx="-620.369"
       cy="99.1193"
       fx="-620.369"
       fy="99.1193"
       r="39.3434"
       gradientTransform="matrix(0.510256,0.758803,-1.09326,0.734991,621.307,468.298)"
       gradientUnits="userSpaceOnUse" />
    <radialGradient
       inkscape:collect="always"
       xlink:href="#linearGradient121958"
       id="radialGradient121960"
       cx="-439.899"
       cy="260.915"
       fx="-439.899"
       fy="260.915"
       r="19.9613"
       gradientTransform="matrix(1.43808,1.11941,-0.505686,0.649498,829.85,451.146)"
       gradientUnits="userSpaceOnUse" />
    <radialGradient
       inkscape:collect="always"
       xlink:href="#linearGradient121958"
       id="radialGradient122266"
       gradientUnits="userSpaceOnUse"
       gradientTransform="matrix(0.722949,1.50211,-0.724521,0.459144,625.502,650.799)"
       cx="-429.732"
       cy="266.129"
       fx="-429.732"
       fy="266.129"
       r="19.9613" />
    <linearGradient
       inkscape:collect="always"
       xlink:href="#linearGradient48715"
       id="linearGradient126135"
       gradientUnits="userSpaceOnUse"
       gradientTransform="matrix(0.510268,0,0,0.549536,-105.84,-117.89)"
       x1="165.779"
       y1="83.2116"
       x2="173.562"
       y2="78.5848" />
    <radialGradient
       inkscape:collect="always"
       xlink:href="#linearGradient47371"
       id="radialGradient1773"
       gradientUnits="userSpaceOnUse"
       gradientTransform="matrix(1.02543,0.083613,0.068857,6.05174,-116.438,-439.671)"
       cx="165.823"
       cy="75.5061"
       fx="165.823"
       fy="75.5061"
       r="1.59865" />
  </defs>
  <path
     style="fill:#7c4b37;fill-opacity:1;fill-rule:evenodd;stroke:#000000;stroke-width:1.4;stroke-linecap:butt;stroke-linejoin:miter;stroke-miterlimit:4;stroke-dasharray:none;stroke-opacity:1"
     d="m 173.333,133.96 c -0.142,-0.356 23.472,19.694 29.064,23.8 7.262,5.331 28.472,10.464 32.838,14.313 4.365,3.849 13.04,25.712 13.792,28.467 0.752,2.756 6.93,8.87 11.189,6.365 4.259,-2.505 0.81,-5.304 0.81,-5.304 -3.543,0.289 -5.596,-1.471 -7.266,-3.758 2.513,0.954 5.757,4.236 7.193,2.389 0.927,-6.251 -8.016,-18.477 -15.712,-29.946 -1.253,-1.503 -3.945,-8.901 -5.512,-9.52 -1.566,-0.619 -18.253,-2.518 -22.549,-7.014 -6.696,-7.008 -1.913,-26.904 -1.046,-26.614 -2.031,-0.295 -3.359,-3.757 -4.968,-5.954 2.075,1.054 3.677,5.061 6.175,4.423 -0.682,-4.638 -1.482,-9.248 -5.172,-13.192 2.379,1.373 2.786,1.547 7.088,5.056 -1.613,-6.36 -7.159,-10.672 -11.599,-15.076 -6.121,-6.2772 -28.599,-11.6472 -31.82,-8.7692"
     id="path76813"
     sodipodi:nodetypes="cszsscccczsccccccc" />
  <path
     style="fill:url(#linearGradient100692);fill-opacity:1;fill-rule:evenodd;stroke:#000000;stroke-width:1.4;stroke-linecap:butt;stroke-linejoin:miter;stroke-miterlimit:4;stroke-dasharray:none;stroke-opacity:1"
     d="m 86.5918,151.175 -4.8452,1.432 c 0.4902,3.679 -1.4326,7.44 -3.5573,11.447 0.178,-2.484 1.5923,-5.06 0.4625,-8.197 2.1743,5.229 -17.1373,18.299 -19.0954,21.531 -5.1069,8.429 1.889,17.982 0.4056,28.877 -0.6519,4.788 -2.8514,6.608 -4.0787,7.724 l 0.1772,-7.669 -0.9347,8.392 c -4.1795,1.97 -5.5085,0.02 -6.5838,-2.093 -0.1512,-0.912 -3.7227,-27.013 -0.2569,-34.645 3.4659,-7.633 15.7816,-19.689 15.328,-29.907 -0.4454,-10.042 -7.5063,-18.377 -6.001,-18.498"
     id="path50044"
     sodipodi:nodetypes="ccccsscccczsc" />
  <path
     style="fill:#674034;fill-opacity:1;fill-rule:evenodd;stroke:#000000;stroke-width:1.4;stroke-linecap:butt;stroke-linejoin:miter;stroke-miterlimit:4;stroke-dasharray:none;stroke-opacity:1"
     d="M 36.1409,31.9017 C 32.8791,31.9668 23.574,6.70925 24.968,5.90225 26.362,5.09525 53.3579,28.2356 53.7131,27.7382"
     id="path47532"
     sodipodi:nodetypes="czc" />
  <path
     style="fill:url(#linearGradient99263);fill-opacity:1;fill-rule:evenodd;stroke:#000000;stroke-width:1.4;stroke-linecap:butt;stroke-linejoin:miter;stroke-miterlimit:4;stroke-dasharray:none;stroke-opacity:1"
     d="m 22.8506,38.2807 24.9558,34.7431 c -0.352,0.388 14.6794,11.322 15.0841,23.344 0.5406,16.0642 -9.253,23.4242 -6.0083,34.1602 4.5819,15.16 35.04,24.998 47.2498,26.455 18.164,2.168 29.212,-5.046 45.595,-12.501 16.383,-7.455 61.087,-7.844 53.371,-26.113 -7.714,-18.271 -2.433,-26.1932 -23.304,-27.2682 -17.562,-0.19 -36.67,-0.07 -50.629,-1.764 -9.983,-1.24 -26.002,-8.865 -26.002,-8.865 1.655,-1.259 4.038,-1.893 6.364,-2.575 -3.296,-0.937 -7.321,-0.198 -11.603,1.133 0,0 5.741,-7.782 4.933,-8.589 -4.8427,-0.298 -6.9934,4.051 -8.7946,9.005 0,0 2.0653,-7.862 2.6148,-14.311 0,0 -7.3535,14.238 -5.7523,11.411 2.1101,-3.727 2.332,-19.274 1.1412,-18.95 0,0 -4.646,8.863 -8.5215,11.889 2.3417,-3.082 4.655,-5.899 5.4019,-9.541 -10.4841,-1.169 -8.3505,-8.422 -10.6857,-13.31 2.4929,0.215 3.9516,2.04 5.474,3.225 -0.1707,-4.3441 -4.232,-8.1736 -8.6765,-9.951 2.2645,-2.2155 3.0188,-4.6463 3.9885,-7.0471 -2.2759,0.5299 -4.2941,0.5397 -5.9928,2.6097 1.246,-4.4423 0.686,-8.8838 0.2487,-13.3261 -1.9817,5.9995 -3.7788,9.3235 -4.1901,9.5242 -0.4113,0.2007 -15.1362,-5.3948 -26.5854,-4.9291 -6.2977,0.256 -19.6766,11.5413 -19.6766,11.5413 z"
     id="path18806"
     sodipodi:nodetypes="ccssszscccccccccccccccccczsc" />
  <path
     style="fill:url(#radialGradient106198);fill-opacity:1;fill-rule:evenodd;stroke:#000000;stroke-width:1.4;stroke-linecap:butt;stroke-linejoin:miter;stroke-miterlimit:4;stroke-dasharray:none;stroke-opacity:0.996124"
     d="m 193.609,103.687 c 10.244,5.824 31.534,-0.554 32.392,-5.4722 -4.614,0.992 -9.712,0.856 -14.899,0.512 1.541,-1.041 21.546,-2.831 26.212,-22.711 2.671,-11.376 -2.957,-23.746 -2.957,-23.746 2.747,5.75 0.691,19.152 -0.267,17.532 7.847,-34.5159 -28.197,-36.1454 -35.797,-31.9811 0,0 14.06,-0.9703 19.344,2.6357 -18.746,-5.073 -37.41,2.6884 -42.643,6.6614 7.326,-1.8567 35.69,4.618 37.9,13.009 -5.277,-4.918 -10.027,-6.158 -14.95,-8.6 16.556,7.745 15.69,44.289 -15.375,39.76"
     id="path28636"
     sodipodi:nodetypes="cccscccccccc" />
  <path
     style="fill:url(#linearGradient84316);fill-opacity:1;fill-rule:evenodd;stroke:#000000;stroke-width:1.4;stroke-linecap:butt;stroke-linejoin:miter;stroke-miterlimit:4;stroke-dasharray:none;stroke-opacity:1"
     d="M 43.2384,27.3822 C 43.0149,23.2756 34.7713,1.84115 36.5302,0.766745 c 1.7582,-1.0736 25.185,16.522355 29.9473,22.731555 -0.7706,-3.185 -2.2621,-6.5139 -3.6861,-9.829 3.9202,4.921 9.7594,5.4257 8.8076,20.6243"
     id="path44263"
     sodipodi:nodetypes="czccc" />
  <path
     style="fill:url(#linearGradient102126);fill-opacity:1;fill-rule:evenodd;stroke:#000000;stroke-width:1.4;stroke-linecap:butt;stroke-linejoin:miter;stroke-miterlimit:4;stroke-dasharray:none;stroke-opacity:1"
     d="m 172.334,105.084 c 0,0 0.676,3.204 -3.26,10.473 -3.936,7.269 -18.105,19.809 -16.137,25.26 1.967,5.452 2.274,9.551 5.905,12.903 3.542,3.27 27.094,14.329 27.356,21.08 0.255,6.54 -17.713,21.443 -20.075,24.715 -2.361,3.27 -3.052,15.759 0.787,15.264 4.232,-0.545 7.085,-2.907 7.085,-2.907 -2.265,-1.62 -5.167,-2.756 -3.149,-7.633 0.174,2.71 -0.489,6.291 4.526,6.179 0,0 25.489,-30.621 24.701,-35.346 -0.242,-1.453 -0.259,-4.014 -2.371,-5.899 -4.755,-4.245 -13.715,-8.771 -14.26,-15.817 -0.787,-10.176 20.7,-17.002 21.853,-25.42 0.942,-6.877 -2.159,-9.962 -2.759,-11.337 2.272,1.911 3.695,3.884 5.682,8.943 0.02,-10.493 -2.363,-18.292 -7.062,-19.397"
     id="path71686"
     sodipodi:nodetypes="csssssscccssssccc" />
  <path
     style="fill:none;fill-rule:evenodd;stroke:#000000;stroke-width:1.4;stroke-linecap:butt;stroke-linejoin:miter;stroke-miterlimit:4;stroke-dasharray:none;stroke-opacity:1"
     d="m 63.1189,97.7578 c 0.1537,10.9312 -1.7134,21.8632 0.595,32.7932"
     id="path112244"
     sodipodi:nodetypes="cc" />
  <path
     style="fill:none;fill-rule:evenodd;stroke:#000000;stroke-width:1.4;stroke-linecap:butt;stroke-linejoin:miter;stroke-miterlimit:4;stroke-dasharray:none;stroke-opacity:1"
     d="m 73.3929,67.5768 c 0.6868,-0.516 -7.9469,10.508 -5.2743,21.26"
     id="path112416"
     sodipodi:nodetypes="cc" />
  <path
     style="fill:none;fill-rule:evenodd;stroke:#000000;stroke-width:1.4;stroke-linecap:butt;stroke-linejoin:miter;stroke-miterlimit:4;stroke-dasharray:none;stroke-opacity:1"
     d="m 71.317,65.3778 c -1.7029,4.594 -5.2825,7.923 -4.4022,18.433"
     id="path112418"
     sodipodi:nodetypes="cc" />
  <path
     style="fill:none;fill-rule:evenodd;stroke:#000000;stroke-width:1.3;stroke-linecap:butt;stroke-linejoin:miter;stroke-miterlimit:4;stroke-dasharray:none;stroke-opacity:1"
     d="m 65.1242,60.4418 c 4.1095,-4.017 4.4184,-9.542 5.2572,-15.2985 0.8445,4.2835 2.6222,8.7605 6.0994,12.7755 -0.1691,-4.834 0.777,-7.433 1.7231,-11.283"
     id="path114137"
     sodipodi:nodetypes="cccc" />
  <path
     style="fill:#986445;fill-opacity:0.44186;fill-rule:evenodd;stroke:none;stroke-width:0.999999px;stroke-linecap:butt;stroke-linejoin:miter;stroke-opacity:1"
     d="m 43.809,69.4918 c 1.6085,-0.714 20.9413,21.398 19.1783,30.072 -0.8494,7.2612 5.3849,-42.482 18.8187,-42.403 -9.5421,-5.888 -29.9486,-5.179 -37.997,12.331 z"
     id="path115709"
     sodipodi:nodetypes="cccc" />
  <path
     style="fill:#604c38;fill-opacity:1;fill-rule:evenodd;stroke:#000000;stroke-width:1.4;stroke-linecap:butt;stroke-linejoin:miter;stroke-miterlimit:4;stroke-dasharray:none;stroke-opacity:1"
     d="M 0.728309,76.7018 C 1.34441,74.5778 17.6332,61.7378 19.2027,57.8948 c 2.0109,-4.925 2.2848,-17.6091 2.5189,-18.304 -1.3753,-1.2507 8.8686,-3.2435 12.2832,-3.4548 2.9091,-0.1796 10.0919,5.4216 10.3642,7.6761 0.2268,1.8806 -3.3553,8.0787 -1.8947,10.2657 1.0819,1.621 5.4012,-1.744 6.1173,-0.67 -1.5452,1.506 -3.5634,3.108 -4.238,4.44 2.705,0.115 4.9378,0.703 6.878,1.582 0,3.605 -2.2483,6.316 -0.6706,11.152 -2.3092,1.971 -7.4315,1.46 -9.0572,1.542 -1.6256,0.08 -18.6889,10.273 -21.7516,10.791 -9.3108,1.573 -19.640003,-4.089 -19.023891,-6.213 z"
     id="path1246"
     sodipodi:nodetypes="zscssscccczsz" />
  <path
     style="fill:#ffffff;fill-opacity:1;fill-rule:evenodd;stroke:#000000;stroke-width:2;stroke-linecap:butt;stroke-linejoin:miter;stroke-miterlimit:4;stroke-dasharray:none;stroke-opacity:1"
     d="m 21.6566,59.4568 c 0.1016,0.06 2.3498,-1.315 3.4967,-2.011 1.7264,-1.048 2.7546,-0.479 3.1789,-1.883 0.3577,-1.182 4.7355,-5.516 3.3074,-5.369 -2.7717,-0.468 -7.6624,-1.642 -8.359,0 0.751,3.392 0.2357,5.644 -1.624,9.263 z"
     id="path8714"
     sodipodi:nodetypes="cssccc" />
  <ellipse
     style="color:#000000;overflow:visible;fill:#2d2d2d;fill-opacity:1;stroke:none;stroke-width:1.00157;stroke-miterlimit:4;stroke-dasharray:none;stroke-opacity:0.593023;stop-color:#000000"
     id="path25977-1"
     cx="25.6833"
     cy="52.4768"
     rx="1.97254"
     ry="2.23995" />
  <ellipse
     style="color:#000000;overflow:visible;fill:#ffffff;fill-opacity:1;stroke:none;stroke-width:1.00157;stroke-miterlimit:4;stroke-dasharray:none;stroke-opacity:0.593023;stop-color:#000000"
     id="path26119-4"
     cx="25.4378"
     cy="52.4728"
     rx="0.4835"
     ry="0.707781" />
  <path
     style="fill:url(#radialGradient121960);fill-opacity:1;fill-rule:evenodd;stroke:none;stroke-width:0.999999px;stroke-linecap:butt;stroke-linejoin:miter;stroke-opacity:1"
     d="m 62.2915,103.462 c -14.5916,33.436 3.5821,39.977 27.1029,49.453 1.8947,-22.408 -19.6201,-43.918 -27.1029,-49.453 z"
     id="path120829"
     sodipodi:nodetypes="ccc" />
  <path
     style="fill:#c1874e;fill-opacity:1;fill-rule:evenodd;stroke:#000000;stroke-width:1.4;stroke-linecap:butt;stroke-linejoin:miter;stroke-miterlimit:4;stroke-dasharray:none;stroke-opacity:1"
     d="m 90.7217,91.7648 c 0,0 -12.8787,29.3762 -6.8829,40.4682 6.0604,11.211 34.3262,28.582 46.1652,42.751 11.838,14.169 22.611,31.446 20.766,40.82 -1.846,9.374 -7.487,8.712 -10.494,8.773 -2.698,0.06 -5.575,5.874 -4.573,7.811 1.002,1.938 8.029,1.483 8.029,1.483 0.544,-2.607 1.849,-4.844 2.942,-7.185 -0.581,2.56 -1.015,4.63 -1.128,7.638 0,0 9.477,0.379 10.763,-3.873 2.534,-8.379 4.563,-17.175 4.125,-19.21 -0.614,-2.854 -12.682,-40.386 -10.639,-41.405 -0.782,4.072 -1.522,7.984 -2.071,11.151 0.305,-6.451 0.968,-13.019 0.63,-19.264 -1.144,4.419 -2.27,8.21 -4.573,11.99 0.262,-0.04 2.099,-6.572 1.288,-9.133 -0.813,-2.56 -9.242,-3.766 -12.375,-8.852 -3.132,-5.087 -10.886,-15.469 -12.89,-23.704"
     id="path63549"
     sodipodi:nodetypes="cszzsscccsscccczzc" />
  <path
     style="fill:url(#radialGradient122266);fill-opacity:1;fill-rule:evenodd;stroke:none;stroke-width:0.999999px;stroke-linecap:butt;stroke-linejoin:miter;stroke-opacity:1"
     d="m 113.056,94.5798 c -2.866,3.994 5.359,35.1202 11.497,50.4972 25.08,-21.707 37.241,-43.341 -11.497,-50.4972 z"
     id="path122264"
     sodipodi:nodetypes="ccc" />
  <ellipse
     style="color:#000000;overflow:visible;fill:#1b1511;fill-opacity:1;stroke:#000000;stroke-width:1.00251;stroke-miterlimit:4;stroke-dasharray:none;stroke-opacity:1;stop-color:#000000"
     id="path27741-0"
     cx="-26.957"
     cy="73.257"
     rx="3.69545"
     ry="2.60133"
     transform="matrix(0.935636,-0.352965,0.409875,0.912142,0,0)" />
  <ellipse
     style="color:#000000;overflow:visible;fill:url(#linearGradient126135);fill-opacity:1;stroke:#000000;stroke-width:1.00176;stroke-miterlimit:4;stroke-dasharray:none;stroke-opacity:1;stop-color:#000000"
     id="path34234-6"
     cx="-18.592"
     cy="-73.5562"
     rx="2.88355"
     ry="1.65487"
     transform="matrix(0.948948,-0.315433,-0.288822,-0.957383,0,0)" />
  <ellipse
     style="color:#000000;overflow:visible;fill:#29221b;fill-opacity:1;stroke:none;stroke-width:1.00187;stroke-miterlimit:4;stroke-dasharray:none;stroke-opacity:1;stop-color:#000000"
     id="path37226-3"
     cx="12.4935"
     cy="75.0153"
     rx="2.15233"
     ry="1.4276"
     transform="matrix(-0.968538,0.248866,0.215197,0.976571,0,0)" />
  <path
     style="fill:none;fill-rule:evenodd;stroke:#000000;stroke-width:0.999999px;stroke-linecap:butt;stroke-linejoin:miter;stroke-opacity:1"
     d="m 9.47908,82.5878 c 0,0 7.63962,0.948 11.57762,-0.179 4.8883,-1.399 12.7319,-9.375 12.1556,-9.657 l -3.6503,1.493"
     id="path48195-8"
     sodipodi:nodetypes="cscc" />
  <ellipse
     style="color:#000000;overflow:visible;fill:url(#radialGradient1773);fill-opacity:1;stroke:none;stroke-width:1.00534;stroke-miterlimit:4;stroke-dasharray:none;stroke-opacity:1;stop-color:#000000"
     id="ellipse1771"
     cx="59.0302"
     cy="30.9407"
     rx="1.76186"
     ry="10.5831"
     transform="matrix(0.569465,0.822016,-0.746218,0.665701,0,0)" />
  <path
     style="fill:none;fill-rule:evenodd;stroke:#000000;stroke-width:1.4;stroke-linecap:butt;stroke-linejoin:miter;stroke-miterlimit:4;stroke-dasharray:none;stroke-opacity:1"
     d="m 111.781,101.02 4.068,15.366"
     id="path115115" />
</svg>
