<?xml version="1.0" encoding="UTF-8" standalone="no"?>
<!-- Copyright 2017 mathsisfun.com -->
<svg xmlns="http://www.w3.org/2000/svg" width="329.5" height="102.5" version="1.1">
<defs>
</defs>
<g transform="translate(887.08916,-1569.6737)">
<text x="-873" y="1629.2" style="font-family:'Comic Sans MS'; text-align:center; text-anchor:middle; font-size:25.3px; overflow:visible; fill:#121513; stroke-width:9;">x</text>
<path d="m -885.9,1610 0,25.3" style="overflow:visible; fill:#121513; stroke:#121513; stroke-width:2.46;"/>
<path d="m -860.3,1610 0,25.3" style="overflow:visible; fill:#121513; stroke:#121513; stroke-width:2.46;"/>
<text x="-661.6" y="2058.2" transform="scale(1.2622745,0.7922207)" style="font-family:'Comic Sans MS'; text-align:center; text-anchor:middle; font-size:32px; overflow:visible; fill:#0197fd; stroke-width:9;">=</text>
<g transform="matrix(0.29171986,0,0,0.29171986,-616.75883,1175.4964)">
<path d="m -600.4,1358.9 c -0.6,0 -1.3,0 -1.9,0.1 -0.7,0 -1.3,0.2 -2,0.4 -0.8,0.2 -1.5,0.5 -2.3,0.8 -0.8,0.3 -1.7,0.7 -2.5,1.1 -0.8,0.4 -1.7,0.9 -2.5,1.3 -0.8,0.5 -1.6,1 -2.3,1.6 -0.8,0.6 -1.5,1.3 -2.3,2 -1.8,1.8 -5.5,5.6 2.3,-2.3 -0.7,0.7 -1.4,1.5 -2.1,2.2 -0.7,0.8 -1.3,1.6 -1.9,2.4 -0.6,0.8 -1.2,1.7 -1.8,2.6 -0.6,0.9 -1.1,1.9 -1.6,2.8 -0.5,1 -1,2.1 -1.5,3.2 -0.5,1.1 -0.9,2.2 -1.3,3.3 -0.4,1.1 -0.8,2.2 -1.1,3.3 -0.4,1.1 -0.7,2.3 -1,3.4 -0.3,1.1 -0.6,2.2 -0.9,3.4 -0.3,1.1 -0.5,2.3 -0.8,3.5 -0.2,1.2 -0.5,2.4 -0.7,3.6 -0.2,1.2 -0.4,2.3 -0.6,3.5 -0.2,1.2 -0.3,2.4 -0.5,3.6 -0.1,1.2 -0.2,2.5 -0.4,3.7 -0.1,1.2 -0.2,2.4 -0.2,3.6 -0,1.3 -0,2.6 -0.1,3.8 -0,1.4 0,2.7 0,4.1 0,1.3 0,2.6 0.1,4 0,1.3 0,2.6 0.1,3.9 0,1.3 0.2,2.7 0.2,4 0,1.3 0.2,2.6 0.3,3.9 0.1,1.3 0.2,2.6 0.4,3.9 0.1,1.2 0.3,2.4 0.4,3.7 0.1,1.1 0.3,2.2 0.4,3.3 0.1,1.1 0.3,2.1 0.4,3.2 0.1,1 0.2,1.9 0.4,2.9 0.1,0.9 0.2,1.8 0.3,2.7 0,0.8 0.2,1.6 0.3,2.4 0,0.8 0.2,1.6 0.2,2.4 0,0.8 0.2,1.6 0.3,2.3 0,0.8 0.2,1.6 0.3,2.3 0,0.8 0.2,1.6 0.3,2.3 0,0.8 0.2,1.6 0.3,2.4 0,0.8 0.2,1.5 0.2,2.3 0,0.7 0.1,1.5 0.2,2.2 0,0.8 0.1,1.5 0.2,2.3 0,0.8 0.1,1.5 0.2,2.3 0,0.8 0,1.5 0.1,2.3 0,0.8 0,1.5 0,2.3 0,0.7 0,1.5 0,2.2 0,0.8 0,1.5 -0,2.3 -0,0.8 -0,1.5 -0.1,2.3 -0,0.7 -0.1,1.4 -0.2,2.1 -0,0.7 -0.1,1.4 -0.2,2.2 -0,0.7 -0.2,1.5 -0.4,2.2 -0.1,0.7 -0.3,1.5 -0.5,2.2 -0.2,0.7 -0.4,1.5 -0.6,2.2 -0.2,0.8 -0.5,1.5 -0.7,2.3 -0.3,0.8 -0.6,1.5 -0.9,2.3 -0.3,0.7 -0.6,1.4 -0.9,2.1 -0.3,0.6 -0.6,1.3 -0.9,1.9 -0.3,0.6 -0.6,1.3 -0.9,1.9 -0.3,0.6 -0.6,1.2 -1,1.7 -0.3,0.5 -0.6,1 -0.9,1.5 -0.3,0.5 -0.6,1 -0.9,1.5 -0.3,0.5 -0.7,1 -1.1,1.5 -1.8,2.1 -3.9,4.1 -6.1,5.9 -0.4,0.4 -0.9,0.7 -1.4,1 -0.5,0.3 -1,0.6 -1.4,0.9 -0.5,0.3 -0.9,0.5 -1.4,0.8 -0.5,0.2 -0.9,0.5 -1.4,0.7 -0.4,0.2 -0.9,0.4 -1.3,0.6 -0.4,0.2 -0.9,0.4 -1.3,0.5 -0.4,0.1 -0.8,0.3 -1.3,0.4 -0.4,0.1 -0.8,0.3 -1.2,0.4 -0.4,0.1 -0.8,0.2 -1.2,0.3 -0.4,0 -0.7,0.2 -1.1,0.3 -0.3,0 -0.7,0.1 -1,0.2 -0.3,0 -0.5,0.1 -0.8,0.2 -0.2,0 -0.3,0 -0.5,0.1 l 2.8,-8.2 c 0.2,-0 0.3,-0 0.5,-0.1 0.3,-0 0.5,-0.1 0.8,-0.2 0.3,-0 0.6,-0.2 0.8,-0.3 0.3,-0.1 0.7,-0.2 1,-0.3 0.4,-0.1 0.7,-0.2 1.1,-0.4 0.4,-0.1 0.7,-0.3 1.1,-0.4 0.4,-0.1 0.7,-0.3 1.1,-0.5 0.4,-0.2 0.8,-0.4 1.1,-0.6 0.4,-0.2 0.8,-0.4 1.2,-0.6 0.4,-0.2 0.8,-0.5 1.2,-0.7 0.4,-0.3 0.8,-0.5 1.2,-0.8 0.4,-0.3 0.8,-0.6 1.1,-0.9 0.4,-0.4 0.7,-0.7 1.1,-1 2.8,-2.7 -5.8,5.6 -3.3,3.3 0.4,-0.3 0.8,-0.7 1.1,-1.1 0.4,-0.4 0.7,-0.8 1,-1.2 0.3,-0.5 0.6,-1 1,-1.5 0.3,-0.5 0.7,-1 1,-1.5 0.3,-0.6 0.6,-1.1 1,-1.7 0.3,-0.6 0.6,-1.2 0.9,-1.9 0.3,-0.7 0.6,-1.4 1,-2 0.3,-0.7 0.6,-1.4 0.9,-2.1 0.3,-0.7 0.6,-1.3 0.8,-2 0.2,-0.7 0.4,-1.4 0.6,-2 0.2,-0.7 0.4,-1.4 0.5,-2 0.2,-0.7 0.3,-1.4 0.4,-2.1 0.1,-0.7 0.2,-1.3 0.3,-2 0,-0.7 0.2,-1.3 0.2,-2 0,-0.7 0.1,-1.4 0.2,-2.2 0,-0.7 0,-1.4 0,-2.1 0,-0.7 -0,-1.5 -0,-2.2 -0,-0.8 -0,-1.5 -0,-2.3 -0,-0.7 -0,-1.4 -0,-2.2 -0,-0.8 -0,-1.5 -0.1,-2.3 -0,-0.8 -0.1,-1.5 -0.2,-2.3 -0,-0.7 -0.1,-1.5 -0.2,-2.2 -0,-0.8 -0.1,-1.5 -0.2,-2.3 -0,-0.8 -0.2,-1.6 -0.2,-2.4 -0,-0.8 -0.2,-1.6 -0.3,-2.4 -0,-0.8 -0.2,-1.5 -0.2,-2.3 -0,-0.8 -0.2,-1.6 -0.3,-2.4 -0,-0.8 -0.2,-1.6 -0.3,-2.4 -0,-0.8 -0.2,-1.6 -0.2,-2.4 -0,-0.9 -0.2,-1.8 -0.3,-2.6 -0.1,-1 -0.2,-1.9 -0.3,-2.9 -0.1,-1.1 -0.2,-2.1 -0.4,-3.2 -0.1,-1.1 -0.3,-2.2 -0.4,-3.4 -0.1,-1.2 -0.2,-2.5 -0.4,-3.7 -0.1,-1.3 -0.3,-2.6 -0.4,-4 -0.1,-1.3 -0.2,-2.6 -0.3,-3.9 -0,-1.4 -0.2,-2.7 -0.3,-4.1 -0,-1.3 -0.2,-2.7 -0.2,-4 -0,-1.3 -0,-2.7 -0.1,-4 -0,-1.4 -0,-2.8 -0,-4.2 -0,-1.3 -0,-2.6 0,-4 0,-1.3 0.1,-2.5 0.2,-3.8 0,-1.3 0.2,-2.5 0.3,-3.8 0.1,-1.2 0.3,-2.5 0.4,-3.7 0.1,-1.2 0.3,-2.4 0.5,-3.6 0.2,-1.2 0.4,-2.5 0.6,-3.7 0.2,-1.2 0.5,-2.4 0.7,-3.6 0.3,-1.2 0.5,-2.3 0.8,-3.5 0.3,-1.2 0.6,-2.4 0.9,-3.5 0.3,-1.2 0.7,-2.3 1.1,-3.5 0.4,-1.2 0.8,-2.3 1.2,-3.5 0.4,-1.2 0.9,-2.3 1.4,-3.4 0.5,-1.1 1,-2.1 1.6,-3.2 0.5,-1 1.1,-2 1.8,-2.9 0.6,-0.9 1.2,-1.8 1.9,-2.7 0.7,-0.9 1.4,-1.7 2.1,-2.5 2.3,-2.3 4.4,-4.7 6.9,-6.7 0.9,-0.7 1.7,-1.4 2.7,-2 0.9,-0.5 1.8,-1.1 2.7,-1.5 0.9,-0.5 1.8,-0.9 2.7,-1.3 0.9,-0.4 1.9,-0.7 2.8,-1 0.9,-0.3 1.8,-0.5 2.7,-0.7 0.8,-0.1 1.7,-0.2 2.5,-0.3 0.7,-0 1.4,-0 2.1,4e-4 l -3.5,7.7 z" style="overflow:visible; fill:#0197fd; stroke-width:7;"/>
<path d="m -600.4,1695 c -0.6,-0 -1.3,-0 -1.9,-0.1 -0.7,-0 -1.3,-0.2 -2,-0.4 -0.8,-0.2 -1.5,-0.5 -2.3,-0.8 -0.8,-0.3 -1.7,-0.7 -2.5,-1.1 -0.8,-0.4 -1.7,-0.9 -2.5,-1.3 -0.8,-0.5 -1.6,-1 -2.3,-1.6 -0.8,-0.6 -1.5,-1.3 -2.3,-2 -1.8,-1.8 -5.5,-5.6 2.3,2.3 -0.7,-0.7 -1.4,-1.5 -2.1,-2.2 -0.7,-0.8 -1.3,-1.6 -1.9,-2.4 -0.6,-0.8 -1.2,-1.7 -1.8,-2.6 -0.6,-0.9 -1.1,-1.9 -1.6,-2.8 -0.5,-1 -1,-2.1 -1.5,-3.2 -0.5,-1.1 -0.9,-2.2 -1.3,-3.3 -0.4,-1.1 -0.8,-2.2 -1.1,-3.3 -0.4,-1.1 -0.7,-2.3 -1,-3.4 -0.3,-1.1 -0.6,-2.2 -0.9,-3.4 -0.3,-1.1 -0.5,-2.3 -0.8,-3.5 -0.2,-1.2 -0.5,-2.4 -0.7,-3.6 -0.2,-1.2 -0.4,-2.3 -0.6,-3.5 -0.2,-1.2 -0.3,-2.4 -0.5,-3.6 -0.1,-1.2 -0.2,-2.5 -0.4,-3.7 -0.1,-1.2 -0.2,-2.4 -0.2,-3.6 -0,-1.3 -0,-2.6 -0.1,-3.8 -0,-1.4 0,-2.7 0,-4.1 0,-1.3 0,-2.6 0.1,-4 0,-1.3 0,-2.6 0.1,-3.9 0,-1.3 0.2,-2.7 0.2,-4 0,-1.3 0.2,-2.6 0.3,-3.9 0.1,-1.3 0.2,-2.6 0.4,-3.9 0.1,-1.2 0.3,-2.4 0.4,-3.7 0.1,-1.1 0.3,-2.2 0.4,-3.3 0.1,-1.1 0.3,-2.1 0.4,-3.2 0.1,-1 0.2,-1.9 0.4,-2.9 0.1,-0.9 0.2,-1.8 0.3,-2.7 0,-0.8 0.2,-1.6 0.3,-2.4 0,-0.8 0.2,-1.6 0.2,-2.4 0,-0.8 0.2,-1.6 0.3,-2.3 0,-0.8 0.2,-1.6 0.3,-2.3 0,-0.8 0.2,-1.6 0.3,-2.3 0,-0.8 0.2,-1.6 0.3,-2.4 0,-0.8 0.2,-1.5 0.2,-2.3 0,-0.7 0.1,-1.5 0.2,-2.2 0,-0.8 0.1,-1.5 0.2,-2.3 0,-0.8 0.1,-1.5 0.2,-2.3 0,-0.8 0,-1.5 0.1,-2.3 0,-0.8 0,-1.5 0,-2.3 0,-0.7 0,-1.5 0,-2.2 0,-0.8 0,-1.5 -0,-2.3 -0,-0.8 -0,-1.5 -0.1,-2.3 -0,-0.7 -0.1,-1.4 -0.2,-2.1 -0,-0.7 -0.1,-1.4 -0.2,-2.2 -0,-0.7 -0.2,-1.5 -0.4,-2.2 -0.1,-0.7 -0.3,-1.5 -0.5,-2.2 -0.2,-0.7 -0.4,-1.5 -0.6,-2.2 -0.2,-0.8 -0.5,-1.5 -0.7,-2.3 -0.3,-0.8 -0.6,-1.5 -0.9,-2.3 -0.3,-0.7 -0.6,-1.4 -0.9,-2.1 -0.3,-0.6 -0.6,-1.3 -0.9,-1.9 -0.3,-0.6 -0.6,-1.3 -0.9,-1.9 -0.3,-0.6 -0.6,-1.2 -1,-1.7 -0.3,-0.5 -0.6,-1 -0.9,-1.5 -0.3,-0.5 -0.6,-1 -0.9,-1.5 -0.3,-0.5 -0.7,-1 -1.1,-1.5 -1.8,-2.1 -3.9,-4.1 -6.1,-5.9 -0.4,-0.4 -0.9,-0.7 -1.4,-1 -0.5,-0.3 -1,-0.6 -1.4,-0.9 -0.5,-0.3 -0.9,-0.5 -1.4,-0.8 -0.5,-0.2 -0.9,-0.5 -1.4,-0.7 -0.4,-0.2 -0.9,-0.4 -1.3,-0.6 -0.4,-0.2 -0.9,-0.4 -1.3,-0.5 -0.4,-0.1 -0.8,-0.3 -1.3,-0.4 -0.4,-0.1 -0.8,-0.3 -1.2,-0.4 -0.4,-0.1 -0.8,-0.2 -1.2,-0.3 -0.4,-0 -0.7,-0.2 -1.1,-0.3 -0.3,-0 -0.7,-0.1 -1,-0.2 -0.3,-0 -0.5,-0.1 -0.8,-0.2 -0.2,-0 -0.3,-0 -0.5,-0.1 l 2.8,8.2 c 0.2,0 0.3,0 0.5,0.1 0.3,0 0.5,0.1 0.8,0.2 0.3,0 0.6,0.2 0.8,0.3 0.3,0.1 0.7,0.2 1,0.3 0.4,0.1 0.7,0.2 1.1,0.4 0.4,0.1 0.7,0.3 1.1,0.4 0.4,0.1 0.7,0.3 1.1,0.5 0.4,0.2 0.8,0.4 1.1,0.6 0.4,0.2 0.8,0.4 1.2,0.6 0.4,0.2 0.8,0.5 1.2,0.7 0.4,0.3 0.8,0.5 1.2,0.8 0.4,0.3 0.8,0.6 1.1,0.9 0.4,0.4 0.7,0.7 1.1,1 2.8,2.7 -5.8,-5.6 -3.3,-3.3 0.4,0.3 0.8,0.7 1.1,1.1 0.4,0.4 0.7,0.8 1,1.2 0.3,0.5 0.6,1 1,1.5 0.3,0.5 0.7,1 1,1.5 0.3,0.6 0.6,1.1 1,1.7 0.3,0.6 0.6,1.2 0.9,1.9 0.3,0.7 0.6,1.4 1,2 0.3,0.7 0.6,1.4 0.9,2.1 0.3,0.7 0.6,1.3 0.8,2 0.2,0.7 0.4,1.4 0.6,2 0.2,0.7 0.4,1.4 0.5,2 0.2,0.7 0.3,1.4 0.4,2.1 0.1,0.7 0.2,1.3 0.3,2 0,0.7 0.2,1.3 0.2,2 0,0.7 0.1,1.4 0.2,2.2 0,0.7 0,1.4 0,2.1 0,0.7 -0,1.5 -0,2.2 -0,0.8 -0,1.5 -0,2.3 -0,0.7 -0,1.4 -0,2.2 -0,0.8 -0,1.5 -0.1,2.3 -0,0.8 -0.1,1.5 -0.2,2.3 -0,0.7 -0.1,1.5 -0.2,2.2 -0,0.8 -0.1,1.5 -0.2,2.3 -0,0.8 -0.2,1.6 -0.2,2.4 -0,0.8 -0.2,1.6 -0.3,2.4 -0,0.8 -0.2,1.5 -0.2,2.3 -0,0.8 -0.2,1.6 -0.3,2.4 -0,0.8 -0.2,1.6 -0.3,2.4 -0,0.8 -0.2,1.6 -0.2,2.4 -0,0.9 -0.2,1.8 -0.3,2.6 -0.1,1 -0.2,1.9 -0.3,2.9 -0.1,1.1 -0.2,2.1 -0.4,3.2 -0.1,1.1 -0.3,2.2 -0.4,3.4 -0.1,1.2 -0.2,2.5 -0.4,3.7 -0.1,1.3 -0.3,2.6 -0.4,4 -0.1,1.3 -0.2,2.6 -0.3,3.9 -0,1.4 -0.2,2.7 -0.3,4.1 -0,1.3 -0.2,2.7 -0.2,4 -0,1.3 -0,2.7 -0.1,4 -0,1.4 -0,2.8 -0,4.2 -0,1.3 -0,2.6 0,4 0,1.3 0.1,2.5 0.2,3.8 0,1.3 0.2,2.5 0.3,3.8 0.1,1.2 0.3,2.5 0.4,3.7 0.1,1.2 0.3,2.4 0.5,3.6 0.2,1.2 0.4,2.5 0.6,3.7 0.2,1.2 0.5,2.4 0.7,3.6 0.3,1.2 0.5,2.3 0.8,3.5 0.3,1.2 0.6,2.4 0.9,3.5 0.3,1.2 0.7,2.3 1.1,3.5 0.4,1.2 0.8,2.3 1.2,3.5 0.4,1.2 0.9,2.3 1.4,3.4 0.5,1.1 1,2.1 1.6,3.2 0.5,1 1.1,2 1.8,2.9 0.6,0.9 1.2,1.8 1.9,2.7 0.7,0.9 1.4,1.7 2.1,2.5 2.3,2.3 4.4,4.7 6.9,6.7 0.9,0.7 1.7,1.4 2.7,2 0.9,0.5 1.8,1.1 2.7,1.5 0.9,0.5 1.8,0.9 2.7,1.3 0.9,0.4 1.9,0.7 2.8,1 0.9,0.3 1.8,0.5 2.7,0.7 0.8,0.1 1.7,0.2 2.5,0.3 0.7,0 1.4,0 2.1,-4e-4 l -3.5,-7.7 z" style="overflow:visible; fill:#0197fd; stroke-width:7;"/>
</g>
<text x="-763.5" y="1591.6" style="font-family:'Comic Sans MS'; text-align:center; text-anchor:middle; font-size:25.3px; overflow:visible; fill:#0169c9; stroke-width:9;">x</text>
<text x="-644.7" y="1590.3" style="font-family:'Comic Sans MS'; text-align:center; text-anchor:middle; font-size:16.9px; overflow:visible; fill:#f0a513; stroke-width:9;">when x greater than 0</text>
<text x="-762.7" y="1631.7" style="font-family:'Comic Sans MS'; text-align:center; text-anchor:middle; font-size:25.3px; overflow:visible; fill:#0169c9; stroke-width:9;">0</text>
<text x="-690.7" y="1627.6" style="font-family:'Comic Sans MS'; text-align:center; text-anchor:middle; font-size:16.9px; overflow:visible; fill:#f0a513; stroke-width:9;">when x = 0</text>
<text x="-768.5" y="1666.2" style="font-family:'Comic Sans MS'; text-align:center; text-anchor:middle; font-size:25.3px; overflow:visible; fill:#0169c9; stroke-width:9;">-x</text>
<text x="-659.7" y="1665" style="font-family:'Comic Sans MS'; text-align:center; text-anchor:middle; font-size:16.9px; overflow:visible; fill:#f0a513; stroke-width:9;">when x less than 0</text>
</g>
</svg>
