<?xml version="1.0" encoding="UTF-8" standalone="no"?>
<!-- Copyright 2017 mathsisfun.com -->
<svg xmlns="http://www.w3.org/2000/svg" width="198.2" height="73.8" version="1.1" style="font-family:'Comic Sans MS'; font-size:12px; fill:#204a87; stroke-width:0.25px;">
<defs>
	<marker id="aa1" style="overflow:visible;" orient="auto">
		<path transform="scale(0.8) rotate(180) translate(12.5,0)" style="fill:#3465a4; stroke:#3465a4; stroke-width:1pt;" d="M 0,0 L 5,-5 L -12.5,0 L 5,5 L 0,0 z "/>
	</marker>
	<linearGradient>
		<stop offset="0" style="stop-color:white; stop-opacity:1;"/>
		<stop offset="0.5" style="stop-color:#9dff4f; stop-opacity:0.5;"/>
		<stop offset="1" style="stop-color:white; stop-opacity:1;"/>
	</linearGradient>
	<marker style="overflow:visible;" orient="auto">
		<path transform="matrix(-0.8,0,0,-0.8,-10,0)" style="fill:none; stroke:black; stroke-width:1pt;" d="M 0,0 5,-5 -12.5,0 5,5 Z"/>
	</marker>
	<marker style="overflow:visible;" orient="auto">
		<path transform="matrix(0.8,0,0,0.8,10,0)" style="fill:none; stroke:black; stroke-width:1pt;" d="M 0,0 5,-5 -12.5,0 5,5 Z"/>
	</marker>
	<marker style="overflow:visible;" orient="auto">
		<path transform="matrix(0.4,0,0,0.4,4,0)" style="fill:#8d5fd3; stroke:#8d5fd3; stroke-width:1pt;" d="M 0,0 5,-5 -12.5,0 5,5 Z"/>
	</marker>
	<marker style="overflow:visible;" orient="auto">
		<path transform="matrix(-0.4,0,0,-0.4,-4,0)" style="fill:#8d5fd3; stroke:#8d5fd3; stroke-width:1pt;" d="M 0,0 5,-5 -12.5,0 5,5 Z"/>
	</marker>
</defs>
<text x="22.6" y="31.3" style="fill:#0000ff;">18</text>
<text x="41.6" y="31.3" style="fill:#0000ff;">19</text>
<path style="fill:none; stroke:#0000ff;" d="m 67.7,0 v 18.3"/>
<text x="61.4" y="31.3" style="fill:#0000ff;">20</text>
<path style="fill:none; stroke:#0000ff;" d="m 86.5,0 v 18.3"/>
<path style="fill:none; stroke:#0000ff;" d="m 105.6,0 v 18.3"/>
<path style="fill:none; stroke:#0000ff;" d="m 124.6,0 v 18.3"/>
<path style="fill:none; stroke:#0000ff;" d="m 143.6,0 v 18.3"/>
<path style="fill:none; stroke:#0000ff;" d="m 162.6,0 v 18.3"/>
<path style="fill:none; stroke:#0000ff;" d="m 181.6,0 v 18.3"/>
<text x="79.5" y="31.3" style="fill:#0000ff;">21</text>
<text x="98.2" y="31.3" style="fill:#0000ff;">22</text>
<text x="117.1" y="31.3" style="fill:#0000ff;">23</text>
<text x="136.3" y="31.3" style="fill:#0000ff;">24</text>
<text x="155" y="31.3" style="fill:#0000ff;">25</text>
<text x="174.6" y="31.3" style="fill:#0000ff;">26</text>
<g transform="matrix(-0.159246,-0.015554,-0.009924,0.223429,309.143,-718.27)">
	<path style="stroke-width:2.49;" d="m 707.1,3434.5 c 0.3,2.4 1.2,4.8 2,7.1 1.4,3.5 3,7 4.5,10.5 1.5,3.6 3.4,6.9 5.4,10.2 2.1,3.4 4.6,6.5 7.2,9.5 3.4,4 7.4,7.4 11.6,10.5 5.5,4.4 11.4,8.4 17.4,12.2 5.6,3.5 11.5,6.2 17.7,8.5 6.8,2.4 13.8,3.8 20.8,5.2 6.7,1.2 13.5,1.4 20.3,1.7 6,0.2 11.9,0.1 17.8,-0.9 6,-1.3 11.9,-2.6 17.8,-4.3 5.4,-1.6 10.6,-4 15.8,-6.2 3.2,-1.6 6.4,-3.1 9.5,-5 0.7,-0.4 2.9,-1.7 2.2,-1.3 -1.8,1 -3.6,2.1 -5.4,3.1 4.1,-2.4 8,-5.2 11.8,-8.1 3.7,-2.7 7.1,-5.7 10.4,-8.8 3.4,-3.1 6.5,-6.4 9.7,-9.8 2.7,-3 5.3,-6 8,-9.1 2.4,-2.6 4.1,-5.7 5.9,-8.7 0.3,-0.5 0.6,-1 0.8,-1.4 0,0 14.8,1.3 14.8,1.3 v 0 c -0.3,0.6 -0.6,1.1 -0.9,1.7 -1.9,3.4 -3.8,6.9 -6.1,10.1 -2.5,3.3 -5.3,6.3 -8,9.4 -3.1,3.7 -6.5,7.2 -9.9,10.6 -3.5,3.3 -6.8,6.7 -10.6,9.6 -3.9,3.2 -8,6.2 -12.2,9 -7.3,4.3 -14.6,8.8 -22.5,11.9 -5.5,2.3 -11.2,4.5 -17,6 -6.3,1.6 -12.6,3.1 -19,4 -6.4,0.6 -12.8,0.7 -19.2,0.4 -7.2,-0.3 -14.5,-0.9 -21.6,-2.3 -7.5,-1.6 -15,-3.2 -22.1,-6 -6.6,-2.7 -13,-5.8 -19,-9.6 -6.2,-4 -12.2,-8.2 -18,-12.8 -4.5,-3.6 -9,-7.4 -12.7,-11.9 -2.9,-3.4 -5.7,-6.9 -8,-10.8 -2.2,-3.7 -4.4,-7.3 -6,-11.3 -1.6,-3.7 -3.2,-7.3 -4.7,-11 -1.1,-3 -2.1,-6 -2.7,-9.1 0,0 14.3,-4 14.3,-4 z"/>
	<path style="stroke-width:2.49;" d="m 881.5,3467.3 c 2.4,-0.8 4.6,-2.1 6.8,-3.4 -13.7,7.9 -3.2,1.8 -0.1,-0.2 2.8,-1.5 5.2,-3.5 7.8,-5.3 2.5,-1.6 4.7,-3.7 7.1,-5.5 2.3,-1.7 4.5,-3.6 6.6,-5.5 2,-2 4.1,-3.8 6,-5.7 0.3,-0.4 0.6,-0.8 0.9,-1.1 0,0 14.5,3.1 14.5,3.1 v 0 c -0.3,0.4 -0.6,0.7 -0.9,1.1 -1.8,2.5 -3.9,4.7 -6.3,6.7 -2.1,2.2 -4.4,4.4 -6.9,6.2 -2.4,2 -5,3.7 -7.2,5.9 -2.6,2 -5.3,3.8 -8,5.8 -5.1,3.1 -10,6.7 -15.4,9.2 -2.3,1.2 -4.7,2.2 -7,3.4 0,0 2.1,-14.7 2.1,-14.7 z"/>
	<path style="stroke-width:2.49;" d="m 913.5,3487 c 0,-2.4 0,-4.8 0.1,-7.3 0.2,-2.8 0.5,-5.7 0.9,-8.5 0.4,-2.9 0.9,-5.8 1.6,-8.7 0.8,-2.8 1.3,-5.6 2,-8.4 0.7,-3.1 1.6,-6.1 2.5,-9.1 0.6,-2 0.3,-1 0.9,-3 0,0 14.8,-0.9 14.8,-0.9 v 0 c -0.5,2.2 -0.3,1.1 -0.8,3.3 -0.8,2.9 -1.9,5.8 -2.5,8.7 -0.7,2.8 -1.3,5.7 -2,8.5 -0.7,2.5 -1.4,5.1 -1.7,7.7 -0.4,2.6 -0.8,5.2 -0.9,7.9 -0.2,2.2 -0.3,4.4 -0.2,6.6 0,0 -14.5,3.1 -14.5,3.1 z"/>
</g>
<g transform="matrix(-0.159246,-0.015554,-0.009924,0.223429,270.813,-718.27)">
	<path style="stroke-width:2.49;" d="m 707.1,3434.5 c 0.3,2.4 1.2,4.8 2,7.1 1.4,3.5 3,7 4.5,10.5 1.5,3.6 3.4,6.9 5.4,10.2 2.1,3.4 4.6,6.5 7.2,9.5 3.4,4 7.4,7.4 11.6,10.5 5.5,4.4 11.4,8.4 17.4,12.2 5.6,3.5 11.5,6.2 17.7,8.5 6.8,2.4 13.8,3.8 20.8,5.2 6.7,1.2 13.5,1.4 20.3,1.7 6,0.2 11.9,0.1 17.8,-0.9 6,-1.3 11.9,-2.6 17.8,-4.3 5.4,-1.6 10.6,-4 15.8,-6.2 3.2,-1.6 6.4,-3.1 9.5,-5 0.7,-0.4 2.9,-1.7 2.2,-1.3 -1.8,1 -3.6,2.1 -5.4,3.1 4.1,-2.4 8,-5.2 11.8,-8.1 3.7,-2.7 7.1,-5.7 10.4,-8.8 3.4,-3.1 6.5,-6.4 9.7,-9.8 2.7,-3 5.3,-6 8,-9.1 2.4,-2.6 4.1,-5.7 5.9,-8.7 0.3,-0.5 0.6,-1 0.8,-1.4 0,0 14.8,1.3 14.8,1.3 v 0 c -0.3,0.6 -0.6,1.1 -0.9,1.7 -1.9,3.4 -3.8,6.9 -6.1,10.1 -2.5,3.3 -5.3,6.3 -8,9.4 -3.1,3.7 -6.5,7.2 -9.9,10.6 -3.5,3.3 -6.8,6.7 -10.6,9.6 -3.9,3.2 -8,6.2 -12.2,9 -7.3,4.3 -14.6,8.8 -22.5,11.9 -5.5,2.3 -11.2,4.5 -17,6 -6.3,1.6 -12.6,3.1 -19,4 -6.4,0.6 -12.8,0.7 -19.2,0.4 -7.2,-0.3 -14.5,-0.9 -21.6,-2.3 -7.5,-1.6 -15,-3.2 -22.1,-6 -6.6,-2.7 -13,-5.8 -19,-9.6 -6.2,-4 -12.2,-8.2 -18,-12.8 -4.5,-3.6 -9,-7.4 -12.7,-11.9 -2.9,-3.4 -5.7,-6.9 -8,-10.8 -2.2,-3.7 -4.4,-7.3 -6,-11.3 -1.6,-3.7 -3.2,-7.3 -4.7,-11 -1.1,-3 -2.1,-6 -2.7,-9.1 0,0 14.3,-4 14.3,-4 z"/>
	<path style="stroke-width:2.49;" d="m 881.5,3467.3 c 2.4,-0.8 4.6,-2.1 6.8,-3.4 -13.7,7.9 -3.2,1.8 -0.1,-0.2 2.8,-1.5 5.2,-3.5 7.8,-5.3 2.5,-1.6 4.7,-3.7 7.1,-5.5 2.3,-1.7 4.5,-3.6 6.6,-5.5 2,-2 4.1,-3.8 6,-5.7 0.3,-0.4 0.6,-0.8 0.9,-1.1 0,0 14.5,3.1 14.5,3.1 v 0 c -0.3,0.4 -0.6,0.7 -0.9,1.1 -1.8,2.5 -3.9,4.7 -6.3,6.7 -2.1,2.2 -4.4,4.4 -6.9,6.2 -2.4,2 -5,3.7 -7.2,5.9 -2.6,2 -5.3,3.8 -8,5.8 -5.1,3.1 -10,6.7 -15.4,9.2 -2.3,1.2 -4.7,2.2 -7,3.4 0,0 2.1,-14.7 2.1,-14.7 z"/>
	<path style="stroke-width:2.49;" d="m 913.5,3487 c 0,-2.4 0,-4.8 0.1,-7.3 0.2,-2.8 0.5,-5.7 0.9,-8.5 0.4,-2.9 0.9,-5.8 1.6,-8.7 0.8,-2.8 1.3,-5.6 2,-8.4 0.7,-3.1 1.6,-6.1 2.5,-9.1 0.6,-2 0.3,-1 0.9,-3 0,0 14.8,-0.9 14.8,-0.9 v 0 c -0.5,2.2 -0.3,1.1 -0.8,3.3 -0.8,2.9 -1.9,5.8 -2.5,8.7 -0.7,2.8 -1.3,5.7 -2,8.5 -0.7,2.5 -1.4,5.1 -1.7,7.7 -0.4,2.6 -0.8,5.2 -0.9,7.9 -0.2,2.2 -0.3,4.4 -0.2,6.6 0,0 -14.5,3.1 -14.5,3.1 z"/>
</g>
<g transform="matrix(-0.159246,-0.015554,-0.009924,0.223429,232.483,-718.27)">
	<path style="stroke-width:2.49;" d="m 707.1,3434.5 c 0.3,2.4 1.2,4.8 2,7.1 1.4,3.5 3,7 4.5,10.5 1.5,3.6 3.4,6.9 5.4,10.2 2.1,3.4 4.6,6.5 7.2,9.5 3.4,4 7.4,7.4 11.6,10.5 5.5,4.4 11.4,8.4 17.4,12.2 5.6,3.5 11.5,6.2 17.7,8.5 6.8,2.4 13.8,3.8 20.8,5.2 6.7,1.2 13.5,1.4 20.3,1.7 6,0.2 11.9,0.1 17.8,-0.9 6,-1.3 11.9,-2.6 17.8,-4.3 5.4,-1.6 10.6,-4 15.8,-6.2 3.2,-1.6 6.4,-3.1 9.5,-5 0.7,-0.4 2.9,-1.7 2.2,-1.3 -1.8,1 -3.6,2.1 -5.4,3.1 4.1,-2.4 8,-5.2 11.8,-8.1 3.7,-2.7 7.1,-5.7 10.4,-8.8 3.4,-3.1 6.5,-6.4 9.7,-9.8 2.7,-3 5.3,-6 8,-9.1 2.4,-2.6 4.1,-5.7 5.9,-8.7 0.3,-0.5 0.6,-1 0.8,-1.4 0,0 14.8,1.3 14.8,1.3 v 0 c -0.3,0.6 -0.6,1.1 -0.9,1.7 -1.9,3.4 -3.8,6.9 -6.1,10.1 -2.5,3.3 -5.3,6.3 -8,9.4 -3.1,3.7 -6.5,7.2 -9.9,10.6 -3.5,3.3 -6.8,6.7 -10.6,9.6 -3.9,3.2 -8,6.2 -12.2,9 -7.3,4.3 -14.6,8.8 -22.5,11.9 -5.5,2.3 -11.2,4.5 -17,6 -6.3,1.6 -12.6,3.1 -19,4 -6.4,0.6 -12.8,0.7 -19.2,0.4 -7.2,-0.3 -14.5,-0.9 -21.6,-2.3 -7.5,-1.6 -15,-3.2 -22.1,-6 -6.6,-2.7 -13,-5.8 -19,-9.6 -6.2,-4 -12.2,-8.2 -18,-12.8 -4.5,-3.6 -9,-7.4 -12.7,-11.9 -2.9,-3.4 -5.7,-6.9 -8,-10.8 -2.2,-3.7 -4.4,-7.3 -6,-11.3 -1.6,-3.7 -3.2,-7.3 -4.7,-11 -1.1,-3 -2.1,-6 -2.7,-9.1 0,0 14.3,-4 14.3,-4 z"/>
	<path style="stroke-width:2.49;" d="m 881.5,3467.3 c 2.4,-0.8 4.6,-2.1 6.8,-3.4 -13.7,7.9 -3.2,1.8 -0.1,-0.2 2.8,-1.5 5.2,-3.5 7.8,-5.3 2.5,-1.6 4.7,-3.7 7.1,-5.5 2.3,-1.7 4.5,-3.6 6.6,-5.5 2,-2 4.1,-3.8 6,-5.7 0.3,-0.4 0.6,-0.8 0.9,-1.1 0,0 14.5,3.1 14.5,3.1 v 0 c -0.3,0.4 -0.6,0.7 -0.9,1.1 -1.8,2.5 -3.9,4.7 -6.3,6.7 -2.1,2.2 -4.4,4.4 -6.9,6.2 -2.4,2 -5,3.7 -7.2,5.9 -2.6,2 -5.3,3.8 -8,5.8 -5.1,3.1 -10,6.7 -15.4,9.2 -2.3,1.2 -4.7,2.2 -7,3.4 0,0 2.1,-14.7 2.1,-14.7 z"/>
	<path style="stroke-width:2.49;" d="m 913.5,3487 c 0,-2.4 0,-4.8 0.1,-7.3 0.2,-2.8 0.5,-5.7 0.9,-8.5 0.4,-2.9 0.9,-5.8 1.6,-8.7 0.8,-2.8 1.3,-5.6 2,-8.4 0.7,-3.1 1.6,-6.1 2.5,-9.1 0.6,-2 0.3,-1 0.9,-3 0,0 14.8,-0.9 14.8,-0.9 v 0 c -0.5,2.2 -0.3,1.1 -0.8,3.3 -0.8,2.9 -1.9,5.8 -2.5,8.7 -0.7,2.8 -1.3,5.7 -2,8.5 -0.7,2.5 -1.4,5.1 -1.7,7.7 -0.4,2.6 -0.8,5.2 -0.9,7.9 -0.2,2.2 -0.3,4.4 -0.2,6.6 0,0 -14.5,3.1 -14.5,3.1 z"/>
</g>
<g transform="matrix(-0.159246,-0.015554,-0.009924,0.223429,194.143,-718.27)">
	<path style="stroke-width:2.49;" d="m 707.1,3434.5 c 0.3,2.4 1.2,4.8 2,7.1 1.4,3.5 3,7 4.5,10.5 1.5,3.6 3.4,6.9 5.4,10.2 2.1,3.4 4.6,6.5 7.2,9.5 3.4,4 7.4,7.4 11.6,10.5 5.5,4.4 11.4,8.4 17.4,12.2 5.6,3.5 11.5,6.2 17.7,8.5 6.8,2.4 13.8,3.8 20.8,5.2 6.7,1.2 13.5,1.4 20.3,1.7 6,0.2 11.9,0.1 17.8,-0.9 6,-1.3 11.9,-2.6 17.8,-4.3 5.4,-1.6 10.6,-4 15.8,-6.2 3.2,-1.6 6.4,-3.1 9.5,-5 0.7,-0.4 2.9,-1.7 2.2,-1.3 -1.8,1 -3.6,2.1 -5.4,3.1 4.1,-2.4 8,-5.2 11.8,-8.1 3.7,-2.7 7.1,-5.7 10.4,-8.8 3.4,-3.1 6.5,-6.4 9.7,-9.8 2.7,-3 5.3,-6 8,-9.1 2.4,-2.6 4.1,-5.7 5.9,-8.7 0.3,-0.5 0.6,-1 0.8,-1.4 0,0 14.8,1.3 14.8,1.3 v 0 c -0.3,0.6 -0.6,1.1 -0.9,1.7 -1.9,3.4 -3.8,6.9 -6.1,10.1 -2.5,3.3 -5.3,6.3 -8,9.4 -3.1,3.7 -6.5,7.2 -9.9,10.6 -3.5,3.3 -6.8,6.7 -10.6,9.6 -3.9,3.2 -8,6.2 -12.2,9 -7.3,4.3 -14.6,8.8 -22.5,11.9 -5.5,2.3 -11.2,4.5 -17,6 -6.3,1.6 -12.6,3.1 -19,4 -6.4,0.6 -12.8,0.7 -19.2,0.4 -7.2,-0.3 -14.5,-0.9 -21.6,-2.3 -7.5,-1.6 -15,-3.2 -22.1,-6 -6.6,-2.7 -13,-5.8 -19,-9.6 -6.2,-4 -12.2,-8.2 -18,-12.8 -4.5,-3.6 -9,-7.4 -12.7,-11.9 -2.9,-3.4 -5.7,-6.9 -8,-10.8 -2.2,-3.7 -4.4,-7.3 -6,-11.3 -1.6,-3.7 -3.2,-7.3 -4.7,-11 -1.1,-3 -2.1,-6 -2.7,-9.1 0,0 14.3,-4 14.3,-4 z"/>
	<path style="stroke-width:2.49;" d="m 881.5,3467.3 c 2.4,-0.8 4.6,-2.1 6.8,-3.4 -13.7,7.9 -3.2,1.8 -0.1,-0.2 2.8,-1.5 5.2,-3.5 7.8,-5.3 2.5,-1.6 4.7,-3.7 7.1,-5.5 2.3,-1.7 4.5,-3.6 6.6,-5.5 2,-2 4.1,-3.8 6,-5.7 0.3,-0.4 0.6,-0.8 0.9,-1.1 0,0 14.5,3.1 14.5,3.1 v 0 c -0.3,0.4 -0.6,0.7 -0.9,1.1 -1.8,2.5 -3.9,4.7 -6.3,6.7 -2.1,2.2 -4.4,4.4 -6.9,6.2 -2.4,2 -5,3.7 -7.2,5.9 -2.6,2 -5.3,3.8 -8,5.8 -5.1,3.1 -10,6.7 -15.4,9.2 -2.3,1.2 -4.7,2.2 -7,3.4 0,0 2.1,-14.7 2.1,-14.7 z"/>
	<path style="stroke-width:2.49;" d="m 913.5,3487 c 0,-2.4 0,-4.8 0.1,-7.3 0.2,-2.8 0.5,-5.7 0.9,-8.5 0.4,-2.9 0.9,-5.8 1.6,-8.7 0.8,-2.8 1.3,-5.6 2,-8.4 0.7,-3.1 1.6,-6.1 2.5,-9.1 0.6,-2 0.3,-1 0.9,-3 0,0 14.8,-0.9 14.8,-0.9 v 0 c -0.5,2.2 -0.3,1.1 -0.8,3.3 -0.8,2.9 -1.9,5.8 -2.5,8.7 -0.7,2.8 -1.3,5.7 -2,8.5 -0.7,2.5 -1.4,5.1 -1.7,7.7 -0.4,2.6 -0.8,5.2 -0.9,7.9 -0.2,2.2 -0.3,4.4 -0.2,6.6 0,0 -14.5,3.1 -14.5,3.1 z"/>
</g>
<text x="99.1" y="73.4" style="font-size:18px;">-</text>
<text x="107.1" y="73.9" style="font-size:18px;">2</text>
<text x="137.6" y="73.4" style="font-size:18px;">-</text>
<text x="145.6" y="73.9" style="font-size:18px;">2</text>
<text x="60.6" y="73.4" style="font-size:18px;">-</text>
<text x="68.6" y="73.9" style="font-size:18px;">2</text>
<text x="22.1" y="73.4" style="font-size:18px;">-</text>
<text x="30.1" y="73.9" style="font-size:18px;">2</text>
<g transform="matrix(-0.159246,-0.015554,-0.009924,0.223429,155.143,-718.27)">
	<path style="stroke-width:2.49;" d="m 707.1,3434.5 c 0.3,2.4 1.2,4.8 2,7.1 1.4,3.5 3,7 4.5,10.5 1.5,3.6 3.4,6.9 5.4,10.2 2.1,3.4 4.6,6.5 7.2,9.5 3.4,4 7.4,7.4 11.6,10.5 5.5,4.4 11.4,8.4 17.4,12.2 5.6,3.5 11.5,6.2 17.7,8.5 6.8,2.4 13.8,3.8 20.8,5.2 6.7,1.2 13.5,1.4 20.3,1.7 6,0.2 11.9,0.1 17.8,-0.9 6,-1.3 11.9,-2.6 17.8,-4.3 5.4,-1.6 10.6,-4 15.8,-6.2 3.2,-1.6 6.4,-3.1 9.5,-5 0.7,-0.4 2.9,-1.7 2.2,-1.3 -1.8,1 -3.6,2.1 -5.4,3.1 4.1,-2.4 8,-5.2 11.8,-8.1 3.7,-2.7 7.1,-5.7 10.4,-8.8 3.4,-3.1 6.5,-6.4 9.7,-9.8 2.7,-3 5.3,-6 8,-9.1 2.4,-2.6 4.1,-5.7 5.9,-8.7 0.3,-0.5 0.6,-1 0.8,-1.4 0,0 14.8,1.3 14.8,1.3 v 0 c -0.3,0.6 -0.6,1.1 -0.9,1.7 -1.9,3.4 -3.8,6.9 -6.1,10.1 -2.5,3.3 -5.3,6.3 -8,9.4 -3.1,3.7 -6.5,7.2 -9.9,10.6 -3.5,3.3 -6.8,6.7 -10.6,9.6 -3.9,3.2 -8,6.2 -12.2,9 -7.3,4.3 -14.6,8.8 -22.5,11.9 -5.5,2.3 -11.2,4.5 -17,6 -6.3,1.6 -12.6,3.1 -19,4 -6.4,0.6 -12.8,0.7 -19.2,0.4 -7.2,-0.3 -14.5,-0.9 -21.6,-2.3 -7.5,-1.6 -15,-3.2 -22.1,-6 -6.6,-2.7 -13,-5.8 -19,-9.6 -6.2,-4 -12.2,-8.2 -18,-12.8 -4.5,-3.6 -9,-7.4 -12.7,-11.9 -2.9,-3.4 -5.7,-6.9 -8,-10.8 -2.2,-3.7 -4.4,-7.3 -6,-11.3 -1.6,-3.7 -3.2,-7.3 -4.7,-11 -1.1,-3 -2.1,-6 -2.7,-9.1 0,0 14.3,-4 14.3,-4 z"/>
	<path style="stroke-width:2.49;" d="m 881.5,3467.3 c 2.4,-0.8 4.6,-2.1 6.8,-3.4 -13.7,7.9 -3.2,1.8 -0.1,-0.2 2.8,-1.5 5.2,-3.5 7.8,-5.3 2.5,-1.6 4.7,-3.7 7.1,-5.5 2.3,-1.7 4.5,-3.6 6.6,-5.5 2,-2 4.1,-3.8 6,-5.7 0.3,-0.4 0.6,-0.8 0.9,-1.1 0,0 14.5,3.1 14.5,3.1 v 0 c -0.3,0.4 -0.6,0.7 -0.9,1.1 -1.8,2.5 -3.9,4.7 -6.3,6.7 -2.1,2.2 -4.4,4.4 -6.9,6.2 -2.4,2 -5,3.7 -7.2,5.9 -2.6,2 -5.3,3.8 -8,5.8 -5.1,3.1 -10,6.7 -15.4,9.2 -2.3,1.2 -4.7,2.2 -7,3.4 0,0 2.1,-14.7 2.1,-14.7 z"/>
	<path style="stroke-width:2.49;" d="m 913.5,3487 c 0,-2.4 0,-4.8 0.1,-7.3 0.2,-2.8 0.5,-5.7 0.9,-8.5 0.4,-2.9 0.9,-5.8 1.6,-8.7 0.8,-2.8 1.3,-5.6 2,-8.4 0.7,-3.1 1.6,-6.1 2.5,-9.1 0.6,-2 0.3,-1 0.9,-3 0,0 14.8,-0.9 14.8,-0.9 v 0 c -0.5,2.2 -0.3,1.1 -0.8,3.3 -0.8,2.9 -1.9,5.8 -2.5,8.7 -0.7,2.8 -1.3,5.7 -2,8.5 -0.7,2.5 -1.4,5.1 -1.7,7.7 -0.4,2.6 -0.8,5.2 -0.9,7.9 -0.2,2.2 -0.3,4.4 -0.2,6.6 0,0 -14.5,3.1 -14.5,3.1 z"/>
</g>
<path style="fill:none; stroke:#0000ff;" d="m 10.6,0 v 18.3"/>
<path style="fill:none; stroke:#0000ff;" d="m 29.4,0 v 18.3"/>
<path style="fill:none; stroke:#0000ff;" d="m 48.5,0 v 18.3"/>
<path style="marker-end:url(#aa1); fill:none; stroke:#3465a4; stroke-width:0.9;" d="M -0.5,9.6 H 195.9"/>
<text x="3.3" y="31.3" style="fill:#0000ff;">17</text>
</svg>