<?xml version="1.0" encoding="UTF-8" standalone="no"?>
<!-- Copyright 2017 mathsisfun.com -->
<svg xmlns="http://www.w3.org/2000/svg" width="309" height="231.5" version="1.1">
<defs>
<marker style="overflow:visible;" orient="auto" id="id01">
<path d="M 0,0 5,-5 -12.5,0 5,5 Z" transform="matrix(-0.4,0,0,-0.4,-4,0)" style="stroke:black; stroke-width:1pt;"/>
</marker>
</defs>
<g transform="translate(-2705.79,-582.14)">
<g transform="matrix(1.50424,0,0,1.5,-1716.1,-680.748)">
<path d="m 2947.4,866.6 h 188.4" style="fill:none; stroke:#e5e6e8; stroke-width:0.39; stroke-dasharray:3.1, 0.4;"/>
<path d="m 2947.4,842.9 h 188.4" style="fill:none; stroke:#e5e6e8; stroke-width:0.39; stroke-dasharray:3.1, 0.4;"/>
<path d="m 2947.4,984.9 h 188.4" style="fill:none; stroke:#e5e6e8; stroke-width:0.39; stroke-dasharray:3.1, 0.4;"/>
<path d="m 2947.4,937.5 h 188.4" style="fill:none; stroke:#e5e6e8; stroke-width:0.39; stroke-dasharray:3.1, 0.4;"/>
<path d="m 2947.4,913.9 h 188.4" style="fill:none; stroke:#e5e6e8; stroke-width:0.39; stroke-dasharray:3.1, 0.4;"/>
<path d="m 2947.4,890.2 h 188.4" style="fill:none; stroke:#e5e6e8; stroke-width:0.39; stroke-dasharray:3.1, 0.4;"/>
<path d="m 2947.4,961.2 h 188.4" style="fill:none; stroke:#e5e6e8; stroke-width:0.39; stroke-dasharray:3.1, 0.4;"/>
<path d="m 2947.4,878.4 h 188.4" style="fill:none; stroke:#e5e6e8; stroke-width:0.39; stroke-dasharray:3.1, 0.4;"/>
<path d="m 2947.4,854.7 h 188.4" style="fill:none; stroke:#e5e6e8; stroke-width:0.39; stroke-dasharray:3.1, 0.4;"/>
<path d="m 2947.4,949.4 h 188.4" style="fill:none; stroke:#e5e6e8; stroke-width:0.39; stroke-dasharray:3.1, 0.4;"/>
<path d="m 2947.4,925.7 h 188.4" style="fill:none; stroke:#e5e6e8; stroke-width:0.39; stroke-dasharray:3.1, 0.4;"/>
<path d="m 2947.4,902.1 h 188.4" style="fill:none; stroke:#e5e6e8; stroke-width:0.39; stroke-dasharray:3.1, 0.4;"/>
<path d="m 2947.4,973 h 188.4" style="fill:none; stroke:#e5e6e8; stroke-width:0.39; stroke-dasharray:3.1, 0.4;"/>
<path d="M 3017.9,984.4 V 842.8" style="fill:none; stroke:#e5e6e8; stroke-width:0.34; stroke-dasharray:2.7, 0.3;"/>
<path d="M 2994.3,984.4 V 842.8" style="fill:none; stroke:#e5e6e8; stroke-width:0.34; stroke-dasharray:2.7, 0.3;"/>
<path d="M 2970.6,984.4 V 842.8" style="fill:none; stroke:#e5e6e8; stroke-width:0.34; stroke-dasharray:2.7, 0.3;"/>
<path d="M 2946.9,984.4 V 842.8" style="fill:none; stroke:#e5e6e8; stroke-width:0.34; stroke-dasharray:2.7, 0.3;"/>
<path d="M 3136.2,984.4 V 842.8" style="fill:none; stroke:#e5e6e8; stroke-width:0.34; stroke-dasharray:2.7, 0.3;"/>
<path d="M 3088.9,984.4 V 842.8" style="fill:none; stroke:#e5e6e8; stroke-width:0.34; stroke-dasharray:2.7, 0.3;"/>
<path d="M 3065.2,984.4 V 842.8" style="fill:none; stroke:#e5e6e8; stroke-width:0.34; stroke-dasharray:2.7, 0.3;"/>
<path d="M 3041.6,984.4 V 842.8" style="fill:none; stroke:#e5e6e8; stroke-width:0.34; stroke-dasharray:2.7, 0.3;"/>
<path d="M 3112.5,984.4 V 842.8" style="fill:none; stroke:#e5e6e8; stroke-width:0.34; stroke-dasharray:2.7, 0.3;"/>
<path d="M 3029.7,984.4 V 842.8" style="fill:none; stroke:#e5e6e8; stroke-width:0.34; stroke-dasharray:2.7, 0.3;"/>
<path d="M 3006.1,984.4 V 842.8" style="fill:none; stroke:#e5e6e8; stroke-width:0.34; stroke-dasharray:2.7, 0.3;"/>
<path d="M 2982.4,984.4 V 842.8" style="fill:none; stroke:#e5e6e8; stroke-width:0.34; stroke-dasharray:2.7, 0.3;"/>
<path d="M 2958.8,984.4 V 842.8" style="fill:none; stroke:#e5e6e8; stroke-width:0.34; stroke-dasharray:2.7, 0.3;"/>
<path d="M 3100.7,984.4 V 842.8" style="fill:none; stroke:#e5e6e8; stroke-width:0.34; stroke-dasharray:2.7, 0.3;"/>
<path d="M 3077.1,984.4 V 842.8" style="fill:none; stroke:#e5e6e8; stroke-width:0.34; stroke-dasharray:2.7, 0.3;"/>
<path d="M 3053.4,984.4 V 842.8" style="fill:none; stroke:#e5e6e8; stroke-width:0.34; stroke-dasharray:2.7, 0.3;"/>
<path d="M 3124.4,984.4 V 842.8" style="fill:none; stroke:#e5e6e8; stroke-width:0.34; stroke-dasharray:2.7, 0.3;"/>
</g>
<path d="M 2705.8,725.6 H 3013.1" style="marker-end:url(#id01); fill:#2e3436; fill-opacity:0.75; stroke:#2e3436; stroke-width:0.88;"/>
<path d="M 2770.4,809.8 V 595.2" style="marker-end:url(#id01); fill:#2e3436; fill-opacity:0.75; stroke:#2e3436; stroke-width:0.88;"/>
<text x="2981.6" y="718.1" transform="scale(1.00141,0.99859)" style="font-family:'Comic Sans MS'; font-weight:bold; font-size:24.6px; font-style:italic; overflow:visible; fill:black; stroke-width:1px;">x</text>
<text x="2749.1" y="609.5" transform="scale(1.00141,0.99859)" style="font-family:'Comic Sans MS'; font-weight:bold; font-size:24.6px; font-style:italic; overflow:visible; fill:black; stroke-width:1px;">y</text>
<text x="605" y="-2877.3" transform="matrix(-0.004118,0.998581,-1.0014,-0.004106,0,0)" style="font-family:'Comic Sans MS'; font-size:17.6px; color:black; overflow:visible; fill:#f44800; stroke-width:1px;">asymptote</text>
<path d="M 2872.7,813.6 2872.5,582.1" style="color:black; overflow:visible; fill:none; stroke:#f44800; stroke-width:1.28; stroke-dasharray:2.6, 1.3;"/>
<text x="1981" y="2091.4" transform="matrix(0.856654,-0.517159,0.518619,0.854244,0,0)" style="font-family:'Comic Sans MS'; font-size:17.6px; color:black; overflow:visible; fill:#0000ff; stroke-width:1px;">curve</text>
<path d="m 2722.7,789.7 c 3.3,-0.9 123.2,-42.5 136.1,-91.9 6.3,-24.3 6.7,-27.2 7.6,-48.4 0.9,-21.2 2.3,-60.6 2.3,-60.6" style="color:black; overflow:visible; fill:none; stroke:#0000ff; stroke-width:1.04;"/>
<ellipse cx="2872" cy="749.2" rx="12.8" ry="14.2" style="color:black; overflow:visible; fill:white; stroke-width:4.07;"/>
<text x="2872" y="757.9" transform="scale(1.0001,0.9999)" style="font-family:'Comic Sans MS'; text-align:center; text-anchor:middle; font-size:24.4px; color:black; overflow:visible; fill:#f44800; stroke-width:5.85;">C</text>
</g>
</svg>
