<?xml version="1.0" encoding="UTF-8" standalone="no"?>
<!-- Copyright 2017 mathsisfun.com -->
<svg xmlns="http://www.w3.org/2000/svg" width="458.3" height="255" version="1.1">
<defs>
<marker style="overflow:visible;" orient="auto" id="id01">
<path d="M 0,0 5,-5 -12.5,0 5,5 Z" transform="matrix(-0.4,0,0,-0.4,-4,0)" style="fill:black; stroke:black; stroke-width:1pt;"/>
</marker>
<marker style="overflow:visible;" orient="auto" id="id02">
<path d="M 0,0 5,-5 -12.5,0 5,5 Z" transform="matrix(-0.4,0,0,-0.4,-4,0)" style="fill:black; stroke:black; stroke-width:1pt;"/>
</marker>
<marker style="overflow:visible;" orient="auto">
<path d="M 0,0 5,-5 -12.5,0 5,5 Z" transform="matrix(-0.4,0,0,-0.4,-4,0)" style="stroke:black; stroke-width:1pt;"/>
</marker>
</defs>
<rect x="0" y="0" ry="23.4" width="458.3" height="255" style="color:black; overflow:visible; fill:white; stroke-width:1.86; stroke-dasharray:3.7, 1.9;"/>
<g transform="matrix(0.509262,0,0,0.5093,-1461.37,-1604.65)"/>
<text x="-839.7" y="-240.8" style="font-family:'Comic Sans MS'; text-align:center; text-anchor:middle; font-size:25.9px; color:black; overflow:visible; fill:#f44800; stroke-width:1.9;"/>
  
<path d="M 14.5,153.8 H 449.2" style="marker-end:url(#id01); fill:none; fill-opacity:0.75; stroke:black; stroke-width:2.18;"/>
<path d="M 190.7,318.8 V 4.4" style="marker-end:url(#id02); fill:none; fill-opacity:0.75; stroke:black; stroke-width:2.29;"/>
<text x="426.8" y="177.3" transform="scale(0.999961,1.00004)" style="font-family:'Comic Sans MS'; font-weight:bold; font-size:29.3px; font-style:italic; overflow:visible; fill:black; stroke-width:0.77px;">x</text>
<text x="197.3" y="19.9" transform="scale(0.999961,1.00004)" style="font-family:'Comic Sans MS'; font-weight:bold; font-size:29.3px; font-style:italic; overflow:visible; fill:black; stroke-width:0.77px;">y</text>
<path d="M 79.7,-0.3 V 315.2" style="color:black; overflow:visible; fill:none; stroke:#3465a4; stroke-width:2.4; stroke-dasharray:4.7, 2.4;"/>
<path d="M 298.7,3.2 V 318.8" style="color:black; overflow:visible; fill:none; stroke:#3465a4; stroke-width:2.4; stroke-dasharray:4.7, 2.4;"/>
<path d="M 431.4,153.8 H -11.1" style="color:black; overflow:visible; fill:none; stroke:#3465a4; stroke-width:2.4; stroke-dasharray:4.7, 2.4;"/>
<text x="330.6" y="147.7" transform="scale(0.999961,1.00004)" style="font-family:'Comic Sans MS'; font-size:17.5px; color:black; overflow:visible; fill:#3465a4; stroke-width:6.02;">Horizontal</text>
<circle cx="226.2" cy="154.3" r="6.02375" style="color:black; overflow:visible; fill:#3465a4; stroke-width:6.02;"/>
<text x="-88.7" y="72.9" transform="matrix(0,-1.00004,0.999961,0,0,0)" style="font-family:'Comic Sans MS'; font-size:17.5px; color:black; overflow:visible; fill:#3465a4; stroke-width:6.02;">Vertical</text>
<circle cx="190.2" cy="145.1" r="6.02375" style="color:black; overflow:visible; fill:#3465a4; stroke-width:6.02;"/>
<text x="198.9" y="144.5" transform="scale(0.999961,1.00004)" style="font-family:'Comic Sans MS'; font-size:17.5px; color:black; overflow:visible; fill:#3465a4; stroke-width:6.02;">Crosses</text>
<text x="-100.9" y="98.7" transform="matrix(0,-1.00004,0.999961,0,0,0)" style="font-family:'Comic Sans MS'; font-size:17.5px; color:black; overflow:visible; fill:#3465a4; stroke-width:6.02;">Asymptote</text>
<text x="104.9" y="-0.3" style="font-family:Georgia; font-size:12px;"/>
  
<text x="-94.3" y="292.6" transform="matrix(0,-1.00004,0.999961,0,0,0)" style="font-family:'Comic Sans MS'; font-size:17.5px; color:black; overflow:visible; fill:#3465a4; stroke-width:6.02;">Vertical</text>
<text x="-106.4" y="318.5" transform="matrix(0,-1.00004,0.999961,0,0,0)" style="font-family:'Comic Sans MS'; font-size:17.5px; color:black; overflow:visible; fill:#3465a4; stroke-width:6.02;">Asymptote</text>
<text x="330.6" y="170.6" transform="scale(0.999961,1.00004)" style="font-family:'Comic Sans MS'; font-size:17.5px; color:black; overflow:visible; fill:#3465a4; stroke-width:6.02;">Asymptote</text>
<text x="212.9" y="185.7" style="font-family:'Comic Sans MS'; font-size:28.7px; font-style:italic; color:black; overflow:visible; fill:black; stroke-width:1.43px;">+1</text>
<text x="65.3" y="183.7" style="font-family:'Comic Sans MS'; font-size:28.7px; font-style:italic; color:black; overflow:visible; fill:black; stroke-width:1.43px;">-3</text>
<text x="283" y="185.7" style="font-family:'Comic Sans MS'; font-size:28.7px; font-style:italic; color:black; overflow:visible; fill:black; stroke-width:1.43px;">+3</text>
<text x="154.7" y="131" style="font-family:'Comic Sans MS'; font-size:23px; font-style:italic; color:black; overflow:visible; fill:black; stroke-width:1.15px;">1</text>
<text x="166.8" y="145.3" style="font-family:'Comic Sans MS'; font-size:23px; font-style:italic; color:black; overflow:visible; fill:black; stroke-width:1.15px;">9</text>
<path d="m 160,136.2 15.9,-12.9" style="fill:none; stroke:black; stroke-width:1.83px;"/>
</svg>
