<?xml version="1.0" encoding="UTF-8" standalone="no"?>
<!-- Copyright 2017 mathsisfun.com -->
<svg xmlns="http://www.w3.org/2000/svg" width="459.5" height="139.6" version="1.1" style="font-family:'Comic Sans MS'; font-size:10.9px; fill:black; stroke-width:0.09px;">
<g transform="translate(2163.65,-71.8995)">
	<g transform="matrix(0.886969,0,0,0.886969,-236.42,21.074)">
		<rect x="-2161" y="70" width="87.5" height="87.4" style="color:black; overflow:visible; fill:none; stroke:#cccccc; stroke-width:0.38px;"/>
		<rect x="-2105.7" y="125.3" width="32.2" height="32.2" style="color:black; overflow:visible; fill:#c3eaff; fill-opacity:0.68; stroke:black; stroke-width:0.38;"/>
		<rect x="-2161" y="70" width="55.3" height="55.3" style="color:black; overflow:visible; fill:#c3eaff; fill-opacity:0.68; stroke:black; stroke-width:0.38;"/>
		<rect x="-2105.7" y="70" width="32.2" height="55.3" style="color:black; overflow:visible; fill:#c3eaff; fill-opacity:0.68; stroke:black; stroke-width:0.38;"/>
		<rect x="125.3" y="2105.7" width="32.2" height="55.3" transform="rotate(90)" style="color:black; overflow:visible; fill:#c3eaff; fill-opacity:0.68; stroke:black; stroke-width:0.38;"/>
		<text x="-2139" y="100.2" transform="scale(1.00025,0.999751)" style="font-size:14.8px; color:black; overflow:visible; stroke-width:0.11px;">a</text>
		<text x="-2132.1" y="96.4" transform="scale(1.00025,0.999751)" style="font-size:12.3px; color:black; overflow:visible;">2</text>
		<text x="-2095.7" y="147.1" transform="scale(1.00025,0.999751)" style="font-size:14.8px; color:black; overflow:visible; stroke-width:0.11px;">b</text>
		<text x="-2088.3" y="141.4" transform="scale(1.00025,0.999751)" style="font-size:12.3px; color:black; overflow:visible; stroke-width:0.1px;">2</text>
		<text x="-2097.5" y="100.6" transform="scale(1.00025,0.999751)" style="font-size:14.8px; color:black; overflow:visible; stroke-width:0.11px;">ab</text>
		<text x="-2141.3" y="146.1" transform="scale(1.00025,0.999751)" style="font-size:14.8px; color:black; overflow:visible; stroke-width:0.11px;">ab</text>
		<text x="-2137.5" y="67" transform="scale(1.00025,0.999751)" style="font-size:12.3px; color:black; overflow:visible; stroke-width:0.11px;">a</text>
		<text x="-2095.9" y="67.2" transform="scale(1.00025,0.999751)" style="font-size:12.3px; color:black; overflow:visible; stroke-width:0.11px;">b</text>
		<text x="-2172.3" y="100" transform="scale(1.00025,0.999751)" style="font-size:12.3px; color:black; overflow:visible; stroke-width:0.11px;">a</text>
		<text x="-2173.2" y="145.5" transform="scale(1.00025,0.999751)" style="font-size:12.3px; color:black; overflow:visible; stroke-width:0.11px;">b</text>
	</g>
	<text x="-2047.9" y="207.5" style="font-size:21px; color:black; overflow:visible; fill:#3465a4; stroke-width:0.38px;">=</text>
	<text x="-1929.9" y="207.5" style="font-size:21px; color:black; overflow:visible; fill:#3465a4; stroke-width:0.38px;">+</text>
	<text x="-1796.6" y="207.5" style="font-size:21px; color:black; overflow:visible; fill:#3465a4; stroke-width:0.38px;">+</text>
	<text x="-2143.6" y="207.1" style="font-size:21px; color:black; overflow:visible; fill:#3465a4; stroke-width:0.07px;">(a+b)</text>
	<text x="-1992" y="206.4" style="font-size:21px; color:black; overflow:visible; fill:#3465a4; stroke-width:0.07px;">a</text>
	<text x="-1878.9" y="208.4" style="font-size:21px; color:black; overflow:visible; fill:#3465a4; stroke-width:0.07px;">2ab</text>
	<text x="-1740.8" y="208.1" style="font-size:21px; color:black; overflow:visible; fill:#3465a4; stroke-width:0.07px;">b</text>
	<text x="-1729.4" y="200.2" style="font-size:18px; color:black; overflow:visible; fill:#3465a4; stroke-width:0.07px;">2</text>
	<text x="-1979.9" y="201.6" style="font-size:18px; color:black; overflow:visible; fill:#3465a4; stroke-width:0.07px;">2</text>
	<text x="-2095.1" y="200.4" style="font-size:18px; color:black; overflow:visible; fill:#3465a4; stroke-width:0.07px;">2</text>
	<rect x="-2020.9" y="82.8" width="77.6" height="77.6" style="color:black; overflow:visible; fill:none; stroke:#8f8f8f; stroke-width:0.33;"/>
	<rect x="-2020.9" y="82.8" width="49.1" height="49" style="color:black; overflow:visible; fill:#c3eaff; fill-opacity:0.68; stroke:black; stroke-width:0.34;"/>
	<text x="-2001.4" y="109.6" transform="scale(1.00025,0.99975)" style="font-size:13.1px; color:black; overflow:visible;">a</text>
	<text x="-1995.2" y="106.1" transform="scale(1.00025,0.99975)" style="color:black; overflow:visible; stroke-width:0.08px;">2</text>
	<text x="-2000" y="80.1" transform="scale(1.00025,0.99975)" style="color:black; overflow:visible;">a</text>
	<text x="-2030.9" y="109.4" transform="scale(1.00025,0.99975)" style="color:black; overflow:visible;">a</text>
	<rect x="-1901.4" y="82.8" width="77.6" height="77.6" style="color:black; overflow:visible; fill:none; stroke:#8f8f8f; stroke-width:0.33;"/>
	<rect x="-1852.3" y="82.8" width="28.5" height="49" style="color:black; overflow:visible; fill:#c3eaff; fill-opacity:0.68; stroke:black; stroke-width:0.34;"/>
	<rect x="131.8" y="1852.3" width="28.5" height="49" transform="rotate(90)" style="color:black; overflow:visible; fill:#c3eaff; fill-opacity:0.68; stroke:black; stroke-width:0.34;"/>
	<text x="-1845.1" y="109.9" transform="scale(1.00025,0.99975)" style="font-size:13.1px; color:black; overflow:visible;">ab</text>
	<text x="-1883.9" y="150.2" transform="scale(1.00025,0.99975)" style="font-size:13.1px; color:black; overflow:visible;">ab</text>
	<text x="-1843.7" y="80.3" transform="scale(1.00025,0.99975)" style="color:black; overflow:visible;">b</text>
	<text x="-1912.2" y="149.7" transform="scale(1.00025,0.99975)" style="color:black; overflow:visible;">b</text>
	<rect x="-1781.9" y="82.8" width="77.6" height="77.6" style="color:black; overflow:visible; fill:none; stroke:#8f8f8f; stroke-width:0.33;"/>
	<rect x="-1732.8" y="131.8" width="28.5" height="28.5" style="color:black; overflow:visible; fill:#c3eaff; fill-opacity:0.68; stroke:black; stroke-width:0.34;"/>
	<text x="-1724" y="151.1" transform="scale(1.00025,0.99975)" style="font-size:13.1px; color:black; overflow:visible;">b</text>
	<text x="-1717.5" y="146.1" transform="scale(1.00025,0.99975)" style="color:black; overflow:visible;">2</text>
	<text x="-1864.4" y="112.5" transform="scale(1.00025,0.999751)" style="color:black; overflow:visible;">a</text>
	<text x="-1878.2" y="129.7" transform="scale(1.00025,0.999751)" style="color:black; overflow:visible;">a</text>
</g>
</svg>