<?xml version="1.0" encoding="UTF-8" standalone="no"?>
<!-- Copyright 2017 mathsisfun.com -->
<svg xmlns="http://www.w3.org/2000/svg" xmlns:xlink="http://www.w3.org/1999/xlink" width="290.6" height="199.8" version="1.0" style="fill:#0169c9; stroke-width:0.48px;">
<defs>
	<marker id="aa13" style="overflow:visible;" orient="auto">
		<path transform="matrix(-0.4,0,0,-0.4,-4,0)" style="stroke:#0169c9; stroke-width:1pt;" d="M 0,0 5,-5 -12.5,0 5,5 Z"/>
	</marker>
	<marker id="aa12" style="overflow:visible;" orient="auto">
		<path transform="matrix(0.4,0,0,0.4,4,0)" style="stroke:#0169c9; stroke-width:1pt;" d="M 0,0 5,-5 -12.5,0 5,5 Z"/>
	</marker>
	<linearGradient id="aa4">
		<stop offset="0" style="stop-color:#dcc06d; stop-opacity:1;"/>
		<stop offset="1" style="stop-color:#af7e32; stop-opacity:1;"/>
	</linearGradient>
	<linearGradient id="aa3">
		<stop offset="0" style="stop-color:#dcc06d; stop-opacity:1;"/>
		<stop offset="1" style="stop-color:#af7e32; stop-opacity:1;"/>
	</linearGradient>
	<linearGradient id="aa1">
		<stop offset="0" style="stop-color:#dcbb6c; stop-opacity:1;"/>
		<stop offset="1" style="stop-color:#af7e32; stop-opacity:1;"/>
	</linearGradient>
	<linearGradient id="aa2">
		<stop offset="0" style="stop-color:#5b230a; stop-opacity:1;"/>
		<stop offset="1" style="stop-color:#8c5e22; stop-opacity:1;"/>
	</linearGradient>
	<filter id="aa7">
		<feGaussianBlur stdDeviation="0.96741655"/>
	</filter>
	<filter id="aa11">
		<feGaussianBlur stdDeviation="0.96741655"/>
	</filter>
	<linearGradient id="aa5" xlink:href="#aa1" x1="382.7" y1="408.7" x2="93.6" y2="351.6" gradientUnits="userSpaceOnUse"/>
	<linearGradient id="aa6" xlink:href="#aa2" x1="704" y1="327.3" x2="391.7" y2="304" gradientUnits="userSpaceOnUse"/>
	<linearGradient id="aa8" xlink:href="#aa3" x1="241.5" y1="171" x2="431.2" y2="69.7" gradientUnits="userSpaceOnUse"/>
	<linearGradient id="aa9" xlink:href="#aa4" x1="232" y1="189.2" x2="540.4" y2="107.6" gradientUnits="userSpaceOnUse"/>
	<linearGradient id="aa10" xlink:href="#aa4" x1="522.7" y1="99.2" x2="517.6" y2="160.6" gradientUnits="userSpaceOnUse"/>
</defs>
<g transform="translate(-950.253,-402.848)">
	<g transform="matrix(0.360296,0,0,0.361171,929.252,381.68)">
		<path style="fill:url(#aa5); stroke:black; stroke-linejoin:round;" d="M 68.4,144.2 388.2,279.4 377.5,535.7 75,372.5 Z"/>
		<path style="fill:url(#aa6); stroke:black; stroke-linejoin:round;" d="M 388.2,278.6 712.1,153.3 700.5,370.1 378.1,535.8 Z"/>
		<path style="overflow:visible; opacity:0.65; fill:black; fill-opacity:0.09; filter:url(#aa7); stroke:white;" d="m 194.3,197 -11.3,234.4 74.1,40.1 13.6,-242.7 z"/>
		<path style="fill:url(#aa8); stroke:black;" d="M 68.4,143.8 227,210.7 537.5,99.7 402.2,58.9 Z"/>
		<path style="fill:url(#aa9); stroke:black;" d="M 232.5,213.5 388.4,279.1 712.3,153.3 537.5,99.4 Z"/>
		<path style="opacity:0.65; fill:url(#aa10); filter:url(#aa11); stroke:white;" d="M 194.3,197.3 511.9,91.9 575.4,110.8 270.6,229.2 Z"/>
		<path style="fill:black; fill-opacity:0.64; stroke-width:1px;" d="M 537.6,100.2 225.7,210.2 l 8.1,3.4 z"/>
		<path style="opacity:0.14; fill:#ffe9ff; stroke-width:1px;" d="m 182,267.5 187.9,86.8 -2.2,116.3 -188.7,-93.7 z"/>
		<path style="opacity:0.36; fill:white; stroke:#002278; stroke-width:0.91; stroke-linejoin:round;" d="M 186.8,276.6 362.9,359.1 362.5,461.9 183.3,374.2 Z"/>
	</g>
	<path style="marker-start:url(#aa12); marker-end:url(#aa13); overflow:visible; stroke:#0169c9; stroke-width:3.11; stroke-linecap:round;" d="m 955.6,532.1 94.1,52.4"/>
	<path style="marker-start:url(#aa12); marker-end:url(#aa13); overflow:visible; stroke:#0169c9; stroke-width:3.11; stroke-linecap:round;" d="m 1082.7,587 97.9,-53.4"/>
	<path style="marker-start:url(#aa12); marker-end:url(#aa13); overflow:visible; stroke:#0169c9; stroke-width:3.11; stroke-linecap:round;" d="m 1201.6,443.2 -0.5,65.7"/>
	<path style="overflow:visible; stroke-width:10.35; stroke-linecap:round;" d="m 978.4,592.6 c 0.1,-0.1 0.2,-0.2 0.4,-0.3 0.2,-0.1 0.4,-0.3 0.6,-0.4 0.2,-0.2 0.5,-0.3 0.7,-0.5 0.3,-0.2 0.5,-0.4 0.8,-0.6 0.3,-0.2 0.6,-0.5 0.9,-0.7 0.3,-0.3 0.6,-0.6 1,-0.8 0.3,-0.3 0.7,-0.6 1,-0.9 0.3,-0.3 0.7,-0.6 1,-1 1.6,-1.6 -3.2,3.2 -1.2,1.2 0.3,-0.3 0.6,-0.7 1,-1.1 0.3,-0.3 0.6,-0.7 0.9,-1 0.3,-0.4 0.6,-0.7 0.9,-1.1 0.3,-0.4 0.5,-0.8 0.8,-1.2 0.3,-0.4 0.5,-0.8 0.7,-1.2 0.2,-0.4 0.4,-0.8 0.6,-1.2 0.2,-0.4 0.4,-0.8 0.6,-1.2 0.2,-0.4 0.3,-0.8 0.5,-1.2 0.1,-0.4 0.3,-0.8 0.4,-1.2 0.1,-0.4 0.2,-0.7 0.3,-1.1 0.1,-0.4 0.2,-0.7 0.2,-1.1 0,-0.4 0.1,-0.7 0.2,-1.1 0,-0.3 0,-0.7 0,-1 0,-0.3 0,-0.7 0,-1 0,-0.3 0,-0.6 -0,-0.9 0,-0.2 -0,-0.5 -0,-0.7 -0,-0.2 -0,-0.4 -0.1,-0.5 -0,-0.1 -0.1,-0.2 -0.2,-0.4 -0,-0 -0,-0.1 -0.2,-0.1 -0,-0 -0,0 -0.1,0 -0,0 -0.1,0 -0.1,0 -0,0 -0.1,0.1 -0.2,0.2 -0,0 -0.1,0.2 -0.2,0.2 -0,0.1 -0.1,0.2 -0.2,0.3 -0.5,1.1 3.2,-3.2 1.9,-2 -0.1,0.1 -0.3,0.3 -0.4,0.4 -0.1,0.2 -0.2,0.4 -0.3,0.6 -0.1,0.2 -0.2,0.5 -0.3,0.7 -0.1,0.3 -0.2,0.5 -0.3,0.8 -0.1,0.3 -0.2,0.6 -0.3,0.9 -0.1,0.3 -0.2,0.6 -0.3,0.9 -0.1,0.3 -0.2,0.6 -0.3,0.9 -0,0.3 -0.2,0.6 -0.3,1 -0,0.3 -0.2,0.7 -0.3,1 -0,0.4 -0.2,0.7 -0.2,1.1 -0,0.4 -0.2,0.7 -0.2,1.1 -0,0.4 -0.2,0.8 -0.2,1.2 -0,0.4 -0.1,0.8 -0.2,1.2 -0,0.4 -0.1,0.8 -0.2,1.2 -0,0.4 -0.1,0.8 -0.2,1.2 -0,0.4 -0.1,0.8 -0.2,1.2 -0,0.4 -0.1,0.8 -0.2,1.2 -0,0.4 -0.1,0.8 -0.2,1.2 -0,0.4 -0,0.7 -0.1,1.1 -0,0.4 -0,0.7 -0.1,1.1 -0,0.4 -0,0.7 -0,1.1 0,0.3 -0,0.7 -0,1 0,0.3 0,0.6 0,1 0,0.3 0,0.6 0,0.9 0,0.3 0,0.5 0,0.8 0,0.2 0,0.5 0,0.7 0,0.2 0,0.5 0.1,0.7 0,0.2 0.1,0.4 0.2,0.7 0,0.2 0.2,0.4 0.2,0.6 0,0.2 0.2,0.4 0.3,0.6 0,0.2 0.2,0.3 0.3,0.5 0,0.2 0.2,0.3 0.3,0.4 0,0.1 0.2,0.2 0.3,0.3 0,0 0.2,0.1 0.3,0.2 0.1,0 0.2,0.1 0.4,0.2 0.1,0 0.2,0 0.3,0 0.1,0 0.2,0 0.3,0 0.1,0 0.2,0 0.3,0 0.1,0 0.2,-0 0.3,-0 0.1,-0 0.2,-0 0.3,-0 0.1,0 0.2,-0 0.3,-0 0.1,-0 0.2,-0 0.3,-0.1 0.1,-0 0.2,-0 0.3,-0 0,-0 0.2,-0 0.2,-0.1 0,-0 0.1,-0 0.2,-0.1 0,-0 0.2,-0 0.2,-0.1 0,-0 0.2,-0 0.2,-0.1 0,-0 0.1,-0.1 0.2,-0.2 0,-0 0.2,-0 0.2,-0.1 0,-0 0.1,-0 0.2,-0.1 0,-0 0,-0 0,-0 l -0.7,4.4 c -0,0 -0.1,0 -0.2,0 -0,0 -0.1,0 -0.2,0.1 -0,0 -0.2,0 -0.2,0.1 -0.1,0 -0.2,0.1 -0.3,0.1 -0,0 -0.2,0 -0.3,0.1 -0.1,0 -0.2,0 -0.3,0.1 -0.1,0 -0.2,0 -0.4,0.1 -0.1,0 -0.2,0 -0.4,0 -0.1,0 -0.2,0 -0.3,0 -0.1,0 -0.3,0 -0.4,0 -0.1,0 -0.3,0 -0.4,0 -0.2,0 -0.3,0 -0.5,0 -0.2,0 -0.3,-0 -0.5,-0 -0.2,-0 -0.4,-0 -0.5,-0.1 -0.2,-0 -0.4,-0 -0.5,-0.2 -0.2,-0 -0.4,-0.2 -0.6,-0.2 -0.2,-0.1 -0.4,-0.2 -0.5,-0.3 -0.2,-0.1 -0.4,-0.3 -0.6,-0.5 -0.2,-0.2 -0.3,-0.3 -0.5,-0.5 -0.2,-0.2 -0.3,-0.4 -0.4,-0.6 -0.1,-0.2 -0.3,-0.4 -0.4,-0.6 -0.1,-0.2 -0.2,-0.5 -0.3,-0.7 -0.1,-0.2 -0.2,-0.5 -0.3,-0.7 -0.1,-0.3 -0.2,-0.5 -0.3,-0.8 -0,-0.3 -0.2,-0.6 -0.2,-0.9 -0,-0.3 -0.1,-0.6 -0.1,-0.9 -0,-0.3 -0,-0.6 -0,-0.9 0,-0.3 -0,-0.6 -0,-0.9 0,-0.3 0,-0.7 0,-1 0,-0.4 0,-0.7 0,-1.1 0,-0.4 0,-0.8 0,-1.1 0,-0.4 0,-0.8 0,-1.2 0,-0.4 0,-0.8 0.1,-1.2 0,-0.4 0.1,-0.8 0.2,-1.2 0,-0.4 0.1,-0.8 0.2,-1.2 0,-0.4 0.1,-0.8 0.2,-1.2 0,-0.4 0.1,-0.8 0.2,-1.2 0,-0.4 0.1,-0.8 0.2,-1.2 0,-0.4 0.2,-0.8 0.2,-1.2 0,-0.4 0.1,-0.8 0.2,-1.2 0,-0.4 0.1,-0.8 0.2,-1.1 0,-0.4 0.2,-0.7 0.2,-1.1 0,-0.3 0.2,-0.7 0.2,-1 0,-0.3 0.2,-0.7 0.2,-1 0,-0.3 0.2,-0.7 0.3,-1 0,-0.3 0.2,-0.6 0.3,-0.9 0.1,-0.3 0.2,-0.6 0.3,-0.9 0,-0.3 0.2,-0.6 0.3,-0.8 0.1,-0.3 0.2,-0.5 0.3,-0.8 0.1,-0.2 0.2,-0.5 0.3,-0.7 0.1,-0.2 0.2,-0.4 0.3,-0.7 0.6,-1.2 1.7,-2.2 2.7,-3 0.2,-0.1 0.4,-0.2 0.6,-0.3 0.2,-0 0.4,-0.1 0.6,-0.1 0.2,0 0.4,0 0.6,0 0.2,0 0.4,0.1 0.7,0.2 0.2,0.1 0.5,0.2 0.6,0.4 0.2,0.2 0.4,0.4 0.5,0.6 0.2,0.2 0.3,0.5 0.4,0.7 0.1,0.3 0.2,0.6 0.3,0.8 0,0.3 0.1,0.6 0.2,0.9 0,0.3 0,0.7 0,1 0,0.4 0,0.7 0,1.1 0,0.4 -0,0.8 -0,1.2 -0,0.4 -0,0.8 -0.1,1.2 -0,0.4 -0.1,0.8 -0.2,1.3 -0,0.4 -0.2,0.8 -0.3,1.3 -0.1,0.4 -0.3,0.8 -0.4,1.2 -0.1,0.4 -0.3,0.8 -0.5,1.3 -0.2,0.4 -0.4,0.9 -0.5,1.3 -0.2,0.4 -0.4,0.9 -0.6,1.3 -0.2,0.4 -0.5,0.9 -0.7,1.3 -0.3,0.4 -0.5,0.8 -0.8,1.3 -0.3,0.4 -0.6,0.8 -0.8,1.2 -0.3,0.4 -0.6,0.8 -0.9,1.1 -0.3,0.4 -0.6,0.7 -1,1.1 -1,1.2 -2.1,2.2 -3.2,3.3 -0.3,0.3 -0.7,0.7 -1,1 -0.3,0.3 -0.7,0.6 -1,0.9 -0.3,0.3 -0.7,0.6 -1,0.8 -0.3,0.3 -0.6,0.5 -0.9,0.8 -0.3,0.2 -0.6,0.4 -0.8,0.7 -0.2,0.2 -0.5,0.4 -0.7,0.5 -0.2,0.1 -0.4,0.3 -0.6,0.4 -0.2,0.1 -0.3,0.2 -0.5,0.3 l 0.8,-4.3 z"/>
	<path style="overflow:visible; stroke-width:10.35; stroke-linecap:round;" d="m 1227.8,455.6 c 0,0.2 0,0.4 0,0.7 0,0.3 0,0.6 0,0.8 0,0.3 0,0.7 0,1 0,0.3 0,0.7 0,1 0,0.4 0,0.7 0,1.1 0,0.4 0,0.8 0,1.1 0,0.4 0,0.7 0,1.1 0,0.4 0,0.8 0,1.1 0,0.4 0,0.8 0,1.1 0,0.4 0,0.8 0,1.1 0,0.4 0,0.8 0,1.2 0,0.4 0,0.8 0,1.2 0,0.4 0,0.8 0,1.2 0,0.4 0,0.8 0,1.1 0,0.4 0,0.7 0,1.1 0,0.4 0,0.7 0,1.1 0,0.3 0,0.7 0,1 0,0.3 0,0.7 0,1 0,0.3 0,0.7 0,1 0,0.3 0,0.7 0,1 0,0.3 0,0.7 0,1 0,0.3 0,0.6 0,1 0,0.3 0,0.6 0,0.9 0,0.3 0,0.6 0,0.9 0,0.3 0,0.5 0,0.8 0,0.2 0,0.5 0,0.7 0,0.2 0,0.5 0,0.7 0,0.2 0,0.4 0,0.6 0,0.2 0,0.4 0,0.6 0,0.2 0,0.4 0,0.5 0,0.2 0,0.3 0,0.5 0,0.2 0,0.3 0,0.4 0,0.1 0,0.3 0,0.4 0,0 0,0.2 0,0.3 0,0 0,0.2 0,0.3 0,0 0,0.2 0,0.3 0.5,1.6 -3.9,3.3 -4.7,1.7 0,-0.1 0,-0.2 0,-0.3 0,-0.1 0,-0.2 0,-0.3 0,-0.1 0,-0.3 0,-0.4 0,-0.2 0,-0.3 0,-0.5 0,-0.2 0,-0.3 0,-0.5 0,-0.2 0,-0.3 0,-0.5 0,-0.2 0,-0.4 0,-0.5 0,-0.2 0,-0.4 0,-0.5 0,-0.2 0,-0.4 0,-0.6 0,-0.2 0,-0.4 0,-0.6 0,-0.2 0,-0.4 0.2,-0.6 0,-0.2 0,-0.4 0.2,-0.6 0,-0.2 0.2,-0.5 0.2,-0.7 0,-0.2 0.2,-0.5 0.2,-0.7 0,-0.2 0.2,-0.5 0.2,-0.7 0,-0.2 0.2,-0.5 0.2,-0.7 0,-0.2 0.2,-0.5 0.2,-0.7 0,-0.2 0.2,-0.5 0.2,-0.7 0,-0.2 0.2,-0.5 0.3,-0.7 0.2,-0.2 0.2,-0.5 0.4,-0.7 0.2,-0.2 0.2,-0.4 0.4,-0.7 0.2,-0.2 0.3,-0.4 0.4,-0.6 0.9,-1.3 2,-2.2 3.1,-3.4 0.2,-0.2 0.4,-0.4 0.6,-0.5 0.2,-0.1 0.4,-0.3 0.6,-0.4 0.2,-0.1 0.5,-0.2 0.7,-0.3 0.2,-0.1 0.4,-0.2 0.7,-0.2 0.2,-0 0.5,-0.1 0.7,-0.1 0.2,-0 0.5,-0 0.7,-0 0.2,-0 0.4,-0 0.7,0 0.2,0 0.4,0 0.7,0 0.2,0 0.4,0 0.7,0.1 0.2,0 0.4,0.1 0.7,0.2 0.2,0 0.4,0.2 0.6,0.3 0.2,0.1 0.4,0.2 0.6,0.4 0.2,0.1 0.4,0.3 0.6,0.4 0.2,0.1 0.3,0.3 0.5,0.4 0.2,0.2 0.3,0.3 0.5,0.5 0.2,0.2 0.3,0.3 0.4,0.5 0.2,0.2 0.3,0.4 0.4,0.6 0.2,0.2 0.2,0.4 0.4,0.6 0.2,0.2 0.2,0.4 0.3,0.6 0,0.2 0.2,0.4 0.3,0.6 0,0.2 0.2,0.4 0.2,0.6 0,0.2 0.2,0.4 0.2,0.6 0,0.2 0.2,0.4 0.2,0.6 0,0.2 0,0.4 0.2,0.7 0,0.2 0,0.4 0,0.6 0,0.2 0,0.4 0,0.6 0,0.2 0,0.4 0,0.6 0,0.2 0,0.4 0,0.6 0,0.2 0,0.3 0,0.5 0,0.2 0,0.4 0,0.5 0,0.2 0,0.4 0,0.5 0,0.2 0,0.3 0,0.5 0,0.2 0,0.3 0,0.5 0,0.2 0,0.3 0,0.5 0,0.2 0,0.3 0,0.5 0,0.1 0,0.3 0,0.4 0,0.1 0,0.3 0,0.4 0,0.1 0,0.3 0,0.4 0,0.1 0,0.3 0,0.4 0,0.1 0,0.2 0,0.3 0,0.1 0,0.2 0,0.3 0,0 0,0.2 0,0.3 0,0.1 0,0.2 0,0.3 0,0 0,0.2 0,0.3 0,0 0,0.2 0,0.2 0,0.1 0,0 0,-0 l -4.1,3 c 0,-0.1 -0.2,-0.2 -0.2,-0.4 0,-0 0,-0.2 0,-0.3 0,-0.1 0,-0.2 0,-0.3 0,-0.1 0,-0.2 0,-0.3 0,-0.1 0,-0.3 0,-0.4 0,-0.1 0,-0.2 0,-0.3 0,-0.1 0,-0.2 0,-0.4 0,-0.1 0,-0.3 0,-0.4 0,-0.2 0,-0.3 0,-0.4 0,-0.2 0,-0.3 0,-0.4 0,-0.2 0,-0.3 0,-0.5 0,-0.2 0,-0.3 0,-0.5 0,-0.2 0,-0.3 0,-0.5 0,-0.2 0,-0.3 0,-0.5 0,-0.2 0,-0.3 0,-0.5 0,-0.2 0,-0.3 0,-0.5 0,-0.2 0,-0.3 0,-0.5 0,-0.2 0,-0.3 0,-0.5 0,-0.2 0,-0.3 0,-0.5 0,-0.2 0,-0.4 0,-0.6 0,-0.2 0,-0.4 0,-0.6 0,-0.2 0,-0.4 0,-0.5 0,-0.2 0,-0.3 0,-0.5 0,-0.2 0,-0.4 0,-0.5 0,-0.2 0,-0.3 -0.2,-0.5 0,-0.2 0,-0.3 -0.2,-0.5 0,-0.2 -0.2,-0.3 -0.2,-0.5 0,-0.2 -0.2,-0.3 -0.2,-0.4 0,-0.1 -0.2,-0.3 -0.2,-0.4 0,-0.1 -0.2,-0.3 -0.3,-0.4 0,-0.1 -0.2,-0.3 -0.3,-0.4 -0.2,-0.1 -0.2,-0.2 -0.3,-0.3 -0.2,-0.1 -0.2,-0.2 -0.3,-0.3 -0.2,-0 -0.2,-0.2 -0.4,-0.3 -0.2,-0 -0.3,-0.1 -0.4,-0.2 -0.2,-0 -0.3,-0.1 -0.4,-0.1 -0.2,-0 -0.3,-0 -0.4,-0 -0.2,0 -0.3,0 -0.4,0 -0.2,0 -0.3,0 -0.4,0 -0.2,0 -0.3,0 -0.4,0.1 -0.2,0 -0.3,0 -0.5,0.1 -0.2,0 -0.3,0.1 -0.4,0.2 -0.2,0 -0.3,0.2 -0.4,0.3 -0.2,0.1 -0.3,0.2 -0.4,0.3 -0.2,0.1 -0.3,0.3 -0.4,0.4 -0.2,0.2 -0.3,0.3 -0.4,0.5 4.3,-4.6 3.1,-3.2 2.1,-2.3 -0.2,0.2 -0.3,0.3 -0.4,0.5 -0.2,0.2 -0.3,0.4 -0.4,0.5 -0.2,0.2 -0.3,0.4 -0.4,0.5 -0.2,0.2 -0.2,0.4 -0.3,0.5 -0.2,0.2 -0.2,0.4 -0.3,0.6 0,0.2 -0.2,0.4 -0.3,0.6 0,0.2 -0.2,0.4 -0.2,0.7 0,0.2 -0.2,0.5 -0.2,0.7 0,0.2 -0.2,0.4 -0.2,0.7 0,0.2 -0.2,0.4 -0.2,0.6 0,0.2 0,0.4 -0.2,0.6 0,0.2 -0.2,0.4 -0.2,0.6 0,0.2 0,0.3 -0.2,0.5 0,0.2 0,0.3 0,0.5 0,0.2 0,0.3 0,0.5 0,0.2 0,0.3 0,0.5 0,0.2 0,0.3 0,0.5 0,0.2 0,0.3 0,0.5 0,0.1 0,0.3 0,0.4 0,0.1 0,0.2 0,0.4 0,0 0,0.2 0,0.3 0,0 0,0.1 0,0.2 -0.5,1.8 -5.4,0.8 -4.6,2.3 0,0 0,0 0,0.1 0,-0 0,-0 0,-0.1 0,-0.1 0,-0.2 0,-0.3 0,-0.1 0,-0.3 0,-0.4 0,-0.2 0,-0.3 0,-0.4 0,-0.2 0,-0.3 0,-0.5 0,-0.2 0,-0.4 0,-0.5 0,-0.2 0,-0.4 0,-0.6 0,-0.2 0,-0.4 0,-0.7 0,-0.2 0,-0.5 0,-0.7 0,-0.3 0,-0.5 0,-0.8 0,-0.3 0,-0.5 0,-0.8 0,-0.3 0,-0.6 0,-0.9 0,-0.3 0,-0.6 0.2,-0.9 0,-0.3 0,-0.6 0,-1 0,-0.3 0,-0.7 0,-1 0,-0.3 0,-0.7 0,-1 0,-0.3 0,-0.7 0,-1 0,-0.3 0,-0.7 0,-1 0,-0.3 0,-0.7 0.2,-1 0,-0.4 0,-0.7 0,-1.1 0,-0.4 0,-0.7 0,-1.1 0,-0.4 0,-0.7 0,-1.1 0,-0.4 0,-0.8 0,-1.2 0,-0.4 0,-0.8 0,-1.1 0,-0.4 0,-0.7 0,-1.1 0,-0.4 0,-0.7 0,-1.1 0,-0.4 0,-0.7 0,-1.1 0,-0.4 0,-0.8 0,-1.1 0,-0.4 0,-0.8 0,-1.1 0,-0.4 0,-0.7 0,-1.1 0,-0.4 0,-0.7 0,-1.1 0,-0.3 0,-0.7 0,-1 0,-0.3 0,-0.6 0,-1 0,-0.3 0,-0.5 0,-0.8 0,-0.2 0,-0.4 0,-0.6 l 4.5,-2.3 z"/>
	<path style="overflow:visible; stroke-width:10.35; stroke-linecap:round;" d="m 1148.3,567.4 c -0.2,0.1 -0.2,0.2 -0.3,0.3 -0.2,0.2 -0.2,0.3 -0.3,0.5 -0.2,0.2 -0.2,0.4 -0.3,0.6 -0.2,0.2 -0.2,0.5 -0.4,0.8 -0.2,0.3 -0.2,0.6 -0.3,0.8 -0.2,0.3 -0.2,0.6 -0.3,0.9 -0.2,0.3 -0.2,0.6 -0.3,0.9 0,0.3 -0.2,0.6 -0.3,0.9 0,0.3 -0.2,0.6 -0.2,1 -0.2,0.3 -0.2,0.7 -0.2,1 0,0.3 -0.2,0.7 -0.2,1 0,0.3 0,0.7 -0.2,1 0,0.3 0,0.6 0,1 0,0.3 0,0.6 0,0.9 0,0.3 0,0.6 0.2,0.9 0,0.3 0,0.5 0.2,0.8 0,0.2 0,0.5 0.2,0.7 0,0.2 0.2,0.4 0.2,0.6 0,0.2 0.2,0.3 0.2,0.4 0,0.1 0.2,0.2 0.2,0.3 0,0.1 0.2,0.2 0.3,0.3 0,0 0.2,0.1 0.2,0.2 0,0 0.2,0 0.2,0.1 0,0 0.2,0 0.2,-0 0,0 0.2,-0 0.3,-0 0.2,-0 0.2,-0 0.3,-0.1 0.2,-0 0.2,-0.1 0.3,-0.2 0.2,-0 0.2,-0.1 0.3,-0.2 0,-0 0.2,-0.2 0.2,-0.3 0,-0.1 0.2,-0.2 0.2,-0.3 1,-1.5 -3.4,3.4 -2.4,2.4 0.2,-0.1 0.2,-0.2 0.3,-0.4 0.2,-0.1 0.2,-0.2 0.3,-0.4 0.2,-0.1 0.2,-0.3 0.3,-0.4 0.2,-0.2 0.2,-0.3 0.3,-0.5 0,-0.2 0.2,-0.3 0.3,-0.5 0.2,-0.2 0.2,-0.4 0.3,-0.6 0.2,-0.2 0.2,-0.4 0.3,-0.6 0.2,-0.2 0.2,-0.4 0.2,-0.6 0,-0.2 0.2,-0.4 0.2,-0.6 0,-0.2 0.2,-0.4 0.2,-0.6 0,-0.2 0.2,-0.4 0.2,-0.6 0,-0.2 0.2,-0.4 0.2,-0.6 0,-0.2 0.2,-0.3 0.2,-0.5 0,-0.2 0,-0.3 0.2,-0.5 0,-0.1 0,-0.3 0.2,-0.4 0,-0.1 0,-0.3 0.2,-0.4 0,-0.1 0,-0.2 0.2,-0.3 0,-0.1 0,-0.2 0,-0.3 0,-0 0,-0.2 0,-0.3 0,-0 0,-0.2 0,-0.2 0,-0 0,-0.2 0,-0.2 0,-0 0,-0.1 0,-0.2 0,-0.1 0,-0.2 0,-0.3 -0.5,-1.8 4.1,-3.1 4.8,-1.4 0,0.1 0,0.3 0,0.4 0,0.1 0,0.2 0,0.3 0,0.1 0,0.2 0,0.3 0,0.1 0,0.2 0,0.4 0,0.1 0,0.3 0,0.4 0,0.1 0,0.3 0,0.4 0,0.1 0,0.3 0,0.4 0,0.2 0,0.3 0,0.5 0,0.2 0,0.3 0,0.5 0,0.2 0,0.3 0,0.5 0,0.2 0,0.3 0,0.5 0,0.2 0,0.3 0,0.5 0,0.2 0,0.3 0,0.4 0,0.1 0,0.3 0,0.4 0,0.1 0,0.3 0,0.4 0,0.1 0,0.3 0,0.4 0,0.1 0,0.3 0.2,0.4 0,0.1 0,0.3 0.2,0.4 0,0.1 0.2,0.2 0.2,0.4 0,0.1 0.2,0.3 0.2,0.4 0,0.1 0.2,0.2 0.3,0.4 0,0.1 0.2,0.2 0.3,0.3 0,0.1 0.2,0.2 0.3,0.3 0.2,0 0.2,0.2 0.3,0.3 0,0 0.2,0.2 0.3,0.2 0,0 0.2,0.1 0.3,0.2 0.2,0 0.2,0.1 0.3,0.2 0,0 0.2,0.1 0.3,0.2 0.2,0 0.2,0.1 0.3,0.2 0,0 0.2,0 0.3,0.1 0,0 0.2,0 0.2,0 0,0 0.2,0 0.2,0 0,0 0.2,0 0.2,-0 0,-0 0.2,-0 0.2,-0 0.2,0 0.2,-0 0.3,-0 0,-0 0.2,-0 0.2,-0 0,-0 0,-0 0,-0.2 0,-0 0,-0.1 0,-0.2 0,-0.1 0,-0.2 0,-0.3 -6.2,4.6 -3.1,3.4 -2.3,2.4 0.2,-0 0.2,-0.2 0.3,-0.3 0.2,-0 0.2,-0.2 0.3,-0.3 0,-0.1 0.2,-0.2 0.3,-0.4 0.2,-0.1 0.2,-0.2 0.2,-0.4 0,-0.1 0.2,-0.3 0.2,-0.4 0,-0.1 0.2,-0.3 0.2,-0.4 0,-0.2 0.2,-0.3 0.2,-0.5 0,-0.2 0.2,-0.3 0.2,-0.4 0,-0.1 0.2,-0.3 0.2,-0.4 0,-0.2 0,-0.3 0,-0.5 0,-0.2 0,-0.3 0,-0.5 0,-0.2 0,-0.3 0,-0.5 0,-0.2 0,-0.4 0,-0.6 0,-0.2 0,-0.4 0,-0.6 0,-0.2 0,-0.4 0,-0.5 0,-0.2 0,-0.4 0,-0.6 0,-0.2 0,-0.4 0,-0.6 0,-0.2 0,-0.4 0,-0.6 0,-0.2 0,-0.4 0,-0.6 0,-0.2 0,-0.4 0,-0.6 0,-0.2 0,-0.4 0,-0.6 0,-0.2 0,-0.4 0,-0.6 0,-0.2 0,-0.4 0,-0.5 0,-0.2 0,-0.4 -0.2,-0.5 0,-0.2 0,-0.3 -0.2,-0.5 0,-0.2 0,-0.3 0,-0.5 0,-0.2 0,-0.3 -0.2,-0.5 0,-0.2 0,-0.3 -0.2,-0.5 0,-0.2 0,-0.3 -0.2,-0.5 0,-0.1 0,-0.3 -0.2,-0.4 0,-0.1 0,-0.3 -0.2,-0.4 0,-0.1 0,-0.3 -0.2,-0.4 0,-0.1 0,-0.2 -0.2,-0.4 0,-0.1 0,-0.2 -0.2,-0.4 0,-0.1 0,-0.2 -0.2,-0.3 0,-0.1 0,-0.2 0,-0.3 0,-0 0,-0.2 0,-0.3 0,-0 0,-0.2 0,-0.2 0,0 0,-0 0,-0 l 4.3,-2.7 c 0,0 0,0 0,0 0,0 0,0.2 0,0.2 0,0 0,0.2 0,0.3 0,0.1 0,0.2 0,0.3 0,0.1 0,0.2 0,0.3 0,0.1 0,0.2 0.2,0.3 0,0.1 0,0.3 0.2,0.4 0,0.1 0,0.3 0.2,0.4 0,0.1 0,0.3 0.2,0.4 0,0.2 0,0.3 0.2,0.5 0,0.2 0,0.3 0.2,0.5 0,0.2 0.2,0.3 0.2,0.5 0,0.2 0,0.3 0.2,0.5 0,0.2 0,0.4 0.2,0.5 0,0.2 0,0.4 0.2,0.5 0,0.2 0,0.4 0.2,0.6 0,0.2 0,0.4 0.2,0.6 0,0.2 0,0.4 0,0.6 0,0.2 0,0.4 0,0.6 0,0.2 0,0.4 0,0.6 0,0.2 0,0.4 0,0.6 0,0.2 0,0.4 0,0.6 0,0.2 0,0.4 0,0.6 0,0.2 0,0.4 0,0.6 0,0.2 0,0.4 0,0.6 0,0.2 0,0.4 0,0.6 0,0.2 0,0.4 0,0.6 0,0.2 0,0.4 0,0.6 0,0.2 0,0.4 0,0.6 0,0.2 0,0.4 0,0.6 0,0.2 0,0.4 0,0.6 0,0.2 0,0.4 -0.2,0.6 0,0.2 -0.2,0.4 -0.2,0.5 0,0.2 -0.2,0.4 -0.2,0.5 0,0.2 -0.2,0.3 -0.2,0.5 0,0.2 -0.2,0.4 -0.2,0.5 0,0.2 -0.2,0.3 -0.2,0.5 0,0.2 -0.2,0.3 -0.2,0.5 0,0.2 -0.2,0.3 -0.3,0.4 -1,1 -1.3,3.4 -3.1,3.2 -0.2,0.1 -0.3,0.2 -0.5,0.2 -0.2,0 -0.3,0 -0.5,0.1 -0.2,0 -0.3,0 -0.5,0 -0.2,0 -0.2,0 -0.4,0 -0.2,0 -0.2,0 -0.3,0 -0.2,0 -0.3,-0 -0.5,-0 -0.2,-0 -0.3,-0 -0.5,-0.1 -0.2,-0 -0.3,-0 -0.4,-0.1 -0.2,-0 -0.3,-0.2 -0.5,-0.2 -0.2,-0 -0.2,-0.1 -0.4,-0.2 -0.2,-0 -0.2,-0.1 -0.3,-0.2 -0.2,-0 -0.3,-0.2 -0.4,-0.2 -0.2,-0 -0.2,-0.2 -0.3,-0.3 -0.2,-0 -0.2,-0.2 -0.3,-0.3 -0.2,-0.1 -0.2,-0.2 -0.3,-0.3 -0.2,-0.1 -0.2,-0.2 -0.4,-0.3 -0.2,-0.1 -0.2,-0.3 -0.4,-0.4 -0.2,-0.1 -0.2,-0.3 -0.4,-0.4 -0.2,-0.2 -0.2,-0.3 -0.3,-0.5 -0.2,-0.2 -0.2,-0.3 -0.3,-0.5 -0.2,-0.2 -0.2,-0.4 -0.3,-0.5 -0.2,-0.2 -0.2,-0.3 -0.3,-0.5 0,-0.2 -0.2,-0.4 -0.2,-0.5 0,-0.2 -0.2,-0.4 -0.2,-0.5 0,-0.2 -0.2,-0.4 -0.2,-0.5 0,-0.2 0,-0.4 -0.2,-0.5 0,-0.2 0,-0.4 0,-0.5 0,-0.2 0,-0.4 0,-0.5 0,-0.2 0,-0.4 0,-0.5 0,-0.2 0,-0.4 0,-0.6 0,-0.2 0,-0.4 0,-0.6 0,-0.2 0,-0.3 0,-0.5 0,-0.2 0,-0.3 0,-0.5 0,-0.2 0,-0.3 0,-0.4 0,-0.1 0,-0.3 0,-0.4 0,-0.1 0,-0.2 0,-0.4 0,-0.1 0,-0.2 0,-0.3 0,-0 0,-0.2 0,-0.3 0,-0 0,-0.1 0.2,-0.1 1.1,-1.4 5.4,-0.2 4.7,-2 0,0 0,-0 -0.2,-0 0,0 0,0.1 0,0.2 0,0 0,0.2 0,0.2 0,0 0,0.2 0,0.2 0,0 0,0.2 -0.2,0.3 0,0.1 0,0.2 -0.2,0.3 0,0.1 0,0.2 -0.2,0.3 0,0.1 0,0.3 -0.2,0.4 0,0.1 -0.2,0.3 -0.2,0.4 0,0.2 -0.2,0.3 -0.2,0.5 0,0.2 -0.2,0.3 -0.2,0.5 0,0.2 -0.2,0.4 -0.2,0.6 0,0.2 -0.2,0.4 -0.2,0.6 0,0.2 -0.2,0.4 -0.2,0.7 0,0.2 -0.2,0.4 -0.2,0.7 0,0.2 -0.2,0.4 -0.2,0.7 0,0.2 -0.2,0.4 -0.2,0.6 0,0.2 -0.2,0.4 -0.3,0.6 0,0.2 -0.2,0.4 -0.3,0.6 -0.2,0.2 -0.2,0.4 -0.3,0.6 0,0.2 -0.2,0.4 -0.3,0.6 0,0.2 -0.2,0.4 -0.3,0.5 -0.2,0.2 -0.2,0.4 -0.4,0.5 -1,1.2 -1.9,2.4 -3.2,3.2 -0.2,0.1 -0.3,0.2 -0.5,0.3 -0.2,0 -0.4,0.2 -0.6,0.2 -0.2,0 -0.4,0.1 -0.6,0.1 -0.2,0 -0.4,0 -0.6,0 -0.2,0 -0.4,0 -0.7,-0 -0.2,-0 -0.4,-0 -0.7,-0.1 -0.2,-0 -0.5,-0.2 -0.7,-0.3 -0.2,-0.1 -0.4,-0.2 -0.6,-0.4 -0.2,-0.1 -0.3,-0.3 -0.5,-0.4 -0.2,-0.2 -0.3,-0.3 -0.5,-0.5 -0.2,-0.2 -0.3,-0.4 -0.4,-0.6 -0.2,-0.2 -0.3,-0.5 -0.3,-0.7 -0.2,-0.2 -0.2,-0.5 -0.3,-0.7 -0.2,-0.3 -0.2,-0.6 -0.2,-0.9 0,-0.3 -0.2,-0.6 -0.2,-0.9 0,-0.3 -0.2,-0.7 -0.2,-1 0,-0.4 0,-0.7 0,-1.1 0,-0.4 0,-0.7 0,-1.1 0,-0.4 0,-0.7 0,-1.1 0,-0.4 0,-0.7 0.2,-1.1 0,-0.4 0.2,-0.7 0.2,-1.1 0,-0.3 0.2,-0.7 0.2,-1 0,-0.3 0.2,-0.7 0.2,-1 0,-0.3 0.2,-0.7 0.3,-1 0.2,-0.3 0.2,-0.6 0.3,-0.9 0,-0.3 0.2,-0.6 0.3,-0.9 0.2,-0.3 0.2,-0.6 0.3,-0.9 0,-0.3 0.2,-0.5 0.3,-0.8 0.2,-0.2 0.2,-0.4 0.3,-0.6 0,-0.2 0.2,-0.4 0.3,-0.5 l 5,-0.8 z"/>
</g>
</svg>