<?xml version="1.0" encoding="UTF-8" standalone="no"?>
<!-- Copyright 2017 mathsisfun.com -->

<svg
   width="525.092"
   height="138.422"
   version="1.1"
   id="svg463"
   sodipodi:docname="completing-square-simplify.svg"
   inkscape:version="1.1 (c68e22c387, 2021-05-23)"
   xmlns:inkscape="http://www.inkscape.org/namespaces/inkscape"
   xmlns:sodipodi="http://sodipodi.sourceforge.net/DTD/sodipodi-0.dtd"
   xmlns="http://www.w3.org/2000/svg"
   xmlns:svg="http://www.w3.org/2000/svg">
  <sodipodi:namedview
     id="namedview465"
     pagecolor="#ffffff"
     bordercolor="#666666"
     borderopacity="1.0"
     inkscape:pageshadow="2"
     inkscape:pageopacity="0.0"
     inkscape:pagecheckerboard="0"
     showgrid="false"
     inkscape:current-layer="svg463"
     inkscape:snap-global="false" />
  <defs
     id="defs5">
    <marker
       id="id1"
       style="overflow:visible"
       orient="auto">
      <path
         transform="matrix(-0.4,0,0,-0.4,-4,0)"
         style="fill:#eec73e;stroke:#eec73e;stroke-width:1pt"
         d="M 0,0 5,-5 -12.5,0 5,5 Z"
         id="path2" />
    </marker>
  </defs>
  <text
     x="198.075"
     y="35.674"
     style="font-size:29.925px;font-family:'Trebuchet MS';overflow:visible;fill:#3465a4;stroke-width:0.55px"
     id="text61">+ 7</text>
  <text
     x="18.1754"
     y="27.5475"
     transform="scale(1.02366,0.976887)"
     style="font-size:21px;font-family:'Trebuchet MS';overflow:visible;fill:#3465a4;stroke-width:0.55px"
     id="text73">2</text>
  <text
     x="247.875"
     y="36.8231"
     style="font-size:29.925px;font-family:'Trebuchet MS';overflow:visible;fill:#fdca01;stroke-width:0.55px"
     id="text89">−</text>
  <path
     style="overflow:visible;fill:#0197fd;stroke-width:2.83"
     d="m 2.625,64.9991 c 0.15,0.225 0.225,0.45 0.3,0.75 0.15,0.375 0.3,0.675 0.45,0.975 0.225,0.375 0.375,0.825 0.6,1.2 0.225,0.45 0.525,0.825 0.825,1.275 0.375,0.4499 0.75,0.8249 1.125,1.1999 0.45,0.4501 0.975,0.8251 1.5,1.2001 0.6,0.375 1.2,0.6749 1.875,0.9749 0.675,0.3001 1.425,0.5251 2.175,0.825 0.825,0.225 1.5746,0.45 2.3996,0.675 0.825,0.225 1.725,0.375 2.625,0.5251 0.9,0.15 1.725,0.2999 2.625,0.375 0.9,0.15 1.8,0.2249 2.625,0.2999 0.9,0.075 1.8,0.1501 2.775,0.1501 0.975,0.075 1.875,0.075 2.85,0.075 0.975,0 1.95,0 2.925,0.075 0.975,0 2.025,0 3,0 1.05,0 2.025,-0.075 3.075,-0.075 1.05,-0.075 2.025,-0.075 3.075,-0.15 1.05,-0.075 2.025,-0.1501 3.075,-0.225 1.05,-0.075 2.025,-0.2251 3.075,-0.3001 1.05,-0.15 2.025,-0.2249 3.075,-0.375 0.975,-0.15 2.025,-0.2249 3,-0.375 0.975,-0.075 1.95,-0.2249 2.925,-0.3 0.975,-0.075 1.875,-0.225 2.85,-0.3 0.9,-0.075 1.8,-0.15 2.7,-0.225 0.825,-0.075 1.725,-0.075 2.55,-0.15 0.825,0 1.575,-0.075 2.4,-0.075 0.75,0 1.5,0 2.325,0.075 0.675,0 1.425,0.075 2.1,0.075 0.675,0.075 1.35,0.075 1.95,0.15 0.6,0.075 1.275,0.225 1.875,0.3 0.6,0.15 1.125,0.225 1.725,0.375 0.525,0.15 1.05,0.225 1.575,0.45 0.525,0.15 1.05,0.375 1.5,0.675 0.45,0.225 0.9,0.45 1.275,0.75 0.45,0.225 0.825,0.45 1.2,0.75 0.375,0.3 0.75,0.525 1.125,0.825 0.3,0.3 0.675,0.525 0.975,0.825 0.3,0.3 0.6,0.525 0.9,0.825 0.3,0.3 0.525,0.525 0.75,0.825 0.225,0.3 0.45,0.525 0.675,0.825 0.225,0.3 0.45,0.525 0.6,0.825 0.225,0.3 0.375,0.525 0.525,0.825 0.15,0.3 0.3,0.525 0.45,0.825 0.15,0.225 0.225,0.525 0.375,0.75 0.08,0.225 0.225,0.45 0.3,0.675 0.07,0.225 0.15,0.375 0.3,0.6 0.07,0.15 0.15,0.375 0.225,0.525 0.07,0.15 0.15,0.3 0.225,0.45 0.07,0.15 0.15,0.3 0.225,0.45 l -2.625,1.725 c -0.07,-0.15 -0.15,-0.3 -0.15,-0.375 -0.07,-0.15 -0.15,-0.3 -0.225,-0.45 -0.07,-0.15 -0.15,-0.375 -0.225,-0.525 -0.07,-0.225 -0.15,-0.375 -0.225,-0.6 -0.08,-0.225 -0.225,-0.45 -0.3,-0.675 -0.15,-0.225 -0.225,-0.525 -0.3,-0.75 -0.15,-0.225 -0.225,-0.525 -0.375,-0.75 -0.15,-0.3 -0.3,-0.525 -0.45,-0.825 -0.15,-0.3 -0.375,-0.525 -0.525,-0.75 -0.225,-0.3 -0.375,-0.525 -0.6,-0.75 -0.225,-0.3 -0.45,-0.525 -0.675,-0.75 -0.225,-0.3 -0.525,-0.525 -0.825,-0.75 -0.3,-0.3 -0.6,-0.525 -0.9,-0.825 -0.3,-0.3 -0.675,-0.525 -1.05,-0.75 -0.375,-0.225 -0.75,-0.45 -1.125,-0.675 -0.375,-0.225 -0.825,-0.45 -1.2,-0.675 -0.45,-0.225 -0.9,-0.375 -1.35,-0.525 -0.525,-0.15 -0.975,-0.3 -1.5,-0.375 -0.525,-0.15 -1.125,-0.225 -1.65,-0.375 -0.6,-0.15 -1.2,-0.225 -1.8,-0.3 -0.675,-0.075 -1.275,-0.15 -1.875,-0.15 -0.675,-0.075 -1.35,-0.075 -2.1,-0.15 -0.75,0 -1.5,0 -2.25,0 -0.825,0 -1.575,0.075 -2.4,0.075 -0.825,0.075 -1.65,0.075 -2.55,0.15 -0.9,0.075 -1.8,0.15 -2.7,0.225 -0.975,0.075 -1.875,0.15 -2.775,0.3 -0.975,0.075 -1.95,0.225 -2.925,0.3 -0.975,0.15 -1.95,0.225 -3,0.375 -1.05,0.15 -2.025,0.225 -3.075,0.375 -1.05,0.15 -2.1,0.225 -3.075,0.3 -1.05,0.08 -2.1,0.15 -3.075,0.225 -1.05,0.08 -2.1,0.15 -3.15,0.15 -1.05,0.08 -2.025,0.08 -3.075,0.08 -0.975,0 -2.025,0 -3,0 -0.975,0 -1.95,0 -2.925,-0.08 -0.975,0 -1.95,-0.08 -2.925,-0.08 -0.975,0 -1.875,-0.08 -2.85,-0.225 -0.9,-0.08 -1.8,-0.225 -2.7,-0.3 -0.9,-0.15 -1.8,-0.3 -2.7,-0.45 -0.9,-0.15 -1.8,-0.375 -2.6996,-0.6 -0.825,-0.225 -1.65,-0.45 -2.475,-0.675 -0.75,-0.225 -1.575,-0.525 -2.325,-0.9 -0.75,-0.3 -1.425,-0.675 -2.1,-1.125 -0.6,-0.375 -1.125,-0.825 -1.65,-1.275 -0.45,-0.45 -0.9,-0.9 -1.275,-1.35 -0.375,-0.45 -0.675,-0.9 -0.975,-1.35 C 1.35,69.419 1.05,68.969 0.825,68.519 0.675,68.219 0.45,67.844 0.3,67.544 0.15,67.319 0.075,67.094 0,66.869 Z"
     id="path91" />
  <path
     style="overflow:visible;fill:#0197fd;stroke-width:2.83"
     d="m 170.475,65.5991 c -0.15,0.225 -0.225,0.45 -0.3,0.75 -0.15,0.375 -0.3,0.675 -0.45,0.975 -0.225,0.375 -0.375,0.8249 -0.6,1.1999 -0.225,0.4501 -0.525,0.8251 -0.825,1.2751 -0.375,0.45 -0.75,0.825 -1.125,1.2 -0.45,0.4499 -0.975,0.8249 -1.5,1.1999 -0.6,0.375 -1.2,0.6751 -1.875,0.975 -0.75,0.3001 -1.425,0.525 -2.175,0.825 -0.825,0.225 -1.575,0.45 -2.4,0.675 -0.825,0.225 -1.725,0.375 -2.625,0.525 -0.9,0.1501 -1.725,0.3001 -2.625,0.375 -0.9,0.1501 -1.8,0.225 -2.625,0.3001 -0.9,0.075 -1.8,0.1499 -2.775,0.1499 -0.975,0 -1.875,0.075 -2.85,0.075 -0.975,0 -1.95,0 -2.925,0.075 -0.975,0 -2.025,0 -3,0 -1.05,0 -2.025,-0.075 -3.075,-0.075 -1.05,0 -2.025,-0.075 -3.075,-0.1501 -1.05,-0.075 -2.025,-0.15 -3.075,-0.2249 -1.05,-0.075 -2.025,-0.225 -3.075,-0.375 -1.05,-0.1501 -2.025,-0.225 -3.075,-0.375 -0.975,-0.1501 -2.025,-0.225 -3,-0.375 -0.975,-0.075 -1.95,-0.225 -2.925,-0.3001 -0.975,-0.075 -1.875,-0.225 -2.85,-0.3 -0.9,-0.075 -1.8,-0.15 -2.7,-0.225 -0.825,-0.075 -1.725,-0.075 -2.55,-0.15 -0.825,0 -1.575,-0.075 -2.4,-0.075 -0.75,0 -1.5,0 -2.325,0 -0.675,0.075 -1.425,0.075 -2.1,0.15 -0.675,0 -1.35,0.075 -1.95,0.1501 -0.6,0.075 -1.275,0.2249 -1.8754,0.2999 -0.6,0.1501 -1.125,0.2251 -1.725,0.375 -0.525,0.1501 -1.05,0.3001 -1.575,0.4501 -0.525,0.15 -1.05,0.375 -1.5,0.6749 -0.45,0.2251 -0.9,0.4501 -1.275,0.75 -0.375,0.2251 -0.825,0.4501 -1.2,0.7501 -0.375,0.225 -0.75,0.525 -1.125,0.825 -0.375,0.3 -0.675,0.525 -0.975,0.825 -0.3,0.3 -0.6,0.525 -0.9,0.825 -0.3,0.3 -0.525,0.525 -0.75,0.825 -0.225,0.3 -0.45,0.525 -0.675,0.825 -0.225,0.3 -0.45,0.525 -0.6,0.825 -0.225,0.3 -0.375,0.525 -0.525,0.825 -0.15,0.3 -0.3,0.525 -0.45,0.825 -0.15,0.225 -0.225,0.525 -0.375,0.75 -0.08,0.225 -0.225,0.45 -0.3,0.675 -0.07,0.225 -0.15,0.375 -0.3,0.6 -0.07,0.15 -0.15,0.375 -0.225,0.525 -0.07,0.15 -0.15,0.3 -0.225,0.45 -0.07,0.15 -0.15,0.3 -0.225,0.45 l 2.625,1.725 c 0.07,-0.15 0.15,-0.3 0.15,-0.375 0.07,-0.15 0.15,-0.3 0.225,-0.45 0.07,-0.15 0.15,-0.375 0.225,-0.525 0.07,-0.225 0.15,-0.375 0.3,-0.6 0.07,-0.225 0.225,-0.45 0.3,-0.675 0.08,-0.225 0.225,-0.525 0.3,-0.75 0.15,-0.225 0.225,-0.525 0.375,-0.75 0.15,-0.3 0.3,-0.525 0.45,-0.75 0.15,-0.3 0.375,-0.525 0.525,-0.75 0.225,-0.3 0.375,-0.525 0.6,-0.75 0.225,-0.3 0.45,-0.525 0.675,-0.825 0.3,-0.3 0.525,-0.525 0.825,-0.75 0.3,-0.3 0.6,-0.525 0.9,-0.825 0.3,-0.3 0.675,-0.525 1.05,-0.75 0.375,-0.225 0.75,-0.45 1.125,-0.675 0.45,-0.225 0.825,-0.45 1.275,-0.675 0.45,-0.225 0.825,-0.375 1.35,-0.525 0.525,-0.15 0.975,-0.3 1.5,-0.375 0.5254,-0.15 1.1254,-0.2251 1.6504,-0.3751 0.6,-0.075 1.2,-0.225 1.8,-0.3 0.6,-0.075 1.275,-0.15 1.875,-0.15 0.675,-0.075 1.35,-0.075 2.1,-0.075 0.75,0 1.5,-0.075 2.25,0 0.825,0 1.575,0.075 2.4,0.075 0.825,0 1.65,0.075 2.55,0.15 0.9,0.075 1.8,0.075 2.7,0.225 0.975,0.075 1.875,0.15 2.775,0.3001 0.975,0.08 1.95,0.225 2.925,0.3 0.975,0.08 1.95,0.225 3,0.375 1.05,0.15 2.025,0.225 3.075,0.375 1.05,0.15 2.1,0.225 3.075,0.3 1.05,0.08 2.1,0.15 3.075,0.225 1.05,0.07 2.1,0.07 3.075,0.15 1.05,0 2.025,0.08 3.075,0.08 0.975,0 2.025,0 3,0 0.975,0 1.95,0 2.925,0 0.975,0 1.95,-0.08 2.925,-0.08 0.975,-0.08 1.875,-0.08 2.775,-0.225 0.9,-0.08 1.8,-0.225 2.7,-0.3 0.9,-0.15 1.8,-0.3 2.7,-0.45 0.9,-0.15 1.8,-0.375 2.7,-0.6 0.825,-0.2251 1.65,-0.4501 2.475,-0.7501 0.75,-0.225 1.575,-0.525 2.325,-0.9 0.75,-0.3 1.425,-0.675 2.1,-1.125 0.6,-0.375 1.125,-0.825 1.65,-1.275 0.45,-0.45 0.9,-0.9 1.275,-1.35 0.375,-0.45 0.675,-0.9 0.975,-1.35 0.225,-0.375 0.525,-0.825 0.75,-1.275 0.15,-0.3 0.375,-0.675 0.525,-0.975 0.15,-0.225 0.225,-0.45 0.375,-0.675 z"
     id="path93" />
  <text
     x="123.675"
     y="124.624"
     style="font-size:29.925px;font-family:'Trebuchet MS';overflow:visible;fill:#0197fd;stroke-width:0.55px"
     id="text95">)</text>
  <text
     x="129.365"
     y="107.842"
     transform="scale(1.02366,0.976887)"
     style="font-size:21px;font-family:'Trebuchet MS';overflow:visible;fill:#0197fd;stroke-width:0.55px"
     id="text103">2</text>
  <path
     style="overflow:visible;fill:#f0a513;stroke-width:2.83"
     d="m 223.2,65.3741 c 0.08,0.15 0.15,0.375 0.225,0.525 0.15,0.225 0.225,0.525 0.375,0.75 0.15,0.3 0.3,0.6 0.45,0.9 0.15,0.3 0.375,0.6 0.525,0.9 0.225,0.3 0.375,0.6 0.6,0.9 0.225,0.3 0.45,0.6 0.675,0.9 0.225,0.3 0.45,0.6 0.75,0.9 0.225,0.3 0.525,0.6 0.75,0.825 0.3,0.3 0.525,0.525 0.825,0.75 0.3,0.225 0.6,0.45 0.975,0.675 0.375,0.225 0.75,0.375 1.05,0.6 0.375,0.225 0.75,0.375 1.125,0.525 0.375,0.15 0.75,0.3 1.125,0.45 0.375,0.15 0.75,0.3 1.125,0.375 0.375,0.15 0.675,0.225 1.05,0.3 0.375,0.075 0.675,0.15 1.05,0.3 0.375,0.075 0.75,0.15 1.125,0.225 0.375,0.075 0.825,0.075 1.2,0.15 0.45,0 0.825,0.075 1.275,0.075 0.45,0 0.825,0 1.275,0.075 0.45,0 0.825,0 1.275,0.075 0.45,0 0.9,0 1.275,0 0.45,0 0.9,-0.075 1.275,-0.075 0.45,0 0.9,-0.075 1.35,-0.075 0.45,0 0.9,-0.075 1.35,-0.075 0.45,-0.075 0.9,-0.075 1.35,-0.15 0.45,-0.075 0.9,-0.075 1.35,-0.075 0.45,-0.075 0.9,-0.075 1.275,-0.075 0.45,0 0.825,-0.075 1.2,-0.075 0.375,0 0.825,0 1.2,0 0.45,0 0.825,0.075 1.2,0.075 0.375,0.075 0.825,0.075 1.2,0.15 0.375,0.075 0.75,0.075 1.2,0.15 0.375,0.075 0.75,0.15 1.125,0.225 0.375,0.075 0.75,0.15 1.05,0.225 0.375,0.075 0.675,0.15 1.05,0.2999 0.375,0.07 0.675,0.225 1.05,0.3 0.3,0.08 0.675,0.225 0.975,0.375 0.3,0.15 0.6,0.225 0.975,0.375 0.3,0.15 0.6,0.3 0.9,0.45 0.3,0.15 0.6,0.375 0.9,0.525 0.3,0.15 0.525,0.375 0.825,0.525 0.3,0.225 0.525,0.375 0.75,0.6 0.225,0.225 0.45,0.375 0.675,0.6 0.225,0.15 0.45,0.375 0.6,0.525 0.225,0.15 0.375,0.3 0.6,0.525 0.225,0.15 0.375,0.375 0.525,0.525 0.15,0.225 0.375,0.45 0.525,0.675 0.15,0.225 0.3,0.45 0.45,0.675 0.15,0.225 0.3,0.45 0.45,0.675 0.15,0.225 0.225,0.45 0.375,0.675 0.15,0.225 0.225,0.45 0.3,0.675 0.07,0.225 0.225,0.45 0.3,0.6 0.07,0.15 0.15,0.375 0.225,0.525 0.07,0.15 0.15,0.375 0.225,0.525 0.07,0.15 0.15,0.3 0.225,0.45 0.08,0.15 0.15,0.3 0.15,0.45 0.07,0.15 0.15,0.3 0.15,0.375 0.07,0.15 0.07,0.225 0.15,0.375 0.07,0.15 0.07,0.225 0.15,0.3 0,0.08 0.07,0.225 0.07,0.3 0,0.08 0.07,0.15 0.07,0.225 0,0.08 0.08,0.15 0.08,0.225 0,0 0,0 0,0.08 l -2.325,1.725 c 0,0 0,0 0,0 0,-0.08 -0.07,-0.15 -0.07,-0.225 0,-0.08 -0.07,-0.15 -0.07,-0.225 0,-0.08 -0.07,-0.225 -0.07,-0.3 0,-0.08 -0.07,-0.225 -0.15,-0.3 0,-0.15 -0.07,-0.225 -0.15,-0.375 -0.07,-0.15 -0.07,-0.3 -0.15,-0.375 -0.08,-0.15 -0.15,-0.3 -0.15,-0.45 -0.07,-0.15 -0.15,-0.3 -0.225,-0.45 -0.08,-0.15 -0.15,-0.3 -0.225,-0.525 -0.07,-0.15 -0.15,-0.375 -0.225,-0.525 -0.07,-0.225 -0.15,-0.375 -0.3,-0.6 -0.08,-0.225 -0.225,-0.45 -0.3,-0.675 -0.07,-0.225 -0.225,-0.45 -0.3,-0.6 -0.15,-0.225 -0.225,-0.45 -0.375,-0.6 -0.15,-0.225 -0.225,-0.45 -0.375,-0.6 -0.15,-0.225 -0.3,-0.375 -0.45,-0.525 -0.15,-0.15 -0.3,-0.3 -0.45,-0.45 -0.15,-0.15 -0.375,-0.3 -0.525,-0.525 -0.225,-0.15 -0.375,-0.375 -0.6,-0.525 -0.225,-0.225 -0.45,-0.375 -0.675,-0.525 -0.225,-0.15 -0.45,-0.375 -0.75,-0.525 -0.225,-0.15 -0.525,-0.375 -0.75,-0.525 -0.3,-0.15 -0.525,-0.3 -0.825,-0.45 -0.3,-0.15 -0.525,-0.3 -0.825,-0.375 -0.3,-0.15 -0.6,-0.225 -0.9,-0.375 -0.3,-0.15 -0.6,-0.225 -0.975,-0.3 -0.3,-0.08 -0.675,-0.225 -0.975,-0.3 -0.3,-0.08 -0.675,-0.15 -0.975,-0.225 -0.375,-0.08 -0.675,-0.15 -1.05,-0.225 -0.375,-0.08 -0.75,-0.15 -1.125,-0.225 -0.375,-0.07 -0.75,-0.15 -1.125,-0.15 -0.375,-0.08 -0.75,-0.08 -1.125,-0.08 -0.375,-0.08 -0.75,-0.08 -1.2,-0.08 -0.375,0 -0.75,0 -1.125,0.08 -0.375,0 -0.825,0.08 -1.2,0.08 -0.45,0 -0.9,0.08 -1.275,0.08 -0.45,0.07 -0.9,0.07 -1.35,0.07 -0.45,0 -0.9,0.08 -1.35,0.08 -0.45,0.08 -0.9,0.08 -1.35,0.08 -0.45,0.08 -0.9,0.08 -1.35,0.08 -0.45,0 -0.9,0.08 -1.35,0.08 -0.45,0 -0.9,0 -1.35,0 -0.45,0 -0.9,0 -1.275,-0.08 -0.45,0 -0.9,-0.08 -1.275,-0.08 -0.45,-0.08 -0.825,-0.08 -1.275,-0.08 -0.45,-0.08 -0.825,-0.08 -1.275,-0.15 -0.375,-0.08 -0.825,-0.15 -1.2,-0.225 -0.375,-0.08 -0.75,-0.225 -1.125,-0.3 -0.375,-0.15 -0.75,-0.225 -1.125,-0.375 -0.375,-0.15 -0.75,-0.3 -1.125,-0.375 -0.375,-0.15 -0.75,-0.3 -1.125,-0.525 -0.375,-0.15 -0.75,-0.3749 -1.125,-0.5999 -0.375,-0.225 -0.75,-0.45 -1.125,-0.675 -0.375,-0.225 -0.75,-0.45 -1.05,-0.75 -0.3,-0.3 -0.675,-0.525 -0.9,-0.825 -0.3,-0.3 -0.6,-0.6 -0.825,-0.9 -0.3,-0.3 -0.525,-0.6 -0.75,-0.975 -0.225,-0.3 -0.45,-0.6 -0.675,-0.975 -0.225,-0.3 -0.45,-0.675 -0.6,-0.975 -0.225,-0.3 -0.375,-0.675 -0.6,-0.975 -0.15,-0.3 -0.3,-0.6 -0.45,-0.9 -0.15,-0.225 -0.225,-0.525 -0.375,-0.75 -0.08,-0.225 -0.225,-0.375 -0.3,-0.6 z"
     id="path105" />
  <path
     style="overflow:visible;fill:#f0a513;stroke-width:2.83"
     d="m 319.65,65.4491 c -0.08,0.15 -0.15,0.375 -0.225,0.525 -0.15,0.225 -0.225,0.525 -0.375,0.75 -0.15,0.3 -0.3,0.6 -0.45,0.9 -0.15,0.3 -0.375,0.6 -0.525,0.9 -0.225,0.3 -0.375,0.6 -0.6,0.9 -0.225,0.3 -0.45,0.6 -0.675,0.9 -0.225,0.3 -0.45,0.6 -0.75,0.9 -0.225,0.3 -0.525,0.6 -0.75,0.825 -0.3,0.3 -0.525,0.525 -0.825,0.75 -0.3,0.225 -0.6,0.45 -0.975,0.675 -0.375,0.225 -0.75,0.375 -1.05,0.6 -0.375,0.225 -0.75,0.375 -1.125,0.525 -0.375,0.15 -0.75,0.3 -1.125,0.45 -0.375,0.15 -0.75,0.225 -1.125,0.375 -0.375,0.15 -0.675,0.225 -1.05,0.3 -0.375,0.075 -0.675,0.15 -1.05,0.3 -0.375,0.075 -0.75,0.15 -1.125,0.225 -0.375,0.075 -0.825,0.075 -1.2,0.15 -0.45,0.075 -0.825,0.075 -1.275,0.075 -0.45,0.075 -0.825,0.075 -1.275,0.075 -0.45,0 -0.825,0 -1.275,0 -0.45,0 -0.9,0 -1.275,0 -0.45,0 -0.9,-0.075 -1.275,-0.075 -0.45,-0.075 -0.9,-0.075 -1.35,-0.075 -0.45,-0.075 -0.9,-0.075 -1.35,-0.15 -0.45,0 -0.9,-0.075 -1.35,-0.075 -0.45,0 -0.9,-0.075 -1.35,-0.075 -0.45,-0.075 -0.9,-0.075 -1.275,-0.075 -0.45,-0.075 -0.825,-0.075 -1.2,-0.075 -0.375,0 -0.825,0 -1.2,0 -0.45,0 -0.825,0.075 -1.2,0.075 -0.375,0 -0.825,0.075 -1.2,0.15 -0.375,0.075 -0.75,0.075 -1.2,0.15 -0.375,0.075 -0.75,0.15 -1.125,0.225 -0.375,0.075 -0.75,0.15 -1.05,0.225 -0.375,0.075 -0.675,0.15 -1.05,0.2999 -0.375,0.07 -0.675,0.225 -1.05,0.3 -0.3,0.15 -0.675,0.225 -0.975,0.375 -0.3,0.15 -0.6,0.225 -0.975,0.375 -0.3,0.15 -0.6,0.3 -0.9,0.45 -0.3,0.15 -0.6,0.375 -0.9,0.525 -0.3,0.15 -0.525,0.375 -0.825,0.525 -0.3,0.225 -0.525,0.375 -0.75,0.6 -0.225,0.225 -0.45,0.375 -0.675,0.6 -0.225,0.15 -0.45,0.375 -0.6,0.525 -0.225,0.15 -0.375,0.375 -0.6,0.525 -0.225,0.15 -0.375,0.375 -0.525,0.525 -0.15,0.225 -0.375,0.45 -0.525,0.6 -0.15,0.225 -0.3,0.45 -0.45,0.675 -0.15,0.225 -0.3,0.45 -0.45,0.675 -0.15,0.225 -0.225,0.45 -0.375,0.675 -0.15,0.225 -0.225,0.45 -0.3,0.675 -0.07,0.225 -0.225,0.375 -0.3,0.6 -0.07,0.15 -0.15,0.375 -0.225,0.525 -0.07,0.15 -0.15,0.375 -0.225,0.525 -0.07,0.15 -0.15,0.3 -0.225,0.525 -0.08,0.15 -0.15,0.3 -0.15,0.45 -0.07,0.15 -0.15,0.3 -0.15,0.375 -0.07,0.15 -0.07,0.225 -0.15,0.375 0,0.07 -0.07,0.225 -0.15,0.3 -0.07,0.08 -0.07,0.225 -0.07,0.3 0,0.08 -0.07,0.15 -0.07,0.225 0,0.08 -0.08,0.15 -0.08,0.225 0,0 0,0 0,0 l 2.325,1.725 c 0,0 0,0 0,0 0,-0.08 0.07,-0.15 0.07,-0.225 0,-0.08 0.07,-0.15 0.07,-0.225 0.07,-0.07 0.07,-0.225 0.07,-0.3 0,-0.08 0.07,-0.225 0.15,-0.3 0.07,-0.15 0.07,-0.225 0.15,-0.375 0.07,-0.15 0.07,-0.225 0.15,-0.375 0.08,-0.15 0.15,-0.3 0.15,-0.45 0.07,-0.15 0.15,-0.3 0.225,-0.45 0.08,-0.15 0.15,-0.3 0.225,-0.525 0.07,-0.15 0.15,-0.375 0.225,-0.525 0.07,-0.225 0.15,-0.375 0.3,-0.6 0.08,-0.225 0.225,-0.45 0.3,-0.6 0.07,-0.225 0.225,-0.45 0.3,-0.6 0.15,-0.225 0.225,-0.45 0.375,-0.6 0.15,-0.225 0.3,-0.375 0.375,-0.6 0.15,-0.15 0.3,-0.375 0.45,-0.525 0.15,-0.15 0.3,-0.3 0.45,-0.45 0.15,-0.15 0.375,-0.3 0.525,-0.525 0.225,-0.15 0.375,-0.375 0.6,-0.525 0.225,-0.225 0.45,-0.375 0.675,-0.525 0.225,-0.225 0.45,-0.375 0.75,-0.525 0.225,-0.15 0.525,-0.375 0.75,-0.525 0.3,-0.15 0.525,-0.3 0.825,-0.45 0.3,-0.15 0.525,-0.3 0.825,-0.375 0.3,-0.15 0.6,-0.225 0.9,-0.375 0.3,-0.15 0.6,-0.225 0.975,-0.3 0.3,-0.08 0.675,-0.225 0.975,-0.3 0.3,-0.08 0.675,-0.15 0.975,-0.225 0.375,-0.08 0.675,-0.15 1.05,-0.225 0.375,-0.08 0.75,-0.15 1.125,-0.225 0.375,-0.07 0.75,-0.15 1.125,-0.15 0.375,-0.08 0.75,-0.08 1.125,-0.15 0.375,-0.08 0.75,-0.08 1.2,-0.08 0.375,0 0.75,0 1.125,0.08 0.375,0 0.825,0.08 1.2,0.08 0.45,0.08 0.9,0.08 1.275,0.08 0.45,0.08 0.9,0.08 1.35,0.08 0.45,0.07 0.9,0.07 1.35,0.07 0.45,0.08 0.9,0.08 1.35,0.08 0.45,0 0.9,0.08 1.35,0.08 0.45,0 0.9,0.08 1.35,0.08 0.45,0 0.9,0 1.35,0 0.45,0 0.9,0 1.275,-0.08 0.45,0 0.825,-0.08 1.275,-0.08 0.45,0 0.825,-0.08 1.275,-0.08 0.45,-0.07 0.825,-0.07 1.275,-0.15 0.375,-0.08 0.825,-0.15 1.2,-0.225 0.375,-0.07 0.75,-0.225 1.125,-0.3 0.375,-0.15 0.75,-0.225 1.125,-0.375 0.375,-0.15 0.75,-0.3 1.125,-0.45 0.375,-0.15 0.75,-0.3 1.125,-0.525 0.375,-0.1499 0.75,-0.3749 1.125,-0.5999 0.375,-0.225 0.75,-0.375 1.125,-0.6 0.375,-0.225 0.75,-0.45 1.05,-0.75 0.3,-0.3 0.675,-0.525 0.9,-0.825 0.3,-0.3 0.6,-0.6 0.825,-0.9 0.3,-0.3 0.525,-0.6 0.75,-0.975 0.225,-0.3 0.45,-0.675 0.675,-0.975 0.225,-0.3 0.45,-0.675 0.6,-0.975 0.225,-0.3 0.375,-0.675 0.6,-0.975 0.15,-0.3 0.3,-0.6 0.45,-0.9 0.15,-0.225 0.225,-0.525 0.375,-0.75 0.08,-0.225 0.225,-0.375 0.3,-0.6 z"
     id="path107" />
  <text
     x="240.525"
     y="127.474"
     style="font-size:29.925px;font-family:'Trebuchet MS';overflow:visible;fill:#f0a513;stroke-width:0.55px"
     id="text109">7 − 9</text>
  <text
     x="355.725"
     y="125.974"
     style="font-size:29.925px;font-family:'Trebuchet MS';overflow:visible;fill:#3465a4;stroke-width:0.55px"
     id="text111">= (x + 3)  </text>
  <text
     x="456.087"
     y="110.387"
     transform="scale(1.02366,0.976887)"
     style="font-size:21px;font-family:'Trebuchet MS';overflow:visible;fill:#3465a4;stroke-width:0.55px"
     id="text113">2</text>
  <text
     x="195"
     y="124.024"
     style="font-size:29.925px;font-family:'Trebuchet MS';overflow:visible;fill:#3465a4;stroke-width:0.55px"
     id="text115">+</text>
  <text
     x="3.075"
     y="35.1371"
     style="font-size:29.925px;font-family:'Trebuchet MS';overflow:visible;fill:#3465a4;stroke-width:0.55px"
     id="text9055">x  + 6x +</text>
  <g
     id="g28057"
     transform="matrix(0.75,0,0,0.75,3,-208.674)"
     style="stroke-width:1.33333">
    <text
       x="383.123"
       y="309.49"
       style="font-size:32.8219px;font-family:'Trebuchet MS';overflow:visible;fill:#3465a4;stroke-width:0.733335px"
       id="text25-3">6</text>
    <path
       style="overflow:visible;fill:#fdca01;stroke:#fdca01;stroke-width:3.77333"
       d="m 371.814,315.002 h 39.814"
       id="path27-0" />
    <text
       x="383.483"
       y="343.875"
       style="font-size:32.8219px;font-family:'Trebuchet MS';overflow:visible;fill:#fdca01;stroke-width:0.733335px"
       id="text29-0">2</text>
    <text
       x="462.264"
       y="256.974"
       transform="scale(0.775374,1.2897)"
       style="font-size:51.5px;font-family:'Trebuchet MS';overflow:visible;fill:#fdca01;stroke-width:0.733333px"
       id="text31-4">(</text>
    <text
       x="526.79"
       y="257.274"
       transform="scale(0.775374,1.2897)"
       style="font-size:51.5px;font-family:'Trebuchet MS';overflow:visible;fill:#fdca01;stroke-width:0.733333px"
       id="text33-6">)</text>
    <text
       x="412.979"
       y="305.2"
       transform="scale(1.02366,0.976886)"
       style="font-size:28px;font-family:'Trebuchet MS';overflow:visible;fill:#fdca01;stroke-width:0.733333px"
       id="text37-5">2</text>
  </g>
  <g
     id="g28151"
     transform="matrix(0.75,0,0,0.75,-144,-208.674)"
     style="stroke-width:1.33333">
    <text
       x="383.123"
       y="309.49"
       style="font-size:32.8219px;font-family:'Trebuchet MS';overflow:visible;fill:#3465a4;stroke-width:0.733335px"
       id="text28139">6</text>
    <path
       style="overflow:visible;fill:#fdca01;stroke:#fdca01;stroke-width:3.77333"
       d="m 371.814,315.002 h 39.814"
       id="path28141" />
    <text
       x="383.483"
       y="343.875"
       style="font-size:32.8219px;font-family:'Trebuchet MS';overflow:visible;fill:#fdca01;stroke-width:0.733335px"
       id="text28143">2</text>
    <text
       x="462.264"
       y="256.974"
       transform="scale(0.775374,1.2897)"
       style="font-size:51.5px;font-family:'Trebuchet MS';overflow:visible;fill:#fdca01;stroke-width:0.733333px"
       id="text28145">(</text>
    <text
       x="526.79"
       y="257.274"
       transform="scale(0.775374,1.2897)"
       style="font-size:51.5px;font-family:'Trebuchet MS';overflow:visible;fill:#fdca01;stroke-width:0.733333px"
       id="text28147">)</text>
    <text
       x="412.979"
       y="305.2"
       transform="scale(1.02366,0.976886)"
       style="font-size:28px;font-family:'Trebuchet MS';overflow:visible;fill:#fdca01;stroke-width:0.733333px"
       id="text28149">2</text>
  </g>
  <text
     x="98.8756"
     y="112.633"
     style="font-size:24.6164px;font-family:'Trebuchet MS';overflow:visible;fill:#3465a4;stroke-width:0.550001px"
     id="text25-7">6</text>
  <path
     style="overflow:visible;fill:#fdca01;stroke:#fdca01;stroke-width:2.83"
     d="M 90.3936,116.767 H 120.255"
     id="path27-4" />
  <text
     x="99.1456"
     y="138.422"
     style="font-size:24.6164px;font-family:'Trebuchet MS';overflow:visible;fill:#fdca01;stroke-width:0.550001px"
     id="text29-5">2</text>
  <text
     x="30.6746"
     y="124.624"
     style="font-size:29.925px;font-family:'Trebuchet MS';overflow:visible;fill:#0197fd;stroke-width:0.55px"
     id="text28688">(x +</text>
  <text
     x="486.225"
     y="125.974"
     style="font-size:29.925px;font-family:'Trebuchet MS';overflow:visible;fill:#3465a4;stroke-width:0.55px"
     id="text30658">− 2</text>
</svg>
