<?xml version="1.0" encoding="UTF-8" standalone="no"?>
<svg
   xmlns:dc="http://purl.org/dc/elements/1.1/"
   xmlns:cc="http://creativecommons.org/ns#"
   xmlns:rdf="http://www.w3.org/1999/02/22-rdf-syntax-ns#"
   xmlns:svg="http://www.w3.org/2000/svg"
   xmlns="http://www.w3.org/2000/svg"
   xmlns:sodipodi="http://sodipodi.sourceforge.net/DTD/sodipodi-0.dtd"
   xmlns:inkscape="http://www.inkscape.org/namespaces/inkscape"
   width="287.7"
   height="62.7"
   version="1.1"
   id="svg22"
   sodipodi:docname="degree-example-a.svg"
   inkscape:version="1.0.1 (3bc2e813f5, 2020-09-07)">
  <metadata
     id="metadata26">
    <rdf:RDF>
      <cc:Work
         rdf:about="">
        <dc:format>image/svg+xml</dc:format>
        <dc:type
           rdf:resource="http://purl.org/dc/dcmitype/StillImage" />
      </cc:Work>
    </rdf:RDF>
  </metadata>
  <sodipodi:namedview
     pagecolor="#ffffff"
     bordercolor="#666666"
     borderopacity="1"
     objecttolerance="10"
     gridtolerance="10"
     guidetolerance="10"
     inkscape:pageopacity="0"
     inkscape:pageshadow="2"
     inkscape:window-width="640"
     inkscape:window-height="480"
     id="namedview24"
     showgrid="false"
     inkscape:current-layer="svg22"
     inkscape:document-rotation="0" />
  <defs
     id="defs2" />
  <circle
     cx="34.4"
     cy="45.7"
     r="13.6785"
     style="overflow:visible;opacity:1;fill:#fede5d;stroke-width:5.1;fill-opacity:1"
     id="circle4" />
  <text
     x="-0.5"
     y="62"
     style="font-family:'Comic Sans MS';font-size:23.9px;overflow:visible;fill:#005c94;stroke-width:1px"
     id="text6">4x</text>
  <text
     x="28.6"
     y="52.5"
     style="font-family:'Comic Sans MS';font-size:19.1px;overflow:visible;fill:#005c94;stroke-width:1px"
     id="text8">3</text>
  <text
     x="84.6"
     y="15"
     style="font-family:'Comic Sans MS';font-size:19.1px;font-style:italic;overflow:visible;fill:#fdca01;stroke-width:5.1"
     id="text10">this makes it Degree 3</text>
  <path
     d="m 42.2,33.5 c 1.7,-2.2 3.8,-4.2 5.7,-6.2 2.5,-2.5 5.2,-4.9 7.9,-7.2 2.2,-1.6 4.4,-3.2 6.8,-4.3 3.4,-1.9 6.9,-3.3 10.6,-4.7 2.3,-0.7 4.5,-1.5 6.8,-2.1 0.7,-0 2.7,-1.4 1.9,0 -0.4,1.2 -0.8,2.5 -1.2,3.7 -1.7,0.3 -3.4,1 -5.1,1.5 -3.8,1.4 -7.7,2.7 -11.3,4.5 -2.3,1.1 -4.6,2.4 -6.6,4 -2.5,1.9 -4.8,4 -7.1,6.2 -0.5,0.5 -1.4,1.4 -0.3,0.3 0.6,-0.6 1.9,-1.9 2.1,-2.2 -1.6,1.7 -3.3,3.3 -4.8,5.1 -0.4,0.8 -1.3,0.7 -2.1,0.8 -1.1,0.1 -2.2,0.3 -3.3,0.4 z"
     style="overflow:visible;fill:#fdca01;stroke-width:5.1"
     id="path12" />
  <path
     d="m 48.1,19.8 c -0,2.1 0,4.3 -0,6.5 -0.2,1.7 -0.8,3.2 -1.6,4.8 -0.2,0.9 -0.6,1.7 -0.5,2.6 -0.3,0.1 -3,-1.6 -1.1,-2.2 1.9,-1.2 3.6,-2.7 5.8,-3.5 1.7,-0.9 3.6,-1.3 5.5,-1.9 1.6,-0.5 3.3,-0.2 4.9,-0.3 -0.6,1.5 -1.2,3 -1.8,4.5 -1.8,0 -3.7,-0.1 -5.4,0.6 -2.8,0.7 -5.5,2 -7.8,3.7 -1.5,0.5 -2.3,3.1 -4.1,1.9 -1.1,-0.6 -0.8,-1.8 -0.8,-2.9 0.4,-1.4 1.2,-2.7 1.7,-4.1 0.7,-1.4 0.9,-3 0.8,-4.6 0,-1.2 0,-2.4 0,-3.6 1.5,-0.7 2.9,-1.3 4.4,-2 0,0.1 0,0.3 0.1,0.4 z"
     style="overflow:visible;fill:#fdca01;stroke-width:5.1"
     id="path14" />
  <text
     x="91.1"
     y="53.5"
     style="font-family:'Comic Sans MS';font-size:19.1px;overflow:visible;fill:#005c94;stroke-width:1px"
     id="text16">2</text>
  <text
     x="43.3"
     y="62"
     style="font-family:'Comic Sans MS';font-size:23.9px;overflow:visible;fill:#005c94;stroke-width:1px"
     id="text18">+ 2x</text>
  <text
     x="110.4"
     y="62"
     style="font-family:'Comic Sans MS';font-size:23.9px;overflow:visible;fill:#005c94;stroke-width:1px"
     id="text20">- 7</text>
</svg>
