<?xml version="1.0" encoding="UTF-8" standalone="no"?>
<!-- Copyright 2017 mathsisfun.com -->

<svg
   xmlns:dc="http://purl.org/dc/elements/1.1/"
   xmlns:cc="http://creativecommons.org/ns#"
   xmlns:rdf="http://www.w3.org/1999/02/22-rdf-syntax-ns#"
   xmlns:svg="http://www.w3.org/2000/svg"
   xmlns="http://www.w3.org/2000/svg"
   xmlns:sodipodi="http://sodipodi.sourceforge.net/DTD/sodipodi-0.dtd"
   xmlns:inkscape="http://www.inkscape.org/namespaces/inkscape"
   width="121.476"
   height="218.018"
   version="1.1"
   style="stroke-width:1.26"
   id="svg39"
   sodipodi:docname="dot-product-light-right.svg"
   inkscape:version="0.92.4 (5da689c313, 2019-01-14)">
  <metadata
     id="metadata43">
    <rdf:RDF>
      <cc:Work
         rdf:about="">
        <dc:format>image/svg+xml</dc:format>
        <dc:type
           rdf:resource="http://purl.org/dc/dcmitype/StillImage" />
        <dc:title></dc:title>
      </cc:Work>
    </rdf:RDF>
  </metadata>
  <sodipodi:namedview
     pagecolor="#ffffff"
     bordercolor="#666666"
     borderopacity="1"
     objecttolerance="10"
     gridtolerance="10"
     guidetolerance="10"
     inkscape:pageopacity="0"
     inkscape:pageshadow="2"
     inkscape:window-width="640"
     inkscape:window-height="480"
     id="namedview41"
     showgrid="false"
     inkscape:current-layer="svg39" />
  <defs
     id="defs11">
    <marker
       id="id1"
       style="overflow:visible"
       orient="auto">
      <path
         transform="matrix(-0.4,0,0,-0.4,-4,0)"
         style="stroke:#000000;stroke-width:1pt"
         d="M 0,0 5,-5 -12.5,0 5,5 Z"
         id="path2"
         inkscape:connector-curvature="0" />
    </marker>
    <marker
       id="id2"
       style="overflow:visible"
       orient="auto">
      <path
         transform="matrix(-0.4,0,0,-0.4,-4,0)"
         style="fill:#999999;stroke:#999999;stroke-width:1pt"
         d="M 0,0 5,-5 -12.5,0 5,5 Z"
         id="path5"
         inkscape:connector-curvature="0" />
    </marker>
    <marker
       id="id3"
       style="overflow:visible"
       orient="auto">
      <path
         transform="matrix(-0.4,0,0,-0.4,-4,0)"
         style="fill:#ffff3e;stroke:#ffff3e;stroke-width:1pt"
         d="M 0,0 5,-5 -12.5,0 5,5 Z"
         id="path8"
         inkscape:connector-curvature="0" />
    </marker>
    <marker
       inkscape:stockid="id27"
       orient="auto"
       style="overflow:visible"
       id="id27">
      <path
         id="path906"
         d="M 0,0 5,-5 -12.5,0 5,5 Z"
         style="fill:#666666;fill-opacity:1;stroke:#666666;stroke-width:1pt;stroke-opacity:1"
         transform="matrix(-0.4,0,0,-0.4,-4,0)"
         inkscape:connector-curvature="0" />
    </marker>
    <marker
       inkscape:stockid="id1K"
       orient="auto"
       style="overflow:visible"
       id="id1K">
      <path
         id="path968"
         d="M 0,0 5,-5 -12.5,0 5,5 Z"
         style="fill:#0084c8;fill-opacity:1;stroke:#0084c8;stroke-width:1pt;stroke-opacity:1"
         transform="matrix(-0.4,0,0,-0.4,-4,0)"
         inkscape:connector-curvature="0" />
    </marker>
    <marker
       inkscape:stockid="id1v"
       orient="auto"
       style="overflow:visible"
       id="id1v">
      <path
         id="path1040"
         d="M 0,0 5,-5 -12.5,0 5,5 Z"
         style="fill:#3465a4;fill-opacity:1;stroke:#3465a4;stroke-width:1pt;stroke-opacity:1"
         transform="matrix(-0.4,0,0,-0.4,-4,0)"
         inkscape:connector-curvature="0" />
    </marker>
    <marker
       inkscape:stockid="id1K"
       orient="auto"
       style="overflow:visible"
       id="id1K-6">
      <path
         id="path968-8"
         d="M 0,0 5,-5 -12.5,0 5,5 Z"
         style="fill:#0084c8;fill-opacity:1;stroke:#0084c8;stroke-width:1pt;stroke-opacity:1"
         transform="matrix(-0.4,0,0,-0.4,-4,0)"
         inkscape:connector-curvature="0" />
    </marker>
    <marker
       inkscape:stockid="id1v"
       orient="auto"
       style="overflow:visible"
       id="id1v-1">
      <path
         id="path1040-5"
         d="M 0,0 5,-5 -12.5,0 5,5 Z"
         style="fill:#3465a4;fill-opacity:1;stroke:#3465a4;stroke-width:1pt;stroke-opacity:1"
         transform="matrix(-0.4,0,0,-0.4,-4,0)"
         inkscape:connector-curvature="0" />
    </marker>
  </defs>
  <g
     id="g1360"
     transform="translate(192.325,-74.0562)">
    <path
       inkscape:connector-curvature="0"
       id="path17"
       d="m -128.305,95.7361 c 0,-0.067 -0.09,-0.1363 -0.176,-0.138 l -0.242,-0.01 -0.04,-13.789 c 0,-0.054 -0.06,-0.109 -0.132,-0.1103 h -0.11 c -0.516,-3.3597 -11.188,-6.247 -24.252,-6.5045 -13.066,-0.2575 -23.721,2.2095 -24.218,5.5492 -0.07,0 -0.133,0.051 -0.132,0.1051 l 0.04,13.789 h -0.154 c -0.11,0 -0.176,0.064 -0.176,0.131 l 0.133,46.9904 c 0,0.07 0.09,0.137 0.176,0.138 l 49.242,0.971 c 0.11,0 0.177,-0.05 0.176,-0.131 z"
       style="fill:#ff0000;stroke:#421313;stroke-width:2.219089" />
    <path
       inkscape:connector-curvature="0"
       id="path19"
       d="m -114.742,140.243 c 0,-0.08 -0.09,-0.136 -0.221,-0.139 h -0.175 c -0.828,-4.456 -17.517,-8.321 -37.963,-8.722 -20.446,-0.401 -37.136,2.823 -37.916,7.234 -0.11,0 -0.198,0.05 -0.198,0.131 l 0.07,23.165 c 0,0.08 0.09,0.136 0.22,0.139 l 76.034,1.49 c 0.132,0 0.22,-0.05 0.219,-0.13 z"
       style="fill:#ff0000;stroke:#421313;stroke-width:2.219089" />
    <ellipse
       id="ellipse21"
       style="fill:#ffff00;stroke:#421313;stroke-width:1.411923"
       transform="matrix(0.002925,0.999996,-0.999808,-0.019596,0,0)"
       ry="37.9788"
       rx="8.32017"
       cy="153.439"
       cx="165.903" />
    <rect
       transform="matrix(0.002817,0.999996,-0.999806,-0.019703,0,0)"
       id="rect23"
       style="fill:#560000;stroke:#421313;stroke-width:1.411857"
       height="7.18387"
       width="17.5021"
       ry="0.396656"
       rx="0.390131"
       y="124.067"
       x="108.32" />
  </g>
  <rect
     style="color:#000000;clip-rule:nonzero;display:inline;overflow:visible;visibility:visible;opacity:0.16;isolation:auto;mix-blend-mode:normal;color-interpolation:sRGB;color-interpolation-filters:linearRGB;solid-color:#000000;solid-opacity:1;vector-effect:none;fill:#ffff00;fill-opacity:1;fill-rule:nonzero;stroke:none;stroke-width:0;stroke-linecap:butt;stroke-linejoin:miter;stroke-miterlimit:4;stroke-dasharray:none;stroke-dashoffset:0;stroke-opacity:1;marker:none;marker-start:none;marker-mid:none;marker-end:url(#id1v);color-rendering:auto;image-rendering:auto;shape-rendering:auto;text-rendering:auto;enable-background:accumulate"
     id="rect1322"
     width="76.9358"
     height="133.545"
     x="0.842761"
     y="84.4731" />
  <path
     style="opacity:1;vector-effect:none;fill:#0084c8;fill-opacity:1;fill-rule:evenodd;stroke:#0084c8;stroke-width:2.345051;stroke-linecap:butt;stroke-linejoin:miter;stroke-miterlimit:4;stroke-dasharray:none;stroke-dashoffset:0;stroke-opacity:1;marker-end:url(#id1K)"
     d="M 38.2677,209.098 H 116.855"
     id="path1188"
     inkscape:connector-curvature="0" />
  <path
     style="opacity:1;vector-effect:none;fill:none;fill-opacity:1;fill-rule:evenodd;stroke:#3465a4;stroke-width:2.173169;stroke-linecap:butt;stroke-linejoin:miter;stroke-miterlimit:4;stroke-dasharray:none;stroke-dashoffset:0;stroke-opacity:1;marker-end:url(#id1v)"
     d="M 38.2677,210.258 V 132.514"
     id="path1190"
     inkscape:connector-curvature="0" />
</svg>
