<?xml version="1.0" encoding="UTF-8" standalone="no"?>
<!-- Copyright 2017 mathsisfun.com -->
<svg xmlns="http://www.w3.org/2000/svg" width="279.7" height="246" version="1.1" style="font-family:'Comic Sans MS'; font-size:20px; fill:#ff6600; stroke-width:1px;">
<defs>
	<marker id="id3" style="overflow:visible;" orient="auto">
		<path transform="matrix(-0.4,0,0,-0.4,-4,0)" style="fill:black; stroke:black; stroke-width:1pt;" d="M 0,0 5,-5 -12.5,0 5,5 Z"/>
	</marker>
	<marker id="id1" style="overflow:visible;" orient="auto">
		<path transform="matrix(-1.1,0,0,-1.1,-1.1,0)" style="fill:#ff0000; stroke:#ff0000; stroke-width:0.63; stroke-linejoin:round;" d="M 8.7,4 -2.2,0 8.7,-4 C 7,-1.6 7,1.6 8.7,4 Z"/>
	</marker>
	<marker id="id2" style="overflow:visible;" orient="auto">
		<path transform="matrix(-1.1,0,0,-1.1,-1.1,0)" style="fill:#0000ff; stroke:#0000ff; stroke-width:0.63; stroke-linejoin:round;" d="M 8.7,4 -2.2,0 8.7,-4 C 7,-1.6 7,1.6 8.7,4 Z"/>
	</marker>
</defs>
<circle cx="153.1" cy="132.2" r="84.0924" style="fill:none; stroke:black; stroke-width:1.18; stroke-dasharray:3.5, 3.5;"/>
<rect x="0" y="61.9" ry="17.4" width="75.8" height="34.8" style="fill:#19aeff; fill-opacity:0.37; stroke-width:4.47;"/>
<path style="fill:#19aeff; stroke-width:1;" d="m 134.4,132.8 a 19.3,19.3 0 0 1 9.6,-16.7 19.3,19.3 0 0 1 19.3,0 19.3,19.3 0 0 1 9.6,16.7 h -19.3 z"/>
<path style="marker-end:url(#id1); fill:none; stroke:#ff0000; stroke-width:1.13;" d="M 153.7,246 V 1.9"/>
<path style="marker-end:url(#id2); fill:none; stroke:#0000ff; stroke-width:1.13;" d="M -0.3,132.6 H 277.9"/>
<circle cx="68.6" cy="132.2" r="3.81767" style="stroke-width:2.38;"/>
<text x="223.2" y="163.4" transform="scale(1.06611,0.937989)" style="font-family:'Comic Sans MS'; font-style:italic; fill:#0000ff; stroke-width:1.5;">1</text>
<text x="43.1" y="163" transform="scale(1.06611,0.937989)" style="font-family:'Comic Sans MS'; font-style:italic; fill:#0000ff; stroke-width:1.5;">-1</text>
<text x="126.3" y="242.9" style="font-size:6px; fill:#ff0000; stroke-width:0.5px;">-</text>
<text x="45.9" y="89.5" style="font-size:19.7px; stroke-width:0.53px;">-1</text>
<text x="32.6" y="89.5" style="font-size:19.7px; stroke-width:0.53px;">=</text>
<text x="165.1" y="115.5" style="font-family:'Comic Sans MS'; font-style:italic; fill:#19aeff;">π</text>
<text x="143.5" y="45.7" style="font-family:'Comic Sans MS'; font-style:italic; fill:#ff0000;">i</text>
<text x="135.8" y="234.1" style="font-family:'Comic Sans MS'; font-style:italic; fill:#ff0000;">-i</text>
<text x="5.4" y="87" style="font-family:'Comic Sans MS'; font-style:italic;">e</text>
<text x="17.5" y="77.5" style="font-family:'Comic Sans MS'; font-size:16px; font-style:italic;">iπ</text>
<path style="marker-end:url(#id3); fill:none; stroke:black; stroke-width:1.45px;" d="m 58,99.4 6.2,21.8"/>
</svg>