<?xml version="1.0" encoding="UTF-8" standalone="no"?>
<!-- Copyright 2017 mathsisfun.com -->
<svg xmlns="http://www.w3.org/2000/svg" width="113.4" height="92.5" version="1.1">
<defs/>
<g transform="translate(1203.8103,-766.23503)">
<g transform="matrix(-0.37775058,-0.01143023,0.01143023,-0.37775058,-968.35833,978.89143)">
<path d="m 338.6,407.1 c 0.9,-0.5 1.8,-1.2 2.7,-1.7 1.6,-1.1 3.3,-2.2 4.9,-3.2 2.2,-1.4 4.5,-2.4 6.8,-3.5 3,-1.3 6.2,-2.4 9.3,-3.5 3.7,-1.3 7.3,-2.5 11,-3.8 4.2,-1.4 8.3,-2.8 12.5,-4.1 4.4,-1.5 8.8,-2.8 13.3,-4.2 6.4,-2 12.9,-3.6 19.4,-5.3 4.5,-1.1 9,-2.1 13.5,-3 4.4,-0.9 8.9,-1.6 13.3,-2.2 4.3,-0.6 8.6,-1.2 13,-1.7 4.1,-0.5 8.3,-1 12.4,-1.5 4,-0.5 8,-0.8 12,-1.1 4.1,-0.3 8.3,-0.5 12.4,-0.7 4.2,-0.2 8.4,-0.3 12.6,-0.3 4.1,-0 8.2,0 12.3,0 4,0 7.9,0.2 11.9,0.5 3.7,0.2 7.3,0.5 11,0.9 3.3,0.3 6.6,0.7 9.9,1.1 3,0.4 5.9,0.9 8.9,1.3 2.8,0.4 5.5,1 8.2,1.5 2.7,0.5 5.3,1.2 8,1.8 2.5,0.6 5,1.3 7.5,2 2.5,0.7 4.9,1.5 7.3,2.3 2.1,0.7 4.2,1.6 6.3,2.5 1.8,0.7 3.5,1.5 5.2,2.2 1.6,0.8 3.2,1.6 4.8,2.4 1.5,0.8 3.1,1.4 4.6,2.1 1.7,0.6 3.5,1.3 5.2,1.9 2.4,0.9 4.4,2.3 6.5,3.6 1.7,1.2 3.3,2.5 4.9,3.8 l -6.4,3.8 c -1.6,-1.2 -3.1,-2.5 -4.8,-3.5 -2,-1.1 -3.9,-2.4 -6.1,-3.1 -1.8,-0.6 -3.5,-1.3 -5.3,-2 -1.6,-0.7 -3.2,-1.4 -4.7,-2.3 -1.6,-0.8 -3.1,-1.6 -4.7,-2.3 -1.7,-0.7 -3.4,-1.5 -5.1,-2.1 -2,-0.8 -4.1,-1.6 -6.1,-2.3 -2.4,-0.8 -4.8,-1.6 -7.2,-2.2 -2.5,-0.7 -5,-1.3 -7.5,-1.9 -2.6,-0.6 -5.2,-1.2 -7.9,-1.7 -2.7,-0.5 -5.4,-1 -8.2,-1.4 -2.9,-0.5 -5.8,-0.9 -8.8,-1.3 -3.3,-0.4 -6.5,-0.8 -9.8,-1.1 -3.6,-0.3 -7.2,-0.6 -10.9,-0.8 -3.9,-0.2 -7.9,-0.3 -11.8,-0.4 -4.1,-0 -8.2,-0 -12.3,0 -4.2,0 -8.3,0.2 -12.5,0.4 -4.1,0.2 -8.2,0.4 -12.3,0.7 -4,0.3 -8,0.7 -11.9,1.2 -4.1,0.5 -8.2,1 -12.4,1.5 -4.3,0.6 -8.6,1.1 -12.9,1.8 -4.4,0.7 -8.8,1.4 -13.2,2.4 -4.5,1 -8.9,2 -13.4,3.1 -0,0 -0.5,0 -8,2.2 -4.4,1.3 -8.9,2.7 -13.2,4.1 -4.2,1.4 -8.3,2.7 -12.5,4.1 -3.7,1.2 -7.3,2.5 -11,3.7 -3.1,1.1 -6.2,2.1 -9.2,3.4 -2.3,1 -4.6,1.9 -6.7,3.1 -1.6,1 -3.3,1.9 -4.9,3 -0.9,0.6 -1.8,1.2 -2.7,1.9 l -7.2,-2 z" style="overflow:visible; fill:#729fcf; stroke-width:2.5; stroke-linecap:round;"/>
<path d="m 585.6,393.6 c 2.4,-2.2 5.5,-1.4 8.2,-2 1.2,-0.1 2.4,-0.2 3.6,-0.3 1.4,-0.2 2.9,0 4.3,0 1.5,0.2 2.9,0.4 4.4,0.6 1.3,0.1 2.6,0.3 4,0.5 1.2,0.1 2.3,0.4 3.5,0.6 1.1,0.2 2.1,0.4 3.2,0.6 1,0.2 2.1,0.4 3.1,0.6 1.1,0.2 2.2,0.5 3.3,0.7 1,0.2 2,0.5 3,0.8 1.1,0.2 2.1,0.9 3.2,1.3 1,0.5 2,1.1 2.9,1.7 0.5,0.3 1,0.5 1.5,0.8 l -6.1,4.3 c -0.5,-0.3 -1.1,-0.6 -1.6,-0.9 -0.9,-0.5 -1.8,-1.1 -2.8,-1.4 -0.9,-0.3 -1.8,-0.7 -2.8,-0.9 -1,-0.2 -1.9,-0.5 -2.9,-0.6 -1.1,-0.2 -2.2,-0.5 -3.3,-0.7 -1,-0.2 -2,-0.3 -3.1,-0.5 -1,-0.2 -2.1,-0.4 -3.1,-0.5 -1.1,-0.2 -2.3,-0.4 -3.4,-0.5 -1.3,-0.2 -2.6,-0.3 -4,-0.5 -1.4,-0.1 -2.8,-0.4 -4.2,-0.4 -1.3,0 -2.7,-0 -4,0.2 -1.1,0.1 -2.3,0.2 -3.4,0.4 1.2,-0.3 2.3,-0.7 3.5,-1 l -7,-2.7 z" style="overflow:visible; fill:#729fcf; stroke-width:2.5; stroke-linecap:round;"/>
<path d="m 619.1,373.9 c 0.2,0.8 0.4,1.5 0.6,2.3 0.2,0.9 0.6,1.8 0.8,2.6 0.3,1 0.7,1.9 1.1,2.8 0.4,1 0.9,2.1 1.3,3.1 0.4,0.9 0.8,1.8 1.2,2.7 0.3,0.7 0.7,1.4 1.1,2.1 0.4,0.7 0.9,1.3 1.4,1.9 0.5,0.6 1.1,1.2 1.6,1.8 0.5,0.6 1.1,1.1 1.6,1.7 0.5,0.6 1.1,1.1 1.7,1.7 0.5,0.5 1.2,1 1.7,1.5 0.6,0.5 1.3,0.8 1.9,1.2 0.1,0 0.2,0.2 0.4,0.3 l -6.3,4 c -0.1,-0 -0.2,-0.1 -0.3,-0.2 -0.7,-0.5 -1.5,-0.9 -2.1,-1.5 -0.6,-0.6 -1.3,-1.1 -1.9,-1.7 -0.6,-0.6 -1.2,-1.2 -1.8,-1.8 -0.5,-0.6 -1.1,-1.2 -1.6,-1.8 -0.6,-0.7 -1.2,-1.3 -1.7,-2 -0.5,-0.8 -1.1,-1.5 -1.5,-2.4 -0.4,-0.8 -0.9,-1.6 -1.2,-2.4 -0.4,-0.9 -0.8,-1.8 -1.2,-2.8 -0.4,-1.1 -0.9,-2.1 -1.3,-3.2 -0.4,-1 -0.8,-1.9 -1.1,-2.9 -0.3,-1 -0.7,-1.9 -0.9,-2.9 -0.2,-0.8 -0.4,-1.5 -0.6,-2.3 l 7.2,-1.9 z" style="overflow:visible; fill:#729fcf; stroke-width:2.5; stroke-linecap:round;"/>
</g>
<g transform="matrix(0.37775058,0.01143023,-0.01143023,0.37775058,-1325.8329,644.94201)">
<path d="m 338.6,407.1 c 0.9,-0.5 1.8,-1.2 2.7,-1.7 1.6,-1.1 3.3,-2.2 4.9,-3.2 2.2,-1.4 4.5,-2.4 6.8,-3.5 3,-1.3 6.2,-2.4 9.3,-3.5 3.7,-1.3 7.3,-2.5 11,-3.8 4.2,-1.4 8.3,-2.8 12.5,-4.1 4.4,-1.5 8.8,-2.8 13.3,-4.2 6.4,-2 12.9,-3.6 19.4,-5.3 4.5,-1.1 9,-2.1 13.5,-3 4.4,-0.9 8.9,-1.6 13.3,-2.2 4.3,-0.6 8.6,-1.2 13,-1.7 4.1,-0.5 8.3,-1 12.4,-1.5 4,-0.5 8,-0.8 12,-1.1 4.1,-0.3 8.3,-0.5 12.4,-0.7 4.2,-0.2 8.4,-0.3 12.6,-0.3 4.1,-0 8.2,0 12.3,0 4,0 7.9,0.2 11.9,0.5 3.7,0.2 7.3,0.5 11,0.9 3.3,0.3 6.6,0.7 9.9,1.1 3,0.4 5.9,0.9 8.9,1.3 2.8,0.4 5.5,1 8.2,1.5 2.7,0.5 5.3,1.2 8,1.8 2.5,0.6 5,1.3 7.5,2 2.5,0.7 4.9,1.5 7.3,2.3 2.1,0.7 4.2,1.6 6.3,2.5 1.8,0.7 3.5,1.5 5.2,2.2 1.6,0.8 3.2,1.6 4.8,2.4 1.5,0.8 3.1,1.4 4.6,2.1 1.7,0.6 3.5,1.3 5.2,1.9 2.4,0.9 4.4,2.3 6.5,3.6 1.7,1.2 3.3,2.5 4.9,3.8 l -6.4,3.8 c -1.6,-1.2 -3.1,-2.5 -4.8,-3.5 -2,-1.1 -3.9,-2.4 -6.1,-3.1 -1.8,-0.6 -3.5,-1.3 -5.3,-2 -1.6,-0.7 -3.2,-1.4 -4.7,-2.3 -1.6,-0.8 -3.1,-1.6 -4.7,-2.3 -1.7,-0.7 -3.4,-1.5 -5.1,-2.1 -2,-0.8 -4.1,-1.6 -6.1,-2.3 -2.4,-0.8 -4.8,-1.6 -7.2,-2.2 -2.5,-0.7 -5,-1.3 -7.5,-1.9 -2.6,-0.6 -5.2,-1.2 -7.9,-1.7 -2.7,-0.5 -5.4,-1 -8.2,-1.4 -2.9,-0.5 -5.8,-0.9 -8.8,-1.3 -3.3,-0.4 -6.5,-0.8 -9.8,-1.1 -3.6,-0.3 -7.2,-0.6 -10.9,-0.8 -3.9,-0.2 -7.9,-0.3 -11.8,-0.4 -4.1,-0 -8.2,-0 -12.3,0 -4.2,0 -8.3,0.2 -12.5,0.4 -4.1,0.2 -8.2,0.4 -12.3,0.7 -4,0.3 -8,0.7 -11.9,1.2 -4.1,0.5 -8.2,1 -12.4,1.5 -4.3,0.6 -8.6,1.1 -12.9,1.8 -4.4,0.7 -8.8,1.4 -13.2,2.4 -4.5,1 -8.9,2 -13.4,3.1 -0,0 -0.5,0 -8,2.2 -4.4,1.3 -8.9,2.7 -13.2,4.1 -4.2,1.4 -8.3,2.7 -12.5,4.1 -3.7,1.2 -7.3,2.5 -11,3.7 -3.1,1.1 -6.2,2.1 -9.2,3.4 -2.3,1 -4.6,1.9 -6.7,3.1 -1.6,1 -3.3,1.9 -4.9,3 -0.9,0.6 -1.8,1.2 -2.7,1.9 l -7.2,-2 z" style="overflow:visible; fill:#edd400; stroke-width:2.5; stroke-linecap:round;"/>
<path d="m 585.6,393.6 c 2.4,-2.2 5.5,-1.4 8.2,-2 1.2,-0.1 2.4,-0.2 3.6,-0.3 1.4,-0.2 2.9,0 4.3,0 1.5,0.2 2.9,0.4 4.4,0.6 1.3,0.1 2.6,0.3 4,0.5 1.2,0.1 2.3,0.4 3.5,0.6 1.1,0.2 2.1,0.4 3.2,0.6 1,0.2 2.1,0.4 3.1,0.6 1.1,0.2 2.2,0.5 3.3,0.7 1,0.2 2,0.5 3,0.8 1.1,0.2 2.1,0.9 3.2,1.3 1,0.5 2,1.1 2.9,1.7 0.5,0.3 1,0.5 1.5,0.8 l -6.1,4.3 c -0.5,-0.3 -1.1,-0.6 -1.6,-0.9 -0.9,-0.5 -1.8,-1.1 -2.8,-1.4 -0.9,-0.3 -1.8,-0.7 -2.8,-0.9 -1,-0.2 -1.9,-0.5 -2.9,-0.6 -1.1,-0.2 -2.2,-0.5 -3.3,-0.7 -1,-0.2 -2,-0.3 -3.1,-0.5 -1,-0.2 -2.1,-0.4 -3.1,-0.5 -1.1,-0.2 -2.3,-0.4 -3.4,-0.5 -1.3,-0.2 -2.6,-0.3 -4,-0.5 -1.4,-0.1 -2.8,-0.4 -4.2,-0.4 -1.3,0 -2.7,-0 -4,0.2 -1.1,0.1 -2.3,0.2 -3.4,0.4 1.2,-0.3 2.3,-0.7 3.5,-1 l -7,-2.7 z" style="overflow:visible; fill:#edd400; stroke-width:2.5; stroke-linecap:round;"/>
<path d="m 619.1,373.9 c 0.2,0.8 0.4,1.5 0.6,2.3 0.2,0.9 0.6,1.8 0.8,2.6 0.3,1 0.7,1.9 1.1,2.8 0.4,1 0.9,2.1 1.3,3.1 0.4,0.9 0.8,1.8 1.2,2.7 0.3,0.7 0.7,1.4 1.1,2.1 0.4,0.7 0.9,1.3 1.4,1.9 0.5,0.6 1.1,1.2 1.6,1.8 0.5,0.6 1.1,1.1 1.6,1.7 0.5,0.6 1.1,1.1 1.7,1.7 0.5,0.5 1.2,1 1.7,1.5 0.6,0.5 1.3,0.8 1.9,1.2 0.1,0 0.2,0.2 0.4,0.3 l -6.3,4 c -0.1,-0 -0.2,-0.1 -0.3,-0.2 -0.7,-0.5 -1.5,-0.9 -2.1,-1.5 -0.6,-0.6 -1.3,-1.1 -1.9,-1.7 -0.6,-0.6 -1.2,-1.2 -1.8,-1.8 -0.5,-0.6 -1.1,-1.2 -1.6,-1.8 -0.6,-0.7 -1.2,-1.3 -1.7,-2 -0.5,-0.8 -1.1,-1.5 -1.5,-2.4 -0.4,-0.8 -0.9,-1.6 -1.2,-2.4 -0.4,-0.9 -0.8,-1.8 -1.2,-2.8 -0.4,-1.1 -0.9,-2.1 -1.3,-3.2 -0.4,-1 -0.8,-1.9 -1.1,-2.9 -0.3,-1 -0.7,-1.9 -0.9,-2.9 -0.2,-0.8 -0.4,-1.5 -0.6,-2.3 l 7.2,-1.9 z" style="overflow:visible; fill:#edd400; stroke-width:2.5; stroke-linecap:round;"/>
</g>
<text x="-1180.2" y="852.8" style="font-family:'Comic Sans MS'; font-size:21.2px; overflow:visible; fill:#729fcf; stroke-width:2.5; stroke-linecap:round;">Expand</text>
<text x="-1177.9" y="782.5" style="font-family:'Comic Sans MS'; font-size:21.2px; overflow:visible; fill:#edd400; stroke-width:2.5; stroke-linecap:round;">Factor</text>
</g>
</svg>
