<?xml version="1.0" encoding="UTF-8" standalone="no"?>
<!-- Copyright 2017 mathsisfun.com -->

<svg
   width="282.169"
   height="94.999"
   version="1.1"
   id="svg32"
   sodipodi:docname="expand-vs-factor-quadratic.svg"
   inkscape:version="1.1 (c68e22c387, 2021-05-23)"
   xmlns:inkscape="http://www.inkscape.org/namespaces/inkscape"
   xmlns:sodipodi="http://sodipodi.sourceforge.net/DTD/sodipodi-0.dtd"
   xmlns="http://www.w3.org/2000/svg"
   xmlns:svg="http://www.w3.org/2000/svg">
  <sodipodi:namedview
     id="namedview34"
     pagecolor="#ffffff"
     bordercolor="#666666"
     borderopacity="1.0"
     inkscape:pageshadow="2"
     inkscape:pageopacity="0.0"
     inkscape:pagecheckerboard="0"
     showgrid="false"
     inkscape:current-layer="svg32" />
  <defs
     id="defs2" />
  <text
     x="171.661"
     y="57.3291"
     style="font-style:italic;font-size:24px;font-family:'Trebuchet MS';overflow:visible;fill:#204a87;stroke-width:1px"
     id="text4">x  + 3x − 4</text>
  <text
     x="-2.03906"
     y="54.1291"
     style="font-style:italic;font-size:24px;font-family:'Trebuchet MS';overflow:visible;fill:#204a87;stroke-width:1px"
     id="text6">(x+4)(x-1)</text>
  <g
     transform="matrix(0.310173,0.009385,-0.009385,0.310173,-13.2951,-100.867)"
     id="g14">
    <path
       d="m 338.6,407.1 c 0.9,-0.5 1.8,-1.2 2.7,-1.7 1.6,-1.1 3.3,-2.2 4.9,-3.2 2.2,-1.4 4.5,-2.4 6.8,-3.5 3,-1.3 6.2,-2.4 9.3,-3.5 3.7,-1.3 7.3,-2.5 11,-3.8 4.2,-1.4 8.3,-2.8 12.5,-4.1 4.4,-1.5 8.8,-2.8 13.3,-4.2 6.4,-2 12.9,-3.6 19.4,-5.3 4.5,-1.1 9,-2.1 13.5,-3 4.4,-0.9 8.9,-1.6 13.3,-2.2 4.3,-0.6 8.6,-1.2 13,-1.7 4.1,-0.5 8.3,-1 12.4,-1.5 4,-0.5 8,-0.8 12,-1.1 4.1,-0.3 8.3,-0.5 12.4,-0.7 4.2,-0.2 8.4,-0.3 12.6,-0.3 4.1,0 8.2,0 12.3,0 4,0 7.9,0.2 11.9,0.5 3.7,0.2 7.3,0.5 11,0.9 3.3,0.3 6.6,0.7 9.9,1.1 3,0.4 5.9,0.9 8.9,1.3 2.8,0.4 5.5,1 8.2,1.5 2.7,0.5 5.3,1.2 8,1.8 2.5,0.6 5,1.3 7.5,2 2.5,0.7 4.9,1.5 7.3,2.3 2.1,0.7 4.2,1.6 6.3,2.5 1.8,0.7 3.5,1.5 5.2,2.2 1.6,0.8 3.2,1.6 4.8,2.4 1.5,0.8 3.1,1.4 4.6,2.1 1.7,0.6 3.5,1.3 5.2,1.9 2.4,0.9 4.4,2.3 6.5,3.6 1.7,1.2 3.3,2.5 4.9,3.8 l -6.4,3.8 c -1.6,-1.2 -3.1,-2.5 -4.8,-3.5 -2,-1.1 -3.9,-2.4 -6.1,-3.1 -1.8,-0.6 -3.5,-1.3 -5.3,-2 -1.6,-0.7 -3.2,-1.4 -4.7,-2.3 -1.6,-0.8 -3.1,-1.6 -4.7,-2.3 -1.7,-0.7 -3.4,-1.5 -5.1,-2.1 -2,-0.8 -4.1,-1.6 -6.1,-2.3 -2.4,-0.8 -4.8,-1.6 -7.2,-2.2 -2.5,-0.7 -5,-1.3 -7.5,-1.9 -2.6,-0.6 -5.2,-1.2 -7.9,-1.7 -2.7,-0.5 -5.4,-1 -8.2,-1.4 -2.9,-0.5 -5.8,-0.9 -8.8,-1.3 -3.3,-0.4 -6.5,-0.8 -9.8,-1.1 -3.6,-0.3 -7.2,-0.6 -10.9,-0.8 -3.9,-0.2 -7.9,-0.3 -11.8,-0.4 -4.1,0 -8.2,0 -12.3,0 -4.2,0 -8.3,0.2 -12.5,0.4 -4.1,0.2 -8.2,0.4 -12.3,0.7 -4,0.3 -8,0.7 -11.9,1.2 -4.1,0.5 -8.2,1 -12.4,1.5 -4.3,0.6 -8.6,1.1 -12.9,1.8 -4.4,0.7 -8.8,1.4 -13.2,2.4 -4.5,1 -8.9,2 -13.4,3.1 0,0 -0.5,0 -8,2.2 -4.4,1.3 -8.9,2.7 -13.2,4.1 -4.2,1.4 -8.3,2.7 -12.5,4.1 -3.7,1.2 -7.3,2.5 -11,3.7 -3.1,1.1 -6.2,2.1 -9.2,3.4 -2.3,1 -4.6,1.9 -6.7,3.1 -1.6,1 -3.3,1.9 -4.9,3 -0.9,0.6 -1.8,1.2 -2.7,1.9 l -7.2,-2 z"
       style="overflow:visible;fill:#729fcf;stroke-width:2.5;stroke-linecap:round"
       id="path8" />
    <path
       d="m 585.6,393.6 c 2.4,-2.2 5.5,-1.4 8.2,-2 1.2,-0.1 2.4,-0.2 3.6,-0.3 1.4,-0.2 2.9,0 4.3,0 1.5,0.2 2.9,0.4 4.4,0.6 1.3,0.1 2.6,0.3 4,0.5 1.2,0.1 2.3,0.4 3.5,0.6 1.1,0.2 2.1,0.4 3.2,0.6 1,0.2 2.1,0.4 3.1,0.6 1.1,0.2 2.2,0.5 3.3,0.7 1,0.2 2,0.5 3,0.8 1.1,0.2 2.1,0.9 3.2,1.3 1,0.5 2,1.1 2.9,1.7 0.5,0.3 1,0.5 1.5,0.8 l -6.1,4.3 c -0.5,-0.3 -1.1,-0.6 -1.6,-0.9 -0.9,-0.5 -1.8,-1.1 -2.8,-1.4 -0.9,-0.3 -1.8,-0.7 -2.8,-0.9 -1,-0.2 -1.9,-0.5 -2.9,-0.6 -1.1,-0.2 -2.2,-0.5 -3.3,-0.7 -1,-0.2 -2,-0.3 -3.1,-0.5 -1,-0.2 -2.1,-0.4 -3.1,-0.5 -1.1,-0.2 -2.3,-0.4 -3.4,-0.5 -1.3,-0.2 -2.6,-0.3 -4,-0.5 -1.4,-0.1 -2.8,-0.4 -4.2,-0.4 -1.3,0 -2.7,0 -4,0.2 -1.1,0.1 -2.3,0.2 -3.4,0.4 1.2,-0.3 2.3,-0.7 3.5,-1 l -7,-2.7 z"
       style="overflow:visible;fill:#729fcf;stroke-width:2.5;stroke-linecap:round"
       id="path10" />
    <path
       d="m 619.1,373.9 c 0.2,0.8 0.4,1.5 0.6,2.3 0.2,0.9 0.6,1.8 0.8,2.6 0.3,1 0.7,1.9 1.1,2.8 0.4,1 0.9,2.1 1.3,3.1 0.4,0.9 0.8,1.8 1.2,2.7 0.3,0.7 0.7,1.4 1.1,2.1 0.4,0.7 0.9,1.3 1.4,1.9 0.5,0.6 1.1,1.2 1.6,1.8 0.5,0.6 1.1,1.1 1.6,1.7 0.5,0.6 1.1,1.1 1.7,1.7 0.5,0.5 1.2,1 1.7,1.5 0.6,0.5 1.3,0.8 1.9,1.2 0.1,0 0.2,0.2 0.4,0.3 l -6.3,4 c -0.1,0 -0.2,-0.1 -0.3,-0.2 -0.7,-0.5 -1.5,-0.9 -2.1,-1.5 -0.6,-0.6 -1.3,-1.1 -1.9,-1.7 -0.6,-0.6 -1.2,-1.2 -1.8,-1.8 -0.5,-0.6 -1.1,-1.2 -1.6,-1.8 -0.6,-0.7 -1.2,-1.3 -1.7,-2 -0.5,-0.8 -1.1,-1.5 -1.5,-2.4 -0.4,-0.8 -0.9,-1.6 -1.2,-2.4 -0.4,-0.9 -0.8,-1.8 -1.2,-2.8 -0.4,-1.1 -0.9,-2.1 -1.3,-3.2 -0.4,-1 -0.8,-1.9 -1.1,-2.9 -0.3,-1 -0.7,-1.9 -0.9,-2.9 -0.2,-0.8 -0.4,-1.5 -0.6,-2.3 l 7.2,-1.9 z"
       style="overflow:visible;fill:#729fcf;stroke-width:2.5;stroke-linecap:round"
       id="path12" />
  </g>
  <g
     transform="matrix(-0.310173,-0.009385,0.009385,-0.310173,280.229,198.367)"
     id="g22">
    <path
       d="m 338.6,407.1 c 0.9,-0.5 1.8,-1.2 2.7,-1.7 1.6,-1.1 3.3,-2.2 4.9,-3.2 2.2,-1.4 4.5,-2.4 6.8,-3.5 3,-1.3 6.2,-2.4 9.3,-3.5 3.7,-1.3 7.3,-2.5 11,-3.8 4.2,-1.4 8.3,-2.8 12.5,-4.1 4.4,-1.5 8.8,-2.8 13.3,-4.2 6.4,-2 12.9,-3.6 19.4,-5.3 4.5,-1.1 9,-2.1 13.5,-3 4.4,-0.9 8.9,-1.6 13.3,-2.2 4.3,-0.6 8.6,-1.2 13,-1.7 4.1,-0.5 8.3,-1 12.4,-1.5 4,-0.5 8,-0.8 12,-1.1 4.1,-0.3 8.3,-0.5 12.4,-0.7 4.2,-0.2 8.4,-0.3 12.6,-0.3 4.1,0 8.2,0 12.3,0 4,0 7.9,0.2 11.9,0.5 3.7,0.2 7.3,0.5 11,0.9 3.3,0.3 6.6,0.7 9.9,1.1 3,0.4 5.9,0.9 8.9,1.3 2.8,0.4 5.5,1 8.2,1.5 2.7,0.5 5.3,1.2 8,1.8 2.5,0.6 5,1.3 7.5,2 2.5,0.7 4.9,1.5 7.3,2.3 2.1,0.7 4.2,1.6 6.3,2.5 1.8,0.7 3.5,1.5 5.2,2.2 1.6,0.8 3.2,1.6 4.8,2.4 1.5,0.8 3.1,1.4 4.6,2.1 1.7,0.6 3.5,1.3 5.2,1.9 2.4,0.9 4.4,2.3 6.5,3.6 1.7,1.2 3.3,2.5 4.9,3.8 l -6.4,3.8 c -1.6,-1.2 -3.1,-2.5 -4.8,-3.5 -2,-1.1 -3.9,-2.4 -6.1,-3.1 -1.8,-0.6 -3.5,-1.3 -5.3,-2 -1.6,-0.7 -3.2,-1.4 -4.7,-2.3 -1.6,-0.8 -3.1,-1.6 -4.7,-2.3 -1.7,-0.7 -3.4,-1.5 -5.1,-2.1 -2,-0.8 -4.1,-1.6 -6.1,-2.3 -2.4,-0.8 -4.8,-1.6 -7.2,-2.2 -2.5,-0.7 -5,-1.3 -7.5,-1.9 -2.6,-0.6 -5.2,-1.2 -7.9,-1.7 -2.7,-0.5 -5.4,-1 -8.2,-1.4 -2.9,-0.5 -5.8,-0.9 -8.8,-1.3 -3.3,-0.4 -6.5,-0.8 -9.8,-1.1 -3.6,-0.3 -7.2,-0.6 -10.9,-0.8 -3.9,-0.2 -7.9,-0.3 -11.8,-0.4 -4.1,0 -8.2,0 -12.3,0 -4.2,0 -8.3,0.2 -12.5,0.4 -4.1,0.2 -8.2,0.4 -12.3,0.7 -4,0.3 -8,0.7 -11.9,1.2 -4.1,0.5 -8.2,1 -12.4,1.5 -4.3,0.6 -8.6,1.1 -12.9,1.8 -4.4,0.7 -8.8,1.4 -13.2,2.4 -4.5,1 -8.9,2 -13.4,3.1 0,0 -0.5,0 -8,2.2 -4.4,1.3 -8.9,2.7 -13.2,4.1 -4.2,1.4 -8.3,2.7 -12.5,4.1 -3.7,1.2 -7.3,2.5 -11,3.7 -3.1,1.1 -6.2,2.1 -9.2,3.4 -2.3,1 -4.6,1.9 -6.7,3.1 -1.6,1 -3.3,1.9 -4.9,3 -0.9,0.6 -1.8,1.2 -2.7,1.9 l -7.2,-2 z"
       style="overflow:visible;fill:#edd400;stroke-width:2.5;stroke-linecap:round"
       id="path16" />
    <path
       d="m 585.6,393.6 c 2.4,-2.2 5.5,-1.4 8.2,-2 1.2,-0.1 2.4,-0.2 3.6,-0.3 1.4,-0.2 2.9,0 4.3,0 1.5,0.2 2.9,0.4 4.4,0.6 1.3,0.1 2.6,0.3 4,0.5 1.2,0.1 2.3,0.4 3.5,0.6 1.1,0.2 2.1,0.4 3.2,0.6 1,0.2 2.1,0.4 3.1,0.6 1.1,0.2 2.2,0.5 3.3,0.7 1,0.2 2,0.5 3,0.8 1.1,0.2 2.1,0.9 3.2,1.3 1,0.5 2,1.1 2.9,1.7 0.5,0.3 1,0.5 1.5,0.8 l -6.1,4.3 c -0.5,-0.3 -1.1,-0.6 -1.6,-0.9 -0.9,-0.5 -1.8,-1.1 -2.8,-1.4 -0.9,-0.3 -1.8,-0.7 -2.8,-0.9 -1,-0.2 -1.9,-0.5 -2.9,-0.6 -1.1,-0.2 -2.2,-0.5 -3.3,-0.7 -1,-0.2 -2,-0.3 -3.1,-0.5 -1,-0.2 -2.1,-0.4 -3.1,-0.5 -1.1,-0.2 -2.3,-0.4 -3.4,-0.5 -1.3,-0.2 -2.6,-0.3 -4,-0.5 -1.4,-0.1 -2.8,-0.4 -4.2,-0.4 -1.3,0 -2.7,0 -4,0.2 -1.1,0.1 -2.3,0.2 -3.4,0.4 1.2,-0.3 2.3,-0.7 3.5,-1 l -7,-2.7 z"
       style="overflow:visible;fill:#edd400;stroke-width:2.5;stroke-linecap:round"
       id="path18" />
    <path
       d="m 619.1,373.9 c 0.2,0.8 0.4,1.5 0.6,2.3 0.2,0.9 0.6,1.8 0.8,2.6 0.3,1 0.7,1.9 1.1,2.8 0.4,1 0.9,2.1 1.3,3.1 0.4,0.9 0.8,1.8 1.2,2.7 0.3,0.7 0.7,1.4 1.1,2.1 0.4,0.7 0.9,1.3 1.4,1.9 0.5,0.6 1.1,1.2 1.6,1.8 0.5,0.6 1.1,1.1 1.6,1.7 0.5,0.6 1.1,1.1 1.7,1.7 0.5,0.5 1.2,1 1.7,1.5 0.6,0.5 1.3,0.8 1.9,1.2 0.1,0 0.2,0.2 0.4,0.3 l -6.3,4 c -0.1,0 -0.2,-0.1 -0.3,-0.2 -0.7,-0.5 -1.5,-0.9 -2.1,-1.5 -0.6,-0.6 -1.3,-1.1 -1.9,-1.7 -0.6,-0.6 -1.2,-1.2 -1.8,-1.8 -0.5,-0.6 -1.1,-1.2 -1.6,-1.8 -0.6,-0.7 -1.2,-1.3 -1.7,-2 -0.5,-0.8 -1.1,-1.5 -1.5,-2.4 -0.4,-0.8 -0.9,-1.6 -1.2,-2.4 -0.4,-0.9 -0.8,-1.8 -1.2,-2.8 -0.4,-1.1 -0.9,-2.1 -1.3,-3.2 -0.4,-1 -0.8,-1.9 -1.1,-2.9 -0.3,-1 -0.7,-1.9 -0.9,-2.9 -0.2,-0.8 -0.4,-1.5 -0.6,-2.3 l 7.2,-1.9 z"
       style="overflow:visible;fill:#edd400;stroke-width:2.5;stroke-linecap:round"
       id="path20" />
  </g>
  <text
     x="106.661"
     y="12.8291"
     style="font-style:italic;font-size:17.4px;font-family:'Trebuchet MS';overflow:visible;fill:#729fcf;stroke-width:2.5;stroke-linecap:round"
     id="text24">Expand</text>
  <text
     x="104.861"
     y="94.8291"
     style="font-style:italic;font-size:17.4px;font-family:'Trebuchet MS';overflow:visible;fill:#edd400;stroke-width:2.5;stroke-linecap:round"
     id="text26">Factor</text>
  <text
     x="185.146"
     y="49.4097"
     style="font-style:italic;font-size:16.3px;font-family:'Trebuchet MS';overflow:visible;fill:#204a87;stroke-width:1px"
     id="text28">2</text>
</svg>
