<?xml version="1.0" encoding="UTF-8" standalone="no"?>
<!-- Copyright 2017 mathsisfun.com -->
<svg xmlns="http://www.w3.org/2000/svg" width="262.9" height="49.4" version="1.1">
<defs>
</defs>
<g transform="translate(733.263,-377.716)">
<text x="254.3" y="393.4" style="font-family:Verdana; font-size:40px; fill:black; stroke-width:1px;"/>
 &#160; &#160;

<text x="-734.9" y="393.4" style="font-family:'Comic Sans MS'; font-size:20px; font-style:italic; color:black; overflow:visible; fill:black; stroke-width:1px;">3 × (5 + 2)</text>
<text x="-624.1" y="393.4" style="font-family:'Comic Sans MS'; font-size:20px; font-style:italic; color:black; overflow:visible; fill:black; stroke-width:1px;">=</text>
<text x="-518.9" y="393.4" style="font-family:'Comic Sans MS'; font-size:20px; font-style:italic; color:black; overflow:visible; fill:#0084c8; stroke-width:1px;">3 × 2</text>
<path d="m -730.7,398.9 c 0,0 0.3,11.3 11.6,11.9 11.3,0.5 29.5,-14.1 29.5,-14.1" style="fill:none; stroke:#f57900; stroke-width:2;"/>
<path d="m -712.3,409.7 c 0,0 32.8,13.6 67.3,13.6 34.6,0 70.4,-23.7 70.4,-23.7" style="fill:none; stroke:#f57900; stroke-width:2;"/>
<path d="m -731,399.1 c 0,0 34.7,9.8 54.3,9.3 19.5,-0.4 22.6,-10.6 22.6,-10.6" style="fill:none; stroke:#0084c8; stroke-width:2;"/>
<path d="m -665.9,407.2 c 0,0 59.8,18.9 101.9,18.9 42.1,0 72.7,-26.1 72.7,-26.1" style="fill:none; stroke:#0084c8; stroke-width:2;"/>
<text x="-592.9" y="393.4" style="font-family:'Comic Sans MS'; font-size:20px; font-style:italic; color:black; overflow:visible; fill:#f57900; stroke-width:1px;">3 × 5</text>
<text x="-534.9" y="393.4" style="font-family:'Comic Sans MS'; font-size:20px; font-style:italic; color:black; overflow:visible; fill:black; stroke-width:1px;">+</text>
<path d="m -592.7,399.5 h 46.8" style="color:black; overflow:visible; fill:none; stroke:#f57900; stroke-width:2;"/>
<path d="m -518.7,399.5 h 48.3" style="color:black; overflow:visible; fill:none; stroke:#0084c8; stroke-width:2;"/>
</g>
</svg>
