<?xml version="1.0" encoding="UTF-8" standalone="no"?>
<!-- Created with Inkscape (http://www.inkscape.org/) -->

<svg
   width="125.81"
   height="118.889"
   id="svg3580"
   version="1.1"
   inkscape:version="1.1.2 (0a00cf5339, 2022-02-04, custom)"
   sodipodi:docname="exponent-to-logarithm-gen.svg"
   xmlns:inkscape="http://www.inkscape.org/namespaces/inkscape"
   xmlns:sodipodi="http://sodipodi.sourceforge.net/DTD/sodipodi-0.dtd"
   xmlns="http://www.w3.org/2000/svg"
   xmlns:svg="http://www.w3.org/2000/svg"
   xmlns:rdf="http://www.w3.org/1999/02/22-rdf-syntax-ns#"
   xmlns:cc="http://creativecommons.org/ns#"
   xmlns:dc="http://purl.org/dc/elements/1.1/">
  <sodipodi:namedview
     id="base"
     pagecolor="#ffffff"
     bordercolor="#666666"
     borderopacity="1.0"
     inkscape:pageopacity="0.0"
     inkscape:pageshadow="2"
     inkscape:zoom="0.35104215"
     inkscape:cx="928.94262"
     inkscape:cy="850.04398"
     inkscape:document-units="px"
     inkscape:current-layer="layer1"
     showgrid="false"
     inkscape:window-width="1920"
     inkscape:window-height="1005"
     inkscape:window-x="1911"
     inkscape:window-y="-9"
     inkscape:window-maximized="1"
     showborder="true"
     showguides="true"
     inkscape:guide-bbox="true"
     inkscape:pagecheckerboard="0" />
  <defs
     id="defs3582">
    <marker
       style="overflow:visible"
       id="Arrow1Mstart"
       refX="0"
       refY="0"
       orient="auto"
       inkscape:stockid="Arrow1Mstart">
      <path
         transform="matrix(0.4,0,0,0.4,4,0)"
         style="fill-rule:evenodd;stroke:#000000;stroke-width:1pt;marker-start:none"
         d="M 0,0 5,-5 -12.5,0 5,5 Z"
         id="path5272"
         inkscape:connector-curvature="0" />
    </marker>
  </defs>
  <metadata
     id="metadata3585">
    <rdf:RDF>
      <cc:Work
         rdf:about="">
        <dc:format>image/svg+xml</dc:format>
        <dc:type
           rdf:resource="http://purl.org/dc/dcmitype/StillImage" />
      </cc:Work>
    </rdf:RDF>
  </metadata>
  <g
     id="layer1"
     inkscape:groupmode="layer"
     inkscape:label="Layer 1"
     transform="translate(-474.969,-611.154)">
    <text
       xml:space="preserve"
       style="font-style:normal;font-variant:normal;font-weight:normal;font-stretch:normal;line-height:0%;font-family:'Trebuchet MS';-inkscape-font-specification:'Trebuchet MS';text-indent:0;text-align:center;text-decoration:none;text-decoration-line:none;letter-spacing:normal;word-spacing:normal;text-transform:none;writing-mode:lr-tb;direction:ltr;text-anchor:middle;display:inline;overflow:visible;visibility:visible;fill:#0197fd;fill-opacity:1;fill-rule:nonzero;stroke:none;stroke-width:3;marker:none;enable-background:accumulate"
       x="492.547"
       y="672.091"
       id="text4289"
       transform="scale(1.05227,0.950327)"><tspan
         sodipodi:role="line"
         id="tspan4291"
         x="492.547"
         y="672.091"
         style="font-style:normal;font-variant:normal;font-weight:normal;font-stretch:normal;font-size:32.9502px;line-height:125%;font-family:'Trebuchet MS';-inkscape-font-specification:'Trebuchet MS';text-align:center;writing-mode:lr-tb;text-anchor:middle;fill:#0197fd;stroke:none">a</tspan></text>
    <text
       xml:space="preserve"
       style="font-style:normal;font-variant:normal;font-weight:normal;font-stretch:normal;line-height:0%;font-family:'Trebuchet MS';-inkscape-font-specification:'Trebuchet MS';text-indent:0;text-align:center;text-decoration:none;text-decoration-line:none;letter-spacing:normal;word-spacing:normal;text-transform:none;writing-mode:lr-tb;direction:ltr;text-anchor:middle;display:inline;overflow:visible;visibility:visible;fill:#013397;fill-opacity:1;fill-rule:nonzero;stroke:none;stroke-width:3;marker:none;enable-background:accumulate"
       x="508.887"
       y="658.72"
       id="text4293"
       transform="scale(1.05227,0.950327)"><tspan
         sodipodi:role="line"
         id="tspan4295"
         x="508.887"
         y="658.72"
         style="font-style:normal;font-variant:normal;font-weight:normal;font-stretch:normal;font-size:29.8719px;line-height:125%;font-family:'Trebuchet MS';-inkscape-font-specification:'Trebuchet MS';text-align:center;writing-mode:lr-tb;text-anchor:middle;fill:#013397;stroke:none">x</tspan></text>
    <text
       xml:space="preserve"
       style="font-style:normal;font-variant:normal;font-weight:normal;font-stretch:normal;line-height:0%;font-family:'Trebuchet MS';-inkscape-font-specification:'Trebuchet MS';text-indent:0;text-align:center;text-decoration:none;text-decoration-line:none;letter-spacing:normal;word-spacing:normal;text-transform:none;writing-mode:lr-tb;direction:ltr;text-anchor:middle;display:inline;overflow:visible;visibility:visible;fill:#f57900;fill-opacity:1;fill-rule:nonzero;stroke:none;stroke-width:3;marker:none;enable-background:accumulate"
       x="534.003"
       y="669.507"
       id="text4297"
       transform="scale(1.05227,0.950327)"><tspan
         sodipodi:role="line"
         id="tspan4299"
         x="534.003"
         y="669.507"
         style="font-style:normal;font-variant:normal;font-weight:normal;font-stretch:normal;font-size:32.9502px;line-height:125%;font-family:'Trebuchet MS';-inkscape-font-specification:'Trebuchet MS';text-align:center;writing-mode:lr-tb;text-anchor:middle;fill:#f57900;stroke:none">=</tspan></text>
    <text
       xml:space="preserve"
       style="font-style:normal;font-variant:normal;font-weight:normal;font-stretch:normal;line-height:0%;font-family:'Trebuchet MS';-inkscape-font-specification:'Trebuchet MS';text-indent:0;text-align:center;text-decoration:none;text-decoration-line:none;letter-spacing:normal;word-spacing:normal;text-transform:none;writing-mode:lr-tb;direction:ltr;text-anchor:middle;display:inline;overflow:visible;visibility:visible;fill:#eec73e;fill-opacity:1;fill-rule:nonzero;stroke:none;stroke-width:3;marker:none;enable-background:accumulate"
       x="561.34"
       y="669.339"
       id="text4301"
       transform="scale(1.05227,0.950327)"><tspan
         sodipodi:role="line"
         id="tspan4303"
         x="561.34"
         y="669.339"
         style="font-style:normal;font-variant:normal;font-weight:normal;font-stretch:normal;font-size:32.9502px;line-height:125%;font-family:'Trebuchet MS';-inkscape-font-specification:'Trebuchet MS';text-align:center;writing-mode:lr-tb;text-anchor:middle;fill:#eec73e;stroke:none">y</tspan></text>
    <text
       id="text4305"
       y="718.304"
       x="473.035"
       style="color:#000000;font-style:normal;font-variant:normal;font-weight:normal;font-stretch:normal;line-height:0%;font-family:'Trebuchet MS';-inkscape-font-specification:'Trebuchet MS';text-indent:0;text-align:start;text-decoration:none;text-decoration-line:none;letter-spacing:normal;word-spacing:normal;text-transform:none;writing-mode:lr-tb;direction:ltr;text-anchor:start;display:inline;overflow:visible;visibility:visible;fill:#f57900;fill-opacity:1;fill-rule:nonzero;stroke:none;stroke-width:3;marker:none;enable-background:accumulate"
       xml:space="preserve"><tspan
         y="718.304"
         x="473.035"
         id="tspan4307"
         sodipodi:role="line"
         style="font-size:26.4097px;line-height:1.21;fill:#f57900">log</tspan></text>
    <text
       id="text4309"
       y="719.893"
       x="564.381"
       style="color:#000000;font-style:normal;font-variant:normal;font-weight:normal;font-stretch:normal;line-height:0%;font-family:'Trebuchet MS';-inkscape-font-specification:'Trebuchet MS';text-indent:0;text-align:start;text-decoration:none;text-decoration-line:none;letter-spacing:normal;word-spacing:normal;text-transform:none;writing-mode:lr-tb;direction:ltr;text-anchor:start;display:inline;overflow:visible;visibility:visible;fill:#f57900;fill-opacity:1;fill-rule:nonzero;stroke:none;stroke-width:3;marker:none;enable-background:accumulate"
       xml:space="preserve"><tspan
         y="719.893"
         x="564.381"
         id="tspan4311"
         sodipodi:role="line"
         style="font-size:26.4097px;line-height:1.21;fill:#f57900">=</tspan></text>
    <text
       id="text4313"
       y="719.802"
       x="521.925"
       style="color:#000000;font-style:normal;font-variant:normal;font-weight:normal;font-stretch:normal;line-height:0%;font-family:'Trebuchet MS';-inkscape-font-specification:'Trebuchet MS';text-indent:0;text-align:start;text-decoration:none;text-decoration-line:none;letter-spacing:normal;word-spacing:normal;text-transform:none;writing-mode:lr-tb;direction:ltr;text-anchor:start;display:inline;overflow:visible;visibility:visible;fill:#f57900;fill-opacity:1;fill-rule:nonzero;stroke:none;stroke-width:3;marker:none;enable-background:accumulate"
       xml:space="preserve"><tspan
         y="719.802"
         x="521.925"
         id="tspan4315"
         sodipodi:role="line"
         style="font-size:26.4097px;line-height:1.21;fill:#f57900">(</tspan></text>
    <text
       xml:space="preserve"
       style="color:#000000;font-style:normal;font-variant:normal;font-weight:normal;font-stretch:normal;line-height:0%;font-family:'Trebuchet MS';-inkscape-font-specification:'Trebuchet MS';text-indent:0;text-align:start;text-decoration:none;text-decoration-line:none;letter-spacing:normal;word-spacing:normal;text-transform:none;writing-mode:lr-tb;direction:ltr;text-anchor:start;display:inline;overflow:visible;visibility:visible;fill:#f57900;fill-opacity:1;fill-rule:nonzero;stroke:none;stroke-width:3;marker:none;enable-background:accumulate"
       x="549.593"
       y="720.432"
       id="text4317"><tspan
         sodipodi:role="line"
         id="tspan4319"
         x="549.593"
         y="720.432"
         style="font-size:26.4097px;line-height:1.21;fill:#f57900">)</tspan></text>
    <text
       xml:space="preserve"
       style="font-style:normal;font-variant:normal;font-weight:normal;font-stretch:normal;line-height:0%;font-family:'Trebuchet MS';-inkscape-font-specification:'Trebuchet MS';text-indent:0;text-align:center;text-decoration:none;text-decoration-line:none;letter-spacing:normal;word-spacing:normal;text-transform:none;writing-mode:lr-tb;direction:ltr;text-anchor:middle;display:inline;overflow:visible;visibility:visible;fill:#0197fd;fill-opacity:1;fill-rule:nonzero;stroke:none;stroke-width:3;marker:none;enable-background:accumulate"
       x="489.855"
       y="767.973"
       id="text4321"
       transform="scale(1.05227,0.950327)"><tspan
         sodipodi:role="line"
         id="tspan4323"
         x="489.855"
         y="767.973"
         style="font-style:normal;font-variant:normal;font-weight:normal;font-stretch:normal;font-size:23.4618px;line-height:125%;font-family:'Trebuchet MS';-inkscape-font-specification:'Trebuchet MS';text-align:center;writing-mode:lr-tb;text-anchor:middle;fill:#0197fd;stroke:none">a</tspan></text>
    <text
       xml:space="preserve"
       style="font-style:normal;font-variant:normal;font-weight:normal;font-stretch:normal;line-height:0%;font-family:'Trebuchet MS';-inkscape-font-specification:'Trebuchet MS';text-indent:0;text-align:center;text-decoration:none;text-decoration-line:none;letter-spacing:normal;word-spacing:normal;text-transform:none;writing-mode:lr-tb;direction:ltr;text-anchor:middle;display:inline;overflow:visible;visibility:visible;fill:#eec73e;fill-opacity:1;fill-rule:nonzero;stroke:none;stroke-width:3;marker:none;enable-background:accumulate"
       x="514.911"
       y="758.935"
       id="text4325"
       transform="scale(1.05227,0.950327)"><tspan
         sodipodi:role="line"
         id="tspan4327"
         x="514.911"
         y="758.935"
         style="font-style:normal;font-variant:normal;font-weight:normal;font-stretch:normal;font-size:30.3438px;line-height:125%;font-family:'Trebuchet MS';-inkscape-font-specification:'Trebuchet MS';text-align:center;writing-mode:lr-tb;text-anchor:middle;fill:#eec73e;stroke:none">y</tspan></text>
    <text
       xml:space="preserve"
       style="font-style:normal;font-variant:normal;font-weight:normal;font-stretch:normal;line-height:0%;font-family:'Trebuchet MS';-inkscape-font-specification:'Trebuchet MS';text-indent:0;text-align:center;text-decoration:none;text-decoration-line:none;letter-spacing:normal;word-spacing:normal;text-transform:none;writing-mode:lr-tb;direction:ltr;text-anchor:middle;display:inline;overflow:visible;visibility:visible;fill:#013397;fill-opacity:1;fill-rule:nonzero;stroke:none;stroke-width:3;marker:none;enable-background:accumulate"
       x="563.574"
       y="756.499"
       id="text4329"
       transform="scale(1.05227,0.950327)"><tspan
         sodipodi:role="line"
         id="tspan4331"
         x="563.574"
         y="756.499"
         style="font-style:normal;font-variant:normal;font-weight:normal;font-stretch:normal;font-size:30.097px;line-height:125%;font-family:'Trebuchet MS';-inkscape-font-specification:'Trebuchet MS';text-align:center;writing-mode:lr-tb;text-anchor:middle;fill:#013397;stroke:none">x</tspan></text>
    <path
       inkscape:connector-curvature="0"
       style="color:#000000;display:inline;overflow:visible;visibility:visible;fill:#d76cff;fill-opacity:1;fill-rule:nonzero;stroke:none;stroke-width:3;marker:none;enable-background:accumulate"
       id="path4333"
       d="m 518.892,651.608 c 0,0.236 -0.01,0.471 -0.02,0.706 -0.01,0.257 -0.02,0.515 -0.02,0.772 0,0.325 -0.01,0.651 -0.02,0.976 0,0.334 -0.01,0.667 -0.02,1 0,0.384 -0.02,0.767 -0.03,1.15 -0.01,0.406 -0.03,0.81 -0.05,1.215 -0.02,0.397 -0.04,0.794 -0.06,1.191 -0.02,0.35 -0.03,0.7 -0.05,1.051 -0.02,0.388 -0.03,0.776 -0.05,1.163 -0.02,0.419 -0.04,0.838 -0.06,1.257 -0.02,0.386 -0.03,0.771 -0.05,1.156 -0.01,0.33 -0.03,0.66 -0.04,0.99 -0.01,0.314 -0.02,0.628 -0.04,0.943 -0.01,0.345 -0.02,0.691 -0.03,1.037 0,0.316 -0.02,0.631 -0.02,0.946 0,0.275 -0.01,0.55 -0.02,0.826 0,0.3 -0.01,0.601 -0.02,0.902 0,0.355 -0.01,0.709 -0.02,1.064 0,0.349 -0.01,0.697 -0.02,1.046 0,0.353 -0.01,0.707 -0.02,1.06 -0.01,0.428 -0.03,0.856 -0.04,1.283 -0.02,0.391 -0.03,0.781 -0.05,1.171 -0.02,0.4 -0.03,0.8 -0.05,1.199 -0.02,0.375 -0.03,0.75 -0.05,1.125 -0.01,0.334 -0.03,0.669 -0.04,1.004 -0.01,0.329 -0.02,0.658 -0.03,0.987 -0.01,0.326 -0.02,0.653 -0.03,0.98 0,0.331 -0.01,0.663 -0.02,0.995 0,0.289 0,0.578 -0.01,0.867 0,0.223 0,0.446 0,0.669 0,0.233 0,0.467 0,0.701 0,0.197 0,0.395 0,0.592 0,0.158 0,0.317 0,0.475 0,0.02 0,0.03 0,0.05 0,0 -4.069,0.94 -4.069,0.94 v 0 c -0.02,-0.272 -0.03,-0.546 -0.04,-0.821 0,-0.191 0,-0.383 0,-0.574 0,-0.226 10e-4,-0.452 0,-0.678 10e-4,-0.243 10e-4,-0.486 0,-0.729 0,-0.28 0,-0.56 0.01,-0.84 0,-0.289 0.01,-0.578 0.02,-0.867 0,-0.346 0.01,-0.691 0.02,-1.037 0,-0.375 0.02,-0.749 0.03,-1.123 0.01,-0.356 0.02,-0.711 0.04,-1.067 0.01,-0.355 0.03,-0.709 0.04,-1.064 0.02,-0.375 0.03,-0.751 0.05,-1.126 0.02,-0.379 0.03,-0.757 0.05,-1.136 0.02,-0.395 0.03,-0.789 0.05,-1.183 0.01,-0.362 0.03,-0.725 0.04,-1.087 0,-0.345 0.01,-0.69 0.02,-1.035 0,-0.337 0.02,-0.674 0.02,-1.01 0,-0.349 0.01,-0.697 0.01,-1.046 0,-0.329 0.01,-0.658 0.02,-0.987 0,-0.291 0.01,-0.582 0.02,-0.873 0.01,-0.317 0.02,-0.633 0.03,-0.949 0.01,-0.366 0.02,-0.733 0.03,-1.099 0.01,-0.355 0.02,-0.71 0.04,-1.065 0.02,-0.339 0.03,-0.678 0.05,-1.018 0.02,-0.388 0.04,-0.776 0.06,-1.164 0.02,-0.413 0.04,-0.825 0.05,-1.238 0.02,-0.388 0.03,-0.775 0.05,-1.163 0.02,-0.382 0.03,-0.763 0.06,-1.145 0.02,-0.377 0.04,-0.753 0.06,-1.13 0.02,-0.353 0.03,-0.705 0.04,-1.059 0.01,-0.301 0.02,-0.603 0.02,-0.905 0,-0.344 0.01,-0.688 0.02,-1.031 0,-0.347 0.01,-0.693 0.02,-1.039 0,-0.305 0.01,-0.609 0.02,-0.914 0,-0.163 0,-0.327 0.01,-0.491 0,0 4.1,0.203 4.1,0.203 z" />
    <path
       inkscape:connector-curvature="0"
       style="color:#000000;display:inline;overflow:visible;visibility:visible;fill:#d76cff;fill-opacity:1;fill-rule:nonzero;stroke:none;stroke-width:3;marker:none;enable-background:accumulate"
       id="path4335"
       d="m 512.692,677.313 c 0.101,0.146 0.192,0.299 0.281,0.453 0.11,0.192 0.211,0.388 0.309,0.586 0.101,0.205 0.197,0.413 0.294,0.62 0.1,0.211 0.198,0.423 0.294,0.635 0.117,0.256 0.224,0.517 0.329,0.778 0.1,0.25 0.196,0.502 0.293,0.753 0.08,0.214 0.165,0.429 0.246,0.644 0.08,0.192 0.149,0.384 0.219,0.578 0.09,0.244 0.164,0.492 0.237,0.741 0.07,0.238 0.138,0.477 0.207,0.715 0.07,0.23 0.137,0.46 0.205,0.689 0.07,0.243 0.144,0.486 0.213,0.729 0.07,0.25 0.136,0.502 0.201,0.753 0.06,0.238 0.12,0.476 0.18,0.714 0.05,0.214 0.11,0.429 0.164,0.644 0.05,0.212 0.103,0.424 0.149,0.638 0.05,0.225 0.09,0.452 0.129,0.679 0.04,0.217 0.07,0.434 0.109,0.651 0.03,0.183 0.06,0.366 0.09,0.549 0.03,0.192 0.06,0.385 0.09,0.578 0.02,0.172 0.05,0.344 0.07,0.517 0.02,0.143 0.04,0.286 0.06,0.429 0.02,0.12 0.03,0.24 0.05,0.36 0.01,0.101 0.03,0.201 0.04,0.302 0,0.06 0.02,0.117 0.03,0.174 0,0.04 0.02,0.106 0.02,0.146 -0.256,-1.476 -1.542,-0.381 -3.85,-0.524 -0.02,0.02 -0.04,0.1 -0.02,0.03 0.02,-0.09 0.05,-0.171 0.07,-0.256 0.04,-0.134 0.07,-0.268 0.1,-0.401 0.03,-0.125 0.06,-0.249 0.09,-0.375 0.03,-0.139 0.06,-0.278 0.09,-0.418 0.03,-0.159 0.07,-0.318 0.1,-0.477 0.04,-0.175 0.07,-0.349 0.111,-0.524 0.05,-0.212 0.101,-0.422 0.158,-0.632 0.06,-0.222 0.127,-0.443 0.194,-0.664 0.07,-0.226 0.14,-0.452 0.209,-0.678 0.07,-0.224 0.139,-0.448 0.208,-0.672 0.07,-0.223 0.136,-0.445 0.204,-0.668 0.08,-0.254 0.16,-0.507 0.246,-0.759 0.08,-0.241 0.166,-0.479 0.251,-0.717 0.08,-0.21 0.151,-0.421 0.227,-0.631 0.07,-0.187 0.133,-0.374 0.2,-0.561 0.07,-0.2 0.149,-0.398 0.228,-0.596 0.08,-0.193 0.155,-0.386 0.235,-0.579 0.07,-0.179 0.15,-0.357 0.226,-0.536 0.07,-0.162 0.139,-0.324 0.209,-0.486 0.07,-0.17 0.15,-0.34 0.227,-0.509 0.06,-0.139 0.126,-0.278 0.188,-0.418 0.05,-0.122 0.107,-0.244 0.161,-0.366 0.07,-0.152 0.139,-0.3 0.216,-0.447 0.105,-0.201 0.224,-0.394 0.347,-0.584 0.117,-0.179 0.238,-0.355 0.36,-0.531 0.09,-0.135 0.186,-0.269 0.279,-0.404 0.08,-0.124 0.166,-0.249 0.251,-0.372 0.104,-0.149 0.212,-0.295 0.32,-0.44 0.1,-0.134 0.203,-0.267 0.306,-0.399 0.08,-0.09 0.149,-0.19 0.222,-0.286 0.07,-0.09 0.132,-0.173 0.198,-0.259 0.06,-0.07 0.112,-0.147 0.168,-0.22 0.05,-0.06 0.09,-0.123 0.141,-0.185 0.04,-0.05 0.08,-0.103 0.118,-0.155 -0.03,0.04 -0.05,0.07 -0.08,0.111 0,0 3.579,2.012 3.579,2.012 v 0 c -0.08,0.132 -0.155,0.262 -0.249,0.382 -0.04,0.05 -0.08,0.103 -0.12,0.154 -0.05,0.06 -0.1,0.122 -0.143,0.183 -0.06,0.07 -0.113,0.146 -0.17,0.218 -0.07,0.09 -0.135,0.175 -0.203,0.262 -0.08,0.108 -0.169,0.217 -0.256,0.323 -0.08,0.102 -0.162,0.204 -0.239,0.308 -0.08,0.102 -0.153,0.206 -0.226,0.311 -0.08,0.123 -0.166,0.248 -0.252,0.37 -0.1,0.14 -0.196,0.279 -0.294,0.419 -0.09,0.131 -0.184,0.262 -0.271,0.397 -0.05,0.08 -0.105,0.169 -0.15,0.258 -0.04,0.08 -0.08,0.156 -0.113,0.235 -0.06,0.125 -0.113,0.25 -0.169,0.375 -0.07,0.148 -0.135,0.296 -0.203,0.444 -0.07,0.145 -0.133,0.291 -0.197,0.438 -0.07,0.157 -0.135,0.314 -0.203,0.471 -0.07,0.162 -0.141,0.325 -0.209,0.488 -0.07,0.172 -0.143,0.346 -0.211,0.52 -0.06,0.161 -0.126,0.322 -0.185,0.485 -0.07,0.186 -0.135,0.371 -0.203,0.557 -0.07,0.206 -0.15,0.413 -0.227,0.619 -0.08,0.216 -0.156,0.431 -0.229,0.648 -0.07,0.211 -0.14,0.422 -0.204,0.634 -0.07,0.227 -0.137,0.454 -0.207,0.681 -0.07,0.223 -0.138,0.445 -0.207,0.668 -0.07,0.22 -0.135,0.44 -0.201,0.66 -0.05,0.183 -0.108,0.366 -0.157,0.551 -0.04,0.149 -0.08,0.3 -0.11,0.452 -0.03,0.159 -0.07,0.318 -0.1,0.478 -0.03,0.158 -0.07,0.317 -0.1,0.475 -0.03,0.151 -0.06,0.302 -0.09,0.453 -0.03,0.157 -0.07,0.313 -0.108,0.469 -0.04,0.147 -0.07,0.294 -0.106,0.441 -0.03,0.131 -0.06,0.262 -0.1,0.393 -0.05,0.177 -0.108,0.353 -0.191,0.519 -2.691,-0.07 -3.681,1.088 -3.938,-0.503 0,-0.03 -0.02,-0.126 -0.02,-0.13 -0.01,-0.1 -0.03,-0.198 -0.04,-0.296 -0.01,-0.101 -0.03,-0.202 -0.04,-0.303 -0.02,-0.12 -0.03,-0.241 -0.05,-0.361 -0.02,-0.143 -0.04,-0.286 -0.06,-0.428 -0.02,-0.164 -0.04,-0.327 -0.07,-0.49 -0.02,-0.165 -0.05,-0.33 -0.07,-0.495 -0.03,-0.188 -0.06,-0.376 -0.09,-0.564 -0.03,-0.194 -0.06,-0.387 -0.09,-0.58 -0.03,-0.178 -0.06,-0.356 -0.102,-0.532 -0.04,-0.175 -0.08,-0.35 -0.121,-0.524 -0.05,-0.211 -0.103,-0.422 -0.156,-0.633 -0.06,-0.229 -0.113,-0.458 -0.172,-0.687 -0.06,-0.221 -0.114,-0.443 -0.177,-0.663 -0.06,-0.225 -0.129,-0.45 -0.197,-0.674 -0.07,-0.239 -0.143,-0.479 -0.214,-0.719 -0.07,-0.228 -0.131,-0.457 -0.199,-0.685 -0.05,-0.171 -0.106,-0.342 -0.168,-0.51 -0.07,-0.182 -0.135,-0.362 -0.204,-0.543 -0.08,-0.207 -0.153,-0.414 -0.231,-0.621 -0.09,-0.226 -0.171,-0.452 -0.26,-0.677 -0.08,-0.204 -0.167,-0.408 -0.261,-0.609 -0.09,-0.199 -0.186,-0.398 -0.28,-0.597 -0.08,-0.174 -0.163,-0.349 -0.249,-0.521 -0.06,-0.117 -0.121,-0.234 -0.189,-0.346 -0.04,-0.06 -0.07,-0.119 -0.113,-0.176 0,0 3.361,-2.349 3.361,-2.349 z" />
    <path
       inkscape:connector-curvature="0"
       style="color:#000000;display:inline;overflow:visible;visibility:visible;fill:#d76cff;fill-opacity:1;fill-rule:nonzero;stroke:none;stroke-width:3;marker:none;enable-background:accumulate"
       id="path4337"
       d="m 519.981,666.586 c -0.101,-0.147 -0.192,-0.3 -0.281,-0.454 -0.11,-0.191 -0.211,-0.388 -0.31,-0.585 -0.1,-0.205 -0.196,-0.413 -0.293,-0.62 -0.1,-0.211 -0.198,-0.423 -0.294,-0.636 -0.117,-0.256 -0.224,-0.516 -0.329,-0.777 -0.1,-0.251 -0.196,-0.502 -0.293,-0.754 -0.08,-0.214 -0.165,-0.428 -0.246,-0.643 -0.07,-0.192 -0.149,-0.385 -0.219,-0.579 -0.09,-0.244 -0.164,-0.491 -0.237,-0.74 -0.07,-0.239 -0.138,-0.477 -0.207,-0.716 -0.07,-0.229 -0.137,-0.459 -0.205,-0.689 -0.07,-0.242 -0.144,-0.485 -0.213,-0.729 -0.07,-0.25 -0.137,-0.501 -0.201,-0.753 -0.06,-0.237 -0.12,-0.475 -0.18,-0.713 -0.06,-0.215 -0.11,-0.43 -0.164,-0.645 -0.05,-0.211 -0.103,-0.424 -0.149,-0.637 -0.05,-0.225 -0.09,-0.453 -0.129,-0.68 -0.04,-0.216 -0.07,-0.433 -0.109,-0.65 -0.03,-0.183 -0.06,-0.367 -0.09,-0.55 -0.03,-0.192 -0.06,-0.384 -0.09,-0.577 -0.03,-0.172 -0.05,-0.345 -0.07,-0.517 -0.02,-0.143 -0.04,-0.286 -0.06,-0.429 -0.02,-0.12 -0.03,-0.24 -0.05,-0.36 -0.01,-0.101 -0.03,-0.202 -0.04,-0.303 0,-0.06 -0.02,-0.116 -0.03,-0.174 0,-0.04 -0.02,-0.105 -0.02,-0.145 0.255,1.476 1.542,0.38 3.85,0.523 0.02,-0.02 0.04,-0.1 0.02,-0.03 -0.02,0.09 -0.05,0.171 -0.07,0.256 -0.04,0.133 -0.07,0.267 -0.1,0.401 -0.03,0.124 -0.06,0.249 -0.09,0.374 -0.03,0.139 -0.06,0.279 -0.09,0.418 -0.03,0.159 -0.07,0.318 -0.1,0.477 -0.04,0.175 -0.07,0.35 -0.111,0.524 -0.05,0.213 -0.101,0.423 -0.158,0.632 -0.06,0.223 -0.127,0.444 -0.194,0.664 -0.07,0.226 -0.14,0.452 -0.209,0.679 -0.07,0.224 -0.139,0.448 -0.208,0.672 -0.07,0.222 -0.136,0.445 -0.204,0.667 -0.08,0.255 -0.16,0.508 -0.246,0.76 -0.08,0.24 -0.166,0.479 -0.251,0.717 -0.08,0.21 -0.151,0.42 -0.227,0.63 -0.07,0.187 -0.133,0.375 -0.2,0.562 -0.07,0.2 -0.149,0.398 -0.228,0.595 -0.08,0.194 -0.155,0.387 -0.235,0.58 -0.07,0.179 -0.15,0.357 -0.226,0.535 -0.07,0.162 -0.139,0.324 -0.209,0.486 -0.07,0.171 -0.15,0.34 -0.227,0.509 -0.06,0.139 -0.126,0.279 -0.188,0.418 -0.05,0.122 -0.107,0.245 -0.161,0.367 -0.07,0.151 -0.139,0.3 -0.216,0.447 -0.105,0.201 -0.224,0.393 -0.347,0.584 -0.117,0.179 -0.238,0.355 -0.36,0.531 -0.09,0.134 -0.187,0.268 -0.279,0.403 -0.08,0.124 -0.166,0.249 -0.251,0.372 -0.104,0.149 -0.212,0.295 -0.32,0.441 -0.1,0.134 -0.203,0.267 -0.306,0.398 -0.08,0.1 -0.149,0.191 -0.222,0.286 -0.07,0.09 -0.133,0.173 -0.199,0.26 -0.06,0.07 -0.111,0.147 -0.167,0.22 -0.05,0.06 -0.09,0.123 -0.141,0.184 -0.04,0.05 -0.08,0.104 -0.118,0.155 0.03,-0.03 0.05,-0.07 0.07,-0.11 0,0 -3.578,-2.012 -3.578,-2.012 v 0 c 0.08,-0.132 0.155,-0.263 0.249,-0.383 0.04,-0.05 0.08,-0.102 0.12,-0.153 0.05,-0.06 0.1,-0.123 0.143,-0.184 0.06,-0.07 0.113,-0.145 0.17,-0.218 0.07,-0.09 0.135,-0.174 0.203,-0.261 0.09,-0.109 0.169,-0.217 0.256,-0.324 0.08,-0.101 0.162,-0.203 0.239,-0.308 0.08,-0.102 0.153,-0.205 0.226,-0.31 0.08,-0.123 0.166,-0.248 0.252,-0.37 0.1,-0.141 0.196,-0.28 0.294,-0.419 0.09,-0.131 0.184,-0.263 0.271,-0.397 0.05,-0.08 0.105,-0.169 0.15,-0.258 0.04,-0.08 0.08,-0.156 0.113,-0.236 0.06,-0.125 0.113,-0.249 0.169,-0.374 0.07,-0.149 0.135,-0.296 0.203,-0.444 0.07,-0.146 0.133,-0.292 0.197,-0.439 0.07,-0.157 0.135,-0.314 0.203,-0.471 0.07,-0.162 0.14,-0.324 0.209,-0.487 0.07,-0.173 0.143,-0.346 0.211,-0.521 0.06,-0.161 0.126,-0.322 0.185,-0.485 0.07,-0.185 0.135,-0.371 0.203,-0.556 0.07,-0.207 0.15,-0.413 0.226,-0.619 0.08,-0.216 0.157,-0.431 0.229,-0.649 0.07,-0.21 0.141,-0.421 0.205,-0.633 0.07,-0.227 0.137,-0.454 0.207,-0.681 0.07,-0.223 0.138,-0.446 0.207,-0.669 0.07,-0.22 0.135,-0.439 0.201,-0.66 0.05,-0.183 0.108,-0.366 0.157,-0.55 0.04,-0.15 0.08,-0.3 0.11,-0.452 0.04,-0.159 0.07,-0.319 0.1,-0.478 0.03,-0.159 0.07,-0.317 0.1,-0.476 0.03,-0.151 0.06,-0.301 0.1,-0.452 0.03,-0.157 0.07,-0.314 0.108,-0.47 0.04,-0.146 0.07,-0.294 0.106,-0.44 0.03,-0.131 0.06,-0.263 0.1,-0.393 0.05,-0.178 0.108,-0.354 0.191,-0.519 2.691,0.07 3.681,-1.089 3.938,0.503 0,0.03 0.02,0.125 0.02,0.13 0.02,0.1 0.03,0.197 0.04,0.296 0.01,0.101 0.03,0.202 0.04,0.303 0.01,0.12 0.03,0.24 0.05,0.36 0.02,0.143 0.04,0.286 0.06,0.429 0.02,0.163 0.04,0.326 0.07,0.489 0.02,0.165 0.05,0.331 0.08,0.495 0.03,0.188 0.06,0.376 0.09,0.565 0.03,0.193 0.06,0.387 0.1,0.58 0.03,0.177 0.06,0.355 0.102,0.532 0.04,0.175 0.08,0.349 0.121,0.523 0.05,0.212 0.103,0.423 0.156,0.633 0.06,0.229 0.113,0.459 0.172,0.687 0.06,0.222 0.114,0.443 0.177,0.663 0.06,0.226 0.129,0.45 0.197,0.674 0.07,0.24 0.143,0.479 0.213,0.719 0.07,0.229 0.132,0.458 0.2,0.686 0.05,0.171 0.106,0.342 0.168,0.509 0.07,0.182 0.135,0.363 0.204,0.544 0.08,0.207 0.153,0.414 0.231,0.62 0.09,0.226 0.171,0.452 0.26,0.677 0.08,0.205 0.167,0.409 0.261,0.609 0.09,0.2 0.186,0.399 0.28,0.598 0.08,0.174 0.163,0.348 0.249,0.52 0.06,0.118 0.121,0.234 0.189,0.347 0.04,0.06 0.07,0.119 0.113,0.175 0,0 -3.362,2.35 -3.362,2.35 z" />
    <g
       id="g4339"
       transform="translate(-125.966,-21.34)">
      <path
         inkscape:connector-curvature="0"
         style="color:#000000;display:inline;overflow:visible;visibility:visible;fill:#d76cff;fill-opacity:1;fill-rule:nonzero;stroke:none;stroke-width:3;marker:none;enable-background:accumulate"
         id="path4341"
         d="m 671.637,673.111 c -0.01,0.116 -0.02,0.233 -0.03,0.349 -0.01,0.141 -0.02,0.281 -0.03,0.422 0,0.174 0,0.348 0,0.523 -10e-4,0.2 0,0.399 0,0.599 0,0.227 0.02,0.454 0.04,0.681 0.02,0.245 0.06,0.489 0.109,0.732 0.05,0.244 0.125,0.484 0.209,0.723 0.09,0.253 0.207,0.503 0.329,0.751 0.13,0.26 0.282,0.515 0.443,0.768 0.167,0.261 0.36,0.515 0.563,0.766 0.212,0.261 0.455,0.512 0.706,0.759 0.283,0.275 0.59,0.54 0.905,0.801 0.34,0.283 0.705,0.554 1.08,0.819 0.394,0.28 0.818,0.541 1.251,0.796 0.476,0.28 0.979,0.54 1.489,0.795 0.564,0.28 1.147,0.544 1.734,0.803 0.626,0.275 1.265,0.537 1.908,0.794 0.672,0.268 1.354,0.526 2.038,0.783 0.719,0.269 1.441,0.535 2.161,0.803 0.751,0.277 1.495,0.562 2.236,0.849 0.735,0.287 1.464,0.58 2.193,0.872 0.738,0.296 1.474,0.594 2.208,0.894 0.766,0.313 1.524,0.634 2.277,0.958 0.767,0.331 1.523,0.672 2.274,1.016 0.739,0.339 1.467,0.688 2.188,1.042 0.714,0.351 1.408,0.718 2.092,1.092 0.683,0.376 1.344,0.768 1.997,1.164 0.632,0.385 1.248,0.78 1.856,1.179 0.582,0.381 1.146,0.773 1.699,1.17 0.53,0.382 1.037,0.775 1.536,1.173 0.47,0.376 0.922,0.761 1.37,1.148 0.396,0.341 0.785,0.686 1.172,1.032 0.346,0.308 0.686,0.618 1.013,0.934 0.336,0.322 0.629,0.661 0.904,1.004 0.258,0.33 0.481,0.669 0.696,1.01 0.191,0.306 0.369,0.616 0.537,0.927 0.157,0.293 0.301,0.588 0.443,0.884 0.125,0.265 0.243,0.53 0.363,0.796 0.1,0.216 0.195,0.432 0.296,0.648 0.09,0.189 0.179,0.379 0.269,0.568 0.08,0.162 0.153,0.323 0.229,0.485 0.07,0.136 0.13,0.272 0.195,0.407 0.06,0.129 0.126,0.258 0.19,0.386 0.06,0.113 0.112,0.226 0.168,0.339 0.05,0.09 0.1,0.189 0.142,0.284 0.04,0.07 0.07,0.146 0.108,0.219 0,0 -5.262,0.964 -5.262,0.964 v 0 c -0.03,-0.06 -0.06,-0.12 -0.09,-0.18 -0.05,-0.1 -0.09,-0.19 -0.137,-0.285 -0.06,-0.114 -0.109,-0.227 -0.164,-0.34 -0.06,-0.134 -0.13,-0.268 -0.194,-0.403 -0.07,-0.147 -0.139,-0.295 -0.208,-0.443 -0.07,-0.16 -0.146,-0.32 -0.219,-0.48 -0.09,-0.192 -0.175,-0.384 -0.263,-0.577 -0.104,-0.228 -0.205,-0.457 -0.305,-0.687 -0.107,-0.244 -0.213,-0.489 -0.325,-0.733 -0.122,-0.258 -0.246,-0.514 -0.381,-0.769 -0.139,-0.26 -0.286,-0.518 -0.444,-0.774 -0.154,-0.247 -0.313,-0.494 -0.497,-0.733 -0.186,-0.235 -0.384,-0.466 -0.609,-0.686 -0.288,-0.284 -0.59,-0.561 -0.894,-0.837 -0.363,-0.331 -0.728,-0.661 -1.101,-0.987 -0.406,-0.353 -0.814,-0.705 -1.24,-1.048 -0.442,-0.354 -0.891,-0.703 -1.361,-1.043 -0.497,-0.36 -1.003,-0.715 -1.527,-1.06 -0.557,-0.368 -1.122,-0.732 -1.702,-1.086 -0.586,-0.357 -1.179,-0.709 -1.793,-1.047 -0.614,-0.336 -1.237,-0.666 -1.878,-0.982 -0.671,-0.332 -1.349,-0.658 -2.038,-0.975 -0.708,-0.325 -1.42,-0.646 -2.143,-0.957 -0.718,-0.309 -1.44,-0.614 -2.171,-0.911 -0.722,-0.294 -1.448,-0.587 -2.174,-0.878 -0.707,-0.283 -1.415,-0.567 -2.128,-0.845 -0.709,-0.276 -1.422,-0.548 -2.141,-0.814 -0.728,-0.27 -1.458,-0.538 -2.185,-0.809 -0.729,-0.272 -1.455,-0.547 -2.172,-0.832 -0.711,-0.284 -1.417,-0.573 -2.109,-0.876 -0.675,-0.297 -1.345,-0.599 -1.992,-0.919 -0.626,-0.311 -1.244,-0.629 -1.829,-0.971 -0.554,-0.325 -1.097,-0.659 -1.602,-1.016 -0.468,-0.33 -0.924,-0.667 -1.35,-1.019 -0.401,-0.332 -0.794,-0.667 -1.153,-1.017 -0.348,-0.341 -0.682,-0.687 -0.975,-1.048 -0.276,-0.34 -0.538,-0.686 -0.766,-1.04 -0.214,-0.337 -0.417,-0.676 -0.589,-1.022 -0.167,-0.338 -0.324,-0.678 -0.448,-1.023 -0.119,-0.34 -0.226,-0.682 -0.296,-1.028 -0.07,-0.321 -0.118,-0.643 -0.148,-0.966 -0.03,-0.271 -0.05,-0.542 -0.06,-0.813 0,-0.218 -0.01,-0.436 -0.01,-0.654 -10e-4,-0.198 -10e-4,-0.395 0,-0.593 0,-0.175 0.01,-0.35 0.02,-0.525 0,-0.102 0.01,-0.203 0.01,-0.305 0,0 5.479,0.125 5.479,0.125 z" />
      <path
         inkscape:connector-curvature="0"
         style="color:#000000;display:inline;overflow:visible;visibility:visible;fill:#d76cff;fill-opacity:1;fill-rule:nonzero;stroke:none;stroke-width:3;marker:none;enable-background:accumulate"
         id="path4343"
         d="m 723.082,702.59 c -0.1,0.124 -0.204,0.247 -0.308,0.37 -0.128,0.148 -0.251,0.298 -0.374,0.448 -0.105,0.126 -0.204,0.253 -0.301,0.381 -0.101,0.137 -0.197,0.275 -0.293,0.413 -0.132,0.19 -0.266,0.38 -0.399,0.57 -0.133,0.188 -0.26,0.377 -0.382,0.568 -0.113,0.175 -0.216,0.353 -0.319,0.531 -0.107,0.191 -0.213,0.383 -0.321,0.574 -0.125,0.22 -0.256,0.44 -0.385,0.659 -0.122,0.207 -0.239,0.415 -0.351,0.624 -0.103,0.193 -0.196,0.388 -0.284,0.583 -0.09,0.199 -0.166,0.4 -0.241,0.601 -0.08,0.206 -0.144,0.414 -0.211,0.621 -0.06,0.18 -0.107,0.361 -0.149,0.543 -0.04,0.175 -0.07,0.35 -0.09,0.525 -0.03,0.179 -0.05,0.359 -0.07,0.538 -0.02,0.15 -0.04,0.3 -0.06,0.45 -0.01,0.125 -0.03,0.25 -0.04,0.374 -0.01,0.136 -0.02,0.272 -0.02,0.407 0,0.124 -0.01,0.248 -0.02,0.372 0,0.105 -0.01,0.21 -0.02,0.314 0,0.09 0,0.176 -0.01,0.264 0,0.07 0,0.145 -0.01,0.217 0,0.113 -0.03,0.226 -0.05,0.338 -0.03,0.12 -0.08,0.238 -0.14,0.354 -0.28,0.521 -0.843,0.796 -1.611,1.037 -1.782,-0.03 -2.456,0.09 -3.301,-0.83 -0.07,-0.08 -0.135,-0.172 -0.199,-0.259 -0.03,-0.04 -0.06,-0.07 -0.09,-0.111 -0.06,-0.07 -0.126,-0.146 -0.188,-0.219 -0.07,-0.08 -0.141,-0.164 -0.215,-0.245 -0.07,-0.08 -0.142,-0.151 -0.216,-0.225 -0.09,-0.09 -0.189,-0.186 -0.284,-0.279 -0.113,-0.11 -0.227,-0.219 -0.342,-0.328 -0.106,-0.1 -0.215,-0.199 -0.326,-0.297 -0.111,-0.1 -0.226,-0.192 -0.34,-0.287 -0.135,-0.112 -0.268,-0.224 -0.4,-0.337 -0.13,-0.111 -0.261,-0.223 -0.394,-0.333 -0.113,-0.09 -0.23,-0.188 -0.347,-0.281 -0.126,-0.1 -0.251,-0.197 -0.376,-0.295 -0.109,-0.09 -0.221,-0.171 -0.335,-0.254 -0.101,-0.07 -0.208,-0.142 -0.316,-0.211 -0.141,-0.09 -0.286,-0.174 -0.43,-0.261 -0.179,-0.106 -0.355,-0.214 -0.532,-0.321 -0.16,-0.1 -0.323,-0.194 -0.489,-0.289 -0.165,-0.1 -0.337,-0.187 -0.508,-0.278 -0.194,-0.104 -0.389,-0.206 -0.583,-0.309 -0.195,-0.103 -0.389,-0.206 -0.583,-0.31 -0.174,-0.09 -0.348,-0.187 -0.522,-0.28 -0.163,-0.09 -0.326,-0.17 -0.489,-0.255 -0.157,-0.08 -0.315,-0.164 -0.472,-0.246 -0.133,-0.07 -0.266,-0.139 -0.4,-0.207 -0.123,-0.06 -0.245,-0.125 -0.368,-0.187 -0.125,-0.06 -0.249,-0.124 -0.373,-0.187 -0.107,-0.06 -0.214,-0.109 -0.321,-0.163 -0.09,-0.05 -0.176,-0.09 -0.263,-0.133 -0.09,-0.04 -0.18,-0.09 -0.269,-0.137 -0.08,-0.04 -0.15,-0.08 -0.224,-0.117 -0.06,-0.03 -0.118,-0.06 -0.176,-0.09 -0.05,-0.03 -0.1,-0.05 -0.148,-0.08 -0.04,-0.02 -0.08,-0.04 -0.124,-0.06 -0.09,-0.05 -0.07,-0.04 0.01,0 0.02,0.01 0,0 0,0 0,0 3.023,-2.635 3.023,-2.635 v 0 c 0.03,0.01 0.06,0.03 0.09,0.04 0.08,0.04 0.151,0.07 0.223,0.113 0.04,0.02 0.08,0.04 0.123,0.07 0.05,0.03 0.1,0.05 0.146,0.08 0.06,0.03 0.116,0.06 0.174,0.09 0.06,0.03 0.128,0.07 0.192,0.103 0.07,0.04 0.144,0.07 0.214,0.11 0.09,0.05 0.187,0.09 0.278,0.143 0.104,0.05 0.209,0.107 0.313,0.161 0.115,0.06 0.23,0.118 0.347,0.176 0.137,0.07 0.273,0.139 0.41,0.21 0.148,0.08 0.296,0.155 0.444,0.233 0.155,0.08 0.31,0.164 0.466,0.245 0.173,0.09 0.346,0.181 0.518,0.273 0.179,0.1 0.357,0.192 0.535,0.288 0.182,0.1 0.366,0.197 0.55,0.295 0.199,0.106 0.4,0.211 0.6,0.317 0.216,0.116 0.432,0.232 0.642,0.352 0.2,0.114 0.397,0.23 0.591,0.348 0.167,0.101 0.334,0.203 0.503,0.303 0.184,0.109 0.367,0.217 0.546,0.33 0.192,0.121 0.381,0.245 0.56,0.374 0.156,0.114 0.308,0.229 0.457,0.346 0.13,0.102 0.26,0.205 0.39,0.307 0.147,0.117 0.292,0.234 0.434,0.353 0.135,0.114 0.269,0.228 0.403,0.343 0.127,0.106 0.254,0.213 0.382,0.319 0.141,0.117 0.281,0.235 0.417,0.354 0.142,0.125 0.282,0.252 0.416,0.381 0.124,0.116 0.248,0.234 0.371,0.351 0.114,0.109 0.228,0.218 0.339,0.327 0.112,0.112 0.223,0.224 0.326,0.339 0.09,0.1 0.179,0.199 0.266,0.299 0.07,0.08 0.136,0.152 0.204,0.229 0.07,0.08 0.145,0.171 0.212,0.259 0,0.01 0.135,0.175 0.05,0.07 -0.714,-0.753 -1.592,-0.657 -3.014,-0.642 -0.675,0.214 -1.263,0.486 -1.502,0.955 -0.03,0.05 -0.06,0.131 -0.07,0.174 0,0.03 0,0.03 0,0.05 0,-0.07 0.01,-0.133 0.01,-0.2 0,-0.09 0.01,-0.176 0.02,-0.263 0,-0.105 0.01,-0.209 0.02,-0.314 0,-0.124 0.02,-0.249 0.02,-0.373 0.01,-0.147 0.02,-0.294 0.03,-0.441 0.01,-0.16 0.03,-0.321 0.05,-0.481 0.02,-0.159 0.05,-0.319 0.07,-0.478 0.03,-0.185 0.05,-0.37 0.08,-0.554 0.04,-0.23 0.07,-0.459 0.126,-0.687 0.06,-0.24 0.122,-0.48 0.202,-0.718 0.08,-0.236 0.157,-0.473 0.244,-0.708 0.09,-0.25 0.19,-0.5 0.3,-0.748 0.111,-0.246 0.229,-0.491 0.36,-0.733 0.128,-0.237 0.261,-0.473 0.398,-0.708 0.12,-0.205 0.24,-0.411 0.354,-0.617 0.112,-0.2 0.221,-0.401 0.335,-0.601 0.125,-0.216 0.253,-0.431 0.391,-0.644 0.141,-0.216 0.286,-0.432 0.434,-0.646 0.129,-0.185 0.256,-0.371 0.381,-0.557 0.118,-0.175 0.236,-0.35 0.364,-0.522 0.122,-0.161 0.249,-0.322 0.382,-0.48 0.124,-0.149 0.247,-0.297 0.368,-0.447 0.07,-0.09 0.149,-0.187 0.218,-0.283 0,0 4.667,1.389 4.667,1.389 z" />
      <path
         inkscape:connector-curvature="0"
         style="color:#000000;display:inline;overflow:visible;visibility:visible;fill:#d76cff;fill-opacity:1;fill-rule:nonzero;stroke:none;stroke-width:3;marker:none;enable-background:accumulate"
         id="path4345"
         d="m 660.748,682.641 c 0.1,-0.125 0.204,-0.247 0.308,-0.37 0.127,-0.149 0.251,-0.299 0.374,-0.448 0.104,-0.126 0.204,-0.253 0.301,-0.381 0.1,-0.137 0.196,-0.275 0.293,-0.413 0.132,-0.19 0.266,-0.38 0.399,-0.57 0.132,-0.188 0.259,-0.378 0.382,-0.568 0.113,-0.176 0.216,-0.353 0.318,-0.531 0.108,-0.191 0.214,-0.383 0.322,-0.574 0.125,-0.221 0.255,-0.44 0.385,-0.66 0.122,-0.206 0.239,-0.414 0.35,-0.624 0.103,-0.192 0.197,-0.387 0.285,-0.583 0.09,-0.199 0.166,-0.399 0.241,-0.6 0.07,-0.207 0.144,-0.414 0.21,-0.622 0.06,-0.179 0.108,-0.361 0.15,-0.542 0.04,-0.175 0.07,-0.35 0.09,-0.526 0.03,-0.179 0.05,-0.358 0.07,-0.537 0.02,-0.15 0.04,-0.3 0.06,-0.45 0.01,-0.125 0.03,-0.25 0.04,-0.375 0.01,-0.135 0.02,-0.271 0.02,-0.407 0,-0.124 0.01,-0.248 0.02,-0.372 0,-0.104 0.01,-0.209 0.02,-0.313 0,-0.09 0,-0.176 0.01,-0.264 0,-0.07 0,-0.145 0.01,-0.217 0,-0.114 0.03,-0.226 0.05,-0.338 0.03,-0.121 0.08,-0.238 0.14,-0.354 0.28,-0.522 0.843,-0.796 1.611,-1.037 1.782,0.03 2.455,-0.09 3.301,0.83 0.07,0.08 0.134,0.172 0.199,0.259 0.03,0.04 0.06,0.07 0.09,0.111 0.06,0.07 0.125,0.145 0.188,0.218 0.07,0.08 0.141,0.165 0.215,0.246 0.07,0.08 0.142,0.151 0.216,0.225 0.09,0.09 0.188,0.186 0.284,0.279 0.113,0.109 0.227,0.219 0.342,0.327 0.106,0.101 0.214,0.2 0.326,0.298 0.111,0.1 0.225,0.191 0.339,0.287 0.135,0.111 0.268,0.224 0.401,0.337 0.13,0.111 0.261,0.222 0.394,0.333 0.113,0.09 0.229,0.188 0.347,0.281 0.125,0.1 0.251,0.196 0.376,0.295 0.109,0.09 0.221,0.171 0.335,0.254 0.101,0.07 0.208,0.142 0.316,0.21 0.141,0.09 0.285,0.175 0.43,0.262 0.178,0.106 0.355,0.214 0.532,0.321 0.16,0.1 0.323,0.194 0.488,0.289 0.166,0.1 0.337,0.186 0.508,0.278 0.194,0.103 0.39,0.206 0.584,0.309 0.195,0.102 0.389,0.206 0.582,0.31 0.174,0.09 0.348,0.186 0.523,0.28 0.162,0.09 0.326,0.17 0.489,0.255 0.157,0.08 0.315,0.163 0.471,0.246 0.134,0.07 0.267,0.139 0.401,0.207 0.123,0.06 0.245,0.125 0.368,0.187 0.125,0.06 0.249,0.124 0.372,0.187 0.108,0.05 0.215,0.109 0.322,0.163 0.09,0.05 0.175,0.09 0.263,0.132 0.09,0.05 0.18,0.09 0.269,0.137 0.08,0.04 0.15,0.08 0.224,0.117 0.06,0.03 0.117,0.06 0.176,0.09 0.05,0.03 0.1,0.05 0.148,0.08 0.04,0.02 0.08,0.04 0.124,0.06 0.09,0.05 0.07,0.04 -0.02,0 -0.02,-0.01 10e-4,0 0,0 0,0 -3.022,2.635 -3.022,2.635 v 0 c -0.03,-0.01 -0.06,-0.03 -0.09,-0.04 -0.08,-0.04 -0.151,-0.07 -0.223,-0.114 -0.04,-0.02 -0.08,-0.04 -0.123,-0.07 -0.05,-0.03 -0.1,-0.05 -0.146,-0.08 -0.06,-0.03 -0.116,-0.06 -0.174,-0.09 -0.06,-0.03 -0.128,-0.07 -0.192,-0.102 -0.07,-0.04 -0.144,-0.07 -0.214,-0.11 -0.09,-0.05 -0.187,-0.1 -0.279,-0.143 -0.104,-0.05 -0.208,-0.107 -0.312,-0.161 -0.116,-0.06 -0.231,-0.118 -0.347,-0.177 -0.137,-0.07 -0.274,-0.139 -0.41,-0.209 -0.149,-0.08 -0.296,-0.155 -0.444,-0.233 -0.155,-0.08 -0.311,-0.164 -0.467,-0.245 -0.172,-0.09 -0.346,-0.181 -0.517,-0.273 -0.179,-0.1 -0.357,-0.192 -0.535,-0.288 -0.183,-0.1 -0.366,-0.197 -0.55,-0.295 -0.2,-0.106 -0.4,-0.212 -0.6,-0.318 -0.216,-0.115 -0.432,-0.231 -0.642,-0.351 -0.2,-0.114 -0.397,-0.23 -0.591,-0.348 -0.168,-0.101 -0.334,-0.203 -0.503,-0.303 -0.184,-0.109 -0.367,-0.218 -0.546,-0.33 -0.192,-0.121 -0.381,-0.245 -0.56,-0.374 -0.156,-0.114 -0.308,-0.229 -0.457,-0.346 -0.131,-0.103 -0.26,-0.205 -0.39,-0.307 -0.147,-0.117 -0.292,-0.234 -0.434,-0.353 -0.135,-0.114 -0.27,-0.228 -0.404,-0.343 -0.126,-0.107 -0.253,-0.213 -0.382,-0.319 -0.14,-0.117 -0.28,-0.235 -0.416,-0.354 -0.142,-0.126 -0.282,-0.252 -0.416,-0.381 -0.125,-0.117 -0.248,-0.234 -0.371,-0.351 -0.115,-0.109 -0.228,-0.218 -0.339,-0.328 -0.112,-0.111 -0.223,-0.224 -0.326,-0.339 -0.09,-0.1 -0.179,-0.198 -0.266,-0.298 -0.07,-0.08 -0.137,-0.153 -0.204,-0.229 -0.07,-0.08 -0.146,-0.171 -0.212,-0.259 0,-0.01 -0.135,-0.176 -0.05,-0.07 0.713,0.752 1.591,0.657 3.014,0.642 0.675,-0.214 1.263,-0.486 1.501,-0.955 0.03,-0.05 0.06,-0.131 0.07,-0.174 0,-0.03 0,-0.03 0,-0.05 0,0.07 -0.01,0.133 -0.01,0.2 0,0.09 -0.01,0.175 -0.02,0.263 0,0.105 -0.01,0.209 -0.02,0.314 0,0.124 -0.02,0.249 -0.02,0.373 -0.01,0.147 -0.02,0.294 -0.03,0.441 -0.01,0.16 -0.03,0.321 -0.05,0.481 -0.02,0.159 -0.05,0.318 -0.07,0.477 -0.03,0.185 -0.06,0.37 -0.08,0.555 -0.04,0.229 -0.07,0.458 -0.127,0.686 -0.06,0.241 -0.121,0.48 -0.201,0.718 -0.08,0.237 -0.157,0.474 -0.244,0.709 -0.09,0.25 -0.19,0.5 -0.3,0.747 -0.112,0.246 -0.229,0.491 -0.36,0.734 -0.128,0.237 -0.261,0.473 -0.398,0.708 -0.12,0.205 -0.24,0.411 -0.355,0.617 -0.111,0.2 -0.22,0.401 -0.334,0.6 -0.125,0.216 -0.253,0.432 -0.391,0.645 -0.141,0.216 -0.286,0.431 -0.435,0.646 -0.128,0.185 -0.255,0.371 -0.38,0.557 -0.118,0.175 -0.236,0.349 -0.364,0.521 -0.122,0.162 -0.249,0.322 -0.383,0.48 -0.123,0.149 -0.246,0.298 -0.368,0.448 -0.07,0.09 -0.149,0.187 -0.217,0.283 0,0 -4.667,-1.39 -4.667,-1.39 z" />
    </g>
    <g
       id="g4347"
       transform="matrix(-1,0,0,1,1257.86,-21.34)">
      <path
         d="m 671.637,673.111 c -0.01,0.116 -0.02,0.233 -0.03,0.349 -0.01,0.141 -0.02,0.281 -0.03,0.422 0,0.174 0,0.348 0,0.523 -10e-4,0.2 0,0.399 0,0.599 0,0.227 0.02,0.454 0.04,0.681 0.02,0.245 0.06,0.489 0.109,0.732 0.05,0.244 0.125,0.484 0.209,0.723 0.09,0.253 0.207,0.503 0.329,0.751 0.13,0.26 0.282,0.515 0.443,0.768 0.167,0.261 0.36,0.515 0.563,0.766 0.212,0.261 0.455,0.512 0.706,0.759 0.283,0.275 0.59,0.54 0.905,0.801 0.34,0.283 0.705,0.554 1.08,0.819 0.394,0.28 0.818,0.541 1.251,0.796 0.476,0.28 0.979,0.54 1.489,0.795 0.564,0.28 1.147,0.544 1.734,0.803 0.626,0.275 1.265,0.537 1.908,0.794 0.672,0.268 1.354,0.526 2.038,0.783 0.719,0.269 1.441,0.535 2.161,0.803 0.751,0.277 1.495,0.562 2.236,0.849 0.735,0.287 1.464,0.58 2.193,0.872 0.738,0.296 1.474,0.594 2.208,0.894 0.766,0.313 1.524,0.634 2.277,0.958 0.767,0.331 1.523,0.672 2.274,1.016 0.739,0.339 1.467,0.688 2.188,1.042 0.714,0.351 1.408,0.718 2.092,1.092 0.683,0.376 1.344,0.768 1.997,1.164 0.632,0.385 1.248,0.78 1.856,1.179 0.582,0.381 1.146,0.773 1.699,1.17 0.53,0.382 1.037,0.775 1.536,1.173 0.47,0.376 0.922,0.761 1.37,1.148 0.396,0.341 0.785,0.686 1.172,1.032 0.346,0.308 0.686,0.618 1.013,0.934 0.336,0.322 0.629,0.661 0.904,1.004 0.258,0.33 0.481,0.669 0.696,1.01 0.191,0.306 0.369,0.616 0.537,0.927 0.157,0.293 0.301,0.588 0.443,0.884 0.125,0.265 0.243,0.53 0.363,0.796 0.1,0.216 0.195,0.432 0.296,0.648 0.09,0.189 0.179,0.379 0.269,0.568 0.08,0.162 0.153,0.323 0.229,0.485 0.07,0.136 0.13,0.272 0.195,0.407 0.06,0.129 0.126,0.258 0.19,0.386 0.06,0.113 0.112,0.226 0.168,0.339 0.05,0.09 0.1,0.189 0.142,0.284 0.04,0.07 0.07,0.146 0.108,0.219 0,0 -5.262,0.964 -5.262,0.964 v 0 c -0.03,-0.06 -0.06,-0.12 -0.09,-0.18 -0.05,-0.1 -0.09,-0.19 -0.137,-0.285 -0.06,-0.114 -0.109,-0.227 -0.164,-0.34 -0.06,-0.134 -0.13,-0.268 -0.194,-0.403 -0.07,-0.147 -0.139,-0.295 -0.208,-0.443 -0.07,-0.16 -0.146,-0.32 -0.219,-0.48 -0.09,-0.192 -0.175,-0.384 -0.263,-0.577 -0.104,-0.228 -0.205,-0.457 -0.305,-0.687 -0.107,-0.244 -0.213,-0.489 -0.325,-0.733 -0.122,-0.258 -0.246,-0.514 -0.381,-0.769 -0.139,-0.26 -0.286,-0.518 -0.444,-0.774 -0.154,-0.247 -0.313,-0.494 -0.497,-0.733 -0.186,-0.235 -0.384,-0.466 -0.609,-0.686 -0.288,-0.284 -0.59,-0.561 -0.894,-0.837 -0.363,-0.331 -0.728,-0.661 -1.101,-0.987 -0.406,-0.353 -0.814,-0.705 -1.24,-1.048 -0.442,-0.354 -0.891,-0.703 -1.361,-1.043 -0.497,-0.36 -1.003,-0.715 -1.527,-1.06 -0.557,-0.368 -1.122,-0.732 -1.702,-1.086 -0.586,-0.357 -1.179,-0.709 -1.793,-1.047 -0.614,-0.336 -1.237,-0.666 -1.878,-0.982 -0.671,-0.332 -1.349,-0.658 -2.038,-0.975 -0.708,-0.325 -1.42,-0.646 -2.143,-0.957 -0.718,-0.309 -1.44,-0.614 -2.171,-0.911 -0.722,-0.294 -1.448,-0.587 -2.174,-0.878 -0.707,-0.283 -1.415,-0.567 -2.128,-0.845 -0.709,-0.276 -1.422,-0.548 -2.141,-0.814 -0.728,-0.27 -1.458,-0.538 -2.185,-0.809 -0.729,-0.272 -1.455,-0.547 -2.172,-0.832 -0.711,-0.284 -1.417,-0.573 -2.109,-0.876 -0.675,-0.297 -1.345,-0.599 -1.992,-0.919 -0.626,-0.311 -1.244,-0.629 -1.829,-0.971 -0.554,-0.325 -1.097,-0.659 -1.602,-1.016 -0.468,-0.33 -0.924,-0.667 -1.35,-1.019 -0.401,-0.332 -0.794,-0.667 -1.153,-1.017 -0.348,-0.341 -0.682,-0.687 -0.975,-1.048 -0.276,-0.34 -0.538,-0.686 -0.766,-1.04 -0.214,-0.337 -0.417,-0.676 -0.589,-1.022 -0.167,-0.338 -0.324,-0.678 -0.448,-1.023 -0.119,-0.34 -0.226,-0.682 -0.296,-1.028 -0.07,-0.321 -0.118,-0.643 -0.148,-0.966 -0.03,-0.271 -0.05,-0.542 -0.06,-0.813 0,-0.218 -0.01,-0.436 -0.01,-0.654 -10e-4,-0.198 -10e-4,-0.395 0,-0.593 0,-0.175 0.01,-0.35 0.02,-0.525 0,-0.102 0.01,-0.203 0.01,-0.305 0,0 5.479,0.125 5.479,0.125 z"
         id="path4349"
         style="color:#000000;display:inline;overflow:visible;visibility:visible;fill:#d76cff;fill-opacity:1;fill-rule:nonzero;stroke:none;stroke-width:3;marker:none;enable-background:accumulate"
         inkscape:connector-curvature="0" />
      <path
         d="m 723.082,702.59 c -0.1,0.124 -0.204,0.247 -0.308,0.37 -0.128,0.148 -0.251,0.298 -0.374,0.448 -0.105,0.126 -0.204,0.253 -0.301,0.381 -0.101,0.137 -0.197,0.275 -0.293,0.413 -0.132,0.19 -0.266,0.38 -0.399,0.57 -0.133,0.188 -0.26,0.377 -0.382,0.568 -0.113,0.175 -0.216,0.353 -0.319,0.531 -0.107,0.191 -0.213,0.383 -0.321,0.574 -0.125,0.22 -0.256,0.44 -0.385,0.659 -0.122,0.207 -0.239,0.415 -0.351,0.624 -0.103,0.193 -0.196,0.388 -0.284,0.583 -0.09,0.199 -0.166,0.4 -0.241,0.601 -0.08,0.206 -0.144,0.414 -0.211,0.621 -0.06,0.18 -0.107,0.361 -0.149,0.543 -0.04,0.175 -0.07,0.35 -0.09,0.525 -0.03,0.179 -0.05,0.359 -0.07,0.538 -0.02,0.15 -0.04,0.3 -0.06,0.45 -0.01,0.125 -0.03,0.25 -0.04,0.374 -0.01,0.136 -0.02,0.272 -0.02,0.407 0,0.124 -0.01,0.248 -0.02,0.372 0,0.105 -0.01,0.21 -0.02,0.314 0,0.09 0,0.176 -0.01,0.264 0,0.07 0,0.145 -0.01,0.217 0,0.113 -0.03,0.226 -0.05,0.338 -0.03,0.12 -0.08,0.238 -0.14,0.354 -0.28,0.521 -0.843,0.796 -1.611,1.037 -1.782,-0.03 -2.456,0.09 -3.301,-0.83 -0.07,-0.08 -0.135,-0.172 -0.199,-0.259 -0.03,-0.04 -0.06,-0.07 -0.09,-0.111 -0.06,-0.07 -0.126,-0.146 -0.188,-0.219 -0.07,-0.08 -0.141,-0.164 -0.215,-0.245 -0.07,-0.08 -0.142,-0.151 -0.216,-0.225 -0.09,-0.09 -0.189,-0.186 -0.284,-0.279 -0.113,-0.11 -0.227,-0.219 -0.342,-0.328 -0.106,-0.1 -0.215,-0.199 -0.326,-0.297 -0.111,-0.1 -0.226,-0.192 -0.34,-0.287 -0.135,-0.112 -0.268,-0.224 -0.4,-0.337 -0.13,-0.111 -0.261,-0.223 -0.394,-0.333 -0.113,-0.09 -0.23,-0.188 -0.347,-0.281 -0.126,-0.1 -0.251,-0.197 -0.376,-0.295 -0.109,-0.09 -0.221,-0.171 -0.335,-0.254 -0.101,-0.07 -0.208,-0.142 -0.316,-0.211 -0.141,-0.09 -0.286,-0.174 -0.43,-0.261 -0.179,-0.106 -0.355,-0.214 -0.532,-0.321 -0.16,-0.1 -0.323,-0.194 -0.489,-0.289 -0.165,-0.1 -0.337,-0.187 -0.508,-0.278 -0.194,-0.104 -0.389,-0.206 -0.583,-0.309 -0.195,-0.103 -0.389,-0.206 -0.583,-0.31 -0.174,-0.09 -0.348,-0.187 -0.522,-0.28 -0.163,-0.09 -0.326,-0.17 -0.489,-0.255 -0.157,-0.08 -0.315,-0.164 -0.472,-0.246 -0.133,-0.07 -0.266,-0.139 -0.4,-0.207 -0.123,-0.06 -0.245,-0.125 -0.368,-0.187 -0.125,-0.06 -0.249,-0.124 -0.373,-0.187 -0.107,-0.06 -0.214,-0.109 -0.321,-0.163 -0.09,-0.05 -0.176,-0.09 -0.263,-0.133 -0.09,-0.04 -0.18,-0.09 -0.269,-0.137 -0.08,-0.04 -0.15,-0.08 -0.224,-0.117 -0.06,-0.03 -0.118,-0.06 -0.176,-0.09 -0.05,-0.03 -0.1,-0.05 -0.148,-0.08 -0.04,-0.02 -0.08,-0.04 -0.124,-0.06 -0.09,-0.05 -0.07,-0.04 0.01,0 0.02,0.01 0,0 0,0 0,0 3.023,-2.635 3.023,-2.635 v 0 c 0.03,0.01 0.06,0.03 0.09,0.04 0.08,0.04 0.151,0.07 0.223,0.113 0.04,0.02 0.08,0.04 0.123,0.07 0.05,0.03 0.1,0.05 0.146,0.08 0.06,0.03 0.116,0.06 0.174,0.09 0.06,0.03 0.128,0.07 0.192,0.103 0.07,0.04 0.144,0.07 0.214,0.11 0.09,0.05 0.187,0.09 0.278,0.143 0.104,0.05 0.209,0.107 0.313,0.161 0.115,0.06 0.23,0.118 0.347,0.176 0.137,0.07 0.273,0.139 0.41,0.21 0.148,0.08 0.296,0.155 0.444,0.233 0.155,0.08 0.31,0.164 0.466,0.245 0.173,0.09 0.346,0.181 0.518,0.273 0.179,0.1 0.357,0.192 0.535,0.288 0.182,0.1 0.366,0.197 0.55,0.295 0.199,0.106 0.4,0.211 0.6,0.317 0.216,0.116 0.432,0.232 0.642,0.352 0.2,0.114 0.397,0.23 0.591,0.348 0.167,0.101 0.334,0.203 0.503,0.303 0.184,0.109 0.367,0.217 0.546,0.33 0.192,0.121 0.381,0.245 0.56,0.374 0.156,0.114 0.308,0.229 0.457,0.346 0.13,0.102 0.26,0.205 0.39,0.307 0.147,0.117 0.292,0.234 0.434,0.353 0.135,0.114 0.269,0.228 0.403,0.343 0.127,0.106 0.254,0.213 0.382,0.319 0.141,0.117 0.281,0.235 0.417,0.354 0.142,0.125 0.282,0.252 0.416,0.381 0.124,0.116 0.248,0.234 0.371,0.351 0.114,0.109 0.228,0.218 0.339,0.327 0.112,0.112 0.223,0.224 0.326,0.339 0.09,0.1 0.179,0.199 0.266,0.299 0.07,0.08 0.136,0.152 0.204,0.229 0.07,0.08 0.145,0.171 0.212,0.259 0,0.01 0.135,0.175 0.05,0.07 -0.714,-0.753 -1.592,-0.657 -3.014,-0.642 -0.675,0.214 -1.263,0.486 -1.502,0.955 -0.03,0.05 -0.06,0.131 -0.07,0.174 0,0.03 0,0.03 0,0.05 0,-0.07 0.01,-0.133 0.01,-0.2 0,-0.09 0.01,-0.176 0.02,-0.263 0,-0.105 0.01,-0.209 0.02,-0.314 0,-0.124 0.02,-0.249 0.02,-0.373 0.01,-0.147 0.02,-0.294 0.03,-0.441 0.01,-0.16 0.03,-0.321 0.05,-0.481 0.02,-0.159 0.05,-0.319 0.07,-0.478 0.03,-0.185 0.05,-0.37 0.08,-0.554 0.04,-0.23 0.07,-0.459 0.126,-0.687 0.06,-0.24 0.122,-0.48 0.202,-0.718 0.08,-0.236 0.157,-0.473 0.244,-0.708 0.09,-0.25 0.19,-0.5 0.3,-0.748 0.111,-0.246 0.229,-0.491 0.36,-0.733 0.128,-0.237 0.261,-0.473 0.398,-0.708 0.12,-0.205 0.24,-0.411 0.354,-0.617 0.112,-0.2 0.221,-0.401 0.335,-0.601 0.125,-0.216 0.253,-0.431 0.391,-0.644 0.141,-0.216 0.286,-0.432 0.434,-0.646 0.129,-0.185 0.256,-0.371 0.381,-0.557 0.118,-0.175 0.236,-0.35 0.364,-0.522 0.122,-0.161 0.249,-0.322 0.382,-0.48 0.124,-0.149 0.247,-0.297 0.368,-0.447 0.07,-0.09 0.149,-0.187 0.218,-0.283 0,0 4.667,1.389 4.667,1.389 z"
         id="path4351"
         style="color:#000000;display:inline;overflow:visible;visibility:visible;fill:#d76cff;fill-opacity:1;fill-rule:nonzero;stroke:none;stroke-width:3;marker:none;enable-background:accumulate"
         inkscape:connector-curvature="0" />
      <path
         d="m 660.748,682.641 c 0.1,-0.125 0.204,-0.247 0.308,-0.37 0.127,-0.149 0.251,-0.299 0.374,-0.448 0.104,-0.126 0.204,-0.253 0.301,-0.381 0.1,-0.137 0.196,-0.275 0.293,-0.413 0.132,-0.19 0.266,-0.38 0.399,-0.57 0.132,-0.188 0.259,-0.378 0.382,-0.568 0.113,-0.176 0.216,-0.353 0.318,-0.531 0.108,-0.191 0.214,-0.383 0.322,-0.574 0.125,-0.221 0.255,-0.44 0.385,-0.66 0.122,-0.206 0.239,-0.414 0.35,-0.624 0.103,-0.192 0.197,-0.387 0.285,-0.583 0.09,-0.199 0.166,-0.399 0.241,-0.6 0.07,-0.207 0.144,-0.414 0.21,-0.622 0.06,-0.179 0.108,-0.361 0.15,-0.542 0.04,-0.175 0.07,-0.35 0.09,-0.526 0.03,-0.179 0.05,-0.358 0.07,-0.537 0.02,-0.15 0.04,-0.3 0.06,-0.45 0.01,-0.125 0.03,-0.25 0.04,-0.375 0.01,-0.135 0.02,-0.271 0.02,-0.407 0,-0.124 0.01,-0.248 0.02,-0.372 0,-0.104 0.01,-0.209 0.02,-0.313 0,-0.09 0,-0.176 0.01,-0.264 0,-0.07 0,-0.145 0.01,-0.217 0,-0.114 0.03,-0.226 0.05,-0.338 0.03,-0.121 0.08,-0.238 0.14,-0.354 0.28,-0.522 0.843,-0.796 1.611,-1.037 1.782,0.03 2.455,-0.09 3.301,0.83 0.07,0.08 0.134,0.172 0.199,0.259 0.03,0.04 0.06,0.07 0.09,0.111 0.06,0.07 0.125,0.145 0.188,0.218 0.07,0.08 0.141,0.165 0.215,0.246 0.07,0.08 0.142,0.151 0.216,0.225 0.09,0.09 0.188,0.186 0.284,0.279 0.113,0.109 0.227,0.219 0.342,0.327 0.106,0.101 0.214,0.2 0.326,0.298 0.111,0.1 0.225,0.191 0.339,0.287 0.135,0.111 0.268,0.224 0.401,0.337 0.13,0.111 0.261,0.222 0.394,0.333 0.113,0.09 0.229,0.188 0.347,0.281 0.125,0.1 0.251,0.196 0.376,0.295 0.109,0.09 0.221,0.171 0.335,0.254 0.101,0.07 0.208,0.142 0.316,0.21 0.141,0.09 0.285,0.175 0.43,0.262 0.178,0.106 0.355,0.214 0.532,0.321 0.16,0.1 0.323,0.194 0.488,0.289 0.166,0.1 0.337,0.186 0.508,0.278 0.194,0.103 0.39,0.206 0.584,0.309 0.195,0.102 0.389,0.206 0.582,0.31 0.174,0.09 0.348,0.186 0.523,0.28 0.162,0.09 0.326,0.17 0.489,0.255 0.157,0.08 0.315,0.163 0.471,0.246 0.134,0.07 0.267,0.139 0.401,0.207 0.123,0.06 0.245,0.125 0.368,0.187 0.125,0.06 0.249,0.124 0.372,0.187 0.108,0.05 0.215,0.109 0.322,0.163 0.09,0.05 0.175,0.09 0.263,0.132 0.09,0.05 0.18,0.09 0.269,0.137 0.08,0.04 0.15,0.08 0.224,0.117 0.06,0.03 0.117,0.06 0.176,0.09 0.05,0.03 0.1,0.05 0.148,0.08 0.04,0.02 0.08,0.04 0.124,0.06 0.09,0.05 0.07,0.04 -0.02,0 -0.02,-0.01 10e-4,0 0,0 0,0 -3.022,2.635 -3.022,2.635 v 0 c -0.03,-0.01 -0.06,-0.03 -0.09,-0.04 -0.08,-0.04 -0.151,-0.07 -0.223,-0.114 -0.04,-0.02 -0.08,-0.04 -0.123,-0.07 -0.05,-0.03 -0.1,-0.05 -0.146,-0.08 -0.06,-0.03 -0.116,-0.06 -0.174,-0.09 -0.06,-0.03 -0.128,-0.07 -0.192,-0.102 -0.07,-0.04 -0.144,-0.07 -0.214,-0.11 -0.09,-0.05 -0.187,-0.1 -0.279,-0.143 -0.104,-0.05 -0.208,-0.107 -0.312,-0.161 -0.116,-0.06 -0.231,-0.118 -0.347,-0.177 -0.137,-0.07 -0.274,-0.139 -0.41,-0.209 -0.149,-0.08 -0.296,-0.155 -0.444,-0.233 -0.155,-0.08 -0.311,-0.164 -0.467,-0.245 -0.172,-0.09 -0.346,-0.181 -0.517,-0.273 -0.179,-0.1 -0.357,-0.192 -0.535,-0.288 -0.183,-0.1 -0.366,-0.197 -0.55,-0.295 -0.2,-0.106 -0.4,-0.212 -0.6,-0.318 -0.216,-0.115 -0.432,-0.231 -0.642,-0.351 -0.2,-0.114 -0.397,-0.23 -0.591,-0.348 -0.168,-0.101 -0.334,-0.203 -0.503,-0.303 -0.184,-0.109 -0.367,-0.218 -0.546,-0.33 -0.192,-0.121 -0.381,-0.245 -0.56,-0.374 -0.156,-0.114 -0.308,-0.229 -0.457,-0.346 -0.131,-0.103 -0.26,-0.205 -0.39,-0.307 -0.147,-0.117 -0.292,-0.234 -0.434,-0.353 -0.135,-0.114 -0.27,-0.228 -0.404,-0.343 -0.126,-0.107 -0.253,-0.213 -0.382,-0.319 -0.14,-0.117 -0.28,-0.235 -0.416,-0.354 -0.142,-0.126 -0.282,-0.252 -0.416,-0.381 -0.125,-0.117 -0.248,-0.234 -0.371,-0.351 -0.115,-0.109 -0.228,-0.218 -0.339,-0.328 -0.112,-0.111 -0.223,-0.224 -0.326,-0.339 -0.09,-0.1 -0.179,-0.198 -0.266,-0.298 -0.07,-0.08 -0.137,-0.153 -0.204,-0.229 -0.07,-0.08 -0.146,-0.171 -0.212,-0.259 0,-0.01 -0.135,-0.176 -0.05,-0.07 0.713,0.752 1.591,0.657 3.014,0.642 0.675,-0.214 1.263,-0.486 1.501,-0.955 0.03,-0.05 0.06,-0.131 0.07,-0.174 0,-0.03 0,-0.03 0,-0.05 0,0.07 -0.01,0.133 -0.01,0.2 0,0.09 -0.01,0.175 -0.02,0.263 0,0.105 -0.01,0.209 -0.02,0.314 0,0.124 -0.02,0.249 -0.02,0.373 -0.01,0.147 -0.02,0.294 -0.03,0.441 -0.01,0.16 -0.03,0.321 -0.05,0.481 -0.02,0.159 -0.05,0.318 -0.07,0.477 -0.03,0.185 -0.06,0.37 -0.08,0.555 -0.04,0.229 -0.07,0.458 -0.127,0.686 -0.06,0.241 -0.121,0.48 -0.201,0.718 -0.08,0.237 -0.157,0.474 -0.244,0.709 -0.09,0.25 -0.19,0.5 -0.3,0.747 -0.112,0.246 -0.229,0.491 -0.36,0.734 -0.128,0.237 -0.261,0.473 -0.398,0.708 -0.12,0.205 -0.24,0.411 -0.355,0.617 -0.111,0.2 -0.22,0.401 -0.334,0.6 -0.125,0.216 -0.253,0.432 -0.391,0.645 -0.141,0.216 -0.286,0.431 -0.435,0.646 -0.128,0.185 -0.255,0.371 -0.38,0.557 -0.118,0.175 -0.236,0.349 -0.364,0.521 -0.122,0.162 -0.249,0.322 -0.383,0.48 -0.123,0.149 -0.246,0.298 -0.368,0.448 -0.07,0.09 -0.149,0.187 -0.217,0.283 0,0 -4.667,-1.39 -4.667,-1.39 z"
         id="path4353"
         style="color:#000000;display:inline;overflow:visible;visibility:visible;fill:#d76cff;fill-opacity:1;fill-rule:nonzero;stroke:none;stroke-width:3;marker:none;enable-background:accumulate"
         inkscape:connector-curvature="0" />
    </g>
  </g>
</svg>
