<?xml version="1.0" encoding="UTF-8" standalone="no"?>
<!-- Copyright 2017 mathsisfun.com -->
<svg xmlns="http://www.w3.org/2000/svg" width="317.9" height="317.9" version="1.1">
<defs>
<marker style="overflow:visible;" orient="auto" id="id01">
<path d="M 0,0 5,-5 -12.5,0 5,5 0,0 Z" transform="matrix(-0.4,0,0,-0.4,-4,0)" style="stroke:black; stroke-width:1pt;"/>
</marker>
</defs>
<g transform="translate(1342.6219,-815.56261)">
<g transform="translate(-595.61965,-561.69885)">
<path d="m -745.4,1377.7 315,0" style="fill:none; stroke:#e5e6e8; stroke-width:0.87; stroke-dasharray:7, 0.9;"/>
<path d="m -745.4,1694.7 315,0" style="fill:none; stroke:#e5e6e8; stroke-width:0.87; stroke-dasharray:7, 0.9;"/>
<path d="m -745.4,1567.9 315,0" style="fill:none; stroke:#e5e6e8; stroke-width:0.87; stroke-dasharray:7, 0.9;"/>
<path d="m -745.4,1504.5 315,0" style="fill:none; stroke:#e5e6e8; stroke-width:0.87; stroke-dasharray:7, 0.9;"/>
<path d="m -745.4,1441.1 315,0" style="fill:none; stroke:#e5e6e8; stroke-width:0.87; stroke-dasharray:7, 0.9;"/>
<path d="m -745.4,1631.3 315,0" style="fill:none; stroke:#e5e6e8; stroke-width:0.87; stroke-dasharray:7, 0.9;"/>
<path d="m -745.4,1409.4 315,0" style="fill:none; stroke:#e5e6e8; stroke-width:0.87; stroke-dasharray:7, 0.9;"/>
<path d="m -745.4,1599.6 315,0" style="fill:none; stroke:#e5e6e8; stroke-width:0.87; stroke-dasharray:7, 0.9;"/>
<path d="m -745.4,1536.2 315,0" style="fill:none; stroke:#e5e6e8; stroke-width:0.87; stroke-dasharray:7, 0.9;"/>
<path d="m -745.4,1472.8 315,0" style="fill:none; stroke:#e5e6e8; stroke-width:0.87; stroke-dasharray:7, 0.9;"/>
<path d="m -745.4,1663 315,0" style="fill:none; stroke:#e5e6e8; stroke-width:0.87; stroke-dasharray:7, 0.9;"/>
<path d="m -556.4,1693.6 0,-314.2" style="fill:none; stroke:#e5e6e8; stroke-width:0.87; stroke-dasharray:6.9, 0.9;"/>
<path d="m -619.8,1693.6 0,-314.2" style="fill:none; stroke:#e5e6e8; stroke-width:0.87; stroke-dasharray:6.9, 0.9;"/>
<path d="m -683.2,1693.6 0,-314.2" style="fill:none; stroke:#e5e6e8; stroke-width:0.87; stroke-dasharray:6.9, 0.9;"/>
<path d="m -746.6,1693.6 0,-314.2" style="fill:none; stroke:#e5e6e8; stroke-width:0.87; stroke-dasharray:6.9, 0.9;"/>
<path d="m -429.5,1693.6 0,-314.2" style="fill:none; stroke:#e5e6e8; stroke-width:0.87; stroke-dasharray:6.9, 0.9;"/>
<path d="m -492.9,1693.6 0,-314.2" style="fill:none; stroke:#e5e6e8; stroke-width:0.87; stroke-dasharray:6.9, 0.9;"/>
<path d="m -524.7,1693.6 0,-314.2" style="fill:none; stroke:#e5e6e8; stroke-width:0.87; stroke-dasharray:6.9, 0.9;"/>
<path d="m -588.1,1693.6 0,-314.2" style="fill:none; stroke:#e5e6e8; stroke-width:0.87; stroke-dasharray:6.9, 0.9;"/>
<path d="m -651.5,1693.6 0,-314.2" style="fill:none; stroke:#e5e6e8; stroke-width:0.87; stroke-dasharray:6.9, 0.9;"/>
<path d="m -714.9,1693.6 0,-314.2" style="fill:none; stroke:#e5e6e8; stroke-width:0.87; stroke-dasharray:6.9, 0.9;"/>
<path d="m -461.2,1693.6 0,-314.2" style="fill:none; stroke:#e5e6e8; stroke-width:0.87; stroke-dasharray:6.9, 0.9;"/>
</g>
<path d="m -1324.9,1069.5 272.7,0" style="marker-end:url(#id01); fill:#2e3436; fill-opacity:0.75; stroke:#2e3436; stroke-width:1.65;"/>
<path d="m -1183.8,1128.9 0,-279" style="marker-end:url(#id01); fill:#2e3436; fill-opacity:0.75; stroke:#2e3436; stroke-width:1.65;"/>
<text x="-1086.8" y="1092.3" style="font-family:'Comic Sans MS'; font-size:30.8px; font-style:italic; overflow:visible; fill:black; stroke-width:1px;">x</text>
<text x="-1210.2" y="873.2" style="font-family:'Comic Sans MS'; font-size:30.8px; font-style:italic; overflow:visible; fill:black; stroke-width:1px;">y</text>
<text x="-1138.1" y="1089.8" style="font-family:'Comic Sans MS'; font-size:26.7px; overflow:visible; fill:#f44800; stroke-width:2.2;">x</text>
<text x="-1252" y="1089.6" style="font-family:'Comic Sans MS'; font-size:26.7px; overflow:visible; fill:#f44800; stroke-width:2.2;">-x</text>
<path d="m -1236.8,1068.8 0,-132.8" style="overflow:visible; fill:none; stroke:#121513; stroke-width:1.87; stroke-dasharray:1.9, 3.7;"/>
<path d="m -1130.9,1069.5 0,-132.9 -109.5,0" style="overflow:visible; fill:none; stroke:#121513; stroke-width:1.87; stroke-dasharray:1.9, 3.7;"/>
<text x="-1368.3" y="898.3" transform="scale(0.95086339,1.0516758)" style="font-family:'Comic Sans MS'; font-size:25.4px; overflow:visible; fill:#013397; stroke-width:2.2;">f(-x)</text>
<path d="m -1257.3,837.3 c 0,0 31.8,204.8 73,204.8 41.2,0 76.6,-204.7 76.6,-204.7" style="overflow:visible; fill:none; fill-opacity:0.84; stroke:#0197fd; stroke-width:2.75; stroke-linecap:round;"/>
<circle cx="-1130.5" cy="937.6" r="2.9606395" style="overflow:visible; fill:#f0a513; stroke:#fdca01; stroke-width:2.47;"/>
<circle cx="-1236.8" cy="937.6" r="2.9606395" style="overflow:visible; fill:#f0a513; stroke:#fdca01; stroke-width:2.47;"/>
<text x="-1180.4" y="898.3" transform="scale(0.95086339,1.0516758)" style="font-family:'Comic Sans MS'; font-size:25.4px; overflow:visible; fill:#013397; stroke-width:2.2;">f(x)</text>
</g>
</svg>
