<?xml version="1.0" encoding="UTF-8" standalone="no"?>
<!-- Copyright 2017 mathsisfun.com -->
<svg xmlns="http://www.w3.org/2000/svg" width="317.9" height="348.6" version="1.1">
<defs>
<marker style="overflow:visible;" orient="auto" id="id01">
<path d="M 0,0 5,-5 -12.5,0 5,5 0,0 Z" transform="matrix(-0.4,0,0,-0.4,-4,0)" style="stroke:black; stroke-width:1pt;"/>
</marker>
</defs>
<g transform="translate(747.002,-1365.16)">
<path d="m -745.4,1377.7 h 315" style="fill:none; stroke:#e5e6e8; stroke-width:0.87; stroke-dasharray:7, 0.9;"/>
<path d="m -745.4,1694.7 h 315" style="fill:none; stroke:#e5e6e8; stroke-width:0.87; stroke-dasharray:7, 0.9;"/>
<path d="m -745.4,1567.9 h 315" style="fill:none; stroke:#e5e6e8; stroke-width:0.87; stroke-dasharray:7, 0.9;"/>
<path d="m -745.4,1504.5 h 315" style="fill:none; stroke:#e5e6e8; stroke-width:0.87; stroke-dasharray:7, 0.9;"/>
<path d="m -745.4,1441.1 h 315" style="fill:none; stroke:#e5e6e8; stroke-width:0.87; stroke-dasharray:7, 0.9;"/>
<path d="m -745.4,1631.3 h 315" style="fill:none; stroke:#e5e6e8; stroke-width:0.87; stroke-dasharray:7, 0.9;"/>
<path d="m -745.4,1409.4 h 315" style="fill:none; stroke:#e5e6e8; stroke-width:0.87; stroke-dasharray:7, 0.9;"/>
<path d="m -745.4,1599.6 h 315" style="fill:none; stroke:#e5e6e8; stroke-width:0.87; stroke-dasharray:7, 0.9;"/>
<path d="m -745.4,1536.2 h 315" style="fill:none; stroke:#e5e6e8; stroke-width:0.87; stroke-dasharray:7, 0.9;"/>
<path d="m -745.4,1472.8 h 315" style="fill:none; stroke:#e5e6e8; stroke-width:0.87; stroke-dasharray:7, 0.9;"/>
<path d="m -745.4,1663 h 315" style="fill:none; stroke:#e5e6e8; stroke-width:0.87; stroke-dasharray:7, 0.9;"/>
<path d="M -556.4,1693.6 V 1379.4" style="fill:none; stroke:#e5e6e8; stroke-width:0.87; stroke-dasharray:6.9, 0.9;"/>
<path d="M -619.8,1693.6 V 1379.4" style="fill:none; stroke:#e5e6e8; stroke-width:0.87; stroke-dasharray:6.9, 0.9;"/>
<path d="M -683.2,1693.6 V 1379.4" style="fill:none; stroke:#e5e6e8; stroke-width:0.87; stroke-dasharray:6.9, 0.9;"/>
<path d="M -746.6,1693.6 V 1379.4" style="fill:none; stroke:#e5e6e8; stroke-width:0.87; stroke-dasharray:6.9, 0.9;"/>
<path d="M -429.5,1693.6 V 1379.4" style="fill:none; stroke:#e5e6e8; stroke-width:0.87; stroke-dasharray:6.9, 0.9;"/>
<path d="M -492.9,1693.6 V 1379.4" style="fill:none; stroke:#e5e6e8; stroke-width:0.87; stroke-dasharray:6.9, 0.9;"/>
<path d="M -524.7,1693.6 V 1379.4" style="fill:none; stroke:#e5e6e8; stroke-width:0.87; stroke-dasharray:6.9, 0.9;"/>
<path d="M -588.1,1693.6 V 1379.4" style="fill:none; stroke:#e5e6e8; stroke-width:0.87; stroke-dasharray:6.9, 0.9;"/>
<path d="M -651.5,1693.6 V 1379.4" style="fill:none; stroke:#e5e6e8; stroke-width:0.87; stroke-dasharray:6.9, 0.9;"/>
<path d="M -714.9,1693.6 V 1379.4" style="fill:none; stroke:#e5e6e8; stroke-width:0.87; stroke-dasharray:6.9, 0.9;"/>
<path d="M -461.2,1693.6 V 1379.4" style="fill:none; stroke:#e5e6e8; stroke-width:0.87; stroke-dasharray:6.9, 0.9;"/>
</g>
<path d="m 126.7,347.2 c 0,0 11.6,-187 45.3,-187.8 15.1,-0.4 22.2,24.3 37.1,24.3 30,0 45.2,-182.2 45.2,-182.2" style="overflow:visible; fill:none; stroke:#0197fd; stroke-width:2.75; stroke-linecap:round;"/>
<path d="m 46.9,171.4 h 263.3" style="marker-end:url(#id01); fill:#2e3436; fill-opacity:0.75; stroke:#2e3436; stroke-width:1.65;"/>
<path d="M 190.3,318.3 V 33.5" style="marker-end:url(#id01); fill:#2e3436; fill-opacity:0.75; stroke:#2e3436; stroke-width:1.65;"/>
<text x="287.6" y="194.1" style="font-family:'Comic Sans MS'; font-size:30.8px; font-style:italic; overflow:visible; fill:black; stroke-width:1px;">x</text>
<text x="167.4" y="59.4" style="font-family:'Comic Sans MS'; font-size:30.8px; font-style:italic; overflow:visible; fill:black; stroke-width:1px;">y</text>
<text x="236.3" y="191.6" style="font-family:'Comic Sans MS'; font-size:26.7px; overflow:visible; fill:#f44800; stroke-width:2.2;">x</text>
<text x="118.3" y="167.8" style="font-family:'Comic Sans MS'; font-size:26.7px; overflow:visible; fill:#f44800; stroke-width:2.2;">-x</text>
<path d="m 135.6,260.5 v -89.1" style="overflow:visible; fill:none; stroke:#121513; stroke-width:1.87; stroke-dasharray:1.9, 3.7;"/>
<text x="78.2" y="252.5" transform="scale(0.950861,1.05168)" style="font-family:'Comic Sans MS'; font-size:25.4px; overflow:visible; fill:#013397; stroke-width:2.2;">f(-x)</text>
<circle cx="244.7" cy="79.5" r="2.96064" style="overflow:visible; fill:#f0a513; stroke:#fdca01; stroke-width:2.47;"/>
<circle cx="135.5" cy="260.6" r="2.96064" style="overflow:visible; fill:#f0a513; stroke:#fdca01; stroke-width:2.47;"/>
<text x="263" y="81.3" transform="scale(0.950861,1.05168)" style="font-family:'Comic Sans MS'; font-size:25.4px; overflow:visible; fill:#013397; stroke-width:2.2;">f(x)</text>
<path d="m 244.9,170 v -89.1" style="overflow:visible; fill:none; stroke:#121513; stroke-width:1.87; stroke-dasharray:1.9, 3.7;"/>
<g transform="matrix(-0.55,0,0,0.404689,-670.733,-481.896)">
<path d="m -1337.1,1387.9 c 13.2,1.3 19,17 17.3,28.7 -3,21.3 -9.8,44.9 1.4,65 3.7,7.2 11.3,12.7 19.6,11.7 -1.1,4.6 -3.3,8.2 -8.5,6 -16.2,-4.4 -22.8,-23.6 -23.3,-38.8 -1.1,-16 3.6,-31.5 4.6,-47.3 0.1,-8 -4.9,-19 -14,-18.9 1.1,-2 1.4,-5.1 2.9,-6.4 z" style="overflow:visible; fill:#986601; stroke-width:5;"/>
<path d="m -1337.1,1606.7 c 13.2,-1.3 19,-17 17.3,-28.7 -3,-21.3 -9.8,-44.9 1.4,-65 3.7,-7.2 11.3,-12.7 19.6,-11.7 -1.1,-4.6 -3.3,-8.2 -8.5,-6 -16.2,4.4 -22.8,23.6 -23.3,38.8 -1.1,16 3.6,31.5 4.6,47.3 0.1,8 -4.9,19 -14,18.9 1.1,2 1.4,5.1 2.9,6.4 z" style="overflow:visible; fill:#986601; stroke-width:5;"/>
</g>
<text x="-244.1" y="35.8" transform="rotate(-90)" style="font-family:'Comic Sans MS'; font-size:22px; overflow:visible; fill:#986601; stroke-width:5;">equal distance</text>
<g transform="matrix(-0.55,0,0,0.404689,-670.733,-388.281)">
<path d="m -1337.1,1387.9 c 13.2,1.3 19,17 17.3,28.7 -3,21.3 -9.8,44.9 1.4,65 3.7,7.2 11.3,12.7 19.6,11.7 -1.1,4.6 -3.3,8.2 -8.5,6 -16.2,-4.4 -22.8,-23.6 -23.3,-38.8 -1.1,-16 3.6,-31.5 4.6,-47.3 0.1,-8 -4.9,-19 -14,-18.9 1.1,-2 1.4,-5.1 2.9,-6.4 z" style="overflow:visible; fill:#986601; stroke-width:5;"/>
<path d="m -1337.1,1606.7 c 13.2,-1.3 19,-17 17.3,-28.7 -3,-21.3 -9.8,-44.9 1.4,-65 3.7,-7.2 11.3,-12.7 19.6,-11.7 -1.1,-4.6 -3.3,-8.2 -8.5,-6 -16.2,4.4 -22.8,23.6 -23.3,38.8 -1.1,16 3.6,31.5 4.6,47.3 0.1,8 -4.9,19 -14,18.9 1.1,2 1.4,5.1 2.9,6.4 z" style="overflow:visible; fill:#986601; stroke-width:5;"/>
</g>
</svg>
