<?xml version="1.0" encoding="UTF-8" standalone="no"?>
<!-- Copyright 2017 mathsisfun.com -->

<svg
   width="441.5"
   height="79.9"
   version="1.1"
   style="font-size:14.2px;stroke-width:1px"
   id="svg115"
   sodipodi:docname="geometric-sequence-3b.svg"
   inkscape:version="1.1 (c68e22c387, 2021-05-23)"
   xmlns:inkscape="http://www.inkscape.org/namespaces/inkscape"
   xmlns:sodipodi="http://sodipodi.sourceforge.net/DTD/sodipodi-0.dtd"
   xmlns="http://www.w3.org/2000/svg"
   xmlns:svg="http://www.w3.org/2000/svg">
  <sodipodi:namedview
     id="namedview117"
     pagecolor="#ffffff"
     bordercolor="#666666"
     borderopacity="1.0"
     inkscape:pageshadow="2"
     inkscape:pageopacity="0.0"
     inkscape:pagecheckerboard="0"
     showgrid="false"
     inkscape:current-layer="svg115" />
  <defs
     id="defs5">
    <marker
       id="aa1"
       style="overflow:visible"
       orient="auto">
      <path
         transform="matrix(-0.8,0,0,-0.8,-10,0)"
         style="stroke:black;stroke-width:1pt"
         d="M 0,0 5,-5 -12.5,0 5,5 Z"
         id="path2" />
    </marker>
    <marker
       style="overflow:visible"
       orient="auto"
       id="aa18699"
       inkscape:stockid="aa18699">
      <path
         transform="matrix(-0.8,0,0,-0.8,-10,0)"
         style="stroke:#0000ff;stroke-width:1pt;stroke-opacity:1;fill-opacity:1;fill:#0000ff"
         d="M 0,0 5,-5 -12.5,0 5,5 Z"
         id="path1002" />
    </marker>
  </defs>
  <path
     style="fill:none;stroke:#009100;stroke-width:1.28;stroke-miterlimit:4;stroke-dasharray:none"
     d="M 13.4,0 V 21.6"
     id="path7" />
  <path
     style="fill:none;stroke:#0000ff;stroke-width:0.29px"
     d="M 35.9,0 V 21.6"
     id="path9" />
  <path
     style="fill:none;stroke:#0000ff;stroke-width:0.29px"
     d="M 58.3,0 V 21.6"
     id="path11" />
  <path
     style="fill:none;stroke:#0000ff;stroke-width:0.29px"
     d="M 80.7,0 V 21.6"
     id="path13" />
  <path
     style="fill:none;stroke:#0000ff;stroke-width:0.29px"
     d="M 103.1,0 V 21.6"
     id="path15" />
  <path
     style="fill:none;stroke:#0000ff;stroke-width:0.29px"
     d="M 125.6,0 V 21.6"
     id="path17" />
  <path
     style="fill:none;stroke:#0000ff;stroke-width:0.29px"
     d="M 148,0 V 21.6"
     id="path19" />
  <path
     style="fill:none;stroke:#0000ff;stroke-width:0.29px"
     d="M 170.4,0 V 21.6"
     id="path21" />
  <path
     style="fill:none;stroke:#0000ff;stroke-width:0.29px"
     d="M 192.8,0 V 21.6"
     id="path23" />
  <path
     style="fill:none;stroke:#0000ff;stroke-width:0.29px"
     d="M 215.3,0 V 21.6"
     id="path25" />
  <text
     x="33"
     y="39.2"
     style="font-family:Arial;fill:#0000ff"
     id="text27">1</text>
  <text
     x="55"
     y="39.2"
     style="font-family:Arial;fill:#0000ff"
     id="text29">2</text>
  <text
     x="77.3"
     y="39.1"
     style="font-family:Arial;fill:#0000ff"
     id="text31">3</text>
  <text
     x="99.9"
     y="39.2"
     style="font-family:Arial;fill:#0000ff"
     id="text33">4</text>
  <text
     x="122"
     y="39.1"
     style="font-family:Arial;fill:#0000ff"
     id="text35">5</text>
  <text
     x="144.5"
     y="39.1"
     style="font-family:Arial;fill:#0000ff"
     id="text37">6</text>
  <text
     x="166.9"
     y="39.1"
     style="font-family:Arial;fill:#0000ff"
     id="text39">7</text>
  <text
     x="189.3"
     y="39.1"
     style="font-family:Arial;fill:#0000ff"
     id="text41">8</text>
  <text
     x="211.7"
     y="39.1"
     style="font-family:Arial;fill:#0000ff"
     id="text43">9</text>
  <path
     style="fill:none;stroke:#0000ff;stroke-width:0.29px"
     d="M 237.7,0 V 21.6"
     id="path45" />
  <text
     x="229.7"
     y="39.1"
     style="font-family:Arial;fill:#0000ff"
     id="text47">10</text>
  <path
     style="marker-end:url(#aa18699);fill:#0000ff;fill-opacity:0.75;stroke:#0000ff;stroke-width:1.11"
     d="M 12.8,12.1 H 439.3"
     id="path49" />
  <text
     x="8.4"
     y="40.5"
     style="font-family:Arial;font-size:20.5px;fill:#009100"
     id="text53">0</text>
  <path
     style="fill:none;stroke:#0000ff;stroke-width:0.29px"
     d="M 260.1,0 V 21.6"
     id="path55" />
  <path
     style="fill:none;stroke:#0000ff;stroke-width:0.29px"
     d="M 282.5,0 V 21.6"
     id="path57" />
  <path
     style="fill:none;stroke:#0000ff;stroke-width:0.29px"
     d="M 305,0 V 21.6"
     id="path59" />
  <path
     style="fill:none;stroke:#0000ff;stroke-width:0.29px"
     d="M 327.4,0 V 21.6"
     id="path61" />
  <path
     style="fill:none;stroke:#0000ff;stroke-width:0.29px"
     d="M 349.8,0 V 21.6"
     id="path63" />
  <path
     style="fill:none;stroke:#0000ff;stroke-width:0.29px"
     d="M 372.2,0 V 21.6"
     id="path65" />
  <text
     x="252.3"
     y="39.2"
     style="font-family:Arial;fill:#0000ff"
     id="text67">11</text>
  <text
     x="274.3"
     y="39.2"
     style="font-family:Arial;fill:#0000ff"
     id="text69">12</text>
  <text
     x="296.6"
     y="39.1"
     style="font-family:Arial;fill:#0000ff"
     id="text71">13</text>
  <text
     x="319.2"
     y="39.2"
     style="font-family:Arial;fill:#0000ff"
     id="text73">14</text>
  <text
     x="341.4"
     y="39.1"
     style="font-family:Arial;fill:#0000ff"
     id="text75">15</text>
  <text
     x="364.4"
     y="39.1"
     style="font-family:Arial;fill:#0000ff"
     id="text77">16</text>
  <g
     transform="translate(0,-0.10929)"
     id="g83">
    <path
       style="fill:#ff9900;stroke-width:2.49"
       d="m 131.3,44.9 c 0.5,0 1.4,-0.1 1.6,-0.1 -0.6,0 -1.1,0.2 -1.7,0.3 1.5,-0.3 3.1,-0.6 4.6,-1.2 1.3,-0.5 2.5,-0.9 3.7,-1.7 0.3,0 0.7,-0.7 1,-0.3 1.1,0.7 2.2,1.5 3.3,2.2 -0.7,0.6 -1.4,1 -2.1,1.4 -1.2,0.8 -2.5,1 -3.7,1.6 -1.7,0.6 -3.4,1 -5.2,1.3 -0.8,0 -1.6,0.1 -2.4,0.2 0.2,-1.2 0.5,-2.4 0.7,-3.7 z"
       id="path79" />
    <path
       style="fill:#ff9900;stroke-width:2.49"
       d="m 137.6,53.9 c 0,-2.5 0.5,-4.9 1.2,-6.9 0.4,-1.5 0.9,-2.8 1.3,-4.1 1.2,0.5 2.5,0.9 3.7,1.4 -0.4,1.3 -1,2.4 -1.3,3.8 -0.3,1.2 -0.7,2.2 -0.9,3.5 -0.2,1 -0.3,2 -0.4,3.1 -1.2,-0.3 -2.4,-0.5 -3.6,-0.8 z"
       id="path81" />
  </g>
  <path
     style="fill:none;stroke:#ff9900;stroke-width:3"
     d="m 59.8,45.6 c 0,0 12,18.6 38.6,19 26.6,0.3 42.5,-19.8 42.5,-19.8"
     id="path85" />
  <path
     style="fill:none;stroke:#ff9900;stroke-width:3"
     d="m 151.9,45.6 c 0,0 38.3,18.6 123.1,19 84.8,0.3 135.2,-19.8 135.2,-19.8"
     id="path87" />
  <path
     style="fill:none;stroke:#0000ff;stroke-width:0.29px"
     d="M 372.2,0 V 21.6"
     id="path89" />
  <path
     style="fill:none;stroke:#0000ff;stroke-width:0.29px"
     d="M 394.6,0 V 21.6"
     id="path91" />
  <path
     style="fill:none;stroke:#0000ff;stroke-width:0.29px"
     d="M 417,0 V 21.6"
     id="path93" />
  <text
     x="386.2"
     y="39.1"
     style="font-family:Arial;fill:#0000ff"
     id="text95">17</text>
  <text
     x="409.2"
     y="39.1"
     style="font-family:Arial;fill:#0000ff"
     id="text97">18</text>
  <ellipse
     cx="276.6"
     cy="66.3"
     rx="16.1"
     ry="13.6"
     style="fill:#fce94f"
     id="ellipse99" />
  <text
     x="263.7"
     y="73.8"
     style="font-family:'Comic Sans MS';font-size:20px;font-style:italic;fill:#c4a000"
     id="text101">×3</text>
  <ellipse
     cx="97.8"
     cy="64.9"
     rx="15"
     ry="13.7"
     style="fill:#fce94f"
     id="ellipse103" />
  <text
     x="86.3"
     y="71.5"
     style="font-family:'Comic Sans MS';font-size:20px;font-style:italic;fill:#c4a000"
     id="text105">×3</text>
  <path
     style="fill:none;stroke:#ff9900;stroke-width:3"
     d="m 421.2,44.3 c 0,0 37.9,18.6 121.8,19 83.9,0.3 133.8,-19.8 133.8,-19.8"
     id="path107" />
  <g
     transform="rotate(18.0408,280.101,896.354)"
     id="g113">
    <path
       style="fill:#ff9900;stroke-width:2.49"
       d="m 131.3,44.9 c 0.5,0 1.4,-0.1 1.6,-0.1 -0.6,0 -1.1,0.2 -1.7,0.3 1.5,-0.3 3.1,-0.6 4.6,-1.2 1.3,-0.5 2.5,-0.9 3.7,-1.7 0.3,0 0.7,-0.7 1,-0.3 1.1,0.7 2.2,1.5 3.3,2.2 -0.7,0.6 -1.4,1 -2.1,1.4 -1.2,0.8 -2.5,1 -3.7,1.6 -1.7,0.6 -3.4,1 -5.2,1.3 -0.8,0 -1.6,0.1 -2.4,0.2 0.2,-1.2 0.5,-2.4 0.7,-3.7 z"
       id="path109" />
    <path
       style="fill:#ff9900;stroke-width:2.49"
       d="m 137.6,53.9 c 0,-2.5 0.5,-4.9 1.2,-6.9 0.4,-1.5 0.9,-2.8 1.3,-4.1 1.2,0.5 2.5,0.9 3.7,1.4 -0.4,1.3 -1,2.4 -1.3,3.8 -0.3,1.2 -0.7,2.2 -0.9,3.5 -0.2,1 -0.3,2 -0.4,3.1 -1.2,-0.3 -2.4,-0.5 -3.6,-0.8 z"
       id="path111" />
  </g>
</svg>
