<?xml version="1.0" encoding="UTF-8" standalone="no"?>
<!-- Copyright 2017 mathsisfun.com -->
<svg xmlns="http://www.w3.org/2000/svg" width="259" height="223.7" version="1.1">
<defs>
<marker style="overflow:visible;" orient="auto" id="id01">
<path d="M 0,0 5,-5 -12.5,0 5,5 Z" transform="matrix(-0.4,0,0,-0.4,-4,0)" style="stroke:black; stroke-width:1pt;"/>
</marker>
</defs>
<g transform="translate(439.668,-700.112)">
<rect x="-439.7" y="700.1" width="259" height="223.7" style="color:black; overflow:visible; fill:white; stroke-width:1.97;"/>
<g transform="matrix(0.5,0,0,0.5,-1659.5,-166.913)">
<g transform="translate(618,-6)">
<path d="m 1832.6,1948.9 h 526.7" style="fill:none; fill-opacity:0.75; stroke:#e5e6e8; stroke-width:2; stroke-dasharray:16, 2;"/>
<path d="m 1832.6,1882.7 h 526.7" style="fill:none; fill-opacity:0.75; stroke:#e5e6e8; stroke-width:2; stroke-dasharray:16, 2;"/>
<path d="m 1832.6,1816.6 h 526.7" style="fill:none; fill-opacity:0.75; stroke:#e5e6e8; stroke-width:2; stroke-dasharray:16, 2;"/>
<path d="m 1832.6,1750.4 h 526.7" style="fill:none; fill-opacity:0.75; stroke:#e5e6e8; stroke-width:2; stroke-dasharray:16, 2;"/>
<path d="m 1832.6,2279.6 h 526.7" style="fill:none; fill-opacity:0.75; stroke:#e5e6e8; stroke-width:2; stroke-dasharray:16, 2;"/>
<path d="m 1832.6,2147.3 h 526.7" style="fill:none; fill-opacity:0.75; stroke:#e5e6e8; stroke-width:2; stroke-dasharray:16, 2;"/>
<path d="m 1832.6,2081.2 h 526.7" style="fill:none; fill-opacity:0.75; stroke:#e5e6e8; stroke-width:2; stroke-dasharray:16, 2;"/>
<path d="m 1832.6,2015 h 526.7" style="fill:none; fill-opacity:0.75; stroke:#e5e6e8; stroke-width:2; stroke-dasharray:16, 2;"/>
<path d="m 1832.6,2213.5 h 526.7" style="fill:none; fill-opacity:0.75; stroke:#e5e6e8; stroke-width:2; stroke-dasharray:16, 2;"/>
<path d="m 1832.6,1982 h 526.7" style="fill:none; fill-opacity:0.75; stroke:#e5e6e8; stroke-width:2; stroke-dasharray:16, 2;"/>
<path d="m 1832.6,1915.8 h 526.7" style="fill:none; fill-opacity:0.75; stroke:#e5e6e8; stroke-width:2; stroke-dasharray:16, 2;"/>
<path d="m 1832.6,1849.7 h 526.7" style="fill:none; fill-opacity:0.75; stroke:#e5e6e8; stroke-width:2; stroke-dasharray:16, 2;"/>
<path d="m 1832.6,1783.5 h 526.7" style="fill:none; fill-opacity:0.75; stroke:#e5e6e8; stroke-width:2; stroke-dasharray:16, 2;"/>
<path d="m 1832.6,2180.4 h 526.7" style="fill:none; fill-opacity:0.75; stroke:#e5e6e8; stroke-width:2; stroke-dasharray:16, 2;"/>
<path d="m 1832.6,2114.3 h 526.7" style="fill:none; fill-opacity:0.75; stroke:#e5e6e8; stroke-width:2; stroke-dasharray:16, 2;"/>
<path d="m 1832.6,2048.1 h 526.7" style="fill:none; fill-opacity:0.75; stroke:#e5e6e8; stroke-width:2; stroke-dasharray:16, 2;"/>
<path d="m 1832.6,2246.6 h 526.7" style="fill:none; fill-opacity:0.75; stroke:#e5e6e8; stroke-width:2; stroke-dasharray:16, 2;"/>
</g>
<g>
<path d="M 2647.9,2272.4 V 1745.7" style="fill:none; fill-opacity:0.75; stroke:#e5e6e8; stroke-width:2; stroke-dasharray:16, 2;"/>
<path d="M 2581.7,2272.4 V 1745.7" style="fill:none; fill-opacity:0.75; stroke:#e5e6e8; stroke-width:2; stroke-dasharray:16, 2;"/>
<path d="M 2515.6,2272.4 V 1745.7" style="fill:none; fill-opacity:0.75; stroke:#e5e6e8; stroke-width:2; stroke-dasharray:16, 2;"/>
<path d="M 2449.4,2272.4 V 1745.7" style="fill:none; fill-opacity:0.75; stroke:#e5e6e8; stroke-width:2; stroke-dasharray:16, 2;"/>
<path d="M 2978.6,2272.4 V 1745.7" style="fill:none; fill-opacity:0.75; stroke:#e5e6e8; stroke-width:2; stroke-dasharray:16, 2;"/>
<path d="M 2846.3,2272.4 V 1745.7" style="fill:none; fill-opacity:0.75; stroke:#e5e6e8; stroke-width:2; stroke-dasharray:16, 2;"/>
<path d="M 2780.2,2272.4 V 1745.7" style="fill:none; fill-opacity:0.75; stroke:#e5e6e8; stroke-width:2; stroke-dasharray:16, 2;"/>
<path d="M 2714,2272.4 V 1745.7" style="fill:none; fill-opacity:0.75; stroke:#e5e6e8; stroke-width:2; stroke-dasharray:16, 2;"/>
<path d="M 2912.4,2272.4 V 1745.7" style="fill:none; fill-opacity:0.75; stroke:#e5e6e8; stroke-width:2; stroke-dasharray:16, 2;"/>
<path d="M 2680.9,2272.4 V 1745.7" style="fill:none; fill-opacity:0.75; stroke:#e5e6e8; stroke-width:2; stroke-dasharray:16, 2;"/>
<path d="M 2614.8,2272.4 V 1745.7" style="fill:none; fill-opacity:0.75; stroke:#e5e6e8; stroke-width:2; stroke-dasharray:16, 2;"/>
<path d="M 2548.6,2272.4 V 1745.7" style="fill:none; fill-opacity:0.75; stroke:#e5e6e8; stroke-width:2; stroke-dasharray:16, 2;"/>
<path d="M 2482.5,2272.4 V 1745.7" style="fill:none; fill-opacity:0.75; stroke:#e5e6e8; stroke-width:2; stroke-dasharray:16, 2;"/>
<path d="M 2879.4,2272.4 V 1745.7" style="fill:none; fill-opacity:0.75; stroke:#e5e6e8; stroke-width:2; stroke-dasharray:16, 2;"/>
<path d="M 2813.2,2272.4 V 1745.7" style="fill:none; fill-opacity:0.75; stroke:#e5e6e8; stroke-width:2; stroke-dasharray:16, 2;"/>
<path d="M 2747.1,2272.4 V 1745.7" style="fill:none; fill-opacity:0.75; stroke:#e5e6e8; stroke-width:2; stroke-dasharray:16, 2;"/>
<path d="M 2945.5,2272.4 V 1745.7" style="fill:none; fill-opacity:0.75; stroke:#e5e6e8; stroke-width:2; stroke-dasharray:16, 2;"/>
</g>
</g>
<path d="m -455.8,821.1 h 267" style="marker-end:url(#id01); fill:#2e3436; fill-opacity:0.75; stroke:#2e3436; stroke-width:1.5;"/>
<path d="M -335.6,969.3 V 710.4" style="marker-end:url(#id01); fill:#2e3436; fill-opacity:0.75; stroke:#2e3436; stroke-width:1.5;"/>
<text x="-211.3" y="841.7" style="font-family:Verdana; font-size:28px; font-style:italic; overflow:visible; fill:black; stroke-width:0.5px;">x</text>
<text x="-356.4" y="723" style="font-family:Verdana; font-size:28px; font-style:italic; overflow:visible; fill:black; stroke-width:0.5px;">y</text>
<text x="-251.7" y="807.3" transform="scale(0.992221,1.00784)" style="font-family:Verdana; font-size:20px; overflow:visible; fill:#0197fd; stroke-width:2.25;">(5,0)</text>
<text x="-335.2" y="808.2" transform="scale(0.992221,1.00784)" style="font-family:Verdana; font-size:15.2px; overflow:visible; fill:#f0a513; stroke-width:1.71;">(0,0)</text>
<circle cx="-336.1" cy="821" r="83.5565" style="color:black; overflow:visible; fill:none; stroke:#fdca01; stroke-width:2.05;"/>
<circle cx="-253.3" cy="820.6" r="2.69149" style="overflow:visible; fill:#f0a513; stroke:#0197fd; stroke-width:2.25;"/>
<path d="m -332.5,819 67.4,-33.9 z" style="fill:#0169c9;"/>
<text x="-283.9" y="741.8" transform="scale(0.992221,1.00784)" style="font-family:Verdana; font-size:20px; overflow:visible; fill:#0197fd; stroke-width:2.25;">(3,4)</text>
<circle cx="-285.9" cy="754.6" r="2.69149" style="overflow:visible; fill:#f0a513; stroke:#0197fd; stroke-width:2.25;"/>
<text x="-334.3" y="724" transform="scale(0.992221,1.00784)" style="font-family:Verdana; font-size:20px; overflow:visible; fill:#0197fd; stroke-width:2.25;">(0,5)</text>
<circle cx="-335.6" cy="737.9" r="2.69149" style="overflow:visible; fill:#f0a513; stroke:#0197fd; stroke-width:2.25;"/>
<text x="-408.1" y="854" transform="scale(0.992221,1.00784)" style="font-family:Verdana; font-size:20px; overflow:visible; fill:#0197fd; stroke-width:2.25;">(-4,-3)</text>
<circle cx="-401.8" cy="870.6" r="2.69149" style="overflow:visible; fill:#f0a513; stroke:#0197fd; stroke-width:2.25;"/>
<text x="-334.3" y="890.6" transform="scale(0.992221,1.00784)" style="font-family:Verdana; font-size:20px; overflow:visible; fill:#0197fd; stroke-width:2.25;">(0,-5)</text>
<circle cx="-335.3" cy="904.6" r="2.69149" style="overflow:visible; fill:#f0a513; stroke:#0197fd; stroke-width:2.25;"/>
<circle cx="-335.4" cy="821.5" r="2.69149" style="overflow:visible; fill:#f0a513; stroke:#fdca01; stroke-width:2.25;"/>
</g>
</svg>
