<?xml version="1.0" encoding="UTF-8" standalone="no"?>
<!-- Copyright 2017 mathsisfun.com -->
<svg xmlns="http://www.w3.org/2000/svg" width="238" height="196.8" version="1.1" style="font-family:'Times New Roman'; stroke-width:2.37;">
<defs>
	<marker id="id3" style="overflow:visible;" orient="auto">
		<path transform="scale(0.4) rotate(180) translate(10,0)" style="fill:#0084c8; stroke:#0084c8; stroke-width:1pt;" d="M 0,0 L 5,-5 L -12.5,0 L 5,5 L 0,0 z "/>
	</marker>
	<marker id="id2" style="overflow:visible;" orient="auto">
		<path transform="scale(0.4) rotate(180) translate(10,0)" style="fill:#ff4141; stroke:#ff4141; stroke-width:1pt;" d="M 0,0 L 5,-5 L -12.5,0 L 5,5 L 0,0 z "/>
	</marker>
	<marker id="id1" style="overflow:visible;" orient="auto">
		<path transform="matrix(-0.4,0,0,-0.4,-4,0)" style="stroke:black; stroke-width:1pt;" d="M 0,0 5,-5 -12.5,0 5,5 Z"/>
	</marker>
	<marker style="overflow:visible;" orient="auto">
		<path transform="matrix(-0.4,0,0,-0.4,-4,0)" style="fill:#ff4141; stroke:#ff4141; stroke-width:1pt;" d="M 0,0 5,-5 -12.5,0 5,5 Z"/>
	</marker>
</defs>
<rect x="-0" y="0" width="238" height="196.8" style="fill:white; stroke-width:5.11;"/>
<g transform="matrix(0.431647,0,0,0.431647,-41.59,-213.41)">
	<g transform="translate(-853.459,49.8897)">
		<path style="fill:none; stroke:#d8dadc; stroke-dasharray:18.9, 2.4;" d="m 924.1,601.7 h 526.7"/>
		<path style="fill:none; stroke:#d8dadc; stroke-dasharray:18.9, 2.4;" d="m 924.1,535.6 h 526.7"/>
		<path style="fill:none; stroke:#d8dadc; stroke-dasharray:18.9, 2.4;" d="m 924.1,469.4 h 526.7"/>
		<path style="fill:none; stroke:#d8dadc; stroke-dasharray:18.9, 2.4;" d="m 924.1,403.3 h 526.7"/>
		<path style="fill:none; stroke:#d8dadc; stroke-dasharray:18.9, 2.4;" d="m 924.1,932.5 h 526.7"/>
		<path style="fill:none; stroke:#d8dadc; stroke-dasharray:18.9, 2.4;" d="m 924.1,800.2 h 526.7"/>
		<path style="fill:none; stroke:#d8dadc; stroke-dasharray:18.9, 2.4;" d="m 924.1,734 h 526.7"/>
		<path style="fill:none; stroke:#d8dadc; stroke-dasharray:18.9, 2.4;" d="m 924.1,667.9 h 526.7"/>
		<path style="fill:none; stroke:#d8dadc; stroke-dasharray:18.9, 2.4;" d="m 926.5,866.3 h 526.7"/>
	</g>
	<g transform="rotate(-90,786.875,1119.55)">
		<path style="fill:none; stroke:#d8dadc; stroke-dasharray:18.9, 2.4;" d="m 924.1,601.7 h 526.7"/>
		<path style="fill:none; stroke:#d8dadc; stroke-dasharray:18.9, 2.4;" d="m 924.1,535.6 h 526.7"/>
		<path style="fill:none; stroke:#d8dadc; stroke-dasharray:18.9, 2.4;" d="m 924.1,469.4 h 526.7"/>
		<path style="fill:none; stroke:#d8dadc; stroke-dasharray:18.9, 2.4;" d="m 924.1,403.3 h 526.7"/>
		<path style="fill:none; stroke:#d8dadc; stroke-dasharray:18.9, 2.4;" d="m 924.1,932.5 h 526.7"/>
		<path style="fill:none; stroke:#d8dadc; stroke-dasharray:18.9, 2.4;" d="m 924.1,800.2 h 526.7"/>
		<path style="fill:none; stroke:#d8dadc; stroke-dasharray:18.9, 2.4;" d="m 924.1,734 h 526.7"/>
		<path style="fill:none; stroke:#d8dadc; stroke-dasharray:18.9, 2.4;" d="m 924.1,667.9 h 526.7"/>
		<path style="fill:none; stroke:#d8dadc; stroke-dasharray:18.9, 2.4;" d="m 926.5,866.3 h 526.7"/>
	</g>
</g>
<path style="marker-end:url(#id1); fill:#2e3436; fill-opacity:0.75; stroke:#2e3436; stroke-width:1.53;" d="m -14,182.4 h 223.2"/>
<path style="marker-end:url(#id1); fill:#2e3436; fill-opacity:0.75; stroke:#2e3436; stroke-width:1.53;" d="M 18.1,209.5 V 14.8"/>
<text x="184.6" y="177" style="font-weight:bold; font-size:28.6px; font-style:italic; fill:black; stroke-width:1px;">x</text>
<text x="25.6" y="31.5" style="font-weight:bold; font-size:28.6px; font-style:italic; fill:black; stroke-width:1px;">y</text>
<path style="fill:#204a87; stroke:#204a87; stroke-width:2.3;" d="m 17.2,213 77.1,-231.9"/>
<g transform="matrix(0,0.510911,-0.510911,0,1209.72,-1197.51)">
	<path style="fill:#ff4141; stroke-width:3.5;" d="m 2613.1,2218.4 c 0.3,0 0.6,0 0.9,0 0.3,0 0.6,0.1 0.9,0.1 0.3,0.1 0.6,0.1 1,0.2 0.3,0.1 0.6,0.1 0.9,0.2 0.3,0.1 0.6,0.2 0.9,0.2 0.3,0.1 0.6,0.2 1,0.3 0.3,0.1 0.6,0.2 0.9,0.3 0.3,0.1 0.6,0.2 0.9,0.3 0.3,0.1 0.6,0.2 0.8,0.4 0.3,0.1 0.5,0.2 0.8,0.4 0.3,0.1 0.5,0.3 0.8,0.4 0.2,0.2 0.5,0.3 0.7,0.5 0.3,0.2 0.5,0.4 0.7,0.5 0.2,0.2 0.4,0.4 0.6,0.6 0.2,0.2 0.4,0.5 0.6,0.8 0.2,0.3 0.3,0.6 0.5,0.9 0.1,0.3 0.3,0.6 0.4,0.9 0.1,0.3 0.2,0.6 0.3,0.9 0.1,0.3 0.2,0.6 0.2,0.9 0.1,0.3 0.1,0.6 0.2,0.9 0,0.3 0.1,0.6 0.1,0.9 0,0.3 0.1,0.5 0.1,0.8 0,0.3 0.1,0.6 0.1,0.8 0,0.3 0,0.6 0,0.8 0,0.3 0,0.5 0,0.8 0,0.3 0,0.5 0,0.8 0,0.3 0,0.5 0,0.8 0,0.3 0,0.5 0,0.8 0,0.2 0,0.5 0,0.7 0,0.2 0,0.4 0,0.6 0,0.2 0,0.4 0,0.7 0,0.2 0,0.5 0.1,0.7 0,0.2 0,0.4 0.1,0.7 0,0.2 0.1,0.4 0.1,0.6 0,0.2 0.1,0.4 0.2,0.7 0,0.2 0.1,0.4 0.2,0.6 0,0.2 0.1,0.4 0.2,0.6 0.1,0.2 0.2,0.4 0.3,0.6 0.1,0.2 0.2,0.4 0.3,0.6 0.1,0.2 0.2,0.4 0.3,0.6 0.1,0.2 0.2,0.4 0.3,0.6 0.1,0.2 0.3,0.4 0.4,0.6 0.1,0.2 0.3,0.3 0.4,0.5 0.2,0.2 0.3,0.3 0.5,0.5 0.2,0.2 0.3,0.3 0.5,0.5 0.2,0.2 0.3,0.3 0.5,0.4 0.2,0.1 0.3,0.3 0.5,0.4 0.2,0.1 0.3,0.2 0.5,0.4 0.1,0.1 0.3,0.2 0.4,0.3 0.1,0.1 0.3,0.2 0.4,0.2 0.2,0.1 0.3,0.1 0.5,0.2 0.2,0.1 0.3,0.1 0.5,0.2 0.1,0.1 0.3,0.1 0.4,0.2 0.1,0 0.2,0.1 0.4,0.1 0.1,0 0.2,0 0.3,0 0.1,0 0.3,0 0.4,0.1 0.1,0 0.3,0 0.4,0.1 0.1,0 0.2,0 0.4,0.1 0.1,0 0.1,0 0.2,0 l -2.4,4.3 c -0.1,0 -0.1,0 -0.2,0 -0.1,0 -0.2,0 -0.4,-0.1 -0.1,0 -0.3,-0.1 -0.4,-0.1 -0.2,0 -0.3,-0.1 -0.5,-0.1 -0.2,-0.1 -0.4,-0.1 -0.6,-0.2 -0.2,-0.1 -0.3,-0.1 -0.5,-0.2 -0.2,-0.1 -0.3,-0.1 -0.5,-0.2 -0.2,-0.1 -0.3,-0.2 -0.5,-0.2 -0.2,-0.1 -0.4,-0.2 -0.6,-0.3 -0.2,-0.1 -0.4,-0.2 -0.6,-0.4 -0.2,-0.1 -0.4,-0.3 -0.5,-0.4 -0.2,-0.1 -0.3,-0.3 -0.5,-0.4 -0.2,-0.2 -0.4,-0.3 -0.5,-0.5 -0.2,-0.2 -0.4,-0.3 -0.5,-0.5 -0.2,-0.2 -0.4,-0.4 -0.6,-0.5 -0.2,-0.2 -0.4,-0.4 -0.6,-0.6 -0.2,-0.2 -0.4,-0.4 -0.6,-0.7 -0.2,-0.2 -0.3,-0.4 -0.5,-0.7 -0.2,-0.2 -0.3,-0.5 -0.5,-0.7 -0.1,-0.2 -0.3,-0.5 -0.4,-0.7 -0.1,-0.2 -0.2,-0.5 -0.3,-0.7 -0.1,-0.2 -0.2,-0.5 -0.3,-0.7 -0.1,-0.2 -0.2,-0.5 -0.3,-0.7 -0.1,-0.2 -0.1,-0.4 -0.2,-0.7 -0.1,-0.2 -0.1,-0.5 -0.2,-0.7 -0.1,-0.2 -0.1,-0.5 -0.2,-0.7 0,-0.2 -0.1,-0.5 -0.1,-0.7 0,-0.3 -0.1,-0.5 -0.1,-0.7 0,-0.3 -0.1,-0.5 -0.1,-0.8 0,-0.2 0,-0.5 0,-0.7 0,-0.2 0,-0.5 0,-0.7 0,-0.3 0,-0.5 0,-0.8 0,-0.3 0,-0.5 0,-0.8 0,-0.3 0,-0.5 0,-0.8 0,-0.3 0,-0.5 0,-0.8 0,-0.3 0,-0.5 0,-0.8 0,-0.3 0,-0.5 0,-0.8 0,-0.3 0,-0.5 -0.1,-0.8 0,-0.3 0,-0.5 -0.1,-0.8 0,-0.3 -0.1,-0.5 -0.1,-0.7 -0.1,-0.3 -0.1,-0.5 -0.2,-0.8 -0.1,-0.2 -0.1,-0.5 -0.2,-0.7 -0.1,-0.2 -0.2,-0.5 -0.3,-0.7 -0.1,-0.2 -0.2,-0.4 -0.3,-0.6 -0.1,-0.2 -0.2,-0.3 -0.4,-0.5 -0.1,-0.2 -0.3,-0.3 -0.5,-0.4 -0.2,-0.1 -0.3,-0.3 -0.5,-0.4 -0.2,-0.1 -0.4,-0.3 -0.6,-0.4 -0.2,-0.1 -0.4,-0.2 -0.6,-0.3 -0.2,-0.1 -0.5,-0.2 -0.7,-0.3 -0.3,-0.1 -0.5,-0.2 -0.8,-0.3 -0.3,-0.1 -0.5,-0.2 -0.8,-0.3 -0.3,-0.1 -0.6,-0.2 -0.9,-0.3 -0.3,-0.1 -0.6,-0.2 -0.9,-0.2 -0.3,-0.1 -0.6,-0.1 -0.8,-0.2 -0.3,-0.1 -0.6,-0.1 -0.9,-0.2 -0.3,0 -0.6,-0.1 -0.8,-0.1 -0.3,0 -0.5,0 -0.8,0 -0.3,0 -0.6,0 -0.8,0 l 2.1,-4.4 z"/>
	<path style="fill:#ff4141; stroke-width:3.5;" d="m 2613.1,2280.4 c 0.3,0 0.6,0 0.9,0 0.3,0 0.6,-0.1 0.9,-0.1 0.3,-0.1 0.6,-0.1 1,-0.2 0.3,0 0.6,-0.1 0.9,-0.2 0.3,-0.1 0.6,-0.2 0.9,-0.2 0.3,-0.1 0.6,-0.2 1,-0.3 0.3,-0.1 0.6,-0.2 0.9,-0.3 0.3,-0.1 0.6,-0.2 0.9,-0.3 0.3,-0.1 0.6,-0.2 0.8,-0.3 0.3,-0.1 0.5,-0.2 0.8,-0.4 0.3,-0.1 0.5,-0.3 0.8,-0.4 0.2,-0.1 0.5,-0.3 0.7,-0.4 0.3,-0.2 0.5,-0.4 0.7,-0.6 0.2,-0.2 0.4,-0.4 0.6,-0.6 0.2,-0.2 0.4,-0.5 0.6,-0.8 0.2,-0.3 0.3,-0.6 0.5,-0.9 0.1,-0.3 0.3,-0.6 0.4,-0.9 0.1,-0.3 0.2,-0.6 0.3,-0.9 0.1,-0.3 0.2,-0.6 0.2,-0.9 0.1,-0.3 0.1,-0.6 0.2,-0.9 0,-0.3 0.1,-0.6 0.1,-0.9 0,-0.3 0.1,-0.5 0.1,-0.8 0,-0.3 0.1,-0.6 0.1,-0.8 0,-0.3 0,-0.6 0,-0.8 0,-0.3 0,-0.5 0,-0.8 0,-0.3 0,-0.5 0,-0.8 0,-0.3 0,-0.5 0,-0.8 0,-0.3 0,-0.5 0,-0.8 0,-0.2 0,-0.5 0,-0.7 0,-0.2 0,-0.4 0,-0.6 0,-0.2 0,-0.5 0,-0.7 0,-0.2 0,-0.5 0.1,-0.7 0,-0.2 0,-0.4 0.1,-0.7 0,-0.2 0.1,-0.4 0.1,-0.6 0,-0.2 0.1,-0.4 0.2,-0.6 0,-0.2 0.1,-0.4 0.2,-0.6 0,-0.2 0.1,-0.4 0.2,-0.6 0.1,-0.2 0.2,-0.4 0.3,-0.6 0.1,-0.2 0.2,-0.4 0.3,-0.6 0.1,-0.2 0.2,-0.4 0.3,-0.6 0.1,-0.2 0.2,-0.4 0.3,-0.6 0.1,-0.2 0.3,-0.4 0.4,-0.6 0.1,-0.2 0.3,-0.4 0.4,-0.5 0.2,-0.2 0.3,-0.3 0.5,-0.5 0.2,-0.2 0.3,-0.3 0.5,-0.5 0.2,-0.2 0.3,-0.3 0.5,-0.4 0.2,-0.1 0.3,-0.3 0.5,-0.4 0.2,-0.1 0.3,-0.2 0.5,-0.4 0.1,-0.1 0.3,-0.2 0.4,-0.3 0.1,-0.1 0.3,-0.2 0.4,-0.2 0.2,-0.1 0.3,-0.2 0.5,-0.2 0.2,-0.1 0.3,-0.1 0.5,-0.2 0.1,-0.1 0.3,-0.1 0.4,-0.2 0.1,0 0.2,-0.1 0.4,-0.1 0.1,-0.1 0.2,0 0.3,0 0.1,0 0.3,0 0.4,-0.1 0.1,0 0.3,0 0.4,-0.1 0.1,0 0.2,0 0.4,-0.1 0.1,0 0.1,0 0.2,0 l -2.4,-4.3 c -0.1,0 -0.1,0 -0.2,0 -0.1,0 -0.2,0.1 -0.4,0.1 -0.1,0 -0.3,0 -0.4,0.1 -0.2,0 -0.3,0 -0.5,0.1 -0.2,0.1 -0.4,0.1 -0.6,0.2 -0.2,0.1 -0.3,0.1 -0.5,0.2 -0.2,0.1 -0.3,0.1 -0.5,0.2 -0.2,0.1 -0.3,0.1 -0.5,0.2 -0.2,0.1 -0.4,0.2 -0.6,0.3 -0.2,0.1 -0.4,0.2 -0.6,0.4 -0.2,0.1 -0.4,0.3 -0.5,0.4 -0.2,0.1 -0.3,0.3 -0.5,0.4 -0.2,0.2 -0.4,0.3 -0.5,0.5 -0.2,0.2 -0.4,0.3 -0.5,0.5 -0.2,0.2 -0.4,0.4 -0.6,0.5 -0.2,0.2 -0.4,0.4 -0.6,0.6 -0.2,0.2 -0.4,0.4 -0.6,0.7 -0.2,0.2 -0.3,0.5 -0.5,0.7 -0.2,0.2 -0.3,0.5 -0.5,0.7 -0.1,0.2 -0.3,0.5 -0.4,0.7 -0.1,0.2 -0.2,0.5 -0.3,0.7 -0.1,0.2 -0.2,0.5 -0.3,0.7 -0.1,0.2 -0.2,0.5 -0.3,0.7 -0.1,0.2 -0.1,0.5 -0.2,0.7 -0.1,0.2 -0.1,0.5 -0.2,0.7 -0.1,0.3 -0.1,0.5 -0.2,0.7 0,0.2 -0.1,0.5 -0.1,0.7 0,0.3 -0.1,0.5 -0.1,0.7 0,0.3 -0.1,0.5 -0.1,0.8 0,0.2 0,0.5 0,0.7 0,0.2 0,0.5 0,0.7 0,0.3 0,0.5 0,0.8 0,0.3 0,0.5 0,0.8 0,0.3 0,0.5 0,0.8 0,0.3 0,0.5 0,0.8 0,0.3 0,0.5 0,0.8 0,0.3 0,0.5 0,0.8 0,0.3 0,0.5 -0.1,0.8 0,0.3 0,0.5 -0.1,0.8 0,0.3 -0.1,0.5 -0.1,0.7 -0.1,0.3 -0.1,0.5 -0.2,0.8 -0.1,0.2 -0.1,0.5 -0.2,0.7 -0.1,0.2 -0.2,0.5 -0.3,0.7 -0.1,0.2 -0.2,0.4 -0.3,0.6 -0.1,0.2 -0.2,0.3 -0.4,0.5 -0.1,0.2 -0.3,0.3 -0.5,0.4 -0.2,0.1 -0.3,0.3 -0.5,0.4 -0.2,0.1 -0.4,0.3 -0.6,0.4 -0.2,0.1 -0.4,0.2 -0.6,0.3 -0.2,0.1 -0.5,0.2 -0.7,0.3 -0.3,0.1 -0.5,0.2 -0.8,0.3 -0.3,0.1 -0.5,0.2 -0.8,0.3 -0.3,0.1 -0.6,0.2 -0.9,0.3 -0.3,0.1 -0.6,0.2 -0.9,0.2 -0.3,0.1 -0.6,0.1 -0.8,0.2 -0.3,0.1 -0.6,0.1 -0.9,0.2 -0.3,0 -0.6,0.1 -0.8,0.1 -0.3,0 -0.5,0 -0.8,0 -0.3,0 -0.6,0 -0.8,0 l 2.1,4.4 z"/>
</g>
<g transform="matrix(0,-0.380212,0.510911,0,-1087.02,1020.03)">
	<path style="fill:#0084c8; stroke-width:3.5;" d="m 2573.6,2289.1 c -0.2,0.2 -0.4,0.5 -0.6,0.7 -0.2,0.3 -0.5,0.6 -0.7,0.8 -0.3,0.3 -0.6,0.6 -0.8,0.9 -0.4,0.4 -0.8,0.8 -1.2,1.2 -0.5,0.5 -1,0.9 -1.6,1.3 -0.6,0.5 -1.3,0.9 -1.9,1.3 -0.7,0.4 -1.4,0.8 -2.1,1.2 -0.8,0.4 -1.6,0.7 -2.4,1.1 -0.9,0.3 -1.8,0.6 -2.7,0.9 -0.9,0.3 -1.9,0.5 -2.8,0.7 -1,0.2 -2,0.3 -3,0.5 -1,0.1 -2.1,0.2 -3.1,0.3 -1,0.1 -2.1,0.2 -3.1,0.2 -1.1,0.1 -2.1,0.1 -3.2,0.1 -1.1,0 -2.2,0.1 -3.2,0.1 -1.1,0 -2.2,0 -3.2,0 -1.1,0 -2.2,-0.1 -3.3,-0.1 -1.1,0 -2.2,-0.1 -3.3,-0.1 -1.1,0 -2.2,-0.1 -3.2,-0.2 -1.1,-0.1 -2.2,-0.1 -3.3,-0.2 -1.1,-0.1 -2.2,-0.2 -3.3,-0.2 -1.1,-0.1 -2.2,-0.2 -3.3,-0.3 -1.1,-0.1 -2.2,-0.2 -3.3,-0.2 -1.1,-0.1 -2.2,-0.1 -3.3,-0.2 -1.1,-0.1 -2.2,-0.1 -3.3,-0.1 -1,0 -2.1,0 -3.1,0 -1,0 -2.1,0 -3.1,0.1 -1,0 -2,0.1 -3,0.2 -1,0.1 -1.9,0.2 -2.9,0.3 -0.9,0.1 -1.9,0.3 -2.8,0.5 -0.9,0.2 -1.8,0.4 -2.7,0.6 -0.9,0.2 -1.7,0.4 -2.6,0.6 -0.8,0.2 -1.6,0.5 -2.4,0.7 -0.8,0.3 -1.6,0.6 -2.4,0.9 -0.8,0.3 -1.5,0.6 -2.2,0.9 -0.7,0.3 -1.4,0.6 -2.1,1 -0.7,0.3 -1.3,0.7 -2,1 -0.6,0.3 -1.2,0.7 -1.8,1 -0.6,0.3 -1.1,0.7 -1.7,1 -0.5,0.3 -1,0.6 -1.5,1 -0.5,0.3 -0.9,0.6 -1.4,0.9 -0.4,0.3 -0.9,0.7 -1.3,1 -0.4,0.3 -0.8,0.6 -1.1,1 -0.4,0.3 -0.7,0.7 -1.1,1 -0.3,0.3 -0.6,0.7 -0.9,1.1 -0.3,0.3 -0.6,0.7 -0.8,1.1 -0.3,0.4 -0.5,0.8 -0.7,1.1 -0.2,0.3 -0.4,0.7 -0.6,1 -0.2,0.4 -0.4,0.7 -0.6,1.1 -0.2,0.4 -0.3,0.7 -0.4,1.1 -0.1,0.3 -0.2,0.7 -0.3,1 -0.1,0.3 -0.2,0.6 -0.3,0.9 -0.1,0.3 -0.2,0.5 -0.3,0.8 -0.1,0.2 -0.2,0.5 -0.2,0.7 -0.1,0.2 -0.1,0.4 -0.2,0.6 -0.1,0.2 -0.1,0.4 -0.2,0.6 -0.1,0.2 -0.1,0.4 -0.2,0.5 0,0.1 -0.1,0.3 -0.1,0.4 l 4.2,2.6 c 0,-0.1 0.1,-0.3 0.1,-0.4 0.1,-0.2 0.1,-0.4 0.2,-0.5 0.1,-0.2 0.1,-0.4 0.2,-0.6 0.1,-0.2 0.1,-0.4 0.2,-0.7 0.1,-0.2 0.2,-0.5 0.2,-0.7 0.1,-0.3 0.2,-0.5 0.3,-0.8 0.1,-0.3 0.2,-0.6 0.3,-0.9 0.1,-0.3 0.2,-0.7 0.3,-1 0.1,-0.3 0.2,-0.7 0.3,-1 0.1,-0.3 0.2,-0.6 0.4,-0.9 0.2,-0.3 0.4,-0.7 0.6,-1 0.2,-0.3 0.4,-0.7 0.6,-1 0.2,-0.3 0.5,-0.7 0.7,-1 0.3,-0.3 0.5,-0.7 0.8,-1 0.3,-0.3 0.6,-0.6 0.9,-0.9 0.3,-0.3 0.7,-0.6 1.1,-0.9 0.4,-0.3 0.8,-0.6 1.2,-0.9 0.4,-0.3 0.9,-0.6 1.3,-0.9 0.5,-0.3 1,-0.6 1.5,-0.9 0.5,-0.3 1.1,-0.7 1.6,-1 0.6,-0.3 1.2,-0.7 1.8,-1 0.6,-0.3 1.3,-0.7 1.9,-1 0.7,-0.3 1.3,-0.6 2,-0.9 0.7,-0.3 1.4,-0.6 2.2,-0.9 0.8,-0.3 1.5,-0.6 2.3,-0.8 0.8,-0.2 1.6,-0.5 2.3,-0.7 0.8,-0.2 1.7,-0.4 2.5,-0.6 0.9,-0.2 1.8,-0.4 2.6,-0.6 0.9,-0.2 1.8,-0.3 2.7,-0.4 0.9,-0.1 1.9,-0.2 2.8,-0.3 1,-0.1 2,-0.2 2.9,-0.2 1,0 2,-0.1 3,-0.1 1,0 2,0 3.1,0.1 1.1,0 2.2,0.1 3.2,0.1 1.1,0 2.2,0.1 3.3,0.2 1.1,0.1 2.2,0.2 3.3,0.2 1.1,0.1 2.2,0.2 3.3,0.3 1.1,0.1 2.2,0.2 3.3,0.2 1.1,0.1 2.2,0.1 3.3,0.2 1.1,0.1 2.2,0.1 3.3,0.2 1.1,0 2.2,0.1 3.3,0.1 1.1,0 2.2,0.1 3.4,0.1 1.1,0 2.2,0 3.3,0 1.1,0 2.2,-0.1 3.3,-0.1 1.1,0 2.2,-0.1 3.3,-0.2 1.1,-0.1 2.1,-0.2 3.2,-0.3 1.1,-0.1 2.1,-0.2 3.2,-0.4 1.1,-0.2 2.1,-0.3 3.2,-0.5 1,-0.2 2,-0.5 2.9,-0.8 1,-0.3 1.9,-0.6 2.9,-0.9 0.9,-0.3 1.8,-0.7 2.7,-1.2 0.8,-0.4 1.5,-0.9 2.2,-1.3 0.7,-0.5 1.4,-0.9 2,-1.4 0.6,-0.5 1.2,-0.9 1.7,-1.4 0.5,-0.4 0.9,-0.8 1.3,-1.2 0.3,-0.3 0.7,-0.7 1,-1 0.3,-0.3 0.5,-0.6 0.7,-0.9 0.2,-0.3 0.4,-0.5 0.6,-0.8 l -3.7,-3.2 z"/>
	<path style="fill:#0084c8; stroke-width:3.5;" d="m 2354.9,2289.1 c 0.2,0.2 0.4,0.5 0.6,0.7 0.2,0.3 0.5,0.6 0.7,0.8 0.3,0.3 0.6,0.6 0.8,0.9 0.4,0.4 0.8,0.8 1.2,1.2 0.5,0.5 1,0.9 1.6,1.3 0.6,0.5 1.2,0.9 1.9,1.3 0.7,0.4 1.4,0.8 2.1,1.2 0.8,0.4 1.6,0.7 2.4,1.1 0.9,0.3 1.8,0.6 2.7,0.9 0.9,0.3 1.9,0.5 2.8,0.7 1,0.2 2,0.3 3,0.5 1.1,0.1 2.1,0.2 3.1,0.3 1,0.1 2.1,0.2 3.1,0.2 1.1,0.1 2.1,0.1 3.2,0.1 1.1,0 2.2,0.1 3.2,0.1 1.1,0 2.2,0 3.2,0 1.1,0 2.2,-0.1 3.3,-0.1 1.1,0 2.2,-0.1 3.3,-0.1 1.1,0 2.2,-0.1 3.2,-0.2 1.1,-0.1 2.2,-0.1 3.3,-0.2 1.1,-0.1 2.2,-0.2 3.3,-0.2 1.1,-0.1 2.2,-0.2 3.3,-0.3 1.1,-0.1 2.2,-0.2 3.3,-0.2 1.1,-0.1 2.2,-0.1 3.3,-0.2 1.1,-0.1 2.2,-0.1 3.3,-0.1 1,0 2.1,0 3.1,0 1,0 2.1,0 3.1,0.1 1,0 2,0.1 3,0.2 1,0.1 1.9,0.2 2.9,0.3 0.9,0.1 1.9,0.3 2.8,0.5 0.9,0.2 1.8,0.4 2.7,0.6 0.9,0.2 1.7,0.4 2.5,0.6 0.8,0.2 1.6,0.5 2.4,0.7 0.8,0.3 1.6,0.6 2.4,0.9 0.8,0.3 1.5,0.6 2.2,0.9 0.7,0.3 1.4,0.6 2.1,1 0.7,0.3 1.3,0.7 2,1 0.6,0.3 1.2,0.7 1.8,1 0.6,0.3 1.1,0.7 1.7,1 0.5,0.3 1,0.6 1.5,1 0.5,0.3 0.9,0.6 1.4,0.9 0.4,0.3 0.9,0.7 1.3,1 0.4,0.3 0.8,0.6 1.1,1 0.4,0.3 0.7,0.7 1.1,1 0.3,0.3 0.6,0.7 0.9,1.1 0.3,0.3 0.6,0.7 0.8,1.1 0.3,0.4 0.5,0.8 0.7,1.1 0.2,0.3 0.4,0.7 0.6,1 0.2,0.4 0.4,0.7 0.6,1.1 0.2,0.4 0.3,0.7 0.4,1.1 0.1,0.3 0.2,0.7 0.3,1 0.1,0.3 0.2,0.6 0.3,0.9 0.1,0.3 0.2,0.5 0.3,0.8 0.1,0.2 0.2,0.5 0.2,0.7 0.1,0.2 0.2,0.4 0.2,0.6 0.1,0.2 0.1,0.4 0.2,0.6 0.1,0.2 0.1,0.4 0.2,0.5 0,0.1 0.1,0.3 0.2,0.4 l -4.2,2.6 c 0,-0.1 -0.1,-0.3 -0.1,-0.4 -0.1,-0.2 -0.1,-0.4 -0.2,-0.5 -0.1,-0.2 -0.1,-0.4 -0.2,-0.6 -0.1,-0.2 -0.1,-0.4 -0.2,-0.7 -0.1,-0.2 -0.2,-0.5 -0.2,-0.7 -0.1,-0.3 -0.2,-0.5 -0.3,-0.8 -0.1,-0.3 -0.2,-0.6 -0.3,-0.9 -0.1,-0.3 -0.2,-0.7 -0.3,-1 -0.1,-0.3 -0.2,-0.7 -0.3,-1 -0.1,-0.3 -0.2,-0.6 -0.4,-0.9 -0.2,-0.3 -0.4,-0.7 -0.6,-1 -0.2,-0.3 -0.4,-0.7 -0.6,-1 -0.2,-0.3 -0.5,-0.7 -0.7,-1 -0.3,-0.3 -0.6,-0.7 -0.8,-1 -0.3,-0.3 -0.6,-0.6 -0.9,-0.9 -0.4,-0.3 -0.7,-0.6 -1.1,-0.9 -0.4,-0.3 -0.8,-0.6 -1.2,-0.9 -0.4,-0.3 -0.9,-0.6 -1.3,-0.9 -0.5,-0.3 -1,-0.6 -1.5,-0.9 -0.5,-0.3 -1.1,-0.7 -1.6,-1 -0.6,-0.3 -1.2,-0.7 -1.8,-1 -0.6,-0.3 -1.3,-0.7 -1.9,-1 -0.7,-0.3 -1.3,-0.6 -2,-0.9 -0.7,-0.3 -1.4,-0.6 -2.2,-0.9 -0.8,-0.3 -1.5,-0.6 -2.3,-0.8 -0.8,-0.2 -1.6,-0.5 -2.3,-0.7 -0.8,-0.2 -1.7,-0.4 -2.5,-0.6 -0.9,-0.2 -1.8,-0.4 -2.6,-0.6 -0.9,-0.2 -1.8,-0.3 -2.7,-0.4 -0.9,-0.1 -1.9,-0.2 -2.8,-0.3 -1,-0.1 -2,-0.2 -2.9,-0.2 -1,0 -2,-0.1 -3,-0.1 -1,0 -2,0 -3.1,0.1 -1.1,0 -2.2,0.1 -3.2,0.1 -1.1,0 -2.2,0.1 -3.3,0.2 -1.1,0.1 -2.2,0.2 -3.3,0.2 -1.1,0.1 -2.2,0.2 -3.3,0.3 -1.1,0.1 -2.2,0.2 -3.3,0.2 -1.1,0.1 -2.2,0.1 -3.3,0.2 -1.1,0.1 -2.2,0.1 -3.3,0.2 -1.1,0 -2.2,0.1 -3.3,0.1 -1.1,0 -2.2,0.1 -3.4,0.1 -1.1,0 -2.2,0 -3.3,0 -1.1,0 -2.2,-0.1 -3.3,-0.1 -1.1,0 -2.2,-0.1 -3.3,-0.2 -1.1,-0.1 -2.1,-0.2 -3.2,-0.3 -1.1,-0.1 -2.1,-0.2 -3.2,-0.4 -1.1,-0.2 -2.1,-0.3 -3.2,-0.5 -1,-0.2 -2,-0.5 -2.9,-0.8 -1,-0.3 -1.9,-0.6 -2.9,-0.9 -0.9,-0.3 -1.8,-0.7 -2.7,-1.2 -0.8,-0.4 -1.5,-0.9 -2.2,-1.3 -0.7,-0.5 -1.4,-0.9 -2,-1.4 -0.6,-0.5 -1.2,-0.9 -1.7,-1.4 -0.4,-0.4 -0.9,-0.8 -1.3,-1.2 -0.3,-0.3 -0.7,-0.7 -1,-1 -0.2,-0.3 -0.5,-0.6 -0.7,-0.9 -0.2,-0.3 -0.4,-0.5 -0.6,-0.8 l 3.6,-3.2 z"/>
</g>
<text x="106.5" y="92.3" style="font-family:'Comic Sans MS'; font-size:24.5px; font-style:italic; fill:#0084c8; stroke-width:2.2;">Rise or Fall</text>
<text x="42.2" y="173" style="font-family:'Comic Sans MS'; font-size:24.5px; font-style:italic; fill:#ff4141; stroke-width:2.2;">Run</text>
<text x="-60.8" y="79.3" transform="rotate(-66.9006)" style="font-family:Arial; font-size:31.2px; fill:#204a87; stroke-width:5.3;">m</text>
<path style="marker-end:url(#id2); fill:none; stroke:#ff4141; stroke-width:1.7; stroke-dasharray:3.4,3.4;" d="M 46.6,125.3 H 72.1"/>
<path style="marker-end:url(#id3); fill:none; fill-opacity:0; stroke:#0084c8; stroke-width:1.7; stroke-dasharray:3.4,3.4;" d="m 74.1,125.3 0,-81.4"/>
</svg>