<?xml version="1.0" encoding="UTF-8" standalone="no"?>
<!-- Copyright 2017 mathsisfun.com -->
<svg xmlns="http://www.w3.org/2000/svg" width="259" height="223.7" version="1.1">
<defs/>
<g transform="translate(-1566.39,-868.079)">
<path d="m 1566.4,868.1 h 259 v 223.7 h -259 z" style="fill:white;"/>
<path d="m 1571.8,972.5 h 263.4" style="fill:none; stroke:#e5e6e8; stroke-width:1.04px; stroke-dasharray:8, 1;"/>
<path d="m 1571.8,939.4 h 263.4" style="fill:none; stroke:#e5e6e8; stroke-width:1.04px; stroke-dasharray:8, 1;"/>
<path d="m 1571.8,906.3 h 263.4" style="fill:none; stroke:#e5e6e8; stroke-width:1.04px; stroke-dasharray:8, 1;"/>
<path d="m 1571.8,873.3 h 263.4" style="fill:none; stroke:#e5e6e8; stroke-width:1.04px; stroke-dasharray:8, 1;"/>
<path d="m 1571.8,1137.8 h 263.4" style="fill:none; stroke:#e5e6e8; stroke-width:1.04px; stroke-dasharray:8, 1;"/>
<path d="m 1571.8,1071.8 h 263.4" style="fill:none; stroke:#e5e6e8; stroke-width:1.04px; stroke-dasharray:8, 1;"/>
<path d="m 1571.8,1038.6 h 263.4" style="fill:none; stroke:#e5e6e8; stroke-width:1.04px; stroke-dasharray:8, 1;"/>
<path d="m 1571.8,1005.6 h 263.4" style="fill:none; stroke:#e5e6e8; stroke-width:1.04px; stroke-dasharray:8, 1;"/>
<path d="m 1571.8,1104.8 h 263.4" style="fill:none; stroke:#e5e6e8; stroke-width:1.04px; stroke-dasharray:8, 1;"/>
<path d="m 1571.8,989 h 263.4" style="fill:none; stroke:#e5e6e8; stroke-width:1.04px; stroke-dasharray:8, 1;"/>
<path d="m 1571.8,956 h 263.4" style="fill:none; stroke:#e5e6e8; stroke-width:1.04px; stroke-dasharray:8, 1;"/>
<path d="m 1571.8,922.9 h 263.4" style="fill:none; stroke:#e5e6e8; stroke-width:1.04px; stroke-dasharray:8, 1;"/>
<path d="m 1571.8,889.8 h 263.4" style="fill:none; stroke:#e5e6e8; stroke-width:1.04px; stroke-dasharray:8, 1;"/>
<path d="m 1571.8,1088.2 h 263.4" style="fill:none; stroke:#e5e6e8; stroke-width:1.04px; stroke-dasharray:8, 1;"/>
<path d="m 1571.8,1055.2 h 263.4" style="fill:none; stroke:#e5e6e8; stroke-width:1.04px; stroke-dasharray:8, 1;"/>
<path d="m 1571.8,1022.1 h 263.4" style="fill:none; stroke:#e5e6e8; stroke-width:1.04px; stroke-dasharray:8, 1;"/>
<path d="m 1571.8,1121.4 h 263.4" style="fill:none; stroke:#e5e6e8; stroke-width:1.04px; stroke-dasharray:8, 1;"/>
<path d="M 1670.5,1137.3 V 873.9" style="fill:none; stroke:#e5e6e8; stroke-width:1.04px; stroke-dasharray:8, 1;"/>
<path d="M 1637.4,1137.3 V 873.9" style="fill:none; stroke:#e5e6e8; stroke-width:1.04px; stroke-dasharray:8, 1;"/>
<path d="M 1604.3,1137.3 V 873.9" style="fill:none; stroke:#e5e6e8; stroke-width:1.04px; stroke-dasharray:8, 1;"/>
<path d="M 1571.2,1137.3 V 873.9" style="fill:none; stroke:#e5e6e8; stroke-width:1.04px; stroke-dasharray:8, 1;"/>
<path d="M 1835.8,1137.3 V 873.9" style="fill:none; stroke:#e5e6e8; stroke-width:1.04px; stroke-dasharray:8, 1;"/>
<path d="M 1769.7,1137.3 V 873.9" style="fill:none; stroke:#e5e6e8; stroke-width:1.04px; stroke-dasharray:8, 1;"/>
<path d="M 1736.6,1137.3 V 873.9" style="fill:none; stroke:#e5e6e8; stroke-width:1.04px; stroke-dasharray:8, 1;"/>
<path d="M 1703.5,1137.3 V 873.9" style="fill:none; stroke:#e5e6e8; stroke-width:1.04px; stroke-dasharray:8, 1;"/>
<path d="M 1802.7,1137.3 V 873.9" style="fill:none; stroke:#e5e6e8; stroke-width:1.04px; stroke-dasharray:8, 1;"/>
<path d="M 1687,1137.3 V 873.9" style="fill:none; stroke:#e5e6e8; stroke-width:1.04px; stroke-dasharray:8, 1;"/>
<path d="M 1653.9,1137.3 V 873.9" style="fill:none; stroke:#e5e6e8; stroke-width:1.04px; stroke-dasharray:8, 1;"/>
<path d="M 1620.9,1137.3 V 873.9" style="fill:none; stroke:#e5e6e8; stroke-width:1.04px; stroke-dasharray:8, 1;"/>
<path d="M 1587.8,1137.3 V 873.9" style="fill:none; stroke:#e5e6e8; stroke-width:1.04px; stroke-dasharray:8, 1;"/>
<path d="M 1786.2,1137.3 V 873.9" style="fill:none; stroke:#e5e6e8; stroke-width:1.04px; stroke-dasharray:8, 1;"/>
<path d="M 1753.1,1137.3 V 873.9" style="fill:none; stroke:#e5e6e8; stroke-width:1.04px; stroke-dasharray:8, 1;"/>
<path d="M 1720.1,1137.3 V 873.9" style="fill:none; stroke:#e5e6e8; stroke-width:1.04px; stroke-dasharray:8, 1;"/>
<path d="M 1819.3,1137.3 V 873.9" style="fill:none; stroke:#e5e6e8; stroke-width:1.04px; stroke-dasharray:8, 1;"/>
<path d="m 1552.2,1038.6 h 267 z" style="fill:#2e3436;"/>
<path d="m 1552.2,1038.6 h 267" style="fill:none; stroke:#2e3436; stroke-width:1.52px;"/>
<path d="m 1813.2,1038.6 -3,3 10.5,-3 -10.5,-3 z" style="fill:black; stroke:black; stroke-width:0.8px;"/>
<path d="M 1637.4,1137.3 V 878.3 Z" style="fill:#2e3436;"/>
<path d="M 1637.4,1137.3 V 878.3" style="fill:none; stroke:#2e3436; stroke-width:1.52px;"/>
<path d="m 1637.4,884.3 3,3 -3,-10.5 -3,10.5 z" style="fill:black; stroke:black; stroke-width:0.8px;"/>
<path d="m 1800.2,1026.5 -4.2,-7.6 h 2.9 l 3.1,5.8 5.7,-5.8 h 3.2 l -7.8,7.8 4.3,7.5 h -3 l -3.1,-5.8 -5.8,5.8 h -3.1 z" style="fill:black;"/>
<path d="m 1646.2,900.6 h -2.9 l 4.5,-6.5 -2.8,-14.4 h 2.6 l 2.2,11.4 7.3,-11.4 h 2.9 z" style="fill:black;"/>
<path d="m 1673.4,989.4 c 0,1.5 -1.2,2.7 -2.7,2.7 -1.4,0 -2.6,-1.2 -2.6,-2.7 0,-1.5 1.2,-2.7 2.6,-2.7 1.5,0 2.7,1.2 2.7,2.7 z" style="fill:#f0a513; stroke:#fdca01; stroke-width:2.24px;"/>
<path d="m 1673.5,987.8 67.4,-33.9 z" style="fill:#0169c9;"/>
<path d="m 1673.5,987.8 67.4,-33.9" style="fill:none; stroke:#0169c9; stroke-width:2.32px;"/>
<path d="m 1681.8,983.7 2.1,-6.2 -12.5,11.5 16.6,-3.2 z" style="fill:#0169c9; stroke:#0169c9; stroke-width:1.28px;"/>
<path d="m 1732.6,958.1 -2.1,6.3 12.6,-11.5 -16.7,3.1 z" style="fill:#0169c9; stroke:#0169c9; stroke-width:1.28px;"/>
<path d="m 1705.9,954.3 h -0.2 c -0.3,-0 -0.6,-0.2 -1,-0.2 -0.3,-0 -0.7,-0 -1.2,-0 -0.7,0 -1.4,0.2 -2.1,0.5 -0.7,0.3 -1.4,0.8 -2,1.3 v 10.3 h -2.5 v -14.5 h 2.5 v 2.1 c 1,-0.7 1.8,-1.3 2.5,-1.6 0.7,-0.3 1.5,-0.5 2.2,-0.5 0.4,0 0.7,0 0.9,0 0.2,0 0.5,0 0.9,0.2 z" style="fill:#0169c9;"/>
<path d="m 1756.6,947.7 h -2.2 c -1.1,-1.4 -2,-2.8 -2.6,-4.3 -0.6,-1.6 -1,-3.4 -1,-5.4 0,-2 0.3,-3.8 1,-5.4 0.6,-1.5 1.5,-3 2.6,-4.3 h 2.2 v 0 c -0.6,0.5 -1,1 -1.5,1.7 -0.5,0.6 -0.9,1.4 -1.3,2.2 -0.4,0.8 -0.7,1.7 -1,2.7 -0.2,1 -0.4,2 -0.4,3 0,1.1 0.2,2.2 0.4,3.1 0.2,0.9 0.5,1.8 1,2.6 0.3,0.8 0.8,1.5 1.3,2.2 0.5,0.6 1,1.2 1.5,1.7 z" style="fill:#0197fd;"/>
<path d="m 1769.1,943.6 h -2.2 l -3.1,-4.2 -3,4.2 h -2.2 l 4.2,-5.4 -4.2,-5.5 h 2.2 l 3,4.2 3.1,-4.2 h 2.1 l -4.2,5.4 z" style="fill:#0197fd;"/>
<path d="m 1775.3,940.8 -2.7,6.5 h -1.4 l 1.7,-6.5 z" style="fill:#0197fd;"/>
<path d="m 1788.1,932.6 -6.3,15 h -1.9 l 2,-4.6 -4.3,-10.5 h 2 l 3.3,8.2 3.4,-8.2 z" style="fill:#0197fd;"/>
<path d="m 1795.9,938 c 0,2 -0.3,3.8 -1,5.4 -0.6,1.5 -1.5,3 -2.6,4.3 h -2.2 v -0 c 0.6,-0.5 1,-1 1.5,-1.7 0.5,-0.6 1,-1.4 1.4,-2.2 0.4,-0.9 0.7,-1.8 0.9,-2.6 0.2,-1 0.4,-2 0.4,-3.1 0,-1 -0.2,-2.1 -0.4,-3 -0.2,-1 -0.6,-1.9 -0.9,-2.7 -0.5,-0.8 -0.9,-1.5 -1.4,-2.2 -0.5,-0.6 -1,-1.2 -1.5,-1.7 v -0 h 2.2 c 1.1,1.4 2,2.8 2.6,4.3 0.6,1.6 1,3.4 1,5.4 z" style="fill:#0197fd;"/>
<path d="m 1644.8,979.3 h -2.2 c -1.1,-1.4 -2,-2.8 -2.6,-4.4 -0.6,-1.6 -1,-3.4 -1,-5.3 0,-2 0.3,-3.8 1,-5.4 0.6,-1.6 1.5,-3 2.6,-4.4 h 2.2 v 0.2 c -0.5,0.5 -1,1 -1.5,1.6 -0.4,0.6 -0.9,1.4 -1.3,2.2 -0.4,0.8 -0.7,1.7 -1,2.6 -0.2,1 -0.3,2 -0.3,3.1 0,1.1 0.1,2.1 0.3,3 0.2,1 0.6,1.8 1,2.6 0.4,0.8 0.8,1.5 1.4,2.2 0.5,0.6 1,1.2 1.4,1.6 z" style="fill:#f0a513;"/>
<path d="m 1656.5,975.2 h -1.8 V 974 c -0.2,0.2 -0.4,0.3 -0.6,0.5 -0.3,0.2 -0.6,0.4 -0.8,0.5 -0.3,0.2 -0.6,0.2 -1,0.4 -0.4,0.1 -0.9,0.2 -1.4,0.2 -1,0 -1.8,-0.3 -2.5,-1 -0.7,-0.6 -1,-1.4 -1,-2.5 0,-0.8 0.2,-1.5 0.5,-2 0.4,-0.6 0.9,-1 1.5,-1.2 0.6,-0.3 1.4,-0.6 2.4,-0.6 0.9,-0.1 1.9,-0.2 3,-0.2 v -0.2 c 0,-0.5 -0.1,-0.8 -0.2,-1.1 -0.1,-0.2 -0.3,-0.5 -0.6,-0.6 -0.3,-0.2 -0.6,-0.2 -1,-0.2 -0.4,-0.1 -0.7,-0.1 -1.1,-0.1 -0.5,0 -1,0 -1.6,0.2 -0.6,0.2 -1.2,0.3 -1.8,0.6 h -0.1 v -1.9 c 0.3,-0.1 0.9,-0.2 1.5,-0.3 0.6,-0 1.4,-0.2 2,-0.2 0.7,0 1.4,0 2,0.2 0.6,0.1 1,0.3 1.4,0.6 0.4,0.2 0.7,0.6 1,1.1 0.2,0.5 0.3,1.1 0.3,1.8 z m -1.8,-2.7 v -3 c -0.6,0 -1.2,0.1 -1.9,0.2 -0.8,0 -1.4,0.2 -1.8,0.2 -0.5,0.2 -1,0.4 -1.3,0.7 -0.3,0.3 -0.5,0.7 -0.5,1.3 0,0.6 0.2,1.1 0.6,1.4 0.4,0.3 1,0.5 1.8,0.5 0.6,0 1.2,-0.1 1.8,-0.4 0.5,-0.2 1,-0.6 1.4,-0.9 z" style="fill:#f0a513;"/>
<path d="m 1663.8,972.4 -2.7,6.4 h -1.4 l 1.7,-6.4 z" style="fill:#f0a513;"/>
<path d="m 1676.7,969.6 c 0,1 -0.2,1.8 -0.4,2.5 -0.2,0.7 -0.6,1.4 -1,1.8 -0.4,0.6 -1,1 -1.5,1.2 -0.5,0.2 -1.1,0.4 -1.8,0.4 -0.6,0 -1.2,-0.1 -1.6,-0.2 -0.5,-0.2 -1,-0.3 -1.4,-0.6 l -0.2,0.6 h -1.7 v -15.4 h 1.8 v 5.5 c 0.5,-0.4 1,-0.8 1.6,-1 0.6,-0.3 1.2,-0.4 1.9,-0.4 1.3,0 2.3,0.5 3,1.4 0.7,1 1.1,2.4 1.1,4.2 z m -1.8,0.1 c 0,-1.4 -0.2,-2.3 -0.6,-3 -0.5,-0.6 -1.1,-1 -2.1,-1 -0.6,0 -1.1,0.1 -1.6,0.3 -0.6,0.2 -1,0.6 -1.5,0.9 v 6.3 c 0.5,0.2 1,0.4 1.3,0.5 0.4,0.1 0.8,0.2 1.3,0.2 1,0 1.8,-0.3 2.4,-1 0.6,-0.6 0.9,-1.7 0.9,-3.1 z" style="fill:#f0a513;"/>
<path d="m 1685,969.6 c 0,1.9 -0.3,3.7 -1,5.3 -0.6,1.6 -1.5,3 -2.6,4.4 h -2.2 v -0.2 c 0.5,-0.4 1,-1 1.5,-1.6 0.5,-0.7 0.9,-1.4 1.3,-2.2 0.4,-0.8 0.7,-1.7 1,-2.6 0.2,-1 0.4,-1.9 0.4,-3 0,-1.1 -0.2,-2.2 -0.4,-3.1 -0.2,-1 -0.6,-1.8 -1,-2.6 -0.4,-0.9 -0.8,-1.6 -1.3,-2.2 -0.5,-0.6 -1,-1.1 -1.5,-1.6 v -0.2 h 2.2 c 1.1,1.4 2,2.8 2.6,4.4 0.6,1.6 1,3.4 1,5.4 z" style="fill:#f0a513;"/>
<path d="m 1753.4,989 c 0,46.2 -37.4,83.5 -83.5,83.5 -46.2,0 -83.6,-37.4 -83.6,-83.5 0,-46.2 37.4,-83.5 83.6,-83.5 46.2,0 83.5,37.4 83.5,83.5 z" style="fill:none; stroke:#fdca01; stroke-width:2.08px;"/>
<path d="m 1747.4,951.8 c 0,1.4 -1.2,2.6 -2.6,2.6 -1.5,0 -2.7,-1.2 -2.7,-2.6 0,-1.5 1.2,-2.7 2.7,-2.7 1.4,0 2.6,1.2 2.6,2.7 z" style="fill:#f0a513; stroke:#0197fd; stroke-width:2.24px;"/>
<rect x="1735.5" y="980.5" width="9.6" height="9.5" style="overflow:visible; fill:none; stroke:black; stroke-width:1.4;"/>
<path d="m 1671,990 h 74.5" style="overflow:visible; fill:#013397; stroke:#013397; stroke-width:1.4;"/>
<path d="M 1745.1,952.7 V 990" style="overflow:visible; fill:#013397; stroke:#013397; stroke-width:1.4;"/>
<g transform="matrix(0.468153,0,0,0.607017,894.946,657.437)">
<path d="m 1845.3,485.6 c 6.1,0.3 14,3.2 14.1,10.4 0.5,5.6 -0.8,12.4 4.4,16.2 1.6,2.3 7.1,1.2 3.8,4.5 -0.9,4.1 -5.4,0.4 -7.2,-1 -5.5,-4.2 -5.4,-11.4 -5.4,-17.6 0.4,-5.9 -6.2,-8 -11,-8.2 -1.9,0.4 1.2,-3.6 1.2,-4.5 z" style="overflow:visible; fill:#0169c9; stroke-width:3.5;"/>
<path d="m 1845.3,547.7 c 6.1,-0.3 14,-3.2 14.1,-10.4 0.5,-5.6 -0.8,-12.4 4.4,-16.2 1.6,-2.3 7.1,-1.2 3.8,-4.6 -0.9,-4.1 -5.4,-0.4 -7.2,1 -5.5,4.2 -5.4,11.4 -5.4,17.6 0.4,5.9 -6.2,8 -11,8.2 -1.9,-0.2 1.2,3.4 1.2,4.5 z" style="overflow:visible; fill:#0169c9; stroke-width:3.5;"/>
</g>
<text x="1775.3" y="977.9" style="font-family:Verdana; font-size:22.7px; overflow:visible; fill:#013397; stroke-width:1.03;">y-b </text>
<text x="1689.3" y="1031" style="font-family:Verdana; font-size:22.7px; overflow:visible; fill:#f44800; stroke-width:1.03;">x-a</text>
<g transform="matrix(0.334717,0,0,0.481173,1139.73,729.595)">
<path d="m 1805.9,556.3 c -9.4,12.6 -26.7,11.3 -40.6,11.1 -18.7,-1 -38.8,-4.4 -55.9,5.3 -7.9,3.4 -14,10.1 -15.7,18.6 3.1,5 5.7,1.5 6.2,-3.5 5.3,-10.2 17.6,-14.4 28.2,-16.7 22.9,-3.5 46.7,5.1 69.2,-2.4 4.4,-2.2 16.9,-7.9 8.8,-12.3 z" style="overflow:visible; fill:#f44800; stroke-width:3.5;"/>
<path d="m 1587.2,556.3 c 9.4,12.6 26.7,11.3 40.6,11.1 18.7,-1 38.8,-4.4 55.9,5.3 7.9,3.4 14,10.1 15.7,18.6 -3.1,5 -5.7,1.5 -6.2,-3.5 -5.3,-10.2 -17.6,-14.4 -28.2,-16.7 -22.9,-3.5 -46.7,5.1 -69.2,-2.4 -4.4,-2.2 -16.9,-7.9 -8.8,-12.3 z" style="overflow:visible; fill:#f44800; stroke-width:3.5;"/>
</g>
</g>
</svg>
