<?xml version="1.0" encoding="UTF-8" standalone="no"?>
<!-- Copyright 2017 mathsisfun.com -->
<svg xmlns="http://www.w3.org/2000/svg" width="400" height="290" version="1.1" style="font-family:'Comic Sans MS'; font-size:30.9px; fill:none; stroke-width:2;">
<defs>
	<marker id="id1" style="overflow:visible;" orient="auto">
		<path transform="matrix(-0.4,0,0,-0.4,-4,0)" style="stroke:black; stroke-width:1pt;" d="M 0,0 5,-5 -12.5,0 5,5 0,0 Z"/>
	</marker>
	<marker id="id4" style="overflow:visible;" orient="auto">
		<path transform="matrix(0.4,0,0,0.4,4,0)" style="fill:#0197fd; stroke:#0197fd; stroke-width:1pt;" d="M 0,0 5,-5 -12.5,0 5,5 0,0 Z"/>
	</marker>
	<marker id="id5" style="overflow:visible;" orient="auto">
		<path transform="matrix(-0.4,0,0,-0.4,-4,0)" style="fill:#0197fd; stroke:#0197fd; stroke-width:1pt;" d="M 0,0 5,-5 -12.5,0 5,5 0,0 Z"/>
	</marker>
	<marker id="id6" style="overflow:visible;" orient="auto">
		<path transform="matrix(0.4,0,0,0.4,4,0)" style="fill:#0197fd; stroke:#0197fd; stroke-width:1pt;" d="M 0,0 5,-5 -12.5,0 5,5 0,0 Z"/>
	</marker>
	<marker id="id7" style="overflow:visible;" orient="auto">
		<path transform="matrix(-0.4,0,0,-0.4,-4,0)" style="fill:#0197fd; stroke:#0197fd; stroke-width:1pt;" d="M 0,0 5,-5 -12.5,0 5,5 0,0 Z"/>
	</marker>
	<marker id="id2" style="overflow:visible;" orient="auto">
		<path transform="matrix(0.4,0,0,0.4,4,0)" style="fill:#f44800; stroke:#f44800; stroke-width:1pt;" d="M 0,0 5,-5 -12.5,0 5,5 0,0 Z"/>
	</marker>
	<marker id="id3" style="overflow:visible;" orient="auto">
		<path transform="matrix(-0.4,0,0,-0.4,-4,0)" style="fill:#f44800; stroke:#f44800; stroke-width:1pt;" d="M 0,0 5,-5 -12.5,0 5,5 0,0 Z"/>
	</marker>
</defs>
<g transform="translate(-3522.2697,-804.0489)"/>
<g transform="matrix(0.55123,0,0,0.55123,-1759.89,-158.554)">
	<g transform="translate(673.207,-1473.67)">
		<g transform="translate(618,-6)">
			<path style="stroke:#e5e6e8; stroke-dasharray:16, 2;" d="m 1832.6,1948.9 h 526.7"/>
			<path style="stroke:#e5e6e8; stroke-dasharray:16, 2;" d="m 1832.6,1882.7 h 526.7"/>
			<path style="stroke:#e5e6e8; stroke-dasharray:16, 2;" d="m 1832.6,1816.6 h 526.7"/>
			<path style="stroke:#e5e6e8; stroke-dasharray:16, 2;" d="m 1832.6,1750.4 h 526.7"/>
			<path style="stroke:#e5e6e8; stroke-dasharray:16, 2;" d="m 1832.6,2279.6 h 526.7"/>
			<path style="stroke:#e5e6e8; stroke-dasharray:16, 2;" d="m 1832.6,2147.3 h 526.7"/>
			<path style="stroke:#e5e6e8; stroke-dasharray:16, 2;" d="m 1832.6,2081.2 h 526.7"/>
			<path style="stroke:#e5e6e8; stroke-dasharray:16, 2;" d="m 1832.6,2015 h 526.7"/>
			<path style="stroke:#e5e6e8; stroke-dasharray:16, 2;" d="m 1832.6,2213.5 h 526.7"/>
			<path style="stroke:#e5e6e8; stroke-dasharray:16, 2;" d="m 1832.6,1982 h 526.7"/>
			<path style="stroke:#e5e6e8; stroke-dasharray:16, 2;" d="m 1832.6,1915.8 h 526.7"/>
			<path style="stroke:#e5e6e8; stroke-dasharray:16, 2;" d="m 1832.6,1849.7 h 526.7"/>
			<path style="stroke:#e5e6e8; stroke-dasharray:16, 2;" d="m 1832.6,1783.5 h 526.7"/>
			<path style="stroke:#e5e6e8; stroke-dasharray:16, 2;" d="m 1832.6,2180.4 h 526.7"/>
			<path style="stroke:#e5e6e8; stroke-dasharray:16, 2;" d="m 1832.6,2114.3 h 526.7"/>
			<path style="stroke:#e5e6e8; stroke-dasharray:16, 2;" d="m 1832.6,2048.1 h 526.7"/>
			<path style="stroke:#e5e6e8; stroke-dasharray:16, 2;" d="m 1832.6,2246.5 h 526.7"/>
		</g>
		<g>
			<path style="stroke:#e5e6e8; stroke-dasharray:16, 2;" d="M 2647.9,2272.4 V 1745.7"/>
			<path style="stroke:#e5e6e8; stroke-dasharray:16, 2;" d="M 2581.7,2272.4 V 1745.7"/>
			<path style="stroke:#e5e6e8; stroke-dasharray:16, 2;" d="M 2515.6,2272.4 V 1745.7"/>
			<path style="stroke:#e5e6e8; stroke-dasharray:16, 2;" d="M 2449.4,2272.4 V 1745.7"/>
			<path style="stroke:#e5e6e8; stroke-dasharray:16, 2;" d="M 2978.6,2272.4 V 1745.7"/>
			<path style="stroke:#e5e6e8; stroke-dasharray:16, 2;" d="M 2846.3,2272.4 V 1745.7"/>
			<path style="stroke:#e5e6e8; stroke-dasharray:16, 2;" d="M 2780.1,2272.4 V 1745.7"/>
			<path style="stroke:#e5e6e8; stroke-dasharray:16, 2;" d="M 2714,2272.4 V 1745.7"/>
			<path style="stroke:#e5e6e8; stroke-dasharray:16, 2;" d="M 2912.4,2272.4 V 1745.7"/>
			<path style="stroke:#e5e6e8; stroke-dasharray:16, 2;" d="M 2680.9,2272.4 V 1745.7"/>
			<path style="stroke:#e5e6e8; stroke-dasharray:16, 2;" d="M 2614.8,2272.4 V 1745.7"/>
			<path style="stroke:#e5e6e8; stroke-dasharray:16, 2;" d="M 2548.6,2272.4 V 1745.7"/>
			<path style="stroke:#e5e6e8; stroke-dasharray:16, 2;" d="M 2482.5,2272.4 V 1745.7"/>
			<path style="stroke:#e5e6e8; stroke-dasharray:16, 2;" d="M 2879.4,2272.4 V 1745.7"/>
			<path style="stroke:#e5e6e8; stroke-dasharray:16, 2;" d="M 2813.2,2272.4 V 1745.7"/>
			<path style="stroke:#e5e6e8; stroke-dasharray:16, 2;" d="M 2747.1,2272.4 V 1745.7"/>
			<path style="stroke:#e5e6e8; stroke-dasharray:16, 2;" d="M 2945.5,2272.4 V 1745.7"/>
		</g>
	</g>
	<g transform="translate(1202.38,-1474.16)">
		<g transform="translate(618,-6)">
			<path style="stroke:#e5e6e8; stroke-dasharray:16, 2;" d="m 1832.6,1948.9 h 526.7"/>
			<path style="stroke:#e5e6e8; stroke-dasharray:16, 2;" d="m 1832.6,1882.7 h 526.7"/>
			<path style="stroke:#e5e6e8; stroke-dasharray:16, 2;" d="m 1832.6,1816.6 h 526.7"/>
			<path style="stroke:#e5e6e8; stroke-dasharray:16, 2;" d="m 1832.6,1750.4 h 526.7"/>
			<path style="stroke:#e5e6e8; stroke-dasharray:16, 2;" d="m 1832.6,2279.6 h 526.7"/>
			<path style="stroke:#e5e6e8; stroke-dasharray:16, 2;" d="m 1832.6,2147.3 h 526.7"/>
			<path style="stroke:#e5e6e8; stroke-dasharray:16, 2;" d="m 1832.6,2081.2 h 526.7"/>
			<path style="stroke:#e5e6e8; stroke-dasharray:16, 2;" d="m 1832.6,2015 h 526.7"/>
			<path style="stroke:#e5e6e8; stroke-dasharray:16, 2;" d="m 1832.6,2213.5 h 526.7"/>
			<path style="stroke:#e5e6e8; stroke-dasharray:16, 2;" d="m 1832.6,1982 h 526.7"/>
			<path style="stroke:#e5e6e8; stroke-dasharray:16, 2;" d="m 1832.6,1915.8 h 526.7"/>
			<path style="stroke:#e5e6e8; stroke-dasharray:16, 2;" d="m 1832.6,1849.7 h 526.7"/>
			<path style="stroke:#e5e6e8; stroke-dasharray:16, 2;" d="m 1832.6,1783.5 h 526.7"/>
			<path style="stroke:#e5e6e8; stroke-dasharray:16, 2;" d="m 1832.6,2180.4 h 526.7"/>
			<path style="stroke:#e5e6e8; stroke-dasharray:16, 2;" d="m 1832.6,2114.3 h 526.7"/>
			<path style="stroke:#e5e6e8; stroke-dasharray:16, 2;" d="m 1832.6,2048.1 h 526.7"/>
			<path style="stroke:#e5e6e8; stroke-dasharray:16, 2;" d="m 1832.6,2246.5 h 526.7"/>
		</g>
		<g>
			<path style="stroke:#e5e6e8; stroke-dasharray:16, 2;" d="M 2647.9,2272.4 V 1745.7"/>
			<path style="stroke:#e5e6e8; stroke-dasharray:16, 2;" d="M 2581.7,2272.4 V 1745.7"/>
			<path style="stroke:#e5e6e8; stroke-dasharray:16, 2;" d="M 2515.6,2272.4 V 1745.7"/>
			<path style="stroke:#e5e6e8; stroke-dasharray:16, 2;" d="M 2449.4,2272.4 V 1745.7"/>
			<path style="stroke:#e5e6e8; stroke-dasharray:16, 2;" d="M 2978.6,2272.4 V 1745.7"/>
			<path style="stroke:#e5e6e8; stroke-dasharray:16, 2;" d="M 2846.3,2272.4 V 1745.7"/>
			<path style="stroke:#e5e6e8; stroke-dasharray:16, 2;" d="M 2780.1,2272.4 V 1745.7"/>
			<path style="stroke:#e5e6e8; stroke-dasharray:16, 2;" d="M 2714,2272.4 V 1745.7"/>
			<path style="stroke:#e5e6e8; stroke-dasharray:16, 2;" d="M 2912.4,2272.4 V 1745.7"/>
			<path style="stroke:#e5e6e8; stroke-dasharray:16, 2;" d="M 2680.9,2272.4 V 1745.7"/>
			<path style="stroke:#e5e6e8; stroke-dasharray:16, 2;" d="M 2614.8,2272.4 V 1745.7"/>
			<path style="stroke:#e5e6e8; stroke-dasharray:16, 2;" d="M 2548.6,2272.4 V 1745.7"/>
			<path style="stroke:#e5e6e8; stroke-dasharray:16, 2;" d="M 2482.5,2272.4 V 1745.7"/>
			<path style="stroke:#e5e6e8; stroke-dasharray:16, 2;" d="M 2879.4,2272.4 V 1745.7"/>
			<path style="stroke:#e5e6e8; stroke-dasharray:16, 2;" d="M 2813.2,2272.4 V 1745.7"/>
			<path style="stroke:#e5e6e8; stroke-dasharray:16, 2;" d="M 2747.1,2272.4 V 1745.7"/>
			<path style="stroke:#e5e6e8; stroke-dasharray:16, 2;" d="M 2945.5,2272.4 V 1745.7"/>
		</g>
	</g>
</g>
<rect x="129" y="73" ry="16.9" width="84.2" height="33.8" style="color:black; overflow:visible; fill:#ffff99; fill-opacity:0.17; stroke:#636466; stroke-width:4.2;"/>
<path style="marker-end:url(#id1); fill:#2e3436; fill-opacity:0.75; stroke:#2e3436; stroke-width:1.75;" d="m 2.4,173.2 h 370.2"/>
<path style="marker-end:url(#id1); fill:#2e3436; fill-opacity:0.75; stroke:#2e3436; stroke-width:1.65;" d="M 70.7,290.9 V 5.4"/>
<text x="340.8" y="168.4" style="font-style:italic; overflow:visible; fill:black; stroke-width:1px;">x</text>
<text x="47.7" y="19.4" style="font-style:italic; overflow:visible; fill:black; stroke-width:1px;">y</text>
<path style="overflow:visible; stroke:#eec73e; stroke-width:2.81;" d="m -55.3,118.8 c 0,0 71.4,-44.4 115.8,-36.1 44.5,8.3 41.2,134.2 98.2,133.8 14.2,0 30.6,-8.8 46.6,-25.7 24.4,-30.6 41.2,-67.2 52.7,-106.9 11.5,-39.7 15,-83.2 18.4,-126.3"/>
<circle cx="113" cy="173" r="4.6548" style="overflow:visible; stroke:#636466; stroke-width:2.17;"/>
<path style="overflow:visible; fill:#636466; stroke-width:8.7;" d="m 189,105.8 c -0,7.4 1.5,14.8 3.9,21.8 0.4,1.8 2.2,3.4 4,2.3 2.4,-1.3 5.7,-1.4 7.5,1 4.4,5.2 5.5,12.2 7.4,18.5 0.6,3.3 1.2,6.5 1,9.8 -1.1,0.5 -2.8,1.9 -3.6,1.8 0.2,-4.7 -0.6,-9.4 -1.9,-14 -1.3,-4.9 -2.6,-10.2 -6,-14.1 -2.2,-1.7 -4.4,1.1 -6.8,0.7 -3.4,-0.2 -4.8,-4.1 -5.5,-6.9 -1.8,-6.1 -3.3,-12.5 -3.3,-18.9 1,-0.6 3.1,-1.6 3.4,-2 z"/>
<path style="overflow:visible; fill:#636466; stroke-width:8.7;" d="m 205.8,151.4 c 4.1,0.7 6.7,4.7 7.8,8.4 -2.4,-2.7 -4.2,4.3 -3.1,-0.1 -0.2,-3 0.7,-6 1.6,-8.8 0.6,-1.9 2.4,-1.9 4,-2.2 3.2,-1.1 -0.1,1.4 -0.3,2.9 -1.1,2.9 -0.9,6 -0.9,9.1 -0.5,3.3 -5,4 -5.4,0.3 -1,-2.2 -2.5,-5.1 -5.2,-5.2 0.5,-1.3 1.4,-2.7 1.6,-4 l -0,-0.2 z"/>
<g transform="matrix(0.542987,0.09497,-0.09497,0.542987,-1784.39,-958.562)">
	<path style="overflow:visible; fill:#636466; stroke-width:8.7;" d="m 3754.5,1409.7 c 1.3,-15.4 5.3,-30.7 12.4,-44.5 5.7,-9.5 12.9,-20.4 24.7,-22.1 3.8,0.5 12.8,-2.4 12.4,-3.7 -4.4,4 -2.7,3.4 -0.2,-0.3 5.1,-9.9 6.2,-21.3 8.1,-32.1 0.9,-4.4 1.5,-9.4 2.9,-13.4 2.4,-0.9 4.8,-1.7 7.2,-2.6 -3.6,15.1 -4.6,30.9 -10.1,45.5 -3,7.1 -9.6,13.5 -17.7,13.5 -4.3,-1.2 -13.8,4.5 -13.3,4.6 5.2,-5.4 -2.6,2.5 -3.4,4.3 -9.3,13.5 -13.5,29.9 -15.3,46 0.6,2.9 -3.6,2.7 -5.3,4 -0.8,0.2 -1.6,1 -2.5,0.9 z"/>
	<path style="overflow:visible; fill:#636466; stroke-width:8.7;" d="m 3756.6,1378.7 c 3.1,8.7 3.6,18.1 3.1,27.3 -2.2,-6.8 -4.5,4.4 -6.3,2.4 4.1,-5 7.8,-10.3 12.3,-14.9 2.8,-1.2 9,-10.8 9.7,-7.1 -0.8,2.9 0.2,6.8 -3.2,8.2 -2.5,2.5 -5.2,4 -0.8,0.2 5.6,-5.1 -3.4,3.8 -4.6,5.8 -3.3,4.3 -7.5,9.2 -11.5,11.3 -5.2,-1.4 -1.7,-7.5 -2.2,-11.1 0.3,-6 -0.9,-12 -2.6,-17.8 2.3,-1.5 4.6,-2.9 6.9,-4.4 l -0.4,0.1 z"/>
</g>
<text x="151.3" y="99.9" style="font-style:italic; overflow:visible; fill:#636466; stroke-width:8.7;">=0</text>
<path style="marker-start:url(#id2); marker-end:url(#id3); overflow:visible; fill:#f44800; stroke:#f44800; stroke-width:2.24;" d="m 118.4,228.9 h 92.5"/>
<text x="147.7" y="258.6" style="font-style:italic; overflow:visible; fill:#f44800; stroke-width:8.7;">&lt;0</text>
<path style="marker-start:url(#id4); marker-end:url(#id5); overflow:visible; stroke:#0197fd; stroke-width:2.24;" d="m -41.3,228.7 h 148.5"/>
<path style="marker-start:url(#id6); marker-end:url(#id7); overflow:visible; stroke:#0197fd; stroke-width:2.24;" d="m 219.8,228.9 h 63"/>
<text x="236.6" y="257.8" style="font-style:italic; overflow:visible; fill:#0197fd; stroke-width:8.7;">&gt;0</text>
<text x="17.9" y="258.1" style="font-style:italic; overflow:visible; fill:#0197fd; stroke-width:8.7;">&gt;0</text>
<path style="overflow:visible; fill:#121513; stroke:#121513; stroke-width:0.92;" d="m 112.5,185.6 v 62.4"/>
<path style="overflow:visible; fill:#121513; stroke:#121513; stroke-width:0.92;" d="m 215.9,185.6 v 62.4"/>
<circle cx="217.6" cy="173.3" r="4.6548" style="overflow:visible; stroke:#636466; stroke-width:2.17;"/>
<circle cx="289.3" cy="173.3" r="4.6548" style="overflow:visible; stroke:#636466; stroke-width:2.17;"/>
<text x="174.6" y="67.3" style="text-align:center; text-anchor:middle; font-size:20.6px; color:black; overflow:visible; fill:#636466; stroke-width:8.6;">Roots (zeros)</text>
<path style="overflow:visible; stroke:#eec73e; stroke-width:2.81;" d="m 421.1,30.3 c -14.2,0 -30.6,8.8 -46.6,25.7 -24.4,30.6 -41.2,67.2 -52.7,106.9 -11.5,39.7 -15,83.2 -18.4,126.3"/>
<path style="marker-start:url(#id2); marker-end:url(#id3); overflow:visible; fill:#f44800; stroke:#f44800; stroke-width:2.24;" d="m 295.6,228.6 h 122"/>
<text x="320.4" y="257.5" style="font-style:italic; overflow:visible; fill:#f44800; stroke-width:8.7;">&lt;0</text>
<path style="color:black; overflow:visible; fill:#b3defd; fill-opacity:0.33; stroke:#0169c9; stroke-width:2.24; stroke-dasharray:6.7, 2.2;" d="m 289.6,-45.2 v 379.4"/>
<text x="-99.4" y="285.6" transform="rotate(-90)" style="text-align:center; text-anchor:middle; font-size:20.6px; color:black; overflow:visible; fill:#0169c9; stroke-width:8.6;">Vertical</text>
<text x="-99.4" y="307.6" transform="rotate(-90)" style="text-align:center; text-anchor:middle; font-size:20.6px; color:black; overflow:visible; fill:#0169c9; stroke-width:8.6;">Asymptote</text>
<rect x="301.9" y="117.4" width="0.4" height="37.4"/>
</svg>