<?xml version="1.0" encoding="UTF-8" standalone="no"?>
<!-- Copyright 2017 mathsisfun.com -->
<svg xmlns="http://www.w3.org/2000/svg" width="360" height="280" version="1.1">
<defs>
<marker style="overflow:visible;" orient="auto" id="id01">
<path d="M 0,0 5,-5 -12.5,0 5,5 0,0 Z" transform="matrix(-0.4,0,0,-0.4,-4,0)" style="stroke:black; stroke-width:1pt;"/>
</marker>
<marker style="overflow:visible;" orient="auto" id="id04">
<path d="M 0,0 5,-5 -12.5,0 5,5 0,0 Z" transform="matrix(0.4,0,0,0.4,4,0)" style="fill:#0197fd; stroke:#0197fd; stroke-width:1pt;"/>
</marker>
<marker style="overflow:visible;" orient="auto" id="id05">
<path d="M 0,0 5,-5 -12.5,0 5,5 0,0 Z" transform="matrix(-0.4,0,0,-0.4,-4,0)" style="fill:#0197fd; stroke:#0197fd; stroke-width:1pt;"/>
</marker>
<marker style="overflow:visible;" orient="auto" id="id06">
<path d="M 0,0 5,-5 -12.5,0 5,5 0,0 Z" transform="matrix(0.4,0,0,0.4,4,0)" style="fill:#0197fd; stroke:#0197fd; stroke-width:1pt;"/>
</marker>
<marker style="overflow:visible;" orient="auto" id="id07">
<path d="M 0,0 5,-5 -12.5,0 5,5 0,0 Z" transform="matrix(-0.4,0,0,-0.4,-4,0)" style="fill:#0197fd; stroke:#0197fd; stroke-width:1pt;"/>
</marker>
<marker style="overflow:visible;" orient="auto" id="id02">
<path d="M 0,0 5,-5 -12.5,0 5,5 0,0 Z" transform="matrix(0.4,0,0,0.4,4,0)" style="fill:#f44800; stroke:#f44800; stroke-width:1pt;"/>
</marker>
<marker style="overflow:visible;" orient="auto" id="id03">
<path d="M 0,0 5,-5 -12.5,0 5,5 0,0 Z" transform="matrix(-0.4,0,0,-0.4,-4,0)" style="fill:#f44800; stroke:#f44800; stroke-width:1pt;"/>
</marker>
</defs>
<g transform="translate(-2721.9992,-852.99082)"/>
<g transform="matrix(0.539744,0,0,0.539744,-1710.28,-150.444)">
<g transform="translate(673.207,-1473.67)">
<g transform="translate(618,-6)">
<path d="m 1832.6,1948.9 h 526.7" style="fill:none; stroke:#e5e6e8; stroke-width:2; stroke-dasharray:16, 2;"/>
<path d="m 1832.6,1882.7 h 526.7" style="fill:none; stroke:#e5e6e8; stroke-width:2; stroke-dasharray:16, 2;"/>
<path d="m 1832.6,1816.6 h 526.7" style="fill:none; stroke:#e5e6e8; stroke-width:2; stroke-dasharray:16, 2;"/>
<path d="m 1832.6,1750.4 h 526.7" style="fill:none; stroke:#e5e6e8; stroke-width:2; stroke-dasharray:16, 2;"/>
<path d="m 1832.6,2279.6 h 526.7" style="fill:none; stroke:#e5e6e8; stroke-width:2; stroke-dasharray:16, 2;"/>
<path d="m 1832.6,2147.3 h 526.7" style="fill:none; stroke:#e5e6e8; stroke-width:2; stroke-dasharray:16, 2;"/>
<path d="m 1832.6,2081.2 h 526.7" style="fill:none; stroke:#e5e6e8; stroke-width:2; stroke-dasharray:16, 2;"/>
<path d="m 1832.6,2015 h 526.7" style="fill:none; stroke:#e5e6e8; stroke-width:2; stroke-dasharray:16, 2;"/>
<path d="m 1832.6,2213.5 h 526.7" style="fill:none; stroke:#e5e6e8; stroke-width:2; stroke-dasharray:16, 2;"/>
<path d="m 1832.6,1982 h 526.7" style="fill:none; stroke:#e5e6e8; stroke-width:2; stroke-dasharray:16, 2;"/>
<path d="m 1832.6,1915.8 h 526.7" style="fill:none; stroke:#e5e6e8; stroke-width:2; stroke-dasharray:16, 2;"/>
<path d="m 1832.6,1849.7 h 526.7" style="fill:none; stroke:#e5e6e8; stroke-width:2; stroke-dasharray:16, 2;"/>
<path d="m 1832.6,1783.5 h 526.7" style="fill:none; stroke:#e5e6e8; stroke-width:2; stroke-dasharray:16, 2;"/>
<path d="m 1832.6,2180.4 h 526.7" style="fill:none; stroke:#e5e6e8; stroke-width:2; stroke-dasharray:16, 2;"/>
<path d="m 1832.6,2114.3 h 526.7" style="fill:none; stroke:#e5e6e8; stroke-width:2; stroke-dasharray:16, 2;"/>
<path d="m 1832.6,2048.1 h 526.7" style="fill:none; stroke:#e5e6e8; stroke-width:2; stroke-dasharray:16, 2;"/>
<path d="m 1832.6,2246.5 h 526.7" style="fill:none; stroke:#e5e6e8; stroke-width:2; stroke-dasharray:16, 2;"/>
</g>
<g>
<path d="M 2647.9,2272.4 V 1745.7" style="fill:none; stroke:#e5e6e8; stroke-width:2; stroke-dasharray:16, 2;"/>
<path d="M 2581.7,2272.4 V 1745.7" style="fill:none; stroke:#e5e6e8; stroke-width:2; stroke-dasharray:16, 2;"/>
<path d="M 2515.6,2272.4 V 1745.7" style="fill:none; stroke:#e5e6e8; stroke-width:2; stroke-dasharray:16, 2;"/>
<path d="M 2449.4,2272.4 V 1745.7" style="fill:none; stroke:#e5e6e8; stroke-width:2; stroke-dasharray:16, 2;"/>
<path d="M 2978.6,2272.4 V 1745.7" style="fill:none; stroke:#e5e6e8; stroke-width:2; stroke-dasharray:16, 2;"/>
<path d="M 2846.3,2272.4 V 1745.7" style="fill:none; stroke:#e5e6e8; stroke-width:2; stroke-dasharray:16, 2;"/>
<path d="M 2780.1,2272.4 V 1745.7" style="fill:none; stroke:#e5e6e8; stroke-width:2; stroke-dasharray:16, 2;"/>
<path d="M 2714,2272.4 V 1745.7" style="fill:none; stroke:#e5e6e8; stroke-width:2; stroke-dasharray:16, 2;"/>
<path d="M 2912.4,2272.4 V 1745.7" style="fill:none; stroke:#e5e6e8; stroke-width:2; stroke-dasharray:16, 2;"/>
<path d="M 2680.9,2272.4 V 1745.7" style="fill:none; stroke:#e5e6e8; stroke-width:2; stroke-dasharray:16, 2;"/>
<path d="M 2614.8,2272.4 V 1745.7" style="fill:none; stroke:#e5e6e8; stroke-width:2; stroke-dasharray:16, 2;"/>
<path d="M 2548.6,2272.4 V 1745.7" style="fill:none; stroke:#e5e6e8; stroke-width:2; stroke-dasharray:16, 2;"/>
<path d="M 2482.5,2272.4 V 1745.7" style="fill:none; stroke:#e5e6e8; stroke-width:2; stroke-dasharray:16, 2;"/>
<path d="M 2879.4,2272.4 V 1745.7" style="fill:none; stroke:#e5e6e8; stroke-width:2; stroke-dasharray:16, 2;"/>
<path d="M 2813.2,2272.4 V 1745.7" style="fill:none; stroke:#e5e6e8; stroke-width:2; stroke-dasharray:16, 2;"/>
<path d="M 2747.1,2272.4 V 1745.7" style="fill:none; stroke:#e5e6e8; stroke-width:2; stroke-dasharray:16, 2;"/>
<path d="M 2945.5,2272.4 V 1745.7" style="fill:none; stroke:#e5e6e8; stroke-width:2; stroke-dasharray:16, 2;"/>
</g>
</g>
<g transform="translate(1202.38,-1474.16)">
<g transform="translate(618,-6)">
<path d="m 1832.6,1948.9 h 526.7" style="fill:none; stroke:#e5e6e8; stroke-width:2; stroke-dasharray:16, 2;"/>
<path d="m 1832.6,1882.7 h 526.7" style="fill:none; stroke:#e5e6e8; stroke-width:2; stroke-dasharray:16, 2;"/>
<path d="m 1832.6,1816.6 h 526.7" style="fill:none; stroke:#e5e6e8; stroke-width:2; stroke-dasharray:16, 2;"/>
<path d="m 1832.6,1750.4 h 526.7" style="fill:none; stroke:#e5e6e8; stroke-width:2; stroke-dasharray:16, 2;"/>
<path d="m 1832.6,2279.6 h 526.7" style="fill:none; stroke:#e5e6e8; stroke-width:2; stroke-dasharray:16, 2;"/>
<path d="m 1832.6,2147.3 h 526.7" style="fill:none; stroke:#e5e6e8; stroke-width:2; stroke-dasharray:16, 2;"/>
<path d="m 1832.6,2081.2 h 526.7" style="fill:none; stroke:#e5e6e8; stroke-width:2; stroke-dasharray:16, 2;"/>
<path d="m 1832.6,2015 h 526.7" style="fill:none; stroke:#e5e6e8; stroke-width:2; stroke-dasharray:16, 2;"/>
<path d="m 1832.6,2213.5 h 526.7" style="fill:none; stroke:#e5e6e8; stroke-width:2; stroke-dasharray:16, 2;"/>
<path d="m 1832.6,1982 h 526.7" style="fill:none; stroke:#e5e6e8; stroke-width:2; stroke-dasharray:16, 2;"/>
<path d="m 1832.6,1915.8 h 526.7" style="fill:none; stroke:#e5e6e8; stroke-width:2; stroke-dasharray:16, 2;"/>
<path d="m 1832.6,1849.7 h 526.7" style="fill:none; stroke:#e5e6e8; stroke-width:2; stroke-dasharray:16, 2;"/>
<path d="m 1832.6,1783.5 h 526.7" style="fill:none; stroke:#e5e6e8; stroke-width:2; stroke-dasharray:16, 2;"/>
<path d="m 1832.6,2180.4 h 526.7" style="fill:none; stroke:#e5e6e8; stroke-width:2; stroke-dasharray:16, 2;"/>
<path d="m 1832.6,2114.3 h 526.7" style="fill:none; stroke:#e5e6e8; stroke-width:2; stroke-dasharray:16, 2;"/>
<path d="m 1832.6,2048.1 h 526.7" style="fill:none; stroke:#e5e6e8; stroke-width:2; stroke-dasharray:16, 2;"/>
<path d="m 1832.6,2246.5 h 526.7" style="fill:none; stroke:#e5e6e8; stroke-width:2; stroke-dasharray:16, 2;"/>
</g>
<g>
<path d="M 2647.9,2272.4 V 1745.7" style="fill:none; stroke:#e5e6e8; stroke-width:2; stroke-dasharray:16, 2;"/>
<path d="M 2581.7,2272.4 V 1745.7" style="fill:none; stroke:#e5e6e8; stroke-width:2; stroke-dasharray:16, 2;"/>
<path d="M 2515.6,2272.4 V 1745.7" style="fill:none; stroke:#e5e6e8; stroke-width:2; stroke-dasharray:16, 2;"/>
<path d="M 2449.4,2272.4 V 1745.7" style="fill:none; stroke:#e5e6e8; stroke-width:2; stroke-dasharray:16, 2;"/>
<path d="M 2978.6,2272.4 V 1745.7" style="fill:none; stroke:#e5e6e8; stroke-width:2; stroke-dasharray:16, 2;"/>
<path d="M 2846.3,2272.4 V 1745.7" style="fill:none; stroke:#e5e6e8; stroke-width:2; stroke-dasharray:16, 2;"/>
<path d="M 2780.1,2272.4 V 1745.7" style="fill:none; stroke:#e5e6e8; stroke-width:2; stroke-dasharray:16, 2;"/>
<path d="M 2714,2272.4 V 1745.7" style="fill:none; stroke:#e5e6e8; stroke-width:2; stroke-dasharray:16, 2;"/>
<path d="M 2912.4,2272.4 V 1745.7" style="fill:none; stroke:#e5e6e8; stroke-width:2; stroke-dasharray:16, 2;"/>
<path d="M 2680.9,2272.4 V 1745.7" style="fill:none; stroke:#e5e6e8; stroke-width:2; stroke-dasharray:16, 2;"/>
<path d="M 2614.8,2272.4 V 1745.7" style="fill:none; stroke:#e5e6e8; stroke-width:2; stroke-dasharray:16, 2;"/>
<path d="M 2548.6,2272.4 V 1745.7" style="fill:none; stroke:#e5e6e8; stroke-width:2; stroke-dasharray:16, 2;"/>
<path d="M 2482.5,2272.4 V 1745.7" style="fill:none; stroke:#e5e6e8; stroke-width:2; stroke-dasharray:16, 2;"/>
<path d="M 2879.4,2272.4 V 1745.7" style="fill:none; stroke:#e5e6e8; stroke-width:2; stroke-dasharray:16, 2;"/>
<path d="M 2813.2,2272.4 V 1745.7" style="fill:none; stroke:#e5e6e8; stroke-width:2; stroke-dasharray:16, 2;"/>
<path d="M 2747.1,2272.4 V 1745.7" style="fill:none; stroke:#e5e6e8; stroke-width:2; stroke-dasharray:16, 2;"/>
<path d="M 2945.5,2272.4 V 1745.7" style="fill:none; stroke:#e5e6e8; stroke-width:2; stroke-dasharray:16, 2;"/>
</g>
</g>
</g>
<rect x="161.7" y="75.2" ry="16.6" width="82.5" height="33.1" style="color:black; overflow:visible; fill:#ffff99; fill-opacity:0.17; stroke:#636466; stroke-width:4.11;"/>
<path d="M -1.5,174.2 H 328.4" style="marker-end:url(#id01); fill:#2e3436; fill-opacity:0.75; stroke:#2e3436; stroke-width:1.72;"/>
<path d="M 82.1,289.5 V 10" style="marker-end:url(#id01); fill:#2e3436; fill-opacity:0.75; stroke:#2e3436; stroke-width:1.62;"/>
<text x="310.1" y="165.6" style="font-family:'Comic Sans MS'; font-size:30.2px; font-style:italic; overflow:visible; fill:black; stroke-width:1px;">x</text>
<text x="59.6" y="23.6" style="font-family:'Comic Sans MS'; font-size:30.2px; font-style:italic; overflow:visible; fill:black; stroke-width:1px;">y</text>
<path d="m -41.3,120.9 c 0,0 69.9,-43.5 113.4,-35.4 43.6,8.1 40.4,131.4 96.2,131 14,0 29.6,-11.1 45.3,-27.7 15.7,-16.5 18.3,-29 32.3,-51 14,-22 26.9,-8.6 32.5,-2.1 5.7,6.5 24,54.3 40.5,87.2 16.5,32.9 37,44.2 37,44.2" style="overflow:visible; fill:none; stroke:#eec73e; stroke-width:2.75;"/>
<circle cx="123.5" cy="174" r="4.5578" style="overflow:visible; fill:none; stroke:#636466; stroke-width:2.13;"/>
<path d="m 197.9,108.2 c 0,7.8 1.6,15.7 4.6,22.8 2.1,2.6 4.8,-0.8 7.4,-0.2 4.7,1.3 6.2,6.9 7.8,11 1.9,6.1 3.9,12.3 3.6,18.8 -1.2,0.3 -4.1,3.4 -3.5,0.6 0,-7.3 -2.1,-14.4 -4.7,-21.2 -1.3,-2.3 -2.8,-6.7 -6.2,-5.4 -2.4,1.5 -5.7,1.2 -7.2,-1.4 -3.2,-6.9 -4.4,-14.6 -5,-22.1 -0.8,-1.8 3.4,-2.6 3.2,-2.9 z" style="overflow:visible; fill:#636466; stroke-width:8.7;"/>
<path d="m 214.4,152.9 c 3.9,0.7 6.6,4.5 7.7,8.1 -3,-2.2 -3.7,4.1 -3,-0.9 0.1,-3.1 0.6,-6.4 2.3,-9.1 0.8,-0.7 5.3,-1.8 4.3,-0.7 -2.5,3.2 -2.4,7.4 -2.3,11.3 -1.7,5.4 -5.7,1.9 -6.4,-1.7 -0.2,-2.5 -5.1,-2.2 -3.5,-4.2 0.2,-0.9 1.4,-2 0.9,-2.8 z" style="overflow:visible; fill:#636466; stroke-width:8.7;"/>
<g transform="matrix(0.531673,0.092992,-0.092992,0.531673,-1734.37,-935.743)">
<path d="m 3754.5,1409.7 c 2.4,-22.5 8.7,-46.7 26.4,-62.1 5.9,-5.6 14.5,-3.8 21.3,-6.6 6.5,-6 -5.7,6.1 1.1,-1.1 7.4,-13.9 7.4,-30.2 11,-45.2 3,-3.3 11.8,-5.9 6.5,2.6 -3.6,14.9 -3.6,31.2 -11.8,44.5 -4.6,7.8 -13.5,8.1 -21.3,9.2 -4.8,1.3 -9.4,6.4 -4.7,1.5 -13.6,14.1 -18.7,34.3 -20.7,53.2 -1,2.2 -5.5,3 -7.8,4 z" style="overflow:visible; fill:#636466; stroke-width:8.7;"/>
<path d="m 3756.6,1378.7 c 3,8.7 3.6,18.1 3.1,27.3 -1.8,-7.6 -8.2,8.4 -4.8,0.5 4.7,-5.9 9.3,-11.8 14.8,-16.8 4.6,-5.6 7.2,-5.2 5,1.8 -1.1,4 -10.2,8.3 -2.1,2.4 2,-1.6 -7.1,7.8 -8.9,10.8 -2.5,5.1 -12.1,11.2 -11,1.6 1.2,-7.8 0.3,-15.8 -2.1,-23.3 1.1,-1 7.6,-4.3 6.1,-4.3 z" style="overflow:visible; fill:#636466; stroke-width:8.7;"/>
</g>
<text x="183.7" y="102.9" style="font-family:'Comic Sans MS'; font-size:30.2px; font-style:italic; overflow:visible; fill:#636466; stroke-width:8.7;">=0</text>
<path d="m 128.8,228.7 h 90.6" style="marker-start:url(#id02); marker-end:url(#id03); overflow:visible; fill:#f44800; stroke:#f44800; stroke-width:1.8;"/>
<text x="157.5" y="257.8" style="font-family:'Comic Sans MS'; font-size:30.2px; font-style:italic; overflow:visible; fill:#f44800; stroke-width:8.7;">&lt;0</text>
<path d="M -27.6,228.5 H 117.8" style="marker-start:url(#id04); marker-end:url(#id05); overflow:visible; fill:none; stroke:#0197fd; stroke-width:1.8;"/>
<path d="M 228.1,228.8 H 293" style="marker-start:url(#id06); marker-end:url(#id07); overflow:visible; fill:none; stroke:#0197fd; stroke-width:1.8;"/>
<text x="244.6" y="257.1" style="font-family:'Comic Sans MS'; font-size:30.2px; font-style:italic; overflow:visible; fill:#0197fd; stroke-width:8.7;">&gt;0</text>
<text x="30.4" y="257.4" style="font-family:'Comic Sans MS'; font-size:30.2px; font-style:italic; overflow:visible; fill:#0197fd; stroke-width:8.7;">&gt;0</text>
<path d="m 123,186.3 v 61.1" style="overflow:visible; fill:#121513; stroke:#121513; stroke-width:0.9;"/>
<path d="m 224.3,186.3 v 61.1" style="overflow:visible; fill:#121513; stroke:#121513; stroke-width:0.9;"/>
<circle cx="225.9" cy="174.3" r="4.5578" style="overflow:visible; fill:none; stroke:#636466; stroke-width:2.13;"/>
<circle cx="297.2" cy="174.3" r="4.5578" style="overflow:visible; fill:none; stroke:#636466; stroke-width:2.13;"/>
<path d="m 297.3,186.3 v 61.1" style="overflow:visible; fill:#121513; stroke:#121513; stroke-width:0.9;"/>
<path d="m 302.7,228.9 h 90.6" style="marker-start:url(#id02); marker-end:url(#id03); overflow:visible; fill:#f44800; stroke:#f44800; stroke-width:1.8;"/>
<g transform="matrix(-0.5274,0.179258,0.17385,0.543807,2017.62,-1279.34)">
<path d="m 3754.5,1409.7 c 2.3,-21.9 8.4,-45.2 24.9,-60.8 5.7,-6.1 14.3,-5.6 21.8,-7.3 6,-4.3 1.5,-1.3 -0.1,0.9 7.9,-8.6 8,-21.3 10.5,-32.1 1.7,-5.6 0.2,-14.5 5.2,-17.5 10.3,-6.1 1.5,9.5 2.1,14.8 -2.7,12.6 -3.1,27.2 -12.5,37 -6.7,8.2 -19.3,2.7 -26.2,10.7 7.2,-7.2 -3.2,3 -4.1,5.8 -8.3,13.6 -12.5,29.5 -13.7,45.3 -2.6,1 -5.2,2.6 -7.8,3.2 z" style="overflow:visible; fill:#636466; stroke-width:8.7;"/>
<path d="m 3756.6,1378.7 c 3,8.7 3.6,18.1 3.1,27.3 -1.9,-7.5 -8.8,9 -4.2,-0.2 4.4,-5.7 9,-11.3 14.2,-16.1 4.4,-5.3 7.3,-5.5 5,1.5 -0.6,4.3 -10.5,8.6 -2.1,2.7 2,-1.6 -7.1,7.8 -8.9,10.8 -2.8,4 -11,11.8 -11.1,2.3 1.4,-8 0.4,-16.3 -2,-24 1.4,-1.1 7.3,-4.1 6.1,-4.3 z" style="overflow:visible; fill:#636466; stroke-width:8.7;"/>
</g>
<text x="206.4" y="69.7" style="font-family:'Comic Sans MS'; text-align:center; text-anchor:middle; font-size:20.2px; color:black; overflow:visible; fill:#636466; stroke-width:8.6;">Roots (zeros)</text>
</svg>
