<?xml version="1.0" encoding="UTF-8" standalone="no"?>
<!-- Copyright 2017 mathsisfun.com -->
<svg xmlns="http://www.w3.org/2000/svg" width="221.7" height="187" version="1.1">
<defs>
<marker style="overflow:visible;" orient="auto" id="id02">
<path d="M 0,0 L 5,-5 L -12.5,0 L 5,5 L 0,0 z " transform="scale(0.4) rotate(180) translate(10,0)" style="fill:#2e3436; fill-opacity:0.75; stroke:#2e3436; stroke-width:1pt;"/>
</marker>
<marker style="overflow:visible;" orient="auto" id="id01">
<path d="M 0,0 L 5,-5 L -12.5,0 L 5,5 L 0,0 z " transform="scale(0.4) rotate(180) translate(10,0)" style="fill:#2e3436; fill-opacity:0.75; stroke:#2e3436; stroke-width:1pt;"/>
</marker>
</defs>
<g transform="translate(1577.1103,1235.4237)">
<g transform="translate(-347.00044,-6.4448724)">
<path d="m -1226.2,-1129.3 214.9,0" style="fill:none; fill-opacity:0.75; stroke:#e5e6e8; stroke-width:0.9; stroke-dasharray:7.2, 0.9;"/>
<path d="m -1226.2,-1162.4 214.9,0" style="fill:none; fill-opacity:0.75; stroke:#e5e6e8; stroke-width:0.9; stroke-dasharray:7.2, 0.9;"/>
<path d="m -1226.2,-1195.5 214.9,0" style="fill:none; fill-opacity:0.75; stroke:#e5e6e8; stroke-width:0.9; stroke-dasharray:7.2, 0.9;"/>
<path d="m -1226.2,-1228.5 214.9,0" style="fill:none; fill-opacity:0.75; stroke:#e5e6e8; stroke-width:0.9; stroke-dasharray:7.2, 0.9;"/>
<path d="m -1226.2,-1063.2 214.9,0" style="fill:none; fill-opacity:0.75; stroke:#e5e6e8; stroke-width:0.9; stroke-dasharray:7.2, 0.9;"/>
<path d="m -1226.2,-1096.2 214.9,0" style="fill:none; fill-opacity:0.75; stroke:#e5e6e8; stroke-width:0.9; stroke-dasharray:7.2, 0.9;"/>
<path d="m -1226.2,-1112.8 214.9,0" style="fill:none; fill-opacity:0.75; stroke:#e5e6e8; stroke-width:0.9; stroke-dasharray:7.2, 0.9;"/>
<path d="m -1226.2,-1145.8 214.9,0" style="fill:none; fill-opacity:0.75; stroke:#e5e6e8; stroke-width:0.9; stroke-dasharray:7.2, 0.9;"/>
<path d="m -1226.2,-1178.9 214.9,0" style="fill:none; fill-opacity:0.75; stroke:#e5e6e8; stroke-width:0.9; stroke-dasharray:7.2, 0.9;"/>
<path d="m -1226.2,-1212 214.9,0" style="fill:none; fill-opacity:0.75; stroke:#e5e6e8; stroke-width:0.9; stroke-dasharray:7.2, 0.9;"/>
<path d="m -1226.2,-1046.6 214.9,0" style="fill:none; fill-opacity:0.75; stroke:#e5e6e8; stroke-width:0.9; stroke-dasharray:7.2, 0.9;"/>
<path d="m -1226.2,-1079.7 214.9,0" style="fill:none; fill-opacity:0.75; stroke:#e5e6e8; stroke-width:0.9; stroke-dasharray:7.2, 0.9;"/>
<path d="m -1176,-1046.4 0,-181.5" style="fill:none; fill-opacity:0.75; stroke:#e5e6e8; stroke-width:0.83; stroke-dasharray:6.6, 0.8;"/>
<path d="m -1209.1,-1046.4 0,-181.5" style="fill:none; fill-opacity:0.75; stroke:#e5e6e8; stroke-width:0.83; stroke-dasharray:6.6, 0.8;"/>
<path d="m -1010.7,-1046.4 0,-181.5" style="fill:none; fill-opacity:0.75; stroke:#e5e6e8; stroke-width:0.83; stroke-dasharray:6.6, 0.8;"/>
<path d="m -1076.8,-1046.4 0,-181.5" style="fill:none; fill-opacity:0.75; stroke:#e5e6e8; stroke-width:0.83; stroke-dasharray:6.6, 0.8;"/>
<path d="m -1109.9,-1046.4 0,-181.5" style="fill:none; fill-opacity:0.75; stroke:#e5e6e8; stroke-width:0.83; stroke-dasharray:6.6, 0.8;"/>
<path d="m -1143,-1046.4 0,-181.5" style="fill:none; fill-opacity:0.75; stroke:#e5e6e8; stroke-width:0.83; stroke-dasharray:6.6, 0.8;"/>
<path d="m -1043.7,-1046.4 0,-181.5" style="fill:none; fill-opacity:0.75; stroke:#e5e6e8; stroke-width:0.83; stroke-dasharray:6.6, 0.8;"/>
<path d="m -1159.5,-1046.4 0,-181.5" style="fill:none; fill-opacity:0.75; stroke:#e5e6e8; stroke-width:0.83; stroke-dasharray:6.6, 0.8;"/>
<path d="m -1192.6,-1046.4 0,-181.5" style="fill:none; fill-opacity:0.75; stroke:#e5e6e8; stroke-width:0.83; stroke-dasharray:6.6, 0.8;"/>
<path d="m -1225.6,-1046.4 0,-181.5" style="fill:none; fill-opacity:0.75; stroke:#e5e6e8; stroke-width:0.83; stroke-dasharray:6.6, 0.8;"/>
<path d="m -1060.3,-1046.4 0,-181.5" style="fill:none; fill-opacity:0.75; stroke:#e5e6e8; stroke-width:0.83; stroke-dasharray:6.6, 0.8;"/>
<path d="m -1093.4,-1046.4 0,-181.5" style="fill:none; fill-opacity:0.75; stroke:#e5e6e8; stroke-width:0.83; stroke-dasharray:6.6, 0.8;"/>
<path d="m -1126.4,-1046.4 0,-181.5" style="fill:none; fill-opacity:0.75; stroke:#e5e6e8; stroke-width:0.83; stroke-dasharray:6.6, 0.8;"/>
<path d="m -1027.2,-1046.4 0,-181.5" style="fill:none; fill-opacity:0.75; stroke:#e5e6e8; stroke-width:0.83; stroke-dasharray:6.6, 0.8;"/>
</g>
<path d="m -1577.1,-1069.5 210.7,0" style="marker-end:url(#id01); fill:#2e3436; fill-opacity:0.75; stroke:#2e3436; stroke-width:1.47;"/>
<path d="m -1555.9,-1048.5 0,-173.7" style="marker-end:url(#id02); fill:#2e3436; fill-opacity:0.75; stroke:#2e3436; stroke-width:1.29;"/>
<text x="-1397" y="-1073.4" style="font-family:'Comic Sans MS'; font-size:28px; font-style:italic; overflow:visible; fill:black; stroke-width:1px;">x</text>
<text x="-1552.2" y="-1210" style="font-family:'Comic Sans MS'; font-size:28px; font-style:italic; overflow:visible; fill:black; stroke-width:1px;">y</text>
<circle cx="-1394.6" cy="-1192.7" r="2.6914904" style="overflow:visible; fill:#f0a513; stroke:#fdca01; stroke-width:2.25;"/>
<text x="-1518.1" y="-1089" transform="scale(0.99222531,1.0078356)" style="font-family:'Comic Sans MS'; font-size:24.2px; overflow:visible; fill:#f0a513; stroke-width:4.5;">A</text>
<circle cx="-1514.9" cy="-1107.3" r="2.6914904" style="overflow:visible; fill:#f0a513; stroke:#fdca01; stroke-width:2.25;"/>
<text x="-1400.8" y="-1178.6" transform="scale(0.99222531,1.0078356)" style="font-family:'Comic Sans MS'; font-size:24.2px; overflow:visible; fill:#f0a513; stroke-width:4.5;">B</text>
<text x="-1527.7" y="-1164.4" style="font-family:'Comic Sans MS'; font-size:25.4px; overflow:visible; fill:#eec73e; stroke-width:4.2; stroke-linejoin:round;">line</text>
<circle cx="-1442.7" cy="-1159.9" r="7.9227862" style="overflow:visible; fill:#b3defd; stroke-width:10.69;"/>
<path d="m -1514.2,-1106.4 c 0,0 17.8,-43.9 40.2,-34.5 37.9,15.9 32.6,-54.8 54.3,-60.7 15.2,-4.1 26,9.6 26,9.6" style="overflow:visible; fill:none; stroke:#0169c9; stroke-width:2.1; stroke-linejoin:round;"/>
<path d="m -1576.8,-1159.9 221.4,0" style="overflow:visible; fill:#eec73e; stroke:#eec73e; stroke-width:1.69; stroke-linejoin:round;"/>
</g>
</svg>
