<?xml version="1.0" encoding="UTF-8" standalone="no"?>
<!-- Copyright 2017 mathsisfun.com -->
<svg xmlns="http://www.w3.org/2000/svg" width="177.5" height="133.1" version="1.1" style="font-family:Georgia; font-size:20px; fill:#ba00ff; stroke-width:0.32px;">
<defs>
	<marker id="id1" style="overflow:visible;" orient="auto">
		<path transform="matrix(-0.4,0,0,-0.4,-4,0)" style="fill:#005c94; stroke:#005c94; stroke-width:1pt;" d="M 0,0 5,-5 -12.5,0 5,5 Z"/>
	</marker>
</defs>
<g transform="translate(225.063,490.564)">
	<path style="fill:#fefad7; stroke:#a40000; stroke-width:0.47;" d="m -66.7,-323.2 -57.7,0 -28.9,-50 28.9,-50 57.7,0 28.9,50 z"/>
	<path style="fill:none; stroke:black;" d="m -124.5,-423.1 57.5,99.5"/>
	<path style="fill:none; stroke:black;" d="M -153.2,-373.2 H -38.1"/>
	<path style="fill:none; stroke:black;" d="m -66.9,-423.1 -57.3,99.9"/>
	<text x="-140.5" y="-427.8" style="font-style:italic;">sin</text>
	<text x="-187.1" y="-368.1" style="font-style:italic;">tan</text>
	<text x="-77.9" y="-427.8" style="font-style:italic;">cos</text>
	<text x="-139" y="-309.8" style="font-style:italic;">sec</text>
	<text x="-35.9" y="-368.1" style="font-style:italic;">cot</text>
	<text x="-78.8" y="-309.8" style="font-style:italic;">csc</text>
	<text x="-108.4" y="-359.7" transform="scale(1.00188,0.998123)" style="font-family:Arial; font-size:42.7px; fill:black; stroke:white;">1</text>
	<rect x="-223.9" y="-488.9" rx="19.7" ry="19.7" width="134.5" height="39.4" style="fill:#19aeff; fill-opacity:0.12; stroke:#19aeff; stroke-width:0.5;"/>
	<text x="-150" y="-473.5" style="font-size:16px; font-style:italic;">sin(x)</text>
	<path style="marker-end:url(#id1); fill:none; stroke:#005c94; stroke-width:2.36;" d="m -152.5,-378.5 c 12.9,-47.1 29.4,-54.5 77.7,-43.8"/>
	<text x="-152" y="-454" style="font-size:16px; font-style:italic;">cos(x)</text>
	<text x="-216.7" y="-464.3" style="font-size:16px; font-style:italic;">tan(x) =</text>
	<path style="fill:none; stroke:#ba00ff; stroke-width:1px;" d="m -151.7,-468.6 h 44.4"/>
</g>
</svg>