<?xml version="1.0" encoding="UTF-8" standalone="no"?>
<!-- Copyright 2017 mathsisfun.com -->

<svg
   xmlns:dc="http://purl.org/dc/elements/1.1/"
   xmlns:cc="http://creativecommons.org/ns#"
   xmlns:rdf="http://www.w3.org/1999/02/22-rdf-syntax-ns#"
   xmlns:svg="http://www.w3.org/2000/svg"
   xmlns="http://www.w3.org/2000/svg"
   xmlns:sodipodi="http://sodipodi.sourceforge.net/DTD/sodipodi-0.dtd"
   xmlns:inkscape="http://www.inkscape.org/namespaces/inkscape"
   width="105.26"
   height="71.5241"
   version="1.1"
   id="svg1429"
   sodipodi:docname="matrix-2x2.svg"
   inkscape:version="0.92.4 (5da689c313, 2019-01-14)">
  <metadata
     id="metadata1433">
    <rdf:RDF>
      <cc:Work
         rdf:about="">
        <dc:format>image/svg+xml</dc:format>
        <dc:type
           rdf:resource="http://purl.org/dc/dcmitype/StillImage" />
        <dc:title></dc:title>
      </cc:Work>
    </rdf:RDF>
  </metadata>
  <sodipodi:namedview
     pagecolor="#ffffff"
     bordercolor="#666666"
     borderopacity="1"
     objecttolerance="10"
     gridtolerance="10"
     guidetolerance="10"
     inkscape:pageopacity="0"
     inkscape:pageshadow="2"
     inkscape:window-width="640"
     inkscape:window-height="480"
     id="namedview1431"
     showgrid="false"
     inkscape:current-layer="svg1429" />
  <defs
     id="defs1409" />
  <path
     inkscape:connector-curvature="0"
     id="path1411"
     d="m 13.3904,4.29797 c -3.39996,-0.9 -7.39996,-0.3 -10.59996,-0.5 2.8,-2.800001 1,3 1.5,4.9 -0.2,15.00003 -0.8,30.00003 -0.6,45.00003 0.2,4.8 -0.3,9.6 0.2,14.3 -1.2,-0.6 2.1,-0.2 3,-0.3 2.2,0 4.49996,0 6.69996,0 0,1.6 1.1,4.4 -1.6,3.6 -3.19996,-0.2 -6.59996,0.3 -9.69996,-0.3 -3.3,-1.9 -1.800005,-6.2 -2.200005,-9.3 0,-16.5 0,-33 0.6,-49.6 0.2,-3.60003 -0.3,-7.20003 0.2,-10.70003 C 2.39044,-0.802031 5.39044,0.497969 7.69044,0.197969 c 1.9,0.2 5.49996,-0.7 6.09996,1.200001 0,1 -0.4,2 -0.3,3 z"
     style="color:#000000;overflow:visible;fill:#0169c9;stroke:#636466;stroke-width:0.17;stroke-linejoin:round" />
  <path
     inkscape:connector-curvature="0"
     id="path1413"
     d="m 92.3904,3.99797 c 3.4,-0.6 7.4,-0.2 10.5996,-0.3 -3.1996,-3.000001 -0.7,5.9 -1.6,8.00003 0,14.6 0.3,29.2 -0.3,43.8 -0.2,3.9 0.1,8.8 -0.3,12.3 1,-0.4 -2.1996,-0.2 -3.0996,-0.2 -2.2,0 -4.5,0 -6.7,0 0,1.6 -1.2,4.4 1.6,3.6 3.2,-0.1 6.6,0.3 9.7996,-0.2 3.4,-1.8 1.8,-6.5 2.3,-9.5 0.3,-15.6 0.7,-31.1 0.3,-46.7 -0.2,-4.4 0.5,-8.90003 0,-13.30003 -1.5,-2.200001 -4.5,-1.000001 -6.7996,-1.300001 -2,0.2 -4.8,-0.5 -6.1,0.7 0.1,1.000001 0.3,2.300001 0.3,3.200001 z"
     style="color:#000000;overflow:visible;fill:#0169c9;stroke:#636466;stroke-width:0.17;stroke-linejoin:round" />
  <text
     id="text1415"
     style="color:#000000;font-weight:900;font-size:25.700001px;font-family:'Comic Sans MS';overflow:visible;fill:#fd3301;stroke-width:0.66"
     y="62.798"
     x="21.1904">1</text>
  <text
     id="text1417"
     style="color:#000000;font-weight:900;font-size:25.700001px;font-family:'Comic Sans MS';overflow:visible;fill:#fd3301;stroke-width:0.66"
     y="26.598"
     x="20.5904">2</text>
  <text
     id="text1419"
     style="color:#000000;font-weight:900;font-size:25.700001px;font-family:'Comic Sans MS';overflow:visible;fill:#fd3301;stroke-width:0.66"
     y="26.598"
     x="62.6904">0</text>
  <text
     id="text1421"
     style="color:#000000;font-weight:900;font-size:25.700001px;font-family:'Comic Sans MS';overflow:visible;fill:#fd3301;stroke-width:0.66"
     y="62.798"
     x="62.6222">8</text>
</svg>
