<?xml version="1.0" encoding="UTF-8" standalone="no"?>
<!-- Copyright 2017 mathsisfun.com -->

<svg
   xmlns:dc="http://purl.org/dc/elements/1.1/"
   xmlns:cc="http://creativecommons.org/ns#"
   xmlns:rdf="http://www.w3.org/1999/02/22-rdf-syntax-ns#"
   xmlns:svg="http://www.w3.org/2000/svg"
   xmlns="http://www.w3.org/2000/svg"
   xmlns:sodipodi="http://sodipodi.sourceforge.net/DTD/sodipodi-0.dtd"
   xmlns:inkscape="http://www.inkscape.org/namespaces/inkscape"
   width="127.815"
   height="93.0349"
   version="1.1"
   id="svg22"
   sodipodi:docname="matrix-main-diagonal.svg"
   inkscape:version="0.92.4 (5da689c313, 2019-01-14)">
  <metadata
     id="metadata26">
    <rdf:RDF>
      <cc:Work
         rdf:about="">
        <dc:format>image/svg+xml</dc:format>
        <dc:type
           rdf:resource="http://purl.org/dc/dcmitype/StillImage" />
        <dc:title />
      </cc:Work>
    </rdf:RDF>
  </metadata>
  <sodipodi:namedview
     pagecolor="#ffffff"
     bordercolor="#666666"
     borderopacity="1"
     objecttolerance="10"
     gridtolerance="10"
     guidetolerance="10"
     inkscape:pageopacity="0"
     inkscape:pageshadow="2"
     inkscape:window-width="640"
     inkscape:window-height="480"
     id="namedview24"
     showgrid="false"
     inkscape:current-layer="svg22"
     showguides="false" />
  <defs
     id="defs2" />
  <path
     style="fill:none;fill-rule:evenodd;stroke:#fce94f;stroke-width:8.652452;stroke-linecap:round;stroke-linejoin:miter;stroke-miterlimit:4;stroke-dasharray:none;stroke-opacity:0.392157"
     d="m 13.171,6.7129 97.226,80.223"
     id="path10278"
     inkscape:connector-curvature="0" />
  <path
     inkscape:connector-curvature="0"
     id="path4"
     d="M 11.5859,3.71882 C 8.64412,2.94007 5.18319,3.45917 2.41441,3.2862 4.8371,0.863468 3.27965,5.88191 3.71227,7.52589 3.53922,20.5045 3.02007,64.632 3.19313,77.6107 3.36618,81.7639 2.93355,85.9175 3.36618,89.9844 2.32789,89.4649 5.18319,89.8112 5.96191,89.7241 h 5.79699 c 0,1.3844 0.9518,3.8077 -1.3843,3.115 C 7.60583,92.666 4.66404,93.0984 1.98178,92.5799 -0.873508,90.9353 0.424342,87.2147 0.078243,84.5331 c 0,-14.2769 0,-59.7023 0.519147,-74.0654 C 0.770439,7.35283 0.337817,4.23792 0.770439,1.2096 2.06831,-0.693942 4.66404,0.430848 6.65411,0.171298 8.29802,0.344368 11.4128,-0.434382 11.932,1.2096 c 0,0.86524 -0.3461,1.73047 -0.2596,2.59571 z"
     style="color:#000000;overflow:visible;fill:#0169c9;stroke:#636466;stroke-width:0.147092;stroke-linejoin:round"
     sodipodi:nodetypes="cccccccccccccccc" />
  <path
     inkscape:connector-curvature="0"
     id="path6"
     d="m 116.68,3.45917 c 2.942,-0.5191 6.403,-0.17297 9.171,-0.25955 -2.768,-2.595702 -0.605,5.10491 -1.384,6.92198 0,12.6326 0.26,56.414 -0.259,69.0466 -0.173,3.3744 0.09,7.6141 -0.26,10.643 0.865,-0.3463 -1.903,-0.1732 -2.682,-0.1732 h -5.798 c 0,1.3844 -1.038,3.8067 1.385,3.115 2.769,-0.088 5.711,0.2593 8.48,-0.1731 2.942,-1.5575 1.557,-5.6244 1.99,-8.2199 0.259,-13.4983 0.605,-58.0583 0.259,-71.5561 -0.173,-3.80707 0.432,-7.70074 0,-11.50781 -1.297,-1.903542 -3.894,-0.865242 -5.884,-1.124792 -1.73,0.17307 -4.153,-0.43262 -5.278,0.60568 0.09,0.865242 0.26,1.990022 0.26,2.768772 z"
     style="color:#000000;overflow:visible;fill:#0169c9;stroke:#636466;stroke-width:0.147092;stroke-linejoin:round"
     sodipodi:nodetypes="cccccscccccccccc" />
  <text
     id="text8"
     style="color:#000000;font-style:normal;font-variant:normal;font-weight:bold;font-stretch:normal;font-size:23.073204px;font-family:'Comic Sans MS';-inkscape-font-specification:'Comic Sans MS Bold';overflow:visible;fill:#cccccc;stroke-width:0.571062;"
     y="54.8951"
     x="16.4191">4</text>
  <text
     id="text10"
     style="color:#000000;font-style:normal;font-variant:normal;font-weight:bold;font-stretch:normal;font-size:23.073204px;font-family:'Comic Sans MS';-inkscape-font-specification:'Comic Sans MS Bold';overflow:visible;fill:#fd3301;stroke-width:0.571062"
     y="23.1489"
     x="16.1995">7</text>
  <text
     id="text12"
     style="color:#000000;font-style:normal;font-variant:normal;font-weight:bold;font-stretch:normal;font-size:23.073204px;font-family:'Comic Sans MS';-inkscape-font-specification:'Comic Sans MS Bold';overflow:visible;fill:#cccccc;stroke-width:0.571062;"
     y="22.732"
     x="55.1361">6</text>
  <text
     id="text14"
     style="color:#000000;font-style:normal;font-variant:normal;font-weight:bold;font-stretch:normal;font-size:23.073204px;font-family:'Comic Sans MS';-inkscape-font-specification:'Comic Sans MS Bold';overflow:visible;fill:#cccccc;stroke-width:0.571062;"
     y="54.8951"
     x="85.8435">-2</text>
  <text
     id="text16"
     style="color:#000000;font-style:normal;font-variant:normal;font-weight:bold;font-stretch:normal;font-size:23.073204px;font-family:'Comic Sans MS';-inkscape-font-specification:'Comic Sans MS Bold';overflow:visible;fill:#cccccc;stroke-width:0.571062;"
     y="23.0137"
     x="93.5944">4</text>
  <text
     id="text18"
     style="color:#000000;font-style:normal;font-variant:normal;font-weight:bold;font-stretch:normal;font-size:23.073204px;font-family:'Comic Sans MS';-inkscape-font-specification:'Comic Sans MS Bold';overflow:visible;fill:#fd3301;stroke-width:0.571062"
     y="54.5403"
     x="55.1361">2</text>
  <text
     x="16.4191"
     y="86.5407"
     style="color:#000000;font-style:normal;font-variant:normal;font-weight:bold;font-stretch:normal;font-size:23.073204px;font-family:'Comic Sans MS';-inkscape-font-specification:'Comic Sans MS Bold';overflow:visible;fill:#cccccc;stroke-width:0.571062;"
     id="text841">3</text>
  <text
     x="93.3297"
     y="86.5407"
     style="color:#000000;font-style:normal;font-variant:normal;font-weight:bold;font-stretch:normal;font-size:23.073204px;font-family:'Comic Sans MS';-inkscape-font-specification:'Comic Sans MS Bold';overflow:visible;fill:#fd3301;stroke-width:0.571062"
     id="text843">9</text>
  <text
     x="55.1361"
     y="86.5407"
     style="color:#000000;font-style:normal;font-variant:normal;font-weight:bold;font-stretch:normal;font-size:23.073204px;font-family:'Comic Sans MS';-inkscape-font-specification:'Comic Sans MS Bold';overflow:visible;fill:#cccccc;stroke-width:0.571062;"
     id="text845">0</text>
</svg>
