<?xml version="1.0" encoding="UTF-8" standalone="no"?>
<!-- Copyright 2017 mathsisfun.com -->
<svg xmlns="http://www.w3.org/2000/svg" width="169.2" height="124.3" version="1.1">
<defs/>
<g transform="translate(-2286.6612,-2433.3806)">
<g transform="matrix(0.00842782,0.12001216,-0.17984691,0.0056239,2518.6432,2255.1454)">
<path style="color:black; overflow:visible; fill:#9ade00; stroke-width:3.69;" d="m 1676.8,1045.7 c 75,-15.7 153.6,-22.2 228.8,-3.8 56.9,11.4 112.9,31.6 171.5,31.6 24.5,-0.8 48.8,-5.6 72,-13.5 -4.6,18 -9.3,35.9 -13.9,53.9 -59.8,19.3 -123.4,8.6 -182.6,-7 -65.6,-16 -133.3,-33.2 -201.2,-22.5 -27.2,3.2 -56.5,3.9 -81.3,15.7 1.8,-17.9 4.6,-36.3 6.7,-54.4 z"/>
<path style="color:black; overflow:visible; fill:#9ade00; stroke-width:3.69;" d="m 2093.3,1015.9 c 23,16.5 39.8,42.9 68.9,49.8 14.9,5.8 40.4,-1.4 24.7,19 -5.5,12 -11,23.9 -16.5,35.9 -40.6,-2.9 -77.2,-25.4 -103.4,-55.7 -7.2,-7.3 -10.1,-2.3 -3.2,-10 9.8,-13 19.7,-26 29.5,-39 z"/>
<path style="color:black; overflow:visible; fill:#9ade00; stroke-width:3.69;" d="m 2071.3,1112.1 c 1.4,-2.7 -43.4,24.8 -16,8.3 39.2,-23.3 81.2,-44.6 127.3,-48.3 19,-7.9 7.8,8.4 5.2,17.6 -4.5,10.9 -7.6,23.6 -13,33.4 -38.6,3.7 -73.3,22.5 -106.3,41.7 7.9,-4.6 41.6,-24.1 19.3,-11.1 -12.2,8.1 -31.4,21.4 -22.8,-1.4 2.1,-13.4 4.3,-26.9 6.4,-40.3 z"/>
</g>
<path style="color:black; overflow:visible; fill:#0169c9; stroke:#636466; stroke-width:0.14; stroke-linejoin:round;" d="m 2326.5,2435.4 c -2.8,-0.2 -6.2,-0.1 -8.8,-0.1 2.3,-1.7 0.8,2.3 1.3,3.5 -0.5,9 -0.8,18.1 -0.5,27.2 -0.7,0.1 1.9,-0.1 2.9,0 1.8,-2e-4 3.5,0 5.3,0 1,2.3 -1.1,1.7 -2.6,1.7 -2.7,-0.3 -5.8,0.7 -8.2,-0.8 -1.1,-2.2 -0.2,-4.9 -0.5,-7.3 -0.2,-8.4 0.6,-16.8 0.6,-25.2 1.7,-1.5 4.5,-0.6 6.7,-0.8 1.7,0.4 5.3,-1 3.8,1.9 z"/>
<path style="color:black; overflow:visible; fill:#0169c9; stroke:#636466; stroke-width:0.14; stroke-linejoin:round;" d="m 2408,2435.3 c 3,-0.2 5.9,-0 8.9,-0.1 -0.7,0.3 -1.6,-1.3 -1.3,0 -0.3,4.7 -0.1,9.4 -0,14 -0,5.2 -0.4,10.3 -0.5,15.5 0.2,0.6 -0.5,1.7 0,1.1 -2.8,-0 -5.6,0 -8.4,-0 -0,0.6 -0.1,1.1 -0.2,1.7 2.9,0.1 5.8,0 8.8,0 1.3,0 2.8,-0.8 2.7,-2.2 0.1,-5.7 0.5,-11.4 0.5,-17.1 -0.1,-4.3 -0.3,-8.7 0,-13 0.3,-1.3 -0.9,-2 -2,-1.8 -3,0 -5.9,-0 -8.9,0.1 0.1,0.6 0.2,1.2 0.3,1.7 z"/>
<text x="2333.5" y="2459.4" style="font-family:'Comic Sans MS'; font-weight:bold; font-size:23.9px; color:black; overflow:visible; fill:#fd3301; stroke-width:1.1;">A</text>
<text x="2382.3" y="2459.4" style="font-family:'Comic Sans MS'; font-weight:bold; font-size:23.9px; color:black; overflow:visible; fill:#fd3301; stroke-width:1.1;">I</text>
<path style="color:black; overflow:visible; fill:none; stroke:#0169c9; stroke-width:1.84; stroke-linejoin:round;" d="m 2363.9,2436.1 0,32"/>
<path style="color:black; overflow:visible; fill:#0169c9; stroke:#636466; stroke-width:0.14; stroke-linejoin:round;" d="m 2325.5,2524.9 c -2.8,-0.2 -6.2,-0.1 -8.8,-0.1 2.3,-1.7 0.9,2.1 1.3,3.3 -0.5,9.1 -0.8,18.3 -0.5,27.4 -0.7,0.1 1.9,-0.1 2.9,0 1.8,-2e-4 3.5,0 5.3,0 1,2.3 -1.1,1.7 -2.6,1.7 -2.7,-0.3 -5.8,0.7 -8.2,-0.8 -1.1,-2.2 -0.2,-4.9 -0.5,-7.3 -0.2,-8.4 0.6,-16.8 0.6,-25.2 1.7,-1.5 4.5,-0.6 6.7,-0.8 1.7,0.4 5.3,-1 3.8,1.9 z"/>
<path style="color:black; overflow:visible; fill:#0169c9; stroke:#636466; stroke-width:0.14; stroke-linejoin:round;" d="m 2408,2524.8 c 2.8,-0.2 6.2,-0 8.8,-0.1 -2.5,-1.7 -0.8,3.6 -1.4,5.1 0.2,8.5 0,17.2 -0.5,25.7 0.7,-0 -2.2,-0 -3.2,-0 -1.7,0 -3.3,0 -5,-0 -1,2.2 1,1.8 2.5,1.8 2.7,-0.3 5.8,0.7 8.2,-0.7 1.2,-2.4 0.3,-5.4 0.8,-8 0.6,-8.2 -0,-16.4 0.3,-24.5 -1.6,-1.5 -4.1,-0.6 -6.2,-0.9 -1.6,0.4 -5.8,-1.2 -4.3,1.8 z"/>
<text x="2333.5" y="2548.9" style="font-family:'Comic Sans MS'; font-weight:bold; font-size:23.9px; color:black; overflow:visible; fill:#fd3301; stroke-width:1.1;">I</text>
<path style="color:black; overflow:visible; fill:none; stroke:#0169c9; stroke-width:1.84; stroke-linejoin:round;" d="m 2363.9,2525.6 0,32"/>
<g transform="matrix(0.4981445,0,0,0.4981445,1070.9484,1871.8469)">
<text x="2658.8" y="1339.7" style="font-family:'Comic Sans MS'; font-weight:bold; font-size:36px; color:black; overflow:visible; fill:#fd3301; stroke-width:1.1;">1</text>
<text x="2615.3" y="1359" style="font-family:'Comic Sans MS'; font-weight:bold; font-size:48px; color:black; overflow:visible; fill:#fd3301; stroke-width:1.1;">A</text>
<text x="2642.4" y="1336.8" style="font-family:'Comic Sans MS'; font-weight:bold; font-size:36px; color:black; overflow:visible; fill:#fd3301; stroke-width:1.1;">-</text>
</g>
<g transform="matrix(0.00842782,0.12001216,-0.17984691,0.0056239,2568.0654,2255.1454)">
<path style="color:black; overflow:visible; fill:#9ade00; stroke-width:3.69;" d="m 1676.8,1045.7 c 75,-15.7 153.6,-22.2 228.8,-3.8 56.9,11.4 112.9,31.6 171.5,31.6 24.5,-0.8 48.8,-5.6 72,-13.5 -4.6,18 -9.3,35.9 -13.9,53.9 -59.8,19.3 -123.4,8.6 -182.6,-7 -65.6,-16 -133.3,-33.2 -201.2,-22.5 -27.2,3.2 -56.5,3.9 -81.3,15.7 1.8,-17.9 4.6,-36.3 6.7,-54.4 z"/>
<path style="color:black; overflow:visible; fill:#9ade00; stroke-width:3.69;" d="m 2093.3,1015.9 c 23,16.5 39.8,42.9 68.9,49.8 14.9,5.8 40.4,-1.4 24.7,19 -5.5,12 -11,23.9 -16.5,35.9 -40.6,-2.9 -77.2,-25.4 -103.4,-55.7 -7.2,-7.3 -10.1,-2.3 -3.2,-10 9.8,-13 19.7,-26 29.5,-39 z"/>
<path style="color:black; overflow:visible; fill:#9ade00; stroke-width:3.69;" d="m 2071.3,1112.1 c 1.4,-2.7 -43.4,24.8 -16,8.3 39.2,-23.3 81.2,-44.6 127.3,-48.3 19,-7.9 7.8,8.4 5.2,17.6 -4.5,10.9 -7.6,23.6 -13,33.4 -38.6,3.7 -73.3,22.5 -106.3,41.7 7.9,-4.6 41.6,-24.1 19.3,-11.1 -12.2,8.1 -31.4,21.4 -22.8,-1.4 2.1,-13.4 4.3,-26.9 6.4,-40.3 z"/>
</g>
<text x="2285.1" y="2496.1" style="font-family:'Comic Sans MS'; font-size:12.4px; font-style:italic; color:black; overflow:visible; fill:#009100; stroke-width:1px;">&quot;Elementary Row Operations&quot;</text>
</g>
</svg>
