<?xml version="1.0" encoding="UTF-8" standalone="no"?>
<!-- Copyright 2017 mathsisfun.com -->

<svg
   width="150"
   height="131.3"
   version="1.1"
   id="svg50"
   sodipodi:docname="matrix-gauss-jordan5.svg"
   inkscape:version="1.1.2 (0a00cf5339, 2022-02-04, custom)"
   xmlns:inkscape="http://www.inkscape.org/namespaces/inkscape"
   xmlns:sodipodi="http://sodipodi.sourceforge.net/DTD/sodipodi-0.dtd"
   xmlns="http://www.w3.org/2000/svg"
   xmlns:svg="http://www.w3.org/2000/svg">
  <sodipodi:namedview
     id="namedview52"
     pagecolor="#ffffff"
     bordercolor="#666666"
     borderopacity="1.0"
     inkscape:pageshadow="2"
     inkscape:pageopacity="0.0"
     inkscape:pagecheckerboard="0"
     showgrid="false"
     inkscape:current-layer="svg50" />
  <defs
     id="defs2" />
  <text
     x="37.6699"
     y="24.15"
     style="color:#000000;fill:#204a87;font-family:Trebuchet MS;font-size:24.6px;overflow:visible;stroke-width:1px"
     id="text4">8</text>
  <text
     x="88.6699"
     y="24.15"
     style="color:#000000;fill:#204a87;font-family:Trebuchet MS;font-size:24.6px;overflow:visible;stroke-width:1px"
     id="text6">1</text>
  <text
     x="37.1699"
     y="122.15"
     style="color:#000000;fill:#204a87;font-family:Trebuchet MS;font-size:24.6px;overflow:visible;stroke-width:1px"
     id="text8">1</text>
  <text
     x="89.8915"
     y="111.395"
     style="color:#000000;font-size:18.1118px;font-family:'Trebuchet MS';overflow:visible;fill:#204a87;stroke-width:0.205349px"
     id="text10">1</text>
  <text
     x="98.4341"
     y="127.207"
     style="color:#000000;font-size:18.1118px;font-family:'Trebuchet MS';overflow:visible;fill:#204a87;stroke-width:0.205349px"
     id="text12">8</text>
  <path
     style="fill:none;stroke:#204a87;stroke-width:1.303;stroke-miterlimit:4;stroke-dasharray:none"
     d="M 89.5014,121.149 108.188,106.795"
     id="path14" />
  <g
     transform="matrix(0.008903,0.126779,-0.189988,0.005941,231.745,-188.25)"
     id="g24">
    <path
       style="color:#000000;overflow:visible;fill:#9ade00;stroke-width:3.69"
       d="m 1676.8,1045.7 c 53.6,-11 108.9,-17.6 163.8,-14 74.3,6.3 144.7,34.7 218.8,41.8 30.5,1.5 61,-3.6 89.7,-13.4 -4.6,18 -9.3,35.9 -13.9,53.9 -53.2,16.7 -110.6,11.3 -163.8,-2.6 -67.4,-15.2 -135.6,-36.5 -205.5,-28.4 -31.9,4 -65.4,3.9 -95.3,16.6 -1.8,1.5 1.8,-13.9 1.8,-18.7 1.5,-11.7 2.9,-23.4 4.4,-35.1 z"
       id="path18" />
    <path
       style="color:#000000;overflow:visible;fill:#9ade00;stroke-width:3.69"
       d="m 2093.3,1015.9 c 23,16.5 39.8,42.9 68.9,49.8 14.9,5.8 40.4,-1.4 24.7,19 -5.5,12 -11,23.9 -16.5,35.9 -40.6,-2.9 -77.2,-25.4 -103.4,-55.7 -7.2,-7.3 -10.1,-2.3 -3.2,-10 9.8,-13 19.7,-26 29.5,-39 z"
       id="path20" />
    <path
       style="color:#000000;overflow:visible;fill:#9ade00;stroke-width:3.69"
       d="m 2071.3,1112.1 c 1.4,-2.7 -43.4,24.8 -16,8.3 39.2,-23.3 81.2,-44.6 127.3,-48.3 19,-7.9 7.8,8.4 5.2,17.6 -4.5,10.9 -7.6,23.6 -13,33.4 -38.6,3.7 -73.3,22.5 -106.3,41.7 7.9,-4.6 41.6,-24.1 19.3,-11.1 -12.2,8.1 -31.4,21.4 -22.8,-1.4 2.1,-13.4 4.3,-26.9 6.4,-40.3 z"
       id="path22" />
  </g>
  <path
     style="color:#000000;overflow:visible;fill:#0169c9;stroke:#636466;stroke-width:0.15;stroke-linejoin:round"
     d="m 28.77,2.15 c -3,-0.2 -6.5,-0.1 -9.3,-0.1 2.4,-1.8 0.9,2.2 1.3,3.5 -0.5,9.6 -0.8,19.3 -0.5,28.9 -0.7,0.1 2,-0.1 3,0 1.9,0 3.7,0 5.6,0 1,2.4 -1.1,1.8 -2.7,1.8 -2.8,-0.3 -6.1,0.7 -8.6,-0.8 -1.1,-2.3 -0.2,-5.2 -0.5,-7.8 -0.2,-8.9 0.6,-17.7 0.6,-26.6 1.8,-1.6 4.7,-0.6 7,-0.9 1.8,0.4 5.6,-1.1 4,2 z"
     id="path26" />
  <path
     style="color:#000000;overflow:visible;fill:#0169c9;stroke:#636466;stroke-width:0.15;stroke-linejoin:round"
     d="m 114.87,2.05 c 3,-0.2 6.5,0 9.3,-0.1 -2.7,-1.8 -0.8,3.8 -1.5,5.4 0.3,9 0.1,18.1 -0.5,27.1 0.8,0 -2,-0.1 -3,0 -1.9,0 -3.7,0 -5.6,0 -1.1,2.3 1.1,1.9 2.6,1.9 2.9,-0.3 6.1,0.7 8.7,-0.8 1.3,-2.5 0.3,-5.7 0.8,-8.4 0.6,-8.6 0,-17.3 0.3,-25.9 -1.6,-1.6 -4.4,-0.6 -6.5,-0.9 -1.7,0.5 -6.2,-1.3 -4.6,1.9 z"
     id="path28" />
  <path
     style="color:#000000;overflow:visible;fill:none;stroke:#0169c9;stroke-width:1.94;stroke-linejoin:round"
     d="m 68.27,2.95 v 33.8"
     id="path30" />
  <path
     style="color:#000000;overflow:visible;fill:#0169c9;stroke:#636466;stroke-width:0.15;stroke-linejoin:round"
     d="m 27.67,96.75 c -3,-0.2 -6.5,-0.1 -9.3,-0.1 2.4,-1.8 0.9,2.2 1.3,3.5 -0.5,9.6 -0.8,19.3 -0.5,28.9 -0.7,0.1 2,-0.1 3,0 1.9,0 3.7,0 5.6,0 1,2.4 -1.1,1.8 -2.7,1.8 -2.8,-0.3 -6.1,0.7 -8.6,-0.8 -1.1,-2.3 -0.2,-5.2 -0.5,-7.8 -0.2,-8.9 0.6,-17.7 0.6,-26.6 1.8,-1.6 4.7,-0.6 7,-0.9 1.8,0.4 5.6,-1.1 4,2 z"
     id="path32" />
  <path
     style="color:#000000;overflow:visible;fill:#0169c9;stroke:#636466;stroke-width:0.15;stroke-linejoin:round"
     d="m 114.87,96.65 c 3,-0.2 6.5,0 9.3,-0.1 -2.7,-1.8 -0.8,3.8 -1.5,5.4 0.2,9 0.1,18.1 -0.5,27.1 0.8,0 -2.3,0 -3.4,0 -1.8,0 -3.5,0 -5.2,0 -1.1,2.3 1.1,1.9 2.6,1.9 2.9,-0.3 6.1,0.7 8.7,-0.8 1.3,-2.5 0.4,-5.7 0.8,-8.4 0.6,-8.6 0,-17.3 0.3,-25.9 -1.6,-1.6 -4.4,-0.6 -6.5,-0.9 -1.7,0.5 -6.1,-1.3 -4.6,1.9 z"
     id="path34" />
  <path
     style="color:#000000;overflow:visible;fill:none;stroke:#0169c9;stroke-width:1.94;stroke-linejoin:round"
     d="m 68.27,97.45 v 33.8"
     id="path36" />
  <g
     transform="matrix(0.008903,0.126779,-0.189988,0.005941,283.954,-188.25)"
     id="g44">
    <path
       style="color:#000000;overflow:visible;fill:#9ade00;stroke-width:3.69"
       d="m 1676.8,1045.7 c 53.6,-11 108.9,-17.6 163.8,-14 74.3,6.3 144.7,34.7 218.8,41.8 30.5,1.5 61,-3.6 89.7,-13.4 -4.6,18 -9.3,35.9 -13.9,53.9 -53.2,16.7 -110.6,11.3 -163.8,-2.6 -67.4,-15.2 -135.6,-36.5 -205.5,-28.4 -31.9,4 -65.4,3.9 -95.3,16.6 -1.8,1.5 1.8,-13.9 1.8,-18.7 1.5,-11.7 2.9,-23.4 4.4,-35.1 z"
       id="path38" />
    <path
       style="color:#000000;overflow:visible;fill:#9ade00;stroke-width:3.69"
       d="m 2093.3,1015.9 c 23,16.5 39.8,42.9 68.9,49.8 14.9,5.8 40.4,-1.4 24.7,19 -5.5,12 -11,23.9 -16.5,35.9 -40.6,-2.9 -77.2,-25.4 -103.4,-55.7 -7.2,-7.3 -10.1,-2.3 -3.2,-10 9.8,-13 19.7,-26 29.5,-39 z"
       id="path40" />
    <path
       style="color:#000000;overflow:visible;fill:#9ade00;stroke-width:3.69"
       d="m 2071.3,1112.1 c 1.4,-2.7 -43.4,24.8 -16,8.3 39.2,-23.3 81.2,-44.6 127.3,-48.3 19,-7.9 7.8,8.4 5.2,17.6 -4.5,10.9 -7.6,23.6 -13,33.4 -38.6,3.7 -73.3,22.5 -106.3,41.7 7.9,-4.6 41.6,-24.1 19.3,-11.1 -12.2,8.1 -31.4,21.4 -22.8,-1.4 2.1,-13.4 4.3,-26.9 6.4,-40.3 z"
       id="path42" />
  </g>
  <text
     x="-1.42995"
     y="68.65"
     style="color:#000000;fill:#009100;font-family:'Trebuchet MS';font-size:25.3px;overflow:visible;stroke-width:1px;-inkscape-font-specification:'Trebuchet MS Italic';font-weight:normal;font-style:italic;font-stretch:normal;font-variant:normal"
     id="text46">&quot;Divide by 8&quot;</text>
</svg>
