<?xml version="1.0" encoding="UTF-8" standalone="no"?>
<svg
   xmlns:dc="http://purl.org/dc/elements/1.1/"
   xmlns:cc="http://creativecommons.org/ns#"
   xmlns:rdf="http://www.w3.org/1999/02/22-rdf-syntax-ns#"
   xmlns:svg="http://www.w3.org/2000/svg"
   xmlns="http://www.w3.org/2000/svg"
   xmlns:sodipodi="http://sodipodi.sourceforge.net/DTD/sodipodi-0.dtd"
   xmlns:inkscape="http://www.inkscape.org/namespaces/inkscape"
   width="231.4"
   height="125.6"
   version="1.1"
   id="svg38"
   sodipodi:docname="matrix-inverse-both.svg"
   inkscape:version="1.0.1 (3bc2e813f5, 2020-09-07)">
  <metadata
     id="metadata42">
    <rdf:RDF>
      <cc:Work
         rdf:about="">
        <dc:format>image/svg+xml</dc:format>
        <dc:type
           rdf:resource="http://purl.org/dc/dcmitype/StillImage" />
      </cc:Work>
    </rdf:RDF>
  </metadata>
  <sodipodi:namedview
     pagecolor="#ffffff"
     bordercolor="#666666"
     borderopacity="1"
     objecttolerance="10"
     gridtolerance="10"
     guidetolerance="10"
     inkscape:pageopacity="0"
     inkscape:pageshadow="2"
     inkscape:window-width="640"
     inkscape:window-height="480"
     id="namedview40"
     showgrid="false"
     inkscape:current-layer="svg38" />
  <defs
     id="defs2" />
  <path
     id="path895"
     style="overflow:visible;fill:#eec73e;stroke-width:2.89543;fill-opacity:1"
     d="M 41.5961 72.827 C 42.6727 77.67 44.714 82.1354 47.6598 85.3825 C 52.791 91.6392 59.772 94.8839 66.2355 93.5387 C 65.6828 96.1042 65.0829 98.6736 64.5302 101.239 L 64.5358 101.307 L 64.5358 101.307 C 52.4377 102.799 38.6746 90.4043 36.145 72.8637 " />
  <path
     id="path888"
     style="overflow:visible;fill:#eec73e;stroke-width:2.89543;fill-opacity:1"
     d="M 36.9226 56.8727 C 39.9233 44.7492 48.1605 35.7229 57.0792 33.3195 C 59.7179 32.9678 65.4305 30.594 66.8596 32.9297 C 66.1374 35.1684 65.696 37.9293 64.7987 39.7736 C 56.6719 39.4154 48.1977 42.9683 43.0629 51.8344 C 44.5839 49.4622 46.1389 46.338 43.8206 50.6145 C 42.8285 52.5143 42.0779 54.6271 41.5623 56.8612 " />
  <path
     style="overflow:visible;fill:#eec73e;stroke-width:2.89543"
     d="m 73.256,31.9306 c -9.6333,5.6911 -20.9154,4.0237 -30.7113,-2.1927 -4.6474,-0.9148 -0.076,-3.2635 1.3947,-5.0866 4.0472,-0.6029 8.7808,4.8688 13.3509,4.8363 2.6127,1.0809 11.375,-0.1113 4.2523,0.7427 1.2713,0.9861 6.5097,-4.2781 9.2236,-0.2082 0.8597,0.6111 1.7248,1.2897 2.5845,1.9007 z"
     id="path6" />
  <path
     style="overflow:visible;fill:#eec73e;stroke-width:2.89543"
     d="m 73.5164,33.9529 c -6.9514,2.9517 -12.3498,10.3407 -15.67,19.2629 -1.9006,-0.526 -3.8012,-1.052 -5.7018,-1.578 3.5599,-9.4868 8.9282,-17.8269 16.1446,-21.6178 1.7248,1.2897 3.5024,2.6432 5.2272,3.9329 z"
     id="path8" />
  <path
     id="path12"
     style="overflow:visible;fill:#eec73e;stroke-width:2.95179;fill-opacity:1"
     d="M 189.482 55.7951 C 188.589 49.6551 186.273 43.8616 182.657 39.9252 C 177.418 33.6098 170.35 30.4518 163.855 32.0146 C 164.383 29.3531 164.958 26.6862 165.486 24.0247 L 165.479 23.955 L 165.479 23.955 C 178.364 21.9775 193.307 36.0145 194.762 55.7721 " />
  <path
     id="path910"
     style="overflow:visible;fill:#eec73e;stroke-width:2.95179;fill-opacity:1"
     d="M 193.396 70.6403 C 190.208 82.4343 182.333 91.2831 173.76 93.8879 C 170.75 94.643 166.281 96.2631 163.808 94.9888 C 164.552 92.5848 164.994 89.5106 165.911 87.4391 C 174.101 87.5884 182.596 83.6937 187.667 74.4084 C 186.162 76.8967 184.631 80.1617 186.917 75.6874 C 187.689 74.1196 188.307 72.419 188.777 70.6321 " />
  <path
     style="overflow:visible;fill:#eec73e;stroke-width:2.95179"
     d="m 157.482,95.7591 c 9.638,-6.132 21.02,-4.7177 30.957,1.4298 4.644,0.823 0.202,3.2841 -1.258,5.2051 -3.644,1.177 -8.134,-4.3068 -12.315,-4.2664 -2.202,-0.9524 -8.614,-0.5948 -8.221,-0.4977 2.714,-0.3002 4.2,-0.8867 0.531,0.012 -2.854,1.934 -5.473,2.2237 -8.145,-0.7171 -0.514,-0.3653 -1.035,-0.8002 -1.596,-1.1602 z"
     id="path14" />
  <path
     style="overflow:visible;fill:#eec73e;stroke-width:2.95179"
     d="m 157.197,93.6799 c 6.968,-3.2333 12.321,-11.002 15.564,-20.296 1.921,0.4911 3.841,0.9822 5.761,1.4734 -3.478,9.8829 -8.79,18.6319 -16.016,22.738 -1.751,-1.2836 -3.557,-2.6317 -5.309,-3.9154 z"
     id="path16" />
  <text
     x="6.66387"
     y="69.5885"
     transform="scale(1.0011,0.998902)"
     style="font-size:18.6px;font-family:'Comic Sans MS';overflow:visible;fill:#eec73e;stroke-width:5.1"
     id="text22">Inverse</text>
  <text
     x="164.064"
     y="68.6883"
     transform="scale(1.0011,0.998902)"
     style="font-size:18.6px;font-family:'Comic Sans MS';overflow:visible;fill:#eec73e;stroke-width:5.1"
     id="text26">Inverse</text>
  <text
     x="97.964"
     y="34.3885"
     transform="scale(1.0011,0.998902)"
     style="font-size:47.7px;font-family:'Comic Sans MS';overflow:visible;fill:#3465a4;stroke-width:1px"
     id="text28">A</text>
  <text
     x="126.964"
     y="99.9884"
     transform="scale(1.0011,0.998902)"
     style="font-size:33.7px;font-family:'Comic Sans MS';overflow:visible;fill:#3465a4;stroke-width:1px"
     id="text30">1</text>
  <text
     x="85.764"
     y="125.089"
     transform="scale(1.0011,0.998902)"
     style="font-size:47.7px;font-family:'Comic Sans MS';overflow:visible;fill:#3465a4;stroke-width:1px"
     id="text32">A</text>
  <text
     x="113.264"
     y="99.5885"
     transform="scale(1.0011,0.998902)"
     style="font-size:38.4px;font-family:'Comic Sans MS';overflow:visible;fill:#3465a4;stroke-width:1px"
     id="text34">-</text>
</svg>
