<?xml version="1.0" encoding="UTF-8" standalone="no"?>
<!-- Created with Inkscape (http://www.inkscape.org/) -->

<svg
   xmlns:dc="http://purl.org/dc/elements/1.1/"
   xmlns:cc="http://creativecommons.org/ns#"
   xmlns:rdf="http://www.w3.org/1999/02/22-rdf-syntax-ns#"
   xmlns:svg="http://www.w3.org/2000/svg"
   xmlns="http://www.w3.org/2000/svg"
   xmlns:sodipodi="http://sodipodi.sourceforge.net/DTD/sodipodi-0.dtd"
   xmlns:inkscape="http://www.inkscape.org/namespaces/inkscape"
   width="309.91"
   height="105.21"
   id="svg2"
   version="1.1"
   inkscape:version="0.92.4 (5da689c313, 2019-01-14)"
   sodipodi:docname="matrix-transpose.svg">
  <sodipodi:namedview
     id="base"
     pagecolor="#ffffff"
     bordercolor="#666666"
     borderopacity="1.0"
     inkscape:pageopacity="0.0"
     inkscape:pageshadow="2"
     inkscape:zoom="0.18322917"
     inkscape:cx="2621.9199"
     inkscape:cy="1629.1074"
     inkscape:document-units="px"
     inkscape:current-layer="layer1"
     showgrid="false"
     inkscape:window-width="1920"
     inkscape:window-height="1005"
     inkscape:window-x="1911"
     inkscape:window-y="-9"
     inkscape:window-maximized="1"
     showborder="true"
     inkscape:snap-global="false" />
  <defs
     id="defs4">
    <marker
       inkscape:stockid="Arrow2Lend"
       orient="auto"
       refY="0"
       refX="0"
       id="marker8460"
       style="overflow:visible"
       inkscape:isstock="true">
      <path
         id="path8458"
         style="fill:#000000;fill-opacity:1;fill-rule:evenodd;stroke:#000000;stroke-width:0.625;stroke-linejoin:round;stroke-opacity:1"
         d="M 8.71859,4.03374 -2.20729,0.016013 8.71859,-4.00171 c -1.7455,2.37206 -1.73544,5.61745 0,8.03545 z"
         transform="matrix(-1.1,0,0,-1.1,-1.1,0)"
         inkscape:connector-curvature="0" />
    </marker>
    <marker
       inkscape:stockid="Arrow2Lstart"
       orient="auto"
       refY="0"
       refX="0"
       id="marker8372"
       style="overflow:visible"
       inkscape:isstock="true">
      <path
         id="path8370"
         style="fill:#ff9900;fill-opacity:1;fill-rule:evenodd;stroke:#ff9900;stroke-width:0.625;stroke-linejoin:round;stroke-opacity:1"
         d="M 8.71859,4.03374 -2.20729,0.016013 8.71859,-4.00171 c -1.7455,2.37206 -1.73544,5.61745 0,8.03545 z"
         transform="matrix(1.1,0,0,1.1,1.1,0)"
         inkscape:connector-curvature="0" />
    </marker>
    <marker
       inkscape:isstock="true"
       style="overflow:visible"
       id="marker7230"
       refX="0"
       refY="0"
       orient="auto"
       inkscape:stockid="Arrow1Lend">
      <path
         inkscape:connector-curvature="0"
         transform="matrix(-0.8,0,0,-0.8,-10,0)"
         style="fill:#000000;fill-opacity:1;fill-rule:evenodd;stroke:#000000;stroke-width:1pt;stroke-opacity:1"
         d="M 0,0 5,-5 -12.5,0 5,5 Z"
         id="path7228" />
    </marker>
    <marker
       inkscape:isstock="true"
       style="overflow:visible"
       id="marker7136"
       refX="0"
       refY="0"
       orient="auto"
       inkscape:stockid="Arrow1Lstart">
      <path
         inkscape:connector-curvature="0"
         transform="matrix(0.8,0,0,0.8,10,0)"
         style="fill:#000000;fill-opacity:1;fill-rule:evenodd;stroke:#000000;stroke-width:1pt;stroke-opacity:1"
         d="M 0,0 5,-5 -12.5,0 5,5 Z"
         id="path7134" />
    </marker>
  </defs>
  <metadata
     id="metadata7">
    <rdf:RDF>
      <cc:Work
         rdf:about="">
        <dc:format>image/svg+xml</dc:format>
        <dc:type
           rdf:resource="http://purl.org/dc/dcmitype/StillImage" />
        <dc:title />
      </cc:Work>
    </rdf:RDF>
  </metadata>
  <g
     transform="translate(311.402,-1732.75)"
     id="layer1"
     inkscape:groupmode="layer"
     inkscape:label="Layer 1">
    <path
       sodipodi:nodetypes="cc"
       inkscape:connector-curvature="0"
       id="path11243"
       d="m -101.355,1750.31 66.9411,55.7"
       style="fill:none;fill-rule:evenodd;stroke:#fce94f;stroke-width:8;stroke-linecap:round;stroke-linejoin:miter;stroke-miterlimit:4;stroke-dasharray:none;stroke-opacity:0.403922" />
    <path
       style="fill:none;fill-rule:evenodd;stroke:#fce94f;stroke-width:8;stroke-linecap:round;stroke-linejoin:miter;stroke-miterlimit:4;stroke-dasharray:none;stroke-opacity:0.403922"
       d="m -300.283,1748.9 64.535,53.83"
       id="path10278"
       inkscape:connector-curvature="0"
       sodipodi:nodetypes="cc" />
    <path
       inkscape:connector-curvature="0"
       d="m -300.195,1748.2 c -0.112,0 -0.224,0 -0.337,0 -0.127,0 -0.254,0 -0.381,-0.1 -0.132,0 -0.264,0 -0.397,0 -0.135,0 -0.271,0 -0.407,0 -0.141,0 -0.283,0 -0.424,0 -0.161,0 -0.321,0 -0.482,0 -0.164,0 -0.328,0 -0.492,0 -0.165,0 -0.331,0 -0.497,0 -0.153,0 -0.307,0 -0.461,0 -0.151,0 -0.302,0 -0.452,0 -0.149,0 -0.297,0 -0.446,0 -0.137,0 -0.275,0 -0.413,0 -0.125,0 -0.249,0 -0.374,0 -0.114,0 -0.227,0 -0.34,0 -0.103,0 -0.206,0 -0.309,0 -0.09,0 -0.186,0 -0.279,0 -0.09,0 -0.17,0 -0.255,0 -0.1,0 -0.196,0 -0.294,0 -0.08,0 -0.161,0 -0.241,0 -0.07,0 -0.143,0 -0.214,0 -0.06,0 -0.128,0 -0.193,0 -0.06,0 -0.116,0 -0.175,0 -0.05,0 -0.106,0 -0.159,0 -0.05,0 -0.1,0 -0.144,0 -0.05,0 -0.09,0 -0.131,0 -0.04,0 -0.08,0 -0.118,0 -0.04,0 -0.08,0 -0.115,0 -0.03,0 -0.07,0 -0.105,0 -0.03,0 -0.06,0 -0.1,0 -0.03,0 -0.06,0 -0.09,0 -0.02,0 -0.05,0 -0.08,0 -0.1,0 0.01,0 0.06,0 0.316,0 0.595,-0.14 0.842,-0.34 0.153,-0.13 0.272,-0.29 0.354,-0.47 0.02,-0.1 0.03,-0.1 0.04,-0.14 0,0 0,0 0,0 0,0.1 0,0.16 0,0.23 0,0.14 0,0.27 -0.01,0.4 0,0.15 0,0.31 -0.01,0.46 0,0.18 0,0.35 0,0.53 0,0.2 0,0.41 0.01,0.61 0,0.24 0.01,0.48 0.01,0.71 0,0.26 0,0.51 0,0.76 0,0.26 0,0.52 0,0.78 0,0.28 0,0.55 0,0.82 0,0.29 0,0.57 0,0.86 0,0.3 0,0.59 0,0.89 0,0.3 -0.01,0.6 -0.01,0.91 0,0.3 0,0.6 -0.01,0.9 0,0.3 0,0.61 -0.01,0.91 0,0.32 -0.01,0.63 -0.02,0.94 0,0.31 -0.01,0.62 -0.02,0.94 0,0.31 -0.01,0.62 -0.02,0.94 0,0.32 -0.01,0.65 -0.02,0.98 -0.01,0.34 -0.03,0.68 -0.04,1.03 -0.01,0.34 -0.02,0.69 -0.03,1.03 -0.01,0.36 -0.02,0.71 -0.03,1.06 -0.01,0.36 -0.02,0.72 -0.03,1.08 -0.01,0.36 -0.03,0.73 -0.04,1.09 -0.01,0.37 -0.02,0.73 -0.04,1.1 -0.01,0.38 -0.02,0.75 -0.04,1.13 -0.01,0.38 -0.03,0.77 -0.04,1.15 -0.01,0.39 -0.03,0.78 -0.04,1.16 -0.01,0.39 -0.02,0.78 -0.03,1.17 -0.01,0.4 -0.01,0.79 -0.02,1.19 0,0.42 -0.01,0.83 -0.02,1.25 0,0.43 0,0.85 -0.01,1.27 0,0.44 0,0.88 -0.01,1.32 0,0.45 0,0.9 -0.01,1.36 0,0.46 0,0.91 0,1.37 0,0.45 0,0.89 0,1.34 0,0.43 0,0.86 0,1.29 0,0.42 0,0.84 0,1.27 0,0.4 0,0.81 0,1.21 0,0.39 0,0.79 0,1.18 0,0.38 0,0.77 0,1.16 0,0.37 0,0.75 0,1.12 0,0.36 0,0.73 0,1.09 0,0.36 0,0.72 0,1.08 0,0.36 0,0.72 0,1.07 0,0.36 0,0.72 0,1.08 0,0.35 0,0.7 -0.01,1.05 0,0.33 0,0.66 0,0.99 0,0.31 0,0.62 0,0.93 0,0.28 0,0.56 0,0.84 0,0.26 0,0.52 0,0.78 0,0.23 0,0.47 0,0.71 0,0.22 0,0.44 0,0.65 0,0.2 0,0.4 0,0.6 0,0.18 0,0.36 0,0.53 0,0.17 0,0.33 0,0.49 0,0.15 0,0.3 0,0.44 0,0.12 0,0.23 0,0.34 0,0.1 0.01,0.17 0.02,0.26 0,0.1 0.01,0.15 0.03,0.23 0,0 0.02,0.1 0.03,0.13 0.01,0 0.02,0.1 0.03,0.1 0.02,0.1 0.05,0.13 0.07,0.19 0.01,0 0.02,0 0,0 -0.01,0 -0.03,-0.1 -0.05,-0.1 0.03,0 0.05,0.1 0.08,0.1 -0.05,-0.1 -0.109,-0.11 -0.169,-0.16 -0.08,-0.1 -0.162,-0.1 -0.249,-0.14 -0.05,0 -0.02,0 0,0 0.03,0 0.07,0 0.07,0 0.05,0 0.06,0 0.1,0 0.06,0 0.119,0 0.179,0 0.09,0 0.185,0 0.277,0 0.09,0 0.19,0 0.285,0 0.09,0 0.185,0 0.278,0 0.09,0 0.187,0 0.281,0 0.107,0 0.214,0 0.322,0 0.09,0 0.18,0 0.27,0 0.09,0 0.178,0 0.267,0 0.1,0 0.19,0 0.284,0 0.1,0 0.201,0 0.301,0 0.09,0 0.175,0 0.263,0 0.113,0 0.226,0 0.34,0 0.107,0 0.215,0 0.322,0 0.106,0 0.211,0 0.316,0 0.108,0 0.215,0 0.323,0 0.121,0 0.241,0 0.362,0 0.105,0 0.21,0 0.314,0 0.1,0 0.196,0 0.294,0 0.09,0 0.185,0 0.278,0 0.09,0 0.187,0 0.281,0 0.08,0 0.165,0 0.247,0 0.1,0 0.191,0 0.287,0 0.09,0 0.178,0 0.268,0 0.07,0 0.139,0 0.208,0 0.08,0 0.162,0 0.243,0 0.08,0 0.162,0 0.243,0 0.07,0 0.148,0 0.221,0 0.07,0 0.136,0 0.203,0 0.06,0 0.126,0 0.189,0 0.06,0 0.114,0 0.171,0 0.05,0 0.103,0 0.155,0 0.02,0 0.03,0 0.05,0 0,0 0.139,2.98 0.139,2.98 v 0 c -0.01,0 -0.03,0 -0.05,0 -0.05,0 -0.104,0 -0.155,0 -0.06,0 -0.114,0 -0.171,0 -0.06,0 -0.125,0 -0.188,0 -0.07,0 -0.134,0 -0.201,0 -0.07,0 -0.147,0 -0.221,0 -0.08,0 -0.162,0 -0.243,0 -0.09,0 -0.176,0 -0.264,0 -0.1,0 -0.195,0 -0.293,0 -0.09,0 -0.179,0 -0.269,0 -0.1,0 -0.193,0 -0.29,0 -0.119,0 -0.239,0 -0.359,0 -0.102,0 -0.203,0 -0.305,0 -0.1,0 -0.195,0 -0.292,0 -0.1,0 -0.199,0 -0.299,0 -0.105,0 -0.21,0 -0.316,0 -0.09,0 -0.175,0 -0.263,0 -0.1,0 -0.191,0 -0.287,0 -0.107,0 -0.213,0 -0.32,0 -0.106,0 -0.213,0 -0.32,0 -0.09,0 -0.183,0 -0.275,0 -0.115,0 -0.23,0 -0.345,0 -0.103,0 -0.207,0 -0.31,0 -0.1,0 -0.201,0 -0.301,0 -0.09,0 -0.187,0 -0.281,0 -0.09,0 -0.184,0 -0.276,0 -0.08,0 -0.163,0 -0.244,0 -0.1,0 -0.191,0 -0.286,0 -0.1,0 -0.189,0 -0.284,0 -0.1,0 -0.192,0 -0.288,0 -0.1,0 -0.195,0 -0.292,0 -0.113,0 -0.226,0 -0.339,0 -0.115,0 -0.23,0 -0.344,-0.1 -0.104,0 -0.208,0 -0.31,-0.1 -0.114,0 -0.227,0 -0.336,-0.1 -0.192,-0.1 -0.378,-0.16 -0.542,-0.28 -0.139,-0.11 -0.272,-0.23 -0.381,-0.37 -0.04,0 -0.08,-0.1 -0.121,-0.15 -0.09,-0.12 -0.174,-0.24 -0.241,-0.37 -0.06,-0.11 -0.108,-0.23 -0.149,-0.34 -0.03,-0.1 -0.05,-0.15 -0.08,-0.22 -0.04,-0.12 -0.08,-0.24 -0.108,-0.36 -0.04,-0.13 -0.06,-0.27 -0.08,-0.41 -0.02,-0.12 -0.04,-0.25 -0.05,-0.38 -0.01,-0.15 -0.03,-0.3 -0.03,-0.45 0,-0.15 0,-0.3 0,-0.45 0,-0.15 0,-0.3 0,-0.44 0,-0.17 0,-0.33 0,-0.49 0,-0.18 0,-0.36 0,-0.54 0,-0.2 0,-0.4 0,-0.59 0,-0.22 0,-0.44 0,-0.66 0,-0.23 0,-0.47 0,-0.71 0,-0.26 0,-0.52 0,-0.78 0,-0.28 0,-0.56 0,-0.85 0,-0.3 0,-0.61 0,-0.92 0,-0.34 0,-0.67 0,-1 0,-0.35 0,-0.7 0.01,-1.05 0,-0.35 0,-0.7 0,-1.05 0,-0.35 0,-0.7 0,-1.06 0,-0.36 0,-0.72 0,-1.08 0,-0.37 0,-0.73 0,-1.1 0,-0.37 0,-0.75 0,-1.12 0,-0.39 0,-0.77 0,-1.15 0,-0.39 0,-0.79 0,-1.18 0,-0.41 0,-0.81 0,-1.22 0,-0.42 0,-0.85 0,-1.27 0,-0.43 0,-0.87 0,-1.3 0,-0.44 0,-0.89 0,-1.34 0,-0.46 0,-0.92 0,-1.38 0,-0.46 0,-0.91 0.01,-1.37 0,-0.44 0,-0.87 0,-1.31 0,-0.42 0,-0.85 0.01,-1.28 0,-0.42 0.01,-0.84 0.02,-1.27 0,-0.4 0.01,-0.81 0.02,-1.22 0.01,-0.4 0.02,-0.79 0.03,-1.19 0.02,-0.39 0.03,-0.78 0.04,-1.17 0.01,-0.39 0.03,-0.77 0.04,-1.15 0.01,-0.37 0.02,-0.74 0.03,-1.11 0.01,-0.38 0.03,-0.75 0.04,-1.12 0.01,-0.36 0.02,-0.72 0.03,-1.09 0.01,-0.35 0.03,-0.71 0.04,-1.06 0.01,-0.36 0.02,-0.71 0.03,-1.07 0.01,-0.35 0.03,-0.7 0.04,-1.05 0.01,-0.33 0.02,-0.67 0.04,-1 0.01,-0.32 0.02,-0.63 0.02,-0.95 0,-0.32 0.01,-0.63 0.02,-0.95 0,-0.31 0.01,-0.62 0.02,-0.93 0,-0.31 0.01,-0.61 0.01,-0.92 0,-0.3 0,-0.6 0.01,-0.9 0,-0.31 0,-0.61 0.01,-0.91 0,-0.31 0,-0.61 0.01,-0.91 0,-0.28 0,-0.57 0,-0.85 0,-0.28 0,-0.56 0,-0.85 0,-0.27 0,-0.55 0,-0.82 0,-0.26 0,-0.53 0,-0.79 0,-0.24 0,-0.49 0,-0.73 0,-0.23 0,-0.46 -0.01,-0.68 0,-0.22 -0.01,-0.44 -0.01,-0.65 0,-0.2 0,-0.4 0,-0.59 0,-0.17 0,-0.33 0.01,-0.5 0,-0.12 0,-0.25 0,-0.38 0,-0.12 0,-0.23 0.01,-0.35 0.01,-0.14 0.02,-0.27 0.05,-0.4 0.03,-0.15 0.06,-0.29 0.121,-0.43 0.106,-0.25 0.247,-0.47 0.453,-0.65 0.283,-0.22 0.602,-0.38 0.969,-0.39 0.07,0 0.136,0 0.204,0 0.02,0 0.05,0 0.08,0 0.03,0 0.06,0 0.09,0 0.03,0 0.06,0 0.1,0 0.03,0 0.07,0 0.104,0 0.04,0 0.08,0 0.116,0 0.05,0 0.09,0 0.133,0 0.04,0 0.09,0 0.13,0 0.05,0 0.1,0 0.144,0 0.05,0 0.106,0 0.159,0 0.06,0 0.117,0 0.175,0 0.06,0 0.129,0 0.194,0 0.07,0 0.141,0 0.212,0 0.08,0 0.152,0 0.228,0 0.07,0 0.137,0 0.205,0 0.09,0 0.172,0 0.258,0 0.09,0 0.186,0 0.279,0 0.103,0 0.206,0 0.309,0 0.113,0 0.226,0 0.34,0 0.125,0 0.25,0 0.375,0 0.137,0 0.275,0 0.413,0 0.15,0 0.301,0 0.451,0 0.155,0 0.31,0 0.465,0 0.155,0 0.311,0 0.466,0 0.168,0 0.336,0 0.504,0 0.186,0 0.373,0 0.559,0 0.176,0 0.352,0 0.529,0 0.159,0 0.318,0 0.477,0 0.148,0 0.297,0 0.445,0 0.145,0 0.29,0 0.435,0 0.131,0 0.262,0 0.394,0 0.131,0 0.262,0.1 0.394,0.1 0,0 -0.385,2.95 -0.385,2.95 z"
       id="path3337-6"
       style="color:#000000;display:inline;overflow:visible;visibility:visible;fill:#0169c9;fill-opacity:1;fill-rule:nonzero;stroke:#636466;stroke-width:0.143253;stroke-linecap:butt;stroke-linejoin:round;stroke-miterlimit:4;stroke-dasharray:none;stroke-dashoffset:0;stroke-opacity:1;marker:none;enable-background:accumulate" />
    <path
       inkscape:connector-curvature="0"
       style="color:#000000;display:inline;overflow:visible;visibility:visible;fill:#0169c9;fill-opacity:1;fill-rule:nonzero;stroke:#636466;stroke-width:0.143253;stroke-linecap:butt;stroke-linejoin:round;stroke-miterlimit:4;stroke-dasharray:none;stroke-dashoffset:0;stroke-opacity:1;marker:none;enable-background:accumulate"
       id="path3339-5"
       d="m -194.402,1748 c 0.113,0 0.226,0 0.338,0 0.127,0 0.255,0 0.382,0 0.132,0 0.265,0 0.397,-0.1 0.136,0 0.272,0 0.408,0 0.142,0 0.284,0 0.425,0 0.161,0 0.322,0 0.482,0 0.164,0 0.328,0 0.493,0 0.165,0 0.331,0 0.496,0 0.154,0 0.308,0 0.462,0 0.151,0 0.301,0 0.452,0 0.149,0 0.297,0 0.446,0 0.137,0 0.275,0 0.413,0 0.124,0 0.249,0 0.374,0 0.114,0 0.227,0 0.34,0 0.103,0 0.206,0 0.309,0 0.09,0 0.186,0 0.279,0 0.09,0 0.17,0 0.255,0 0.1,0 0.196,0 0.294,0 0.08,0 0.161,0 0.242,0 0.07,0 0.142,0 0.213,0 0.06,0 0.129,0 0.193,0 0.06,0 0.117,0 0.176,0 0.05,0 0.106,0 0.159,0 0.05,0 0.1,0 0.144,0 0.04,0 0.09,0 0.131,0 0.04,0 0.08,0 0.118,0 0.04,0 0.08,0 0.116,0 0.03,0 0.07,0 0.104,0 0.03,0 0.06,0 0.09,0 0.03,0 0.06,0 0.09,0 0.03,0 0.05,0 0.08,0 0.1,0 -0.01,0 -0.06,0 -0.316,0 -0.593,-0.16 -0.835,-0.35 -0.151,-0.14 -0.267,-0.3 -0.345,-0.49 -0.02,0 -0.03,-0.1 -0.04,-0.13 0,0 0,0 0,0 0,0.1 0,0.15 0,0.23 0,0.13 0,0.26 0,0.39 0,0.16 0,0.31 0,0.47 0,0.17 0,0.35 -0.01,0.52 0,0.21 -0.01,0.41 -0.02,0.61 -0.01,0.24 -0.02,0.48 -0.03,0.72 0,0.25 -0.01,0.5 -0.02,0.76 0,0.26 -0.01,0.52 -0.01,0.78 0,0.27 -0.01,0.54 -0.02,0.81 -0.01,0.29 -0.01,0.57 -0.02,0.86 0,0.3 -0.01,0.59 -0.01,0.89 0,0.3 0,0.61 0,0.91 0,0.3 0,0.6 -0.01,0.9 0,0.3 0,0.61 -0.01,0.92 0,0.31 0,0.62 0,0.93 0,0.31 0,0.63 0,0.93 0,0.32 0,0.63 0,0.95 0,0.33 0,0.65 0,0.98 0,0.34 0.01,0.69 0.01,1.03 0,0.35 0.01,0.69 0.02,1.04 0,0.35 0,0.7 0.01,1.06 0,0.36 0.01,0.71 0.02,1.07 0,0.37 0.01,0.73 0.01,1.1 0,0.36 0.01,0.73 0.01,1.1 0,0.37 0.01,0.75 0.02,1.13 0,0.38 0.01,0.76 0.01,1.15 0,0.38 0.02,0.77 0.02,1.16 0,0.39 0.01,0.77 0.01,1.17 0,0.39 0,0.79 0,1.19 0,0.41 0,0.83 -0.01,1.25 0,0.42 -0.01,0.85 -0.02,1.27 0,0.43 -0.01,0.87 -0.02,1.31 0,0.46 -0.01,0.91 -0.02,1.36 0,0.46 -0.01,0.92 -0.03,1.38 0,0.45 -0.01,0.88 -0.02,1.33 -0.01,0.44 -0.02,0.87 -0.03,1.3 -0.01,0.41 -0.02,0.84 -0.03,1.26 -0.01,0.4 -0.02,0.81 -0.03,1.22 -0.01,0.39 -0.02,0.78 -0.03,1.17 -0.01,0.39 -0.02,0.77 -0.03,1.16 -0.01,0.37 -0.01,0.75 -0.03,1.12 -0.01,0.36 -0.01,0.73 -0.03,1.09 -0.01,0.36 -0.02,0.72 -0.02,1.08 -0.01,0.36 -0.02,0.72 -0.03,1.07 0,0.37 -0.01,0.73 -0.02,1.09 0,0.35 -0.01,0.69 -0.01,1.04 0,0.33 -0.01,0.66 -0.02,0.99 0,0.31 -0.01,0.62 -0.01,0.92 0,0.29 -0.01,0.57 -0.01,0.85 0,0.26 -0.01,0.52 -0.01,0.78 0,0.24 0,0.48 -0.01,0.71 0,0.22 0,0.44 -0.01,0.66 0,0.2 0,0.39 -0.01,0.59 0,0.18 0,0.36 -0.01,0.54 0,0.16 0,0.32 0,0.49 0,0.14 0,0.29 0,0.44 0,0.11 0,0.22 -0.01,0.33 0,0.1 -0.01,0.17 -0.02,0.26 -0.01,0.1 -0.02,0.16 -0.04,0.23 0,0 -0.01,0.1 -0.03,0.13 -0.01,0 -0.02,0.1 -0.04,0.1 -0.02,0.1 -0.04,0.13 -0.07,0.19 -0.02,0.1 -0.02,0.1 0,0 0.02,0 0.03,-0.1 0.05,-0.1 -0.03,0 -0.06,0.1 -0.08,0.1 0.05,-0.1 0.111,-0.11 0.172,-0.16 0.08,0 0.164,-0.1 0.251,-0.13 0.05,0 0.02,0 0,0 -0.02,0 -0.07,0 -0.07,0 -0.05,0 -0.06,0 -0.1,0 -0.06,0 -0.119,0 -0.179,0 -0.09,0 -0.185,0 -0.277,0 -0.09,0 -0.19,0 -0.284,0 -0.09,0 -0.186,0 -0.279,0 -0.09,0 -0.187,0 -0.28,0 -0.108,0 -0.215,0 -0.322,0 -0.09,0 -0.18,0 -0.271,0 -0.09,0 -0.178,0 -0.267,0 -0.09,0 -0.189,0 -0.284,0 -0.1,0 -0.2,0 -0.3,0 -0.09,0 -0.176,0 -0.263,0 -0.113,0 -0.227,0 -0.34,0 -0.107,0 -0.215,0 -0.322,0 -0.106,0 -0.211,0 -0.316,0 -0.108,0 -0.215,0 -0.323,0 -0.121,0 -0.241,0 -0.362,0 -0.105,0 -0.21,0 -0.315,0 -0.1,0 -0.196,0 -0.294,0 -0.09,0 -0.185,0 -0.278,0 -0.09,0 -0.187,0 -0.281,0 -0.08,0 -0.164,0 -0.246,0 -0.1,0 -0.192,0 -0.287,0 -0.09,0 -0.179,0 -0.268,0 -0.07,0 -0.139,0 -0.209,0 -0.08,0 -0.161,0 -0.242,0 -0.08,0 -0.162,0 -0.243,0 -0.07,0 -0.147,0 -0.221,0 -0.07,0 -0.135,0 -0.203,0 -0.06,0 -0.125,0 -0.188,0 -0.06,0 -0.114,0 -0.17,0 -0.05,0 -0.104,0 -0.155,0 -0.01,0 -0.03,0 -0.05,0 0,0 -0.198,2.97 -0.198,2.97 v 0 c 0.02,0 0.03,0 0.05,0 0.05,0 0.103,0 0.155,0 0.06,0 0.113,0 0.17,0 0.06,0 0.125,0 0.188,0 0.07,0 0.134,0 0.201,0 0.07,0 0.147,0 0.221,0 0.08,0 0.161,0 0.242,0 0.09,0 0.176,0 0.263,0 0.1,0 0.196,0 0.294,0 0.09,0 0.179,0 0.268,0 0.1,0 0.194,0 0.29,0 0.12,0 0.24,0 0.359,0 0.102,0 0.204,0 0.305,0 0.1,0 0.195,0 0.293,0 0.1,0 0.199,0 0.299,0 0.105,0 0.21,0 0.316,0 0.09,0 0.175,0 0.263,0 0.1,0 0.191,0 0.287,0 0.107,0 0.213,0 0.32,0 0.106,0 0.213,0 0.32,0 0.09,0 0.183,0 0.275,0 0.115,0 0.23,0 0.344,0 0.104,0 0.207,0 0.311,0 0.1,0 0.2,0 0.3,0 0.09,0 0.188,0 0.281,0 0.09,0 0.184,0 0.276,0 0.08,0 0.163,0 0.244,0 0.1,0 0.191,0 0.287,0 0.09,0 0.189,0 0.283,0 0.1,0 0.193,0 0.289,0 0.1,0 0.194,0 0.291,0 0.113,0 0.227,0 0.339,0 0.116,0 0.231,0 0.345,0 0.104,0 0.208,0 0.311,0 0.114,0 0.228,0 0.338,-0.1 0.193,-0.1 0.38,-0.14 0.547,-0.26 0.142,-0.11 0.277,-0.23 0.388,-0.36 0.04,0 0.08,-0.1 0.124,-0.15 0.09,-0.12 0.179,-0.24 0.249,-0.37 0.06,-0.11 0.112,-0.22 0.156,-0.34 0.03,-0.1 0.06,-0.15 0.08,-0.22 0.05,-0.11 0.08,-0.23 0.114,-0.35 0.03,-0.13 0.07,-0.27 0.09,-0.41 0.02,-0.12 0.04,-0.25 0.06,-0.38 0.02,-0.15 0.03,-0.29 0.04,-0.44 0.01,-0.16 0.02,-0.31 0.02,-0.46 0,-0.15 0,-0.3 0,-0.44 0,-0.17 0,-0.33 0.01,-0.49 0,-0.18 0,-0.36 0.01,-0.54 0,-0.2 0,-0.39 0.01,-0.6 0,-0.21 0,-0.43 0.01,-0.65 0,-0.23 0,-0.47 0.01,-0.71 0,-0.26 0.01,-0.52 0.01,-0.78 0,-0.28 0.01,-0.57 0.01,-0.84 0,-0.31 0.01,-0.62 0.02,-0.93 0,-0.34 0.01,-0.67 0.01,-1 0,-0.35 0.01,-0.7 0.02,-1.04 0,-0.36 0,-0.71 0.01,-1.06 0,-0.35 0.02,-0.7 0.03,-1.06 0.01,-0.36 0.02,-0.72 0.03,-1.08 0.01,-0.37 0.01,-0.73 0.02,-1.1 0.01,-0.37 0.02,-0.74 0.03,-1.12 0.01,-0.38 0.02,-0.77 0.03,-1.15 0.01,-0.39 0.02,-0.78 0.03,-1.18 0.01,-0.4 0.02,-0.81 0.03,-1.22 0.01,-0.42 0.02,-0.84 0.03,-1.27 0.01,-0.43 0.01,-0.86 0.03,-1.29 0.01,-0.45 0.01,-0.9 0.03,-1.34 0.01,-0.46 0.01,-0.93 0.02,-1.39 0,-0.45 0.02,-0.91 0.02,-1.37 0,-0.43 0.01,-0.87 0.02,-1.3 0,-0.43 0.01,-0.86 0.01,-1.29 0,-0.42 0.01,-0.84 0.01,-1.26 0,-0.41 0,-0.82 0,-1.23 0,-0.39 0,-0.79 -0.01,-1.18 0,-0.4 -0.01,-0.79 -0.01,-1.18 0,-0.38 -0.01,-0.76 -0.02,-1.15 0,-0.37 -0.01,-0.74 -0.01,-1.11 0,-0.37 -0.01,-0.74 -0.02,-1.12 0,-0.36 -0.01,-0.72 -0.01,-1.08 0,-0.36 -0.01,-0.72 -0.02,-1.07 0,-0.36 0,-0.71 -0.01,-1.07 0,-0.35 -0.01,-0.7 -0.02,-1.05 0,-0.33 -0.01,-0.67 -0.01,-1 0,-0.32 0,-0.64 0,-0.95 0,-0.32 0,-0.63 0,-0.95 0,-0.31 0,-0.62 0,-0.93 0,-0.31 0,-0.62 0,-0.92 0,-0.3 0,-0.6 0.01,-0.9 0,-0.31 0,-0.61 0.01,-0.92 0,-0.3 0,-0.6 0,-0.9 0,-0.28 0,-0.57 0.01,-0.85 0,-0.28 0.01,-0.57 0.02,-0.85 0,-0.27 0.01,-0.55 0.02,-0.82 0,-0.26 0.01,-0.53 0.02,-0.79 0,-0.24 0.01,-0.49 0.01,-0.73 0,-0.23 0.02,-0.46 0.03,-0.68 0.01,-0.22 0.02,-0.44 0.03,-0.65 0,-0.2 0.01,-0.4 0.01,-0.59 0,-0.17 0,-0.33 0,-0.5 0,-0.12 0,-0.25 0,-0.38 0,-0.12 0,-0.23 0,-0.35 0,-0.14 -0.01,-0.27 -0.04,-0.4 -0.03,-0.15 -0.06,-0.3 -0.112,-0.43 -0.1,-0.25 -0.237,-0.48 -0.439,-0.66 -0.279,-0.23 -0.595,-0.39 -0.961,-0.41 -0.07,0 -0.137,0 -0.205,0 -0.03,0 -0.05,0 -0.08,0 -0.03,0 -0.06,0 -0.09,0 -0.03,0 -0.06,0 -0.09,0 -0.03,0 -0.07,0 -0.105,0 -0.04,0 -0.08,0 -0.116,0 -0.05,0 -0.09,0 -0.133,0 -0.04,0 -0.09,0 -0.13,0 -0.05,0 -0.1,0 -0.145,0 -0.05,0 -0.106,0 -0.159,0 -0.06,0 -0.116,0 -0.175,0 -0.06,0 -0.129,0 -0.193,0 -0.07,0 -0.142,0 -0.213,0 -0.08,0 -0.152,0 -0.228,0 -0.07,0 -0.137,0 -0.205,0 -0.09,0 -0.172,0 -0.258,0 -0.09,0 -0.186,0 -0.28,0 -0.102,0 -0.205,0 -0.308,0 -0.113,0 -0.227,0 -0.34,0 -0.125,0 -0.25,0 -0.375,0 -0.137,0 -0.275,0 -0.413,0 -0.15,0 -0.301,0 -0.451,0 -0.155,0 -0.31,0 -0.465,0 -0.155,0 -0.311,0 -0.467,0 -0.168,0 -0.336,0 -0.504,0 -0.186,0 -0.372,0 -0.558,0 -0.177,0 -0.353,0 -0.53,0 -0.159,0 -0.318,0 -0.478,0 -0.148,0 -0.297,0 -0.446,0.1 -0.145,0 -0.29,0 -0.435,0 -0.131,0 -0.263,0 -0.395,0 -0.131,0 -0.263,0 -0.394,0 0,0 0.325,2.96 0.325,2.96 z" />
    <text
       id="text3345-3"
       y="1796.95"
       x="-293.707"
       style="color:#000000;font-style:normal;font-variant:normal;font-weight:900;font-stretch:normal;font-size:6px;line-height:0%;font-family:'Comic Sans MS';-inkscape-font-specification:'Comic Sans MS';text-indent:0;text-align:start;text-decoration:none;text-decoration-line:none;letter-spacing:normal;word-spacing:normal;text-transform:none;writing-mode:lr-tb;direction:ltr;text-anchor:start;display:inline;overflow:visible;visibility:visible;fill:#fd3301;fill-opacity:1;fill-rule:nonzero;stroke:none;stroke-width:0.55;marker:none;enable-background:accumulate"
       xml:space="preserve"><tspan
         y="1796.95"
         x="-293.707"
         id="tspan3347-92"
         sodipodi:role="line"
         style="font-size:21.415257px;line-height:1;stroke-width:0.55">1</tspan></text>
    <text
       id="text3345-1-4"
       y="1766.85"
       x="-294.201"
       style="color:#000000;font-style:normal;font-variant:normal;font-weight:900;font-stretch:normal;font-size:6px;line-height:0%;font-family:'Comic Sans MS';-inkscape-font-specification:'Comic Sans MS';text-indent:0;text-align:start;text-decoration:none;text-decoration-line:none;letter-spacing:normal;word-spacing:normal;text-transform:none;writing-mode:lr-tb;direction:ltr;text-anchor:start;display:inline;overflow:visible;visibility:visible;fill:#fd3301;fill-opacity:1;fill-rule:nonzero;stroke:none;stroke-width:0.55;marker:none;enable-background:accumulate"
       xml:space="preserve"><tspan
         y="1766.85"
         x="-294.201"
         id="tspan3347-7-6"
         sodipodi:role="line"
         style="font-size:21.415257px;line-height:1;stroke-width:0.55">6</tspan></text>
    <text
       id="text3345-0-1"
       y="1766.85"
       x="-259.169"
       style="color:#000000;font-style:normal;font-variant:normal;font-weight:900;font-stretch:normal;font-size:6px;line-height:0%;font-family:'Comic Sans MS';-inkscape-font-specification:'Comic Sans MS';text-indent:0;text-align:start;text-decoration:none;text-decoration-line:none;letter-spacing:normal;word-spacing:normal;text-transform:none;writing-mode:lr-tb;direction:ltr;text-anchor:start;display:inline;overflow:visible;visibility:visible;fill:#fd3301;fill-opacity:1;fill-rule:nonzero;stroke:none;stroke-width:0.55;marker:none;enable-background:accumulate"
       xml:space="preserve"><tspan
         y="1766.85"
         x="-259.169"
         id="tspan3347-9-8"
         sodipodi:role="line"
         style="font-size:21.415257px;line-height:1;stroke-width:0.55">4</tspan></text>
    <text
       id="text3345-4-2"
       y="1796.95"
       x="-218.066"
       style="color:#000000;font-style:normal;font-variant:normal;font-weight:900;font-stretch:normal;font-size:6px;line-height:0%;font-family:'Comic Sans MS';-inkscape-font-specification:'Comic Sans MS';text-indent:0;text-align:start;text-decoration:none;text-decoration-line:none;letter-spacing:normal;word-spacing:normal;text-transform:none;writing-mode:lr-tb;direction:ltr;text-anchor:start;display:inline;overflow:visible;visibility:visible;fill:#fd3301;fill-opacity:1;fill-rule:nonzero;stroke:none;stroke-width:0.55;marker:none;enable-background:accumulate"
       xml:space="preserve"><tspan
         y="1796.95"
         x="-218.066"
         id="tspan3347-8-11"
         sodipodi:role="line"
         style="font-size:21.415257px;line-height:1;stroke-width:0.55">8</tspan></text>
    <text
       id="text3345-1-8-9"
       y="1766.85"
       x="-226.432"
       style="color:#000000;font-style:normal;font-variant:normal;font-weight:900;font-stretch:normal;font-size:6px;line-height:0%;font-family:'Comic Sans MS';-inkscape-font-specification:'Comic Sans MS';text-indent:0;text-align:start;text-decoration:none;text-decoration-line:none;letter-spacing:normal;word-spacing:normal;text-transform:none;writing-mode:lr-tb;direction:ltr;text-anchor:start;display:inline;overflow:visible;visibility:visible;fill:#fd3301;fill-opacity:1;fill-rule:nonzero;stroke:none;stroke-width:0.55;marker:none;enable-background:accumulate"
       xml:space="preserve"><tspan
         y="1766.85"
         x="-226.432"
         id="tspan3347-7-2-7"
         sodipodi:role="line"
         style="font-size:21.415257px;line-height:1;stroke-width:0.55">24</tspan></text>
    <path
       inkscape:connector-curvature="0"
       style="color:#000000;display:inline;overflow:visible;visibility:visible;fill:#0169c9;fill-opacity:1;fill-rule:nonzero;stroke:#636466;stroke-width:0.13693;stroke-linecap:butt;stroke-linejoin:round;stroke-miterlimit:4;stroke-dasharray:none;stroke-dashoffset:0;stroke-opacity:1;marker:none;enable-background:accumulate"
       id="path5577"
       d="m -106.711,1746.68 c -0.08,0 -0.167,0 -0.251,0 -0.08,0 -0.163,0 -0.245,0 -0.09,0 -0.174,0 -0.261,0 -0.121,0 -0.241,0 -0.362,0 -0.155,0 -0.311,0 -0.466,0 -0.144,0 -0.288,0 -0.433,0 -0.116,0 -0.232,0 -0.349,0 -0.126,0 -0.252,0 -0.378,0 -0.122,0 -0.244,0 -0.367,0 -0.119,0 -0.238,0 -0.357,0 -0.112,0 -0.225,0 -0.338,0 -0.104,0 -0.208,0 -0.312,0 -0.09,0 -0.188,0 -0.283,0 -0.09,0 -0.182,0 -0.274,0 -0.09,0 -0.178,0 -0.267,0 -0.08,0 -0.168,0 -0.251,0 -0.07,0 -0.144,0 -0.216,0 -0.08,0 -0.167,0 -0.25,0 -0.08,0 -0.17,0 -0.254,0 -0.08,0 -0.164,0 -0.246,0 -0.07,0 -0.15,0 -0.225,0 -0.07,0 -0.138,0 -0.207,0 -0.06,0 -0.127,0 -0.191,0 -0.06,0 -0.117,0 -0.175,0 -0.05,0 -0.108,0 -0.162,0 -0.05,0 -0.1,0 -0.149,0 -0.05,0 -0.09,0 -0.137,0 -0.04,0 -0.08,0 -0.126,0 -0.04,0 -0.08,0 -0.116,0 -0.03,0 -0.07,0 -0.107,0 -0.05,0 -0.108,0 -0.162,0 -0.214,0 -0.421,0 -0.621,0.1 -0.274,0.1 -0.493,0.27 -0.679,0.46 -0.133,0.16 -0.223,0.33 -0.294,0.51 -0.04,0.11 -0.07,0.22 -0.09,0.33 -0.02,0.1 -0.04,0.19 -0.05,0.29 -0.02,0.1 -0.03,0.21 -0.04,0.32 0,0.1 -0.01,0.18 -0.02,0.27 0,0.1 -0.01,0.2 -0.02,0.29 0,0.1 0,0.21 -0.01,0.3 0,0.12 0,0.23 0,0.34 0,0.11 0,0.23 0,0.35 0,0.12 0,0.25 0,0.37 0,0.13 0,0.28 0.01,0.41 0,0.15 0.01,0.3 0.02,0.44 0,0.15 0.02,0.3 0.03,0.45 0,0.16 0.02,0.32 0.03,0.48 0,0.16 0.02,0.33 0.03,0.5 0,0.17 0.02,0.34 0.03,0.52 0.01,0.17 0.02,0.34 0.03,0.51 0.01,0.17 0.02,0.35 0.03,0.52 0.01,0.18 0.02,0.36 0.03,0.55 0,0.19 0.02,0.38 0.03,0.57 0.01,0.21 0.02,0.41 0.03,0.62 0.01,0.21 0.02,0.43 0.03,0.65 0,0.23 0.02,0.46 0.02,0.68 0,0.25 0.02,0.5 0.02,0.74 0,0.26 0.01,0.53 0.02,0.8 0,0.27 0,0.56 0,0.85 0,0.3 0,0.59 0,0.9 0,0.31 0,0.62 0,0.93 0,0.3 0,0.62 0,0.93 0,0.32 0,0.62 0,0.94 0,0.31 0,0.63 0,0.94 0,0.32 0,0.63 0,0.94 0,0.32 0,0.64 0,0.95 0,0.32 0,0.64 0,0.95 0,0.32 0,0.64 -0.01,0.96 0,0.33 -0.01,0.65 -0.02,0.98 0,0.33 -0.02,0.66 -0.03,0.99 -0.01,0.33 -0.02,0.67 -0.03,1 -0.01,0.33 -0.03,0.67 -0.04,1 -0.02,0.34 -0.03,0.67 -0.05,1.01 -0.02,0.34 -0.03,0.67 -0.05,1.01 -0.02,0.32 -0.03,0.64 -0.04,0.97 -0.02,0.31 -0.03,0.63 -0.05,0.94 -0.01,0.31 -0.03,0.62 -0.04,0.92 -0.01,0.31 -0.03,0.61 -0.04,0.92 -0.02,0.3 -0.03,0.61 -0.04,0.91 -0.02,0.3 -0.03,0.61 -0.04,0.91 -0.01,0.31 -0.03,0.61 -0.04,0.91 -0.01,0.3 -0.03,0.6 -0.04,0.9 -0.01,0.3 -0.03,0.6 -0.04,0.9 -0.01,0.3 -0.03,0.6 -0.04,0.9 -0.01,0.31 -0.02,0.61 -0.04,0.91 -0.01,0.29 -0.02,0.59 -0.03,0.89 -0.01,0.3 -0.02,0.59 -0.03,0.89 -0.01,0.28 -0.02,0.58 -0.03,0.87 -0.01,0.29 -0.02,0.58 -0.03,0.86 0,0.3 -0.01,0.58 -0.02,0.87 0,0.3 0,0.59 -0.01,0.89 0,0.29 0,0.59 0,0.88 0,0.29 0,0.59 0,0.89 0,0.29 0,0.59 0,0.88 0,0.31 0,0.61 0,0.9 0,0.31 0,0.62 0,0.93 0,0.31 0,0.61 0.01,0.92 0,0.31 0,0.63 0.01,0.94 0,0.32 0,0.64 0.01,0.96 0,0.32 0,0.64 0.01,0.96 0,0.3 0,0.62 0.01,0.93 0,0.31 0,0.61 0,0.91 0,0.31 0,0.61 0.01,0.92 0,0.3 0,0.6 0.01,0.9 0,0.31 0,0.62 0,0.92 0,0.3 0,0.61 0,0.92 0,0.31 0,0.62 0,0.93 0,0.32 0,0.63 0,0.94 0,0.31 0,0.62 0.01,0.93 0,0.3 0,0.6 0,0.91 0,0.3 0,0.6 0,0.9 0,0.3 0,0.6 0,0.9 0,0.3 0,0.6 0,0.89 0,0.3 0,0.6 0,0.89 0,0.29 0,0.59 0,0.88 0,0.29 0,0.57 0,0.86 0,0.29 0,0.58 0,0.87 0,0.29 0,0.58 0,0.87 0,0.29 0,0.58 0,0.88 0,0.29 0,0.58 0,0.87 0,0.29 0,0.58 0,0.87 0,0.29 0,0.58 0,0.87 0,0.28 0,0.57 0,0.86 0,0.29 0,0.58 0,0.86 0,0.29 0,0.57 0,0.85 0,0.27 0,0.54 0,0.82 0,0.25 0,0.51 0,0.76 0,0.25 0,0.49 0,0.73 0,0.23 0,0.46 0,0.69 0,0.21 0,0.43 0,0.64 0,0.21 0,0.41 0,0.62 0,0.2 0,0.4 0,0.6 0,0.19 0,0.39 0,0.59 0,0.19 0,0.38 0,0.57 0,0.19 0,0.37 0,0.55 0,0.19 0,0.37 0,0.56 0,0.17 0,0.35 0,0.52 0,0.17 0,0.34 0,0.51 0,0.16 0,0.32 0.01,0.48 0,0.17 0.01,0.34 0.02,0.51 0,0.15 0.02,0.3 0.02,0.46 0,0.14 0.02,0.28 0.02,0.42 0,0.13 0.01,0.26 0.02,0.39 0,0.13 0.02,0.27 0.02,0.4 0,0.13 0.02,0.25 0.02,0.38 0,0.12 0.02,0.24 0.02,0.37 0,0.11 0.01,0.23 0.02,0.35 0,0.11 0.01,0.23 0.02,0.34 0,0.11 0.01,0.22 0.02,0.32 0,0.11 0.01,0.21 0.02,0.32 0,0.1 0,0.19 0.01,0.29 0,0.1 0,0.18 0.01,0.27 0,0.1 0,0.17 0.01,0.25 0,0.1 0,0.15 0.01,0.23 0,0.1 0,0.14 0.01,0.21 0,0.1 0,0.13 0,0.2 0,0.1 0,0.12 0,0.18 0,0.1 0,0.11 0,0.16 0,0 0,0.1 0,0.15 0,0 0,0.1 0,0.14 0,0 0,0.1 0,0.13 0,0 0,0.1 0,0.12 0,0 0,0.1 0,0.11 0,0 0,0.1 0,0.1 0,0.1 0,0.11 0.01,0.17 0.01,0.1 0.04,0.2 0.07,0.31 0.05,0.16 0.136,0.31 0.237,0.45 0.08,0.1 0.171,0.19 0.271,0.27 0.117,0.1 0.254,0.18 0.394,0.24 0.112,0.1 0.231,0.1 0.351,0.13 0.07,0 0.141,0 0.212,0 0.08,0 0.163,0 0.246,0.1 0.06,0 0.123,0 0.185,0 0.07,0 0.142,0 0.213,0 0.08,0 0.153,0 0.23,0 0.07,0 0.131,0 0.197,0 0.08,0 0.155,0 0.233,0 0.08,0 0.165,0 0.247,0 0.08,0 0.168,0 0.252,0 0.08,0 0.158,0 0.237,0 0.07,0 0.145,0 0.217,0 0.06,0 0.115,0 0.172,0 0.08,0 0.151,0 0.227,0 0.08,0 0.158,0 0.237,0 0.08,0 0.154,0 0.231,0 0.07,0 0.141,0 0.212,0 0.07,0 0.137,0 0.205,0 0.07,0 0.134,0 0.201,0 0.06,0 0.13,0 0.195,0 0.07,0 0.138,0 0.207,0 0.08,0 0.166,0 0.249,0 0.08,0 0.165,0 0.247,0 0.08,0 0.152,0 0.228,0 0.09,0 0.185,0 0.277,0 0.09,0 0.191,0 0.286,0 0.08,0 0.164,0 0.246,0 0.08,0 0.153,0 0.229,0 0.08,0 0.154,0 0.23,0 0.08,0 0.16,0 0.24,0 0.08,0 0.153,0 0.229,0 0.07,0 0.142,0 0.213,0 0.07,0 0.138,0 0.207,0 0.07,0 0.141,0 0.212,0 0.07,0 0.136,0 0.205,0 0.06,0 0.114,0 0.172,0 0.06,0 0.116,0 0.174,0 0.05,0 0.105,0 0.157,0 0.06,0 0.125,0 0.188,0 0.06,0 0.116,0 0.175,0 0.05,0 0.107,0 0.16,0 0.05,0 0.1,0 0.148,0 0.05,0 0.09,0 0.137,0 0.07,0 0.07,0 0,0 0,0 0.41,-2.56 0.41,-2.56 v 0 c -0.08,0 -0.17,0 -0.255,0 -0.04,0 -0.09,0 -0.137,0 -0.05,0 -0.1,0 -0.148,0 -0.05,0 -0.107,0 -0.16,0 -0.06,0 -0.117,0 -0.175,0 -0.06,0 -0.127,0 -0.191,0 -0.08,0 -0.163,0 -0.244,0 -0.07,0 -0.148,0 -0.222,0 -0.07,0 -0.148,0 -0.222,0 -0.07,0 -0.139,0 -0.208,0 -0.07,0 -0.145,0 -0.218,0 -0.07,0 -0.144,0 -0.216,0 -0.07,0 -0.143,0 -0.215,0 -0.08,0 -0.153,0 -0.23,0 -0.08,0 -0.164,0 -0.246,0 -0.08,0 -0.163,0 -0.244,0 -0.08,0 -0.157,0 -0.235,0 -0.08,0 -0.163,0 -0.245,0 -0.07,0 -0.145,0 -0.217,0 -0.07,0 -0.136,0 -0.204,0 -0.07,0 -0.15,0 -0.224,0 -0.07,0 -0.135,0 -0.202,0 -0.06,0 -0.123,0 -0.185,0 -0.06,0 -0.122,0 -0.184,0 -0.06,0 -0.123,0 -0.185,0 -0.06,0 -0.127,0 -0.191,0 -0.06,0 -0.13,0 -0.195,0 -0.07,0 -0.141,0 -0.212,0 -0.07,0 -0.145,0 -0.218,0 -0.07,0 -0.141,0 -0.211,0 -0.07,0 -0.136,0 -0.205,0 -0.08,0 -0.166,0 -0.25,0 -0.07,0 -0.145,0 -0.217,0 -0.08,0 -0.156,0 -0.234,0 -0.08,0 -0.155,0 -0.233,0 -0.07,0 -0.146,0 -0.219,0 -0.07,0 -0.146,0 -0.219,0 -0.08,0 -0.168,0 -0.252,0 -0.06,0 -0.126,0 -0.189,0 -0.05,0 -0.1,0 -0.145,0 -0.04,0 -0.08,0 -0.126,0 -0.06,0 0.01,0 -0.04,0 -0.01,0 -0.05,0 -0.04,0 0.05,0 0.1,0.1 0.145,0.1 0.09,0 0.168,0.1 0.238,0.15 0.06,0 0.112,0.11 0.157,0.17 0.07,0.1 0.132,0.2 0.165,0.32 0.01,0 0.03,0.1 0.03,0.15 -0.01,0 0,0 0,0 0,0 -0.01,-0.1 -0.01,-0.11 0,0 0,-0.1 0,-0.1 0,0 0,-0.1 -0.01,-0.12 0,0 -0.01,-0.1 -0.01,-0.13 0,0 -0.01,-0.1 -0.01,-0.14 0,0 0,-0.1 -0.01,-0.15 0,-0.1 0,-0.11 -0.01,-0.17 0,-0.1 -0.01,-0.12 -0.01,-0.18 -0.01,-0.1 -0.01,-0.13 -0.01,-0.19 -0.01,-0.1 -0.01,-0.14 -0.01,-0.22 0,-0.1 -0.01,-0.15 -0.01,-0.23 -0.01,-0.1 -0.01,-0.16 -0.01,-0.24 0,-0.1 -0.01,-0.19 -0.01,-0.28 -0.01,-0.1 -0.01,-0.19 -0.01,-0.29 0,-0.11 -0.01,-0.21 -0.01,-0.32 -0.01,-0.11 -0.01,-0.22 -0.02,-0.33 -0.01,-0.11 -0.01,-0.23 -0.02,-0.35 -0.01,-0.12 -0.01,-0.23 -0.02,-0.35 -0.01,-0.13 -0.01,-0.25 -0.02,-0.38 -0.01,-0.13 -0.02,-0.26 -0.02,-0.39 -0.01,-0.12 -0.02,-0.24 -0.02,-0.37 -0.01,-0.13 -0.01,-0.26 -0.02,-0.4 -0.01,-0.14 -0.01,-0.28 -0.02,-0.42 -0.01,-0.15 -0.02,-0.3 -0.03,-0.45 -0.01,-0.15 -0.01,-0.3 -0.02,-0.45 0,-0.15 -0.01,-0.3 -0.01,-0.45 0,-0.16 0,-0.32 0,-0.48 0,-0.18 0,-0.36 -0.01,-0.53 0,-0.18 0,-0.35 0,-0.53 0,-0.18 0,-0.37 0.01,-0.55 0,-0.19 0,-0.38 0,-0.57 0,-0.2 0,-0.4 0,-0.6 0,-0.2 0,-0.4 0.01,-0.6 0,-0.2 0,-0.41 0,-0.61 0,-0.22 0,-0.43 0,-0.65 0,-0.23 0,-0.46 0,-0.68 0,-0.25 0,-0.49 0.01,-0.73 0,-0.26 0,-0.51 0,-0.77 0,-0.27 0,-0.54 0,-0.82 0,-0.28 0,-0.56 0.01,-0.85 0,-0.28 0,-0.57 0,-0.86 0,-0.29 0,-0.58 0,-0.87 0,-0.29 0,-0.57 0,-0.86 0,-0.3 0,-0.59 0,-0.88 0,-0.29 0,-0.58 0,-0.87 0,-0.3 0,-0.59 0,-0.88 0,-0.29 0,-0.58 0,-0.87 0,-0.3 0,-0.59 -0.01,-0.88 0,-0.29 0,-0.58 0,-0.86 0,-0.3 0,-0.59 -0.01,-0.88 0,-0.3 0,-0.6 -0.01,-0.89 0,-0.3 0,-0.6 -0.01,-0.89 0,-0.3 0,-0.6 0,-0.9 0,-0.31 0,-0.61 -0.01,-0.91 0,-0.3 0,-0.61 -0.01,-0.91 0,-0.31 -0.01,-0.62 -0.01,-0.93 0,-0.31 -0.01,-0.62 -0.01,-0.93 0,-0.31 -0.01,-0.62 -0.01,-0.93 0,-0.31 0,-0.62 -0.01,-0.93 -0.01,-0.31 -0.01,-0.61 -0.01,-0.92 -0.01,-0.3 -0.01,-0.61 -0.01,-0.91 0,-0.3 -0.01,-0.61 -0.01,-0.91 0,-0.3 -0.01,-0.61 -0.01,-0.92 0,-0.31 -0.01,-0.62 -0.01,-0.93 0,-0.32 -0.01,-0.64 -0.01,-0.96 0,-0.32 -0.01,-0.64 -0.01,-0.96 0,-0.31 -0.01,-0.62 -0.01,-0.94 0,-0.31 -0.01,-0.62 -0.01,-0.93 0,-0.3 -0.01,-0.59 -0.01,-0.89 0,-0.3 0,-0.59 0,-0.89 0,-0.29 0.01,-0.59 0.01,-0.88 0,-0.29 0,-0.59 0,-0.89 0,-0.29 0,-0.58 0.01,-0.87 0,-0.29 0.01,-0.58 0.01,-0.87 0,-0.28 0.01,-0.56 0.02,-0.85 0.01,-0.28 0.02,-0.56 0.03,-0.85 0.01,-0.28 0.02,-0.57 0.03,-0.86 0.01,-0.3 0.02,-0.59 0.03,-0.88 0.01,-0.3 0.02,-0.6 0.03,-0.89 0.01,-0.3 0.02,-0.6 0.04,-0.9 0.01,-0.3 0.03,-0.6 0.04,-0.9 0.01,-0.3 0.03,-0.6 0.04,-0.9 0.01,-0.3 0.03,-0.6 0.04,-0.9 0.01,-0.3 0.03,-0.6 0.04,-0.9 0.01,-0.31 0.03,-0.6 0.04,-0.91 0.01,-0.31 0.03,-0.61 0.04,-0.92 0.01,-0.3 0.03,-0.6 0.04,-0.91 0.01,-0.31 0.03,-0.61 0.04,-0.92 0.01,-0.31 0.03,-0.63 0.04,-0.94 0.02,-0.33 0.03,-0.65 0.04,-0.98 0.01,-0.33 0.03,-0.66 0.05,-1 0.02,-0.34 0.03,-0.68 0.05,-1.01 0.01,-0.34 0.03,-0.69 0.04,-1.02 0.01,-0.34 0.02,-0.69 0.03,-1.02 0.01,-0.34 0.02,-0.67 0.03,-1 0.01,-0.34 0.02,-0.67 0.02,-1 0.01,-0.32 0.01,-0.65 0.01,-0.97 0,-0.33 0.01,-0.65 0.01,-0.98 0,-0.31 0,-0.62 0,-0.95 0,-0.31 0,-0.63 0,-0.94 0,-0.32 0,-0.63 0,-0.95 0,-0.31 0,-0.62 0,-0.93 0,-0.32 0,-0.63 -0.01,-0.94 0,-0.32 0,-0.63 0,-0.94 0,-0.3 0,-0.6 -0.01,-0.91 0,-0.28 0,-0.57 -0.01,-0.86 0,-0.28 -0.01,-0.55 -0.02,-0.82 -0.01,-0.25 -0.01,-0.5 -0.02,-0.75 -0.01,-0.24 -0.02,-0.47 -0.03,-0.71 -0.01,-0.22 -0.02,-0.44 -0.03,-0.67 -0.01,-0.21 -0.02,-0.42 -0.03,-0.63 -0.01,-0.19 -0.02,-0.38 -0.03,-0.58 -0.01,-0.17 -0.02,-0.36 -0.03,-0.54 -0.01,-0.17 -0.02,-0.36 -0.03,-0.53 -0.01,-0.18 -0.02,-0.35 -0.03,-0.53 -0.01,-0.17 -0.02,-0.34 -0.03,-0.51 -0.01,-0.16 -0.02,-0.33 -0.03,-0.49 -0.01,-0.15 -0.02,-0.31 -0.03,-0.47 -0.01,-0.14 -0.02,-0.29 -0.02,-0.44 -0.01,-0.13 -0.01,-0.27 -0.02,-0.41 0,-0.13 -0.01,-0.25 -0.01,-0.39 0,-0.11 -0.01,-0.24 -0.01,-0.36 0,-0.1 -0.01,-0.2 -0.01,-0.31 0,-0.1 0,-0.18 0,-0.27 0,-0.1 0,-0.17 0.01,-0.25 0,-0.1 0.01,-0.16 0.01,-0.23 0,-0.1 0.01,-0.17 0.02,-0.25 0.01,0 0.01,-0.1 0.02,-0.14 0.01,0 0.01,-0.1 0.02,-0.13 0.01,0 0.02,-0.1 0,0 -0.04,0.1 -0.09,0.18 -0.165,0.26 -0.142,0.15 -0.31,0.27 -0.515,0.34 -0.142,0 -0.288,0.1 -0.439,0.1 -0.11,0 0.01,0 0.03,0 0.03,0 0.07,0 0.107,0 0.04,0 0.08,0 0.116,0 0.04,0 0.08,0 0.126,0 0.05,0 0.09,0 0.137,0 0.05,0 0.1,0 0.149,0 0.05,0 0.108,0 0.162,0 0.06,0 0.117,0 0.175,0 0.06,0 0.127,0 0.191,0 0.07,0 0.138,0 0.207,0 0.07,0 0.15,0 0.225,0 0.08,0 0.161,0 0.241,0 0.08,0 0.163,0 0.244,0 0.08,0 0.164,0 0.245,0 0.09,0 0.183,0 0.274,0 0.08,0 0.166,0 0.248,0 0.09,0 0.179,0 0.268,0 0.102,0 0.203,0 0.304,0 0.105,0 0.209,0 0.313,0 0.104,0 0.208,0 0.312,0 0.112,0 0.225,0 0.337,0 0.119,0 0.237,0 0.356,0 0.121,0 0.243,0 0.364,0 0.132,0 0.263,0 0.394,0 0.153,0 0.305,0 0.457,0 0.125,0 0.25,0 0.374,0 0.109,0 0.218,0 0.326,0 0.123,0 0.247,0 0.37,0 0.125,0 0.25,0 0.374,0 0.1,0 0.193,0 0.289,0 0.09,0 0.179,0 0.268,0 0,0 -0.03,-2.59 -0.03,-2.59 z" />
    <path
       inkscape:connector-curvature="0"
       d="m -41.4177,1745.8 c 0.084,0 0.1675,0 0.251,0 0.082,0 0.1635,0 0.245,0 0.087,0 0.174,0 0.261,0 0.121,0 0.2415,0 0.3625,0 0.155,0 0.3105,0 0.466,0 0.144,0 0.2885,0 0.4325,0 0.1165,0 0.233,0 0.3495,0 0.126,0 0.252,0 0.3785,0 0.122,0 0.244,0 0.366,0 0.1195,0 0.2385,0 0.3575,0 0.1125,0 0.225,0 0.338,0 0.104,0 0.208,0 0.312,0 0.094,0 0.1885,0 0.283,0 0.091,0 0.183,0 0.2745,0 0.089,0 0.178,0 0.2675,0 0.084,0 0.167,0 0.251,0 0.072,0 0.144,0 0.216,0 0.083,0 0.1665,0 0.2495,0 0.085,0 0.17,0 0.255,0 0.082,0 0.1635,0 0.2455,0 0.075,0 0.15,0 0.225,0 0.069,0 0.138,0 0.2075,0 0.064,0 0.127,0 0.1905,0 0.059,0 0.1175,0 0.176,0 0.054,0 0.1075,0 0.1615,0 0.05,0 0.099,0 0.149,0 0.045,0 0.091,0 0.137,0 0.04,0 0.085,0 0.1265,0 0.04,0 0.078,0 0.116,0 0.035,0 0.072,0 0.107,0 0.054,0 0.108,0 0.162,0 0.2145,0 0.4205,0 0.6205,0.1 0.272,0.11 0.4895,0.27 0.674,0.48 0.131,0.15 0.2195,0.32 0.2885,0.51 0.04,0.1 0.067,0.22 0.091,0.33 0.02,0.1 0.035,0.19 0.05,0.28 0.015,0.11 0.025,0.22 0.03,0.33 0.01,0.1 0.01,0.18 0.015,0.27 0.01,0.1 0.01,0.19 0.01,0.29 0,0.1 0,0.2 0,0.3 0,0.11 0,0.22 0,0.33 0,0.12 0,0.24 -0.01,0.36 0,0.12 -0.01,0.24 -0.015,0.37 -0.01,0.14 -0.01,0.27 -0.015,0.41 0,0.15 -0.015,0.29 -0.025,0.44 -0.01,0.15 -0.02,0.29 -0.03,0.45 -0.01,0.16 -0.02,0.32 -0.03,0.48 -0.01,0.16 -0.025,0.33 -0.035,0.49 -0.01,0.17 -0.025,0.35 -0.04,0.52 -0.015,0.17 -0.025,0.34 -0.04,0.52 -0.01,0.17 -0.025,0.34 -0.035,0.51 -0.01,0.18 -0.025,0.37 -0.035,0.55 -0.01,0.19 -0.025,0.38 -0.04,0.57 -0.015,0.21 -0.025,0.42 -0.035,0.62 -0.01,0.22 -0.025,0.44 -0.035,0.65 -0.01,0.23 -0.02,0.46 -0.03,0.68 -0.01,0.25 -0.02,0.5 -0.03,0.75 -0.01,0.26 -0.02,0.52 -0.025,0.78 0,0.29 -0.01,0.58 -0.02,0.85 -0.01,0.31 -0.01,0.61 -0.015,0.9 0,0.31 -0.01,0.62 -0.015,0.93 0,0.32 -0.01,0.63 -0.01,0.94 0,0.31 -0.01,0.63 -0.01,0.94 0,0.31 0,0.62 -0.01,0.94 0,0.31 0,0.63 -0.01,0.95 0,0.31 0,0.63 -0.01,0.94 0,0.32 0,0.63 0,0.96 0,0.32 0,0.63 0,0.96 0,0.32 0.01,0.65 0.01,0.97 0,0.33 0.01,0.66 0.015,0.99 0,0.34 0.015,0.67 0.02,1 0.01,0.34 0.02,0.67 0.03,1 0.01,0.34 0.025,0.68 0.04,1.01 0.01,0.34 0.025,0.68 0.035,1.01 0.01,0.33 0.02,0.65 0.035,0.97 0.01,0.32 0.025,0.63 0.035,0.94 0.01,0.31 0.02,0.62 0.035,0.93 0.01,0.3 0.02,0.61 0.03,0.91 0.01,0.31 0.025,0.61 0.035,0.92 0.01,0.3 0.02,0.61 0.035,0.91 0.01,0.3 0.02,0.61 0.03,0.9 0.01,0.31 0.02,0.61 0.03,0.9 0.01,0.3 0.02,0.6 0.03,0.91 0.01,0.29 0.02,0.6 0.03,0.9 0.01,0.3 0.02,0.6 0.025,0.9 0.01,0.3 0.015,0.6 0.025,0.89 0.01,0.3 0.015,0.6 0.025,0.89 0.01,0.29 0.015,0.58 0.02,0.87 0.01,0.29 0.01,0.58 0.015,0.87 0,0.3 0,0.58 0.01,0.87 0,0.3 0,0.59 0,0.89 0,0.29 0,0.58 0,0.88 0,0.29 0,0.59 -0.01,0.89 0,0.29 0,0.58 0,0.88 0,0.3 0,0.6 -0.01,0.91 0,0.3 -0.01,0.61 -0.02,0.91 -0.01,0.31 -0.015,0.62 -0.02,0.93 0,0.31 -0.01,0.62 -0.02,0.94 -0.01,0.32 -0.015,0.64 -0.025,0.96 -0.01,0.31 -0.015,0.63 -0.02,0.95 -0.01,0.31 -0.015,0.62 -0.02,0.93 0,0.31 -0.01,0.61 -0.02,0.92 0,0.3 -0.015,0.61 -0.02,0.91 0,0.31 -0.015,0.61 -0.02,0.91 0,0.31 -0.01,0.61 -0.02,0.91 0,0.31 -0.01,0.62 -0.015,0.93 0,0.31 -0.01,0.62 -0.015,0.93 0,0.32 -0.01,0.63 -0.015,0.94 0,0.31 -0.015,0.62 -0.02,0.92 0,0.31 -0.01,0.61 -0.015,0.91 -0.01,0.31 -0.01,0.61 -0.015,0.91 -0.01,0.3 -0.01,0.59 -0.015,0.89 0,0.3 -0.01,0.6 -0.015,0.9 0,0.3 -0.01,0.59 -0.015,0.89 0,0.29 -0.01,0.58 -0.015,0.87 0,0.29 -0.01,0.58 -0.015,0.87 0,0.29 -0.01,0.58 -0.01,0.87 0,0.29 -0.01,0.58 -0.01,0.87 0,0.29 0,0.58 -0.01,0.87 0,0.29 0,0.58 -0.01,0.87 0,0.3 0,0.59 -0.01,0.88 0,0.29 -0.01,0.57 -0.01,0.86 0,0.29 0,0.58 0,0.87 0,0.28 0,0.57 0,0.86 0,0.28 0,0.57 -0.01,0.85 0,0.27 0,0.54 0,0.81 0,0.26 0,0.51 0,0.77 0,0.24 0,0.49 0,0.73 0,0.23 0,0.45 0,0.68 0,0.22 0,0.43 0,0.65 0,0.2 0,0.41 0,0.61 0,0.2 0,0.4 0,0.6 0,0.2 0,0.4 0,0.6 0,0.19 0,0.38 0,0.57 0,0.18 0,0.37 0,0.55 0,0.18 0,0.37 0,0.55 0,0.18 0,0.35 -0.01,0.53 0,0.17 0,0.34 -0.01,0.5 0,0.17 -0.01,0.33 -0.015,0.49 0,0.17 -0.015,0.34 -0.025,0.51 -0.01,0.15 -0.02,0.3 -0.03,0.45 -0.01,0.14 -0.02,0.28 -0.025,0.42 -0.01,0.13 -0.015,0.26 -0.025,0.39 -0.01,0.14 -0.02,0.27 -0.03,0.41 -0.01,0.12 -0.02,0.25 -0.025,0.37 -0.01,0.13 -0.015,0.25 -0.025,0.37 -0.01,0.12 -0.015,0.24 -0.025,0.35 0,0.12 -0.015,0.23 -0.02,0.34 0,0.11 -0.015,0.22 -0.02,0.33 0,0.1 -0.01,0.21 -0.02,0.31 0,0.1 -0.01,0.2 -0.015,0.29 0,0.1 -0.01,0.18 -0.015,0.27 0,0.1 -0.01,0.17 -0.015,0.25 0,0.1 -0.01,0.16 -0.015,0.23 0,0.1 -0.01,0.14 -0.01,0.22 0,0.1 -0.01,0.13 -0.01,0.19 0,0.1 0,0.12 -0.01,0.18 0,0 0,0.11 -0.01,0.16 0,0.1 0,0.11 -0.01,0.16 0,0.1 -0.01,0.1 -0.01,0.14 0,0 0,0.1 -0.01,0.13 0,0 0,0.1 -0.01,0.11 0,0 0,0.1 0,0.11 0,0.1 0,0.1 0,0.1 0,0.1 -0.01,0.11 -0.015,0.17 -0.01,0.1 -0.04,0.21 -0.07,0.31 -0.05,0.16 -0.14,0.31 -0.242,0.44 -0.078,0.11 -0.1735,0.2 -0.274,0.28 -0.1185,0.1 -0.2555,0.17 -0.396,0.24 -0.113,0 -0.232,0.1 -0.353,0.11 -0.07,0 -0.141,0 -0.2125,0 -0.081,0 -0.163,0 -0.2455,0 -0.061,0 -0.1235,0 -0.185,0 -0.071,0 -0.1425,0 -0.2135,0 -0.077,0 -0.1535,0 -0.2305,0 -0.066,0 -0.131,0 -0.197,0 -0.078,0 -0.1555,0 -0.2335,0 -0.082,0 -0.1645,0 -0.247,0 -0.084,0 -0.168,0 -0.2525,0 -0.079,0 -0.158,0 -0.237,0 -0.073,0 -0.145,0 -0.2175,0 -0.057,0 -0.114,0 -0.1715,0 -0.076,0 -0.1515,0 -0.2275,0 -0.079,0 -0.158,0 -0.237,0 -0.077,0 -0.154,0 -0.231,0 -0.07,0 -0.1415,0 -0.2125,0 -0.068,0 -0.1365,0 -0.2045,0 -0.067,0 -0.1345,0 -0.2015,0 -0.065,0 -0.13,0 -0.195,0 -0.069,0 -0.1385,0 -0.2075,0 -0.083,0 -0.1655,0 -0.2485,0 -0.082,0 -0.165,0 -0.2475,0 -0.076,0 -0.1525,0 -0.2285,0 -0.092,0 -0.1845,0 -0.2765,0 -0.096,0 -0.1905,0 -0.286,0 -0.082,0 -0.164,0 -0.246,0 -0.076,0 -0.1525,0 -0.229,0 -0.076,0 -0.1535,0 -0.23,0 -0.08,0 -0.1595,0 -0.2395,0 -0.076,0 -0.153,0 -0.2295,0 -0.071,0 -0.142,0 -0.213,0 -0.069,0 -0.138,0 -0.207,0 -0.07,0 -0.1405,0 -0.211,0 -0.069,0 -0.137,0 -0.2055,0 -0.057,0 -0.1145,0 -0.1715,0 -0.059,0 -0.1165,0 -0.175,0 -0.052,0 -0.1045,0 -0.1565,0 -0.063,0 -0.1255,0 -0.1885,0 -0.058,0 -0.1162,0 -0.1744,0 -0.054,0 -0.1072,0 -0.1608,0 -0.05,0 -0.099,0 -0.148,0 -0.045,0 -0.091,0 -0.1363,0 -0.068,0 -0.07,0 0,0 0,0 -0.3843,-2.55 -0.3843,-2.55 v 0 c 0.085,0 0.17,0 0.2555,0 0.046,0 0.091,0 0.1363,0 0.05,0 0.099,0 0.1481,0 0.054,0 0.1072,0 0.1608,0 0.058,0 0.1164,0 0.1746,0 0.064,0 0.1275,0 0.191,0 0.081,0 0.163,0 0.2445,0 0.074,0 0.148,0 0.2215,0 0.075,0 0.1485,0 0.223,0 0.069,0 0.1385,0 0.2075,0 0.072,0 0.145,0 0.218,0 0.072,0 0.1435,0 0.2155,0 0.072,0 0.143,0 0.2145,0 0.077,0 0.1535,0 0.2305,0 0.082,0 0.1645,0 0.2465,0 0.081,0 0.1625,0 0.244,0 0.078,0 0.156,0 0.2345,0 0.082,0 0.163,0 0.245,0 0.072,0 0.1445,0 0.2165,0 0.068,0 0.136,0 0.204,0 0.075,0 0.15,0 0.2245,0 0.067,0 0.1345,0 0.2015,0 0.062,0 0.1235,0 0.185,0 0.061,0 0.1225,0 0.184,0 0.062,0 0.1235,0 0.185,0 0.064,0 0.128,0 0.192,0 0.065,0 0.13,0 0.195,0 0.07,0 0.141,0 0.212,0 0.072,0 0.1455,0 0.218,0 0.07,0 0.141,0 0.211,0 0.069,0 0.137,0 0.205,0 0.084,0 0.167,0 0.2505,0 0.072,0 0.145,0 0.2175,0 0.078,0 0.156,0 0.234,0 0.078,0 0.1555,0 0.233,0 0.073,0 0.1465,0 0.2195,0 0.073,0 0.146,0 0.219,0 0.085,0 0.1685,0 0.253,0 0.062,0 0.1255,0 0.188,0 0.05,0 0.097,0 0.1455,0 0.04,0 0.085,0 0.1265,0 0.059,0 -0.01,0 0.04,0 0.01,0 0.053,0 0.04,0 -0.05,0 -0.1,0 -0.146,0 -0.085,0.1 -0.1685,0.1 -0.2395,0.15 -0.059,0 -0.113,0.1 -0.158,0.16 -0.071,0.1 -0.1345,0.2 -0.1685,0.32 -0.015,0 -0.03,0.1 -0.03,0.15 0,-0.1 0,0 0,0 0,-0.1 0,-0.1 0,-0.1 0,0 0,-0.1 0.01,-0.11 0,0 0,-0.1 0,-0.12 0,0 0,-0.1 0,-0.13 0,0 0,-0.1 0.01,-0.14 0,0 0,-0.1 0.01,-0.15 0,-0.1 0,-0.11 0.01,-0.17 0,-0.1 0,-0.12 0.01,-0.18 0,-0.1 0.01,-0.13 0.01,-0.19 0,-0.1 0.01,-0.14 0.01,-0.21 0,-0.1 0.01,-0.16 0.015,-0.23 0.01,-0.1 0.01,-0.17 0.015,-0.25 0,-0.1 0.01,-0.18 0.015,-0.27 0,-0.1 0.01,-0.2 0.015,-0.3 0,-0.1 0.01,-0.21 0.02,-0.31 0,-0.11 0.015,-0.22 0.02,-0.33 0,-0.12 0.015,-0.24 0.02,-0.35 0.01,-0.12 0.015,-0.24 0.025,-0.36 0.01,-0.13 0.015,-0.25 0.025,-0.38 0.01,-0.12 0.02,-0.25 0.03,-0.38 0.01,-0.13 0.02,-0.25 0.025,-0.37 0.01,-0.14 0.015,-0.27 0.025,-0.4 0.01,-0.14 0.02,-0.28 0.025,-0.42 0.01,-0.15 0.02,-0.31 0.03,-0.46 0.01,-0.14 0.02,-0.29 0.025,-0.44 0,-0.15 0.01,-0.3 0.015,-0.45 0,-0.17 0,-0.33 0.01,-0.49 0,-0.17 0.01,-0.35 0.01,-0.53 0,-0.17 0,-0.35 0,-0.52 0,-0.19 0,-0.37 0,-0.55 0,-0.19 0,-0.39 0,-0.58 0,-0.2 0,-0.39 0,-0.59 0,-0.2 0,-0.4 0,-0.6 0,-0.21 0,-0.41 0,-0.62 0,-0.21 0,-0.43 0,-0.64 0,-0.23 0,-0.46 0,-0.69 0,-0.24 0,-0.48 0,-0.73 0,-0.25 0,-0.51 0,-0.77 0,-0.27 0,-0.54 0,-0.81 0,-0.28 0,-0.57 0.01,-0.85 0,-0.29 0,-0.58 0,-0.87 0,-0.28 0,-0.57 0,-0.86 0,-0.29 0.01,-0.58 0.01,-0.87 0,-0.29 0,-0.58 0.01,-0.87 0,-0.3 0.01,-0.59 0.01,-0.88 0,-0.29 0,-0.58 0.01,-0.87 0,-0.29 0.01,-0.59 0.01,-0.88 0,-0.29 0.01,-0.58 0.01,-0.87 0,-0.29 0.01,-0.58 0.015,-0.87 0.01,-0.29 0.01,-0.58 0.015,-0.88 0.01,-0.29 0.01,-0.59 0.015,-0.89 0,-0.29 0.01,-0.59 0.015,-0.89 0,-0.3 0.01,-0.6 0.015,-0.9 0,-0.3 0.01,-0.6 0.015,-0.9 0,-0.31 0.01,-0.61 0.015,-0.92 0,-0.31 0.01,-0.61 0.02,-0.92 0,-0.31 0.015,-0.62 0.015,-0.93 0,-0.31 0.01,-0.62 0.015,-0.93 0.01,-0.31 0.01,-0.62 0.015,-0.93 0,-0.31 0.01,-0.62 0.02,-0.92 0.01,-0.31 0.015,-0.61 0.02,-0.91 0.01,-0.31 0.015,-0.61 0.02,-0.91 0,-0.31 0.01,-0.61 0.02,-0.92 0,-0.31 0.015,-0.62 0.02,-0.94 0,-0.32 0.015,-0.63 0.02,-0.95 0,-0.32 0.015,-0.64 0.025,-0.96 0.01,-0.31 0.015,-0.62 0.02,-0.94 0.01,-0.31 0.015,-0.62 0.02,-0.93 0,-0.3 0.015,-0.6 0.02,-0.9 0,-0.29 0.01,-0.58 0.01,-0.88 0,-0.29 0,-0.59 0,-0.88 0,-0.3 0,-0.59 0.01,-0.89 0,-0.29 0,-0.58 0,-0.87 0,-0.29 0,-0.58 0,-0.87 0,-0.28 0,-0.57 -0.01,-0.85 0,-0.28 -0.01,-0.56 -0.015,-0.85 0,-0.29 -0.015,-0.57 -0.02,-0.86 -0.01,-0.3 -0.015,-0.59 -0.025,-0.89 -0.01,-0.29 -0.015,-0.59 -0.025,-0.89 -0.01,-0.29 -0.015,-0.59 -0.025,-0.89 -0.01,-0.3 -0.02,-0.6 -0.03,-0.9 -0.01,-0.3 -0.02,-0.6 -0.03,-0.9 -0.01,-0.3 -0.025,-0.6 -0.03,-0.9 -0.01,-0.3 -0.02,-0.61 -0.03,-0.91 -0.01,-0.3 -0.02,-0.6 -0.03,-0.91 -0.01,-0.3 -0.025,-0.61 -0.035,-0.91 -0.01,-0.31 -0.02,-0.61 -0.03,-0.92 -0.01,-0.3 -0.02,-0.61 -0.035,-0.92 -0.01,-0.31 -0.025,-0.63 -0.035,-0.94 -0.01,-0.33 -0.025,-0.65 -0.035,-0.98 -0.01,-0.33 -0.025,-0.66 -0.035,-1 -0.015,-0.34 -0.025,-0.68 -0.04,-1.02 -0.01,-0.34 -0.025,-0.68 -0.03,-1.02 -0.01,-0.34 -0.015,-0.67 -0.02,-1.01 0,-0.34 -0.015,-0.67 -0.02,-1.01 0,-0.33 -0.01,-0.66 -0.01,-0.99 0,-0.33 0,-0.65 0,-0.98 0,-0.32 0,-0.64 0,-0.96 0,-0.32 0.01,-0.64 0.01,-0.95 0,-0.32 0,-0.63 0.01,-0.95 0,-0.31 0,-0.63 0.01,-0.94 0,-0.32 0,-0.63 0.01,-0.94 0,-0.32 0.01,-0.63 0.01,-0.94 0,-0.31 0.01,-0.63 0.015,-0.94 0,-0.3 0.01,-0.6 0.015,-0.9 0,-0.29 0.01,-0.58 0.015,-0.87 0,-0.27 0.015,-0.55 0.025,-0.82 0.01,-0.25 0.02,-0.5 0.03,-0.75 0.01,-0.24 0.02,-0.47 0.03,-0.7 0.01,-0.23 0.025,-0.45 0.035,-0.67 0.01,-0.21 0.025,-0.43 0.04,-0.64 0.015,-0.19 0.025,-0.38 0.04,-0.57 0.01,-0.18 0.025,-0.36 0.035,-0.54 0.01,-0.18 0.025,-0.36 0.035,-0.54 0.01,-0.18 0.025,-0.35 0.04,-0.53 0.015,-0.17 0.025,-0.33 0.035,-0.5 0.01,-0.17 0.025,-0.33 0.035,-0.5 0.01,-0.15 0.02,-0.31 0.03,-0.46 0.01,-0.15 0.02,-0.29 0.03,-0.44 0.01,-0.14 0.015,-0.28 0.025,-0.41 0,-0.13 0.01,-0.26 0.015,-0.39 0,-0.12 0.01,-0.24 0.01,-0.36 0,-0.1 0.01,-0.21 0.01,-0.31 0,-0.1 0,-0.19 0,-0.28 0,-0.1 0,-0.16 -0.01,-0.25 0,-0.1 0,-0.15 -0.01,-0.23 0,-0.1 -0.01,-0.16 -0.015,-0.24 0,-0.1 0,-0.1 -0.015,-0.15 0,0 -0.01,-0.1 -0.02,-0.12 0,0 -0.015,-0.1 0,0 0.04,0.1 0.091,0.18 0.1615,0.26 0.141,0.15 0.3075,0.27 0.5115,0.34 0.142,0 0.2875,0.1 0.439,0.1 0.1095,0 -0.01,0 -0.035,0 -0.035,0 -0.072,0 -0.107,0 -0.04,0 -0.077,0 -0.1165,0 -0.04,0 -0.084,0 -0.126,0 -0.045,0 -0.091,0 -0.137,0 -0.05,0 -0.099,0 -0.149,0 -0.054,0 -0.108,0 -0.162,0 -0.058,0 -0.117,0 -0.1755,0 -0.064,0 -0.1275,0 -0.191,0 -0.069,0 -0.138,0 -0.2075,0 -0.075,0 -0.15,0 -0.225,0 -0.08,0 -0.1605,0 -0.2405,0 -0.082,0 -0.163,0 -0.2445,0 -0.082,0 -0.1635,0 -0.2455,0 -0.091,0 -0.1825,0 -0.274,0 -0.082,0 -0.1655,0 -0.248,0 -0.09,0 -0.179,0 -0.268,0 -0.1015,0 -0.203,0 -0.3045,0 -0.104,0 -0.2085,0 -0.313,0 -0.1035,0 -0.2075,0 -0.3115,0 -0.1125,0 -0.225,0 -0.3375,0 -0.1185,0 -0.237,0 -0.3555,0 -0.1215,0 -0.243,0 -0.3645,0 -0.1315,0 -0.263,0 -0.3945,0 -0.152,0 -0.3045,0 -0.4565,0 -0.1245,0 -0.2495,0 -0.3745,0 -0.1085,0 -0.217,0 -0.3255,0 -0.1235,0 -0.247,0 -0.3705,0 -0.1245,0 -0.2495,0 -0.374,0 -0.096,0 -0.1925,0 -0.2885,0 -0.09,0 -0.179,0 -0.2685,0 0,0 0.059,-2.58 0.059,-2.58 z"
       id="path5581"
       style="color:#000000;display:inline;overflow:visible;visibility:visible;fill:#0169c9;fill-opacity:1;fill-rule:nonzero;stroke:#636466;stroke-width:0.13693;stroke-linecap:butt;stroke-linejoin:round;stroke-miterlimit:4;stroke-dasharray:none;stroke-dashoffset:0;stroke-opacity:1;marker:none;enable-background:accumulate" />
    <text
       id="text3189"
       y="1752.23"
       x="-182.048"
       style="color:#000000;font-style:normal;font-variant:normal;font-weight:bold;font-stretch:normal;font-size:6px;line-height:0%;font-family:'Comic Sans MS';-inkscape-font-specification:'Comic Sans MS';text-indent:0;text-align:start;text-decoration:none;text-decoration-line:none;letter-spacing:normal;word-spacing:normal;text-transform:none;writing-mode:lr-tb;direction:ltr;text-anchor:start;display:inline;overflow:visible;visibility:visible;fill:#0197fd;fill-opacity:1;fill-rule:nonzero;stroke:none;stroke-width:0.55;marker:none;enable-background:accumulate"
       xml:space="preserve"><tspan
         y="1752.23"
         x="-182.048"
         id="tspan3191"
         sodipodi:role="line"
         style="font-size:26.322092px;line-height:1;stroke-width:0.55">T</tspan></text>
    <text
       xml:space="preserve"
       style="color:#000000;font-style:normal;font-variant:normal;font-weight:normal;font-stretch:normal;font-size:6px;line-height:0%;font-family:'Comic Sans MS';-inkscape-font-specification:'Comic Sans MS';text-indent:0;text-align:start;text-decoration:none;text-decoration-line:none;letter-spacing:normal;word-spacing:normal;text-transform:none;writing-mode:lr-tb;direction:ltr;text-anchor:start;display:inline;overflow:visible;visibility:visible;fill:#0197fd;fill-opacity:1;fill-rule:nonzero;stroke:none;stroke-width:0.55;marker:none;enable-background:accumulate"
       x="-153.222"
       y="1787.81"
       id="text3716-9-1-1-3-8"><tspan
         sodipodi:role="line"
         id="tspan3718-0-5-4-3-9"
         x="-153.222"
         y="1787.81"
         style="font-size:35.1366px;line-height:1;stroke-width:0.55">=</tspan></text>
    <text
       id="text3345-0-4-6"
       y="1796.95"
       x="-267.492"
       style="color:#000000;font-style:normal;font-variant:normal;font-weight:900;font-stretch:normal;font-size:6px;line-height:0%;font-family:'Comic Sans MS';-inkscape-font-specification:'Comic Sans MS';text-indent:0;text-align:start;text-decoration:none;text-decoration-line:none;letter-spacing:normal;word-spacing:normal;text-transform:none;writing-mode:lr-tb;direction:ltr;text-anchor:start;display:inline;overflow:visible;visibility:visible;fill:#fd3301;fill-opacity:1;fill-rule:nonzero;stroke:none;stroke-width:0.55;marker:none;enable-background:accumulate"
       xml:space="preserve"><tspan
         y="1796.95"
         x="-267.492"
         id="tspan3347-9-5-29"
         sodipodi:role="line"
         style="font-size:21.415257px;line-height:1;stroke-width:0.55">-9</tspan></text>
    <text
       xml:space="preserve"
       style="color:#000000;font-style:normal;font-variant:normal;font-weight:900;font-stretch:normal;font-size:6px;line-height:0%;font-family:'Comic Sans MS';-inkscape-font-specification:'Comic Sans MS';text-indent:0;text-align:start;text-decoration:none;text-decoration-line:none;letter-spacing:normal;word-spacing:normal;text-transform:none;writing-mode:lr-tb;direction:ltr;text-anchor:start;display:inline;overflow:visible;visibility:visible;fill:#fd3301;fill-opacity:1;fill-rule:nonzero;stroke:none;stroke-width:0.55;marker:none;enable-background:accumulate"
       x="-97.6282"
       y="1796.95"
       id="text10309"><tspan
         style="font-size:21.415257px;line-height:1;stroke-width:0.55"
         sodipodi:role="line"
         id="tspan10307"
         x="-97.6282"
         y="1796.95">4</tspan></text>
    <text
       xml:space="preserve"
       style="color:#000000;font-style:normal;font-variant:normal;font-weight:900;font-stretch:normal;font-size:6px;line-height:0%;font-family:'Comic Sans MS';-inkscape-font-specification:'Comic Sans MS';text-indent:0;text-align:start;text-decoration:none;text-decoration-line:none;letter-spacing:normal;word-spacing:normal;text-transform:none;writing-mode:lr-tb;direction:ltr;text-anchor:start;display:inline;overflow:visible;visibility:visible;fill:#fd3301;fill-opacity:1;fill-rule:nonzero;stroke:none;stroke-width:0.55;marker:none;enable-background:accumulate"
       x="-97.7379"
       y="1766.85"
       id="text10313"><tspan
         style="font-size:21.415257px;line-height:1;stroke-width:0.55"
         sodipodi:role="line"
         id="tspan10311"
         x="-97.7379"
         y="1766.85">6</tspan></text>
    <text
       xml:space="preserve"
       style="color:#000000;font-style:normal;font-variant:normal;font-weight:900;font-stretch:normal;font-size:6px;line-height:0%;font-family:'Comic Sans MS';-inkscape-font-specification:'Comic Sans MS';text-indent:0;text-align:start;text-decoration:none;text-decoration-line:none;letter-spacing:normal;word-spacing:normal;text-transform:none;writing-mode:lr-tb;direction:ltr;text-anchor:start;display:inline;overflow:visible;visibility:visible;fill:#fd3301;fill-opacity:1;fill-rule:nonzero;stroke:none;stroke-width:0.55;marker:none;enable-background:accumulate"
       x="-62.7059"
       y="1766.85"
       id="text10317"><tspan
         style="font-size:21.415257px;line-height:1;stroke-width:0.55"
         sodipodi:role="line"
         id="tspan10315"
         x="-62.7059"
         y="1766.85">1</tspan></text>
    <text
       xml:space="preserve"
       style="color:#000000;font-style:normal;font-variant:normal;font-weight:900;font-stretch:normal;font-size:6px;line-height:0%;font-family:'Comic Sans MS';-inkscape-font-specification:'Comic Sans MS';text-indent:0;text-align:start;text-decoration:none;text-decoration-line:none;letter-spacing:normal;word-spacing:normal;text-transform:none;writing-mode:lr-tb;direction:ltr;text-anchor:start;display:inline;overflow:visible;visibility:visible;fill:#fd3301;fill-opacity:1;fill-rule:nonzero;stroke:none;stroke-width:0.55;marker:none;enable-background:accumulate"
       x="-62.9824"
       y="1828.99"
       id="text10321"><tspan
         style="font-size:21.415257px;line-height:1;stroke-width:0.55"
         sodipodi:role="line"
         id="tspan10319"
         x="-62.9824"
         y="1828.99">8</tspan></text>
    <text
       xml:space="preserve"
       style="color:#000000;font-style:normal;font-variant:normal;font-weight:900;font-stretch:normal;font-size:6px;line-height:0%;font-family:'Comic Sans MS';-inkscape-font-specification:'Comic Sans MS';text-indent:0;text-align:start;text-decoration:none;text-decoration-line:none;letter-spacing:normal;word-spacing:normal;text-transform:none;writing-mode:lr-tb;direction:ltr;text-anchor:start;display:inline;overflow:visible;visibility:visible;fill:#fd3301;fill-opacity:1;fill-rule:nonzero;stroke:none;stroke-width:0.55;marker:none;enable-background:accumulate"
       x="-104.781"
       y="1829.17"
       id="text10325"><tspan
         style="font-size:21.415257px;line-height:1;stroke-width:0.55"
         sodipodi:role="line"
         id="tspan10323"
         x="-104.781"
         y="1829.17">24</tspan></text>
    <text
       xml:space="preserve"
       style="color:#000000;font-style:normal;font-variant:normal;font-weight:900;font-stretch:normal;font-size:6px;line-height:0%;font-family:'Comic Sans MS';-inkscape-font-specification:'Comic Sans MS';text-indent:0;text-align:start;text-decoration:none;text-decoration-line:none;letter-spacing:normal;word-spacing:normal;text-transform:none;writing-mode:lr-tb;direction:ltr;text-anchor:start;display:inline;overflow:visible;visibility:visible;fill:#fd3301;fill-opacity:1;fill-rule:nonzero;stroke:none;stroke-width:0.55;marker:none;enable-background:accumulate"
       x="-70.2975"
       y="1796.95"
       id="text10329"><tspan
         style="font-size:21.415257px;line-height:1;stroke-width:0.55"
         sodipodi:role="line"
         id="tspan10327"
         x="-70.2975"
         y="1796.95">-9</tspan></text>
    <path
       style="opacity:1;vector-effect:none;fill:#19aeff;fill-opacity:1;fill-rule:evenodd;stroke:#19aeff;stroke-width:20;stroke-linecap:round;stroke-linejoin:miter;stroke-miterlimit:4;stroke-dasharray:none;stroke-dashoffset:0;stroke-opacity:0.198925"
       d="m -300.715,1759.31 h 99.288"
       id="path11245"
       inkscape:connector-curvature="0" />
    <path
       inkscape:connector-curvature="0"
       id="path11261"
       d="m -91.9286,1747.84 v 79.98"
       style="opacity:1;vector-effect:none;fill:#19aeff;fill-opacity:1;fill-rule:evenodd;stroke:#19aeff;stroke-width:20.000006;stroke-linecap:round;stroke-linejoin:miter;stroke-miterlimit:4;stroke-dasharray:none;stroke-dashoffset:0;stroke-opacity:0.198925" />
  </g>
</svg>
