<?xml version="1.0" encoding="UTF-8" standalone="no"?>
<!-- Copyright 2017 mathsisfun.com -->
<svg xmlns="http://www.w3.org/2000/svg" width="164.8" height="70.4" version="1.1">
<defs/>
<g transform="translate(399.41918,-218.54244)">
<circle cx="-803.2" cy="391.1" r="14.151099" transform="matrix(0.80630735,0,0,0.80630735,325.74692,-76.069831)" style="color:black; overflow:visible; fill:#ccff99; stroke-width:1.25px;"/>
<circle cx="-803.2" cy="391.1" r="14.151099" transform="matrix(0.80630735,0,0,0.80630735,385.0708,-75.495713)" style="color:black; overflow:visible; fill:#ccff99; stroke-width:1.25px;"/>
<circle cx="-803.2" cy="391.1" r="14.151099" transform="matrix(0.80630735,0,0,0.80630735,259.65719,-76.069831)" style="color:black; overflow:visible; fill:#ccff99; stroke-width:1.25px;"/>
<text x="-393.5" y="247.1" style="font-family:'Comic Sans MS'; font-size:25.8px; color:black; overflow:visible; stroke-width:1.25px;">+2x &#160; + 3x - 4</text>
<text x="-351.5" y="235.4" style="font-family:'Comic Sans MS'; font-size:22.6px; color:black; overflow:visible; fill:#5c3566; stroke-width:1px;">3</text>
<path style="color:black; overflow:visible; fill:#c4a000; stroke-width:1.25px;" d="m -317.4,251.1 c 1.1,5.3 3.7,10.3 7.5,14.2 3.1,3.4 7.2,6 11.8,6.4 4.6,0.6 9.5,0.4 13.9,-1.3 5.4,-2.4 10.1,-6.6 12.7,-11.9 1.2,-2.4 1.9,-5 2.8,-7.5 1,0.3 2,0.7 2.9,1 -1.5,4.6 -3,9.3 -6.3,12.9 -4.4,5.1 -10.5,9.2 -17.3,9.8 -6.9,0.9 -14.6,-0 -20.1,-4.8 -5.4,-4.4 -9.3,-10.6 -10.9,-17.5 -0.5,-1 1.2,-0.8 1.9,-1.2 0.3,-0 0.6,-0.2 0.9,-0.3 z"/>
<text x="-320.4" y="284.5" style="font-family:'Comic Sans MS'; font-size:16.1px; color:black; overflow:visible; fill:#c4a000; stroke-width:1.25px;">Change</text>
<path style="color:black; overflow:visible; fill:#c4a000; stroke-width:1.25px;" d="m -275.5,256.5 c 3.6,-1.5 6.4,-4.2 9.2,-6.8 2,-1.8 3.8,1.3 2.5,3 -0.9,2.8 -2.4,5.7 -2,8.7 0.3,1.1 1.3,2.1 -0.3,2.4 -0.7,0.3 -1.5,1 -2,1 -2.1,-3.2 -1.1,-7.2 0,-10.5 0.7,-1.3 0.8,-4.7 2.4,-2.4 0.9,0.9 2.5,-0 0.9,1.1 -2.7,2.8 -5.8,5.2 -9.3,6.7 -0.5,-1.1 -1,-2.1 -1.4,-3.2 z"/>
</g>
</svg>
