<?xml version="1.0" encoding="UTF-8" standalone="no"?>
<!-- Copyright 2017 mathsisfun.com -->

<svg
   width="474.4"
   height="144.2"
   version="1.1"
   id="svg62"
   sodipodi:docname="polynomial-factoring.svg"
   inkscape:version="1.1.2 (0a00cf5339, 2022-02-04, custom)"
   xmlns:inkscape="http://www.inkscape.org/namespaces/inkscape"
   xmlns:sodipodi="http://sodipodi.sourceforge.net/DTD/sodipodi-0.dtd"
   xmlns="http://www.w3.org/2000/svg"
   xmlns:svg="http://www.w3.org/2000/svg">
  <sodipodi:namedview
     id="namedview64"
     pagecolor="#ffffff"
     bordercolor="#666666"
     borderopacity="1.0"
     inkscape:pageshadow="2"
     inkscape:pageopacity="0.0"
     inkscape:pagecheckerboard="0"
     showgrid="false"
     inkscape:current-layer="svg62" />
  <defs
     id="defs2" />
  <rect
     x="212.6"
     y="48.9"
     rx="11"
     ry="11.9"
     width="237.2"
     height="50.1"
     style="color:black;overflow:visible;opacity:1;fill:#b9e1fd;stroke-width:2.5;fill-opacity:1"
     id="rect4" />
  <circle
     cx="276.563"
     cy="71.8859"
     r="14.9674"
     style="color:#000000;overflow:visible;fill:#65c1ff;fill-opacity:1;stroke-width:8.6"
     id="circle6" />
  <circle
     cx="335.137"
     cy="73.6742"
     r="14.9674"
     style="color:#000000;overflow:visible;fill:#65c1ff;fill-opacity:1;stroke-width:8.6"
     id="circle42" />
  <circle
     cx="395.385"
     cy="72.6988"
     style="color:#000000;overflow:visible;fill:#65c1ff;fill-opacity:1;stroke-width:8.6"
     id="circle44"
     r="14.9674" />
  <text
     x="322"
     y="142.9"
     style="color:black;fill:#c4a000;font-family:Trebuchet MS;font-size:15.7px;overflow:visible;stroke-width:1.25px"
     id="text10">factors</text>
  <path
     style="fill:#c4a000;fill-opacity:0.75;stroke:#c4a000;stroke-width:1.23"
     d="m 258.2,95.4 59.5,32.1"
     id="path12" />
  <path
     style="fill:#c4a000;fill-opacity:0.75;stroke:#c4a000;stroke-width:1.23"
     d="m 331.8,96.2 11,30.6"
     id="path14" />
  <path
     style="fill:#c4a000;fill-opacity:0.75;stroke:#c4a000;stroke-width:1.23"
     d="m 395.8,95.4 -33.9,31.8"
     id="path16" />
  <path
     style="fill:#c4a000;fill-opacity:0.75;stroke:#c4a000;stroke-width:1.17"
     d="m 301.4,95.2 h 48.3"
     id="path24" />
  <path
     style="fill:#c4a000;fill-opacity:0.75;stroke:#c4a000;stroke-width:1.17"
     d="m 363.3,95.2 h 48.8"
     id="path26" />
  <path
     style="fill:#c4a000;fill-opacity:0.75;stroke:#c4a000;stroke-width:1.17"
     d="m 239.1,95.2 h 48.4"
     id="path28" />
  <path
     style="fill:#c4a000;fill-opacity:0.75;stroke:#c4a000;stroke-width:1.17;stroke-dasharray:1.2, 3.5"
     d="m 425.5,95 h 48.8"
     id="path30" />
  <path
     style="fill:#c4a000;fill-opacity:0.75;stroke:#c4a000;stroke-width:1.23;stroke-dasharray:1.2, 2.5"
     d="m 451.3,95.5 -65.3,32.3"
     id="path32" />
  <path
     style="color:black;overflow:visible;fill:#0197fd;stroke-width:8.6"
     d="m 333.2,52.5 c -1,-4.2 -0.3,-8.7 -0.5,-13 -0.2,-3.3 3.6,-3.8 6,-3 2.3,0.5 2.1,-2.7 2.1,-4.2 0.2,-5.6 -1.1,-11 -2.7,-16.3 3.4,-1.9 2.9,2.5 3.7,4.8 1,5 1.9,10.4 0.9,15.5 -0.9,3.1 -4.1,2.3 -6.4,2 -1.8,0.2 -1,2.8 -1.2,4.1 0,3.2 -0.2,6.5 0.3,9.7 -0.5,0 -2.4,0.6 -2.2,0.4 z"
     id="path34" />
  <path
     style="color:black;overflow:visible;fill:#0197fd;stroke-width:8.6"
     d="m 280.3,52.2 c 5.3,-6.5 10.8,-13.2 17.7,-18.2 2.5,-1.6 6,-1.8 8.4,0 2.8,1 5,-2.3 7,-3.7 4.7,-4.4 8.1,-10 11.9,-15.1 3.6,1.8 -1.2,4.3 -2,6.7 -3.9,5.5 -8.5,10.8 -14.4,14.2 -2.3,1.3 -4.4,-0.8 -6.5,-1.2 -3.8,-0 -6.5,3.3 -9.2,5.5 -4.1,4.1 -8.2,8.3 -11.6,13.1 -0.2,-0.3 -2.3,-2.2 -1.3,-1.4 z"
     id="path36" />
  <path
     style="color:black;overflow:visible;fill:#0197fd;stroke-width:8.6"
     d="m 394.8,53.3 c -3.9,-6.6 -8.9,-12.8 -14.7,-17.8 -2.8,-2.2 -6.5,-2.4 -9.8,-1.5 -3.3,-0.3 -5.4,-3.7 -7.6,-5.9 -3.4,-3.7 -5.3,-8.4 -8,-12.5 -3.4,0.5 -1.1,2.8 0,4.7 3.1,5.8 7.1,11.5 12.8,15 3.1,1.9 6.7,-0.9 9.9,0.8 5.2,3 8.6,8.1 12.2,12.7 2,1.2 2.2,6.8 5,4.8 0.3,-0.1 0.9,-0.4 0.2,-0.3 z"
     id="path38" />
  <text
     x="310.2"
     y="12.3"
     style="color:black;fill:#0197fd;font-family:Trebuchet MS;font-size:15.7px;overflow:visible;stroke-width:1px"
     id="text40">roots (zeros)</text>
  <path
     style="color:black;overflow:visible;fill:#0197fd;stroke-width:8.6"
     d="m 282.4,42.4 c 1.4,2.5 0.6,5.5 0.8,8.2 0,1.1 0,2.7 0,3.5 -1.4,-0.8 -2.7,-1.4 -0.7,-2.7 2.7,-2.3 6.1,-3.9 9.7,-3.5 0.9,-0.3 1.3,2.9 0.2,2.5 -2.4,-0.2 -4.9,0 -6.9,1.5 -1.5,1 -4.7,4.6 -5.2,0.9 -0.1,-3.1 0.2,-6.3 -0.2,-9.3 0.7,-0.2 1.7,-1.8 2.3,-1.1 z"
     id="path46" />
  <path
     style="color:black;overflow:visible;fill:#0197fd;stroke-width:8.6"
     d="m 328.7,43 c 3.4,0.3 5.2,4 6.4,6.8 0.4,1.4 1.7,4.7 -0.7,4.5 -1.9,0.6 -0.8,-2.1 -1.1,-3.3 0.6,-3.3 3.2,-5.7 5.8,-7.5 0.4,1.5 2,2.1 0.2,2.8 -2.1,1.5 -4.3,3.7 -3.8,6.5 0.9,2.1 -3.2,2.4 -2.5,0.3 0,-2.7 -1.6,-5.4 -3.6,-7.2 -1.2,-0.2 -0.7,-2 -0.7,-2.9 z"
     id="path48" />
  <path
     style="color:#000000;overflow:visible;fill:#0197fd;stroke-width:8.6"
     d="m 386.3,50.8 c 3.7,-0.3 7.6,0.8 10.6,2.9 1,1.2 -2.3,2.8 -2.3,-0.1 -1.7,-3.4 -1.1,-7.2 -1.2,-10.9 1.2,0.3 3,0.1 2.4,1.9 0,3.3 -0.2,6.8 1.6,9.7 0.3,2 -1.8,2.1 -2.9,1.3 -2.4,-1.1 -4.9,-2.2 -7.6,-2 -0.1,-0.9 -0.8,-1.9 -0.6,-2.8 z"
     id="path50" />
  <text
     x="3.5"
     y="78.5"
     style="color:black;fill:#013397;font-family:Trebuchet MS;font-size:21.3px;overflow:visible;stroke-width:1.25px"
     id="text52">any polynomial</text>
  <g
     transform="translate(302.807,-875.772)"
     id="g60">
    <path
       style="color:black;overflow:visible;fill:#fdca01;stroke-width:1.91"
       d="m -148.3,949.6 c 2.6,-2.3 5.7,-4 8.8,-5.5 3.6,-1.8 7.9,-2.7 11.8,-1.1 3.6,1.1 6.5,3.7 10,5.2 3.4,0.6 7,-0.2 10.1,-1.6 0.8,1.7 1.6,3.4 2.3,5.2 -1,0.5 -3.6,1.3 -5.3,1.7 -3.3,0.6 -6.8,0.8 -10,-0.3 -3,-1.2 -5.6,-3.3 -8.5,-4.6 -2,-1.1 -4.3,-1 -6.3,0 -2.9,1.1 -5.6,2.7 -8,4.6 -1.6,-1.2 -3.3,-2.3 -4.9,-3.5 z"
       id="path54" />
    <path
       style="color:black;overflow:visible;fill:#fdca01;stroke-width:1.91"
       d="m -116.5,936.2 c 2.6,3.5 5.8,6.6 9.7,8.7 2,1.2 4.3,2 6.4,2.9 -0.9,1.6 -1.8,3.2 -2.6,4.9 -1,-0.4 -3.2,-1.3 -4.7,-2 -4.7,-2.2 -8.8,-5.6 -12,-9.7 -1.2,-0.9 -1,-1.6 0.2,-2.2 1,-0.8 2.1,-1.7 3.1,-2.5 z"
       id="path56" />
    <path
       style="color:black;overflow:visible;fill:#fdca01;stroke-width:1.91"
       d="m -120,957.9 c 2.9,-3 6.4,-5.5 9.8,-7.9 2.4,-1.5 5.1,-2.8 7.7,-4 0.8,1.7 1.5,3.4 2.3,5 -3.8,1.7 -7.6,3.6 -10.8,6.3 -1.8,1.4 -3.5,2.8 -5.1,4.4 -1.3,-1.3 -2.6,-2.6 -3.9,-3.9 z"
       id="path58" />
  </g>
  <g
     id="g9722"
     transform="translate(96.2457,157.699)">
    <text
       x="138.589"
       y="-79.776"
       style="color:#000000;font-size:24.6px;font-family:'Trebuchet MS';overflow:visible;fill:#013397;stroke-width:8.6"
       id="text1826">(x−r )</text>
    <text
       x="319.894"
       y="-79.776"
       style="color:#000000;font-size:24.6px;font-family:'Trebuchet MS';overflow:visible;fill:#013397;stroke-width:8.6"
       id="text1828">...</text>
    <text
       x="126.556"
       y="-79.776"
       style="color:#000000;font-size:24.6px;font-family:'Trebuchet MS';overflow:visible;fill:#013397;stroke-width:8.6"
       id="text1832">a</text>
    <text
       x="197.766"
       y="-79.776"
       style="color:#000000;font-size:24.6px;font-family:'Trebuchet MS';overflow:visible;fill:#013397;stroke-width:8.6"
       id="text3974">(x−r )</text>
    <text
       x="257.592"
       y="-79.776"
       style="color:#000000;font-size:24.6px;font-family:'Trebuchet MS';overflow:visible;fill:#013397;stroke-width:8.6"
       id="text3976">(x−r )</text>
    <text
       x="240.231"
       y="-73.1759"
       style="color:#000000;font-size:16px;font-family:'Trebuchet MS';overflow:visible;fill:#013397;stroke-width:8.6"
       id="text20">2</text>
    <text
       x="298.754"
       y="-73.1759"
       style="color:#000000;font-size:16px;font-family:'Trebuchet MS';overflow:visible;fill:#013397;stroke-width:8.6"
       id="text22">3</text>
    <text
       x="180.281"
       y="-73.1759"
       style="color:#000000;font-size:16px;font-family:'Trebuchet MS';overflow:visible;fill:#013397;stroke-width:8.6"
       id="text18">1</text>
  </g>
</svg>
