<?xml version="1.0" encoding="UTF-8" standalone="no"?>
<!-- Copyright 2017 mathsisfun.com -->
<svg xmlns="http://www.w3.org/2000/svg" width="254.3" height="129.9" version="1.1">
<defs/>
<circle cx="84.5" cy="64.4" r="15.3185" style="overflow:visible; opacity:0.33; fill:#fdca01; stroke-width:5.1;"/>
<circle cx="151.3" cy="64.3" r="15.3185" style="overflow:visible; opacity:0.33; fill:#fdca01; stroke-width:5.1;"/>
<circle cx="15.8" cy="64.4" r="15.3185" style="overflow:visible; opacity:0.33; fill:#fdca01; stroke-width:5.1;"/>
<text x="6.5" y="73.6" style="font-family:'Comic Sans MS'; font-size:26.8px; overflow:visible; fill:#5c3566; stroke-width:1px;">4x</text>
<text x="39.4" y="63.9" style="font-family:'Comic Sans MS'; font-size:21.4px; overflow:visible; fill:#5c3566; stroke-width:1px;">3</text>
<text x="41.9" y="127.7" style="font-family:'Comic Sans MS'; font-size:21.4px; font-style:italic; overflow:visible; fill:#fdca01; stroke-width:5.1;">coefficients</text>
<g transform="matrix(-0.668088,-0.052559,0.052559,-0.668088,-191.634,508.02)">
<path style="overflow:visible; fill:#fdca01; stroke-width:5.1;" d="m -448,667.8 c 12.9,-15.7 28.8,-29.7 48.4,-36.2 5,-1.2 15.8,-7.4 17.8,-4.7 -0.8,4.9 -2.9,8.2 -8.5,8.1 -15.5,4.9 -30.7,12 -42.3,23.7 -5,4.8 -1,1 1.7,-1.8 -4.8,3.5 -7.1,11.2 -13.9,10.5 -1.1,0.1 -2.1,0.3 -3.2,0.4 z"/>
<path style="overflow:visible; fill:#fdca01; stroke-width:5.1;" d="m -438.1,645 c 0.4,8.1 -1.8,15.9 -5,23.3 -7.9,-2.8 4.5,-7.9 8.1,-9.6 4,-1 16.4,-6.2 16.4,-1.9 -1,4.4 -3,7.1 -8,6.3 -7.7,1.3 -14.8,5.1 -20.5,10.4 -5.9,0.3 -3,-5.5 -1.7,-8.4 2.5,-5.3 3.4,-11 3.4,-16.8 2.4,-1.1 4.9,-2.2 7.3,-3.3 z"/>
</g>
<text x="108.5" y="65.1" style="font-family:'Comic Sans MS'; font-size:21.4px; overflow:visible; fill:#5c3566; stroke-width:1px;">2</text>
<g transform="matrix(0.668088,-0.052559,-0.052559,-0.668088,354.288,509.591)">
<path style="overflow:visible; fill:#fdca01; stroke-width:5.1;" d="m -448,667.8 c 12.9,-15.7 28.8,-29.7 48.4,-36.2 5,-1.2 15.8,-7.4 17.8,-4.7 -0.8,4.9 -2.9,8.2 -8.5,8.1 -15.5,4.9 -30.7,12 -42.3,23.7 -5,4.8 -1,1 1.7,-1.8 -4.8,3.5 -7.1,11.2 -13.9,10.5 -1.1,0.1 -2.1,0.3 -3.2,0.4 z"/>
<path style="overflow:visible; fill:#fdca01; stroke-width:5.1;" d="m -438.1,645 c 0.4,8.1 -1.8,15.9 -5,23.3 -7.9,-2.8 4.5,-7.9 8.1,-9.6 4,-1 16.4,-6.2 16.4,-1.9 -1,4.4 -3,7.1 -8,6.3 -7.7,1.3 -14.8,5.1 -20.5,10.4 -5.9,0.3 -3,-5.5 -1.7,-8.4 2.5,-5.3 3.4,-11 3.4,-16.8 2.4,-1.1 4.9,-2.2 7.3,-3.3 z"/>
</g>
<text x="66.7" y="16.8" style="font-family:'Comic Sans MS'; font-size:21.4px; font-style:italic; overflow:visible; fill:#f0a513; stroke-width:5.1;">leading coefficient</text>
<g transform="matrix(0.670153,0,0,0.670153,321.139,-406.394)">
<path style="overflow:visible; fill:#f0a513; stroke-width:5.1;" d="m -448,667.8 c 12.9,-15.7 28.8,-29.7 48.4,-36.2 5,-1.2 15.8,-7.4 17.8,-4.7 -0.8,4.9 -2.9,8.2 -8.5,8.1 -15.5,4.9 -30.7,12 -42.3,23.7 -5,4.8 -1,1 1.7,-1.8 -4.8,3.5 -7.1,11.2 -13.9,10.5 -1.1,0.1 -2.1,0.3 -3.2,0.4 z"/>
<path style="overflow:visible; fill:#f0a513; stroke-width:5.1;" d="m -438.1,645 c 0.4,8.1 -1.8,15.9 -5,23.3 -7.9,-2.8 4.5,-7.9 8.1,-9.6 4,-1 16.4,-6.2 16.4,-1.9 -1,4.4 -3,7.1 -8,6.3 -7.7,1.3 -14.8,5.1 -20.5,10.4 -5.9,0.3 -3,-5.5 -1.7,-8.4 2.5,-5.3 3.4,-11 3.4,-16.8 2.4,-1.1 4.9,-2.2 7.3,-3.3 z"/>
</g>
<path style="color:black; overflow:visible; fill:#fdca01; stroke-width:1.25px;" d="m 76.3,113.2 c -2.8,-8.5 1.1,-17.3 4,-25.2 2.6,0.9 5.4,1.9 2.6,5 -1.9,5.9 -4.7,12.4 -2.7,18.7 -1.3,0.5 -2.7,1 -4,1.5 z"/>
<path style="color:black; overflow:visible; fill:#fdca01; stroke-width:1.25px;" d="m 70.9,94.9 c 4,-3.8 7.2,-8.4 10.6,-12.7 5.5,-0.6 3.1,6.4 4.7,9.6 0.1,2.1 2.7,5.4 -1,5.3 -2.8,1.9 -2.3,-2.1 -3,-3.7 0,-3 -3.8,-10.6 1.6,-7.6 0.5,0.3 -4.3,6.2 -6.1,8.1 -1.9,2.2 -4,5.6 -6.1,1.8 -0.2,-0.2 -0.5,-0.5 -0.7,-0.7 z"/>
<text x="54.9" y="73.6" style="font-family:'Comic Sans MS'; font-size:26.8px; overflow:visible; fill:#5c3566; stroke-width:1px;">+ 2x</text>
<text x="124" y="73.6" style="font-family:'Comic Sans MS'; font-size:26.8px; overflow:visible; fill:#5c3566; stroke-width:1px;">- 7</text>
</svg>
