<?xml version="1.0" encoding="UTF-8" standalone="no"?>
<!-- Copyright 2017 mathsisfun.com -->
<svg xmlns="http://www.w3.org/2000/svg" width="277.9" height="52.3" version="1.1">
<defs/>
<g transform="translate(595.90957,-531.5149)">
<text x="-566.4" y="577" style="font-family:'Comic Sans MS'; font-size:19.9px; color:black; overflow:visible; fill:#c4a000; stroke-width:1px;">x - 2</text>
<text x="-587.9" y="552.4" style="font-family:'Comic Sans MS'; font-size:19.9px; color:black; overflow:visible; fill:#729fcf; stroke-width:1px;">x &#160;+ 2x - 7</text>
<text x="-574.8" y="542.2" style="font-family:'Comic Sans MS'; font-size:14.2px; color:black; overflow:visible; fill:#729fcf; stroke-width:1px;">2</text>
<path style="font-family:'Comic Sans MS'; font-size:36.2px; color:black; overflow:visible; fill:none; stroke:black; stroke-width:1.38; stroke-linecap:round;" d="m -595.2,558.3 100.6,0"/>
<text x="-434.8" y="582.6" style="font-family:'Comic Sans MS'; font-size:19.9px; color:black; overflow:visible; fill:#c4a000; stroke-width:1px;">Denominator</text>
<text x="-433.6" y="552.8" style="font-family:'Comic Sans MS'; font-size:19.9px; color:black; overflow:visible; fill:#729fcf; stroke-width:1px;">Numerator</text>
<path style="color:black; overflow:visible; fill:#c4a000; stroke-width:13.87;" d="m -483.9,568.1 c 5.5,-1.4 11.4,-1.5 17,-0.4 6.6,1.1 13,3.1 19.7,3.7 1.2,0.6 4.2,-1.1 3.9,1 0,0.8 0.1,1.7 0.2,2.5 -6.7,0.7 -13.2,-1.6 -19.8,-2.8 -5.1,-1 -10.3,-2.2 -15.5,-1.4 -1.4,-0.3 -4.1,1.5 -4.7,0.2 -0.2,-1 -0.5,-2 -0.7,-2.9 z"/>
<path style="color:black; overflow:visible; fill:#c4a000; stroke-width:13.87;" d="m -486.2,568.3 c 5.6,-0.8 11,-2.9 15.6,-6.2 0.7,1 1.3,2 2,3 -3.8,2.7 -8.1,4.7 -12.7,5.9 -1.3,0 -3.8,1.5 -4.5,0.4 -0.1,-1 -0.2,-2.1 -0.3,-3.1 z"/>
<path style="color:black; overflow:visible; fill:#c4a000; stroke-width:13.87;" d="m -484.8,568.4 c 4.8,-0.7 10.1,-0 14,3 0.8,0.8 2.5,1.8 0.9,2.5 -0.6,0.5 -1.2,1 -1.8,1.6 -2.9,-3.5 -7.9,-4.1 -12.2,-3.5 -1,0.2 -0.4,-1.3 -0.7,-2 -0,-0.5 -0,-1.1 -0.1,-1.6 z"/>
<path style="color:black; overflow:visible; fill:#729fcf; stroke-width:13.87;" d="m -480.8,543 c 5.5,-1.4 11.4,-1.5 17,-0.4 6.6,1.1 13,3.1 19.7,3.7 1.2,0.6 4.2,-1.1 3.9,1 0,0.8 0.1,1.7 0.2,2.5 -6.7,0.7 -13.2,-1.6 -19.8,-2.8 -5.1,-1 -10.3,-2.2 -15.5,-1.4 -1.4,-0.3 -4.1,1.5 -4.7,0.2 -0.2,-1 -0.5,-2 -0.7,-2.9 z"/>
<path style="color:black; overflow:visible; fill:#729fcf; stroke-width:13.87;" d="m -483.1,543.2 c 5.6,-0.8 11,-2.9 15.6,-6.2 0.7,1 1.3,2 2,3 -3.8,2.7 -8.1,4.7 -12.7,5.9 -1.3,0 -3.8,1.5 -4.5,0.4 -0.1,-1 -0.2,-2.1 -0.3,-3.1 z"/>
<path style="color:black; overflow:visible; fill:#729fcf; stroke-width:13.87;" d="m -481.7,543.3 c 4.8,-0.7 10.1,-0 14,3 0.8,0.8 2.5,1.8 0.9,2.5 -0.6,0.5 -1.2,1 -1.8,1.6 -2.9,-3.5 -7.9,-4.1 -12.2,-3.5 -1,0.2 -0.4,-1.3 -0.7,-2 -0,-0.5 -0,-1.1 -0.1,-1.6 z"/>
</g>
</svg>
