<?xml version="1.0" encoding="UTF-8" standalone="no"?>
<!-- Copyright 2017 mathsisfun.com -->
<svg xmlns="http://www.w3.org/2000/svg" width="363.1" height="98.3" version="1.1">
<defs/>
<g transform="translate(32.179089,-448.35077)">
<rect x="129.7" y="481.9" rx="32.4" ry="28.3" width="201.2" height="64.8" style="color:black; overflow:visible; fill:#fce94f; fill-opacity:0.19; stroke-width:3.3; stroke-linecap:round;"/>
<text x="-2.6" y="493.8" style="font-family:'Comic Sans MS'; font-size:19.9px; color:black; overflow:visible; fill:#c4a000; stroke-width:1px;">x - 2</text>
<text x="-24.1" y="469.2" style="font-family:'Comic Sans MS'; font-size:19.9px; color:black; overflow:visible; fill:#729fcf; stroke-width:1px;">x &#160;+ 2x - 7</text>
<text x="-11.1" y="459" style="font-family:'Comic Sans MS'; font-size:14.2px; color:black; overflow:visible; fill:#729fcf; stroke-width:1px;">2</text>
<path style="font-family:'Comic Sans MS'; font-size:36.2px; color:black; overflow:visible; fill:none; stroke:black; stroke-width:1.38; stroke-linecap:round;" d="m -31.5,475.2 100.6,0"/>
<text x="146.8" y="522.5" style="font-family:'Comic Sans MS'; font-size:19.9px; color:black; overflow:visible; fill:#c4a000; stroke-width:1px;">x - 2</text>
<text x="213.3" y="524.2" style="font-family:'Comic Sans MS'; font-size:19.9px; color:black; overflow:visible; fill:#729fcf; stroke-width:1px;">x &#160;+ 2x - 7</text>
<text x="226.4" y="514" style="font-family:'Comic Sans MS'; font-size:14.2px; color:black; overflow:visible; fill:#729fcf; stroke-width:1px;">2</text>
<path style="color:black; overflow:visible; fill:none; stroke:black; stroke-width:1.81; stroke-linecap:round;" d="m 197.2,530.5 c 0,0 16,-14.5 -0.4,-30.8 167.6,0.2 117.8,0 117.8,0"/>
<g transform="matrix(0.54647401,0.0621786,-0.0621786,0.54647401,-10.064,221.06346)">
<path style="color:black; overflow:visible; fill:#729fcf; stroke-width:3.3; stroke-linecap:round;" d="m 201.5,422.5 c 59.6,-20 122.7,-28.3 185.4,-26.7 45.8,0.2 92.5,8.5 132.6,31.7 11,0.3 12.4,11.1 2.4,7.6 -34.2,-20.1 -73,-31.7 -112.5,-33.7 -67.9,-4.2 -137.2,1.7 -201.9,23.7 -2,-0.9 -4,-1.8 -5.9,-2.7 z"/>
<path style="color:black; overflow:visible; fill:#729fcf; stroke-width:3.3; stroke-linecap:round;" d="m 528.3,436.9 c -3.6,-6.4 -13,-26.8 0.3,-25.9 -4.8,8.6 11.3,23.2 0.7,25.6 l -0.9,0.3 -0.1,0 -4.8e-4,0 z"/>
<path style="color:black; overflow:visible; fill:#729fcf; stroke-width:3.3; stroke-linecap:round;" d="m 524.8,438.2 c -7,-2.6 -14.7,-1.9 -21.9,-0.8 2.4,-2.9 4.4,-6.2 8.8,-5.4 4.9,-0.3 27.1,-0.2 13.2,6.2 z"/>
</g>
<g transform="matrix(0.53540482,0.12586382,-0.12586382,0.53540482,-9.8649403,201.4358)">
<path style="color:black; overflow:visible; fill:#c4a000; stroke-width:3.3; stroke-linecap:round;" d="m 178.1,518 c 44.7,27 101,26.7 149.5,10.9 16.7,-3.8 32.4,-13.9 48.4,-17.5 11.7,3 -14.7,7.6 -17.5,10.9 -44.2,17.9 -93.4,28.8 -140.8,17.6 -16,-3.3 -31,-10.2 -45.1,-18.3 1.8,-1.2 3.6,-2.4 5.4,-3.6 z"/>
<path style="color:black; overflow:visible; fill:#c4a000; stroke-width:3.3; stroke-linecap:round;" d="m 368.7,533.3 c 1.6,-8.5 4.8,-29.8 16.9,-25.3 -6.2,3.3 -7.5,22.4 -14,25 -1,0 -1.9,0.2 -2.9,0.3 z"/>
<path style="color:black; overflow:visible; fill:#c4a000; stroke-width:3.3; stroke-linecap:round;" d="m 352.1,511.2 c 8.5,1.6 29.5,6.3 29.7,-6.6 -5.3,4.6 -23.6,-1.1 -28.4,4 -0.4,0.9 -0.9,1.7 -1.3,2.6 z"/>
</g>
</g>
</svg>
