<?xml version="1.0" encoding="UTF-8" standalone="no"?>
<svg
   width="319.529"
   height="134.068"
   version="1.1"
   id="svg155"
   sodipodi:docname="proportional-rope.svg"
   inkscape:version="1.1.2 (0a00cf5339, 2022-02-04, custom)"
   xmlns:inkscape="http://www.inkscape.org/namespaces/inkscape"
   xmlns:sodipodi="http://sodipodi.sourceforge.net/DTD/sodipodi-0.dtd"
   xmlns="http://www.w3.org/2000/svg"
   xmlns:svg="http://www.w3.org/2000/svg"
   xmlns:rdf="http://www.w3.org/1999/02/22-rdf-syntax-ns#"
   xmlns:cc="http://creativecommons.org/ns#"
   xmlns:dc="http://purl.org/dc/elements/1.1/">
  <metadata
     id="metadata161">
    <rdf:RDF>
      <cc:Work
         rdf:about="">
        <dc:format>image/svg+xml</dc:format>
        <dc:type
           rdf:resource="http://purl.org/dc/dcmitype/StillImage" />
      </cc:Work>
    </rdf:RDF>
  </metadata>
  <defs
     id="defs159">
    <rect
       x="198.315"
       y="-17.0551"
       width="205.058"
       height="32.9203"
       id="rect21987" />
    <marker
       style="overflow:visible"
       id="Arrow1Lend"
       refX="0"
       refY="0"
       orient="auto"
       inkscape:stockid="Arrow1Lend"
       inkscape:isstock="true">
      <path
         transform="matrix(-0.8,0,0,-0.8,-10,0)"
         style="fill:context-stroke;fill-rule:evenodd;stroke:context-stroke;stroke-width:1pt"
         d="M 0,0 5,-5 -12.5,0 5,5 Z"
         id="path16562" />
    </marker>
    <marker
       style="overflow:visible"
       refX="0"
       refY="0"
       orient="auto"
       inkscape:stockid="Arrow1Lend183"
       inkscape:isstock="true"
       id="Arrow1Lend183">
      <path
         transform="matrix(-0.8,0,0,-0.8,-10,0)"
         style="fill:#666666;fill-opacity:1;fill-rule:evenodd;stroke:#666666;stroke-width:1pt;stroke-opacity:1"
         d="M 0,0 5,-5 -12.5,0 5,5 Z"
         id="path18544" />
    </marker>
    <marker
       style="overflow:visible"
       refX="0"
       refY="0"
       orient="auto"
       inkscape:stockid="Arrow1Lend7588"
       inkscape:isstock="true"
       id="Arrow1Lend7588">
      <path
         transform="matrix(-0.8,0,0,-0.8,-10,0)"
         style="fill:#666666;fill-opacity:1;fill-rule:evenodd;stroke:#666666;stroke-width:1pt;stroke-opacity:1"
         d="M 0,0 5,-5 -12.5,0 5,5 Z"
         id="path18547" />
    </marker>
    <marker
       style="overflow:visible"
       refX="0"
       refY="0"
       orient="auto"
       inkscape:stockid="Arrow1Lend6516"
       inkscape:isstock="true"
       id="Arrow1Lend6516">
      <path
         transform="matrix(-0.8,0,0,-0.8,-10,0)"
         style="fill:#666666;fill-opacity:1;fill-rule:evenodd;stroke:#666666;stroke-width:1pt;stroke-opacity:1"
         d="M 0,0 5,-5 -12.5,0 5,5 Z"
         id="path18550" />
    </marker>
    <marker
       style="overflow:visible"
       refX="0"
       refY="0"
       orient="auto"
       inkscape:stockid="Arrow1Lend6141"
       inkscape:isstock="true"
       id="Arrow1Lend6141">
      <path
         transform="matrix(-0.8,0,0,-0.8,-10,0)"
         style="fill:#666666;fill-opacity:1;fill-rule:evenodd;stroke:#666666;stroke-width:1pt;stroke-opacity:1"
         d="M 0,0 5,-5 -12.5,0 5,5 Z"
         id="path18553" />
    </marker>
  </defs>
  <sodipodi:namedview
     pagecolor="#ffffff"
     bordercolor="#666666"
     borderopacity="1"
     objecttolerance="10"
     gridtolerance="10"
     guidetolerance="10"
     inkscape:pageopacity="0"
     inkscape:pageshadow="2"
     inkscape:window-width="640"
     inkscape:window-height="480"
     id="namedview157"
     showgrid="false"
     inkscape:current-layer="svg155"
     inkscape:pagecheckerboard="0" />
  <path
     style="fill:none;stroke:#4e9a06;stroke-width:5.21835"
     d="M 1.02772,24.1962 H 159.436"
     id="path79" />
  <path
     style="fill:none;stroke:#73d216;stroke-width:1.10897"
     d="m 98.0024,26.2842 c -0.9649,0.4725 -4.1013,0.6134 -6.1911,-0.3307 -1.3666,-0.6604 -4.2622,-3.4457 -5.7899,-3.8234 -2.8948,-0.7083 -5.5484,-0.4246 -6.3525,0.2358"
     id="path81" />
  <path
     style="fill:none;stroke:#73d216;stroke-width:1.10897"
     d="m 91.9713,26.2842 c -0.965,0.4725 -4.1005,0.6134 -6.2715,-0.3307 -1.3671,-0.6604 -4.2619,-3.4457 -5.7896,-3.8234 -2.8947,-0.7083 -5.5483,-0.4246 -6.3524,0.2358"
     id="path83" />
  <path
     style="fill:none;stroke:#73d216;stroke-width:1.10897"
     d="m 85.9409,26.2842 c -0.9649,0.4725 -4.1008,0.6134 -6.272,-0.3307 -1.3669,-0.6604 -4.2618,-3.4457 -5.7895,-3.8234 -2.8948,-0.7083 -5.5482,-0.4246 -6.3523,0.2358"
     id="path85" />
  <path
     style="fill:none;stroke:#73d216;stroke-width:1.10897"
     d="m 79.8297,26.2842 c -0.9649,0.4725 -4.1008,0.6134 -6.2719,-0.3307 -1.3669,-0.6604 -4.2617,-3.4457 -5.7896,-3.8234 -2.8947,-0.7083 -5.5482,-0.4246 -6.3523,0.2358"
     id="path87" />
  <path
     style="fill:none;stroke:#73d216;stroke-width:1.10897"
     d="m 73.7991,26.2842 c -0.9649,0.4725 -4.101,0.6134 -6.272,-0.3307 -1.3671,-0.6604 -4.2618,-3.4457 -5.7895,-3.8234 -2.8948,-0.7083 -5.5484,-0.4246 -6.3525,0.2358"
     id="path89" />
  <path
     style="fill:none;stroke:#73d216;stroke-width:1.10897"
     d="m 67.7682,26.2842 c -0.9649,0.4725 -4.1008,0.6134 -6.272,-0.3307 -1.3668,-0.6604 -4.2618,-3.4457 -5.7895,-3.8234 -2.8948,-0.7083 -5.5482,-0.4246 -6.3523,0.2358"
     id="path91" />
  <path
     style="fill:none;stroke:#73d216;stroke-width:1.10897"
     d="m 61.7376,26.2842 c -0.965,0.4725 -4.101,0.6134 -6.272,-0.3307 -1.3671,-0.6604 -4.2619,-3.4457 -5.7896,-3.8234 -2.8947,-0.7083 -5.5484,-0.4246 -6.3525,0.2358"
     id="path93" />
  <path
     style="fill:none;stroke:#73d216;stroke-width:1.10897"
     d="m 55.7067,26.2842 c -0.9649,0.4725 -4.1008,0.6134 -6.272,-0.3307 -1.3669,-0.6604 -4.2617,-3.4457 -5.7895,-3.8234 -2.8948,-0.7083 -5.5482,-0.4246 -6.3523,0.2358"
     id="path95" />
  <path
     style="fill:none;stroke:#73d216;stroke-width:1.10897"
     d="m 49.676,26.2842 c -0.9649,0.4725 -4.101,0.6134 -6.272,-0.3307 -1.367,-0.6604 -4.2618,-3.4457 -5.7895,-3.8234 -2.8948,-0.7083 -5.5484,-0.4246 -6.3525,0.2358"
     id="path97" />
  <path
     style="fill:none;stroke:#73d216;stroke-width:1.10897"
     d="m 43.6452,26.2842 c -0.965,0.4725 -4.1009,0.6134 -6.272,-0.3307 -1.3669,-0.6604 -4.2617,-3.4457 -5.7896,-3.8234 -2.8947,-0.7083 -5.5482,-0.4246 -6.3523,0.2358"
     id="path99" />
  <path
     style="fill:none;stroke:#73d216;stroke-width:1.10897"
     d="m 37.6145,26.2842 c -0.9649,0.4725 -4.101,0.6134 -6.272,-0.3307 -1.3671,-0.6604 -4.2618,-3.4457 -5.7895,-3.8234 -2.8948,-0.7083 -5.5484,-0.4246 -6.3525,0.2358"
     id="path101" />
  <path
     style="fill:none;stroke:#73d216;stroke-width:1.10897"
     d="m 31.5836,26.2842 c -0.9649,0.4725 -4.1008,0.6134 -6.2719,-0.3307 -1.3669,-0.6604 -4.2617,-3.4457 -5.7896,-3.8234 -2.8948,-0.7083 -5.5483,-0.4246 -6.3524,0.2358"
     id="path103" />
  <path
     style="fill:none;stroke:#73d216;stroke-width:1.10897"
     d="m 25.553,26.2842 c -0.965,0.4725 -4.101,0.6134 -6.272,-0.3307 -1.3671,-0.6604 -4.2619,-3.4457 -5.7896,-3.8234 -2.8948,-0.7083 -5.54838,-0.4246 -6.35248,0.2358"
     id="path105" />
  <path
     style="fill:none;stroke:#73d216;stroke-width:1.10897"
     d="M 19.5221,26.2842 C 18.5572,26.7567 15.421,26.8976 13.3306,25.9535 11.9635,25.2931 9.06872,22.5078 7.54102,22.1301 4.64632,21.4218 1.99262,21.7055 1.18852,22.3659"
     id="path107" />
  <path
     style="fill:none;stroke:#73d216;stroke-width:1.10897"
     d="M 13.4109,26.2842 C 12.446,26.7567 9.30992,26.8976 7.21942,25.9535 5.85232,25.2931 2.95762,22.5078 1.42982,22.1301"
     id="path109" />
  <path
     style="fill:none;stroke:#73d216;stroke-width:1.10897"
     d="m 7.38002,26.2842 c -0.9647,0.4725 -4.1008,0.6134 -6.1915,-0.3307 -1.366906,-0.6604 -0.08,-3.5406 -0.1616,-4.0122"
     id="path111" />
  <path
     style="fill:none;stroke:#73d216;stroke-width:1.10897"
     d="M 158.309,26.2842"
     id="path113" />
  <path
     style="fill:none;stroke:#73d216;stroke-width:1.10897"
     d="m 158.149,26.2842 c -1.366,-0.6604 -4.261,-3.4457 -5.789,-3.8234 -2.895,-0.7083 -5.548,-0.4246 -6.353,0.2358"
     id="path115" />
  <path
     style="fill:none;stroke:#73d216;stroke-width:1.10897"
     d="m 158.391,26.2842 c -0.965,0.4725 -4.101,0.6134 -6.193,-0.3307 -1.366,-0.6604 -4.261,-3.4457 -5.789,-3.8234 -2.895,-0.7083 -5.548,-0.4246 -6.352,0.2358"
     id="path117" />
  <path
     style="fill:none;stroke:#73d216;stroke-width:1.10897"
     d="m 152.36,26.2842 c -0.965,0.4725 -4.102,0.6134 -6.273,-0.3307 -1.367,-0.6604 -4.261,-3.4457 -5.79,-3.8234 -2.894,-0.7083 -5.547,-0.4246 -6.351,0.2358"
     id="path119" />
  <path
     style="fill:none;stroke:#73d216;stroke-width:1.10897"
     d="m 146.249,26.2842 c -0.965,0.4725 -4.102,0.6134 -6.273,-0.3307 -1.367,-0.6604 -4.262,-3.4457 -5.788,-3.8234 -2.895,-0.7083 -5.55,-0.4246 -6.353,0.2358"
     id="path121" />
  <path
     style="fill:none;stroke:#73d216;stroke-width:1.10897"
     d="m 140.217,26.2842 c -0.965,0.4725 -4.101,0.6134 -6.271,-0.3307 -1.366,-0.6604 -4.261,-3.4457 -5.789,-3.8234 -2.895,-0.7083 -5.548,-0.4246 -6.353,0.2358"
     id="path123" />
  <path
     style="fill:none;stroke:#73d216;stroke-width:1.10897"
     d="m 134.188,26.2842 c -0.965,0.4725 -4.101,0.6134 -6.273,-0.3307 -1.366,-0.6604 -4.261,-3.4457 -5.789,-3.8234 -2.895,-0.7083 -5.548,-0.4246 -6.353,0.2358"
     id="path125" />
  <path
     style="fill:none;stroke:#73d216;stroke-width:1.10897"
     d="m 128.157,26.2842 c -0.965,0.4725 -4.102,0.6134 -6.273,-0.3307 -1.367,-0.6604 -4.261,-3.4457 -5.79,-3.8234 -2.894,-0.7083 -5.548,-0.4246 -6.351,0.2358"
     id="path127" />
  <path
     style="fill:none;stroke:#73d216;stroke-width:1.10897"
     d="m 122.126,26.2842 c -0.965,0.4725 -4.102,0.6134 -6.192,-0.3307 -1.366,-0.6604 -4.261,-3.4457 -5.789,-3.8234 -2.895,-0.7083 -5.548,-0.4246 -6.353,0.2358"
     id="path129" />
  <path
     style="fill:none;stroke:#73d216;stroke-width:1.10897"
     d="m 116.094,26.2842 c -0.965,0.4725 -4.099,0.6134 -6.191,-0.3307 -1.366,-0.6604 -4.261,-3.4457 -5.789,-3.8234 -2.895,-0.7083 -5.5483,-0.4246 -6.3532,0.2358"
     id="path131" />
  <path
     style="fill:none;stroke:#73d216;stroke-width:1.10897"
     d="m 110.065,26.2842 c -0.965,0.4725 -4.101,0.6134 -6.193,-0.3307 -1.367,-0.6604 -4.2614,-3.4457 -5.7896,-3.8234 -2.8947,-0.7083 -5.5478,-0.4246 -6.3511,0.2358"
     id="path133" />
  <path
     style="fill:none;stroke:#73d216;stroke-width:1.10897"
     d="m 104.034,26.2842 c -0.965,0.4725 -4.1017,0.6134 -6.1915,-0.3307 -1.3683,-0.6604 -4.263,-3.4457 -5.7896,-3.8234 -2.8947,-0.7083 -5.549,-0.4246 -6.3531,0.2358"
     id="path135" />
  <path
     style="fill:none;stroke:#4e9a06;stroke-width:5.21835"
     d="M 1.50512,99.5319 H 159.912"
     id="path1760" />
  <path
     style="fill:none;stroke:#73d216;stroke-width:1.10897"
     d="m 98.4789,101.62 c -0.9649,0.472 -4.1013,0.613 -6.1911,-0.331 -1.3666,-0.66 -4.2613,-3.4451 -5.789,-3.8231 -2.8948,-0.708 -5.5484,-0.424 -6.3525,0.236"
     id="path1762" />
  <path
     style="fill:none;stroke:#73d216;stroke-width:1.10897"
     d="m 92.4478,101.62 c -0.965,0.472 -4.0997,0.613 -6.2707,-0.331 -1.367,-0.66 -4.2618,-3.4451 -5.7895,-3.8231 -2.8948,-0.708 -5.5484,-0.424 -6.3525,0.236"
     id="path1764" />
  <path
     style="fill:none;stroke:#73d216;stroke-width:1.10897"
     d="m 86.4183,101.62 c -0.9649,0.472 -4.1009,0.613 -6.272,-0.331 -1.3669,-0.66 -4.2618,-3.4451 -5.7895,-3.8231 -2.8948,-0.708 -5.5483,-0.424 -6.3524,0.236"
     id="path1766" />
  <path
     style="fill:none;stroke:#73d216;stroke-width:1.10897"
     d="m 80.3071,101.62 c -0.9649,0.472 -4.1008,0.613 -6.272,-0.331 -1.3669,-0.66 -4.2616,-3.4451 -5.7895,-3.8231 -2.8948,-0.708 -5.5482,-0.424 -6.3523,0.236"
     id="path1768" />
  <path
     style="fill:none;stroke:#73d216;stroke-width:1.10897"
     d="m 74.2764,101.62 c -0.9649,0.472 -4.101,0.613 -6.272,-0.331 -1.367,-0.66 -4.2618,-3.4451 -5.7895,-3.8231 -2.8948,-0.708 -5.5484,-0.424 -6.3525,0.236"
     id="path1770" />
  <path
     style="fill:none;stroke:#73d216;stroke-width:1.10897"
     d="m 68.2456,101.62 c -0.9649,0.472 -4.1008,0.613 -6.272,-0.331 -1.3669,-0.66 -4.2618,-3.4451 -5.7895,-3.8231 -2.8948,-0.708 -5.5483,-0.424 -6.3524,0.236"
     id="path1772" />
  <path
     style="fill:none;stroke:#73d216;stroke-width:1.10897"
     d="m 62.2149,101.62 c -0.9649,0.472 -4.101,0.613 -6.272,-0.331 -1.3671,-0.66 -4.2618,-3.4451 -5.7895,-3.8231 -2.8948,-0.708 -5.5484,-0.424 -6.3525,0.236"
     id="path1774" />
  <path
     style="fill:none;stroke:#73d216;stroke-width:1.10897"
     d="m 56.1841,101.62 c -0.965,0.472 -4.1009,0.613 -6.272,-0.331 -1.3669,-0.66 -4.2617,-3.4451 -5.7896,-3.8231 -2.8947,-0.708 -5.5482,-0.424 -6.3523,0.236"
     id="path1776" />
  <path
     style="fill:none;stroke:#73d216;stroke-width:1.10897"
     d="m 50.1534,101.62 c -0.9649,0.472 -4.101,0.613 -6.272,-0.331 -1.3671,-0.66 -4.2618,-3.4451 -5.7896,-3.8231 -2.8947,-0.708 -5.5483,-0.424 -6.3524,0.236"
     id="path1778" />
  <path
     style="fill:none;stroke:#73d216;stroke-width:1.10897"
     d="m 44.1225,101.62 c -0.9649,0.472 -4.1008,0.613 -6.272,-0.331 -1.3669,-0.66 -4.2616,-3.4451 -5.7895,-3.8231 -2.8948,-0.708 -5.5482,-0.424 -6.3523,0.236"
     id="path1780" />
  <path
     style="fill:none;stroke:#73d216;stroke-width:1.10897"
     d="m 38.0918,101.62 c -0.9649,0.472 -4.101,0.613 -6.2719,-0.331 -1.3671,-0.66 -4.2619,-3.4451 -5.7896,-3.8231 -2.8947,-0.708 -5.5484,-0.424 -6.3525,0.236"
     id="path1782" />
  <path
     style="fill:none;stroke:#73d216;stroke-width:1.10897"
     d="m 32.061,101.62 c -0.9649,0.472 -4.1008,0.613 -6.272,-0.331 -1.3669,-0.66 -4.2616,-3.4451 -5.7895,-3.8231 -2.8948,-0.708 -5.5483,-0.424 -6.3524,0.236"
     id="path1784" />
  <path
     style="fill:none;stroke:#73d216;stroke-width:1.10897"
     d="m 26.0303,101.62 c -0.9649,0.472 -4.101,0.613 -6.272,-0.331 -1.367,-0.66 -4.2619,-3.4451 -5.7896,-3.8231 -2.8947,-0.708 -5.54838,-0.424 -6.35248,0.236"
     id="path1786" />
  <path
     style="fill:none;stroke:#73d216;stroke-width:1.10897"
     d="m 19.9995,101.62 c -0.9649,0.472 -4.1011,0.613 -6.1916,-0.331 -1.367,-0.66 -4.26178,-3.4451 -5.78948,-3.8231 -2.8948,-0.708 -5.5484,-0.424 -6.3525,0.236"
     id="path1788" />
  <path
     style="fill:none;stroke:#73d216;stroke-width:1.10897"
     d="m 13.8882,101.62 c -0.9649,0.472 -4.10098,0.613 -6.19148,-0.331 -1.367,-0.66 -4.2618,-3.4451 -5.7895,-3.8231"
     id="path1790" />
  <path
     style="fill:none;stroke:#73d216;stroke-width:1.10897"
     d="m 7.85742,101.62 c -0.9648,0.472 -4.1008,0.613 -6.1915,-0.331 -1.366906,-0.66 -0.08,-3.5401 -0.1617,-4.0121"
     id="path1792" />
  <path
     style="fill:none;stroke:#73d216;stroke-width:1.10897"
     d="M 160.304,101.422"
     id="path1794" />
  <path
     style="fill:none;stroke:#73d216;stroke-width:1.10897"
     d="m 158.867,101.62 c -0.964,0.472 -4.101,0.613 -6.192,-0.331 -1.367,-0.66 -4.262,-3.4451 -5.79,-3.8231 -2.895,-0.708 -5.548,-0.424 -6.351,0.236"
     id="path1798" />
  <path
     style="fill:none;stroke:#73d216;stroke-width:1.10897"
     d="m 152.836,101.62 c -0.965,0.472 -4.101,0.613 -6.273,-0.331 -1.366,-0.66 -4.261,-3.4451 -5.789,-3.8231 -2.895,-0.708 -5.548,-0.424 -6.351,0.236"
     id="path1800" />
  <path
     style="fill:none;stroke:#73d216;stroke-width:1.10897"
     d="m 146.725,101.62 c -0.965,0.472 -4.101,0.613 -6.273,-0.331 -1.366,-0.66 -4.261,-3.4451 -5.788,-3.8231 -2.894,-0.708 -5.549,-0.424 -6.352,0.236"
     id="path1802" />
  <path
     style="fill:none;stroke:#73d216;stroke-width:1.10897"
     d="m 140.694,101.62 c -0.965,0.472 -4.101,0.613 -6.271,-0.331 -1.367,-0.66 -4.262,-3.4451 -5.79,-3.8231 -2.895,-0.708 -5.548,-0.424 -6.353,0.236"
     id="path1804" />
  <path
     style="fill:none;stroke:#73d216;stroke-width:1.10897"
     d="m 134.664,101.62 c -0.964,0.472 -4.101,0.613 -6.272,-0.331 -1.367,-0.66 -4.262,-3.4451 -5.79,-3.8231 -2.895,-0.708 -5.548,-0.424 -6.353,0.236"
     id="path1806" />
  <path
     style="fill:none;stroke:#73d216;stroke-width:1.10897"
     d="m 128.633,101.62 c -0.965,0.472 -4.101,0.613 -6.273,-0.331 -1.366,-0.66 -4.261,-3.4451 -5.789,-3.8231 -2.895,-0.708 -5.548,-0.424 -6.351,0.236"
     id="path1808" />
  <path
     style="fill:none;stroke:#73d216;stroke-width:1.10897"
     d="m 122.602,101.62 c -0.965,0.472 -4.101,0.613 -6.191,-0.331 -1.367,-0.66 -4.261,-3.4451 -5.79,-3.8231 -2.894,-0.708 -5.548,-0.424 -6.352,0.236"
     id="path1810" />
  <path
     style="fill:none;stroke:#73d216;stroke-width:1.10897"
     d="m 116.571,101.62 c -0.965,0.472 -4.1,0.613 -6.191,-0.331 -1.367,-0.66 -4.262,-3.4451 -5.79,-3.8231 -2.895,-0.708 -5.5478,-0.424 -6.3527,0.236"
     id="path1812" />
  <path
     style="fill:none;stroke:#73d216;stroke-width:1.10897"
     d="m 110.541,101.62 c -0.965,0.472 -4.101,0.613 -6.192,-0.331 -1.367,-0.66 -4.262,-3.4451 -5.7901,-3.8231 -2.8947,-0.708 -5.5478,-0.424 -6.3511,0.236"
     id="path1814" />
  <path
     style="fill:none;stroke:#73d216;stroke-width:1.10897"
     d="m 104.51,101.62 c -0.965,0.472 -4.101,0.613 -6.191,-0.331 -1.3683,-0.66 -4.263,-3.4451 -5.7896,-3.8231 -2.8947,-0.708 -5.5482,-0.424 -6.3523,0.236"
     id="path1816" />
  <path
     style="fill:none;stroke:#4e9a06;stroke-width:5.21835"
     d="M 159.912,99.5319 H 318.319"
     id="path1818" />
  <path
     style="fill:none;stroke:#73d216;stroke-width:1.10897"
     d="m 256.886,101.62 c -0.965,0.472 -4.101,0.613 -6.191,-0.331 -1.367,-0.66 -4.262,-3.4451 -5.79,-3.8231 -2.895,-0.708 -5.548,-0.424 -6.353,0.236"
     id="path1820" />
  <path
     style="fill:none;stroke:#73d216;stroke-width:1.10897"
     d="m 250.855,101.62 c -0.965,0.472 -4.1,0.613 -6.271,-0.331 -1.367,-0.66 -4.262,-3.4451 -5.79,-3.8231 -2.895,-0.708 -5.548,-0.424 -6.353,0.236"
     id="path1822" />
  <path
     style="fill:none;stroke:#73d216;stroke-width:1.10897"
     d="m 244.825,101.62 c -0.965,0.472 -4.101,0.613 -6.273,-0.331 -1.366,-0.66 -4.261,-3.4451 -5.789,-3.8231 -2.895,-0.708 -5.548,-0.424 -6.351,0.236"
     id="path1824" />
  <path
     style="fill:none;stroke:#73d216;stroke-width:1.10897"
     d="m 238.714,101.62 c -0.965,0.472 -4.101,0.613 -6.273,-0.331 -1.366,-0.66 -4.261,-3.4451 -5.789,-3.8231 -2.895,-0.708 -5.548,-0.424 -6.351,0.236"
     id="path1826" />
  <path
     style="fill:none;stroke:#73d216;stroke-width:1.10897"
     d="m 232.683,101.62 c -0.965,0.472 -4.101,0.613 -6.271,-0.331 -1.368,-0.66 -4.263,-3.4451 -5.79,-3.8231 -2.895,-0.708 -5.549,-0.424 -6.353,0.236"
     id="path1828" />
  <path
     style="fill:none;stroke:#73d216;stroke-width:1.10897"
     d="m 226.652,101.62 c -0.965,0.472 -4.1,0.613 -6.271,-0.331 -1.367,-0.66 -4.262,-3.4451 -5.79,-3.8231 -2.895,-0.708 -5.548,-0.424 -6.353,0.236"
     id="path1830" />
  <path
     style="fill:none;stroke:#73d216;stroke-width:1.10897"
     d="m 220.622,101.62 c -0.965,0.472 -4.101,0.613 -6.273,-0.331 -1.366,-0.66 -4.261,-3.4451 -5.789,-3.8231 -2.895,-0.708 -5.548,-0.424 -6.353,0.236"
     id="path1832" />
  <path
     style="fill:none;stroke:#73d216;stroke-width:1.10897"
     d="m 214.591,101.62 c -0.965,0.472 -4.101,0.613 -6.273,-0.331 -1.366,-0.66 -4.261,-3.4451 -5.789,-3.8231 -2.895,-0.708 -5.548,-0.424 -6.351,0.236"
     id="path1834" />
  <path
     style="fill:none;stroke:#73d216;stroke-width:1.10897"
     d="m 208.56,101.62 c -0.965,0.472 -4.101,0.613 -6.271,-0.331 -1.369,-0.66 -4.263,-3.4451 -5.79,-3.8231 -2.895,-0.708 -5.549,-0.424 -6.353,0.236"
     id="path1836" />
  <path
     style="fill:none;stroke:#73d216;stroke-width:1.10897"
     d="m 202.529,101.62 c -0.965,0.472 -4.1,0.613 -6.271,-0.331 -1.367,-0.66 -4.262,-3.4451 -5.79,-3.8231 -2.895,-0.708 -5.548,-0.424 -6.353,0.236"
     id="path1838" />
  <path
     style="fill:none;stroke:#73d216;stroke-width:1.10897"
     d="m 196.499,101.62 c -0.965,0.472 -4.101,0.613 -6.273,-0.331 -1.366,-0.66 -4.261,-3.4451 -5.789,-3.8231 -2.895,-0.708 -5.548,-0.424 -6.353,0.236"
     id="path1840" />
  <path
     style="fill:none;stroke:#73d216;stroke-width:1.10897"
     d="m 190.468,101.62 c -0.965,0.472 -4.101,0.613 -6.273,-0.331 -1.366,-0.66 -4.261,-3.4451 -5.789,-3.8231 -2.895,-0.708 -5.548,-0.424 -6.352,0.236"
     id="path1842" />
  <path
     style="fill:none;stroke:#73d216;stroke-width:1.10897"
     d="m 184.437,101.62 c -0.965,0.472 -4.102,0.613 -6.271,-0.331 -1.369,-0.66 -4.263,-3.4451 -5.79,-3.8231 -2.894,-0.708 -5.549,-0.424 -6.352,0.236"
     id="path1844" />
  <path
     style="fill:none;stroke:#73d216;stroke-width:1.10897"
     d="m 178.406,101.62 c -0.965,0.472 -4.1,0.613 -6.192,-0.331 -1.366,-0.66 -4.26,-3.4451 -5.788,-3.8231 -2.896,-0.708 -5.549,-0.424 -6.354,0.236"
     id="path1846" />
  <path
     style="fill:none;stroke:#73d216;stroke-width:1.10897"
     d="m 312.145,97.7989 c 0.965,-0.473 4.102,-0.613 6.193,0.331 1.367,0.66 0.09,3.5401 0.153,4.0111"
     id="path1850" />
  <path
     style="fill:none;stroke:#73d216;stroke-width:1.10897"
     d="M 317.193,101.62"
     id="path1852" />
  <path
     style="fill:none;stroke:#73d216;stroke-width:1.10897"
     d="m 317.033,101.62 c -1.367,-0.661 -4.262,-3.4451 -5.79,-3.8231 -2.895,-0.708 -5.548,-0.425 -6.353,0.236"
     id="path1854" />
  <path
     style="fill:none;stroke:#73d216;stroke-width:1.10897"
     d="m 317.274,101.62 c -0.965,0.472 -4.101,0.613 -6.192,-0.331 -1.367,-0.66 -4.262,-3.4451 -5.79,-3.8231 -2.895,-0.708 -5.548,-0.424 -6.351,0.236"
     id="path1856" />
  <path
     style="fill:none;stroke:#73d216;stroke-width:1.10897"
     d="m 311.243,101.62 c -0.965,0.472 -4.101,0.613 -6.273,-0.331 -1.366,-0.66 -4.261,-3.4451 -5.789,-3.8231 -2.895,-0.708 -5.548,-0.424 -6.351,0.236"
     id="path1858" />
  <path
     style="fill:none;stroke:#73d216;stroke-width:1.10897"
     d="m 305.132,101.62 c -0.965,0.472 -4.101,0.613 -6.273,-0.331 -1.366,-0.66 -4.261,-3.4451 -5.788,-3.8231 -2.894,-0.708 -5.549,-0.424 -6.352,0.236"
     id="path1860" />
  <path
     style="fill:none;stroke:#73d216;stroke-width:1.10897"
     d="m 299.101,101.62 c -0.965,0.472 -4.101,0.613 -6.271,-0.331 -1.367,-0.66 -4.262,-3.4451 -5.79,-3.8231 -2.895,-0.708 -5.548,-0.424 -6.353,0.236"
     id="path1862" />
  <path
     style="fill:none;stroke:#73d216;stroke-width:1.10897"
     d="m 293.071,101.62 c -0.965,0.472 -4.101,0.613 -6.272,-0.331 -1.367,-0.66 -4.262,-3.4451 -5.79,-3.8231 -2.895,-0.708 -5.548,-0.424 -6.353,0.236"
     id="path1864" />
  <path
     style="fill:none;stroke:#73d216;stroke-width:1.10897"
     d="m 287.04,101.62 c -0.965,0.472 -4.101,0.613 -6.273,-0.331 -1.366,-0.66 -4.261,-3.4451 -5.789,-3.8231 -2.895,-0.708 -5.548,-0.424 -6.351,0.236"
     id="path1866" />
  <path
     style="fill:none;stroke:#73d216;stroke-width:1.10897"
     d="m 281.009,101.62 c -0.965,0.472 -4.101,0.613 -6.191,-0.331 -1.367,-0.66 -4.261,-3.4451 -5.79,-3.8231 -2.894,-0.708 -5.548,-0.424 -6.353,0.236"
     id="path1868" />
  <path
     style="fill:none;stroke:#73d216;stroke-width:1.10897"
     d="m 274.978,101.62 c -0.965,0.472 -4.1,0.613 -6.191,-0.331 -1.367,-0.66 -4.262,-3.4451 -5.79,-3.8231 -2.895,-0.708 -5.548,-0.424 -6.353,0.236"
     id="path1870" />
  <path
     style="fill:none;stroke:#73d216;stroke-width:1.10897"
     d="m 268.948,101.62 c -0.965,0.472 -4.101,0.613 -6.193,-0.331 -1.366,-0.66 -4.261,-3.4451 -5.789,-3.8231 -2.895,-0.708 -5.548,-0.424 -6.351,0.236"
     id="path1872" />
  <path
     style="fill:none;stroke:#73d216;stroke-width:1.10897"
     d="m 262.917,101.62 c -0.965,0.472 -4.101,0.613 -6.191,-0.331 -1.368,-0.66 -4.263,-3.4451 -5.79,-3.8231 -2.894,-0.708 -5.547,-0.424 -6.352,0.236"
     id="path1874" />
  <path
     style="fill:none;stroke:#73d216;stroke-width:1.10897"
     d="m 165.363,101.669 c -0.965,0.472 -4.101,0.613 -6.193,-0.331 -1.366,-0.66 -4.261,-3.4451 -5.789,-3.8231 -2.895,-0.708 -5.548,-0.424 -6.351,0.236"
     id="path1968" />
  <path
     style="fill:none;stroke:#73d216;stroke-width:1.10897"
     d="m 171.818,101.669 c -0.965,0.472 -4.101,0.613 -6.193,-0.331 -1.366,-0.66 -4.261,-3.4451 -5.789,-3.8231 -2.895,-0.708 -5.548,-0.424 -6.351,0.236"
     id="path2130" />
  <path
     style="fill:none;stroke:#73d216;stroke-width:1.10897"
     d="m 152.852,22.254 c 0.965,-0.4725 4.101,-0.6134 6.192,0.3307 1.367,0.6604 0.08,3.5406 0.154,4.0122"
     id="path2132" />
  <text
     xml:space="preserve"
     style="color:#000000;font-style:italic;font-variant:normal;font-weight:normal;font-stretch:normal;font-size:28px;line-height:35px;font-family:'Trebuchet MS';-inkscape-font-specification:'Trebuchet MS, Italic';text-indent:0;text-align:start;text-decoration:none;text-decoration-line:none;text-decoration-style:solid;text-decoration-color:#000000;letter-spacing:0px;word-spacing:0px;text-transform:none;writing-mode:lr-tb;direction:ltr;baseline-shift:baseline;text-anchor:start;white-space:normal;clip-rule:nonzero;display:inline;overflow:visible;visibility:visible;opacity:1;isolation:auto;mix-blend-mode:normal;color-interpolation:sRGB;color-interpolation-filters:linearRGB;solid-color:#000000;solid-opacity:1;fill:#4e9a06;fill-opacity:1;fill-rule:nonzero;stroke:none;stroke-width:1px;stroke-linecap:butt;stroke-linejoin:miter;stroke-miterlimit:4;stroke-dasharray:none;stroke-dashoffset:0;stroke-opacity:1;color-rendering:auto;image-rendering:auto;shape-rendering:auto;text-rendering:auto;enable-background:accumulate"
     x="56.4367"
     y="50.6197"
     id="text13139"><tspan
       sodipodi:role="line"
       id="tspan13137"
       x="56.4367"
       y="50.6197">1kg</tspan></text>
  <text
     xml:space="preserve"
     style="color:#000000;font-style:italic;font-variant:normal;font-weight:normal;font-stretch:normal;font-size:28px;line-height:35px;font-family:'Trebuchet MS';-inkscape-font-specification:'Trebuchet MS, Italic';text-indent:0;text-align:start;text-decoration:none;text-decoration-line:none;text-decoration-style:solid;text-decoration-color:#000000;letter-spacing:0px;word-spacing:0px;text-transform:none;writing-mode:lr-tb;direction:ltr;baseline-shift:baseline;text-anchor:start;white-space:normal;clip-rule:nonzero;display:inline;overflow:visible;visibility:visible;opacity:1;isolation:auto;mix-blend-mode:normal;color-interpolation:sRGB;color-interpolation-filters:linearRGB;solid-color:#000000;solid-opacity:1;fill:#4e9a06;fill-opacity:1;fill-rule:nonzero;stroke:none;stroke-width:1px;stroke-linecap:butt;stroke-linejoin:miter;stroke-miterlimit:4;stroke-dasharray:none;stroke-dashoffset:0;stroke-opacity:1;color-rendering:auto;image-rendering:auto;shape-rendering:auto;text-rendering:auto;enable-background:accumulate"
     x="139.837"
     y="128.326"
     id="text13979"><tspan
       sodipodi:role="line"
       id="tspan13977"
       x="139.837"
       y="128.326">2kg</tspan></text>
  <path
     style="fill:none;fill-rule:evenodd;stroke:#666666;stroke-width:1px;stroke-linecap:butt;stroke-linejoin:miter;stroke-opacity:1;marker-end:url(#Arrow1Lend6141)"
     d="M 190.779,83.5397 H 316.511"
     id="path16524" />
  <path
     style="fill:none;fill-rule:evenodd;stroke:#666666;stroke-width:1px;stroke-linecap:butt;stroke-linejoin:miter;stroke-opacity:1;marker-end:url(#Arrow1Lend6516)"
     d="M 128.465,83.5397 H 2.73423"
     id="path16907" />
  <text
     xml:space="preserve"
     style="color:#000000;font-style:normal;font-variant:normal;font-weight:normal;font-stretch:normal;font-size:20px;line-height:25px;font-family:'Trebuchet MS';-inkscape-font-specification:'Trebuchet MS';text-indent:0;text-align:start;text-decoration:none;text-decoration-line:none;text-decoration-style:solid;text-decoration-color:#000000;letter-spacing:0px;word-spacing:0px;text-transform:none;writing-mode:lr-tb;direction:ltr;baseline-shift:baseline;text-anchor:start;white-space:normal;clip-rule:nonzero;display:inline;overflow:visible;visibility:visible;opacity:1;isolation:auto;mix-blend-mode:normal;color-interpolation:sRGB;color-interpolation-filters:linearRGB;solid-color:#000000;solid-opacity:1;fill:#666666;fill-opacity:1;fill-rule:nonzero;stroke:none;stroke-width:1px;stroke-linecap:butt;stroke-linejoin:miter;stroke-miterlimit:4;stroke-dasharray:none;stroke-dashoffset:0;stroke-opacity:1;color-rendering:auto;image-rendering:auto;shape-rendering:auto;text-rendering:auto;enable-background:accumulate"
     x="143.15"
     y="88.6967"
     id="text17615"><tspan
       sodipodi:role="line"
       id="tspan17613"
       x="143.15"
       y="88.6967">40m</tspan></text>
  <path
     style="fill:none;fill-rule:evenodd;stroke:#666666;stroke-width:1px;stroke-linecap:butt;stroke-linejoin:miter;stroke-opacity:1;marker-end:url(#Arrow1Lend183)"
     d="M 52.479,5.83398 H 3.92413"
     id="path18323" />
  <text
     xml:space="preserve"
     style="color:#000000;font-style:normal;font-variant:normal;font-weight:normal;font-stretch:normal;font-size:20px;line-height:25px;font-family:'Trebuchet MS';-inkscape-font-specification:'Trebuchet MS';text-indent:0;text-align:start;text-decoration:none;text-decoration-line:none;text-decoration-style:solid;text-decoration-color:#000000;letter-spacing:0px;word-spacing:0px;text-transform:none;writing-mode:lr-tb;direction:ltr;baseline-shift:baseline;text-anchor:start;white-space:normal;clip-rule:nonzero;display:inline;overflow:visible;visibility:visible;opacity:1;isolation:auto;mix-blend-mode:normal;color-interpolation:sRGB;color-interpolation-filters:linearRGB;solid-color:#000000;solid-opacity:1;fill:#666666;fill-opacity:1;fill-rule:nonzero;stroke:none;stroke-width:1px;stroke-linecap:butt;stroke-linejoin:miter;stroke-miterlimit:4;stroke-dasharray:none;stroke-dashoffset:0;stroke-opacity:1;color-rendering:auto;image-rendering:auto;shape-rendering:auto;text-rendering:auto;enable-background:accumulate"
     x="61.4777"
     y="14.5605"
     id="text18327"><tspan
       sodipodi:role="line"
       id="tspan18325"
       x="61.4777"
       y="14.5605">20m</tspan></text>
  <path
     style="fill:none;fill-rule:evenodd;stroke:#666666;stroke-width:1px;stroke-linecap:butt;stroke-linejoin:miter;stroke-opacity:1;marker-end:url(#Arrow1Lend183)"
     d="m 108.28,5.83398 h 49.24"
     id="path19947" />
  <text
     xml:space="preserve"
     id="text21985"
     style="color:#000000;font-style:italic;font-variant:normal;font-weight:normal;font-stretch:normal;font-size:20px;line-height:25px;font-family:'Trebuchet MS';-inkscape-font-specification:'Trebuchet MS, Italic';text-indent:0;text-align:start;text-decoration:none;text-decoration-line:none;text-decoration-style:solid;text-decoration-color:#000000;letter-spacing:0px;word-spacing:0px;text-transform:none;writing-mode:lr-tb;direction:ltr;baseline-shift:baseline;white-space:pre;shape-inside:url(#rect21987);clip-rule:nonzero;display:inline;overflow:visible;visibility:visible;opacity:1;isolation:auto;mix-blend-mode:normal;color-interpolation:sRGB;color-interpolation-filters:linearRGB;solid-color:#000000;solid-opacity:1;fill:#000000;fill-opacity:1;fill-rule:nonzero;stroke:none;stroke-width:1px;stroke-linecap:butt;stroke-linejoin:miter;stroke-miterlimit:4;stroke-dasharray:none;stroke-dashoffset:0;stroke-opacity:1;color-rendering:auto;image-rendering:auto;shape-rendering:auto;text-rendering:auto;enable-background:accumulate"
     transform="translate(0,4.673e-5)" />
</svg>
