<?xml version="1.0" encoding="UTF-8" standalone="no"?>
<!-- Copyright 2017 mathsisfun.com -->
<svg xmlns="http://www.w3.org/2000/svg" width="323.2" height="155.6" version="1.1">
<defs/>
<rect x="17" y="-0" ry="22" width="149.4" height="91.2" style="color:black; overflow:visible; opacity:0.26; fill:#fce94f; stroke-width:8;"/>
<text x="49.8" y="39" style="font-family:'Comic Sans MS'; font-size:27.8px; color:black; overflow:visible; fill:#f57900; stroke-width:1px;">x</text>
<text x="66.2" y="28.4" style="font-family:'Comic Sans MS'; font-size:20.7px; color:black; overflow:visible; fill:#f57900; stroke-width:1px;">2</text>
<text x="86.7" y="39" style="font-family:'Comic Sans MS'; font-size:27.8px; color:black; overflow:visible; fill:#f57900; stroke-width:1px;">+ 5</text>
<text x="54.6" y="77.7" style="font-family:'Comic Sans MS'; font-size:27.8px; color:black; overflow:visible; fill:#204a87; stroke-width:1px;">x</text>
<text x="83.1" y="77.7" style="font-family:'Comic Sans MS'; font-size:27.8px; color:black; overflow:visible; fill:#204a87; stroke-width:1px;">+ 2</text>
<path style="fill:#204a87; fill-opacity:0.75; stroke:black; stroke-width:2;" d="m 40.6,47.8 h 97.2"/>
<text x="-1.3" y="118.3" style="font-family:'Comic Sans MS'; font-size:20px; color:black; overflow:visible; fill:#4e9a06; stroke-width:1px;">A Rational Expression</text>
<text x="99.2" y="136.7" style="font-family:'Comic Sans MS'; text-align:center; text-anchor:middle; font-size:12.6px; font-style:italic; color:black; overflow:visible; fill:#73d216; stroke-width:1px;">because it is a &quot;ratio&quot;</text>
<text x="206.4" y="37.4" style="font-family:'Comic Sans MS'; font-size:20.7px; font-style:italic; color:black; overflow:visible; fill:#f57900; stroke-width:1px;">numerator</text>
<text x="204.5" y="72.9" style="font-family:'Comic Sans MS'; font-size:20.7px; font-style:italic; color:black; overflow:visible; fill:#204a87; stroke-width:1px;">denominator</text>
<path style="color:black; overflow:visible; fill:#f57900; stroke-width:8;" d="m 156.3,30.8 c 5.8,-1.9 11.9,-2.9 17.9,-2.2 5.5,0.4 10.9,1.5 16.4,2.3 4,0.6 7.9,0.1 11.8,-0.6 -0.8,0.9 -1.6,1.9 -2.3,2.8 -5.4,1 -10.9,0.7 -16.2,-0.4 -6.6,-1 -13.4,-2.2 -20.1,-1.4 -1.8,0 -3.6,1.3 -5.2,0.3 -0.8,-0.3 -1.5,-0.6 -2.3,-0.9 z"/>
<path style="color:black; overflow:visible; fill:#204a87; stroke-width:8;" d="m 152.5,67.7 c 3.9,-1.5 8,-2.9 12.2,-3.5 7.5,-1.1 15.1,0.6 22.6,1.3 3.5,0.4 7.1,0.9 10.6,0.6 -0.8,0.9 -1.6,1.8 -2.5,2.7 -6.8,0 -13.4,-1.2 -20.1,-1.8 -4.5,-0.6 -9,-0.6 -13.4,0.2 -2.2,0.3 1.8,-0.5 -0.4,0 -2.1,0.2 -4.2,1.9 -6.2,1.5 -0.9,-0.3 -1.8,-0.6 -2.8,-1 z"/>
<path style="color:black; overflow:visible; fill:#f57900; stroke-width:8;" d="m 157,30.3 c 3.6,-1.9 7.1,-3.9 10.2,-6.4 1.2,0.3 2.4,0.6 3.5,0.9 -3.2,2.5 -6.7,4.7 -10.3,6.6 -1.2,-0.4 -2.3,-0.7 -3.5,-1.1 z"/>
<path style="color:black; overflow:visible; fill:#f57900; stroke-width:8;" d="m 162.5,29.8 c 2.7,0.3 5.7,0.9 7.9,2.6 1.3,1.1 2.6,2.5 0.3,2.9 -1.5,1.1 -2.4,0.5 -3.4,-1 -2.2,-1.3 -4.9,-1.7 -7.5,-2 0.9,-0.8 1.8,-1.7 2.7,-2.5 z"/>
<path style="color:black; overflow:visible; fill:#204a87; stroke-width:8;" d="m 152,67.1 c 3.4,-1.3 6.2,-3.8 8.9,-6.1 1.2,0.2 2.4,0.5 3.6,0.7 -2.7,2.6 -5.6,5.1 -9,6.7 -1.1,-0.4 -2.3,-0.8 -3.4,-1.3 z"/>
<path style="color:black; overflow:visible; fill:#204a87; stroke-width:8;" d="m 156.3,66 c 3.4,0.1 6.2,2.5 9.1,4.1 -1,0.7 -2,1.3 -3,2 -2.7,-1.4 -5.3,-3.6 -8.5,-3.3 0.8,-0.9 1.6,-1.8 2.4,-2.8 z"/>
<text x="99.2" y="151.8" style="font-family:'Comic Sans MS'; text-align:center; text-anchor:middle; font-size:12.6px; font-style:italic; color:black; overflow:visible; fill:#73d216; stroke-width:1px;">of two polynomials</text>
</svg>
