<?xml version="1.0" encoding="UTF-8" standalone="no"?>
<svg
   xmlns:dc="http://purl.org/dc/elements/1.1/"
   xmlns:cc="http://creativecommons.org/ns#"
   xmlns:rdf="http://www.w3.org/1999/02/22-rdf-syntax-ns#"
   xmlns:svg="http://www.w3.org/2000/svg"
   xmlns="http://www.w3.org/2000/svg"
   xmlns:xlink="http://www.w3.org/1999/xlink"
   xmlns:sodipodi="http://sodipodi.sourceforge.net/DTD/sodipodi-0.dtd"
   xmlns:inkscape="http://www.inkscape.org/namespaces/inkscape"
   width="130.4"
   height="57.3"
   version="1.1"
   id="svg31"
   sodipodi:docname="rationalize-denom1.svg"
   inkscape:version="1.0.1 (3bc2e813f5, 2020-09-07)">
  <metadata
     id="metadata35">
    <rdf:RDF>
      <cc:Work
         rdf:about="">
        <dc:format>image/svg+xml</dc:format>
        <dc:type
           rdf:resource="http://purl.org/dc/dcmitype/StillImage" />
      </cc:Work>
    </rdf:RDF>
  </metadata>
  <sodipodi:namedview
     pagecolor="#ffffff"
     bordercolor="#666666"
     borderopacity="1"
     objecttolerance="10"
     gridtolerance="10"
     guidetolerance="10"
     inkscape:pageopacity="0"
     inkscape:pageshadow="2"
     inkscape:window-width="640"
     inkscape:window-height="480"
     id="namedview33"
     showgrid="false"
     inkscape:current-layer="svg31" />
  <defs
     id="defs2" />
  <text
     x="14.72"
     y="22.781"
     style="color:#000000;font-size:24px;font-family:'Comic Sans MS';overflow:visible;fill:#005c94;stroke-width:1px;"
     id="text4">1</text>
  <path
     style="fill:#000000;stroke:#005c94;stroke-width:1.28"
     d="m -0.78,29.181 h 36.6"
     id="path6" />
  <text
     x="108.42"
     y="52.381"
     style="color:#000000;font-size:24px;font-family:'Comic Sans MS';overflow:visible;fill:#005c94;stroke-width:1px;"
     id="text8">2</text>
  <g
     transform="rotate(-3.07124,-1898.36,3132.57)"
     id="g16">
    <path
       style="color:#000000;overflow:visible;fill:#729fcf;stroke-width:2"
       d="m 207.1,138 c 0.5,-0.3 2.5,-1.4 1,-0.5 -0.5,0.3 -1.5,0.9 -0.3,0.2 0.5,-0.3 1.8,-1 0.5,-0.3 -1.9,1 1.2,-0.8 1.8,-0.9 2.7,-1.1 5.5,-2.1 8.4,-2.1 5.3,-0.4 10.3,1.5 15.1,3.3 3.1,0.9 6.4,1.2 9.6,0.4 0.9,-0.5 1.4,-0.7 1,0.4 -0.1,0.6 -0.2,1.2 -0.3,1.8 -3.2,1.1 -6.8,0.9 -10.1,0.2 -3.5,-1 -6.9,-2.6 -10.5,-3.3 -3.7,-0.7 -7.7,-0.5 -11.2,1 -1.1,0.4 -2.7,1 -3.5,1.6 0.6,-0.3 2.2,-1.3 0.8,-0.5 -0.7,0.4 -1.2,0.7 -0.2,0.1 2,-1.2 -2.5,1.4 -0.2,0.2 1.5,-0.4 0.1,-0.7 -0.5,-1 -0.5,-0.2 -0.9,-0.4 -1.4,-0.6 z"
       id="path10" />
    <path
       style="color:#000000;overflow:visible;fill:#729fcf;stroke-width:2"
       d="m 232.6,130.4 c 1.7,1.9 3.6,3.8 6,4.9 3.1,1.5 6.5,2.9 10,2.9 0.2,0.2 -0.4,1 -0.5,1.4 -0.2,1 -0.8,1.4 -1.9,1 -4,-0.5 -7.8,-2.1 -11.2,-4.2 -1.8,-1.1 -3.2,-2.7 -4.7,-4.2 0.8,-0.6 1.5,-1.2 2.3,-1.7 z"
       id="path12" />
    <path
       style="color:#000000;overflow:visible;fill:#729fcf;stroke-width:2"
       d="m 229.4,145 c 5,-3.2 10.7,-5.2 16.5,-5.9 1,0 2.7,-0.6 1.7,0.8 -0.2,0.5 -0.4,1.1 -0.6,1.6 -5.3,0.5 -10.5,2.1 -15.2,4.7 0.6,-0.3 2.3,-1.3 0.8,-0.4 -0.6,0.5 -1.3,-0.1 -1.9,-0.2 -0.4,-0.2 -0.9,-0.3 -1.3,-0.5 z"
       id="path14" />
  </g>
  <g
     id="id1"
     transform="matrix(0.6,0,0,0.6,-86.4817,-35.1508)"
     style="fill:#005c94">
    <text
       x="144.4"
       y="150.4"
       transform="scale(0.995524,1.0045)"
       style="color:#000000;font-size:44.9px;font-family:'Comic Sans MS';overflow:visible;fill:#005c94;stroke-width:1px"
       id="text18">√</text>
    <text
       x="166.2"
       y="152.1"
       style="color:#000000;font-size:40px;font-family:'Comic Sans MS';overflow:visible;fill:#005c94;stroke-width:1px"
       id="text20">2</text>
    <path
       style="fill:#005c94;stroke:#204a87;stroke-width:4.17;stroke-linecap:round"
       d="m 166.6,117.5 15.9,0.5 14.3,-0.5"
       id="path22" />
  </g>
  <use
     transform="translate(96.905,-31.8132)"
     xlink:href="#id1"
     x="0"
     y="0"
     id="use25"
     width="100%"
     height="100%"
     style="fill:#005c94" />
  <path
     style="fill:#000000;stroke:#005c94;stroke-width:1.28"
     d="m 95.22,29.181 h 36.6"
     id="path27" />
</svg>
