<?xml version="1.0" encoding="UTF-8" standalone="no"?>
<!-- Copyright 2021 mathsisfun.com -->

<svg
   width="183.491"
   height="174.506"
   version="1.1"
   style="stroke-width:0.2"
   id="svg301"
   sodipodi:docname="sage-parens.svg"
   inkscape:version="1.1 (c68e22c387, 2021-05-23)"
   xmlns:inkscape="http://www.inkscape.org/namespaces/inkscape"
   xmlns:sodipodi="http://sodipodi.sourceforge.net/DTD/sodipodi-0.dtd"
   xmlns:xlink="http://www.w3.org/1999/xlink"
   xmlns="http://www.w3.org/2000/svg"
   xmlns:svg="http://www.w3.org/2000/svg">
  <sodipodi:namedview
     id="namedview303"
     pagecolor="#ffffff"
     bordercolor="#666666"
     borderopacity="1.0"
     inkscape:pageshadow="2"
     inkscape:pageopacity="0.0"
     inkscape:pagecheckerboard="0"
     showgrid="false"
     inkscape:current-layer="svg301"
     inkscape:snap-global="false"
     showguides="false" />
  <defs
     id="defs108">
    <linearGradient
       inkscape:collect="always"
       id="linearGradient53008">
      <stop
         style="stop-color:#503419;stop-opacity:1"
         offset="0"
         id="stop53004" />
      <stop
         style="stop-color:#cb9054;stop-opacity:0"
         offset="1"
         id="stop53006" />
    </linearGradient>
    <linearGradient
       inkscape:collect="always"
       id="linearGradient35722">
      <stop
         style="stop-color:#c37f3a;stop-opacity:1"
         offset="0"
         id="stop35718" />
      <stop
         style="stop-color:#cd9359;stop-opacity:1;"
         offset="0.167326"
         id="stop36560" />
      <stop
         style="stop-color:#c88849;stop-opacity:1"
         offset="0.44492"
         id="stop37202" />
      <stop
         style="stop-color:#d09962;stop-opacity:1"
         offset="0.737595"
         id="stop36238" />
      <stop
         style="stop-color:#d09b65;stop-opacity:1"
         offset="1"
         id="stop35720" />
    </linearGradient>
    <linearGradient
       inkscape:collect="always"
       id="linearGradient34386">
      <stop
         style="stop-color:#5a3d23;stop-opacity:1"
         offset="0"
         id="stop34382" />
      <stop
         style="stop-color:#b57a46;stop-opacity:1;"
         offset="0.336736"
         id="stop34646" />
      <stop
         style="stop-color:#b57a46;stop-opacity:1"
         offset="1"
         id="stop34384" />
    </linearGradient>
    <linearGradient
       inkscape:collect="always"
       id="linearGradient33505">
      <stop
         style="stop-color:#d29d66;stop-opacity:1"
         offset="0"
         id="stop33501" />
      <stop
         style="stop-color:#b97c3e;stop-opacity:1"
         offset="0.605071"
         id="stop33829" />
      <stop
         style="stop-color:#764c23;stop-opacity:1"
         offset="1"
         id="stop33503" />
    </linearGradient>
    <linearGradient
       inkscape:collect="always"
       id="linearGradient30833">
      <stop
         style="stop-color:#cb8d4e;stop-opacity:1;"
         offset="0"
         id="stop30829" />
      <stop
         style="stop-color:#cb8d4e;stop-opacity:1;"
         offset="0.869514"
         id="stop31157" />
      <stop
         style="stop-color:#714921;stop-opacity:1"
         offset="1"
         id="stop30831" />
    </linearGradient>
    <inkscape:path-effect
       effect="skeletal"
       id="path-effect13724"
       is_visible="true"
       lpeversion="1"
       pattern="M 0,18.8679 C 0,8.45283 8.45283,0 18.8679,0 29.283,0 37.7358,8.45283 37.7358,18.8679 37.7358,29.283 29.283,37.7358 18.8679,37.7358 8.45283,37.7358 0,29.283 0,18.8679 Z"
       copytype="single_stretched"
       prop_scale="1"
       scale_y_rel="false"
       spacing="0"
       normal_offset="0"
       tang_offset="0"
       prop_units="false"
       vertical_pattern="false"
       hide_knot="false"
       fuse_tolerance="0" />
    <inkscape:path-effect
       effect="skeletal"
       id="path-effect13508"
       is_visible="true"
       lpeversion="1"
       pattern="m 181.424,124.703 c 2.278,0 4.127,1.85 4.127,4.129 0,2.277 -1.849,4.128 -4.127,4.128 -2.279,0 -4.128,-1.851 -4.128,-4.128 0,-2.279 1.849,-4.129 4.128,-4.129 z"
       copytype="single_stretched"
       prop_scale="1"
       scale_y_rel="false"
       spacing="0"
       normal_offset="0"
       tang_offset="0"
       prop_units="false"
       vertical_pattern="false"
       hide_knot="false"
       fuse_tolerance="0" />
    <linearGradient
       inkscape:collect="always"
       id="linearGradient48715">
      <stop
         style="stop-color:#dfc9b4;stop-opacity:1"
         offset="0"
         id="stop48711" />
      <stop
         style="stop-color:#dfc9b4;stop-opacity:0"
         offset="1"
         id="stop48713" />
    </linearGradient>
    <linearGradient
       inkscape:collect="always"
       id="linearGradient47371">
      <stop
         style="stop-color:#d7d0c6;stop-opacity:0.724806"
         offset="0"
         id="stop47367" />
      <stop
         style="stop-color:#695b49;stop-opacity:0"
         offset="1"
         id="stop47369" />
    </linearGradient>
    <linearGradient
       id="id14">
      <stop
         offset="0"
         style="stop-color:#4c4b1f;stop-opacity:1"
         id="stop2" />
      <stop
         offset="1"
         style="stop-color:#ecffba;stop-opacity:0"
         id="stop4" />
    </linearGradient>
    <linearGradient
       id="id13">
      <stop
         offset="0"
         style="stop-color:#5e5d26;stop-opacity:1"
         id="stop7" />
      <stop
         offset="1"
         style="stop-color:#ecffba;stop-opacity:1"
         id="stop9" />
    </linearGradient>
    <linearGradient
       id="id11">
      <stop
         offset="0"
         style="stop-color:#c4a000;stop-opacity:0"
         id="stop12" />
      <stop
         offset="1"
         style="stop-color:white;stop-opacity:1"
         id="stop14" />
    </linearGradient>
    <linearGradient
       id="id9">
      <stop
         offset="0"
         style="stop-color:#a7a748;stop-opacity:1"
         id="stop17" />
      <stop
         offset="0.257"
         style="stop-color:#5f5f29;stop-opacity:1"
         id="stop19" />
      <stop
         offset="1"
         style="stop-color:#5a5a27;stop-opacity:0"
         id="stop21" />
    </linearGradient>
    <linearGradient
       id="id10">
      <stop
         offset="0"
         style="stop-color:#5a5a27;stop-opacity:1"
         id="stop24" />
      <stop
         offset="1"
         style="stop-color:#5a5a27;stop-opacity:0"
         id="stop26" />
    </linearGradient>
    <linearGradient
       id="id12">
      <stop
         offset="0"
         style="stop-color:white;stop-opacity:1"
         id="stop29" />
      <stop
         offset="1"
         style="stop-color:white;stop-opacity:0"
         id="stop31" />
    </linearGradient>
    <linearGradient
       id="id8">
      <stop
         offset="0"
         style="stop-color:#ab9f92;stop-opacity:1"
         id="stop34" />
      <stop
         offset="0.343"
         style="stop-color:#a99e91;stop-opacity:1"
         id="stop36" />
      <stop
         offset="1"
         style="stop-color:#ab9f92;stop-opacity:1"
         id="stop38" />
    </linearGradient>
    <linearGradient
       id="id7">
      <stop
         offset="0"
         style="stop-color:#c6c6a2;stop-opacity:1"
         id="stop41" />
      <stop
         offset="0.46"
         style="stop-color:#ebebde;stop-opacity:1"
         id="stop43" />
      <stop
         offset="1"
         style="stop-color:#c6c6a2;stop-opacity:1"
         id="stop45" />
    </linearGradient>
    <linearGradient
       id="id6">
      <stop
         offset="0"
         style="stop-color:#a1a16f;stop-opacity:1"
         id="stop48" />
      <stop
         offset="1"
         style="stop-color:#c5c5a1;stop-opacity:1"
         id="stop50" />
    </linearGradient>
    <linearGradient
       id="id5">
      <stop
         offset="0"
         style="stop-color:white;stop-opacity:1"
         id="stop53" />
      <stop
         offset="1"
         style="stop-color:white;stop-opacity:0"
         id="stop55" />
    </linearGradient>
    <linearGradient
       id="id4">
      <stop
         offset="0"
         style="stop-color:#8b8b55;stop-opacity:1"
         id="stop58" />
      <stop
         offset="0.278"
         style="stop-color:#8e8e58;stop-opacity:1"
         id="stop60" />
      <stop
         offset="0.427"
         style="stop-color:#a0a069;stop-opacity:1"
         id="stop62" />
      <stop
         offset="0.748"
         style="stop-color:#65653d;stop-opacity:1"
         id="stop64" />
      <stop
         offset="1"
         style="stop-color:#7a7a43;stop-opacity:1"
         id="stop66" />
    </linearGradient>
    <linearGradient
       id="id3">
      <stop
         offset="0"
         style="stop-color:#f18752;stop-opacity:1"
         id="stop69" />
      <stop
         offset="1"
         style="stop-color:#f5ff53;stop-opacity:1"
         id="stop71" />
    </linearGradient>
    <linearGradient
       id="id2">
      <stop
         offset="0"
         style="stop-color:#adad7f;stop-opacity:1"
         id="stop74" />
      <stop
         offset="1"
         style="stop-color:#d1d1b7;stop-opacity:1"
         id="stop76" />
    </linearGradient>
    <linearGradient
       id="id1">
      <stop
         offset="0"
         style="stop-color:#5f6133;stop-opacity:1"
         id="stop79" />
      <stop
         offset="0.336"
         style="stop-color:#41451d;stop-opacity:1"
         id="stop81" />
      <stop
         offset="1"
         style="stop-color:#d5d6bd;stop-opacity:1"
         id="stop83" />
    </linearGradient>
    <linearGradient
       id="id19"
       gradientTransform="translate(-7.97923,62.2445)"
       xlink:href="#id1"
       x1="30.3"
       y1="59.4"
       x2="30.2"
       y2="53.8"
       gradientUnits="userSpaceOnUse" />
    <linearGradient
       id="id20"
       gradientTransform="translate(-47.6515,19.3061)"
       xlink:href="#id2"
       x1="25.1"
       y1="40.4"
       x2="24.3"
       y2="38.7"
       gradientUnits="userSpaceOnUse" />
    <linearGradient
       id="id37"
       gradientTransform="translate(-47.6515,19.3061)"
       xlink:href="#id2"
       x1="25.1"
       y1="40.4"
       x2="24.3"
       y2="38.7"
       gradientUnits="userSpaceOnUse" />
    <linearGradient
       id="id18"
       gradientTransform="translate(18.6786,3.09296)"
       xlink:href="#id3"
       x1="42.6"
       y1="-28.9"
       x2="56.7"
       y2="-28.9"
       gradientUnits="userSpaceOnUse" />
    <linearGradient
       id="id55"
       gradientTransform="translate(18.6786,3.09296)"
       xlink:href="#id3"
       x1="42.6"
       y1="-28.9"
       x2="56.7"
       y2="-28.9"
       gradientUnits="userSpaceOnUse" />
    <linearGradient
       id="id56"
       gradientTransform="translate(18.6786,3.09296)"
       xlink:href="#id3"
       x1="42.6"
       y1="-28.9"
       x2="56.7"
       y2="-28.9"
       gradientUnits="userSpaceOnUse" />
    <linearGradient
       id="id15"
       gradientTransform="translate(15.8677,5.30505)"
       xlink:href="#id4"
       x1="17"
       y1="128.6"
       x2="31.4"
       y2="128.9"
       gradientUnits="userSpaceOnUse" />
    <radialGradient
       id="id16"
       r="7.04785"
       fx="37.0179"
       fy="171.495"
       cx="37"
       cy="171.5"
       gradientTransform="matrix(0.03608,0.511837,-0.767023,0.054067,163.029,135.112)"
       xlink:href="#id5"
       gradientUnits="userSpaceOnUse" />
    <radialGradient
       id="id17"
       r="7.917"
       fx="34.3131"
       fy="157.013"
       cx="34.3"
       cy="157"
       gradientTransform="matrix(0.631732,0,0,1.58088,12.6168,-91.2845)"
       xlink:href="#id5"
       gradientUnits="userSpaceOnUse" />
    <linearGradient
       id="id59"
       gradientTransform="translate(139.745,-88.1724)"
       xlink:href="#id6"
       x1="-68.5"
       y1="129"
       x2="-68.5"
       y2="134.2"
       gradientUnits="userSpaceOnUse" />
    <linearGradient
       id="id58"
       gradientTransform="translate(139.745,-88.1724)"
       xlink:href="#id7"
       x1="-80.1"
       y1="126.6"
       x2="-56.4"
       y2="126.5"
       gradientUnits="userSpaceOnUse" />
    <linearGradient
       id="id57"
       xlink:href="#id8"
       x1="55.1"
       y1="45"
       x2="86.8"
       y2="45"
       gradientUnits="userSpaceOnUse" />
    <linearGradient
       id="id60"
       gradientTransform="translate(-45.0156,11.7419)"
       xlink:href="#id9"
       x1="30.6"
       y1="124.3"
       x2="33.9"
       y2="116.1"
       gradientUnits="userSpaceOnUse" />
    <linearGradient
       id="id61"
       gradientTransform="translate(-45.0156,11.7419)"
       xlink:href="#id10"
       x1="47.1"
       y1="119.8"
       x2="43"
       y2="110.6"
       gradientUnits="userSpaceOnUse" />
    <linearGradient
       id="id62"
       xlink:href="#id11"
       x1="11.2"
       y1="124"
       x2="10.8"
       y2="119.1"
       gradientUnits="userSpaceOnUse" />
    <radialGradient
       id="id63"
       r="23.6614"
       fx="94.9255"
       fy="120.604"
       cx="94.9"
       cy="120.6"
       gradientTransform="matrix(0.631207,0.07283,-0.028954,0.242825,30.6556,-68.5523)"
       xlink:href="#id12"
       gradientUnits="userSpaceOnUse" />
    <linearGradient
       id="id68"
       gradientTransform="translate(0.881511,1.237)"
       xlink:href="#id13"
       x1="26.7"
       y1="130.3"
       x2="25"
       y2="122.4"
       gradientUnits="userSpaceOnUse" />
    <linearGradient
       id="id69"
       gradientTransform="translate(0.881535,1.23717)"
       xlink:href="#id14"
       x1="30.8"
       y1="128.3"
       x2="24.8"
       y2="123.8"
       gradientUnits="userSpaceOnUse" />
    <linearGradient
       id="id65"
       gradientTransform="translate(11.4936,31.3481)"
       xlink:href="#id14"
       x1="30.8"
       y1="128.3"
       x2="24.8"
       y2="123.8"
       gradientUnits="userSpaceOnUse" />
    <linearGradient
       id="id64"
       gradientTransform="translate(11.4936,31.3481)"
       xlink:href="#id13"
       x1="26.7"
       y1="130.3"
       x2="25"
       y2="122.4"
       gradientUnits="userSpaceOnUse" />
    <linearGradient
       id="id66"
       gradientTransform="translate(11.4936,31.3481)"
       xlink:href="#id13"
       x1="26.7"
       y1="130.3"
       x2="25"
       y2="122.4"
       gradientUnits="userSpaceOnUse" />
    <linearGradient
       id="id67"
       gradientTransform="translate(11.4936,31.3481)"
       xlink:href="#id14"
       x1="30.8"
       y1="128.3"
       x2="24.8"
       y2="123.8"
       gradientUnits="userSpaceOnUse" />
    <radialGradient
       inkscape:collect="always"
       xlink:href="#linearGradient47371"
       id="radialGradient47373"
       cx="165.823"
       cy="75.506"
       fx="165.823"
       fy="75.506"
       r="1.59865"
       gradientTransform="matrix(1.91614,0.329827,-0.316496,3.8511,-226.583,-279.173)"
       gradientUnits="userSpaceOnUse" />
    <linearGradient
       inkscape:collect="always"
       xlink:href="#linearGradient48715"
       id="linearGradient48717"
       x1="165.779"
       y1="83.2116"
       x2="173.562"
       y2="78.5848"
       gradientUnits="userSpaceOnUse"
       gradientTransform="matrix(0.731351,0,0,0.833875,-62.9818,9.59522)" />
    <radialGradient
       inkscape:collect="always"
       xlink:href="#linearGradient47371"
       id="radialGradient31929"
       gradientUnits="userSpaceOnUse"
       gradientTransform="matrix(1.91612,0.329828,-0.316493,3.8511,-221.953,-287.192)"
       cx="165.823"
       cy="75.506"
       fx="165.823"
       fy="75.506"
       r="1.59865" />
    <radialGradient
       inkscape:collect="always"
       xlink:href="#linearGradient30833"
       id="radialGradient31189"
       cx="-142.11"
       cy="70.5379"
       fx="-142.11"
       fy="70.5379"
       r="22.4995"
       gradientTransform="matrix(1.01602,-0.006876,0.006806,1.00582,209.802,-23.7741)"
       gradientUnits="userSpaceOnUse" />
    <linearGradient
       inkscape:collect="always"
       xlink:href="#linearGradient33505"
       id="linearGradient33507"
       x1="-67.796"
       y1="51.2496"
       x2="-60.8967"
       y2="81.5189"
       gradientUnits="userSpaceOnUse"
       gradientTransform="matrix(1.01604,0,0,1.01605,210.286,-23.4676)" />
    <linearGradient
       inkscape:collect="always"
       xlink:href="#linearGradient34386"
       id="linearGradient34388"
       x1="-115.959"
       y1="124.139"
       x2="-51.0545"
       y2="91.5812"
       gradientUnits="userSpaceOnUse"
       gradientTransform="matrix(1.01604,0,0,1.01605,210.286,-23.4676)" />
    <linearGradient
       inkscape:collect="always"
       xlink:href="#linearGradient35722"
       id="linearGradient35724"
       x1="-177.94"
       y1="134.875"
       x2="-103.732"
       y2="99.0634"
       gradientUnits="userSpaceOnUse"
       gradientTransform="matrix(1.01604,0,0,1.01605,210.286,-23.4676)" />
    <radialGradient
       inkscape:collect="always"
       xlink:href="#linearGradient53008"
       id="radialGradient53140"
       cx="-140.301"
       cy="275.376"
       fx="-140.301"
       fy="275.376"
       r="27.924"
       gradientTransform="matrix(1.01604,0,0,0.671579,207.227,-65.4993)"
       gradientUnits="userSpaceOnUse" />
  </defs>
  <path
     style="fill:#ccff42;fill-rule:evenodd;stroke:#000000;stroke-width:0.999995px;stroke-linecap:butt;stroke-linejoin:miter;stroke-opacity:1"
     d="m 37.3195,0.910109 0.4328,6.930701 c 0,0 -17.5432,24.67929 -17.5432,76.02139 0,51.3408 17.1104,74.7218 17.1104,74.7218 v 8.339 c 0,0 -36.819503,-25.538 -36.819503,-83.1691 0,-57.6317 36.819503,-82.843791 36.819503,-82.843791 z"
     id="path79687"
     sodipodi:nodetypes="cczcczc" />
  <path
     style="fill:#643929;fill-opacity:1;fill-rule:evenodd;stroke:#000000;stroke-width:0.999995px;stroke-linecap:butt;stroke-linejoin:miter;stroke-opacity:1"
     d="m 85.316,101.718 c -0.2805,0.496 13.8024,22.87 17.697,25.186 3.987,2.375 -5.4239,12.003 -5.5944,17.785 -0.047,1.861 0.4851,6.737 -0.766,9.25 -1.2493,2.512 -13.2773,4.765 -14.7251,3.595 -2.2597,-1.829 -3.3957,-4.072 -0.2936,-7.085 3.6861,-3.579 9.2235,-1.213 10.1928,-6.74 0.9002,-5.128 4.397,-9.087 0.1626,-15.01 -4.5742,-6.394 -11.9212,-20.218 -11.655,-20.267 z"
     id="path67649"
     sodipodi:nodetypes="csszsssscc" />
  <path
     style="fill:url(#linearGradient33507);fill-opacity:1;fill-rule:evenodd;stroke:#000000;stroke-width:0.999995px;stroke-linecap:butt;stroke-linejoin:miter;stroke-opacity:1"
     d="m 105.091,48.4417 c 0,-0.074 7.369,0.2691 10.613,-0.8662 11.301,-3.9548 22.522,-21.5327 37.685,-22.0917 14.637,-0.5396 23.468,7.5408 22.659,7.7312 -3.48,-2.3406 -6.829,-2.3529 -9.447,-2.9663 22.285,5.44 17.396,30.1224 11.045,35.0867 1.299,-11.6868 -7.089,-13.3628 -13.211,-18.6264 4.01,3.3432 5.25,4.4933 10.331,9.5922 -11.864,-8.2551 -17.159,-0.047 -35.672,-4.9355 4.223,1.6566 8.102,3.276 11.886,2.9753 -10.342,7.0414 -19.78,6.0296 -27.41,2.249 3.035,3.3744 7.154,6.1488 11.035,7.5477 -9.767,-0.6532 -20.021,-5.1828 -27.24,-6.4911 z"
     id="path13839"
     sodipodi:nodetypes="cssccccccccccc" />
  <path
     style="fill:url(#linearGradient34388);fill-opacity:1;fill-rule:evenodd;stroke:#000000;stroke-width:0.999995px;stroke-linecap:butt;stroke-linejoin:miter;stroke-opacity:1"
     d="m 86.6307,50.07 c 0,0 12.9419,-3.9155 19.8743,-1.1867 8.621,3.3935 22.339,12.6463 22.973,23.1425 0.63,10.4262 0.611,20.7248 7.23,25.9378 7.517,5.9184 18.742,8.7634 21.708,11.4334 2.967,2.67 8.603,29.961 8.009,32.334 -0.593,2.373 -4.858,7.483 -5.689,5.909 -0.675,-1.275 -0.99,-5.067 -0.517,-5.421 -0.962,3.298 0.426,6.953 -4.769,7.224 -5.195,0.273 -2.34,-4.826 -2.374,-8.305 -0.648,2.482 -1.774,5.061 -1.779,7.416 0.08,0.823 -5.278,-2.945 -2.373,-6.823 2.644,-3.529 3.856,-2.077 5.636,-6.823 1.779,-4.746 -1.926,-18.339 -7.859,-21.603 -5.933,-3.263 -22.793,-4.02 -31.866,-8.324 C 103.259,99.4896 82.216,87.4468 82.8551,88.5106 Z"
     id="path54318"
     sodipodi:nodetypes="cssssssczccsssscc" />
  <path
     style="fill:#ccff42;fill-rule:evenodd;stroke:#000000;stroke-width:0.999995px;stroke-linecap:butt;stroke-linejoin:miter;stroke-opacity:1"
     d="M 90.5984,0.910109 90.1655,7.84081 c 0,0 17.5435,24.67929 17.5435,76.02139 0,51.3408 -17.1106,74.7218 -17.1106,74.7218 v 8.339 c 0,0 36.8186,-25.538 36.8186,-83.1691 0,-57.6317 -36.8186,-82.843791 -36.8186,-82.843791 z"
     id="path81525"
     sodipodi:nodetypes="cczcczc" />
  <path
     style="fill:#000000;fill-rule:evenodd;stroke:none;stroke-width:0.999995px;stroke-linecap:butt;stroke-linejoin:miter;stroke-opacity:1"
     d="m 159.171,115.557 c -0.295,0.281 -1.807,-0.835 -3.374,-2.49 -1.566,-1.654 -2.598,-3.225 -2.303,-3.505 0.296,-0.281 1.809,0.836 3.375,2.49 1.567,1.655 2.598,3.225 2.302,3.505 z"
     id="path13506"
     inkscape:path-effect="#path-effect13508"
     inkscape:original-d="m 156.869,112.052 -1.072,1.015" />
  <path
     style="fill:none;fill-rule:evenodd;stroke:#000000;stroke-width:0.999995px;stroke-linecap:butt;stroke-linejoin:miter;stroke-opacity:1"
     d="m 41.0248,79.9515 c 0,0 -1.841,4.6565 -3.5735,13.7531 -1.7323,9.0964 -0.2163,17.2184 -1.2994,21.5504"
     id="path74613"
     sodipodi:nodetypes="csc" />
  <path
     style="fill:url(#linearGradient35724);fill-opacity:1;fill-rule:evenodd;stroke:#000000;stroke-width:0.999995px;stroke-linecap:butt;stroke-linejoin:miter;stroke-opacity:0.996124"
     d="m 58.7597,144.324 c -0.828,2.412 -0.1504,19.716 -0.89,23.138 -0.4257,1.97 -1.3818,5.059 -3.7746,5.784 -3.4636,1.049 -0.32,-5.285 -0.081,-7.564 -0.8942,3.331 -1.263,8.685 -5.0426,8.306 -5.2936,-0.529 -1.7883,-6.329 -0.5934,-9.196 -2.7839,1.548 -1.9772,12.429 -5.5547,4.89 -2.8032,-5.908 5.134,-15.461 3.8976,-18.399 -1.2376,-2.938 -12.1204,-17.05 -11.0638,-18.493 1.0568,-1.444 1.6166,-8.172 1.449,-8.34 -2.8765,2.059 -4.9583,5.236 -7.1357,7.716 2.3095,-4.331 4.3994,-8.698 8.3224,-12.76 -2.1774,0.742 -4.3314,1.53 -6.3716,2.548 -0.1697,-0.236 6.1054,-7.374 4.747,-13.17 -1.3585,-5.796 -5.6848,-8.9024 -6.4936,-19.2764 -0.9286,-11.913 20.2121,-36.4035 25.3237,-36.3719 5.1118,0.03 20.9549,11.7211 20.9549,11.7211 -0.04,3.8122 10.1736,-0.3567 12.5633,-0.3283 4.8551,-0.7193 8.0542,-3.7858 11.2724,-6.8226 0.147,5.7954 -4.4066,11.0687 -9.1956,16.3156 6.1857,-4.5916 11.1446,-10.6319 20.1716,-11.8654 -13.3603,8.3874 -14.6564,19.3347 -20.1721,29.3675 2.9057,-3.7089 5.511,-8.0677 9.1961,-10.0867 0,0 -8.4331,10.3397 -9.4929,22.8421 -1.1206,13.214 4.3478,46.096 11.8469,50.755 3.182,1.976 10.707,4.167 14.912,8.505 1.187,1.226 0.664,3.272 -0.235,4.285 -1.534,1.726 -2.908,-1.886 -4.919,-4.509 2.643,3.44 5.087,5.992 1.829,7.707 -2.935,1.544 -6.29,-3.427 -6.324,-4.996 -0.262,3.02 5.315,5.09 1.271,6.19 -4.6,1.25 -9.2748,-8.623 -13.8065,-13.462 -6.1207,-6.535 -9.6108,-16.932 -13.6212,-25.999 -0.6979,-1.578 -0.5811,-5.129 -1.0383,-7.712 -1.3869,2.222 -2.6854,4.532 -3.4861,7.342 -1.0942,-4.455 0.63,-8.283 1.1126,-12.385 -1.2852,1.472 -2.5706,2.934 -3.8558,4.599 0.4369,-2.917 0.893,-5.834 3.2624,-8.752 -2.5817,2.704 -6.4812,3.135 -7.1194,9.196 0.061,-3.873 -1.7618,-5.585 -2.9657,-8.009 -0.8536,5.202 -0.5111,10.621 2.9657,16.611 -2.3744,-4.036 -6.0921,-0.624 -6.5259,-15.425 -0.4735,3.905 0.831,8.521 -3.2626,10.976 0.948,-1.737 -3.5683,-10.83 -8.0094,-3.264 -3.2717,5.574 6.7607,15.979 5.9327,18.392 z"
     id="path1337"
     sodipodi:nodetypes="zsscscszzcccczszcccccccsssscscsssccccccccccsz" />
  <path
     style="fill:#b98048;fill-opacity:1;fill-rule:evenodd;stroke:#000000;stroke-width:0.999995px;stroke-linecap:butt;stroke-linejoin:miter;stroke-opacity:1"
     d="m 81.6155,41.2503 c 0.63,-1.678 -0.2692,-8.9177 4.4574,-10.0683 4.7144,-1.1473 10.8794,0.217 13.0586,-0.7341 2.7315,-1.1927 -0.8297,-5.235 0.3137,-6.1353 2.2378,-1.7628 4.3718,6.0586 1.3638,13.1097 -0.76,1.7785 -3.1459,2.0451 -4.8251,4.9817 -1.6772,2.9366 -7.5497,6.4502 -7.5497,6.4502 z"
     id="path35793"
     sodipodi:nodetypes="cssssscc" />
  <path
     style="fill:#683c2a;fill-opacity:1;fill-rule:evenodd;stroke:#000000;stroke-width:0.999995px;stroke-linecap:butt;stroke-linejoin:miter;stroke-opacity:1"
     d="m 84.7379,41.9826 c 0,0 5.0212,0.7866 5.8634,-1.2043 0.8424,-1.991 0.8424,-5.6666 2.9862,-6.7386 2.1436,-1.0721 5.8203,0.9189 6.5085,-0.8423 0.689,-1.7612 2.527,1.6846 1.072,3.599 -1.455,1.9143 -5.0539,4.6711 -5.5128,5.7431 -0.4607,1.0721 -8.6333,5.1707 -8.6333,5.1707 z"
     id="path23676"
     sodipodi:nodetypes="cssssscc" />
  <path
     style="fill:#aa7845;fill-opacity:1;fill-rule:evenodd;stroke:#000000;stroke-width:0.999995px;stroke-linecap:butt;stroke-linejoin:miter;stroke-opacity:1"
     d="m 59.6975,34.6431 c 0,0 0.44,-8.2242 4.5621,-12.4804 4.122,-4.2563 16.4994,-8.4804 17.6709,-7.8133 1.3148,0.7483 -0.2093,5.2962 -1.3107,7.3413 -1.4234,2.6444 -4.7459,3.72 -4.562,5.4012 0.3149,2.8842 2.1499,9.5963 2.1499,9.5963 z"
     id="path35725"
     sodipodi:nodetypes="czssscc" />
  <path
     style="fill:url(#radialGradient31189);fill-opacity:1;fill-rule:evenodd;stroke:#000000;stroke-width:0.999995px;stroke-linecap:butt;stroke-linejoin:miter;stroke-opacity:1"
     d="m 46.294,48.648 c -3.7686,-2.939 10.7263,-19.2844 23.1494,-18.9381 12.4231,0.3463 19.8219,13.857 20.8003,19.1061 1.141,6.1201 -4.8739,17.2752 -5.0415,17.3047 0,0 -35.1398,-14.5335 -38.9082,-17.4727 z"
     id="path32231"
     sodipodi:nodetypes="zzscz" />
  <path
     style="fill:#53432f;fill-opacity:1;fill-rule:evenodd;stroke:#000000;stroke-width:0.999995px;stroke-linecap:butt;stroke-linejoin:miter;stroke-opacity:1"
     d="m 45.2169,87.708 c 1.329,5.1136 11.3167,2.4526 10.6908,3.6476 -1.0272,1.957 0.1606,4.981 5.2184,3.737 3.2106,-0.79 8.0694,-8.4555 11.408,-11.9182 3.2524,-3.3733 9.496,-11.0905 11.2405,-13.6652 1.6847,-2.4863 6.0089,-11.8714 4.9654,-11.7963 -0.8423,0.061 -6.8918,7.1784 -9.439,6.0831 -2.8591,-1.2295 1.1461,-13.3895 -3.1456,-17.7243 -3.8955,-3.934 -9.8882,-2.3087 -12.1305,-0.2764 -1.4387,1.3038 -2.5462,5.0725 -5.699,5.2056 -2.8621,0.1209 -3.7045,-1.9386 -3.9666,-4.0954 -0.6574,-5.4245 -9.2449,-2.7454 -8.4575,2.3275 0.3983,2.5676 1.143,5.4663 0.8748,8.8305 -0.2672,3.3641 -1.6521,3.9067 -1.5597,7.096 0.092,3.1894 3.2869,8.3661 3.1457,12.3754 -0.1412,4.0098 -3.8091,7.6198 -3.1457,10.1731 z"
     id="path19024"
     sodipodi:nodetypes="ssssssssssssssss" />
  <path
     style="fill:#ffffff;fill-opacity:1;fill-rule:evenodd;stroke:#000000;stroke-width:0.999995px;stroke-linecap:butt;stroke-linejoin:miter;stroke-opacity:1"
     d="m 47.1515,57.7191 c 0.5131,2.41 1.3808,3.8101 3.7157,4.624 2.2393,0.7813 2.6416,-1.7324 2.5523,-4.0663 -0.2357,-6.1613 -7.0534,-4.2561 -6.268,-0.5577 z"
     id="path24163"
     sodipodi:nodetypes="ssss" />
  <path
     style="fill:#ffffff;fill-opacity:1;fill-rule:evenodd;stroke:#000000;stroke-width:0.999995px;stroke-linecap:butt;stroke-linejoin:miter;stroke-opacity:1"
     d="m 71.826,59.4555 c -0.051,2.0909 -1.5596,2.9272 -3.4789,3.8335 -4.3629,2.0595 -4.6911,-1.7984 -3.8091,-4.7978 1.7252,-5.8636 7.3957,-3.2899 7.288,0.9643 z"
     id="path25174"
     sodipodi:nodetypes="ssss" />
  <ellipse
     style="color:#000000;overflow:visible;fill:#2d2d2d;fill-opacity:1;stroke:none;stroke-width:1.00157;stroke-miterlimit:4;stroke-dasharray:none;stroke-opacity:0.593023;stop-color:#000000"
     id="path25977"
     cx="49.595"
     cy="56.9691"
     rx="2.08505"
     ry="2.80036" />
  <ellipse
     style="color:#000000;overflow:visible;fill:#2d2d2d;fill-opacity:1;stroke:none;stroke-width:1.00157;stroke-miterlimit:4;stroke-dasharray:none;stroke-opacity:0.593023;stop-color:#000000"
     id="ellipse26095"
     cx="66.4329"
     cy="58.916"
     rx="1.83507"
     ry="2.79332" />
  <ellipse
     style="color:#000000;overflow:visible;fill:#ffffff;fill-opacity:1;stroke:none;stroke-width:1.00157;stroke-miterlimit:4;stroke-dasharray:none;stroke-opacity:0.593023;stop-color:#000000"
     id="path26119"
     cx="49.0981"
     cy="57.4071"
     rx="0.604388"
     ry="0.631065" />
  <ellipse
     style="color:#000000;overflow:visible;fill:#ffffff;fill-opacity:1;stroke:none;stroke-width:1.00157;stroke-miterlimit:4;stroke-dasharray:none;stroke-opacity:0.593023;stop-color:#000000"
     id="circle26223"
     cx="66.1595"
     cy="59.0013"
     rx="0.604388"
     ry="0.604392" />
  <ellipse
     style="color:#000000;overflow:visible;fill:#1b1511;fill-opacity:1;stroke:#000000;stroke-width:1.00168;stroke-miterlimit:4;stroke-dasharray:none;stroke-opacity:1;stop-color:#000000"
     id="path27741"
     cx="60.6594"
     cy="79.2166"
     rx="4.68282"
     ry="3.60354"
     transform="matrix(0.988845,0.14895,-0.128085,0.991763,0,0)" />
  <ellipse
     style="color:#000000;overflow:visible;fill:url(#linearGradient48717);fill-opacity:1;stroke:#000000;stroke-width:1.00216;stroke-miterlimit:4;stroke-dasharray:none;stroke-opacity:1;stop-color:#000000"
     id="path34234"
     cx="62.0674"
     cy="76.8695"
     rx="4.13291"
     ry="2.51114"
     transform="matrix(0.979867,0.19965,-0.151515,0.988455,0,0)" />
  <ellipse
     style="color:#000000;overflow:visible;fill:#29221b;fill-opacity:1;stroke:none;stroke-width:1.00187;stroke-miterlimit:4;stroke-dasharray:none;stroke-opacity:1;stop-color:#000000"
     id="path37226"
     cx="66.9975"
     cy="73.2833"
     rx="2.69049"
     ry="1.78476"
     transform="matrix(0.96853,0.248895,-0.215172,0.976576,0,0)" />
  <ellipse
     style="color:#000000;overflow:visible;fill:url(#radialGradient47373);fill-opacity:1;stroke:none;stroke-width:1.00157;stroke-miterlimit:4;stroke-dasharray:none;stroke-opacity:1;stop-color:#000000"
     id="path43271"
     cx="67.5773"
     cy="66.1756"
     rx="2.45895"
     ry="6.78237"
     transform="rotate(13.2563)" />
  <ellipse
     style="color:#000000;overflow:visible;fill:url(#radialGradient31929);fill-opacity:1;stroke:none;stroke-width:1.00157;stroke-miterlimit:4;stroke-dasharray:none;stroke-opacity:1;stop-color:#000000"
     id="ellipse31927"
     cx="72.206"
     cy="58.1563"
     rx="2.45892"
     ry="6.78238"
     transform="matrix(0.957112,0.289719,-0.289716,0.957113,0,0)" />
  <path
     style="fill:#976b63;fill-opacity:1;fill-rule:evenodd;stroke:#000000;stroke-width:0.999995px;stroke-linecap:butt;stroke-linejoin:miter;stroke-opacity:1"
     d="m 57.1433,90.7566 c 0,0 -1.4997,2.796 0.3545,3.464 3.7462,0.356 7.8316,-5.494 10.2742,-10.1663 -4.8028,5.7013 -6.021,5.3653 -10.6287,6.7023 z"
     id="path49074"
     sodipodi:nodetypes="cccc" />
  <path
     style="fill:none;fill-rule:evenodd;stroke:#000000;stroke-width:0.999995px;stroke-linecap:butt;stroke-linejoin:miter;stroke-opacity:1"
     d="m 50.4343,91.3176 c 0,0 8.5632,-0.492 12.5847,-2.727 4.9908,-2.7734 11.6042,-14.2521 10.9072,-14.4726 l -3.6182,2.6214"
     id="path48195"
     sodipodi:nodetypes="cscc" />
  <path
     style="fill:none;fill-rule:evenodd;stroke:#000000;stroke-width:0.999995px;stroke-linecap:butt;stroke-linejoin:miter;stroke-opacity:1"
     d="m 46.0755,84.3693 c 0.1728,-0.129 6.3899,-12.6566 5.5801,-14.5841"
     id="path23314"
     sodipodi:nodetypes="cc" />
  <path
     style="fill:#764731;fill-opacity:1;fill-rule:evenodd;stroke:#000000;stroke-width:0.999995px;stroke-linecap:butt;stroke-linejoin:miter;stroke-opacity:1"
     d="M 90.2244,52.3186 C 91.0596,48.0205 98.5827,42.5962 100.52,41.2123 96.1132,41.748 90.3931,43.4968 87.6041,46.5442"
     id="path27783"
     sodipodi:nodetypes="ccc" />
  <path
     id="path52029"
     style="fill:url(#radialGradient53140);fill-opacity:1;fill-rule:evenodd;stroke:none;stroke-width:0.999995px;stroke-linecap:butt;stroke-linejoin:miter;stroke-opacity:0.996124"
     d="M 65.2573,96.3526 A 29.9968,19.4926 0 0 0 38.2652,107.435 c 0.071,0.248 0.1606,0.502 0.2184,0.748 0.7184,3.065 -1.1501,6.657 -3.046,9.425 a 29.9968,19.4926 0 0 0 0.6686,2.706 c 0.7884,-0.293 1.5779,-0.587 2.3774,-0.859 -0.6705,0.696 -1.2741,1.402 -1.8471,2.112 a 29.9968,19.4926 0 0 0 17.1629,12.292 c -1.3127,-2.856 -2.0453,-5.725 -0.7813,-7.877 4.4411,-7.566 8.9564,1.525 8.0084,3.263 4.0936,-2.456 2.7891,-7.073 3.2626,-10.977 0.4338,14.8 4.1504,11.39 6.5249,15.426 -3.4768,-5.99 -3.8183,-11.41 -2.9648,-16.612 1.204,2.423 3.0258,4.137 2.9648,8.009 0.6381,-6.06 4.5387,-6.492 7.1204,-9.196 -2.3694,2.917 -2.8256,5.834 -3.2624,8.752 1.2852,-1.665 2.5706,-3.126 3.8558,-4.599 -0.4826,4.103 -2.2079,7.931 -1.1136,12.385 0.8006,-2.809 2.1002,-5.119 3.487,-7.342 0.3983,2.25 0.3618,5.23 0.8058,7.005 a 29.9968,19.4926 0 0 0 10.4743,-7.75 c -1.0252,-7.039 -1.4935,-13.79 -1.2649,-18.593 A 29.9968,19.4926 0 0 0 65.2573,96.3526 Z" />
</svg>
