<?xml version="1.0" encoding="UTF-8" standalone="no"?>
<!-- Copyright 2017 mathsisfun.com -->
<svg xmlns="http://www.w3.org/2000/svg" width="262.5" height="181" version="1.1" style="font-size:13.3px; stroke-width:1px;">
<defs>
	<marker id="id1" style="overflow:visible;" orient="auto">
		<path transform="matrix(-0.4,0,0,-0.4,-4,0)" style="stroke:black; stroke-width:1pt;" d="M 0,0 5,-5 -12.5,0 5,5 Z"/>
	</marker>
	<marker style="overflow:visible;" orient="auto">
		<path transform="matrix(-0.4,0,0,-0.4,-4,0)" style="stroke:black; stroke-width:1pt;" d="M 0,0 5,-5 -12.5,0 5,5 Z"/>
	</marker>
</defs>
<rect x="0" y="0" width="262.5" height="181" style="fill:white; stroke-width:1.66;"/>
<rect x="12.8" y="8.1" width="244.2" height="241.1" style="fill:none; stroke-width:5.3;"/>
<g transform="matrix(0.452791,0,0,0.452791,-19.1432,-286.975)">
	<g transform="translate(-853.459,49.8897)">
		<path style="fill:none; fill-opacity:0.75; stroke:#d8dadc; stroke-width:2.37; stroke-dasharray:18.9, 2.4;" d="M 924.1,601.7 H 1450.8"/>
		<path style="fill:none; fill-opacity:0.75; stroke:#d8dadc; stroke-width:2.37; stroke-dasharray:18.9, 2.4;" d="M 924.1,535.6 H 1450.8"/>
		<path style="fill:none; fill-opacity:0.75; stroke:#d8dadc; stroke-width:2.37; stroke-dasharray:18.9, 2.4;" d="M 924.1,469.4 H 1450.8"/>
		<path style="fill:none; fill-opacity:0.75; stroke:#d8dadc; stroke-width:2.37; stroke-dasharray:18.9, 2.4;" d="M 924.1,403.3 H 1450.8"/>
		<path style="fill:none; fill-opacity:0.75; stroke:#d8dadc; stroke-width:2.37; stroke-dasharray:18.9, 2.4;" d="M 924.1,932.5 H 1450.8"/>
		<path style="fill:none; fill-opacity:0.75; stroke:#d8dadc; stroke-width:2.37; stroke-dasharray:18.9, 2.4;" d="M 924.1,800.2 H 1450.8"/>
		<path style="fill:none; fill-opacity:0.75; stroke:#d8dadc; stroke-width:2.37; stroke-dasharray:18.9, 2.4;" d="M 924.1,734 H 1450.8"/>
		<path style="fill:none; fill-opacity:0.75; stroke:#d8dadc; stroke-width:2.37; stroke-dasharray:18.9, 2.4;" d="M 924.1,667.9 H 1450.8"/>
		<path style="fill:none; fill-opacity:0.75; stroke:#d8dadc; stroke-width:2.37; stroke-dasharray:18.9, 2.4;" d="M 926.5,866.3 H 1453.2"/>
	</g>
	<g transform="rotate(-90,786.875,1119.55)">
		<path style="fill:none; fill-opacity:0.75; stroke:#d8dadc; stroke-width:2.37; stroke-dasharray:18.9, 2.4;" d="M 924.1,601.7 H 1450.8"/>
		<path style="fill:none; fill-opacity:0.75; stroke:#d8dadc; stroke-width:2.37; stroke-dasharray:18.9, 2.4;" d="M 924.1,535.6 H 1450.8"/>
		<path style="fill:none; fill-opacity:0.75; stroke:#d8dadc; stroke-width:2.37; stroke-dasharray:18.9, 2.4;" d="M 924.1,469.4 H 1450.8"/>
		<path style="fill:none; fill-opacity:0.75; stroke:#d8dadc; stroke-width:2.37; stroke-dasharray:18.9, 2.4;" d="M 924.1,403.3 H 1450.8"/>
		<path style="fill:none; fill-opacity:0.75; stroke:#d8dadc; stroke-width:2.37; stroke-dasharray:18.9, 2.4;" d="M 924.1,932.5 H 1450.8"/>
		<path style="fill:none; fill-opacity:0.75; stroke:#d8dadc; stroke-width:2.37; stroke-dasharray:18.9, 2.4;" d="M 924.1,800.2 H 1450.8"/>
		<path style="fill:none; fill-opacity:0.75; stroke:#d8dadc; stroke-width:2.37; stroke-dasharray:18.9, 2.4;" d="M 924.1,734 H 1450.8"/>
		<path style="fill:none; fill-opacity:0.75; stroke:#d8dadc; stroke-width:2.37; stroke-dasharray:18.9, 2.4;" d="M 924.1,667.9 H 1450.8"/>
		<path style="fill:none; fill-opacity:0.75; stroke:#d8dadc; stroke-width:2.37; stroke-dasharray:18.9, 2.4;" d="M 926.5,866.3 H 1453.2"/>
	</g>
</g>
<path style="marker-end:url(#id1); fill:#2e3436; fill-opacity:0.75; stroke:#2e3436; stroke-width:1.63;" d="M 12.8,241.6 V 9.2"/>
<text x="20.9" y="24" style="font-family:'Times New Roman'; font-weight:bold; font-size:30px; font-style:italic; fill:black; stroke-width:0.54px;">y</text>
<text x="231.6" y="177.4" style="font-family:'Times New Roman'; font-weight:bold; font-size:30px; font-style:italic; fill:black; stroke-width:0.54px;">x</text>
<text x="-1.6" y="43" style="font-family:Arial; font-size:16px; font-style:italic; fill:black;">1</text>
<text x="35.3" y="174.2" style="font-family:Arial; font-size:16px; font-style:italic; fill:black;">1</text>
<path style="marker-end:url(#id1); fill:#2e3436; fill-opacity:0.75; stroke:#2e3436; stroke-width:1.61;" d="M -14.9,157.8 H 251.3"/>
<g style="fill:white;" transform="translate(315.892,9.46029)">
	<text x="-163.6" y="107.4" style="font-family:'Comic Sans MS'; font-size:12.1px; font-style:italic; fill:white; stroke-width:0.86px;">x</text>
	<text x="-197.7" y="111.6" style="font-family:'Comic Sans MS'; font-size:14.2px; font-style:italic; fill:white; stroke-width:0.86px;">A = e</text>
</g>
<text x="65.8" y="174.2" style="font-family:Arial; font-size:16px; font-style:italic; fill:black;">2</text>
<text x="96.3" y="174.2" style="font-family:Arial; font-size:16px; font-style:italic; fill:black;">3</text>
<text x="127" y="174.2" style="font-family:Arial; font-size:16px; font-style:italic; fill:black;">4</text>
<text x="157" y="174.2" style="font-family:Arial; font-size:16px; font-style:italic; fill:black;">5</text>
<text x="187.4" y="174.2" style="font-family:Arial; font-size:16px; font-style:italic; fill:black;">6</text>
<text x="217.3" y="174.2" style="font-family:Arial; font-size:16px; font-style:italic; fill:black;">7</text>
<rect x="42.8" y="38" width="30" height="119.8" style="fill:#19aeff; fill-opacity:0.47; stroke:black;"/>
<rect x="72.7" y="97.9" width="30" height="59.9" style="fill:#19aeff; fill-opacity:0.47; stroke:black;"/>
<rect x="132.6" y="127.9" width="30" height="29.9" style="fill:#19aeff; fill-opacity:0.47; stroke:black;"/>
<rect x="102.7" y="117.1" width="30" height="40.7" style="fill:#19aeff; fill-opacity:0.47; stroke:black;"/>
<rect x="162.6" y="134.4" width="30" height="23.4" style="fill:#19aeff; fill-opacity:0.47; stroke:black;"/>
<rect x="192.2" y="138.9" width="30.2" height="18.9" style="fill:#19aeff; fill-opacity:0.47; stroke:black;"/>
<rect x="222.3" y="141.7" width="30.1" height="16.1" style="fill:#19aeff; fill-opacity:0.47; stroke:black;"/>
<path style="fill:none; fill-opacity:0.3; stroke:#8f5902; stroke-width:1.6;" d="M 29.1,-60 C 33,-4.1 41.7,48.7 55.1,73.2 74.3,109 96,115.2 116.7,123.5 c 43.2,14.1 102.9,18.2 139.7,20.4"/>
<text x="52.9" y="34" style="font-family:Arial; font-size:16px; fill:black;">1</text>
<g transform="translate(-2.94565,104.734)">
	<text x="237.4" y="34.2" style="font-family:Arial; fill:black;">7</text>
	<text x="237.9" y="21.7" style="font-family:Arial; fill:black;">1</text>
	<path style="fill:none; stroke:black; stroke-width:0.94px;" d="m 236.1,23.2 h 10.2"/>
</g>
<g transform="translate(0.327295,59.8949)">
	<text x="83.9" y="34.2" style="font-family:Arial; fill:black;">2</text>
	<text x="84.3" y="21.7" style="font-family:Arial; fill:black;">1</text>
	<path style="fill:none; stroke:black; stroke-width:0.94px;" d="m 82.4,23.2 h 10.2"/>
</g>
<g transform="translate(2.29106,79.2053)">
	<text x="113.9" y="34.2" style="font-family:Arial; fill:black;">3</text>
	<text x="114.4" y="21.7" style="font-family:Arial; fill:black;">1</text>
	<path style="fill:none; stroke:black; stroke-width:0.94px;" d="m 112.5,23.2 h 10.2"/>
</g>
<g transform="translate(-3.92754,90.6606)">
	<text x="147.4" y="34.2" style="font-family:Arial; fill:black;">4</text>
	<text x="147.7" y="21.7" style="font-family:Arial; fill:black;">1</text>
	<path style="fill:none; stroke:black; stroke-width:0.94px;" d="m 145.8,23.2 h 10.2"/>
</g>
<g transform="translate(-3.60024,97.2065)">
	<text x="177.5" y="34.2" style="font-family:Arial; fill:black;">5</text>
	<text x="178" y="21.7" style="font-family:Arial; fill:black;">1</text>
	<path style="fill:none; stroke:black; stroke-width:0.94px;" d="m 176.1,23.2 h 10.2"/>
</g>
<g transform="translate(-3.92754,102.734)">
	<text x="207" y="34.2" style="font-family:Arial; fill:black;">6</text>
	<text x="207.4" y="21.7" style="font-family:Arial; fill:black;">1</text>
	<path style="fill:none; stroke:black; stroke-width:0.94px;" d="m 205.5,23.2 h 10.2"/>
</g>
<g transform="matrix(1.0975,0,0,1.0975,-5.94599,-16.5918)">
	<text x="172.6" y="85.8" style="font-family:'Comic Sans MS'; font-size:20.8px; font-style:italic; fill:#8f5902; stroke-width:1.32px;">x</text>
	<text x="176.5" y="68.8" style="font-family:'Comic Sans MS'; font-size:16.8px; font-style:italic; fill:#8f5902; stroke-width:1.32px;">1</text>
	<text x="136.7" y="77.8" style="font-family:'Comic Sans MS'; font-size:20.8px; font-style:italic; fill:#8f5902; stroke-width:1.32px;">y =</text>
	<path style="fill:#0000ff; stroke:#8f5902; stroke-width:1.6; stroke-linecap:round;" d="m 171.1,71.5 h 17.3"/>
</g>
</svg>