<?xml version="1.0" encoding="UTF-8" standalone="no"?>
<svg
   width="200"
   height="200.006"
   version="1.1"
   id="svg39"
   sodipodi:docname="soccer-ball.svg"
   inkscape:version="1.1 (c68e22c387, 2021-05-23)"
   xmlns:inkscape="http://www.inkscape.org/namespaces/inkscape"
   xmlns:sodipodi="http://sodipodi.sourceforge.net/DTD/sodipodi-0.dtd"
   xmlns:xlink="http://www.w3.org/1999/xlink"
   xmlns="http://www.w3.org/2000/svg"
   xmlns:svg="http://www.w3.org/2000/svg">
  <sodipodi:namedview
     id="namedview41"
     pagecolor="#ffffff"
     bordercolor="#666666"
     borderopacity="1.0"
     inkscape:pageshadow="2"
     inkscape:pageopacity="0.0"
     inkscape:pagecheckerboard="0"
     showgrid="false"
     inkscape:current-layer="svg39" />
  <defs
     id="defs11">
    <linearGradient
       id="linearGradient3413">
      <stop
         offset="0"
         stop-color="#ffffff"
         id="stop3415" />
      <stop
         offset="0.470199"
         stop-color="#ffffff"
         id="stop3512" />
      <stop
         offset="1"
         stop-color="#d6d6d6"
         id="stop3417" />
    </linearGradient>
    <linearGradient
       id="linearGradient3528">
      <stop
         offset="0"
         stop-color="#000000"
         id="stop3530" />
      <stop
         offset="1"
         stop-opacity="0"
         stop-color="#000000"
         id="stop3532" />
    </linearGradient>
    <linearGradient
       xlink:href="#linearGradient3528"
       y2="656.98"
       x2="-131.569"
       y1="656.98"
       x1="-4.04101"
       gradientTransform="scale(0.911776,1.09676)"
       id="linearGradient3239"
       gradientUnits="userSpaceOnUse" />
    <radialGradient
       xlink:href="#linearGradient3413"
       fy="1062.92"
       fx="311.427"
       r="225.063"
       cy="1062.92"
       cx="311.427"
       gradientTransform="matrix(1,0,0,1.00007,39.209,-888.175)"
       gradientUnits="userSpaceOnUse"
       id="radialGradient3245" />
  </defs>
  <metadata
     id="metadata2390">image/svg+xml</metadata>
  <g
     id="g37"
     transform="matrix(0.44429,0,0,0.44429,-0.005762,0)">
    <path
       d="M 450.17,225.085 C 450.17,349.332 349.556,450.17 225.585,450.17 101.614,450.17 0.999939,349.332 0.999939,225.085 0.999939,100.838 101.614,0 225.585,0 349.556,0 450.17,100.838 450.17,225.085 Z"
       stroke-width="5.57342"
       stroke-miterlimit="4"
       stroke-dashoffset="0"
       marker-start="none"
       marker-mid="none"
       marker-end="none"
       fill-rule="evenodd"
       fill="#003f7f"
       id="path3382" />
    <path
       d="m 225.075,0.00363 c -49.128,0 -94.576,15.78497 -131.5933,42.53127 -16.1158,19.4896 -27.4063,39 -27.4063,39 L 45.513,89.4099 C 16.9541,127.146 0.01297,174.158 0.01297,225.097 c 0,4.758 0.14613,9.472 0.4375,14.157 5.11583,9.139 8.9375,14.968 8.9375,14.968 l -2.625,25.688 c 14.70153,58.679 52.45533,108.242 103.06203,138.5 3.616,2.338 6.637,3.754 9.955,5.631 -1.761,-1.663 -2.303,-2.108 -3.455,-3.162 C 103.078,407.177 91.9192,391.16 91.9192,391.16 L 123.95,361.691 c 0,0 20.595,15.565 43.719,23.625 23.125,8.06 48.781,8.625 48.781,8.625 l 15.875,40.75 c 0,0 -14.027,7.195 -33.937,10.719 -3.565,0.631 -7.333,1.144 -11.094,1.562 12.288,2.082 24.903,3.188 37.781,3.188 52.043,0 99.99,-17.684 138.125,-47.375 11.93,-15.985 19.75,-29.719 19.75,-29.719 l 17.375,-6.812 c 30.833,-38.223 49.436,-86.72 49.813,-139.532 -6.124,-18.158 -12.813,-28.812 -12.813,-28.812 0,0 1.708,-16.583 -0.69,-34.848 -0.376,-2.866 1.549,-1.846 3.867,-3.402 -0.687,-2.595 -3.185,-10.306 -4.445,-13.988 -4.96,-14.496 -9.839,-21.412 -13.044,-27.825 6.243,3.488 -0.02,-0.02 -0.03,-0.03 C 384.851,47.6534 310.495,0.0036 225.075,0.00363 Z m 27.219,8.5625 c 18.704,0.25577 38.219,6.31247 38.219,6.31247 0,0 22.173,8.5206 38,20.5625 15.827,12.0419 25.312,27.5938 25.312,27.5938 l -40.25,27.8125 c 0,0 -21.666,-14.8425 -44.312,-22.8438 -22.646,-8.0012 -46.281,-9.1562 -46.281,-9.1562 L 211.575,17.3161 c 0,0 17.264,-8.11023 37,-8.71872 1.234,-0.038 2.472,-0.0483 3.719,-0.0312 z M 120.763,119.754 c 13.82,0.06 25.312,1.718 25.312,1.718 l 20.813,88.438 -66.813,63.625 c 0,0 -20.8627,-13.237 -35.9058,-26.188 -15.0431,-12.95 -24.2812,-25.625 -24.2812,-25.625 0,0 2.7158,-25.653 8.8437,-47.718 6.1279,-22.065 15.6875,-40.532 15.6875,-40.532 0,0 16.5187,-9.506 36.9378,-12.5 6.381,-0.935 13.124,-1.247 19.406,-1.218 z m 216.531,63.156 c 0,0 18.838,8.253 34.031,20.406 15.194,12.153 26.75,28.219 26.75,28.219 0,0 -1.077,22 -8.343,44.875 -7.266,22.874 -20.719,46.625 -20.719,46.625 0,0 -18.778,6.891 -38.594,8.75 -19.816,1.859 -40.687,-1.313 -40.687,-1.313 l -10.344,-43.281 -10.656,-44.5 c 0,0 14.141,-17.052 31.281,-32 17.14,-14.948 37.281,-27.781 37.281,-27.781 z"
       stroke-width="5.10303"
       stroke-miterlimit="4"
       stroke-dashoffset="0"
       marker-start="none"
       marker-mid="none"
       marker-end="none"
       fill-rule="evenodd"
       fill="url(#radialGradient3245)"
       id="path3400"
       style="fill:url(#radialGradient3245)" />
    <path
       d="m 100.159,271.585 c 0,0 -20.3369,-12.906 -35.001,-25.53 -14.664,-12.625 -23.6551,-24.968 -23.6551,-24.968 0,0 2.6368,-24.997 8.6103,-46.506 5.9735,-21.509 15.2838,-39.53 15.2838,-39.53 0,0 16.0984,-9.255 36.003,-12.173 19.904,-2.918 43.615,0.501 43.615,0.501 l 20.279,86.211 z"
       stroke-width="4.87402"
       stroke-miterlimit="4"
       stroke-linejoin="round"
       stroke-dashoffset="0"
       stroke="url(#linearGradient3239)"
       marker-start="none"
       marker-mid="none"
       marker-end="none"
       fill-rule="evenodd"
       fill="#003f7f"
       id="path3516"
       style="stroke:url(#linearGradient3239)" />
    <path
       d="m 145.033,122.676 c 0,0 36.186,-48.0807 78.436,-64.3307"
       stroke-width="1px"
       stroke="#666666"
       fill-rule="evenodd"
       fill="none"
       id="path3479" />
    <path
       d="m 315.805,89.6211 c 0,0 26.985,42.9259 23.485,91.9269"
       stroke-width="3"
       stroke-miterlimit="4"
       stroke="#ececec"
       fill-rule="evenodd"
       fill="none"
       id="path3506" />
    <path
       d="m 313.401,90.1356 c 0,0 27.576,44.3764 24.076,93.3764"
       stroke-width="1px"
       stroke="#666666"
       fill-rule="evenodd"
       fill="none"
       id="path3481" />
    <path
       d="m 350.825,62.7721 c 0,0 59.784,23.5999 86.034,98.3499"
       stroke-width="1px"
       stroke="#666666"
       fill-rule="evenodd"
       fill="none"
       id="path3483" />
    <path
       d="m 398.444,231.411 c 0,0 21.044,-1.635 39.429,-32.748"
       stroke-width="1px"
       stroke="#666666"
       fill-rule="evenodd"
       fill="none"
       id="path3485" />
    <path
       d="m 383.421,372.842 c 0,0 2.92,-18.129 -14.522,-50.953"
       stroke-width="1px"
       stroke="#666666"
       fill-rule="evenodd"
       fill="none"
       id="path3487" />
    <path
       d="m 216.695,394.456 c 0,0 32.35,-8.573 73.362,-65.142"
       stroke-width="1px"
       stroke="#666666"
       fill-rule="evenodd"
       fill="none"
       id="path3489" />
    <path
       d="m 99.8453,272.745 c 0,0 -1.9445,50.382 23.1577,89.98"
       stroke-width="1px"
       stroke="#666666"
       fill-rule="evenodd"
       fill="none"
       id="path3491" />
    <path
       d="m 91.9033,391.427 c 0,0 -7.4296,0.09 -35.545,-16.858"
       stroke-width="1px"
       stroke="#666666"
       fill-rule="evenodd"
       fill="none"
       id="path3493" />
    <path
       d="m 40.36,221.657 c 0,0 -20.1486,8.463 -31.00153,31.911"
       stroke-width="1px"
       stroke="#666666"
       fill-rule="evenodd"
       fill="none"
       id="path3495" />
    <path
       d="m 65.7249,81.77 c 0,0 -7.2315,27.912 -0.9479,51.363"
       stroke-width="1px"
       stroke="#666666"
       fill-rule="evenodd"
       fill="none"
       id="path3497" />
    <path
       d="m 89.9458,46.1178 c 0,0 60.0542,-50.89508 121.2192,-28.2677"
       stroke-width="1px"
       stroke="#666666"
       fill-rule="evenodd"
       fill="none"
       id="path3499" />
    <path
       d="m 232.177,434.739 c 0,0 52.386,13.452 133.187,-34.233"
       stroke-width="1px"
       stroke="#666666"
       fill-rule="evenodd"
       fill="none"
       id="path3501" />
    <path
       d="m 145.227,119.067 c 0,0 30.091,-41.4414 74.341,-61.3164"
       stroke-width="3"
       stroke-miterlimit="4"
       stroke-linecap="square"
       stroke="#f2f2f2"
       fill-rule="evenodd"
       fill="none"
       id="path3504" />
    <path
       d="m 217.517,396.189 c 0,0 30.823,-5.946 71.835,-62.514"
       stroke-width="3"
       stroke-miterlimit="4"
       stroke="#ffffff"
       fill-rule="evenodd"
       fill="none"
       id="path3508" />
    <path
       d="m 97.8194,273.865 c 0,0 -1.9445,50.396 23.1576,89.994"
       stroke-width="3"
       stroke-miterlimit="4"
       stroke="#ffffff"
       fill-rule="evenodd"
       fill="none"
       id="path3510" />
    <path
       d="m 167.374,210.078 c 0,0 26.34,6.187 101.293,32.704"
       stroke-width="1px"
       stroke-miterlimit="4"
       stroke-dashoffset="0"
       stroke="#999999"
       marker-start="none"
       marker-mid="none"
       marker-end="none"
       fill-rule="evenodd"
       fill="none"
       id="path2453" />
    <path
       d="m 167.374,208.803 c 0,0 26.34,6.187 101.293,32.704"
       stroke-width="1px"
       stroke-miterlimit="4"
       stroke-dashoffset="0"
       stroke="#ececec"
       marker-start="none"
       marker-mid="none"
       marker-end="none"
       fill-rule="evenodd"
       fill="none"
       id="path3260" />
    <title
       id="title35">Layer 1</title>
  </g>
</svg>
