<?xml version="1.0" encoding="UTF-8" standalone="no"?>
<svg
   xmlns:dc="http://purl.org/dc/elements/1.1/"
   xmlns:cc="http://creativecommons.org/ns#"
   xmlns:rdf="http://www.w3.org/1999/02/22-rdf-syntax-ns#"
   xmlns:svg="http://www.w3.org/2000/svg"
   xmlns="http://www.w3.org/2000/svg"
   xmlns:sodipodi="http://sodipodi.sourceforge.net/DTD/sodipodi-0.dtd"
   xmlns:inkscape="http://www.inkscape.org/namespaces/inkscape"
   width="375.383"
   height="347.409"
   version="1.1"
   id="svg50"
   sodipodi:docname="spline1.svg"
   inkscape:version="0.92.3 (2405546, 2018-03-11)">
  <metadata
     id="metadata56">
    <rdf:RDF>
      <cc:Work
         rdf:about="">
        <dc:format>image/svg+xml</dc:format>
        <dc:type
           rdf:resource="http://purl.org/dc/dcmitype/StillImage" />
        <dc:title></dc:title>
      </cc:Work>
    </rdf:RDF>
  </metadata>
  <defs
     id="defs54">
    <marker
       inkscape:isstock="true"
       style="overflow:visible"
       id="marker1194"
       refX="0"
       refY="0"
       orient="auto"
       inkscape:stockid="Arrow2Mend">
      <path
         transform="scale(-0.6)"
         d="M 8.71859,4.03374 -2.20729,0.016013 8.71859,-4.00171 c -1.7455,2.37206 -1.73544,5.61745 0,8.03545 z"
         style="fill:#000000;fill-opacity:1;fill-rule:evenodd;stroke:#000000;stroke-width:0.625;stroke-linejoin:round;stroke-opacity:1"
         id="path1192"
         inkscape:connector-curvature="0" />
    </marker>
    <marker
       inkscape:stockid="Arrow2Mend"
       orient="auto"
       refY="0"
       refX="0"
       id="Arrow2Mend"
       style="overflow:visible"
       inkscape:isstock="true"
       inkscape:collect="always">
      <path
         id="path937"
         style="fill:#000000;fill-opacity:1;fill-rule:evenodd;stroke:#000000;stroke-width:0.625;stroke-linejoin:round;stroke-opacity:1"
         d="M 8.71859,4.03374 -2.20729,0.016013 8.71859,-4.00171 c -1.7455,2.37206 -1.73544,5.61745 0,8.03545 z"
         transform="scale(-0.6)"
         inkscape:connector-curvature="0" />
    </marker>
  </defs>
  <sodipodi:namedview
     pagecolor="#ffffff"
     bordercolor="#666666"
     borderopacity="1"
     objecttolerance="10"
     gridtolerance="10"
     guidetolerance="10"
     inkscape:pageopacity="0"
     inkscape:pageshadow="2"
     inkscape:window-width="640"
     inkscape:window-height="480"
     id="namedview52"
     showgrid="false"
     inkscape:current-layer="svg50" />
  <desc
     id="desc2">SVG Output</desc>
  <polyline
     points="0.0000 307.02, 550.00 307.02, "
     id="polyline4"
     style="stroke:#000000;stroke-width:3.122738;stroke-miterlimit:4;stroke-dasharray:none;marker-end:url(#marker1194)"
     transform="matrix(0.582028,0,0,0.704766,25.0869,98.0519)" />
  <polyline
     points="105.68 340.00, 105.68 0.0000, "
     id="polyline6"
     style="stroke:#000000;stroke-width:2;stroke-miterlimit:4;stroke-dasharray:none;marker-end:url(#Arrow2Mend)"
     transform="translate(-70.6985,7.40914)" />
  <polyline
     points="0.0000 442.49, 550.00 442.49, "
     id="polyline8"
     transform="matrix(0.631766,0,0,1,25.0869,-263.527)"
     style="stroke:#888888;stroke-width:0.629059" />
  <polyline
     points="0.0000 397.33, 550.00 397.33, "
     id="polyline10"
     transform="matrix(0.631766,0,0,1,25.0869,-263.527)"
     style="stroke:#888888;stroke-width:0.629059" />
  <polyline
     points="0.0000 352.17, 550.00 352.17, "
     id="polyline12"
     transform="matrix(0.631766,0,0,1,25.0869,-263.527)"
     style="stroke:#888888;stroke-width:0.629059" />
  <polyline
     points="0.0000 261.86, 550.00 261.86, "
     id="polyline16"
     style="stroke:#888888;stroke-width:0.629059"
     transform="matrix(0.631766,0,0,1,25.0869,7.40914)" />
  <polyline
     points="0.0000 216.70, 550.00 216.70, "
     id="polyline18"
     style="stroke:#888888;stroke-width:0.629059"
     transform="matrix(0.631766,0,0,1,25.0869,7.40914)" />
  <polyline
     points="-120.10 340.00, -120.10 0.0000, "
     id="polyline22"
     transform="translate(381.301,7.40914)"
     style="stroke:#888888;stroke-width:0.5" />
  <polyline
     points="-74.945 340.00, -74.945 0.0000, "
     id="polyline24"
     transform="translate(381.301,7.40914)"
     style="stroke:#888888;stroke-width:0.5" />
  <polyline
     points="-29.787 340.00, -29.787 0.0000, "
     id="polyline26"
     transform="translate(381.301,7.40914)"
     style="stroke:#888888;stroke-width:0.5" />
  <polyline
     points="150.84 340.00, 150.84 0.0000, "
     id="polyline34"
     style="stroke:#888888;stroke-width:0.5"
     transform="translate(-70.6985,7.40914)" />
  <polyline
     points="196.00 340.00, 196.00 0.0000, "
     id="polyline36"
     style="stroke:#888888;stroke-width:0.5"
     transform="translate(-70.6985,7.40914)" />
  <polyline
     points="241.16 340.00, 241.16 0.0000, "
     id="polyline38"
     style="stroke:#888888;stroke-width:0.5"
     transform="translate(-70.6985,7.40914)" />
  <polyline
     points="286.31 340.00, 286.31 0.0000, "
     id="polyline40"
     style="stroke:#888888;stroke-width:0.5"
     transform="translate(-70.6985,7.40914)" />
  <path
     style="fill:none;fill-opacity:0.2;stroke:#00008b;stroke-width:1.5;stroke-miterlimit:4;stroke-dasharray:1.5,6;stroke-dashoffset:0;stroke-opacity:0.930108"
     d="m 0.604869,39.7839 0.696601,0.9502 1,1.369 1,1.374 1,1.378 1,1.383 1,1.388 1,1.391 1,1.396 1,1.399 1.00003,1.404 1,1.407 1,1.41 1,1.414 1,1.417 1,1.42 1,1.423 1,1.426 1,1.428 1,1.431 1,1.433 1,1.435 1,1.437 1,1.439 1,1.441 1,1.442 1,1.444 1,1.445 1,1.446 1,1.448 1,1.448 1,1.448 1,1.449 1,1.45 1,1.45 1,1.45 1,1.45 1,1.45 1,1.449 1,1.449 1,1.448 1,1.448 1,1.446 1,1.4459 1,1.444 1,1.443 1,1.441 1,1.44 1,1.438 1,1.44 1,1.43 1,1.43 1,1.43 1,1.43 1,1.42 1,1.42 1,1.42 1,1.42 1,1.41 1,1.41 1,1.4 1,1.4 1,1.4 1,1.39 1,1.39 1,1.38 1,1.39 1,1.37 1,1.37 1,1.37 1,1.36 1,1.35 1,1.35 1,1.35 1,1.34 1,1.33 1,1.33 1,1.32 1,1.32 1,1.3 1,1.31 1,1.29 1,1.29 1,1.28 1,1.28 1,1.26 1,1.26 1,1.26 1,1.24 1,1.24 1,1.23 1,1.22 1,1.21 1,1.21 1,1.19 1,1.19 1,1.18 1,1.16 1,1.16 1,1.15 0.9995,1.15 1,1.13 1,1.12 1,1.11 1,1.1 1,1.09 1,1.08 1,1.08 1,1.06 1,1.04 1,1.04 1,1.03 1,1.02 1,1 1,0.99 1,0.98 1,0.97 1,0.96 1,0.95 1,0.93 1,0.92 1,0.91 1,0.9 1,0.88 1,0.87 1,0.85 1,0.85 1,0.83 1,0.81 1,0.81 1,0.79 1,0.77 1,0.76 1,0.75 1,0.73 1,0.72 1,0.7 1,0.69 1,0.67 1,0.65 1,0.65 1,0.62 1,0.61 1,0.6 1,0.58 1,0.56 1,0.55 1,0.53 1,0.51 1,0.5 1,0.48 1,0.46 1,0.45 1,0.43 1,0.41 1,0.39 1,0.38 1,0.36 1,0.34 1,0.32 1,0.3 1,0.29 1,0.27 1,0.25 1,0.22 1,0.22 1,0.19 1,0.17 1,0.15 1,0.13 1,0.12 1,0.09 1,0.07 1,0.06 1,0.03 1,0.01 1,-0.01 1,-0.03 1,-0.05 1,-0.07 1,-0.09 1,-0.12 1,-0.13 1,-0.16 1,-0.18 1,-0.2 1,-0.22 1,-0.25 1,-0.27 1,-0.29 1,-0.31 1,-0.33 1,-0.36 1,-0.39 1,-0.4 1,-0.43 1,-0.45 1,-0.48 1,-0.5 1,-0.52 1,-0.55 1,-0.57 1,-0.6 1,-0.62 1,-0.65 1,-0.67 1,-0.7 1,-0.72 1,-0.74 1,-0.78 1,-0.79 1,-0.83 1,-0.85 1,-0.87 1,-0.91 1,-0.92 1,-0.96 1,-0.98 1,-1.01 1,-1.03 1,-1.07 1,-1.09 1,-1.11 1,-1.15 1,-1.17 1,-1.2 1,-1.23 1,-1.26 1,-1.28 1,-1.31 1,-1.35 1,-1.37 1,-1.4 1,-1.42 1,-1.46 1,-1.49 1,-1.52 1,-1.54 1,-1.58 1,-1.6 1,-1.64 1,-1.66 1,-1.7 1,-1.73 1,-1.76 1,-1.78 1,-1.82 1,-1.85 1,-1.88 1,-1.92 1,-1.94 1,-1.98 1,-2.01 1,-2.04 1,-2.07 1,-2.1 1,-2.14 1,-2.17 1,-2.2 1,-2.24 1,-2.26 1,-2.3 1,-2.34 1,-2.37 1,-2.4 1,-2.43 1,-2.47 1,-2.5 1,-2.54 1,-2.57 1,-2.61 1,-2.64 1,-2.674 1,-2.711 1,-2.7449 1,-2.78 1,-2.816 1,-2.852 1,-2.887 1,-2.922 1,-2.959 1,-2.995 1,-3.031 1,-3.068 1,-3.104 1,-3.14 1,-3.178 1,-3.214 1,-3.252 1,-3.289 1,-3.326 1,-3.364 1,-3.401 1,-3.44 1,-3.477 1,-3.515 1,-3.554 1,-3.593 1,-3.63 1,-3.67 1,-3.7086 1,-3.7475 1,-3.78666 1,-3.826 1,-3.8655"
     id="path1264"
     inkscape:connector-curvature="0" />
  <polyline
     points="77.000 -1.1018, 78.000 1.3227, 79.000 3.7339, 80.000 6.1318, 81.000 8.5164, 82.000 10.888, 83.000 13.246, 84.000 15.591, 85.000 17.922, 86.000 20.240, 87.000 22.545, 88.000 24.837, 89.000 27.115, 90.000 29.380, 91.000 31.632, 92.000 33.870, 93.000 36.096, 94.000 38.307, 95.000 40.506, 96.000 42.691, 97.000 44.863, 98.000 47.022, 99.000 49.168, 100.00 51.300, 101.00 53.419, 102.00 55.524, 103.00 57.617, 104.00 59.696, 105.00 61.761, 106.00 63.814, 107.00 65.853, 108.00 67.879, 109.00 69.891, 110.00 71.891, 111.00 73.877, 112.00 75.849, 113.00 77.809, 114.00 79.755, 115.00 81.688, 116.00 83.607, 117.00 85.514, 118.00 87.407, 119.00 89.287, 120.00 91.153, 121.00 93.006, 122.00 94.846, 123.00 96.673, 124.00 98.486, 125.00 100.29, 126.00 102.07, 127.00 103.85, 128.00 105.61, 129.00 107.35, 130.00 109.09, 131.00 110.81, 132.00 112.51, 133.00 114.21, 134.00 115.89, 135.00 117.56, 136.00 119.21, 137.00 120.85, 138.00 122.48, 139.00 124.09, 140.00 125.69, 141.00 127.28, 142.00 128.85, 143.00 130.41, 144.00 131.96, 145.00 133.50, 146.00 135.02, 147.00 136.52, 148.00 138.02, 149.00 139.50, 150.00 140.97, 151.00 142.42, 152.00 143.86, 153.00 145.29, 154.00 146.71, 155.00 148.11, 156.00 149.50, 157.00 150.87, 158.00 152.23, 159.00 153.58, 160.00 154.92, 161.00 156.24, 162.00 157.55, 163.00 158.84, 164.00 160.12, 165.00 161.39, 166.00 162.65, 167.00 163.89, 168.00 165.12, 169.00 166.33, 170.00 167.53, 171.00 168.72, 172.00 169.90, 173.00 171.06, 174.00 172.21, 175.00 173.35, 176.00 174.47, 177.00 175.58, 178.00 176.67, 179.00 177.75, 180.00 178.82, 181.00 179.88, 182.00 180.92, 183.00 181.95, 184.00 182.97, 185.00 183.97, 186.00 184.96, 187.00 185.94, 188.00 186.90, 189.00 187.85, 190.00 188.79, 191.00 189.71, 192.00 190.62, 193.00 191.51, 194.00 192.40, 195.00 193.27, 196.00 194.12, 197.00 194.97, 198.00 195.80, 199.00 196.61, 200.00 197.42, 201.00 198.21, 202.00 198.99, 203.00 199.75, 204.00 200.50, 205.00 201.24, 206.00 201.96, 207.00 202.67, 208.00 203.37, 209.00 204.05, 210.00 204.72, 211.00 205.38, 212.00 206.02, 213.00 206.65, 214.00 207.27, 215.00 207.88, 216.00 208.47, 217.00 209.04, 218.00 209.61, 219.00 210.16, 220.00 210.70, 221.00 211.22, 222.00 211.73, 223.00 212.23, 224.00 212.72, 225.00 213.19, 226.00 213.64, 227.00 214.09, 228.00 214.52, 229.00 214.94, 230.00 215.34, 231.00 215.74, 232.00 216.11, 233.00 216.48, 234.00 216.83, 235.00 217.17, 236.00 217.49, 237.00 217.81, 238.00 218.10, 239.00 218.39, 240.00 218.66, 241.00 218.92, 242.00 219.17, 243.00 219.40, 244.00 219.62, 245.00 219.82, 246.00 220.02, 247.00 220.19, 248.00 220.36, 249.00 220.51, 250.00 220.65, 251.00 220.78, 252.00 220.89, 253.00 220.99, 254.00 221.08, 255.00 221.15, 256.00 221.21, 257.00 221.25, 258.00 221.29, 259.00 221.31, 260.00 221.31, 261.00 221.31, 262.00 221.28, 263.00 221.25, 264.00 221.20, 265.00 221.14, 266.00 221.07, 267.00 220.98, 268.00 220.88, 269.00 220.77, 270.00 220.64, 271.00 220.50, 272.00 220.35, 273.00 220.18, 274.00 220.00, 275.00 219.81, 276.00 219.61, 277.00 219.39, 278.00 219.15, 279.00 218.91, 280.00 218.65, 281.00 218.37, 282.00 218.09, 283.00 217.79, 284.00 217.48, 285.00 217.15, 286.00 216.81, 287.00 216.46, 288.00 216.09, 289.00 215.71, 290.00 215.32, 291.00 214.92, 292.00 214.50, 293.00 214.07, 294.00 213.62, 295.00 213.16, 296.00 212.69, 297.00 212.20, 298.00 211.70, 299.00 211.19, 300.00 210.67, 301.00 210.13, 302.00 209.58, 303.00 209.01, 304.00 208.43, 305.00 207.84, 306.00 207.24, 307.00 206.62, 308.00 205.99, 309.00 205.34, 310.00 204.68, 311.00 204.01, 312.00 203.33, 313.00 202.63, 314.00 201.92, 315.00 201.20, 316.00 200.46, 317.00 199.71, 318.00 198.94, 319.00 198.16, 320.00 197.37, 321.00 196.57, 322.00 195.75, 323.00 194.92, 324.00 194.08, 325.00 193.22, 326.00 192.35, 327.00 191.46, 328.00 190.57, 329.00 189.66, 330.00 188.73, 331.00 187.80, 332.00 186.85, 333.00 185.88, 334.00 184.90, 335.00 183.91, 336.00 182.91, 337.00 181.89, 338.00 180.86, 339.00 179.82, 340.00 178.76, 341.00 177.69, 342.00 176.61, 343.00 175.51, 344.00 174.40, 345.00 173.28, 346.00 172.14, 347.00 171.00, 348.00 169.83, 349.00 168.66, 350.00 167.47, 351.00 166.26, 352.00 165.05, 353.00 163.82, 354.00 162.58, 355.00 161.32, 356.00 160.05, 357.00 158.77, 358.00 157.47, 359.00 156.16, 360.00 154.84, 361.00 153.50, 362.00 152.16, 363.00 150.79, 364.00 149.42, 365.00 148.03, 366.00 146.63, 367.00 145.21, 368.00 143.78, 369.00 142.34, 370.00 140.89, 371.00 139.42, 372.00 137.93, 373.00 136.44, 374.00 134.93, 375.00 133.41, 376.00 131.87, 377.00 130.33, 378.00 128.76, 379.00 127.19, 380.00 125.60, 381.00 124.00, 382.00 122.39, 383.00 120.76, 384.00 119.12, 385.00 117.46, 386.00 115.79, 387.00 114.11, 388.00 112.42, 389.00 110.71, 390.00 108.99, 391.00 107.25, 392.00 105.51, 393.00 103.75, 394.00 101.97, 395.00 100.18, 396.00 98.384, 397.00 96.570, 398.00 94.743, 399.00 92.902, 400.00 91.048, 401.00 89.181, 402.00 87.301, 403.00 85.407, 404.00 83.500, 405.00 81.579, 406.00 79.646, 407.00 77.699, 408.00 75.739, 409.00 73.765, 410.00 71.778, 411.00 69.778, 412.00 67.765, 413.00 65.738, 414.00 63.699, 415.00 61.645, 416.00 59.579, 417.00 57.499, 418.00 55.406, 419.00 53.300, 420.00 51.180, 421.00 49.047, 422.00 46.901, 423.00 44.741, 424.00 42.569, 425.00 40.383, 426.00 38.183, 427.00 35.971, 428.00 33.745, 429.00 31.505, 430.00 29.253, 431.00 26.987, 432.00 24.708, 433.00 22.416, 434.00 20.110, 435.00 17.791, 436.00 15.459, 437.00 13.113, 438.00 10.755, 439.00 8.3825, 440.00 5.9971, 441.00 3.5984, 442.00 1.1865, 443.00 -1.2387, 444.00 -3.6772, "
     id="polyline46"
     style="fill:none;fill-opacity:0.2;stroke:#ffa500;stroke-width:1.5;stroke-miterlimit:4;stroke-dasharray:1.5,6;stroke-dashoffset:0;stroke-opacity:1"
     transform="translate(-70.6985,7.40914)" />
  <path
     style="fill:none;fill-opacity:0.2;stroke:#ff0000;stroke-width:1.5;stroke-miterlimit:4;stroke-dasharray:1.5,6;stroke-dashoffset:0;stroke-opacity:0.983871"
     d="m 54.3015,4.76844 1,3.6891 1,3.65206 1,3.6155 1,3.579 1,3.542 1,3.506 1,3.47 1,3.434 1,3.399 1,3.362 1,3.327 1,3.291 1,3.257 1,3.221 1,3.186 1,3.152 1,3.116 1,3.082 1,3.048 1,3.014 1,2.979 1,2.946 1,2.912 1,2.878 1,2.845 1,2.811 1,2.778 1,2.745 1,2.713 1,2.679 1,2.6469 1,2.614 1,2.581 1,2.55 1,2.52 1,2.49 1,2.45 1,2.42 1,2.39 1,2.36 1,2.33 1,2.3 1,2.27 1,2.23 1,2.21 0.9995,2.18 1,2.14 1,2.12 1,2.08 1,2.06 1,2.02 1,2 1,1.96 1,1.94 1,1.91 1,1.88 1,1.85 1,1.82 1,1.8 1,1.76 1,1.74 1,1.71 1,1.68 1,1.65 1,1.63 1,1.6 1,1.57 1,1.54 1,1.52 1,1.49 1,1.46 1,1.44 1,1.41 1,1.38 1,1.36 1,1.33 1,1.31 1,1.28 1,1.25 1,1.23 1,1.21 1,1.18 1,1.15 1,1.13 1,1.1 1,1.08 1,1.06 1,1.03 1,1.01 1,0.98 1,0.96 1,0.94 1,0.91 1,0.89 1,0.87 1,0.84 1,0.82 1,0.8 1,0.77 1,0.76 1,0.73 1,0.7 1,0.69 1,0.66 1,0.65 1,0.62 1,0.6 1,0.57 1,0.56 1,0.54 1,0.51 1,0.5 1,0.47 1,0.45 1,0.44 1,0.41 1,0.39 1,0.38 1,0.35 1,0.33 1,0.32 1,0.29 1,0.28 1,0.26 1,0.24 1,0.22 1,0.2 1,0.18 1,0.17 1,0.15 1,0.12 1,0.12 1,0.09 1,0.08 1,0.06 1,0.04 1,0.02 1,0.01 1,-0.01 1,-0.02 1,-0.04 1,-0.06 1,-0.08 1,-0.09 1,-0.1 1,-0.12 1,-0.14 1,-0.15 1,-0.17 1,-0.18 1,-0.2 1,-0.21 1,-0.23 1,-0.24 1,-0.26 1,-0.27 1,-0.28 1,-0.3 1,-0.31 1,-0.33 1,-0.34 1,-0.35 1,-0.37 1,-0.38 1,-0.39 1,-0.4 1,-0.42 1,-0.43 1,-0.44 1,-0.45 1,-0.47 1,-0.48 1,-0.49 1,-0.5 1,-0.51 1,-0.52 1,-0.54 1,-0.54 1,-0.56 1,-0.57 1,-0.58 1,-0.58 1,-0.6 1,-0.61 1,-0.62 1,-0.63 1,-0.64 1,-0.64 1,-0.66 1,-0.67 1,-0.67 1,-0.69 1,-0.69 1,-0.7 1,-0.71 1,-0.72 1,-0.72 1,-0.74 1,-0.74 1,-0.75 1,-0.76 1,-0.76 1,-0.78 1,-0.78 1,-0.78 1,-0.8 1,-0.8 1,-0.8 1,-0.82 1,-0.82 1,-0.82 1,-0.83 1,-0.84 1,-0.84 1,-0.85 1,-0.86 1,-0.86 1,-0.86 1,-0.87 1,-0.87 1,-0.88 1,-0.88 1,-0.89 1,-0.89 1,-0.9 1,-0.9 1,-0.9 1,-0.91 1,-0.91 1,-0.91 1,-0.92 1,-0.92 1,-0.93 1,-0.92 1,-0.93 1,-0.93 1,-0.93 1,-0.94 1,-0.94 1,-0.94 1,-0.94 1,-0.94 1,-0.94 1,-0.95 1,-0.94 1,-0.95 1,-0.95 1,-0.95 1,-0.95 1,-0.95 1,-0.95 1,-0.95 1,-0.95 1,-0.95 1,-0.95 1,-0.94 1,-0.95 1,-0.95 1,-0.95 1,-0.94 1,-0.95 1,-0.94 1,-0.94 1,-0.94 1,-0.94 1,-0.93 1,-0.94 1,-0.93 1,-0.93 1,-0.92 1,-0.93 1,-0.92 1,-0.92 1,-0.91 1,-0.91 1,-0.91 1,-0.91 1,-0.9 1,-0.89 1,-0.9 1,-0.89 1,-0.88 1,-0.88 1,-0.88 1,-0.87 1,-0.86 1,-0.86 1,-0.86 1,-0.85 1,-0.84 1,-0.84 1,-0.83 1,-0.83 1,-0.82 1,-0.82 1,-0.8 1,-0.81 1,-0.79 1,-0.79 1,-0.78 1,-0.78 1,-0.76 1,-0.76 1,-0.75 1,-0.75 1,-0.74 1,-0.72 1,-0.724 1,-0.713 1,-0.703 1,-0.695 1,-0.687 1,-0.677 1,-0.668 1,-0.66 1,-0.65 1,-0.64 1,-0.631 1,-0.6209 1,-0.611 0.695,-0.4178"
     id="polyline48"
     inkscape:connector-curvature="0" />
  <polyline
     style="stroke:#888888;stroke-width:0.629059"
     transform="matrix(0.631766,0,0,1,25.0869,-309.527)"
     id="polyline868"
     points="0.0000 352.17, 550.00 352.17, " />
  <text
     xml:space="preserve"
     style="color:#000000;font-style:normal;font-variant:normal;font-weight:normal;font-stretch:normal;font-size:20px;line-height:25px;font-family:Arial;-inkscape-font-specification:Arial;text-indent:0;text-align:start;text-decoration:none;text-decoration-line:none;text-decoration-style:solid;text-decoration-color:#000000;letter-spacing:0px;word-spacing:0px;text-transform:none;writing-mode:lr-tb;direction:ltr;baseline-shift:baseline;text-anchor:start;white-space:normal;clip-rule:nonzero;display:inline;overflow:visible;visibility:visible;opacity:1;isolation:auto;mix-blend-mode:normal;color-interpolation:sRGB;color-interpolation-filters:linearRGB;solid-color:#000000;solid-opacity:1;fill:#000000;fill-opacity:1;fill-rule:nonzero;stroke:none;stroke-width:1px;stroke-linecap:butt;stroke-linejoin:miter;stroke-miterlimit:4;stroke-dasharray:none;stroke-dashoffset:0;stroke-opacity:1;color-rendering:auto;image-rendering:auto;shape-rendering:auto;text-rendering:auto;enable-background:accumulate"
     x="30.0675"
     y="335.379"
     id="text872"><tspan
       sodipodi:role="line"
       id="tspan870"
       x="30.0675"
       y="335.379">0</tspan></text>
  <text
     id="text876"
     y="335.379"
     x="120.067"
     style="color:#000000;font-style:normal;font-variant:normal;font-weight:normal;font-stretch:normal;font-size:20px;line-height:25px;font-family:Arial;-inkscape-font-specification:Arial;text-indent:0;text-align:start;text-decoration:none;text-decoration-line:none;text-decoration-style:solid;text-decoration-color:#000000;letter-spacing:0px;word-spacing:0px;text-transform:none;writing-mode:lr-tb;direction:ltr;baseline-shift:baseline;text-anchor:start;white-space:normal;clip-rule:nonzero;display:inline;overflow:visible;visibility:visible;opacity:1;isolation:auto;mix-blend-mode:normal;color-interpolation:sRGB;color-interpolation-filters:linearRGB;solid-color:#000000;solid-opacity:1;fill:#000000;fill-opacity:1;fill-rule:nonzero;stroke:none;stroke-width:1px;stroke-linecap:butt;stroke-linejoin:miter;stroke-miterlimit:4;stroke-dasharray:none;stroke-dashoffset:0;stroke-opacity:1;color-rendering:auto;image-rendering:auto;shape-rendering:auto;text-rendering:auto;enable-background:accumulate"
     xml:space="preserve"><tspan
       y="335.379"
       x="120.067"
       id="tspan874"
       sodipodi:role="line">2</tspan></text>
  <text
     xml:space="preserve"
     style="color:#000000;font-style:normal;font-variant:normal;font-weight:normal;font-stretch:normal;font-size:20px;line-height:25px;font-family:Arial;-inkscape-font-specification:Arial;text-indent:0;text-align:start;text-decoration:none;text-decoration-line:none;text-decoration-style:solid;text-decoration-color:#000000;letter-spacing:0px;word-spacing:0px;text-transform:none;writing-mode:lr-tb;direction:ltr;baseline-shift:baseline;text-anchor:start;white-space:normal;clip-rule:nonzero;display:inline;overflow:visible;visibility:visible;opacity:1;isolation:auto;mix-blend-mode:normal;color-interpolation:sRGB;color-interpolation-filters:linearRGB;solid-color:#000000;solid-opacity:1;fill:#000000;fill-opacity:1;fill-rule:nonzero;stroke:none;stroke-width:1px;stroke-linecap:butt;stroke-linejoin:miter;stroke-miterlimit:4;stroke-dasharray:none;stroke-dashoffset:0;stroke-opacity:1;color-rendering:auto;image-rendering:auto;shape-rendering:auto;text-rendering:auto;enable-background:accumulate"
     x="210.067"
     y="335.379"
     id="text880"><tspan
       sodipodi:role="line"
       id="tspan878"
       x="210.067"
       y="335.379">4</tspan></text>
  <text
     id="text884"
     y="335.379"
     x="300.067"
     style="color:#000000;font-style:normal;font-variant:normal;font-weight:normal;font-stretch:normal;font-size:20px;line-height:25px;font-family:Arial;-inkscape-font-specification:Arial;text-indent:0;text-align:start;text-decoration:none;text-decoration-line:none;text-decoration-style:solid;text-decoration-color:#000000;letter-spacing:0px;word-spacing:0px;text-transform:none;writing-mode:lr-tb;direction:ltr;baseline-shift:baseline;text-anchor:start;white-space:normal;clip-rule:nonzero;display:inline;overflow:visible;visibility:visible;opacity:1;isolation:auto;mix-blend-mode:normal;color-interpolation:sRGB;color-interpolation-filters:linearRGB;solid-color:#000000;solid-opacity:1;fill:#000000;fill-opacity:1;fill-rule:nonzero;stroke:none;stroke-width:1px;stroke-linecap:butt;stroke-linejoin:miter;stroke-miterlimit:4;stroke-dasharray:none;stroke-dashoffset:0;stroke-opacity:1;color-rendering:auto;image-rendering:auto;shape-rendering:auto;text-rendering:auto;enable-background:accumulate"
     xml:space="preserve"><tspan
       y="335.379"
       x="300.067"
       id="tspan882"
       sodipodi:role="line">6</tspan></text>
  <text
     id="text888"
     y="321.379"
     x="12.0675"
     style="color:#000000;font-style:normal;font-variant:normal;font-weight:normal;font-stretch:normal;font-size:20px;line-height:25px;font-family:Arial;-inkscape-font-specification:Arial;text-indent:0;text-align:start;text-decoration:none;text-decoration-line:none;text-decoration-style:solid;text-decoration-color:#000000;letter-spacing:0px;word-spacing:0px;text-transform:none;writing-mode:lr-tb;direction:ltr;baseline-shift:baseline;text-anchor:start;white-space:normal;clip-rule:nonzero;display:inline;overflow:visible;visibility:visible;opacity:1;isolation:auto;mix-blend-mode:normal;color-interpolation:sRGB;color-interpolation-filters:linearRGB;solid-color:#000000;solid-opacity:1;fill:#000000;fill-opacity:1;fill-rule:nonzero;stroke:none;stroke-width:1px;stroke-linecap:butt;stroke-linejoin:miter;stroke-miterlimit:4;stroke-dasharray:none;stroke-dashoffset:0;stroke-opacity:1;color-rendering:auto;image-rendering:auto;shape-rendering:auto;text-rendering:auto;enable-background:accumulate"
     xml:space="preserve"><tspan
       y="321.379"
       x="12.0675"
       id="tspan886"
       sodipodi:role="line">0</tspan></text>
  <text
     xml:space="preserve"
     style="color:#000000;font-style:normal;font-variant:normal;font-weight:normal;font-stretch:normal;font-size:20px;line-height:25px;font-family:Arial;-inkscape-font-specification:Arial;text-indent:0;text-align:start;text-decoration:none;text-decoration-line:none;text-decoration-style:solid;text-decoration-color:#000000;letter-spacing:0px;word-spacing:0px;text-transform:none;writing-mode:lr-tb;direction:ltr;baseline-shift:baseline;text-anchor:start;white-space:normal;clip-rule:nonzero;display:inline;overflow:visible;visibility:visible;opacity:1;isolation:auto;mix-blend-mode:normal;color-interpolation:sRGB;color-interpolation-filters:linearRGB;solid-color:#000000;solid-opacity:1;fill:#000000;fill-opacity:1;fill-rule:nonzero;stroke:none;stroke-width:1px;stroke-linecap:butt;stroke-linejoin:miter;stroke-miterlimit:4;stroke-dasharray:none;stroke-dashoffset:0;stroke-opacity:1;color-rendering:auto;image-rendering:auto;shape-rendering:auto;text-rendering:auto;enable-background:accumulate"
     x="12.0675"
     y="275.379"
     id="text892"><tspan
       sodipodi:role="line"
       id="tspan890"
       x="12.0675"
       y="275.379">1</tspan></text>
  <text
     id="text896"
     y="231.379"
     x="12.0675"
     style="color:#000000;font-style:normal;font-variant:normal;font-weight:normal;font-stretch:normal;font-size:20px;line-height:25px;font-family:Arial;-inkscape-font-specification:Arial;text-indent:0;text-align:start;text-decoration:none;text-decoration-line:none;text-decoration-style:solid;text-decoration-color:#000000;letter-spacing:0px;word-spacing:0px;text-transform:none;writing-mode:lr-tb;direction:ltr;baseline-shift:baseline;text-anchor:start;white-space:normal;clip-rule:nonzero;display:inline;overflow:visible;visibility:visible;opacity:1;isolation:auto;mix-blend-mode:normal;color-interpolation:sRGB;color-interpolation-filters:linearRGB;solid-color:#000000;solid-opacity:1;fill:#000000;fill-opacity:1;fill-rule:nonzero;stroke:none;stroke-width:1px;stroke-linecap:butt;stroke-linejoin:miter;stroke-miterlimit:4;stroke-dasharray:none;stroke-dashoffset:0;stroke-opacity:1;color-rendering:auto;image-rendering:auto;shape-rendering:auto;text-rendering:auto;enable-background:accumulate"
     xml:space="preserve"><tspan
       y="231.379"
       x="12.0675"
       id="tspan894"
       sodipodi:role="line">2</tspan></text>
  <text
     xml:space="preserve"
     style="color:#000000;font-style:normal;font-variant:normal;font-weight:normal;font-stretch:normal;font-size:20px;line-height:25px;font-family:Arial;-inkscape-font-specification:Arial;text-indent:0;text-align:start;text-decoration:none;text-decoration-line:none;text-decoration-style:solid;text-decoration-color:#000000;letter-spacing:0px;word-spacing:0px;text-transform:none;writing-mode:lr-tb;direction:ltr;baseline-shift:baseline;text-anchor:start;white-space:normal;clip-rule:nonzero;display:inline;overflow:visible;visibility:visible;opacity:1;isolation:auto;mix-blend-mode:normal;color-interpolation:sRGB;color-interpolation-filters:linearRGB;solid-color:#000000;solid-opacity:1;fill:#000000;fill-opacity:1;fill-rule:nonzero;stroke:none;stroke-width:1px;stroke-linecap:butt;stroke-linejoin:miter;stroke-miterlimit:4;stroke-dasharray:none;stroke-dashoffset:0;stroke-opacity:1;color-rendering:auto;image-rendering:auto;shape-rendering:auto;text-rendering:auto;enable-background:accumulate"
     x="12.0675"
     y="185.379"
     id="text900"><tspan
       sodipodi:role="line"
       id="tspan898"
       x="12.0675"
       y="185.379">3</tspan></text>
  <text
     id="text904"
     y="141.379"
     x="12.0675"
     style="color:#000000;font-style:normal;font-variant:normal;font-weight:normal;font-stretch:normal;font-size:20px;line-height:25px;font-family:Arial;-inkscape-font-specification:Arial;text-indent:0;text-align:start;text-decoration:none;text-decoration-line:none;text-decoration-style:solid;text-decoration-color:#000000;letter-spacing:0px;word-spacing:0px;text-transform:none;writing-mode:lr-tb;direction:ltr;baseline-shift:baseline;text-anchor:start;white-space:normal;clip-rule:nonzero;display:inline;overflow:visible;visibility:visible;opacity:1;isolation:auto;mix-blend-mode:normal;color-interpolation:sRGB;color-interpolation-filters:linearRGB;solid-color:#000000;solid-opacity:1;fill:#000000;fill-opacity:1;fill-rule:nonzero;stroke:none;stroke-width:1px;stroke-linecap:butt;stroke-linejoin:miter;stroke-miterlimit:4;stroke-dasharray:none;stroke-dashoffset:0;stroke-opacity:1;color-rendering:auto;image-rendering:auto;shape-rendering:auto;text-rendering:auto;enable-background:accumulate"
     xml:space="preserve"><tspan
       y="141.379"
       x="12.0675"
       id="tspan902"
       sodipodi:role="line">4</tspan></text>
  <text
     xml:space="preserve"
     style="color:#000000;font-style:normal;font-variant:normal;font-weight:normal;font-stretch:normal;font-size:20px;line-height:25px;font-family:Arial;-inkscape-font-specification:Arial;text-indent:0;text-align:start;text-decoration:none;text-decoration-line:none;text-decoration-style:solid;text-decoration-color:#000000;letter-spacing:0px;word-spacing:0px;text-transform:none;writing-mode:lr-tb;direction:ltr;baseline-shift:baseline;text-anchor:start;white-space:normal;clip-rule:nonzero;display:inline;overflow:visible;visibility:visible;opacity:1;isolation:auto;mix-blend-mode:normal;color-interpolation:sRGB;color-interpolation-filters:linearRGB;solid-color:#000000;solid-opacity:1;fill:#000000;fill-opacity:1;fill-rule:nonzero;stroke:none;stroke-width:1px;stroke-linecap:butt;stroke-linejoin:miter;stroke-miterlimit:4;stroke-dasharray:none;stroke-dashoffset:0;stroke-opacity:1;color-rendering:auto;image-rendering:auto;shape-rendering:auto;text-rendering:auto;enable-background:accumulate"
     x="12.0675"
     y="95.3791"
     id="text908"><tspan
       sodipodi:role="line"
       id="tspan906"
       x="12.0675"
       y="95.3791">5</tspan></text>
  <path
     style="fill:none;fill-opacity:0.2;stroke:#00008b;stroke-width:2;stroke-miterlimit:4;stroke-dasharray:none"
     d="m 35.0585,88.7446 0.243,0.3525 1,1.45 1,1.45 1,1.449 1,1.449 1,1.448 1,1.448 1,1.446 1,1.4459 1,1.444 1,1.443 1,1.441 1,1.44 1,1.438 1,1.44 1,1.43 1,1.43 1,1.43 1,1.43 1,1.42 1,1.42 1,1.42 1,1.42 1,1.41 1,1.41 1,1.4 1,1.4 1,1.4 1,1.39 1,1.39 1,1.38 1,1.39 1,1.37 1,1.37 1,1.37 1,1.36 1,1.35 1,1.35 1,1.35 1,1.34 1,1.33 1,1.33 1,1.32 1,1.32 1,1.3 1,1.31 1,1.29 1,1.29 1,1.28 1,1.28 1,1.26 1,1.26 1,1.26 1,1.24 1,1.24 1,1.23 1,1.22 1,1.21 1,1.21 1,1.19 1,1.19 1,1.18 1,1.16 1,1.16 1,1.15 0.9995,1.15 1,1.13 1,1.12 1,1.11 1,1.1 1,1.09 1,1.08 1,1.08 1,1.06 1,1.04 1,1.04 1,1.03 1,1.02 1,1 1,0.99 1,0.98 1,0.97 1,0.96 1,0.95 1,0.93 1,0.92 1,0.91 1,0.9 1,0.88 1,0.87 1,0.85 0.345,0.294"
     id="path1225"
     inkscape:connector-curvature="0" />
  <path
     style="fill:none;fill-opacity:0.2;stroke:#ff0000;stroke-width:2;stroke-opacity:1;stroke-miterlimit:4;stroke-dasharray:none"
     d="m 215.367,224.196 0.934,-0.327 1,-0.37 1,-0.38 1,-0.39 1,-0.4 1,-0.42 1,-0.43 1,-0.44 1,-0.45 1,-0.47 1,-0.48 1,-0.49 1,-0.5 1,-0.51 1,-0.52 1,-0.54 1,-0.54 1,-0.56 1,-0.57 1,-0.58 1,-0.58 1,-0.6 1,-0.61 1,-0.62 1,-0.63 1,-0.64 1,-0.64 1,-0.66 1,-0.67 1,-0.67 1,-0.69 1,-0.69 1,-0.7 1,-0.71 1,-0.72 1,-0.72 1,-0.74 1,-0.74 1,-0.75 1,-0.76 1,-0.76 1,-0.78 1,-0.78 1,-0.78 1,-0.8 1,-0.8 1,-0.8 1,-0.82 1,-0.82 1,-0.82 1,-0.83 1,-0.84 1,-0.84 1,-0.85 1,-0.86 1,-0.86 1,-0.86 1,-0.87 1,-0.87 1,-0.88 1,-0.88 1,-0.89 1,-0.89 1,-0.9 1,-0.9 1,-0.9 1,-0.91 1,-0.91 1,-0.91 1,-0.92 1,-0.92 1,-0.93 1,-0.92 1,-0.93 1,-0.93 1,-0.93 1,-0.94 1,-0.94 1,-0.94 1,-0.94 1,-0.94 1,-0.94 1,-0.95 1,-0.94 1,-0.95 1,-0.95 1,-0.95 1,-0.95 1,-0.95 1,-0.95 0.846,-0.803"
     id="path1249"
     inkscape:connector-curvature="0" />
  <path
     style="fill:none;fill-opacity:0.2;stroke:#ffa500;stroke-width:2;stroke-opacity:1;stroke-miterlimit:4;stroke-dasharray:none"
     d="m 125.347,201.569 0.954,0.81 1,0.83 1,0.81 1,0.81 1,0.79 1,0.78 1,0.76 1,0.75 1,0.74 1,0.72 1,0.71 1,0.7 1,0.68 1,0.67 1,0.66 1,0.64 1,0.63 1,0.62 1,0.61 1,0.59 1,0.57 1,0.57 1,0.55 1,0.54 1,0.52 1,0.51 1,0.5 1,0.49 1,0.47 1,0.45 1,0.45 1,0.43 1,0.42 1,0.4 1,0.4 1,0.37 1,0.37 1,0.35 1,0.34 1,0.32 1,0.32 1,0.29 1,0.29 1,0.27 1,0.26 1,0.25 1,0.23 1,0.22 1,0.2 1,0.2 1,0.17 1,0.17 1,0.15 1,0.14 1,0.13 1,0.11 1,0.1 1,0.09 1,0.07 1,0.06 1,0.04 1,0.04 1,0.02 h 1 1 l 1,-0.03 1,-0.03 1,-0.05 1,-0.06 1,-0.07 1,-0.09 1,-0.1 1,-0.11 1,-0.13 1,-0.14 1,-0.15 1,-0.17 1,-0.18 1,-0.19 1,-0.2 1,-0.22 1,-0.24 1,-0.24 1,-0.26 1,-0.28 1,-0.28 1,-0.3 1,-0.31 1,-0.33 1,-0.34 0.05,-0.02"
     id="path1237"
     inkscape:connector-curvature="0" />
  <circle
     style="color:#000000;clip-rule:nonzero;display:inline;overflow:visible;visibility:visible;opacity:1;isolation:auto;mix-blend-mode:normal;color-interpolation:sRGB;color-interpolation-filters:linearRGB;solid-color:#000000;solid-opacity:1;vector-effect:none;fill:#ba00ff;fill-opacity:1;fill-rule:nonzero;stroke:none;stroke-width:1.499995;stroke-linecap:butt;stroke-linejoin:miter;stroke-miterlimit:4;stroke-dasharray:1.499995, 5.99997500000000006;stroke-dashoffset:0;stroke-opacity:1;marker:none;marker-start:none;marker-mid:none;marker-end:none;color-rendering:auto;image-rendering:auto;shape-rendering:auto;text-rendering:auto;enable-background:accumulate"
     id="path1266"
     cx="34.88"
     cy="88.6048"
     r="3.96088" />
  <circle
     r="3.96088"
     cy="201.248"
     cx="124.918"
     id="circle1268"
     style="color:#000000;clip-rule:nonzero;display:inline;overflow:visible;visibility:visible;opacity:1;isolation:auto;mix-blend-mode:normal;color-interpolation:sRGB;color-interpolation-filters:linearRGB;solid-color:#000000;solid-opacity:1;vector-effect:none;fill:#ba00ff;fill-opacity:1;fill-rule:nonzero;stroke:none;stroke-width:1.499995;stroke-linecap:butt;stroke-linejoin:miter;stroke-miterlimit:4;stroke-dasharray:1.499995, 5.99997500000000006;stroke-dashoffset:0;stroke-opacity:1;marker:none;marker-start:none;marker-mid:none;marker-end:none;color-rendering:auto;image-rendering:auto;shape-rendering:auto;text-rendering:auto;enable-background:accumulate" />
  <circle
     style="color:#000000;clip-rule:nonzero;display:inline;overflow:visible;visibility:visible;opacity:1;isolation:auto;mix-blend-mode:normal;color-interpolation:sRGB;color-interpolation-filters:linearRGB;solid-color:#000000;solid-opacity:1;vector-effect:none;fill:#ba00ff;fill-opacity:1;fill-rule:nonzero;stroke:none;stroke-width:1.499995;stroke-linecap:butt;stroke-linejoin:miter;stroke-miterlimit:4;stroke-dasharray:1.499995, 5.99997500000000006;stroke-dashoffset:0;stroke-opacity:1;marker:none;marker-start:none;marker-mid:none;marker-end:none;color-rendering:auto;image-rendering:auto;shape-rendering:auto;text-rendering:auto;enable-background:accumulate"
     id="circle1270"
     cx="216.106"
     cy="223.47"
     r="3.96088" />
  <circle
     r="3.96088"
     cy="156.42"
     cx="306.144"
     id="circle1272"
     style="color:#000000;clip-rule:nonzero;display:inline;overflow:visible;visibility:visible;opacity:1;isolation:auto;mix-blend-mode:normal;color-interpolation:sRGB;color-interpolation-filters:linearRGB;solid-color:#000000;solid-opacity:1;vector-effect:none;fill:#ba00ff;fill-opacity:1;fill-rule:nonzero;stroke:none;stroke-width:1.499995;stroke-linecap:butt;stroke-linejoin:miter;stroke-miterlimit:4;stroke-dasharray:1.499995, 5.99997500000000006;stroke-dashoffset:0;stroke-opacity:1;marker:none;marker-start:none;marker-mid:none;marker-end:none;color-rendering:auto;image-rendering:auto;shape-rendering:auto;text-rendering:auto;enable-background:accumulate" />
</svg>
