<?xml version="1.0" encoding="UTF-8" standalone="no"?>
<svg
   xmlns:dc="http://purl.org/dc/elements/1.1/"
   xmlns:cc="http://creativecommons.org/ns#"
   xmlns:rdf="http://www.w3.org/1999/02/22-rdf-syntax-ns#"
   xmlns:svg="http://www.w3.org/2000/svg"
   xmlns="http://www.w3.org/2000/svg"
   xmlns:sodipodi="http://sodipodi.sourceforge.net/DTD/sodipodi-0.dtd"
   xmlns:inkscape="http://www.inkscape.org/namespaces/inkscape"
   width="307.8"
   height="68.6"
   version="1.1"
   id="svg20"
   sodipodi:docname="square-root-pos-neg.svg"
   inkscape:version="1.0.1 (3bc2e813f5, 2020-09-07)">
  <metadata
     id="metadata24">
    <rdf:RDF>
      <cc:Work
         rdf:about="">
        <dc:format>image/svg+xml</dc:format>
        <dc:type
           rdf:resource="http://purl.org/dc/dcmitype/StillImage" />
      </cc:Work>
    </rdf:RDF>
  </metadata>
  <sodipodi:namedview
     pagecolor="#ffffff"
     bordercolor="#666666"
     borderopacity="1"
     objecttolerance="10"
     gridtolerance="10"
     guidetolerance="10"
     inkscape:pageopacity="0"
     inkscape:pageshadow="2"
     inkscape:window-width="640"
     inkscape:window-height="480"
     id="namedview22"
     showgrid="false"
     inkscape:current-layer="svg20" />
  <defs
     id="defs6">
    <marker
       style="overflow:visible"
       orient="auto"
       id="marker4">
      <path
         transform="matrix(-0.4,0,0,-0.4,-4,0)"
         style="stroke:black;stroke-width:1pt"
         d="M 0,0 5,-5 -12.5,0 5,5 0,0 Z"
         id="path2" />
    </marker>
  </defs>
  <g
     transform="translate(184.99525,-95.060732)"
     id="g8" />
  <text
     x="13.4"
     y="23.4"
     style="font-family:'Comic Sans MS';font-size:26.1px;font-style:italic;overflow:visible;fill:#204a87;stroke-width:1px;"
     id="text10">5 × 5  = 25</text>
  <text
     x="-2.3"
     y="63"
     style="font-family:'Comic Sans MS';font-size:26.1px;font-style:italic;overflow:visible;fill:#204a87;stroke-width:1px;"
     id="text12">-5 × -5 = 25</text>
  <path
     style="overflow:visible;fill:#fdca01;stroke-width:6"
     d="m 156,0.1 c 2,0 4,-0.2 5.8,0.8 2.2,0.8 3.9,2.5 4.8,4.7 1.4,3 0.8,6.3 0.9,9.4 -0.3,2.9 -1,5.7 -2,8.5 -0.3,1.6 -0.3,3.2 -0.3,4.9 0.8,1.9 2.9,2.7 4.8,3.2 1,0.3 2,0.3 3.1,0.3 -0.6,1.4 -1.2,2.7 -1.8,4.1 -2.2,0 -4.3,-0.9 -6.3,-1.8 -2.2,-1.2 -3.7,-3.7 -3.5,-6.2 -0.2,-2.2 0.3,-4.3 1,-6.4 0.7,-2.8 1.2,-5.7 1.1,-8.7 -0,-1.8 0.2,-3.8 -0.8,-5.4 -1.2,-2.4 -4,-3.6 -6.5,-3.3 -1,0 -1.8,0.2 -1.2,-1 0.2,-1.1 0.5,-2.2 0.7,-3.3 l 0,0.1 z"
     id="path14" />
  <path
     style="overflow:visible;fill:#fdca01;stroke-width:6"
     d="m 156,68.4 c 1.8,-0 3.8,0.3 5.4,-0.7 2.4,-0.7 4.2,-2.5 5.2,-4.8 1.4,-3 0.8,-6.3 0.9,-9.4 -0.3,-2.9 -1,-5.7 -2,-8.5 -0.3,-1.6 -0.3,-3.2 -0.3,-4.9 0.8,-1.9 2.9,-2.7 4.8,-3.2 1,-0.3 2,-0.3 3.1,-0.3 -0.6,-1.4 -1.2,-2.7 -1.8,-4.1 -2.2,-0 -4.3,0.9 -6.3,1.8 -2.2,1.2 -3.7,3.7 -3.5,6.2 -0.2,2.2 0.3,4.3 1,6.4 0.7,2.8 1.2,5.7 1.1,8.7 -0,1.8 0.2,3.8 -0.8,5.4 -1.2,2.4 -4,3.6 -6.5,3.3 -1,-0 -1.8,-0.2 -1.2,1 0.2,1.1 0.5,2.2 0.7,3.3 l 0,-0.1 z"
     id="path16" />
  <text
     x="181.6"
     y="40.2"
     style="font-family:'Comic Sans MS';font-size:21px;overflow:visible;fill:#fdca01;stroke-width:5.1"
     id="text18">same answer!</text>
</svg>
