<?xml version="1.0" encoding="UTF-8" standalone="no"?>
<svg
   xmlns:dc="http://purl.org/dc/elements/1.1/"
   xmlns:cc="http://creativecommons.org/ns#"
   xmlns:rdf="http://www.w3.org/1999/02/22-rdf-syntax-ns#"
   xmlns:svg="http://www.w3.org/2000/svg"
   xmlns="http://www.w3.org/2000/svg"
   xmlns:sodipodi="http://sodipodi.sourceforge.net/DTD/sodipodi-0.dtd"
   xmlns:inkscape="http://www.inkscape.org/namespaces/inkscape"
   width="167.8"
   height="118.3"
   version="1.1"
   id="svg34"
   sodipodi:docname="square-vs-square-root.svg"
   inkscape:version="1.0.1 (3bc2e813f5, 2020-09-07)">
  <metadata
     id="metadata38">
    <rdf:RDF>
      <cc:Work
         rdf:about="">
        <dc:format>image/svg+xml</dc:format>
        <dc:type
           rdf:resource="http://purl.org/dc/dcmitype/StillImage" />
      </cc:Work>
    </rdf:RDF>
  </metadata>
  <sodipodi:namedview
     pagecolor="#ffffff"
     bordercolor="#666666"
     borderopacity="1"
     objecttolerance="10"
     gridtolerance="10"
     guidetolerance="10"
     inkscape:pageopacity="0"
     inkscape:pageshadow="2"
     inkscape:window-width="640"
     inkscape:window-height="480"
     id="namedview36"
     showgrid="false"
     inkscape:current-layer="svg34" />
  <defs
     id="defs6">
    <marker
       style="overflow:visible"
       orient="auto"
       id="marker4">
      <path
         transform="matrix(-0.4,0,0,-0.4,-4,0)"
         style="stroke:black;stroke-width:1pt"
         d="M 0,0 5,-5 -12.5,0 5,5 0,0 Z"
         id="path2" />
    </marker>
  </defs>
  <g
     transform="translate(1133.9155,-221.58463)"
     id="g8" />
  <path
     style="overflow:visible;fill:#edd400;stroke-width:0.963578"
     d="m 25.6868,36.2714 c 6.6904,-4.4634 14.7503,-5.762 22.2661,-8.1953 13.848,-3.9769 28.3475,-5.2734 42.728,-5.1853 13.1411,0.2819 26.7061,1.8106 38.5541,7.8761 2.304,1.5736 8.815,3.0431 8.163,5.4913 -2.696,2.4248 -4.899,-2.5005 -7.945,-2.5155 -12.549,-7.0893 -27.272,-8.6145 -41.4151,-8.8882 -14.9618,0.01 -30.0509,1.6743 -44.3436,6.3319 -5.2172,1.6545 -10.7637,2.7206 -15.2955,5.9382 -0.9165,-0.2976 -1.9111,-0.5591 -2.7494,-0.8929 z"
     id="path10" />
  <path
     style="overflow:visible;fill:#edd400;stroke-width:0.963578"
     d="m 121.002,33.9497 c 4.874,-1.7806 10.18,-5e-4 15.044,1.1107 2.91,0.6665 4.216,2.1327 1.056,3.3097 -3.788,-2.2355 -8.446,-2.4921 -12.71,-3.0453 -2.819,0.1461 -0.895,0.2814 -1.222,-0.384 -0.684,-0.3292 -1.603,-0.5498 -2.168,-0.9911 z"
     id="path12" />
  <path
     style="overflow:visible;fill:#edd400;stroke-width:0.963578"
     d="m 134.138,26.7507 c 0.846,3.8817 2.538,7.8661 6.018,10.0922 -2.033,2.2136 -3.997,0.8431 -5.358,-1.3189 -1.056,-2.0757 -5.317,-7.796 -1.824,-8.5386 0.349,-0.067 0.971,-0.2405 1.164,-0.2347 z"
     id="path14" />
  <path
     style="overflow:visible;fill:#729fcf;stroke-width:0.963578"
     d="m 138.859,81.4026 c -6.69,4.4634 -14.75,5.762 -22.266,8.1953 -13.848,3.9769 -28.3474,5.2734 -42.7279,5.1853 -13.1407,-0.2819 -26.7064,-1.8106 -38.5539,-7.8761 -2.3046,-1.5736 -8.8154,-3.0431 -8.1629,-5.4913 2.6955,-2.4248 4.8986,2.5005 7.9445,2.5155 12.5491,7.0893 27.2717,8.6145 41.4153,8.8882 14.9618,-0.01 30.0509,-1.6743 44.3439,-6.3319 5.217,-1.6545 10.763,-2.7206 15.295,-5.9382 0.917,0.2976 1.911,0.5591 2.75,0.8929 z"
     id="path18" />
  <path
     style="overflow:visible;fill:#729fcf;stroke-width:0.963578"
     d="m 43.5439,83.7243 c -4.874,1.7806 -10.1801,5e-4 -15.0437,-1.1107 -2.9104,-0.6665 -4.2157,-2.1327 -1.0567,-3.3097 3.7885,2.2355 8.4466,2.4921 12.7101,3.0453 2.8193,-0.1461 0.8954,-0.2814 1.2223,0.384 0.6841,0.3292 1.6029,0.5498 2.168,0.9911 z"
     id="path20" />
  <path
     style="overflow:visible;fill:#729fcf;stroke-width:0.963578"
     d="m 30.4082,90.9233 c -0.8466,-3.8817 -2.5384,-7.8661 -6.0186,-10.0922 2.0336,-2.2136 3.9973,-0.8431 5.3586,1.3189 1.0554,2.0757 5.3168,7.796 1.8239,8.5386 -0.3491,0.067 -0.9713,0.2405 -1.1639,0.2347 z"
     id="path22" />
  <text
     x="49.6"
     y="15.4"
     style="font-family:'Comic Sans MS';font-size:21.6px;overflow:visible;fill:#edd400;stroke-width:2.5;"
     id="text26">Square</text>
  <text
     x="29.9"
     y="112.4"
     style="font-family:'Comic Sans MS';font-size:21.6px;overflow:visible;fill:#729fcf;stroke-width:2.5;"
     id="text28">Square Root</text>
  <text
     x="-2.5"
     y="68.5"
     style="font-family:'Comic Sans MS';font-size:34.7px;overflow:visible;fill:#204a87;stroke-width:1px;"
     id="text30">3</text>
  <text
     x="148.2"
     y="69.7"
     style="font-family:'Comic Sans MS';font-size:34.7px;overflow:visible;fill:#204a87;stroke-width:1px;"
     id="text32">9</text>
</svg>
