<?xml version="1.0" encoding="UTF-8" standalone="no"?>
<!-- Copyright 2017 mathsisfun.com -->
<svg xmlns="http://www.w3.org/2000/svg" width="238.9" height="67.4" version="1.1">
<defs/>
<g transform="translate(-1481.55,-3541.5)">
<text x="1696.4" y="3558.1" style="font-family:'Comic Sans MS'; font-weight:900; font-size:15.5px; color:black; overflow:visible; fill:#fd3301; stroke-width:1.21;">6</text>
<text x="1688.3" y="3602.5" style="font-family:'Comic Sans MS'; font-weight:900; font-size:15.5px; color:black; overflow:visible; fill:#fd3301; stroke-width:1.21;">27</text>
<text x="1688" y="3580.8" style="font-family:'Comic Sans MS'; font-weight:900; font-size:15.5px; color:black; overflow:visible; fill:#fd3301; stroke-width:1.21;">-4</text>
<text x="1652.1" y="3581.8" style="font-family:'Comic Sans MS'; font-size:25.5px; color:black; overflow:visible; fill:#2d2d2d; stroke-width:1.21;">=</text>
<path style="color:black; overflow:visible; fill:#0169c9; stroke:#636466; stroke-width:0.1; stroke-linejoin:round;" d="m 1579.4,3541.6 c 2.3,0.5 5.6,-1 7.1,1.1 0,21.3 0,42.6 0,63.9 -1.3,2 -4.2,0.6 -6.3,1 -1.7,0.8 -2.3,-2.5 -0.4,-1.9 1.4,0.1 4.5,-0.2 4.8,0.1 -0.5,0.9 -0.1,-2.1 -0.2,-2.8 0,-20 0,-40.1 0,-60.1 1.9,0.9 -1.7,0.2 -2.5,0.4 -1.8,-0 -3.3,0.6 -2.5,-1.8 z"/>
<path style="color:black; overflow:visible; fill:#0169c9; stroke:#636466; stroke-width:0.1; stroke-linejoin:round;" d="m 1488.7,3541.6 c -2.3,0.4 -5.5,-1 -7.1,1.1 0,21.4 0,42.7 0,64.1 1.6,1.6 4.4,0.5 6.5,0.8 1.6,0.5 1.8,-2.6 -0,-1.9 -1.5,0 -3.7,0 -4.8,0 0.9,1.3 0.2,-2.4 0.4,-3.2 0,-19.8 0,-39.7 0,-59.5 -1.9,0.9 2.1,0.2 3,0.4 1.8,0.2 2.5,0 2.1,-1.8 z"/>
<text x="1498.3" y="3580" style="font-family:'Comic Sans MS'; font-weight:900; font-size:15.5px; color:black; overflow:visible; fill:#fd3301; stroke-width:1.21;">0</text>
<text x="1498.3" y="3556.8" style="font-family:'Comic Sans MS'; font-weight:900; font-size:15.5px; color:black; overflow:visible; fill:#fd3301; stroke-width:1.21;">1</text>
<text x="1559.5" y="3556.7" style="font-family:'Comic Sans MS'; font-weight:900; font-size:15.5px; color:black; overflow:visible; fill:#fd3301; stroke-width:1.21;">1</text>
<text x="1528" y="3579.9" style="font-family:'Comic Sans MS'; font-weight:900; font-size:15.5px; color:black; overflow:visible; fill:#fd3301; stroke-width:1.21;">2</text>
<text x="1528.1" y="3556.6" style="font-family:'Comic Sans MS'; font-weight:900; font-size:15.5px; color:black; overflow:visible; fill:#fd3301; stroke-width:1.21;">1</text>
<text x="1528" y="3602.1" style="font-family:'Comic Sans MS'; font-weight:900; font-size:15.5px; color:black; overflow:visible; fill:#fd3301; stroke-width:1.21;">5</text>
<text x="1498.3" y="3602.4" style="font-family:'Comic Sans MS'; font-weight:900; font-size:15.5px; color:black; overflow:visible; fill:#fd3301; stroke-width:1.21;">2</text>
<text x="1559.5" y="3579.7" style="font-family:'Comic Sans MS'; font-weight:900; font-size:15.5px; color:black; overflow:visible; fill:#fd3301; stroke-width:1.21;">5</text>
<text x="1552.2" y="3602.4" style="font-family:'Comic Sans MS'; font-weight:900; font-size:15.5px; color:black; overflow:visible; fill:#fd3301; stroke-width:1.21;">-1</text>
<text x="1615.1" y="3555.9" style="font-family:'Comic Sans MS'; font-weight:bold; font-size:17.4px; color:black; overflow:visible; fill:#fd3301; stroke-width:1.21;">x</text>
<text x="1615.6" y="3600.4" style="font-family:'Comic Sans MS'; font-weight:bold; font-size:17.4px; color:black; overflow:visible; fill:#fd3301; stroke-width:1.21;">z</text>
<text x="1615.5" y="3575.8" style="font-family:'Comic Sans MS'; font-weight:bold; font-size:17.4px; color:black; overflow:visible; fill:#fd3301; stroke-width:1.21;">y</text>
<path style="color:black; overflow:visible; fill:#0169c9; stroke:#636466; stroke-width:0.1; stroke-linejoin:round;" d="m 1635.1,3541.7 c 2.3,0.4 5.5,-1 7.1,1.1 0,21.4 0,42.7 0,64.1 -1.6,1.6 -4.4,0.5 -6.5,0.8 -1.6,0.5 -1.7,-2.6 0,-1.9 1.5,0 3.7,0 4.8,0 -0.9,1.3 -0.2,-2.4 -0.4,-3.2 0,-19.9 0,-39.7 0,-59.5 1.9,1.1 -2.1,0.3 -3,0.6 -1.8,0.1 -2.4,0.2 -2.1,-1.9 z"/>
<path style="color:black; overflow:visible; fill:#0169c9; stroke:#636466; stroke-width:0.1; stroke-linejoin:round;" d="m 1606.7,3541.6 c -2.3,0.4 -5.5,-1 -7.1,1.1 0,21.3 0,42.6 0,63.9 1.3,2 4.2,0.6 6.3,1 1.7,0.8 2.3,-2.5 0.4,-1.9 -1.4,0.1 -4.4,-0.2 -4.8,0.1 0.5,0.9 0.1,-2.1 0.2,-2.8 0,-20 0,-40.1 0,-60.1 -1.9,0.9 2.1,0.2 3,0.4 1.7,0.2 2.6,0 2,-1.8 z"/>
<path style="color:black; overflow:visible; fill:#0169c9; stroke:#636466; stroke-width:0.1; stroke-linejoin:round;" d="m 1713.3,3542.9 c 2.3,0.4 5.5,-1 7.1,1.1 0,21.3 0,42.6 0,63.9 -1.3,2 -4.2,0.6 -6.3,1 -1.7,0.8 -2.3,-2.5 -0.4,-1.9 1.4,0.1 4.5,-0.2 4.8,0.1 -0.5,1 -0.1,-2.1 -0.2,-2.8 0,-20 0,-40.1 0,-60.1 1.9,0.9 -2.1,0.2 -3,0.4 -1.7,0.2 -2.6,-0 -2,-1.8 z"/>
<path style="color:black; overflow:visible; fill:#0169c9; stroke:#636466; stroke-width:0.1; stroke-linejoin:round;" d="m 1686.5,3542.9 c -2.3,0.4 -5.5,-1 -7.1,1.1 0,21.4 0,42.7 0,64.1 1.5,1.6 4.4,0.5 6.5,0.8 1.6,0.5 1.8,-2.6 -0,-1.9 -1.5,0 -3.7,0 -4.8,0 0.9,1.2 0.2,-2.4 0.4,-3.2 0,-19.9 0,-39.7 0,-59.5 -1.9,0.9 1.6,0.2 2.5,0.4 1.8,-0 3.2,0.5 2.6,-1.8 z"/>
</g>
</svg>
