<?xml version="1.0" encoding="UTF-8" standalone="no"?>
<!-- Copyright 2017 mathsisfun.com -->
<svg xmlns="http://www.w3.org/2000/svg" width="539.5" height="101.5" version="1.1" style="font-family:'Comic Sans MS'; font-size:15.5px; fill:#fd3301; stroke-width:1.21;">
<path style="fill:#0169c9; stroke:#636466; stroke-width:0.1; stroke-linejoin:round;" d="m 259.9,33.6 c -2.2,0 -4.4,0 -6.6,0 2,-0.9 0.3,4.5 0.9,6.1 -0.1,4.9 0.2,12.7 -0.1,16.2 1.8,0.3 7.2,-0.9 5.6,1.3 -3.3,0 -9.4,1.2 -7.8,-4.2 0.4,-6.8 -0.7,-14.1 0.4,-20.5 2.5,-0.4 5.2,0 7.7,-0.2 1.2,0 -0.8,1.2 -0.1,1.3 z"/>
<rect x="257.1" y="34" rx="8.7" ry="13.1" width="90" height="18.4" style="fill:#eec73e; fill-opacity:0.32;"/>
<rect x="30" y="-140.6" rx="8.5" ry="15.4" width="70.4" height="21.7" transform="rotate(90)" style="fill:#eec73e; fill-opacity:0.32;"/>
<rect x="5.2" y="38" rx="8.7" ry="13.1" width="72.3" height="18.4" style="fill:#eec73e; fill-opacity:0.32;"/>
<path style="fill:#0169c9; stroke:#636466; stroke-width:0.1; stroke-linejoin:round;" d="m 206.2,35.5 c 2.9,0.1 8.3,-1.2 7.1,3.5 -0.1,20.5 0.2,41.2 -0.1,61.6 -1.9,1.7 -5,0.4 -7.4,0.8 -1.6,-3.3 5,-1.4 5.7,-1.8 -0.6,0 0,-5.1 -0.2,-6.8 0.1,-18.4 -0.2,-38.2 0.1,-55.8 1.1,0.8 -3.9,0.1 -5.2,0.4 0.7,-0.2 -0.6,-1.7 0.1,-1.9 z"/>
<path style="fill:#0169c9; stroke:#636466; stroke-width:0.1; stroke-linejoin:round;" d="m 115.5,35.5 c -2.9,0.1 -8.3,-1.2 -7.1,3.5 0.2,20.6 -0.3,41.4 0.2,62 2.1,1.1 4.9,0.2 7.3,0.5 1.7,-3.3 -5,-1.4 -5.7,-1.7 0.6,0 0,-5.1 0.2,-6.8 -0.1,-18.4 0.2,-38.2 -0.1,-55.8 -1.2,0.6 3.9,0.1 5.2,0.3 0.3,0.9 -0.2,-2.6 0,-1.8 z"/>
<text x="125" y="73.9" style="font-weight:900;">1</text>
<text x="125" y="50.7" style="font-weight:900;">1</text>
<text x="186.3" y="50.6" style="font-weight:900;">2</text>
<text x="152.6" y="73.8" style="font-weight:900;">2</text>
<text x="152.7" y="50.5" style="font-weight:900;">0</text>
<text x="152.6" y="96" style="font-weight:900;">5</text>
<text x="125" y="96.3" style="font-weight:900;">1</text>
<text x="186.2" y="73.6" style="font-weight:900;">5</text>
<text x="179" y="96.3" style="font-weight:900;">-1</text>
<path style="fill:#0169c9; stroke:#636466; stroke-width:0.1; stroke-linejoin:round;" d="m 8.1,36.5 c -2.2,0 -4.5,0 -6.7,0 2,-0.9 0.3,4.5 0.9,6.1 -0.1,5.2 0.2,11.4 -0.1,16.2 1,0.2 6.7,-1.2 5.8,1.1 -2.8,-0.5 -8.9,1.7 -7.9,-3.1 0.4,-7.1 -0.7,-14.8 0.4,-21.6 2.5,-0.4 5.2,0 7.7,-0.2 0.6,0.4 -0.6,1.1 -0.2,1.5 z"/>
<path style="fill:#0169c9; stroke:#636466; stroke-width:0.1; stroke-linejoin:round;" d="m 75.5,36.5 c 0.1,0 0.2,0 0.2,0 0.1,0 0.2,0 0.3,0 0.1,0 0.2,0 0.3,0 0.1,0 0.2,0 0.3,0 0.1,0 0.2,0 0.3,0 0.1,0 0.2,0 0.4,0 0.1,0 0.2,0 0.4,0 0.1,0 0.2,0 0.4,0 0.1,0 0.2,0 0.3,0 0.1,0 0.2,0 0.3,0 0.1,0 0.2,0 0.3,0 0.1,0 0.2,0 0.3,0 0.1,0 0.2,0 0.3,0 0.1,0 0.2,0 0.3,0 0.1,0 0.2,0 0.2,0 0.1,0 0.1,0 0.2,0 0.1,0 0.1,0 0.2,0 0.1,0 0.1,0 0.2,0 0.1,0 0.1,0 0.2,0 0,0 0.1,0 0.2,0 0,0 0.1,0 0.1,0 0,0 0.1,0 0.1,0 0,0 0.1,0 0.1,0 0,0 0.1,0 0.1,0 0,0 0.1,0 0.1,0 0,0 0.1,0 0.1,0 0,0 0.1,0 0.1,0 0,0 0.1,0 0.1,0 0,0 0,0 0.1,0 0,0 0,0 0.1,0 0,0 0,0 0.1,0 0.1,0 0,0 0,0 -0.2,0 -0.4,-0.1 -0.6,-0.1 -0.1,-0.1 -0.2,-0.1 -0.3,-0.2 0,0 0,0 0,-0.1 0,0 0,0 0,0 0,0 0,0.1 0,0.1 0,0.1 0,0.1 0,0.2 0,0.1 0,0.1 0,0.2 0,0.1 0,0.1 0,0.2 0,0.1 0,0.2 0,0.3 0,0.1 0,0.2 0,0.3 0,0.1 0,0.2 0,0.3 0,0.1 0,0.2 0,0.3 0,0.1 0,0.2 0,0.3 0,0.1 0,0.2 0,0.4 0,0.1 0,0.3 0,0.4 0,0.1 0,0.3 0,0.4 0,0.1 0,0.3 0,0.4 0,0.1 0,0.3 0,0.4 0,0.1 0,0.3 0,0.4 0,0.1 0,0.3 0,0.4 0,0.1 0,0.3 0,0.4 0,0.1 0,0.3 0,0.4 0,0.1 0,0.3 0,0.4 0,0.2 0,0.3 0,0.4 0,0.1 0,0.3 0,0.4 0,0.2 0,0.3 0,0.5 0,0.1 0,0.3 0,0.5 0,0.2 0,0.3 0,0.5 0,0.2 0,0.3 0,0.5 0,0.2 0,0.3 0,0.5 0,0.2 0,0.3 0,0.5 0,0.2 0,0.3 0,0.5 0,0.2 0,0.3 0,0.5 0,0.2 0,0.4 0,0.5 0,0.2 0,0.4 0,0.5 0,0.2 0,0.4 0,0.6 0,0.2 0,0.4 0,0.6 0,0.2 0,0.4 0,0.6 0,0.2 0,0.4 0,0.6 0,0.2 0,0.4 0,0.5 0,0.2 0,0.4 0,0.5 0,0.2 0,0.3 0,0.5 0,0.2 0,0.3 0,0.5 0,0.2 0,0.3 0,0.5 0,0.2 0,0.3 0,0.5 0,0.2 0,0.3 0,0.5 0,0.2 0,0.3 0,0.5 0,0.2 0,0.3 0,0.5 0,0.2 0,0.3 0,0.5 0,0.1 0,0.3 0,0.4 0,0.1 0,0.3 0,0.4 0,0.1 0,0.3 0,0.4 0,0.1 0,0.2 0,0.4 0,0.1 0,0.2 0,0.3 0,0.1 0,0.2 0,0.3 0,0.1 0,0.2 0,0.3 0,0.1 0,0.2 0,0.3 0,0.1 0,0.1 0,0.2 0,0.1 0,0.1 0,0.2 0,0.1 0,0.1 0,0.2 0,0 0,0.1 0,0.1 0,0 0,0.1 0,0.1 0,0 0,0.1 0,0.1 0,0 0,0 0,0.1 0,0 0,0 0,0 0,0 0,0 0,0.1 0,0 0,0 0,0 0,0 0,0 0,0 0,0 0,0 -0.1,0 0,0 0.1,-0.1 0.1,-0.1 0,0 0.1,0 0.2,-0.1 0,0 0,0 0,0 0,0 0,0 -0.1,0 0,0 0,0 -0.1,0 0,0 -0.1,0 -0.1,0 -0.1,0 -0.1,0 -0.2,0 -0.1,0 -0.1,0 -0.2,0 -0.1,0 -0.1,0 -0.2,0 -0.1,0 -0.1,0 -0.2,0 -0.1,0 -0.2,0 -0.2,0 -0.1,0 -0.1,0 -0.2,0 -0.1,0 -0.1,0 -0.2,0 -0.1,0 -0.1,0 -0.2,0 -0.1,0 -0.2,0 -0.2,0 -0.1,0 -0.1,0 -0.2,0 -0.1,0 -0.2,0 -0.2,0 -0.1,0 -0.2,0 -0.2,0 -0.1,0 -0.2,0 -0.2,0 -0.1,0 -0.2,0 -0.2,0 -0.1,0 -0.2,0 -0.3,0 -0.1,0 -0.2,0 -0.2,0 -0.1,0 -0.1,0 -0.2,0 -0.1,0 -0.1,0 -0.2,0 -0.1,0 -0.1,0 -0.2,0 -0.1,0 -0.1,0 -0.2,0 -0.1,0 -0.1,0 -0.2,0 -0.1,0 -0.1,0 -0.2,0 -0.1,0 -0.1,0 -0.2,0 0,0 -0.1,0 -0.2,0 -0.1,0 -0.1,0 -0.2,0 -0.1,0 -0.1,0 -0.2,0 0,0 -0.1,0 -0.1,0 0,0 -0.1,0 -0.1,0 0,0 -0.1,0 -0.1,0 0,0 -0.1,0 -0.1,0 0,0 0,0 0,0 0,0 -0.2,1.3 -0.2,1.3 v 0 c 0,0 0,0 0,0 0,0 0.1,0 0.1,0 0,0 0.1,0 0.1,0 0,0 0.1,0 0.2,0 0,0 0.1,0 0.1,0 0.1,0 0.1,0 0.2,0 0,0 0.1,0 0.2,0 0.1,0 0.1,0 0.2,0 0.1,0 0.1,0 0.2,0 0.1,0 0.1,0 0.2,0 0.1,0 0.2,0 0.2,0 0.1,0 0.2,0 0.3,0 0.1,0 0.1,0 0.2,0 0.1,0 0.1,0 0.2,0 0.1,0 0.1,0 0.2,0 0.1,0 0.2,0 0.2,0 0.1,0 0.1,0 0.2,0 0.1,0 0.2,0 0.2,0 0.1,0 0.2,0 0.2,0 0.1,0 0.2,0 0.2,0 0.1,0 0.1,0 0.2,0 0.1,0 0.2,0 0.3,0 0.1,0 0.2,0 0.2,0 0.1,0 0.1,0 0.2,0 0.1,0 0.1,0 0.2,0 0.1,0 0.1,0 0.2,0 0.1,0 0.1,0 0.2,0 0.1,0 0.1,0 0.2,0 0.1,0 0.1,0 0.2,0 0.1,0 0.1,0 0.2,0 0.1,0 0.1,0 0.2,0 0.1,0 0.2,0 0.3,0 0.1,0 0.2,0 0.3,0 0.1,0 0.1,0 0.2,0 0.1,0 0.2,0 0.2,0 0.2,0 0.3,-0.1 0.4,-0.1 0.1,0 0.2,-0.1 0.3,-0.2 0,0 0.1,0 0.1,-0.1 0.1,0 0.1,-0.1 0.2,-0.2 0,0 0.1,-0.1 0.1,-0.1 0,0 0,-0.1 0.1,-0.1 0,-0.1 0.1,-0.1 0.1,-0.2 0,-0.1 0.1,-0.1 0.1,-0.2 0,-0.1 0,-0.1 0,-0.2 0,-0.1 0,-0.1 0,-0.2 0,0 0,-0.1 0,-0.2 0,-0.1 0,-0.1 0,-0.2 0,-0.1 0,-0.1 0,-0.2 0,-0.1 0,-0.1 0,-0.2 0,-0.1 0,-0.2 0,-0.3 0,-0.1 0,-0.2 0,-0.3 0,-0.1 0,-0.2 0,-0.3 0,-0.1 0,-0.2 0,-0.3 0,-0.1 0,-0.2 0,-0.4 0,-0.1 0,-0.3 0,-0.4 0,-0.1 0,-0.3 0,-0.4 0,-0.1 0,-0.3 0,-0.4 0,-0.1 0,-0.3 0,-0.4 0,-0.1 0,-0.3 0,-0.4 0,-0.2 0,-0.3 0,-0.5 0,-0.1 0,-0.3 0,-0.5 0,-0.2 0,-0.3 0,-0.5 0,-0.2 0,-0.3 0,-0.5 0,-0.2 0,-0.3 0,-0.5 0,-0.2 0,-0.3 0,-0.5 0,-0.2 0,-0.4 0,-0.5 0,-0.2 0,-0.4 0,-0.6 0,-0.2 0,-0.4 0,-0.6 0,-0.2 0,-0.4 0,-0.6 0,-0.2 0,-0.4 0,-0.6 0,-0.2 0,-0.4 0,-0.6 0,-0.2 0,-0.4 0,-0.5 0,-0.2 0,-0.4 0,-0.5 0,-0.2 0,-0.4 0,-0.5 0,-0.2 0,-0.3 0,-0.5 0,-0.2 0,-0.3 0,-0.5 0,-0.2 0,-0.3 0,-0.5 0,-0.2 0,-0.3 0,-0.5 0,-0.2 0,-0.3 0,-0.5 0,-0.2 0,-0.3 0,-0.5 0,-0.1 0,-0.3 0,-0.5 0,-0.1 0,-0.3 0,-0.4 0,-0.2 0,-0.3 0,-0.4 0,-0.1 0,-0.3 0,-0.4 0,-0.1 0,-0.3 0,-0.4 0,-0.1 0,-0.3 0,-0.4 0,-0.1 0,-0.3 0,-0.4 0,-0.1 0,-0.3 0,-0.4 0,-0.1 0,-0.3 0,-0.4 0,-0.1 0,-0.3 0,-0.4 0,-0.1 0,-0.3 0,-0.4 0,-0.1 0,-0.2 0,-0.4 0,-0.1 0,-0.2 0,-0.4 0,-0.1 0,-0.2 0,-0.4 0,-0.1 0,-0.2 0,-0.3 0,-0.1 0,-0.2 0,-0.3 0,-0.1 0,-0.2 0,-0.3 0,-0.1 0,-0.2 0,-0.3 0,-0.1 0,-0.2 0,-0.2 0,-0.1 0,-0.2 0,-0.2 0,-0.1 0,-0.1 0,-0.2 0,0 0,-0.1 0,-0.1 0,-0.1 0,-0.1 0,-0.2 0,-0.1 0,-0.1 -0.1,-0.2 -0.1,-0.1 -0.2,-0.2 -0.3,-0.3 -0.2,-0.1 -0.4,-0.2 -0.7,-0.2 0,0 -0.1,0 -0.2,0 0,0 0,0 0,0 0,0 0,0 -0.1,0 0,0 0,0 -0.1,0 0,0 0,0 -0.1,0 0,0 -0.1,0 -0.1,0 0,0 -0.1,0 -0.1,0 0,0 -0.1,0 -0.1,0 0,0 -0.1,0 -0.1,0 0,0 -0.1,0 -0.1,0 0,0 -0.1,0 -0.1,0 -0.1,0 -0.1,0 -0.1,0 -0.1,0 -0.1,0 -0.2,0 0,0 -0.1,0 -0.2,0 -0.1,0 -0.1,0 -0.2,0 -0.1,0 -0.1,0 -0.2,0 -0.1,0 -0.1,0 -0.2,0 -0.1,0 -0.2,0 -0.2,0 -0.1,0 -0.2,0 -0.2,0 -0.1,0 -0.2,0 -0.3,0 -0.1,0 -0.2,0 -0.3,0 -0.1,0 -0.2,0 -0.3,0 -0.1,0 -0.2,0 -0.3,0 -0.1,0 -0.2,0 -0.3,0 -0.1,0 -0.3,0 -0.4,0 -0.1,0 -0.3,0 -0.4,0 -0.1,0 -0.3,0 -0.4,0 -0.1,0 -0.2,0 -0.4,0 -0.1,0 -0.2,0 -0.3,0 -0.1,0 -0.2,0 -0.3,0 -0.1,0 -0.2,0 -0.3,0 -0.1,0 -0.2,0 -0.3,0 0,0 0.2,1.2 0.2,1.2 z"/>
<text x="13.9" y="51.1" style="font-weight:bold; font-size:17.4px;">x</text>
<text x="58.2" y="51.1" style="font-weight:bold; font-size:17.4px;">z</text>
<text x="36.4" y="51.1" style="font-weight:bold; font-size:17.4px;">y</text>
<text x="227.1" y="55.7" style="font-size:25.5px; fill:#2d2d2d;">=</text>
<text x="264.8" y="48.8" style="font-weight:900;">x + y + z</text>
<text x="360.2" y="50.4" style="font-weight:900;">2y + 5z</text>
<text x="438.3" y="50.4" style="font-weight:900;">2x + 5y - z</text>
<path style="fill:#eec73e;" d="m 30.2,38.5 c 16,-20.3 52.1,-25.3 69.4,-23.2 17.3,2.1 31.6,8.8 30.3,11.7 -1.3,2.9 -10.1,-6.5 -28.8,-8.5 -18.7,-2 -51.8,1.7 -68.2,21 -0.4,0.9 -2,-1.1 -2.7,-1.1 z"/>
<path style="fill:#eec73e;" d="m 129,27.4 c 24.4,-14.9 64.2,-14.7 86.4,-10.6 22.2,4.1 32.9,11.1 47.8,20 -9.1,-0 -25.7,-11.1 -46.7,-16.2 -21,-5.1 -64.1,-1.5 -80.7,6 -7.9,4.3 -8.1,1.7 -6.8,0.7 z"/>
<g transform="matrix(0.363,0,0,0.363,137.35,-1399.7)">
	<path style="fill:#eec73e; stroke-width:1.1;" d="m 312.4,3953.4 c 3.9,-1.5 8.3,-1.4 12.4,-0.9 3.3,0.6 6.6,1 9.7,2 5,1.5 10,2.9 14.9,4.8 1,0.7 3.2,0.5 2.2,2.1 -0.7,2.2 -1.4,4.3 -2.1,6.5 -2.5,-0.7 -4.8,-2.1 -7.3,-2.6 -2.8,-0.9 -5.7,-1.8 -8.5,-2.6 -3.7,-1.2 -7.5,-1.8 -11.4,-2.3 -2.4,-0.3 -4.8,-0.1 -7,0.7 -1,-2.6 -1.9,-5.2 -2.9,-7.7 z"/>
	<path style="fill:#eec73e; stroke-width:1.1;" d="m 339,3932.3 c 0,3 1.7,5.7 2.8,8.5 1.2,2.5 2.5,4.9 4,7.3 1.2,1.9 2.6,3.8 3.8,5.7 1.2,1.6 2.5,3.2 3.7,4.8 -2.2,1.6 -4.3,3.1 -6.5,4.7 -1.4,-2.3 -3.3,-4.4 -4.8,-6.7 -2.3,-2.9 -4.2,-6 -5.9,-9.3 -1.7,-3.1 -3.2,-6.3 -4.2,-9.7 -0,-1.4 -1.4,-3.7 -0.6,-4.6 2.6,-0.2 5.1,-0.4 7.7,-0.6 l 0,-0.1 z"/>
</g>
<text x="77.7" y="12.1" style="font-weight:900; fill:#eec73e;">&quot;Dot Product&quot;</text>
<path style="fill:#0169c9; stroke:#636466; stroke-width:0.1; stroke-linejoin:round;" d="m 75.5,36.5 c 2.2,0 4.5,0 6.7,0 -2.1,-0.6 -0.2,5.6 -0.9,7.5 0,4.3 0,12.1 0,14.8 -1.8,0.3 -7.2,-0.9 -5.6,1.3 3.3,-0.1 9.4,1.2 7.8,-4.2 -0.4,-6.8 0.7,-14.1 -0.4,-20.6 -2.5,-0.4 -5.1,0 -7.6,-0.2 -1.2,-0.2 0.9,1.3 0,1.3 z"/>
<path style="fill:#0169c9; stroke:#636466; stroke-width:0.1; stroke-linejoin:round;" d="m 531.3,35.7 c 2.2,0 4.5,0 6.7,0 -2,-0.4 -0.3,4.9 -0.9,6.7 0,5 0,11.4 0,15.7 -1,0.3 -7.3,-0.9 -5.6,1.3 3.3,-0.1 9.4,1.2 7.9,-4.2 -0.4,-6.8 0.7,-14.1 -0.4,-20.6 -2.5,-0.4 -5.2,0 -7.7,-0.2 -1.3,-0.7 0.9,1.6 0,1.2 z"/>
</svg>