<?xml version="1.0" encoding="UTF-8" standalone="no"?>
<!-- Copyright 2017 mathsisfun.com -->

<svg
   xmlns:dc="http://purl.org/dc/elements/1.1/"
   xmlns:cc="http://creativecommons.org/ns#"
   xmlns:rdf="http://www.w3.org/1999/02/22-rdf-syntax-ns#"
   xmlns:svg="http://www.w3.org/2000/svg"
   xmlns="http://www.w3.org/2000/svg"
   xmlns:sodipodi="http://sodipodi.sourceforge.net/DTD/sodipodi-0.dtd"
   xmlns:inkscape="http://www.inkscape.org/namespaces/inkscape"
   width="368.584"
   height="85.1525"
   version="1.1"
   id="svg36"
   sodipodi:docname="system-linear-vs-nonlinear.svg"
   inkscape:version="0.92.2 (5c3e80d, 2017-08-06)">
  <metadata
     id="metadata40">
    <rdf:RDF>
      <cc:Work
         rdf:about="">
        <dc:format>image/svg+xml</dc:format>
        <dc:type
           rdf:resource="http://purl.org/dc/dcmitype/StillImage" />
      </cc:Work>
    </rdf:RDF>
  </metadata>
  <sodipodi:namedview
     pagecolor="#ffffff"
     bordercolor="#666666"
     borderopacity="1"
     objecttolerance="10"
     gridtolerance="10"
     guidetolerance="10"
     inkscape:pageopacity="0"
     inkscape:pageshadow="2"
     inkscape:window-width="640"
     inkscape:window-height="480"
     id="namedview38"
     showgrid="false"
     inkscape:current-layer="svg36" />
  <defs
     id="defs6">
    <marker
       style="overflow:visible"
       orient="auto"
       id="marker4">
      <path
         transform="matrix(-0.4,0,0,-0.4,-4,0)"
         style="stroke:#000000;stroke-width:1pt"
         d="M 0,0 5,-5 -12.5,0 5,5 Z"
         id="path2"
         inkscape:connector-curvature="0" />
    </marker>
  </defs>
  <circle
     id="circle8"
     style="color:#000000;overflow:visible;fill:#ccff99;stroke-width:2.35"
     r="13.1956"
     cy="30.1273"
     cx="260.806" />
  <text
     id="text10"
     style="color:#000000;font-size:24.9px;font-family:'Comic Sans MS';text-align:center;text-anchor:middle;overflow:visible;fill:#0169c9;stroke-width:2.5"
     y="43.1273"
     x="73.6058">2x + y - z = 4</text>
  <text
     id="text12"
     style="color:#000000;font-size:24.9px;font-family:'Comic Sans MS';text-align:center;text-anchor:middle;overflow:visible;fill:#f44800;stroke-width:2.5"
     y="44.1273"
     x="266.806">2x + y   - z = 4</text>
  <text
     id="text14"
     style="color:#000000;font-size:21.5px;font-family:'Comic Sans MS';text-align:center;text-anchor:middle;overflow:visible;fill:#f44800;stroke-width:2.5"
     y="36.9273"
     x="260.906">2</text>
  <text
     id="text16"
     style="color:#000000;font-size:17.6px;font-family:'Comic Sans MS';text-align:center;text-anchor:middle;overflow:visible;fill:#fb8b00;stroke-width:2.5"
     y="13.8273"
     x="328.606">non-linear</text>
  <path
     inkscape:connector-curvature="0"
     id="path18"
     d="m 285.406,12.3273 c -1.1,0 -2.3,0 -3.4,0 -0.8,0.4 -1.6,0.7 -2.4,1 -0.8,0.3 -1.5,0.8 -2.2,1.2 -0.6,0.4 -1.3,0.8 -1.8,1.4 -0.5,0.5 -1,1 -1.4,1.5 -0.3,0.5 -0.9,1 -1.2,1.6 -0.4,0.4 -0.6,0.9 -1.1,1.2 0,0.4 -0.2,0.2 -0.5,0 -0.7,-0.4 -1.3,-0.9 -2,-1.3 0.4,0.2 0,-0.6 0.4,-0.6 0.4,-0.4 0.8,-0.8 1,-1.3 0.4,-0.5 0.7,-1.1 1.2,-1.6 0.4,-0.6 1,-1.1 1.5,-1.5 0.5,-0.6 1.2,-1.1 1.9,-1.5 0.7,-0.4 1.3,-0.9 2.1,-1.2 0.6,-0.3 1.2,-0.5 1.8,-0.8 0.6,-0.2 1.3,-0.4 2,-0.49996 0.3,-0.2 0.6,-0.2 1,-0.2 1.1,0 2.1,0 3.2,0 -0.2,0.89996 -0.2,1.89996 -0.3,2.79996 0,0 0,-0.2 0,-0.2 z"
     style="color:#000000;overflow:visible;fill:#fb8b00;stroke-width:2.5" />
  <path
     inkscape:connector-curvature="0"
     id="path20"
     d="m 272.606,10.8273 c 0,0.8 0,1.6 0,2.4 -0.3,0.3 -0.2,0.8 -0.2,1.2 0,0.5 0,1 -0.2,1.4 0,0.4 0,0.8 -0.2,1.2 0,0.5 -0.3,0.9 -0.2,1.4 0,0.6 -0.5,0.9 -0.4,1.5 0,0.4 0,0.9 0,1.3 -0.3,0.2 -0.2,0.6 -0.2,0.8 0,-0.9 -1.1,-0.8 -1.8,-1.1 -1,-0.3 0.3,-1.1 0.7,-1.5 0.6,-0.4 1.2,-0.9 1.8,-1.4 0.6,-0.4 1.2,-0.8 1.9,-1.1 0.7,-0.3 1.4,-0.6 2.1,-0.9 0.2,-0.3 0.6,-0.4 1,-0.4 0.3,0 0.5,0 0.5,0.3 0.3,0.8 0.5,1.6 0.8,2.4 -0.4,0 -0.7,0 -1.1,0 -0.5,0.4 -1.1,0.7 -1.7,1 -0.6,0.2 -1.1,0.7 -1.8,1 -0.5,0.4 -1.1,0.8 -1.6,1.3 -0.6,0.4 -0.9,0.9 -1.5,1.3 -0.6,0.4 -1.5,0.5 -1.9,-0.2 -0.4,-0.8 -0.2,-1.7 -0.2,-2.6 0,-0.4 0.3,-0.6 0.2,-1 0,-0.5 0,-1.1 0,-1.6 0.4,-0.6 0.3,-1.5 0.7,-2.1 0,-0.4 0,-0.8 0.2,-1.2 0,-0.9 0,-1.9 0,-2.8 0,-0.3 0,-0.5 0.4,-0.4 0.8,0 1.6,0 2.5,-0.2 0,0 0,0 0.2,0 z"
     style="color:#000000;overflow:visible;fill:#fb8b00;stroke-width:2.5" />
  <path
     inkscape:connector-curvature="0"
     id="path22"
     d="m 55.4058,69.7273 c 0.8,-0.3 1.7,-0.5 2.5,-0.3 1.3,-0.2 2.5,0.9 3.6,1.5 1.6,1.3 3.1,2.8 4.1,4.6 0.5,1.1 1.1,2.1 1.4,3.3 0.2,1 0.8,1.9 0.8,3 -0.2,0.6 0.2,1.1 0.2,1.6 0,0.9 0.2,-0.3 -0.6,0 -1.3,0 -2.6,0 -3.9,0 0,-1.2 0,-2.4 0,-3.6 0.4,-1.9 0.7,-3.7 1.1,-5.6 0.4,-1.8 0.9,-3.6 1.5,-5.4 1.1,-2.1 2.1,-4.4 3.5,-6.4 2.3,-3.6 5,-7.1 8.3,-9.9 0.8,-0.6 1.4,-1.6 2.3,-2 0.9,-0.6 1.1,0.2 1.3,1 0.5,1.2 0.9,2.4 1.4,3.6 0.8,-0.2 0.8,0 0.2,0.5 -0.8,0.9 -1.9,1.6 -2.8,2.5 -3.3,3.2 -5.9,7 -8.1,10.9 -0.9,1.7 -1.5,3.5 -2.1,5.3 -0.5,1.7 -0.8,3.4 -1.2,5.1 0,1.3 -0.6,2.4 -0.6,3.7 0.3,1.1 -0.4,1.2 -1.4,1.1 -1.6,0.2 -3.2,0.2 -4.7,0.8 1.2,0.5 1.6,-0.6 1.5,-1.5 0,-0.6 0,-1.2 -0.2,-1.7 0,-1 -0.6,-2 -1,-2.8 -0.4,-0.9 -0.8,-1.8 -1.4,-2.6 -0.4,-0.7 -1.8,-2.1 -0.5,-0.7 -0.9,-0.8 -1.7,-1.8 -2.7,-2.5 -0.4,-0.6 -1.5,0 -1.5,-0.9 -0.3,-0.9 -0.7,-1.8 -1,-2.7 z"
     style="color:#000000;overflow:visible;fill:#0169c9;stroke-width:4" />
  <g
     id="g28"
     transform="matrix(0.382518,0,0,0.382518,780.625,-174.178)">
    <path
       inkscape:connector-curvature="0"
       id="path24"
       d="m -1364.1,660.6 c 1.9,-2.2 3.8,-4.6 5.8,-6.8 2.7,-2.2 4.6,-5.2 7.3,-7.6 4.5,-4.8 9.6,-9.2 14.3,-13.8 4.9,-4 8.9,-9 13.7,-13 3.6,-3.6 7.1,-7.3 10.8,-10.7 2.8,0 4.6,2.6 6.5,4.5 2.6,2.2 2.7,5.6 -0.5,7.2 -3.8,3.5 -7.8,6.8 -11.6,10.4 -4.1,3.9 -8.8,7.2 -12.7,11.3 -5.7,5.3 -11.6,10.5 -17.7,15.5 -2.6,1.8 -4.5,4.5 -7.1,6.2 -1.5,1.2 -3.4,3.8 -4.7,1.3 -1.4,-1.4 -2.7,-2.9 -4,-4.3 z"
       style="color:#000000;overflow:visible;fill:#fd3301;stroke-width:4" />
    <path
       inkscape:connector-curvature="0"
       id="path26"
       d="m -1350.9,609.4 c 2.5,1.9 4.6,4.1 6.8,6.2 1.9,1.8 4.1,3.2 5.6,5.3 2.7,2.4 5,5.3 7.4,8.1 -0.8,-1 -3,-3.8 -1.1,-1.3 2.5,2.7 4.5,5.7 7.1,8.4 2.9,3.3 5.6,6.7 8.2,10.1 3.7,4.5 7.6,8.7 11.4,13.1 -0.5,2.1 -2.4,3.6 -3.3,5.6 -1.3,2.8 -2.7,5.7 -5.3,7.5 -2.5,-1.5 -4,-4.9 -6.2,-7.1 -3.3,-4.2 -6.8,-8.2 -10.1,-12.4 -2.8,-3.5 -5.1,-7.4 -8,-10.7 -2.9,-4.2 -6.3,-8 -9.2,-12.2 -1.5,-2 -2.8,-4.1 -4.4,-5.9 -1.8,-3.1 -4.5,-5.6 -6.2,-8.7 -1.8,-1.6 -0.6,-2.4 1.1,-3 2.1,-1 4.1,-2 6.2,-3 z"
       style="color:#000000;overflow:visible;fill:#fd3301;stroke-width:4" />
  </g>
  <text
     id="text32"
     style="color:#000000;font-size:36px;font-family:'Comic Sans MS';text-align:center;text-anchor:middle;overflow:visible;fill:#636466;stroke-width:2.85"
     y="1608.03"
     x="1946.41" />
</svg>
