<?xml version="1.0" encoding="UTF-8" standalone="no"?>
<!-- Copyright 2017 mathsisfun.com -->
<svg xmlns="http://www.w3.org/2000/svg" width="514.8" height="70.5" version="1.1" style="font-family:'Comic Sans MS'; font-size:15.5px; fill:#fd3301; stroke-width:1.21;">
<g transform="translate(-1613.43,-3753.25)">
	<text x="1668.8" y="3796.7" style="font-size:25.5px; color:black; overflow:visible; fill:#2d2d2d;">=</text>
	<g transform="matrix(0.363,0,0,0.363,1433.06,2086.22)">
		<text x="725.9" y="4732.5" style="font-weight:bold; font-size:42.8px; color:black; overflow:visible; fill:#666666; stroke-width:1.1;">-21</text>
		<text x="762.5" y="4684.1" style="font-weight:900; font-size:42.8px; color:black; overflow:visible; fill:#666666; stroke-width:1.1;">1</text>
		<path style="fill:#ff9900; stroke:#666666; stroke-width:4.3; stroke-linecap:round;" d="m 734.8,4692.6 h 72"/>
	</g>
	<text x="1918" y="3795" style="font-size:25.5px; color:black; overflow:visible; fill:#2d2d2d;">=</text>
	<g transform="matrix(0.363,0,0,0.363,1681.53,2081.59)">
		<text x="725.9" y="4732.5" style="font-weight:bold; font-size:42.8px; color:black; overflow:visible; fill:#666666; stroke-width:1.1;">-21</text>
		<text x="762.5" y="4684.1" style="font-weight:900; font-size:42.8px; color:black; overflow:visible; fill:#666666; stroke-width:1.1;">1</text>
		<path style="fill:#ff9900; stroke:#666666; stroke-width:4.3; stroke-linecap:round;" d="m 734.8,4692.6 h 72"/>
	</g>
	<text x="1629" y="3770.3" style="font-weight:bold; font-size:17.4px; color:black; overflow:visible;">x</text>
	<text x="1629.5" y="3814.7" style="font-weight:bold; font-size:17.4px; color:black; overflow:visible;">z</text>
	<text x="1629.4" y="3790.1" style="font-weight:bold; font-size:17.4px; color:black; overflow:visible;">y</text>
	<path style="color:black; overflow:visible; fill:#0169c9; stroke:#636466; stroke-width:0.1; stroke-linejoin:round;" d="m 1649,3756.1 c 2.9,0.1 8.3,-1.2 7.1,3.5 -0.2,20.6 0.3,41.4 -0.2,62 -2.1,1.1 -4.9,0.2 -7.3,0.5 -1.7,-3.3 5,-1.4 5.7,-1.8 -0.6,-0.1 -0,-5.1 -0.2,-6.8 0.1,-18.4 -0.2,-38.1 0.1,-55.8 1.3,0.6 -3.5,0.1 -4.5,0.2 -1.4,0.4 -0.4,-1.4 -0.7,-1.8 z"/>
	<path style="color:black; overflow:visible; fill:#0169c9; stroke:#636466; stroke-width:0.1; stroke-linejoin:round;" d="m 1620.6,3756 c -2.9,0.1 -8.3,-1.2 -7.1,3.5 0.2,20.6 -0.3,41.4 0.2,62 2.2,1 4.9,0.2 7.3,0.5 1.7,-3.3 -5,-1.4 -5.6,-1.8 0.6,-0 0,-5.1 0.2,-6.8 -0.1,-18.4 0.2,-38.1 -0.1,-55.9 -1.3,0.8 3.4,0.1 4.5,0.4 1.4,0.4 0.4,-1.2 0.7,-1.9 z"/>
	<text x="1873" y="3772.3" style="font-weight:900; color:black; overflow:visible;">6</text>
	<text x="1864.9" y="3816.6" style="font-weight:900; color:black; overflow:visible;">27</text>
	<text x="1863.9" y="3795" style="font-weight:900; color:black; overflow:visible;">-4</text>
	<path style="color:black; overflow:visible; fill:#0169c9; stroke:#636466; stroke-width:0.1; stroke-linejoin:round;" d="m 1889.9,3757.1 c 2.9,0.1 8.3,-1.2 7.1,3.5 -0.1,20.5 0.2,41.1 -0.1,61.6 -1.9,1.6 -5,0.4 -7.4,0.8 -1.6,-3.3 5,-1.4 5.7,-1.7 -0.6,-0 -0,-5.1 -0.2,-6.8 0.1,-18.4 -0.2,-38.1 0.1,-55.8 1.2,0.6 -3.5,0.1 -4.5,0.2 -1.4,0.4 -0.4,-1.4 -0.6,-1.8 z"/>
	<path style="color:black; overflow:visible; fill:#0169c9; stroke:#636466; stroke-width:0.1; stroke-linejoin:round;" d="m 1863.1,3757.1 c -2.9,0.1 -8.3,-1.2 -7.1,3.5 0.2,20.6 -0.3,41.4 0.2,62 2.1,1 4.9,0.2 7.3,0.5 1.6,-3.3 -5,-1.4 -5.7,-1.7 0.6,0.5 0,-3.7 0.2,-4.9 0,-19.3 0,-38.6 0,-58 -1.9,0.6 5.7,1.2 5.1,-0.6 v -0.8 z"/>
	<path style="color:black; overflow:visible; fill:#0169c9; stroke:#636466; stroke-width:0.1; stroke-linejoin:round;" d="m 1844.4,3757.8 c 2.9,0.1 8.3,-1.2 7.1,3.5 -0.2,20.6 0.3,41.4 -0.2,62 -2.2,1 -4.9,0.2 -7.3,0.5 -1.7,-3.3 5,-1.4 5.7,-1.8 -0.6,-0 -0,-5.1 -0.2,-6.8 0.1,-18.4 -0.2,-38.1 0.1,-55.8 1.3,0.6 -3.5,0.1 -4.5,0.3 -1.4,0.4 -0.4,-1.4 -0.7,-1.8 z"/>
	<path style="color:black; overflow:visible; fill:#0169c9; stroke:#636466; stroke-width:0.1; stroke-linejoin:round;" d="m 1739.2,3757.8 c -2.9,0.1 -8.3,-1.2 -7.1,3.5 0.2,20.6 -0.3,41.4 0.2,62 2.1,1 4.9,0.2 7.3,0.5 1.7,-3.3 -5,-1.4 -5.6,-1.8 0.6,-0.1 0,-5.1 0.2,-6.8 -0.1,-18.4 0.2,-38.1 -0.1,-55.8 -1.3,0.8 3.4,0.1 4.5,0.4 1.4,0.4 0.4,-1.2 0.7,-1.9 z"/>
	<text x="1746.6" y="3796.1" style="font-weight:900; color:black; overflow:visible;">10</text>
	<text x="1737.2" y="3772.9" style="font-weight:900; color:black; overflow:visible;">-27</text>
	<text x="1825.3" y="3772.8" style="font-weight:900; color:black; overflow:visible;">3</text>
	<text x="1782.2" y="3796" style="font-weight:900; color:black; overflow:visible;">-3</text>
	<text x="1788.1" y="3772.7" style="font-weight:900; color:black; overflow:visible;">6</text>
	<text x="1782.1" y="3818.2" style="font-weight:900; color:black; overflow:visible;">-3</text>
	<text x="1745.9" y="3818.5" style="font-weight:900; color:black; overflow:visible;">-4</text>
	<text x="1818" y="3795.8" style="font-weight:900; color:black; overflow:visible;">-5</text>
	<text x="1826.7" y="3818.5" style="font-weight:900; color:black; overflow:visible;">2</text>
	<text x="1987.9" y="3770.2" style="font-weight:900; color:black; overflow:visible;">-105</text>
	<text x="2003" y="3815.3" style="font-weight:900; color:black; overflow:visible;">42</text>
	<text x="1995.5" y="3792.2" style="font-weight:900; color:black; overflow:visible;">-63</text>
	<path style="color:black; overflow:visible; fill:#0169c9; stroke:#636466; stroke-width:0.1; stroke-linejoin:round;" d="m 2026.6,3755 c 2.9,0.1 8.3,-1.2 7.1,3.5 -0.1,20.5 0.2,41.2 -0.1,61.6 -1.9,1.6 -5,0.4 -7.4,0.8 -1.7,-3.3 5,-1.4 5.7,-1.8 -0.6,0.5 -0,-3.7 -0.2,-4.9 0,-19.3 0,-38.7 0,-58 1.9,0.6 -5.7,1.2 -5.1,-0.6 v -0.8 z"/>
	<path style="color:black; overflow:visible; fill:#0169c9; stroke:#636466; stroke-width:0.1; stroke-linejoin:round;" d="m 1988.1,3755 c -2.9,0.1 -8.3,-1.2 -7.1,3.5 0.1,20.5 -0.2,41.2 0.1,61.7 1.9,1.7 5,0.4 7.4,0.8 1.7,-3.3 -5,-1.4 -5.6,-1.8 0.6,-0.1 0,-5.1 0.2,-6.8 -0.1,-18.4 0.2,-38.2 -0.1,-55.8 -1.3,0.6 3.4,0.1 4.5,0.3 1.4,0.4 0.4,-1.5 0.6,-1.8 z"/>
	<text x="2056.1" y="3793.3" style="font-size:25.5px; color:black; overflow:visible; fill:#2d2d2d;">=</text>
	<text x="2104.2" y="3768.5" style="font-weight:900; color:black; overflow:visible;">5</text>
	<text x="2096" y="3812.8" style="font-weight:900; color:black; overflow:visible;">-2</text>
	<text x="2104.5" y="3791.2" style="font-weight:900; color:black; overflow:visible;">3</text>
	<path style="color:black; overflow:visible; fill:#0169c9; stroke:#636466; stroke-width:0.1; stroke-linejoin:round;" d="m 2121.1,3753.3 c 2.9,0.1 8.3,-1.2 7.1,3.5 -0.2,20.6 0.3,41.4 -0.2,62 -2.1,1.1 -4.9,0.2 -7.3,0.5 -1.6,-3.3 5,-1.4 5.7,-1.8 -0.7,-0.1 -0,-5.1 -0.3,-6.8 0.1,-18.4 -0.2,-38.1 0.1,-55.8 1.3,0.8 -3.4,0.1 -4.5,0.4 -1.4,0.4 -0.4,-1.3 -0.7,-1.9 z"/>
	<path style="color:black; overflow:visible; fill:#0169c9; stroke:#636466; stroke-width:0.1; stroke-linejoin:round;" d="m 2094.3,3753.3 c -2.9,0.1 -8.3,-1.2 -7.1,3.5 0.1,20.5 -0.2,41.2 0.1,61.6 1.8,1.7 5,0.4 7.4,0.8 1.7,-3.3 -5,-1.4 -5.6,-1.7 0.6,-0 0,-5.1 0.2,-6.8 -0.1,-18.4 0.2,-38.1 -0.1,-55.8 -1.3,0.8 3.4,0.1 4.5,0.4 1.3,0.4 0.5,-1.3 0.6,-1.9 z"/>
</g>
</svg>