<?xml version="1.0" encoding="UTF-8" standalone="no"?>
<!-- Copyright 2017 mathsisfun.com -->
<svg xmlns="http://www.w3.org/2000/svg" width="327.9" height="72.3" version="1.1" style="font-family:'Comic Sans MS'; font-size:15.5px; fill:#fd3301; stroke-width:1.21;">
<g transform="translate(-2412.91,-3663.92)">
	<path style="color:black; overflow:visible; fill:#0169c9; stroke:#636466; stroke-width:0.1; stroke-linejoin:round;" d="m 2512.2,3670.2 c 2.3,0.5 6.2,-1.3 7.1,1.5 -0.1,21.2 0.2,42.5 -0.1,63.7 -1.9,1.6 -5,0.4 -7.4,0.8 -1.3,-3.2 3.2,-1.4 5.1,-1.9 1.5,-0.2 -0.2,1.1 0.3,-0.7 0,-20.7 0,-41.4 0,-62.1 1.9,1.1 -2.1,0.3 -3,0.5 -1.8,0 -2.6,0.5 -2,-1.9 z"/>
	<path style="color:black; overflow:visible; fill:#0169c9; stroke:#636466; stroke-width:0.1; stroke-linejoin:round;" d="m 2420.1,3670.2 c -2.3,0.5 -6.2,-1.2 -7.1,1.5 0,21.2 0,42.4 0,63.7 1.9,1.7 5,0.4 7.4,0.8 1.4,-3.2 -3.2,-1.4 -5.1,-1.9 -1.5,-0.1 0.2,1.1 -0.3,-0.8 0,-20.7 0,-41.3 0,-61.9 -1.9,0.9 2.1,0.2 3,0.4 1.9,0.1 2.4,0.3 2.1,-1.8 z"/>
	<text x="2426.7" y="3708.6" style="font-weight:900; color:black; overflow:visible;">1</text>
	<text x="2426.7" y="3685.3" style="font-weight:900; color:black; overflow:visible;">1</text>
	<text x="2492.3" y="3685.2" style="font-weight:900; color:black; overflow:visible;">2</text>
	<text x="2458.7" y="3708.5" style="font-weight:900; color:black; overflow:visible;">2</text>
	<text x="2458.8" y="3685.2" style="font-weight:900; color:black; overflow:visible;">0</text>
	<text x="2458.6" y="3730.7" style="font-weight:900; color:black; overflow:visible;">5</text>
	<text x="2426.7" y="3731" style="font-weight:900; color:black; overflow:visible;">1</text>
	<text x="2492.3" y="3708.3" style="font-weight:900; color:black; overflow:visible;">5</text>
	<text x="2485" y="3731" style="font-weight:900; color:black; overflow:visible;">-1</text>
	<text x="2524.1" y="3678.3" style="font-weight:900; font-size:18.9px; color:black; overflow:visible; fill:#0169c9;">-1</text>
	<text x="2551.8" y="3713.5" style="font-size:25.5px; color:black; overflow:visible; fill:#2d2d2d;">=</text>
	<path style="color:black; overflow:visible; fill:#0169c9; stroke:#636466; stroke-width:0.1; stroke-linejoin:round;" d="m 2733.7,3670.2 c 2.3,0.5 6.2,-1.3 7.1,1.5 0,21.2 0,42.4 0,63.7 -1.9,1.6 -5,0.4 -7.4,0.8 -1.3,-3.2 3.2,-1.4 5.1,-1.9 1.5,-0.2 -0.2,1.1 0.3,-0.7 0,-20.7 0,-41.4 0,-62.1 1.9,1.1 -2.1,0.3 -3,0.5 -1.8,-0 -2.4,0.5 -2.1,-1.9 z"/>
	<path style="color:black; overflow:visible; fill:#0169c9; stroke:#636466; stroke-width:0.1; stroke-linejoin:round;" d="m 2628.4,3670.2 c -2.3,0.5 -6.2,-1.2 -7.1,1.5 0,21.2 0,42.4 0,63.7 1.8,1.7 5,0.4 7.4,0.8 1.4,-3.2 -3.2,-1.4 -5.1,-1.9 -1.5,-0.1 0.2,1.1 -0.3,-0.8 0,-20.7 0,-41.3 0,-61.9 -1.9,0.9 2.1,0.2 3,0.4 1.9,0.1 2.4,0.3 2.1,-1.8 z"/>
	<text x="2643.8" y="3708.6" style="font-weight:900; color:black; overflow:visible;">6</text>
	<text x="2626.4" y="3685.3" style="font-weight:900; color:black; overflow:visible;">-27</text>
	<text x="2709.4" y="3685.2" style="font-weight:900; color:black; overflow:visible;">-4</text>
	<text x="2674.3" y="3708.5" style="font-weight:900; color:black; overflow:visible;">-3</text>
	<text x="2674.4" y="3685.2" style="font-weight:900; color:black; overflow:visible;">10</text>
	<text x="2674.2" y="3730.7" style="font-weight:900; color:black; overflow:visible;">-5</text>
	<text x="2643.8" y="3731" style="font-weight:900; color:black; overflow:visible;">3</text>
	<text x="2709.4" y="3708.3" style="font-weight:900; color:black; overflow:visible;">-3</text>
	<text x="2717.3" y="3731" style="font-weight:900; color:black; overflow:visible;">2</text>
	<text x="2581" y="3718.4" style="font-weight:bold; color:black; overflow:visible; fill:#666666;">-21</text>
	<text x="2594.3" y="3700.8" style="font-weight:900; color:black; overflow:visible; fill:#666666;">1</text>
	<path style="fill:#ff9900; stroke:#666666; stroke-width:1.56; stroke-linecap:round;" d="m 2584.3,3703.9 h 26.2"/>
</g>
</svg>