<?xml version="1.0" encoding="UTF-8" standalone="no"?>
<!-- Copyright 2017 mathsisfun.com -->
<svg xmlns="http://www.w3.org/2000/svg" xmlns:xlink="http://www.w3.org/1999/xlink" width="329.3" height="144.3" version="1.1" style="font-family:'Comic Sans MS'; font-size:12.1px; stroke-width:1.21px;">
<defs>
	<marker id="aa5" style="overflow:visible;" orient="auto">
		<path transform="matrix(-0.4,0,0,-0.4,-4,0)" style="stroke:black; stroke-width:1pt;" d="M 0,0 5,-5 -12.5,0 5,5 Z"/>
	</marker>
</defs>
<rect x="-0" y="0" width="324.7" height="144.3" style="fill:white; fill-opacity:0.93; stroke-width:2;"/>
<g transform="matrix(0.8,0,0,0.797743,918.208,-307.809)">
	<path id="aa1" style="fill:none; stroke:#e3deff; stroke-width:1.33;" d="m -1147.8,393.8 h 406.9"/>
	<use id="aa2" transform="translate(-1.7973e-4,31.0062)" xlink:href="#aa1" x="0" y="0"/>
	<use id="aa3" transform="translate(-1.7973e-4,28)" xlink:href="#aa2" x="0" y="0"/>
	<use id="aa4" transform="translate(-1.7973e-4,32)" xlink:href="#aa3" x="0" y="0"/>
	<use transform="translate(-1.7973e-4,30)" xlink:href="#aa4" x="0" y="0"/>
	<path style="fill:none; stroke:#e3deff;" d="M -1086.3,564.7 V 393.3"/>
	<path style="fill:none; stroke:#e3deff;" d="M -1056.3,564.7 V 393.3"/>
	<path style="fill:none; stroke:#e3deff;" d="M -1026.3,564.7 V 393.3"/>
	<path style="fill:none; stroke:#e3deff;" d="M -996.3,564.7 V 393.3"/>
	<path style="fill:none; stroke:#e3deff;" d="M -966.3,564.7 V 393.3"/>
	<path style="fill:none; stroke:#e3deff;" d="M -936.3,564.7 V 393.3"/>
	<path style="fill:none; stroke:#e3deff;" d="M -906.3,564.7 V 393.3"/>
	<path style="fill:none; stroke:#e3deff;" d="M -876.3,564.7 V 393.3"/>
	<path style="fill:none; stroke:#e3deff;" d="M -846.3,564.7 V 393.3"/>
	<path style="fill:none; stroke:#e3deff;" d="M -816.3,564.7 V 393.3"/>
	<path style="fill:none; stroke:#e3deff;" d="M -786.3,564.7 V 393.3"/>
	<path style="fill:none; stroke:#e3deff;" d="M -756.3,564.7 V 393.3"/>
</g>
<text x="138.5" y="117.8" transform="matrix(0.985992,-0.174574,0.175067,0.983211,0,0)" style="text-align:center; text-anchor:middle; font-size:19.9px; fill:#0169c9; stroke-width:2.5;">d=(0.2t)</text>
<text x="37.3" y="21.6" transform="scale(1.00141,0.99859)" style="text-align:center; text-anchor:middle; font-size:27.6px; fill:#121513; stroke-width:3.47;">d</text>
<text x="297.9" y="120.5" transform="scale(1.00141,0.998591)" style="text-align:center; text-anchor:middle; font-size:29.3px; fill:#121513; stroke-width:3.69;">t</text>
<text x="1092.4" y="1181.9" transform="scale(1.00141,0.99859)" style="text-align:center; text-anchor:middle; font-size:28.8px; fill:#636466; stroke-width:2.85;"/> &#160; 
<path style="marker-end:url(#aa5); fill:#2e3436; fill-opacity:0.75; stroke:#2e3436; stroke-width:1.84;" d="m -1.7,125.6 h 322.3"/>
<path style="marker-end:url(#aa5); fill:#2e3436; fill-opacity:0.75; stroke:#2e3436; stroke-width:1.5;" d="M 25,144.1 V 1.6"/>
<text x="21.2" y="137.9" transform="scale(0.993621,1.00642)" style="font-family:Verdana; fill:black; stroke-width:1.71;">0</text>
<text x="257.5" y="139.4" transform="scale(0.993621,1.00642)" style="font-size:14.7px; fill:black; stroke-width:1.71;">10</text>
<path style="fill:#0084c8; stroke:#0084c8; stroke-width:2;" d="M -1.3,130.9 324.2,66.5"/>
<path style="fill:none; stroke:#8f5902; stroke-width:2.15;" d="M 144.2,138.3 326.9,47.7"/>
<text x="13.4" y="128.8" transform="scale(0.993621,1.00642)" style="font-family:Verdana; fill:black; stroke-width:1.71;">0</text>
<text x="139.7" y="139.1" transform="scale(0.993621,1.00642)" style="font-size:14.7px; fill:black; stroke-width:1.71;">5</text>
<text x="175.8" y="203.3" transform="matrix(0.902436,-0.43287,0.434094,0.89989,0,0)" style="text-align:center; text-anchor:middle; font-size:19.9px; fill:#fd3301; stroke-width:2.5;">d=0.5(t-6)</text>
<text x="13" y="82.4" transform="scale(0.993621,1.00642)" style="font-family:Verdana; fill:black; stroke-width:1.71;">2</text>
<text x="13" y="34.9" transform="scale(0.993621,1.00642)" style="font-family:Verdana; fill:black; stroke-width:1.71;">4</text>
<text x="170.2" y="46.6" transform="scale(1.00141,0.998591)" style="text-align:center; text-anchor:middle; font-size:19.9px; fill:#fdca01; stroke-width:2.5;">solution</text>
<g transform="translate(654.943,-459.626)">
	<path style="fill:#fdca01; stroke-width:2.5;" d="m -442.5,500.1 c 4.1,-1.7 8.6,-2.1 12.9,-2.4 9.1,-0.4 18.7,2.2 25.7,8.3 4.6,4.1 6.3,10.2 9.1,15.6 0.4,1.2 2.3,3 0.2,3.2 -1.3,0.9 -2,0.2 -2.3,-1.3 -2.5,-4.9 -4.1,-10.3 -7.8,-14.5 -5.3,-5.3 -12.9,-7.9 -20.3,-8.5 -5,-0.3 -10.1,0.3 -15,1.7 -1.3,1.1 -1.6,-0.2 -2,-1.2 -0.1,-0.3 -0.3,-0.6 -0.4,-0.9 z"/>
	<path style="fill:#fdca01; stroke-width:2.5;" d="m -401.1,520.7 c 3.2,1.8 6.2,4.1 8.5,7 0.6,1.1 1.6,1.7 0,2 -2.5,1.8 -1.5,-2.8 -2,-4.1 -0.4,-3.2 -0.3,-6.6 1,-9.7 0,-1.5 1,-1 1.9,-0.6 1.9,0 0.5,1.7 0.3,2.8 -1.4,4 -0.2,8.1 0,12.2 -1.3,1 -2.9,1.2 -3.4,-0.6 -2,-2.6 -4.6,-4.6 -7.4,-6.3 -0.5,-0.5 0.6,-1.4 0.8,-2.1 0,-0.2 0.2,-0.3 0.3,-0.5 z"/>
</g>
</svg>