<?xml version="1.0" encoding="UTF-8" standalone="no"?>
<!-- Copyright 2017 mathsisfun.com -->
<svg xmlns="http://www.w3.org/2000/svg" width="257.3" height="267.8" version="1.1">
<defs>
<marker id="id1" style="overflow:visible;" orient="auto">
<path transform="matrix(-0.4,0,0,-0.4,-4,0)" style="stroke:black; stroke-width:1pt;" d="M 0,0 5,-5 -12.5,0 5,5 Z"/>
</marker>
</defs>
<g transform="matrix(0.455322,0,0,0.455459,-16.33,-195.54)">
<g transform="translate(-853.459,49.8897)">
<path style="fill:none; stroke:#d8dadc; stroke-width:2.36; stroke-dasharray:18.9, 2.4;" d="m 924.1,601.7 h 526.7"/>
<path style="fill:none; stroke:#d8dadc; stroke-width:2.36; stroke-dasharray:18.9, 2.4;" d="m 924.1,535.6 h 526.7"/>
<path style="fill:none; stroke:#d8dadc; stroke-width:2.36; stroke-dasharray:18.9, 2.4;" d="m 924.1,469.4 h 526.7"/>
<path style="fill:none; stroke:#d8dadc; stroke-width:2.36; stroke-dasharray:18.9, 2.4;" d="m 924.1,403.3 h 526.7"/>
<path style="fill:none; stroke:#d8dadc; stroke-width:2.36; stroke-dasharray:18.9, 2.4;" d="m 924.1,932.5 h 526.7"/>
<path style="fill:none; stroke:#d8dadc; stroke-width:2.36; stroke-dasharray:18.9, 2.4;" d="m 924.1,800.2 h 526.7"/>
<path style="fill:none; stroke:#d8dadc; stroke-width:2.36; stroke-dasharray:18.9, 2.4;" d="m 924.1,734 h 526.7"/>
<path style="fill:none; stroke:#d8dadc; stroke-width:2.36; stroke-dasharray:18.9, 2.4;" d="m 924.1,667.9 h 526.7"/>
<path style="fill:none; stroke:#d8dadc; stroke-width:2.36; stroke-dasharray:18.9, 2.4;" d="m 926.5,866.3 h 526.7"/>
</g>
<g transform="rotate(-90,786.875,1119.55)">
<path style="fill:none; stroke:#d8dadc; stroke-width:2.36; stroke-dasharray:18.9, 2.4;" d="m 924.1,601.7 h 526.7"/>
<path style="fill:none; stroke:#d8dadc; stroke-width:2.36; stroke-dasharray:18.9, 2.4;" d="m 924.1,535.6 h 526.7"/>
<path style="fill:none; stroke:#d8dadc; stroke-width:2.36; stroke-dasharray:18.9, 2.4;" d="m 924.1,469.4 h 526.7"/>
<path style="fill:none; stroke:#d8dadc; stroke-width:2.36; stroke-dasharray:18.9, 2.4;" d="m 924.1,403.3 h 526.7"/>
<path style="fill:none; stroke:#d8dadc; stroke-width:2.36; stroke-dasharray:18.9, 2.4;" d="m 924.1,932.5 h 526.7"/>
<path style="fill:none; stroke:#d8dadc; stroke-width:2.36; stroke-dasharray:18.9, 2.4;" d="m 924.1,800.2 h 526.7"/>
<path style="fill:none; stroke:#d8dadc; stroke-width:2.36; stroke-dasharray:18.9, 2.4;" d="m 924.1,734 h 526.7"/>
<path style="fill:none; stroke:#d8dadc; stroke-width:2.36; stroke-dasharray:18.9, 2.4;" d="m 924.1,667.9 h 526.7"/>
<path style="fill:none; stroke:#d8dadc; stroke-width:2.36; stroke-dasharray:18.9, 2.4;" d="m 926.5,866.3 h 526.7"/>
</g>
</g>
<path style="marker-end:url(#id1); fill:#2e3436; fill-opacity:0.75; stroke:#2e3436; stroke-width:1.61;" d="m 0,191.9 h 250.1"/>
<path style="marker-end:url(#id1); fill:#2e3436; fill-opacity:0.75; stroke:#2e3436; stroke-width:1.61;" d="m 45.8,267.9 v -240"/>
<text x="219.5" y="217.6" transform="scale(0.99985,1.00015)" style="font-family:'Comic Sans MS'; font-size:30.2px; font-style:italic; overflow:visible; fill:black; stroke-width:1px;">x</text>
<text x="23.4" y="41.4" transform="scale(0.99985,1.00015)" style="font-family:'Comic Sans MS'; font-size:30.2px; font-style:italic; overflow:visible; fill:black; stroke-width:1px;">y</text>
<path style="color:black; overflow:visible; fill:#0197fd; stroke:#0197fd; stroke-width:2.85;" d="M 70.8,262.5 202.3,0.7"/>
<text x="199.1" y="180.8" transform="scale(0.99985,1.00015)" style="font-family:'Comic Sans MS'; text-align:center; text-anchor:middle; font-size:26.2px; color:black; overflow:visible; fill:#204a87; stroke-width:5.3;">Solutions</text>
<text x="75.7" y="207.9" transform="matrix(0.44982,-0.89322,0.89295,0.449955,0,0)" style="font-family:'Comic Sans MS'; text-align:end; text-anchor:end; font-size:24.1px; color:black; overflow:visible; fill:#f44800; stroke-width:9.9;">6x - 3y = 12</text>
<text x="61.7" y="164.1" transform="matrix(0.44982,-0.89322,0.89295,0.449955,0,0)" style="font-family:'Comic Sans MS'; text-align:end; text-anchor:end; font-size:24.1px; color:black; overflow:visible; fill:#0197fd; stroke-width:9.9;">2x - y = 4</text>
<text x="201.2" y="165.8" transform="scale(0.99985,1.00015)" style="font-family:'Comic Sans MS'; text-align:center; text-anchor:middle; font-size:55.4px; color:black; overflow:visible; fill:#204a87; stroke-width:5.3;">∞</text>
<path style="color:black; overflow:visible; fill:#f44800; stroke:#f44800; stroke-width:2.85; stroke-dasharray:8.6, 8.6;" d="M 71.3,261.5 201.8,1.7"/>
<text x="2754.3" y="-312.8" transform="scale(0.99985,1.00015)" style="font-family:'Comic Sans MS'; text-align:center; text-anchor:middle; font-size:36.1px; color:black; overflow:visible; fill:#636466; stroke-width:2.85;"/>

</svg>
