<?xml version="1.0" encoding="UTF-8" standalone="no"?>
<!-- Copyright 2017 mathsisfun.com -->

<svg
   width="326.2"
   height="139.8"
   version="1.1"
   style="font-size:24px;stroke-width:0.5px"
   id="svg65"
   sodipodi:docname="trig-trianglearea2.svg"
   inkscape:version="1.1 (c68e22c387, 2021-05-23)"
   xmlns:inkscape="http://www.inkscape.org/namespaces/inkscape"
   xmlns:sodipodi="http://sodipodi.sourceforge.net/DTD/sodipodi-0.dtd"
   xmlns="http://www.w3.org/2000/svg"
   xmlns:svg="http://www.w3.org/2000/svg">
  <sodipodi:namedview
     id="namedview67"
     pagecolor="#ffffff"
     bordercolor="#666666"
     borderopacity="1.0"
     inkscape:pageshadow="2"
     inkscape:pageopacity="0.0"
     inkscape:pagecheckerboard="0"
     showgrid="false"
     inkscape:current-layer="svg65" />
  <defs
     id="defs19">
    <marker
       id="id2"
       style="overflow:visible"
       orient="auto">
      <path
         transform="matrix(-0.8,0,0,-0.8,-10,0)"
         style="fill:#013397;stroke:#013397;stroke-width:1pt"
         d="M 0,0 5,-5 -12.5,0 5,5 Z"
         id="path2" />
    </marker>
    <marker
       id="id1"
       style="overflow:visible"
       orient="auto">
      <path
         transform="matrix(0.8,0,0,0.8,10,0)"
         style="fill:#013397;stroke:#013397;stroke-width:1pt"
         d="M 0,0 5,-5 -12.5,0 5,5 Z"
         id="path5" />
    </marker>
    <marker
       id="id3"
       style="overflow:visible"
       orient="auto">
      <path
         transform="matrix(-0.8,0,0,-0.8,-10,0)"
         style="fill:black;stroke:black;stroke-width:1pt"
         d="M 0,0 5,-5 -12.5,0 5,5 Z"
         id="path8" />
    </marker>
    <marker
       style="overflow:visible"
       orient="auto"
       id="marker13">
      <path
         transform="matrix(-0.8,0,0,-0.8,-10,0)"
         style="stroke:black;stroke-width:1pt"
         d="M 0,0 5,-5 -12.5,0 5,5 Z"
         id="path11" />
    </marker>
    <marker
       style="overflow:visible"
       orient="auto"
       id="marker17">
      <path
         transform="matrix(0.8,0,0,0.8,10,0)"
         style="stroke:black;stroke-width:1pt"
         d="M 0,0 5,-5 -12.5,0 5,5 Z"
         id="path15" />
    </marker>
    <marker
       style="overflow:visible"
       orient="auto"
       id="id37763"
       inkscape:stockid="id37763">
      <path
         transform="matrix(-0.8,0,0,-0.8,-10,0)"
         style="fill:#ff6600;stroke:#ff6600;stroke-width:1pt;stroke-opacity:1;fill-opacity:1"
         d="M 0,0 5,-5 -12.5,0 5,5 Z"
         id="path1413" />
    </marker>
  </defs>
  <rect
     x="129.7"
     y="92.033"
     width="17.5"
     height="17.5"
     style="fill:none;stroke:#ff6600;stroke-width:1.54"
     id="rect21" />
  <path
     style="fill:none;stroke:#013397;stroke-width:0.900001;marker-end:url(#id2)"
     d="M 129.113,124.533 H 218.3"
     id="path23" />
  <rect
     x="2118.6"
     y="-284.467"
     width="0"
     height="71.4"
     style="stroke-width:1"
     id="rect29" />
  <text
     x="41.4"
     y="103.033"
     style="font-family:Arial;fill:#013397"
     id="text33">A</text>
  <text
     x="58.8"
     y="50.933"
     style="font-family:Arial;fill:#013397"
     id="text39">b</text>
  <text
     x="108.251"
     y="131.333"
     style="font-family:Arial;fill:#013397"
     id="text41">c</text>
  <path
     style="fill:#ffff99;stroke:#013397;stroke-width:2.85"
     d="m 29.5,90.833 a 31.5,31.5 0 0 1 6.4,19.1 H 4.4 Z"
     id="path43" />
  <path
     style="fill:#ffff99;stroke:#013397;stroke-width:2.85;font-variation-settings:normal;opacity:1;vector-effect:none;fill-opacity:1;stroke-linecap:butt;stroke-linejoin:miter;stroke-miterlimit:4;stroke-dasharray:none;stroke-dashoffset:0;stroke-opacity:0.193798;-inkscape-stroke:none;stop-color:#000000;stop-opacity:1"
     d="m 158.6,19.533 a 20.8,20.8 0 0 1 -27.9,-4.9 l 16.6,-12.5 z"
     id="path45" />
  <path
     style="fill:#ffff99;stroke:#013397;stroke-width:2.85;font-variation-settings:normal;opacity:1;vector-effect:none;fill-opacity:1;stroke-linecap:butt;stroke-linejoin:miter;stroke-miterlimit:4;stroke-dasharray:none;stroke-dashoffset:0;stroke-opacity:0.213178;-inkscape-stroke:none;stop-color:#000000;stop-opacity:1"
     d="m 194,109.933 a 23,23 0 0 1 10.7,-19.5 l 12.3,19.5 z"
     id="path47" />
  <path
     style="fill:#dcddde;stroke:#013397;stroke-width:3"
     d="M 4.4,109.933 H 218.3"
     id="path49" />
  <path
     style="fill:#ff6600;stroke-width:3"
     d="m 158.5,70.833 c 7.6,-5.9 17.3,-7.7 26.5,-9.9 5.5,-1 11.2,-2.4 16.7,-1 2.4,0.9 3.7,3.8 2.8,6.2 -1.4,2.8 -3.2,7.3 1.2,8.4 5.5,1.7 11.4,0.5 16.9,0 7.9,-1 15.8,-2.3 23.7,-3.4 -1.1,1 -2.3,2 -3.4,2.9 -10.9,1.4 -21.7,3.6 -32.7,4.3 -3.7,0 -8.2,0.1 -10.7,-3.1 -1.9,-3.6 3.1,-7.1 1.1,-10.6 -2.2,-2.9 -6.4,-2.3 -9.6,-2.1 -8.9,1 -17.7,3.2 -26.2,6.1 -1.6,0.5 -4.6,2.1 -5.2,2.4 1.4,-1 4.5,-2.7 1.5,-1.3 -0.9,0.4 -1.7,0.8 -2.6,1.1 z"
     id="path53" />
  <path
     style="fill:none;stroke:#013397;stroke-width:2.85"
     d="M 218.3,109.933 H 4.4 L 147.3,2.033"
     id="path55" />
  <text
     x="248.1"
     y="78.933"
     style="font-family:Arial;fill:#ff6600"
     id="text57">b sin A</text>
  <path
     style="fill:none;stroke:#ff6600;stroke-width:2.7"
     d="m 147.3,2.033 v 107.6"
     id="path59" />
  <path
     style="fill:none;stroke:#ff6600;stroke-width:1px;marker-end:url(#id37763)"
     d="m 172.7,65.133 -15,5.2"
     id="path61" />
  <path
     style="fill:none;stroke:#013397;stroke-width:0.9;marker-start:url(#id1);stroke-miterlimit:4;stroke-dasharray:none"
     d="M 0.73963,124.533 H 98.2846"
     id="path1095" />
  <path
     style="fill:none;stroke:#013397;stroke-width:2.85;font-variation-settings:normal;opacity:1;vector-effect:none;fill-opacity:1;stroke-linecap:butt;stroke-linejoin:miter;stroke-miterlimit:4;stroke-dasharray:none;stroke-dashoffset:0;stroke-opacity:0.2;-inkscape-stroke:none;stop-color:#000000;stop-opacity:1"
     d="m 147.3,2.033 69.7,107.9"
     id="path27" />
</svg>
