<?xml version="1.0" encoding="UTF-8" standalone="no"?>
<!-- Copyright 2017 mathsisfun.com -->
<svg xmlns="http://www.w3.org/2000/svg" width="238.2" height="149.2" version="1.1" style="font-family:'Comic Sans MS'; fill:white;">
<defs>
	<marker id="id2" style="overflow:visible;" orient="auto">
		<path transform="scale(0.4) rotate(180) translate(10,0)" style="stroke:white; stroke-width:1pt;" d="M 0,0 L 5,-5 L -12.5,0 L 5,5 L 0,0 z "/>
	</marker>
	<marker id="id1" style="overflow:visible;" orient="auto">
		<path transform="scale(0.4) translate(10,0)" style="stroke:white; stroke-width:1pt;" d="M 0,0 L 5,-5 L -12.5,0 L 5,5 L 0,0 z "/>
	</marker>
	<marker style="overflow:visible;" orient="auto">
		<path transform="scale(0.4) rotate(180) translate(10,0)" style="fill:black; stroke:black; stroke-width:1pt;" d="M 0,0 L 5,-5 L -12.5,0 L 5,5 L 0,0 z "/>
	</marker>
	<marker id="id3" style="overflow:visible;" orient="auto">
		<path transform="scale(0.4) rotate(180) translate(10,0)" style="stroke:white; stroke-width:1pt;" d="M 0,0 L 5,-5 L -12.5,0 L 5,5 L 0,0 z "/>
	</marker>
	<marker id="id4" style="overflow:visible;" orient="auto">
		<path transform="scale(0.4) translate(10,0)" style="stroke:white; stroke-width:1pt;" d="M 0,0 L 5,-5 L -12.5,0 L 5,5 L 0,0 z "/>
	</marker>
	<marker style="overflow:visible;" orient="auto">
		<path transform="scale(0.4) rotate(180) translate(10,0)" style="fill:black; stroke:black; stroke-width:1pt;" d="M 0,0 L 5,-5 L -12.5,0 L 5,5 L 0,0 z "/>
	</marker>
</defs>
<g transform="translate(-57.4021,-2487.16)">
	<rect x="57.5" y="2487.2" width="238.1" height="148.9" style="color:black; overflow:visible; fill:#2d2d2d; stroke:white; stroke-width:1;"/>
	<path style="color:black; overflow:visible; fill:#ff9900; fill-opacity:0.67; stroke-width:3.78;" d="m 130.7,2603.3 a 79.9,79.9 0 0 1 6.9,32.5 H 57.7 Z"/>
	<path style="fill:#0084c8; stroke:#0084c8; stroke-width:1.4px;" d="M 57.7,2635.8 225.1,2563.4"/>
	<text x="140.8" y="2624.6" style="font-size:14.3px; font-style:italic; color:black; overflow:visible; fill:#f57900; stroke-width:0.71px;">25°</text>
	<text x="-889.3" y="2445.4" transform="rotate(-22.7626)" style="font-size:23.8px; font-style:italic; color:black; overflow:visible; fill:#3465a4; stroke-width:1.4px;">120</text>
	<circle cx="225.1" cy="2563.4" r="2.59404" style="color:black; overflow:visible; fill:#ffff3e; fill-opacity:0.98; stroke-width:2.43;"/>
	<path style="stroke:white; stroke-width:1;" d="M 224.9,2553.9 V 2526.5"/>
	<path style="stroke:white; stroke-width:1;" d="m 262.2,2563.1 h -27.4"/>
	<path style="marker-start:url(#id1); stroke:white; stroke-width:1;" d="m 220.2,2539.7 h -66.8"/>
	<path style="marker-end:url(#id2); stroke:white; stroke-width:1;" d="M 122,2539.7 H 59.6"/>
	<path style="marker-end:url(#id3); stroke:white; stroke-width:1;" d="m 248.6,2582.3 v -17.9"/>
	<path style="marker-start:url(#id4); stroke:white; stroke-width:1;" d="m 248.6,2636.1 v -21"/>
	<text x="131.3" y="2547.9" style="font-size:26.9px; color:black; overflow:visible; stroke-width:1px;">?</text>
	<text x="242.1" y="2607.1" style="font-size:26.9px; color:black; overflow:visible; stroke-width:1px;">?</text>
</g>
</svg>