<?xml version="1.0" encoding="UTF-8" standalone="no"?>
<!-- Copyright 2017 mathsisfun.com -->

<svg
   width="188.9"
   height="163.1"
   version="1.1"
   style="font-family:'Comic Sans MS'"
   id="svg70"
   sodipodi:docname="trig-why-dist.svg"
   inkscape:version="1.1 (c68e22c387, 2021-05-23)"
   xmlns:inkscape="http://www.inkscape.org/namespaces/inkscape"
   xmlns:sodipodi="http://sodipodi.sourceforge.net/DTD/sodipodi-0.dtd"
   xmlns="http://www.w3.org/2000/svg"
   xmlns:svg="http://www.w3.org/2000/svg">
  <sodipodi:namedview
     id="namedview72"
     pagecolor="#ffffff"
     bordercolor="#666666"
     borderopacity="1.0"
     inkscape:pageshadow="2"
     inkscape:pageopacity="0.0"
     inkscape:pagecheckerboard="0"
     showgrid="false"
     inkscape:current-layer="svg70" />
  <defs
     id="defs28">
    <marker
       id="id3"
       style="overflow:visible"
       orient="auto">
      <path
         transform="matrix(0.4,0,0,0.4,4,0)"
         style="fill:black;stroke:black;stroke-width:1pt"
         d="M 0,0 5,-5 -12.5,0 5,5 Z"
         id="path2" />
    </marker>
    <marker
       id="id4"
       style="overflow:visible"
       orient="auto">
      <path
         transform="matrix(-0.4,0,0,-0.4,-4,0)"
         style="fill:black;stroke:black;stroke-width:1pt"
         d="M 0,0 5,-5 -12.5,0 5,5 Z"
         id="path5" />
    </marker>
    <marker
       id="id2"
       style="overflow:visible"
       orient="auto">
      <path
         transform="matrix(-0.4,0,0,-0.4,-4,0)"
         style="fill:black;stroke:black;stroke-width:1pt"
         d="M 0,0 5,-5 -12.5,0 5,5 Z"
         id="path8" />
    </marker>
    <marker
       id="id1"
       style="overflow:visible"
       orient="auto">
      <path
         transform="matrix(0.4,0,0,0.4,4,0)"
         style="fill:black;stroke:black;stroke-width:1pt"
         d="M 0,0 5,-5 -12.5,0 5,5 Z"
         id="path11" />
    </marker>
    <marker
       style="overflow:visible"
       orient="auto"
       id="marker16">
      <path
         transform="matrix(-0.4,0,0,-0.4,-4,0)"
         style="fill:black;stroke:black;stroke-width:1pt"
         d="M 0,0 5,-5 -12.5,0 5,5 Z"
         id="path14" />
    </marker>
    <marker
       id="id5"
       style="overflow:visible"
       orient="auto">
      <path
         transform="matrix(-0.4,0,0,-0.4,-4,0)"
         style="fill:black;stroke:black;stroke-width:1pt"
         d="M 0,0 5,-5 -12.5,0 5,5 Z"
         id="path18" />
    </marker>
    <marker
       id="id6"
       style="overflow:visible"
       orient="auto">
      <path
         transform="matrix(0.4,0,0,0.4,4,0)"
         style="fill:black;stroke:black;stroke-width:1pt"
         d="M 0,0 5,-5 -12.5,0 5,5 Z"
         id="path21" />
    </marker>
    <marker
       style="overflow:visible"
       orient="auto"
       id="marker26">
      <path
         transform="matrix(-0.4,0,0,-0.4,-4,0)"
         style="fill:black;stroke:black;stroke-width:1pt"
         d="M 0,0 5,-5 -12.5,0 5,5 Z"
         id="path24" />
    </marker>
    <marker
       style="overflow:visible"
       orient="auto"
       id="id66091"
       inkscape:stockid="id66091">
      <path
         transform="matrix(0.4,0,0,0.4,4,0)"
         style="fill:#3465a4;stroke:#3465a4;stroke-width:1pt;stroke-opacity:1;fill-opacity:1"
         d="M 0,0 5,-5 -12.5,0 5,5 Z"
         id="path1029" />
    </marker>
    <marker
       style="overflow:visible"
       orient="auto"
       id="id55330"
       inkscape:stockid="id55330">
      <path
         transform="matrix(-0.4,0,0,-0.4,-4,0)"
         style="fill:#3465a4;stroke:#3465a4;stroke-width:1pt;stroke-opacity:1;fill-opacity:1"
         d="M 0,0 5,-5 -12.5,0 5,5 Z"
         id="path1032" />
    </marker>
    <marker
       style="overflow:visible"
       orient="auto"
       id="id47521"
       inkscape:stockid="id47521">
      <path
         transform="matrix(-0.4,0,0,-0.4,-4,0)"
         style="fill:#3465a4;stroke:#3465a4;stroke-width:1pt;stroke-opacity:1;fill-opacity:1"
         d="M 0,0 5,-5 -12.5,0 5,5 Z"
         id="path1035" />
    </marker>
    <marker
       style="overflow:visible"
       orient="auto"
       id="id35624"
       inkscape:stockid="id35624">
      <path
         transform="matrix(0.4,0,0,0.4,4,0)"
         style="fill:#3465a4;stroke:#3465a4;stroke-width:1pt;stroke-opacity:1;fill-opacity:1"
         d="M 0,0 5,-5 -12.5,0 5,5 Z"
         id="path1038" />
    </marker>
    <marker
       style="overflow:visible"
       orient="auto"
       id="id28842"
       inkscape:stockid="id28842">
      <path
         transform="matrix(-0.4,0,0,-0.4,-4,0)"
         style="fill:#3465a4;stroke:#3465a4;stroke-width:1pt;stroke-opacity:1;fill-opacity:1"
         d="M 0,0 5,-5 -12.5,0 5,5 Z"
         id="path1041" />
    </marker>
    <marker
       style="overflow:visible"
       orient="auto"
       id="id16938"
       inkscape:stockid="id16938">
      <path
         transform="matrix(0.4,0,0,0.4,4,0)"
         style="fill:#3465a4;stroke:#3465a4;stroke-width:1pt;stroke-opacity:1;fill-opacity:1"
         d="M 0,0 5,-5 -12.5,0 5,5 Z"
         id="path1044" />
    </marker>
  </defs>
  <path
     style="color:#000000;overflow:visible;fill:#ff9900;fill-opacity:0.67;stroke-width:3.78"
     d="m 75.331,75.1 a 66.8,66.8 0 0 1 10.4,35.8 h -66.8 z"
     id="path30" />
  <text
     x="85.9357"
     y="96.5761"
     transform="scale(0.999973,1.00003)"
     style="color:#000000;font-style:italic;font-size:16.9px;overflow:visible;fill:#f57900;stroke-width:0.710002px"
     id="text32">?°</text>
  <path
     style="fill:none;stroke:#3465a4;stroke-width:1"
     d="M 146.931,27.6 129.631,0.3"
     id="path34" />
  <path
     style="fill:none;stroke:#3465a4;stroke-width:1;marker-start:url(#id16938)"
     d="m 136.094,14.203 -50.9,32.1"
     id="path36" />
  <path
     style="fill:none;stroke:#3465a4;stroke-width:1;marker-end:url(#id28842)"
     d="m 51.631,68.3 -41.4,26.1"
     id="path38" />
  <rect
     x="141.231"
     y="32.7001"
     width="8.6"
     height="87.4"
     style="color:#000000;overflow:visible;fill:#f57900;stroke:#000000;stroke-width:1"
     id="rect40" />
  <rect
     x="-120.2"
     y="18.94"
     width="8.6"
     height="131.1"
     transform="rotate(-90)"
     style="color:#000000;overflow:visible;fill:#f57900;stroke:#000000;stroke-width:1"
     id="rect42" />
  <path
     style="fill:none;stroke:#3465a4;stroke-width:1"
     d="M 149.631,156.8 V 124.5"
     id="path44" />
  <path
     style="fill:none;stroke:#3465a4;stroke-width:1;marker-start:url(#id35624)"
     d="m 147.431,153.5 h -38.8"
     id="path46" />
  <path
     style="fill:none;stroke:#3465a4;stroke-width:1;marker-end:url(#id47521)"
     d="m 62.631,153.5 h -40.5"
     id="path48" />
  <text
     x="72.7359"
     y="162.276"
     transform="scale(0.999972,1.00003)"
     style="color:#000000;font-size:24px;overflow:visible;fill:#3465a4;stroke-width:1px;-inkscape-font-specification:'Trebuchet MS';font-family:'Trebuchet MS';font-weight:normal;font-style:normal;font-stretch:normal;font-variant:normal"
     id="text50">16</text>
  <path
     style="fill:none;stroke:#3465a4;stroke-width:1"
     d="M 19.631,156.8 V 124.5"
     id="path52" />
  <path
     style="fill:none;stroke:#3465a4;stroke-width:1"
     d="m 186.631,32.6 h -32.3"
     id="path54" />
  <path
     style="fill:none;stroke:#3465a4;stroke-width:1;marker-end:url(#id55330)"
     d="M 173.031,55.3 V 34.1"
     id="path56" />
  <path
     style="fill:none;stroke:#3465a4;stroke-width:1;marker-start:url(#id66091)"
     d="M 173.031,109.9 V 87.4"
     id="path58" />
  <path
     style="fill:none;stroke:#3465a4;stroke-width:1"
     d="m 188.831,111.2 h -32.3"
     id="path60" />
  <text
     x="160.536"
     y="81.076"
     transform="scale(0.999972,1.00003)"
     style="color:#000000;font-size:24px;overflow:visible;fill:#3465a4;stroke-width:1px;-inkscape-font-specification:'Trebuchet MS';font-family:'Trebuchet MS';font-weight:normal;font-style:normal;font-stretch:normal;font-variant:normal"
     id="text62">10</text>
  <path
     style="fill:none;stroke:#3465a4;stroke-width:1"
     d="M 17.731,110.2 0.431,82.9"
     id="path64" />
  <text
     x="58.2371"
     y="72.2165"
     transform="scale(0.999971,1.00003)"
     style="color:#000000;font-style:italic;font-variant:normal;font-weight:normal;font-stretch:normal;font-size:48.8422px;font-family:'Trebuchet MS';-inkscape-font-specification:'Trebuchet MS Italic';overflow:visible;fill:#3465a4;stroke-width:0.999999px"
     id="text66">?</text>
</svg>
