<?xml version="1.0" encoding="UTF-8" standalone="no"?>
<!-- Copyright 2017 mathsisfun.com -->

<svg
   xmlns:dc="http://purl.org/dc/elements/1.1/"
   xmlns:cc="http://creativecommons.org/ns#"
   xmlns:rdf="http://www.w3.org/1999/02/22-rdf-syntax-ns#"
   xmlns:svg="http://www.w3.org/2000/svg"
   xmlns="http://www.w3.org/2000/svg"
   xmlns:sodipodi="http://sodipodi.sourceforge.net/DTD/sodipodi-0.dtd"
   xmlns:inkscape="http://www.inkscape.org/namespaces/inkscape"
   width="340"
   height="200"
   version="1.1"
   id="svg87"
   sodipodi:docname="y-intercept.svg"
   inkscape:version="0.92.3 (2405546, 2018-03-11)">
  <metadata
     id="metadata91">
    <rdf:RDF>
      <cc:Work
         rdf:about="">
        <dc:format>image/svg+xml</dc:format>
        <dc:type
           rdf:resource="http://purl.org/dc/dcmitype/StillImage" />
      </cc:Work>
    </rdf:RDF>
  </metadata>
  <sodipodi:namedview
     pagecolor="#ffffff"
     bordercolor="#666666"
     borderopacity="1"
     objecttolerance="10"
     gridtolerance="10"
     guidetolerance="10"
     inkscape:pageopacity="0"
     inkscape:pageshadow="2"
     inkscape:window-width="640"
     inkscape:window-height="480"
     id="namedview89"
     showgrid="false"
     inkscape:current-layer="g85" />
  <defs
     id="defs5">
    <marker
       id="id1"
       style="overflow:visible"
       orient="auto">
      <path
         transform="matrix(-0.4,0,0,-0.4,-4,0)"
         style="stroke:black;stroke-width:1pt"
         d="M 0,0 5,-5 -12.5,0 5,5 0,0 Z"
         id="path2" />
    </marker>
  </defs>
  <g
     transform="translate(13.095752,-548.39294)"
     id="g85">
    <g
       transform="matrix(0.50683643,0,0,0.50683643,-94.605669,270.50903)"
       id="g47">
      <g
         transform="translate(-853.4586,49.889672)"
         id="g25">
        <path
           style="fill:none;fill-opacity:0.75;stroke:#d8dadc;stroke-width:2.37;stroke-dasharray:18.9, 2.39999999999999991"
           d="m 924.1,601.7 526.7,0"
           id="path7" />
        <path
           style="fill:none;fill-opacity:0.75;stroke:#d8dadc;stroke-width:2.37;stroke-dasharray:18.9, 2.39999999999999991"
           d="m 924.1,535.6 526.7,0"
           id="path9" />
        <path
           style="fill:none;fill-opacity:0.75;stroke:#d8dadc;stroke-width:2.37;stroke-dasharray:18.9, 2.39999999999999991"
           d="m 924.1,469.4 526.7,0"
           id="path11" />
        <path
           style="fill:none;fill-opacity:0.75;stroke:#d8dadc;stroke-width:2.37;stroke-dasharray:18.9, 2.39999999999999991"
           d="m 924.1,403.3 526.7,0"
           id="path13" />
        <path
           style="fill:none;fill-opacity:0.75;stroke:#d8dadc;stroke-width:2.37;stroke-dasharray:18.9, 2.39999999999999991"
           d="m 924.1,932.5 526.7,0"
           id="path15" />
        <path
           style="fill:none;fill-opacity:0.75;stroke:#d8dadc;stroke-width:2.37;stroke-dasharray:18.9, 2.39999999999999991"
           d="m 924.1,800.2 526.7,0"
           id="path17" />
        <path
           style="fill:none;fill-opacity:0.75;stroke:#d8dadc;stroke-width:2.37;stroke-dasharray:18.9, 2.39999999999999991"
           d="m 924.1,734 526.7,0"
           id="path19" />
        <path
           style="fill:none;fill-opacity:0.75;stroke:#d8dadc;stroke-width:2.37;stroke-dasharray:18.9, 2.39999999999999991"
           d="m 924.1,667.9 526.7,0"
           id="path21" />
        <path
           style="fill:none;fill-opacity:0.75;stroke:#d8dadc;stroke-width:2.37;stroke-dasharray:18.9, 2.39999999999999991"
           d="m 926.5,866.3 526.7,0"
           id="path23" />
      </g>
      <g
         transform="matrix(0,-1,1,0,-332.67724,1906.4275)"
         id="g45">
        <path
           style="fill:none;fill-opacity:0.75;stroke:#d8dadc;stroke-width:2.37;stroke-dasharray:18.9, 2.39999999999999991"
           d="m 924.1,601.7 526.7,0"
           id="path27" />
        <path
           style="fill:none;fill-opacity:0.75;stroke:#d8dadc;stroke-width:2.37;stroke-dasharray:18.9, 2.39999999999999991"
           d="m 924.1,535.6 526.7,0"
           id="path29" />
        <path
           style="fill:none;fill-opacity:0.75;stroke:#d8dadc;stroke-width:2.37;stroke-dasharray:18.9, 2.39999999999999991"
           d="m 924.1,469.4 526.7,0"
           id="path31" />
        <path
           style="fill:none;fill-opacity:0.75;stroke:#d8dadc;stroke-width:2.37;stroke-dasharray:18.9, 2.39999999999999991"
           d="m 924.1,403.3 526.7,0"
           id="path33" />
        <path
           style="fill:none;fill-opacity:0.75;stroke:#d8dadc;stroke-width:2.37;stroke-dasharray:18.9, 2.39999999999999991"
           d="m 924.1,932.5 526.7,0"
           id="path35" />
        <path
           style="fill:none;fill-opacity:0.75;stroke:#d8dadc;stroke-width:2.37;stroke-dasharray:18.9, 2.39999999999999991"
           d="m 924.1,800.2 526.7,0"
           id="path37" />
        <path
           style="fill:none;fill-opacity:0.75;stroke:#d8dadc;stroke-width:2.37;stroke-dasharray:18.9, 2.39999999999999991"
           d="m 924.1,734 526.7,0"
           id="path39" />
        <path
           style="fill:none;fill-opacity:0.75;stroke:#d8dadc;stroke-width:2.37;stroke-dasharray:18.9, 2.39999999999999991"
           d="m 924.1,667.9 526.7,0"
           id="path41" />
        <path
           style="fill:none;fill-opacity:0.75;stroke:#d8dadc;stroke-width:2.37;stroke-dasharray:18.9, 2.39999999999999991"
           d="m 926.5,866.3 526.7,0"
           id="path43" />
      </g>
    </g>
    <text
       x="179.9"
       y="721.6"
       style="font-family:'Comic Sans MS';font-size:27px;overflow:visible;fill:#3465a4;stroke-width:1px"
       id="text49">x</text>
    <text
       x="85"
       y="565.9"
       style="font-family:'Comic Sans MS';font-size:27px;overflow:visible;fill:#ff4141;stroke-width:1px"
       id="text51">y</text>
    <text
       x="59.3"
       y="708.1"
       style="font-family:'Comic Sans MS';font-weight:bold;font-size:14.4px;fill:#0169c9;stroke-width:1px"
       id="text53">0</text>
    <text
       x="60.1"
       y="674.3"
       style="font-family:'Comic Sans MS';font-weight:bold;font-size:14.4px;fill:#0169c9;stroke-width:1px"
       id="text55">1</text>
    <text
       x="59.5"
       y="640.5"
       style="font-family:'Comic Sans MS';font-weight:bold;font-size:14.4px;fill:#0169c9;stroke-width:1px"
       id="text57">2</text>
    <text
       x="59.3"
       y="606.4"
       style="font-family:'Comic Sans MS';font-weight:bold;font-size:14.4px;fill:#0169c9;stroke-width:1px"
       id="text59">3</text>
    <text
       x="59.7"
       y="572.6"
       style="font-family:'Comic Sans MS';font-weight:bold;font-size:14.4px;fill:#0169c9;stroke-width:1px"
       id="text61">4</text>
    <path
       style="marker-end:url(#id1);fill:none;fill-opacity:0.75;stroke:#ff4141;stroke-width:1.8"
       d="m 75.1,774.7 0,-223.3"
       id="path63" />
    <path
       style="marker-end:url(#id1);fill:none;fill-opacity:0.75;stroke:#3465a4;stroke-width:1.8"
       d="m -33.4,701.5 232.9,0"
       id="path65" />
    <text
       x="68.4"
       y="716.9"
       style="font-family:'Comic Sans MS';font-weight:bold;font-size:14.4px;fill:#986601;stroke-width:1px"
       id="text67">0</text>
    <text
       x="102.5"
       y="717"
       style="font-family:'Comic Sans MS';font-weight:bold;font-size:14.4px;fill:#986601;stroke-width:1px"
       id="text69">1</text>
    <text
       x="136.5"
       y="717"
       style="font-family:'Comic Sans MS';font-weight:bold;font-size:14.4px;fill:#986601;stroke-width:1px"
       id="text71">2</text>
    <text
       x="170.5"
       y="716.9"
       style="font-family:'Comic Sans MS';font-weight:bold;font-size:14.4px;fill:#986601;stroke-width:1px"
       id="text73">3</text>
    <text
       x="32"
       y="717"
       style="font-family:'Comic Sans MS';font-weight:bold;font-size:14.4px;fill:#986601;stroke-width:1px"
       id="text75">-1</text>
    <text
       x="-2"
       y="717"
       style="font-family:'Comic Sans MS';font-weight:bold;font-size:14.4px;fill:#986601;stroke-width:1px"
       id="text77">-2</text>
    <path
       style="overflow:visible;fill:#f0a513;stroke:#fdca01;stroke-width:2.7"
       d="M -14.4,773.6 176.6,545.8"
       id="path79" />
    <text
       x="179.833"
       y="665.7"
       style="font-style:italic;font-variant:normal;font-weight:normal;font-stretch:normal;font-size:26.899999px;font-family:'Trebuchet MS';-inkscape-font-specification:'Trebuchet MS, Italic';font-variant-ligatures:normal;font-variant-caps:normal;font-variant-numeric:normal;font-feature-settings:normal;text-align:start;writing-mode:lr;text-anchor:start;fill:#19aeff;stroke-width:1px;"
       id="text81">
      <tspan
         sodipodi:role="line"
         id="tspan904"
         x="179.833"
         y="665.7">y-intercept</tspan>
    </text>
    <path
       style="fill:#41b3ff;stroke-width:1.93;stroke-linecap:round"
       d="m 158.1,655.2 c -8.3,-0.3 -16.2,2.8 -23.5,6.5 -4.2,1.6 -7.8,4.4 -11.7,6.4 -5.1,3 -10.8,5.7 -16.8,5.9 5.2,-2.4 7,-3.6 7.3,-3.9 0.5,-0.9 0.5,-0.9 0.2,-2.3 -1,-0.8 -1.7,-1.4 -3.1,-2.2 -1.5,0.8 -6.1,3.3 -9.6,3.8 -4.6,-0.2 -9.2,-1.7 -13.2,-4 -1,2 -5.4,4.6 -3.4,6 1.6,1.4 4.8,2.8 6.7,4.6 3.7,2.9 6.6,6.6 9.1,10.5 1,2 1.6,2.1 3.5,2.4 3.5,0.6 4.9,-1.9 3.1,-4.9 -0.5,-2 -4.1,-4.6 -0.2,-3.9 8.4,-0.5 15.6,-5.4 22.7,-9.4 -3.4,2.1 6.9,-4 1.8,-1 7.6,-3.6 15.3,-8 23.9,-8.2 5.3,0 10.6,-0.2 16,0.2 0.6,-2 4.9,-4.9 2.5,-6.2 -3.7,-0.8 -7.6,-0 -11.4,-0.3 -1.3,-0 -2.5,-0 -3.8,-0 z"
       id="path83" />
    <circle
       style="color:#000000;clip-rule:nonzero;display:inline;overflow:visible;visibility:visible;opacity:1;isolation:auto;mix-blend-mode:normal;color-interpolation:sRGB;color-interpolation-filters:linearRGB;solid-color:#000000;solid-opacity:1;vector-effect:none;fill:#41b3ff;fill-opacity:1;fill-rule:nonzero;stroke:none;stroke-width:5.3;stroke-linecap:butt;stroke-linejoin:miter;stroke-miterlimit:4;stroke-dasharray:none;stroke-dashoffset:0;stroke-opacity:1;marker:none;marker-start:none;marker-mid:none;marker-end:none;color-rendering:auto;image-rendering:auto;shape-rendering:auto;text-rendering:auto;enable-background:accumulate"
       id="path860"
       cx="75.0271"
       cy="667.933"
       r="4.34227" />
  </g>
</svg>
