<?xml version="1.0" encoding="UTF-8" standalone="no"?>
<!-- Copyright 2017 mathsisfun.com -->

<svg
   xmlns:dc="http://purl.org/dc/elements/1.1/"
   xmlns:cc="http://creativecommons.org/ns#"
   xmlns:rdf="http://www.w3.org/1999/02/22-rdf-syntax-ns#"
   xmlns:svg="http://www.w3.org/2000/svg"
   xmlns="http://www.w3.org/2000/svg"
   xmlns:sodipodi="http://sodipodi.sourceforge.net/DTD/sodipodi-0.dtd"
   xmlns:inkscape="http://www.inkscape.org/namespaces/inkscape"
   width="340"
   height="200"
   version="1.1"
   style="font-family:'Comic Sans MS';font-size:14.4px;stroke-width:2.37"
   id="svg87"
   sodipodi:docname="y-intercept2.svg"
   inkscape:version="0.92.3 (2405546, 2018-03-11)">
  <metadata
     id="metadata91">
    <rdf:RDF>
      <cc:Work
         rdf:about="">
        <dc:format>image/svg+xml</dc:format>
        <dc:type
           rdf:resource="http://purl.org/dc/dcmitype/StillImage" />
      </cc:Work>
    </rdf:RDF>
  </metadata>
  <sodipodi:namedview
     pagecolor="#ffffff"
     bordercolor="#666666"
     borderopacity="1"
     objecttolerance="10"
     gridtolerance="10"
     guidetolerance="10"
     inkscape:pageopacity="0"
     inkscape:pageshadow="2"
     inkscape:window-width="640"
     inkscape:window-height="480"
     id="namedview89"
     showgrid="false"
     inkscape:current-layer="svg87" />
  <defs
     id="defs5">
    <marker
       id="id1"
       style="overflow:visible"
       orient="auto">
      <path
         transform="matrix(-0.4,0,0,-0.4,-4,0)"
         style="stroke:black;stroke-width:1pt"
         d="M 0,0 5,-5 -12.5,0 5,5 0,0 Z"
         id="path2" />
    </marker>
  </defs>
  <g
     transform="matrix(0.506836,0,0,0.506836,-81.7083,-229.456)"
     id="g47">
    <g
       transform="translate(-853.459,49.8897)"
       id="g25">
      <path
         style="fill:none;fill-opacity:0.75;stroke:#d8dadc;stroke-dasharray:18.9, 2.39999999999999991"
         d="m 924.1,601.7 h 526.7"
         id="path7" />
      <path
         style="fill:none;fill-opacity:0.75;stroke:#d8dadc;stroke-dasharray:18.9, 2.39999999999999991"
         d="m 924.1,535.6 h 526.7"
         id="path9" />
      <path
         style="fill:none;fill-opacity:0.75;stroke:#d8dadc;stroke-dasharray:18.9, 2.39999999999999991"
         d="m 924.1,469.4 h 526.7"
         id="path11" />
      <path
         style="fill:none;fill-opacity:0.75;stroke:#d8dadc;stroke-dasharray:18.9, 2.39999999999999991"
         d="m 924.1,403.3 h 526.7"
         id="path13" />
      <path
         style="fill:none;fill-opacity:0.75;stroke:#d8dadc;stroke-dasharray:18.9, 2.39999999999999991"
         d="m 924.1,932.5 h 526.7"
         id="path15" />
      <path
         style="fill:none;fill-opacity:0.75;stroke:#d8dadc;stroke-dasharray:18.9, 2.39999999999999991"
         d="m 924.1,800.2 h 526.7"
         id="path17" />
      <path
         style="fill:none;fill-opacity:0.75;stroke:#d8dadc;stroke-dasharray:18.9, 2.39999999999999991"
         d="m 924.1,734 h 526.7"
         id="path19" />
      <path
         style="fill:none;fill-opacity:0.75;stroke:#d8dadc;stroke-dasharray:18.9, 2.39999999999999991"
         d="m 924.1,667.9 h 526.7"
         id="path21" />
      <path
         style="fill:none;fill-opacity:0.75;stroke:#d8dadc;stroke-dasharray:18.9, 2.39999999999999991"
         d="m 926.5,866.3 h 526.7"
         id="path23" />
    </g>
    <g
       transform="rotate(-90,786.875,1119.55)"
       id="g45">
      <path
         style="fill:none;fill-opacity:0.75;stroke:#d8dadc;stroke-dasharray:18.9, 2.39999999999999991"
         d="m 924.1,601.7 h 526.7"
         id="path27" />
      <path
         style="fill:none;fill-opacity:0.75;stroke:#d8dadc;stroke-dasharray:18.9, 2.39999999999999991"
         d="m 924.1,535.6 h 526.7"
         id="path29" />
      <path
         style="fill:none;fill-opacity:0.75;stroke:#d8dadc;stroke-dasharray:18.9, 2.39999999999999991"
         d="m 924.1,469.4 h 526.7"
         id="path31" />
      <path
         style="fill:none;fill-opacity:0.75;stroke:#d8dadc;stroke-dasharray:18.9, 2.39999999999999991"
         d="m 924.1,403.3 h 526.7"
         id="path33" />
      <path
         style="fill:none;fill-opacity:0.75;stroke:#d8dadc;stroke-dasharray:18.9, 2.39999999999999991"
         d="m 924.1,932.5 h 526.7"
         id="path35" />
      <path
         style="fill:none;fill-opacity:0.75;stroke:#d8dadc;stroke-dasharray:18.9, 2.39999999999999991"
         d="m 924.1,800.2 h 526.7"
         id="path37" />
      <path
         style="fill:none;fill-opacity:0.75;stroke:#d8dadc;stroke-dasharray:18.9, 2.39999999999999991"
         d="m 924.1,734 h 526.7"
         id="path39" />
      <path
         style="fill:none;fill-opacity:0.75;stroke:#d8dadc;stroke-dasharray:18.9, 2.39999999999999991"
         d="m 924.1,667.9 h 526.7"
         id="path41" />
      <path
         style="fill:none;fill-opacity:0.75;stroke:#d8dadc;stroke-dasharray:18.9, 2.39999999999999991"
         d="m 926.5,866.3 h 526.7"
         id="path43" />
    </g>
  </g>
  <text
     x="195"
     y="87.8"
     style="font-size:27px;fill:#3465a4;stroke-width:1px"
     id="text49">x</text>
  <text
     x="98.1"
     y="17.5"
     style="font-size:27px;fill:#ff4141;stroke-width:1px"
     id="text51">y</text>
  <text
     x="74.4"
     y="74.3"
     style="font-weight:bold;fill:#0169c9;stroke-width:1px"
     id="text53">0</text>
  <text
     x="65.4"
     y="106"
     style="font-family:'Comic Sans MS';font-weight:bold;font-size:14.4px;fill:#0169c9;stroke-width:1px"
     id="text55">-1</text>
  <text
     x="65.1"
     y="138.7"
     style="font-family:'Comic Sans MS';font-weight:bold;font-size:14.4px;fill:#0169c9;stroke-width:1px"
     id="text57">-2</text>
  <text
     x="65.2"
     y="174.1"
     style="font-family:'Comic Sans MS';font-weight:bold;font-size:14.4px;fill:#0169c9;stroke-width:1px"
     id="text59">-3</text>
  <text
     x="75.4"
     y="38"
     style="font-family:'Comic Sans MS';font-weight:bold;font-size:14.4px;fill:#0169c9;stroke-width:1px"
     id="text61">1</text>
  <path
     style="marker-end:url(#id1);fill:none;fill-opacity:0.75;stroke:#ff4141;stroke-width:1.8"
     d="M 88.2,226.3 V 3"
     id="path63" />
  <path
     style="marker-end:url(#id1);fill:none;fill-opacity:0.75;stroke:#3465a4;stroke-width:1.8"
     d="M -18.3,67.7 H 214.6"
     id="path65" />
  <text
     x="83.5"
     y="83.1"
     style="font-weight:bold;fill:#986601;stroke-width:1px"
     id="text67">0</text>
  <text
     x="117.6"
     y="83.2"
     style="font-weight:bold;fill:#986601;stroke-width:1px"
     id="text69">1</text>
  <text
     x="151.6"
     y="83.2"
     style="font-weight:bold;fill:#986601;stroke-width:1px"
     id="text71">2</text>
  <text
     x="185.6"
     y="83.1"
     style="font-weight:bold;fill:#986601;stroke-width:1px"
     id="text73">3</text>
  <text
     x="47.1"
     y="83.2"
     style="font-weight:bold;fill:#986601;stroke-width:1px"
     id="text75">-1</text>
  <text
     x="13.1"
     y="83.2"
     style="font-weight:bold;fill:#986601;stroke-width:1px"
     id="text77">-2</text>
  <path
     style="fill:#f0a513;stroke:#fdca01;stroke-width:2.7"
     d="M 33.4,-2.1 120.8,215.3"
     id="path79" />
  <text
     x="194.635"
     y="139.355"
     style="font-style:italic;font-variant:normal;font-weight:normal;font-stretch:normal;font-size:26.899999px;font-family:'Trebuchet MS';-inkscape-font-specification:'Trebuchet MS, Italic';font-variant-ligatures:normal;font-variant-caps:normal;font-variant-numeric:normal;font-feature-settings:normal;text-align:start;writing-mode:lr;text-anchor:start;fill:#19aeff;stroke-width:1px;"
     id="text81">
    <tspan
       sodipodi:role="line"
       id="tspan904"
       x="194.635"
       y="139.355">y-intercept</tspan>
  </text>
  <path
     style="fill:#41b3ff;stroke-width:1.93;stroke-linecap:round"
     d="m 173,137 c -8.2,1.3 -16.4,-0.9 -24.1,-3.7 -4.4,-1.1 -8.3,-3.4 -12.4,-5 -5.4,-2.4 -11.4,-4.4 -17.4,-3.9 5.4,1.8 7.4,2.7 7.7,3 0.6,0.8 0.6,0.8 0.5,2.3 -0.9,0.9 -1.5,1.6 -2.8,2.6 -1.6,-0.6 -6.4,-2.6 -10,-2.6 -4.5,0.7 -8.9,2.8 -12.6,5.5 -1.2,-1.9 -5.9,-3.9 -4.1,-5.6 1.4,-1.6 4.4,-3.3 6.1,-5.4 3.3,-3.3 5.8,-7.3 7.8,-11.5 0.8,-2.1 1.3,-2.3 3.2,-2.8 3.4,-1 5.1,1.3 3.7,4.5 -0.3,2 -3.5,5.1 0.3,3.9 8.4,-0.5 16.1,3.5 23.7,6.7 -3.6,-1.7 7.3,3.2 1.9,0.8 8,2.7 16.1,6.1 24.7,5.3 5.3,-0.6 10.5,-1.1 15.9,-2.1 0.8,1.9 5.4,4.3 3.2,5.9 -3.6,1.2 -7.5,0.9 -11.3,1.6 -1.3,0.2 -2.5,0.3 -3.8,0.4 z"
     id="path83" />
  <circle
     style="color:#000000;clip-rule:nonzero;display:inline;overflow:visible;visibility:visible;opacity:1;isolation:auto;mix-blend-mode:normal;color-interpolation:sRGB;color-interpolation-filters:linearRGB;solid-color:#000000;solid-opacity:1;vector-effect:none;fill:#41b3ff;fill-opacity:1;fill-rule:nonzero;stroke:none;stroke-width:5.3;stroke-linecap:butt;stroke-linejoin:miter;stroke-miterlimit:4;stroke-dasharray:none;stroke-dashoffset:0;stroke-opacity:1;marker:none;marker-start:none;marker-mid:none;marker-end:none;color-rendering:auto;image-rendering:auto;shape-rendering:auto;text-rendering:auto;enable-background:accumulate"
     id="path860"
     cx="88.3784"
     cy="134.355"
     r="4.34227" />
</svg>
