<?xml version="1.0" encoding="UTF-8" standalone="no"?>
<!-- Copyright 2021 mathsisfun.com -->
<svg xmlns:sodipodi="http://sodipodi.sourceforge.net/DTD/sodipodi-0.dtd" xmlns="http://www.w3.org/2000/svg" xmlns:xlink="http://www.w3.org/1999/xlink" width="91.2" height="63.6" version="1.1" style="font-family:'Trebuchet MS'; font-size:24px; fill:#3465a4; stroke-width:1pt;">
<defs>
	<marker id="id1" style="overflow:visible;" orient="auto">
		<path transform="matrix(-0.4,0,0,-0.4,-4,0)" style="stroke:#3465a4;" d="M 0,0 5,-5 -12.5,0 5,5 Z"/>
	</marker>
	<marker id="id2" style="overflow:visible;" orient="auto">
		<path transform="matrix(-0.4,0,0,-0.4,-4,0)" style="stroke:#3465a4;" d="M 0,0 5,-5 -12.5,0 5,5 Z"/>
	</marker>
	<marker id="id3" style="overflow:visible;" orient="auto">
		<path transform="matrix(-0.4,0,0,-0.4,-4,0)" style="stroke:#3465a4;" d="M 0,0 5,-5 -12.5,0 5,5 Z"/>
	</marker>
</defs>
<g style="display:none;" transform="translate(568.412,-687.067)">
	<image x="-1413.5" y="148.4" width="1305" height="787.4" xlink:href="//////Images/SVG/inkscape_pasted_image_20101001_094421.html"/>
</g>
<g transform="translate(568.412,-687.067)">
	<path style="fill:#66c9ff; fill-opacity:0.23; stroke-width:2.99;" d="m -507.8,687.1 28,40.7 -88.3,0.2 z"/>
	<text x="-488.3" y="705.6" style="stroke-width:0.6;">c</text>
	<text x="-551.6" y="701.6" style="stroke-width:0.6;">a</text>
	<text x="-525.9" y="750.4" style="stroke-width:0.6;">b</text>
	<path style="marker-end:url(#id1); fill:none; stroke:#3465a4; stroke-width:1.8;" d="m -479.2,728.3 -26.5,-38.1"/>
	<path style="marker-end:url(#id2); fill:none; stroke:#3465a4; stroke-width:1.8;" d="m -568.1,728.1 c 28.6,0 57.1,0 85.7,0"/>
	<path style="marker-end:url(#id3); fill:none; stroke:#3465a4; stroke-width:1.8;" d="m -507.2,688 -58.2,37.3"/>
</g>
</svg>