<?xml version="1.0" encoding="UTF-8" standalone="no"?>
<svg xmlns:rdf="http://www.w3.org/1999/02/22-rdf-syntax-ns#" xmlns="http://www.w3.org/2000/svg" version="1.1" preserveAspectRatio="none" xmlns:cc="http://creativecommons.org/ns#" xmlns:xlink="http://www.w3.org/1999/xlink" viewBox="0 0 1200 680" xmlns:dc="http://purl.org/dc/elements/1.1/">
<defs>
<linearGradient id="b" y2="1147.3" gradientUnits="userSpaceOnUse" x2="573.72" gradientTransform="matrix(1 0 0 .79658 0 222.6)" y1="71.779" x1="573.72">
<stop stop-color="#86aaff" offset="0"/>
<stop stop-color="#ddf" offset="1"/>
</linearGradient>
<linearGradient id="a" y2="195.13" gradientUnits="userSpaceOnUse" x2="-456.38" y1="78.521" x1="-462.44">
<stop stop-color="#fd5" offset="0"/>
<stop stop-color="#a80" offset="1"/>
</linearGradient>
</defs>
<g transform="translate(0,-372.36)">
<rect height="772.27" stroke="#fff" stroke-width="12" fill="url(#b)" style="color-rendering:auto;color:#000000;isolation:auto;mix-blend-mode:normal;shape-rendering:auto;solid-color:#000000;image-rendering:auto" fill-rule="evenodd" width="1272.9" y="322.03" x="-27.136"/>
<g opacity=".454" fill="#a0892c" transform="matrix(1.25 0 0 -1.25 746.58 789.74)">
<path d="m0 0h-24.05l-36.45-92.15h285.45l-73.65 167.2h-16.25l-32.7 137.8h-50.55l-51.8-212.85z" fill="#a0892c"/>
</g>
<g fill="#beae76">
<g transform="matrix(1.4797 0 0 -.74166 982.26 864.94)">
<path d="m0 0h-24.05l-36.45-92.15h285.45l-73.65 167.2h-16.25l-32.7 137.8h-50.55l-51.8-212.85z" fill="#beae76"/>
</g>
<g transform="matrix(1.4797 0 0 -.74166 497.05 807.42)">
<path d="m0 0h-24.05l-36.45-92.15h285.45l-73.65 167.2h-16.25l-32.7 137.8h-50.55l-51.8-212.85z" fill="#beae76"/>
</g>
<g transform="matrix(1.4797 0 0 -.74166 -38.177 822.43)">
<path d="m0 0h-24.05l-36.45-92.15h285.45l-73.65 167.2h-16.25l-32.7 137.8h-50.55l-51.8-212.85z" fill="#beae76"/>
</g>
</g>
<g transform="matrix(1.25 0 0 -1.25 106.36 858.98)">
<path d="m0 0-8 36-46.5 1-5.5-37h60z" fill="#d0c4aa"/>
</g>
<g fill="url(#a)" transform="matrix(1.25 0 0 -1.9569 1231.5 1045)">
<path d="m0 0v110c-22.7-8.067-45.017-17.117-66.95-27.15-38.367-17.567-77.6-18.95-117.7-4.15-37.167 13.767-74.733 26.333-112.7 37.7-38.967 11.633-78.433 13.517-118.4 5.65-39.9-7.9-78.033-20.483-114.4-37.75-36.767-17.367-75.667-26.2-116.7-26.5-41-0.333-80.667 6.467-119 20.4-37.167 13.6-75.083 24.95-113.75 34.05-40.367 9.433-80.483 8.683-120.35-2.25v-110h999.95z" fill="url(#a)"/>
</g>
<g transform="matrix(1.2181 0 0 1.2181 249.96 -266.35)">
<g transform="matrix(1.25 0 0 -1.25 171.97 966.89)">
<path d="m0 0h-12.5v-19.4h9.8l2.7 19.4zm56.2-19.4h80.95l-111 165 30.05-165z" fill="#c4b592"/>
</g>
<path d="m156.35 966.89h-14.938v24.25h14.938v-24.25z" fill="#83775c"/>
<g transform="matrix(1.25 0 0 -1.25 156.35 966.89)">
<path d="m0 0h12.5l-2.7-19.4h58.9l-30.05 165-103.8-165h53.2v19.4h11.95z" fill="#d0c4aa"/>
</g>
</g>
<g transform="matrix(1.8532 0 0 1.8532 -125.86 -889.52)">
<g transform="matrix(1.25 0 0 -1.25 171.97 966.89)">
<path d="m0 0h-12.5v-19.4h9.8l2.7 19.4zm56.2-19.4h80.95l-111 165 30.05-165z" fill="#c4b592"/>
</g>
<path d="m156.35 966.89h-14.938v24.25h14.938v-24.25z" fill="#83775c"/>
<g transform="matrix(1.25 0 0 -1.25 156.35 966.89)">
<path d="m0 0h12.5l-2.7-19.4h58.9l-30.05 165-103.8-165h53.2v19.4h11.95z" fill="#d0c4aa"/>
</g>
</g>
<g transform="matrix(.45783 0 0 -.45783 253.92 1580.2)">
<g transform="translate(1057.6 1680.4)">
<path d="m0 0c-0.567 0.567-1.017 1.183-1.35 1.85l-4.5-21c1.8-0.8 3.7-1.4 5.7-1.8l0.05-0.05c0.6-0.1 1.217-0.183 1.85-0.25v19.95c-0.633 0.333-1.217 0.767-1.75 1.3m33-49.8-5.35 20.15c-0.3-0.433-0.633-0.833-1-1.2-0.533-0.533-1.117-0.983-1.75-1.35v-19.95c0.6 0.067 1.2 0.167 1.8 0.3h0.1c2.167 0.433 4.233 1.117 6.2 2.05" fill="#597b3e"/>
</g>
<g transform="translate(1062.8 1735.2)">
<path d="m0 0c-2.233-2.267-3.35-5-3.35-8.2v-47.85-19.95-63.35h23.15v32.45 19.95 78.75c0 3.2-1.133 5.933-3.4 8.2-2.267 2.233-5 3.35-8.2 3.35s-5.933-1.117-8.2-3.35m-10.1-12.4c-1.867 1.9-4.133 2.85-6.8 2.85s-4.95-0.95-6.85-2.85c-1.867-1.867-2.8-4.133-2.8-6.8v-30.25c0-7.367 2.6-13.667 7.8-18.9v-0.05c2.367-2.367 4.967-4.2 7.8-5.5l4.5 21c-0.533 1.033-0.8 2.183-0.8 3.45v30.25c0 2.667-0.95 4.933-2.85 6.8m33.8-37.7v-30.25c0-1.5-0.383-2.85-1.15-4.05l5.35-20.15c2.633 1.3 5.067 3.067 7.3 5.3 5.2 5.233 7.8 11.533 7.8 18.9v30.25c0 2.667-0.933 4.933-2.8 6.8-1.9 1.9-4.183 2.85-6.85 2.85s-4.933-0.95-6.8-2.85c-1.9-1.867-2.85-4.133-2.85-6.8" fill="#648c44"/>
</g>
</g>
<g transform="matrix(.72147 0 0 .72147 222.54 149.94)">
<g transform="matrix(1.25 0 0 -1.25 980.07 439.1)">
<path d="m0 0c-10.7 0.133-19.967-3.333-27.8-10.4-3.767-3.367-6.717-7.183-8.85-11.45-0.8-1.533-1.883-2.767-3.25-3.7 3.6-3.9 7.867-6.217 12.8-6.95 2.467-9.5 7.333-18.25 14.6-26.25 11.033-12.067 24.35-18.85 39.95-20.35 15.533-1.5 28.817 2.717 39.85 12.65 0.834 0.8 1.65 1.583 2.45 2.35 1.4-0.2 2.817-0.383 4.25-0.55 13.933-1.333 26.167 1.517 36.7 8.55 1.1-1.433 2.283-2.867 3.55-4.3 8.8-9.6 19.4-15.017 31.8-16.25 10.6-1 19.867 1.3 27.8 6.9 4.034-3.467 8.567-5.733 13.6-6.8v1.2c-0.033 5.333-1.933 10.067-5.7 14.2h-0.05c-3.733 4.1-8.233 6.45-13.5 7.05-0.767 0.067-1.517 0.117-2.25 0.15-2.033 0.067-3.867 0.7-5.5 1.9-1.667 1.233-2.85 2.8-3.55 4.7-1.8 4.9-4.617 9.45-8.45 13.65-7 7.7-15.433 12.033-25.3 13h-0.05c-4.033 0.4-7.817 0.183-11.35-0.65-2.467-0.567-4.817-0.25-7.05 0.95-2.267 1.233-3.816 3.05-4.65 5.45-2.533 7.033-6.6 13.617-12.2 19.75h-0.05c-10.133 11.133-22.383 17.417-36.75 18.85-13.867 1.333-25.717-2.4-35.55-11.2-2.767-2.5-5.133-5.2-7.1-8.1-0.967-1.367-2.183-2.433-3.65-3.2-1.5-0.767-3.083-1.15-4.75-1.15" fill="#c9dee5"/>
</g>
<g transform="matrix(1.25 0 0 -1.25 1162.6 422.54)">
<path d="m0 0c-5.2 0.5-10.067 0.217-14.6-0.85-2.933 8.267-7.683 15.983-14.25 23.15-11.9 13.067-26.3 20.417-43.2 22.05-16.867 1.633-31.267-2.933-43.2-13.7-3.4-3.067-6.3-6.367-8.7-9.9-13.333 0.133-24.867-4.183-34.6-12.95-4.7-4.233-8.4-9.017-11.1-14.35-0.767 0.133-1.533 0.233-2.3 0.3-5.5 0.533-10.183-0.95-14.05-4.45-3.833-3.467-5.75-7.95-5.75-13.45 0-5.467 1.917-10.333 5.75-14.6l0.05-0.05c1.367 0.933 2.45 2.167 3.25 3.7 2.133 4.267 5.083 8.083 8.85 11.45 7.833 7.067 17.1 10.533 27.8 10.4 1.667 0 3.25 0.383 4.75 1.15 1.467 0.767 2.683 1.833 3.65 3.2 1.967 2.9 4.333 5.6 7.1 8.1 9.833 8.8 21.683 12.533 35.55 11.2 14.367-1.433 26.617-7.717 36.75-18.85h0.05c5.6-6.133 9.667-12.717 12.2-19.75 0.833-2.4 2.383-4.217 4.65-5.45 2.233-1.2 4.583-1.517 7.05-0.95 3.533 0.833 7.317 1.05 11.35 0.65h0.05c9.867-0.967 18.3-5.3 25.3-13 3.833-4.2 6.65-8.75 8.45-13.65 0.7-1.9 1.883-3.467 3.55-4.7 1.633-1.2 3.467-1.833 5.5-1.9 0.733-0.033 1.483-0.083 2.25-0.15 5.267-0.6 9.767-2.95 13.5-7.05h0.05c3.767-4.133 5.667-8.867 5.7-14.2v-1.2c1.133-0.233 2.3-0.417 3.5-0.55 7.9-0.733 14.617 1.4 20.15 6.4 5.567 5.033 8.35 11.483 8.35 19.35s-2.783 14.85-8.35 20.95c-5.533 6.067-12.25 9.5-20.15 10.3-0.9 0.067-1.783 0.117-2.65 0.15-2.2 6.1-5.683 11.767-10.45 17-8.767 9.633-19.367 15.033-31.8 16.2" fill="#e8f2f5"/>
</g>
</g>
<g transform="matrix(.75749 0 0 .75749 44.014 20.47)">
<g transform="matrix(1.25 0 0 -1.25 72.912 559.46)">
<path d="m0 0c-5.933 6.433-13.117 10.017-21.55 10.75-8 0.667-14.817-1.567-20.45-6.7h-0.05c-3.933-3.533-6.483-7.8-7.65-12.8-0.433-1.8-1.3-3.366-2.6-4.7-1.333-1.333-2.9-2.233-4.7-2.7-3.467-0.9-6.7-2.45-9.7-4.65v-0.3c0-0.533 0.033-1.083 0.1-1.65-1.5-0.333-2.917-0.9-4.25-1.7-0.833-0.5-1.633-1.1-2.4-1.8-3.267-3.033-4.9-6.867-4.9-11.5 0-0.3 0.017-0.6 0.05-0.9 0.133-2.933 0.95-5.65 2.45-8.15 18.933-25 76.017-32.367 171.25-22.1-3.8 3.967-8.3 6.183-13.5 6.65h0.15c-1.867 0.167-3.633 0.083-5.3-0.25-2.1-0.4-4.117-0.133-6.05 0.8-1.967 0.933-3.483 2.333-4.55 4.2-1.233 2.233-2.783 4.35-4.65 6.35-3.767 4.067-8.033 6.917-12.8 8.55-1.467 0.5-2.733 1.283-3.8 2.35-1.1 1.067-1.917 2.317-2.45 3.75-1.4 3.767-3.583 7.25-6.55 10.45-5.433 5.9-12.017 9.184-19.75 9.85-0.6 0.033-1.217 0.1-1.85 0.2-1.767 0.233-3.35 0.883-4.75 1.95s-2.45 2.417-3.15 4.05c-1.533 3.567-3.733 6.917-6.6 10.05v-0.05z" fill="#c9dee5"/>
</g>
<g transform="matrix(1.25 0 0 -1.25 239.47 639.71)">
<path d="m0 0c0.233 1.567 0.35 3.183 0.35 4.85 0 7.9-2.8 14.883-8.4 20.95-5.6 6.1-12.35 9.483-20.25 10.15-2.767 0.2-5.383 0.067-7.85-0.4-1.6 2.9-3.617 5.667-6.05 8.3-4.967 5.367-10.633 9.117-17 11.25-1.8 4.967-4.667 9.583-8.6 13.85-7.233 7.833-15.983 12.183-26.25 13.05-0.433 0-0.9 0.033-1.4 0.1-1.933 4.567-4.75 8.867-8.45 12.9-7.733 8.367-17.083 13.017-28.05 13.95-11 0.9-20.367-2.2-28.1-9.3-5.467-4.967-9.017-10.933-10.65-17.9-6.1-1.533-11.617-4.55-16.55-9.05-8.4-7.7-12.633-17.467-12.7-29.3 3 2.2 6.233 3.75 9.7 4.65 1.8 0.467 3.367 1.367 4.7 2.7 1.3 1.333 2.167 2.9 2.6 4.7 1.167 5 3.717 9.267 7.65 12.8h0.05c5.633 5.133 12.45 7.367 20.45 6.7 8.433-0.733 15.617-4.317 21.55-10.75v0.05c2.867-3.133 5.067-6.483 6.6-10.05 0.7-1.633 1.75-2.983 3.15-4.05s2.983-1.717 4.75-1.95c0.633-0.1 1.25-0.167 1.85-0.2 7.733-0.667 14.317-3.95 19.75-9.85 2.967-3.2 5.15-6.683 6.55-10.45 0.533-1.433 1.35-2.683 2.45-3.75 1.067-1.067 2.333-1.85 3.8-2.35 4.767-1.633 9.033-4.483 12.8-8.55 1.867-2 3.417-4.117 4.65-6.35 1.067-1.867 2.583-3.267 4.55-4.2 1.933-0.933 3.95-1.2 6.05-0.8 1.667 0.333 3.433 0.417 5.3 0.25h-0.15c5.2-0.467 9.7-2.683 13.5-6.65 11.933 1.3 24.483 2.867 37.65 4.7" fill="#e8f2f5"/>
</g>
</g>
<g transform="matrix(.72743 0 0 .72743 62.723 172.28)">
<g transform="matrix(.52352 0 0 -.52352 1009.2 913.67)">
<path d="m0 0-7.2 22.85c-0.8-0.733-1.667-1.317-2.6-1.75v-23.9c0.8 0.1 1.567 0.233 2.3 0.4 2.633 0.5 5.133 1.3 7.5 2.4" fill="#597b3e"/>
</g>
<g transform="matrix(.52352 0 0 -.52352 993.77 854.07)">
<path d="m0 0c-2.233-2.267-3.35-5-3.35-8.2v-131.15h23.1v22.7 23.9 84.55c0 3.2-1.133 5.933-3.4 8.2-2.233 2.233-4.95 3.35-8.15 3.35s-5.933-1.117-8.2-3.35m29.2-35.55c-2.233-2.267-3.35-5-3.35-8.2v-39.35c0-2.933-1.05-5.45-3.15-7.55l-0.35-0.35 7.2-22.85c3.433 1.633 6.617 3.917 9.55 6.85 6.6 6.633 9.9 14.6 9.9 23.9v39.35c0 3.2-1.133 5.933-3.4 8.2s-5 3.4-8.2 3.4-5.933-1.133-8.2-3.4" fill="#648c44"/>
</g>
</g>
<g fill="#c8ab37" transform="matrix(1.25 0 0 -1.25 777 836.38)">
<path d="m0 0-1.9 16.9-9.65-13.6-13.85 4.9 6.15-15.9-8.85-2.4 10.55-6.95h19.1l7.25 15.3-8.8 1.75z" fill="#c8ab37"/>
</g>
<g transform="matrix(1.25 0 0 -1.25 827.09 50.783)">
<path d="m0 0h-22.85l-32.6-154.15h247.95l-54.65 54.65h-19.6l-39.95 185.9h-53l-25.3-86.4z" fill="#d5edf7"/>
</g>
<g transform="matrix(.56389 0 0 .56389 605.79 361.04)">
<g transform="matrix(.52352 0 0 -.52352 1009.2 913.67)">
<path d="m0 0-7.2 22.85c-0.8-0.733-1.667-1.317-2.6-1.75v-23.9c0.8 0.1 1.567 0.233 2.3 0.4 2.633 0.5 5.133 1.3 7.5 2.4" fill="#597b3e"/>
</g>
<g transform="matrix(.52352 0 0 -.52352 993.77 854.07)">
<path d="m0 0c-2.233-2.267-3.35-5-3.35-8.2v-131.15h23.1v22.7 23.9 84.55c0 3.2-1.133 5.933-3.4 8.2-2.233 2.233-4.95 3.35-8.15 3.35s-5.933-1.117-8.2-3.35m29.2-35.55c-2.233-2.267-3.35-5-3.35-8.2v-39.35c0-2.933-1.05-5.45-3.15-7.55l-0.35-0.35 7.2-22.85c3.433 1.633 6.617 3.917 9.55 6.85 6.6 6.633 9.9 14.6 9.9 23.9v39.35c0 3.2-1.133 5.933-3.4 8.2s-5 3.4-8.2 3.4-5.933-1.133-8.2-3.4" fill="#648c44"/>
</g>
</g>
<g fill="#c8ab37" transform="matrix(-.64268 0 0 -.64268 1159.9 882.74)">
<path d="m0 0-1.9 16.9-9.65-13.6-13.85 4.9 6.15-15.9-8.85-2.4 10.55-6.95h19.1l7.25 15.3-8.8 1.75z" fill="#c8ab37"/>
</g>
<g transform="matrix(-.45783 0 0 -.45783 1465.9 1627.4)">
<g transform="translate(1057.6 1680.4)">
<path d="m0 0c-0.567 0.567-1.017 1.183-1.35 1.85l-4.5-21c1.8-0.8 3.7-1.4 5.7-1.8l0.05-0.05c0.6-0.1 1.217-0.183 1.85-0.25v19.95c-0.633 0.333-1.217 0.767-1.75 1.3m33-49.8-5.35 20.15c-0.3-0.433-0.633-0.833-1-1.2-0.533-0.533-1.117-0.983-1.75-1.35v-19.95c0.6 0.067 1.2 0.167 1.8 0.3h0.1c2.167 0.433 4.233 1.117 6.2 2.05" fill="#597b3e"/>
</g>
<g transform="translate(1062.8 1735.2)">
<path d="m0 0c-2.233-2.267-3.35-5-3.35-8.2v-47.85-19.95-63.35h23.15v32.45 19.95 78.75c0 3.2-1.133 5.933-3.4 8.2-2.267 2.233-5 3.35-8.2 3.35s-5.933-1.117-8.2-3.35m-10.1-12.4c-1.867 1.9-4.133 2.85-6.8 2.85s-4.95-0.95-6.85-2.85c-1.867-1.867-2.8-4.133-2.8-6.8v-30.25c0-7.367 2.6-13.667 7.8-18.9v-0.05c2.367-2.367 4.967-4.2 7.8-5.5l4.5 21c-0.533 1.033-0.8 2.183-0.8 3.45v30.25c0 2.667-0.95 4.933-2.85 6.8m33.8-37.7v-30.25c0-1.5-0.383-2.85-1.15-4.05l5.35-20.15c2.633 1.3 5.067 3.067 7.3 5.3 5.2 5.233 7.8 11.533 7.8 18.9v30.25c0 2.667-0.933 4.933-2.8 6.8-1.9 1.9-4.183 2.85-6.85 2.85s-4.933-0.95-6.8-2.85c-1.9-1.867-2.85-4.133-2.85-6.8" fill="#648c44"/>
</g>
</g>
<g transform="matrix(.45783 0 0 -.45783 -443.84 1568.4)">
<g transform="translate(1057.6 1680.4)">
<path d="m0 0c-0.567 0.567-1.017 1.183-1.35 1.85l-4.5-21c1.8-0.8 3.7-1.4 5.7-1.8l0.05-0.05c0.6-0.1 1.217-0.183 1.85-0.25v19.95c-0.633 0.333-1.217 0.767-1.75 1.3m33-49.8-5.35 20.15c-0.3-0.433-0.633-0.833-1-1.2-0.533-0.533-1.117-0.983-1.75-1.35v-19.95c0.6 0.067 1.2 0.167 1.8 0.3h0.1c2.167 0.433 4.233 1.117 6.2 2.05" fill="#597b3e"/>
</g>
<g transform="translate(1062.8 1735.2)">
<path d="m0 0c-2.233-2.267-3.35-5-3.35-8.2v-47.85-19.95-63.35h23.15v32.45 19.95 78.75c0 3.2-1.133 5.933-3.4 8.2-2.267 2.233-5 3.35-8.2 3.35s-5.933-1.117-8.2-3.35m-10.1-12.4c-1.867 1.9-4.133 2.85-6.8 2.85s-4.95-0.95-6.85-2.85c-1.867-1.867-2.8-4.133-2.8-6.8v-30.25c0-7.367 2.6-13.667 7.8-18.9v-0.05c2.367-2.367 4.967-4.2 7.8-5.5l4.5 21c-0.533 1.033-0.8 2.183-0.8 3.45v30.25c0 2.667-0.95 4.933-2.85 6.8m33.8-37.7v-30.25c0-1.5-0.383-2.85-1.15-4.05l5.35-20.15c2.633 1.3 5.067 3.067 7.3 5.3 5.2 5.233 7.8 11.533 7.8 18.9v30.25c0 2.667-0.933 4.933-2.8 6.8-1.9 1.9-4.183 2.85-6.85 2.85s-4.933-0.95-6.8-2.85c-1.9-1.867-2.85-4.133-2.85-6.8" fill="#648c44"/>
</g>
</g>
</g>
</svg>
