<?xml version="1.0" encoding="UTF-8" standalone="no"?>
<svg xmlns:rdf="http://www.w3.org/1999/02/22-rdf-syntax-ns#" xmlns="http://www.w3.org/2000/svg" height="860" width="1200" version="1.1" preserveAspectRatio="none" xmlns:cc="http://creativecommons.org/ns#" xmlns:xlink="http://www.w3.org/1999/xlink" viewBox="0 0 1200.0001 860.00001" xmlns:dc="http://purl.org/dc/elements/1.1/">
<defs>
<g id="b" transform="matrix(.76573 0 0 .76573 -281.43 133.41)">
<path opacity="0.99" d="m564.99 527.27c-4.1584 6.9862-8.7468 11.031-22.299 16.095 0 0 4.3085 24.435-9.5628 32.288-5.8505 4.0419 6.7646 9.6802 6.658 18.949-0.10661 9.2689-23.998 15.21-12.723 20.533 6.1006 1.9528 5.3117 17.076 2.6846 16.483-8.8523-3.6818 4.1487 16.804-7.5524 14.531-5.7815 2.8927-4.6835 6.5362-6.0008 12.659 7.3332 7.1216 1.939 7.8832 9.7586 14.435-12.099 4.1846-5.4896 8.4361-17.168 13.658 8.7888 10.098 18.347 17.086 14.958 21.705-4.2546 12.088-0.66075 9.4329-3.835 21.85 13.567-2.6926 15.319 9.0222 28.775 5.8237 11.568 14.258 29.298 13.491 37.297-2.0801 14.265 0.83128 12.862-4.038 27.149-3.7253-5.6433-12.628 0.59006-14.325-5.5219-26.732 6.4384-5.8015 1.041-10.151 8.2666-16.457 4.9145-4.891 14.878-12.999-0.5585-12.272-8.3639-3.3689-10.693-15.013-3.781-24.148 12.736-8.9673-2.9589-10.634-8.8758-12.511-3.7508-5.2835-5.8672-22.098-5.8672-22.098 4.0593-4.7046 7.8951-8.3806 3.1943-17.142-5.4773-0.8386-6.7596-6.8509-4.1159-15.225 2.6438-8.3742-1.732-12.139 0.9174-21.293-1.4842-11.764-16.462-16.672-16.462-16.672-0.61972-1.7006-3.878-18.336-5.2269-19.651z" fill="#339710"/>
<path opacity="0.99" d="m553.83 741.52 13.853-5.8588 14.779 4.9338-4.6254 23.261 3.5461 32.599 3.2378 21.19-34.799-0.30836 4.6254-21.036 1.2334-30.903z" fill="#a05a2c"/>
</g>
<linearGradient id="a" y2="166.31" gradientUnits="userSpaceOnUse" y1="716.31" x2="550.45" x1="584.43">
<stop stop-color="#91de10" offset="0"/>
<stop stop-color="#def9b0" offset="1"/>
</linearGradient>
</defs>
<use xlink:href="#b" transform="translate(0 -192.36)" height="100%" width="100%" y="0" x="0"/>
<rect height="900.75" stroke="#fff" stroke-width="11.302" fill="#e1fff9" style="color-rendering:auto;color:#000000;isolation:auto;mix-blend-mode:normal;shape-rendering:auto;solid-color:#000000;image-rendering:auto" fill-rule="evenodd" width="1215.4" y="-45.737" x="-10.373"/>
<ellipse rx="83.032" ry="77.545" cy="58.608" cx="227.25" fill="#fdf100"/>
<g transform="matrix(1.1463 0 0 -1.1463 -207.69 2287.3)">
<g transform="translate(708 1702.2)">
<path d="m0 0-9-34.9 20.25-1.8-11.25 36.7zm-4.1-82.85 10.15-0.6 19.8-1.05-3.25 10.6-42.8-4.4-0.95-3.6 17.05-0.95m-12.6 18.05 37.55-3.35-7.75 25.3-24.85-2.7-4.95-19.25z" fill="#448c5e"/>
</g>
<g transform="translate(721.1,1659.3)">
<path d="m0 0-1.85 6.15-20.25 1.8-2.75-10.65 24.85 2.7zm-29.8-21.95-3.5-13.5 42.8 4.4-1.75 5.75-37.55 3.35z" fill="#3e7b54"/>
</g>
<g transform="translate(714.55,1614)">
<path d="m0 0-11.3-0.8-1.7-15.85h14.65l-1.65 16.65z" fill="#795b48"/>
</g>
<g transform="translate(703.25,1613.2)">
<path d="m0 0 11.3 0.8-0.5 4.7-10.15 0.6-0.65-6.1z" fill="#6d503d"/>
</g>
</g>
<path d="m51.35 357.98c109.68-20.866 135.1 41.053 243.62 68.187 162.07 40.525 213.06 31.991 314.87 17.177 112.61-16.386 191.09-95.83 304.82-74.173 104.93 19.98 204.56-47.692 271.07 38.049 82.314 106.12 4.3569 438.41 4.3569 438.41l-1206.3 6.7146s-2.9586-249.62-3.5505-480.84z" fill="url(#a)"/>
<g transform="matrix(-1.0576 0 0 -1.0576 932.87 2099.4)">
<g transform="translate(708 1702.2)">
<path d="m0 0-9-34.9 20.25-1.8-11.25 36.7zm-4.1-82.85 10.15-0.6 19.8-1.05-3.25 10.6-42.8-4.4-0.95-3.6 17.05-0.95m-12.6 18.05 37.55-3.35-7.75 25.3-24.85-2.7-4.95-19.25z" fill="#448c5e"/>
</g>
<g transform="translate(721.1,1659.3)">
<path d="m0 0-1.85 6.15-20.25 1.8-2.75-10.65 24.85 2.7zm-29.8-21.95-3.5-13.5 42.8 4.4-1.75 5.75-37.55 3.35z" fill="#3e7b54"/>
</g>
<g transform="translate(714.55,1614)">
<path d="m0 0-11.3-0.8-1.7-15.85h14.65l-1.65 16.65z" fill="#795b48"/>
</g>
<g transform="translate(703.25,1613.2)">
<path d="m0 0 11.3 0.8-0.5 4.7-10.15 0.6-0.65-6.1z" fill="#6d503d"/>
</g>
</g>
<g transform="matrix(1.1463 0 0 -1.1463 -757.69 2218.6)">
<g transform="translate(708 1702.2)">
<path d="m0 0-9-34.9 20.25-1.8-11.25 36.7zm-4.1-82.85 10.15-0.6 19.8-1.05-3.25 10.6-42.8-4.4-0.95-3.6 17.05-0.95m-12.6 18.05 37.55-3.35-7.75 25.3-24.85-2.7-4.95-19.25z" fill="#448c5e"/>
</g>
<g transform="translate(721.1,1659.3)">
<path d="m0 0-1.85 6.15-20.25 1.8-2.75-10.65 24.85 2.7zm-29.8-21.95-3.5-13.5 42.8 4.4-1.75 5.75-37.55 3.35z" fill="#3e7b54"/>
</g>
<g transform="translate(714.55,1614)">
<path d="m0 0-11.3-0.8-1.7-15.85h14.65l-1.65 16.65z" fill="#795b48"/>
</g>
<g transform="translate(703.25,1613.2)">
<path d="m0 0 11.3 0.8-0.5 4.7-10.15 0.6-0.65-6.1z" fill="#6d503d"/>
</g>
</g>
<g transform="matrix(1.7669 0 0 -1.7669 -888.09 3402.8)">
<g transform="translate(708 1702.2)">
<path d="m0 0-9-34.9 20.25-1.8-11.25 36.7zm-4.1-82.85 10.15-0.6 19.8-1.05-3.25 10.6-42.8-4.4-0.95-3.6 17.05-0.95m-12.6 18.05 37.55-3.35-7.75 25.3-24.85-2.7-4.95-19.25z" fill="#448c5e"/>
</g>
<g transform="translate(721.1,1659.3)">
<path d="m0 0-1.85 6.15-20.25 1.8-2.75-10.65 24.85 2.7zm-29.8-21.95-3.5-13.5 42.8 4.4-1.75 5.75-37.55 3.35z" fill="#3e7b54"/>
</g>
<g transform="translate(714.55,1614)">
<path d="m0 0-11.3-0.8-1.7-15.85h14.65l-1.65 16.65z" fill="#795b48"/>
</g>
<g transform="translate(703.25,1613.2)">
<path d="m0 0 11.3 0.8-0.5 4.7-10.15 0.6-0.65-6.1z" fill="#6d503d"/>
</g>
</g>
<g transform="matrix(1.4122 0 0 -1.4122 -163.28 2696.9)">
<g transform="translate(708 1702.2)">
<path d="m0 0-9-34.9 20.25-1.8-11.25 36.7zm-4.1-82.85 10.15-0.6 19.8-1.05-3.25 10.6-42.8-4.4-0.95-3.6 17.05-0.95m-12.6 18.05 37.55-3.35-7.75 25.3-24.85-2.7-4.95-19.25z" fill="#448c5e"/>
</g>
<g transform="translate(721.1,1659.3)">
<path d="m0 0-1.85 6.15-20.25 1.8-2.75-10.65 24.85 2.7zm-29.8-21.95-3.5-13.5 42.8 4.4-1.75 5.75-37.55 3.35z" fill="#3e7b54"/>
</g>
<g transform="translate(714.55,1614)">
<path d="m0 0-11.3-0.8-1.7-15.85h14.65l-1.65 16.65z" fill="#795b48"/>
</g>
<g transform="translate(703.25,1613.2)">
<path d="m0 0 11.3 0.8-0.5 4.7-10.15 0.6-0.65-6.1z" fill="#6d503d"/>
</g>
</g>
<g transform="matrix(1.7669 0 0 -1.7669 -86.011 3248.6)">
<g transform="translate(708 1702.2)">
<path d="m0 0-9-34.9 20.25-1.8-11.25 36.7zm-4.1-82.85 10.15-0.6 19.8-1.05-3.25 10.6-42.8-4.4-0.95-3.6 17.05-0.95m-12.6 18.05 37.55-3.35-7.75 25.3-24.85-2.7-4.95-19.25z" fill="#448c5e"/>
</g>
<g transform="translate(721.1,1659.3)">
<path d="m0 0-1.85 6.15-20.25 1.8-2.75-10.65 24.85 2.7zm-29.8-21.95-3.5-13.5 42.8 4.4-1.75 5.75-37.55 3.35z" fill="#3e7b54"/>
</g>
<g transform="translate(714.55,1614)">
<path d="m0 0-11.3-0.8-1.7-15.85h14.65l-1.65 16.65z" fill="#795b48"/>
</g>
<g transform="translate(703.25,1613.2)">
<path d="m0 0 11.3 0.8-0.5 4.7-10.15 0.6-0.65-6.1z" fill="#6d503d"/>
</g>
</g>
<g transform="translate(333.33 408.33)">
<g transform="matrix(1.25 0 0 -1.25 -200.63 231.9)">
<path d="m0 0-1.15-7.7 36.4-3.5-4 14.75l-31.25-3.55z" fill="#6d503d"/>
</g>
<g transform="matrix(1.25 0 0 -1.25 -148.81 274.27)">
<path d="m0 0-6.2 22.7-36.4 3.5-3.9-26.2h46.5z" fill="#795b48"/>
</g>
<g transform="matrix(1.25 0 0 -1.25 -158.13 67.958)">
<path d="m0 0 11.05-1.65-44.2 96.1-18.95-86.65 9.6-1.4 42.5-6.4zm-64.3-69.35 12.7 0.75 55.95 3.4 13.5 0.8-14.3 51.5-48.3 11.35-19.55-67.8m93.85-54.6-22.75 52.95l-61.9-13.05-11.45-50.75 32.55 3.65 31.25 3.55 32.3 3.65z" fill="#448c5e"/>
</g>
<g transform="matrix(1.25 0 0 -1.25 -153.69 84.083)">
<path d="m0 0-3.55 12.9-42.5 6.4-2.25-7.95 48.3-11.35zm-55.15-55.7-3.5-15.45 61.9 13.05-2.45 5.8-55.95-3.4z" fill="#3e7b54"/>
</g>
</g>
<g transform="matrix(-1 0 0 1 595.62 421.13)">
<g transform="matrix(1.25 0 0 -1.25 -200.63 231.9)">
<path d="m0 0-1.15-7.7 36.4-3.5-4 14.75l-31.25-3.55z" fill="#6d503d"/>
</g>
<g transform="matrix(1.25 0 0 -1.25 -148.81 274.27)">
<path d="m0 0-6.2 22.7-36.4 3.5-3.9-26.2h46.5z" fill="#795b48"/>
</g>
<g transform="matrix(1.25 0 0 -1.25 -158.13 67.958)">
<path d="m0 0 11.05-1.65-44.2 96.1-18.95-86.65 9.6-1.4 42.5-6.4zm-64.3-69.35 12.7 0.75 55.95 3.4 13.5 0.8-14.3 51.5-48.3 11.35-19.55-67.8m93.85-54.6-22.75 52.95l-61.9-13.05-11.45-50.75 32.55 3.65 31.25 3.55 32.3 3.65z" fill="#448c5e"/>
</g>
<g transform="matrix(1.25 0 0 -1.25 -153.69 84.083)">
<path d="m0 0-3.55 12.9-42.5 6.4-2.25-7.95 48.3-11.35zm-55.15-55.7-3.5-15.45 61.9 13.05-2.45 5.8-55.95-3.4z" fill="#3e7b54"/>
</g>
</g>
<g transform="translate(893.75 52.083)">
<g transform="matrix(1.25 0 0 -1.25 -389.63 311.93)">
<path d="m0 0-24.75-77.5 10.95 0.95 41.1 3.7l9.85 0.85-37.15 72zm42.55-142.95 7.9-0.55-18.45 56.25-47.95 4.65-19.35-54.95 9.95-0.65 67.9-4.75m-83.35-59.7 41.4 4.7 17.35 2 46.25 5.25-20.45 45-72.15-5.2-12.4-51.75z" fill="#648c44"/>
</g>
<g transform="matrix(1.25 0 0 -1.25 -389.56 571.3)">
<path d="m0 0-1.9-32.75h25.25l-4.5 36.55-18.85-3.8z" fill="#9c7b53"/>
</g>
<g transform="matrix(1.25 0 0 -1.25 -388.88 559.36)">
<path d="m0 0-0.55-9.55 18.85 3.8-0.95 7.75-17.35-2z" fill="#876844"/>
</g>
<g transform="matrix(1.25 0 0 -1.25 -355.5 402.99)">
<path d="m0 0-41.1-3.7-2.15-6.05 47.95-4.65-4.7 14.4zm16.45-72.85-1.2 2.75-67.9 4.75-3.05-12.7 72.15 5.2z" fill="#597b3e"/>
</g>
</g>
<g transform="matrix(1.25 0 0 -1.25 1072.9 330.68)">
<path d="m0 0-24.75-77.5 10.95 0.95 41.1 3.7l9.85 0.85-37.15 72zm42.55-142.95 7.9-0.55-18.45 56.25-47.95 4.65-19.35-54.95 9.95-0.65 67.9-4.75m-83.35-59.7 41.4 4.7 17.35 2 46.25 5.25-20.45 45-72.15-5.2-12.4-51.75z" fill="#648c44"/>
</g>
<g transform="matrix(1.25 0 0 -1.25 1072.9 590.05)">
<path d="m0 0-1.9-32.75h25.25l-4.5 36.55-18.85-3.8z" fill="#9c7b53"/>
</g>
<g transform="matrix(1.25 0 0 -1.25 1073.6 578.11)">
<path d="m0 0-0.55-9.55 18.85 3.8-0.95 7.75-17.35-2z" fill="#876844"/>
</g>
<g transform="matrix(1.25 0 0 -1.25 1107 421.74)">
<path d="m0 0-41.1-3.7-2.15-6.05 47.95-4.65-4.7 14.4zm16.45-72.85-1.2 2.75-67.9 4.75-3.05-12.7 72.15 5.2z" fill="#597b3e"/>
</g>
<g transform="matrix(1.25 0 0 -1.25 -521.27 2457.6)">
<g transform="translate(654.55,1614)">
<path d="m0 0-11.3-0.8-1.7-15.85h14.65l-1.65 16.65z" fill="#9c7b53"/>
</g>
<g transform="translate(654.05,1618.7)">
<path d="m0 0-10.15 0.6-0.65-6.1 11.3 0.8-0.5 4.7z" fill="#876844"/>
</g>
<g transform="translate(631.3 1637.4)">
<path d="m0 0-3.5-13.5 42.8 4.4-1.75 5.75-37.55 3.35zm27.95 28.1-20.25 1.8-2.75-10.65 24.85 2.7-1.85 6.15z" fill="#597b3e"/>
</g>
<g transform="translate(627.8 1623.8)">
<path d="m0 0-0.95-3.6 17.05-0.95 10.15-0.6 19.8-1.05-3.25 10.6-42.8-4.4zm8.45 32.75-4.95-19.25 37.55-3.35-7.75 25.3-24.85-2.7m11.75 45.55-9-34.9 20.25-1.8-11.25 36.7z" fill="#648c44"/>
</g>
</g>
<g transform="matrix(1.6873 0 0 -1.6873 -120.28 3160.4)">
<g transform="translate(654.55,1614)">
<path d="m0 0-11.3-0.8-1.7-15.85h14.65l-1.65 16.65z" fill="#9c7b53"/>
</g>
<g transform="translate(654.05,1618.7)">
<path d="m0 0-10.15 0.6-0.65-6.1 11.3 0.8-0.5 4.7z" fill="#876844"/>
</g>
<g transform="translate(631.3 1637.4)">
<path d="m0 0-3.5-13.5 42.8 4.4-1.75 5.75-37.55 3.35zm27.95 28.1-20.25 1.8-2.75-10.65 24.85 2.7-1.85 6.15z" fill="#597b3e"/>
</g>
<g transform="translate(627.8 1623.8)">
<path d="m0 0-0.95-3.6 17.05-0.95 10.15-0.6 19.8-1.05-3.25 10.6-42.8-4.4zm8.45 32.75-4.95-19.25 37.55-3.35-7.75 25.3-24.85-2.7m11.75 45.55-9-34.9 20.25-1.8-11.25 36.7z" fill="#648c44"/>
</g>
</g>
</svg>
