<?xml version="1.0" encoding="UTF-8" standalone="no"?>
<!-- Copyright 2017 mathsisfun.com -->

<svg
   xmlns:dc="http://purl.org/dc/elements/1.1/"
   xmlns:cc="http://creativecommons.org/ns#"
   xmlns:rdf="http://www.w3.org/1999/02/22-rdf-syntax-ns#"
   xmlns:svg="http://www.w3.org/2000/svg"
   xmlns="http://www.w3.org/2000/svg"
   xmlns:xlink="http://www.w3.org/1999/xlink"
   xmlns:sodipodi="http://sodipodi.sourceforge.net/DTD/sodipodi-0.dtd"
   xmlns:inkscape="http://www.inkscape.org/namespaces/inkscape"
   width="170.282"
   height="78.8583"
   version="1.1"
   id="svg14"
   sodipodi:docname="3x5-thought.svg"
   inkscape:version="0.92.0 r15299">
  <metadata
     id="metadata18">
    <rdf:RDF>
      <cc:Work
         rdf:about="">
        <dc:format>image/svg+xml</dc:format>
        <dc:type
           rdf:resource="http://purl.org/dc/dcmitype/StillImage" />
      </cc:Work>
    </rdf:RDF>
  </metadata>
  <sodipodi:namedview
     pagecolor="#ffffff"
     bordercolor="#666666"
     borderopacity="1"
     objecttolerance="10"
     gridtolerance="10"
     guidetolerance="10"
     inkscape:pageopacity="0"
     inkscape:pageshadow="2"
     inkscape:window-width="640"
     inkscape:window-height="480"
     id="namedview16"
     showgrid="false"
     inkscape:current-layer="svg14" />
  <defs
     id="defs2">
    <linearGradient
       inkscape:collect="always"
       id="linearGradient832">
      <stop
         style="stop-color:#ffffff;stop-opacity:0.193548"
         offset="0"
         id="stop828" />
      <stop
         id="stop836"
         offset="0.587968"
         style="stop-color:#f4f8ff;stop-opacity:0.196078" />
      <stop
         style="stop-color:#b3ccfe;stop-opacity:0.204301"
         offset="1"
         id="stop830" />
    </linearGradient>
    <radialGradient
       inkscape:collect="always"
       xlink:href="#linearGradient832"
       id="radialGradient834"
       cx="45.0432"
       cy="33.4394"
       fx="45.0432"
       fy="33.4394"
       r="45.0516"
       gradientTransform="matrix(1.17707,0,0,0.875199,0.009946,10.163)"
       gradientUnits="userSpaceOnUse" />
  </defs>
  <path
     style="fill:url(#radialGradient834);fill-opacity:1;stroke:#999999;stroke-width:1.600818"
     d="M 70.9873,66.4555 C 73.2237,79.9918 53.3312,81.1689 52.2718,69.2804 48.6229,81.9928 31.5554,81.1689 29.319,65.043 24.9638,73.6356 11.4275,67.044 17.9014,59.5107 11.0743,64.6899 -3.99215,55.7441 9.42645,45.9744 0.598446,46.5629 -6.81715,17.7247 15.665,27.259 4.83595,13.9581 26.7294,3.59978 33.7919,17.1362 c -0.824,-7.18023 7.6509,-6.0031 8.4748,-1.1771 -5.6499,-12.71244 22.9529,-26.8372 23.5415,0.5885 6.003,-13.77177 23.306,-5.7676 16.479,5.1791 4.2374,-4.9437 7.4155,1.4125 4.826,3.1781 11.0644,-12.3592 24.9538,12.7124 9.6519,16.1259 16.7149,2.5896 5.0619,18.48 -3.4135,12.3593 5.4146,4.002 0.5886,16.479 -11.4176,9.5342 5.0615,7.1802 -9.0634,12.3593 -11.0644,3.5313 z"
     id="path4"
     inkscape:connector-curvature="0" />
  <text
     x="43.7532"
     y="41.8859"
     style="color:#000000;font-size:37.430878px;font-family:'Comic Sans MS';overflow:visible;fill:#729fcf;stroke-width:0.082395px"
     id="text6">3</text>
  <text
     x="18.9972"
     y="59.0701"
     style="color:#000000;font-size:32.369473px;font-family:'Comic Sans MS';overflow:visible;fill:#729fcf;stroke-width:0.082395px"
     id="text8">5</text>
  <text
     x="61.5948"
     y="60.8794"
     style="color:#000000;font-size:28.838257px;font-family:'Comic Sans MS';overflow:visible;fill:#e9b96e;stroke-width:0.082395px"
     id="text10">x</text>
  <text
     x="117.717"
     y="49.8587"
     style="color:#000000;font-size:28.838257px;font-family:'Comic Sans MS';overflow:visible;fill:#ef2929;stroke-width:0.082395px"
     id="text12">= 15</text>
</svg>
