<?xml version="1.0" encoding="UTF-8" standalone="no"?>
<!-- Copyright 2017 mathsisfun.com -->

<svg
   width="405.343"
   height="68.3122"
   version="1.1"
   id="svg1219"
   sodipodi:docname="associative-add.svg"
   inkscape:version="1.1 (c68e22c387, 2021-05-23)"
   xmlns:inkscape="http://www.inkscape.org/namespaces/inkscape"
   xmlns:sodipodi="http://sodipodi.sourceforge.net/DTD/sodipodi-0.dtd"
   xmlns="http://www.w3.org/2000/svg"
   xmlns:svg="http://www.w3.org/2000/svg">
  <sodipodi:namedview
     id="namedview1221"
     pagecolor="#ffffff"
     bordercolor="#666666"
     borderopacity="1.0"
     inkscape:pageshadow="2"
     inkscape:pageopacity="0.0"
     inkscape:pagecheckerboard="0"
     showgrid="false"
     inkscape:current-layer="svg1219" />
  <defs
     id="defs247" />
  <g
     transform="matrix(-0.5,0,0,0.5,376.388,-15.3468)"
     id="g359">
    <path
       transform="matrix(0.77643,0,0,0.77643,-111.769,-269.257)"
       style="color:#000000;overflow:visible;fill:#ffff3e;stroke:#ba00ff;stroke-width:2.5"
       d="m 184.4,420.6 c 0,8.6 -7,15.5 -15.5,15.5 -8.6,0 -15.5,-7 -15.5,-15.5 0,-8.6 7,-15.5 15.5,-15.5 8.6,0 15.5,7 15.5,15.5 z"
       id="path351" />
    <path
       transform="matrix(0.77643,0,0,0.77643,-136.609,-237.53)"
       style="color:#000000;overflow:visible;fill:#ffff3e;stroke:#ba00ff;stroke-width:2.5"
       d="m 184.4,420.6 c 0,8.6 -7,15.5 -15.5,15.5 -8.6,0 -15.5,-7 -15.5,-15.5 0,-8.6 7,-15.5 15.5,-15.5 8.6,0 15.5,7 15.5,15.5 z"
       id="path353" />
    <path
       transform="matrix(0.77643,0,0,0.77643,-176.045,-237.861)"
       style="color:#000000;overflow:visible;fill:#ffff3e;stroke:#ba00ff;stroke-width:2.5"
       d="m 184.4,420.6 c 0,8.6 -7,15.5 -15.5,15.5 -8.6,0 -15.5,-7 -15.5,-15.5 0,-8.6 7,-15.5 15.5,-15.5 8.6,0 15.5,7 15.5,15.5 z"
       id="path355" />
    <path
       transform="matrix(0.77643,0,0,0.77643,-156.045,-269.861)"
       style="color:#000000;overflow:visible;fill:#ffff3e;stroke:#ba00ff;stroke-width:2.5"
       d="m 184.4,420.6 c 0,8.6 -7,15.5 -15.5,15.5 -8.6,0 -15.5,-7 -15.5,-15.5 0,-8.6 7,-15.5 15.5,-15.5 8.6,0 15.5,7 15.5,15.5 z"
       id="path357" />
  </g>
  <g
     transform="matrix(0.388215,0,0,0.388215,143.898,-135.581)"
     id="g373">
    <path
       transform="translate(95.1859,-39.0763)"
       style="color:#000000;overflow:visible;fill:#19aeff;stroke:#ba00ff;stroke-width:2.5"
       d="m 184.4,420.6 c 0,8.6 -7,15.5 -15.5,15.5 -8.6,0 -15.5,-7 -15.5,-15.5 0,-8.6 7,-15.5 15.5,-15.5 8.6,0 15.5,7 15.5,15.5 z"
       id="path361" />
    <path
       transform="translate(177.847,-54.6067)"
       style="color:#000000;overflow:visible;fill:#19aeff;stroke:#ba00ff;stroke-width:2.5"
       d="m 184.4,420.6 c 0,8.6 -7,15.5 -15.5,15.5 -8.6,0 -15.5,-7 -15.5,-15.5 0,-8.6 7,-15.5 15.5,-15.5 8.6,0 15.5,7 15.5,15.5 z"
       id="path363" />
    <path
       transform="translate(87.6712,5.51076)"
       style="color:#000000;overflow:visible;fill:#19aeff;stroke:#ba00ff;stroke-width:2.5"
       d="m 184.4,420.6 c 0,8.6 -7,15.5 -15.5,15.5 -8.6,0 -15.5,-7 -15.5,-15.5 0,-8.6 7,-15.5 15.5,-15.5 8.6,0 15.5,7 15.5,15.5 z"
       id="path365" />
    <path
       transform="translate(134.763,20.5401)"
       style="color:#000000;overflow:visible;fill:#19aeff;stroke:#ba00ff;stroke-width:2.5"
       d="m 184.4,420.6 c 0,8.6 -7,15.5 -15.5,15.5 -8.6,0 -15.5,-7 -15.5,-15.5 0,-8.6 7,-15.5 15.5,-15.5 8.6,0 15.5,7 15.5,15.5 z"
       id="path367" />
    <path
       transform="translate(153.8,-16.5323)"
       style="color:#000000;overflow:visible;fill:#19aeff;stroke:#ba00ff;stroke-width:2.5"
       d="m 184.4,420.6 c 0,8.6 -7,15.5 -15.5,15.5 -8.6,0 -15.5,-7 -15.5,-15.5 0,-8.6 7,-15.5 15.5,-15.5 8.6,0 15.5,7 15.5,15.5 z"
       id="path369" />
    <path
       transform="translate(192.877,17.5342)"
       style="color:#000000;overflow:visible;fill:#19aeff;stroke:#ba00ff;stroke-width:2.5"
       d="m 184.4,420.6 c 0,8.6 -7,15.5 -15.5,15.5 -8.6,0 -15.5,-7 -15.5,-15.5 0,-8.6 7,-15.5 15.5,-15.5 8.6,0 15.5,7 15.5,15.5 z"
       id="path371" />
  </g>
  <g
     transform="matrix(0.388215,0,0,0.388215,138.538,-135.776)"
     id="g381">
    <path
       transform="translate(331.147,1.50293)"
       style="color:#000000;overflow:visible;fill:#ff9900;stroke:#2d2d2d;stroke-width:2.5"
       d="m 184.4,420.6 c 0,8.6 -7,15.5 -15.5,15.5 -8.6,0 -15.5,-7 -15.5,-15.5 0,-8.6 7,-15.5 15.5,-15.5 8.6,0 15.5,7 15.5,15.5 z"
       id="path375" />
    <path
       transform="translate(356.196,-36.5714)"
       style="color:#000000;overflow:visible;fill:#ff9900;stroke:#2d2d2d;stroke-width:2.5"
       d="m 184.4,420.6 c 0,8.6 -7,15.5 -15.5,15.5 -8.6,0 -15.5,-7 -15.5,-15.5 0,-8.6 7,-15.5 15.5,-15.5 8.6,0 15.5,7 15.5,15.5 z"
       id="path377" />
    <path
       transform="translate(384.25,3.50685)"
       style="color:#000000;overflow:visible;fill:#ff9900;stroke:#2d2d2d;stroke-width:2.5"
       d="m 184.4,420.6 c 0,8.6 -7,15.5 -15.5,15.5 -8.6,0 -15.5,-7 -15.5,-15.5 0,-8.6 7,-15.5 15.5,-15.5 8.6,0 15.5,7 15.5,15.5 z"
       id="path379" />
  </g>
  <text
     x="298.313"
     y="28.7532"
     style="font-size:31.85px;font-family:Arial;fill:#b88100;stroke-width:0.5"
     id="text383">+</text>
  <g
     transform="matrix(-0.5,0,0,0.5,147.393,-15.3468)"
     id="g393">
    <path
       transform="matrix(0.77643,0,0,0.77643,-111.769,-269.257)"
       style="color:#000000;overflow:visible;fill:#ffff3e;stroke:#ba00ff;stroke-width:2.5"
       d="m 184.4,420.6 c 0,8.6 -7,15.5 -15.5,15.5 -8.6,0 -15.5,-7 -15.5,-15.5 0,-8.6 7,-15.5 15.5,-15.5 8.6,0 15.5,7 15.5,15.5 z"
       id="path385" />
    <path
       transform="matrix(0.77643,0,0,0.77643,-136.609,-237.53)"
       style="color:#000000;overflow:visible;fill:#ffff3e;stroke:#ba00ff;stroke-width:2.5"
       d="m 184.4,420.6 c 0,8.6 -7,15.5 -15.5,15.5 -8.6,0 -15.5,-7 -15.5,-15.5 0,-8.6 7,-15.5 15.5,-15.5 8.6,0 15.5,7 15.5,15.5 z"
       id="path387" />
    <path
       transform="matrix(0.77643,0,0,0.77643,-176.045,-237.861)"
       style="color:#000000;overflow:visible;fill:#ffff3e;stroke:#ba00ff;stroke-width:2.5"
       d="m 184.4,420.6 c 0,8.6 -7,15.5 -15.5,15.5 -8.6,0 -15.5,-7 -15.5,-15.5 0,-8.6 7,-15.5 15.5,-15.5 8.6,0 15.5,7 15.5,15.5 z"
       id="path389" />
    <path
       transform="matrix(0.77643,0,0,0.77643,-156.045,-269.861)"
       style="color:#000000;overflow:visible;fill:#ffff3e;stroke:#ba00ff;stroke-width:2.5"
       d="m 184.4,420.6 c 0,8.6 -7,15.5 -15.5,15.5 -8.6,0 -15.5,-7 -15.5,-15.5 0,-8.6 7,-15.5 15.5,-15.5 8.6,0 15.5,7 15.5,15.5 z"
       id="path391" />
  </g>
  <g
     transform="matrix(0.388215,0,0,0.388215,-93.1022,-135.581)"
     id="g407">
    <path
       transform="translate(95.1859,-39.0763)"
       style="color:#000000;overflow:visible;fill:#19aeff;stroke:#ba00ff;stroke-width:2.5"
       d="m 184.4,420.6 c 0,8.6 -7,15.5 -15.5,15.5 -8.6,0 -15.5,-7 -15.5,-15.5 0,-8.6 7,-15.5 15.5,-15.5 8.6,0 15.5,7 15.5,15.5 z"
       id="path395" />
    <path
       transform="translate(177.847,-54.6067)"
       style="color:#000000;overflow:visible;fill:#19aeff;stroke:#ba00ff;stroke-width:2.5"
       d="m 184.4,420.6 c 0,8.6 -7,15.5 -15.5,15.5 -8.6,0 -15.5,-7 -15.5,-15.5 0,-8.6 7,-15.5 15.5,-15.5 8.6,0 15.5,7 15.5,15.5 z"
       id="path397" />
    <path
       transform="translate(87.6712,5.51076)"
       style="color:#000000;overflow:visible;fill:#19aeff;stroke:#ba00ff;stroke-width:2.5"
       d="m 184.4,420.6 c 0,8.6 -7,15.5 -15.5,15.5 -8.6,0 -15.5,-7 -15.5,-15.5 0,-8.6 7,-15.5 15.5,-15.5 8.6,0 15.5,7 15.5,15.5 z"
       id="path399" />
    <path
       transform="translate(134.763,20.5401)"
       style="color:#000000;overflow:visible;fill:#19aeff;stroke:#ba00ff;stroke-width:2.5"
       d="m 184.4,420.6 c 0,8.6 -7,15.5 -15.5,15.5 -8.6,0 -15.5,-7 -15.5,-15.5 0,-8.6 7,-15.5 15.5,-15.5 8.6,0 15.5,7 15.5,15.5 z"
       id="path401" />
    <path
       transform="translate(153.8,-16.5323)"
       style="color:#000000;overflow:visible;fill:#19aeff;stroke:#ba00ff;stroke-width:2.5"
       d="m 184.4,420.6 c 0,8.6 -7,15.5 -15.5,15.5 -8.6,0 -15.5,-7 -15.5,-15.5 0,-8.6 7,-15.5 15.5,-15.5 8.6,0 15.5,7 15.5,15.5 z"
       id="path403" />
    <path
       transform="translate(192.877,17.5342)"
       style="color:#000000;overflow:visible;fill:#19aeff;stroke:#ba00ff;stroke-width:2.5"
       d="m 184.4,420.6 c 0,8.6 -7,15.5 -15.5,15.5 -8.6,0 -15.5,-7 -15.5,-15.5 0,-8.6 7,-15.5 15.5,-15.5 8.6,0 15.5,7 15.5,15.5 z"
       id="path405" />
  </g>
  <g
     transform="matrix(0.388215,0,0,0.388215,-130.462,-135.776)"
     id="g415">
    <path
       transform="translate(331.147,1.50293)"
       style="color:#000000;overflow:visible;fill:#ff9900;stroke:#2d2d2d;stroke-width:2.5"
       d="m 184.4,420.6 c 0,8.6 -7,15.5 -15.5,15.5 -8.6,0 -15.5,-7 -15.5,-15.5 0,-8.6 7,-15.5 15.5,-15.5 8.6,0 15.5,7 15.5,15.5 z"
       id="path409" />
    <path
       transform="translate(356.196,-36.5714)"
       style="color:#000000;overflow:visible;fill:#ff9900;stroke:#2d2d2d;stroke-width:2.5"
       d="m 184.4,420.6 c 0,8.6 -7,15.5 -15.5,15.5 -8.6,0 -15.5,-7 -15.5,-15.5 0,-8.6 7,-15.5 15.5,-15.5 8.6,0 15.5,7 15.5,15.5 z"
       id="path411" />
    <path
       transform="translate(384.25,3.50685)"
       style="color:#000000;overflow:visible;fill:#ff9900;stroke:#2d2d2d;stroke-width:2.5"
       d="m 184.4,420.6 c 0,8.6 -7,15.5 -15.5,15.5 -8.6,0 -15.5,-7 -15.5,-15.5 0,-8.6 7,-15.5 15.5,-15.5 8.6,0 15.5,7 15.5,15.5 z"
       id="path413" />
  </g>
  <text
     x="104.313"
     y="28.7532"
     style="font-size:31.85px;font-family:Arial;fill:#b88100;stroke-width:0.5"
     id="text417">+</text>
  <text
     x="44.5128"
     y="64.1032"
     style="font-size:20px;font-family:Arial;fill:#3465a4;stroke-width:0.5"
     id="text1203">(6 + 3) + 4</text>
  <text
     x="283.963"
     y="64.1032"
     style="font-size:20px;font-family:Arial;fill:#3465a4;stroke-width:0.5"
     id="text1205">6 + (3 + 4)</text>
  <text
     x="198.363"
     y="32.6532"
     style="font-size:32.65px;font-family:Arial;fill:#3465a4;stroke-width:0.5"
     id="text1207">=</text>
</svg>
