<?xml version="1.0" encoding="UTF-8" standalone="no"?>
<!-- Copyright 2017 mathsisfun.com -->
<svg xmlns="http://www.w3.org/2000/svg" width="93.4" height="180.1" version="1.1" style="font-family:Arial; font-size:18px; fill:white; stroke-width:7.37;">
<g transform="translate(2831.87,2770.85)">
	<g transform="matrix(1.16354,0,0,0.561038,309.917,-1232.4)">
		<g>
			<rect x="-2700.2" y="-2742.2" width="20.1" height="20.1" style="color:black;"/>
			<text x="-2696.7" y="-2724.7" style="color:black; fill:#19aeff; stroke-width:1px;">0</text>
		</g>
		<g transform="translate(40.1309,-4.84375e-6)">
			<rect x="-2700.2" y="-2742.2" width="20.1" height="20.1" style="color:black;"/>
			<text x="-2696.7" y="-2724.7" style="color:black; fill:#19aeff; stroke-width:1px;">0</text>
		</g>
		<g transform="translate(0,20.0654)">
			<rect x="-2700.2" y="-2742.2" width="20.1" height="20.1" style="color:black;"/>
			<text x="-2696.7" y="-2724.7" style="color:black; fill:#19aeff; stroke-width:1px;">0</text>
		</g>
		<g transform="translate(40.1309,20.0654)">
			<rect x="-2700.2" y="-2742.2" width="20.1" height="20.1" style="color:black;"/>
			<text x="-2696.7" y="-2724.7" style="color:black; fill:#19aeff; stroke-width:1px;">0</text>
		</g>
		<g transform="translate(17.4764,15.7856)">
			<rect x="-2657.5" y="-2737.9" width="20.1" height="20.1" style="color:black; fill:#013397;"/>
			<text x="-2653.1" y="-2720.8" style="color:black; stroke-width:1px;">1</text>
		</g>
		<g transform="translate(0,40.1308)">
			<rect x="-2700.2" y="-2742.2" width="20.1" height="20.1" style="color:black;"/>
			<text x="-2696.7" y="-2724.7" style="color:black; fill:#19aeff; stroke-width:1px;">0</text>
		</g>
		<g transform="translate(-2.58907,35.851)">
			<rect x="-2657.5" y="-2737.9" width="20.1" height="20.1" style="color:black; fill:#013397;"/>
			<text x="-2653.1" y="-2720.8" style="color:black; stroke-width:1px;">1</text>
		</g>
		<g transform="translate(0,60.1962)">
			<rect x="-2700.2" y="-2742.2" width="20.1" height="20.1" style="color:black;"/>
			<text x="-2696.7" y="-2724.7" style="color:black; fill:#19aeff; stroke-width:1px;">0</text>
		</g>
		<g transform="translate(-2.58907,55.9164)">
			<rect x="-2657.5" y="-2737.9" width="20.1" height="20.1" style="color:black; fill:#013397;"/>
			<text x="-2653.1" y="-2720.8" style="color:black; stroke-width:1px;">1</text>
		</g>
		<g transform="translate(20.0654,60.1962)">
			<rect x="-2700.2" y="-2742.2" width="20.1" height="20.1" style="color:black;"/>
			<text x="-2696.7" y="-2724.7" style="color:black; fill:#19aeff; stroke-width:1px;">0</text>
		</g>
		<g transform="translate(17.4764,55.9164)">
			<rect x="-2657.5" y="-2737.9" width="20.1" height="20.1" style="color:black; fill:#013397;"/>
			<text x="-2653.1" y="-2720.8" style="color:black; stroke-width:1px;">1</text>
		</g>
		<g transform="translate(0,80.2616)">
			<rect x="-2700.2" y="-2742.2" width="20.1" height="20.1" style="color:black;"/>
			<text x="-2696.7" y="-2724.7" style="color:black; fill:#19aeff; stroke-width:1px;">0</text>
		</g>
		<g transform="translate(-22.6545,75.9818)">
			<rect x="-2657.5" y="-2737.9" width="20.1" height="20.1" style="color:black; fill:#013397;"/>
			<text x="-2653.1" y="-2720.8" style="color:black; stroke-width:1px;">1</text>
		</g>
		<g transform="translate(40.1309,80.2616)">
			<rect x="-2700.2" y="-2742.2" width="20.1" height="20.1" style="color:black;"/>
			<text x="-2696.7" y="-2724.7" style="color:black; fill:#19aeff; stroke-width:1px;">0</text>
		</g>
		<g transform="translate(0,100.327)">
			<rect x="-2700.2" y="-2742.2" width="20.1" height="20.1" style="color:black;"/>
			<text x="-2696.7" y="-2724.7" style="color:black; fill:#19aeff; stroke-width:1px;">0</text>
		</g>
		<g transform="translate(-22.6545,96.0472)">
			<rect x="-2657.5" y="-2737.9" width="20.1" height="20.1" style="color:black; fill:#013397;"/>
			<text x="-2653.1" y="-2720.8" style="color:black; stroke-width:1px;">1</text>
		</g>
		<g transform="translate(40.1309,100.327)">
			<rect x="-2700.2" y="-2742.2" width="20.1" height="20.1" style="color:black;"/>
			<text x="-2696.7" y="-2724.7" style="color:black; fill:#19aeff; stroke-width:1px;">0</text>
		</g>
		<g transform="translate(17.4764,96.0472)">
			<rect x="-2657.5" y="-2737.9" width="20.1" height="20.1" style="color:black; fill:#013397;"/>
			<text x="-2653.1" y="-2720.8" style="color:black; stroke-width:1px;">1</text>
		</g>
		<g transform="translate(0,120.392)">
			<rect x="-2700.2" y="-2742.2" width="20.1" height="20.1" style="color:black;"/>
			<text x="-2696.7" y="-2724.7" style="color:black; fill:#19aeff; stroke-width:1px;">0</text>
		</g>
		<g transform="translate(-22.6545,116.113)">
			<rect x="-2657.5" y="-2737.9" width="20.1" height="20.1" style="color:black; fill:#013397;"/>
			<text x="-2653.1" y="-2720.8" style="color:black; stroke-width:1px;">1</text>
		</g>
		<g transform="translate(60.1963,120.393)">
			<rect x="-2700.2" y="-2742.2" width="20.1" height="20.1" style="color:black;"/>
			<text x="-2696.7" y="-2724.7" style="color:black; fill:#19aeff; stroke-width:1px;">0</text>
		</g>
		<g transform="translate(-2.58903,116.113)">
			<rect x="-2657.5" y="-2737.9" width="20.1" height="20.1" style="color:black; fill:#013397;"/>
			<text x="-2653.1" y="-2720.8" style="color:black; stroke-width:1px;">1</text>
		</g>
		<g transform="translate(0,140.458)">
			<rect x="-2700.2" y="-2742.2" width="20.1" height="20.1" style="color:black;"/>
			<text x="-2696.7" y="-2724.7" style="color:black; fill:#19aeff; stroke-width:1px;">0</text>
		</g>
		<g transform="translate(-22.6545,136.178)">
			<rect x="-2657.5" y="-2737.9" width="20.1" height="20.1" style="color:black; fill:#013397;"/>
			<text x="-2653.1" y="-2720.8" style="color:black; stroke-width:1px;">1</text>
		</g>
		<g transform="translate(17.4764,136.178)">
			<rect x="-2657.5" y="-2737.9" width="20.1" height="20.1" style="color:black; fill:#013397;"/>
			<text x="-2653.1" y="-2720.8" style="color:black; stroke-width:1px;">1</text>
		</g>
		<g transform="translate(20.0655,160.523)">
			<rect x="-2700.2" y="-2742.2" width="20.1" height="20.1" style="color:black;"/>
			<text x="-2696.7" y="-2724.7" style="color:black; fill:#19aeff; stroke-width:1px;">0</text>
		</g>
		<g transform="translate(-42.72,156.244)">
			<rect x="-2657.5" y="-2737.9" width="20.1" height="20.1" style="color:black; fill:#013397;"/>
			<text x="-2653.1" y="-2720.8" style="color:black; stroke-width:1px;">1</text>
		</g>
		<g transform="translate(40.1309,160.523)">
			<rect x="-2700.2" y="-2742.2" width="20.1" height="20.1" style="color:black;"/>
			<text x="-2696.7" y="-2724.7" style="color:black; fill:#19aeff; stroke-width:1px;">0</text>
		</g>
		<g transform="translate(20.0655,180.588)">
			<rect x="-2700.2" y="-2742.2" width="20.1" height="20.1" style="color:black;"/>
			<text x="-2696.7" y="-2724.7" style="color:black; fill:#19aeff; stroke-width:1px;">0</text>
		</g>
		<g transform="translate(-42.72,176.309)">
			<rect x="-2657.5" y="-2737.9" width="20.1" height="20.1" style="color:black; fill:#013397;"/>
			<text x="-2653.1" y="-2720.8" style="color:black; stroke-width:1px;">1</text>
		</g>
		<g transform="translate(40.1309,180.589)">
			<rect x="-2700.2" y="-2742.2" width="20.1" height="20.1" style="color:black;"/>
			<text x="-2696.7" y="-2724.7" style="color:black; fill:#19aeff; stroke-width:1px;">0</text>
		</g>
		<g transform="translate(17.4764,176.309)">
			<rect x="-2657.5" y="-2737.9" width="20.1" height="20.1" style="color:black; fill:#013397;"/>
			<text x="-2653.1" y="-2720.8" style="color:black; stroke-width:1px;">1</text>
		</g>
		<g transform="translate(20.0655,200.654)">
			<rect x="-2700.2" y="-2742.2" width="20.1" height="20.1" style="color:black;"/>
			<text x="-2696.7" y="-2724.7" style="color:black; fill:#19aeff; stroke-width:1px;">0</text>
		</g>
		<g transform="translate(-42.7199,196.374)">
			<rect x="-2657.5" y="-2737.9" width="20.1" height="20.1" style="color:black; fill:#013397;"/>
			<text x="-2653.1" y="-2720.8" style="color:black; stroke-width:1px;">1</text>
		</g>
		<g transform="translate(60.1964,200.654)">
			<rect x="-2700.2" y="-2742.2" width="20.1" height="20.1" style="color:black;"/>
			<text x="-2696.7" y="-2724.7" style="color:black; fill:#19aeff; stroke-width:1px;">0</text>
		</g>
		<g transform="translate(-2.58903,196.375)">
			<rect x="-2657.5" y="-2737.9" width="20.1" height="20.1" style="color:black; fill:#013397;"/>
			<text x="-2653.1" y="-2720.8" style="color:black; stroke-width:1px;">1</text>
		</g>
		<g transform="translate(20.0655,220.719)">
			<rect x="-2700.2" y="-2742.2" width="20.1" height="20.1" style="color:black;"/>
			<text x="-2696.7" y="-2724.7" style="color:black; fill:#19aeff; stroke-width:1px;">0</text>
		</g>
		<g transform="translate(-42.7199,216.439)">
			<rect x="-2657.5" y="-2737.9" width="20.1" height="20.1" style="color:black; fill:#013397;"/>
			<text x="-2653.1" y="-2720.8" style="color:black; stroke-width:1px;">1</text>
		</g>
		<g transform="translate(-2.58907,216.44)">
			<rect x="-2657.5" y="-2737.9" width="20.1" height="20.1" style="color:black; fill:#013397;"/>
			<text x="-2653.1" y="-2720.8" style="color:black; stroke-width:1px;">1</text>
		</g>
		<g transform="translate(60.1964,240.784)">
			<rect x="-2700.2" y="-2742.2" width="20.1" height="20.1" style="color:black;"/>
			<text x="-2696.7" y="-2724.7" style="color:black; fill:#19aeff; stroke-width:1px;">0</text>
		</g>
		<g transform="translate(-42.7199,236.504)">
			<rect x="-2657.5" y="-2737.9" width="20.1" height="20.1" style="color:black; fill:#013397;"/>
			<text x="-2653.1" y="-2720.8" style="color:black; stroke-width:1px;">1</text>
		</g>
		<g transform="translate(40.1309,240.785)">
			<rect x="-2700.2" y="-2742.2" width="20.1" height="20.1" style="color:black;"/>
			<text x="-2696.7" y="-2724.7" style="color:black; fill:#19aeff; stroke-width:1px;">0</text>
		</g>
		<g transform="translate(-22.6545,236.505)">
			<rect x="-2657.5" y="-2737.9" width="20.1" height="20.1" style="color:black; fill:#013397;"/>
			<text x="-2653.1" y="-2720.8" style="color:black; stroke-width:1px;">1</text>
		</g>
		<g transform="translate(40.1309,260.85)">
			<rect x="-2700.2" y="-2742.2" width="20.1" height="20.1" style="color:black;"/>
			<text x="-2696.7" y="-2724.7" style="color:black; fill:#19aeff; stroke-width:1px;">0</text>
		</g>
		<g transform="translate(-42.7199,256.569)">
			<rect x="-2657.5" y="-2737.9" width="20.1" height="20.1" style="color:black; fill:#013397;"/>
			<text x="-2653.1" y="-2720.8" style="color:black; stroke-width:1px;">1</text>
		</g>
		<g transform="translate(17.4764,256.57)">
			<rect x="-2657.5" y="-2737.9" width="20.1" height="20.1" style="color:black; fill:#013397;"/>
			<text x="-2653.1" y="-2720.8" style="color:black; stroke-width:1px;">1</text>
		</g>
		<g transform="translate(-42.7199,276.635)">
			<rect x="-2657.5" y="-2737.9" width="20.1" height="20.1" style="color:black; fill:#013397;"/>
			<text x="-2653.1" y="-2720.8" style="color:black; stroke-width:1px;">1</text>
		</g>
		<g transform="translate(60.1964,280.915)">
			<rect x="-2700.2" y="-2742.2" width="20.1" height="20.1" style="color:black;"/>
			<text x="-2696.7" y="-2724.7" style="color:black; fill:#19aeff; stroke-width:1px;">0</text>
		</g>
		<g transform="translate(-2.58903,276.636)">
			<rect x="-2657.5" y="-2737.9" width="20.1" height="20.1" style="color:black; fill:#013397;"/>
			<text x="-2653.1" y="-2720.8" style="color:black; stroke-width:1px;">1</text>
		</g>
		<g transform="translate(-42.7199,296.7)">
			<rect x="-2657.5" y="-2737.9" width="20.1" height="20.1" style="color:black; fill:#013397;"/>
			<text x="-2653.1" y="-2720.8" style="color:black; stroke-width:1px;">1</text>
		</g>
		<g transform="translate(17.4764,296.701)">
			<rect x="-2657.5" y="-2737.9" width="20.1" height="20.1" style="color:black; fill:#013397;"/>
			<text x="-2653.1" y="-2720.8" style="color:black; stroke-width:1px;">1</text>
		</g>
		<g transform="translate(20.0655,-4.84375e-6)">
			<rect x="-2700.2" y="-2742.2" width="20.1" height="20.1" style="color:black;"/>
			<text x="-2696.7" y="-2724.7" style="color:black; fill:#19aeff; stroke-width:1px;">0</text>
		</g>
		<g transform="translate(60.1964,-4.45312e-5)">
			<rect x="-2700.2" y="-2742.2" width="20.1" height="20.1" style="color:black;"/>
			<text x="-2696.7" y="-2724.7" style="color:black; fill:#19aeff; stroke-width:1px;">0</text>
		</g>
		<g transform="translate(20.0655,20.0654)">
			<rect x="-2700.2" y="-2742.2" width="20.1" height="20.1" style="color:black;"/>
			<text x="-2696.7" y="-2724.7" style="color:black; fill:#19aeff; stroke-width:1px;">0</text>
		</g>
		<g transform="translate(20.0655,40.1308)">
			<rect x="-2700.2" y="-2742.2" width="20.1" height="20.1" style="color:black;"/>
			<text x="-2696.7" y="-2724.7" style="color:black; fill:#19aeff; stroke-width:1px;">0</text>
		</g>
		<g transform="translate(60.1963,40.1308)">
			<rect x="-2700.2" y="-2742.2" width="20.1" height="20.1" style="color:black;"/>
			<text x="-2696.7" y="-2724.7" style="color:black; fill:#19aeff; stroke-width:1px;">0</text>
		</g>
		<g transform="translate(60.1964,80.2616)">
			<rect x="-2700.2" y="-2742.2" width="20.1" height="20.1" style="color:black;"/>
			<text x="-2696.7" y="-2724.7" style="color:black; fill:#19aeff; stroke-width:1px;">0</text>
		</g>
		<g transform="translate(-2.58907,136.178)">
			<rect x="-2657.5" y="-2737.9" width="20.1" height="20.1" style="color:black; fill:#013397;"/>
			<text x="-2653.1" y="-2720.8" style="color:black; stroke-width:1px;">1</text>
		</g>
		<g transform="translate(60.1964,160.523)">
			<rect x="-2700.2" y="-2742.2" width="20.1" height="20.1" style="color:black;"/>
			<text x="-2696.7" y="-2724.7" style="color:black; fill:#19aeff; stroke-width:1px;">0</text>
		</g>
		<g transform="translate(17.4764,216.44)">
			<rect x="-2657.5" y="-2737.9" width="20.1" height="20.1" style="color:black; fill:#013397;"/>
			<text x="-2653.1" y="-2720.8" style="color:black; stroke-width:1px;">1</text>
		</g>
		<g transform="translate(-22.6545,256.57)">
			<rect x="-2657.5" y="-2737.9" width="20.1" height="20.1" style="color:black; fill:#013397;"/>
			<text x="-2653.1" y="-2720.8" style="color:black; stroke-width:1px;">1</text>
		</g>
		<g transform="translate(-22.6545,276.636)">
			<rect x="-2657.5" y="-2737.9" width="20.1" height="20.1" style="color:black; fill:#013397;"/>
			<text x="-2653.1" y="-2720.8" style="color:black; stroke-width:1px;">1</text>
		</g>
		<g transform="translate(-22.6545,296.701)">
			<rect x="-2657.5" y="-2737.9" width="20.1" height="20.1" style="color:black; fill:#013397;"/>
			<text x="-2653.1" y="-2720.8" style="color:black; stroke-width:1px;">1</text>
		</g>
		<g transform="translate(-2.58907,296.701)">
			<rect x="-2657.5" y="-2737.9" width="20.1" height="20.1" style="color:black; fill:#013397;"/>
			<text x="-2653.1" y="-2720.8" style="color:black; stroke-width:1px;">1</text>
		</g>
	</g>
</g>
</svg>