<?xml version="1.0" encoding="UTF-8" standalone="no"?>
<svg
   width="146.268"
   height="117.103"
   version="1.1"
   viewBox="0 0 38.7007 30.9835"
   id="svg1937"
   sodipodi:docname="calculator-x2.svg"
   inkscape:version="1.1 (c68e22c387, 2021-05-23)"
   xmlns:inkscape="http://www.inkscape.org/namespaces/inkscape"
   xmlns:sodipodi="http://sodipodi.sourceforge.net/DTD/sodipodi-0.dtd"
   xmlns:xlink="http://www.w3.org/1999/xlink"
   xmlns="http://www.w3.org/2000/svg"
   xmlns:svg="http://www.w3.org/2000/svg">
  <sodipodi:namedview
     id="namedview1939"
     pagecolor="#ffffff"
     bordercolor="#666666"
     borderopacity="1.0"
     inkscape:pageshadow="2"
     inkscape:pageopacity="0.0"
     inkscape:pagecheckerboard="0"
     showgrid="false"
     inkscape:current-layer="svg1937" />
  <defs
     id="defs101">
    <marker
       style="overflow:visible"
       id="Arrow1Mend"
       refX="0"
       refY="0"
       orient="auto"
       inkscape:stockid="Arrow1Mend"
       inkscape:isstock="true">
      <path
         transform="matrix(-0.4,0,0,-0.4,-4,0)"
         style="fill:context-stroke;fill-rule:evenodd;stroke:context-stroke;stroke-width:1pt"
         d="M 0,0 5,-5 -12.5,0 5,5 Z"
         id="path15558" />
    </marker>
    <marker
       style="overflow:visible"
       id="Arrow1Lend"
       refX="0"
       refY="0"
       orient="auto"
       inkscape:stockid="Arrow1Lend"
       inkscape:isstock="true">
      <path
         transform="matrix(-0.8,0,0,-0.8,-10,0)"
         style="fill:context-stroke;fill-rule:evenodd;stroke:context-stroke;stroke-width:1pt"
         d="M 0,0 5,-5 -12.5,0 5,5 Z"
         id="path15552" />
    </marker>
    <linearGradient
       id="c">
      <stop
         stop-color="#151515"
         offset="0"
         id="stop8" />
      <stop
         stop-color="#323d55"
         offset="1"
         id="stop10" />
    </linearGradient>
    <linearGradient
       id="bi">
      <stop
         stop-color="#23303f"
         offset="0"
         id="stop32" />
      <stop
         stop-color="#4a5b65"
         offset="1"
         id="stop34" />
    </linearGradient>
    <linearGradient
       inkscape:collect="always"
       xlink:href="#c"
       id="linearGradient4748"
       gradientUnits="userSpaceOnUse"
       gradientTransform="matrix(0.126868,0,0,0.175401,17.2137,-203.152)"
       x1="-55.377"
       y1="1192.6"
       x2="-55.377"
       y2="1239.1" />
    <linearGradient
       inkscape:collect="always"
       xlink:href="#c"
       id="linearGradient4754"
       gradientUnits="userSpaceOnUse"
       gradientTransform="matrix(0.126868,0,0,0.175401,36.3649,-203.152)"
       x1="-55.377"
       y1="1192.6"
       x2="-55.377"
       y2="1239.1" />
    <linearGradient
       inkscape:collect="always"
       xlink:href="#bi"
       id="linearGradient4856"
       gradientUnits="userSpaceOnUse"
       x1="-79.068"
       y1="903.08"
       x2="-79.068"
       y2="927.3"
       gradientTransform="matrix(0.185638,0,0,0.18233,24.5997,-157.529)" />
    <linearGradient
       inkscape:collect="always"
       xlink:href="#bi"
       id="linearGradient4860"
       gradientUnits="userSpaceOnUse"
       x1="-79.068"
       y1="903.08"
       x2="-79.068"
       y2="927.3"
       gradientTransform="matrix(0.185638,0,0,0.18233,43.7301,-157.529)" />
    <marker
       style="overflow:visible"
       refX="0"
       refY="0"
       orient="auto"
       inkscape:stockid="Arrow1Mend1438"
       inkscape:isstock="true"
       id="Arrow1Mend1438">
      <path
         transform="matrix(-0.4,0,0,-0.4,-4,0)"
         style="fill:#009100;fill-opacity:1;fill-rule:evenodd;stroke:#009100;stroke-width:1pt;stroke-opacity:1"
         d="M 0,0 5,-5 -12.5,0 5,5 Z"
         id="path15978" />
    </marker>
    <marker
       style="overflow:visible"
       refX="0"
       refY="0"
       orient="auto"
       inkscape:stockid="Arrow1Mend848"
       inkscape:isstock="true"
       id="Arrow1Mend848">
      <path
         transform="matrix(-0.4,0,0,-0.4,-4,0)"
         style="fill:#009100;fill-opacity:1;fill-rule:evenodd;stroke:#009100;stroke-width:1pt;stroke-opacity:1"
         d="M 0,0 5,-5 -12.5,0 5,5 Z"
         id="path15981" />
    </marker>
  </defs>
  <rect
     style="color:#000000;font-variation-settings:normal;overflow:visible;opacity:1;vector-effect:none;fill:#323d55;fill-opacity:1;stroke:#3465a4;stroke-width:0.167397;stroke-linecap:butt;stroke-linejoin:miter;stroke-miterlimit:4;stroke-dasharray:none;stroke-dashoffset:0;stroke-opacity:1;-inkscape-stroke:none;stop-color:#000000;stop-opacity:1"
     id="rect10391"
     width="38.5333"
     height="16.7713"
     x="0.0836985"
     y="0.0835977" />
  <path
     d="m -11.6744,-67.0507 c -2.6502,0.3053 -2.4426,4.58 -2.4426,4.58 -1.2214,23.7178 1.1175,47.9377 1.1175,47.9377 0,0 -1.6305,63.2044 0.7389,74.2754 -0.024,3.487 3.94483,3.279 4.04253,3.279 23.41257,2.748 49.46407,0.409 55.86397,-0.403 3.8838,-0.305 2.8641,-5.19 2.8641,-5.105 1.9357,-16.268 0.4091,-71.7413 0.4091,-71.7413 0,0 2.235,-27.3768 0.861,-49.3363 0.2565,-2.4671 -1.4717,-3.2793 -1.777,-3.3831 -5.4961,-0.5863 -21.7335,-0.9649 -31.6567,-0.9161 -9.92321,0.049 -23.94396,0.5496 -30.0203,0.8122"
     fill="none"
     id="path105"
     style="stroke-width:0.095406" />
  <path
     d="m 5.51496,2.19584 h 8.23014 c 1.3942,0 2.5171,1.68304 2.5171,3.77382 v 4.89344 c 0,2.0906 -1.1227,3.7736 -2.5171,3.7736 H 5.51496 c -1.39465,0 -2.51715,-1.6828 -2.51715,-3.7736 V 5.96966 c 0,-2.09058 1.1225,-3.77382 2.51715,-3.77382 z"
     fill="url(#bb)"
     style="fill:url(#linearGradient4748);fill-rule:evenodd;stroke-width:0.193623;paint-order:normal"
     id="path123" />
  <path
     d="m 24.6683,2.19584 h 8.2299 c 1.3944,0 2.5173,1.68304 2.5173,3.77382 v 4.89344 c 0,2.0906 -1.1227,3.7736 -2.5173,3.7736 h -8.2299 c -1.3945,0 -2.5174,-1.6828 -2.5174,-3.7736 V 5.96966 c 0,-2.09058 1.1227,-3.77382 2.5174,-3.77382 z"
     fill="url(#x)"
     style="fill:url(#linearGradient4754);fill-rule:evenodd;stroke-width:0.193623;paint-order:normal"
     id="path133" />
  <path
     d="M 4.07383,2.19462 H 15.1862 c 0.7564,0 1.3656,0.61818 1.3656,1.38613 v 5.88891 c 0,0.76794 -0.6092,1.38614 -1.3656,1.38614 H 4.07383 C 3.31725,10.8558 2.7082,10.2376 2.7082,9.46966 V 3.58075 c 0,-0.76795 0.60905,-1.38613 1.36563,-1.38613 z"
     fill-rule="evenodd"
     style="stroke-width:0.193623;paint-order:normal"
     id="path529" />
  <path
     d="M 4.43406,2.63502 H 14.8304 c 0.7079,0 1.2778,0.55972 1.2778,1.25482 v 5.33142 c 0,0.6949 -0.5699,1.25484 -1.2778,1.25484 H 4.43406 c -0.70788,0 -1.27775,-0.55994 -1.27775,-1.25484 V 3.88984 c 0,-0.6951 0.56987,-1.25482 1.27775,-1.25482 z"
     fill="url(#a)"
     fill-rule="evenodd"
     stroke="#3d4e5b"
     style="fill:url(#linearGradient4856);stroke-width:0.31791;paint-order:normal"
     id="path531" />
  <path
     d="M 15.9535,3.3224 C 15.7417,2.91874 15.3258,2.63563 14.83,2.63563 H 4.43345 c -0.496,0 -0.91184,0.28311 -1.12371,0.68677"
     fill="none"
     stroke="#a4b4c9"
     stroke-linecap="round"
     style="stroke-width:0.31791;paint-order:normal"
     id="path533" />
  <path
     d="m 23.204,2.19462 h 11.1126 c 0.7563,0 1.3656,0.61818 1.3656,1.38613 v 5.88891 c 0,0.76794 -0.6093,1.38614 -1.3656,1.38614 H 23.204 c -0.7564,0 -1.3656,-0.6182 -1.3656,-1.38614 V 3.58075 c 0,-0.76795 0.6092,-1.38613 1.3656,-1.38613 z"
     fill-rule="evenodd"
     style="stroke-width:0.193623;paint-order:normal"
     id="path549" />
  <path
     d="m 23.5642,2.63502 h 10.3966 c 0.7079,0 1.2777,0.55972 1.2777,1.25482 v 5.33142 c 0,0.6949 -0.5698,1.25484 -1.2777,1.25484 H 23.5642 c -0.7078,0 -1.2775,-0.55994 -1.2775,-1.25484 V 3.88984 c 0,-0.6951 0.5697,-1.25482 1.2775,-1.25482 z"
     fill="url(#a)"
     fill-rule="evenodd"
     stroke="#3d4e5b"
     style="fill:url(#linearGradient4860);stroke-width:0.31791;paint-order:normal"
     id="path551" />
  <path
     d="M 35.0839,3.3224 C 34.872,2.91874 34.4562,2.63563 33.9604,2.63563 H 23.5636 c -0.496,0 -0.9118,0.28311 -1.1235,0.68677"
     fill="none"
     stroke="#8197b4"
     stroke-linecap="round"
     style="stroke-width:0.31791;paint-order:normal"
     id="path553" />
  <path
     d="m 25.7544,8.97526 h -0.9826 l 1.63,-1.8693 -0.9169,-1.8243 h 0.7935 l 0.3603,0.6928 q 0.02,0.039 0.247,0.5117 0.02,0.024 0.032,0.067 0.3073,-0.3754 0.5163,-0.6147 l 0.5821,-0.6577 h 0.9548 l -1.6905,1.945 0.9096,1.7486 h -0.8566 l -0.2773,-0.5569 q -0.2167,-0.4408 -0.2871,-0.6324 -0.097,0.1482 -0.5066,0.615 z"
     id="path767"
     style="fill:#ffffff;stroke-width:0.154899" />
  <path
     d="m 32.7518,6.58806 v 0.5278 h -1.9927 q 0.032,-0.2993 0.1948,-0.5664 0.1624,-0.2689 0.6395,-0.7121 0.3844,-0.358 0.4715,-0.4855 0.1177,-0.1766 0.1177,-0.348 0,-0.1908 -0.1035,-0.2913 -0.1015,-0.1035 -0.2811,-0.1035 -0.1786,0 -0.2833,0.1076 -0.1056,0.1075 -0.1218,0.3562 l -0.5666,-0.057 q 0.051,-0.4694 0.3176,-0.6738 0.2673,-0.20432 0.6679,-0.20432 0.4388,0 0.6898,0.23682 0.2506,0.2367 0.2506,0.5886 0,0.2009 -0.073,0.3823 -0.071,0.1806 -0.2267,0.3785 -0.1035,0.1319 -0.3722,0.3783 -0.2689,0.2468 -0.3418,0.3278 -0.071,0.081 -0.1157,0.1583 z"
     id="path769"
     style="fill:#ffffff;stroke-width:0.154899" />
  <path
     d="m 7.0265,6.20056 c 0.1786,0.3576 1.47745,1.9773 1.47745,1.9773 L 9.5881,4.59246 h 2.919"
     fill="none"
     stroke="#ffffff"
     stroke-width="0.619598"
     id="path985" />
  <text
     xml:space="preserve"
     style="color:#000000;font-style:normal;font-variant:normal;font-weight:normal;font-stretch:normal;font-size:5.29174px;line-height:6.61468px;font-family:'Trebuchet MS';-inkscape-font-specification:'Trebuchet MS';text-indent:0;text-align:start;text-decoration:none;text-decoration-line:none;text-decoration-style:solid;text-decoration-color:#000000;letter-spacing:0px;word-spacing:0px;text-transform:none;writing-mode:lr-tb;direction:ltr;baseline-shift:baseline;text-anchor:start;white-space:normal;clip-rule:nonzero;display:inline;overflow:visible;visibility:visible;opacity:1;isolation:auto;mix-blend-mode:normal;color-interpolation:sRGB;color-interpolation-filters:linearRGB;solid-color:#000000;solid-opacity:1;fill:#009100;fill-opacity:1;fill-rule:nonzero;stroke:none;stroke-width:0.264587px;stroke-linecap:butt;stroke-linejoin:miter;stroke-miterlimit:4;stroke-dasharray:none;stroke-dashoffset:0;stroke-opacity:1;color-rendering:auto;image-rendering:auto;shape-rendering:auto;text-rendering:auto;enable-background:accumulate"
     x="22.1706"
     y="25.5869"
     id="text11392"><tspan
       sodipodi:role="line"
       id="tspan11390"
       style="font-style:normal;font-variant:normal;font-weight:normal;font-stretch:normal;font-family:'Trebuchet MS';-inkscape-font-specification:'Trebuchet MS';fill:#009100;stroke-width:0.264587px"
       x="22.1706"
       y="25.5869">square</tspan></text>
  <text
     xml:space="preserve"
     style="color:#000000;font-style:normal;font-variant:normal;font-weight:normal;font-stretch:normal;font-size:5.29174px;line-height:6.61468px;font-family:'Trebuchet MS';-inkscape-font-specification:'Trebuchet MS';text-indent:0;text-align:start;text-decoration:none;text-decoration-line:none;text-decoration-style:solid;text-decoration-color:#000000;letter-spacing:0px;word-spacing:0px;text-transform:none;writing-mode:lr-tb;direction:ltr;baseline-shift:baseline;text-anchor:start;white-space:normal;clip-rule:nonzero;display:inline;overflow:visible;visibility:visible;opacity:1;isolation:auto;mix-blend-mode:normal;color-interpolation:sRGB;color-interpolation-filters:linearRGB;solid-color:#000000;solid-opacity:1;fill:#009100;fill-opacity:1;fill-rule:nonzero;stroke:none;stroke-width:0.264587px;stroke-linecap:butt;stroke-linejoin:miter;stroke-miterlimit:4;stroke-dasharray:none;stroke-dashoffset:0;stroke-opacity:1;color-rendering:auto;image-rendering:auto;shape-rendering:auto;text-rendering:auto;enable-background:accumulate"
     x="1.59055"
     y="25.5869"
     id="text12254"><tspan
       sodipodi:role="line"
       id="tspan12252"
       style="font-style:normal;font-variant:normal;font-weight:normal;font-stretch:normal;font-family:'Trebuchet MS';-inkscape-font-specification:'Trebuchet MS';fill:#009100;stroke-width:0.264587px"
       x="1.59055"
       y="25.5869">square</tspan></text>
  <text
     xml:space="preserve"
     style="color:#000000;font-style:normal;font-variant:normal;font-weight:normal;font-stretch:normal;font-size:5.29174px;line-height:6.61468px;font-family:'Trebuchet MS';-inkscape-font-specification:'Trebuchet MS';text-indent:0;text-align:start;text-decoration:none;text-decoration-line:none;text-decoration-style:solid;text-decoration-color:#000000;letter-spacing:0px;word-spacing:0px;text-transform:none;writing-mode:lr-tb;direction:ltr;baseline-shift:baseline;text-anchor:start;white-space:normal;clip-rule:nonzero;display:inline;overflow:visible;visibility:visible;opacity:1;isolation:auto;mix-blend-mode:normal;color-interpolation:sRGB;color-interpolation-filters:linearRGB;solid-color:#000000;solid-opacity:1;fill:#009100;fill-opacity:1;fill-rule:nonzero;stroke:none;stroke-width:0.264587px;stroke-linecap:butt;stroke-linejoin:miter;stroke-miterlimit:4;stroke-dasharray:none;stroke-dashoffset:0;stroke-opacity:1;color-rendering:auto;image-rendering:auto;shape-rendering:auto;text-rendering:auto;enable-background:accumulate"
     x="4.66418"
     y="30.9323"
     id="text13586"><tspan
       sodipodi:role="line"
       id="tspan13584"
       style="font-style:normal;font-variant:normal;font-weight:normal;font-stretch:normal;font-family:'Trebuchet MS';-inkscape-font-specification:'Trebuchet MS';fill:#009100;stroke-width:0.264587px"
       x="4.66418"
       y="30.9323">root</tspan></text>
  <path
     style="fill:none;fill-rule:evenodd;stroke:#009100;stroke-width:0.820715;stroke-linecap:butt;stroke-linejoin:miter;stroke-miterlimit:4;stroke-dasharray:none;stroke-opacity:1;marker-end:url(#Arrow1Mend1438)"
     d="M 9.60873,21.8564 V 13.1642"
     id="path15547" />
  <path
     style="fill:none;fill-rule:evenodd;stroke:#009100;stroke-width:0.820715;stroke-linecap:butt;stroke-linejoin:miter;stroke-miterlimit:4;stroke-dasharray:none;stroke-opacity:1;marker-end:url(#Arrow1Mend848)"
     d="M 29.1891,21.8564 V 13.1642"
     id="path15923" />
</svg>
