<?xml version="1.0" encoding="UTF-8" standalone="no"?>
<svg
   xmlns:dc="http://purl.org/dc/elements/1.1/"
   xmlns:cc="http://creativecommons.org/ns#"
   xmlns:rdf="http://www.w3.org/1999/02/22-rdf-syntax-ns#"
   xmlns:svg="http://www.w3.org/2000/svg"
   xmlns="http://www.w3.org/2000/svg"
   xmlns:sodipodi="http://sodipodi.sourceforge.net/DTD/sodipodi-0.dtd"
   xmlns:inkscape="http://www.inkscape.org/namespaces/inkscape"
   width="447.667"
   height="193.121"
   version="1.1"
   id="svg58"
   sodipodi:docname="decimal.svg"
   inkscape:version="1.0.1 (3bc2e813f5, 2020-09-07)">
  <metadata
     id="metadata62">
    <rdf:RDF>
      <cc:Work
         rdf:about="">
        <dc:format>image/svg+xml</dc:format>
        <dc:type
           rdf:resource="http://purl.org/dc/dcmitype/StillImage" />
      </cc:Work>
    </rdf:RDF>
  </metadata>
  <sodipodi:namedview
     pagecolor="#ffffff"
     bordercolor="#666666"
     borderopacity="1"
     objecttolerance="10"
     gridtolerance="10"
     guidetolerance="10"
     inkscape:pageopacity="0"
     inkscape:pageshadow="2"
     inkscape:window-width="640"
     inkscape:window-height="480"
     id="namedview60"
     showgrid="false"
     inkscape:current-layer="svg58" />
  <defs
     id="defs8">
    <marker
       style="overflow:visible"
       id="Arrow1Mend"
       refX="0"
       refY="0"
       orient="auto"
       inkscape:stockid="Arrow1Mend"
       inkscape:isstock="true">
      <path
         transform="matrix(-0.4,0,0,-0.4,-4,0)"
         style="fill:#0084c8;fill-opacity:1;fill-rule:evenodd;stroke:#0084c8;stroke-width:1pt;stroke-opacity:1"
         d="M 0,0 5,-5 -12.5,0 5,5 Z"
         id="path931" />
    </marker>
    <marker
       style="overflow:visible"
       id="marker1246"
       refX="0"
       refY="0"
       orient="auto"
       inkscape:stockid="Arrow1Mstart"
       inkscape:isstock="true">
      <path
         transform="matrix(0.4,0,0,0.4,4,0)"
         style="fill:#005c94;fill-opacity:1;fill-rule:evenodd;stroke:#005c94;stroke-width:1pt;stroke-opacity:1"
         d="M 0,0 5,-5 -12.5,0 5,5 Z"
         id="path1244" />
    </marker>
    <marker
       style="overflow:visible"
       id="marker1236"
       refX="0"
       refY="0"
       orient="auto"
       inkscape:stockid="Arrow1Mstart"
       inkscape:isstock="true">
      <path
         transform="matrix(0.4,0,0,0.4,4,0)"
         style="fill:#005c94;fill-opacity:1;fill-rule:evenodd;stroke:#005c94;stroke-width:1pt;stroke-opacity:1"
         d="M 0,0 5,-5 -12.5,0 5,5 Z"
         id="path1234" />
    </marker>
    <marker
       style="overflow:visible"
       id="marker1226"
       refX="0"
       refY="0"
       orient="auto"
       inkscape:stockid="Arrow1Mstart"
       inkscape:isstock="true">
      <path
         transform="matrix(0.4,0,0,0.4,4,0)"
         style="fill:#005c94;fill-opacity:1;fill-rule:evenodd;stroke:#005c94;stroke-width:1pt;stroke-opacity:1"
         d="M 0,0 5,-5 -12.5,0 5,5 Z"
         id="path1224" />
    </marker>
    <marker
       style="overflow:visible"
       id="marker1216"
       refX="0"
       refY="0"
       orient="auto"
       inkscape:stockid="Arrow1Mstart"
       inkscape:isstock="true">
      <path
         transform="matrix(0.4,0,0,0.4,4,0)"
         style="fill:#005c94;fill-opacity:1;fill-rule:evenodd;stroke:#005c94;stroke-width:1pt;stroke-opacity:1"
         d="M 0,0 5,-5 -12.5,0 5,5 Z"
         id="path1214" />
    </marker>
    <marker
       style="overflow:visible"
       id="marker1206"
       refX="0"
       refY="0"
       orient="auto"
       inkscape:stockid="Arrow1Mstart"
       inkscape:isstock="true">
      <path
         transform="matrix(0.4,0,0,0.4,4,0)"
         style="fill:#005c94;fill-opacity:1;fill-rule:evenodd;stroke:#005c94;stroke-width:1pt;stroke-opacity:1"
         d="M 0,0 5,-5 -12.5,0 5,5 Z"
         id="path1204" />
    </marker>
  </defs>
  <g
     transform="matrix(-0.450932,0.011185,0.006746,0.747643,308.171,-127.25)"
     id="g16">
    <path
       style="overflow:visible;fill:#204a87;fill-opacity:0.92;stroke-width:7.2"
       d="m 562.7,370.4 c 0,0 0,0 0,0 0,0 -0.2,0 -0.3,-0.1 -0.2,0 -0.5,-0.1 -0.7,-0.2 -0.4,0 -0.8,-0.2 -1.3,-0.3 -0.6,-0.1 -1.1,-0.2 -1.7,-0.3 -0.8,-0.2 -1.5,-0.3 -2.3,-0.5 -0.9,-0.2 -1.9,-0.3 -2.8,-0.5 -1.1,-0.2 -2.2,-0.4 -3.3,-0.6 -1.3,-0.2 -2.7,-0.5 -4,-0.7 -1.6,-0.3 -3.3,-0.5 -4.9,-0.7 -1.9,-0.3 -3.9,-0.5 -5.8,-0.7 -2.2,-0.2 -4.5,-0.5 -6.7,-0.6 -2.4,-0.2 -4.9,-0.4 -7.3,-0.5 -2.7,-0.2 -5.3,-0.3 -8,-0.4 -2.9,-0.1 -5.7,-0.2 -8.6,-0.3 -3,0 -6,-0.1 -9.1,-0.2 -3.1,0 -6.3,0 -9.4,-0.1 -3.2,0 -6.5,0 -9.7,0 -3.3,0 -6.6,0 -9.9,0 -3.4,0 -6.8,0 -10.1,0 -3.4,0 -6.9,0 -10.3,0 -3.4,0 -6.9,0 -10.3,0.2 -3.4,0 -6.8,0.2 -10.1,0.3 -3.3,0.1 -6.7,0.2 -10,0.4 -3.3,0.1 -6.6,0.3 -9.9,0.5 -3.2,0.2 -6.5,0.4 -9.7,0.6 -3.2,0.2 -6.4,0.4 -9.6,0.6 -3.1,0.2 -6.2,0.4 -9.4,0.6 -3,0.2 -6.1,0.4 -9.1,0.6 -2.9,0.2 -5.8,0.4 -8.8,0.7 -2.9,0.2 -5.7,0.5 -8.6,0.7 -2.8,0.2 -5.6,0.5 -8.4,0.7 -2.8,0.2 -5.5,0.5 -8.3,0.8 -2.7,0.3 -5.4,0.5 -8.1,0.8 -2.7,0.3 -5.4,0.5 -8.1,0.8 -2.7,0.3 -5.4,0.5 -8.1,0.8 -2.7,0.3 -5.4,0.5 -8.2,0.8 -2.7,0.3 -5.5,0.5 -8.2,0.8 -2.7,0.3 -5.5,0.5 -8.2,0.8 -2.8,0.3 -5.5,0.5 -8.3,0.8 -2.8,0.3 -5.6,0.5 -8.4,0.7 -2.8,0.2 -5.6,0.4 -8.4,0.5 -2.9,0.2 -5.8,0.3 -8.7,0.4 -2.9,0.1 -5.9,0.2 -8.8,0.4 -3,0.1 -5.9,0.2 -8.9,0.3 -2.9,0 -5.9,0.2 -8.8,0.2 -2.9,0 -5.8,0.1 -8.7,0.2 -2.8,0 -5.6,0 -8.4,0.1 -2.7,0 -5.4,0 -8.1,0 -2.6,0 -5.2,0 -7.8,0 -2.6,0 -5.1,0 -7.7,0 -2.5,0 -5,-0.1 -7.5,-0.2 -2.4,0 -4.8,-0.1 -7.2,-0.2 -2.3,0 -4.5,-0.2 -6.8,-0.3 -2.1,-0.1 -4.2,-0.3 -6.3,-0.4 -1.9,-0.1 -3.8,-0.3 -5.7,-0.5 -1.7,-0.2 -3.4,-0.4 -5.1,-0.6 -1.5,-0.2 -3.1,-0.5 -4.6,-0.8 -1.4,-0.2 -2.7,-0.5 -4.1,-0.8 -1.2,-0.3 -2.3,-0.5 -3.5,-0.8 -1,-0.2 -2,-0.5 -2.9,-0.8 -0.9,-0.3 -1.8,-0.5 -2.7,-0.8 -0.9,-0.3 -1.7,-0.5 -2.5,-0.8 -0.8,-0.3 -1.7,-0.6 -2.5,-0.8 -0.8,-0.2 -1.5,-0.5 -2.3,-0.8 -0.6,-0.2 -1.2,-0.4 -1.8,-0.6 l 3,4.3 c 0.6,0.2 1.2,0.4 1.7,0.6 0.8,0.2 1.5,0.5 2.3,0.8 0.8,0.3 1.7,0.6 2.5,0.8 0.9,0.3 1.7,0.5 2.6,0.8 0.9,0.3 1.8,0.5 2.7,0.8 1,0.3 2,0.5 3,0.7 1.2,0.3 2.4,0.5 3.6,0.8 1.4,0.3 2.8,0.5 4.2,0.8 1.6,0.3 3.1,0.5 4.7,0.7 1.7,0.2 3.5,0.4 5.2,0.6 1.9,0.2 3.8,0.3 5.8,0.5 2.1,0.1 4.2,0.3 6.4,0.4 2.3,0.1 4.5,0.2 6.8,0.3 2.4,0 4.8,0.1 7.2,0.2 2.5,0 5,0.1 7.5,0.2 2.6,0 5.1,0 7.7,0 2.6,0 5.2,-10e-4 7.8,0 2.7,0 5.4,0 8.1,-0.1 2.8,0 5.6,0 8.5,-0.1 2.9,0 5.8,-0.1 8.7,-0.2 3,0 5.9,-0.2 8.9,-0.3 3,-0.1 5.9,-0.2 8.9,-0.3 3,-0.1 5.9,-0.2 8.9,-0.4 2.9,-0.1 5.8,-0.3 8.7,-0.4 2.8,-0.2 5.7,-0.3 8.5,-0.6 2.8,-0.2 5.6,-0.4 8.4,-0.7 2.8,-0.3 5.5,-0.5 8.3,-0.8 2.7,-0.3 5.5,-0.5 8.2,-0.8 2.7,-0.3 5.5,-0.5 8.2,-0.8 2.7,-0.3 5.5,-0.5 8.2,-0.8 2.7,-0.3 5.4,-0.5 8.1,-0.8 2.7,-0.3 5.4,-0.5 8.1,-0.8 2.7,-0.3 5.4,-0.6 8.1,-0.8 2.8,-0.3 5.5,-0.5 8.3,-0.8 2.8,-0.2 5.6,-0.5 8.4,-0.7 2.9,-0.2 5.7,-0.5 8.6,-0.7 2.9,-0.2 5.8,-0.4 8.8,-0.6 3,-0.2 6,-0.4 9.1,-0.6 3.1,-0.2 6.2,-0.4 9.3,-0.6 3.2,-0.2 6.4,-0.4 9.6,-0.6 3.2,-0.2 6.4,-0.4 9.7,-0.5 3.3,-0.2 6.6,-0.3 9.9,-0.5 3.3,-0.1 6.7,-0.3 10,-0.4 3.4,-0.1 6.7,-0.2 10.1,-0.3 3.4,0 6.9,-0.1 10.3,-0.1 3.4,0 6.9,0 10.3,0 3.4,0 6.8,0 10.1,0 3.3,0 6.6,0 9.9,0 3.2,0 6.5,0 9.7,0 3.1,0 6.3,0 9.4,0.1 3,0 6,0.1 9,0.2 2.9,0.1 5.7,0.2 8.5,0.3 2.6,0.1 5.3,0.3 7.9,0.4 2.4,0.2 4.9,0.3 7.3,0.6 2.2,0.2 4.4,0.4 6.6,0.7 1.9,0.2 3.8,0.5 5.8,0.7 1.6,0.2 3.2,0.5 4.9,0.8 1.3,0.2 2.7,0.5 4,0.7 1.1,0.2 2.2,0.4 3.3,0.6 0.9,0.2 1.9,0.3 2.8,0.5 0.8,0.2 1.5,0.3 2.3,0.5 0.6,0.1 1.1,0.2 1.7,0.4 0.4,0 0.8,0.2 1.3,0.3 0.3,0 0.6,0 0.8,0.1 0.2,0 0.3,0 0.5,0 0,0 0.1,0 0.2,0 l -3.8,-3.9 z"
       id="path10" />
    <path
       style="overflow:visible;fill:#204a87;fill-opacity:0.92;stroke-width:7.2"
       d="m 526.8,355.8 c 0,-0.2 -0.1,-0.5 -0.2,-0.8 0,0 0,-0.2 -0.1,-0.3 0.1,0 0.3,0.2 0.4,0.2 0.2,0.1 0.5,0.2 0.7,0.3 0.4,0.1 0.8,0.3 1.2,0.4 0.5,0.2 1.1,0.4 1.6,0.6 0.6,0.2 1.2,0.4 1.8,0.7 0.7,0.2 1.3,0.5 2,0.8 0.7,0.3 1.5,0.6 2.2,0.9 0.8,0.3 1.6,0.6 2.4,0.9 0.9,0.3 1.7,0.5 2.6,0.8 0.9,0.3 1.8,0.5 2.7,0.8 0.9,0.2 1.8,0.5 2.7,0.7 0.9,0.2 1.8,0.5 2.6,0.8 0.8,0.2 1.6,0.5 2.4,0.8 0.8,0.3 1.6,0.5 2.3,0.7 0.8,0.2 1.5,0.5 2.3,0.7 0.7,0.2 1.5,0.5 2.2,0.7 0.7,0.3 1.5,0.5 2.2,0.7 0.8,0.2 1.5,0.5 2.3,0.7 0.8,0.2 1.6,0.4 2.4,0.6 0.9,0.2 1.7,0.3 2.6,0.5 0.9,0.1 1.9,0.3 2.8,0.4 0.9,0.1 1.7,0.3 2.6,0.4 0.8,0.1 1.5,0.2 2.3,0.3 l -4.4,3.2 c -0.8,-0.1 -1.5,-0.2 -2.3,-0.3 -0.9,-0.1 -1.7,-0.3 -2.6,-0.4 -1,-0.2 -1.9,-0.3 -2.9,-0.5 -0.9,-0.2 -1.8,-0.4 -2.7,-0.6 -0.8,-0.2 -1.7,-0.4 -2.5,-0.7 -0.8,-0.2 -1.6,-0.5 -2.4,-0.8 -0.7,-0.3 -1.5,-0.5 -2.2,-0.8 -0.7,-0.2 -1.4,-0.5 -2.2,-0.7 -0.8,-0.2 -1.5,-0.5 -2.3,-0.7 -0.8,-0.2 -1.6,-0.5 -2.3,-0.7 -0.8,-0.2 -1.6,-0.5 -2.4,-0.7 -0.9,-0.2 -1.7,-0.5 -2.6,-0.7 -0.9,-0.3 -1.8,-0.5 -2.7,-0.8 -0.9,-0.3 -1.8,-0.5 -2.7,-0.8 -0.9,-0.3 -1.8,-0.6 -2.7,-0.9 -0.8,-0.3 -1.7,-0.6 -2.5,-1 -0.7,-0.3 -1.5,-0.6 -2.2,-0.9 -0.7,-0.2 -1.3,-0.5 -2,-0.7 -0.6,-0.2 -1.2,-0.4 -1.8,-0.7 -0.5,-0.2 -1.1,-0.4 -1.6,-0.6 -0.5,-0.2 -0.9,-0.4 -1.4,-0.6 -0.3,-0.2 -0.6,-0.3 -0.8,-0.5 -0.1,0 -0.2,-0.1 -0.3,-0.2 -0.1,-0.2 -0.4,-0.3 -0.4,-0.5 0,-0.3 -0.3,-0.5 -0.3,-0.8 h 6 z"
       id="path12" />
    <path
       style="overflow:visible;fill:#204a87;fill-opacity:0.92;stroke-width:7.2"
       d="m 523.4,377.6 c 0,0 0,-0.2 0,-0.3 0,-0.2 0.2,-0.4 0.2,-0.6 0.2,-0.3 0.5,-0.5 0.8,-0.7 0.4,-0.3 1,-0.4 1.4,-0.7 0.6,-0.2 1.3,-0.4 1.9,-0.6 0.8,-0.2 1.6,-0.4 2.3,-0.6 0.8,-0.2 1.7,-0.3 2.5,-0.5 2.3,-0.4 4.7,-0.7 7,-1.1 0.8,-0.1 1.7,-0.2 2.6,-0.3 0.9,-0.1 1.7,-0.2 2.6,-0.3 0.8,-0.1 1.7,-0.2 2.6,-0.3 0.9,0 1.8,-0.2 2.7,-0.2 0.9,0 1.7,-0.1 2.6,-0.2 0.8,0 1.7,-0.1 2.5,-0.2 0.9,0 1.7,-0.1 2.6,-0.2 0.8,0 1.7,-0.1 2.5,-0.2 0.8,0 1.6,0 2.5,-0.1 0.8,0 1.5,0 2.3,0 0.8,0 1.5,0 2.3,0 0.8,0 1.6,0 2.4,0.1 0.8,0 1.5,0 2.3,0.1 0.6,0 1.2,0 1.8,0.1 0.2,0 0.4,0 0.5,0 l -4.3,3.3 c -0.2,0 -0.3,0 -0.5,0 -0.6,0 -1.2,0 -1.8,-0.1 -0.7,0 -1.5,0 -2.2,-0.1 -0.8,0 -1.6,0 -2.3,0 -0.7,0 -1.5,0 -2.2,0 -0.8,0 -1.5,0 -2.3,0 -0.8,0 -1.6,0 -2.4,0.2 -0.8,0 -1.7,0.1 -2.5,0.2 -0.9,0 -1.7,0.1 -2.6,0.2 -0.8,0 -1.7,0.1 -2.5,0.2 -0.9,0 -1.7,0.1 -2.6,0.2 -0.9,0 -1.8,0.2 -2.6,0.3 -0.8,0 -1.7,0.2 -2.5,0.3 -0.9,0.1 -1.7,0.2 -2.6,0.3 -0.8,0.1 -1.7,0.2 -2.5,0.4 0.8,-0.1 3,-0.5 2.3,-0.4 -0.8,0.1 -1.7,0.3 -2.5,0.4 -0.8,0.1 -1.5,0.3 -2.3,0.4 -0.6,0.1 -1.2,0.3 -1.8,0.4 -0.4,0.1 -0.9,0.2 -1.3,0.4 -0.2,0 -0.4,0.1 -0.6,0.2 0,0 -0.2,0 -0.2,-0.1 0,-10e-4 0,-0.3 0,-0.2 h -6 z"
       id="path14" />
  </g>
  <text
     x="147.482"
     y="116.509"
     style="font-weight:bold;font-size:49.5px;font-family:'Courier New';overflow:visible;fill:#0084c8;stroke-width:1px"
     id="text18">.</text>
  <path
     style="overflow:visible;fill:#0084c8;stroke:#0084c8;stroke-width:1.35;marker-end:url(#Arrow1Mend)"
     d="m 162.05,41.2094 v 52.9"
     id="path20" />
  <text
     x="112.05"
     y="34.5094"
     style="font-size:16.4px;font-family:'Comic Sans MS';overflow:visible;fill:#0084c8;stroke-width:1px"
     id="text22">Decimal Point</text>
  <path
     style="overflow:visible;fill:none;stroke:#005c94;stroke-width:1.35;stroke-miterlimit:4;stroke-dasharray:none;marker-start:url(#marker1206)"
     d="m 195.75,79.0094 67.1,-67.1 h 35.4"
     id="path24" />
  <path
     style="overflow:visible;fill:none;stroke:#005c94;stroke-width:1.35;stroke-miterlimit:4;stroke-dasharray:none;marker-start:url(#marker1216)"
     d="m 225.65,78.3094 48.2,-46.7 h 22"
     id="path26" />
  <path
     style="overflow:visible;fill:none;stroke:#005c94;stroke-width:1.35;stroke-miterlimit:4;stroke-dasharray:none;marker-start:url(#marker1226)"
     d="m 253.25,79.1094 26.5,-27 h 13.9"
     id="path28" />
  <path
     style="overflow:visible;fill:none;stroke:#005c94;stroke-width:1.35;stroke-miterlimit:4;stroke-dasharray:none;marker-start:url(#marker1236)"
     d="m 125.05,78.3094 -49.8996,-48.7 h -26.4"
     id="path30" />
  <path
     style="overflow:visible;fill:none;stroke:#005c94;stroke-width:1.35;stroke-miterlimit:4;stroke-dasharray:none;marker-start:url(#marker1246)"
     d="m 94.6504,79.6094 -33.1,-31.1 h -21.3"
     id="path32" />
  <text
     x="6.9504"
     y="28.4094"
     style="font-size:15px;font-family:'Comic Sans MS';overflow:visible;fill:#005c94;stroke-width:1px"
     id="text34">Ones</text>
  <text
     x="-0.849609"
     y="49.3094"
     style="font-size:15px;font-family:'Comic Sans MS';overflow:visible;fill:#005c94;stroke-width:1px"
     id="text36">Tens</text>
  <text
     x="302.65"
     y="11.9094"
     style="font-size:15px;font-family:'Comic Sans MS';overflow:visible;fill:#005c94;stroke-width:1px"
     id="text38">1/10 (tenths)</text>
  <text
     x="301.25"
     y="32.8094"
     style="font-size:15px;font-family:'Comic Sans MS';overflow:visible;fill:#005c94;stroke-width:1px"
     id="text40">1/100 (hundredths)</text>
  <text
     x="297.85"
     y="54.6094"
     style="font-size:15px;font-family:'Comic Sans MS';overflow:visible;fill:#005c94;stroke-width:1px"
     id="text42">1/1000 (thousandths)</text>
  <g
     transform="matrix(0.443093,-0.011185,-0.006629,-0.747643,53.0545,464.199)"
     id="g50">
    <path
       style="overflow:visible;fill:#ef2929;fill-opacity:0.92;stroke-width:7.2"
       d="m 562.7,370.4 c 0,0 0,0 0,0 0,0 -0.2,0 -0.3,-0.1 -0.2,0 -0.5,-0.1 -0.7,-0.2 -0.4,0 -0.8,-0.2 -1.3,-0.3 -0.6,-0.1 -1.1,-0.2 -1.7,-0.3 -0.8,-0.2 -1.5,-0.3 -2.3,-0.5 -0.9,-0.2 -1.9,-0.3 -2.8,-0.5 -1.1,-0.2 -2.2,-0.4 -3.3,-0.6 -1.3,-0.2 -2.7,-0.5 -4,-0.7 -1.6,-0.3 -3.3,-0.5 -4.9,-0.7 -1.9,-0.3 -3.9,-0.5 -5.8,-0.7 -2.2,-0.2 -4.5,-0.5 -6.7,-0.6 -2.4,-0.2 -4.9,-0.4 -7.3,-0.5 -2.7,-0.2 -5.3,-0.3 -8,-0.4 -2.9,-0.1 -5.7,-0.2 -8.6,-0.3 -3,0 -6,-0.1 -9.1,-0.2 -3.1,0 -6.3,0 -9.4,-0.1 -3.2,0 -6.5,0 -9.7,0 -3.3,0 -6.6,0 -9.9,0 -3.4,0 -6.8,0 -10.1,0 -3.4,0 -6.9,0 -10.3,0 -3.4,0 -6.9,0 -10.3,0.2 -3.4,0 -6.8,0.2 -10.1,0.3 -3.3,0.1 -6.7,0.2 -10,0.4 -3.3,0.1 -6.6,0.3 -9.9,0.5 -3.2,0.2 -6.5,0.4 -9.7,0.6 -3.2,0.2 -6.4,0.4 -9.6,0.6 -3.1,0.2 -6.2,0.4 -9.4,0.6 -3,0.2 -6.1,0.4 -9.1,0.6 -2.9,0.2 -5.8,0.4 -8.8,0.7 -2.9,0.2 -5.7,0.5 -8.6,0.7 -2.8,0.2 -5.6,0.5 -8.4,0.7 -2.8,0.2 -5.5,0.5 -8.3,0.8 -2.7,0.3 -5.4,0.5 -8.1,0.8 -2.7,0.3 -5.4,0.5 -8.1,0.8 -2.7,0.3 -5.4,0.5 -8.1,0.8 -2.7,0.3 -5.4,0.5 -8.2,0.8 -2.7,0.3 -5.5,0.5 -8.2,0.8 -2.7,0.3 -5.5,0.5 -8.2,0.8 -2.8,0.3 -5.5,0.5 -8.3,0.8 -2.8,0.3 -5.6,0.5 -8.4,0.7 -2.8,0.2 -5.6,0.4 -8.4,0.5 -2.9,0.2 -5.8,0.3 -8.7,0.4 -2.9,0.1 -5.9,0.2 -8.8,0.4 -3,0.1 -5.9,0.2 -8.9,0.3 -2.9,0 -5.9,0.2 -8.8,0.2 -2.9,0 -5.8,0.1 -8.7,0.2 -2.8,0 -5.6,0 -8.4,0.1 -2.7,0 -5.4,0 -8.1,0 -2.6,0 -5.2,0 -7.8,0 -2.6,0 -5.1,0 -7.7,0 -2.5,0 -5,-0.1 -7.5,-0.2 -2.4,0 -4.8,-0.1 -7.2,-0.2 -2.3,0 -4.5,-0.2 -6.8,-0.3 -2.1,-0.1 -4.2,-0.3 -6.3,-0.4 -1.9,-0.1 -3.8,-0.3 -5.7,-0.5 -1.7,-0.2 -3.4,-0.4 -5.1,-0.6 -1.5,-0.2 -3.1,-0.5 -4.6,-0.8 -1.4,-0.2 -2.7,-0.5 -4.1,-0.8 -1.2,-0.3 -2.3,-0.5 -3.5,-0.8 -1,-0.2 -2,-0.5 -2.9,-0.8 -0.9,-0.3 -1.8,-0.5 -2.7,-0.8 -0.9,-0.3 -1.7,-0.5 -2.5,-0.8 -0.8,-0.3 -1.7,-0.6 -2.5,-0.8 -0.8,-0.2 -1.5,-0.5 -2.3,-0.8 -0.6,-0.2 -1.2,-0.4 -1.8,-0.6 l 3,4.3 c 0.6,0.2 1.2,0.4 1.7,0.6 0.8,0.2 1.5,0.5 2.3,0.8 0.8,0.3 1.7,0.6 2.5,0.8 0.9,0.3 1.7,0.5 2.6,0.8 0.9,0.3 1.8,0.5 2.7,0.8 1,0.3 2,0.5 3,0.7 1.2,0.3 2.4,0.5 3.6,0.8 1.4,0.3 2.8,0.5 4.2,0.8 1.6,0.3 3.1,0.5 4.7,0.7 1.7,0.2 3.5,0.4 5.2,0.6 1.9,0.2 3.8,0.3 5.8,0.5 2.1,0.1 4.2,0.3 6.4,0.4 2.3,0.1 4.5,0.2 6.8,0.3 2.4,0 4.8,0.1 7.2,0.2 2.5,0 5,0.1 7.5,0.2 2.6,0 5.1,0 7.7,0 2.6,0 5.2,-10e-4 7.8,0 2.7,0 5.4,0 8.1,-0.1 2.8,0 5.6,0 8.5,-0.1 2.9,0 5.8,-0.1 8.7,-0.2 3,0 5.9,-0.2 8.9,-0.3 3,-0.1 5.9,-0.2 8.9,-0.3 3,-0.1 5.9,-0.2 8.9,-0.4 2.9,-0.1 5.8,-0.3 8.7,-0.4 2.8,-0.2 5.7,-0.3 8.5,-0.6 2.8,-0.2 5.6,-0.4 8.4,-0.7 2.8,-0.3 5.5,-0.5 8.3,-0.8 2.7,-0.3 5.5,-0.5 8.2,-0.8 2.7,-0.3 5.5,-0.5 8.2,-0.8 2.7,-0.3 5.5,-0.5 8.2,-0.8 2.7,-0.3 5.4,-0.5 8.1,-0.8 2.7,-0.3 5.4,-0.5 8.1,-0.8 2.7,-0.3 5.4,-0.6 8.1,-0.8 2.8,-0.3 5.5,-0.5 8.3,-0.8 2.8,-0.2 5.6,-0.5 8.4,-0.7 2.9,-0.2 5.7,-0.5 8.6,-0.7 2.9,-0.2 5.8,-0.4 8.8,-0.6 3,-0.2 6,-0.4 9.1,-0.6 3.1,-0.2 6.2,-0.4 9.3,-0.6 3.2,-0.2 6.4,-0.4 9.6,-0.6 3.2,-0.2 6.4,-0.4 9.7,-0.5 3.3,-0.2 6.6,-0.3 9.9,-0.5 3.3,-0.1 6.7,-0.3 10,-0.4 3.4,-0.1 6.7,-0.2 10.1,-0.3 3.4,0 6.9,-0.1 10.3,-0.1 3.4,0 6.9,0 10.3,0 3.4,0 6.8,0 10.1,0 3.3,0 6.6,0 9.9,0 3.2,0 6.5,0 9.7,0 3.1,0 6.3,0 9.4,0.1 3,0 6,0.1 9,0.2 2.9,0.1 5.7,0.2 8.5,0.3 2.6,0.1 5.3,0.3 7.9,0.4 2.4,0.2 4.9,0.3 7.3,0.6 2.2,0.2 4.4,0.4 6.6,0.7 1.9,0.2 3.8,0.5 5.8,0.7 1.6,0.2 3.2,0.5 4.9,0.8 1.3,0.2 2.7,0.5 4,0.7 1.1,0.2 2.2,0.4 3.3,0.6 0.9,0.2 1.9,0.3 2.8,0.5 0.8,0.2 1.5,0.3 2.3,0.5 0.6,0.1 1.1,0.2 1.7,0.4 0.4,0 0.8,0.2 1.3,0.3 0.3,0 0.6,0 0.8,0.1 0.2,0 0.3,0 0.5,0 0,0 0.1,0 0.2,0 l -3.8,-3.9 z"
       id="path44" />
    <path
       style="overflow:visible;fill:#ef2929;fill-opacity:0.92;stroke-width:7.2"
       d="m 526.8,355.8 c 0,-0.2 -0.1,-0.5 -0.2,-0.8 0,0 0,-0.2 -0.1,-0.3 0.1,0 0.3,0.2 0.4,0.2 0.2,0.1 0.5,0.2 0.7,0.3 0.4,0.1 0.8,0.3 1.2,0.4 0.5,0.2 1.1,0.4 1.6,0.6 0.6,0.2 1.2,0.4 1.8,0.7 0.7,0.2 1.3,0.5 2,0.8 0.7,0.3 1.5,0.6 2.2,0.9 0.8,0.3 1.6,0.6 2.4,0.9 0.9,0.3 1.7,0.5 2.6,0.8 0.9,0.3 1.8,0.5 2.7,0.8 0.9,0.2 1.8,0.5 2.7,0.7 0.9,0.2 1.8,0.5 2.6,0.8 0.8,0.2 1.6,0.5 2.4,0.8 0.8,0.3 1.6,0.5 2.3,0.7 0.8,0.2 1.5,0.5 2.3,0.7 0.7,0.2 1.5,0.5 2.2,0.7 0.7,0.3 1.5,0.5 2.2,0.7 0.8,0.2 1.5,0.5 2.3,0.7 0.8,0.2 1.6,0.4 2.4,0.6 0.9,0.2 1.7,0.3 2.6,0.5 0.9,0.1 1.9,0.3 2.8,0.4 0.9,0.1 1.7,0.3 2.6,0.4 0.8,0.1 1.5,0.2 2.3,0.3 l -4.4,3.2 c -0.8,-0.1 -1.5,-0.2 -2.3,-0.3 -0.9,-0.1 -1.7,-0.3 -2.6,-0.4 -1,-0.2 -1.9,-0.3 -2.9,-0.5 -0.9,-0.2 -1.8,-0.4 -2.7,-0.6 -0.8,-0.2 -1.7,-0.4 -2.5,-0.7 -0.8,-0.2 -1.6,-0.5 -2.4,-0.8 -0.7,-0.3 -1.5,-0.5 -2.2,-0.8 -0.7,-0.2 -1.4,-0.5 -2.2,-0.7 -0.8,-0.2 -1.5,-0.5 -2.3,-0.7 -0.8,-0.2 -1.6,-0.5 -2.3,-0.7 -0.8,-0.2 -1.6,-0.5 -2.4,-0.7 -0.9,-0.2 -1.7,-0.5 -2.6,-0.7 -0.9,-0.3 -1.8,-0.5 -2.7,-0.8 -0.9,-0.3 -1.8,-0.5 -2.7,-0.8 -0.9,-0.3 -1.8,-0.6 -2.7,-0.9 -0.8,-0.3 -1.7,-0.6 -2.5,-1 -0.7,-0.3 -1.5,-0.6 -2.2,-0.9 -0.7,-0.2 -1.3,-0.5 -2,-0.7 -0.6,-0.2 -1.2,-0.4 -1.8,-0.7 -0.5,-0.2 -1.1,-0.4 -1.6,-0.6 -0.5,-0.2 -0.9,-0.4 -1.4,-0.6 -0.3,-0.2 -0.6,-0.3 -0.8,-0.5 -0.1,0 -0.2,-0.1 -0.3,-0.2 -0.1,-0.2 -0.4,-0.3 -0.4,-0.5 0,-0.3 -0.3,-0.5 -0.3,-0.8 h 6 z"
       id="path46" />
    <path
       style="overflow:visible;fill:#ef2929;fill-opacity:0.92;stroke-width:7.2"
       d="m 523.4,377.6 c 0,0 0,-0.2 0,-0.3 0,-0.2 0.2,-0.4 0.2,-0.6 0.2,-0.3 0.5,-0.5 0.8,-0.7 0.4,-0.3 1,-0.4 1.4,-0.7 0.6,-0.2 1.3,-0.4 1.9,-0.6 0.8,-0.2 1.6,-0.4 2.3,-0.6 0.8,-0.2 1.7,-0.3 2.5,-0.5 2.3,-0.4 4.7,-0.7 7,-1.1 0.8,-0.1 1.7,-0.2 2.6,-0.3 0.9,-0.1 1.7,-0.2 2.6,-0.3 0.8,-0.1 1.7,-0.2 2.6,-0.3 0.9,0 1.8,-0.2 2.7,-0.2 0.9,0 1.7,-0.1 2.6,-0.2 0.8,0 1.7,-0.1 2.5,-0.2 0.9,0 1.7,-0.1 2.6,-0.2 0.8,0 1.7,-0.1 2.5,-0.2 0.8,0 1.6,0 2.5,-0.1 0.8,0 1.5,0 2.3,0 0.8,0 1.5,0 2.3,0 0.8,0 1.6,0 2.4,0.1 0.8,0 1.5,0 2.3,0.1 0.6,0 1.2,0 1.8,0.1 0.2,0 0.4,0 0.5,0 l -4.3,3.3 c -0.2,0 -0.3,0 -0.5,0 -0.6,0 -1.2,0 -1.8,-0.1 -0.7,0 -1.5,0 -2.2,-0.1 -0.8,0 -1.6,0 -2.3,0 -0.7,0 -1.5,0 -2.2,0 -0.8,0 -1.5,0 -2.3,0 -0.8,0 -1.6,0 -2.4,0.2 -0.8,0 -1.7,0.1 -2.5,0.2 -0.9,0 -1.7,0.1 -2.6,0.2 -0.8,0 -1.7,0.1 -2.5,0.2 -0.9,0 -1.7,0.1 -2.6,0.2 -0.9,0 -1.8,0.2 -2.6,0.3 -0.8,0 -1.7,0.2 -2.5,0.3 -0.9,0.1 -1.7,0.2 -2.6,0.3 -0.8,0.1 -1.7,0.2 -2.5,0.4 0.8,-0.1 3,-0.5 2.3,-0.4 -0.8,0.1 -1.7,0.3 -2.5,0.4 -0.8,0.1 -1.5,0.3 -2.3,0.4 -0.6,0.1 -1.2,0.3 -1.8,0.4 -0.4,0.1 -0.9,0.2 -1.3,0.4 -0.2,0 -0.4,0.1 -0.6,0.2 0,0 -0.2,0 -0.2,-0.1 0,-10e-4 0,-0.3 0,-0.2 h -6 z"
       id="path48" />
  </g>
  <text
     x="79.8504"
     y="145.109"
     style="font-size:15px;font-family:'Comic Sans MS';overflow:visible;opacity:0.85;fill:#204a87;stroke-width:1px"
     id="text52">10x Bigger</text>
  <text
     x="198.15"
     y="177.809"
     style="font-size:15px;font-family:'Comic Sans MS';overflow:visible;opacity:0.85;fill:#ef2929;stroke-width:1px"
     id="text54">10x Smaller</text>
  <text
     x="86.8504"
     y="116.509"
     style="font-weight:bold;font-size:49.5px;font-family:'Courier New';overflow:visible;fill:#3465a4;stroke-width:1px"
     id="text1466">17</text>
  <text
     x="178.393"
     y="116.509"
     style="font-weight:bold;font-size:49.5px;font-family:'Courier New';overflow:visible;fill:#3465a4;stroke-width:1px"
     id="text1468">591</text>
</svg>
