<?xml version="1.0" encoding="UTF-8" standalone="no"?>
<!-- Copyright 2017 mathsisfun.com -->

<svg
   xmlns:dc="http://purl.org/dc/elements/1.1/"
   xmlns:cc="http://creativecommons.org/ns#"
   xmlns:rdf="http://www.w3.org/1999/02/22-rdf-syntax-ns#"
   xmlns:svg="http://www.w3.org/2000/svg"
   xmlns="http://www.w3.org/2000/svg"
   xmlns:sodipodi="http://sodipodi.sourceforge.net/DTD/sodipodi-0.dtd"
   xmlns:inkscape="http://www.inkscape.org/namespaces/inkscape"
   width="237.149"
   height="101.789"
   version="1.1"
   id="svg34"
   sodipodi:docname="decimal-fraction.svg"
   inkscape:version="0.92.2 (5c3e80d, 2017-08-06)">
  <metadata
     id="metadata38">
    <rdf:RDF>
      <cc:Work
         rdf:about="">
        <dc:format>image/svg+xml</dc:format>
        <dc:type
           rdf:resource="http://purl.org/dc/dcmitype/StillImage" />
        <dc:title></dc:title>
      </cc:Work>
    </rdf:RDF>
  </metadata>
  <sodipodi:namedview
     pagecolor="#ffffff"
     bordercolor="#666666"
     borderopacity="1"
     objecttolerance="10"
     gridtolerance="10"
     guidetolerance="10"
     inkscape:pageopacity="0"
     inkscape:pageshadow="2"
     inkscape:window-width="640"
     inkscape:window-height="480"
     id="namedview36"
     showgrid="false"
     inkscape:current-layer="svg34" />
  <defs
     id="defs2" />
  <path
     style="color:#000000;overflow:visible;fill:#0000ff;stroke:none;stroke-width:0.527469;stroke-opacity:0.48"
     d="m 16.6105,9.80828 c -7.51562,-2.7357 4.3972,1.81262 3.4662,-3.8935 0.2909,7.13672 -1.1716,15.89342 -2.4113,21.97832 -0.3449,-5.5026 -9.35014,-0.9098 -2.8383,-5.9033 6.6446,-8.9703 23.0845,-4.7502 22.7817,6.8576 -0.6275,11.5219 -13.0824,22.8732 -24.6404,17.4814 -6.55647,-0.4015 -1.793,-6.4374 0.1758,-8.0629 6.7291,5.8901 16.0713,-1.0532 17.1553,-8.6397 0.9256,-6.4864 -8.6193,-6.8271 -11.127,-1.8337 -6.4316,8.8471 -10.69757,-2.7169 -7.2339,-8.8666 1.9941,-4.8157 -2.05279,-18.901918 7.2339,-15.22132 -3.1273,-3.534798 -2.6669,2.1829 -2.562,4.592 0,0.5036 0,1.008 0,1.5117 z"
     id="path4"
     inkscape:connector-curvature="0" />
  <path
     style="color:#000000;overflow:visible;fill:#0000ff;stroke:none;stroke-width:0.527469;stroke-opacity:0.48"
     d="m 16.083,3.22748 c -5.4981,1.0127 7.8845,-1.5242 10.6247,-0.9551 5.2268,0.6479 13.1019,-5.2218 13.1043,3.0499 -0.044,5.39032 -12.353,2.9408 -16.7212,4.3098 -3.5391,0.1208 -5.018,0.51302 -5.4415,0.23 -3.0281,2.09642 -0.9527,-5.1861 -1.5663,-6.6346 z"
     id="path6"
     inkscape:connector-curvature="0" />
  <path
     style="color:#000000;overflow:visible;fill:#0000ff;stroke:none;stroke-width:0.527469;stroke-opacity:0.48"
     d="M 41.3165,13.1188 C 37.3583,8.9756 45.7154,3.34988 51.6243,0.941582 63.6501,-4.13602 68.3195,12.6204 61.3448,20.2318 61.0525,25.4092 47.3094,31.3071 48.7813,28.622 c 2.1656,-5.193 -5.0909,-6.4903 2.8933,-5.9032 10.2165,-1.3067 17.2168,10.8117 9.6953,18.4863 -5.5417,8.7442 -18.9426,7.3877 -24.3137,-0.7032 -1.3793,-1.5507 4.5076,-5.6811 5.6262,-4.4462 2.7492,4.4127 10.0933,5.8807 13.0361,0.7539 4.0565,-4.1445 -0.096,-7.6481 -4.8477,-6.9074 C 43.1401,33.3621 39.7392,22.495 48.4344,22.0405 54.5988,20.9903 59.0586,10.0876 56.0381,7.96192 50.6342,4.98382 45.2748,17.262 41.3165,13.1188 Z"
     id="path8"
     inkscape:connector-curvature="0"
     sodipodi:nodetypes="zcccccccccccz" />
  <path
     style="color:#000000;overflow:visible;fill:#0000ff;stroke:none;stroke-width:0.527469;stroke-opacity:0.48"
     d="m 4.00148,53.1107 c 19.43672,-1.3878 39.55932,0.3711 59.07642,-2.7123 4.4574,-0.1263 12.6894,-2.9548 10.3276,4.1865 -0.5597,5.9415 -12.2428,1.2388 -17.0339,3.9262 -17.4093,1.7955 -34.9639,0.5387 -52.37012,1.783 0,-2.3942 0,-4.7892 0,-7.1834 z"
     id="path10"
     inkscape:connector-curvature="0" />
  <path
     style="color:#000000;overflow:visible;fill:#0000ff;stroke:none;stroke-width:0.527469;stroke-opacity:0.48"
     d="m 2.1679,66.6238 c 3.91786,-6.1987 13.9672,-5.7247 11.5792,3.4662 0.01,10.7937 -3.0386,21.2547 -5.40026,31.699 -4.62279,-0.702 -9.66914,-1.251 -5.65147,-7.3603 2.20102,-8.933 4.19096,-18.053 3.91834,-27.302 2.66961,3.3882 6.69589,0.3056 1.10517,4.295 -4.78924,5.488 -8.9534,2.509 -7.381156,-3.5256 C 2.1679,66.6238 1.43257,67.2592 2.1679,66.6238 Z"
     id="path12"
     inkscape:connector-curvature="0"
     sodipodi:nodetypes="cccccccc" />
  <path
     style="color:#000000;overflow:visible;fill:#0000ff;stroke:none;stroke-width:0.527469;stroke-opacity:0.48"
     d="m 27.4612,74.5607 c -3.8705,5.909 -4.5416,17.367 3.843,19.567 7.628,-2.568 11.5855,-13.006 9.4442,-20.496 -1.6555,-5.5375 -7.6889,-0.185 -9.0177,-4.1358 -6.7408,-6.4568 7.9477,-7.9061 11.5294,-3.7008 8.9048,7.1536 5.334,20.8686 -0.6593,28.7656 -4.389,7.0963 -14.7829,9.2963 -20.4896,2.33 -8.3229,-9.42 -4.2176,-23.975 3.6672,-32.2011 7.6359,1.6169 2.8774,8.5421 1.6828,9.8711 z"
     id="path14"
     inkscape:connector-curvature="0"
     sodipodi:nodetypes="ccccccccc" />
  <path
     style="color:#000000;overflow:visible;fill:#0000ff;stroke:none;stroke-width:0.527469;stroke-opacity:0.48"
     d="m 63.7242,69.815 c -0.2885,1.2524 -6.5061,8.3698 -8.0973,15.3143 -1.5911,6.9445 7.3905,11.9059 9.6888,4.8611 2.2983,-7.0448 9.1043,-15.8847 3.0872,-20.0758 -3.3989,0.7227 -3.3518,-4.1842 -5.1241,-6.3297 10.9039,-5.0621 16.5015,10.3403 12.91,19.0084 -3.5915,8.6681 -6.627,18.7237 -16.9288,18.1657 -9.9282,-1.1453 -12.1101,-13.2073 -9.0109,-21.0363 2.6195,-6.728 6.8851,-14.4962 10.5916,-15.6337 3.7064,-1.1374 3.1719,4.4735 2.8835,5.726 z"
     id="path16"
     inkscape:connector-curvature="0"
     sodipodi:nodetypes="zzzcczcczz" />
  <path
     style="color:#000000;overflow:visible;fill:#0000ff;stroke:none;stroke-width:0.527469;stroke-opacity:0.48"
     d="m 89.6523,45.1991 c 7.1312,-2.6188 15.5177,-0.8116 23.1217,-1.001 4.524,0.7195 13.193,-1.5601 10.375,5.4401 -1.378,5.6133 -12.505,-0.428 -17.434,1.4915 -4.988,-1.3402 -13.5055,2.4752 -12.2199,-1.8127 -1.2809,-1.3729 -2.5618,-2.745 -3.8428,-4.1179 z"
     id="path18"
     inkscape:connector-curvature="0" />
  <path
     style="color:#000000;overflow:visible;fill:#0000ff;stroke:none;stroke-width:0.527469;stroke-opacity:0.48"
     d="m 93.1684,57.6574 c 9.2136,-1.5787 18.5296,0.5403 27.7306,1.3308 3.278,-0.7203 3.684,10.1608 -1.432,7.1585 -7.971,-1.1632 -15.963,-2.204 -24.0377,-1.7331 1.5164,-0.6502 -2.0925,-5.2897 -2.2609,-6.7562 z"
     id="path20"
     inkscape:connector-curvature="0" />
  <path
     style="color:#000000;overflow:visible;fill:#0000ff;stroke:none;stroke-width:0.527469;stroke-opacity:0.48"
     d="m 151.693,49.6694 c -3.172,5.8823 -6.839,18.0116 1.733,20.6716 8.325,-1.3947 10.108,-12.3406 11.268,-19.3782 1.681,-4.6535 -1.534,-13.7837 -7.4,-9.431 -0.767,6.293 -11.357,-0.2487 -6.942,-3.0834 5.961,-9.8193 22.302,-4.4267 21.51,6.9511 0.577,10.6574 -2.474,22.5286 -10.687,29.7732 -6.739,5.115 -17.187,1.399 -19.213,-6.8096 -2.557,-8.8291 0.466,-18.9291 6.189,-25.902 2.294,-3.3789 1.081,-5.7755 4.647,-1.5187 3.566,4.2567 -0.127,4.9638 -1.105,8.727 z"
     id="path22"
     inkscape:connector-curvature="0"
     sodipodi:nodetypes="ccccccccczc" />
  <path
     style="color:#000000;overflow:visible;fill:#0000ff;stroke:none;stroke-width:0.627203;stroke-opacity:0.48"
     d="m 169.848,72.9694 c -2.137,-10.1993 5.733,-6.8222 6.928,-5.9673 1.195,0.8548 3.393,2.4248 1.086,5.269 -2.307,2.8442 -6.518,3.6556 -8.014,0.6983 z"
     id="path24"
     inkscape:connector-curvature="0"
     sodipodi:nodetypes="czzc" />
  <path
     style="color:#000000;overflow:visible;fill:#0000ff;stroke:none;stroke-width:0.527469;stroke-opacity:0.48"
     d="m 187.385,34.6243 c 10.736,-4.2738 4.085,11.8713 4.144,17.055 0.727,6.8014 -1.662,1.8625 -3.943,1.2809 6.815,-4.1749 18.434,-4.1476 19.921,5.6039 2.084,13.3396 -15.308,24.1116 -26.302,16.2726 -0.94,-1.393 3.978,-7.6032 6.481,-4.7218 6.514,1.6128 15.672,-5.621 11.73,-12.307 -4.909,-2.6312 -11.687,6.4381 -15.083,-0.1357 -0.698,-6.9472 1.163,-13.9349 2.424,-20.762 0.695,-1.9389 0.668,-0.3438 0.628,-2.2859 z"
     id="path26"
     inkscape:connector-curvature="0"
     sodipodi:nodetypes="cccccccccc" />
  <path
     style="color:#000000;overflow:visible;fill:#0000ff;stroke:none;stroke-width:0.527469;stroke-opacity:0.48"
     d="m 190.7,33.7956 c 4.823,2.5759 15.805,-4.061 16.654,2.013 2.935,8.5181 -10.488,4.2715 -15.323,5.246 -3.008,0.6799 -0.519,-5.7044 -1.331,-7.259 z"
     id="path28"
     inkscape:connector-curvature="0" />
  <path
     style="color:#000000;overflow:visible;fill:#0000ff;stroke:none;stroke-width:0.527469;stroke-opacity:0.48"
     d="m 211.157,45.1983 c -0.502,-7.3198 11.68,-13.3627 18.981,-13.1701 8.34,3.7437 5.871,15.6742 0.248,20.957 -3.525,2.7115 -5.89,6.9378 -4.593,0.3266 -5.471,-4.2934 11.727,-1.8204 11.136,4.2255 1.488,8.1868 -4.81,16.1674 -11.316,20.4144 -4.26,4.936 -21.084,1.072 -16.002,-4.739 3.916,-2.8904 4.55,-0.627 8.266,-0.284 6.013,-0.391 13.757,-8.7389 11.253,-14.1666 -5.39,1.1609 -14.122,-3.3999 -6.932,-8.1634 6.219,-3.4443 10.047,-17.5866 0.376,-9.1426 0.385,-0.055 -9.082,6.2393 -11.417,3.7422 z"
     id="path30"
     inkscape:connector-curvature="0"
     sodipodi:nodetypes="cccccccccccc" />
</svg>
