<?xml version="1.0" encoding="UTF-8" standalone="no"?>
<svg
   xmlns:dc="http://purl.org/dc/elements/1.1/"
   xmlns:cc="http://creativecommons.org/ns#"
   xmlns:rdf="http://www.w3.org/1999/02/22-rdf-syntax-ns#"
   xmlns:svg="http://www.w3.org/2000/svg"
   xmlns="http://www.w3.org/2000/svg"
   xmlns:sodipodi="http://sodipodi.sourceforge.net/DTD/sodipodi-0.dtd"
   xmlns:inkscape="http://www.inkscape.org/namespaces/inkscape"
   width="455.6"
   height="59.2"
   version="1.1"
   id="svg52"
   sodipodi:docname="division-wide.svg"
   inkscape:version="1.0.1 (3bc2e813f5, 2020-09-07)">
  <metadata
     id="metadata56">
    <rdf:RDF>
      <cc:Work
         rdf:about="">
        <dc:format>image/svg+xml</dc:format>
        <dc:type
           rdf:resource="http://purl.org/dc/dcmitype/StillImage" />
      </cc:Work>
    </rdf:RDF>
  </metadata>
  <sodipodi:namedview
     pagecolor="#ffffff"
     bordercolor="#666666"
     borderopacity="1"
     objecttolerance="10"
     gridtolerance="10"
     guidetolerance="10"
     inkscape:pageopacity="0"
     inkscape:pageshadow="2"
     inkscape:window-width="640"
     inkscape:window-height="480"
     id="namedview54"
     showgrid="false"
     inkscape:current-layer="svg52" />
  <defs
     id="defs2" />
  <rect
     x="439.224"
     y="-1114.98"
     width="528.3"
     height="238.6"
     id="rect4" />
  <text
     x="118.024"
     y="20.22"
     style="font-size:26px;font-family:'Comic Sans MS';fill:#fb8b00;stroke-width:1px"
     id="text6">22</text>
  <text
     x="247.124"
     y="21.52"
     style="font-size:26px;font-family:'Comic Sans MS';fill:#fd3301;stroke-width:1px"
     id="text8">4</text>
  <text
     x="183.724"
     y="20.52"
     style="font-size:26px;font-family:'Comic Sans MS';fill:#0197fd;stroke-width:1px"
     id="text10">5</text>
  <text
     x="277.924"
     y="19.52"
     style="font-size:26px;font-family:'Comic Sans MS';fill:#fdca01;stroke-width:1px"
     id="text12">R 2</text>
  <text
     x="218.724"
     y="18.62"
     style="font-weight:bold;font-size:26px;font-family:'Comic Sans MS';fill:#005c94;stroke-width:1px;"
     id="text14">=</text>
  <text
     x="159.224"
     y="20.62"
     style="font-weight:bold;font-size:26px;font-family:'Comic Sans MS';fill:#005c94;stroke-width:1px;"
     id="text16">รท</text>
  <text
     x="368.324"
     y="51.92"
     style="font-size:16.7px;font-family:'Comic Sans MS';text-align:end;text-anchor:end;fill:#fd3301;stroke-width:1px"
     id="text18">Quotient</text>
  <text
     x="155.824"
     y="58.42"
     style="font-size:16.7px;font-family:'Comic Sans MS';text-align:end;text-anchor:end;fill:#0197fd;stroke-width:1px"
     id="text20">Divisor</text>
  <text
     x="-1.476"
     y="16.12"
     style="font-size:16.7px;font-family:'Comic Sans MS';fill:#fb8b00;stroke-width:1px"
     id="text22">Dividend</text>
  <text
     x="374.624"
     y="15.92"
     style="font-size:16.7px;font-family:'Comic Sans MS';fill:#fdca01;stroke-width:1px"
     id="text24">Remainder</text>
  <g
     transform="matrix(0.46365,0,0,0.46365,275.002,-396.592)"
     id="g30">
    <path
       style="overflow:visible;fill:#fdca01;stroke-width:4"
       d="m 201.3,880.6 c -1.5,-0.1 -3,-0.2 -4.5,-0.3 -1.6,0 -3.1,-0.1 -4.7,-0.2 -1.3,0 -2.7,0 -4,-0.1 -1.2,0 -2.4,0 -3.6,0 -1.2,0 -2.3,0 -3.5,0 -1,0 -2,0 -3.1,0.1 -0.9,0 -1.9,0.2 -2.8,0.3 -0.9,0.1 -1.9,0.3 -2.8,0.4 -0.9,0.2 -1.9,0.4 -2.8,0.5 -0.9,0.2 -1.9,0.3 -2.8,0.5 -0.9,0.2 -1.9,0.3 -2.8,0.5 -0.8,0.1 -1.7,0.3 -2.5,0.4 -0.8,0.1 -1.5,0.2 -2.3,0.3 -0.8,0 -1.6,0.1 -2.4,0.2 -0.8,0.1 -1.6,0.2 -2.5,0.3 -0.8,0 -1.5,0.1 -2.3,0.2 -0.7,0 -1.4,0 -2,0 -0.7,0 -1.3,0 -2,0 -0.7,0 -1.4,0 -2,0 -0.7,0 -1.3,0 -2,0 -0.6,0 -1.2,0 -1.8,0 -0.5,-0.1 -0.9,-0.1 -1.4,-0.2 -0.5,0 -1.1,-0.2 -1.6,-0.3 -0.5,0 -1,-0.3 -1.5,-0.4 -0.4,0 -0.8,-0.3 -1.3,-0.4 -0.4,0 -0.7,-0.3 -1.1,-0.4 -0.4,-0.1 -0.8,-0.4 -1.1,-0.6 -0.4,-0.2 -0.8,-0.4 -1.2,-0.6 -0.3,-0.2 -0.7,-0.4 -1,-0.6 -0.3,-0.2 -0.6,-0.4 -0.9,-0.6 -0.2,-0.1 -0.4,-0.2 -0.7,-0.3 -0.3,-0.1 -0.5,-0.2 -0.8,-0.4 -0.2,-0.2 -0.4,-0.2 -0.6,-0.3 -0.3,0 -0.5,-0.3 -0.7,-0.4 -0.3,0 -0.5,-0.3 -0.7,-0.5 -0.2,-0.2 -0.2,-0.1 -0.4,-0.2 -0.2,0 -0.3,0 -0.5,-0.2 -0.1,-0.2 -0.3,-0.3 -0.5,-0.5 0,0 -0.1,-0.1 -0.2,-0.2 -1.8,-1.5 3.2,-3.6 5.2,-3.7 0.5,0 1.1,0 1.6,0 0.4,10e-4 0.9,0 1.3,0 0.4,0 0.7,0 1,-0.1 0.4,0 0.9,-0.1 1.3,-0.1 0.4,0 0.7,-0.2 1.1,-0.3 2.6,-0.5 -5.5,1.5 -2.9,0.8 0.3,0 0.6,-0.2 0.9,-0.4 0.3,0 0.6,-0.2 0.9,-0.3 0.5,-0.2 0.9,-0.5 1.3,-0.7 0.5,-0.3 1,-0.6 1.5,-0.9 0.4,-0.2 0.8,-0.5 1.3,-0.7 0.3,0 0.7,-0.3 1,-0.4 0.3,-0.1 0.5,-0.3 0.8,-0.4 0.2,-0.1 0.3,-0.2 0.5,-0.3 0.1,0 0.2,-0.1 0.3,-0.2 0,0 0.1,0 0.2,-0.1 0,0 0,0 0,0 l 5.5,1.5 c 0,0 0,0 0,0 0,0 -0.1,0 -0.2,0.1 -0.1,0 -0.2,0.1 -0.3,0.2 -0.2,0.1 -0.3,0.2 -0.5,0.3 -0.3,0.2 -0.6,0.4 -0.8,0.6 -0.3,0.3 -0.8,0.3 -1.1,0.7 -0.4,0.2 -0.8,0.3 -1.2,0.5 -0.5,0.2 -1,0.5 -1.5,0.8 -0.5,0.3 -0.9,0.6 -1.4,0.9 -0.3,0.2 -0.6,0.4 -1,0.6 -0.3,0 -0.6,0.2 -0.9,0.3 -1.9,0.9 -4,1.2 -5.9,1.7 -0.4,0 -0.8,0 -1.3,0.1 -0.4,0 -0.8,0.1 -1.2,0.2 -0.4,0 -0.8,-0.1 -1.3,0 -0.4,0 -0.9,0 -1.3,0 -0.5,0 -1,0 -1.5,0.1 -2.3,0.4 2.1,-4.6 3.4,-3.3 0,0 0.1,0.1 0.2,0.2 0,0 0.2,0.2 0.2,0 0.2,0 0.3,0 0.5,0.2 0.2,0.1 0.4,0.3 0.6,0.5 0.2,0 0.3,0 0.5,0.2 0.2,0.2 0.4,0.1 0.6,0.3 0.2,0.2 0.5,0.3 0.7,0.4 0.3,0 0.5,0.2 0.8,0.4 0.3,0.1 0.5,0.3 0.7,0.4 0.3,0.2 0.5,0.4 0.8,0.5 0.4,0.2 0.7,0.4 1.1,0.6 0.4,0.2 0.8,0.4 1.2,0.6 0.3,0.1 0.6,0.3 1,0.4 0.3,0.1 0.6,0.1 1,0.3 0.4,0.1 0.8,0.2 1.2,0.3 0.4,0.1 0.9,0.2 1.4,0.2 0.5,0 1,0.2 1.5,0.2 0.5,0 0.9,0.1 1.4,0.1 0.5,-0.1 1.1,0 1.7,0 0.7,0 1.3,0 2,0 0.7,0 1.3,0 2,0 0.7,0 1.3,0 2,0 0.7,0 1.3,0 2,-0.1 0.7,0 1.5,-0.1 2.2,-0.2 0.8,0 1.7,-0.2 2.5,-0.2 0.8,0 1.6,-0.1 2.3,-0.2 0.7,-0.1 1.5,-0.2 2.2,-0.4 0.8,-0.2 1.7,-0.3 2.5,-0.4 0.9,-0.2 1.8,-0.3 2.7,-0.5 0.9,-0.1 1.9,-0.4 2.8,-0.5 0.9,-0.2 1.9,-0.4 2.8,-0.5 1,-0.1 1.9,-0.2 2.9,-0.3 1,0 1.9,-0.2 2.9,-0.2 1,0 2,0 3.1,-0.1 1.2,0 2.4,0 3.5,0 1.2,0 2.4,0 3.6,0 1.3,0 2.7,0 4,0.1 1.6,0 3.2,0.1 4.7,0.2 1.5,0 3,0.2 4.5,0.3 l -4,4 z"
       id="path26" />
    <path
       style="overflow:visible;fill:#fdca01;stroke-width:4"
       d="m 128.8,875 c 1,0.9 2,1.8 2.9,2.8 0.9,0.9 1.9,1.8 2.8,2.7 0.8,0.8 1.6,1.6 2.5,2.3 0.7,0.6 1.4,1.3 2,1.9 0.5,0.4 0.9,0.9 1.4,1.3 0.4,0.4 0.7,0.8 1.1,1.2 0.4,0.4 0.7,0.8 1,1.2 0.3,0.2 0.6,0.6 0.8,0.9 0.2,0.3 0.5,0.6 0.7,0.9 0.2,0.3 0.4,0.7 0.6,1 0.1,0.2 0.2,0.5 0.4,0.7 0,0.1 0.1,0.3 0.2,0.4 0,0 0,0.2 0.1,0.2 0,0 0,0.1 0,0.1 -0.5,-1.1 -0.1,-0.4 0.3,0.2 l -5.3,1.9 c 0.9,1.6 0,0 -0.2,-0.1 0,0 0,-0.1 0,-0.1 0,0 0,-0.2 -0.1,-0.2 0,-0.1 -0.1,-0.3 -0.2,-0.4 -0.1,-0.2 -0.2,-0.4 -0.4,-0.6 -0.2,-0.3 -0.3,-0.5 -0.5,-0.7 -0.2,-0.3 -0.4,-0.5 -0.6,-0.8 -0.3,-0.3 -0.6,-0.6 -0.8,-0.9 -0.3,-0.4 -0.7,-0.7 -1,-1 -0.4,-0.4 -0.7,-0.7 -1.1,-1.1 -0.5,-0.4 -0.9,-0.9 -1.4,-1.3 -0.7,-0.6 -1.3,-1.3 -2,-1.9 -0.8,-0.8 -1.7,-1.6 -2.5,-2.4 -0.9,-0.9 -1.9,-1.8 -2.8,-2.7 -1,-0.9 -1.9,-1.8 -2.9,-2.7 l 5,-2.7 z"
       id="path28" />
  </g>
  <g
     transform="matrix(-0.46365,0,0,-0.46365,241.353,423.389)"
     id="g36">
    <path
       style="overflow:visible;fill:#fd3301;stroke-width:4"
       d="m -100.1,811.5 c 1.5,0.2 3,0.3 4.4,0.4 1.6,0.2 3.3,0.3 5,0.5 1.6,0.1 3.2,0.4 4.8,0.7 1.5,0.3 3,0.7 4.4,1.1 1.3,0.4 2.5,0.9 3.8,1.3 1.1,0.4 2.3,0.8 3.4,1.3 1.1,0.5 2.2,1 3.3,1.6 1,0.5 2,1 3,1.5 0.9,0.5 1.8,1 2.7,1.5 0.8,0.4 1.6,0.9 2.4,1.4 0.7,0.4 1.4,0.8 2,1.2 0.6,0.4 1.2,0.8 1.7,1.3 0.5,0.4 0.9,0.8 1.4,1.1 0.4,0.4 0.8,0.7 1.2,1 0.4,0.4 0.8,0.8 1.2,1.2 0.5,0.5 0.9,0.9 1.3,1.4 0.3,0.4 0.6,0.7 1,1.1 0.3,0.3 0.5,0.6 0.7,1 0.3,0.4 0.4,0.8 0.7,1.3 0.2,0.3 0.4,0.7 0.6,1 0.2,0.3 0.4,0.7 0.6,1.1 0.1,0.2 0.3,0.4 0.4,0.6 0.1,0.2 0.2,0.3 0.3,0.5 0.1,0.2 0.2,0.3 0.3,0.5 l -5.3,1.8 c 0,0 -0.1,-0.1 -0.1,-0.2 -0.1,-0.2 -0.2,-0.3 -0.3,-0.5 -0.2,-0.3 -0.4,-0.6 -0.5,-0.9 -0.2,-0.3 -0.3,-0.6 -0.5,-0.8 -0.2,-0.4 -0.4,-0.7 -0.6,-1.1 -0.2,-0.4 -0.4,-0.7 -0.6,-1.1 -0.2,-0.2 -0.4,-0.4 -0.6,-0.6 -0.3,-0.4 -0.6,-0.7 -1,-1.1 -0.4,-0.5 -0.9,-0.9 -1.3,-1.4 -0.3,-0.4 -0.7,-0.7 -1.1,-1 -0.4,-0.3 -0.7,-0.6 -1.1,-0.9 -0.5,-0.4 -1,-0.8 -1.4,-1.1 -0.5,-0.4 -1,-0.8 -1.6,-1.1 -0.6,-0.4 -1.3,-0.7 -1.9,-1.1 -0.8,-0.5 -1.6,-0.9 -2.4,-1.4 -0.9,-0.5 -1.7,-1 -2.6,-1.4 -1,-0.5 -2,-1 -3,-1.5 -1.1,-0.5 -2.1,-1 -3.2,-1.4 -1.1,-0.4 -2.2,-0.8 -3.3,-1.2 -1.2,-0.4 -2.4,-0.9 -3.7,-1.2 -1.4,-0.4 -2.8,-0.7 -4.2,-0.9 -1.6,-0.2 -3.2,-0.4 -4.7,-0.6 -1.7,-0.1 -3.3,-0.3 -5,-0.5 -1.5,-0.1 -3,-0.3 -4.5,-0.5 l 4.1,-3.9 z"
       id="path32" />
    <path
       style="overflow:visible;fill:#fd3301;stroke-width:4"
       d="m -62.6,833.3 c 1.1,0.4 2.2,0.9 3.3,1.4 0.9,0.4 1.9,0.7 2.8,1.2 0.7,0.4 1.4,0.7 2.1,1.2 0.6,0.3 1.1,0.7 1.6,1 0.4,0.3 0.9,0.6 1.3,0.9 0.5,0.3 0.9,0.7 1.4,1 0.4,0.3 0.8,0.6 1.2,0.9 0.3,0.2 0.5,0.4 0.8,0.6 0.2,0.1 0.3,0.2 0.5,0.4 0.1,0 0.2,0.1 0.3,0.2 0,0 0.1,0 0.2,0.1 0,0 0,0 0.1,0 -2.5,1.7 -4.8,3.6 -5.5,1.2 -0.1,-0.5 -0.2,-1.1 -0.2,-1.7 0,-0.6 0,-1.2 0,-1.8 0,-0.7 0,-1.4 0,-2.1 0,-0.6 0,-1.3 0.1,-1.9 0,-0.8 0.1,-1.5 0.2,-2.2 0.1,-0.8 0.3,-1.6 0.4,-2.4 0.2,-0.8 0.4,-1.5 0.5,-2.3 0.2,-0.8 0.4,-1.7 0.7,-2.5 0.2,-0.7 0.5,-1.4 0.8,-2.1 0.2,-0.5 0.4,-1 0.7,-1.5 0.1,-0.5 0.3,-0.9 0.5,-1.3 0.1,-0.3 0.3,-0.6 0.4,-0.9 0.1,-0.3 0.3,-0.5 0.5,-0.8 0.1,-0.2 0.2,-0.3 0.3,-0.5 0,-0.1 0.1,-0.2 0.2,-0.3 0,0 0,-0.1 0.1,-0.2 0,0 0,0 0,-0.1 l 5.6,0.5 c 0,0 0,0 0,0.1 0,0 0,0.1 -0.1,0.2 0,0.1 -0.1,0.2 -0.2,0.3 -0.1,0.2 -0.2,0.4 -0.3,0.5 -0.2,0.2 -0.3,0.5 -0.5,0.7 -0.1,0.2 -0.3,0.4 -0.4,0.7 -0.2,0.4 -0.4,0.7 -0.5,1.1 -0.2,0.6 -0.4,1.1 -0.7,1.6 -0.3,0.6 -0.5,1.3 -0.8,1.9 -0.3,0.8 -0.5,1.5 -0.7,2.3 -0.2,0.7 -0.4,1.5 -0.6,2.2 -0.2,0.7 -0.3,1.5 -0.4,2.2 -0.1,0.7 -0.2,1.3 -0.2,2 0,0.7 0,1.3 -0.1,2 0,0.6 -0.1,1.2 0,1.8 0,0.6 0,1.1 0,1.7 0,0.4 0,0.8 0.1,1.2 0.7,2 -2.2,3.8 -4.8,3.2 0,0 0,0 -0.1,0 0,0 -0.1,0 -0.2,-0.1 -0.1,0 -0.2,-0.1 -0.3,-0.2 -0.2,-0.1 -0.3,-0.2 -0.5,-0.4 -0.3,-0.2 -0.5,-0.4 -0.8,-0.6 -0.4,-0.3 -0.8,-0.6 -1.2,-0.9 -0.4,-0.3 -0.9,-0.6 -1.3,-1 -0.4,-0.3 -0.8,-0.6 -1.3,-0.8 -0.5,-0.3 -1.1,-0.6 -1.6,-0.9 -0.7,-0.3 -1.3,-0.7 -2,-1 -0.9,-0.4 -1.8,-0.8 -2.7,-1.1 -1.1,-0.5 -2.2,-0.9 -3.3,-1.4 l 4.5,-3.4 z"
       id="path34" />
  </g>
  <g
     transform="matrix(0.46365,0,0,-0.46365,255.472,459.269)"
     id="g42">
    <path
       style="overflow:visible;fill:#0197fd;stroke-width:4"
       d="m -194.1,867.4 c 1.4,-0.1 2.8,-0.2 4.2,-0.3 1.5,-0.1 3,0 4.5,0 1.4,0 2.8,0.2 4.2,0.5 1.4,0.3 2.7,0.6 4,1 1.3,0.3 2.5,0.7 3.7,1 1,0.3 1.9,0.7 2.9,1.1 0.8,0.3 1.6,0.7 2.4,1.2 0.7,0.4 1.5,0.8 2.2,1.2 0.7,0.4 1.3,0.8 2,1.3 0.7,0.5 1.4,1 2.1,1.6 0.7,0.5 1.4,1.1 2.1,1.6 0.6,0.5 1.1,1 1.6,1.4 0.5,0.5 0.9,0.9 1.4,1.4 0.3,0.4 0.7,0.8 1,1.2 0.4,0.4 0.7,0.9 0.9,1.4 0.4,0.7 0.8,1.5 1.2,2.2 0.4,0.8 0.7,1.6 1,2.3 0.3,0.6 0.5,1.3 0.8,1.9 0.2,0.7 0.5,1.3 0.7,2 0.2,0.7 0.4,1.3 0.6,2 0.2,0.6 0.3,1.2 0.5,1.8 0.2,0.8 0.3,1.6 0.5,2.4 0.1,0.8 0.3,1.6 0.4,2.4 0.1,0.6 0.2,1.2 0.3,1.9 0,0.5 0.2,1 0.3,1.4 0.1,0.5 0.2,1 0.3,1.4 0.1,0.4 0.2,0.9 0.4,1.3 0,0.3 0.2,0.6 0.2,0.8 0,0 0,0.1 0,0.2 l -5.4,1.5 c 0,0 0,-0.1 0,-0.2 0,-0.3 -0.2,-0.6 -0.2,-0.8 -0.1,-0.5 -0.3,-0.9 -0.4,-1.4 -0.1,-0.5 -0.2,-1.1 -0.4,-1.6 -0.1,-0.5 -0.2,-1 -0.3,-1.6 0,-0.6 -0.2,-1.2 -0.3,-1.8 -0.1,-0.8 -0.3,-1.6 -0.4,-2.4 -0.1,-0.7 -0.2,-1.4 -0.4,-2.2 -0.1,-0.6 -0.3,-1.1 -0.5,-1.6 -0.2,-0.7 -0.4,-1.3 -0.6,-2 -0.2,-0.7 -0.4,-1.3 -0.7,-2 -0.2,-0.6 -0.5,-1.2 -0.7,-1.7 -0.3,-0.7 -0.6,-1.5 -1,-2.2 -0.4,-0.7 -0.7,-1.4 -1.1,-2.1 -0.2,-0.4 -0.5,-0.7 -0.8,-1 -0.3,-0.4 -0.6,-0.7 -1,-1.1 -0.4,-0.4 -0.8,-0.8 -1.2,-1.2 -0.5,-0.5 -1.1,-0.9 -1.6,-1.3 -0.7,-0.5 -1.4,-1 -2.1,-1.6 -0.7,-0.5 -1.4,-1 -2,-1.5 -0.6,-0.4 -1.2,-0.7 -1.8,-1.1 -0.7,-0.4 -1.5,-0.8 -2.2,-1.2 -0.8,-0.4 -1.5,-0.7 -2.3,-1 -0.9,-0.3 -1.8,-0.6 -2.7,-0.9 -1.2,-0.3 -2.5,-0.7 -3.7,-1 -1.3,-0.3 -2.6,-0.7 -3.9,-0.9 -1.3,-0.2 -2.6,-0.2 -3.9,-0.2 -1.5,0 -2.9,0 -4.4,0.2 -1.4,0 -2.8,0.2 -4.2,0.3 l 3.7,-4.2 z"
       id="path38" />
    <path
       style="overflow:visible;fill:#0197fd;stroke-width:4"
       d="m -164.3,894.1 c 1.2,0.6 2.4,1.3 3.5,2 1,0.6 1.9,1.1 2.9,1.7 0.7,0.4 1.3,0.9 2,1.4 0.5,0.4 1,0.9 1.5,1.3 0.5,0.5 0.9,1 1.3,1.5 0.4,0.5 0.8,1 1.2,1.5 0.3,0.4 0.6,0.9 0.9,1.4 0.2,0.4 0.5,0.7 0.7,1.1 0.2,0.3 0.4,0.6 0.5,0.9 0.2,0.3 0.3,0.7 0.4,1 0.1,0.4 0.3,0.8 0.4,1.2 0.1,0.3 0.2,0.7 0.3,1 0.1,0.1 0.2,0.3 0.3,0.4 0.2,0.3 0.2,0.7 0.3,1.1 0,0.2 0,0.5 0.1,0.7 0,0.1 0,0.3 0,0.4 0,0 0,0.2 0,0.3 -5.7,0.4 -6.1,1.3 -4.8,-0.9 0.2,-0.5 0.4,-1 0.6,-1.6 0.2,-0.5 0.4,-1 0.7,-1.6 0.2,-0.6 0.5,-1.3 0.8,-1.9 0.4,-0.9 0.9,-1.8 1.4,-2.7 0.5,-1 1.1,-2 1.7,-2.9 0.5,-0.9 1.1,-1.7 1.6,-2.6 0.5,-0.9 1,-1.7 1.6,-2.6 0.5,-0.7 1,-1.4 1.5,-2.1 0.4,-0.5 0.7,-1 1.1,-1.5 0.4,-0.5 0.8,-1 1.2,-1.5 0.4,-0.4 0.8,-0.9 1.2,-1.3 0.3,-0.2 0.5,-0.5 0.8,-0.7 0.2,0 0.3,-0.2 0.5,-0.4 0.2,-0.2 0.3,-0.4 0.4,-0.6 0.1,0 0.2,-0.2 0.3,-0.3 0,0 0,0 0.1,0 l 5.5,1.4 c 0,0 0,0 -0.1,0 -0.1,0 -0.2,0.1 -0.3,0.2 -0.1,0 -0.3,0 -0.3,0.1 -0.2,0.2 -0.4,0.5 -0.5,0.8 -0.3,0.2 -0.5,0.5 -0.8,0.7 -0.4,0.3 -0.8,0.6 -1.2,1 -0.4,0.4 -0.8,0.9 -1.2,1.3 -0.4,0.5 -0.8,0.9 -1.1,1.4 -0.5,0.7 -1,1.3 -1.5,2 -0.6,0.8 -1.1,1.6 -1.6,2.4 -0.5,0.9 -1.1,1.8 -1.6,2.6 -0.6,0.9 -1.1,1.9 -1.7,2.8 -0.5,0.8 -0.9,1.7 -1.4,2.6 -0.3,0.6 -0.6,1.2 -0.8,1.7 -0.2,0.5 -0.4,1 -0.7,1.5 -0.2,0.6 -0.4,1.1 -0.6,1.7 -0.9,2.7 -2,1.9 -6.4,2.1 0,0 0,-0.2 0,-0.3 0,-0.1 0,-0.3 0,-0.4 0,-0.2 0,-0.5 -0.1,-0.7 0,-0.2 0,-0.3 -0.1,-0.5 -0.1,-0.3 -0.3,-0.5 -0.4,-0.8 -0.1,-0.3 -0.2,-0.6 -0.3,-0.9 -0.1,-0.4 -0.3,-0.7 -0.4,-1.1 -0.1,-0.3 -0.2,-0.5 -0.3,-0.8 -0.1,-0.2 -0.3,-0.4 -0.4,-0.7 -0.2,-0.4 -0.5,-0.7 -0.7,-1.1 -0.3,-0.4 -0.6,-0.8 -0.9,-1.2 -0.4,-0.5 -0.7,-1 -1.1,-1.4 -0.4,-0.4 -0.7,-0.8 -1.2,-1.2 -0.5,-0.4 -0.9,-0.8 -1.4,-1.2 -0.6,-0.4 -1.2,-0.8 -1.8,-1.2 -1,-0.6 -1.9,-1.1 -2.9,-1.6 -1.2,-0.7 -2.3,-1.3 -3.5,-1.9 l 4.7,-3.2 z"
       id="path40" />
  </g>
  <g
     transform="matrix(-0.338423,0,0,0.46365,110.545,-431.305)"
     id="g48">
    <path
       style="overflow:visible;fill:#fb8b00;stroke-width:4"
       d="m 110.9,957.4 c -1.4,-0.5 -2.8,-0.9 -4.1,-1.2 -1.5,-0.4 -3,-0.8 -4.5,-1.1 -1.5,-0.4 -3.1,-0.6 -4.6,-0.8 -1.6,-0.2 -3.3,-0.4 -4.9,-0.5 -1.7,-0.1 -3.3,-0.1 -5,-0.2 -1.6,0 -3.1,0 -4.7,0 -1.4,0 -2.8,0 -4.1,0.2 -1.3,0 -2.6,0.2 -3.9,0.4 -1.3,0.1 -2.6,0.3 -3.9,0.5 -1.4,0.2 -2.7,0.5 -4.1,0.7 -1.2,0.3 -2.5,0.4 -3.7,0.6 -1.2,0.1 -2.5,0.4 -3.7,0.7 -1.2,0.3 -2.3,0.6 -3.5,0.9 -1.1,0.2 -2.1,0.4 -3.2,0.6 -1.1,0.2 -2.1,0.4 -3.2,0.6 -0.9,0.2 -1.9,0.4 -2.8,0.6 -0.9,0.2 -1.8,0.3 -2.7,0.4 -1,0 -2,0.3 -3.1,0.4 -1.2,0.2 -2.4,0.3 -3.6,0.4 -1.2,0.1 -2.4,0.2 -3.6,0.3 -0.9,0.2 -1.9,0.3 -2.8,0.4 -0.8,0 -1.7,0.1 -2.5,0.2 -0.8,0 -1.6,0 -2.3,0.1 -0.7,0 -1.4,0 -2,0 -0.6,0 -1.2,0 -1.8,0 -0.6,0 -1.2,0 -1.8,-0.1 -0.6,0 -1.1,-0.1 -1.7,-0.2 -0.5,-0.1 -1.1,-0.1 -1.6,-0.3 -0.6,-0.1 -1.1,-0.3 -1.7,-0.4 -0.6,-0.2 -1.3,-0.4 -1.9,-0.5 -0.6,-0.1 -1.1,-0.4 -1.7,-0.5 -0.5,-0.1 -0.9,-0.4 -1.4,-0.5 -0.5,-0.2 -1.1,-0.4 -1.6,-0.6 -0.6,-0.2 -1.2,-0.3 -1.8,-0.5 -0.6,-0.2 -1.2,-0.3 -1.7,-0.4 -0.4,0 -0.9,-0.2 -1.3,-0.3 -0.3,-0.1 -0.6,-0.3 -1,-0.5 -0.2,0 -0.3,-0.2 -0.5,-0.2 -0.2,0 -0.3,-0.1 -0.4,-0.3 -1.9,-3.9 3.2,-3.8 5.8,-3.7 0.5,0 1,0 1.5,0 0.5,0 0.9,-0.1 1.4,-0.2 0.5,0 1.1,0 1.6,-0.1 0.7,0 1.3,-0.1 2,-0.2 0.8,-0.1 1.5,-0.3 2.3,-0.5 4.3,-1.2 -5.6,1.3 -2.1,0.5 0.8,-0.2 1.5,-0.5 2.3,-0.8 0.7,-0.3 1.4,-0.6 2.1,-0.9 0.5,-0.2 1.1,-0.4 1.6,-0.7 0.5,-0.2 1,-0.5 1.5,-0.7 0.5,-0.1 1,-0.4 1.5,-0.6 0.4,0 0.8,-0.4 1.3,-0.5 0.4,-0.1 0.8,-0.4 1.3,-0.6 0.3,-0.2 0.6,-0.2 0.9,-0.4 0.2,-0.2 0.5,-0.4 0.8,-0.6 0.3,-0.2 0.6,-0.3 0.9,-0.5 l 5.5,1.5 c -0.3,0.2 -0.6,0.4 -0.9,0.6 -0.2,0.2 -0.5,0.3 -0.8,0.4 -0.3,0.3 -0.6,0.6 -1,0.7 -0.4,0.2 -0.9,0.4 -1.3,0.7 -0.4,0.2 -0.9,0.3 -1.3,0.6 -0.5,0.2 -1,0.3 -1.5,0.6 -0.5,0.2 -1,0.3 -1.5,0.6 -0.5,0.2 -1,0.5 -1.6,0.7 -0.7,0.3 -1.4,0.6 -2.1,0.9 -0.8,0.3 -1.5,0.7 -2.3,1 -2.1,0.9 -4.4,1.3 -6.7,1.8 -0.8,0.2 -1.6,0.3 -2.5,0.3 -0.7,0 -1.4,0 -2.1,0.1 -0.5,0 -1,0.1 -1.5,0.2 -0.5,0 -1.1,0 -1.6,0 -0.5,0 -1,0 -1.5,0 -3.1,0.4 6.4,0.3 2.8,-3.3 -0.2,-0.3 0,-0.1 0.1,0 0.2,0 0.3,0.1 0.5,0.2 0.2,0 0.4,0.1 0.6,0 0.4,0.1 0.9,0.2 1.3,0.3 0.6,0.2 1.2,0.3 1.8,0.5 0.6,0.2 1.3,0.3 1.9,0.6 0.5,0.2 1.1,0.4 1.6,0.5 0.5,0.2 0.9,0.4 1.4,0.4 0.5,0.2 1.1,0.3 1.6,0.4 0.6,0.2 1.3,0.4 1.9,0.5 0.5,0.1 1.1,0.2 1.6,0.3 0.5,0 1,0.2 1.5,0.2 0.5,0 1.1,0 1.6,0.1 0.5,0 1.1,0 1.6,0 0.6,0 1.2,0 1.8,0 0.7,0 1.3,0 2,-0.1 0.8,0 1.5,0 2.3,-0.2 0.8,0 1.6,-0.2 2.4,-0.3 1,-0.1 1.9,-0.3 2.9,-0.3 1.2,0 2.3,-0.2 3.5,-0.3 1.2,-0.1 2.4,-0.3 3.5,-0.5 1,-0.1 2,-0.2 3,-0.4 0.9,-0.1 1.7,-0.3 2.5,-0.5 0.9,-0.2 1.9,-0.4 2.8,-0.6 1.1,-0.2 2.1,-0.4 3.2,-0.6 1,-0.2 2.1,-0.4 3.1,-0.7 1.2,-0.3 2.3,-0.6 3.5,-0.8 1.3,-0.2 2.5,-0.4 3.8,-0.6 1.2,-0.2 2.4,-0.4 3.7,-0.7 1.4,-0.3 2.8,-0.5 4.1,-0.7 1.3,-0.2 2.6,-0.3 3.9,-0.5 1.3,-0.1 2.6,-0.2 4,-0.3 1.4,0 2.8,0 4.2,0 1.6,0 3.1,0 4.7,0.1 1.7,0 3.4,0.1 5.1,0.3 1.7,0.2 3.4,0.4 5.1,0.6 1.6,0.3 3.2,0.6 4.7,0.9 1.5,0.4 3.1,0.8 4.6,1.2 1.4,0.4 2.8,0.8 4.2,1.3 l -4.4,3.6 z"
       id="path44" />
    <path
       style="overflow:visible;fill:#fb8b00;stroke-width:4"
       d="m 9.3,956.2 c 1.1,0.5 2.2,1.1 3.3,1.6 1,0.6 2,1.2 3,1.8 0.8,0.5 1.7,1 2.5,1.6 0.7,0.5 1.4,0.9 2.1,1.4 0.6,0.3 1.1,0.7 1.6,1 0.4,0.3 0.8,0.6 1.2,0.9 0.3,0.2 0.6,0.5 0.9,0.7 0.2,0.2 0.4,0.5 0.7,0.7 0.2,0.2 0.4,0.5 0.6,0.6 0.2,0.1 0.3,0.3 0.5,0.4 0.2,0.1 0.3,0.3 0.5,0.5 0.1,0.1 0.3,0.3 0.4,0.4 0.1,0.2 0.2,0.3 0.3,0.5 0,0 0.2,0 0.2,0.1 0.3,0.3 -0.2,-0.4 0.2,0.1 0.1,0.3 0.2,0.1 0.2,0.1 0.1,0 0.2,0 0.3,0.1 0,0 0,0 0,0 l -4.7,3.2 c 0,0 0,0 0,0 -0.1,0 -0.2,-0.1 -0.3,-0.2 -0.1,-0.1 -0.3,-0.4 -0.4,-0.4 0,0 -0.2,-0.2 -0.3,-0.3 -0.1,-0.1 -0.3,-0.3 -0.4,-0.4 -0.3,-0.6 0,0.1 -0.2,-0.2 -0.1,-0.1 -0.3,-0.2 -0.4,-0.4 -0.2,-0.1 -0.3,-0.3 -0.5,-0.4 -0.2,-0.2 -0.4,-0.3 -0.6,-0.5 -0.1,-0.2 -0.3,-0.4 -0.5,-0.5 -0.2,-0.2 -0.4,-0.4 -0.7,-0.6 -0.3,-0.2 -0.6,-0.4 -0.9,-0.6 -0.4,-0.3 -0.8,-0.5 -1.2,-0.8 -0.6,-0.4 -1.1,-0.7 -1.7,-1.1 -0.7,-0.5 -1.4,-0.9 -2.1,-1.4 -0.8,-0.5 -1.7,-1 -2.5,-1.5 C 9.5,962 8.5,961.4 7.5,960.9 6.4,960.3 5.4,959.8 4.3,959.3 L 8.9,956 Z"
       id="path46" />
  </g>
</svg>
