<?xml version="1.0" encoding="UTF-8" standalone="no"?>
<!-- Copyright 2017 mathsisfun.com -->

<svg
   xmlns:dc="http://purl.org/dc/elements/1.1/"
   xmlns:cc="http://creativecommons.org/ns#"
   xmlns:rdf="http://www.w3.org/1999/02/22-rdf-syntax-ns#"
   xmlns:svg="http://www.w3.org/2000/svg"
   xmlns="http://www.w3.org/2000/svg"
   xmlns:sodipodi="http://sodipodi.sourceforge.net/DTD/sodipodi-0.dtd"
   xmlns:inkscape="http://www.inkscape.org/namespaces/inkscape"
   width="317.659"
   height="93.5629"
   version="1.1"
   id="svg14346"
   sodipodi:docname="engineering-notation.svg"
   inkscape:version="0.92.3 (2405546, 2018-03-11)">
  <metadata
     id="metadata14350">
    <rdf:RDF>
      <cc:Work
         rdf:about="">
        <dc:format>image/svg+xml</dc:format>
        <dc:type
           rdf:resource="http://purl.org/dc/dcmitype/StillImage" />
        <dc:title></dc:title>
      </cc:Work>
    </rdf:RDF>
  </metadata>
  <sodipodi:namedview
     pagecolor="#ffffff"
     bordercolor="#666666"
     borderopacity="1"
     objecttolerance="10"
     gridtolerance="10"
     guidetolerance="10"
     inkscape:pageopacity="0"
     inkscape:pageshadow="2"
     inkscape:window-width="640"
     inkscape:window-height="480"
     id="namedview14348"
     showgrid="false"
     inkscape:current-layer="svg14346" />
  <defs
     id="defs14312" />
  <text
     x="105.85"
     y="69.2799"
     style="font-weight:bold;font-size:28.1px;font-family:'Comic Sans MS';overflow:visible;fill:#000000;stroke-width:0.58px"
     id="text14314">=</text>
  <text
     x="246.15"
     y="67.9799"
     style="font-weight:bold;font-size:25px;font-family:'Comic Sans MS';overflow:visible;fill:#0197fd;stroke-width:0.58px"
     id="text14316">x</text>
  <text
     x="267.25"
     y="71.3799"
     style="font-weight:bold;font-size:28.1px;font-family:'Comic Sans MS';overflow:visible;fill:#0197fd;stroke-width:0.58px"
     id="text14318">10</text>
  <text
     x="303.95"
     y="52.2799"
     style="font-weight:bold;font-size:25px;font-family:'Comic Sans MS';overflow:visible;fill:#6600cc;stroke-width:0.58px"
     id="text14320">3</text>
  <text
     x="138.35"
     y="12.1799"
     style="font-size:15.6px;font-family:'Comic Sans MS';overflow:visible;fill:#f44800;stroke-width:0.58px"
     id="text14322">Digits</text>
  <text
     x="214.45"
     y="12.1799"
     style="font-size:15.6px;font-family:'Comic Sans MS';overflow:visible;fill:#6600cc;stroke-width:0.58px"
     id="text14324">Power of 10</text>
  <text
     x="8.85019"
     y="90.0799"
     style="font-size:14.1px;font-family:'Comic Sans MS';overflow:visible;fill:#f0a513;stroke-width:0.58px"
     id="text14326">A Number</text>
  <text
     x="143.55"
     y="89.6799"
     style="font-size:14.1px;font-family:'Comic Sans MS';overflow:visible;fill:#f0a513;stroke-width:0.58px"
     id="text14328">In Engineering Notation</text>
  <path
     style="overflow:visible;fill:#f44800;stroke-width:0.58px"
     d="m 165.85,17.7799 c 4.5,4.8 11.2,6.1 17.1,8.4 5.9,2 10.5,7.2 12.3,13 -1.5,0.2 -3.6,1.9 -3.8,-0.6 -2.2,-6 -7.7,-10 -13.7,-11.6 -5.4,-1.8 -10.8,-4 -14.9,-8 1,-0.4 2,-0.9 3,-1.3 z"
     id="path14330"
     inkscape:connector-curvature="0" />
  <path
     style="overflow:visible;fill:#f44800;stroke-width:0.58px"
     d="m 185.55,34.7799 c 3.6,1 6.8,3 9.3,5.6 -5.9,3.3 -1.1,-5.2 1.1,-6.7 1.3,-2.1 3.3,-1.5 5.2,-1.1 -1.2,1.7 -4,3.5 -4.8,5.8 -0.2,4.8 -5.1,4.5 -7.3,1.2 -2.3,-1.7 -7.8,-1.6 -3.7,-4.5 l 0.2,-0.2 z"
     id="path14332"
     inkscape:connector-curvature="0" />
  <g
     transform="matrix(0.38657,0.050107,-0.066534,0.401194,152.35,-131.963)"
     id="g14340">
    <path
       style="overflow:visible;fill:#6600cc;stroke-width:1px"
       d="m 347.3,328.7 c 12.2,19.7 33.2,33.1 55.2,39.3 9.6,1.8 19.2,0 28.8,0.1 -3.7,4.3 -7.6,7.9 -13.8,6.8 -16.4,1.8 -32.6,-3.5 -46.3,-12.3 -12.9,-7.3 -24.3,-17.7 -32.1,-30.4 2.7,-1.1 5.4,-2.5 8.2,-3.5 z"
       id="path14334"
       inkscape:connector-curvature="0" />
    <path
       style="overflow:visible;fill:#6600cc;stroke-width:1px"
       d="m 410.9,355.4 c 7,4.8 14.4,9.7 23,10.7 -3.8,4 -8,7.8 -13.5,3.6 -4.5,-3.1 -23.6,-9 -11.8,-13.2 0.7,-0.2 1.5,-1.3 2.3,-1.1 z"
       id="path14336"
       inkscape:connector-curvature="0" />
    <path
       style="overflow:visible;fill:#6600cc;stroke-width:1px"
       d="m 403.7,381.4 c 6.7,-5.2 15.8,-13.8 24.4,-12.4 11.2,2.4 -3.1,4.8 -7.3,8.1 -5.2,2.8 -9.2,7.7 -15.5,4.8 -0.2,-0.2 -1.8,-0.1 -1.6,-0.4 z"
       id="path14338"
       inkscape:connector-curvature="0" />
  </g>
  <text
     x="141.45"
     y="69.5799"
     style="color:#000000;font-weight:bold;font-size:25px;font-family:'Comic Sans MS';overflow:visible;fill:#f44800;stroke-width:0.39px"
     id="text14342">5.3266</text>
  <text
     x="-1.0498"
     y="69.5799"
     style="color:#000000;font-weight:bold;font-size:25px;font-family:'Comic Sans MS';overflow:visible;fill:#f44800;stroke-width:0.39px"
     id="text14344">5326.6</text>
</svg>
