<?xml version="1.0" encoding="UTF-8" standalone="no"?>
<!-- Copyright 2017 mathsisfun.com -->
<svg xmlns="http://www.w3.org/2000/svg" width="233.2" height="62.9" version="1.1" style="fill:#00ff00; stroke-width:0.54;">
<defs/>
<g transform="translate(242.559,-519.07)">
	<path style="color:black; fill:#0000ff; stroke-opacity:0.48;" d="m -117.6,554.7 c 17.1,-0 25.9,0.3 43.1,0 -1.6,2.7 -3.2,5.3 -4.8,8 -17.1,0.2 -25.9,-0.1 -43.1,-0.1 1.6,-2.7 3.2,-5.3 4.8,-8 z"/>
	<path style="color:black; fill:#0000ff; stroke-opacity:0.48;" d="m -115.7,533.8 c 17.1,-0 25.9,0.3 43.1,0 -1.6,2.7 -3.2,5.3 -4.8,8 -17.1,0.2 -25.9,-0.1 -43.1,-0.1 z"/>
	<path style="color:black; stroke-opacity:0.48;" d="m -51,532.9 c -0.2,-8.2 10.9,-12.3 18,-13.7 10.1,-1.6 15.7,10 12.1,18.4 -3.4,13.3 -11.4,25.4 -22.8,33.3 -2.8,2.9 -15.9,7.4 -13.7,6.8 4.3,-1.4 10.2,-3.5 5.3,-8.5 13.8,-4.1 29.3,-5.7 42.6,0.7 -2.5,2.3 -5.1,4.6 -7.6,6.9 -13.1,-6 -27.7,-2.2 -41,0.8 -8.5,-5.2 7,-9.1 5.3,-8.6 -3.5,1.4 -9.1,3.9 -2.3,1 9.4,-5.7 17.3,-13.9 21.5,-24.1 1.8,-5.4 7.2,-14.6 0.4,-18.3 -3.9,-1.4 -11.2,2.6 -3.8,-0.7 9.6,-4.7 -3.4,1.9 -5.4,4 -2.9,0.7 -5.7,1.4 -8.6,2 z"/>
	<path style="color:black; stroke-opacity:0.48;" d="m -231.4,527.9 c 4.4,-4 12.1,-11.6 13.5,-2.9 1.3,8.7 -0.3,12.8 -0.5,19.9 -1.6,10.3 -2,20.5 -3,30.9 -3.3,0.7 -6.7,1.4 -10,2.2 7.1,-62.2 6.8,-40.1 -4.2,-38.4 -6.9,-6 -0.2,-7.6 4.2,-11.6 z"/>
	<path style="color:black; stroke-opacity:0.48;" d="m -206.1,554 c 2.9,-6.5 8.7,-9.5 16.1,-7.4 8.7,0.4 17.2,2.5 25.9,2.1 -2.3,2.6 -4.2,5.9 -6.7,8.1 -11.2,-0.5 -22.3,-2.7 -33.5,-2.5 -5.4,1.3 9.3,-12.6 2.5,-5.6 -1.5,1.8 -2.9,3.6 -4.4,5.4 z"/>
	<path style="color:black; stroke-opacity:0.48;" d="m -191.5,534.4 c 5,-0.9 12.5,-5.6 10.7,3.1 0.4,11.4 -0.3,22.8 -1,34.2 -3.3,0.7 -6.7,1.4 -10,2.1 0.6,-12.6 1.9,-25.3 0.7,-37.9 -2,-3.1 11.1,-3.6 8.7,-3.6 -3,0.7 -6,1.4 -9.1,2.1 z"/>
	<path style="color:black; stroke-opacity:0.48;" d="m -160.6,536.2 c -7.7,-8.3 3.8,-12.4 8.3,-15.3 4.5,-3 11.5,-0.3 9.2,6.7 -1.4,15 -4.6,30.9 -4.3,45 -3.3,0.7 -6.7,1.4 -10,2.1 0.5,-15.2 4.2,-28.3 4.3,-43.7 -2.1,2.7 -5,3.9 -7.4,5.2 z"/>
	<path style="color:black; stroke-opacity:0.48;" d="m -242.6,580.4 c 6.1,-3.9 13.6,-6.5 20.4,-9.5 3.5,-0.6 15.5,-8.4 9.8,-1 -1.6,4.6 -5.2,6.9 -9.9,7.9 -3.8,1.6 -8.5,3.6 -2.2,0.9 9.4,-4.6 -5.8,3.5 -8.5,3.3 -3.2,-0.5 -6.4,-1 -9.7,-1.5 z"/>
	<path style="color:black; stroke-opacity:0.48;" d="m -169.1,579.3 c 5.8,-4.2 13.3,-5.6 19.9,-8.3 2.8,-0.6 16.7,-7.3 11.4,-1.5 -5.9,6.4 3,4.3 -21.3,11.9 z"/>
</g>
</svg>