<?xml version="1.0" encoding="UTF-8" standalone="no"?>
<!-- Copyright 2021 mathsisfun.com -->

<svg
   width="214.2"
   height="123.7"
   version="1.1"
   style="font-family:'Trebuchet MS';stroke-width:0.5"
   id="svg25"
   sodipodi:docname="fraction-improper.svg"
   inkscape:version="1.1.2 (0a00cf5339, 2022-02-04, custom)"
   xmlns:inkscape="http://www.inkscape.org/namespaces/inkscape"
   xmlns:sodipodi="http://sodipodi.sourceforge.net/DTD/sodipodi-0.dtd"
   xmlns="http://www.w3.org/2000/svg"
   xmlns:svg="http://www.w3.org/2000/svg">
  <sodipodi:namedview
     id="namedview27"
     pagecolor="#ffffff"
     bordercolor="#666666"
     borderopacity="1.0"
     inkscape:pageshadow="2"
     inkscape:pageopacity="0.0"
     inkscape:pagecheckerboard="0"
     showgrid="false"
     showguides="true"
     inkscape:guide-bbox="true"
     inkscape:current-layer="svg25" />
  <defs
     id="defs5">
    <marker
       id="id1"
       style="overflow:visible"
       orient="auto">
      <path
         transform="matrix(-0.8,0,0,-0.8,-10,0)"
         style="stroke:black;stroke-width:1pt"
         d="M 0,0 5,-5 -12.5,0 5,5 Z"
         id="path2" />
    </marker>
    <marker
       style="overflow:visible"
       orient="auto"
       id="id11958"
       inkscape:stockid="id11958">
      <path
         transform="matrix(-0.8,0,0,-0.8,-10,0)"
         style="stroke:#009100;stroke-width:1pt;stroke-opacity:1;fill-opacity:1;fill:#009100"
         d="M 0,0 5,-5 -12.5,0 5,5 Z"
         id="path11458" />
    </marker>
    <marker
       style="overflow:visible"
       orient="auto"
       id="id17679"
       inkscape:stockid="id17679">
      <path
         transform="matrix(-0.8,0,0,-0.8,-10,0)"
         style="stroke:#009100;stroke-width:1pt;stroke-opacity:1;fill-opacity:1;fill:#009100"
         d="M 0,0 5,-5 -12.5,0 5,5 Z"
         id="path11461" />
    </marker>
  </defs>
  <path
     style="fill:#8d5fd3;stroke-opacity:0.48"
     d="m 164.795,46.941 c -1.8,-0.5 5,-2.3 1.1,-1 -2.3,0.9 -9.5,4.2 -3.6,1.4 6.7,-3.7 12.5,-9 17.6,-14.8 4.5,-5.1 8.8,-11.7 7.9,-18.8 -1.7,-5.9 -9.3,-8.1 -14.2,-4.8 -3.3,1.5 4.2,-1.8 5.6,-2.4 1.6,-1.3 -4.3,2.4 -3.6,4.8 -0.2,5.6 4.8,10 9.5,12 3.9,-0.1 2.5,0.5 0.9,2.9 -1.1,1.6 -2.3,3.3 -3.5,4.9 -7.3,-1.6 -13.8,-7.4 -15.8,-14.6 -1.7,-5.7 1.7,-12.6 7.5,-14.3 6.6,-4.1 16.1,-2.7 20.4,4 4.8,6.2 2.3,14.8 -1.1,21 -5.4,8.9 -13.3,16.2 -21.8,22 -3.8,1.9 -8.8,5.5 -12.7,5 2,-2.5 4,-4.9 6,-7.4 z"
     id="path7" />
  <path
     style="fill:#8d5fd3;stroke-opacity:0.48"
     d="m 143.095,70.441 c -1.1,-1.1 -9.5,3.9 -6.1,1.8 18.5,-8.3 37.8,-14.6 56.8,-21.5 6.8,-2.6 13.6,-5 20.4,-7.5 -1.6,2.7 -3.2,5.5 -4.8,8.2 -16.2,6.2 -32.7,11.8 -49,17.8 -5.6,2.2 -11.4,4.2 -17,6.6 2.2,-1 7,-2.9 2,-0.9 -1.8,0.8 -7.4,4.3 -7.8,2.5 1.9,-2.3 3.7,-4.6 5.6,-6.9 z"
     id="path9" />
  <path
     style="fill:#8d5fd3;stroke-opacity:0.48"
     d="m 174.595,78.141 c 1.6,0.5 6.7,-2.2 7.2,-2.9 -3.5,4 -5.1,9.3 -7.8,13.9 -1.5,2 -3.1,8.4 -4.6,7.5 -0.5,-5.1 -7.1,0.4 -7.9,0.2 4.9,-3.4 10.9,-4.6 16.4,-6.6 4.9,-1.4 11.5,-0.6 13.4,4.9 2.6,6.9 -2.9,13.1 -7.1,17.8 -4.6,5.4 -11.2,8.7 -17.9,10.5 -5.7,0.6 -12.3,-0.4 -16.3,-4.8 2.7,-1.6 5.4,-3.3 8.2,-4.9 4,2.7 9.6,3.3 14.1,1.2 -1.5,0.5 -8,3.5 -3.2,1.2 5.6,-3.1 9.8,-8.2 13.1,-13.6 3.2,-6.4 -5.4,-6.6 -9.2,-4.4 -2.3,0.7 -8.6,3.2 -3.2,1 6.1,-2.9 -4,2.4 -6.2,3.1 -6.5,-2.5 -0.5,-9 1.1,-13 2.8,-5.4 5.3,-10.9 8.3,-16.1 2,-1 10.4,-5.1 6.1,-0.7 -1.4,1.8 -2.9,3.6 -4.3,5.3 z"
     id="path11" />
  <path
     style="fill:#8d5fd3;stroke-opacity:0.48"
     d="m 176.795,72.741 c -1.9,-2.4 -7.9,3.9 -6.5,2.1 1.9,-0.8 10,-4.2 4.1,-1.7 -1.9,0.8 -8.6,3.6 -3.1,1.2 2.1,-0.9 7.2,-3 2.5,-1.1 -2.5,1 -7.2,3 -2,0.9 6.5,-3.1 13.9,-2.9 20.9,-4.4 3.6,-1.3 3.5,-0.2 1.4,2.2 -1.1,1.7 -2.2,3.3 -3.4,5 -6.3,1.2 -13,1.7 -19.1,3.4 2.3,-0.6 11,-3.9 4.1,-2 -2.5,1.3 -6.1,3.1 -1.4,1 2.3,-0.9 7,-3 2,-0.9 -2,0.8 -8.5,3.5 -3,1.2 2.5,-0.9 7,-3.2 2.4,-0.7 -2.2,2.7 -6.8,1.7 -3.2,-1.1 1.4,-1.7 2.8,-3.4 4.1,-5.1 z"
     id="path13" />
  <path
     style="fill:#009100;fill-opacity:1;stroke:#009100;stroke-width:1.19;marker-end:url(#id17679)"
     d="m 85.495,23.141 h 51.9"
     id="path15" />
  <path
     style="fill:#009100;fill-opacity:1;stroke:#009100;stroke-width:1.19;marker-end:url(#id11958)"
     d="m 85.495,95.841 h 51.9"
     id="path17" />
  <text
     x="40.795"
     y="21.141"
     style="font-size:18px;text-align:center;text-anchor:middle;fill:#009100;stroke-width:0.24px"
     id="text19">Larger</text>
  <text
     x="38.795"
     y="93.241"
     style="font-size:18px;text-align:center;text-anchor:middle;fill:#009100;stroke-width:0.24px"
     id="text21">Smaller</text>
  <text
     x="39.3732"
     y="38.2459"
     style="font-size:18px;text-align:center;text-anchor:middle;fill:#009100;stroke-width:0.24px"
     id="text5436">(or equal)</text>
  <text
     x="37.3732"
     y="110.346"
     style="font-size:18px;text-align:center;text-anchor:middle;fill:#009100;stroke-width:0.24px"
     id="text5438">(or equal)</text>
</svg>
