<?xml version="1.0" encoding="UTF-8" standalone="no"?>
<!-- Created with Inkscape (http://www.inkscape.org/) -->

<svg
   width="195.426"
   height="81.6909"
   id="svg2"
   version="1.1"
   inkscape:version="1.1 (c68e22c387, 2021-05-23)"
   sodipodi:docname="fraction-multiply-divide.svg"
   xmlns:inkscape="http://www.inkscape.org/namespaces/inkscape"
   xmlns:sodipodi="http://sodipodi.sourceforge.net/DTD/sodipodi-0.dtd"
   xmlns="http://www.w3.org/2000/svg"
   xmlns:svg="http://www.w3.org/2000/svg"
   xmlns:rdf="http://www.w3.org/1999/02/22-rdf-syntax-ns#"
   xmlns:cc="http://creativecommons.org/ns#"
   xmlns:dc="http://purl.org/dc/elements/1.1/">
  <defs
     id="defs4">
    <linearGradient
       id="linearGradient6705">
      <stop
         style="stop-color:#9ade00;stop-opacity:1"
         offset="0"
         id="stop6707" />
      <stop
         style="stop-color:#ba00ff;stop-opacity:1"
         offset="1"
         id="stop6709" />
    </linearGradient>
    <inkscape:perspective
       sodipodi:type="inkscape:persp3d"
       inkscape:vp_x="0 : -444.49 : 1"
       inkscape:vp_y="0 : 1000 : 0"
       inkscape:vp_z="744.094 : -444.49 : 1"
       inkscape:persp3d-origin="372.047 : -619.884 : 1"
       id="perspective10" />
    <inkscape:perspective
       id="perspective2832"
       inkscape:persp3d-origin="0.5 : -970.338 : 1"
       inkscape:vp_z="1 : -970.171 : 1"
       inkscape:vp_y="0 : 1000 : 0"
       inkscape:vp_x="0 : -970.171 : 1"
       sodipodi:type="inkscape:persp3d" />
    <inkscape:perspective
       id="perspective2857"
       inkscape:persp3d-origin="0.5 : -970.338 : 1"
       inkscape:vp_z="1 : -970.171 : 1"
       inkscape:vp_y="0 : 1000 : 0"
       inkscape:vp_x="0 : -970.171 : 1"
       sodipodi:type="inkscape:persp3d" />
    <inkscape:perspective
       id="perspective3794"
       inkscape:persp3d-origin="0.5 : -970.338 : 1"
       inkscape:vp_z="1 : -970.171 : 1"
       inkscape:vp_y="0 : 1000 : 0"
       inkscape:vp_x="0 : -970.171 : 1"
       sodipodi:type="inkscape:persp3d" />
  </defs>
  <sodipodi:namedview
     id="base"
     pagecolor="#ffffff"
     bordercolor="#666666"
     borderopacity="1.0"
     inkscape:pageopacity="0.0"
     inkscape:pageshadow="2"
     inkscape:zoom="0.5"
     inkscape:cx="-1184.3444"
     inkscape:cy="285.44854"
     inkscape:document-units="px"
     inkscape:current-layer="layer1"
     showgrid="false"
     inkscape:window-width="1920"
     inkscape:window-height="1005"
     inkscape:window-x="1911"
     inkscape:window-y="-9"
     inkscape:window-maximized="1"
     inkscape:pagecheckerboard="0" />
  <metadata
     id="metadata7">
    <rdf:RDF>
      <cc:Work
         rdf:about="">
        <dc:format>image/svg+xml</dc:format>
        <dc:type
           rdf:resource="http://purl.org/dc/dcmitype/StillImage" />
      </cc:Work>
    </rdf:RDF>
  </metadata>
  <g
     inkscape:label="Layer 1"
     inkscape:groupmode="layer"
     id="layer1"
     transform="translate(-159.053,-690.173)">
    <text
       id="text3697"
       y="724.269"
       x="173.868"
       style="color:#000000;font-style:normal;font-variant:normal;font-weight:normal;font-stretch:normal;font-size:9.60001px;line-height:0%;font-family:Arial;-inkscape-font-specification:Arial;text-indent:0;text-align:start;text-decoration:none;text-decoration-line:none;letter-spacing:normal;word-spacing:normal;text-transform:none;writing-mode:lr-tb;direction:ltr;text-anchor:start;display:inline;overflow:visible;visibility:visible;fill:#009100;fill-opacity:1;fill-rule:nonzero;stroke:none;stroke-width:1px;marker:none;enable-background:accumulate"
       xml:space="preserve"
       transform="scale(1.00035,0.999651)"><tspan
         y="724.269"
         x="173.868"
         id="tspan3699"
         sodipodi:role="line"
         style="font-size:44.2709px;line-height:1.25;stroke-width:1px;fill:#009100">3</tspan></text>
    <text
       id="text3701"
       y="771.155"
       x="172.159"
       style="color:#000000;font-style:normal;font-variant:normal;font-weight:normal;font-stretch:normal;font-size:9.60001px;line-height:0%;font-family:Arial;-inkscape-font-specification:Arial;text-indent:0;text-align:start;text-decoration:none;text-decoration-line:none;letter-spacing:normal;word-spacing:normal;text-transform:none;writing-mode:lr-tb;direction:ltr;text-anchor:start;display:inline;overflow:visible;visibility:visible;fill:#009100;fill-opacity:1;fill-rule:nonzero;stroke:none;stroke-width:1px;marker:none;enable-background:accumulate"
       xml:space="preserve"
       transform="scale(1.00035,0.999651)"><tspan
         y="771.155"
         x="172.159"
         id="tspan3703"
         sodipodi:role="line"
         style="font-size:44.2709px;line-height:1.25;stroke-width:1px;fill:#009100">4</tspan></text>
    <path
       style="fill:#666666;stroke:#009100;stroke-width:2;stroke-linecap:butt;stroke-linejoin:miter;stroke-miterlimit:4;stroke-dasharray:none;stroke-opacity:1"
       d="m 162.449,730.936 h 48.538"
       id="path3705" />
    <g
       id="g3731"
       transform="matrix(-1.1687,0.037618,0.037644,1.1679,580.934,46.5413)"
       style="fill:#ba00ff;stroke-width:1.25">
      <path
         d="m 259.67,558.284 c 0.207,-0.296 0.491,-0.515 0.78,-0.732 0.418,-0.343 0.863,-0.65 1.311,-0.951 0.51,-0.341 1.006,-0.702 1.526,-1.029 1.596,-1.093 3.298,-2.024 5.055,-2.824 0.855,-0.417 1.732,-0.782 2.619,-1.125 0.909,-0.377 1.841,-0.693 2.785,-0.971 0.938,-0.31 1.897,-0.55 2.86,-0.769 0.964,-0.211 1.933,-0.409 2.913,-0.528 0.972,-0.131 1.955,-0.14 2.935,-0.162 0.955,0 1.907,0.05 2.861,0.09 0.928,0.06 1.848,0.18 2.768,0.308 0.885,0.139 1.753,0.358 2.621,0.574 0.829,0.233 1.651,0.49 2.465,0.772 0.751,0.253 1.494,0.535 2.229,0.833 0.696,0.26 1.367,0.583 2.043,0.89 0.666,0.311 1.335,0.617 2.006,0.916 0.658,0.304 1.316,0.608 1.991,0.872 0.67,0.281 1.351,0.536 2.036,0.777 0.683,0.24 1.383,0.425 2.088,0.589 0.723,0.201 1.454,0.371 2.19,0.517 0.728,0.145 1.462,0.254 2.197,0.356 0.761,0.113 1.525,0.176 2.293,0.212 0.81,0.06 1.622,0.04 2.433,0.04 0.824,0.01 1.646,-0.03 2.469,-0.07 0.795,-0.05 1.595,-0.09 2.386,-0.192 0.734,-0.07 1.461,-0.182 2.192,-0.28 0.694,-0.115 1.383,-0.26 2.075,-0.386 0.672,-0.139 1.329,-0.332 1.991,-0.511 0.618,-0.195 1.229,-0.414 1.849,-0.603 0.456,-0.177 0.916,-0.324 1.36,-0.529 0,0 -1.96,3.901 -1.96,3.901 v 0 c -0.486,0.158 -0.97,0.324 -1.459,0.47 -0.634,0.209 -1.277,0.396 -1.925,0.555 -0.695,0.176 -1.398,0.324 -2.105,0.444 -0.713,0.133 -1.43,0.249 -2.151,0.336 -0.747,0.1 -1.497,0.172 -2.247,0.238 -0.821,0.05 -1.642,0.119 -2.465,0.136 -0.842,0.03 -1.684,0.03 -2.526,0.02 -0.844,0 -1.687,-0.05 -2.529,-0.107 -0.807,-0.07 -1.61,-0.175 -2.41,-0.298 -0.766,-0.122 -1.529,-0.257 -2.285,-0.428 -0.75,-0.174 -1.494,-0.368 -2.239,-0.56 -0.751,-0.206 -1.497,-0.431 -2.224,-0.711 -0.701,-0.265 -1.401,-0.532 -2.089,-0.828 -0.681,-0.296 -1.357,-0.602 -2.031,-0.912 -0.67,-0.307 -1.343,-0.608 -2.011,-0.919 -0.649,-0.296 -1.308,-0.57 -1.974,-0.826 -0.714,-0.27 -1.428,-0.54 -2.156,-0.771 -0.777,-0.247 -1.556,-0.494 -2.353,-0.676 -0.816,-0.192 -1.639,-0.356 -2.472,-0.454 -0.878,-0.109 -1.759,-0.188 -2.643,-0.217 -0.916,-0.04 -1.834,-0.06 -2.75,-0.02 -0.923,0.04 -1.845,0.111 -2.754,0.279 -0.931,0.179 -1.861,0.366 -2.778,0.607 -0.927,0.248 -1.844,0.525 -2.753,0.83 -0.898,0.316 -1.786,0.661 -2.662,1.033 -0.851,0.37 -1.69,0.767 -2.518,1.185 -0.35,0.184 -0.69,0.381 -1.032,0.58 -0.103,0.06 -0.414,0.245 -0.31,0.184 2.882,-1.672 3.639,-2.061 2.436,-1.433 -0.505,0.324 -1.032,0.616 -1.514,0.975 -0.427,0.292 -0.857,0.577 -1.291,0.857 -0.163,0.124 -0.384,0.347 -0.579,0.417 -0.03,0.01 -0.07,-0.01 -0.1,10e-4 -0.03,0.01 -0.05,0.05 -0.07,0.07 0,0 -4.405,-0.06 -4.405,-0.06 z"
         id="path3725"
         style="color:#000000;display:inline;overflow:visible;visibility:visible;fill:#ba00ff;fill-opacity:1;fill-rule:nonzero;stroke:none;stroke-width:2.5;marker:none;enable-background:accumulate" />
      <path
         d="m 312.594,549.189 c 0.254,0.163 0.529,0.284 0.804,0.41 0.346,0.128 0.663,0.317 1.004,0.459 0.394,0.202 0.806,0.365 1.208,0.551 0.453,0.192 0.914,0.372 1.357,0.586 0.448,0.182 0.889,0.382 1.34,0.555 0.469,0.203 0.949,0.376 1.425,0.562 0.486,0.162 0.97,0.335 1.46,0.486 0.524,0.13 1.036,0.297 1.555,0.441 0.523,0.123 1.031,0.292 1.552,0.421 0.523,0.109 1.034,0.268 1.555,0.388 0.515,0.127 1.026,0.27 1.546,0.38 0.515,0.1 1.03,0.21 1.554,0.235 0.447,0.04 0.893,0.04 1.341,0.03 0,0 -2.556,3.537 -2.556,3.537 v 0 c -0.5,-0.03 -0.998,-0.08 -1.493,-0.147 -0.568,-0.108 -1.138,-0.21 -1.699,-0.353 -0.521,-0.132 -1.04,-0.276 -1.565,-0.397 -0.526,-0.139 -1.054,-0.27 -1.58,-0.41 -0.526,-0.15 -1.053,-0.294 -1.578,-0.445 -0.534,-0.161 -1.074,-0.298 -1.601,-0.482 -0.515,-0.178 -1.034,-0.346 -1.538,-0.556 -0.481,-0.191 -0.966,-0.372 -1.442,-0.577 -0.461,-0.199 -0.927,-0.384 -1.383,-0.597 -0.455,-0.186 -0.904,-0.388 -1.356,-0.584 -0.411,-0.176 -0.812,-0.375 -1.222,-0.554 -0.336,-0.164 -0.68,-0.308 -1.019,-0.465 -0.208,-0.1 -0.445,-0.239 -0.672,-0.254 0,0 3.003,-3.225 3.003,-3.225 z"
         id="path3727"
         style="color:#000000;display:inline;overflow:visible;visibility:visible;fill:#ba00ff;fill-opacity:1;fill-rule:nonzero;stroke:none;stroke-width:2.5;marker:none;enable-background:accumulate" />
      <path
         d="m 312.663,567.602 c 0.15,-0.271 0.318,-0.537 0.539,-0.757 0.258,-0.316 0.513,-0.632 0.789,-0.934 0.354,-0.37 0.701,-0.747 1.07,-1.102 0.414,-0.403 0.843,-0.789 1.265,-1.184 0.426,-0.394 0.895,-0.737 1.336,-1.113 0.436,-0.358 0.875,-0.714 1.328,-1.049 0.451,-0.338 0.917,-0.651 1.361,-0.997 0.452,-0.342 0.934,-0.638 1.404,-0.954 10.702,-6.174 -1.184,0.686 0.473,-0.281 1.406,-0.82 2.593,-1.64 4.04,-2.216 0.521,-0.18 1.017,-0.414 1.542,-0.589 0.359,-0.11 0.178,-0.06 0.541,-0.16 0,0 -2.033,3.866 -2.033,3.866 v 0 c -0.318,0.126 -0.16,0.06 -0.474,0.195 -0.476,0.212 -0.962,0.401 -1.42,0.648 -0.236,0.134 -0.207,0.115 -0.439,0.256 -0.07,0.04 -0.293,0.177 -0.218,0.135 0.933,-0.536 3.734,-2.142 2.797,-1.613 -1.299,0.733 -6.845,3.952 -0.471,0.257 -0.48,0.25 -0.932,0.549 -1.391,0.833 -0.474,0.289 -0.89,0.656 -1.359,0.952 -0.442,0.319 -0.888,0.634 -1.322,0.962 -0.453,0.347 -0.876,0.73 -1.335,1.068 -0.443,0.337 -0.846,0.72 -1.259,1.092 -0.357,0.332 -0.729,0.648 -1.059,1.01 -0.267,0.267 -0.543,0.523 -0.782,0.816 -0.152,0.212 -0.346,0.384 -0.528,0.561 0,0 -4.395,0.298 -4.395,0.298 z"
         id="path3729"
         style="color:#000000;display:inline;overflow:visible;visibility:visible;fill:#ba00ff;fill-opacity:1;fill-rule:nonzero;stroke:none;stroke-width:2.5;marker:none;enable-background:accumulate" />
    </g>
    <g
       transform="matrix(-1.1687,0.037618,0.037644,1.1679,583.147,93.7233)"
       id="g3736"
       style="fill:#9ade00;stroke-width:1.25">
      <path
         style="color:#000000;display:inline;overflow:visible;visibility:visible;fill:#9ade00;fill-opacity:1;fill-rule:nonzero;stroke:none;stroke-width:2.5;marker:none;enable-background:accumulate"
         id="path3738"
         d="m 259.67,558.284 c 0.207,-0.296 0.491,-0.515 0.78,-0.732 0.418,-0.343 0.863,-0.65 1.311,-0.951 0.51,-0.341 1.006,-0.702 1.526,-1.029 1.596,-1.093 3.298,-2.024 5.055,-2.824 0.855,-0.417 1.732,-0.782 2.619,-1.125 0.909,-0.377 1.841,-0.693 2.785,-0.971 0.938,-0.31 1.897,-0.55 2.86,-0.769 0.964,-0.211 1.933,-0.409 2.913,-0.528 0.972,-0.131 1.955,-0.14 2.935,-0.162 0.955,0 1.907,0.05 2.861,0.09 0.928,0.06 1.848,0.18 2.768,0.308 0.885,0.139 1.753,0.358 2.621,0.574 0.829,0.233 1.651,0.49 2.465,0.772 0.751,0.253 1.494,0.535 2.229,0.833 0.696,0.26 1.367,0.583 2.043,0.89 0.666,0.311 1.335,0.617 2.006,0.916 0.658,0.304 1.316,0.608 1.991,0.872 0.67,0.281 1.351,0.536 2.036,0.777 0.683,0.24 1.383,0.425 2.088,0.589 0.723,0.201 1.454,0.371 2.19,0.517 0.728,0.145 1.462,0.254 2.197,0.356 0.761,0.113 1.525,0.176 2.293,0.212 0.81,0.06 1.622,0.04 2.433,0.04 0.824,0.01 1.646,-0.03 2.469,-0.07 0.795,-0.05 1.595,-0.09 2.386,-0.192 0.734,-0.07 1.461,-0.182 2.192,-0.28 0.694,-0.115 1.383,-0.26 2.075,-0.386 0.672,-0.139 1.329,-0.332 1.991,-0.511 0.618,-0.195 1.229,-0.414 1.849,-0.603 0.456,-0.177 0.916,-0.324 1.36,-0.529 0,0 -1.96,3.901 -1.96,3.901 v 0 c -0.486,0.158 -0.97,0.324 -1.459,0.47 -0.634,0.209 -1.277,0.396 -1.925,0.555 -0.695,0.176 -1.398,0.324 -2.105,0.444 -0.713,0.133 -1.43,0.249 -2.151,0.336 -0.747,0.1 -1.497,0.172 -2.247,0.238 -0.821,0.05 -1.642,0.119 -2.465,0.136 -0.842,0.03 -1.684,0.03 -2.526,0.02 -0.844,0 -1.687,-0.05 -2.529,-0.107 -0.807,-0.07 -1.61,-0.175 -2.41,-0.298 -0.766,-0.122 -1.529,-0.257 -2.285,-0.428 -0.75,-0.174 -1.494,-0.368 -2.239,-0.56 -0.751,-0.206 -1.497,-0.431 -2.224,-0.711 -0.701,-0.265 -1.401,-0.532 -2.089,-0.828 -0.681,-0.296 -1.357,-0.602 -2.031,-0.912 -0.67,-0.307 -1.343,-0.608 -2.011,-0.919 -0.649,-0.296 -1.308,-0.57 -1.974,-0.826 -0.714,-0.27 -1.428,-0.54 -2.156,-0.771 -0.777,-0.247 -1.556,-0.494 -2.353,-0.676 -0.816,-0.192 -1.639,-0.356 -2.472,-0.454 -0.878,-0.109 -1.759,-0.188 -2.643,-0.217 -0.916,-0.04 -1.834,-0.06 -2.75,-0.02 -0.923,0.04 -1.845,0.111 -2.754,0.279 -0.931,0.179 -1.861,0.366 -2.778,0.607 -0.927,0.248 -1.844,0.525 -2.753,0.83 -0.898,0.316 -1.786,0.661 -2.662,1.033 -0.851,0.37 -1.69,0.767 -2.518,1.185 -0.35,0.184 -0.69,0.381 -1.032,0.58 -0.103,0.06 -0.414,0.245 -0.31,0.184 2.882,-1.672 3.639,-2.061 2.436,-1.433 -0.505,0.324 -1.032,0.616 -1.514,0.975 -0.427,0.292 -0.857,0.577 -1.291,0.857 -0.163,0.124 -0.384,0.347 -0.579,0.417 -0.03,0.01 -0.07,-0.01 -0.1,10e-4 -0.03,0.01 -0.05,0.05 -0.07,0.07 0,0 -4.405,-0.06 -4.405,-0.06 z" />
      <path
         style="color:#000000;display:inline;overflow:visible;visibility:visible;fill:#9ade00;fill-opacity:1;fill-rule:nonzero;stroke:none;stroke-width:2.5;marker:none;enable-background:accumulate"
         id="path3740"
         d="m 312.594,549.189 c 0.254,0.163 0.529,0.284 0.804,0.41 0.346,0.128 0.663,0.317 1.004,0.459 0.394,0.202 0.806,0.365 1.208,0.551 0.453,0.192 0.914,0.372 1.357,0.586 0.448,0.182 0.889,0.382 1.34,0.555 0.469,0.203 0.949,0.376 1.425,0.562 0.486,0.162 0.97,0.335 1.46,0.486 0.524,0.13 1.036,0.297 1.555,0.441 0.523,0.123 1.031,0.292 1.552,0.421 0.523,0.109 1.034,0.268 1.555,0.388 0.515,0.127 1.026,0.27 1.546,0.38 0.515,0.1 1.03,0.21 1.554,0.235 0.447,0.04 0.893,0.04 1.341,0.03 0,0 -2.556,3.537 -2.556,3.537 v 0 c -0.5,-0.03 -0.998,-0.08 -1.493,-0.147 -0.568,-0.108 -1.138,-0.21 -1.699,-0.353 -0.521,-0.132 -1.04,-0.276 -1.565,-0.397 -0.526,-0.139 -1.054,-0.27 -1.58,-0.41 -0.526,-0.15 -1.053,-0.294 -1.578,-0.445 -0.534,-0.161 -1.074,-0.298 -1.601,-0.482 -0.515,-0.178 -1.034,-0.346 -1.538,-0.556 -0.481,-0.191 -0.966,-0.372 -1.442,-0.577 -0.461,-0.199 -0.927,-0.384 -1.383,-0.597 -0.455,-0.186 -0.904,-0.388 -1.356,-0.584 -0.411,-0.176 -0.812,-0.375 -1.222,-0.554 -0.336,-0.164 -0.68,-0.308 -1.019,-0.465 -0.208,-0.1 -0.445,-0.239 -0.672,-0.254 0,0 3.003,-3.225 3.003,-3.225 z" />
      <path
         style="color:#000000;display:inline;overflow:visible;visibility:visible;fill:#9ade00;fill-opacity:1;fill-rule:nonzero;stroke:none;stroke-width:2.5;marker:none;enable-background:accumulate"
         id="path3742"
         d="m 312.663,567.602 c 0.15,-0.271 0.318,-0.537 0.539,-0.757 0.258,-0.316 0.513,-0.632 0.789,-0.934 0.354,-0.37 0.701,-0.747 1.07,-1.102 0.414,-0.403 0.843,-0.789 1.265,-1.184 0.426,-0.394 0.895,-0.737 1.336,-1.113 0.436,-0.358 0.875,-0.714 1.328,-1.049 0.451,-0.338 0.917,-0.651 1.361,-0.997 0.452,-0.342 0.934,-0.638 1.404,-0.954 10.702,-6.174 -1.184,0.686 0.473,-0.281 1.406,-0.82 2.593,-1.64 4.04,-2.216 0.521,-0.18 1.017,-0.414 1.542,-0.589 0.359,-0.11 0.178,-0.06 0.541,-0.16 0,0 -2.033,3.866 -2.033,3.866 v 0 c -0.318,0.126 -0.16,0.06 -0.474,0.195 -0.476,0.212 -0.962,0.401 -1.42,0.648 -0.236,0.134 -0.207,0.115 -0.439,0.256 -0.07,0.04 -0.293,0.177 -0.218,0.135 0.933,-0.536 3.734,-2.142 2.797,-1.613 -1.299,0.733 -6.845,3.952 -0.471,0.257 -0.48,0.25 -0.932,0.549 -1.391,0.833 -0.474,0.289 -0.89,0.656 -1.359,0.952 -0.442,0.319 -0.888,0.634 -1.322,0.962 -0.453,0.347 -0.876,0.73 -1.335,1.068 -0.443,0.337 -0.846,0.72 -1.259,1.092 -0.357,0.332 -0.729,0.648 -1.059,1.01 -0.267,0.267 -0.543,0.523 -0.782,0.816 -0.152,0.212 -0.346,0.384 -0.528,0.561 0,0 -4.395,0.298 -4.395,0.298 z" />
    </g>
    <text
       id="text3744"
       y="720.659"
       x="308.288"
       style="color:#000000;font-style:normal;font-variant:normal;font-weight:normal;font-stretch:normal;font-size:9.60001px;line-height:0%;font-family:Arial;-inkscape-font-specification:Arial;text-indent:0;text-align:start;text-decoration:none;text-decoration-line:none;letter-spacing:normal;word-spacing:normal;text-transform:none;writing-mode:lr-tb;direction:ltr;text-anchor:start;display:inline;overflow:visible;visibility:visible;fill:#ba00ff;fill-opacity:1;fill-rule:nonzero;stroke:none;stroke-width:1px;marker:none;enable-background:accumulate"
       xml:space="preserve"
       transform="scale(1.00035,0.999651)"><tspan
         y="720.659"
         x="308.288"
         id="tspan3746"
         sodipodi:role="line"
         style="font-size:42.0806px;line-height:1.25;stroke-width:1px">ร3</tspan></text>
    <text
       id="text3748"
       y="772.133"
       x="308.775"
       style="color:#000000;font-style:normal;font-variant:normal;font-weight:normal;font-stretch:normal;font-size:9.60001px;line-height:0%;font-family:Arial;-inkscape-font-specification:Arial;text-indent:0;text-align:start;text-decoration:none;text-decoration-line:none;letter-spacing:normal;word-spacing:normal;text-transform:none;writing-mode:lr-tb;direction:ltr;text-anchor:start;display:inline;overflow:visible;visibility:visible;fill:#9ade00;fill-opacity:1;fill-rule:nonzero;stroke:none;stroke-width:1px;marker:none;enable-background:accumulate"
       xml:space="preserve"
       transform="scale(1.00035,0.999651)"><tspan
         y="772.133"
         x="308.775"
         id="tspan3750"
         sodipodi:role="line"
         style="font-size:42.0806px;line-height:1.25;stroke-width:1px">รท4</tspan></text>
  </g>
</svg>
