<?xml version="1.0" encoding="UTF-8" standalone="no"?>
<!-- Created with Inkscape (http://www.inkscape.org/) -->

<svg
   xmlns:dc="http://purl.org/dc/elements/1.1/"
   xmlns:cc="http://creativecommons.org/ns#"
   xmlns:rdf="http://www.w3.org/1999/02/22-rdf-syntax-ns#"
   xmlns:svg="http://www.w3.org/2000/svg"
   xmlns="http://www.w3.org/2000/svg"
   xmlns:sodipodi="http://sodipodi.sourceforge.net/DTD/sodipodi-0.dtd"
   xmlns:inkscape="http://www.inkscape.org/namespaces/inkscape"
   width="180.991"
   height="106.206"
   id="svg2"
   sodipodi:version="0.32"
   inkscape:version="0.92.2 (5c3e80d, 2017-08-06)"
   sodipodi:docname="fraction-proper.svg"
   inkscape:output_extension="org.inkscape.output.svg.inkscape"
   version="1.1">
  <defs
     id="defs4">
    <marker
       inkscape:stockid="Arrow1Lend"
       orient="auto"
       refY="0"
       refX="0"
       id="Arrow1Lend"
       style="overflow:visible">
      <path
         id="path2961"
         d="M 0,0 5,-5 -12.5,0 5,5 Z"
         style="fill-rule:evenodd;stroke:#000000;stroke-width:1pt;marker-start:none"
         transform="matrix(-0.8,0,0,-0.8,-10,0)"
         inkscape:connector-curvature="0" />
    </marker>
  </defs>
  <sodipodi:namedview
     id="base"
     pagecolor="#ffffff"
     bordercolor="#666666"
     borderopacity="1.0"
     gridtolerance="10000"
     guidetolerance="10"
     objecttolerance="10"
     inkscape:pageopacity="0.0"
     inkscape:pageshadow="2"
     inkscape:zoom="0.20102221"
     inkscape:cx="441.8263"
     inkscape:cy="549.07713"
     inkscape:document-units="px"
     inkscape:current-layer="layer1"
     showborder="true"
     inkscape:window-width="1108"
     inkscape:window-height="843"
     inkscape:window-x="406"
     inkscape:window-y="45"
     showgrid="false" />
  <metadata
     id="metadata7">
    <rdf:RDF>
      <cc:Work
         rdf:about="">
        <dc:format>image/svg+xml</dc:format>
        <dc:type
           rdf:resource="http://purl.org/dc/dcmitype/StillImage" />
        <dc:title></dc:title>
      </cc:Work>
    </rdf:RDF>
  </metadata>
  <g
     inkscape:label="Layer 1"
     inkscape:groupmode="layer"
     id="layer1"
     transform="translate(287.591,-965.804)">
    <path
       style="color:#000000;display:inline;overflow:visible;visibility:visible;opacity:1;fill:#8d5fd3;fill-opacity:1;fill-rule:nonzero;stroke:none;stroke-width:0.42;stroke-linecap:butt;stroke-linejoin:miter;stroke-miterlimit:4;stroke-dasharray:none;stroke-dashoffset:0;stroke-opacity:0.476684;marker:none;marker-start:none;marker-mid:none;marker-end:none"
       d="m -143.05,1033.14 c 1.28,0.54 2.883,-1.18 4.299,-1.6 4.094,-2.6 -1.023,1.04 -1.01,3.39 -2.209,4.88 -4.225,9.85 -6.496,14.7 -0.624,-3.61 -3.061,-2.41 -5.199,-1.15 -4.832,2.64 1.961,-1.81 3.856,-2.24 4.969,-1.87 10.421,-5.17 15.826,-3.04 5.076,2.42 5.119,9.43 2.12,13.51 -3.672,6.08 -8.851,11.45 -15.629,13.95 -4.999,2.34 -11.378,1.67 -15.905,-1.48 -1.817,-1.3 1.887,-2.13 2.768,-3.19 1.785,-1.25 3.419,-2.91 5.49,-0.96 3.036,0.86 6.604,0.92 9.43,-0.64 -1.224,0.53 -6.555,3.31 -2.594,1.19 4.551,-2.84 7.882,-7.34 10.365,-12 2.402,-5.52 -4.826,-5.34 -7.918,-3.33 -1.909,0.72 -7.101,3.1 -2.653,0.99 4.932,-2.95 -3.532,2.9 -5.567,2.76 -5.059,-2.58 0.306,-7.89 1.16,-11.52 2.34,-4.37 3.484,-9.84 6.679,-13.5 1.958,-1.28 7.753,-4.01 4.176,-0.21 -1.066,1.46 -2.132,2.91 -3.198,4.37 z"
       id="path2265"
       inkscape:connector-curvature="0" />
    <path
       style="color:#000000;display:inline;overflow:visible;visibility:visible;opacity:1;fill:#8d5fd3;fill-opacity:1;fill-rule:nonzero;stroke:none;stroke-width:0.42;stroke-linecap:butt;stroke-linejoin:miter;stroke-miterlimit:4;stroke-dasharray:none;stroke-dashoffset:0;stroke-opacity:0.476684;marker:none;marker-start:none;marker-mid:none;marker-end:none"
       d="m -139.846,1027.52 c -1.641,-2.08 -6.62,3.24 -5.461,1.79 1.565,-0.66 8.427,-3.53 3.468,-1.47 -1.615,0.68 -7.229,3 -2.592,1.05 1.732,-0.74 6.041,-2.54 2.13,-0.92 -2.108,0.85 -6.021,2.51 -1.667,0.76 5.867,-2.68 12.513,-2.53 18.761,-3.92 3.19,-1.23 0.01,1.74 -0.585,3.02 -1.197,1.37 -1.69,3.85 -3.955,3.56 -4.747,0.87 -9.732,1.26 -14.318,2.52 1.95,-0.53 9.254,-3.27 3.451,-1.69 -2.066,1.07 -5.133,2.59 -1.219,0.84 1.915,-0.8 5.876,-2.49 1.675,-0.74 -1.672,0.7 -7.15,2.98 -2.486,1.03 2.065,-0.8 5.924,-2.69 2.002,-0.56 -2.229,2.55 -5.607,1.12 -2.474,-1.2 1.09,-1.36 2.18,-2.71 3.27,-4.07 z"
       id="path2267"
       inkscape:connector-curvature="0" />
    <text
       xml:space="preserve"
       style="color:#000000;font-style:normal;font-variant:normal;font-weight:normal;font-stretch:normal;font-size:18.666668px;line-height:0%;font-family:'Comic Sans MS';-inkscape-font-specification:'Comic Sans MS, Normal';font-variant-ligatures:normal;font-variant-caps:normal;font-variant-numeric:normal;font-feature-settings:normal;text-indent:0;text-align:center;text-decoration:none;text-decoration-line:none;letter-spacing:normal;word-spacing:normal;text-transform:none;writing-mode:lr-tb;direction:ltr;text-anchor:middle;display:inline;overflow:visible;visibility:visible;opacity:1;fill:#c4a000;fill-opacity:1;fill-rule:nonzero;stroke:none;stroke-width:0.2px;stroke-linecap:butt;stroke-linejoin:miter;stroke-miterlimit:4;stroke-dasharray:none;stroke-dashoffset:0;stroke-opacity:1;marker:none;marker-start:none;marker-mid:none;marker-end:none"
       x="-258.651"
       y="1053.73"
       id="text2269"><tspan
         sodipodi:role="line"
         id="tspan1967"
         x="-258.651"
         y="1053.73"
         style="font-style:normal;font-variant:normal;font-weight:normal;font-stretch:normal;font-size:18.666668px;line-height:1;font-family:'Comic Sans MS';-inkscape-font-specification:'Comic Sans MS, Normal';font-variant-ligatures:normal;font-variant-caps:normal;font-variant-numeric:normal;font-feature-settings:normal;text-align:center;writing-mode:lr-tb;text-anchor:middle;fill:#c4a000;stroke-width:0.2px">Larger</tspan></text>
    <text
       id="text2272"
       y="992.389"
       x="-255.599"
       style="color:#000000;font-style:normal;font-variant:normal;font-weight:normal;font-stretch:normal;font-size:18.666668px;line-height:0%;font-family:'Comic Sans MS';-inkscape-font-specification:'Comic Sans MS, Normal';font-variant-ligatures:normal;font-variant-caps:normal;font-variant-numeric:normal;font-feature-settings:normal;text-indent:0;text-align:center;text-decoration:none;text-decoration-line:none;letter-spacing:normal;word-spacing:normal;text-transform:none;writing-mode:lr-tb;direction:ltr;text-anchor:middle;display:inline;overflow:visible;visibility:visible;opacity:1;fill:#c4a000;fill-opacity:1;fill-rule:nonzero;stroke:none;stroke-width:0.2px;stroke-linecap:butt;stroke-linejoin:miter;stroke-miterlimit:4;stroke-dasharray:none;stroke-dashoffset:0;stroke-opacity:1;marker:none;marker-start:none;marker-mid:none;marker-end:none"
       xml:space="preserve"><tspan
         sodipodi:role="line"
         id="tspan2997"
         x="-255.599"
         y="992.389"
         style="font-style:normal;font-variant:normal;font-weight:normal;font-stretch:normal;font-size:18.666668px;line-height:1.25;font-family:'Comic Sans MS';-inkscape-font-specification:'Comic Sans MS, Normal';font-variant-ligatures:normal;font-variant-caps:normal;font-variant-numeric:normal;font-feature-settings:normal;text-align:center;writing-mode:lr-tb;text-anchor:middle;fill:#c4a000;stroke-width:0.2px">Smaller</tspan></text>
    <path
       style="fill:none;fill-opacity:0.75;fill-rule:evenodd;stroke:#000000;stroke-width:1;stroke-linecap:butt;stroke-linejoin:miter;stroke-miterlimit:4;stroke-dasharray:none;stroke-opacity:1;marker-end:url(#Arrow1Lend)"
       d="m -217.046,987.508 h 43.676"
       id="path2275"
       inkscape:connector-curvature="0" />
    <path
       id="path2277"
       d="m -222.891,1050.31 h 49.521"
       style="fill:none;fill-opacity:0.75;fill-rule:evenodd;stroke:#000000;stroke-width:1;stroke-linecap:butt;stroke-linejoin:miter;stroke-miterlimit:4;stroke-dasharray:none;stroke-opacity:1;marker-end:url(#Arrow1Lend)"
       inkscape:connector-curvature="0" />
    <path
       style="color:#000000;display:inline;overflow:visible;visibility:visible;opacity:1;fill:#8d5fd3;fill-opacity:1;fill-rule:nonzero;stroke:none;stroke-width:0.42;stroke-linecap:butt;stroke-linejoin:miter;stroke-miterlimit:4;stroke-dasharray:none;stroke-dashoffset:0;stroke-opacity:0.476684;marker:none;marker-start:none;marker-mid:none;marker-end:none"
       d="m -155.07,973.846 c -1.029,2.662 -6.476,1.295 -7.966,0.694 1.659,-3.707 6.51,-4.897 9.871,-6.91 4.414,-1.212 9.564,-3.103 13.801,-0.385 4.822,2.871 3.8,9.646 0.832,13.51 -1.516,1.855 -4.645,7.499 -6.115,5.997 0.154,-4.928 -9.656,1.447 -4.673,-1.331 1.825,-5.471 7.704,-1.5 11.102,-0.128 4.508,4.222 2.78,11.174 -0.512,15.547 -3.825,5.93 -10.528,9.4 -17.443,10.09 -4.55,1.15 -9.945,-1.55 -10.798,-6.41 -0.845,-2.48 -1.533,-5.608 2.005,-5.15 1.716,-0.283 3.433,-0.565 5.15,-0.848 -0.79,4.698 3.118,8.328 7.691,6.498 -1.841,0.36 -6.102,1.73 -1.823,0.42 5.19,-2.22 9.73,-6.998 10.569,-12.691 1.213,-2.779 -3.921,-3.681 -3.098,-3.131 1.416,-0.166 6.692,-1.734 2.69,-0.626 -2.729,2.722 -9.424,3.592 -8.609,-1.921 2.673,-4.004 7.171,-7.053 8.41,-11.968 2.118,-5.472 -10.857,-2.279 -4.601,-3.611 5.311,-1.832 -4.918,2.109 -6.225,3.471 -0.621,-2.645 -7.426,3.45 -7.919,0.05 2.554,-0.389 5.107,-0.778 7.661,-1.167 z"
       id="path1959"
       inkscape:connector-curvature="0" />
    <path
       style="color:#000000;display:inline;overflow:visible;visibility:visible;opacity:1;fill:#8d5fd3;fill-opacity:1;fill-rule:nonzero;stroke:none;stroke-width:0.42;stroke-linecap:butt;stroke-linejoin:miter;stroke-miterlimit:4;stroke-dasharray:none;stroke-dashoffset:0;stroke-opacity:0.476684;marker:none;marker-start:none;marker-mid:none;marker-end:none"
       d="m -176.142,1031.58 c 7.008,-4.68 15.007,-7.61 22.321,-11.77 13.282,-6.94 26.282,-14.4 39.581,-21.309 2.547,0.81 5.093,1.619 7.64,2.429 -19.946,10.35 -39.278,21.88 -59.629,31.44 -1.796,2.02 -3.981,0.71 -6.106,0.22 -1.269,-0.33 -2.538,-0.67 -3.807,-1.01 z"
       id="path1961"
       inkscape:connector-curvature="0" />
  </g>
</svg>
