<?xml version="1.0" encoding="UTF-8" standalone="no"?>
<svg
   xmlns:dc="http://purl.org/dc/elements/1.1/"
   xmlns:cc="http://creativecommons.org/ns#"
   xmlns:rdf="http://www.w3.org/1999/02/22-rdf-syntax-ns#"
   xmlns:svg="http://www.w3.org/2000/svg"
   xmlns="http://www.w3.org/2000/svg"
   xmlns:sodipodi="http://sodipodi.sourceforge.net/DTD/sodipodi-0.dtd"
   xmlns:inkscape="http://www.inkscape.org/namespaces/inkscape"
   width="462.5"
   height="113.4"
   version="1.1"
   id="svg76"
   sodipodi:docname="fraction-types.svg"
   inkscape:version="1.0.1 (3bc2e813f5, 2020-09-07)">
  <metadata
     id="metadata80">
    <rdf:RDF>
      <cc:Work
         rdf:about="">
        <dc:format>image/svg+xml</dc:format>
        <dc:type
           rdf:resource="http://purl.org/dc/dcmitype/StillImage" />
      </cc:Work>
    </rdf:RDF>
  </metadata>
  <sodipodi:namedview
     pagecolor="#ffffff"
     bordercolor="#666666"
     borderopacity="1"
     objecttolerance="10"
     gridtolerance="10"
     guidetolerance="10"
     inkscape:pageopacity="0"
     inkscape:pageshadow="2"
     inkscape:window-width="640"
     inkscape:window-height="480"
     id="namedview78"
     showgrid="false"
     inkscape:current-layer="svg76" />
  <defs
     id="defs18">
    <marker
       style="overflow:visible"
       id="marker1267"
       refX="0.0"
       refY="0.0"
       orient="auto"
       inkscape:stockid="Arrow1Lend"
       inkscape:isstock="true">
      <path
         transform="scale(0.8) rotate(180) translate(12.5,0)"
         style="fill-rule:evenodd;stroke:#005c94;stroke-width:1pt;stroke-opacity:1;fill:#005c94;fill-opacity:1"
         d="M 0.0,0.0 L 5.0,-5.0 L -12.5,0.0 L 5.0,5.0 L 0.0,0.0 z "
         id="path1265" />
    </marker>
    <marker
       style="overflow:visible"
       id="marker1257"
       refX="0.0"
       refY="0.0"
       orient="auto"
       inkscape:stockid="Arrow1Lend"
       inkscape:isstock="true">
      <path
         transform="scale(0.8) rotate(180) translate(12.5,0)"
         style="fill-rule:evenodd;stroke:#005c94;stroke-width:1pt;stroke-opacity:1;fill:#005c94;fill-opacity:1"
         d="M 0.0,0.0 L 5.0,-5.0 L -12.5,0.0 L 5.0,5.0 L 0.0,0.0 z "
         id="path1255" />
    </marker>
    <marker
       style="overflow:visible"
       id="marker1247"
       refX="0.0"
       refY="0.0"
       orient="auto"
       inkscape:stockid="Arrow1Lend"
       inkscape:isstock="true">
      <path
         transform="scale(0.8) rotate(180) translate(12.5,0)"
         style="fill-rule:evenodd;stroke:#005c94;stroke-width:1pt;stroke-opacity:1;fill:#005c94;fill-opacity:1"
         d="M 0.0,0.0 L 5.0,-5.0 L -12.5,0.0 L 5.0,5.0 L 0.0,0.0 z "
         id="path1245" />
    </marker>
    <marker
       style="overflow:visible"
       id="marker1237"
       refX="0.0"
       refY="0.0"
       orient="auto"
       inkscape:stockid="Arrow1Lend"
       inkscape:isstock="true">
      <path
         transform="scale(0.8) rotate(180) translate(12.5,0)"
         style="fill-rule:evenodd;stroke:#005c94;stroke-width:1pt;stroke-opacity:1;fill:#005c94;fill-opacity:1"
         d="M 0.0,0.0 L 5.0,-5.0 L -12.5,0.0 L 5.0,5.0 L 0.0,0.0 z "
         id="path1235" />
    </marker>
    <marker
       style="overflow:visible"
       id="Arrow1Lend"
       refX="0.0"
       refY="0.0"
       orient="auto"
       inkscape:stockid="Arrow1Lend"
       inkscape:isstock="true"
       inkscape:collect="always">
      <path
         transform="scale(0.8) rotate(180) translate(12.5,0)"
         style="fill-rule:evenodd;stroke:#000000;stroke-width:1pt"
         d="M 0.0,0.0 L 5.0,-5.0 L -12.5,0.0 L 5.0,5.0 L 0.0,0.0 z "
         id="path938" />
    </marker>
    <marker
       id="id02"
       style="overflow:visible"
       orient="auto">
      <path
         transform="scale(0.8) rotate(180) translate(12.5,0)"
         style="fill:black;stroke:black;stroke-width:1pt"
         d="M 0,0 L 5,-5 L -12.5,0 L 5,5 L 0,0 z "
         id="path2" />
    </marker>
    <marker
       id="id03"
       style="overflow:visible"
       orient="auto">
      <path
         transform="scale(0.8) rotate(180) translate(12.5,0)"
         style="fill:black;stroke:black;stroke-width:1pt"
         d="M 0,0 L 5,-5 L -12.5,0 L 5,5 L 0,0 z "
         id="path5" />
    </marker>
    <marker
       id="id04"
       style="overflow:visible"
       orient="auto">
      <path
         transform="scale(0.8) rotate(180) translate(12.5,0)"
         style="fill:black;stroke:black;stroke-width:1pt"
         d="M 0,0 L 5,-5 L -12.5,0 L 5,5 L 0,0 z "
         id="path8" />
    </marker>
    <marker
       id="id01"
       style="overflow:visible"
       orient="auto">
      <path
         transform="scale(0.8) rotate(180) translate(12.5,0)"
         style="fill:black;stroke:black;stroke-width:1pt"
         d="M 0,0 L 5,-5 L -12.5,0 L 5,5 L 0,0 z "
         id="path11" />
    </marker>
    <marker
       orient="auto"
       id="marker16">
      <path
         transform="matrix(-.8 0 0 -.8 -10 0)"
         d="m0 0 5-5-17.5 5 17.5 5-5-5z"
         id="path14" />
    </marker>
  </defs>
  <path
     style="fill:#8d5fd3"
     d="m 269.8,25.6 c -0.4,-0.1 -0.2,-0.2 -0.2,-0.2 0.1,0 0.2,0 0.3,-0 0.1,-0 0.2,-0 0.3,-0.1 1.1,-0.6 1.9,-0.9 -2.7,1.2 0.2,-0 0.4,-0.2 0.6,-0.2 0.2,-0.1 0.5,-0.3 0.7,-0.4 0.3,-0.1 0.5,-0.3 0.8,-0.4 0.2,-0.1 0.5,-0.3 0.7,-0.4 0.3,-0.2 0.5,-0.4 0.8,-0.6 0.3,-0.2 0.6,-0.5 0.8,-0.7 0.3,-0.2 0.5,-0.5 0.8,-0.7 0.3,-0.2 0.5,-0.5 0.8,-0.7 0.3,-0.3 0.6,-0.5 0.9,-0.8 0.3,-0.3 0.5,-0.5 0.8,-0.8 0.3,-0.3 0.5,-0.5 0.7,-0.8 0.3,-0.3 0.5,-0.6 0.8,-0.9 0.2,-0.3 0.5,-0.6 0.7,-0.9 0.2,-0.3 0.4,-0.6 0.6,-0.8 0.2,-0.3 0.4,-0.6 0.6,-1 0.2,-0.3 0.4,-0.7 0.5,-1 0.2,-0.3 0.3,-0.7 0.4,-1 0.1,-0.4 0.2,-0.7 0.3,-1.1 0.1,-0.3 0.2,-0.7 0.2,-1 0.1,-0.3 0.1,-0.6 0.1,-0.9 0,-0.3 0,-0.5 0,-0.8 0,-0.2 -0.1,-0.5 -0.2,-0.7 -0.1,-0.2 -0.3,-0.5 -0.4,-0.7 -0.1,-0.2 -0.3,-0.4 -0.4,-0.6 -0.1,-0.2 -0.3,-0.3 -0.5,-0.5 -0.2,-0.1 -0.4,-0.2 -0.5,-0.4 -0.2,-0.1 -0.4,-0.2 -0.6,-0.3 -0.2,-0.1 -0.5,-0.1 -0.7,-0.2 -0.2,-0 -0.5,-0 -0.7,-0 -0.2,-0 -0.5,0 -0.7,0 -0.2,0 -0.4,0.1 -0.6,0.2 -0.2,0 -0.4,0.2 -0.6,0.3 -1.1,0.6 -2.6,1.2 2.5,-1.1 -0.2,0 -0.3,0.1 -0.5,0.2 -0.2,0.1 -0.3,0.2 -0.5,0.3 -0.2,0.1 -0.3,0.3 -0.4,0.4 -0.1,0.1 -0.2,0.3 -0.3,0.5 -0.1,0.2 -0.2,0.4 -0.2,0.6 -0.1,0.2 -0.1,0.3 -0.1,0.5 -0.1,0.1 0,0.3 0,0.4 0,0.2 0.1,0.4 0.1,0.6 0,0.2 0.1,0.4 0.1,0.6 0.1,0.2 0.1,0.3 0.2,0.5 0.1,0.2 0.2,0.3 0.3,0.5 0.1,0.2 0.2,0.4 0.4,0.5 0.1,0.2 0.3,0.3 0.4,0.5 0.1,0.2 0.3,0.3 0.4,0.4 0.2,0.1 0.3,0.3 0.5,0.4 0.2,0.1 0.3,0.3 0.5,0.4 0.1,0.1 0.3,0.2 0.4,0.3 0.1,0 0.3,0.2 0.4,0.2 0.1,0 0.2,0.1 0.3,0.2 0.1,0 0.2,0 0.3,0.1 0.1,0 0.2,0 0.3,0 0.1,0 0.2,0 0.3,0 0.1,0 0.2,0 0.3,0 0.1,0 0.2,0 0.3,0 0.1,0 0.1,-0 0.2,-0 0,0 0,-0 0,-0 l -2.4,3.7 c -0.1,-0 -0.1,-0 -0.2,-0 -0.1,-0 -0.3,-0 -0.4,-0.1 -0.1,-0 -0.2,-0 -0.3,-0 -0.1,-0 -0.2,-0 -0.3,-0.1 -0.1,-0 -0.2,-0 -0.4,-0.1 -0.1,-0 -0.3,-0.1 -0.4,-0.2 -0.1,-0 -0.3,-0.1 -0.4,-0.2 -0.1,-0.1 -0.3,-0.2 -0.4,-0.3 -0.1,-0.1 -0.3,-0.2 -0.4,-0.3 -0.2,-0.1 -0.3,-0.2 -0.5,-0.4 -0.2,-0.1 -0.3,-0.3 -0.5,-0.4 -0.2,-0.2 -0.4,-0.3 -0.5,-0.5 -0.2,-0.2 -0.3,-0.4 -0.5,-0.6 -0.2,-0.2 -0.3,-0.4 -0.5,-0.6 -0.1,-0.2 -0.3,-0.4 -0.4,-0.6 -0.1,-0.2 -0.3,-0.5 -0.4,-0.7 -0.1,-0.3 -0.2,-0.5 -0.3,-0.8 -0.1,-0.2 -0.2,-0.5 -0.2,-0.7 -0.1,-0.3 -0.1,-0.5 -0.2,-0.8 0,-0.3 -0.1,-0.6 -0.1,-0.8 0,-0.3 0,-0.5 0.1,-0.8 0.1,-0.3 0.1,-0.5 0.2,-0.8 0.1,-0.3 0.2,-0.6 0.3,-0.8 0.1,-0.2 0.2,-0.5 0.4,-0.7 0.2,-0.2 0.3,-0.4 0.5,-0.6 0.2,-0.2 0.4,-0.4 0.6,-0.6 1.3,-0.6 2.4,-1.3 3.8,-1.6 0.3,-0 0.6,-0.1 0.8,-0.1 0.3,0 0.6,-0 0.9,0 0.3,0 0.6,0 0.9,0.1 0.3,0 0.6,0.1 0.9,0.2 0.3,0.1 0.6,0.2 0.9,0.4 0.3,0.2 0.6,0.3 0.8,0.5 0.2,0.2 0.5,0.4 0.7,0.6 0.2,0.2 0.4,0.4 0.6,0.7 0.2,0.3 0.4,0.5 0.5,0.8 0.2,0.3 0.4,0.6 0.5,1 0.1,0.4 0.3,0.7 0.3,1.1 0,0.4 0.1,0.7 0.1,1.1 0,0.4 0,0.8 -0.1,1.1 -0.1,0.4 -0.1,0.8 -0.2,1.2 -0.1,0.4 -0.2,0.9 -0.3,1.3 -0.1,0.4 -0.3,0.8 -0.4,1.2 -0.2,0.4 -0.3,0.8 -0.5,1.2 -0.2,0.4 -0.4,0.8 -0.6,1.1 -0.2,0.3 -0.4,0.6 -0.6,0.9 -0.2,0.3 -0.5,0.6 -0.7,0.9 -0.3,0.3 -0.5,0.7 -0.8,1 -0.3,0.3 -0.5,0.6 -0.8,0.9 -0.3,0.3 -0.5,0.6 -0.8,0.9 -0.3,0.3 -0.6,0.6 -0.9,0.9 -0.3,0.3 -0.5,0.5 -0.8,0.8 -0.3,0.2 -0.5,0.5 -0.8,0.7 -0.3,0.3 -0.6,0.5 -0.8,0.8 -0.3,0.2 -0.5,0.5 -0.8,0.7 -0.3,0.2 -0.5,0.4 -0.8,0.6 -0.3,0.2 -0.5,0.3 -0.8,0.5 -0.2,0.1 -0.5,0.3 -0.7,0.4 -0.2,0.1 -0.4,0.3 -0.6,0.4 -1.4,0.6 -2.3,1.3 -3.6,1.5 -0.1,0 -0.2,0 -0.3,0 0,0 -0.1,0 -0.1,0.1 -0.1,-0 -0.1,0.2 -0.3,-0.2 l 2.6,-3.5 z"
     id="path20" />
  <path
     style="fill:#8d5fd3"
     d="m 260.2,36.7 c 0,0 -0.2,-0.2 -0.2,-0.2 -1,0.5 -2.1,0.9 -3.1,1.4 0,0 0.1,0 0.2,0 0.1,-0.1 0.3,-0.2 0.4,-0.3 0.2,-0.1 0.5,-0.2 0.7,-0.4 1.4,-0.6 2.8,-1.3 4.1,-1.9 0.5,-0.2 0.9,-0.4 1.4,-0.6 0.5,-0.2 1,-0.4 1.6,-0.6 0.6,-0.2 1.1,-0.5 1.7,-0.7 0.6,-0.3 1.2,-0.5 1.9,-0.8 0.7,-0.3 1.4,-0.6 2.1,-0.8 0.7,-0.3 1.5,-0.6 2.2,-0.9 0.8,-0.3 1.6,-0.6 2.3,-0.9 0.8,-0.3 1.5,-0.6 2.3,-0.9 0.7,-0.3 1.5,-0.5 2.2,-0.8 0.7,-0.3 1.4,-0.5 2.1,-0.8 0.6,-0.2 1.3,-0.5 1.9,-0.8 0.6,-0.2 1.1,-0.5 1.7,-0.7 0.5,-0.2 1,-0.4 1.6,-0.6 0.5,-0.2 0.9,-0.3 1.4,-0.5 0.4,-0.2 0.8,-0.3 1.3,-0.5 0.4,-0.2 0.8,-0.3 1.2,-0.5 0.2,-0 0.4,-0.1 0.5,-0.2 l -2.1,3.9 c -0.2,0 -0.3,0.1 -0.5,0.2 -0.4,0.2 -0.8,0.3 -1.2,0.5 -0.4,0.2 -0.9,0.3 -1.3,0.5 -0.5,0.2 -0.9,0.3 -1.4,0.5 -0.5,0.2 -1,0.4 -1.5,0.6 -0.6,0.2 -1.1,0.5 -1.7,0.7 -0.7,0.3 -1.3,0.5 -1.9,0.7 -0.7,0.3 -1.4,0.5 -2.1,0.8 -0.7,0.3 -1.5,0.5 -2.2,0.8 -0.8,0.3 -1.5,0.6 -2.3,0.9 -0.8,0.3 -1.6,0.6 -2.3,0.9 -0.7,0.3 -1.5,0.6 -2.2,0.9 -0.7,0.3 -1.4,0.6 -2.1,0.8 -0.6,0.3 -1.2,0.5 -1.9,0.8 -0.6,0.2 -1.1,0.5 -1.7,0.7 -0.5,0.2 -1,0.4 -1.6,0.6 -0.5,0.2 -0.9,0.4 -1.4,0.6 0.7,-0.3 2.7,-1.2 2,-0.9 -0.2,0.1 -0.5,0.2 -0.7,0.3 -0.1,0 -0.3,0 -0.4,0.2 -0.1,0 -0.2,0.1 -0.2,0.2 -1,0.5 -2.1,0.9 -3.1,1.4 -0.1,-0 -0.2,-0 -0.3,-0.2 l 2.6,-3.5 z"
     id="path22" />
  <path
     style="fill:#8d5fd3"
     d="m 274.1,40.3 v 0 c 0,0 0.2,0.2 0.2,0.2 1,-0.5 2.1,-1 3.1,-1.4 0.1,-0.2 -0.1,-0.1 -0.2,-0.1 -0.1,0 -0.2,0.2 -0.4,0.4 -0.2,0.2 -0.3,0.4 -0.4,0.6 -0.2,0.3 -0.3,0.6 -0.5,0.9 -0.2,0.4 -0.3,0.7 -0.5,1.1 -0.2,0.3 -0.3,0.7 -0.5,1 -0.2,0.3 -0.3,0.6 -0.4,0.9 -0.1,0.3 -0.3,0.6 -0.4,0.8 -0.1,0.3 -0.3,0.5 -0.4,0.8 -0.1,0.3 -0.3,0.5 -0.4,0.8 -0.1,0.3 -0.2,0.5 -0.4,0.8 -0.1,0.3 -0.2,0.5 -0.4,0.8 -0.1,0.2 -0.2,0.5 -0.3,0.7 -0.1,0.2 -0.2,0.4 -0.3,0.6 0,0.1 -0.1,0.2 -0.2,0.3 -0.1,-0.2 -0.3,-0.6 -0.3,-0.9 -0.2,-0.2 -0.4,-0.5 -0.5,-0.7 -1,0.4 -2,0.9 -3.1,1.3 0.2,0 0.3,-0.1 0.4,-0.1 0.2,-0.1 0.4,-0.3 0.6,-0.4 1.1,-0.9 2.5,-1.1 3.8,-1.7 0.3,-0.1 0.5,-0.2 0.8,-0.3 0.3,-0.1 0.5,-0.2 0.8,-0.3 0.3,-0.1 0.5,-0.2 0.8,-0.3 0.2,-0 0.5,-0.1 0.7,-0.2 0.2,-0 0.5,-0 0.8,-0.1 0.3,-0 0.5,-0 0.8,-0 0.2,0 0.5,0 0.7,0 0.2,-10e-4 0.4,0 0.7,0 0.2,0 0.4,0.1 0.6,0.2 0.2,0 0.4,0.2 0.6,0.4 0.2,0.1 0.4,0.3 0.6,0.5 0.2,0.2 0.3,0.5 0.5,0.7 0.2,0.2 0.2,0.5 0.3,0.7 0.1,0.2 0.2,0.5 0.2,0.8 0.1,0.3 0,0.6 0.1,0.9 0,0.3 -0.1,0.6 -0.1,0.9 0,0.4 -0.2,0.7 -0.2,1 -0.1,0.4 -0.3,0.7 -0.4,1 -0.2,0.3 -0.4,0.6 -0.5,0.9 -0.2,0.3 -0.4,0.6 -0.6,0.8 -0.2,0.3 -0.4,0.6 -0.6,0.8 -0.2,0.3 -0.4,0.5 -0.7,0.8 -0.2,0.3 -0.4,0.5 -0.6,0.8 -0.2,0.3 -0.4,0.5 -0.7,0.7 -0.2,0.2 -0.5,0.4 -0.7,0.7 -0.3,0.2 -0.6,0.4 -0.9,0.7 -0.3,0.2 -0.6,0.4 -0.9,0.6 -1.2,0.8 -2.6,1.2 -4,1.8 -0.3,0.1 -0.7,0.1 -1,0.1 -0.3,0 -0.6,0 -1,0 -0.3,0 -0.6,-0 -0.9,-0 -0.3,-0 -0.5,-0 -0.7,-0 -0.3,-0 -0.5,-0 -0.7,-0.1 -0.3,-0 -0.5,-0.2 -0.8,-0.3 -0.2,-0 -0.5,-0.2 -0.7,-0.3 -0.2,-0.1 -0.4,-0.2 -0.6,-0.3 -0.2,-0 -0.3,-0.2 -0.5,-0.3 -0.2,-0.1 -0.4,-0.3 -0.5,-0.4 -0.2,-0.1 -0.3,-0.3 -0.4,-0.5 l 3.6,-2.3 c 0.1,0 0.2,0.1 0.2,0.2 0.1,0 0.2,0.2 0.4,0.2 0.1,0 0.3,0.1 0.4,0.2 0.2,0 0.3,0.2 0.5,0.2 0.2,0 0.4,0.2 0.6,0.2 0.2,0 0.4,0.1 0.6,0.1 0.2,0 0.4,0 0.6,0 0.2,0 0.5,0 0.7,0 0.3,-0 0.5,-0 0.8,-0 0.3,-0 0.5,-0 0.8,-0.2 0.2,-0.1 0.5,-0.2 0.7,-0.3 -0.8,0.3 -3,1.4 -2.3,1 0.3,-0.1 0.6,-0.3 0.9,-0.4 0.3,-0.2 0.6,-0.4 0.8,-0.5 0.2,-0.2 0.5,-0.3 0.7,-0.5 0.2,-0.2 0.4,-0.4 0.6,-0.6 0.2,-0.2 0.4,-0.4 0.6,-0.6 0.2,-0.3 0.4,-0.5 0.6,-0.8 0.2,-0.3 0.4,-0.5 0.7,-0.8 0.2,-0.3 0.4,-0.5 0.6,-0.8 0.2,-0.2 0.4,-0.5 0.5,-0.7 0.1,-0.2 0.3,-0.5 0.4,-0.7 0.1,-0.2 0.2,-0.4 0.3,-0.7 0.1,-0.2 0.1,-0.4 0.1,-0.6 0,-0.2 0.1,-0.3 0,-0.5 0,-0.1 0,-0.3 -0.1,-0.4 -0.1,-0.1 -0.1,-0.3 -0.2,-0.4 -0.1,-0 -0.1,-0.2 -0.3,-0.3 -0.1,-0 -0.2,-0.1 -0.3,-0.1 -0.1,-0 -0.2,-0 -0.4,-0 -0.1,0 -0.3,0 -0.4,0 -0.2,0 -0.4,0 -0.5,0 -0.2,0 -0.4,0 -0.6,0 -0.2,0 -0.4,0 -0.6,0.1 -0.2,0 -0.4,0.2 -0.6,0.2 -0.2,0 -0.5,0.2 -0.7,0.2 -0.3,0 -0.5,0.2 -0.8,0.3 -0.3,0.1 -0.5,0.2 -0.8,0.3 -0.3,0.1 -0.5,0.2 -0.8,0.3 0.8,-0.4 1.6,-0.7 2.4,-1.1 -0.2,0 -0.4,0.1 -0.5,0.2 -0.2,0.1 -0.3,0.2 -0.5,0.4 -3.3,1.4 -2.5,2.1 -4.1,0.7 -0.2,-0.4 -0.4,-0.8 -0.3,-1.3 0.1,-0.2 0.1,-0.3 0.2,-0.5 0.1,-0.2 0.2,-0.4 0.3,-0.6 0.1,-0.2 0.2,-0.5 0.3,-0.7 0.1,-0.3 0.2,-0.5 0.4,-0.8 0.1,-0.3 0.3,-0.5 0.4,-0.8 0.1,-0.3 0.3,-0.5 0.4,-0.8 0.1,-0.3 0.2,-0.5 0.4,-0.8 0.1,-0.3 0.3,-0.6 0.4,-0.8 0.1,-0.3 0.3,-0.6 0.4,-0.9 0.2,-0.3 0.3,-0.7 0.5,-1 0.2,-0.4 0.4,-0.7 0.5,-1.1 0.2,-0.3 0.3,-0.6 0.5,-1 0.1,-0.3 0.3,-0.6 0.4,-0.8 0.1,-0.2 0.2,-0.4 0.4,-0.6 0.1,-0.2 0.2,-0.3 0.2,-0.5 1,-0.5 2.1,-1 3.1,-1.5 0.1,0 0.2,0.1 0.3,0.2 v 0 l -2.6,3.5 z"
     id="path24" />
  <path
     style="fill:#8d5fd3"
     d="m 275.1,37.8 c -1.1,-0.8 -0.6,-0 -3.3,1.2 10.5,-4.7 -7.2,3.2 3.1,-1.4 -6.5,2.8 -1.6,0.8 0.2,-0 0.1,0 0.3,0 0.4,0 0.2,-0 0.3,-0 0.5,-0.1 0.2,-0 0.5,-0 0.7,-0.1 0.3,-0 0.6,-0 0.8,-0.1 0.3,-0 0.6,-0.1 0.9,-0.1 0.3,-0 0.6,-0 0.9,-0.1 0.3,-0 0.5,-0 0.8,-0.1 0.3,-0 0.5,-0 0.8,-0.1 0.3,-0 0.5,-0 0.7,-0.1 0.2,-0 0.5,-0 0.7,-0.1 0.2,-0 0.4,-0 0.6,-0.1 0.2,-0 0.4,-0 0.5,-0.1 0.1,-0 0.2,-0 0.4,-0 l -2.4,3.7 c -0.1,0 -0.2,0 -0.4,0 -0.2,0 -0.4,0 -0.6,0.1 -0.2,0 -0.4,0 -0.6,0.1 -0.2,0 -0.5,0 -0.7,0.1 -0.3,0 -0.5,0 -0.8,0.1 -0.3,0 -0.5,0 -0.8,0.1 -0.3,0 -0.5,0 -0.8,0.1 -0.3,0 -0.6,0.1 -0.9,0.2 -0.3,0 -0.6,0.1 -0.9,0.2 -0.3,0 -0.5,0.1 -0.8,0.2 -0.2,0 -0.5,0.1 -0.7,0.1 -0.2,0 -0.3,0 -0.5,0 -0.1,0 -0.2,0 -0.2,0.1 1,-0.4 4.1,-1.3 3,-1.3 -1.1,0 -2.1,0.9 -3.1,1.4 10.2,-4.6 -7.3,3.2 3.1,-1.4 -1.9,0.9 -2.3,2.1 -3.4,1.2 l 2.6,-3.5 z"
     id="path26" />
  <path
     style="marker-end:url(#marker1257);fill:none;stroke:#005c94;stroke-width:0.87;stroke-miterlimit:4;stroke-dasharray:none"
     d="m 218.5,12.1 h 29.3"
     id="path28" />
  <path
     style="marker-end:url(#marker1267);fill:none;stroke:#005c94;stroke-width:0.87;stroke-miterlimit:4;stroke-dasharray:none"
     d="m 219.5,49.9 h 29.3"
     id="path30" />
  <text
     x="192.3"
     y="15.4"
     style="font-family:'Comic Sans MS';text-align:center;text-anchor:middle;font-size:15px;fill:#005c94;"
     id="text32">Larger</text>
  <text
     x="190.6"
     y="54.9"
     style="font-family:'Comic Sans MS';text-align:center;text-anchor:middle;font-size:15px;fill:#005c94;"
     id="text34">Smaller</text>
  <path
     style="fill:#fdca01"
     d="m 103.8,37.7 c 0,0 0,0 0,0 0,0 0.2,0.2 0.2,0.2 1,-0.5 2,-1.1 3,-1.6 0.1,-0.2 -0.1,-0 -0.2,-0.1 -0.1,0.1 -0.2,0.3 -0.3,0.4 -0.2,0.2 -0.3,0.4 -0.4,0.7 -0.2,0.3 -0.3,0.6 -0.4,0.9 -0.2,0.4 -0.3,0.7 -0.5,1.1 -0.1,0.3 -0.3,0.7 -0.4,1 -0.1,0.3 -0.3,0.6 -0.4,0.9 -0.1,0.3 -0.2,0.6 -0.4,0.9 -0.1,0.3 -0.2,0.5 -0.3,0.8 -0.1,0.3 -0.2,0.5 -0.3,0.8 -0.1,0.3 -0.2,0.5 -0.3,0.8 -0.1,0.3 -0.2,0.5 -0.3,0.8 -0.1,0.3 -0.2,0.5 -0.3,0.7 -0.1,0.2 -0.2,0.4 -0.2,0.6 0,0.1 -0.1,0.2 -0.2,0.3 -0.1,-0.2 -0.3,-0.6 -0.4,-0.8 -0.2,-0.2 -0.4,-0.5 -0.5,-0.7 -1,0.5 -2,1 -3,1.5 0.2,0 0.3,-0.1 0.4,-0.2 0.2,-0.1 0.4,-0.3 0.5,-0.4 1.1,-1 2.5,-1.3 3.7,-1.9 0.3,-0.1 0.5,-0.2 0.8,-0.3 0.3,-0.1 0.5,-0.2 0.8,-0.3 0.3,-0.1 0.5,-0.2 0.8,-0.3 0.2,-0.1 0.5,-0.2 0.7,-0.2 0.2,-0.1 0.5,-0.1 0.7,-0.2 0.3,-0 0.5,-0 0.8,-0 0.2,-0 0.5,-0 0.7,-0 0.2,-0 0.4,0 0.7,0 0.2,0 0.4,0.1 0.6,0.2 0.2,0 0.4,0.2 0.6,0.3 0.2,0.1 0.4,0.3 0.6,0.5 0.2,0.2 0.4,0.4 0.5,0.7 0.2,0.2 0.3,0.5 0.4,0.7 0.1,0.2 0.2,0.5 0.3,0.8 0.1,0.3 0.1,0.6 0.1,0.9 0,0.3 0,0.6 0,0.9 0,0.4 -0.1,0.7 -0.2,1 -0.1,0.4 -0.3,0.7 -0.4,1 -0.1,0.3 -0.3,0.6 -0.5,0.9 -0.2,0.3 -0.4,0.6 -0.5,0.9 -0.2,0.3 -0.4,0.6 -0.6,0.9 -0.2,0.3 -0.4,0.6 -0.6,0.8 -0.2,0.3 -0.4,0.5 -0.6,0.8 -0.2,0.3 -0.4,0.5 -0.6,0.7 -0.2,0.3 -0.5,0.5 -0.7,0.7 -0.3,0.3 -0.6,0.5 -0.8,0.7 -0.3,0.2 -0.6,0.4 -0.9,0.7 -1.2,0.9 -2.6,1.4 -3.9,2.1 -0.3,0.1 -0.7,0.1 -1,0.2 -0.3,0 -0.6,0 -1,0 -0.3,0 -0.6,0 -0.9,0 -0.3,0 -0.5,-0 -0.8,-0 -0.2,0 -0.5,-0 -0.7,-0.1 -0.3,-0 -0.5,-0.2 -0.8,-0.2 -0.2,-0 -0.5,-0.2 -0.7,-0.3 -0.2,-0 -0.4,-0.2 -0.6,-0.2 -0.2,-0 -0.3,-0.2 -0.5,-0.3 -0.2,-0.1 -0.4,-0.3 -0.6,-0.4 -0.2,-0.1 -0.3,-0.3 -0.4,-0.4 l 3.5,-2.5 c 0.1,0 0.2,0 0.2,0.1 0.1,0 0.3,0.2 0.4,0.2 0.1,0 0.3,0 0.4,0.2 0.2,0 0.3,0.1 0.5,0.2 0.2,0 0.4,0.1 0.6,0.2 0.2,0 0.4,0 0.6,0 0.2,0 0.4,0 0.6,0 0.2,0 0.5,0 0.7,-0 0.3,-0 0.5,-0 0.8,-0.1 0.3,-0 0.5,-0 0.8,-0.2 0.2,-0.1 0.5,-0.2 0.7,-0.4 -0.7,0.4 -3,1.5 -2.2,1.2 0.3,-0.2 0.6,-0.3 0.8,-0.5 0.3,-0.2 0.6,-0.4 0.8,-0.6 0.2,-0.2 0.5,-0.4 0.7,-0.6 0.2,-0.2 0.4,-0.4 0.6,-0.6 0.2,-0.2 0.4,-0.4 0.6,-0.7 0.2,-0.3 0.4,-0.5 0.6,-0.8 0.2,-0.3 0.4,-0.6 0.6,-0.8 0.2,-0.3 0.4,-0.5 0.5,-0.8 0.2,-0.3 0.3,-0.5 0.5,-0.8 0.1,-0.2 0.3,-0.5 0.4,-0.7 0.1,-0.2 0.2,-0.5 0.2,-0.7 0,-0.2 0.1,-0.4 0.1,-0.6 0,-0.2 0,-0.3 0,-0.5 0,-0.1 0,-0.3 -0.1,-0.4 -0.1,-0.1 -0.1,-0.3 -0.2,-0.4 -0.1,-0 -0.2,-0.2 -0.3,-0.2 -0.1,-0 -0.2,-0.1 -0.3,-0.1 -0.1,-0 -0.2,-0 -0.4,-0 -0.1,0 -0.3,0 -0.4,0 -0.2,0 -0.4,0 -0.5,0 -0.2,0 -0.4,0 -0.6,0 -0.2,0 -0.4,0 -0.6,0.2 -0.2,0 -0.4,0.2 -0.6,0.2 -0.2,0.1 -0.5,0.2 -0.7,0.3 -0.3,0.1 -0.5,0.2 -0.8,0.3 -0.3,0.1 -0.5,0.2 -0.8,0.3 -0.3,0.1 -0.5,0.2 -0.8,0.3 0.8,-0.4 1.6,-0.8 2.4,-1.2 -0.2,0 -0.4,0.1 -0.5,0.2 -0.1,0.1 -0.3,0.2 -0.4,0.4 -3.2,1.6 -2.4,2.2 -4,0.9 -0.2,-0.4 -0.5,-0.8 -0.4,-1.3 0.1,-0.2 0.1,-0.3 0.2,-0.5 0.1,-0.2 0.2,-0.4 0.2,-0.6 0.1,-0.2 0.2,-0.5 0.3,-0.7 0.1,-0.3 0.2,-0.5 0.3,-0.8 0.1,-0.3 0.2,-0.5 0.3,-0.8 0.1,-0.3 0.2,-0.5 0.3,-0.8 0.1,-0.3 0.2,-0.5 0.3,-0.8 0.1,-0.3 0.2,-0.6 0.4,-0.9 0.1,-0.3 0.3,-0.6 0.4,-0.9 0.1,-0.3 0.3,-0.7 0.4,-1 0.2,-0.4 0.3,-0.7 0.5,-1.1 0.1,-0.3 0.3,-0.7 0.4,-1 0.1,-0.3 0.2,-0.6 0.4,-0.9 0.1,-0.2 0.2,-0.4 0.3,-0.6 0.1,-0.2 0.2,-0.3 0.2,-0.5 1,-0.5 2,-1.1 3.1,-1.6 0.1,0 0.2,0.1 0.3,0.2 0,0 0,0 0,0 l -2.5,3.6 z"
     id="path36" />
  <path
     style="fill:#fdca01"
     d="m 105.5,34.6 c -1.1,-0.8 -0.6,-0 -3.3,1.2 10.5,-4.7 -7.2,3.2 3.1,-1.4 -6.5,2.8 -1.6,0.8 0.2,-0 0.1,0 0.3,0 0.4,0 0.2,-0 0.3,-0 0.5,-0.1 0.2,-0 0.5,-0 0.7,-0.1 0.3,-0 0.6,-0 0.8,-0.1 0.3,-0 0.6,-0.1 0.9,-0.1 0.3,-0 0.6,-0 0.9,-0.1 0.3,-0 0.5,-0 0.8,-0.1 0.3,-0 0.5,-0 0.8,-0.1 0.3,-0 0.5,-0 0.7,-0.1 0.2,-0 0.5,-0 0.7,-0.1 0.2,-0 0.4,-0 0.6,-0.1 0.2,-0 0.4,-0 0.5,-0.1 0.1,-0 0.2,-0 0.4,-0 l -2.4,3.7 c -0.1,0 -0.2,0 -0.4,0 -0.2,0 -0.4,0 -0.6,0.1 -0.2,0 -0.4,0 -0.6,0.1 -0.2,0 -0.5,0 -0.7,0.1 -0.3,0 -0.5,0 -0.8,0.1 -0.3,0 -0.5,0 -0.8,0.1 -0.3,0 -0.5,0 -0.8,0.1 -0.3,0 -0.6,0.1 -0.9,0.2 -0.3,0 -0.6,0.1 -0.9,0.2 -0.3,0 -0.5,0.1 -0.8,0.2 -0.2,0 -0.5,0.1 -0.7,0.1 -0.2,0 -0.3,0 -0.5,0 -0.1,0 -0.2,0 -0.2,0.1 1,-0.4 4.1,-1.3 3,-1.3 -1.1,0 -2.1,0.9 -3.1,1.4 10.2,-4.6 -7.3,3.2 3.1,-1.4 -1.9,0.9 -2.3,2.1 -3.4,1.2 l 2.6,-3.5 z"
     id="path38" />
  <text
     x="23.7"
     y="50.5"
     style="font-family:'Comic Sans MS';text-align:center;text-anchor:middle;font-size:15px;fill:#005c94;"
     id="text40">Larger</text>
  <text
     x="25.7"
     y="14"
     style="font-family:'Comic Sans MS';text-align:center;text-anchor:middle;font-size:15px;fill:#005c94;"
     id="text42">Smaller</text>
  <path
     style="marker-end:url(#marker1237);fill:none;stroke:#005c94;stroke-width:0.87;stroke-miterlimit:4;stroke-dasharray:none"
     d="M 54.3,10.7 H 83.6"
     id="path44" />
  <path
     style="marker-end:url(#marker1247);fill:none;stroke:#005c94;stroke-width:0.87;stroke-miterlimit:4;stroke-dasharray:none"
     d="M 50,46.7 H 83.2"
     id="path46" />
  <path
     style="fill:#fdca01"
     d="m 97.5,4.5 c 0,0 0,0 0,0 0,1.5 -2.8,0.5 -4.2,0.7 -0.1,-0.2 0,-0.4 0,-0.6 0,-0.1 0.1,-0.3 0.2,-0.4 0.1,-0.1 0.2,-0.2 0.3,-0.3 0.2,-0.2 0.4,-0.3 0.5,-0.4 0.2,-0.2 0.5,-0.3 0.7,-0.5 0.3,-0.2 0.6,-0.4 0.9,-0.6 0.3,-0.2 0.7,-0.4 1,-0.6 0.4,-0.2 0.7,-0.4 1.1,-0.6 1.3,-0.7 2.9,-0.8 4.3,-1.2 0.3,-0 0.7,-0 1,-0 0.4,-0 0.7,0.1 1,0.2 0.3,0 0.7,0.3 1,0.4 0.3,0.1 0.6,0.4 0.9,0.6 0.3,0.2 0.5,0.5 0.7,0.8 0.3,0.3 0.3,0.7 0.5,1.1 0.1,0.4 0.1,0.8 0.2,1.1 0,0.4 0,0.8 -0.1,1.1 0,0.4 -0.2,0.8 -0.3,1.2 -0.1,0.4 -0.3,0.8 -0.5,1.1 -0.2,0.4 -0.4,0.7 -0.6,1.1 -0.2,0.4 -0.5,0.7 -0.7,1 -0.2,0.3 -0.5,0.6 -0.7,0.9 -0.2,0.3 -0.5,0.5 -0.7,0.8 -0.2,0.2 -0.4,0.4 -0.5,0.6 -0.1,0.1 -0.2,0.2 -0.3,0.2 -0.1,-0.1 -0.1,-0.4 -0.1,-0.5 -0.1,-0.4 -0.3,-0.7 -0.5,-1.1 -1,-0.3 -2,0.5 -3,0.8 0.2,-0 0.3,-0.2 0.5,-0.2 0.2,-0.1 0.4,-0.2 0.6,-0.3 1.7,-3.5 2.5,-0.6 3.9,-0.9 0.3,0 0.5,0.1 0.8,0.2 0.3,0 0.5,0.3 0.8,0.4 0.3,0.2 0.5,0.5 0.7,0.7 0.2,0.3 0.4,0.6 0.6,0.9 0.2,0.3 0.3,0.7 0.4,1 0.1,0.4 0.1,0.8 0.2,1.1 0,0.4 0,0.8 -0.1,1.2 0,0.4 -0.2,0.9 -0.3,1.3 -0.1,0.5 -0.4,0.9 -0.6,1.4 -0.2,0.5 -0.5,1 -0.8,1.4 -0.3,0.5 -0.7,0.9 -1,1.4 -0.4,0.5 -0.8,0.9 -1.2,1.3 -0.4,0.4 -1,0.7 -1.4,1.1 -0.5,0.3 -1,0.5 -1.4,0.8 -1.5,0.8 -3.1,0.9 -4.7,1.3 -0.5,0 -1,-0 -1.5,-0.1 -0.5,-0 -0.9,-0.3 -1.3,-0.4 -0.5,-0.2 -0.8,-0.5 -1.2,-0.9 -0.4,-0.4 -0.6,-0.9 -0.8,-1.3 -0.2,-0.4 -0.3,-0.9 -0.4,-1.3 -0.1,-0.4 -0.1,-0.8 -0.2,-1.1 0,-0.3 -0.1,-0.6 -0.1,-0.9 0,-0 0,-0.2 0,-0.3 l 4.2,-0.7 v 0.2 c 0,0.3 0,0.5 0.1,0.8 0.1,0.3 0.1,0.6 0.2,0.9 0.1,0.3 0.2,0.7 0.3,1 0.2,0.2 0.2,0.5 0.5,0.6 0.3,0.1 0.5,0.3 0.8,0.3 0.3,0 0.7,0.1 1,0 0.4,-0 0.8,-0 1.2,-0.2 -0.7,0.2 -2.7,0.7 -2,0.6 0.5,-0.2 0.9,-0.3 1.3,-0.5 0.5,-0.3 0.9,-0.5 1.4,-0.8 0.4,-0.3 0.8,-0.6 1.2,-1 0.3,-0.4 0.7,-0.7 1,-1.1 0.3,-0.4 0.6,-0.8 0.8,-1.2 0.2,-0.4 0.4,-0.7 0.6,-1.1 0.1,-0.3 0.3,-0.6 0.3,-0.9 0,-0.3 0.1,-0.5 0.1,-0.8 0,-0.2 0,-0.5 -0.1,-0.7 -0.1,-0.2 -0.1,-0.4 -0.3,-0.6 -0.1,-0.1 -0.2,-0.3 -0.3,-0.4 -0.1,-0 -0.2,-0.1 -0.4,-0.1 -0.2,0 -0.3,0 -0.5,0 -0.2,0 -0.3,0 -0.5,0.1 0.9,-0.2 1.9,-0.4 2.7,-0.7 -0.2,0 -0.4,0 -0.5,0.1 -0.2,0 -0.3,0 -0.5,0.2 -1.2,0.4 -2.4,2 -3.7,1.1 -0.3,-0.4 -0.8,-0.6 -0.8,-1.2 0,-0.3 -0.2,-0.7 0,-1 0.1,-0.2 0.2,-0.5 0.3,-0.6 0.2,-0.2 0.4,-0.4 0.5,-0.6 0.2,-0.2 0.5,-0.5 0.7,-0.7 0.2,-0.3 0.5,-0.5 0.7,-0.8 0.2,-0.3 0.5,-0.6 0.7,-0.9 0.2,-0.3 0.4,-0.6 0.6,-1 0.2,-0.3 0.4,-0.6 0.5,-0.9 0.1,-0.2 0.3,-0.5 0.3,-0.7 0,-0.2 0.1,-0.5 0.1,-0.7 0,-0.2 0,-0.4 -0.1,-0.6 -0.1,-0.1 -0.1,-0.3 -0.2,-0.4 -0.1,-0.1 -0.3,-0.2 -0.4,-0.3 -0.2,-0 -0.4,-0.2 -0.6,-0.2 -0.2,-0 -0.5,-0.1 -0.7,-0 -0.3,0 -0.5,0 -0.8,0 -0.3,0 -0.6,0 -0.9,0.2 0.8,-0.2 3.1,-0.8 2.3,-0.7 -0.3,0.1 -0.7,0.2 -1,0.4 -0.3,0.2 -0.7,0.3 -1,0.5 -0.3,0.2 -0.6,0.3 -0.9,0.5 -0.2,0.1 -0.5,0.3 -0.7,0.4 -0.2,0 -0.3,0.2 -0.5,0.3 -0.1,0 -0.2,0.1 -0.3,0.1 0,-0 -0.1,-0 -0.1,-0.1 0,-0.2 -0.1,-0.3 0,-0.5 -0.2,0 -4.2,2.2 -4.2,0.7 0,0 0,-0 0,-0 l 4.2,-0.7 z"
     id="path48" />
  <path
     style="fill:#fdca01"
     d="m 86.4,36.8 c 0.1,-0 0.2,-0.1 0.3,-0.2 0.3,-0.2 0.6,-0.4 0.9,-0.6 0.6,-0.4 1.2,-0.7 1.8,-1 0.9,-0.5 1.8,-0.9 2.7,-1.4 1.2,-0.6 2.4,-1.3 3.6,-1.9 1.4,-0.7 2.7,-1.5 4.1,-2.3 1.3,-0.8 2.7,-1.5 4,-2.3 1.2,-0.7 2.4,-1.4 3.6,-2.1 1,-0.6 2,-1.2 3,-1.8 0.8,-0.5 1.6,-1 2.5,-1.4 0.6,-0.4 1.3,-0.7 1.9,-1.1 0.5,-0.3 1,-0.6 1.5,-0.9 0.4,-0.2 0.8,-0.5 1.2,-0.7 0.3,-0.2 0.6,-0.4 1,-0.5 0.2,-0.1 0.4,-0.2 0.5,-0.3 l 4,1.4 c -0.2,0 -0.4,0.2 -0.5,0.3 -0.3,0.2 -0.6,0.4 -1,0.5 -0.4,0.2 -0.8,0.5 -1.2,0.7 -0.5,0.3 -1,0.6 -1.5,0.8 -0.7,0.4 -1.3,0.7 -1.9,1.1 -0.8,0.5 -1.6,1 -2.4,1.4 -1,0.6 -2,1.2 -3,1.8 -1.2,0.7 -2.4,1.4 -3.6,2.1 -1.3,0.8 -2.7,1.5 -4,2.3 -1.4,0.8 -2.7,1.6 -4.1,2.3 -1.2,0.7 -2.4,1.3 -3.6,1.9 -0.9,0.5 -1.8,0.9 -2.7,1.4 -0.6,0.3 -1.2,0.6 -1.7,0.9 -0.3,0.2 -0.6,0.3 -0.9,0.5 -0.1,0 -0.2,0.1 -0.3,0.2 z"
     id="path50" />
  <path
     style="fill:#4e9a06;fill-opacity:0.92"
     d="m 404.4,22.5 c 0,-0 0,-0.1 0,-0.2 -0.1,-0.2 0,-0.5 -0.1,-0.7 0,-0.3 0.2,-0.5 0.3,-0.7 0.1,-0.2 0.3,-0.4 0.5,-0.6 0.2,-0.2 0.4,-0.4 0.7,-0.6 1.3,-1.1 2.9,-1.9 4.4,-2.7 0.3,-0.1 0.7,-0.3 1,-0.4 0.4,-0.2 0.8,-0.3 1.1,-0.4 0.4,-0.1 0.8,-0.2 1.2,-0.4 0.4,-0.1 0.9,-0.2 1.3,-0.3 0.4,-0.1 0.9,-0.1 1.3,-0.2 0.4,-0 0.8,-0 1.2,-0 0.4,-0 0.8,0.1 1.2,0.2 0.5,0 0.9,0.3 1.3,0.4 0.5,0.2 0.9,0.4 1.3,0.6 0.4,0.2 0.8,0.6 1.2,0.9 0.4,0.3 0.7,0.8 1,1.2 0.3,0.4 0.5,1 0.8,1.5 0.3,0.5 0.4,1.1 0.6,1.7 0.2,0.6 0.2,1.3 0.3,1.9 0.1,0.7 0,1.3 0,2 0,0.7 -0.2,1.3 -0.3,2 -0.1,0.7 -0.3,1.3 -0.5,1.9 -0.2,0.6 -0.4,1.2 -0.7,1.8 -0.2,0.6 -0.5,1.1 -0.8,1.6 -0.3,0.6 -0.6,1 -1,1.6 -0.3,0.5 -0.7,0.9 -1,1.4 -0.3,0.4 -0.7,0.8 -1,1.2 -0.3,0.4 -0.7,0.8 -1.1,1.1 -0.4,0.4 -0.8,0.7 -1.2,1.1 -0.4,0.4 -0.8,0.7 -1.2,1 -0.4,0.4 -0.9,0.7 -1.3,1.1 -0.5,0.4 -1,0.7 -1.5,1.1 -1.6,1.3 -3.4,2.1 -5.2,3 -0.5,0.3 -1.1,0.5 -1.7,0.7 -0.5,0.2 -1,0.4 -1.5,0.6 -0.4,0.2 -0.8,0.3 -1.2,0.4 -0.3,0 -0.6,0.2 -0.9,0.3 -0.2,0 -0.4,0.1 -0.5,0.2 4,-1.8 3.9,-1.3 2.9,-4.3 -1,-0.3 -0.1,-0.4 -0.1,-0.5 0.3,-0 0.5,-0.2 0.8,-0.2 0.3,-0 0.6,-0.2 1,-0.3 0.4,-0.1 0.8,-0.2 1.2,-0.4 0.4,-0.1 0.9,-0.3 1.3,-0.4 0.5,-0.1 0.9,-0.3 1.3,-0.4 0.5,-0.2 1,-0.3 1.5,-0.5 0.5,-0.2 1,-0.3 1.5,-0.5 0.5,-0.1 1.1,-0.2 1.6,-0.3 0.6,-0 1.1,-0.1 1.7,-0.2 0.6,-0 1.1,-0 1.6,-0 0.5,-0 1.1,0 1.6,0 0.5,0 1,0 1.6,0 0.5,0 1,0.1 1.5,0.2 0.5,0 1,0.2 1.4,0.4 0.5,0.2 0.9,0.4 1.4,0.5 0.5,0.2 0.9,0.4 1.3,0.6 0.4,0.2 0.8,0.4 1.2,0.6 0.3,0.2 0.7,0.3 1,0.5 0.3,0.1 0.5,0.3 0.8,0.4 0.1,0 0.3,0.1 0.4,0.2 l -3.6,4 c -0.2,-0 -0.4,-0.2 -0.5,-0.3 -0.3,-0.1 -0.5,-0.3 -0.8,-0.4 -0.3,-0.2 -0.7,-0.3 -1,-0.5 -0.4,-0.2 -0.8,-0.4 -1.2,-0.5 -0.4,-0.2 -0.8,-0.4 -1.3,-0.5 -0.4,-0.1 -0.8,-0.3 -1.2,-0.4 -0.4,-0 -0.8,-0.2 -1.2,-0.2 -0.5,-0 -0.9,-0 -1.4,-0 -0.5,-0 -1,-0 -1.5,-0 -0.5,0 -1,0 -1.5,0 -0.5,0 -1,0 -1.5,0.1 -0.5,0 -1,0.1 -1.6,0.3 -0.5,0.1 -1,0.2 -1.4,0.4 -0.5,0.2 -1,0.3 -1.5,0.5 -0.5,0.2 -1,0.3 -1.5,0.5 -0.4,0.1 -0.9,0.3 -1.3,0.4 -0.5,0.1 -0.9,0.3 -1.3,0.4 -0.4,0.1 -0.8,0.2 -1.2,0.3 -0.3,0 -0.7,0.2 -1,0.3 -0.3,0 -0.6,0.1 -0.9,0.2 -0.3,-0.1 -0.8,0.1 -1,-0.4 -1.6,-2.9 -0.1,-3.1 3.2,-4.5 0.2,-0 0.4,-0.1 0.6,-0.2 0.3,-0.1 0.6,-0.2 0.9,-0.3 0.4,-0.1 0.8,-0.3 1.1,-0.4 0.5,-0.2 0.9,-0.4 1.4,-0.6 0.5,-0.3 1,-0.5 1.5,-0.8 1.4,-0.8 4.2,-2.4 -2,1.3 0.5,-0.3 1,-0.5 1.5,-0.9 0.4,-0.3 0.9,-0.6 1.3,-1 0.4,-0.3 0.8,-0.7 1.2,-1 0.4,-0.3 0.8,-0.6 1.2,-1 0.4,-0.3 0.7,-0.6 1.1,-1 0.3,-0.3 0.7,-0.7 1,-1 0.3,-0.4 0.7,-0.8 1,-1.2 0.3,-0.4 0.7,-0.8 1,-1.3 0.3,-0.5 0.6,-0.9 0.8,-1.4 0.2,-0.5 0.5,-1 0.7,-1.5 0.2,-0.5 0.4,-1.1 0.5,-1.6 0.1,-0.6 0.3,-1.1 0.3,-1.7 0,-0.6 0.1,-1.1 0.1,-1.7 0,-0.5 0,-1 -0.1,-1.5 -0.1,-0.4 -0.2,-0.9 -0.4,-1.3 -0.2,-0.3 -0.3,-0.7 -0.5,-1 -0.2,-0.2 -0.4,-0.5 -0.7,-0.7 -0.3,-0.2 -0.6,-0.4 -0.9,-0.5 -0.4,-0.1 -0.7,-0.3 -1.1,-0.4 -0.4,-0 -0.7,-0.2 -1.1,-0.2 -0.3,0 -0.6,0 -0.9,0 -0.3,0 -0.7,0 -1,0.2 -0.4,0 -0.8,0.2 -1.1,0.3 -0.4,0.1 -0.8,0.2 -1.2,0.4 -0.4,0.1 -0.7,0.3 -1.1,0.4 -0.3,0.2 -0.7,0.3 -1,0.5 -0.3,0.2 -0.6,0.3 -0.8,0.5 0.9,-0.6 3.8,-2.3 2.8,-1.8 -0.2,0.1 -0.4,0.3 -0.6,0.4 -0.2,0.1 -0.3,0.2 -0.5,0.3 -0.1,0 -0.2,0.1 -0.3,-0 -0.1,-0.1 -0.1,-0.2 -0.2,-0.4 -0.1,-0.1 0,-0.1 0,-0 l -4.9,1.9 z"
     id="path52" />
  <path
     style="fill:#4e9a06;fill-opacity:0.92"
     d="m 434.9,16 c -0.1,-0.2 0,-0.4 -0.1,-0.6 0,-0.1 0.1,-0.3 0.2,-0.4 0.1,-0.1 0.2,-0.3 0.4,-0.4 0.2,-0.2 0.4,-0.4 0.6,-0.6 0.2,-0.2 0.4,-0.4 0.6,-0.6 0.2,-0.2 0.4,-0.4 0.5,-0.5 0.2,-0.2 0.3,-0.3 0.5,-0.5 0.1,-0.1 0.3,-0.3 0.4,-0.4 0.1,-0.1 0.2,-0.2 0.3,-0.3 0.2,-0 0.2,-0.3 0.2,-0.4 3.5,-2 3.2,-2.3 4.5,-0.3 0.1,0.2 0.1,0.5 0.1,0.7 0,0.3 0,0.6 0,0.9 0,0.3 -0.1,0.7 -0.1,1 -0.1,0.3 -0.1,0.7 -0.2,1 -0.1,0.3 -0.1,0.7 -0.2,1 0,0.3 -0.1,0.7 -0.1,1 0,0.3 -0.1,0.7 -0.1,1 0,0.3 -0.1,0.7 -0.1,1 0,0.3 -0.1,0.6 -0.1,1 -0.1,0.3 -0.1,0.7 -0.1,1 0,0.3 -0.1,0.6 -0.1,0.9 0,0.3 0,0.6 -0.1,0.9 0,0.3 0,0.6 -0.1,0.9 0,0.3 -0.1,0.6 -0.1,0.9 0,0.3 -0.1,0.6 -0.1,0.9 0,0.3 -0.1,0.6 -0.1,0.9 0,0.2 -0.1,0.5 -0.1,0.7 0,0.2 -0.1,0.4 -0.1,0.6 0,0.1 0,0.3 -0.1,0.4 0,0.1 0,0.2 0,0.4 0,0.1 0,0.2 0,0.3 0,0 0,0.2 0,0.2 0,0 0,0.1 0,0.2 0,0.1 0,0.2 0,0.3 l -4.6,0.4 c 0,0 0,0 0.1,0 0,-0 0,-0.1 0,-0.2 0,-0 0,-0.1 0,-0.2 0,-0 0,-0.2 0.1,-0.3 0,-0.1 0,-0.2 0.1,-0.3 0,-0.2 0,-0.3 0.1,-0.5 0,-0.2 0,-0.4 0.1,-0.6 0,-0.2 0.1,-0.5 0.1,-0.7 0,-0.3 0.1,-0.6 0.1,-0.9 0,-0.3 0.1,-0.6 0.1,-0.9 0,-0.3 0.1,-0.6 0.1,-0.8 0,-0.3 0.1,-0.5 0.1,-0.8 0,-0.3 0,-0.6 0.1,-0.9 0,-0.3 0,-0.7 0.1,-1 0,-0.3 0.1,-0.7 0.1,-1 0,-0.3 0.1,-0.7 0.1,-1 0,-0.3 0.1,-0.7 0.1,-1 0.1,-0.3 0.1,-0.7 0.1,-1 0,-0.3 0.1,-0.7 0.1,-1 0,-0.3 0.1,-0.7 0.1,-1 0.1,-0.3 0.1,-0.7 0.2,-1 0,-0.3 0.1,-0.6 0.1,-0.9 0,-0.2 0.1,-0.4 0.1,-0.6 0,-0 0,-0.2 0,-0.2 1.5,1.7 0.5,1.6 4.3,-0.5 0,0 -0.1,-0.3 -0.2,0 -0.1,0.1 -0.2,0.2 -0.3,0.3 -0.1,0.1 -0.3,0.3 -0.4,0.4 -0.2,0.2 -0.3,0.3 -0.5,0.5 -0.2,0.2 -0.4,0.4 -0.5,0.6 -0.2,0.2 -0.4,0.4 -0.6,0.6 -0.2,0.2 -0.4,0.4 -0.6,0.6 -0.1,0.1 -0.2,0.2 -0.3,0.3 0,0 -0.1,0.1 -0.2,0 0,-0.1 0,-0.4 -0.1,-0.5 l -4.5,1.1 z"
     id="path54" />
  <path
     style="fill:#4e9a06;fill-opacity:0.92"
     d="m 430.4,38.6 c 0,-0.1 0.1,-0.2 0.1,-0.3 0.1,-0 0.2,-0.1 0.2,-0.2 0.1,-0.1 0.3,-0.3 0.4,-0.4 0.2,-0.2 0.5,-0.4 0.7,-0.6 0.3,-0.2 0.6,-0.5 0.9,-0.7 0.4,-0.3 0.8,-0.6 1.2,-0.9 0.4,-0.3 0.9,-0.7 1.3,-1 0.4,-0.3 0.9,-0.7 1.3,-1 0.5,-0.3 0.9,-0.7 1.4,-1 0.5,-0.3 0.9,-0.7 1.4,-1.1 0.4,-0.3 0.9,-0.7 1.3,-1 0.4,-0.4 0.9,-0.7 1.4,-1 0.5,-0.3 0.9,-0.7 1.4,-1 0.4,-0.3 0.8,-0.6 1.2,-0.9 0.4,-0.3 0.8,-0.6 1.2,-0.9 0.4,-0.3 0.8,-0.6 1.2,-0.9 0.4,-0.3 0.8,-0.6 1.2,-0.9 0.3,-0.2 0.6,-0.5 0.9,-0.7 0.2,-0.2 0.5,-0.3 0.7,-0.5 0,-0 0.1,-0 0.1,-0 l 4.5,0.8 c 0,0 -0.1,0 -0.1,0 -0.2,0.2 -0.5,0.3 -0.7,0.5 -0.3,0.2 -0.6,0.5 -0.9,0.7 -0.4,0.3 -0.8,0.6 -1.2,0.8 -0.4,0.3 -0.8,0.6 -1.2,0.9 -0.4,0.3 -0.8,0.6 -1.2,0.9 -0.4,0.3 -0.8,0.6 -1.2,0.9 -0.5,0.3 -0.9,0.6 -1.3,1 -0.5,0.3 -0.9,0.7 -1.4,1 -0.4,0.3 -0.9,0.7 -1.3,1 -0.5,0.4 -0.9,0.7 -1.4,1.1 -0.5,0.3 -0.9,0.7 -1.4,1 -0.5,0.3 -0.9,0.7 -1.3,1 -0.4,0.3 -0.9,0.6 -1.3,1 -0.4,0.3 -0.8,0.6 -1.1,0.9 -0.3,0.2 -0.6,0.5 -0.9,0.7 -0.2,0.2 -0.5,0.4 -0.7,0.5 -0.1,0.1 -0.3,0.2 -0.4,0.3 -0.1,0 -0.2,0.2 -0.2,0.2 0,-0 -0.1,-0.1 -0.1,-0.2 l -4.6,-0 z"
     id="path56" />
  <path
     style="fill:#4e9a06;fill-opacity:0.92"
     d="m 440.2,36.7 c 0,-0 0,0 0.1,-0.2 0,-0.1 0.1,-0.2 0.2,-0.3 0.1,-0.1 0.2,-0.2 0.4,-0.4 0.2,-0.2 0.4,-0.3 0.6,-0.5 0.2,-0.2 0.5,-0.4 0.7,-0.5 1.3,-0.8 2.8,-1.3 4.2,-1.9 0.3,-0.1 0.6,-0.2 0.9,-0.3 0.3,-0 0.6,-0 0.9,-0.1 0.3,-0 0.6,0 0.9,0 0.3,0 0.5,0.1 0.8,0.2 0.3,0 0.5,0.2 0.7,0.4 0.3,0.2 0.5,0.5 0.7,0.8 0.2,0.3 0.3,0.6 0.4,1 0.1,0.3 0.1,0.7 0.2,1 0,0.3 0,0.7 -0.1,1 0,0.4 -0.2,0.7 -0.3,1 -0.1,0.3 -0.3,0.7 -0.4,1 -0.2,0.3 -0.4,0.6 -0.5,0.9 -0.2,0.3 -0.4,0.6 -0.6,0.9 -0.2,0.3 -0.4,0.5 -0.7,0.7 -0.2,0.2 -0.4,0.4 -0.6,0.6 -0.1,0.1 -0.3,0.3 -0.4,0.4 -0.1,0.1 -0.2,0.2 -0.3,0.3 -0.1,0.2 -0.2,-0 -0.2,-0 0,-0.5 -0.3,-0.8 -0.5,-1.3 -0.2,-0 -0.1,-0.3 -0.1,-0.3 0.1,-0 0.3,-0 0.4,-0 0.2,0 0.3,0 0.5,0 0.2,0 0.4,0 0.6,0 0.2,0 0.4,0.1 0.6,0.2 0.2,0 0.4,0.2 0.6,0.3 0.2,0.1 0.4,0.4 0.6,0.5 0.2,0.2 0.3,0.4 0.4,0.6 0.2,0.2 0.3,0.5 0.4,0.7 0.1,0.3 0.2,0.6 0.2,0.9 0.1,0.3 0,0.6 0.1,0.9 0,0.3 -0.1,0.6 -0.1,0.9 0,0.3 -0.1,0.7 -0.2,1 -0.1,0.4 -0.3,0.7 -0.4,1.1 -0.2,0.3 -0.4,0.6 -0.6,0.9 -0.2,0.3 -0.5,0.6 -0.7,0.9 -1.3,1.1 -2.3,1.2 -4.2,2.1 -0.3,0.1 -0.7,0.1 -1,0.2 -0.3,0 -0.7,0 -1,0 -0.4,0 -0.7,-0.1 -1.1,-0.2 -0.4,-0 -0.7,-0.2 -1.1,-0.3 -0.3,-0.1 -0.7,-0.3 -1,-0.4 -0.3,-0.1 -0.6,-0.4 -0.9,-0.5 -0.3,-0.2 -0.6,-0.5 -0.9,-0.7 -0.3,-0.2 -0.5,-0.6 -0.7,-0.8 -0.3,-0.3 -0.4,-0.7 -0.6,-1 -0.2,-0.3 -0.2,-0.7 -0.3,-1.1 l 4.4,-1.3 c 0,0.2 0,0.4 0.1,0.5 0.1,0.2 0.2,0.5 0.4,0.6 0.2,0.2 0.4,0.4 0.6,0.6 0.2,0.1 0.4,0.3 0.6,0.4 0.2,0.1 0.5,0.2 0.7,0.3 0.3,0 0.6,0.2 0.8,0.2 0.3,0 0.6,0.1 0.9,0.1 0.3,-0 0.5,0 0.8,-0 0.2,-0 0.5,-0.1 0.7,-0.2 0.3,-0.1 0.5,-0.2 0.8,-0.4 -5.1,2.2 -4,1.6 -2.6,1.2 0.2,-0.1 0.5,-0.1 0.6,-0.4 0.2,-0.2 0.4,-0.4 0.6,-0.7 0.2,-0.2 0.3,-0.4 0.5,-0.7 0.1,-0.2 0.2,-0.4 0.3,-0.7 0,-0.2 0.1,-0.4 0.1,-0.7 0,-0.2 0,-0.4 0,-0.6 0,-0.1 0,-0.3 -0.1,-0.4 -0.1,-0.1 -0.1,-0.2 -0.2,-0.3 -0.1,-0 -0.2,-0.2 -0.3,-0.3 -0.1,-0 -0.1,-0.1 -0.2,-0 -0.1,0 -0.2,0 -0.3,0 -0.1,0 -0.3,0 -0.4,0 -0.1,0 -0.3,0 -0.4,0 -0.2,0 -0.3,0 -0.4,0 -0.2,0 -0.3,0 -0.5,-0 -0.2,-0.1 -0.5,-0.1 -0.7,-0.4 -0.2,-0.5 -0.6,-0.9 -0.5,-1.5 0.1,-0.2 0.1,-0.4 0.2,-0.5 0.1,-0.1 0.2,-0.2 0.3,-0.3 0.1,-0.1 0.3,-0.3 0.4,-0.4 0.2,-0.2 0.4,-0.4 0.6,-0.5 0.2,-0.2 0.4,-0.4 0.6,-0.6 0.2,-0.2 0.4,-0.4 0.6,-0.7 0.2,-0.2 0.4,-0.4 0.5,-0.7 0.1,-0.2 0.3,-0.5 0.4,-0.7 0.1,-0.2 0.2,-0.4 0.3,-0.7 0.1,-0.2 0.1,-0.4 0.1,-0.6 0,-0.2 0,-0.3 0,-0.5 0,-0 0,-0.2 -0.1,-0.3 -0.1,0 -0.1,-0 -0.2,-0 -0.1,-0 -0.3,-0 -0.4,-0 -0.2,0 -0.4,-0 -0.5,0 -0.2,0 -0.4,0 -0.5,0.2 -0.2,0 -0.4,0.2 -0.6,0.3 -0.3,0.1 -0.5,0.2 -0.8,0.3 5.6,-2.4 3.8,-1.6 2.5,-1.1 -0.2,0.1 -0.5,0.2 -0.7,0.3 -0.2,0.1 -0.4,0.2 -0.5,0.3 -0.1,0 -0.2,0.2 -0.4,0.3 -0.1,0 -0.1,0.1 -0.2,0 -0.1,-0 0,0 0,-0 l -4.6,-0.1 z"
     id="path58" />
  <text
     x="428.8"
     y="93.2"
     style="font-family:'Comic Sans MS';text-align:center;text-anchor:middle;font-size:17.5px;fill:#4e9a06;fill-opacity:0.92"
     id="text60">Mixed</text>
  <text
     x="269.1"
     y="92.9"
     style="font-family:'Comic Sans MS';text-align:center;text-anchor:middle;font-size:17.5px;fill:#8d5fd3"
     id="text62">Improper</text>
  <text
     x="98.6"
     y="93.2"
     style="font-family:'Comic Sans MS';text-align:center;text-anchor:middle;font-size:17.5px;fill:#fdca01;stroke:#fdca01;stroke-width:0.13px"
     id="text64">Proper</text>
  <text
     x="428.8"
     y="111.2"
     style="font-family:'Comic Sans MS';text-align:center;text-anchor:middle;font-size:17.5px;fill:#4e9a06;fill-opacity:0.92"
     id="text66">Fraction</text>
  <text
     x="269.1"
     y="110.9"
     style="font-family:'Comic Sans MS';text-align:center;text-anchor:middle;font-size:17.5px;fill:#8d5fd3"
     id="text68">Fraction</text>
  <text
     x="98.6"
     y="111.2"
     style="font-family:'Comic Sans MS';text-align:center;text-anchor:middle;font-size:17.5px;fill:#fdca01;stroke:#fdca01;stroke-width:0.13px"
     id="text70">Fraction</text>
  <text
     x="192.3"
     y="31.4"
     style="font-family:'Comic Sans MS';text-align:center;text-anchor:middle;font-size:15px;fill:#005c94;"
     id="text72">(or equal)</text>
  <text
     x="190.6"
     y="70.9"
     style="font-family:'Comic Sans MS';text-align:center;text-anchor:middle;font-size:15px;fill:#005c94;"
     id="text74">(or equal)</text>
</svg>
