<?xml version="1.0" encoding="UTF-8" standalone="no"?>
<!-- Created with Inkscape (http://www.inkscape.org/) -->

<svg
   width="309.783"
   height="187.312"
   id="svg2"
   version="1.1"
   inkscape:version="1.1 (c68e22c387, 2021-05-23)"
   sodipodi:docname="hex-example.svg"
   xmlns:inkscape="http://www.inkscape.org/namespaces/inkscape"
   xmlns:sodipodi="http://sodipodi.sourceforge.net/DTD/sodipodi-0.dtd"
   xmlns="http://www.w3.org/2000/svg"
   xmlns:svg="http://www.w3.org/2000/svg"
   xmlns:rdf="http://www.w3.org/1999/02/22-rdf-syntax-ns#"
   xmlns:cc="http://creativecommons.org/ns#"
   xmlns:dc="http://purl.org/dc/elements/1.1/">
  <defs
     id="defs4" />
  <sodipodi:namedview
     id="base"
     pagecolor="#ffffff"
     bordercolor="#666666"
     borderopacity="1.0"
     inkscape:pageopacity="0.0"
     inkscape:pageshadow="2"
     inkscape:zoom="1"
     inkscape:cx="-452.57057"
     inkscape:cy="113.45772"
     inkscape:document-units="px"
     inkscape:current-layer="layer1"
     showgrid="false"
     inkscape:window-width="1536"
     inkscape:window-height="801"
     inkscape:window-x="1528"
     inkscape:window-y="-8"
     inkscape:window-maximized="1"
     showguides="true"
     inkscape:guide-bbox="true"
     inkscape:pagecheckerboard="0" />
  <metadata
     id="metadata7">
    <rdf:RDF>
      <cc:Work
         rdf:about="">
        <dc:format>image/svg+xml</dc:format>
        <dc:type
           rdf:resource="http://purl.org/dc/dcmitype/StillImage" />
      </cc:Work>
    </rdf:RDF>
  </metadata>
  <g
     inkscape:label="Layer 1"
     inkscape:groupmode="layer"
     id="layer1"
     transform="translate(-155.117,-423.087)">
    <rect
       style="color:#000000;display:inline;overflow:visible;visibility:visible;fill:#f9ffde;fill-opacity:1;fill-rule:nonzero;stroke:none;stroke-width:0.34178;marker:none;enable-background:accumulate"
       id="rect3909"
       width="320.139"
       height="31.4247"
       x="117.479"
       y="365.618"
       ry="11.3915" />
    <text
       xml:space="preserve"
       style="color:#000000;font-style:normal;font-variant:normal;font-weight:bold;font-stretch:normal;font-size:8.07381px;line-height:0%;font-family:'Courier New';-inkscape-font-specification:'Courier New Bold';text-indent:0;text-align:start;text-decoration:none;text-decoration-line:none;letter-spacing:0px;word-spacing:0px;text-transform:none;writing-mode:lr-tb;direction:ltr;text-anchor:start;display:inline;overflow:visible;visibility:visible;fill:#ff6600;fill-opacity:1;fill-rule:nonzero;stroke:none;stroke-width:0.672818px;marker:none;enable-background:accumulate"
       x="275.313"
       y="447.5"
       id="text2985-0-4"><tspan
         sodipodi:role="line"
         id="tspan2989-0-9"
         x="275.313"
         y="447.5"
         style="font-size:37.6778px;line-height:1.25;fill:#ff6600;stroke-width:0.672818px">D1CE</tspan></text>
    <text
       xml:space="preserve"
       style="color:#000000;font-style:normal;font-variant:normal;font-weight:normal;font-stretch:normal;font-size:7.2px;line-height:0%;font-family:Gabriola;-inkscape-font-specification:Gabriola;text-indent:0;text-align:start;text-decoration:none;text-decoration-line:none;letter-spacing:0px;word-spacing:0px;text-transform:none;writing-mode:lr-tb;direction:ltr;text-anchor:start;display:inline;overflow:visible;visibility:visible;fill:#0084c8;fill-opacity:1;fill-rule:nonzero;stroke:none;stroke-width:0.6px;marker:none;enable-background:accumulate"
       x="272.155"
       y="543.53"
       id="text3053"><tspan
         sodipodi:role="line"
         id="tspan3055"
         x="272.155"
         y="543.53"
         style="font-size:28.8px;line-height:1.25;fill:#0084c8;stroke-width:0.6px">1 × 16   + </tspan></text>
    <g
       id="g3051"
       style="fill:#ff9900;stroke:none"
       transform="matrix(0.6,0,0,0.6,127.925,207.473)">
      <path
         inkscape:connector-curvature="0"
         d="m 257.916,414.349 c -0.551,0.296 -1.172,0.454 -1.763,0.648 -0.717,0.298 -1.421,0.633 -2.143,0.922 -0.79,0.397 -1.584,0.793 -2.402,1.122 -0.859,0.459 -1.781,0.769 -2.637,1.231 -0.917,0.428 -1.844,0.829 -2.751,1.282 -0.993,0.447 -1.959,0.955 -2.961,1.379 -1.052,0.501 -2.101,1.009 -3.143,1.535 -1.169,0.61 -2.322,1.255 -3.49,1.868 -1.272,0.644 -2.529,1.315 -3.826,1.899 -1.292,0.654 -2.58,1.315 -3.875,1.963 -1.332,0.69 -2.658,1.395 -3.971,2.128 -1.362,0.687 -2.708,1.412 -4.071,2.099 -1.383,0.703 -2.794,1.335 -4.189,2.011 -1.471,0.657 -2.939,1.325 -4.389,2.034 -1.416,0.694 -2.849,1.354 -4.245,2.091 -1.35,0.626 -2.66,1.345 -3.994,2.008 -1.403,0.625 -2.764,1.351 -4.167,1.977 -1.503,0.718 -3.007,1.433 -4.521,2.125 -1.559,0.683 -3.091,1.433 -4.652,2.11 -1.494,0.682 -2.981,1.381 -4.461,2.097 -1.54,0.709 -3.08,1.417 -4.619,2.129 -1.51,0.688 -3.008,1.408 -4.52,2.094 -1.42,0.693 -2.868,1.319 -4.255,2.089 -1.357,0.681 -2.664,1.469 -3.993,2.207 -1.317,0.712 -2.642,1.408 -3.948,2.142 -1.263,0.695 -2.481,1.477 -3.722,2.214 0.372,-0.187 -1.531,0.978 -1.146,0.738 8.591,-5.366 0.489,-0.222 -2.361,1.459 -1.561,0.944 -4.443,2.755 2.58,-1.612 0.188,-0.116 -0.379,0.223 -0.566,0.34 -2.083,1.304 0.844,-0.493 -1.136,0.718 -1.107,0.762 -2.253,1.457 -3.359,2.22 -1.082,0.689 -2.107,1.47 -3.156,2.214 -1.05,0.761 -2.057,1.589 -3.055,2.426 -1.083,0.897 -2.122,1.852 -3.171,2.793 -1.014,0.912 -1.964,1.902 -2.937,2.864 -0.955,0.973 -1.959,1.887 -2.916,2.858 -0.913,0.905 -1.86,1.773 -2.744,2.712 -0.89,0.902 -1.745,1.843 -2.622,2.759 -0.903,0.883 -1.737,1.843 -2.594,2.775 -0.833,0.932 -1.646,1.887 -2.437,2.86 -0.81,0.919 -1.588,1.869 -2.378,2.807 -0.755,0.929 -1.514,1.852 -2.249,2.799 -0.728,0.913 -1.412,1.865 -2.111,2.803 -0.705,1.029 -1.449,2.027 -2.225,2.995 -0.786,0.984 -1.513,2.021 -2.283,3.02 -0.721,0.966 -1.445,1.929 -2.161,2.9 -0.48,0.653 -0.887,1.364 -1.309,2.06 0,0 -8.356,-1.747 -8.356,-1.747 v 0 c 0.51,-0.539 0.915,-1.165 1.271,-1.834 0.681,-1.111 1.439,-2.155 2.211,-3.193 0.753,-1.039 1.551,-2.039 2.295,-3.086 0.704,-0.959 1.471,-1.861 2.191,-2.805 0.696,-1.018 1.423,-2.007 2.146,-3.001 0.748,-0.984 1.476,-1.989 2.275,-2.926 0.779,-1.008 1.581,-1.999 2.411,-2.958 0.85,-0.947 1.647,-1.95 2.455,-2.939 0.864,-1.028 1.77,-2.015 2.655,-3.023 0.883,-0.91 1.775,-1.808 2.621,-2.757 0.938,-0.952 1.818,-1.97 2.79,-2.882 0.986,-0.918 1.9,-1.923 2.905,-2.818 0.998,-0.988 2.007,-1.961 2.972,-2.987 1.052,-1.041 2.141,-2.041 3.24,-3.024 1.039,-0.922 2.084,-1.835 3.152,-2.717 1.057,-0.87 2.162,-1.67 3.256,-2.483 1.128,-0.768 2.232,-1.575 3.388,-2.296 2.542,-1.811 5.249,-3.335 7.881,-4.986 0.388,-0.248 1.559,-0.975 1.169,-0.731 -1.251,0.785 -5.012,3.128 -3.758,2.347 2.043,-1.272 4.071,-2.602 6.154,-3.806 1.282,-0.769 2.594,-1.477 3.903,-2.19 1.312,-0.7 2.615,-1.42 3.914,-2.146 1.377,-0.768 2.778,-1.48 4.186,-2.177 1.477,-0.682 2.945,-1.383 4.424,-2.058 1.503,-0.707 3.011,-1.402 4.52,-2.095 1.528,-0.704 3.056,-1.412 4.577,-2.137 1.513,-0.699 3.023,-1.409 4.548,-2.079 1.526,-0.714 3.061,-1.406 4.586,-2.123 1.498,-0.714 3.003,-1.412 4.499,-2.13 1.343,-0.674 2.704,-1.306 4.038,-2 1.334,-0.687 2.689,-1.324 4.027,-2.002 1.451,-0.682 2.881,-1.416 4.343,-2.073 1.459,-0.666 2.917,-1.338 4.362,-2.039 1.362,-0.646 2.705,-1.337 4.044,-2.037 1.328,-0.704 2.671,-1.376 3.985,-2.112 1.366,-0.713 2.73,-1.428 4.111,-2.106 1.309,-0.66 2.614,-1.328 3.939,-1.951 1.219,-0.642 2.439,-1.28 3.655,-1.928 1.203,-0.648 2.428,-1.251 3.657,-1.839 1.082,-0.509 2.157,-1.034 3.251,-1.515 0.966,-0.484 1.947,-0.929 2.923,-1.386 0.929,-0.409 1.84,-0.862 2.765,-1.28 0.918,-0.372 1.799,-0.844 2.718,-1.215 0.832,-0.409 1.686,-0.769 2.549,-1.091 0.792,-0.33 1.603,-0.609 2.419,-0.856 0.627,-0.223 1.254,-0.463 1.899,-0.611 0,0 -2.122,8.916 -2.122,8.916 z"
         id="path3100"
         style="color:#000000;display:inline;overflow:visible;visibility:visible;fill:#ff9900;fill-opacity:1;fill-rule:nonzero;stroke:none;stroke-width:0.569634;marker:none;enable-background:accumulate" />
      <path
         inkscape:connector-curvature="0"
         d="m 120.665,474.744 c 0.06,0.65 0.122,1.301 0.154,1.954 0.08,0.805 0.17,1.609 0.248,2.414 0.09,0.96 0.17,1.919 0.209,2.882 0.03,1.014 0.03,2.028 -10e-4,3.041 -0.03,1.079 -0.142,2.154 -0.27,3.225 -0.137,1.016 -0.353,2.017 -0.62,3.006 -0.243,0.98 -0.53,1.949 -0.878,2.897 -0.33,0.926 -0.703,1.84 -1.134,2.725 -0.401,0.898 -0.89,1.751 -1.35,2.619 -0.5,0.918 -1.096,1.774 -1.722,2.608 -0.587,0.848 -1.193,1.683 -1.82,2.501 -0.577,0.858 -1.228,1.661 -1.83,2.5 -0.465,0.593 -0.872,1.228 -1.31,1.841 -0.116,0.123 -0.315,0.963 -0.486,0.556 -0.181,-0.456 -0.411,-0.902 -0.69,-1.317 -2.254,-2.629 -2.801,-0.885 -6.571,1.078 0.244,0.247 0.541,-0.231 0.741,-0.372 0.418,-0.464 0.827,-0.939 1.259,-1.398 0.556,-0.451 1.075,-0.965 1.682,-1.346 0.576,-0.515 1.259,-0.876 1.876,-1.333 0.661,-0.504 1.352,-0.974 2.077,-1.381 0.758,-0.499 1.481,-1.053 2.266,-1.51 0.793,-0.566 1.635,-1.055 2.444,-1.597 2.201,-1.666 4.733,-2.761 7.153,-4.036 0.93,-0.54 1.943,-0.927 2.883,-1.447 0.994,-0.436 1.961,-0.926 2.962,-1.346 1.056,-0.406 2.099,-0.839 3.17,-1.204 1.084,-0.457 2.213,-0.796 3.342,-1.121 1.134,-0.413 2.303,-0.72 3.472,-1.014 1.143,-0.348 2.298,-0.671 3.467,-0.923 0.163,-0.04 0.327,-0.08 0.491,-0.118 0,0 -2.285,8.198 -2.285,8.198 v 0 c -0.159,0.04 -0.318,0.08 -0.476,0.123 -1.113,0.331 -2.234,0.638 -3.351,0.954 -1.097,0.338 -2.181,0.717 -3.276,1.063 -1.035,0.373 -2.052,0.791 -3.082,1.178 -0.953,0.406 -1.914,0.799 -2.84,1.264 -0.924,0.463 -1.871,0.872 -2.774,1.375 -0.959,0.441 -1.861,0.997 -2.811,1.457 -0.446,0.23 -0.868,0.485 -1.302,0.737 -0.145,0.08 -0.584,0.333 -0.439,0.248 3.981,-2.312 5.303,-2.973 3.536,-2.078 -0.815,0.463 -1.574,1.011 -2.391,1.47 -0.72,0.525 -1.513,0.941 -2.243,1.454 -0.644,0.501 -1.34,0.931 -2.055,1.323 -0.619,0.4 -1.173,0.894 -1.835,1.227 -0.501,0.409 -1.08,0.71 -1.596,1.101 -0.413,0.199 -0.758,0.435 -1.071,0.762 -0.343,0.455 -0.772,0.857 -1.06,1.371 -4.009,2.144 -4.972,4.142 -7.898,1.293 -0.614,-0.788 -1.094,-1.65 -1.159,-2.671 -0.05,-0.813 0.05,-1.591 0.366,-2.348 0.331,-1.018 0.815,-1.974 1.411,-2.863 0.597,-0.858 1.18,-1.721 1.836,-2.536 0.572,-0.848 1.199,-1.656 1.815,-2.473 0.524,-0.781 1.111,-1.509 1.673,-2.261 0.496,-0.681 0.868,-1.438 1.308,-2.154 0.37,-0.751 0.781,-1.48 1.116,-2.247 0.308,-0.787 0.649,-1.56 0.89,-2.372 0.219,-0.836 0.507,-1.654 0.662,-2.506 0.193,-0.862 0.27,-1.739 0.361,-2.617 0.04,-0.907 0.1,-1.813 0.07,-2.722 0,-0.852 -0.04,-1.7 -0.127,-2.549 -0.07,-0.797 -0.14,-1.593 -0.24,-2.387 -0.08,-0.65 -0.1,-1.304 -0.156,-1.957 0,0 8.211,-2.241 8.211,-2.241 z"
         id="path3108"
         style="color:#000000;display:inline;overflow:visible;visibility:visible;fill:#ff9900;fill-opacity:1;fill-rule:nonzero;stroke:none;stroke-width:0.569634;marker:none;enable-background:accumulate" />
    </g>
    <g
       id="g3055"
       style="fill:#ff9900;stroke:none"
       transform="matrix(0.6,0,0,0.6,127.925,207.473)">
      <path
         inkscape:connector-curvature="0"
         d="m 306.352,409.791 c -0.462,0.396 -0.882,0.838 -1.26,1.33 -0.515,0.556 -1.014,1.134 -1.497,1.723 -0.616,0.686 -1.13,1.469 -1.68,2.217 -0.601,0.894 -1.23,1.766 -1.796,2.687 -0.623,0.879 -1.152,1.83 -1.719,2.753 -0.576,0.934 -1.105,1.901 -1.659,2.851 -0.544,0.985 -1.115,1.952 -1.687,2.918 -0.584,1.059 -1.188,2.103 -1.788,3.15 -0.599,1.108 -1.183,2.227 -1.795,3.327 -0.638,1.15 -1.25,2.318 -1.901,3.46 -0.684,1.257 -1.458,2.449 -2.191,3.67 -0.713,1.184 -1.419,2.372 -2.119,3.565 -0.722,1.263 -1.411,2.548 -2.129,3.814 -0.732,1.252 -1.485,2.489 -2.166,3.777 -0.708,1.284 -1.388,2.586 -2.083,3.878 -0.715,1.321 -1.463,2.62 -2.179,3.94 -0.697,1.282 -1.389,2.568 -2.076,3.857 -0.679,1.328 -1.376,2.646 -2.049,3.977 -0.695,1.317 -1.319,2.677 -1.942,4.036 -0.599,1.297 -1.121,2.634 -1.611,3.985 -0.475,1.366 -0.905,2.751 -1.333,4.136 -0.412,1.33 -0.76,2.683 -1.096,4.04 -0.306,1.298 -0.496,2.621 -0.66,3.948 -0.14,1.391 -0.218,2.788 -0.298,4.183 -0.08,1.426 -0.146,2.852 -0.208,4.279 -0.06,1.431 -0.112,2.863 -0.16,4.295 -0.05,1.452 -0.07,2.906 -0.141,4.358 -0.06,1.1 -0.1,2.201 -0.112,3.302 0,0.182 -0.01,0.365 -0.02,0.547 0,0 -8.442,1.194 -8.442,1.194 v 0 c 0.02,-0.06 0.05,-0.11 0.07,-0.164 0.15,-1.069 0.04,-2.172 0.12,-3.248 0.09,-1.408 0.133,-2.817 0.164,-4.228 0.04,-1.451 0.09,-2.903 0.15,-4.353 0.06,-1.453 0.12,-2.906 0.195,-4.357 0.08,-1.479 0.158,-2.958 0.261,-4.435 0.114,-1.56 0.303,-3.115 0.591,-4.648 0.281,-1.53 0.666,-3.033 1.076,-4.527 0.417,-1.474 0.884,-2.93 1.331,-4.393 0.492,-1.521 1.015,-3.029 1.627,-4.496 0.62,-1.474 1.281,-2.927 1.966,-4.364 0.68,-1.345 1.358,-2.69 2.053,-4.025 0.671,-1.344 1.38,-2.663 2.089,-3.983 0.726,-1.336 1.46,-2.667 2.185,-4.003 0.724,-1.251 1.401,-2.533 2.076,-3.816 0.738,-1.319 1.392,-2.695 2.19,-3.973 0.739,-1.211 1.44,-2.446 2.115,-3.701 0.684,-1.267 1.408,-2.504 2.14,-3.736 0.716,-1.188 1.41,-2.393 2.175,-3.544 0.637,-1.11 1.292,-2.207 1.888,-3.344 0.588,-1.095 1.194,-2.177 1.789,-3.266 0.559,-1.12 1.175,-2.201 1.801,-3.276 0.532,-0.998 1.093,-1.979 1.689,-2.931 0.547,-1.003 1.124,-1.984 1.675,-2.984 0.574,-0.999 1.174,-1.98 1.749,-2.979 0.629,-0.919 1.179,-1.903 1.817,-2.816 0.562,-0.887 1.175,-1.733 1.751,-2.609 0.513,-0.679 1.034,-1.345 1.56,-2.012 0.496,-0.482 0.871,-1.086 1.329,-1.611 0,0 8.174,2.625 8.174,2.625 z"
         id="path3104"
         style="color:#000000;display:inline;overflow:visible;visibility:visible;fill:#ff9900;fill-opacity:1;fill-rule:nonzero;stroke:none;stroke-width:0.569634;marker:none;enable-background:accumulate" />
      <path
         inkscape:connector-curvature="0"
         d="m 251.47,478.774 c 0.568,0.502 1.117,1.026 1.629,1.585 0.538,0.536 1.026,1.116 1.532,1.681 0.56,0.655 1.066,1.355 1.6,2.03 0.599,0.762 1.113,1.584 1.631,2.401 0.511,0.846 1.008,1.699 1.469,2.573 0.5,0.958 0.906,1.96 1.281,2.972 0.337,0.986 0.673,1.974 0.993,2.966 0.341,1.064 0.619,2.146 0.877,3.233 0.264,1.133 0.488,2.275 0.662,3.425 0.158,1.138 0.286,2.28 0.368,3.425 0.08,1.133 0.09,2.27 0.05,3.405 -0.03,0.819 -0.09,1.637 -0.15,2.454 -0.04,0.469 -0.08,0.937 -0.09,1.407 -0.132,3.191 0.106,0.804 -8.337,1.426 -0.08,0 -0.223,-1.197 -0.237,-1.329 -0.01,-0.495 -0.08,-0.985 -0.139,-1.477 -0.08,-0.759 -0.164,-1.519 -0.196,-2.283 -0.04,-0.931 0.03,-1.863 0.159,-2.784 0.124,-1.008 0.39,-1.99 0.695,-2.957 0.316,-0.888 0.74,-1.729 1.143,-2.579 0.452,-0.812 0.856,-1.656 1.371,-2.432 0.484,-0.871 1.117,-1.632 1.736,-2.407 0.632,-0.785 1.375,-1.449 2.125,-2.113 0.763,-0.603 1.489,-1.258 2.286,-1.817 0.77,-0.635 1.602,-1.186 2.401,-1.784 0.83,-0.573 1.663,-1.143 2.481,-1.735 0.841,-0.551 1.69,-1.089 2.521,-1.655 2.259,-1.417 4.576,-2.726 6.886,-4.067 0.514,-0.289 0.256,-0.153 0.775,-0.41 0,0 -0.998,8.452 -0.998,8.452 v 0 c -0.448,0.276 -0.212,0.136 -0.708,0.418 7.697,-4.49 3.597,-2.14 1.867,-1.039 -0.855,0.453 -1.662,0.994 -2.467,1.528 -0.846,0.475 -1.643,1.037 -2.429,1.602 -0.795,0.494 -1.53,1.072 -2.321,1.571 -0.722,0.58 -1.514,1.07 -2.231,1.66 -0.657,0.475 -1.319,0.948 -1.936,1.475 -0.572,0.466 -1.064,1.021 -1.567,1.558 -0.446,0.653 -0.972,1.253 -1.317,1.974 -0.421,0.642 -0.764,1.335 -1.11,2.019 -0.34,0.564 -0.563,1.179 -0.742,1.811 -0.124,0.617 -0.268,1.229 -0.314,1.859 -0.01,0.611 0,1.217 0.08,1.824 0.06,0.559 0.146,1.115 0.192,1.673 0.02,3.396 -8.625,-0.865 -8.17,2.447 0.102,0.303 0.182,-0.457 0.184,-0.524 0.08,-0.745 0.137,-1.492 0.187,-2.24 0.06,-0.956 0.112,-1.914 0.06,-2.872 -0.04,-1.016 -0.129,-2.027 -0.26,-3.036 -0.123,-1.006 -0.294,-2.003 -0.519,-2.992 -0.213,-0.958 -0.443,-1.913 -0.73,-2.851 -0.288,-0.93 -0.614,-1.847 -0.91,-2.774 -0.283,-0.801 -0.587,-1.596 -0.975,-2.353 -0.39,-0.75 -0.82,-1.478 -1.255,-2.203 -0.432,-0.677 -0.856,-1.361 -1.361,-1.987 -0.464,-0.6 -0.917,-1.21 -1.419,-1.779 -0.46,-0.526 -0.938,-1.036 -1.423,-1.539 -0.384,-0.379 -0.776,-0.75 -1.201,-1.081 0,0 6.27,-5.755 6.27,-5.755 z"
         id="path3110"
         style="color:#000000;display:inline;overflow:visible;visibility:visible;fill:#ff9900;fill-opacity:1;fill-rule:nonzero;stroke:none;stroke-width:0.569634;marker:none;enable-background:accumulate" />
    </g>
    <g
       id="g3059"
       style="fill:#ff9900;stroke:none"
       transform="matrix(0.6,0,0,0.6,127.925,207.473)">
      <path
         inkscape:connector-curvature="0"
         d="m 346.44,406.115 c 0.01,0.628 0.09,1.251 0.115,1.878 0.09,0.816 0.186,1.63 0.27,2.447 0.102,0.927 0.149,1.86 0.242,2.788 0.09,0.904 0.195,1.806 0.359,2.699 0.202,0.992 0.45,1.973 0.707,2.95 0.261,0.984 0.551,1.957 0.876,2.919 0.306,0.883 0.657,1.749 1.053,2.592 0.379,0.811 0.873,1.552 1.416,2.248 0.615,0.824 1.288,1.599 1.972,2.359 0.685,0.813 1.417,1.579 2.181,2.307 0.88,0.813 1.736,1.652 2.597,2.487 0.829,0.834 1.649,1.681 2.51,2.479 0.911,0.814 1.815,1.639 2.724,2.457 0.909,0.847 1.805,1.709 2.739,2.525 0.981,0.864 1.948,1.747 2.875,2.675 0.894,0.872 1.772,1.762 2.665,2.635 0.951,0.874 1.858,1.798 2.753,2.736 0.903,0.996 1.81,1.988 2.73,2.968 0.872,0.924 1.789,1.799 2.69,2.691 0.993,0.994 1.911,2.066 2.798,3.166 0.828,1.057 1.697,2.077 2.548,3.113 0.862,1.011 1.699,2.046 2.502,3.109 0.743,1.031 1.492,2.056 2.238,3.084 0.754,1.045 1.489,2.104 2.196,3.186 0.708,1.129 1.364,2.294 2.003,3.468 0.639,1.182 1.176,2.421 1.714,3.657 0.543,1.248 1,2.535 1.464,3.818 0.483,1.324 0.896,2.675 1.28,4.034 0.383,1.369 0.701,2.756 0.997,4.149 0.294,1.395 0.537,2.801 0.765,4.211 0.219,1.395 0.35,2.803 0.479,4.21 0.14,1.394 0.191,2.795 0.232,4.195 0.03,1.395 -0.07,2.787 -0.184,4.175 -0.11,1.202 -0.301,2.389 -0.586,3.559 0,0 -9.069,-0.187 -9.069,-0.187 v 0 c 0.481,-0.58 0.576,-1.322 0.667,-2.069 0.179,-1.134 0.246,-2.28 0.311,-3.427 0.02,-1.245 -0.04,-2.493 -0.126,-3.734 -0.107,-1.272 -0.219,-2.544 -0.368,-3.812 -0.2,-1.313 -0.414,-2.625 -0.675,-3.927 -0.256,-1.267 -0.53,-2.53 -0.865,-3.777 -0.33,-1.219 -0.686,-2.431 -1.111,-3.618 -0.418,-1.167 -0.828,-2.338 -1.311,-3.478 -0.464,-1.077 -0.925,-2.158 -1.475,-3.19 -0.562,-1.034 -1.139,-2.06 -1.764,-3.053 -0.66,-1.003 -1.348,-1.984 -2.05,-2.955 -0.719,-0.991 -1.438,-1.98 -2.161,-2.967 -0.77,-0.997 -1.567,-1.97 -2.379,-2.93 -0.862,-1.04 -1.724,-2.08 -2.566,-3.139 -0.769,-0.93 -1.565,-1.836 -2.428,-2.67 -0.966,-0.943 -1.918,-1.901 -2.844,-2.889 -0.89,-0.965 -1.78,-1.931 -2.673,-2.894 -0.865,-0.891 -1.756,-1.752 -2.653,-2.607 -0.888,-0.877 -1.766,-1.765 -2.662,-2.633 -0.885,-0.848 -1.795,-1.664 -2.709,-2.474 -0.929,-0.846 -1.841,-1.711 -2.768,-2.559 -0.934,-0.854 -1.89,-1.68 -2.806,-2.556 -0.861,-0.836 -1.703,-1.693 -2.557,-2.537 -0.861,-0.845 -1.751,-1.657 -2.61,-2.504 -0.836,-0.843 -1.648,-1.712 -2.422,-2.621 -0.77,-0.885 -1.535,-1.776 -2.231,-2.729 -0.753,-1.028 -1.454,-2.1 -2.006,-3.266 -0.497,-1.047 -0.944,-2.118 -1.338,-3.213 -0.364,-1.068 -0.718,-2.14 -1.002,-3.236 -0.313,-1.088 -0.584,-2.19 -0.831,-3.297 -0.247,-1.075 -0.431,-2.164 -0.531,-3.267 -0.114,-0.956 -0.2,-1.912 -0.264,-2.873 -0.07,-0.805 -0.148,-1.609 -0.26,-2.408 -0.1,-0.731 -0.115,-1.469 -0.196,-2.202 0,0 8.813,-2.276 8.813,-2.276 z"
         id="path3106"
         style="color:#000000;display:inline;overflow:visible;visibility:visible;fill:#ff9900;fill-opacity:1;fill-rule:nonzero;stroke:none;stroke-width:0.569634;marker:none;enable-background:accumulate" />
      <path
         inkscape:connector-curvature="0"
         d="m 382.404,479.374 c 0.564,0.394 1.119,0.803 1.658,1.23 0.666,0.514 1.311,1.056 1.973,1.574 0.791,0.621 1.432,1.393 2.093,2.141 0.546,0.647 1.089,1.296 1.682,1.901 0.701,0.705 1.357,1.445 1.966,2.231 0.539,0.723 1.128,1.404 1.712,2.09 0.702,0.831 1.303,1.741 1.889,2.656 0.572,0.899 1.108,1.818 1.627,2.748 0.569,1.007 1.054,2.058 1.505,3.122 0.457,1.093 0.831,2.216 1.18,3.347 0.344,1.106 0.556,2.245 0.743,3.387 0.105,0.625 0.211,1.254 0.396,1.862 0.1,0.323 0.23,0.46 -0.03,0.04 -0.387,-0.525 -0.894,-0.928 -1.488,-1.205 -1.876,-0.874 -6.772,0.54 -5.532,3.129 0.189,0.313 0.308,-0.264 0.345,-0.396 0.158,-0.469 0.167,-0.962 0.189,-1.454 0.03,-0.756 0.05,-1.512 0.06,-2.268 0.01,-0.935 0.03,-1.87 0.114,-2.802 0.09,-1.017 0.286,-2.02 0.508,-3.016 0.257,-1.019 0.59,-2.015 0.921,-3.011 0.368,-1.004 0.786,-1.991 1.236,-2.961 0.453,-0.93 0.843,-1.887 1.282,-2.824 0.462,-1.011 0.932,-2.019 1.417,-3.02 0.523,-0.959 1.054,-1.912 1.605,-2.856 0.566,-0.853 1.074,-1.748 1.693,-2.565 0,0 8.395,1.401 8.395,1.401 v 0 c -0.536,0.779 -1.177,1.485 -1.654,2.307 -0.583,0.801 -1.107,1.64 -1.566,2.517 -0.548,0.832 -0.938,1.736 -1.389,2.622 -0.426,0.954 -0.9,1.886 -1.283,2.859 -0.406,0.871 -0.827,1.735 -1.226,2.61 -0.371,0.818 -0.656,1.673 -0.929,2.529 -0.261,0.721 -0.437,1.466 -0.583,2.218 -0.11,0.772 -0.225,1.542 -0.195,2.325 -0.01,0.781 -0.03,1.562 -0.05,2.343 -0.02,0.734 -0.01,1.472 -0.08,2.203 -0.09,0.705 -0.184,1.412 -0.347,2.105 -1.287,4.326 -5.657,5.255 -8.084,2.538 -0.483,-0.608 -0.888,-1.261 -1.144,-2 -0.314,-0.871 -0.537,-1.767 -0.7,-2.678 -0.143,-0.919 -0.26,-1.844 -0.511,-2.742 -0.284,-0.968 -0.589,-1.93 -0.967,-2.865 -0.366,-0.891 -0.762,-1.77 -1.237,-2.608 -0.468,-0.839 -0.949,-1.669 -1.467,-2.478 -0.463,-0.719 -0.936,-1.436 -1.502,-2.081 -0.631,-0.736 -1.24,-1.488 -1.831,-2.256 -0.526,-0.653 -1.112,-1.249 -1.688,-1.856 -0.615,-0.668 -1.205,-1.357 -1.795,-2.046 -0.465,-0.53 -0.946,-1.041 -1.52,-1.456 -0.625,-0.507 -1.26,-1.003 -1.898,-1.493 -0.557,-0.405 -1.109,-0.819 -1.66,-1.233 0,0 6.168,-5.864 6.168,-5.864 z"
         id="path3112"
         style="color:#000000;display:inline;overflow:visible;visibility:visible;fill:#ff9900;fill-opacity:1;fill-rule:nonzero;stroke:none;stroke-width:0.569634;marker:none;enable-background:accumulate" />
    </g>
    <g
       id="g3063"
       style="fill:#ff9900;stroke:none"
       transform="matrix(0.6,0,0,0.6,127.925,207.473)">
      <path
         inkscape:connector-curvature="0"
         d="m 382.607,403.795 c 0.411,0.463 0.823,0.926 1.254,1.364 0.533,0.574 1.051,1.166 1.593,1.729 0.586,0.622 1.188,1.224 1.792,1.822 0.761,0.755 1.509,1.526 2.255,2.299 0.804,0.87 1.672,1.656 2.539,2.442 0.976,0.838 1.998,1.599 3.052,2.306 1.198,0.809 2.419,1.578 3.644,2.333 1.275,0.75 2.565,1.463 3.869,2.145 1.385,0.696 2.784,1.352 4.189,1.996 1.443,0.66 2.899,1.28 4.332,1.967 1.427,0.63 2.856,1.254 4.296,1.845 1.473,0.579 2.952,1.14 4.431,1.699 1.488,0.552 2.971,1.123 4.457,1.684 1.433,0.563 2.888,1.053 4.322,1.615 1.376,0.51 2.754,1.014 4.146,1.466 1.444,0.5 2.883,1.02 4.34,1.471 1.548,0.512 3.104,0.995 4.662,1.466 1.552,0.506 3.11,0.991 4.67,1.465 1.556,0.467 3.106,0.961 4.659,1.439 1.576,0.527 3.162,1.011 4.738,1.54 1.569,0.494 3.133,1.007 4.704,1.493 1.489,0.481 2.986,0.933 4.472,1.429 1.437,0.469 2.883,0.908 4.309,1.419 1.355,0.461 2.702,0.953 4.063,1.392 1.338,0.475 2.686,0.908 4.031,1.356 1.376,0.406 2.712,0.957 4.052,1.495 1.331,0.581 2.656,1.18 3.97,1.81 1.311,0.635 2.626,1.258 3.938,1.891 1.349,0.613 2.66,1.327 3.98,2.015 1.331,0.711 2.635,1.482 3.948,2.234 1.29,0.739 2.557,1.53 3.838,2.288 1.234,0.768 2.466,1.539 3.65,2.404 1.118,0.781 2.18,1.662 3.226,2.561 0.994,0.874 1.961,1.788 2.938,2.688 0.984,0.911 1.937,1.863 2.881,2.825 0.922,0.999 1.862,1.976 2.78,2.978 0.867,0.93 1.74,1.855 2.596,2.8 0.865,0.941 1.655,1.961 2.45,2.977 0.794,1.031 1.529,2.118 2.219,3.241 0.631,1.067 1.179,2.191 1.807,3.26 0.678,1.128 1.273,2.313 1.829,3.522 0.559,1.156 1.065,2.343 1.533,3.55 0.459,1.133 0.879,2.286 1.312,3.432 0.426,1.124 0.844,2.252 1.261,3.381 0.423,1.119 0.868,2.227 1.271,3.355 0.339,0.957 0.622,1.936 0.919,2.91 0,0 -7.801,3.861 -7.801,3.861 v 0 c -0.278,-0.891 -0.529,-1.793 -0.826,-2.677 -0.381,-1.097 -0.814,-2.168 -1.227,-3.249 -0.421,-1.119 -0.823,-2.246 -1.252,-3.361 -0.428,-1.136 -0.843,-2.278 -1.298,-3.4 -0.414,-1.092 -0.868,-2.162 -1.376,-3.203 -0.467,-1.029 -0.976,-2.033 -1.555,-2.988 -0.597,-1.03 -1.135,-2.101 -1.733,-3.13 -0.585,-0.939 -1.213,-1.843 -1.887,-2.703 -0.705,-0.905 -1.431,-1.785 -2.201,-2.618 -0.858,-0.927 -1.716,-1.853 -2.578,-2.775 -0.887,-0.949 -1.77,-1.901 -2.67,-2.833 -0.892,-0.896 -1.795,-1.777 -2.724,-2.624 -0.921,-0.848 -1.833,-1.71 -2.788,-2.508 -0.947,-0.782 -1.911,-1.536 -2.918,-2.217 -1.112,-0.745 -2.244,-1.451 -3.385,-2.135 -1.252,-0.757 -2.509,-1.504 -3.776,-2.228 -1.255,-0.725 -2.518,-1.43 -3.799,-2.094 -1.27,-0.664 -2.554,-1.292 -3.847,-1.897 -1.305,-0.616 -2.596,-1.27 -3.909,-1.865 -1.238,-0.563 -2.475,-1.136 -3.74,-1.618 -1.27,-0.493 -2.561,-0.909 -3.85,-1.335 -1.342,-0.451 -2.687,-0.893 -4.027,-1.354 -1.363,-0.47 -2.722,-0.952 -4.087,-1.41 -1.417,-0.454 -2.831,-0.923 -4.249,-1.373 -1.483,-0.462 -2.959,-0.955 -4.445,-1.409 -1.584,-0.508 -3.171,-1.003 -4.75,-1.528 -1.557,-0.501 -3.114,-1 -4.673,-1.491 -1.552,-0.484 -3.105,-0.961 -4.658,-1.438 -1.554,-0.49 -3.111,-0.969 -4.664,-1.461 -1.577,-0.495 -3.155,-0.986 -4.725,-1.513 -1.465,-0.499 -2.928,-1.008 -4.393,-1.511 -1.426,-0.507 -2.851,-1.013 -4.265,-1.56 -1.45,-0.523 -2.889,-1.08 -4.333,-1.622 -1.486,-0.567 -2.975,-1.121 -4.461,-1.688 -1.524,-0.585 -3.052,-1.16 -4.558,-1.802 -1.486,-0.638 -2.972,-1.274 -4.439,-1.967 -1.444,-0.653 -2.892,-1.293 -4.33,-1.965 -1.476,-0.697 -2.95,-1.401 -4.394,-2.18 -1.388,-0.759 -2.769,-1.536 -4.117,-2.383 -1.288,-0.817 -2.579,-1.63 -3.828,-2.522 -1.208,-0.875 -2.391,-1.797 -3.505,-2.822 -0.94,-0.867 -1.858,-1.765 -2.744,-2.703 -0.726,-0.748 -1.456,-1.49 -2.195,-2.221 -0.646,-0.649 -1.286,-1.306 -1.912,-1.98 -0.522,-0.573 -1.048,-1.14 -1.575,-1.706 -0.5,-0.547 -1.004,-1.09 -1.474,-1.672 0,0 6.724,-5.921 6.724,-5.921 z"
         id="path3102"
         style="color:#000000;display:inline;overflow:visible;visibility:visible;fill:#ff9900;fill-opacity:1;fill-rule:nonzero;stroke:none;stroke-width:0.569634;marker:none;enable-background:accumulate" />
      <path
         inkscape:connector-curvature="0"
         d="m 511.349,489.837 c 0.662,0.211 1.329,0.401 1.98,0.648 0.896,0.299 1.752,0.708 2.604,1.11 0.984,0.443 1.905,1.001 2.847,1.523 0.934,0.553 1.862,1.115 2.796,1.667 0.973,0.633 1.933,1.288 2.874,1.968 0.922,0.643 1.824,1.316 2.729,1.983 0.894,0.656 1.808,1.285 2.7,1.943 0.91,0.653 1.813,1.316 2.694,2.009 0.858,0.656 1.711,1.319 2.541,2.009 0.863,0.725 1.68,1.499 2.46,2.312 0.746,0.804 1.489,1.61 2.22,2.427 0.613,0.671 1.231,1.337 1.885,1.97 0.384,0.423 0.839,0.766 1.228,1.186 0.409,0.411 0.317,0.301 0.598,0.669 -5.962,5.072 -5.183,7.053 -7.814,4.164 -0.337,-0.328 -0.675,-0.656 -0.998,-0.999 -0.48,-0.516 -0.975,-1.016 -1.445,-1.541 -0.599,-0.633 -1.166,-1.298 -1.705,-1.982 -0.631,-0.731 -1.169,-1.531 -1.67,-2.354 -0.532,-0.902 -0.943,-1.867 -1.3,-2.849 -0.342,-0.974 -0.55,-1.984 -0.729,-2.998 -0.183,-1.035 -0.253,-2.084 -0.286,-3.133 -0.01,-1.052 0.06,-2.1 0.148,-3.148 0.07,-1.099 0.221,-2.191 0.424,-3.274 0.196,-1.071 0.475,-2.124 0.739,-3.18 0.298,-1.029 0.585,-2.062 0.935,-3.075 0.338,-1.004 0.722,-1.993 1.161,-2.957 0.437,-0.995 0.92,-1.969 1.437,-2.925 0.1,-0.171 0.198,-0.342 0.297,-0.513 0,0 8.413,1.284 8.413,1.284 v 0 c -0.09,0.104 -0.179,0.208 -0.269,0.312 -0.541,0.707 -0.976,1.472 -1.377,2.266 -0.387,0.83 -0.809,1.643 -1.151,2.494 -0.335,0.917 -0.695,1.825 -0.942,2.772 -0.309,0.902 -0.505,1.834 -0.768,2.75 -0.19,0.89 -0.401,1.777 -0.498,2.685 -0.07,0.926 -0.184,1.849 -0.216,2.778 -0.05,0.765 -0.01,1.529 0.07,2.291 0.112,0.744 0.215,1.492 0.436,2.212 0.19,0.644 0.465,1.262 0.79,1.849 0.389,0.639 0.829,1.241 1.316,1.809 0.481,0.589 0.985,1.158 1.507,1.712 0.445,0.474 0.894,0.945 1.346,1.414 0.355,0.346 0.7,0.703 1.045,1.059 2.353,2.347 3.51,-1.63 -5.879,5.937 0.369,0.486 -0.01,0 -0.241,-0.192 -0.444,-0.34 -0.804,-0.78 -1.209,-1.163 -0.698,-0.713 -1.384,-1.437 -2.05,-2.181 -0.691,-0.759 -1.377,-1.524 -2.091,-2.261 -0.664,-0.659 -1.356,-1.287 -2.085,-1.874 -0.81,-0.642 -1.62,-1.284 -2.445,-1.907 -0.859,-0.643 -1.72,-1.283 -2.594,-1.904 -0.913,-0.648 -1.817,-1.309 -2.723,-1.966 -0.882,-0.645 -1.762,-1.293 -2.661,-1.915 -0.853,-0.585 -1.699,-1.183 -2.596,-1.7 -0.884,-0.533 -1.777,-1.055 -2.677,-1.561 -0.815,-0.455 -1.65,-0.872 -2.509,-1.239 -0.727,-0.307 -1.458,-0.597 -2.216,-0.821 -0.636,-0.183 -1.265,-0.385 -1.895,-0.587 0,0 4.823,-7.013 4.823,-7.013 z"
         id="path3114"
         style="color:#000000;display:inline;overflow:visible;visibility:visible;fill:#ff9900;fill-opacity:1;fill-rule:nonzero;stroke:none;stroke-width:0.569634;marker:none;enable-background:accumulate" />
    </g>
    <text
       xml:space="preserve"
       style="color:#000000;font-style:normal;font-variant:normal;font-weight:normal;font-stretch:normal;font-size:32px;line-height:0%;font-family:'Trebuchet MS';-inkscape-font-specification:'Trebuchet MS';text-indent:0;text-align:start;text-decoration:none;text-decoration-line:none;letter-spacing:0px;word-spacing:0px;text-transform:none;writing-mode:lr-tb;direction:ltr;text-anchor:start;display:inline;overflow:visible;visibility:visible;fill:#ffffff;fill-opacity:1;fill-rule:nonzero;stroke:#000000;stroke-width:0.6px;marker:none;enable-background:accumulate"
       x="290.187"
       y="484.554"
       id="text3037"><tspan
         sodipodi:role="line"
         id="tspan3039"
         x="290.187"
         y="484.554"
         style="font-style:normal;font-variant:normal;font-weight:normal;font-stretch:normal;font-size:32px;line-height:1.25;font-family:'Trebuchet MS';-inkscape-font-specification:'Trebuchet MS';fill:#ffffff;stroke:#000000;stroke-width:0.6px">1</tspan></text>
    <text
       xml:space="preserve"
       style="color:#000000;font-style:normal;font-variant:normal;font-weight:normal;font-stretch:normal;font-size:32px;line-height:0%;font-family:'Trebuchet MS';-inkscape-font-specification:'Trebuchet MS';text-indent:0;text-align:start;text-decoration:none;text-decoration-line:none;letter-spacing:0px;word-spacing:0px;text-transform:none;writing-mode:lr-tb;direction:ltr;text-anchor:start;display:inline;overflow:visible;visibility:visible;fill:#ffffff;fill-opacity:1;fill-rule:nonzero;stroke:#000000;stroke-width:0.6px;marker:none;enable-background:accumulate"
       x="326.068"
       y="484.623"
       id="text3041"><tspan
         sodipodi:role="line"
         id="tspan3043"
         x="326.068"
         y="484.623"
         style="font-style:normal;font-variant:normal;font-weight:normal;font-stretch:normal;font-size:32px;line-height:1.25;font-family:'Trebuchet MS';-inkscape-font-specification:'Trebuchet MS';fill:#ffffff;stroke:#000000;stroke-width:0.6px">12</tspan></text>
    <text
       xml:space="preserve"
       style="color:#000000;font-style:normal;font-variant:normal;font-weight:normal;font-stretch:normal;font-size:32px;line-height:0%;font-family:'Trebuchet MS';-inkscape-font-specification:'Trebuchet MS';text-indent:0;text-align:start;text-decoration:none;text-decoration-line:none;letter-spacing:0px;word-spacing:0px;text-transform:none;writing-mode:lr-tb;direction:ltr;text-anchor:start;display:inline;overflow:visible;visibility:visible;fill:#ffffff;fill-opacity:1;fill-rule:nonzero;stroke:#000000;stroke-width:0.6px;marker:none;enable-background:accumulate"
       x="234.477"
       y="481.37"
       id="text3045"><tspan
         sodipodi:role="line"
         id="tspan3047"
         x="234.477"
         y="481.37"
         style="font-style:normal;font-variant:normal;font-weight:normal;font-stretch:normal;font-size:32px;line-height:1.25;font-family:'Trebuchet MS';-inkscape-font-specification:'Trebuchet MS';fill:#ffffff;stroke:#000000;stroke-width:0.6px">13</tspan></text>
    <text
       xml:space="preserve"
       style="color:#000000;font-style:normal;font-variant:normal;font-weight:normal;font-stretch:normal;font-size:32px;line-height:0%;font-family:'Trebuchet MS';-inkscape-font-specification:'Trebuchet MS';text-indent:0;text-align:start;text-decoration:none;text-decoration-line:none;letter-spacing:0px;word-spacing:0px;text-transform:none;writing-mode:lr-tb;direction:ltr;text-anchor:start;display:inline;overflow:visible;visibility:visible;fill:#ffffff;fill-opacity:1;fill-rule:nonzero;stroke:#000000;stroke-width:0.6px;marker:none;enable-background:accumulate"
       x="373.716"
       y="482.2"
       id="text3049"><tspan
         sodipodi:role="line"
         id="tspan3051"
         x="373.716"
         y="482.2"
         style="font-style:normal;font-variant:normal;font-weight:normal;font-stretch:normal;font-size:32px;line-height:1.25;font-family:'Trebuchet MS';-inkscape-font-specification:'Trebuchet MS';fill:#ffffff;stroke:#000000;stroke-width:0.6px">14</tspan></text>
    <text
       xml:space="preserve"
       style="color:#000000;font-style:normal;font-variant:normal;font-weight:normal;font-stretch:normal;font-size:7.2px;line-height:0%;font-family:Gabriola;-inkscape-font-specification:Gabriola;text-indent:0;text-align:start;text-decoration:none;text-decoration-line:none;letter-spacing:0px;word-spacing:0px;text-transform:none;writing-mode:lr-tb;direction:ltr;text-anchor:start;display:inline;overflow:visible;visibility:visible;fill:#0084c8;fill-opacity:1;fill-rule:nonzero;stroke:none;stroke-width:0.6px;marker:none;enable-background:accumulate"
       x="383.469"
       y="573.317"
       id="text3053-6"><tspan
         sodipodi:role="line"
         id="tspan3055-0"
         x="383.469"
         y="573.317"
         style="font-size:28.8px;line-height:1.25;fill:#0084c8;stroke-width:0.6px">192  +</tspan><tspan
         sodipodi:role="line"
         x="383.469"
         y="587.351"
         id="tspan3907"
         style="font-size:28.8px;line-height:1.25;fill:#0084c8;stroke-width:0.6px" /></text>
    <text
       xml:space="preserve"
       style="color:#000000;font-style:normal;font-variant:normal;font-weight:normal;font-stretch:normal;font-size:7.2px;line-height:0%;font-family:Gabriola;-inkscape-font-specification:Gabriola;text-indent:0;text-align:start;text-decoration:none;text-decoration-line:none;letter-spacing:0px;word-spacing:0px;text-transform:none;writing-mode:lr-tb;direction:ltr;text-anchor:start;display:inline;overflow:visible;visibility:visible;fill:#0084c8;fill-opacity:1;fill-rule:nonzero;stroke:none;stroke-width:0.6px;marker:none;enable-background:accumulate"
       x="181.063"
       y="573.317"
       id="text7042"><tspan
         sodipodi:role="line"
         id="tspan7038"
         x="181.063"
         y="573.317"
         style="font-size:28.8px;line-height:1.25;fill:#0084c8;stroke-width:0.6px">53,248  + </tspan><tspan
         sodipodi:role="line"
         x="181.063"
         y="587.351"
         id="tspan7040"
         style="font-size:28.8px;line-height:1.25;fill:#0084c8;stroke-width:0.6px" /></text>
    <text
       xml:space="preserve"
       style="color:#000000;font-style:normal;font-variant:normal;font-weight:normal;font-stretch:normal;font-size:7.2px;line-height:0%;font-family:Gabriola;-inkscape-font-specification:Gabriola;text-indent:0;text-align:start;text-decoration:none;text-decoration-line:none;letter-spacing:0px;word-spacing:0px;text-transform:none;writing-mode:lr-tb;direction:ltr;text-anchor:start;display:inline;overflow:visible;visibility:visible;fill:#0084c8;fill-opacity:1;fill-rule:nonzero;stroke:none;stroke-width:0.6px;marker:none;enable-background:accumulate"
       x="182.169"
       y="605.238"
       id="text7048"><tspan
         sodipodi:role="line"
         x="182.169"
         y="605.238"
         id="tspan7046"
         style="font-size:28.8px;line-height:1.25;fill:#0084c8;stroke-width:0.6px">53,710 </tspan></text>
    <text
       xml:space="preserve"
       style="color:#000000;font-style:normal;font-variant:normal;font-weight:normal;font-stretch:normal;font-size:7.2px;line-height:0%;font-family:Gabriola;-inkscape-font-specification:Gabriola;text-indent:0;text-align:start;text-decoration:none;text-decoration-line:none;letter-spacing:0px;word-spacing:0px;text-transform:none;writing-mode:lr-tb;direction:ltr;text-anchor:start;display:inline;overflow:visible;visibility:visible;fill:#0084c8;fill-opacity:1;fill-rule:nonzero;stroke:none;stroke-width:0.6px;marker:none;enable-background:accumulate"
       x="292.771"
       y="573.317"
       id="text7054"><tspan
         sodipodi:role="line"
         x="292.771"
         y="573.317"
         id="tspan7052"
         style="font-size:28.8px;line-height:1.25;fill:#0084c8;stroke-width:0.6px">256  + </tspan></text>
    <text
       xml:space="preserve"
       style="color:#000000;font-style:normal;font-variant:normal;font-weight:normal;font-stretch:normal;font-size:7.2px;line-height:0%;font-family:Gabriola;-inkscape-font-specification:Gabriola;text-indent:0;text-align:start;text-decoration:none;text-decoration-line:none;letter-spacing:0px;word-spacing:0px;text-transform:none;writing-mode:lr-tb;direction:ltr;text-anchor:start;display:inline;overflow:visible;visibility:visible;fill:#0084c8;fill-opacity:1;fill-rule:nonzero;stroke:none;stroke-width:0.6px;marker:none;enable-background:accumulate"
       x="445.573"
       y="573.317"
       id="text7060"><tspan
         sodipodi:role="line"
         x="445.573"
         y="573.317"
         id="tspan7058"
         style="font-size:28.8px;line-height:1.25;fill:#0084c8;stroke-width:0.6px">14</tspan></text>
    <text
       xml:space="preserve"
       style="color:#000000;font-style:normal;font-variant:normal;font-weight:normal;font-stretch:normal;font-size:7.2px;line-height:0%;font-family:Gabriola;-inkscape-font-specification:Gabriola;text-indent:0;text-align:start;text-decoration:none;text-decoration-line:none;letter-spacing:0px;word-spacing:0px;text-transform:none;writing-mode:lr-tb;direction:ltr;text-anchor:start;display:inline;overflow:visible;visibility:visible;fill:#0084c8;fill-opacity:1;fill-rule:nonzero;stroke:none;stroke-width:0.6px;marker:none;enable-background:accumulate"
       x="172.583"
       y="543.53"
       id="text25930"><tspan
         sodipodi:role="line"
         id="tspan25928"
         x="172.583"
         y="543.53"
         style="font-size:28.8px;line-height:1.25;fill:#0084c8;stroke-width:0.6px">13 × 16    +</tspan></text>
    <text
       xml:space="preserve"
       style="color:#000000;font-style:normal;font-variant:normal;font-weight:normal;font-stretch:normal;font-size:7.2px;line-height:0%;font-family:Gabriola;-inkscape-font-specification:Gabriola;text-indent:0;text-align:start;text-decoration:none;text-decoration-line:none;letter-spacing:0px;word-spacing:0px;text-transform:none;writing-mode:lr-tb;direction:ltr;text-anchor:start;display:inline;overflow:visible;visibility:visible;fill:#0084c8;fill-opacity:1;fill-rule:nonzero;stroke:none;stroke-width:0.6px;marker:none;enable-background:accumulate"
       x="355.653"
       y="543.53"
       id="text25934"><tspan
         sodipodi:role="line"
         id="tspan25932"
         x="355.653"
         y="543.53"
         style="font-size:28.8px;line-height:1.25;fill:#0084c8;stroke-width:0.6px">12 × 16  +</tspan></text>
    <text
       xml:space="preserve"
       style="color:#000000;font-style:normal;font-variant:normal;font-weight:normal;font-stretch:normal;font-size:7.2px;line-height:0%;font-family:Gabriola;-inkscape-font-specification:Gabriola;text-indent:0;text-align:start;text-decoration:none;text-decoration-line:none;letter-spacing:0px;word-spacing:0px;text-transform:none;writing-mode:lr-tb;direction:ltr;text-anchor:start;display:inline;overflow:visible;visibility:visible;fill:#0084c8;fill-opacity:1;fill-rule:nonzero;stroke:none;stroke-width:0.6px;marker:none;enable-background:accumulate"
       x="445.573"
       y="543.53"
       id="text35286"><tspan
         sodipodi:role="line"
         id="tspan35284"
         x="445.573"
         y="543.53"
         style="font-size:28.8px;line-height:1.25;fill:#0084c8;stroke-width:0.6px">14</tspan></text>
    <text
       xml:space="preserve"
       style="color:#000000;font-style:normal;font-variant:normal;font-weight:normal;font-stretch:normal;font-size:7.2px;line-height:0%;font-family:Gabriola;-inkscape-font-specification:Gabriola;text-indent:0;text-align:start;text-decoration:none;text-decoration-line:none;letter-spacing:0px;word-spacing:0px;text-transform:none;writing-mode:lr-tb;direction:ltr;text-anchor:start;display:inline;overflow:visible;visibility:visible;fill:#0084c8;fill-opacity:1;fill-rule:nonzero;stroke:none;stroke-width:0.6px;marker:none;enable-background:accumulate"
       x="229.888"
       y="531.83"
       id="text3078"><tspan
         sodipodi:role="line"
         id="tspan3080"
         x="229.888"
         y="531.83"
         style="font-size:21.6px;line-height:1.25;fill:#0084c8;stroke-width:0.6px">3</tspan></text>
    <text
       xml:space="preserve"
       style="color:#000000;font-style:normal;font-variant:normal;font-weight:normal;font-stretch:normal;font-size:7.2px;line-height:0%;font-family:Gabriola;-inkscape-font-specification:Gabriola;text-indent:0;text-align:start;text-decoration:none;text-decoration-line:none;letter-spacing:0px;word-spacing:0px;text-transform:none;writing-mode:lr-tb;direction:ltr;text-anchor:start;display:inline;overflow:visible;visibility:visible;fill:#0084c8;fill-opacity:1;fill-rule:nonzero;stroke:none;stroke-width:0.6px;marker:none;enable-background:accumulate"
       x="318.653"
       y="531.53"
       id="text3037-1"><tspan
         sodipodi:role="line"
         id="tspan3039-6"
         x="318.653"
         y="531.53"
         style="font-size:26.1937px;line-height:1.25;fill:#0084c8;stroke-width:0.6px">2</tspan></text>
    <text
       xml:space="preserve"
       style="color:#000000;font-style:normal;font-variant:normal;font-weight:normal;font-stretch:normal;font-size:7.2px;line-height:0%;font-family:Gabriola;-inkscape-font-specification:Gabriola;text-indent:0;text-align:start;text-decoration:none;text-decoration-line:none;letter-spacing:0px;word-spacing:0px;text-transform:none;writing-mode:lr-tb;direction:ltr;text-anchor:start;display:inline;overflow:visible;visibility:visible;fill:#0084c8;fill-opacity:1;fill-rule:nonzero;stroke:none;stroke-width:0.6px;marker:none;enable-background:accumulate"
       x="154.294"
       y="573.317"
       id="text37498"><tspan
         sodipodi:role="line"
         x="154.294"
         y="573.317"
         id="tspan37496"
         style="font-size:28.8px;line-height:1.25;fill:#0084c8;stroke-width:0.6px">=</tspan></text>
    <text
       xml:space="preserve"
       style="color:#000000;font-style:normal;font-variant:normal;font-weight:normal;font-stretch:normal;font-size:7.2px;line-height:0%;font-family:Gabriola;-inkscape-font-specification:Gabriola;text-indent:0;text-align:start;text-decoration:none;text-decoration-line:none;letter-spacing:0px;word-spacing:0px;text-transform:none;writing-mode:lr-tb;direction:ltr;text-anchor:start;display:inline;overflow:visible;visibility:visible;fill:#0084c8;fill-opacity:1;fill-rule:nonzero;stroke:none;stroke-width:0.6px;marker:none;enable-background:accumulate"
       x="154.294"
       y="604.791"
       id="text40462"><tspan
         sodipodi:role="line"
         x="154.294"
         y="604.791"
         id="tspan40460"
         style="font-size:28.8px;line-height:1.25;fill:#0084c8;stroke-width:0.6px">=</tspan></text>
  </g>
</svg>
