<?xml version="1.0" encoding="UTF-8" standalone="no"?>
<!-- Copyright 2017 mathsisfun.com -->

<svg
   width="433.538"
   height="179.35"
   version="1.1"
   id="svg58"
   sodipodi:docname="hexadecimal.svg"
   inkscape:version="1.1 (c68e22c387, 2021-05-23)"
   xmlns:inkscape="http://www.inkscape.org/namespaces/inkscape"
   xmlns:sodipodi="http://sodipodi.sourceforge.net/DTD/sodipodi-0.dtd"
   xmlns="http://www.w3.org/2000/svg"
   xmlns:svg="http://www.w3.org/2000/svg">
  <sodipodi:namedview
     id="namedview60"
     pagecolor="#ffffff"
     bordercolor="#666666"
     borderopacity="1.0"
     inkscape:pageshadow="2"
     inkscape:pageopacity="0.0"
     inkscape:pagecheckerboard="0"
     showgrid="false"
     inkscape:current-layer="svg58" />
  <defs
     id="defs8">
    <marker
       id="id02"
       style="overflow:visible"
       orient="auto">
      <path
         transform="matrix(0.4,0,0,0.4,4,0)"
         style="stroke:#000000;stroke-width:1pt"
         d="M 0,0 5,-5 -12.5,0 5,5 Z"
         id="path2" />
    </marker>
    <marker
       id="id01"
       style="overflow:visible"
       orient="auto">
      <path
         transform="matrix(-0.4,0,0,-0.4,-4,0)"
         style="stroke:#000000;stroke-width:1pt"
         d="M 0,0 5,-5 -12.5,0 5,5 Z"
         id="path5" />
    </marker>
    <marker
       style="overflow:visible"
       orient="auto"
       id="id026339"
       inkscape:stockid="id026339">
      <path
         transform="matrix(0.4,0,0,0.4,4,0)"
         style="fill:#8f5902;fill-opacity:1;stroke:#8f5902;stroke-width:1pt;stroke-opacity:1"
         d="M 0,0 5,-5 -12.5,0 5,5 Z"
         id="path17780" />
    </marker>
    <marker
       style="overflow:visible"
       orient="auto"
       id="id02663"
       inkscape:stockid="id02663">
      <path
         transform="matrix(0.4,0,0,0.4,4,0)"
         style="fill:#8f5902;fill-opacity:1;stroke:#8f5902;stroke-width:1pt;stroke-opacity:1"
         d="M 0,0 5,-5 -12.5,0 5,5 Z"
         id="path17783" />
    </marker>
    <marker
       style="overflow:visible"
       orient="auto"
       id="id027351"
       inkscape:stockid="id027351">
      <path
         transform="matrix(0.4,0,0,0.4,4,0)"
         style="fill:#8f5902;fill-opacity:1;stroke:#8f5902;stroke-width:1pt;stroke-opacity:1"
         d="M 0,0 5,-5 -12.5,0 5,5 Z"
         id="path17786" />
    </marker>
    <marker
       style="overflow:visible"
       orient="auto"
       id="id01947"
       inkscape:stockid="id01947">
      <path
         transform="matrix(-0.4,0,0,-0.4,-4,0)"
         style="fill:#8f5902;fill-opacity:1;stroke:#8f5902;stroke-width:1pt;stroke-opacity:1"
         d="M 0,0 5,-5 -12.5,0 5,5 Z"
         id="path17789" />
    </marker>
    <marker
       style="overflow:visible"
       orient="auto"
       id="id023865"
       inkscape:stockid="id023865">
      <path
         transform="matrix(0.4,0,0,0.4,4,0)"
         style="fill:#8f5902;fill-opacity:1;stroke:#8f5902;stroke-width:1pt;stroke-opacity:1"
         d="M 0,0 5,-5 -12.5,0 5,5 Z"
         id="path17792" />
    </marker>
    <marker
       style="overflow:visible"
       orient="auto"
       id="id025775"
       inkscape:stockid="id025775">
      <path
         transform="matrix(0.4,0,0,0.4,4,0)"
         style="fill:#8f5902;fill-opacity:1;stroke:#8f5902;stroke-width:1pt;stroke-opacity:1"
         d="M 0,0 5,-5 -12.5,0 5,5 Z"
         id="path17795" />
    </marker>
    <marker
       style="overflow:visible"
       orient="auto"
       inkscape:stockid="id019472038"
       id="id019472038">
      <path
         transform="matrix(-0.4,0,0,-0.4,-4,0)"
         style="fill:#73d216;fill-opacity:1;stroke:#73d216;stroke-width:1pt;stroke-opacity:1"
         d="M 0,0 5,-5 -12.5,0 5,5 Z"
         id="path19854" />
    </marker>
  </defs>
  <text
     x="132.764"
     y="110.787"
     style="font-weight:bold;font-size:41.4px;font-family:'Courier New';fill:#3465a4"
     id="text10">2E6.A3</text>
  <g
     transform="matrix(0.35229,-0.011069,-0.00527,-0.73985,89.4925,448.237)"
     id="g18">
    <path
       style="fill:#ee2828;fill-opacity:0.84"
       d="m 562.7,370.4 c -39,-8.8 -79.2,-6.4 -118.9,-7 -58.5,0.7 -116.7,7.6 -174.9,12.8 -40.1,2 -80.4,3.8 -120.5,0.3 -8.6,0.5 -25.2,-7.4 -28.3,-5.7 5.6,6.7 16.5,6.3 24.6,8.7 36.1,4.5 72.6,2.5 108.8,1.5 49.1,-2.5 97.8,-9.9 146.9,-12 42.8,-2.5 85.7,-2.4 128.5,-0.2 12.7,0.7 25.3,3.4 37.8,5.4 -1.3,-1.3 -2.6,-2.7 -3.8,-3.9 z"
       id="path12" />
    <path
       style="fill:#ee2828;fill-opacity:0.84"
       d="m 526.8,355.8 c 4.9,-0.2 17.2,6.4 25,7.6 6.6,3.4 19.9,4.4 23,6.6 -6.8,5.8 -16.8,-1.5 -24.3,-2.7 -9.9,-3.2 -20.5,-5.3 -29.4,-10.7 -1,-1.8 4.7,-0.5 5.8,-0.9 z"
       id="path14" />
    <path
       style="fill:#ee2828;fill-opacity:0.84"
       d="m 523.4,377.6 c 9,-6.7 23.1,-4.9 34.3,-6.7 4.7,-0.3 23.2,-1.7 11.9,3.5 -9.1,-1.3 -30,1.6 -31.4,1.6 -5.2,1.3 -9.6,1.9 -14.8,1.6 z"
       id="path16" />
  </g>
  <text
     x="194.972"
     y="163.588"
     style="font-style:normal;font-variant:normal;font-weight:normal;font-stretch:normal;font-size:14.8px;font-family:'Trebuchet MS';-inkscape-font-specification:'Trebuchet MS';opacity:0.85;fill:#ef2929"
     id="text20">16x Smaller</text>
  <g
     transform="matrix(-0.30656,0.011069,0.004586,0.73985,303.459,-138.463)"
     id="g28">
    <path
       style="fill:#204a87;fill-opacity:0.85"
       d="m 562.7,370.4 c -39,-8.8 -79.2,-6.4 -118.9,-7 -59.2,0.7 -118.1,7.8 -177.1,12.9 -39.4,1.9 -79,3.7 -118.4,0.2 -8.3,0.7 -26,-7.9 -28.2,-5.5 6.9,7.4 19.7,6.8 29.2,9.3 41.1,3.7 82.4,1.8 123.5,-0.3 68.2,-6.3 136.6,-14.2 205.2,-12.6 29.5,0 59.3,0.6 88.3,6.9 -0.7,-1.1 -2.6,-2.7 -3.7,-3.9 z"
       id="path22" />
    <path
       style="fill:#204a87;fill-opacity:0.85"
       d="m 526.8,355.8 c 7.7,1.2 23.5,7.8 34,10.6 6.7,1 21.2,3.8 8.3,5.7 -12.9,-2 -25.2,-7.1 -37.7,-10.7 -4.6,-1.6 -17.8,-6.4 -4.7,-5.6 z"
       id="path24" />
    <path
       style="fill:#204a87;fill-opacity:0.85"
       d="m 523.4,377.6 c 9.8,-7 24.9,-5 36.8,-6.9 7.3,-1.9 19.8,1.4 7.5,3.6 -10.3,-0.8 -29.1,1.7 -32,2.1 -4.3,1.5 -7.9,1.2 -12.3,1.2 z"
       id="path26" />
  </g>
  <text
     x="152.252"
     y="131.537"
     style="font-style:normal;font-variant:normal;font-weight:normal;font-stretch:normal;font-size:14.8px;font-family:'Trebuchet MS';-inkscape-font-specification:'Trebuchet MS';opacity:0.85;fill:#204a87"
     id="text30">16x Bigger</text>
  <path
     style="fill:none;fill-opacity:1;stroke:#73d216;stroke-width:1.33;marker-end:url(#id019472038)"
     d="m 221.152,36.5372 v 52.3"
     id="path32" />
  <text
     x="201.252"
     y="29.8372"
     style="font-style:normal;font-variant:normal;font-weight:normal;font-stretch:normal;font-size:16.3px;font-family:'Trebuchet MS';-inkscape-font-specification:'Trebuchet MS';fill:#73d216"
     id="text34">Point</text>
  <text
     x="5.16445"
     y="49.7872"
     style="font-style:normal;font-variant:normal;font-weight:normal;font-stretch:normal;font-size:14.7px;font-family:'Trebuchet MS';-inkscape-font-specification:'Trebuchet MS';fill:#8f5902"
     id="text38">256 (16x16)</text>
  <text
     x="-1.43555"
     y="30.1872"
     style="font-style:normal;font-variant:normal;font-weight:normal;font-stretch:normal;font-size:14.7px;font-family:'Trebuchet MS';-inkscape-font-specification:'Trebuchet MS';fill:#8f5902"
     id="text40">16 (sixteens)</text>
  <text
     x="34.9645"
     y="10.5872"
     style="font-style:normal;font-variant:normal;font-weight:normal;font-stretch:normal;font-size:14.7px;font-family:'Trebuchet MS';-inkscape-font-specification:'Trebuchet MS';fill:#8f5902"
     id="text42">1 (ones)</text>
  <path
     style="fill:none;fill-opacity:1;stroke:#8f5902;stroke-width:1.33;marker-start:url(#id027351)"
     d="m 194.664,77.8872 -66.4,-66.5 H 93.1645"
     id="path44" />
  <path
     style="fill:none;fill-opacity:1;stroke:#8f5902;stroke-width:1.33;marker-start:url(#id02663)"
     d="m 165.164,77.1872 -47.7,-46.3 H 95.6645"
     id="path46" />
  <path
     style="fill:none;fill-opacity:1;stroke:#8f5902;stroke-width:1.33;marker-start:url(#id026339)"
     d="m 137.864,78.0872 -26.2,-26.7 H 97.8645"
     id="path48" />
  <path
     style="fill:none;fill-opacity:1;stroke:#8f5902;stroke-width:1.33;marker-start:url(#id023865)"
     d="m 245.564,78.1872 47.7,-46.3 h 21.8"
     id="path50" />
  <path
     style="fill:none;fill-opacity:1;stroke:#8f5902;stroke-width:1.33;marker-start:url(#id025775)"
     d="m 272.864,78.9872 26.2,-26.7 h 13.8"
     id="path52" />
  <text
     x="320.464"
     y="33.1872"
     style="font-style:normal;font-variant:normal;font-weight:normal;font-stretch:normal;font-size:14.8px;font-family:'Trebuchet MS';-inkscape-font-specification:'Trebuchet MS';fill:#8f5902"
     id="text54">1/16 (sixteenths)</text>
  <text
     x="316.964"
     y="54.6872"
     style="font-style:normal;font-variant:normal;font-weight:normal;font-stretch:normal;font-size:14.8px;font-family:'Trebuchet MS';-inkscape-font-specification:'Trebuchet MS';fill:#8f5902"
     id="text56">1/256 (1/16x16)</text>
</svg>
