<?xml version="1.0" encoding="UTF-8" standalone="no"?>
<!-- Copyright 2017 mathsisfun.com -->
<svg xmlns="http://www.w3.org/2000/svg" xmlns:xlink="http://www.w3.org/1999/xlink" width="328.2" height="96.7" version="1.1">
<defs/>
<g transform="translate(1377.8,-850.715)">
<use transform="translate(0,42.1697)" xlink:href="#id01"/>
<rect id="id01" x="-1193.7" y="867.1" ry="19" width="144.1" height="38.1" style="fill:#fcefda; stroke-width:0.89; stroke-linecap:round;"/>
<use transform="translate(0,42.1697)" xlink:href="#id02"/>
<rect id="id02" x="-1377.8" y="867.1" ry="19" width="141.9" height="38.1" style="fill:#ddf3ff; stroke-width:0.89; stroke-linecap:round;"/>
<path id="id07" style="fill:#d76cff; stroke-width:0.89; stroke-linecap:round;" d="m -1286,881.1 c -0.4,0.7 -1.3,1.4 -1.5,2 0.9,0.5 1.6,1.3 2.4,2 -1.2,0 -2.4,0 -3.5,-0.5 -1.3,-0.7 -2.8,-1.5 -4.2,-1.7 -1.7,-0.3 -3.7,-0.5 -5.3,0 -1.4,0.6 -2.4,1.2 -3.6,2.2 0.5,-0.3 0.5,-0.3 0,0 -1,0.2 -0.4,1.9 0.4,1.9 1.1,-0.6 2.4,-1.3 3.4,-2 1.8,-0.9 4.4,-0.3 5.8,0.2 1.4,0.5 1.9,1.3 2.9,1.5 1.3,0.4 2.6,0.4 3.8,0.4 -1.1,1 -2.1,2 -3.3,2.8 0.7,0.4 1.3,0.8 2,1.2 0.7,-0.5 1.4,-1.1 2.1,-1.7 0.8,-0.9 1.8,-1.3 2.8,-1.8 0.6,-0.5 0.3,-0.1 0.9,-0.9 0.6,-0.8 1.4,-1.3 0.6,-1.5 -0.5,-0.1 -1.7,-0.6 -2.3,-1.2 -1.4,-0.7 -2.4,-2 -3.6,-2.9 z"/>
<g id="id05" transform="matrix(0.077884,0,0,0.077884,-1270.87,876.012)">
<path style="fill:#ffd0d0; stroke-width:0.89; stroke-linecap:round;" d="m -931.4,669.9 a 190,190 0 0 1 -187.9,191 190,190 0 0 1 -192,-186.8 190,190 0 0 1 185.8,-193.1 190,190 0 0 1 194.1,184.7"/>
<path style="fill:#a40000; stroke-width:0.89; stroke-linecap:round;" d="m -1234.4,659.8 c 65.7,0.3 131.4,0 197.1,0 13.5,0 27.1,0.2 40.6,-0.2 6,-1.3 19,-4.3 21.5,-1.4 -11.2,7.9 -22.3,15.9 -33.5,23.8 -12.3,0.6 -24.3,3.8 -36.7,2.6 -73.9,0 -147.7,-0.2 -221.6,0 -2.9,-0.3 5.2,-4.3 7.1,-6.3 8.5,-6.2 17,-12.4 25.6,-18.6 z"/>
</g>
<g id="id03" transform="matrix(0.077884,0,0,0.077884,-1272.87,870.782)">
<path style="fill:#b5e5ff; stroke-width:0.89; stroke-linecap:round;" d="m -905.7,195.6 a 190,190 0 0 1 -187.9,191 190,190 0 0 1 -192.1,-186.8 190,190 0 0 1 185.8,-193.1 190,190 0 0 1 194.1,184.7"/>
<g transform="translate(-162.143,-531.699)">
<path style="fill:#3465a4; stroke-width:0.89; stroke-linecap:round;" d="m -1046.5,717.1 c 65.7,0.3 131.4,0 197.1,0 13.5,0 27.1,0.2 40.6,-0.2 6,-1.3 19,-4.3 21.5,-1.4 -11.2,7.9 -22.3,15.9 -33.5,23.8 -12.3,0.6 -24.3,3.8 -36.7,2.6 -73.9,0 -147.7,-0.2 -221.6,0 -2.9,-0.3 5.2,-4.3 7.1,-6.3 8.5,-6.2 17,-12.4 25.6,-18.6 z"/>
<path style="fill:#3465a4; stroke-width:0.89; stroke-linecap:round;" d="m -922.3,841.3 c -0.3,-65.7 0,-131.4 0,-197.1 0,-13.5 -0.2,-27.1 0.2,-40.6 1.3,-6 4.3,-19 1.4,-21.5 -7.9,11.2 -15.9,22.3 -23.8,33.5 -0.6,12.3 -3.8,24.3 -2.6,36.7 0,73.9 0.2,147.7 0,221.6 0.3,2.9 4.3,-5.2 6.3,-7.1 6.2,-8.5 12.4,-17 18.6,-25.6 z"/>
</g>
</g>
<use id="id04" transform="translate(34.8037)" xlink:href="#id03"/>
<use transform="translate(66.5221)" xlink:href="#id04"/>
<use id="id06" transform="translate(34.8037)" xlink:href="#id05"/>
<use transform="translate(254.109)" xlink:href="#id06"/>
<use transform="translate(0,42.1697)" xlink:href="#id07"/>
<use transform="translate(183.942)" xlink:href="#id03"/>
<use transform="translate(183.942)" xlink:href="#id05"/>
<use transform="translate(217.772,42.1697)" xlink:href="#id03"/>
<use transform="translate(217.772,-42.1697)" xlink:href="#id05"/>
<use transform="translate(187.246)" xlink:href="#id07"/>
<use transform="translate(187.246,42.1697)" xlink:href="#id07"/>
<use transform="translate(288.913,-42.1697)" xlink:href="#id05"/>
<use transform="translate(101.326,42.1697)" xlink:href="#id03"/>
<text x="-1376.3" y="862.9" style="font-family:'Comic Sans MS'; font-size:15.5px; font-style:italic; fill:#d76cff; stroke-width:1px;">Like Signs</text>
<text x="-1198.3" y="862.9" style="font-family:'Comic Sans MS'; font-size:15.5px; font-style:italic; fill:#d76cff; stroke-width:1px;">Unlike Signs</text>
</g>
</svg>
