<?xml version="1.0" encoding="UTF-8" standalone="no"?>
<!-- Copyright 2017 mathsisfun.com -->

<svg
   width="675.9"
   height="7.1"
   version="1.1"
   id="svg208"
   sodipodi:docname="one-in-100.svg"
   inkscape:version="1.1.2 (0a00cf5339, 2022-02-04, custom)"
   xmlns:inkscape="http://www.inkscape.org/namespaces/inkscape"
   xmlns:sodipodi="http://sodipodi.sourceforge.net/DTD/sodipodi-0.dtd"
   xmlns="http://www.w3.org/2000/svg"
   xmlns:svg="http://www.w3.org/2000/svg">
  <sodipodi:namedview
     id="namedview210"
     pagecolor="#ffffff"
     bordercolor="#666666"
     borderopacity="1.0"
     inkscape:pageshadow="2"
     inkscape:pageopacity="0.0"
     inkscape:pagecheckerboard="0"
     showgrid="false"
     inkscape:current-layer="svg208" />
  <defs
     id="defs2" />
  <g
     style="overflow:visible;fill:#c2c2ff;fill-opacity:0.406977;stroke:#000000;stroke-width:0.3"
     id="g202"
     transform="translate(962.872,-1252.82)">
    <path
       d="m -956,1256.4 v -3.4 h 3.4 3.4 v 3.4 3.4 h -3.4 -3.4 z"
       id="path4"
       style="fill:#c2c2ff;fill-opacity:0.406977" />
    <path
       d="m -949.2,1256.4 v -3.4 h 3.4 3.4 v 3.4 3.4 h -3.4 -3.4 z"
       id="path6"
       style="fill:#c2c2ff;fill-opacity:0.406977" />
    <path
       d="m -942.5,1256.4 v -3.4 h 3.4 3.4 v 3.4 3.4 h -3.4 -3.4 z"
       id="path8"
       style="fill:#c2c2ff;fill-opacity:0.406977" />
    <path
       d="m -935.7,1256.4 v -3.4 h 3.4 3.4 v 3.4 3.4 h -3.4 -3.4 z"
       id="path10"
       style="fill:#c2c2ff;fill-opacity:0.406977" />
    <path
       d="m -928.9,1256.4 v -3.4 h 3.4 3.4 v 3.4 3.4 h -3.4 -3.4 z"
       id="path12"
       style="fill:#c2c2ff;fill-opacity:0.406977" />
    <path
       d="m -922.2,1256.4 v -3.4 h 3.4 3.4 v 3.4 3.4 h -3.4 -3.4 z"
       id="path14"
       style="fill:#c2c2ff;fill-opacity:0.406977" />
    <path
       d="m -915.4,1256.4 v -3.4 h 3.4 3.4 v 3.4 3.4 h -3.4 -3.4 z"
       id="path16"
       style="fill:#c2c2ff;fill-opacity:0.406977" />
    <path
       d="m -908.7,1256.4 v -3.4 h 3.4 3.4 v 3.4 3.4 h -3.4 -3.4 z"
       id="path18"
       style="fill:#c2c2ff;fill-opacity:0.406977" />
    <path
       d="m -901.9,1256.4 v -3.4 h 3.4 3.4 v 3.4 3.4 h -3.4 -3.4 z"
       id="path20"
       style="fill:#c2c2ff;fill-opacity:0.406977" />
    <path
       d="m -895.2,1256.4 v -3.4 h 3.4 3.4 v 3.4 3.4 h -3.4 -3.4 z"
       id="path22"
       style="fill:#c2c2ff;fill-opacity:0.406977" />
    <path
       d="m -888.4,1256.4 v -3.4 h 3.4 3.4 v 3.4 3.4 h -3.4 -3.4 z"
       id="path24"
       style="fill:#c2c2ff;fill-opacity:0.406977" />
    <path
       d="m -881.7,1256.4 v -3.4 h 3.4 3.4 v 3.4 3.4 h -3.4 -3.4 z"
       id="path26"
       style="fill:#c2c2ff;fill-opacity:0.406977" />
    <path
       d="m -874.9,1256.4 v -3.4 h 3.4 3.4 v 3.4 3.4 h -3.4 -3.4 z"
       id="path28"
       style="fill:#c2c2ff;fill-opacity:0.406977" />
    <path
       d="m -868.1,1256.4 v -3.4 h 3.4 3.4 v 3.4 3.4 h -3.4 -3.4 z"
       id="path30"
       style="fill:#c2c2ff;fill-opacity:0.406977" />
    <path
       d="m -861.4,1256.4 v -3.4 h 3.4 3.4 v 3.4 3.4 h -3.4 -3.4 z"
       id="path32"
       style="fill:#c2c2ff;fill-opacity:0.406977" />
    <path
       d="m -854.6,1256.4 v -3.4 h 3.4 3.4 v 3.4 3.4 h -3.4 -3.4 z"
       id="path34"
       style="fill:#c2c2ff;fill-opacity:0.406977" />
    <path
       d="m -847.9,1256.4 v -3.4 h 3.4 3.4 v 3.4 3.4 h -3.4 -3.4 z"
       id="path36"
       style="fill:#c2c2ff;fill-opacity:0.406977" />
    <path
       d="m -841.1,1256.4 v -3.4 h 3.4 3.4 v 3.4 3.4 h -3.4 -3.4 z"
       id="path38"
       style="fill:#c2c2ff;fill-opacity:0.406977" />
    <path
       d="m -834.4,1256.4 v -3.4 h 3.4 3.4 v 3.4 3.4 h -3.4 -3.4 z"
       id="path40"
       style="fill:#c2c2ff;fill-opacity:0.406977" />
    <path
       d="m -827.6,1256.4 v -3.4 h 3.4 3.4 v 3.4 3.4 h -3.4 -3.4 z"
       id="path42"
       style="fill:#c2c2ff;fill-opacity:0.406977" />
    <path
       d="m -820.9,1256.4 v -3.4 h 3.4 3.4 v 3.4 3.4 h -3.4 -3.4 z"
       id="path44"
       style="fill:#c2c2ff;fill-opacity:0.406977" />
    <path
       d="m -814.1,1256.4 v -3.4 h 3.4 3.4 v 3.4 3.4 h -3.4 -3.4 z"
       id="path46"
       style="fill:#c2c2ff;fill-opacity:0.406977" />
    <path
       d="m -807.3,1256.4 v -3.4 h 3.4 3.4 v 3.4 3.4 h -3.4 -3.4 z"
       id="path48"
       style="fill:#c2c2ff;fill-opacity:0.406977" />
    <path
       d="m -800.6,1256.4 v -3.4 h 3.4 3.4 v 3.4 3.4 h -3.4 -3.4 z"
       id="path50"
       style="fill:#c2c2ff;fill-opacity:0.406977" />
    <path
       d="m -793.8,1256.4 v -3.4 h 3.4 3.4 v 3.4 3.4 h -3.4 -3.4 z"
       id="path52"
       style="fill:#c2c2ff;fill-opacity:0.406977" />
    <path
       d="m -787.1,1256.4 v -3.4 h 3.4 3.4 v 3.4 3.4 h -3.4 -3.4 z"
       id="path54"
       style="fill:#c2c2ff;fill-opacity:0.406977" />
    <path
       d="m -780.3,1256.4 v -3.4 h 3.4 3.4 v 3.4 3.4 h -3.4 -3.4 z"
       id="path56"
       style="fill:#c2c2ff;fill-opacity:0.406977" />
    <path
       d="m -773.6,1256.4 v -3.4 h 3.4 3.4 v 3.4 3.4 h -3.4 -3.4 z"
       id="path58"
       style="fill:#c2c2ff;fill-opacity:0.406977" />
    <path
       d="m -766.8,1256.4 v -3.4 h 3.4 3.4 v 3.4 3.4 h -3.4 -3.4 z"
       id="path60"
       style="fill:#c2c2ff;fill-opacity:0.406977" />
    <path
       d="m -760.1,1256.4 v -3.4 h 3.4 3.4 v 3.4 3.4 h -3.4 -3.4 z"
       id="path62"
       style="fill:#c2c2ff;fill-opacity:0.406977" />
    <path
       d="m -753.3,1256.4 v -3.4 h 3.4 3.4 v 3.4 3.4 h -3.4 -3.4 z"
       id="path64"
       style="fill:#c2c2ff;fill-opacity:0.406977" />
    <path
       d="m -746.5,1256.4 v -3.4 h 3.4 3.4 v 3.4 3.4 h -3.4 -3.4 z"
       id="path66"
       style="fill:#c2c2ff;fill-opacity:0.406977" />
    <path
       d="m -739.8,1256.4 v -3.4 h 3.4 3.4 v 3.4 3.4 h -3.4 -3.4 z"
       id="path68"
       style="fill:#c2c2ff;fill-opacity:0.406977" />
    <path
       d="m -733,1256.4 v -3.4 h 3.4 3.4 v 3.4 3.4 h -3.4 -3.4 z"
       id="path70"
       style="fill:#c2c2ff;fill-opacity:0.406977" />
    <path
       d="m -726.3,1256.4 v -3.4 h 3.4 3.4 v 3.4 3.4 h -3.4 -3.4 z"
       id="path72"
       style="fill:#c2c2ff;fill-opacity:0.406977" />
    <path
       d="m -719.5,1256.4 v -3.4 h 3.4 3.4 v 3.4 3.4 h -3.4 -3.4 z"
       id="path74"
       style="fill:#c2c2ff;fill-opacity:0.406977" />
    <path
       d="m -712.8,1256.4 v -3.4 h 3.4 3.4 v 3.4 3.4 h -3.4 -3.4 z"
       id="path76"
       style="fill:#c2c2ff;fill-opacity:0.406977" />
    <path
       d="m -706,1256.4 v -3.4 h 3.4 3.4 v 3.4 3.4 h -3.4 -3.4 z"
       id="path78"
       style="fill:#c2c2ff;fill-opacity:0.406977" />
    <path
       d="m -699.3,1256.4 v -3.4 h 3.4 3.4 v 3.4 3.4 h -3.4 -3.4 z"
       id="path80"
       style="fill:#c2c2ff;fill-opacity:0.406977" />
    <path
       d="m -692.5,1256.4 v -3.4 h 3.4 3.4 v 3.4 3.4 h -3.4 -3.4 z"
       id="path82"
       style="fill:#c2c2ff;fill-opacity:0.406977" />
    <path
       d="m -685.7,1256.4 v -3.4 h 3.4 3.4 v 3.4 3.4 h -3.4 -3.4 z"
       id="path84"
       style="fill:#c2c2ff;fill-opacity:0.406977" />
    <path
       d="m -679,1256.4 v -3.4 h 3.4 3.4 v 3.4 3.4 h -3.4 -3.4 z"
       id="path86"
       style="fill:#c2c2ff;fill-opacity:0.406977" />
    <path
       d="m -672.2,1256.4 v -3.4 h 3.4 3.4 v 3.4 3.4 h -3.4 -3.4 z"
       id="path88"
       style="fill:#c2c2ff;fill-opacity:0.406977" />
    <path
       d="m -665.5,1256.4 v -3.4 h 3.4 3.4 v 3.4 3.4 h -3.4 -3.4 z"
       id="path90"
       style="fill:#c2c2ff;fill-opacity:0.406977" />
    <path
       d="m -658.7,1256.4 v -3.4 h 3.4 3.4 v 3.4 3.4 h -3.4 -3.4 z"
       id="path92"
       style="fill:#c2c2ff;fill-opacity:0.406977" />
    <path
       d="m -652,1256.4 v -3.4 h 3.4 3.4 v 3.4 3.4 h -3.4 -3.4 z"
       id="path94"
       style="fill:#c2c2ff;fill-opacity:0.406977" />
    <path
       d="m -645.2,1256.4 v -3.4 h 3.4 3.4 v 3.4 3.4 h -3.4 -3.4 z"
       id="path96"
       style="fill:#c2c2ff;fill-opacity:0.406977" />
    <path
       d="m -638.5,1256.4 v -3.4 h 3.4 3.4 v 3.4 3.4 h -3.4 -3.4 z"
       id="path98"
       style="fill:#c2c2ff;fill-opacity:0.406977" />
    <path
       d="m -631.7,1256.4 v -3.4 h 3.4 3.4 v 3.4 3.4 h -3.4 -3.4 z"
       id="path100"
       style="fill:#c2c2ff;fill-opacity:0.406977" />
    <path
       d="m -624.9,1256.4 v -3.4 h 3.4 3.4 v 3.4 3.4 h -3.4 -3.4 z"
       id="path102"
       style="fill:#c2c2ff;fill-opacity:0.406977" />
    <path
       d="m -618.2,1256.4 v -3.4 h 3.4 3.4 v 3.4 3.4 h -3.4 -3.4 z"
       id="path104"
       style="fill:#c2c2ff;fill-opacity:0.406977" />
    <path
       d="m -611.4,1256.4 v -3.4 h 3.4 3.4 v 3.4 3.4 h -3.4 -3.4 z"
       id="path106"
       style="fill:#c2c2ff;fill-opacity:0.406977" />
    <path
       d="m -604.7,1256.4 v -3.4 h 3.4 3.4 v 3.4 3.4 h -3.4 -3.4 z"
       id="path108"
       style="fill:#c2c2ff;fill-opacity:0.406977" />
    <path
       d="m -597.9,1256.4 v -3.4 h 3.4 3.4 v 3.4 3.4 h -3.4 -3.4 z"
       id="path110"
       style="fill:#c2c2ff;fill-opacity:0.406977" />
    <path
       d="m -591.2,1256.4 v -3.4 h 3.4 3.4 v 3.4 3.4 h -3.4 -3.4 z"
       id="path112"
       style="fill:#c2c2ff;fill-opacity:0.406977" />
    <path
       d="m -584.4,1256.4 v -3.4 h 3.4 3.4 v 3.4 3.4 h -3.4 -3.4 z"
       id="path114"
       style="fill:#c2c2ff;fill-opacity:0.406977" />
    <path
       d="m -577.7,1256.4 v -3.4 h 3.4 3.4 v 3.4 3.4 h -3.4 -3.4 z"
       id="path116"
       style="fill:#c2c2ff;fill-opacity:0.406977" />
    <path
       d="m -570.9,1256.4 v -3.4 h 3.4 3.4 v 3.4 3.4 h -3.4 -3.4 z"
       id="path118"
       style="fill:#c2c2ff;fill-opacity:0.406977" />
    <path
       d="m -564.1,1256.4 v -3.4 h 3.4 3.4 v 3.4 3.4 h -3.4 -3.4 z"
       id="path120"
       style="fill:#c2c2ff;fill-opacity:0.406977" />
    <path
       d="m -422.3,1256.4 v -3.4 h 3.4 3.4 v 3.4 3.4 h -3.4 -3.4 z"
       id="path122"
       style="fill:#c2c2ff;fill-opacity:0.406977" />
    <path
       d="m -415.5,1256.4 v -3.4 h 3.4 3.4 v 3.4 3.4 h -3.4 -3.4 z"
       id="path124"
       style="fill:#c2c2ff;fill-opacity:0.406977" />
    <path
       d="m -408.8,1256.4 v -3.4 h 3.4 3.4 v 3.4 3.4 h -3.4 -3.4 z"
       id="path126"
       style="fill:#c2c2ff;fill-opacity:0.406977" />
    <path
       d="m -402,1256.4 v -3.4 h 3.4 3.4 v 3.4 3.4 h -3.4 -3.4 z"
       id="path128"
       style="fill:#c2c2ff;fill-opacity:0.406977" />
    <path
       d="m -395.3,1256.4 v -3.4 h 3.4 3.4 v 3.4 3.4 h -3.4 -3.4 z"
       id="path130"
       style="fill:#c2c2ff;fill-opacity:0.406977" />
    <path
       d="m -388.5,1256.4 v -3.4 h 3.4 3.4 v 3.4 3.4 h -3.4 -3.4 z"
       id="path132"
       style="fill:#c2c2ff;fill-opacity:0.406977" />
    <path
       d="m -381.7,1256.4 v -3.4 h 3.4 3.4 v 3.4 3.4 h -3.4 -3.4 z"
       id="path134"
       style="fill:#c2c2ff;fill-opacity:0.406977" />
    <path
       d="m -375,1256.4 v -3.4 h 3.4 3.4 v 3.4 3.4 h -3.4 -3.4 z"
       id="path136"
       style="fill:#c2c2ff;fill-opacity:0.406977" />
    <path
       d="m -368.2,1256.4 v -3.4 h 3.4 3.4 v 3.4 3.4 h -3.4 -3.4 z"
       id="path138"
       style="fill:#c2c2ff;fill-opacity:0.406977" />
    <path
       d="m -361.5,1256.4 v -3.4 h 3.4 3.4 v 3.4 3.4 h -3.4 -3.4 z"
       id="path140"
       style="fill:#c2c2ff;fill-opacity:0.406977" />
    <path
       d="m -354.7,1256.4 v -3.4 h 3.4 3.4 v 3.4 3.4 h -3.4 -3.4 z"
       id="path142"
       style="fill:#c2c2ff;fill-opacity:0.406977" />
    <path
       d="m -348,1256.4 v -3.4 h 3.4 3.4 v 3.4 3.4 h -3.4 -3.4 z"
       id="path144"
       style="fill:#c2c2ff;fill-opacity:0.406977" />
    <path
       d="m -341.2,1256.4 v -3.4 h 3.4 3.4 v 3.4 3.4 h -3.4 -3.4 z"
       id="path146"
       style="fill:#c2c2ff;fill-opacity:0.406977" />
    <path
       d="m -334.5,1256.4 v -3.4 h 3.4 3.4 v 3.4 3.4 h -3.4 -3.4 z"
       id="path148"
       style="fill:#c2c2ff;fill-opacity:0.406977" />
    <path
       d="m -327.7,1256.4 v -3.4 h 3.4 3.4 v 3.4 3.4 h -3.4 -3.4 z"
       id="path150"
       style="fill:#c2c2ff;fill-opacity:0.406977" />
    <path
       d="m -320.9,1256.4 v -3.4 h 3.4 3.4 v 3.4 3.4 h -3.4 -3.4 z"
       id="path152"
       style="fill:#c2c2ff;fill-opacity:0.406977" />
    <path
       d="m -314.2,1256.4 v -3.4 h 3.4 3.4 v 3.4 3.4 h -3.4 -3.4 z"
       id="path154"
       style="fill:#c2c2ff;fill-opacity:0.406977" />
    <path
       d="m -307.4,1256.4 v -3.4 h 3.4 3.4 v 3.4 3.4 h -3.4 -3.4 z"
       id="path156"
       style="fill:#c2c2ff;fill-opacity:0.406977" />
    <path
       d="m -300.7,1256.4 v -3.4 h 3.4 3.4 v 3.4 3.4 h -3.4 -3.4 z"
       id="path158"
       style="fill:#c2c2ff;fill-opacity:0.406977" />
    <path
       d="m -293.9,1256.4 v -3.4 h 3.4 3.4 v 3.4 3.4 h -3.4 -3.4 z"
       id="path160"
       style="fill:#c2c2ff;fill-opacity:0.406977" />
    <path
       d="m -557.4,1256.4 v -3.4 h 3.4 3.4 v 3.4 3.4 h -3.4 -3.4 z"
       id="path162"
       style="fill:#c2c2ff;fill-opacity:0.406977" />
    <path
       d="m -550.6,1256.4 v -3.4 h 3.4 3.4 v 3.4 3.4 h -3.4 -3.4 z"
       id="path164"
       style="fill:#c2c2ff;fill-opacity:0.406977" />
    <path
       d="m -543.9,1256.4 v -3.4 h 3.4 3.4 v 3.4 3.4 h -3.4 -3.4 z"
       id="path166"
       style="fill:#c2c2ff;fill-opacity:0.406977" />
    <path
       d="m -537.1,1256.4 v -3.4 h 3.4 3.4 v 3.4 3.4 h -3.4 -3.4 z"
       id="path168"
       style="fill:#c2c2ff;fill-opacity:0.406977" />
    <path
       d="m -530.4,1256.4 v -3.4 h 3.4 3.4 v 3.4 3.4 h -3.4 -3.4 z"
       id="path170"
       style="fill:#c2c2ff;fill-opacity:0.406977" />
    <path
       d="m -523.6,1256.4 v -3.4 h 3.4 3.4 v 3.4 3.4 h -3.4 -3.4 z"
       id="path172"
       style="fill:#c2c2ff;fill-opacity:0.406977" />
    <path
       d="m -516.9,1256.4 v -3.4 h 3.4 3.4 v 3.4 3.4 h -3.4 -3.4 z"
       id="path174"
       style="fill:#c2c2ff;fill-opacity:0.406977" />
    <path
       d="m -510.1,1256.4 v -3.4 h 3.4 3.4 v 3.4 3.4 h -3.4 -3.4 z"
       id="path176"
       style="fill:#c2c2ff;fill-opacity:0.406977" />
    <path
       d="m -503.3,1256.4 v -3.4 h 3.4 3.4 v 3.4 3.4 h -3.4 -3.4 z"
       id="path178"
       style="fill:#c2c2ff;fill-opacity:0.406977" />
    <path
       d="m -496.6,1256.4 v -3.4 h 3.4 3.4 v 3.4 3.4 h -3.4 -3.4 z"
       id="path180"
       style="fill:#c2c2ff;fill-opacity:0.406977" />
    <path
       d="m -489.8,1256.4 v -3.4 h 3.4 3.4 v 3.4 3.4 h -3.4 -3.4 z"
       id="path182"
       style="fill:#c2c2ff;fill-opacity:0.406977" />
    <path
       d="m -483.1,1256.4 v -3.4 h 3.4 3.4 v 3.4 3.4 h -3.4 -3.4 z"
       id="path184"
       style="fill:#c2c2ff;fill-opacity:0.406977" />
    <path
       d="m -476.3,1256.4 v -3.4 h 3.4 3.4 v 3.4 3.4 h -3.4 -3.4 z"
       id="path186"
       style="fill:#c2c2ff;fill-opacity:0.406977" />
    <path
       d="m -469.6,1256.4 v -3.4 h 3.4 3.4 v 3.4 3.4 h -3.4 -3.4 z"
       id="path188"
       style="fill:#c2c2ff;fill-opacity:0.406977" />
    <path
       d="m -462.8,1256.4 v -3.4 h 3.4 3.4 v 3.4 3.4 h -3.4 -3.4 z"
       id="path190"
       style="fill:#c2c2ff;fill-opacity:0.406977" />
    <path
       d="m -456.1,1256.4 v -3.4 h 3.4 3.4 v 3.4 3.4 h -3.4 -3.4 z"
       id="path192"
       style="fill:#c2c2ff;fill-opacity:0.406977" />
    <path
       d="m -449.3,1256.4 v -3.4 h 3.4 3.4 v 3.4 3.4 h -3.4 -3.4 z"
       id="path194"
       style="fill:#c2c2ff;fill-opacity:0.406977" />
    <path
       d="m -442.5,1256.4 v -3.4 h 3.4 3.4 v 3.4 3.4 h -3.4 -3.4 z"
       id="path196"
       style="fill:#c2c2ff;fill-opacity:0.406977" />
    <path
       d="m -435.8,1256.4 v -3.4 h 3.4 3.4 v 3.4 3.4 h -3.4 -3.4 z"
       id="path198"
       style="fill:#c2c2ff;fill-opacity:0.406977" />
    <path
       d="m -429,1256.4 v -3.4 h 3.4 3.4 v 3.4 3.4 h -3.4 -3.4 z"
       id="path200"
       style="fill:#c2c2ff;fill-opacity:0.406977" />
  </g>
  <path
     style="overflow:visible;fill:#02ff02;stroke:#000000;stroke-width:0.3;fill-opacity:1"
     d="m 0.172,3.58 v -3.4 h 3.4 3.4 v 3.4 3.4 h -3.4 -3.4 z"
     id="path204" />
</svg>
