<?xml version="1.0" encoding="UTF-8" standalone="no"?>
<!-- Copyright 2021 mathsisfun.com -->

<svg
   width="364.7"
   height="209.6"
   version="1.1"
   style="font-size:5.9px;fill:#71cdff;stroke-width:0.82px"
   id="svg236"
   sodipodi:docname="pascals-triangle-11.svg"
   inkscape:version="1.1 (c68e22c387, 2021-05-23)"
   xmlns:inkscape="http://www.inkscape.org/namespaces/inkscape"
   xmlns:sodipodi="http://sodipodi.sourceforge.net/DTD/sodipodi-0.dtd"
   xmlns="http://www.w3.org/2000/svg"
   xmlns:svg="http://www.w3.org/2000/svg">
  <sodipodi:namedview
     id="namedview238"
     pagecolor="#ffffff"
     bordercolor="#666666"
     borderopacity="1.0"
     inkscape:pageshadow="2"
     inkscape:pageopacity="0.0"
     inkscape:pagecheckerboard="0"
     showgrid="false"
     inkscape:current-layer="svg236" />
  <defs
     id="defs26">
    <marker
       style="overflow:visible"
       orient="auto"
       id="marker4">
      <path
         transform="matrix(-0.4,0,0,-0.4,-4,0)"
         style="stroke:black;stroke-width:1pt;fill:none"
         d="M 0,0 5,-5 -12.5,0 5,5 Z"
         id="path2" />
    </marker>
    <marker
       style="overflow:visible"
       orient="auto"
       id="marker8">
      <path
         transform="matrix(-0.4,0,0,-0.4,-4,0)"
         style="stroke:black;stroke-width:1pt;fill:none"
         d="M 0,0 5,-5 -12.5,0 5,5 Z"
         id="path6" />
    </marker>
    <marker
       style="overflow:visible"
       orient="auto"
       id="marker12">
      <path
         transform="matrix(-0.4,0,0,-0.4,-4,0)"
         style="stroke:black;stroke-width:1pt;fill:none"
         d="M 0,0 5,-5 -12.5,0 5,5 Z"
         id="path10" />
    </marker>
    <marker
       style="overflow:visible"
       orient="auto"
       id="marker16">
      <path
         transform="matrix(-0.4,0,0,-0.4,-4,0)"
         style="stroke:black;stroke-width:1pt;fill:none"
         d="M 0,0 5,-5 -12.5,0 5,5 Z"
         id="path14" />
    </marker>
    <marker
       style="overflow:visible"
       orient="auto"
       id="marker20">
      <path
         transform="matrix(-0.4,0,0,-0.4,-4,0)"
         style="stroke:black;stroke-width:1pt;fill:none"
         d="M 0,0 5,-5 -12.5,0 5,5 Z"
         id="path18" />
    </marker>
    <marker
       style="overflow:visible"
       orient="auto"
       id="marker24">
      <path
         transform="matrix(-0.4,0,0,-0.4,-4,0)"
         style="stroke:black;stroke-width:1pt;fill:none"
         d="M 0,0 5,-5 -12.5,0 5,5 Z"
         id="path22" />
    </marker>
  </defs>
  <rect
     x="155.48"
     y="179.329"
     width="29.8"
     height="29.8"
     style="stroke:#204a87;stroke-width:1.09;fill:#d9f2ff;fill-opacity:1"
     id="rect28" />
  <rect
     x="185.28"
     y="179.329"
     width="29.8"
     height="29.8"
     style="stroke:#204a87;stroke-width:1.09;fill:#d9f2ff;fill-opacity:1"
     id="rect30" />
  <rect
     x="215.18"
     y="179.329"
     width="29.8"
     height="29.8"
     style="stroke:#204a87;stroke-width:1.09;fill:#d9f2ff;fill-opacity:1"
     id="rect32" />
  <rect
     x="244.98"
     y="179.329"
     width="29.8"
     height="29.8"
     style="stroke:#204a87;stroke-width:1.09;fill:#d9f2ff;fill-opacity:1"
     id="rect34" />
  <rect
     x="274.78"
     y="179.329"
     width="29.8"
     height="29.8"
     style="stroke:#204a87;stroke-width:1.09;fill:#d9f2ff;fill-opacity:1"
     id="rect36" />
  <rect
     x="304.58"
     y="179.329"
     width="29.8"
     height="29.8"
     style="stroke:#204a87;stroke-width:1.09;fill:#d9f2ff;fill-opacity:1"
     id="rect38" />
  <rect
     x="334.48"
     y="179.329"
     width="29.8"
     height="29.8"
     style="stroke:#204a87;stroke-width:1.09;fill:#d9f2ff;fill-opacity:1"
     id="rect40" />
  <rect
     x="170.38"
     y="149.529"
     width="29.8"
     height="29.8"
     style="stroke:#204a87;stroke-width:1.09;fill:#d9f2ff;fill-opacity:1"
     id="rect42" />
  <rect
     x="200.28"
     y="149.529"
     width="29.8"
     height="29.8"
     style="stroke:#204a87;stroke-width:1.09;fill:#d9f2ff;fill-opacity:1"
     id="rect44" />
  <rect
     x="230.08"
     y="149.529"
     width="29.8"
     height="29.8"
     style="stroke:#204a87;stroke-width:1.09;fill:#d9f2ff;fill-opacity:1"
     id="rect46" />
  <rect
     x="259.88"
     y="149.529"
     width="29.8"
     height="29.8"
     style="stroke:#204a87;stroke-width:1.09;fill:#d9f2ff;fill-opacity:1"
     id="rect48" />
  <rect
     x="289.68"
     y="149.529"
     width="29.8"
     height="29.8"
     style="stroke:#204a87;stroke-width:1.09;fill:#d9f2ff;fill-opacity:1"
     id="rect50" />
  <rect
     x="319.48"
     y="149.529"
     width="29.8"
     height="29.8"
     style="stroke:#204a87;stroke-width:1.09;fill:#d9f2ff;fill-opacity:1"
     id="rect52" />
  <rect
     x="185.333"
     y="119.7"
     width="29.8219"
     height="29.8166"
     style="fill:#d9f2ff;stroke:#204a87;stroke-width:1.09409;fill-opacity:1"
     id="rect54" />
  <rect
     x="215.155"
     y="119.7"
     width="29.8219"
     height="29.8166"
     style="fill:#d9f2ff;stroke:#204a87;stroke-width:1.09409;fill-opacity:1"
     id="rect56" />
  <rect
     x="244.976"
     y="119.7"
     width="29.8219"
     height="29.8166"
     style="fill:#d9f2ff;stroke:#204a87;stroke-width:1.09409;fill-opacity:1"
     id="rect58" />
  <rect
     x="274.798"
     y="119.7"
     width="29.8219"
     height="29.8166"
     style="fill:#d9f2ff;stroke:#204a87;stroke-width:1.09409;fill-opacity:1"
     id="rect60" />
  <rect
     x="304.62"
     y="119.7"
     width="29.8219"
     height="29.8166"
     style="fill:#d9f2ff;stroke:#204a87;stroke-width:1.09409;fill-opacity:1"
     id="rect62" />
  <rect
     x="200.258"
     y="89.8852"
     width="29.8219"
     height="29.8166"
     style="fill:#d9f2ff;stroke:#204a87;stroke-width:1.09409;fill-opacity:1"
     id="rect66" />
  <rect
     x="230.053"
     y="89.8852"
     width="29.8219"
     height="29.8166"
     style="fill:#d9f2ff;stroke:#204a87;stroke-width:1.09409;fill-opacity:1"
     id="rect68" />
  <rect
     x="259.875"
     y="89.8852"
     width="29.8219"
     height="29.8166"
     style="fill:#d9f2ff;stroke:#204a87;stroke-width:1.09409;fill-opacity:1"
     id="rect70" />
  <rect
     x="289.697"
     y="89.8852"
     width="29.8219"
     height="29.8166"
     style="fill:#d9f2ff;stroke:#204a87;stroke-width:1.09409;fill-opacity:1"
     id="rect72" />
  <rect
     x="215.139"
     y="60.0814"
     width="29.8219"
     height="29.8166"
     style="fill:#d9f2ff;stroke:#204a87;stroke-width:1.09409;fill-opacity:1"
     id="rect76" />
  <rect
     x="244.961"
     y="60.0814"
     width="29.8219"
     height="29.8166"
     style="fill:#d9f2ff;stroke:#204a87;stroke-width:1.09409;fill-opacity:1"
     id="rect78" />
  <rect
     x="274.783"
     y="60.0814"
     width="29.8219"
     height="29.8166"
     style="fill:#d9f2ff;stroke:#204a87;stroke-width:1.09409;fill-opacity:1"
     id="rect80" />
  <rect
     x="230.077"
     y="30.2565"
     width="29.8219"
     height="29.8166"
     style="fill:#d9f2ff;stroke:#204a87;stroke-width:1.09409;fill-opacity:1"
     id="rect84" />
  <rect
     x="259.872"
     y="30.2565"
     width="29.8219"
     height="29.8166"
     style="fill:#d9f2ff;stroke:#204a87;stroke-width:1.09409;fill-opacity:1"
     id="rect86" />
  <rect
     x="244.98"
     y="0.429006"
     width="29.8"
     height="29.8"
     style="stroke:#204a87;stroke-width:1.09;fill:#d9f2ff;fill-opacity:1"
     id="rect90" />
  <text
     x="254.806"
     y="22.1601"
     transform="scale(1.00009,0.999911)"
     style="font-family:Arial;fill:#000000;font-size:17.999991px"
     id="text92">1</text>
  <text
     x="238.806"
     y="52.0601"
     transform="scale(1.00009,0.999911)"
     style="font-family:Arial;fill:#000000;font-size:17.999991px"
     id="text94">1</text>
  <text
     x="225.305"
     y="81.3601"
     transform="scale(1.00009,0.999911)"
     style="font-family:Arial;fill:#000000;font-size:17.999991px"
     id="text96">1</text>
  <text
     x="209.006"
     y="111.66"
     transform="scale(1.00009,0.999911)"
     style="font-family:Arial;fill:#000000;font-size:17.999991px"
     id="text98">1</text>
  <text
     x="180.206"
     y="170.96"
     transform="scale(1.00009,0.999911)"
     style="font-family:Arial;fill:#000000;font-size:17.999991px"
     id="text100">1</text>
  <text
     x="195.406"
     y="141.06"
     transform="scale(1.00009,0.999911)"
     style="font-family:Arial;fill:#000000;font-size:17.999991px"
     id="text102">1</text>
  <text
     x="270.806"
     y="52.0601"
     transform="scale(1.00009,0.999911)"
     style="font-family:Arial;fill:#000000;font-size:17.999991px"
     id="text104">1</text>
  <text
     x="285.306"
     y="81.3601"
     transform="scale(1.00009,0.999911)"
     style="font-family:Arial;fill:#000000;font-size:17.999991px"
     id="text106">1</text>
  <text
     x="299.406"
     y="111.66"
     transform="scale(1.00009,0.999911)"
     style="font-family:Arial;fill:#000000;font-size:17.999991px"
     id="text108">1</text>
  <text
     x="314.206"
     y="141.06"
     transform="scale(1.00009,0.999911)"
     style="font-family:Arial;fill:#000000;font-size:17.999991px"
     id="text110">1</text>
  <text
     x="328.306"
     y="170.96"
     transform="scale(1.00009,0.999911)"
     style="font-family:Arial;fill:#000000;font-size:17.999991px"
     id="text112">1</text>
  <text
     x="254.506"
     y="81.3601"
     transform="scale(1.00009,0.999911)"
     style="font-family:Arial;fill:#000000;font-size:17.999991px"
     id="text114">2</text>
  <text
     x="239.906"
     y="111.56"
     transform="scale(1.00009,0.999911)"
     style="font-family:Arial;fill:#000000;font-size:17.999991px"
     id="text116">3</text>
  <text
     x="225.305"
     y="140.96"
     transform="scale(1.00009,0.999911)"
     style="font-family:Arial;fill:#000000;font-size:17.999991px"
     id="text118">4</text>
  <text
     x="210.106"
     y="170.66"
     transform="scale(1.00009,0.999911)"
     style="font-family:Arial;fill:#000000;font-size:17.999991px"
     id="text120">5</text>
  <text
     x="234.106"
     y="170.76"
     transform="scale(1.00009,0.999911)"
     style="font-family:Arial;fill:#000000;font-size:17.999991px"
     id="text122">10</text>
  <text
     x="263.806"
     y="170.76"
     transform="scale(1.00009,0.999911)"
     style="font-family:Arial;fill:#000000;font-size:17.999991px"
     id="text124">10</text>
  <text
     x="299.106"
     y="170.66"
     transform="scale(1.00009,0.999911)"
     style="font-family:Arial;fill:#000000;font-size:17.999991px"
     id="text126">5</text>
  <text
     x="285.306"
     y="140.96"
     transform="scale(1.00009,0.999911)"
     style="font-family:Arial;fill:#000000;font-size:17.999991px"
     id="text128">4</text>
  <text
     x="255.606"
     y="140.96"
     transform="scale(1.00009,0.999911)"
     style="font-family:Arial;fill:#000000;font-size:17.999991px"
     id="text130">6</text>
  <text
     x="270.806"
     y="111.56"
     transform="scale(1.00009,0.999911)"
     style="font-family:Arial;fill:#000000;font-size:17.999991px"
     id="text132">3</text>
  <text
     x="165.606"
     y="201.26"
     transform="scale(1.00009,0.999911)"
     style="font-family:Arial;fill:#000000;font-size:17.999991px"
     id="text134">1</text>
  <text
     x="313.706"
     y="201.16"
     transform="scale(1.00009,0.999911)"
     style="font-family:Arial;fill:#000000;font-size:17.999991px"
     id="text136">6</text>
  <text
     x="195.506"
     y="201.16"
     transform="scale(1.00009,0.999911)"
     style="font-family:Arial;fill:#000000;font-size:17.999991px"
     id="text138">6</text>
  <text
     x="220.006"
     y="201.16"
     transform="scale(1.00009,0.999911)"
     style="font-family:Arial;fill:#000000;font-size:17.999991px"
     id="text140">15</text>
  <text
     x="250.306"
     y="201.16"
     transform="scale(1.00009,0.999911)"
     style="font-family:Arial;fill:#000000;font-size:17.999991px"
     id="text142">20</text>
  <text
     x="278.606"
     y="201.16"
     transform="scale(1.00009,0.999911)"
     style="font-family:Arial;fill:#000000;font-size:17.999991px"
     id="text144">15</text>
  <text
     x="343.506"
     y="201.26"
     transform="scale(1.00009,0.999911)"
     style="font-family:Arial;fill:#000000;font-size:17.999991px"
     id="text146">1</text>
  <text
     x="23.9055"
     y="22.1601"
     transform="scale(1.00009,0.999911)"
     style="font-family:Arial;fill:#ba00ff;font-size:17.999991px"
     id="text148">11   = 1</text>
  <text
     x="19.6054"
     y="52.0601"
     transform="scale(1.00009,0.999911)"
     style="font-family:Arial;fill:#ba00ff;font-size:17.999991px"
     id="text150">11   = 11</text>
  <text
     x="15.3054"
     y="81.3601"
     transform="scale(1.00009,0.999911)"
     style="font-family:Arial;fill:#ba00ff;font-size:17.999991px"
     id="text152">11   = 121</text>
  <text
     x="11.0055"
     y="111.66"
     transform="scale(1.00009,0.999911)"
     style="font-family:Arial;fill:#ba00ff;font-size:17.999991px"
     id="text154">11   = 1331</text>
  <text
     x="2.40549"
     y="170.96"
     transform="scale(1.00009,0.999911)"
     style="font-family:Arial;fill:#ba00ff;font-size:17.999991px"
     id="text156">11   = 161051</text>
  <text
     x="6.70541"
     y="141.06"
     transform="scale(1.00009,0.999911)"
     style="font-family:Arial;fill:#ba00ff;font-size:17.999991px"
     id="text158">11   = 14641</text>
  <text
     x="-1.89457"
     y="201.26"
     transform="scale(1.00009,0.999911)"
     style="font-family:Arial;fill:#ba00ff;font-size:17.999991px"
     id="text160">11   = 1771561</text>
  <text
     x="43.8054"
     y="14.1601"
     transform="scale(1.00009,0.999911)"
     style="font-family:Arial;fill:#ba00ff;font-size:17.999991px"
     id="text162">0</text>
  <text
     x="39.5055"
     y="43.9601"
     transform="scale(1.00009,0.999911)"
     style="font-family:Arial;fill:#ba00ff;font-size:17.999991px"
     id="text164">1</text>
  <text
     x="35.2054"
     y="73.7601"
     transform="scale(1.00009,0.999911)"
     style="font-family:Arial;fill:#ba00ff;font-size:17.999991px"
     id="text166">2</text>
  <text
     x="30.9055"
     y="103.56"
     transform="scale(1.00009,0.999911)"
     style="font-family:Arial;fill:#ba00ff;font-size:17.999991px"
     id="text168">3</text>
  <text
     x="26.6054"
     y="133.36"
     transform="scale(1.00009,0.999911)"
     style="font-family:Arial;fill:#ba00ff;font-size:17.999991px"
     id="text170">4</text>
  <text
     x="22.3054"
     y="163.06"
     transform="scale(1.00009,0.999911)"
     style="font-family:Arial;fill:#ba00ff;font-size:17.999991px"
     id="text172">5</text>
  <text
     x="18.1054"
     y="192.86"
     transform="scale(1.00009,0.999911)"
     style="font-family:Arial;fill:#ba00ff;font-size:17.999991px"
     id="text174">6</text>
  <g
     style="fill:#f1caff;stroke-width:1.67"
     transform="matrix(0.305925,0,0,0.214329,798.75,144.596)"
     id="g184">
    <g
       style="fill:#f1caff;stroke-width:1.67"
       transform="matrix(1.05761,0,0,1,132.824,0)"
       id="g182">
      <path
         style="fill:#f1caff;stroke-width:3.33"
         d="m -2303.1,-611.7 c 1.1,-0.5 2.4,-0.8 3.6,-1.1 1.6,-0.5 3.2,-0.9 4.9,-1.3 2.1,-0.6 4.3,-1 6.4,-1.6 2.8,-0.6 5.6,-1.2 8.4,-1.7 3.5,-0.7 7,-1.3 10.6,-1.9 4.4,-0.6 8.8,-1.3 13.2,-1.8 5.1,-0.6 10.2,-1.1 15.3,-1.5 5.1,-0.4 10.3,-0.9 15.4,-1.2 4.9,-0.2 9.8,-0.5 14.8,-0.6 4.5,-0.1 8.9,-0.2 13.4,-0.2 4.1,0 8.2,0.1 12.2,0.1 3.8,0.1 7.6,0.2 11.4,0.4 3.6,0.2 7.2,0.4 10.8,0.7 3.8,0.3 7.5,0.7 11.3,1 4.3,0.4 8.7,0.7 13.1,1.1 5,0.4 10,0.8 15,1.3 5.4,0.5 10.8,1.2 16.2,1.8 5.7,0.7 11.3,1.4 16.9,2 5.5,0.6 11,1.3 16.5,2.1 5,0.7 9.9,1.4 14.9,2.1 4.3,0.7 8.7,1.3 13.1,2 3.8,0.6 7.6,1.3 11.5,2 3.4,0.6 6.8,1.3 10.2,2 3.2,0.6 6.3,1.3 9.5,1.9 3,0.6 6,1.1 9.1,1.7 2.9,0.6 5.8,1.1 8.7,1.6 2.8,0.5 5.6,0.8 8.4,1.2 2.8,0.3 5.5,0.6 8.3,0.9 2.7,0.3 5.4,0.5 8.2,0.7 2.6,0.3 5.3,0.3 7.9,0.4 2.6,0.1 5.3,0.1 7.9,0 2.6,0 5.2,-0.1 7.8,-0.2 2.5,-0.1 5,-0.3 7.5,-0.5 2.4,-0.1 4.8,-0.4 7.2,-0.7 2.3,-0.3 4.7,-0.8 7,-1.1 2.2,-0.5 4.4,-0.9 6.6,-1.6 2.1,-0.6 4.2,-1.1 6.3,-1.8 1.4,-0.4 0.7,-0.2 2.1,-0.6 0,0 -3.1,12.5 -3.1,12.5 v 0 c -1.4,0.4 -0.7,0.2 -2.1,0.6 -2.2,0.6 -4.4,1.2 -6.6,1.7 -2.4,0.5 -4.8,1.1 -7.2,1.4 -2.5,0.4 -4.9,0.8 -7.4,1 -2.5,0.3 -4.9,0.4 -7.4,0.6 -2.6,0.2 -5.1,0.3 -7.7,0.4 -2.7,0.1 -5.3,0.1 -8,0.1 -2.7,0 -5.5,-0.1 -8.2,-0.1 -2.8,-0.1 -5.5,-0.3 -8.3,-0.6 -2.8,-0.2 -5.5,-0.5 -8.3,-0.8 -2.8,-0.3 -5.6,-0.6 -8.5,-1 -2.9,-0.4 -5.8,-0.8 -8.7,-1.3 -3,-0.5 -5.9,-1.1 -8.9,-1.6 -3.1,-0.6 -6.1,-1.1 -9.2,-1.8 -3.2,-0.6 -6.3,-1.2 -9.5,-1.9 -3.4,-0.6 -6.7,-1.3 -10.1,-1.9 -3.8,-0.7 -7.5,-1.3 -11.3,-1.9 -4.3,-0.7 -8.6,-1.3 -12.9,-2 -5,-0.7 -9.9,-1.4 -14.8,-2.1 -5.5,-0.7 -11,-1.4 -16.4,-2 -5.6,-0.7 -11.3,-1.4 -16.9,-2 -5.3,-0.6 -10.7,-1.2 -16.1,-1.7 -5,-0.5 -9.9,-0.9 -14.9,-1.3 -4.3,-0.4 -8.7,-0.7 -13.1,-1.1 -3.8,-0.3 -7.5,-0.7 -11.3,-0.9 -3.5,-0.2 -7,-0.4 -10.5,-0.6 -3.8,-0.1 -7.5,-0.3 -11.3,-0.3 -4,0 -8,-0.1 -12.1,0 -4.4,0.1 -8.8,0.1 -13.3,0.3 -4.8,0.2 -9.7,0.4 -14.6,0.7 -5.1,0.4 -10.2,0.8 -15.2,1.2 -5,0.5 -10,1 -15,1.6 -4.3,0.6 -8.7,1.2 -13,1.9 -3.5,0.6 -6.9,1.2 -10.4,1.9 -2.7,0.5 -5.4,1.1 -8,1.8 -2.1,0.5 -4.1,1 -6.2,1.6 -1.5,0.4 -3,0.9 -4.5,1.4 -1.1,0.4 -2.1,0.8 -3.2,1.2 0,0 2.6,-12.6 2.6,-12.6 z"
         id="path176" />
      <path
         style="fill:#f1caff;stroke-width:3.33"
         d="m -1973.7,-623.8 c 0.8,0.5 1.7,1.1 2.6,1.5 1.1,0.7 2.3,1.3 3.4,1.9 1.3,0.6 2.6,1.4 3.9,2 1.5,0.7 3,1.5 4.6,2.2 1.7,0.7 3.4,1.5 5.1,2.2 1.9,0.8 3.8,1.5 5.7,2.3 1.9,0.7 3.8,1.4 5.8,2 1.9,0.7 3.9,1.2 5.8,1.7 2,0.7 4.1,1.2 6.1,1.7 2.1,0.5 4.2,0.9 6.3,1.2 2.2,0.4 4.4,0.7 6.6,1 2.3,0.3 4.5,0.6 6.8,0.7 0.4,0 0.7,0 1.1,0.1 0,0 -5.7,11.6 -5.7,11.6 v 0 c -0.4,0 -0.8,-0.1 -1.2,-0.1 -2.4,-0.3 -4.8,-0.5 -7.2,-0.9 -2.3,-0.3 -4.6,-0.7 -6.9,-1.1 -2.2,-0.4 -4.5,-0.9 -6.7,-1.5 -2.1,-0.6 -4.2,-1.2 -6.3,-1.8 -2.1,-0.6 -4.2,-1.3 -6.3,-2 -2,-0.7 -4,-1.4 -6,-2.2 -1.9,-0.8 -3.8,-1.5 -5.7,-2.4 -1.8,-0.8 -3.5,-1.5 -5.3,-2.3 -1.6,-0.8 -3.2,-1.5 -4.7,-2.3 -1.4,-0.7 -2.8,-1.4 -4.1,-2.1 -1.2,-0.7 -2.4,-1.3 -3.6,-2 -1,-0.6 -2,-1.2 -2.9,-1.8 0,0 8.9,-9.3 8.9,-9.3 z"
         id="path178" />
      <path
         style="fill:#f1caff;stroke-width:3.33"
         d="m -1979.8,-573.1 c 0.9,-0.5 1.8,-0.9 2.7,-1.4 1.2,-0.6 2.6,-1.1 3.7,-1.8 1.4,-0.7 2.8,-1.4 4.2,-2.1 1.5,-0.7 3,-1.5 4.6,-2.2 1.7,-0.9 3.5,-1.5 5.1,-2.4 1.7,-0.9 3.5,-1.6 5.3,-2.5 1.8,-0.9 3.6,-1.8 5.5,-2.6 2,-0.8 4,-1.7 5.9,-2.6 1.9,-1 3.8,-1.8 5.7,-2.7 2,-0.9 4.1,-1.8 6.2,-2.5 2.1,-0.9 4.3,-1.6 6.5,-2.3 2.2,-0.6 4.4,-1.3 6.6,-2 1.6,-0.3 0.8,-0.2 2.3,-0.4 0,0 -3.6,12.4 -3.6,12.4 v 0 c -1.2,0.4 -0.6,0.2 -1.9,0.6 -2.1,0.7 -4.3,1.3 -6.4,2 -2.1,0.7 -4.1,1.6 -6.1,2.4 -1.9,0.8 -3.8,1.7 -5.7,2.6 -1.9,0.9 -3.9,1.8 -5.8,2.7 -1.9,0.9 -3.9,1.7 -5.8,2.6 -1.8,0.9 -3.6,1.8 -5.4,2.6 -1.8,0.8 -3.5,1.7 -5.3,2.5 -1.7,0.7 -3.4,1.6 -5.1,2.4 -1.5,0.8 -3,1.5 -4.5,2.2 -1.4,0.7 -2.8,1.4 -4.1,2.1 -1.2,0.5 -2.4,1.2 -3.6,1.8 -1,0.5 -1.9,1 -2.8,1.4 0,0 1.8,-12.8 1.8,-12.8 z"
         id="path180" />
    </g>
  </g>
  <g
     style="fill:#f1caff;stroke-width:1.67"
     transform="matrix(0.281782,0,0,0.20835,747.69,171.222)"
     id="g192">
    <path
       style="fill:#f1caff;stroke-width:3.33"
       d="m -2303.1,-611.7 c 1.1,-0.5 2.4,-0.8 3.6,-1.1 1.6,-0.5 3.2,-0.9 4.9,-1.3 2.1,-0.6 4.3,-1 6.4,-1.6 2.8,-0.6 5.6,-1.2 8.4,-1.7 3.5,-0.7 7,-1.3 10.6,-1.9 4.4,-0.6 8.8,-1.3 13.2,-1.8 5.1,-0.6 10.2,-1.1 15.3,-1.5 5.1,-0.4 10.3,-0.9 15.4,-1.2 4.9,-0.2 9.8,-0.5 14.8,-0.6 4.5,-0.1 8.9,-0.2 13.4,-0.2 4.1,0 8.2,0.1 12.2,0.1 3.8,0.1 7.6,0.2 11.4,0.4 3.6,0.2 7.2,0.4 10.8,0.7 3.8,0.3 7.5,0.7 11.3,1 4.3,0.4 8.7,0.7 13.1,1.1 5,0.4 10,0.8 15,1.3 5.4,0.5 10.8,1.2 16.2,1.8 5.7,0.7 11.3,1.4 16.9,2 5.5,0.6 11,1.3 16.5,2.1 5,0.7 9.9,1.4 14.9,2.1 4.3,0.7 8.7,1.3 13.1,2 3.8,0.6 7.6,1.3 11.5,2 3.4,0.6 6.8,1.3 10.2,2 3.2,0.6 6.3,1.3 9.5,1.9 3,0.6 6,1.1 9.1,1.7 2.9,0.6 5.8,1.1 8.7,1.6 2.8,0.5 5.6,0.8 8.4,1.2 2.8,0.3 5.5,0.6 8.3,0.9 2.7,0.3 5.4,0.5 8.2,0.7 2.6,0.3 5.3,0.3 7.9,0.4 2.6,0.1 5.3,0.1 7.9,0 2.6,0 5.2,-0.1 7.8,-0.2 2.5,-0.1 5,-0.3 7.5,-0.5 2.4,-0.1 4.8,-0.4 7.2,-0.7 2.3,-0.3 4.7,-0.8 7,-1.1 2.2,-0.5 4.4,-0.9 6.6,-1.6 2.1,-0.6 4.2,-1.1 6.3,-1.8 1.4,-0.4 0.7,-0.2 2.1,-0.6 0,0 -3.1,12.5 -3.1,12.5 v 0 c -1.4,0.4 -0.7,0.2 -2.1,0.6 -2.2,0.6 -4.4,1.2 -6.6,1.7 -2.4,0.5 -4.8,1.1 -7.2,1.4 -2.5,0.4 -4.9,0.8 -7.4,1 -2.5,0.3 -4.9,0.4 -7.4,0.6 -2.6,0.2 -5.1,0.3 -7.7,0.4 -2.7,0.1 -5.3,0.1 -8,0.1 -2.7,0 -5.5,-0.1 -8.2,-0.1 -2.8,-0.1 -5.5,-0.3 -8.3,-0.6 -2.8,-0.2 -5.5,-0.5 -8.3,-0.8 -2.8,-0.3 -5.6,-0.6 -8.5,-1 -2.9,-0.4 -5.8,-0.8 -8.7,-1.3 -3,-0.5 -5.9,-1.1 -8.9,-1.6 -3.1,-0.6 -6.1,-1.1 -9.2,-1.8 -3.2,-0.6 -6.3,-1.2 -9.5,-1.9 -3.4,-0.6 -6.7,-1.3 -10.1,-1.9 -3.8,-0.7 -7.5,-1.3 -11.3,-1.9 -4.3,-0.7 -8.6,-1.3 -12.9,-2 -5,-0.7 -9.9,-1.4 -14.8,-2.1 -5.5,-0.7 -11,-1.4 -16.4,-2 -5.6,-0.7 -11.3,-1.4 -16.9,-2 -5.3,-0.6 -10.7,-1.2 -16.1,-1.7 -5,-0.5 -9.9,-0.9 -14.9,-1.3 -4.3,-0.4 -8.7,-0.7 -13.1,-1.1 -3.8,-0.3 -7.5,-0.7 -11.3,-0.9 -3.5,-0.2 -7,-0.4 -10.5,-0.6 -3.8,-0.1 -7.5,-0.3 -11.3,-0.3 -4,0 -8,-0.1 -12.1,0 -4.4,0.1 -8.8,0.1 -13.3,0.3 -4.8,0.2 -9.7,0.4 -14.6,0.7 -5.1,0.4 -10.2,0.8 -15.2,1.2 -5,0.5 -10,1 -15,1.6 -4.3,0.6 -8.7,1.2 -13,1.9 -3.5,0.6 -6.9,1.2 -10.4,1.9 -2.7,0.5 -5.4,1.1 -8,1.8 -2.1,0.5 -4.1,1 -6.2,1.6 -1.5,0.4 -3,0.9 -4.5,1.4 -1.1,0.4 -2.1,0.8 -3.2,1.2 0,0 2.6,-12.6 2.6,-12.6 z"
       id="path186" />
    <path
       style="fill:#f1caff;stroke-width:3.33"
       d="m -1973.7,-623.8 c 0.8,0.5 1.7,1.1 2.6,1.5 1.1,0.7 2.3,1.3 3.4,1.9 1.3,0.6 2.6,1.4 3.9,2 1.5,0.7 3,1.5 4.6,2.2 1.7,0.7 3.4,1.5 5.1,2.2 1.9,0.8 3.8,1.5 5.7,2.3 1.9,0.7 3.8,1.4 5.8,2 1.9,0.7 3.9,1.2 5.8,1.7 2,0.7 4.1,1.2 6.1,1.7 2.1,0.5 4.2,0.9 6.3,1.2 2.2,0.4 4.4,0.7 6.6,1 2.3,0.3 4.5,0.6 6.8,0.7 0.4,0 0.7,0 1.1,0.1 0,0 -5.7,11.6 -5.7,11.6 v 0 c -0.4,0 -0.8,-0.1 -1.2,-0.1 -2.4,-0.3 -4.8,-0.5 -7.2,-0.9 -2.3,-0.3 -4.6,-0.7 -6.9,-1.1 -2.2,-0.4 -4.5,-0.9 -6.7,-1.5 -2.1,-0.6 -4.2,-1.2 -6.3,-1.8 -2.1,-0.6 -4.2,-1.3 -6.3,-2 -2,-0.7 -4,-1.4 -6,-2.2 -1.9,-0.8 -3.8,-1.5 -5.7,-2.4 -1.8,-0.8 -3.5,-1.5 -5.3,-2.3 -1.6,-0.8 -3.2,-1.5 -4.7,-2.3 -1.4,-0.7 -2.8,-1.4 -4.1,-2.1 -1.2,-0.7 -2.4,-1.3 -3.6,-2 -1,-0.6 -2,-1.2 -2.9,-1.8 0,0 8.9,-9.3 8.9,-9.3 z"
       id="path188" />
    <path
       style="fill:#f1caff;stroke-width:3.33"
       d="m -1979.8,-573.1 c 0.9,-0.5 1.8,-0.9 2.7,-1.4 1.2,-0.6 2.6,-1.1 3.7,-1.8 1.4,-0.7 2.8,-1.4 4.2,-2.1 1.5,-0.7 3,-1.5 4.6,-2.2 1.7,-0.9 3.5,-1.5 5.1,-2.4 1.7,-0.9 3.5,-1.6 5.3,-2.5 1.8,-0.9 3.6,-1.8 5.5,-2.6 2,-0.8 4,-1.7 5.9,-2.6 1.9,-1 3.8,-1.8 5.7,-2.7 2,-0.9 4.1,-1.8 6.2,-2.5 2.1,-0.9 4.3,-1.6 6.5,-2.3 2.2,-0.6 4.4,-1.3 6.6,-2 1.6,-0.3 0.8,-0.2 2.3,-0.4 0,0 -3.6,12.4 -3.6,12.4 v 0 c -1.2,0.4 -0.6,0.2 -1.9,0.6 -2.1,0.7 -4.3,1.3 -6.4,2 -2.1,0.7 -4.1,1.6 -6.1,2.4 -1.9,0.8 -3.8,1.7 -5.7,2.6 -1.9,0.9 -3.9,1.8 -5.8,2.7 -1.9,0.9 -3.9,1.7 -5.8,2.6 -1.8,0.9 -3.6,1.8 -5.4,2.6 -1.8,0.8 -3.5,1.7 -5.3,2.5 -1.7,0.7 -3.4,1.6 -5.1,2.4 -1.5,0.8 -3,1.5 -4.5,2.2 -1.4,0.7 -2.8,1.4 -4.1,2.1 -1.2,0.5 -2.4,1.2 -3.6,1.8 -1,0.5 -1.9,1 -2.8,1.4 0,0 1.8,-12.8 1.8,-12.8 z"
       id="path190" />
  </g>
  <g
     style="fill:#f1caff;stroke-width:1.67"
     transform="matrix(0.268183,0,0,0.205537,727.87,152.812)"
     id="g200">
    <path
       style="fill:#f1caff;stroke-width:3.33"
       d="m -2323.5,-385 c 1.2,-0.5 2.7,-0.7 4,-1.1 2.4,-0.6 4.7,-1.1 7,-1.6 3,-0.6 6.1,-1.2 9.2,-1.8 3.5,-0.6 7,-1.2 10.5,-1.8 3.9,-0.6 7.8,-1 11.8,-1.4 4.2,-0.4 8.5,-0.8 12.8,-1.1 4.6,-0.3 9.1,-0.6 13.7,-0.9 4.7,-0.2 9.5,-0.5 14.2,-0.6 4.9,-0.1 9.8,-0.1 14.7,-0.2 5.1,-0.1 10.2,-0.1 15.3,-0.2 5,0 10.1,-0.1 15.1,-0.1 4.9,-0.1 9.8,-0.1 14.7,0 4.8,0 9.5,0.2 14.3,0.4 4.7,0.1 9.3,0.4 13.9,0.6 4.6,0.2 9.1,0.5 13.7,0.8 4.5,0.3 9,0.7 13.5,1.2 4.3,0.4 8.7,0.9 13,1.5 4.5,0.5 9.1,1.1 13.6,1.7 4.3,0.7 8.7,1.2 13,1.8 4,0.6 8,1.1 12,1.8 3.7,0.6 7.4,1.1 11.1,1.6 3.6,0.4 7.1,1 10.7,1.5 3.4,0.5 6.8,0.9 10.2,1.2 3.3,0.4 6.7,0.7 10,0.9 3.3,0.3 6.6,0.5 9.8,0.7 3.2,0.2 6.5,0.4 9.7,0.6 3.2,0.2 6.4,0.3 9.6,0.4 3.1,0.1 6.1,0.1 9.2,0.1 2,-10e-4 1,0 3.1,-10e-4 0,0 -6.3,13.1 -6.3,13.1 v 0 c -2.1,0 -1,0 -3.1,0 -3.2,0 -6.4,0 -9.6,-0.2 -3.3,-0.1 -6.5,-0.3 -9.7,-0.5 -3.3,-0.2 -6.6,-0.4 -9.9,-0.6 -3.3,-0.2 -6.7,-0.5 -10,-0.8 -3.4,-0.3 -6.8,-0.7 -10.2,-1 -3.5,-0.4 -7,-0.8 -10.5,-1.3 -3.5,-0.5 -7.1,-1 -10.7,-1.5 -3.7,-0.5 -7.4,-1.1 -11.2,-1.7 -4,-0.6 -8,-1.1 -12,-1.7 -4.3,-0.6 -8.5,-1.2 -12.8,-1.7 -4.5,-0.6 -9,-1.2 -13.6,-1.7 -4.3,-0.5 -8.5,-1 -12.8,-1.4 -4.4,-0.4 -8.8,-0.8 -13.2,-1 -4.5,-0.3 -9,-0.5 -13.6,-0.8 -4.6,-0.2 -9.2,-0.4 -13.8,-0.6 -4.7,-0.2 -9.4,-0.3 -14.1,-0.3 -4.8,0 -9.7,0 -14.6,0.1 -5,0 -10.1,0.1 -15.1,0.1 -5.1,0.1 -10.2,0.1 -15.2,0.2 -4.8,0.1 -9.7,0.1 -14.6,0.3 -4.7,0.2 -9.3,0.4 -14,0.7 -4.5,0.3 -9,0.6 -13.5,0.9 -4.2,0.3 -8.3,0.7 -12.4,1.2 -3.8,0.4 -7.6,0.9 -11.3,1.6 -3.4,0.6 -6.8,1.2 -10.2,1.8 -2.9,0.6 -5.9,1.2 -8.8,1.9 -2.3,0.6 -4.6,1.1 -6.8,1.7 -1.5,0.3 -2.9,0.7 -4.4,1 0,0 4.4,-13.7 4.4,-13.7 z"
       id="path194" />
    <path
       style="fill:#f1caff;stroke-width:3.33"
       d="m -2039.7,-405.6 c 1.2,0.9 2.2,1.9 3.3,2.8 1.2,1 2.4,1.9 3.6,2.9 1.4,1 2.8,1.9 4.2,2.9 1.5,1.1 3.1,1.9 4.6,2.9 1.6,0.9 3.3,1.8 5,2.6 1.8,1 3.7,1.9 5.6,2.8 1.9,0.8 3.8,1.7 5.7,2.5 1.9,1 4,1.6 6,2.5 2,0.8 4,1.5 6,2.1 2.2,0.6 4.3,1.3 6.5,1.9 1.4,0.4 0.7,0.2 2.2,0.5 0,0 -7.7,12.1 -7.7,12.1 v 0 c -1.6,-0.4 -0.8,-0.2 -2.4,-0.7 -2.2,-0.7 -4.5,-1.3 -6.7,-2 -2.2,-0.7 -4.4,-1.6 -6.5,-2.4 -2,-0.8 -4.1,-1.7 -6.1,-2.5 -2,-0.9 -4,-1.8 -6,-2.8 -1.9,-0.9 -3.8,-1.8 -5.7,-2.8 -1.9,-1 -3.8,-2 -5.5,-3.1 -1.7,-1 -3.3,-2.1 -5,-3.2 -1.5,-1.1 -3.1,-2.1 -4.5,-3.3 -1.3,-1 -2.6,-2.1 -3.9,-3.2 -0.9,-0.8 -1.9,-1.6 -2.9,-2.3 0,0 10.3,-10 10.3,-10 z"
       id="path196" />
    <path
       style="fill:#f1caff;stroke-width:3.33"
       d="m -2041.6,-356.3 c 0.9,-0.7 1.9,-1.5 2.8,-2.2 3.5,-2.5 7.4,-4.6 11.2,-6.7 1.7,-0.9 3.4,-1.7 5.1,-2.5 1.9,-0.9 3.8,-1.8 5.7,-2.6 2,-1 4.1,-1.6 6.2,-2.6 2.1,-0.9 4.3,-1.8 6.5,-2.5 2.2,-0.8 4.5,-1.7 6.8,-2.4 1.6,-0.5 0.8,-0.2 2.4,-0.7 0,0 -3.4,13.9 -3.4,13.9 v 0 c -1.4,0.5 -0.7,0.2 -2.1,0.7 -2.1,0.8 -4.3,1.6 -6.4,2.4 -2.1,0.9 -4.1,1.7 -6.2,2.6 -2,0.8 -3.9,1.7 -5.9,2.6 -1.9,0.9 -3.7,1.7 -5.5,2.7 -1.6,0.8 -3.1,1.6 -4.6,2.5 -3.1,1.8 0.8,-0.5 6,-3.5 1.8,-1.1 -4.1,2.2 -2.3,1.3 -0.9,0.4 -1.8,1 -2.5,1.7 0,0 -13.5,-4.8 -13.5,-4.8 z"
       id="path198" />
  </g>
  <g
     style="fill:#f1caff;stroke-width:1.67"
     transform="matrix(0.268183,0,0,0.204251,727.1,160.237)"
     id="g208">
    <path
       style="fill:#f1caff;stroke-width:3.33"
       d="m -2309.8,-274.9 c 1,-0.6 2.3,-0.9 3.4,-1.3 1.5,-0.6 3.1,-1.1 4.8,-1.6 2.1,-0.5 4.2,-1.2 6.3,-1.7 2.4,-0.6 4.8,-1 7.2,-1.4 2.5,-0.6 5,-1 7.5,-1.4 2.7,-0.4 5.4,-0.8 8.1,-1.1 2.9,-0.3 5.8,-0.6 8.7,-0.8 3.1,-0.3 6.2,-0.5 9.3,-0.7 3.3,-0.1 6.7,-0.1 10,-0.2 3.3,-0.1 6.6,-0.1 9.9,0 3.2,0.1 6.5,0.1 9.7,0.2 3.3,0.1 6.5,0.3 9.7,0.4 3.2,0.1 6.3,0.3 9.5,0.4 3.1,0.2 6.2,0.4 9.3,0.6 3.1,0.2 6.2,0.5 9.3,0.8 3.1,0.2 6.2,0.5 9.3,0.8 3.1,0.2 6.2,0.6 9.3,1 3.1,0.3 6.2,0.7 9.3,1.1 3,0.5 6.1,0.9 9.2,1.4 3,0.5 6,0.9 9,1.4 2.9,0.4 5.8,1 8.7,1.5 2.9,0.4 5.7,1 8.6,1.5 2.9,0.5 5.7,0.9 8.6,1.3 3,0.5 5.9,0.9 8.9,1.3 3,0.4 5.9,0.7 8.9,1 3,0.3 6,0.5 9,0.8 3,0.2 6,0.4 9.1,0.6 2.9,0 5.8,0.1 8.7,0.1 2.8,-0.1 5.6,-0.1 8.3,-0.3 2.8,-0.2 5.5,-0.3 8.3,-0.5 2.7,-0.2 5.4,-0.5 8.1,-0.8 2.6,-0.3 5.2,-0.6 7.8,-1.1 0.4,-0.1 0.9,-0.1 1.3,-0.2 0,0 -4.8,13.6 -4.8,13.6 v 0 c -0.5,0.1 -0.9,0.1 -1.4,0.2 -2.8,0.4 -5.5,0.7 -8.2,1 -2.8,0.3 -5.6,0.5 -8.4,0.7 -2.9,0.1 -5.7,0.3 -8.6,0.4 -3,0.1 -5.9,0.2 -8.9,0.1 -3,-0.1 -6.1,-0.1 -9.1,-0.3 -3.1,-0.2 -6.2,-0.4 -9.2,-0.7 -3.1,-0.3 -6.2,-0.5 -9.2,-0.9 -3.1,-0.3 -6.1,-0.7 -9.2,-1.1 -3,-0.4 -5.9,-0.9 -8.9,-1.3 -3,-0.4 -6,-0.9 -8.9,-1.4 -2.9,-0.5 -5.8,-1 -8.6,-1.5 -2.9,-0.5 -5.8,-1 -8.6,-1.4 -3,-0.5 -5.9,-0.9 -8.9,-1.4 -3,-0.4 -5.9,-0.9 -8.9,-1.2 -3.1,-0.4 -6.2,-0.7 -9.2,-1.1 -3.1,-0.3 -6.1,-0.6 -9.2,-0.9 -3.1,-0.3 -6.1,-0.5 -9.2,-0.7 -3,-0.3 -6.1,-0.5 -9.1,-0.7 -3,-0.2 -6.1,-0.4 -9.1,-0.5 -3.2,-0.1 -6.4,-0.3 -9.6,-0.4 -3.2,-0.1 -6.3,-0.3 -9.5,-0.3 -3.2,-0.1 -6.4,-0.1 -9.7,-0.2 -3.2,0 -6.4,0.1 -9.6,0.1 -3.2,0.1 -6.4,0.1 -9.6,0.4 -3,0.2 -6.1,0.4 -9.1,0.7 -2.8,0.3 -5.5,0.6 -8.3,1 -2.6,0.4 -5.1,0.8 -7.7,1.2 -2.5,0.5 -4.9,1 -7.4,1.5 -2.2,0.5 -4.3,1 -6.5,1.6 -1.9,0.6 -3.9,1.1 -5.7,1.8 -1.5,0.5 -3,1.1 -4.6,1.6 -1.1,0.4 -2.2,1 -3.3,1.3 0,0 3,-14.1 3,-14.1 z"
       id="path202" />
    <path
       style="fill:#f1caff;stroke-width:3.33"
       d="m -2089.2,-293.3 c 1,0.5 2,1 3.1,1.3 1.4,0.5 2.9,1.1 4.3,1.7 1.8,0.7 3.6,1.5 5.3,2.3 2,0.9 4.1,1.8 6.1,2.8 2.1,1 4.2,2 6.3,3 2.1,1 4.3,2 6.4,2.9 2.1,0.9 4.3,1.8 6.4,2.7 2.1,0.8 4.3,1.5 6.5,2.1 2.3,0.6 4.6,1.2 6.9,1.7 2.4,0.5 4.9,0.9 7.3,1.3 2.5,0.4 4.9,0.7 7.4,0.9 1.6,0.1 3.3,0.3 4.9,0.3 0,0 -6.2,12.9 -6.2,12.9 v 0 c -1.8,-0.1 -3.5,-0.3 -5.3,-0.5 -2.7,-0.3 -5.3,-0.7 -8,-1.2 -2.6,-0.5 -5.2,-0.9 -7.7,-1.5 -2.5,-0.6 -5,-1.2 -7.5,-2 -2.4,-0.8 -4.8,-1.6 -7.1,-2.6 -2.3,-0.9 -4.5,-1.9 -6.7,-2.9 -2.2,-1 -4.3,-2 -6.5,-3 -2.1,-1 -4.2,-2 -6.2,-3 -2,-0.9 -3.9,-1.8 -5.9,-2.7 -1.7,-0.7 -3.4,-1.5 -5.2,-2.2 -1.4,-0.5 -2.8,-1.1 -4.2,-1.6 -1,-0.5 -2,-0.9 -3.1,-1.3 0,0 8.6,-11.4 8.6,-11.4 z"
       id="path204" />
    <path
       style="fill:#f1caff;stroke-width:3.33"
       d="m -2087.5,-244.5 c 0.9,-0.9 2,-1.6 3.1,-2.4 3.6,-2.2 7.3,-4.3 11,-6.4 1.4,-0.8 3,-1.3 4.4,-2.1 1.6,-0.8 3.3,-1.4 4.9,-2.2 1.8,-0.7 3.6,-1.6 5.4,-2.3 1.9,-0.8 3.8,-1.6 5.8,-2.2 2.1,-0.9 4.2,-1.5 6.4,-2.1 2.1,-0.8 4.3,-1.4 6.5,-1.9 2.4,-0.6 4.8,-1 7.2,-1.5 2.4,-0.3 4.8,-0.9 7.2,-1.3 1.6,-0.4 3.3,-0.5 5,-0.7 0,0 -4.8,13.5 -4.8,13.5 v 0 c -1.5,0.3 -3,0.6 -4.5,0.9 -2.4,0.5 -4.8,0.8 -7.1,1.3 -2.2,0.5 -4.4,1 -6.6,1.7 -2.1,0.6 -4.2,1.4 -6.3,2 -2,0.7 -3.9,1.4 -5.9,2.2 -1.8,0.8 -3.6,1.5 -5.4,2.3 -1.7,0.8 -3.4,1.5 -5.1,2.3 -1.6,0.7 -3.2,1.5 -4.7,2.3 -1.4,0.6 -2.7,1.5 -4,2.2 12.8,-7.4 6.6,-3.9 3.8,-2.1 -1,0.4 -1.8,1 -2.7,1.5 0,0 -13.5,-4.8 -13.5,-4.8 z"
       id="path206" />
  </g>
  <g
     style="fill:#f1caff;stroke-width:1.67"
     transform="matrix(0.268183,0,0,0.198773,728.26,165.417)"
     id="g216">
    <path
       style="fill:#f1caff;stroke-width:3.33"
       d="m -2298.2,-160.3 c 1.5,-0.5 3.1,-0.8 4.6,-1.4 2,-0.6 4,-1.1 6,-1.6 2.3,-0.6 4.6,-1.2 7,-1.7 2.7,-0.5 5.4,-1 8.1,-1.5 3.1,-0.5 6.2,-1 9.4,-1.4 3.4,-0.4 6.9,-0.8 10.3,-1.1 3.6,-0.4 7.2,-0.5 10.7,-0.6 3.5,-0.2 7,-0.1 10.6,-0.1 3.5,0 6.9,0 10.4,0.1 3.4,0.1 6.9,0.3 10.3,0.5 3.5,0.2 7,0.5 10.5,0.7 3.6,0.3 7.2,0.7 10.8,1.1 3.5,0.4 7,0.8 10.5,1.2 3.4,0.4 6.8,0.8 10.2,1.1 3.4,0.3 6.7,0.7 10.1,1.1 3.2,0.4 6.5,0.7 9.7,0.9 3.2,0.3 6.4,0.5 9.7,0.7 3.1,0.3 6.2,0.3 9.3,0.3 3.1,0.1 6.2,0 9.3,0 3.1,0 6.1,-0.2 9.2,-0.4 3,-0.2 5.9,-0.5 8.9,-0.7 2.8,-0.4 5.7,-0.5 8.5,-1 1.4,-0.2 2.8,-0.4 4.3,-0.5 0,0 -5.4,13.5 -5.4,13.5 v 0 c -1.4,0.2 -2.9,0.4 -4.3,0.5 -3,0.3 -6,0.6 -8.9,0.8 -3,0.2 -6.1,0.5 -9.2,0.6 -3.2,0.2 -6.3,0.3 -9.5,0.3 -3.2,0 -6.4,-0.1 -9.7,-0.1 -3.3,-0.1 -6.5,-0.3 -9.8,-0.5 -3.3,-0.2 -6.6,-0.5 -9.9,-0.8 -3.3,-0.3 -6.6,-0.7 -9.9,-1 -3.3,-0.4 -6.7,-0.7 -10,-1 -3.5,-0.4 -6.9,-0.8 -10.4,-1.2 -3.5,-0.4 -7,-0.7 -10.4,-1.2 -3.5,-0.4 -7,-0.7 -10.4,-1 -3.4,-0.3 -6.9,-0.5 -10.3,-0.7 -3.3,-0.2 -6.6,-0.3 -10,-0.3 -3.4,-0.1 -6.7,0 -10.1,0 -3.4,0 -6.8,0.1 -10.1,0.3 -3.4,0.2 -6.8,0.4 -10.2,0.8 -3.3,0.3 -6.6,0.7 -9.9,1.2 -2.9,0.4 -5.9,0.9 -8.8,1.5 -2.6,0.5 -5.1,0.9 -7.7,1.6 -2.2,0.6 -4.4,1.1 -6.6,1.7 -1.9,0.5 -3.7,1 -5.5,1.7 -1.4,0.4 -2.8,0.9 -4.2,1.5 0,0 3,-14.1 3,-14.1 z"
       id="path210" />
    <path
       style="fill:#f1caff;stroke-width:3.33"
       d="m -2136.5,-184.3 c 1.3,0.6 2.4,1.4 3.6,2.1 1.2,0.8 2.5,1.7 3.7,2.5 1.4,0.9 2.8,1.7 4.1,2.6 1.6,0.9 3.2,1.8 4.8,2.7 1.8,0.9 3.5,1.8 5.3,2.6 1.9,0.8 3.7,1.6 5.6,2.4 2,0.8 4,1.5 6,2.3 2,0.8 4,1.4 6.1,2.1 2.1,0.7 4.3,1.3 6.5,1.9 2.3,0.6 4.7,1 7,1.5 0,0 -7.5,12.2 -7.5,12.2 v 0 c -2.5,-0.5 -4.9,-1.1 -7.3,-1.7 -2.4,-0.7 -4.7,-1.4 -7,-2.2 -2.2,-0.7 -4.3,-1.5 -6.4,-2.4 -2,-0.8 -4.1,-1.6 -6.1,-2.4 -2,-0.9 -4,-1.8 -6,-2.7 -1.9,-1 -3.8,-1.9 -5.7,-2.9 -1.7,-1 -3.4,-1.9 -5.1,-3 -1.4,-0.9 -2.9,-1.8 -4.3,-2.7 -1.1,-0.8 -2.3,-1.5 -3.5,-2.2 -0.8,-0.5 -1.6,-0.9 -2.6,-1.2 0,0 8.6,-11.4 8.6,-11.4 z"
       id="path212" />
    <path
       style="fill:#f1caff;stroke-width:3.33"
       d="m -2143.8,-143 c 1.2,-0.3 2.3,-0.9 3.5,-1.3 1.3,-0.7 2.8,-1.1 4.1,-1.7 1.8,-0.7 3.4,-1.5 5.2,-2.2 2.1,-0.8 4.3,-1.6 6.4,-2.3 2.2,-0.7 4.5,-1.5 6.7,-2.3 2.3,-0.8 4.7,-1.6 7,-2.4 2.5,-0.8 4.9,-1.7 7.4,-2.4 2.5,-1 5.1,-1.6 7.7,-2.4 2.6,-0.7 5.1,-1.6 7.7,-2.4 1.3,-0.3 2.6,-0.8 3.9,-1.1 0,0 -3.5,13.9 -3.5,13.9 v 0 c -1.3,0.4 -2.5,0.7 -3.8,1.1 -2.5,0.8 -5.1,1.6 -7.6,2.4 -2.5,0.7 -5,1.6 -7.5,2.4 -2.4,0.8 -4.8,1.6 -7.2,2.5 -2.3,0.8 -4.6,1.6 -6.9,2.4 -2.2,0.7 -4.4,1.5 -6.6,2.3 -2,0.8 -4.1,1.5 -6.1,2.4 -1.7,0.8 -3.4,1.5 -5.2,2.2 -1.5,0.5 -2.9,1.2 -4.4,1.7 -1.1,0.5 -2.2,0.8 -3.3,1.3 0,0 2.7,-14.1 2.7,-14.1 z"
       id="path214" />
  </g>
  <g
     style="fill:#f1caff;stroke-width:1.67"
     transform="matrix(0.268183,0,0,0.187037,727.48,172.58)"
     id="g224">
    <path
       style="fill:#f1caff;stroke-width:3.33"
       d="m -2283.4,-48.3 c 1.4,-0.5 2.9,-0.8 4.3,-1.2 2,-0.6 4,-1.2 6,-1.7 2.4,-0.6 4.8,-1.2 7.2,-1.8 2.7,-0.6 5.4,-1 8.2,-1.4 3,-0.4 6,-0.8 9.1,-1.1 3.3,-0.4 6.5,-0.5 9.8,-0.6 3.3,-0.2 6.6,-0.1 9.8,-0.2 3.3,0.1 6.6,0.2 9.9,0.4 3.3,0.2 6.6,0.6 9.9,0.9 3.3,0.4 6.7,0.8 10,1.3 3.1,0.5 6.3,0.9 9.4,1.3 3,0.5 6.1,1 9.2,1.4 3,0.4 6,0.9 9,1.3 3,0.5 6,1 8.9,1.4 3,0.4 5.9,0.7 8.9,1.1 3,0.3 5.9,0.4 8.9,0.5 2.9,0.1 5.9,0.1 8.8,0.1 2.8,-0.1 5.5,-0.3 8.2,-0.5 2.2,-0.3 4.4,-0.4 6.5,-0.8 0,0 -5.3,13.5 -5.3,13.5 v 0 c -2.4,0.2 -4.7,0.5 -7.1,0.6 -3,0.2 -5.9,0.3 -8.9,0.2 -3.1,0 -6.2,-0.1 -9.2,-0.3 -3.2,-0.2 -6.3,-0.4 -9.4,-0.8 -3.1,-0.4 -6.2,-0.7 -9.2,-1.2 -3,-0.5 -6,-1 -8.9,-1.4 -3,-0.4 -5.9,-0.9 -8.9,-1.3 -3,-0.4 -6.1,-0.9 -9.1,-1.3 -3.2,-0.4 -6.4,-0.9 -9.5,-1.4 -3.2,-0.4 -6.5,-0.9 -9.7,-1.2 -3.1,-0.3 -6.3,-0.6 -9.5,-0.7 -3.1,-0.1 -6.2,-0.2 -9.3,-0.2 -3.1,0 -6.3,0.1 -9.4,0.3 -3.1,0.2 -6.1,0.4 -9.2,0.8 -2.9,0.4 -5.7,0.7 -8.6,1.2 -2.5,0.5 -5,1 -7.5,1.6 -2.3,0.6 -4.6,1.2 -6.9,1.8 -2,0.6 -4,1.2 -6,1.7 -1.4,0.4 -2.9,0.9 -4.3,1.2 0,0 3.9,-13.9 3.9,-13.9 z"
       id="path218" />
    <path
       style="fill:#f1caff;stroke-width:3.33"
       d="m -2159.1,-69.3 c 1.2,0.6 2.3,1.2 3.5,2 1.4,0.7 2.7,1.6 4,2.3 1.7,1 3.3,2 5,3 1.8,1.2 3.6,2.3 5.5,3.4 1.9,1.2 3.8,2.4 5.7,3.6 1.8,1.1 3.6,2.2 5.5,3.2 1.8,1.2 3.8,2 5.8,3 1.9,1 3.9,1.8 5.8,2.5 2.1,0.7 4.2,1.3 6.3,1.9 0.4,0.1 0.8,0.2 1.1,0.3 0,0 -7.8,12 -7.8,12 v 0 c -0.4,-0.1 -0.8,-0.2 -1.2,-0.3 -2.4,-0.7 -4.8,-1.5 -7,-2.4 -2.2,-0.9 -4.4,-1.9 -6.5,-3 -2,-1 -4,-2.1 -6,-3.2 -2,-1.1 -3.9,-2.4 -5.9,-3.6 -1.9,-1.2 -3.8,-2.4 -5.6,-3.6 -1.8,-1.1 -3.5,-2.2 -5.3,-3.3 -1.6,-1 -3.2,-1.9 -4.8,-2.9 -1.4,-0.8 -2.8,-1.6 -4.1,-2.4 -1.1,-0.6 -2.1,-1.2 -3.2,-1.7 0,0 9.4,-10.8 9.4,-10.8 z"
       id="path220" />
    <path
       style="fill:#f1caff;stroke-width:3.33"
       d="m -2157.7,-31.1 c 1.1,-0.4 2.2,-0.9 3.3,-1.3 1.4,-0.5 2.9,-0.9 4.3,-1.5 1.7,-0.6 3.3,-1.2 5,-1.8 1.7,-0.8 3.6,-1.2 5.3,-1.9 1.9,-0.6 3.8,-1.2 5.7,-1.8 2.1,-0.6 4.1,-1.2 6.2,-1.8 2.2,-0.6 4.3,-1.3 6.5,-1.8 2,-0.5 3.9,-0.9 5.9,-1.2 0,0 -4.4,13.7 -4.4,13.7 v 0 c -1.8,0.4 -3.5,0.8 -5.3,1.4 -2.1,0.6 -4.2,1.3 -6.3,1.8 -2,0.6 -4,1.1 -5.9,1.8 -1.9,0.6 -3.8,1.1 -5.6,1.8 -1.8,0.5 -3.5,1.3 -5.3,1.9 -1.6,0.6 -3.3,1.2 -4.9,1.8 -1.4,0.5 -2.9,1 -4.3,1.5 -1.3,0.4 -2.5,0.8 -3.9,1.1 0,0 3.5,-13.9 3.5,-13.9 z"
       id="path222" />
  </g>
  <g
     style="fill:#f1caff;stroke-width:1.67"
     transform="matrix(0.268183,0,0,0.186768,726.71,182.866)"
     id="g232">
    <path
       style="fill:#f1caff;stroke-width:3.33"
       d="m -2256.8,62 c 1.3,-0.3 2.5,-0.8 3.7,-1.2 1.6,-0.4 3.1,-1 4.7,-1.4 1.9,-0.5 3.8,-0.9 5.7,-1.2 2.1,-0.5 4.3,-0.6 6.5,-0.7 2.3,-0.1 4.6,-0.1 7,-0.1 2.3,0.1 4.7,0.2 7,0.3 2.4,0.1 4.8,0.1 7.2,0.2 2.5,0.1 5,0.1 7.5,0.1 2.5,0.1 5.1,0.1 7.6,0 2.6,-0.1 5.3,-0.2 7.9,-0.2 2.7,-0.1 5.4,-0.1 8.1,-0.2 1.4,0 2.7,0 4.1,-0.1 0,0 -5.7,13.2 -5.7,13.2 v 0 c -1.4,0 -2.7,0 -4.1,0.1 -2.7,0.1 -5.4,0.1 -8.1,0.2 -2.7,0.1 -5.3,0.2 -8,0.2 -2.6,0 -5.3,-0.1 -7.9,-0.1 -2.5,0 -5,-0.1 -7.5,-0.2 -2.4,-0.1 -4.8,-0.1 -7.2,-0.2 -2.2,-0.1 -4.4,-0.2 -6.6,-0.1 -2.1,0 -4.2,0.1 -6.3,0.4 -1.9,0.2 -3.8,0.6 -5.7,1 -1.7,0.4 -3.4,0.8 -5,1.4 -1.5,0.5 -3,1 -4.5,1.5 -1.2,0.4 -2.4,0.8 -3.6,1.2 0,0 3.1,-14 3.1,-14 z"
       id="path226" />
    <path
       style="fill:#f1caff;stroke-width:3.33"
       d="m -2209.4,33.7 c 1.1,0.5 2.3,1.2 3.3,1.9 1.2,0.8 2.4,1.6 3.5,2.4 1.2,0.8 2.3,1.8 3.5,2.6 1.4,1 2.8,2 4.1,3 1.5,1.1 3.1,2.2 4.6,3.4 1.6,1.1 3.2,2.2 4.8,3.3 1.6,1.2 3.4,2.1 5.1,3.2 1.8,1 3.5,2 5.3,2.9 1.8,0.9 3.7,1.6 5.6,2.3 2,0.7 4,1.5 6.1,2.1 0,0 -8.1,11.8 -8.1,11.8 v 0 c -2.2,-0.8 -4.4,-1.6 -6.5,-2.4 -2.2,-0.9 -4.3,-1.8 -6.4,-3 -1.9,-1.1 -3.9,-2.1 -5.7,-3.3 -1.8,-1.1 -3.6,-2.3 -5.4,-3.5 -1.7,-1.2 -3.4,-2.3 -5.1,-3.6 -1.5,-1.1 -3.1,-2.2 -4.6,-3.3 -1.4,-1 -2.7,-2 -4,-2.9 -1.2,-0.9 -2.4,-1.8 -3.6,-2.7 -1,-0.7 -2,-1.4 -3.1,-2 -0.9,-0.4 -1.7,-0.9 -2.6,-1.3 0,0 9,-11.1 9,-11.1 z"
       id="path228" />
    <path
       style="fill:#f1caff;stroke-width:3.33"
       d="m -2215.9,76.1 c 1.1,-0.6 2.3,-1.2 3.4,-1.7 1.6,-0.8 3.3,-1.4 4.9,-2 1.8,-0.8 3.7,-1.5 5.5,-2.1 2,-0.9 4.2,-1.4 6.3,-2.1 2.3,-0.8 4.6,-1.3 6.9,-2 2.4,-0.7 4.9,-1.3 7.4,-1.8 2.4,-0.7 4.8,-1.2 7.3,-1.7 2.1,-0.4 4.3,-0.8 6.4,-1.1 0,0 -4.5,13.6 -4.5,13.6 v 0 c -2,0.4 -4,0.8 -6,1.2 -2.4,0.6 -4.8,1.2 -7.2,1.7 -2.3,0.6 -4.6,1.2 -6.9,1.9 -2.2,0.6 -4.4,1.3 -6.5,2.1 -2,0.6 -4,1.5 -6,2.2 -1.8,0.7 -3.5,1.5 -5.4,2.2 -1.4,0.7 -2.8,1.4 -4.1,2.1 -1.1,0.6 -2.2,1.2 -3.3,1.8 0,0 1.8,-14.2 1.8,-14.2 z"
       id="path230" />
  </g>
</svg>
