<?xml version="1.0" encoding="UTF-8" standalone="no"?>
<!-- Copyright 2017 mathsisfun.com -->

<svg
   width="368.175"
   height="102.547"
   version="1.1"
   style="font-size:15.6px;font-family:'Comic Sans MS';fill:#73d216;stroke-width:0.97"
   id="svg194"
   sodipodi:docname="pentagonal-number-dots.svg"
   inkscape:version="1.1.2 (0a00cf5339, 2022-02-04, custom)"
   xmlns:inkscape="http://www.inkscape.org/namespaces/inkscape"
   xmlns:sodipodi="http://sodipodi.sourceforge.net/DTD/sodipodi-0.dtd"
   xmlns="http://www.w3.org/2000/svg"
   xmlns:svg="http://www.w3.org/2000/svg">
  <sodipodi:namedview
     id="namedview196"
     pagecolor="#ffffff"
     bordercolor="#666666"
     borderopacity="1.0"
     inkscape:pageshadow="2"
     inkscape:pageopacity="0.0"
     inkscape:pagecheckerboard="0"
     showgrid="false"
     inkscape:current-layer="svg194" />
  <defs
     id="defs2" />
  <text
     x="-1.58197"
     y="35.1148"
     style="font-style:normal;font-variant:normal;font-weight:normal;font-stretch:normal;font-size:16.1994px;font-family:'Trebuchet MS';-inkscape-font-specification:'Trebuchet MS';fill:#0169c9;stroke-width:0.42px"
     id="text4">1 dot</text>
  <text
     x="48.1585"
     y="49.7566"
     style="font-style:normal;font-variant:normal;font-weight:normal;font-stretch:normal;font-size:16.1994px;font-family:'Trebuchet MS';-inkscape-font-specification:'Trebuchet MS';fill:#0169c9;stroke-width:0.42px"
     id="text6">5 dots</text>
  <text
     x="111.502"
     y="65.5406"
     style="font-style:normal;font-variant:normal;font-weight:normal;font-stretch:normal;font-size:16.1994px;font-family:'Trebuchet MS';-inkscape-font-specification:'Trebuchet MS';fill:#0169c9;stroke-width:0.42px"
     id="text8">12 dots</text>
  <text
     x="194.417"
     y="84.6475"
     style="font-style:normal;font-variant:normal;font-weight:normal;font-stretch:normal;font-size:16.1994px;font-family:'Trebuchet MS';-inkscape-font-specification:'Trebuchet MS';fill:#0169c9;stroke-width:0.42px"
     id="text10">22 dots</text>
  <text
     x="298.301"
     y="102.389"
     style="font-style:normal;font-variant:normal;font-weight:normal;font-stretch:normal;font-size:16.1994px;font-family:'Trebuchet MS';-inkscape-font-specification:'Trebuchet MS';fill:#0169c9;stroke-width:0.42px"
     id="text12">35 dots</text>
  <path
     style="opacity:1;fill:none;stroke:#0022ff;stroke-width:1.5;stroke-miterlimit:4;stroke-dasharray:none"
     d="M 79.7522,11.4665 75.469,23.669 62.5199,23.3728 58.7999,10.9858 69.4502,3.62709 Z"
     id="path14" />
  <path
     d="m 58.7722,7.34383 a 3.61101,3.61101 0 0 1 3.611,3.61107 3.61101,3.61101 0 0 1 -3.4981,3.611 3.61101,3.61101 0 0 1 -3.611,-3.4983 3.61101,3.61101 0 0 1 3.4981,-3.72377"
     id="path16"
     style="opacity:1;stroke-width:1.5;stroke-miterlimit:4;stroke-dasharray:none" />
  <path
     d="m 69.3795,0.00897 a 3.61101,3.61101 0 0 1 3.611,3.61101 3.61101,3.61101 0 0 1 -3.4982,3.611 3.61101,3.61101 0 0 1 -3.611,-3.49816 3.61101,3.61101 0 0 1 3.4982,-3.72385"
     id="path18"
     style="opacity:1;stroke-width:1.5;stroke-miterlimit:4;stroke-dasharray:none" />
  <path
     d="M 79.7611,7.90805 A 3.61101,3.61101 0 0 1 83.3721,11.519 3.61101,3.61101 0 0 1 79.874,15.13 3.61101,3.61101 0 0 1 76.263,11.6319 3.61101,3.61101 0 0 1 79.7611,7.90805"
     id="path20"
     style="opacity:1;stroke-width:1.5;stroke-miterlimit:4;stroke-dasharray:none" />
  <path
     d="m 62.4961,19.7567 a 3.61101,3.61101 0 0 1 3.611,3.611 3.61101,3.61101 0 0 1 -3.4983,3.611 3.61101,3.61101 0 0 1 -3.611,-3.4982 3.61101,3.61101 0 0 1 3.4983,-3.7238"
     id="path22"
     style="opacity:1;stroke-width:1.5;stroke-miterlimit:4;stroke-dasharray:none" />
  <path
     d="m 75.4731,20.0952 a 3.61101,3.61101 0 0 1 3.611,3.611 3.61101,3.61101 0 0 1 -3.4981,3.611 3.61101,3.61101 0 0 1 -3.611,-3.4982 3.61101,3.61101 0 0 1 3.4981,-3.7238"
     id="path24"
     style="opacity:1;stroke-width:1.5;stroke-miterlimit:4;stroke-dasharray:none" />
  <path
     style="opacity:1;fill:none;stroke:#0022ff;stroke-width:1.5;stroke-miterlimit:4;stroke-dasharray:none"
     d="m 158.043,18.603 -8.17,23.3005 -24.7,-0.5655 -7.096,-23.6528 20.315,-14.05141 z"
     id="path28" />
  <path
     style="opacity:1;fill:none;stroke:#0022ff;stroke-width:1.5;stroke-miterlimit:4;stroke-dasharray:none"
     d="m 148.538,11.4688 -4.284,12.2024 -12.949,-0.2961 -3.72,-12.387 10.65,-7.35872 z"
     id="path30" />
  <path
     d="m 118.079,14.1055 a 3.61101,3.61101 0 0 1 3.61,3.611 3.61101,3.61101 0 0 1 -3.498,3.611 3.61101,3.61101 0 0 1 -3.611,-3.4982 3.61101,3.61101 0 0 1 3.499,-3.7238"
     id="path32"
     style="opacity:1;stroke-width:1.5;stroke-miterlimit:4;stroke-dasharray:none" />
  <path
     d="m 127.557,7.33487 a 3.61101,3.61101 0 0 1 3.611,3.61093 3.61101,3.61101 0 0 1 -3.497,3.611 3.61101,3.61101 0 0 1 -3.612,-3.4981 3.61101,3.61101 0 0 1 3.498,-3.72383"
     id="path34"
     style="opacity:1;stroke-width:1.5;stroke-miterlimit:4;stroke-dasharray:none" />
  <path
     d="m 138.165,0 a 3.61101,3.61101 0 0 1 3.61,3.61101 3.61101,3.61101 0 0 1 -3.497,3.61101 A 3.61101,3.61101 0 0 1 134.666,3.72385 3.61101,3.61101 0 0 1 138.165,0"
     id="path36"
     style="opacity:1;stroke-width:1.5;stroke-miterlimit:4;stroke-dasharray:none" />
  <path
     d="m 148.546,7.89908 a 3.61101,3.61101 0 0 1 3.612,3.61102 3.61101,3.61101 0 0 1 -3.499,3.611 3.61101,3.61101 0 0 1 -3.61,-3.4981 3.61101,3.61101 0 0 1 3.497,-3.72392"
     id="path38"
     style="opacity:1;stroke-width:1.5;stroke-miterlimit:4;stroke-dasharray:none" />
  <path
     d="m 158.026,15.0082 a 3.61101,3.61101 0 0 1 3.61,3.611 3.61101,3.61101 0 0 1 -3.498,3.611 3.61101,3.61101 0 0 1 -3.611,-3.4981 3.61101,3.61101 0 0 1 3.499,-3.7239"
     id="path40"
     style="opacity:1;stroke-width:1.5;stroke-miterlimit:4;stroke-dasharray:none" />
  <path
     d="m 149.9,38.2541 a 3.61101,3.61101 0 0 1 3.612,3.611 3.61101,3.61101 0 0 1 -3.499,3.6111 3.61101,3.61101 0 0 1 -3.61,-3.4982 3.61101,3.61101 0 0 1 3.497,-3.7239"
     id="path42"
     style="opacity:1;stroke-width:1.5;stroke-miterlimit:4;stroke-dasharray:none" />
  <path
     d="m 125.188,37.6899 a 3.61101,3.61101 0 0 1 3.61,3.611 3.61101,3.61101 0 0 1 -3.497,3.611 3.61101,3.61101 0 0 1 -3.612,-3.4981 3.61101,3.61101 0 0 1 3.499,-3.7239"
     id="path44"
     style="opacity:1;stroke-width:1.5;stroke-miterlimit:4;stroke-dasharray:none" />
  <path
     d="m 131.281,19.7477 a 3.61101,3.61101 0 0 1 3.611,3.611 3.61101,3.61101 0 0 1 -3.498,3.611 3.61101,3.61101 0 0 1 -3.611,-3.4981 3.61101,3.61101 0 0 1 3.498,-3.7239"
     id="path46"
     style="opacity:1;stroke-width:1.5;stroke-miterlimit:4;stroke-dasharray:none" />
  <path
     d="m 144.258,20.0862 a 3.61101,3.61101 0 0 1 3.611,3.611 3.61101,3.61101 0 0 1 -3.497,3.611 3.61101,3.61101 0 0 1 -3.612,-3.4981 3.61101,3.61101 0 0 1 3.498,-3.7239"
     id="path48"
     style="opacity:1;stroke-width:1.5;stroke-miterlimit:4;stroke-dasharray:none" />
  <path
     d="m 121.351,25.8412 a 3.61101,3.61101 0 0 1 3.611,3.6111 3.61101,3.61101 0 0 1 -3.498,3.611 3.61101,3.61101 0 0 1 -3.612,-3.4982 3.61101,3.61101 0 0 1 3.499,-3.7239"
     id="path50"
     style="opacity:1;stroke-width:1.5;stroke-miterlimit:4;stroke-dasharray:none" />
  <path
     d="m 153.512,28.0981 a 3.61101,3.61101 0 0 1 3.61,3.611 3.61101,3.61101 0 0 1 -3.497,3.611 3.61101,3.61101 0 0 1 -3.612,-3.4981 3.61101,3.61101 0 0 1 3.499,-3.7239"
     id="path52"
     style="opacity:1;stroke-width:1.5;stroke-miterlimit:4;stroke-dasharray:none" />
  <path
     d="m 137.149,37.9156 a 3.61101,3.61101 0 0 1 3.611,3.611 3.61101,3.61101 0 0 1 -3.498,3.611 3.61101,3.61101 0 0 1 -3.611,-3.4982 3.61101,3.61101 0 0 1 3.498,-3.7238"
     id="path54"
     style="opacity:1;stroke-width:1.5;stroke-miterlimit:4;stroke-dasharray:none" />
  <path
     style="opacity:1;fill:none;stroke:#0022ff;stroke-width:1.5;stroke-miterlimit:4;stroke-dasharray:none"
     d="m 241.595,18.5864 -8.171,23.3005 -24.7,-0.5655 -7.096,-23.6528 20.316,-14.05142 z"
     id="path58" />
  <path
     style="opacity:1;fill:none;stroke:#0022ff;stroke-width:1.5;stroke-miterlimit:4;stroke-dasharray:none"
     d="M 251.942,26.3414 239.542,61.7202 202.053,60.8614 191.282,24.9479 222.117,3.61268 Z"
     id="path60" />
  <path
     style="opacity:1;fill:none;stroke:#0022ff;stroke-width:1.5;stroke-miterlimit:4;stroke-dasharray:none"
     d="m 232.089,11.4522 -4.284,12.2024 -12.949,-0.2961 -3.719,-12.387 10.65,-7.35874 z"
     id="path62" />
  <path
     d="m 191.248,21.3335 a 3.61101,3.61101 0 0 1 3.612,3.611 3.61101,3.61101 0 0 1 -3.499,3.611 3.61101,3.61101 0 0 1 -3.611,-3.4982 3.61101,3.61101 0 0 1 3.498,-3.7238"
     id="path64"
     style="opacity:1;stroke-width:1.5;stroke-miterlimit:4;stroke-dasharray:none" />
  <path
     d="m 201.63,14.1114 a 3.61101,3.61101 0 0 1 3.611,3.6111 3.61101,3.61101 0 0 1 -3.499,3.611 3.61101,3.61101 0 0 1 -3.61,-3.4982 3.61101,3.61101 0 0 1 3.498,-3.7239"
     id="path66"
     style="opacity:1;stroke-width:1.5;stroke-miterlimit:4;stroke-dasharray:none" />
  <path
     d="m 211.109,7.34083 a 3.61101,3.61101 0 0 1 3.61,3.61107 3.61101,3.61101 0 0 1 -3.497,3.611 3.61101,3.61101 0 0 1 -3.612,-3.4983 3.61101,3.61101 0 0 1 3.499,-3.72377"
     id="path68"
     style="opacity:1;stroke-width:1.5;stroke-miterlimit:4;stroke-dasharray:none" />
  <path
     d="m 221.716,0.00596 a 3.61101,3.61101 0 0 1 3.611,3.61102 3.61101,3.61101 0 0 1 -3.498,3.611 3.61101,3.61101 0 0 1 -3.611,-3.49817 3.61101,3.61101 0 0 1 3.498,-3.72385"
     id="path70"
     style="opacity:1;stroke-width:1.5;stroke-miterlimit:4;stroke-dasharray:none" />
  <path
     d="m 232.097,7.90505 a 3.61101,3.61101 0 0 1 3.612,3.61095 3.61101,3.61101 0 0 1 -3.499,3.611 3.61101,3.61101 0 0 1 -3.61,-3.4981 3.61101,3.61101 0 0 1 3.497,-3.72385"
     id="path72"
     style="opacity:1;stroke-width:1.5;stroke-miterlimit:4;stroke-dasharray:none" />
  <path
     d="m 241.577,15.0143 a 3.61101,3.61101 0 0 1 3.611,3.611 3.61101,3.61101 0 0 1 -3.499,3.611 3.61101,3.61101 0 0 1 -3.61,-3.4983 3.61101,3.61101 0 0 1 3.498,-3.7237"
     id="path74"
     style="opacity:1;stroke-width:1.5;stroke-miterlimit:4;stroke-dasharray:none" />
  <path
     d="m 251.958,22.6877 a 3.61101,3.61101 0 0 1 3.612,3.611 3.61101,3.61101 0 0 1 -3.499,3.611 3.61101,3.61101 0 0 1 -3.611,-3.4983 3.61101,3.61101 0 0 1 3.498,-3.7237"
     id="path76"
     style="opacity:1;stroke-width:1.5;stroke-miterlimit:4;stroke-dasharray:none" />
  <path
     d="m 233.451,38.2601 a 3.61101,3.61101 0 0 1 3.612,3.611 3.61101,3.61101 0 0 1 -3.498,3.611 3.61101,3.61101 0 0 1 -3.611,-3.4981 3.61101,3.61101 0 0 1 3.497,-3.7239"
     id="path78"
     style="opacity:1;stroke-width:1.5;stroke-miterlimit:4;stroke-dasharray:none" />
  <path
     d="m 202.081,57.2179 a 3.61101,3.61101 0 0 1 3.611,3.611 3.61101,3.61101 0 0 1 -3.498,3.611 3.61101,3.61101 0 0 1 -3.611,-3.4982 3.61101,3.61101 0 0 1 3.498,-3.7238"
     id="path80"
     style="opacity:1;stroke-width:1.5;stroke-miterlimit:4;stroke-dasharray:none" />
  <path
     d="m 208.739,37.6958 a 3.61101,3.61101 0 0 1 3.611,3.611 3.61101,3.61101 0 0 1 -3.498,3.611 3.61101,3.61101 0 0 1 -3.611,-3.4981 3.61101,3.61101 0 0 1 3.498,-3.7239"
     id="path82"
     style="opacity:1;stroke-width:1.5;stroke-miterlimit:4;stroke-dasharray:none" />
  <path
     d="m 214.832,19.7537 a 3.61101,3.61101 0 0 1 3.611,3.611 3.61101,3.61101 0 0 1 -3.497,3.611 3.61101,3.61101 0 0 1 -3.612,-3.4982 3.61101,3.61101 0 0 1 3.498,-3.7238"
     id="path84"
     style="opacity:1;stroke-width:1.5;stroke-miterlimit:4;stroke-dasharray:none" />
  <path
     d="m 227.81,20.0922 a 3.61101,3.61101 0 0 1 3.61,3.611 3.61101,3.61101 0 0 1 -3.497,3.611 3.61101,3.61101 0 0 1 -3.612,-3.4982 3.61101,3.61101 0 0 1 3.499,-3.7238"
     id="path86"
     style="opacity:1;stroke-width:1.5;stroke-miterlimit:4;stroke-dasharray:none" />
  <path
     d="m 239.546,58.1206 a 3.61101,3.61101 0 0 1 3.61,3.611 3.61101,3.61101 0 0 1 -3.498,3.611 3.61101,3.61101 0 0 1 -3.611,-3.4981 3.61101,3.61101 0 0 1 3.499,-3.7239"
     id="path88"
     style="opacity:1;stroke-width:1.5;stroke-miterlimit:4;stroke-dasharray:none" />
  <path
     d="m 194.182,33.9721 a 3.61101,3.61101 0 0 1 3.611,3.611 3.61101,3.61101 0 0 1 -3.498,3.611 3.61101,3.61101 0 0 1 -3.611,-3.4983 3.61101,3.61101 0 0 1 3.498,-3.7237"
     id="path90"
     style="opacity:1;stroke-width:1.5;stroke-miterlimit:4;stroke-dasharray:none" />
  <path
     d="m 198.245,44.9178 a 3.61101,3.61101 0 0 1 3.61,3.6111 3.61101,3.61101 0 0 1 -3.498,3.611 3.61101,3.61101 0 0 1 -3.611,-3.4982 3.61101,3.61101 0 0 1 3.499,-3.7239"
     id="path92"
     style="opacity:1;stroke-width:1.5;stroke-miterlimit:4;stroke-dasharray:none" />
  <path
     d="m 204.902,25.8473 a 3.61101,3.61101 0 0 1 3.612,3.611 3.61101,3.61101 0 0 1 -3.499,3.611 3.61101,3.61101 0 0 1 -3.611,-3.4982 3.61101,3.61101 0 0 1 3.498,-3.7238"
     id="path94"
     style="opacity:1;stroke-width:1.5;stroke-miterlimit:4;stroke-dasharray:none" />
  <path
     d="m 237.063,28.1042 a 3.61101,3.61101 0 0 1 3.611,3.611 3.61101,3.61101 0 0 1 -3.498,3.611 3.61101,3.61101 0 0 1 -3.611,-3.4983 3.61101,3.61101 0 0 1 3.498,-3.7237"
     id="path96"
     style="opacity:1;stroke-width:1.5;stroke-miterlimit:4;stroke-dasharray:none" />
  <path
     d="m 243.833,46.8362 a 3.61101,3.61101 0 0 1 3.611,3.611 3.61101,3.61101 0 0 1 -3.497,3.611 3.61101,3.61101 0 0 1 -3.612,-3.4981 3.61101,3.61101 0 0 1 3.498,-3.7239"
     id="path98"
     style="opacity:1;stroke-width:1.5;stroke-miterlimit:4;stroke-dasharray:none" />
  <path
     d="m 247.444,35.6647 a 3.61101,3.61101 0 0 1 3.612,3.611 3.61101,3.61101 0 0 1 -3.499,3.611 3.61101,3.61101 0 0 1 -3.61,-3.4981 3.61101,3.61101 0 0 1 3.497,-3.7239"
     id="path100"
     style="opacity:1;stroke-width:1.5;stroke-miterlimit:4;stroke-dasharray:none" />
  <path
     d="m 220.701,37.9216 a 3.61101,3.61101 0 0 1 3.61,3.611 3.61101,3.61101 0 0 1 -3.497,3.611 3.61101,3.61101 0 0 1 -3.612,-3.4982 3.61101,3.61101 0 0 1 3.499,-3.7238"
     id="path102"
     style="opacity:1;stroke-width:1.5;stroke-miterlimit:4;stroke-dasharray:none" />
  <path
     d="m 226.681,57.895 a 3.61101,3.61101 0 0 1 3.611,3.611 3.61101,3.61101 0 0 1 -3.498,3.611 3.61101,3.61101 0 0 1 -3.611,-3.4981 3.61101,3.61101 0 0 1 3.498,-3.7239"
     id="path104"
     style="opacity:1;stroke-width:1.5;stroke-miterlimit:4;stroke-dasharray:none" />
  <path
     d="m 214.832,57.6692 a 3.61101,3.61101 0 0 1 3.611,3.6111 3.61101,3.61101 0 0 1 -3.497,3.611 3.61101,3.61101 0 0 1 -3.612,-3.4982 3.61101,3.61101 0 0 1 3.498,-3.7239"
     id="path106"
     style="opacity:1;stroke-width:1.5;stroke-miterlimit:4;stroke-dasharray:none" />
  <path
     style="opacity:1;fill:none;stroke:#0022ff;stroke-width:1.5;stroke-miterlimit:4;stroke-dasharray:none"
     d="M 364.564,33.3464 348.314,79.7253 299.227,78.5968 285.122,31.5408 325.52,3.55554 Z"
     id="path110" />
  <path
     style="opacity:1;fill:none;stroke:#0022ff;stroke-width:1.5;stroke-miterlimit:4;stroke-dasharray:none"
     d="m 344.834,18.5926 -8.17,23.3005 -24.7,-0.5655 -7.096,-23.6528 20.315,-14.05139 z"
     id="path112" />
  <path
     style="opacity:1;fill:none;stroke:#0022ff;stroke-width:1.5;stroke-miterlimit:4;stroke-dasharray:none"
     d="M 355.182,26.3477 342.781,61.7264 305.292,60.8677 294.522,24.9541 325.357,3.61891 Z"
     id="path114" />
  <path
     style="opacity:1;fill:none;stroke:#0022ff;stroke-width:1.5;stroke-miterlimit:4;stroke-dasharray:none"
     d="m 335.329,11.4585 -4.284,12.2025 -12.949,-0.2962 -3.72,-12.387 10.65,-7.3587 z"
     id="path116" />
  <path
     d="m 285.122,27.9298 a 3.61101,3.61101 0 0 1 3.611,3.611 3.61101,3.61101 0 0 1 -3.499,3.6111 3.61101,3.61101 0 0 1 -3.61,-3.4982 3.61101,3.61101 0 0 1 3.498,-3.7239"
     id="path118"
     style="opacity:1;stroke-width:1.5;stroke-miterlimit:4;stroke-dasharray:none" />
  <path
     d="m 299.227,75.5501 a 3.61101,3.61101 0 0 1 3.612,3.611 3.61101,3.61101 0 0 1 -3.499,3.611 3.61101,3.61101 0 0 1 -3.61,-3.4982 3.61101,3.61101 0 0 1 3.497,-3.7238"
     id="path120"
     style="opacity:1;stroke-width:1.5;stroke-miterlimit:4;stroke-dasharray:none" />
  <path
     d="m 294.488,21.3849 a 3.61101,3.61101 0 0 1 3.611,3.611 3.61101,3.61101 0 0 1 -3.498,3.6111 3.61101,3.61101 0 0 1 -3.611,-3.4983 3.61101,3.61101 0 0 1 3.498,-3.7238"
     id="path122"
     style="opacity:1;stroke-width:1.5;stroke-miterlimit:4;stroke-dasharray:none" />
  <path
     d="m 304.87,14.0501 a 3.61101,3.61101 0 0 1 3.61,3.611 3.61101,3.61101 0 0 1 -3.498,3.611 3.61101,3.61101 0 0 1 -3.611,-3.4982 3.61101,3.61101 0 0 1 3.499,-3.7238"
     id="path124"
     style="opacity:1;stroke-width:1.5;stroke-miterlimit:4;stroke-dasharray:none" />
  <path
     d="m 314.348,7.39224 a 3.61101,3.61101 0 0 1 3.611,3.61106 3.61101,3.61101 0 0 1 -3.497,3.611 3.61101,3.61101 0 0 1 -3.612,-3.4982 3.61101,3.61101 0 0 1 3.498,-3.72386"
     id="path126"
     style="opacity:1;stroke-width:1.5;stroke-miterlimit:4;stroke-dasharray:none" />
  <path
     d="m 324.956,0.05737 a 3.61101,3.61101 0 0 1 3.61,3.61101 3.61101,3.61101 0 0 1 -3.497,3.61101 3.61101,3.61101 0 0 1 -3.612,-3.49816 3.61101,3.61101 0 0 1 3.499,-3.72386"
     id="path128"
     style="opacity:1;stroke-width:1.5;stroke-miterlimit:4;stroke-dasharray:none" />
  <path
     d="m 335.337,7.84362 a 3.61101,3.61101 0 0 1 3.612,3.61108 3.61101,3.61101 0 0 1 -3.499,3.611 3.61101,3.61101 0 0 1 -3.61,-3.4983 3.61101,3.61101 0 0 1 3.497,-3.72378"
     id="path130"
     style="opacity:1;stroke-width:1.5;stroke-miterlimit:4;stroke-dasharray:none" />
  <path
     d="m 344.817,14.9528 a 3.61101,3.61101 0 0 1 3.61,3.611 3.61101,3.61101 0 0 1 -3.498,3.611 3.61101,3.61101 0 0 1 -3.611,-3.4981 3.61101,3.61101 0 0 1 3.499,-3.7239"
     id="path132"
     style="opacity:1;stroke-width:1.5;stroke-miterlimit:4;stroke-dasharray:none" />
  <path
     d="m 355.198,22.7391 a 3.61101,3.61101 0 0 1 3.611,3.611 3.61101,3.61101 0 0 1 -3.498,3.611 3.61101,3.61101 0 0 1 -3.612,-3.4983 3.61101,3.61101 0 0 1 3.499,-3.7237"
     id="path134"
     style="opacity:1;stroke-width:1.5;stroke-miterlimit:4;stroke-dasharray:none" />
  <path
     d="m 364.564,29.7353 a 3.61101,3.61101 0 0 1 3.611,3.6111 3.61101,3.61101 0 0 1 -3.499,3.611 3.61101,3.61101 0 0 1 -3.61,-3.4982 3.61101,3.61101 0 0 1 3.498,-3.7239"
     id="path136"
     style="opacity:1;stroke-width:1.5;stroke-miterlimit:4;stroke-dasharray:none" />
  <path
     d="m 336.691,38.3115 a 3.61101,3.61101 0 0 1 3.612,3.611 3.61101,3.61101 0 0 1 -3.499,3.611 3.61101,3.61101 0 0 1 -3.61,-3.4981 3.61101,3.61101 0 0 1 3.497,-3.7239"
     id="path138"
     style="opacity:1;stroke-width:1.5;stroke-miterlimit:4;stroke-dasharray:none" />
  <path
     d="m 305.32,57.2693 a 3.61101,3.61101 0 0 1 3.612,3.611 3.61101,3.61101 0 0 1 -3.498,3.611 3.61101,3.61101 0 0 1 -3.611,-3.4981 3.61101,3.61101 0 0 1 3.497,-3.7239"
     id="path140"
     style="opacity:1;stroke-width:1.5;stroke-miterlimit:4;stroke-dasharray:none" />
  <path
     d="m 311.979,37.7472 a 3.61101,3.61101 0 0 1 3.61,3.611 3.61101,3.61101 0 0 1 -3.497,3.6111 3.61101,3.61101 0 0 1 -3.612,-3.4982 3.61101,3.61101 0 0 1 3.499,-3.7239"
     id="path142"
     style="opacity:1;stroke-width:1.5;stroke-miterlimit:4;stroke-dasharray:none" />
  <path
     d="m 318.072,19.8051 a 3.61101,3.61101 0 0 1 3.611,3.611 3.61101,3.61101 0 0 1 -3.498,3.611 3.61101,3.61101 0 0 1 -3.611,-3.4982 3.61101,3.61101 0 0 1 3.498,-3.7238"
     id="path144"
     style="opacity:1;stroke-width:1.5;stroke-miterlimit:4;stroke-dasharray:none" />
  <path
     d="m 331.049,20.0308 a 3.61101,3.61101 0 0 1 3.611,3.611 3.61101,3.61101 0 0 1 -3.497,3.611 3.61101,3.61101 0 0 1 -3.612,-3.4982 3.61101,3.61101 0 0 1 3.498,-3.7238"
     id="path146"
     style="opacity:1;stroke-width:1.5;stroke-miterlimit:4;stroke-dasharray:none" />
  <path
     d="m 342.786,58.172 a 3.61101,3.61101 0 0 1 3.61,3.611 3.61101,3.61101 0 0 1 -3.498,3.611 3.61101,3.61101 0 0 1 -3.611,-3.4981 3.61101,3.61101 0 0 1 3.499,-3.7239"
     id="path148"
     style="opacity:1;stroke-width:1.5;stroke-miterlimit:4;stroke-dasharray:none" />
  <path
     d="m 348.314,75.5501 a 3.61101,3.61101 0 0 1 3.612,3.611 3.61101,3.61101 0 0 1 -3.499,3.611 3.61101,3.61101 0 0 1 -3.61,-3.4982 3.61101,3.61101 0 0 1 3.497,-3.7238"
     id="path150"
     style="opacity:1;stroke-width:1.5;stroke-miterlimit:4;stroke-dasharray:none" />
  <path
     d="m 297.422,33.9106 a 3.61101,3.61101 0 0 1 3.611,3.611 3.61101,3.61101 0 0 1 -3.499,3.611 3.61101,3.61101 0 0 1 -3.61,-3.4981 3.61101,3.61101 0 0 1 3.498,-3.7239"
     id="path152"
     style="opacity:1;stroke-width:1.5;stroke-miterlimit:4;stroke-dasharray:none" />
  <path
     d="m 301.484,44.9693 a 3.61101,3.61101 0 0 1 3.611,3.611 3.61101,3.61101 0 0 1 -3.498,3.611 3.61101,3.61101 0 0 1 -3.611,-3.4982 3.61101,3.61101 0 0 1 3.498,-3.7238"
     id="path154"
     style="opacity:1;stroke-width:1.5;stroke-miterlimit:4;stroke-dasharray:none" />
  <path
     d="m 308.142,25.7858 a 3.61101,3.61101 0 0 1 3.611,3.611 3.61101,3.61101 0 0 1 -3.498,3.611 3.61101,3.61101 0 0 1 -3.612,-3.4981 3.61101,3.61101 0 0 1 3.499,-3.7239"
     id="path156"
     style="opacity:1;stroke-width:1.5;stroke-miterlimit:4;stroke-dasharray:none" />
  <path
     d="m 294.714,63.4758 a 3.61101,3.61101 0 0 1 3.611,3.611 3.61101,3.61101 0 0 1 -3.499,3.611 3.61101,3.61101 0 0 1 -3.61,-3.4983 3.61101,3.61101 0 0 1 3.498,-3.7237"
     id="path158"
     style="opacity:1;stroke-width:1.5;stroke-miterlimit:4;stroke-dasharray:none" />
  <path
     d="m 291.779,51.7399 a 3.61101,3.61101 0 0 1 3.612,3.611 3.61101,3.61101 0 0 1 -3.498,3.6111 3.61101,3.61101 0 0 1 -3.612,-3.4982 3.61101,3.61101 0 0 1 3.498,-3.7239"
     id="path160"
     style="opacity:1;stroke-width:1.5;stroke-miterlimit:4;stroke-dasharray:none" />
  <path
     d="m 288.056,40.117 a 3.61101,3.61101 0 0 1 3.611,3.611 3.61101,3.61101 0 0 1 -3.498,3.611 3.61101,3.61101 0 0 1 -3.612,-3.4981 3.61101,3.61101 0 0 1 3.499,-3.7239"
     id="path162"
     style="opacity:1;stroke-width:1.5;stroke-miterlimit:4;stroke-dasharray:none" />
  <path
     d="m 340.303,28.1556 a 3.61101,3.61101 0 0 1 3.61,3.611 3.61101,3.61101 0 0 1 -3.497,3.611 3.61101,3.61101 0 0 1 -3.612,-3.4982 3.61101,3.61101 0 0 1 3.499,-3.7238"
     id="path164"
     style="opacity:1;stroke-width:1.5;stroke-miterlimit:4;stroke-dasharray:none" />
  <path
     d="m 347.073,46.8876 a 3.61101,3.61101 0 0 1 3.611,3.611 3.61101,3.61101 0 0 1 -3.498,3.611 3.61101,3.61101 0 0 1 -3.611,-3.4981 3.61101,3.61101 0 0 1 3.498,-3.7239"
     id="path166"
     style="opacity:1;stroke-width:1.5;stroke-miterlimit:4;stroke-dasharray:none" />
  <path
     d="m 355.988,54.1096 a 3.61101,3.61101 0 0 1 3.611,3.6111 3.61101,3.61101 0 0 1 -3.498,3.611 3.61101,3.61101 0 0 1 -3.611,-3.4982 3.61101,3.61101 0 0 1 3.498,-3.7239"
     id="path168"
     style="opacity:1;stroke-width:1.5;stroke-miterlimit:4;stroke-dasharray:none" />
  <path
     d="m 336.24,75.5501 a 3.61101,3.61101 0 0 1 3.611,3.611 3.61101,3.61101 0 0 1 -3.498,3.611 3.61101,3.61101 0 0 1 -3.611,-3.4982 3.61101,3.61101 0 0 1 3.498,-3.7238"
     id="path170"
     style="opacity:1;stroke-width:1.5;stroke-miterlimit:4;stroke-dasharray:none" />
  <path
     d="m 351.249,65.2813 a 3.61101,3.61101 0 0 1 3.61,3.611 3.61101,3.61101 0 0 1 -3.498,3.611 3.61101,3.61101 0 0 1 -3.611,-3.4982 3.61101,3.61101 0 0 1 3.499,-3.7238"
     id="path172"
     style="opacity:1;stroke-width:1.5;stroke-miterlimit:4;stroke-dasharray:none" />
  <path
     d="m 350.684,35.7161 a 3.61101,3.61101 0 0 1 3.611,3.611 3.61101,3.61101 0 0 1 -3.498,3.611 3.61101,3.61101 0 0 1 -3.611,-3.4981 3.61101,3.61101 0 0 1 3.498,-3.7239"
     id="path174"
     style="opacity:1;stroke-width:1.5;stroke-miterlimit:4;stroke-dasharray:none" />
  <path
     d="m 323.94,37.973 a 3.61101,3.61101 0 0 1 3.611,3.611 3.61101,3.61101 0 0 1 -3.498,3.611 3.61101,3.61101 0 0 1 -3.611,-3.4981 3.61101,3.61101 0 0 1 3.498,-3.7239"
     id="path176"
     style="opacity:1;stroke-width:1.5;stroke-miterlimit:4;stroke-dasharray:none" />
  <path
     d="m 329.921,57.8335 a 3.61101,3.61101 0 0 1 3.611,3.611 3.61101,3.61101 0 0 1 -3.498,3.611 3.61101,3.61101 0 0 1 -3.611,-3.4981 3.61101,3.61101 0 0 1 3.498,-3.7239"
     id="path178"
     style="opacity:1;stroke-width:1.5;stroke-miterlimit:4;stroke-dasharray:none" />
  <path
     d="m 312.543,75.5501 a 3.61101,3.61101 0 0 1 3.611,3.611 3.61101,3.61101 0 0 1 -3.498,3.611 3.61101,3.61101 0 0 1 -3.611,-3.4982 3.61101,3.61101 0 0 1 3.498,-3.7238"
     id="path180"
     style="opacity:1;stroke-width:1.5;stroke-miterlimit:4;stroke-dasharray:none" />
  <path
     d="m 359.937,42.9381 a 3.61101,3.61101 0 0 1 3.612,3.611 3.61101,3.61101 0 0 1 -3.499,3.611 3.61101,3.61101 0 0 1 -3.61,-3.4981 3.61101,3.61101 0 0 1 3.497,-3.7239"
     id="path182"
     style="opacity:1;stroke-width:1.5;stroke-miterlimit:4;stroke-dasharray:none" />
  <path
     d="m 318.072,57.6079 a 3.61101,3.61101 0 0 1 3.611,3.611 3.61101,3.61101 0 0 1 -3.498,3.611 3.61101,3.61101 0 0 1 -3.611,-3.4982 3.61101,3.61101 0 0 1 3.498,-3.7238"
     id="path184"
     style="opacity:1;stroke-width:1.5;stroke-miterlimit:4;stroke-dasharray:none" />
  <path
     d="m 324.843,75.5501 a 3.61101,3.61101 0 0 1 3.611,3.611 3.61101,3.61101 0 0 1 -3.498,3.611 3.61101,3.61101 0 0 1 -3.612,-3.4982 3.61101,3.61101 0 0 1 3.499,-3.7238"
     id="path186"
     style="opacity:1;stroke-width:1.5;stroke-miterlimit:4;stroke-dasharray:none" />
  <path
     style="stroke-width:1.06"
     d="M 13.2676,3.64969 A 3.63447,3.63447 0 0 1 16.7982,0.01522 3.63447,3.63447 0 0 1 20.4327,3.54585 3.63447,3.63447 0 0 1 16.902,7.18032 3.63447,3.63447 0 0 1 13.1637,3.64969"
     id="path190" />
</svg>
