<?xml version="1.0" encoding="UTF-8" standalone="no"?>
<!-- Copyright 2017 mathsisfun.com -->
<svg xmlns="http://www.w3.org/2000/svg" width="223.7" height="107.9" version="1.1">
<defs>
</defs>
<g transform="translate(-175.43991,-491.24309)">
<circle cx="219.7" cy="535.5" r="41.839108" style="overflow:visible; opacity:0.19; fill:#729fcf; stroke:#729fcf; stroke-width:4.89;"/>
<circle cx="341.3" cy="535.5" r="41.839108" style="overflow:visible; opacity:0.19; fill:#c4a000; stroke:#c4a000; stroke-width:4.89;"/>
<text x="206" y="551.3" style="font-family:'Comic Sans MS'; font-size:45.2px; overflow:visible; fill:#3465a4; stroke-width:1px;">8</text>
<g transform="matrix(0.72831282,0,0,0.72831282,70.801913,154.21446)">
<text x="370.4" y="558.1" style="font-family:'Comic Sans MS'; font-size:56px; overflow:visible; fill:#c4a000; stroke-width:1px;">8</text>
<text x="337.5" y="530.2" style="font-family:'Comic Sans MS'; font-size:56px; overflow:visible; fill:#c4a000; stroke-width:1px;">1</text>
<path style="overflow:visible; fill:#c4a000; stroke:#c4a000; stroke-width:5.2;" d="m 347.8,554.4 41.7,-57.8"/>
</g>
<g transform="translate(-2,-2)">
<path style="overflow:visible; fill:#729fcf; stroke-width:5.2;" d="m 254.6,539 c 0.2,-0.2 0.4,-0.3 0.6,-0.5 0.4,-0.3 0.8,-0.5 1.2,-0.8 0.4,-0.3 0.9,-0.5 1.3,-0.8 0.4,-0.3 0.9,-0.5 1.3,-0.8 0.5,-0.3 1.1,-0.6 1.6,-0.9 0.5,-0.2 0.9,-0.5 1.4,-0.7 0.5,-0.3 1.1,-0.4 1.6,-0.6 1.8,-0.5 3.7,-1 5.5,-1.4 0.5,-0.2 1.1,-0.2 1.7,-0.3 0.5,-0 1.1,-0 1.6,-0.1 0.5,-0 1.1,-0 1.6,-0 0.4,-0 0.9,-0 1.3,0 0.4,0 0.8,0 1.2,0.1 0.4,0 0.8,0.1 1.2,0.2 0.4,0 0.7,0.1 1.1,0.2 0.4,0 0.7,0.2 1.1,0.3 0.4,0.1 0.7,0.2 1.1,0.3 0.3,0.1 0.6,0.2 1,0.3 0.3,0 0.6,0.2 0.9,0.3 0.3,0.1 0.6,0.2 0.9,0.3 0.3,0.1 0.6,0.2 0.8,0.3 0.3,0.1 0.6,0.2 0.9,0.3 0.3,0.1 0.6,0.2 0.9,0.3 0.3,0.1 0.6,0.2 0.9,0.3 0.3,0.1 0.6,0.2 1,0.3 0.3,0.1 0.6,0.2 1,0.3 0.3,0.1 0.6,0.2 0.8,0.3 0.3,0 0.5,0.2 0.8,0.2 0.2,0 0.4,0.1 0.6,0.2 0.2,0 0.4,0.1 0.6,0.2 0.2,0 0.3,0.1 0.5,0.1 0.2,0 0.3,0 0.5,0 0.2,0 0.4,0 0.6,0.1 0.2,0 0.4,0 0.6,0 0.2,0 0.5,0 0.7,0 0.3,-0 0.5,0 0.7,0 0.2,0 0.5,0 0.7,0 0.2,0 0.5,0 0.7,0 0.2,0 0.3,0 0.5,0 0.2,0 0.3,-0 0.4,-0 0.1,-0.1 0.3,-0.1 0.5,-0.1 0.1,-0 0.3,-0 0.4,-0 0.1,-0 0.2,-0.1 0.4,-0.1 0.2,-0 0.4,-0.1 0.6,-0.1 1.2,-0.3 2.6,-0.7 -3.3,0.9 -0,0 0.1,-0 0.2,-0 0.1,-0 0.3,-0 0.5,-0.1 0.1,-0 0.3,-0.1 0.4,-0.2 0.1,-0.1 0.2,-0 0.4,-0.2 0.2,-0 0.3,-0.1 0.5,-0.2 0.1,-0 0.2,-0.1 0.4,-0.2 0,-0 0.1,-0 0.2,-0 l 4.4,1.5 c -0,0 -0.1,0 -0.2,0 -0.1,0 -0.2,0.1 -0.4,0.2 -0.2,0 -0.3,0.1 -0.5,0.2 -0.1,0 -0.2,0.1 -0.3,0.1 -0.1,0 -0.3,0.1 -0.4,0.2 -0.2,0 -0.3,0.2 -0.5,0.3 -1.1,0.8 -2.7,0.7 -4,1.1 -0.2,0 -0.4,0.1 -0.6,0.1 -0.2,0 -0.4,0 -0.5,0 -0.1,0 -0.2,0 -0.4,0 -0.2,0 -0.4,0 -0.6,0 -0.2,-0 -0.4,-0 -0.6,-0 -0.2,-0 -0.3,-0 -0.5,-0 -0.2,-0 -0.5,-0 -0.7,-0 -0.3,-0 -0.5,-0 -0.8,-0.1 -0.2,-0 -0.5,0 -0.7,-0 -0.3,-0 -0.5,-0 -0.8,-0.1 -0.2,-0 -0.5,-0.1 -0.7,-0.2 -0.2,0 -0.4,-0.1 -0.5,-0 -0.2,-0 -0.4,-0.1 -0.6,-0.2 -0.2,-0 -0.4,-0.1 -0.6,-0.2 -0.2,-0 -0.4,-0 -0.5,-0.1 -0.2,-0 -0.5,-0.2 -0.7,-0.2 -0.3,-0 -0.5,-0.2 -0.8,-0.3 -0.3,-0.1 -0.5,-0.2 -0.8,-0.3 -0.3,-0.1 -0.6,-0.2 -1,-0.3 -0.3,-0.1 -0.6,-0.2 -1,-0.3 -0.3,-0.1 -0.6,-0.2 -1,-0.3 -0.3,-0.1 -0.6,-0.2 -1,-0.3 -0.3,-0.1 -0.5,-0.2 -0.8,-0.3 -0.3,-0 -0.6,-0.2 -0.9,-0.3 -0.3,-0.1 -0.6,-0.2 -0.9,-0.3 -0.3,-0.1 -0.6,-0.2 -0.9,-0.3 -0.3,-0.1 -0.6,-0.2 -1,-0.3 -0.3,-0.1 -0.7,-0.2 -1,-0.3 -0.3,-0 -0.7,-0.2 -1,-0.2 -0.3,-0 -0.7,-0.1 -1,-0.2 -0.4,-0 -0.8,-0 -1.1,-0.1 -0.4,-0 -0.8,-0 -1.1,-0 -0.4,0 -0.8,0 -1.2,0 -0.5,0 -1,0 -1.5,0.1 -0.5,0 -1,0.1 -1.5,0.2 -0.5,0.1 -1,0.3 -1.6,0.4 -1.4,0.4 -4.6,1.2 1.6,-0.4 -0.5,0.1 -1,0.2 -1.6,0.4 -0.5,0.1 -0.9,0.3 -1.3,0.5 -0.5,0.3 -1.1,0.5 -1.6,0.8 -0.4,0.2 -0.9,0.5 -1.3,0.7 -0.4,0.2 -0.8,0.5 -1.3,0.7 -0.4,0.2 -0.8,0.4 -1.1,0.7 -0.2,0.1 -0.4,0.3 -0.6,0.4 l -4.5,-1.1 z"/>
<path style="overflow:visible; fill:#729fcf; stroke-width:5.2;" d="m 293.9,530.1 c 0.2,0.1 0.4,0.2 0.5,0.4 0.2,0.2 0.4,0.3 0.6,0.5 0.2,0.2 0.4,0.4 0.6,0.6 0.2,0.2 0.5,0.5 0.7,0.7 0.2,0.2 0.4,0.4 0.7,0.6 0.2,0.2 0.4,0.4 0.7,0.6 0.2,0.2 0.5,0.4 0.7,0.5 0.2,0.2 0.4,0.3 0.6,0.5 0.2,0.1 0.4,0.3 0.5,0.4 0.2,0 0.3,0.2 0.4,0.3 0.1,0 0.3,0.1 0.4,0.2 0.2,0 0.4,0.2 0.6,0.3 0.2,0.1 0.4,0.2 0.6,0.3 0.2,0 0.4,0.2 0.6,0.3 0.2,0 0.4,0.2 0.6,0.3 0.2,0.1 0.4,0.2 0.6,0.2 0.2,0 0.3,0.2 0.5,0.2 0.1,0 0.2,0 0.4,0 0.2,0 0.3,0 0.5,0 0.2,-0 0.3,0.1 0.4,0.1 0.1,0 0.2,0 0.3,0 0.1,0 0.2,0.1 0.4,0.1 0,8.1e-4 0.2,-0 0.3,-0 0.1,0 0.2,0 0.3,0 0,0 0.2,0 0.2,0 0,-0 0.1,-0 0.2,-0 0.2,0.1 0.4,0.3 0.5,0.4 0,0 0,0.1 0.1,0.2 l -4.1,2.2 c 0,0 0,0 0,0.1 0,0.1 0,0.2 0,0.3 -0,-0 -0.2,-0 -0.2,-0 -0,-0 -0.2,-0 -0.3,-0 -0.1,-0 -0.2,-0 -0.4,-0 -0.1,-0 -0.3,-0 -0.4,-0.1 -0.1,-0 -0.2,-0 -0.3,-0 -0.1,-0 -0.3,-0 -0.4,-0.1 -0.1,-0 -0.2,8e-4 -0.4,-0 -0.2,-0 -0.4,-0.1 -0.6,-0.2 -0.2,-0 -0.4,-0.2 -0.5,-0.3 -0.1,-0 -0.3,-0 -0.4,-0.2 -0.2,-0.1 -0.4,-0.2 -0.6,-0.3 -0.2,-0.1 -0.4,-0.2 -0.6,-0.3 -0.2,-0 -0.4,-0.2 -0.6,-0.3 -0.2,-0.1 -0.4,-0.2 -0.6,-0.3 -0.2,-0.1 -0.4,-0.2 -0.6,-0.3 -0.2,-0.1 -0.3,-0.2 -0.5,-0.3 -0.2,-0.1 -0.4,-0.2 -0.5,-0.4 -0.2,-0.1 -0.4,-0.3 -0.6,-0.4 -0.2,-0.2 -0.4,-0.3 -0.6,-0.5 -0.2,-0.2 -0.5,-0.4 -0.7,-0.6 -0.2,-0.2 -0.5,-0.4 -0.7,-0.7 -0.2,-0.2 -0.5,-0.5 -0.7,-0.7 -0.2,-0.2 -0.4,-0.5 -0.7,-0.7 -0.2,-0.2 -0.4,-0.4 -0.6,-0.5 -0.2,-0.1 -0.3,-0.2 -0.5,-0.3 -0.2,-0.1 -0.3,-0.2 -0.5,-0.3 l 3.9,-2.5 z"/>
<path style="overflow:visible; fill:#729fcf; stroke-width:5.2;" d="m 291.5,546.9 c 0,-0.3 0.1,-0.5 0.2,-0.8 0.1,-0.3 0.2,-0.6 0.4,-0.9 0.1,-0.2 0.3,-0.5 0.4,-0.7 0.1,-0.3 0.3,-0.5 0.5,-0.7 0.2,-0.2 0.4,-0.4 0.6,-0.6 0.2,-0.2 0.4,-0.4 0.6,-0.6 0.2,-0.2 0.4,-0.4 0.6,-0.6 0.2,-0.2 0.4,-0.3 0.6,-0.5 0.2,-0.1 0.4,-0.3 0.6,-0.5 0.2,-0.2 0.4,-0.3 0.6,-0.5 0.2,-0.2 0.4,-0.3 0.7,-0.5 0.2,-0.2 0.5,-0.4 0.7,-0.5 0.2,-0.1 0.4,-0.3 0.6,-0.4 0.2,-0.1 0.4,-0.2 0.5,-0.3 0.2,-0.1 0.3,-0.2 0.5,-0.3 0.2,-0 0.3,-0.2 0.5,-0.3 0.2,-0.1 0.4,-0.2 0.6,-0.3 0.2,-0 0.4,-0.2 0.6,-0.3 0.2,-0 0.3,-0.1 0.5,-0.2 0.2,-0 0.3,-0.1 0.5,-0.2 0.1,-0 0.2,-0.1 0.3,-0.2 0.1,-0 0.2,-0.1 0.3,-0.2 0,-0 0.1,-0.1 0.2,-0.1 0,-0 0,-0 0,-0 l 4.3,1.8 c -0,0 -0,0 -0,0 -0,0 -0.1,-0 -0.2,-0 -0,1e-5 -0.1,-0 -0.2,0 -0.1,0 -0.2,0.1 -0.3,0.2 -0.2,0 -0.3,0.2 -0.5,0.2 -0.2,-8.1e-4 -0.3,0.1 -0.4,0.2 -0.2,0 -0.4,0.2 -0.6,0.3 -0.2,0 -0.4,0.2 -0.6,0.2 -0.2,0 -0.3,0.1 -0.4,0.2 -0.2,0 -0.3,0.2 -0.5,0.2 -0.2,0.1 -0.3,0.3 -0.5,0.4 -0.2,0.1 -0.4,0.2 -0.6,0.4 -0.2,0.2 -0.5,0.3 -0.7,0.4 -0.2,0.2 -0.5,0.3 -0.7,0.5 -0.2,0.1 -0.4,0.3 -0.6,0.4 -0.2,0.1 -0.4,0.3 -0.6,0.5 -0.2,0.1 -0.3,0.3 -0.5,0.4 -0.2,0.2 -0.4,0.4 -0.6,0.5 -0.2,0.2 -0.4,0.3 -0.6,0.5 -0.2,0.1 -0.3,0.3 -0.5,0.4 -0.2,0.1 -0.3,0.3 -0.4,0.4 -0.1,0.2 -0.3,0.4 -0.4,0.6 -0.1,0.2 -0.3,0.4 -0.3,0.6 -0,0.1 -0.1,0.3 -0.2,0.4 l -4.6,0.3 z"/>
</g>
<text x="186.5" y="594.1" style="font-family:'Comic Sans MS'; font-size:17.8px; overflow:visible; fill:#3465a4; stroke-width:5.2;">Number</text>
<text x="282.9" y="594.1" style="font-family:'Comic Sans MS'; font-size:17.8px; overflow:visible; fill:#c4a000; stroke-width:5.2;">Its Reciprocal</text>
</g>
</svg>
