<?xml version="1.0" encoding="UTF-8" standalone="no"?>
<svg
   inkscape:version="1.1 (c68e22c387, 2021-05-23)"
   sodipodi:docname="rope.svg"
   id="svg155"
   version="1.1"
   height="430"
   width="110"
   xmlns:inkscape="http://www.inkscape.org/namespaces/inkscape"
   xmlns:sodipodi="http://sodipodi.sourceforge.net/DTD/sodipodi-0.dtd"
   xmlns:xlink="http://www.w3.org/1999/xlink"
   xmlns="http://www.w3.org/2000/svg"
   xmlns:svg="http://www.w3.org/2000/svg"
   xmlns:rdf="http://www.w3.org/1999/02/22-rdf-syntax-ns#"
   xmlns:cc="http://creativecommons.org/ns#"
   xmlns:dc="http://purl.org/dc/elements/1.1/">
  <metadata
     id="metadata161">
    <rdf:RDF>
      <cc:Work
         rdf:about="">
        <dc:format>image/svg+xml</dc:format>
        <dc:type
           rdf:resource="http://purl.org/dc/dcmitype/StillImage" />
      </cc:Work>
    </rdf:RDF>
  </metadata>
  <defs
     id="defs159" />
  <sodipodi:namedview
     inkscape:current-layer="g153"
     inkscape:window-maximized="1"
     inkscape:window-y="-9"
     inkscape:window-x="-9"
     inkscape:cy="80.454951"
     inkscape:cx="85.121477"
     inkscape:zoom="3.0066529"
     showgrid="false"
     id="namedview157"
     inkscape:window-height="1001"
     inkscape:window-width="1920"
     inkscape:pageshadow="2"
     inkscape:pageopacity="0"
     guidetolerance="10"
     gridtolerance="10"
     objecttolerance="10"
     borderopacity="1"
     bordercolor="#666666"
     pagecolor="#ffffff"
     inkscape:pagecheckerboard="0"
     inkscape:snap-global="false" />
  <g
     id="g153"
     transform="translate(723.215,-1393.65)">
    <g
       id="g2332">
      <path
         id="path1975"
         d="m -709.701,1466.03 c 8.15,-46.76 -8.878,-96.66 -43.095,-128.67"
         style="fill:none;stroke:#4e9a06;stroke-width:5.9;stroke-miterlimit:4;stroke-dasharray:none" />
      <path
         id="path1977"
         d="m -725.707,1380.01 c -0.633,6.97 8.669,4.74 11.126,9.13 0.618,1.15 1.263,2.74 0.583,3.97"
         style="fill:none;stroke:#73d216;stroke-width:0.850036" />
      <path
         id="path1979"
         d="m -722.517,1385.65 c -0.749,6.87 8.365,5.09 10.822,9.48 0.617,1.15 1.148,2.63 0.468,3.87"
         style="fill:none;stroke:#73d216;stroke-width:0.850036" />
      <path
         id="path1981"
         d="m -720.682,1390.51 c -1.223,6.25 7.11,5.82 9.828,9.22 0.848,1.35 1.508,3.15 0.741,4.72"
         style="fill:none;stroke:#73d216;stroke-width:0.850036" />
      <path
         id="path1983"
         d="m -718.947,1395.49 c -1.412,6.69 7.975,5.76 9.912,10.51 0.516,1.27 0.83,2.76 0.03,3.9"
         style="fill:none;stroke:#73d216;stroke-width:0.850036" />
      <path
         id="path1985"
         d="m -717.516,1400.81 c -1.296,6.8 7.975,5.77 9.912,10.51 0.516,1.27 0.946,2.87 0.15,4"
         style="fill:none;stroke:#73d216;stroke-width:0.850036" />
      <path
         id="path1987"
         d="m -715.883,1405.9 c -1.743,6.61 7.672,6.11 9.392,10.87 0.517,1.27 0.831,2.77 0.04,3.9"
         style="fill:none;stroke:#73d216;stroke-width:0.850036" />
      <path
         id="path1989"
         d="m -714.452,1411.22 c -1.959,6.63 7.369,6.46 9.089,11.22 0.401,1.17 0.615,2.78 -0.181,3.91"
         style="fill:none;stroke:#73d216;stroke-width:0.850036" />
      <path
         id="path1991"
         d="m -713.223,1416.78 c -2.074,6.52 7.267,6.56 8.67,11.46 0.416,1.38 0.514,2.89 -0.281,4.02"
         style="fill:none;stroke:#73d216;stroke-width:0.850036" />
      <path
         id="path1993"
         d="m -713.145,1421.32 c -2.291,6.53 6.963,6.91 8.265,11.92 0.301,1.28 0.399,2.79 -0.397,3.92"
         style="fill:none;stroke:#73d216;stroke-width:0.850036" />
      <path
         id="path1995"
         d="m -712.018,1426.98 c -2.737,6.35 6.647,7.05 7.732,12.07 0.301,1.28 0.297,2.9 -0.613,3.93"
         style="fill:none;stroke:#73d216;stroke-width:0.850036" />
      <path
         id="path1997"
         d="m -711.227,1432.53 c -2.953,6.36 6.343,7.38 7.327,12.52 0.186,1.18 0.182,2.8 -0.843,3.73"
         style="fill:none;stroke:#73d216;stroke-width:0.850036" />
      <path
         id="path1999"
         d="m -711.318,1437.77 c -3.068,6.26 6.141,7.61 7.01,12.65 0.3,1.28 0.182,2.8 -0.843,3.73"
         style="fill:none;stroke:#73d216;stroke-width:0.850036" />
      <path
         id="path2001"
         d="m -711.274,1442.88 c -3.299,6.06 6.039,7.74 6.577,12.68 0.199,1.4 0.08,2.92 -0.944,3.85"
         style="fill:none;stroke:#73d216;stroke-width:0.850036" />
      <path
         id="path2003"
         d="m -711.225,1448.64 c -3.745,5.87 5.418,8.2 5.538,13.39 0.08,1.3 -0.251,2.84 -1.276,3.77"
         style="fill:none;stroke:#73d216;stroke-width:0.850036" />
      <path
         id="path2005"
         d="m -711.755,1454.47 c -3.483,4.88 2.58,7.96 4.663,11.61"
         style="fill:none;stroke:#73d216;stroke-width:0.850036" />
      <path
         id="path2007"
         d="m -712.082,1459.47 c -2.835,4.84 0.822,7.64 5.754,6.67"
         style="fill:none;stroke:#73d216;stroke-width:0.850036" />
      <path
         id="path2009"
         d="m -754.418,1340.82 c 1.063,-5.37 7.206,-6.09 8.333,-0.43"
         style="fill:none;stroke:#73d216;stroke-width:0.850036" />
      <path
         id="path2011"
         d="m -753.811,1340.13 c 4.123,-0.1 10.859,-1.67 11.365,4.47"
         style="fill:none;stroke:#73d216;stroke-width:0.850036" />
      <path
         id="path2013"
         d="m -754.317,1340.71 c 1.948,6.58 9.757,1.42 13.759,4.52 0.921,0.81 2.086,2.03 1.954,3.34"
         style="fill:none;stroke:#73d216;stroke-width:0.850036" />
      <path
         id="path2015"
         d="m -749.914,1344.97 c 1.847,6.7 9.656,1.54 13.671,4.86 0.921,0.8 2.087,2.03 1.853,3.45"
         style="fill:none;stroke:#73d216;stroke-width:0.850036" />
      <path
         id="path2017"
         d="m -746.864,1348.45 c 1.529,6.84 9.568,1.88 13.381,5.42 0.921,0.81 1.985,2.15 1.752,3.57"
         style="fill:none;stroke:#73d216;stroke-width:0.850036" />
      <path
         id="path2019"
         d="m -743.916,1352.05 c 1.312,6.85 9.596,2.31 13.308,5.97 0.82,0.92 1.884,2.26 1.536,3.58"
         style="fill:none;stroke:#73d216;stroke-width:0.850036" />
      <path
         id="path2021"
         d="m -739.817,1356.66 c 0.88,6.88 9.307,2.87 12.817,6.76 0.82,0.92 1.668,2.27 1.319,3.59"
         style="fill:none;stroke:#73d216;stroke-width:0.850036" />
      <path
         id="path2023"
         d="m -736.122,1361.73 c 0.664,6.89 9.206,2.98 12.716,6.87 0.82,0.92 1.667,2.27 1.319,3.59"
         style="fill:none;stroke:#73d216;stroke-width:0.850036" />
      <path
         id="path2025"
         d="m -733.578,1365.79 c 0.447,6.9 9.247,3.62 12.44,7.64 0.719,1.04 1.566,2.39 1.103,3.61"
         style="fill:none;stroke:#73d216;stroke-width:0.850036" />
      <path
         id="path2027"
         d="M -729.985,1370.97"
         style="fill:none;stroke:#73d216;stroke-width:0.850036" />
      <path
         id="path2029"
         d="m -727.744,1375.37 c -0.317,6.85 8.857,4.31 11.53,8.68 0.732,1.25 1.364,2.62 0.9,3.84"
         style="fill:none;stroke:#73d216;stroke-width:0.850036" />
      <path
         id="path2020"
         d="m -729.867,1370.62 c -0.317,6.85 8.857,4.31 11.53,8.68 0.732,1.25 1.364,2.62 0.9,3.84"
         style="fill:none;stroke:#73d216;stroke-width:0.850036" />
    </g>
    <use
       x="0"
       y="0"
       xlink:href="#g2332"
       id="use2334"
       transform="rotate(179.749,-709.657,1466.03)"
       width="100%"
       height="100%" />
    <use
       x="0"
       y="0"
       xlink:href="#g2332"
       id="use2336"
       transform="translate(84.8119,255.766)"
       width="100%"
       height="100%" />
    <use
       x="0"
       y="0"
       xlink:href="#g2332"
       id="use2338"
       transform="rotate(179.749,-667.698,1594.17)"
       width="100%"
       height="100%" />
  </g>
</svg>
