<?xml version="1.0" encoding="UTF-8" standalone="no"?>
<!-- Created with Inkscape (http://www.inkscape.org/) -->

<svg
   xmlns:dc="http://purl.org/dc/elements/1.1/"
   xmlns:cc="http://creativecommons.org/ns#"
   xmlns:rdf="http://www.w3.org/1999/02/22-rdf-syntax-ns#"
   xmlns:svg="http://www.w3.org/2000/svg"
   xmlns="http://www.w3.org/2000/svg"
   xmlns:sodipodi="http://sodipodi.sourceforge.net/DTD/sodipodi-0.dtd"
   xmlns:inkscape="http://www.inkscape.org/namespaces/inkscape"
   width="43.4217mm"
   height="20.5269mm"
   viewBox="0 0 153.856 72.733"
   id="svg2"
   version="1.1"
   inkscape:version="0.92.2 (5c3e80d, 2017-08-06)"
   sodipodi:docname="round-70s.svg">
  <defs
     id="defs4" />
  <sodipodi:namedview
     id="base"
     pagecolor="#ffffff"
     bordercolor="#666666"
     borderopacity="1.0"
     inkscape:pageopacity="0.0"
     inkscape:pageshadow="2"
     inkscape:zoom="0.5"
     inkscape:cx="229.75513"
     inkscape:cy="532.71472"
     inkscape:document-units="px"
     inkscape:current-layer="layer1"
     showgrid="false"
     inkscape:window-width="1920"
     inkscape:window-height="1008"
     inkscape:window-x="1911"
     inkscape:window-y="-9"
     inkscape:window-maximized="1" />
  <metadata
     id="metadata7">
    <rdf:RDF>
      <cc:Work
         rdf:about="">
        <dc:format>image/svg+xml</dc:format>
        <dc:type
           rdf:resource="http://purl.org/dc/dcmitype/StillImage" />
        <dc:title />
      </cc:Work>
    </rdf:RDF>
  </metadata>
  <g
     inkscape:label="Layer 1"
     inkscape:groupmode="layer"
     id="layer1"
     transform="translate(-86.8922,-533.025)">
    <text
       xml:space="preserve"
       style="color:#000000;font-style:normal;font-variant:normal;font-weight:normal;font-stretch:normal;font-size:31.572247px;line-height:0%;font-family:'Comic Sans MS';-inkscape-font-specification:'Comic Sans MS, Normal';font-variant-ligatures:normal;font-variant-caps:normal;font-variant-numeric:normal;font-feature-settings:normal;text-indent:0;text-align:start;text-decoration:none;text-decoration-line:none;letter-spacing:0px;word-spacing:0px;text-transform:none;writing-mode:lr-tb;direction:ltr;baseline-shift:baseline;text-anchor:start;display:inline;overflow:visible;visibility:visible;fill:#000000;fill-opacity:1;fill-rule:nonzero;stroke:none;stroke-width:0.510244px;stroke-linecap:butt;stroke-linejoin:miter;stroke-opacity:1;marker:none;marker-start:none;marker-mid:none;marker-end:none;enable-background:accumulate"
       x="85.9483"
       y="556.997"
       id="text4136"><tspan
         sodipodi:role="line"
         id="tspan4138"
         x="85.9483"
         y="556.997"
         style="font-style:normal;font-variant:normal;font-weight:normal;font-stretch:normal;font-size:31.572247px;line-height:1.25;font-family:'Comic Sans MS';-inkscape-font-specification:'Comic Sans MS, Normal';font-variant-ligatures:normal;font-variant-caps:normal;font-variant-numeric:normal;font-feature-settings:normal;text-align:start;writing-mode:lr-tb;text-anchor:start;stroke-width:0.510244px">73</tspan></text>
    <text
       xml:space="preserve"
       style="color:#000000;font-style:normal;font-variant:normal;font-weight:normal;font-stretch:normal;font-size:31.572247px;line-height:0%;font-family:'Comic Sans MS';-inkscape-font-specification:'Comic Sans MS, Normal';font-variant-ligatures:normal;font-variant-caps:normal;font-variant-numeric:normal;font-feature-settings:normal;text-indent:0;text-align:start;text-decoration:none;text-decoration-line:none;letter-spacing:0px;word-spacing:0px;text-transform:none;writing-mode:lr-tb;direction:ltr;baseline-shift:baseline;text-anchor:start;display:inline;overflow:visible;visibility:visible;fill:#000000;fill-opacity:1;fill-rule:nonzero;stroke:none;stroke-width:0.510244px;stroke-linecap:butt;stroke-linejoin:miter;stroke-opacity:1;marker:none;marker-start:none;marker-mid:none;marker-end:none;enable-background:accumulate"
       x="85.8129"
       y="603.876"
       id="text4140"><tspan
         sodipodi:role="line"
         id="tspan4142"
         x="85.8129"
         y="603.876"
         style="font-style:normal;font-variant:normal;font-weight:normal;font-stretch:normal;font-size:31.572247px;line-height:1.25;font-family:'Comic Sans MS';-inkscape-font-specification:'Comic Sans MS, Normal';font-variant-ligatures:normal;font-variant-caps:normal;font-variant-numeric:normal;font-feature-settings:normal;text-align:start;writing-mode:lr-tb;text-anchor:start;stroke-width:0.510244px">76</tspan></text>
    <text
       xml:space="preserve"
       style="color:#000000;font-style:normal;font-variant:normal;font-weight:normal;font-stretch:normal;font-size:31.572247px;line-height:0%;font-family:'Comic Sans MS';-inkscape-font-specification:'Comic Sans MS, Normal';font-variant-ligatures:normal;font-variant-caps:normal;font-variant-numeric:normal;font-feature-settings:normal;text-indent:0;text-align:start;text-decoration:none;text-decoration-line:none;letter-spacing:0px;word-spacing:0px;text-transform:none;writing-mode:lr-tb;direction:ltr;baseline-shift:baseline;text-anchor:start;display:inline;overflow:visible;visibility:visible;fill:#0084c8;fill-opacity:1;fill-rule:nonzero;stroke:none;stroke-width:0.510244px;stroke-linecap:butt;stroke-linejoin:miter;stroke-opacity:1;marker:none;marker-start:none;marker-mid:none;marker-end:none;enable-background:accumulate"
       x="203.272"
       y="556.997"
       id="text4144"><tspan
         sodipodi:role="line"
         id="tspan4146"
         x="203.272"
         y="556.997"
         style="font-style:normal;font-variant:normal;font-weight:normal;font-stretch:normal;font-size:31.572247px;line-height:1.25;font-family:'Comic Sans MS';-inkscape-font-specification:'Comic Sans MS, Normal';font-variant-ligatures:normal;font-variant-caps:normal;font-variant-numeric:normal;font-feature-settings:normal;text-align:start;writing-mode:lr-tb;text-anchor:start;stroke-width:0.510244px">70</tspan></text>
    <text
       xml:space="preserve"
       style="color:#000000;font-style:normal;font-variant:normal;font-weight:normal;font-stretch:normal;font-size:31.572247px;line-height:0%;font-family:'Comic Sans MS';-inkscape-font-specification:'Comic Sans MS, Normal';font-variant-ligatures:normal;font-variant-caps:normal;font-variant-numeric:normal;font-feature-settings:normal;text-indent:0;text-align:start;text-decoration:none;text-decoration-line:none;letter-spacing:0px;word-spacing:0px;text-transform:none;writing-mode:lr-tb;direction:ltr;baseline-shift:baseline;text-anchor:start;display:inline;overflow:visible;visibility:visible;fill:#204a87;fill-opacity:1;fill-rule:nonzero;stroke:none;stroke-width:0.510244px;stroke-linecap:butt;stroke-linejoin:miter;stroke-opacity:1;marker:none;marker-start:none;marker-mid:none;marker-end:none;enable-background:accumulate"
       x="202.872"
       y="603.876"
       id="text4148"><tspan
         sodipodi:role="line"
         id="tspan4150"
         x="202.872"
         y="603.876"
         style="font-style:normal;font-variant:normal;font-weight:normal;font-stretch:normal;font-size:31.572247px;line-height:1.25;font-family:'Comic Sans MS';-inkscape-font-specification:'Comic Sans MS, Normal';font-variant-ligatures:normal;font-variant-caps:normal;font-variant-numeric:normal;font-feature-settings:normal;text-align:start;writing-mode:lr-tb;text-anchor:start;stroke-width:0.510244px">80</tspan></text>
    <g
       id="g4164"
       transform="matrix(0.506445,0,0,0.619304,44.4949,298.199)">
      <path
         inkscape:connector-curvature="0"
         d="m 169.725,395.899 c 1.457,-0.579 2.905,-1.192 4.362,-1.775 2.784,-1.085 5.625,-1.935 8.474,-2.733 3.05,-0.807 6.133,-1.418 9.218,-1.995 2.619,-0.486 5.243,-0.935 7.868,-1.372 2.574,-0.517 5.19,-0.478 7.794,-0.411 2.666,0.1 5.328,0.277 7.988,0.541 2.979,0.293 5.933,0.889 8.889,1.44 2.964,0.563 5.924,1.158 8.885,1.75 3.013,0.561 6.024,1.131 9.04,1.659 2.775,0.536 5.561,0.974 8.34,1.469 2.461,0.438 4.926,0.844 7.392,1.23 2.121,0.329 4.237,0.708 6.357,1.049 1.838,0.322 3.688,0.502 5.536,0.685 1.668,0.142 3.336,0.172 5.005,0.194 1.446,-0.02 2.892,-0.09 4.33,-0.257 1.291,-0.109 2.572,-0.307 3.856,-0.491 0.572,-0.117 1.145,-0.224 1.717,-0.337 0,0 -1.81,7.016 -1.81,7.016 v 0 c -0.612,0.105 -1.224,0.216 -1.84,0.285 -1.332,0.18 -2.667,0.316 -4.005,0.424 -1.536,0.09 -3.073,0.167 -4.612,0.113 -1.744,-0.04 -3.488,-0.133 -5.228,-0.323 -1.901,-0.206 -3.799,-0.449 -5.69,-0.781 -2.115,-0.349 -4.228,-0.719 -6.346,-1.041 -2.48,-0.399 -4.958,-0.818 -7.434,-1.258 -2.784,-0.478 -5.567,-0.957 -8.346,-1.473 -3.034,-0.544 -6.065,-1.109 -9.094,-1.695 -2.95,-0.583 -5.897,-1.187 -8.851,-1.727 -2.873,-0.528 -5.75,-1.056 -8.649,-1.288 -2.589,-0.221 -5.182,-0.375 -7.775,-0.421 -2.449,0 -4.89,0.136 -7.303,0.646 -2.604,0.443 -5.207,0.897 -7.803,1.398 -3.001,0.592 -6,1.226 -8.955,2.092 -2.744,0.823 -5.482,1.693 -8.15,2.832 -1.224,0.526 -2.602,0.936 -3.643,1.913 0,0 0.483,-7.358 0.483,-7.358 z"
         id="path4158"
         style="color:#000000;clip-rule:nonzero;display:inline;overflow:visible;visibility:visible;opacity:1;isolation:auto;mix-blend-mode:normal;color-interpolation:sRGB;color-interpolation-filters:linearRGB;solid-color:#000000;solid-opacity:1;fill:#c4a000;fill-opacity:1;fill-rule:nonzero;stroke:none;stroke-width:8;stroke-linecap:butt;stroke-linejoin:round;stroke-miterlimit:4;stroke-dasharray:none;stroke-dashoffset:0;stroke-opacity:1;marker:none;marker-start:none;marker-mid:none;marker-end:none;color-rendering:auto;image-rendering:auto;shape-rendering:auto;text-rendering:auto;enable-background:accumulate" />
      <path
         inkscape:connector-curvature="0"
         d="m 250.847,380.021 c 0.712,0.596 1.484,1.115 2.236,1.659 1.218,0.841 2.483,1.612 3.757,2.366 1.691,0.953 3.443,1.79 5.201,2.609 1.922,0.895 3.884,1.693 5.853,2.473 1.995,0.784 4.034,1.444 6.058,2.145 1.902,0.658 3.841,1.203 5.764,1.796 1.77,0.549 3.557,1.037 5.351,1.497 1.709,0.499 3.451,0.869 5.17,1.326 1.577,0.423 3.168,0.792 4.764,1.137 1.062,0.231 2.14,0.305 3.223,0.276 0,0 -3.183,6.671 -3.183,6.671 v 0 c -1.317,-0.129 -2.624,-0.331 -3.91,-0.65 -1.632,-0.377 -3.257,-0.784 -4.877,-1.208 -1.738,-0.425 -3.47,-0.872 -5.196,-1.342 -1.841,-0.497 -3.672,-1.026 -5.493,-1.591 -1.976,-0.595 -3.947,-1.205 -5.895,-1.887 -2.093,-0.715 -4.182,-1.443 -6.234,-2.274 -2.044,-0.826 -4.073,-1.692 -6.064,-2.639 -1.878,-0.9 -3.747,-1.824 -5.533,-2.897 -1.368,-0.832 -2.726,-1.684 -4.025,-2.624 -0.776,-0.558 -1.542,-1.131 -2.295,-1.72 0,0 5.328,-5.123 5.328,-5.123 z"
         id="path4160"
         style="color:#000000;clip-rule:nonzero;display:inline;overflow:visible;visibility:visible;opacity:1;isolation:auto;mix-blend-mode:normal;color-interpolation:sRGB;color-interpolation-filters:linearRGB;solid-color:#000000;solid-opacity:1;fill:#c4a000;fill-opacity:1;fill-rule:nonzero;stroke:none;stroke-width:8;stroke-linecap:butt;stroke-linejoin:round;stroke-miterlimit:4;stroke-dasharray:none;stroke-dashoffset:0;stroke-opacity:1;marker:none;marker-start:none;marker-mid:none;marker-end:none;color-rendering:auto;image-rendering:auto;shape-rendering:auto;text-rendering:auto;enable-background:accumulate" />
      <path
         inkscape:connector-curvature="0"
         d="m 251.398,413.631 c 1.02,-0.527 2.101,-0.92 3.162,-1.356 1.846,-0.833 3.737,-1.554 5.621,-2.292 2.279,-0.898 4.564,-1.78 6.85,-2.658 2.188,-0.819 4.391,-1.601 6.602,-2.356 2.09,-0.699 4.182,-1.39 6.291,-2.029 1.93,-0.555 3.848,-1.144 5.783,-1.681 1.771,-0.445 3.526,-0.944 5.291,-1.412 1.634,-0.411 3.274,-0.796 4.909,-1.201 1.037,-0.273 2.092,-0.459 3.144,-0.664 0,0 -2.164,7.068 -2.164,7.068 v 0 c -0.997,0.216 -1.986,0.465 -2.976,0.713 -1.609,0.397 -3.225,0.77 -4.819,1.225 -1.742,0.479 -3.495,0.919 -5.228,1.429 -1.896,0.558 -3.791,1.118 -5.678,1.707 -2.056,0.662 -4.105,1.35 -6.144,2.062 -2.164,0.775 -4.332,1.54 -6.469,2.385 -2.275,0.876 -4.54,1.776 -6.81,2.666 -1.855,0.741 -3.687,1.536 -5.528,2.309 -1.022,0.439 -2.022,0.922 -3.036,1.378 0,0 1.199,-7.293 1.199,-7.293 z"
         id="path4162"
         style="color:#000000;clip-rule:nonzero;display:inline;overflow:visible;visibility:visible;opacity:1;isolation:auto;mix-blend-mode:normal;color-interpolation:sRGB;color-interpolation-filters:linearRGB;solid-color:#000000;solid-opacity:1;fill:#c4a000;fill-opacity:1;fill-rule:nonzero;stroke:none;stroke-width:8;stroke-linecap:butt;stroke-linejoin:round;stroke-miterlimit:4;stroke-dasharray:none;stroke-dashoffset:0;stroke-opacity:1;marker:none;marker-start:none;marker-mid:none;marker-end:none;color-rendering:auto;image-rendering:auto;shape-rendering:auto;text-rendering:auto;enable-background:accumulate" />
    </g>
    <g
       transform="matrix(0.506445,0,0,0.619304,44.4949,345.078)"
       id="g4169">
      <path
         style="color:#000000;clip-rule:nonzero;display:inline;overflow:visible;visibility:visible;opacity:1;isolation:auto;mix-blend-mode:normal;color-interpolation:sRGB;color-interpolation-filters:linearRGB;solid-color:#000000;solid-opacity:1;fill:#c4a000;fill-opacity:1;fill-rule:nonzero;stroke:none;stroke-width:8;stroke-linecap:butt;stroke-linejoin:round;stroke-miterlimit:4;stroke-dasharray:none;stroke-dashoffset:0;stroke-opacity:1;marker:none;marker-start:none;marker-mid:none;marker-end:none;color-rendering:auto;image-rendering:auto;shape-rendering:auto;text-rendering:auto;enable-background:accumulate"
         id="path4171"
         d="m 169.725,395.899 c 1.457,-0.579 2.905,-1.192 4.362,-1.775 2.784,-1.085 5.625,-1.935 8.474,-2.733 3.05,-0.807 6.133,-1.418 9.218,-1.995 2.619,-0.486 5.243,-0.935 7.868,-1.372 2.574,-0.517 5.19,-0.478 7.794,-0.411 2.666,0.1 5.328,0.277 7.988,0.541 2.979,0.293 5.933,0.889 8.889,1.44 2.964,0.563 5.924,1.158 8.885,1.75 3.013,0.561 6.024,1.131 9.04,1.659 2.775,0.536 5.561,0.974 8.34,1.469 2.461,0.438 4.926,0.844 7.392,1.23 2.121,0.329 4.237,0.708 6.357,1.049 1.838,0.322 3.688,0.502 5.536,0.685 1.668,0.142 3.336,0.172 5.005,0.194 1.446,-0.02 2.892,-0.09 4.33,-0.257 1.291,-0.109 2.572,-0.307 3.856,-0.491 0.572,-0.117 1.145,-0.224 1.717,-0.337 0,0 -1.81,7.016 -1.81,7.016 v 0 c -0.612,0.105 -1.224,0.216 -1.84,0.285 -1.332,0.18 -2.667,0.316 -4.005,0.424 -1.536,0.09 -3.073,0.167 -4.612,0.113 -1.744,-0.04 -3.488,-0.133 -5.228,-0.323 -1.901,-0.206 -3.799,-0.449 -5.69,-0.781 -2.115,-0.349 -4.228,-0.719 -6.346,-1.041 -2.48,-0.399 -4.958,-0.818 -7.434,-1.258 -2.784,-0.478 -5.567,-0.957 -8.346,-1.473 -3.034,-0.544 -6.065,-1.109 -9.094,-1.695 -2.95,-0.583 -5.897,-1.187 -8.851,-1.727 -2.873,-0.528 -5.75,-1.056 -8.649,-1.288 -2.589,-0.221 -5.182,-0.375 -7.775,-0.421 -2.449,0 -4.89,0.136 -7.303,0.646 -2.604,0.443 -5.207,0.897 -7.803,1.398 -3.001,0.592 -6,1.226 -8.955,2.092 -2.744,0.823 -5.482,1.693 -8.15,2.832 -1.224,0.526 -2.602,0.936 -3.643,1.913 0,0 0.483,-7.358 0.483,-7.358 z"
         inkscape:connector-curvature="0" />
      <path
         style="color:#000000;clip-rule:nonzero;display:inline;overflow:visible;visibility:visible;opacity:1;isolation:auto;mix-blend-mode:normal;color-interpolation:sRGB;color-interpolation-filters:linearRGB;solid-color:#000000;solid-opacity:1;fill:#c4a000;fill-opacity:1;fill-rule:nonzero;stroke:none;stroke-width:8;stroke-linecap:butt;stroke-linejoin:round;stroke-miterlimit:4;stroke-dasharray:none;stroke-dashoffset:0;stroke-opacity:1;marker:none;marker-start:none;marker-mid:none;marker-end:none;color-rendering:auto;image-rendering:auto;shape-rendering:auto;text-rendering:auto;enable-background:accumulate"
         id="path4173"
         d="m 250.847,380.021 c 0.712,0.596 1.484,1.115 2.236,1.659 1.218,0.841 2.483,1.612 3.757,2.366 1.691,0.953 3.443,1.79 5.201,2.609 1.922,0.895 3.884,1.693 5.853,2.473 1.995,0.784 4.034,1.444 6.058,2.145 1.902,0.658 3.841,1.203 5.764,1.796 1.77,0.549 3.557,1.037 5.351,1.497 1.709,0.499 3.451,0.869 5.17,1.326 1.577,0.423 3.168,0.792 4.764,1.137 1.062,0.231 2.14,0.305 3.223,0.276 0,0 -3.183,6.671 -3.183,6.671 v 0 c -1.317,-0.129 -2.624,-0.331 -3.91,-0.65 -1.632,-0.377 -3.257,-0.784 -4.877,-1.208 -1.738,-0.425 -3.47,-0.872 -5.196,-1.342 -1.841,-0.497 -3.672,-1.026 -5.493,-1.591 -1.976,-0.595 -3.947,-1.205 -5.895,-1.887 -2.093,-0.715 -4.182,-1.443 -6.234,-2.274 -2.044,-0.826 -4.073,-1.692 -6.064,-2.639 -1.878,-0.9 -3.747,-1.824 -5.533,-2.897 -1.368,-0.832 -2.726,-1.684 -4.025,-2.624 -0.776,-0.558 -1.542,-1.131 -2.295,-1.72 0,0 5.328,-5.123 5.328,-5.123 z"
         inkscape:connector-curvature="0" />
      <path
         style="color:#000000;clip-rule:nonzero;display:inline;overflow:visible;visibility:visible;opacity:1;isolation:auto;mix-blend-mode:normal;color-interpolation:sRGB;color-interpolation-filters:linearRGB;solid-color:#000000;solid-opacity:1;fill:#c4a000;fill-opacity:1;fill-rule:nonzero;stroke:none;stroke-width:8;stroke-linecap:butt;stroke-linejoin:round;stroke-miterlimit:4;stroke-dasharray:none;stroke-dashoffset:0;stroke-opacity:1;marker:none;marker-start:none;marker-mid:none;marker-end:none;color-rendering:auto;image-rendering:auto;shape-rendering:auto;text-rendering:auto;enable-background:accumulate"
         id="path4175"
         d="m 251.398,413.631 c 1.02,-0.527 2.101,-0.92 3.162,-1.356 1.846,-0.833 3.737,-1.554 5.621,-2.292 2.279,-0.898 4.564,-1.78 6.85,-2.658 2.188,-0.819 4.391,-1.601 6.602,-2.356 2.09,-0.699 4.182,-1.39 6.291,-2.029 1.93,-0.555 3.848,-1.144 5.783,-1.681 1.771,-0.445 3.526,-0.944 5.291,-1.412 1.634,-0.411 3.274,-0.796 4.909,-1.201 1.037,-0.273 2.092,-0.459 3.144,-0.664 0,0 -2.164,7.068 -2.164,7.068 v 0 c -0.997,0.216 -1.986,0.465 -2.976,0.713 -1.609,0.397 -3.225,0.77 -4.819,1.225 -1.742,0.479 -3.495,0.919 -5.228,1.429 -1.896,0.558 -3.791,1.118 -5.678,1.707 -2.056,0.662 -4.105,1.35 -6.144,2.062 -2.164,0.775 -4.332,1.54 -6.469,2.385 -2.275,0.876 -4.54,1.776 -6.81,2.666 -1.855,0.741 -3.687,1.536 -5.528,2.309 -1.022,0.439 -2.022,0.922 -3.036,1.378 0,0 1.199,-7.293 1.199,-7.293 z"
         inkscape:connector-curvature="0" />
    </g>
  </g>
</svg>
