<?xml version="1.0" encoding="UTF-8" standalone="no"?>
<!-- Copyright 2021 mathsisfun.com -->

<svg
   width="159.926"
   height="260"
   version="1.1"
   style="stroke-width:0.2"
   id="svg301"
   sodipodi:docname="sage-multiply.svg"
   inkscape:version="1.1 (c68e22c387, 2021-05-23)"
   xmlns:inkscape="http://www.inkscape.org/namespaces/inkscape"
   xmlns:sodipodi="http://sodipodi.sourceforge.net/DTD/sodipodi-0.dtd"
   xmlns:xlink="http://www.w3.org/1999/xlink"
   xmlns="http://www.w3.org/2000/svg"
   xmlns:svg="http://www.w3.org/2000/svg">
  <sodipodi:namedview
     id="namedview303"
     pagecolor="#ffffff"
     bordercolor="#666666"
     borderopacity="1.0"
     inkscape:pageshadow="2"
     inkscape:pageopacity="0.0"
     inkscape:pagecheckerboard="0"
     showgrid="false"
     inkscape:current-layer="svg301"
     inkscape:snap-global="false" />
  <defs
     id="defs108">
    <linearGradient
       inkscape:collect="always"
       id="linearGradient210913">
      <stop
         style="stop-color:#7d4e37;stop-opacity:1"
         offset="0"
         id="stop210909" />
      <stop
         style="stop-color:#b27a44;stop-opacity:1"
         offset="1"
         id="stop210911" />
    </linearGradient>
    <linearGradient
       inkscape:collect="always"
       id="linearGradient209795">
      <stop
         style="stop-color:#9f6a36;stop-opacity:1"
         offset="0"
         id="stop209791" />
      <stop
         style="stop-color:#c48a51;stop-opacity:1"
         offset="1"
         id="stop209793" />
    </linearGradient>
    <linearGradient
       inkscape:collect="always"
       id="linearGradient196686">
      <stop
         style="stop-color:#c48a51;stop-opacity:0.741313"
         offset="0"
         id="stop196682" />
      <stop
         style="stop-color:#c48a51;stop-opacity:0.065637"
         offset="1"
         id="stop196684" />
    </linearGradient>
    <linearGradient
       inkscape:collect="always"
       id="linearGradient182074">
      <stop
         style="stop-color:#c48a51;stop-opacity:1"
         offset="0"
         id="stop182070" />
      <stop
         style="stop-color:#d1a57a;stop-opacity:0.282353"
         offset="0.725989"
         id="stop186978" />
      <stop
         style="stop-color:#c28850;stop-opacity:0.050193"
         offset="1"
         id="stop182072" />
    </linearGradient>
    <linearGradient
       inkscape:collect="always"
       id="linearGradient181716">
      <stop
         style="stop-color:#000000;stop-opacity:1"
         offset="0"
         id="stop181712" />
      <stop
         style="stop-color:#000000;stop-opacity:0"
         offset="1"
         id="stop181714" />
    </linearGradient>
    <linearGradient
       inkscape:collect="always"
       id="linearGradient176255">
      <stop
         style="stop-color:#744634;stop-opacity:1"
         offset="0"
         id="stop176251" />
      <stop
         style="stop-color:#000000;stop-opacity:0"
         offset="1"
         id="stop176253" />
    </linearGradient>
    <linearGradient
       inkscape:collect="always"
       id="linearGradient174774">
      <stop
         style="stop-color:#000000;stop-opacity:1"
         offset="0"
         id="stop174770" />
      <stop
         style="stop-color:#000000;stop-opacity:0"
         offset="1"
         id="stop174772" />
    </linearGradient>
    <linearGradient
       inkscape:collect="always"
       id="linearGradient129823">
      <stop
         style="stop-color:#c48a51;stop-opacity:1"
         offset="0"
         id="stop129819" />
      <stop
         style="stop-color:#754634;stop-opacity:1"
         offset="1"
         id="stop129821" />
    </linearGradient>
    <linearGradient
       inkscape:collect="always"
       id="linearGradient129321">
      <stop
         style="stop-color:#000000;stop-opacity:1"
         offset="0"
         id="stop129317" />
      <stop
         style="stop-color:#000000;stop-opacity:0"
         offset="1"
         id="stop129319" />
    </linearGradient>
    <linearGradient
       inkscape:collect="always"
       id="linearGradient94327">
      <stop
         style="stop-color:#c48a51;stop-opacity:1"
         offset="0"
         id="stop94323" />
      <stop
         style="stop-color:#b6785a;stop-opacity:1"
         offset="0.104566"
         id="stop128243" />
      <stop
         style="stop-color:#744634;stop-opacity:1"
         offset="0.279232"
         id="stop94523" />
      <stop
         style="stop-color:#784936;stop-opacity:1"
         offset="0.780395"
         id="stop94589" />
      <stop
         style="stop-color:#865939;stop-opacity:1"
         offset="0.880816"
         id="stop128885" />
      <stop
         style="stop-color:#c0874f;stop-opacity:1"
         offset="1"
         id="stop94325" />
    </linearGradient>
    <linearGradient
       inkscape:collect="always"
       id="linearGradient54499">
      <stop
         style="stop-color:#584430;stop-opacity:1"
         offset="0"
         id="stop54495" />
      <stop
         style="stop-color:#ce9051;stop-opacity:1"
         offset="1"
         id="stop54497" />
    </linearGradient>
    <linearGradient
       inkscape:collect="always"
       id="linearGradient53777">
      <stop
         style="stop-color:#b27a49;stop-opacity:1"
         offset="0"
         id="stop53773" />
      <stop
         style="stop-color:#9b6a40;stop-opacity:0"
         offset="1"
         id="stop53775" />
    </linearGradient>
    <linearGradient
       inkscape:collect="always"
       id="linearGradient53769">
      <stop
         style="stop-color:#b57a48;stop-opacity:1"
         offset="0"
         id="stop53765" />
      <stop
         style="stop-color:#98673d;stop-opacity:1"
         offset="1"
         id="stop53767" />
    </linearGradient>
    <linearGradient
       inkscape:collect="always"
       id="linearGradient49041">
      <stop
         style="stop-color:#594831;stop-opacity:1"
         offset="0"
         id="stop49037" />
      <stop
         style="stop-color:#54432e;stop-opacity:1"
         offset="0.583235"
         id="stop49493" />
      <stop
         style="stop-color:#3e2a28;stop-opacity:1"
         offset="1"
         id="stop49039" />
    </linearGradient>
    <linearGradient
       inkscape:collect="always"
       id="linearGradient48715">
      <stop
         style="stop-color:#dfc9b4;stop-opacity:1"
         offset="0"
         id="stop48711" />
      <stop
         style="stop-color:#dfc9b4;stop-opacity:0"
         offset="1"
         id="stop48713" />
    </linearGradient>
    <linearGradient
       inkscape:collect="always"
       id="linearGradient47371">
      <stop
         style="stop-color:#d7d0c6;stop-opacity:0.724806"
         offset="0"
         id="stop47367" />
      <stop
         style="stop-color:#695b49;stop-opacity:0"
         offset="1"
         id="stop47369" />
    </linearGradient>
    <linearGradient
       id="id14">
      <stop
         offset="0"
         style="stop-color:#4c4b1f;stop-opacity:1"
         id="stop2" />
      <stop
         offset="1"
         style="stop-color:#ecffba;stop-opacity:0"
         id="stop4" />
    </linearGradient>
    <linearGradient
       id="id13">
      <stop
         offset="0"
         style="stop-color:#5e5d26;stop-opacity:1"
         id="stop7" />
      <stop
         offset="1"
         style="stop-color:#ecffba;stop-opacity:1"
         id="stop9" />
    </linearGradient>
    <linearGradient
       id="id11">
      <stop
         offset="0"
         style="stop-color:#c4a000;stop-opacity:0"
         id="stop12" />
      <stop
         offset="1"
         style="stop-color:white;stop-opacity:1"
         id="stop14" />
    </linearGradient>
    <linearGradient
       id="id9">
      <stop
         offset="0"
         style="stop-color:#a7a748;stop-opacity:1"
         id="stop17" />
      <stop
         offset="0.257"
         style="stop-color:#5f5f29;stop-opacity:1"
         id="stop19" />
      <stop
         offset="1"
         style="stop-color:#5a5a27;stop-opacity:0"
         id="stop21" />
    </linearGradient>
    <linearGradient
       id="id10">
      <stop
         offset="0"
         style="stop-color:#5a5a27;stop-opacity:1"
         id="stop24" />
      <stop
         offset="1"
         style="stop-color:#5a5a27;stop-opacity:0"
         id="stop26" />
    </linearGradient>
    <linearGradient
       id="id12">
      <stop
         offset="0"
         style="stop-color:white;stop-opacity:1"
         id="stop29" />
      <stop
         offset="1"
         style="stop-color:white;stop-opacity:0"
         id="stop31" />
    </linearGradient>
    <linearGradient
       id="id8">
      <stop
         offset="0"
         style="stop-color:#ab9f92;stop-opacity:1"
         id="stop34" />
      <stop
         offset="0.343"
         style="stop-color:#a99e91;stop-opacity:1"
         id="stop36" />
      <stop
         offset="1"
         style="stop-color:#ab9f92;stop-opacity:1"
         id="stop38" />
    </linearGradient>
    <linearGradient
       id="id7">
      <stop
         offset="0"
         style="stop-color:#c6c6a2;stop-opacity:1"
         id="stop41" />
      <stop
         offset="0.46"
         style="stop-color:#ebebde;stop-opacity:1"
         id="stop43" />
      <stop
         offset="1"
         style="stop-color:#c6c6a2;stop-opacity:1"
         id="stop45" />
    </linearGradient>
    <linearGradient
       id="id6">
      <stop
         offset="0"
         style="stop-color:#a1a16f;stop-opacity:1"
         id="stop48" />
      <stop
         offset="1"
         style="stop-color:#c5c5a1;stop-opacity:1"
         id="stop50" />
    </linearGradient>
    <linearGradient
       id="id5">
      <stop
         offset="0"
         style="stop-color:white;stop-opacity:1"
         id="stop53" />
      <stop
         offset="1"
         style="stop-color:white;stop-opacity:0"
         id="stop55" />
    </linearGradient>
    <linearGradient
       id="id4">
      <stop
         offset="0"
         style="stop-color:#8b8b55;stop-opacity:1"
         id="stop58" />
      <stop
         offset="0.278"
         style="stop-color:#8e8e58;stop-opacity:1"
         id="stop60" />
      <stop
         offset="0.427"
         style="stop-color:#a0a069;stop-opacity:1"
         id="stop62" />
      <stop
         offset="0.748"
         style="stop-color:#65653d;stop-opacity:1"
         id="stop64" />
      <stop
         offset="1"
         style="stop-color:#7a7a43;stop-opacity:1"
         id="stop66" />
    </linearGradient>
    <linearGradient
       id="id3">
      <stop
         offset="0"
         style="stop-color:#f18752;stop-opacity:1"
         id="stop69" />
      <stop
         offset="1"
         style="stop-color:#f5ff53;stop-opacity:1"
         id="stop71" />
    </linearGradient>
    <linearGradient
       id="id2">
      <stop
         offset="0"
         style="stop-color:#adad7f;stop-opacity:1"
         id="stop74" />
      <stop
         offset="1"
         style="stop-color:#d1d1b7;stop-opacity:1"
         id="stop76" />
    </linearGradient>
    <linearGradient
       id="id1">
      <stop
         offset="0"
         style="stop-color:#5f6133;stop-opacity:1"
         id="stop79" />
      <stop
         offset="0.336"
         style="stop-color:#41451d;stop-opacity:1"
         id="stop81" />
      <stop
         offset="1"
         style="stop-color:#d5d6bd;stop-opacity:1"
         id="stop83" />
    </linearGradient>
    <linearGradient
       id="id19"
       gradientTransform="translate(-7.97923,62.2445)"
       xlink:href="#id1"
       x1="30.3"
       y1="59.4"
       x2="30.2"
       y2="53.8"
       gradientUnits="userSpaceOnUse" />
    <linearGradient
       id="id20"
       gradientTransform="translate(-47.6515,19.3061)"
       xlink:href="#id2"
       x1="25.1"
       y1="40.4"
       x2="24.3"
       y2="38.7"
       gradientUnits="userSpaceOnUse" />
    <linearGradient
       id="id37"
       gradientTransform="translate(-47.6515,19.3061)"
       xlink:href="#id2"
       x1="25.1"
       y1="40.4"
       x2="24.3"
       y2="38.7"
       gradientUnits="userSpaceOnUse" />
    <linearGradient
       id="id18"
       gradientTransform="translate(18.6786,3.09296)"
       xlink:href="#id3"
       x1="42.6"
       y1="-28.9"
       x2="56.7"
       y2="-28.9"
       gradientUnits="userSpaceOnUse" />
    <linearGradient
       id="id55"
       gradientTransform="translate(18.6786,3.09296)"
       xlink:href="#id3"
       x1="42.6"
       y1="-28.9"
       x2="56.7"
       y2="-28.9"
       gradientUnits="userSpaceOnUse" />
    <linearGradient
       id="id56"
       gradientTransform="translate(18.6786,3.09296)"
       xlink:href="#id3"
       x1="42.6"
       y1="-28.9"
       x2="56.7"
       y2="-28.9"
       gradientUnits="userSpaceOnUse" />
    <linearGradient
       id="id15"
       gradientTransform="translate(15.8677,5.30505)"
       xlink:href="#id4"
       x1="17"
       y1="128.6"
       x2="31.4"
       y2="128.9"
       gradientUnits="userSpaceOnUse" />
    <radialGradient
       id="id16"
       r="7.04785"
       fx="37.0179"
       fy="171.495"
       cx="37"
       cy="171.5"
       gradientTransform="matrix(0.03608,0.511837,-0.767023,0.054067,163.029,135.112)"
       xlink:href="#id5"
       gradientUnits="userSpaceOnUse" />
    <radialGradient
       id="id17"
       r="7.917"
       fx="34.3131"
       fy="157.013"
       cx="34.3"
       cy="157"
       gradientTransform="matrix(0.631732,0,0,1.58088,12.6168,-91.2845)"
       xlink:href="#id5"
       gradientUnits="userSpaceOnUse" />
    <linearGradient
       id="id59"
       gradientTransform="translate(139.745,-88.1724)"
       xlink:href="#id6"
       x1="-68.5"
       y1="129"
       x2="-68.5"
       y2="134.2"
       gradientUnits="userSpaceOnUse" />
    <linearGradient
       id="id58"
       gradientTransform="translate(139.745,-88.1724)"
       xlink:href="#id7"
       x1="-80.1"
       y1="126.6"
       x2="-56.4"
       y2="126.5"
       gradientUnits="userSpaceOnUse" />
    <linearGradient
       id="id57"
       xlink:href="#id8"
       x1="55.1"
       y1="45"
       x2="86.8"
       y2="45"
       gradientUnits="userSpaceOnUse" />
    <linearGradient
       id="id60"
       gradientTransform="translate(-45.0156,11.7419)"
       xlink:href="#id9"
       x1="30.6"
       y1="124.3"
       x2="33.9"
       y2="116.1"
       gradientUnits="userSpaceOnUse" />
    <linearGradient
       id="id61"
       gradientTransform="translate(-45.0156,11.7419)"
       xlink:href="#id10"
       x1="47.1"
       y1="119.8"
       x2="43"
       y2="110.6"
       gradientUnits="userSpaceOnUse" />
    <linearGradient
       id="id62"
       xlink:href="#id11"
       x1="11.2"
       y1="124"
       x2="10.8"
       y2="119.1"
       gradientUnits="userSpaceOnUse" />
    <radialGradient
       id="id63"
       r="23.6614"
       fx="94.9255"
       fy="120.604"
       cx="94.9"
       cy="120.6"
       gradientTransform="matrix(0.631207,0.07283,-0.028954,0.242825,30.6556,-68.5523)"
       xlink:href="#id12"
       gradientUnits="userSpaceOnUse" />
    <linearGradient
       id="id68"
       gradientTransform="translate(0.881511,1.237)"
       xlink:href="#id13"
       x1="26.7"
       y1="130.3"
       x2="25"
       y2="122.4"
       gradientUnits="userSpaceOnUse" />
    <linearGradient
       id="id69"
       gradientTransform="translate(0.881535,1.23717)"
       xlink:href="#id14"
       x1="30.8"
       y1="128.3"
       x2="24.8"
       y2="123.8"
       gradientUnits="userSpaceOnUse" />
    <linearGradient
       id="id65"
       gradientTransform="translate(11.4936,31.3481)"
       xlink:href="#id14"
       x1="30.8"
       y1="128.3"
       x2="24.8"
       y2="123.8"
       gradientUnits="userSpaceOnUse" />
    <linearGradient
       id="id64"
       gradientTransform="translate(11.4936,31.3481)"
       xlink:href="#id13"
       x1="26.7"
       y1="130.3"
       x2="25"
       y2="122.4"
       gradientUnits="userSpaceOnUse" />
    <linearGradient
       id="id66"
       gradientTransform="translate(11.4936,31.3481)"
       xlink:href="#id13"
       x1="26.7"
       y1="130.3"
       x2="25"
       y2="122.4"
       gradientUnits="userSpaceOnUse" />
    <linearGradient
       id="id67"
       gradientTransform="translate(11.4936,31.3481)"
       xlink:href="#id14"
       x1="30.8"
       y1="128.3"
       x2="24.8"
       y2="123.8"
       gradientUnits="userSpaceOnUse" />
    <radialGradient
       inkscape:collect="always"
       xlink:href="#linearGradient47371"
       id="radialGradient47373"
       cx="165.823"
       cy="75.506"
       fx="165.823"
       fy="75.506"
       r="1.59865"
       gradientTransform="matrix(1.302,0.224186,-0.215057,2.61762,-301.899,-156.605)"
       gradientUnits="userSpaceOnUse" />
    <linearGradient
       inkscape:collect="always"
       xlink:href="#linearGradient48715"
       id="linearGradient48717"
       x1="173.704"
       y1="85.3856"
       x2="171.445"
       y2="77.9704"
       gradientUnits="userSpaceOnUse"
       gradientTransform="matrix(0.820372,0,0,0.833688,-199.362,52.6027)" />
    <linearGradient
       inkscape:collect="always"
       xlink:href="#linearGradient49041"
       id="linearGradient49043"
       x1="159.698"
       y1="90.2075"
       x2="173.561"
       y2="48.1137"
       gradientUnits="userSpaceOnUse"
       gradientTransform="matrix(-0.826228,-0.10976,-0.109701,0.826669,193.148,78.834)" />
    <linearGradient
       inkscape:collect="always"
       xlink:href="#linearGradient53769"
       id="linearGradient53771"
       x1="173.612"
       y1="33.3212"
       x2="192.764"
       y2="33.3212"
       gradientUnits="userSpaceOnUse"
       gradientTransform="matrix(-0.886761,-0.129145,-0.129152,0.886239,-104.553,-3.22229)" />
    <linearGradient
       inkscape:collect="always"
       xlink:href="#linearGradient53777"
       id="linearGradient53779"
       x1="132.473"
       y1="38.3429"
       x2="151.64"
       y2="38.3429"
       gradientUnits="userSpaceOnUse"
       gradientTransform="matrix(-0.819339,-0.362914,-0.36278,0.818835,-128.118,60.6261)" />
    <linearGradient
       inkscape:collect="always"
       xlink:href="#linearGradient54499"
       id="linearGradient54501"
       x1="183.897"
       y1="20.516"
       x2="184.71"
       y2="43.2689"
       gradientUnits="userSpaceOnUse"
       gradientTransform="matrix(-0.886761,-0.129145,-0.129152,0.886239,-104.553,-3.22229)" />
    <linearGradient
       inkscape:collect="always"
       xlink:href="#linearGradient54499"
       id="linearGradient58346"
       x1="141.987"
       y1="23.4646"
       x2="145.991"
       y2="42.4997"
       gradientUnits="userSpaceOnUse"
       gradientTransform="matrix(-0.819339,-0.362914,-0.36278,0.818835,-128.118,60.6261)" />
    <linearGradient
       inkscape:collect="always"
       xlink:href="#linearGradient94327"
       id="linearGradient107839"
       x1="-311.807"
       y1="198.847"
       x2="-210.554"
       y2="228.615"
       gradientUnits="userSpaceOnUse"
       gradientTransform="matrix(0.897153,0,0,0.897485,295.274,28.496)" />
    <linearGradient
       inkscape:collect="always"
       xlink:href="#linearGradient129321"
       id="linearGradient129323"
       x1="-259.929"
       y1="117.101"
       x2="-254.052"
       y2="163.144"
       gradientUnits="userSpaceOnUse"
       gradientTransform="matrix(0.897153,0,0,0.897485,300.291,57.2716)" />
    <linearGradient
       inkscape:collect="always"
       xlink:href="#linearGradient129823"
       id="linearGradient129825"
       x1="-258.555"
       y1="128.732"
       x2="-262.44"
       y2="163.517"
       gradientUnits="userSpaceOnUse"
       gradientTransform="matrix(0.897153,0,0,0.897485,300.291,57.2716)" />
    <linearGradient
       inkscape:collect="always"
       xlink:href="#linearGradient174774"
       id="linearGradient174776"
       x1="-304.574"
       y1="152.308"
       x2="-298.206"
       y2="148.394"
       gradientUnits="userSpaceOnUse"
       gradientTransform="matrix(0.897153,0,0,0.897485,300.291,57.2716)" />
    <linearGradient
       inkscape:collect="always"
       xlink:href="#linearGradient176255"
       id="linearGradient176257"
       x1="-276.349"
       y1="152.585"
       x2="-293.049"
       y2="131.84"
       gradientUnits="userSpaceOnUse"
       gradientTransform="matrix(0.897153,0,0,0.897485,300.291,57.2716)" />
    <linearGradient
       inkscape:collect="always"
       xlink:href="#linearGradient181716"
       id="linearGradient181718"
       x1="-259.907"
       y1="141.614"
       x2="-266.904"
       y2="132.651"
       gradientUnits="userSpaceOnUse"
       gradientTransform="matrix(0.897153,0,0,0.897485,300.291,57.2716)" />
    <linearGradient
       inkscape:collect="always"
       xlink:href="#linearGradient182074"
       id="linearGradient182076"
       x1="-254.635"
       y1="187.353"
       x2="-272.835"
       y2="132.52"
       gradientUnits="userSpaceOnUse"
       gradientTransform="matrix(0.897153,0,0,0.897485,300.291,57.2716)" />
    <radialGradient
       inkscape:collect="always"
       xlink:href="#linearGradient196686"
       id="radialGradient196688"
       cx="-245.433"
       cy="153.429"
       fx="-245.433"
       fy="153.429"
       r="20.9541"
       gradientTransform="matrix(0.897153,0,0,1.3951,301.964,-27.6104)"
       gradientUnits="userSpaceOnUse" />
    <linearGradient
       inkscape:collect="always"
       xlink:href="#linearGradient209795"
       id="linearGradient209797"
       x1="-237.577"
       y1="214.616"
       x2="-219.814"
       y2="207.037"
       gradientUnits="userSpaceOnUse"
       gradientTransform="matrix(0.897153,0,0,0.897485,300.469,57.3899)" />
    <linearGradient
       inkscape:collect="always"
       xlink:href="#linearGradient210913"
       id="linearGradient210915"
       x1="-236.998"
       y1="206.186"
       x2="-231.527"
       y2="212.184"
       gradientUnits="userSpaceOnUse"
       gradientTransform="matrix(0.897153,0,0,0.897485,299.759,57.2716)" />
  </defs>
  <ellipse
     style="color:#000000;overflow:visible;fill:#000000;fill-opacity:1;stroke:none;stroke-width:0.999999;stroke-miterlimit:4;stroke-dasharray:none;stroke-opacity:0.243243;stop-color:#000000"
     id="ellipse204593"
     cx="53.4715"
     cy="264.693"
     rx="7.12854"
     ry="5.18624"
     transform="matrix(0.984667,-0.174443,0.174318,0.984689,0,0)" />
  <path
     style="fill:url(#linearGradient209797);fill-opacity:1;fill-rule:evenodd;stroke:#000000;stroke-width:0.999999px;stroke-linecap:butt;stroke-linejoin:miter;stroke-opacity:1"
     d="m 97.6118,241.426 c 8.9092,4.716 9.5482,11.476 6.3102,12.291 -0.68,-3.667 -3.213,-5.642 -4.2144,-5.897 2.0874,1.017 5.9574,5.709 2.2914,7.444 -3.6659,1.735 -3.0064,-3.148 -6.8023,-4.439 5.4713,3.956 4.2956,5.966 0.4064,5.151 -3.9322,-0.824 -9.2049,-8.382 -8.6558,-9.285 0.5795,-0.955 10.6645,-5.265 10.6645,-5.265 z"
     id="path164643"
     sodipodi:nodetypes="ccczcssc" />
  <ellipse
     style="color:#000000;overflow:visible;fill:#000000;fill-opacity:1;stroke:none;stroke-width:1.00001;stroke-miterlimit:4;stroke-dasharray:none;stroke-opacity:0.243243;stop-color:#000000"
     id="ellipse204591"
     cx="74.9918"
     cy="253.474"
     rx="7.35846"
     ry="5.37453" />
  <ellipse
     style="color:#000000;overflow:visible;fill:#000000;fill-opacity:1;stroke:none;stroke-width:0.999999;stroke-miterlimit:4;stroke-dasharray:none;stroke-opacity:0.243243;stop-color:#000000"
     id="path204399"
     cx="26.6066"
     cy="249.165"
     rx="8.27826"
     ry="5.1863" />
  <path
     style="fill:url(#linearGradient107839);fill-opacity:1;fill-rule:evenodd;stroke:#000000;stroke-width:0.999999px;stroke-linecap:butt;stroke-linejoin:miter;stroke-opacity:1"
     d="m 97.1328,195.01 c 0,0 10.1692,12.539 11.5882,15.852 1.42,3.313 0,9.7 0,9.7 l -2.601,-7.807 c 3.171,7.653 1.695,14.723 -1.239,21.266 l 1.252,-8.769 c -1.729,10.849 -8.8711,17.333 -19.4073,21.573 C 70.9134,231.48 33.4142,240.36 22.3953,239.963 13.7737,239.653 6.41977,237.512 0.635822,233.102 3.96695,226.609 13.4848,225.214 21.9225,222.929 L 7.25861,227.187 C 11.1827,219.921 17.6853,215.37 27.5988,214.411 L 16.719,213.228 c 3.7869,-0.846 7.502,-2.195 11.5886,-0.946 0,0 3.9609,0.591 5.5578,-0.356 3.7358,-2.212 7.5684,-11.238 7.5684,-11.238 1.6319,-3.017 3.6272,-2.762 5.5588,-3.075 3.1463,4.818 6.5061,9.422 11.8254,12.066 l 33.8209,1.893 c 4.4526,-5.275 3.455,-11.003 4.4939,-16.562 z"
     id="path90409"
     sodipodi:nodetypes="cscccccsccccccsccccc" />
  <g
     id="g78465"
     transform="matrix(0.964449,0.049714,-0.049751,0.963729,320.449,66.1968)"
     style="stroke-width:0.207175">
    <path
       style="fill:url(#linearGradient58346);fill-opacity:1;fill-rule:evenodd;stroke:#000000;stroke-width:1.03587px;stroke-linecap:butt;stroke-linejoin:miter;stroke-opacity:1"
       d="m -262.215,58.6553 c 13.345,2.1423 19.229,-28.7132 11.735,-34.5589 -5.318,-4.1482 -21.484,18.0283 -17.948,17.087 z"
       id="path10500"
       sodipodi:nodetypes="cscc" />
    <path
       style="fill:url(#linearGradient53779);fill-opacity:1;fill-rule:evenodd;stroke:#000000;stroke-width:1.03587px;stroke-linecap:butt;stroke-linejoin:miter;stroke-opacity:1"
       d="m -261.659,55.93 c 9.931,1.9163 16.153,-24.1395 9.989,-29.3879 -4.351,-3.7049 -18.233,15.35 -15.234,14.5456 z"
       id="path11788"
       sodipodi:nodetypes="cscc" />
  </g>
  <g
     id="g66920"
     transform="matrix(0.897153,0,0,0.949127,282.59,82.245)"
     style="stroke-width:0.216738">
    <path
       style="fill:url(#linearGradient54501);fill-opacity:1;fill-rule:evenodd;stroke:#000000;stroke-width:1.08539;stroke-linecap:butt;stroke-linejoin:miter;stroke-miterlimit:4;stroke-dasharray:none;stroke-opacity:0.693798"
       d="m -262.248,9.69083 c 1.695,-13.37417 -3.066,-23.15003 -7.266,-23.32813 -3.329,-0.1411 -12.695,17.05953 -12.342,19.99677 0.305,2.53708 2.835,8.24143 5.87,11.98973 z"
       id="path17350"
       sodipodi:nodetypes="csscc" />
    <path
       style="fill:url(#linearGradient53771);fill-opacity:1;fill-rule:evenodd;stroke:#000000;stroke-width:1.08539;stroke-linecap:butt;stroke-linejoin:miter;stroke-miterlimit:4;stroke-dasharray:none;stroke-opacity:0.693798"
       d="m -263.925,8.40543 c 1.389,-10.94653 -2.488,-18.94493 -5.912,-19.08863 -2.712,-0.1138 -10.355,13.96803 -10.069,16.37174 0.247,2.07622 2.307,6.74356 4.78,9.80996 z"
       id="path18513"
       sodipodi:nodetypes="csscc" />
  </g>
  <path
     style="fill:#c48a51;fill-opacity:1;fill-rule:evenodd;stroke:#000000;stroke-width:0.999999px;stroke-linecap:butt;stroke-linejoin:miter;stroke-opacity:1"
     d="m 27.5952,186.363 c 0.6612,1.464 -6.5752,-12.446 -5.5184,-19.741 1.0102,-6.971 6.194,-14.68 6.7081,-21.581 0.5113,-6.874 -4.2974,-18.955 -4.2974,-18.955 1.4049,-1.701 2.3783,-3.546 5.1147,-4.803 -2.2322,0.475 -4.6006,2.441 -6.6892,1.338 2.3936,-1.593 5.7642,-5.026 5.8719,-6.475 0.1076,-1.449 -0.3625,-11.559 0.6504,-11.928 l -3.7959,4.477 c 0.9313,-3.473 0.201,-7.013 3.9628,-7.655 l -5.5193,1.171 c 1.8876,-3.318 4.126,-5.108 8.2879,-5.229 l 0.9151,-8.676 c 1.1295,3.295 1.134,6.187 2.6529,7.548 -1.4023,-1.816 -1.8518,-7.553 -2.6314,-10.328 5.3031,-0.456 7.5657,8.195 8.6665,6.084 -0.2943,-2.278 -0.8227,-4.48 -2.0078,-6.62 2.2868,-0.405 3.9887,6.385 4.5566,7.129 1.5907,0.142 7.2688,-9.009 6.8202,-9.817 -0.5087,2.789 -0.072,5.577 -1.8392,8.365 l 3.3446,-3.346 c -0.3535,1.091 -0.5769,2.224 -1.8401,3.012 4.1449,-0.852 6.5753,0.41 10.2554,2.967 l 3.7304,-6.543 c -0.1409,3.373 -3.1401,6.293 -1.9729,8.939 2.1568,2.822 2.53,1.276 2.1119,0.348 -1.6723,-3.708 6.1186,-7.531 7.5962,-5.414 -1.1466,2.099 -2.9283,4.149 -2.1541,6.394 1.2184,-1.591 2.4349,-3.18 3.3446,-3.847 -0.3678,3.217 -0.6513,7.157 -3.4235,9.173 l 2.7345,-0.941 -2.8915,5.491 -0.099,2.84 c 3.9242,-1.013 7.0445,-3.097 10.0347,-5.355 -2.4161,2.879 -2.7866,8.343 -7.86,7.864 2.3012,1.157 2.0186,2.283 2.233,5.379 l -3.9053,-3.371 c 2.6672,0 -1.683,10.116 -0.6307,8.687 0.9339,-1.267 -0.2243,-8.47 -1.8786,-8.019 3.219,7.774 -13.3111,12.811 -18.0615,20.578 l -8.5283,57.385 c -4.9407,-5.062 -4.6392,-8.368 -14.0486,-6.525 z"
     id="path61304"
     sodipodi:nodetypes="cssccczccccccccccccccccccccccccccccccscccc" />
  <path
     style="fill:url(#linearGradient129825);fill-opacity:1;fill-rule:evenodd;stroke:url(#linearGradient129323);stroke-width:0.999999px;stroke-linecap:butt;stroke-linejoin:miter;stroke-opacity:1"
     d="M 94.086,215.215 59.9735,211.442 C 51.412,208.492 46.125,196.089 32.0801,180.2 c 0.4576,-2.996 -1.4633,-0.948 -0.1561,-4.953 -0.1956,-0.775 9.805,4.911 9.8382,5.437 1.1591,-0.963 -8.1569,-11.585 -10.4061,-10.339 3.3769,-1.225 5.9553,-4.1 7.8833,-7.332 l -4.5719,2.53 c 5.5659,-5.594 5.9239,-12.527 3.9223,-22.017 l 5.0645,-5.902 -6.3025,4.789 c -1.1843,-2.481 1.1044,-4.825 4.4813,-7.309 l -5.3812,1.967 c 1.4785,-4.622 10.0239,-2.588 12.4166,-3.632 3.2755,-1.429 16.5049,-12.63 17.9772,-12.739 1.7396,-0.129 1.5583,-4.269 2.1155,-6.5 1.1591,4.319 1.1241,10.082 3.0198,14.558 -3.3545,0.706 -6.1078,2.078 -8.4593,3.897 l 6.037,-1.963 c -3.6407,2.017 -4.8509,4.545 -6.4712,6.988 2.7516,-2.092 6.0163,-10.594 9.3098,-4.036 l -2.7534,-0.253 c 1.7539,-1.714 7.0758,9.687 6.3016,9.312 -0.8523,-0.411 -6.3859,-5.486 -6.3859,-5.486 2.4824,2.836 5.7588,5.147 7.179,8.66 1.3278,3.283 2.7094,7.411 4.0479,11.148 0.419,-0.419 8.977,12.294 11.8255,13.959 7.2508,4.237 5.3058,44.863 1.474,44.231 z"
     id="path78624"
     sodipodi:nodetypes="cccccccccccccsscccccccscscsc" />
  <path
     style="fill:url(#linearGradient49043);fill-opacity:1;fill-rule:evenodd;stroke:#000000;stroke-width:1.00157;stroke-linecap:butt;stroke-linejoin:miter;stroke-miterlimit:4;stroke-dasharray:none;stroke-opacity:1"
     d="m 64.3821,127.461 c 1.1053,-3.072 -2.2456,-6.426 -4.606,-5.661 4.0839,-2.851 3.1993,-3.729 3.9798,-5.372 -0.7491,-3.696 -5.0994,-17.936 -8.078,-13.518 -6.0046,8.908 -9.9539,8.377 -11.4297,-2.92 -0.5527,-4.234 -8.3059,3.824 -11.9555,7.721 l 1.3,6.907 c -2.3685,-0.124 -3.6954,1.014 -4.0049,2.818 2.6628,3.179 3.7582,6.711 2.7435,10.367 0.9644,8.609 5.4987,5.495 8.226,6.826 3.69,1.132 8.2116,4.32 10.5622,1.767 5.12,-2.414 10.005,-6.192 13.2626,-8.935 z"
     id="path3666"
     sodipodi:nodetypes="cccssccccccc" />
  <path
     style="fill:#ffffff;fill-rule:evenodd;stroke:#000000;stroke-width:0.999999px;stroke-linecap:butt;stroke-linejoin:miter;stroke-opacity:0.996124"
     d="m 58.8323,116.029 c 0.036,0.906 -2.0572,2.459 -2.9767,2.707 -2.6709,0.723 -5.4951,-2.194 -4.2346,-4.753 2.4815,-5.038 7.0938,-0.917 7.2113,2.046 z"
     id="path24163"
     sodipodi:nodetypes="ssss" />
  <path
     style="fill:#ffffff;fill-rule:evenodd;stroke:#000000;stroke-width:0.999999px;stroke-linecap:butt;stroke-linejoin:miter;stroke-opacity:0.996124"
     d="m 35.7647,111.088 c 0.081,1.558 1.4947,2.849 2.2402,3.438 1.5763,1.243 5.4448,-0.669 4.7352,-3.375 -0.1534,-3.668 -5.4996,-5.884 -6.9754,-0.06 z"
     id="path25174"
     sodipodi:nodetypes="csccc" />
  <ellipse
     style="color:#000000;overflow:visible;fill:#2d2d2d;fill-opacity:1;stroke:none;stroke-width:1.00157;stroke-miterlimit:4;stroke-dasharray:none;stroke-opacity:0.593023;stop-color:#000000"
     id="path25977"
     cx="-69.4146"
     cy="105.907"
     rx="1.96853"
     ry="2.29839"
     transform="matrix(-0.991291,-0.131688,-0.13155,0.99131,0,0)" />
  <ellipse
     style="color:#000000;overflow:visible;fill:#2d2d2d;fill-opacity:1;stroke:none;stroke-width:1.00157;stroke-miterlimit:4;stroke-dasharray:none;stroke-opacity:0.593023;stop-color:#000000"
     id="ellipse26095"
     cx="-54.4105"
     cy="104.015"
     rx="1.97855"
     ry="2.46477"
     transform="matrix(-0.991291,-0.131688,-0.13155,0.99131,0,0)" />
  <ellipse
     style="color:#000000;overflow:visible;fill:#ffffff;fill-opacity:1;stroke:none;stroke-width:1.00157;stroke-miterlimit:4;stroke-dasharray:none;stroke-opacity:0.593023;stop-color:#000000"
     id="path26119"
     cx="-69.2378"
     cy="105.568"
     rx="0.495798"
     ry="0.517944"
     transform="matrix(-0.991291,-0.131688,-0.13155,0.99131,0,0)" />
  <ellipse
     style="color:#000000;overflow:visible;fill:#ffffff;fill-opacity:1;stroke:none;stroke-width:1.00157;stroke-miterlimit:4;stroke-dasharray:none;stroke-opacity:0.593023;stop-color:#000000"
     id="circle26223"
     cx="-54.415"
     cy="104.062"
     transform="matrix(-0.991291,-0.131688,-0.13155,0.99131,0,0)"
     rx="0.495798"
     ry="0.496053" />
  <path
     style="fill:none;fill-rule:evenodd;stroke:#000000;stroke-width:1.3;stroke-linecap:butt;stroke-linejoin:miter;stroke-miterlimit:4;stroke-dasharray:none;stroke-opacity:1"
     d="m 61.3201,126.788 c -2.4277,0.162 -4.9828,0.118 -6.4864,1.766 l 2.3685,-0.662 c -1.2085,2.254 -2.4824,4.852 -3.1903,7.089"
     id="path26460"
     sodipodi:nodetypes="cccc" />
  <ellipse
     style="color:#000000;overflow:visible;fill:#1b1511;fill-opacity:1;stroke:#000000;stroke-width:1.00157;stroke-miterlimit:4;stroke-dasharray:none;stroke-opacity:1;stop-color:#000000"
     id="path27741"
     cx="-59.7011"
     cy="122.053"
     rx="6.01155"
     ry="4.86752"
     transform="matrix(-0.991291,-0.131688,-0.13155,0.99131,0,0)" />
  <ellipse
     style="color:#000000;overflow:visible;fill:url(#linearGradient48717);fill-opacity:1;stroke:#000000;stroke-width:1;stroke-miterlimit:4;stroke-dasharray:none;stroke-opacity:1;stop-color:#000000"
     id="path34234"
     cx="-59.0918"
     cy="119.872"
     rx="4.63598"
     ry="2.51057"
     transform="matrix(-0.991009,-0.133793,-0.129478,0.991582,0,0)" />
  <ellipse
     style="color:#000000;overflow:visible;fill:#29221b;fill-opacity:1;stroke:none;stroke-width:1.00193;stroke-miterlimit:4;stroke-dasharray:none;stroke-opacity:1;stop-color:#000000"
     id="path37226"
     cx="-62.1606"
     cy="120.71"
     rx="3.50435"
     ry="2.05218"
     transform="matrix(-0.993467,-0.114117,-0.151695,0.988427,0,0)" />
  <path
     style="fill:none;fill-rule:evenodd;stroke:#000000;stroke-width:0.999999px;stroke-linecap:butt;stroke-linejoin:miter;stroke-opacity:1"
     d="m 49.2624,121.945 c 0.4396,0.414 0.4046,6.64 -0.018,6.721"
     id="path43037"
     sodipodi:nodetypes="cc" />
  <path
     style="fill:none;fill-rule:evenodd;stroke:#000000;stroke-width:0.999999px;stroke-linecap:butt;stroke-linejoin:miter;stroke-opacity:1"
     d="m 43.7862,114.211 0.6262,2.116 c -2.6565,3.255 -5.0797,7.33 -7.5209,11.341"
     id="path43167"
     sodipodi:nodetypes="ccc" />
  <ellipse
     style="color:#000000;overflow:visible;fill:url(#radialGradient47373);fill-opacity:1;stroke:none;stroke-width:1.00157;stroke-miterlimit:4;stroke-dasharray:none;stroke-opacity:1;stop-color:#000000"
     id="path43271"
     cx="-102.018"
     cy="78.1323"
     rx="1.67085"
     ry="4.61003"
     transform="matrix(-0.834593,-0.550868,-0.550589,0.834777,0,0)" />
  <path
     style="fill:none;fill-rule:evenodd;stroke:#000000;stroke-width:1.4;stroke-linecap:butt;stroke-linejoin:miter;stroke-miterlimit:4;stroke-dasharray:none;stroke-opacity:1"
     d="m 32.6516,118.912 c 0,0 2.5667,2.706 3.6406,2.719 -0.036,0.571 -4.8948,5.561 -3.253,9.343"
     id="path52237"
     sodipodi:nodetypes="ccc" />
  <path
     style="fill:#754735;fill-opacity:1;fill-rule:evenodd;stroke:#000000;stroke-width:0.999999px;stroke-linecap:butt;stroke-linejoin:miter;stroke-opacity:1"
     d="m 38.8994,215.028 c -1.876,4.731 2.3801,12.241 17.0279,16.798 -3.9869,-0.328 -24.6259,-5.34 -25.306,-2.365 -4.3727,4.287 -5.4233,11.229 2.4771,9.908"
     id="path170213"
     sodipodi:nodetypes="cccc" />
  <path
     style="fill:none;fill-rule:evenodd;stroke:#000000;stroke-width:0.999999px;stroke-linecap:butt;stroke-linejoin:miter;stroke-opacity:1"
     d="m 96.7622,180.236 c -0.3822,7.585 2.1487,24.538 -1.6723,32.122"
     id="path174234"
     sodipodi:nodetypes="cc" />
  <path
     style="fill:#c28850;fill-opacity:1;fill-rule:evenodd;stroke:url(#linearGradient174776);stroke-width:0.999999px;stroke-linecap:butt;stroke-linejoin:miter;stroke-opacity:1"
     d="m 22.0939,170.369 c 4.4454,-1.552 11.3956,5.549 21.3146,21.178 -0.063,8.403 -3.978,20.152 -5.9948,30.42 -0.7204,3.854 1.0631,7.645 0.7356,10.785 -0.3714,3.565 -2.7901,17.607 -5.5471,19.723 -3.4136,2.62 -8.8558,2.464 -5.6861,-3.514 -0.637,2.099 -1.5575,5.968 -4.8393,4.212 -1.6391,-0.877 -2.9534,-2.284 -0.3839,-6.78 -1.4759,3.348 -2.172,5.236 -3.088,3.736 -0.7859,-1.286 -0.036,-5.384 1.6095,-5.384 1.09,0 9.22,0.462 10.4303,-9.178 0.436,-3.473 -2.3757,-7.392 -2.0563,-9.083 1.448,-7.663 -2.0177,-16.107 -2.547,-24.258 -0.297,-4.57 2.5192,-13.455 0.5553,-17.781 -2.9947,-6.596 -3.542,-7.793 -4.5028,-14.076 z"
     id="path133269"
     sodipodi:nodetypes="cccsscscssssssc" />
  <path
     style="fill:url(#linearGradient176257);fill-opacity:1;fill-rule:evenodd;stroke:none;stroke-width:0.999999px;stroke-linecap:butt;stroke-linejoin:miter;stroke-opacity:1"
     d="m 53.2807,206.336 c 0,0 -8.0277,-9.704 -10.0346,-13.886 -2.007,-4.182 -11.1068,-16.234 -11.1068,-16.234 l 0.3024,-2.892 9.4694,7.136 -6.4496,-9.815 12.0631,8.756 1.0631,6.749 c 2.5641,2.021 8.7221,4.753 12.8876,18.346 z"
     id="path176216"
     sodipodi:nodetypes="cscccccccc" />
  <path
     style="fill:none;fill-rule:evenodd;stroke:#000000;stroke-width:0.999999px;stroke-linecap:butt;stroke-linejoin:miter;stroke-opacity:1"
     d="m 32.3762,175.218 c 4.6822,5.856 12.2551,19.985 13.5873,22.335 2.1972,3.874 6.0827,9.37 7.8187,9.285"
     id="path189532"
     sodipodi:nodetypes="csc" />
  <path
     style="fill:#c48a51;fill-opacity:1;fill-rule:evenodd;stroke:none;stroke-width:0.999999px;stroke-linecap:butt;stroke-linejoin:miter;stroke-opacity:0.243243"
     d="m 97.4315,195.545 c -0.7976,5.467 0.4665,8.501 -1.4543,16.425 3.8066,2.085 6.5338,3.9 7.3078,10.51 -1.697,-1.432 -3.372,-2.73 -4.8496,-2.844 3.3796,-0.136 4.7556,10.362 3.8466,12.38 -0.232,0.513 -1.762,-3.772 -2.007,-4.182 2.603,3.299 -9.0832,14.891 -6.7739,14.471 5.3524,-0.974 13.0519,-14.319 13.0449,-16.687 0,-2.369 4.223,-10.339 0.754,-15.789 -3.133,-4.921 -10.1251,-13.748 -9.8685,-14.284 z"
     id="path190202"
     sodipodi:nodetypes="ccccscszsc" />
  <ellipse
     style="color:#000000;overflow:visible;fill:url(#radialGradient196688);fill-opacity:1;stroke:none;stroke-width:0.999999;stroke-miterlimit:4;stroke-dasharray:none;stroke-opacity:0.243243;stop-color:#000000"
     id="path196658"
     cx="81.7725"
     cy="186.44"
     rx="18.799"
     ry="29.2332" />
  <path
     style="fill:url(#linearGradient182076);fill-opacity:1;fill-rule:evenodd;stroke:url(#linearGradient181718);stroke-width:0.999999px;stroke-linecap:butt;stroke-linejoin:miter;stroke-opacity:0.996139"
     d="m 49.6508,186.746 c -2.8538,-1.323 15.4625,-17.531 26.2525,-25.316 -1.8517,6.633 -6.0827,17.424 -5.2035,19.874 0.8793,2.45 5.1587,9.629 6.8722,14.279 -1.1035,-1.97 -1.7476,-2.984 -2.8511,-4.106 4.4777,9.747 0.7034,21.519 0.7222,30.396 0,0 0.9178,4.703 0.9178,6.833 0,2.13 -1.4032,6.779 -1.4032,6.779 0.5374,4.675 -1.3681,9.136 5.3417,14.155 3.3607,2.514 1.1053,7.64 -0.9618,7.711 -0.9007,-3.274 -1.1187,-5.261 -3.1427,-7.796 2.7848,3.483 3.428,8.74 0.3338,8.81 -4.7029,0.108 -3.263,-4.219 -4.5073,-7.305 -0.027,2.433 1.9414,5.997 0.1103,6.443 -2.059,0.502 -5.4708,-2.859 -5.5767,-4.886 -0.105,-2.029 1.0183,-16.613 1.0138,-18.441 0,-2.032 -1.7243,-3.276 -1.195,-6.554 2.0096,-12.447 -6.5618,-36.166 -16.723,-40.876 z"
     id="path142343"
     sodipodi:nodetypes="sczcccscsccscszsss" />
  <path
     style="fill:url(#linearGradient210915);fill-opacity:1;fill-rule:evenodd;stroke:none;stroke-width:0.999999px;stroke-linecap:butt;stroke-linejoin:miter;stroke-opacity:1"
     d="m 83.6476,243.179 c 0.6917,0 6.0064,6.33 5.4403,6.594 l 5.0555,-3.045 c -2.4788,-1.681 -3.1777,-4.943 -5.0268,-7.394"
     id="path210696"
     sodipodi:nodetypes="cccc" />
  <ellipse
     style="color:#000000;font-variation-settings:normal;overflow:visible;vector-effect:none;fill:#fefdf2;fill-opacity:1;stroke:#8bd93e;stroke-width:2;stroke-linecap:butt;stroke-linejoin:miter;stroke-miterlimit:4;stroke-dasharray:none;stroke-dashoffset:0;stroke-opacity:1;-inkscape-stroke:none;stop-color:#000000"
     id="path265433"
     cx="58.4681"
     cy="76.37"
     rx="4.92579"
     ry="4.92761" />
  <ellipse
     style="color:#000000;font-variation-settings:normal;overflow:visible;vector-effect:none;fill:#fefdf2;fill-opacity:1;stroke:#8bd93e;stroke-width:2;stroke-linecap:butt;stroke-linejoin:miter;stroke-miterlimit:4;stroke-dasharray:none;stroke-dashoffset:0;stroke-opacity:1;-inkscape-stroke:none;stop-color:#000000"
     id="path265435"
     cx="72.0393"
     cy="61.7096"
     rx="7.31963"
     ry="7.32234" />
  <path
     style="fill:#fefdf2;fill-opacity:1;fill-rule:evenodd;stroke:#8bd93e;stroke-width:2;stroke-linecap:butt;stroke-linejoin:miter;stroke-miterlimit:4;stroke-dasharray:none;stroke-opacity:1"
     d="M 145.244,14.5721 C 136.74,-1.97983 104.363,5.59227 102.072,11.4583 99.6202,6.38427 72.5126,-6.26773 63.2765,13.6826 50.4008,12.7595 45.7174,16.9372 52.5333,30.8087 c -4.0216,14.945 1.5896,22.9455 39.9896,16.014 11.3831,10.4793 28.7041,7.2099 43.9661,-0.8896 12.213,8.9779 19.686,0.2767 18.371,-12.2329 10.347,-10.5332 -1.12,-22.2088 -9.616,-19.1281 z"
     id="path265470"
     sodipodi:nodetypes="cccccccc" />
  <text
     xml:space="preserve"
     style="color:#000000;font-style:normal;font-variant:normal;font-weight:normal;font-stretch:normal;font-size:32px;line-height:40.0002px;font-family:Gabriola;-inkscape-font-specification:Gabriola;text-indent:0;text-align:start;text-decoration:none;text-decoration-line:none;text-decoration-style:solid;text-decoration-color:#000000;letter-spacing:0px;word-spacing:0px;text-transform:none;writing-mode:lr-tb;direction:ltr;baseline-shift:baseline;text-anchor:start;white-space:normal;clip-rule:nonzero;display:inline;overflow:visible;visibility:visible;isolation:auto;mix-blend-mode:normal;color-interpolation:sRGB;color-interpolation-filters:linearRGB;solid-color:#000000;solid-opacity:1;fill:#000000;fill-opacity:1;fill-rule:nonzero;stroke:none;stroke-width:1px;stroke-linecap:butt;stroke-linejoin:miter;stroke-miterlimit:4;stroke-dasharray:none;stroke-dashoffset:0;stroke-opacity:1;color-rendering:auto;image-rendering:auto;shape-rendering:auto;text-rendering:auto;enable-background:accumulate"
     x="60.2697"
     y="32.3502"
     id="text270272"
     transform="scale(0.999811,1.00019)"><tspan
       sodipodi:role="line"
       id="tspan270270"
       x="60.2697"
       y="32.3502"
       style="font-style:normal;font-variant:normal;font-weight:normal;font-stretch:normal;font-size:32px;font-family:Gabriola;-inkscape-font-specification:Gabriola;stroke-width:1px">3 x 5 = 15</tspan></text>
</svg>
