<?xml version="1.0" encoding="UTF-8" standalone="no"?>
<!-- Copyright 2017 mathsisfun.com -->

<svg
   width="395.307"
   height="146.426"
   version="1.1"
   style="font-size:26.2px;font-family:'Comic Sans MS';fill:#73d216"
   id="svg100"
   sodipodi:docname="triangular-number-dots.svg"
   inkscape:version="1.1.2 (0a00cf5339, 2022-02-04, custom)"
   xmlns:inkscape="http://www.inkscape.org/namespaces/inkscape"
   xmlns:sodipodi="http://sodipodi.sourceforge.net/DTD/sodipodi-0.dtd"
   xmlns="http://www.w3.org/2000/svg"
   xmlns:svg="http://www.w3.org/2000/svg">
  <defs
     id="defs104" />
  <sodipodi:namedview
     id="namedview102"
     pagecolor="#ffffff"
     bordercolor="#666666"
     borderopacity="1.0"
     inkscape:pageshadow="2"
     inkscape:pageopacity="0.0"
     inkscape:pagecheckerboard="0"
     showgrid="false"
     inkscape:current-layer="svg100" />
  <path
     style="opacity:0.9;fill:none;stroke:#0022ff;stroke-width:1.42"
     d="M 94.0354,49.5282 H 69.7913 L 81.9547,27.4355 Z"
     id="path2" />
  <path
     style="opacity:0.9;fill:none;stroke:#0022ff;stroke-width:1.42"
     d="M 171.567,70.7938 H 123.658 L 147.654,27.1046 Z"
     id="path4" />
  <path
     style="opacity:0.9;fill:none;stroke:#0022ff;stroke-width:1.42"
     d="m 269.95,95.6168 h -75.132 l 37.566,-68.595 z"
     id="path6" />
  <path
     style="opacity:0.9;fill:none;stroke:#0022ff;stroke-width:1.42"
     d="M 391.17,117.129 H 293.035 L 342.103,27.4355 Z"
     id="path8" />
  <path
     d="m 97.5106,49.1973 a 3.88898,3.88898 0 0 1 -3.8062,3.8889 3.88898,3.88898 0 0 1 -3.9717,-3.8062 3.88898,3.88898 0 0 1 3.8062,-3.9717 3.88898,3.88898 0 0 1 3.9717,3.8062"
     id="path10"
     style="stroke-width:0.999997" />
  <path
     d="m 72.6874,49.1973 a 3.88898,3.88898 0 0 1 -3.8063,3.8889 3.88898,3.88898 0 0 1 -3.9717,-3.8062 3.88898,3.88898 0 0 1 3.8062,-3.9717 3.88898,3.88898 0 0 1 3.9718,3.8062"
     id="path12"
     style="stroke-width:0.999997" />
  <path
     d="m 21.3859,30.1661 a 3.88898,3.88898 0 0 1 -3.8062,3.889 3.88898,3.88898 0 0 1 -3.9717,-3.8063 3.88898,3.88898 0 0 1 3.8062,-3.9717 3.88898,3.88898 0 0 1 3.9717,3.8063"
     id="path14"
     style="stroke-width:0.999997" />
  <path
     d="m 85.9264,27.6838 a 3.88898,3.88898 0 0 1 -3.8062,3.889 3.88898,3.88898 0 0 1 -3.9717,-3.8063 3.88898,3.88898 0 0 1 3.8062,-3.9717 3.88898,3.88898 0 0 1 3.9717,3.8062"
     id="path16"
     style="stroke-width:0.999997" />
  <text
     x="12.6978"
     y="61.3607"
     style="font-size:21.679px;fill:#a7a9ac;stroke-width:0.999997"
     id="text18">1</text>
  <text
     x="74.756"
     y="77.7438"
     style="font-size:21.679px;fill:#a7a9ac;stroke-width:0.999997"
     id="text20">2</text>
  <text
     x="141.696"
     y="99.5058"
     style="font-size:21.679px;fill:#a7a9ac;stroke-width:0.999997"
     id="text22">3</text>
  <text
     x="225.102"
     y="122.756"
     style="font-size:21.679px;fill:#a7a9ac;stroke-width:0.999997"
     id="text24">4</text>
  <text
     x="334.738"
     y="145.759"
     style="font-size:21.679px;fill:#a7a9ac;stroke-width:0.999997"
     id="text26">5</text>
  <path
     d="m 163.706,49.1973 a 3.88898,3.88898 0 0 1 -3.806,3.8889 3.88898,3.88898 0 0 1 -3.972,-3.8062 3.88898,3.88898 0 0 1 3.806,-3.9717 3.88898,3.88898 0 0 1 3.972,3.8062"
     id="path28"
     style="stroke-width:0.999997" />
  <path
     d="m 138.883,49.1973 a 3.88898,3.88898 0 0 1 -3.806,3.8889 3.88898,3.88898 0 0 1 -3.972,-3.8062 3.88898,3.88898 0 0 1 3.806,-3.9717 3.88898,3.88898 0 0 1 3.972,3.8062"
     id="path30"
     style="stroke-width:0.999997" />
  <path
     d="m 152.122,27.6838 a 3.88898,3.88898 0 0 1 -3.806,3.889 3.88898,3.88898 0 0 1 -3.972,-3.8063 3.88898,3.88898 0 0 1 3.806,-3.9717 3.88898,3.88898 0 0 1 3.972,3.8062"
     id="path32"
     style="stroke-width:0.999997" />
  <path
     d="m 151.294,70.7108 a 3.88898,3.88898 0 0 1 -3.806,3.889 3.88898,3.88898 0 0 1 -3.972,-3.806 3.88898,3.88898 0 0 1 3.807,-3.972 3.88898,3.88898 0 0 1 3.971,3.806"
     id="path34"
     style="stroke-width:0.999997" />
  <path
     d="m 127.299,70.7108 a 3.88898,3.88898 0 0 1 -3.807,3.889 3.88898,3.88898 0 0 1 -3.971,-3.806 3.88898,3.88898 0 0 1 3.806,-3.972 3.88898,3.88898 0 0 1 3.972,3.806"
     id="path36"
     style="stroke-width:0.999997" />
  <path
     d="m 175.29,70.7108 a 3.88898,3.88898 0 0 1 -3.806,3.889 3.88898,3.88898 0 0 1 -3.972,-3.806 3.88898,3.88898 0 0 1 3.807,-3.972 3.88898,3.88898 0 0 1 3.971,3.806"
     id="path38"
     style="stroke-width:0.999997" />
  <path
     d="m 248.933,49.1973 a 3.88898,3.88898 0 0 1 -3.807,3.8889 3.88898,3.88898 0 0 1 -3.889,-3.8062 3.88898,3.88898 0 0 1 3.807,-3.9717 3.88898,3.88898 0 0 1 3.971,3.8062"
     id="path40"
     style="stroke-width:0.999997" />
  <path
     d="m 223.944,49.1973 a 3.88898,3.88898 0 0 1 -3.806,3.8889 3.88898,3.88898 0 0 1 -3.889,-3.8062 3.88898,3.88898 0 0 1 3.806,-3.9717 3.88898,3.88898 0 0 1 3.972,3.8062"
     id="path42"
     style="stroke-width:0.999997" />
  <path
     d="m 236.686,27.6838 a 3.88898,3.88898 0 0 1 -3.806,3.889 3.88898,3.88898 0 0 1 -3.889,-3.8063 3.88898,3.88898 0 0 1 3.806,-3.9717 3.88898,3.88898 0 0 1 3.972,3.8062"
     id="path44"
     style="stroke-width:0.999997" />
  <path
     d="m 236.273,70.7108 a 3.88898,3.88898 0 0 1 -3.806,3.889 3.88898,3.88898 0 0 1 -3.889,-3.806 3.88898,3.88898 0 0 1 3.806,-3.972 3.88898,3.88898 0 0 1 3.971,3.806"
     id="path46"
     style="stroke-width:0.999997" />
  <path
     d="m 212.277,70.7108 a 3.88898,3.88898 0 0 1 -3.806,3.889 3.88898,3.88898 0 0 1 -3.889,-3.806 3.88898,3.88898 0 0 1 3.806,-3.972 3.88898,3.88898 0 0 1 3.972,3.806"
     id="path48"
     style="stroke-width:0.999997" />
  <path
     d="m 260.351,70.7108 a 3.88898,3.88898 0 0 1 -3.806,3.889 3.88898,3.88898 0 0 1 -3.889,-3.806 3.88898,3.88898 0 0 1 3.806,-3.972 3.88898,3.88898 0 0 1 3.972,3.806"
     id="path50"
     style="stroke-width:0.999997" />
  <path
     d="m 223.447,95.5338 a 3.88898,3.88898 0 0 1 -3.806,3.889 3.88898,3.88898 0 0 1 -3.889,-3.806 3.88898,3.88898 0 0 1 3.806,-3.972 3.88898,3.88898 0 0 1 3.972,3.806"
     id="path52"
     style="stroke-width:0.999997" />
  <path
     d="m 198.376,95.5338 a 3.88898,3.88898 0 0 1 -3.806,3.889 3.88898,3.88898 0 0 1 -3.889,-3.806 3.88898,3.88898 0 0 1 3.806,-3.972 3.88898,3.88898 0 0 1 3.972,3.806"
     id="path54"
     style="stroke-width:0.999997" />
  <path
     d="m 248.519,95.5338 a 3.88898,3.88898 0 0 1 -3.806,3.889 3.88898,3.88898 0 0 1 -3.889,-3.806 3.88898,3.88898 0 0 1 3.806,-3.972 3.88898,3.88898 0 0 1 3.972,3.806"
     id="path56"
     style="stroke-width:0.999997" />
  <path
     d="m 273.59,95.5338 a 3.88898,3.88898 0 0 1 -3.806,3.889 3.88898,3.88898 0 0 1 -3.889,-3.806 3.88898,3.88898 0 0 1 3.806,-3.972 3.88898,3.88898 0 0 1 3.972,3.806"
     id="path58"
     style="stroke-width:0.999997" />
  <path
     d="m 358.817,49.1973 a 3.88898,3.88898 0 0 1 -3.806,3.8889 3.88898,3.88898 0 0 1 -3.889,-3.8062 3.88898,3.88898 0 0 1 3.806,-3.9717 3.88898,3.88898 0 0 1 3.972,3.8062"
     id="path60"
     style="stroke-width:0.999997" />
  <path
     d="m 333.828,49.1973 a 3.88898,3.88898 0 0 1 -3.806,3.8889 3.88898,3.88898 0 0 1 -3.889,-3.8062 3.88898,3.88898 0 0 1 3.806,-3.9717 3.88898,3.88898 0 0 1 3.972,3.8062"
     id="path62"
     style="stroke-width:0.999997" />
  <path
     d="m 346.571,27.6838 a 3.88898,3.88898 0 0 1 -3.806,3.889 3.88898,3.88898 0 0 1 -3.889,-3.8063 3.88898,3.88898 0 0 1 3.806,-3.9717 3.88898,3.88898 0 0 1 3.971,3.8062"
     id="path64"
     style="stroke-width:0.999997" />
  <path
     d="m 346.157,70.7108 a 3.88898,3.88898 0 0 1 -3.806,3.889 3.88898,3.88898 0 0 1 -3.889,-3.806 3.88898,3.88898 0 0 1 3.806,-3.972 3.88898,3.88898 0 0 1 3.972,3.806"
     id="path66"
     style="stroke-width:0.999997" />
  <path
     d="m 322.078,70.7108 a 3.88898,3.88898 0 0 1 -3.806,3.889 3.88898,3.88898 0 0 1 -3.889,-3.806 3.88898,3.88898 0 0 1 3.806,-3.972 3.88898,3.88898 0 0 1 3.972,3.806"
     id="path68"
     style="stroke-width:0.999997" />
  <path
     d="m 370.153,70.7108 a 3.88898,3.88898 0 0 1 -3.806,3.889 3.88898,3.88898 0 0 1 -3.889,-3.806 3.88898,3.88898 0 0 1 3.806,-3.972 3.88898,3.88898 0 0 1 3.972,3.806"
     id="path70"
     style="stroke-width:0.999997" />
  <path
     d="m 333.249,95.5338 a 3.88898,3.88898 0 0 1 -3.806,3.889 3.88898,3.88898 0 0 1 -3.889,-3.806 3.88898,3.88898 0 0 1 3.806,-3.972 3.88898,3.88898 0 0 1 3.972,3.806"
     id="path72"
     style="stroke-width:0.999997" />
  <path
     d="m 308.177,95.5338 a 3.88898,3.88898 0 0 1 -3.806,3.889 3.88898,3.88898 0 0 1 -3.889,-3.806 3.88898,3.88898 0 0 1 3.806,-3.972 3.88898,3.88898 0 0 1 3.972,3.806"
     id="path74"
     style="stroke-width:0.999997" />
  <path
     d="m 358.32,95.5338 a 3.88898,3.88898 0 0 1 -3.806,3.889 3.88898,3.88898 0 0 1 -3.889,-3.806 3.88898,3.88898 0 0 1 3.806,-3.972 3.88898,3.88898 0 0 1 3.972,3.806"
     id="path76"
     style="stroke-width:0.999997" />
  <path
     d="m 383.475,95.5338 a 3.88898,3.88898 0 0 1 -3.807,3.889 3.88898,3.88898 0 0 1 -3.889,-3.806 3.88898,3.88898 0 0 1 3.807,-3.972 3.88898,3.88898 0 0 1 3.971,3.806"
     id="path78"
     style="stroke-width:0.999997" />
  <path
     d="m 321.747,117.047 a 3.88898,3.88898 0 0 1 -3.806,3.889 3.88898,3.88898 0 0 1 -3.889,-3.807 3.88898,3.88898 0 0 1 3.807,-3.971 3.88898,3.88898 0 0 1 3.971,3.806"
     id="path80"
     style="stroke-width:0.999997" />
  <path
     d="m 297.338,117.047 a 3.88898,3.88898 0 0 1 -3.806,3.889 3.88898,3.88898 0 0 1 -3.889,-3.807 3.88898,3.88898 0 0 1 3.806,-3.971 3.88898,3.88898 0 0 1 3.972,3.806"
     id="path82"
     style="stroke-width:0.999997" />
  <path
     d="m 346.24,117.047 a 3.88898,3.88898 0 0 1 -3.806,3.889 3.88898,3.88898 0 0 1 -3.889,-3.807 3.88898,3.88898 0 0 1 3.806,-3.971 3.88898,3.88898 0 0 1 3.972,3.806"
     id="path84"
     style="stroke-width:0.999997" />
  <path
     d="m 370.732,117.047 a 3.88898,3.88898 0 0 1 -3.806,3.889 3.88898,3.88898 0 0 1 -3.889,-3.807 3.88898,3.88898 0 0 1 3.806,-3.971 3.88898,3.88898 0 0 1 3.972,3.806"
     id="path86"
     style="stroke-width:0.999997" />
  <path
     d="m 395.224,117.047 a 3.88898,3.88898 0 0 1 -3.806,3.889 3.88898,3.88898 0 0 1 -3.889,-3.807 3.88898,3.88898 0 0 1 3.806,-3.971 3.88898,3.88898 0 0 1 3.972,3.806"
     id="path88"
     style="stroke-width:0.999997" />
  <text
     x="-1.5625"
     y="11.9624"
     style="font-style:normal;font-variant:normal;font-weight:normal;font-stretch:normal;font-size:16px;font-family:'Trebuchet MS';-inkscape-font-specification:'Trebuchet MS';fill:#0169c9;stroke-width:0.999997"
     id="text90">1 dot</text>
  <text
     x="60.0558"
     y="11.7969"
     style="font-style:normal;font-variant:normal;font-weight:normal;font-stretch:normal;font-size:16px;font-family:'Trebuchet MS';-inkscape-font-specification:'Trebuchet MS';fill:#0169c9;stroke-width:0.999997"
     id="text92">3 dots</text>
  <text
     x="125.975"
     y="12.0451"
     style="font-style:normal;font-variant:normal;font-weight:normal;font-stretch:normal;font-size:16px;font-family:'Trebuchet MS';-inkscape-font-specification:'Trebuchet MS';fill:#0169c9;stroke-width:0.999997"
     id="text94">6 dots</text>
  <text
     x="206.719"
     y="12.1279"
     style="font-style:normal;font-variant:normal;font-weight:normal;font-stretch:normal;font-size:16px;font-family:'Trebuchet MS';-inkscape-font-specification:'Trebuchet MS';fill:#0169c9;stroke-width:0.999997"
     id="text96">10 dots</text>
  <text
     x="317.376"
     y="11.9624"
     style="font-style:normal;font-variant:normal;font-weight:normal;font-stretch:normal;font-size:16px;font-family:'Trebuchet MS';-inkscape-font-specification:'Trebuchet MS';fill:#0169c9;stroke-width:0.999997"
     id="text98">15 dots</text>
</svg>
