<?xml version="1.0" encoding="UTF-8" standalone="no"?>
<svg
   stroke-miterlimit="10"
   font-weight="normal"
   font-style="normal"
   font-size="12"
   version="1.1"
   id="svg9"
   sodipodi:docname="set-n.svg"
   width="24.668"
   height="23.0001"
   style="font-style:normal;font-weight:normal;font-size:12px;font-family:Dialog;color-interpolation:auto;fill:#000000;fill-opacity:1;stroke:#000000;stroke-width:1;stroke-linecap:square;stroke-linejoin:miter;stroke-miterlimit:10;stroke-dasharray:none;stroke-dashoffset:0;stroke-opacity:1;color-rendering:auto;image-rendering:auto;shape-rendering:auto;text-rendering:auto"
   inkscape:version="1.1 (c68e22c387, 2021-05-23)"
   xmlns:inkscape="http://www.inkscape.org/namespaces/inkscape"
   xmlns:sodipodi="http://sodipodi.sourceforge.net/DTD/sodipodi-0.dtd"
   xmlns="http://www.w3.org/2000/svg"
   xmlns:svg="http://www.w3.org/2000/svg"
   xmlns:rdf="http://www.w3.org/1999/02/22-rdf-syntax-ns#"
   xmlns:cc="http://creativecommons.org/ns#"
   xmlns:dc="http://purl.org/dc/elements/1.1/">
  <metadata
     id="metadata13">
    <rdf:RDF>
      <cc:Work
         rdf:about="">
        <dc:format>image/svg+xml</dc:format>
        <dc:type
           rdf:resource="http://purl.org/dc/dcmitype/StillImage" />
      </cc:Work>
    </rdf:RDF>
  </metadata>
  <sodipodi:namedview
     pagecolor="#ffffff"
     bordercolor="#666666"
     borderopacity="1"
     objecttolerance="10"
     gridtolerance="10"
     guidetolerance="10"
     inkscape:pageopacity="0"
     inkscape:pageshadow="2"
     inkscape:window-width="640"
     inkscape:window-height="480"
     id="namedview11"
     showgrid="false"
     inkscape:current-layer="svg9"
     inkscape:pagecheckerboard="0" />
  <!--Unicode Character 'DOUBLE-STRUCK CAPITAL N' (U+2115)-->
  <defs
     id="genericDefs" />
  <g
     id="g7"
     transform="matrix(0.118605,0,0,0.118605,0.416968,-23.1502)"
     style="fill:#005c94">
    <g
       id="g5"
       style="fill:#005c94">
      <path
         d="m 204.469,200.391 q -13.36,0 -18.914,2.742 -5.555,2.742 -6.821,8.578 -1.265,5.836 -1.265,20.039 v 157.359 h -5.203 L 47.25,235.828 h -0.5625 v 113.484 q 0,14.204 1.2656,20.04 1.2657,5.835 6.8203,8.578 5.5547,2.742 18.9141,2.742 v 5.203 H 7.1719 v -5.203 q 13.5,0 19.0547,-2.742 5.5546,-2.743 6.8203,-8.578 1.2656,-5.836 1.2656,-20.04 V 220.219 Q 25.1719,208.687 17.0859,204.539 9,200.391 -3.5156,200.391 v -5.204 H 48.375 l 116.016,142.594 h 0.703 V 231.75 q 0,-14.203 -1.266,-20.039 -1.266,-5.836 -6.891,-8.578 -5.625,-2.742 -18.984,-2.742 v -5.204 h 66.516 z M 165.094,370.969 V 348.187 L 45.2812,200.953 H 22.2188 q 7.5937,3.938 14.0624,11.813 z"
         id="path3"
         inkscape:connector-curvature="0"
         style="stroke:none;fill:#005c94" />
    </g>
  </g>
</svg>
