<?xml version="1.0" encoding="UTF-8" standalone="no"?>
<!-- Copyright 2017 mathsisfun.com -->
<svg xmlns="http://www.w3.org/2000/svg" xmlns:xlink="http://www.w3.org/1999/xlink" width="202.9" height="224.5" version="1.1">
<defs>
<linearGradient id="id1">
<stop offset="0" style="stop-color:white; stop-opacity:0.62;"/>
<stop offset="0.484" style="stop-color:#dbdbdb; stop-opacity:0.49;"/>
<stop offset="1" style="stop-color:black; stop-opacity:0.34;"/>
</linearGradient>
<radialGradient id="id2" r="41" fx="259" fy="484.37" cx="259" cy="484.4" gradientTransform="matrix(0.30727,0.01471,-0.01512,0.31578,-273.56,307.9)" xlink:href="#id1" gradientUnits="userSpaceOnUse"/>
<radialGradient id="id7" r="41" fx="259" fy="484.37" cx="259" cy="484.4" gradientTransform="matrix(2.515,0.1204,-0.12376,2.5846,-646.58,-19.004)" xlink:href="#id1" gradientUnits="userSpaceOnUse"/>
<radialGradient id="id8" r="41" fx="259" fy="484.37" cx="259" cy="484.4" gradientTransform="matrix(3.0375,0.14542,-0.14947,3.1216,-1394.5,-1442.6)" xlink:href="#id1" gradientUnits="userSpaceOnUse"/>
</defs>
<g transform="translate(-250.275,-344.165)">
<path transform="matrix(0.88023,0.47454,-0.47936,0.87762,0,0)" style="color:black; overflow:visible; fill:none; stroke:#1918b6; stroke-width:1.54;" d="m 480.2,193.1 a 111.5,46.1 0 0 1 143.4,18.4 111.5,46.1 0 0 1 -31,60.8 111.5,46.1 0 0 1 -149.2,-7.1 111.5,46.1 0 0 1 3.3,-62.1"/>
<ellipse cx="527.5" cy="234.8" rx="111.5" ry="46.1" transform="matrix(0.88023,0.47454,-0.47936,0.87762,0,0)" style="color:black; overflow:visible; fill:none; stroke:#1918b6; stroke-width:1.54;"/>
<ellipse cx="464.6" cy="-338.3" rx="111.5" ry="46.1" transform="matrix(0.02918,0.99957,-0.99972,0.02367,0,0)" style="color:black; overflow:visible; fill:none; stroke:#1918b6; stroke-width:1.54;"/>
<ellipse cx="-62.9" cy="-573.1" rx="111.5" ry="46.1" transform="matrix(-0.85106,0.52506,-0.52033,-0.85396,0,0)" style="color:black; overflow:visible; fill:none; stroke:#1918b6; stroke-width:1.54;"/>
<text x="372.7" y="378.6" style="font-family:Arial; font-size:30px; color:black; overflow:visible; fill:white; stroke-width:1px;">-</text>
<text x="406.6" y="476.3" style="font-family:Arial; font-size:30px; color:black; overflow:visible; fill:white; stroke-width:1px;">-</text>
<g id="id3">
<circle cx="-202.4" cy="468.3" r="9.3369" transform="matrix(0.5871,-0.80952,0.80952,0.5871,0,0)" style="fill:#0200ff;"/>
<circle cx="-202.4" cy="468.3" r="9.3368" transform="matrix(0.5871,-0.80952,0.80952,0.5871,0,0)" style="fill:url(#id2);"/>
<path style="fill:white;" d="m 255.4,438 h 9.7 v 1.6 h -9.7 z"/>
</g>
<use transform="translate(116.98,-72.238)" xlink:href="#id3" x="0" y="0" width="100" height="100"/>
<use transform="translate(153.8,28.895)" xlink:href="#id3" x="0" y="0" width="100" height="100"/>
<use transform="translate(-4.1945,28.895)" xlink:href="#id4" x="0" y="0" width="100" height="100"/>
<use id="id6" transform="translate(-22.37,8.622)" xlink:href="#id5" x="0" y="0" width="100" height="100"/>
<use transform="translate(20.972,20.273)" xlink:href="#id6" x="0" y="0" width="100" height="100"/>
<use transform="translate(24.7,19.574)" xlink:href="#id4" x="0" y="0" width="100" height="100"/>
<g id="id5" transform="matrix(0.16153,0,0,0.16153,197.27,309.7)">
<circle cx="-64.5" cy="1294.1" r="76.422" transform="matrix(0.5871,-0.80951,0.80951,0.5871,0,0)" style="fill:black;"/>
<circle cx="-64.5" cy="1294.1" r="76.42" transform="matrix(0.5871,-0.80951,0.80951,0.5871,0,0)" style="fill:url(#id7);"/>
</g>
<g id="id4" transform="translate(-0.9321,-2.3303)">
<g transform="matrix(0.13374,0,0,0.13374,385.22,352.45)">
<circle cx="-691.3" cy="143.4" r="92.299" transform="matrix(0.5871,-0.80951,0.80951,0.5871,0,0)" style="fill:#ff4141;"/>
<circle cx="-691.3" cy="143.4" r="92.298" transform="matrix(0.5871,-0.80951,0.80951,0.5871,0,0)" style="fill:url(#id8);"/>
</g>
<g transform="matrix(0.13995,0,0,0.13995,334.3,308.7)">
<rect x="33.8" y="919" width="106.2" height="17.7" style="color:black; overflow:visible; fill:white; stroke-width:2.84; stroke-linejoin:round;"/>
<rect x="874.8" y="-95.8" width="106.2" height="17.7" transform="rotate(90)" style="color:black; overflow:visible; fill:white; stroke-width:2.84; stroke-linejoin:round;"/>
</g>
</g>
<use transform="translate(16.312,3.2624)" xlink:href="#id6" x="0" y="0" width="100" height="100"/>
</g>
</svg>
