<?xml version="1.0" encoding="UTF-8" standalone="no"?>
<svg
   xmlns:dc="http://purl.org/dc/elements/1.1/"
   xmlns:cc="http://creativecommons.org/ns#"
   xmlns:rdf="http://www.w3.org/1999/02/22-rdf-syntax-ns#"
   xmlns:svg="http://www.w3.org/2000/svg"
   xmlns="http://www.w3.org/2000/svg"
   xmlns:sodipodi="http://sodipodi.sourceforge.net/DTD/sodipodi-0.dtd"
   xmlns:inkscape="http://www.inkscape.org/namespaces/inkscape"
   width="385.992"
   height="241.003"
   version="1.1"
   id="svg50"
   sodipodi:docname="beats-add.svg"
   inkscape:version="0.92.3 (2405546, 2018-03-11)">
  <metadata
     id="metadata56">
    <rdf:RDF>
      <cc:Work
         rdf:about="">
        <dc:format>image/svg+xml</dc:format>
        <dc:type
           rdf:resource="http://purl.org/dc/dcmitype/StillImage" />
        <dc:title></dc:title>
      </cc:Work>
    </rdf:RDF>
  </metadata>
  <defs
     id="defs54">
    <marker
       inkscape:isstock="true"
       style="overflow:visible"
       id="marker2237"
       refX="0"
       refY="0"
       orient="auto"
       inkscape:stockid="Arrow1Lend">
      <path
         inkscape:connector-curvature="0"
         transform="matrix(-0.8,0,0,-0.8,-10,0)"
         style="fill:#ffa500;fill-opacity:1;fill-rule:evenodd;stroke:#ffa500;stroke-width:1pt;stroke-opacity:1"
         d="M 0,0 5,-5 -12.5,0 5,5 Z"
         id="path2235" />
    </marker>
    <marker
       inkscape:stockid="Arrow1Lend"
       orient="auto"
       refY="0"
       refX="0"
       id="Arrow1Lend"
       style="overflow:visible"
       inkscape:isstock="true"
       inkscape:collect="always">
      <path
         id="path883"
         d="M 0,0 5,-5 -12.5,0 5,5 Z"
         style="fill:#00008b;fill-opacity:1;fill-rule:evenodd;stroke:#00008b;stroke-width:1pt;stroke-opacity:1"
         transform="matrix(-0.8,0,0,-0.8,-10,0)"
         inkscape:connector-curvature="0" />
    </marker>
    <marker
       inkscape:stockid="Arrow1Lend"
       orient="auto"
       refY="0"
       refX="0"
       id="Arrow1Lend-5"
       style="overflow:visible"
       inkscape:isstock="true">
      <path
         id="path883-1"
         d="M 0,0 5,-5 -12.5,0 5,5 Z"
         style="fill:#ff0000;fill-opacity:1;fill-rule:evenodd;stroke:#ff0000;stroke-width:1pt;stroke-opacity:1"
         transform="matrix(-0.8,0,0,-0.8,-10,0)"
         inkscape:connector-curvature="0" />
    </marker>
  </defs>
  <sodipodi:namedview
     pagecolor="#ffffff"
     bordercolor="#666666"
     borderopacity="1"
     objecttolerance="10"
     gridtolerance="10"
     guidetolerance="10"
     inkscape:pageopacity="0"
     inkscape:pageshadow="2"
     inkscape:window-width="640"
     inkscape:window-height="480"
     id="namedview52"
     showgrid="false"
     inkscape:current-layer="svg50" />
  <desc
     id="desc2">SVG Output</desc>
  <polyline
     points="0.0000 175.18, 550.00 175.18, "
     id="polyline4"
     style="stroke:#000000;stroke-width:2"
     transform="matrix(0.7,0,0,0.7,0.486733,7.26299)" />
  <polyline
     points="0.0000 175.18, 550.00 175.18, "
     id="polyline14"
     style="stroke:#888888;stroke-width:0.5"
     transform="matrix(0.7,0,0,0.7,0.486733,7.26299)" />
  <path
     style="fill:none;fill-opacity:0.2;stroke:#00008b;stroke-width:1.05"
     d="M 0.486733,175.802 C 18.8043,153.079 28.2343,124.883 43.1863,100.062 c 6.516,-10.1145 13.274,-22.7365 25.9,-25.7925 12.317,-1.133 20.176,10.592 26.343,19.478 17.1517,26.2245 26.7017,56.9835 46.2827,81.6625 5.741,7.426 16.353,13.885 25.375,7.889 13.863,-9.376 20.805,-25.534 28.7,-39.683 11.232,-20.841 19.808,-43.6815 35.7,-61.5925 5.867,-6.93 16.626,-11.017 24.5,-4.753 14.039,10.694 21.162,27.6545 29.4,42.7345 10.729,20.051 19.05,42.113 34.877,58.877 5.949,6.625 16.605,9.444 23.923,3.241 14.314,-11.477 21.577,-29.107 30.1,-44.849 3.734,-7.399 7.387,-14.839 11.2,-22.197"
     id="polyline44"
     inkscape:connector-curvature="0" />
  <path
     style="fill:none;fill-opacity:0.2;stroke:#ffa500;stroke-width:1.05"
     d="M 0.486733,174.22 C 22.6203,147.026 32.5743,112.035 54.9193,84.9915 c 6.309,-7.919 17.72,-14.689 27.468,-8.399 14.292,9.264 21.7887,25.4775 30.0997,39.7305 11.873,20.933 21.017,44.06 37.8,61.726 6.428,7.066 17.734,10.59 25.9,4.193 14.807,-11.059 22.595,-28.632 31.5,-44.289 10.9,-19.52 19.681,-40.9745 35.7,-57.0215 6.614,-7 18.117,-9.456 25.9,-2.807 15.028,11.993 22.971,30.2585 32.2,46.6265 10.52,18.879 19.111,39.693 35,54.852 6.622,6.641 17.776,8.314 25.2,1.946 10.543,-8.06 17.186,-20.094 23.8,-31.325"
     id="polyline46"
     inkscape:connector-curvature="0" />
  <path
     style="fill:none;fill-opacity:0.2;stroke:#ff0000;stroke-width:1.05"
     d="M 0.486733,220.133 C 15.8188,182.206 23.7423,141.859 34.5413,102.523 c 7.246,-25.3985 12.934,-51.824 26.145,-74.9572 3.212,-5.945 11.05,-12.7325 17.501,-6.8636 11.347,11.118 15.291,27.3688 20.573,41.8726 16.1277,50.2342 24.9837,102.6312 43.4587,152.1272 4.324,9.265 7.838,21.109 17.868,25.654 9.44,1.39 14.127,-9.333 17.895,-16.157 14.469,-32.06 21.615,-66.757 30.854,-100.544 8.362,-30.2925 14.942,-61.5058 28.951,-89.8326 3.477,-6.3232 9.654,-16.2578 18.2,-12.2031 10.914,7.8112 14.634,21.8055 19.507,33.6819 18.011,51.3638 26.762,105.5688 46.293,156.4318 4.383,9.138 8.026,20.973 18.2,25.109 9.619,0.993 14.298,-9.787 18.2,-16.793 12.485,-26.947 19.255,-56.172 27.3,-84.637"
     id="polyline48"
     inkscape:connector-curvature="0" />
  <text
     xml:space="preserve"
     style="color:#000000;font-style:italic;font-variant:normal;font-weight:normal;font-stretch:normal;font-size:16px;line-height:17.5px;font-family:'Trebuchet MS';-inkscape-font-specification:'Trebuchet MS, Italic';font-variant-ligatures:normal;font-variant-caps:normal;font-variant-numeric:normal;font-feature-settings:normal;text-indent:0;text-align:start;text-decoration:none;text-decoration-line:none;text-decoration-style:solid;text-decoration-color:#000000;letter-spacing:0px;word-spacing:0px;text-transform:none;writing-mode:lr-tb;direction:ltr;baseline-shift:baseline;text-anchor:start;white-space:normal;clip-rule:nonzero;display:inline;overflow:visible;visibility:visible;opacity:1;isolation:auto;mix-blend-mode:normal;color-interpolation:sRGB;color-interpolation-filters:linearRGB;solid-color:#000000;solid-opacity:1;fill:#ffa500;fill-opacity:1;fill-rule:nonzero;stroke:none;stroke-width:0.7px;stroke-linecap:butt;stroke-linejoin:miter;stroke-miterlimit:4;stroke-dasharray:none;stroke-dashoffset:0;stroke-opacity:1;color-rendering:auto;image-rendering:auto;shape-rendering:auto;text-rendering:auto;enable-background:accumulate"
     x="298.252"
     y="52.781"
     id="text868"><tspan
       sodipodi:role="line"
       id="tspan866"
       x="298.252"
       y="52.781"
       style="font-style:italic;font-variant:normal;font-weight:normal;font-stretch:normal;font-size:16px;font-family:'Trebuchet MS';-inkscape-font-specification:'Trebuchet MS, Italic';font-variant-ligatures:normal;font-variant-caps:normal;font-variant-numeric:normal;font-feature-settings:normal;text-align:start;writing-mode:lr-tb;text-anchor:start;stroke-width:0.7px">Tone B</tspan></text>
  <text
     xml:space="preserve"
     style="color:#000000;font-style:italic;font-variant:normal;font-weight:normal;font-stretch:normal;font-size:16px;line-height:17.5px;font-family:'Trebuchet MS';-inkscape-font-specification:'Trebuchet MS, Italic';font-variant-ligatures:normal;font-variant-caps:normal;font-variant-numeric:normal;font-feature-settings:normal;text-indent:0;text-align:start;text-decoration:none;text-decoration-line:none;text-decoration-style:solid;text-decoration-color:#000000;letter-spacing:0px;word-spacing:0px;text-transform:none;writing-mode:lr-tb;direction:ltr;baseline-shift:baseline;text-anchor:start;white-space:normal;clip-rule:nonzero;display:inline;overflow:visible;visibility:visible;opacity:1;isolation:auto;mix-blend-mode:normal;color-interpolation:sRGB;color-interpolation-filters:linearRGB;solid-color:#000000;solid-opacity:1;fill:#00008b;fill-opacity:1;fill-rule:nonzero;stroke:none;stroke-width:0.7px;stroke-linecap:butt;stroke-linejoin:miter;stroke-miterlimit:4;stroke-dasharray:none;stroke-dashoffset:0;stroke-opacity:1;color-rendering:auto;image-rendering:auto;shape-rendering:auto;text-rendering:auto;enable-background:accumulate"
     x="148.916"
     y="60.092"
     id="text872"><tspan
       sodipodi:role="line"
       id="tspan870"
       x="148.916"
       y="60.092"
       style="font-style:italic;font-variant:normal;font-weight:normal;font-stretch:normal;font-size:16px;font-family:'Trebuchet MS';-inkscape-font-specification:'Trebuchet MS, Italic';font-variant-ligatures:normal;font-variant-caps:normal;font-variant-numeric:normal;font-feature-settings:normal;text-align:start;writing-mode:lr-tb;text-anchor:start;stroke-width:0.7px">Tone A</tspan></text>
  <text
     xml:space="preserve"
     style="color:#000000;font-style:italic;font-variant:normal;font-weight:normal;font-stretch:normal;font-size:16px;line-height:17.5px;font-family:'Trebuchet MS';-inkscape-font-specification:'Trebuchet MS, Italic';font-variant-ligatures:normal;font-variant-caps:normal;font-variant-numeric:normal;font-feature-settings:normal;text-indent:0;text-align:start;text-decoration:none;text-decoration-line:none;text-decoration-style:solid;text-decoration-color:#000000;letter-spacing:0px;word-spacing:0px;text-transform:none;writing-mode:lr-tb;direction:ltr;baseline-shift:baseline;text-anchor:start;white-space:normal;clip-rule:nonzero;display:inline;overflow:visible;visibility:visible;opacity:1;isolation:auto;mix-blend-mode:normal;color-interpolation:sRGB;color-interpolation-filters:linearRGB;solid-color:#000000;solid-opacity:1;fill:#ff0000;fill-opacity:1;fill-rule:nonzero;stroke:none;stroke-width:0.7px;stroke-linecap:butt;stroke-linejoin:miter;stroke-miterlimit:4;stroke-dasharray:none;stroke-dashoffset:0;stroke-opacity:1;color-rendering:auto;image-rendering:auto;shape-rendering:auto;text-rendering:auto;enable-background:accumulate"
     x="144.738"
     y="11.6172"
     id="text876"><tspan
       sodipodi:role="line"
       id="tspan874"
       x="144.738"
       y="11.6172"
       style="font-style:italic;font-variant:normal;font-weight:normal;font-stretch:normal;font-size:16px;font-family:'Trebuchet MS';-inkscape-font-specification:'Trebuchet MS, Italic';font-variant-ligatures:normal;font-variant-caps:normal;font-variant-numeric:normal;font-feature-settings:normal;text-align:start;writing-mode:lr-tb;text-anchor:start;stroke-width:0.7px">Tone A + Tone B</tspan></text>
  <path
     style="fill:none;fill-rule:evenodd;stroke:#00008b;stroke-width:0.7px;stroke-linecap:butt;stroke-linejoin:miter;stroke-opacity:1;marker-end:url(#Arrow1Lend)"
     d="m 199.787,58.8314 28.085,20.6898"
     id="path878"
     inkscape:connector-curvature="0"
     sodipodi:nodetypes="cc" />
  <path
     sodipodi:nodetypes="cc"
     inkscape:connector-curvature="0"
     id="path2233"
     d="M 296.711,50.5173 273.378,76.8005"
     style="fill:none;fill-rule:evenodd;stroke:#ffa500;stroke-width:0.7px;stroke-linecap:butt;stroke-linejoin:miter;stroke-opacity:1;marker-end:url(#marker2237)" />
  <path
     style="fill:none;fill-rule:evenodd;stroke:#ff0000;stroke-width:0.7px;stroke-linecap:butt;stroke-linejoin:miter;stroke-opacity:1;marker-end:url(#Arrow1Lend-5)"
     d="m 208.342,14.3382 24.184,18.6892"
     id="path878-0"
     inkscape:connector-curvature="0"
     sodipodi:nodetypes="cc" />
</svg>
