<?xml version="1.0" encoding="UTF-8" standalone="no"?>
<svg
   xmlns:dc="http://purl.org/dc/elements/1.1/"
   xmlns:cc="http://creativecommons.org/ns#"
   xmlns:rdf="http://www.w3.org/1999/02/22-rdf-syntax-ns#"
   xmlns:svg="http://www.w3.org/2000/svg"
   xmlns="http://www.w3.org/2000/svg"
   xmlns:sodipodi="http://sodipodi.sourceforge.net/DTD/sodipodi-0.dtd"
   xmlns:inkscape="http://www.inkscape.org/namespaces/inkscape"
   width="385.898"
   height="136.61"
   version="1.1"
   id="svg50"
   sodipodi:docname="beats-sub.svg"
   inkscape:version="0.92.3 (2405546, 2018-03-11)">
  <metadata
     id="metadata56">
    <rdf:RDF>
      <cc:Work
         rdf:about="">
        <dc:format>image/svg+xml</dc:format>
        <dc:type
           rdf:resource="http://purl.org/dc/dcmitype/StillImage" />
        <dc:title></dc:title>
      </cc:Work>
    </rdf:RDF>
  </metadata>
  <defs
     id="defs54">
    <marker
       inkscape:stockid="Arrow1Lend"
       orient="auto"
       refY="0"
       refX="0"
       id="Arrow1Lend"
       style="overflow:visible"
       inkscape:isstock="true">
      <path
         id="path883"
         d="M 0,0 5,-5 -12.5,0 5,5 Z"
         style="fill:#ff0000;fill-opacity:1;fill-rule:evenodd;stroke:#ff0000;stroke-width:1pt;stroke-opacity:1"
         transform="matrix(-0.8,0,0,-0.8,-10,0)"
         inkscape:connector-curvature="0" />
    </marker>
  </defs>
  <sodipodi:namedview
     pagecolor="#ffffff"
     bordercolor="#666666"
     borderopacity="1"
     objecttolerance="10"
     gridtolerance="10"
     guidetolerance="10"
     inkscape:pageopacity="0"
     inkscape:pageshadow="2"
     inkscape:window-width="640"
     inkscape:window-height="480"
     id="namedview52"
     showgrid="false"
     inkscape:current-layer="svg50" />
  <desc
     id="desc2">SVG Output</desc>
  <polyline
     points="0.0000 146.35, 550.00 146.35, "
     id="polyline4"
     style="stroke:#000000;stroke-width:2"
     transform="matrix(0.7,0,0,0.7,0.433248,-22.1242)" />
  <polyline
     points="0.0000 146.35, 550.00 146.35, "
     id="polyline14"
     style="stroke:#888888;stroke-width:0.5"
     transform="matrix(0.7,0,0,0.7,0.433248,-22.1242)" />
  <path
     style="fill:none;fill-opacity:0.2;stroke:#00008b;stroke-width:1.05"
     d="M 0.433248,36.6436 C 21.3136,64.1235 30.5546,98.6773 52.0556,125.739 c 5.735,7.43 16.308,13.989 25.378,8.041 13.876,-9.308 20.811,-25.45 28.7004,-39.5637 11.244,-20.8612 19.83,-43.7141 35.7,-61.6698 5.847,-6.9411 16.583,-11.1298 24.5,-4.9028 14.054,10.6317 21.173,27.5751 29.4,42.6251 10.741,20.0745 19.075,42.1432 34.874,58.9632 5.936,6.628 16.561,9.553 23.926,3.386 14.328,-11.417 21.581,-29.029 30.1,-44.7367 10.232,-19.2918 18.41,-40.3682 33.6,-56.4632 5.898,-6.5745 16.436,-9.5651 23.8,-3.4846 14.357,11.3126 21.595,28.9037 30.1,44.5613 4.414,8.7529 8.721,17.5605 13.3,26.2295"
     id="polyline44"
     inkscape:connector-curvature="0" />
  <path
     style="fill:none;fill-opacity:0.2;stroke:#ffa500;stroke-width:1.05"
     d="M 0.433248,116.147 C 18.2356,90.1353 28.4776,59.3943 48.7336,35.0161 c 6.324,-7.8216 17.746,-14.2199 27.3,-7.8834 14.474,9.5806 22.034,26.1261 30.4804,40.6805 11.686,20.6741 20.761,43.4968 37.42,60.8498 6.468,7.049 17.82,10.343 25.9,3.885 14.973,-11.381 22.826,-29.279 31.876,-45.2307 10.728,-19.2493 19.436,-40.3969 35.324,-56.1288 6.465,-6.6936 17.508,-9.2084 25.2,-2.9883 14.949,11.4855 22.813,29.4126 31.877,45.4174 10.71,19.2087 19.402,40.3314 35.323,55.9764 6.502,6.673 17.57,9.004 25.2,2.744 14.266,-10.945 22.153,-28.311 30.8,-43.5747"
     id="polyline46"
     inkscape:connector-curvature="0" />
  <path
     style="fill:none;fill-opacity:0.2;stroke:#ff0000;stroke-width:1.05"
     d="M 0.433248,72.4668 C 28.7416,66.1409 55.6196,81.5843 83.7336,81.8403 c 25.6884,0.723 51.4324,-6.5154 77.0004,-1.0784 22.748,4.1464 46.102,13.4304 69.3,6.4054 23.301,-5.8853 42.464,-24.2891 67.2,-24.9625 21.014,0.1295 36.97,15.4475 52.5,27.5875 10.455,8.082 21.862,17.0467 35.7,17.3737"
     id="polyline48"
     inkscape:connector-curvature="0" />
  <text
     xml:space="preserve"
     style="color:#000000;font-style:italic;font-variant:normal;font-weight:normal;font-stretch:normal;font-size:16px;line-height:17.5px;font-family:'Trebuchet MS';-inkscape-font-specification:'Trebuchet MS, Italic';font-variant-ligatures:normal;font-variant-caps:normal;font-variant-numeric:normal;font-feature-settings:normal;text-indent:0;text-align:start;text-decoration:none;text-decoration-line:none;text-decoration-style:solid;text-decoration-color:#000000;letter-spacing:0px;word-spacing:0px;text-transform:none;writing-mode:lr-tb;direction:ltr;baseline-shift:baseline;text-anchor:start;white-space:normal;clip-rule:nonzero;display:inline;overflow:visible;visibility:visible;opacity:1;isolation:auto;mix-blend-mode:normal;color-interpolation:sRGB;color-interpolation-filters:linearRGB;solid-color:#000000;solid-opacity:1;fill:#ffa500;fill-opacity:1;fill-rule:nonzero;stroke:none;stroke-width:0.7px;stroke-linecap:butt;stroke-linejoin:miter;stroke-miterlimit:4;stroke-dasharray:none;stroke-dashoffset:0;stroke-opacity:1;color-rendering:auto;image-rendering:auto;shape-rendering:auto;text-rendering:auto;enable-background:accumulate"
     x="134.713"
     y="116.714"
     id="text868"><tspan
       sodipodi:role="line"
       id="tspan866"
       x="134.713"
       y="116.714"
       style="font-style:italic;font-variant:normal;font-weight:normal;font-stretch:normal;font-size:16px;font-family:'Trebuchet MS';-inkscape-font-specification:'Trebuchet MS, Italic';font-variant-ligatures:normal;font-variant-caps:normal;font-variant-numeric:normal;font-feature-settings:normal;text-align:start;writing-mode:lr-tb;text-anchor:start;stroke-width:0.7px">Tone B</tspan></text>
  <text
     xml:space="preserve"
     style="color:#000000;font-style:italic;font-variant:normal;font-weight:normal;font-stretch:normal;font-size:16px;line-height:17.5px;font-family:'Trebuchet MS';-inkscape-font-specification:'Trebuchet MS, Italic';font-variant-ligatures:normal;font-variant-caps:normal;font-variant-numeric:normal;font-feature-settings:normal;text-indent:0;text-align:start;text-decoration:none;text-decoration-line:none;text-decoration-style:solid;text-decoration-color:#000000;letter-spacing:0px;word-spacing:0px;text-transform:none;writing-mode:lr-tb;direction:ltr;baseline-shift:baseline;text-anchor:start;white-space:normal;clip-rule:nonzero;display:inline;overflow:visible;visibility:visible;opacity:1;isolation:auto;mix-blend-mode:normal;color-interpolation:sRGB;color-interpolation-filters:linearRGB;solid-color:#000000;solid-opacity:1;fill:#00008b;fill-opacity:1;fill-rule:nonzero;stroke:none;stroke-width:0.7px;stroke-linecap:butt;stroke-linejoin:miter;stroke-miterlimit:4;stroke-dasharray:none;stroke-dashoffset:0;stroke-opacity:1;color-rendering:auto;image-rendering:auto;shape-rendering:auto;text-rendering:auto;enable-background:accumulate"
     x="132.527"
     y="56.5606"
     id="text872"><tspan
       sodipodi:role="line"
       id="tspan870"
       x="132.527"
       y="56.5606"
       style="font-style:italic;font-variant:normal;font-weight:normal;font-stretch:normal;font-size:16px;font-family:'Trebuchet MS';-inkscape-font-specification:'Trebuchet MS, Italic';font-variant-ligatures:normal;font-variant-caps:normal;font-variant-numeric:normal;font-feature-settings:normal;text-align:start;writing-mode:lr-tb;text-anchor:start;stroke-width:0.7px">Tone A</tspan></text>
  <text
     xml:space="preserve"
     style="color:#000000;font-style:italic;font-variant:normal;font-weight:normal;font-stretch:normal;font-size:16px;line-height:17.5px;font-family:'Trebuchet MS';-inkscape-font-specification:'Trebuchet MS, Italic';font-variant-ligatures:normal;font-variant-caps:normal;font-variant-numeric:normal;font-feature-settings:normal;text-indent:0;text-align:start;text-decoration:none;text-decoration-line:none;text-decoration-style:solid;text-decoration-color:#000000;letter-spacing:0px;word-spacing:0px;text-transform:none;writing-mode:lr-tb;direction:ltr;baseline-shift:baseline;text-anchor:start;white-space:normal;clip-rule:nonzero;display:inline;overflow:visible;visibility:visible;opacity:1;isolation:auto;mix-blend-mode:normal;color-interpolation:sRGB;color-interpolation-filters:linearRGB;solid-color:#000000;solid-opacity:1;fill:#ff0000;fill-opacity:1;fill-rule:nonzero;stroke:none;stroke-width:0.7px;stroke-linecap:butt;stroke-linejoin:miter;stroke-miterlimit:4;stroke-dasharray:none;stroke-dashoffset:0;stroke-opacity:1;color-rendering:auto;image-rendering:auto;shape-rendering:auto;text-rendering:auto;enable-background:accumulate"
     x="167.739"
     y="11.6172"
     id="text876"><tspan
       sodipodi:role="line"
       id="tspan874"
       x="167.739"
       y="11.6172"
       style="font-style:italic;font-variant:normal;font-weight:normal;font-stretch:normal;font-size:16px;font-family:'Trebuchet MS';-inkscape-font-specification:'Trebuchet MS, Italic';font-variant-ligatures:normal;font-variant-caps:normal;font-variant-numeric:normal;font-feature-settings:normal;text-align:start;writing-mode:lr-tb;text-anchor:start;stroke-width:0.7px">Tone A + Tone B</tspan></text>
  <path
     style="fill:none;fill-rule:evenodd;stroke:#ff0000;stroke-width:0.7px;stroke-linecap:butt;stroke-linejoin:miter;stroke-opacity:1;marker-end:url(#Arrow1Lend)"
     d="M 222.298,16.1382 182.912,83.8013"
     id="path878"
     inkscape:connector-curvature="0"
     sodipodi:nodetypes="cc" />
</svg>
