<?xml version="1.0" encoding="UTF-8" standalone="no"?>
<!-- Copyright 2017 mathsisfun.com -->
<svg xmlns="http://www.w3.org/2000/svg" width="191" height="115.2" version="1.1">
<defs>
</defs>
<text x="94.6" y="17.4" style="font-family:'Comic Sans MS'; text-align:center; text-anchor:middle; font-size:20px; font-style:italic; color:black; overflow:visible; fill:#edd400; stroke-width:0.99; stroke-linecap:round;">Changing</text>
<text x="92.8" y="87.3" style="font-family:'Comic Sans MS'; text-align:center; text-anchor:middle; font-size:20px; font-style:italic; color:black; overflow:visible; fill:#3465a4; stroke-width:0.99; stroke-linecap:round;">Changing</text>
<g transform="matrix(0.017658,-0.211276,0.583693,0.006391,-223.156,159.133)">
<path style="color:black; overflow:visible; fill:#3465a4; stroke-width:2.5; stroke-linecap:round;" d="m 338.6,407.1 c 21.8,-14.4 48.1,-19.6 72.6,-27.4 56.6,-13.8 117.2,-18.3 174.1,-3.3 12.3,5.8 41.7,12.3 41.8,22.6 -13.4,0.8 -28.7,-14.3 -44,-16.7 -56.3,-15.5 -116.6,-10.8 -172.8,2.4 -21.7,7.5 -45.2,11.8 -64.6,24.5 -2.4,-0.7 -4.9,-1.3 -7.2,-2.1 z"/>
<path style="color:black; overflow:visible; fill:#3465a4; stroke-width:2.5; stroke-linecap:round;" d="m 585.6,393.6 c 10.8,-4.6 48.4,-1.4 44.3,8.5 -8.8,-0.5 -38.7,-7.3 -38.5,-6.2 -2,-0.8 -4,-1.5 -5.9,-2.3 z"/>
<path style="color:black; overflow:visible; fill:#3465a4; stroke-width:2.5; stroke-linecap:round;" d="m 619.1,373.9 c -4.2,12.9 24,23.6 10.5,29.4 -7.7,-3.3 -25,-25.8 -12.2,-28.9 l 1.1,-0.3 z"/>
</g>
<g transform="matrix(-0.017658,0.212073,-0.583693,-0.006415,414.177,-38.676)">
<path style="color:black; overflow:visible; fill:#edd400; stroke-width:2.5; stroke-linecap:round;" d="m 338.6,407.1 c 21.8,-14.4 48.1,-19.6 72.6,-27.4 56.6,-13.8 117.2,-18.3 174.1,-3.3 12.3,5.8 41.7,12.3 41.9,22.6 -13.4,0.8 -28.7,-14.3 -44,-16.7 -56.3,-15.5 -116.6,-10.8 -172.8,2.4 -21.7,7.5 -45.2,11.8 -64.6,24.5 -2.4,-0.7 -4.9,-1.3 -7.2,-2.1 z"/>
<path style="color:black; overflow:visible; fill:#edd400; stroke-width:2.5; stroke-linecap:round;" d="m 585.6,393.6 c 10.8,-4.6 48.4,-1.4 44.3,8.5 -8.8,-0.4 -38.7,-7.3 -38.5,-6.2 -2,-0.8 -4,-1.5 -5.9,-2.3 z"/>
<path style="color:black; overflow:visible; fill:#edd400; stroke-width:2.5; stroke-linecap:round;" d="m 619.1,373.9 c -4.2,12.9 24,23.6 10.5,29.4 -7.7,-3.3 -25,-25.8 -12.2,-28.9 l 1.1,-0.3 z"/>
</g>
<text x="94.6" y="39.2" style="font-family:'Comic Sans MS'; text-align:center; text-anchor:middle; font-size:20px; font-style:italic; color:black; overflow:visible; fill:#edd400; stroke-width:0.99; stroke-linecap:round;">Electric Field</text>
<text x="92.8" y="109.1" style="font-family:'Comic Sans MS'; text-align:center; text-anchor:middle; font-size:20px; font-style:italic; color:black; overflow:visible; fill:#3465a4; stroke-width:0.99; stroke-linecap:round;">Magnetic Field</text>
</svg>
