<?xml version="1.0" encoding="UTF-8" standalone="no"?>
<!-- Copyright 2017 mathsisfun.com -->

<svg
   width="141.967"
   height="163.86"
   version="1.1"
   style="fill:#000000;stroke-width:0.26px"
   id="svg165"
   sodipodi:docname="dice-pup.svg"
   inkscape:version="1.1 (c68e22c387, 2021-05-23)"
   xmlns:inkscape="http://www.inkscape.org/namespaces/inkscape"
   xmlns:sodipodi="http://sodipodi.sourceforge.net/DTD/sodipodi-0.dtd"
   xmlns:xlink="http://www.w3.org/1999/xlink"
   xmlns="http://www.w3.org/2000/svg"
   xmlns:svg="http://www.w3.org/2000/svg">
  <sodipodi:namedview
     id="namedview167"
     pagecolor="#ffffff"
     bordercolor="#666666"
     borderopacity="1.0"
     inkscape:pageshadow="2"
     inkscape:pageopacity="0.0"
     inkscape:pagecheckerboard="0"
     showgrid="false"
     inkscape:current-layer="svg165"
     inkscape:snap-global="false" />
  <defs
     id="defs65">
    <linearGradient
       id="linearGradient53814">
      <stop
         offset="0"
         style="stop-color:#cec7e9;stop-opacity:0.580392"
         id="stop53808" />
      <stop
         offset="0.606"
         style="stop-color:#d3d4e6;stop-opacity:0.580392"
         id="stop53810" />
      <stop
         offset="1"
         style="stop-color:#f3f3f3;stop-opacity:0.02"
         id="stop53812" />
    </linearGradient>
    <linearGradient
       id="linearGradient53231">
      <stop
         offset="0"
         style="stop-color:#dbf3ff;stop-opacity:1"
         id="stop53225" />
      <stop
         offset="0.556"
         style="stop-color:#cccdda;stop-opacity:1"
         id="stop53227" />
      <stop
         offset="1"
         style="stop-color:#a6b5ef;stop-opacity:0"
         id="stop53229" />
    </linearGradient>
    <linearGradient
       id="linearGradient24831">
      <stop
         offset="0"
         style="stop-color:#ffffff;stop-opacity:0.46124"
         id="stop24827" />
      <stop
         offset="0.395124"
         style="stop-color:#ffffff;stop-opacity:0.286275;"
         id="stop25041" />
      <stop
         offset="1"
         style="stop-color:#ffffff;stop-opacity:0"
         id="stop24829" />
    </linearGradient>
    <linearGradient
       id="aa8">
      <stop
         offset="0"
         style="stop-color:#dadada;stop-opacity:1"
         id="stop2" />
      <stop
         offset="1"
         style="stop-color:#cbcbcb;stop-opacity:0"
         id="stop4" />
    </linearGradient>
    <linearGradient
       id="aa6">
      <stop
         offset="0"
         style="stop-color:#b4b4b4;stop-opacity:0.58"
         id="stop7" />
      <stop
         offset="0.606"
         style="stop-color:#c3c3c3;stop-opacity:0.58"
         id="stop9" />
      <stop
         offset="1"
         style="stop-color:#f3f3f3;stop-opacity:0.02"
         id="stop11" />
    </linearGradient>
    <linearGradient
       id="aa7">
      <stop
         offset="0"
         style="stop-color:#9f9f9f;stop-opacity:1"
         id="stop14" />
      <stop
         offset="0.556"
         style="stop-color:#d3d3d3;stop-opacity:1"
         id="stop16" />
      <stop
         offset="1"
         style="stop-color:#fefefe;stop-opacity:0"
         id="stop18" />
    </linearGradient>
    <linearGradient
       id="aa5">
      <stop
         offset="0"
         style="stop-color:white;stop-opacity:1"
         id="stop21" />
      <stop
         offset="1"
         style="stop-color:white;stop-opacity:0"
         id="stop23" />
    </linearGradient>
    <linearGradient
       id="aa4">
      <stop
         offset="0"
         style="stop-color:white;stop-opacity:1"
         id="stop26" />
      <stop
         offset="0.719"
         style="stop-color:white;stop-opacity:1"
         id="stop28" />
      <stop
         offset="1"
         style="stop-color:white;stop-opacity:0"
         id="stop30" />
    </linearGradient>
    <linearGradient
       id="aa3">
      <stop
         offset="0"
         style="stop-color:#848484;stop-opacity:0.58"
         id="stop33" />
      <stop
         offset="0.566"
         style="stop-color:#b1b1b1;stop-opacity:0.58"
         id="stop35" />
      <stop
         offset="1"
         style="stop-color:#fefefe;stop-opacity:0.02"
         id="stop37" />
    </linearGradient>
    <linearGradient
       id="aa2">
      <stop
         offset="0"
         style="stop-color:#9f9f9f;stop-opacity:1"
         id="stop40" />
      <stop
         offset="0.48"
         style="stop-color:#d3d3d3;stop-opacity:1"
         id="stop42" />
      <stop
         offset="1"
         style="stop-color:#fefefe;stop-opacity:0"
         id="stop44" />
    </linearGradient>
    <linearGradient
       id="aa1">
      <stop
         offset="0"
         style="stop-color:#464646;stop-opacity:1"
         id="stop47" />
      <stop
         offset="1"
         style="stop-color:black;stop-opacity:1"
         id="stop49" />
    </linearGradient>
    <radialGradient
       id="aa14"
       r="3.77508"
       fx="31.4697"
       fy="4.39236"
       cx="31.5"
       cy="4.4"
       gradientTransform="matrix(1.5659,0,0,0.599871,48.4224,-296.033)"
       xlink:href="#aa1"
       gradientUnits="userSpaceOnUse" />
    <radialGradient
       id="aa13"
       r="3.77508"
       fx="31.4697"
       fy="4.39236"
       cx="31.5"
       cy="4.4"
       gradientTransform="matrix(1.5659,0,0,0.599871,70.618,-300.94)"
       xlink:href="#aa1"
       gradientUnits="userSpaceOnUse" />
    <radialGradient
       id="aa15"
       r="3.77508"
       fx="31.4697"
       fy="4.39236"
       cx="31.5"
       cy="4.4"
       gradientTransform="matrix(1.51963,0,0,0.582143,62.5468,-288.938)"
       xlink:href="#aa1"
       gradientUnits="userSpaceOnUse" />
    <radialGradient
       id="aa12"
       r="3.77508"
       fx="31.4697"
       fy="4.39236"
       cx="31.5"
       cy="4.4"
       gradientTransform="matrix(1.50806,0,0,0.577712,83.626,-292.76)"
       xlink:href="#aa1"
       gradientUnits="userSpaceOnUse" />
    <radialGradient
       id="aa10"
       r="25.0311"
       fx="43.962"
       fy="36.1646"
       cx="44"
       cy="36.2"
       gradientTransform="matrix(1.9763,-1.73301,0.658407,0.750842,161.052,-197.948)"
       xlink:href="#aa2"
       gradientUnits="userSpaceOnUse" />
    <radialGradient
       id="aa9"
       r="25.0311"
       fx="24.6341"
       fy="9.64565"
       cx="24.6"
       cy="9.6"
       gradientTransform="matrix(0.570795,-0.556318,1.04541,1.07261,195.257,-246.736)"
       xlink:href="#aa3"
       gradientUnits="userSpaceOnUse" />
    <radialGradient
       id="aa16"
       r="11.74"
       fx="34.0391"
       fy="36.9385"
       cx="34"
       cy="36.9"
       gradientTransform="matrix(2.48079,-0.440562,0.105162,0.59217,163.638,-263.881)"
       xlink:href="#aa4"
       gradientUnits="userSpaceOnUse" />
    <radialGradient
       id="aa11"
       r="4.37914"
       fx="25.7678"
       fy="44.3745"
       cx="25.8"
       cy="44.4"
       gradientTransform="matrix(1.83619,0.071136,-0.116153,2.99815,211.516,-347.566)"
       xlink:href="#aa5"
       gradientUnits="userSpaceOnUse" />
    <radialGradient
       id="aa17"
       r="25.0311"
       fx="23.5473"
       fy="5.08626"
       cx="23.5"
       cy="5.1"
       gradientTransform="matrix(0.33527,-0.785022,1.17378,0.501304,105.009,81.1388)"
       xlink:href="#aa6"
       gradientUnits="userSpaceOnUse" />
    <radialGradient
       id="aa18"
       r="25.0311"
       fx="45.3422"
       fy="40.5604"
       cx="45.3"
       cy="40.6"
       gradientTransform="matrix(0.944861,-2.03085,0.771566,0.358975,97.031,127.357)"
       xlink:href="#aa7"
       gradientUnits="userSpaceOnUse" />
    <radialGradient
       id="aa19"
       r="4.37914"
       fx="25.1313"
       fy="44.4324"
       cx="25.1"
       cy="44.4"
       gradientTransform="matrix(3.78861,0.115604,-0.561253,4.62044,37.7961,-127.775)"
       xlink:href="#aa8"
       gradientUnits="userSpaceOnUse" />
    <radialGradient
       id="aa20"
       r="3.77508"
       fx="31.4697"
       fy="4.39236"
       cx="31.5"
       cy="4.4"
       gradientTransform="matrix(1.50806,0,0,0.577711,111.583,6.20093)"
       xlink:href="#aa1"
       gradientUnits="userSpaceOnUse" />
    <radialGradient
       id="aa21"
       r="3.77508"
       fx="31.4697"
       fy="4.39236"
       cx="31.5"
       cy="4.4"
       gradientTransform="matrix(1.5659,0,0,0.599871,84.8861,2.29371)"
       xlink:href="#aa1"
       gradientUnits="userSpaceOnUse" />
    <linearGradient
       id="id3">
      <stop
         offset="0"
         style="stop-color:white;stop-opacity:0.88"
         id="stop2-3" />
      <stop
         offset="1"
         style="stop-color:white;stop-opacity:0"
         id="stop4-0" />
    </linearGradient>
    <radialGradient
       id="id8"
       r="11.5517"
       fx="51.2932"
       fy="186.697"
       cx="51.3"
       cy="186.7"
       gradientTransform="matrix(1.98836,1.12364e-6,2.13967e-6,4.33675,85.2545,-789.101)"
       xlink:href="#id3"
       gradientUnits="userSpaceOnUse" />
    <linearGradient
       id="id4"
       gradientTransform="matrix(1.55007,0,0,1.55007,130.121,-62.5413)"
       xlink:href="#id1"
       x1="11.4"
       y1="118.6"
       x2="93.1"
       y2="73.3"
       gradientUnits="userSpaceOnUse" />
    <linearGradient
       id="id1"
       gradientTransform="matrix(0.58995,0,0,0.45394,-93.459,-183.24)"
       x1="165.4"
       y1="608.2"
       x2="281.9"
       y2="572"
       gradientUnits="userSpaceOnUse">
      <stop
         offset="0"
         stop-color="#7fffff"
         id="stop20" />
      <stop
         offset="1"
         stop-color="#0000ff"
         id="stop22" />
    </linearGradient>
    <radialGradient
       id="id8-4"
       r="11.5517"
       fx="51.2932"
       fy="186.697"
       cx="51.3"
       cy="186.7"
       gradientTransform="matrix(2.58413,0,2.78077e-6,1.67814,176.245,-464.961)"
       xlink:href="#linearGradient24831"
       gradientUnits="userSpaceOnUse" />
    <radialGradient
       id="aa9-6"
       r="25.0311"
       fx="24.6341"
       fy="9.64565"
       cx="24.6"
       cy="9.6"
       gradientTransform="matrix(0.574704,-0.362,0.680255,1.07996,-205.809,206.263)"
       xlink:href="#aa3"
       gradientUnits="userSpaceOnUse" />
    <radialGradient
       id="aa10-6"
       r="25.0311"
       fx="43.962"
       fy="36.1646"
       cx="44"
       cy="36.2"
       gradientTransform="matrix(1.95545,-1.0924,0.415026,0.742919,-242.998,240.831)"
       xlink:href="#aa2"
       gradientUnits="userSpaceOnUse" />
    <radialGradient
       id="aa11-6"
       r="4.37914"
       fx="25.7678"
       fy="44.3745"
       cx="25.8"
       cy="44.4"
       gradientTransform="matrix(1.56472,0.060619,-0.09898,2.55489,-175.73,134.653)"
       xlink:href="#aa5"
       gradientUnits="userSpaceOnUse" />
    <radialGradient
       id="aa12-0"
       r="3.77508"
       fx="31.4697"
       fy="4.39236"
       cx="31.5"
       cy="4.4"
       gradientTransform="matrix(1.50806,0,0,0.577712,71.6845,260.92)"
       xlink:href="#aa1"
       gradientUnits="userSpaceOnUse" />
    <radialGradient
       id="aa13-0"
       r="3.77508"
       fx="31.4697"
       fy="4.39236"
       cx="31.5"
       cy="4.4"
       gradientTransform="matrix(1.5659,0,0,0.599871,58.6766,252.741)"
       xlink:href="#aa1"
       gradientUnits="userSpaceOnUse" />
    <radialGradient
       id="aa14-0"
       r="3.77508"
       fx="31.4697"
       fy="4.39236"
       cx="31.5"
       cy="4.4"
       gradientTransform="matrix(1.5659,0,0,0.599871,36.4806,257.647)"
       xlink:href="#aa1"
       gradientUnits="userSpaceOnUse" />
    <radialGradient
       id="aa15-5"
       r="3.77508"
       fx="31.4697"
       fy="4.39236"
       cx="31.5"
       cy="4.4"
       gradientTransform="matrix(1.51963,0,0,0.582143,50.6048,264.742)"
       xlink:href="#aa1"
       gradientUnits="userSpaceOnUse" />
    <radialGradient
       id="aa16-0"
       r="11.74"
       fx="34.0391"
       fy="36.9385"
       cx="34"
       cy="36.9"
       gradientTransform="matrix(2.1458,0.074468,-0.017776,0.512206,-229.107,186.347)"
       xlink:href="#aa4"
       gradientUnits="userSpaceOnUse" />
    <radialGradient
       id="aa17-5"
       r="25.0311"
       fx="23.5473"
       fy="5.08626"
       cx="23.5"
       cy="5.1"
       gradientTransform="matrix(0.33527,-0.785022,1.17378,0.501304,-107.861,228.883)"
       xlink:href="#aa6"
       gradientUnits="userSpaceOnUse" />
    <radialGradient
       id="aa18-1"
       r="25.0311"
       fx="45.3422"
       fy="40.5604"
       cx="45.3"
       cy="40.6"
       gradientTransform="matrix(0.944861,-2.03085,0.771566,0.358975,-115.839,275.1)"
       xlink:href="#aa7"
       gradientUnits="userSpaceOnUse" />
    <radialGradient
       id="aa19-4"
       r="4.37914"
       fx="25.1313"
       fy="44.4324"
       cx="25.1"
       cy="44.4"
       gradientTransform="matrix(3.78861,0.115604,-0.561253,4.62044,-221.984,7.05928)"
       xlink:href="#aa8"
       gradientUnits="userSpaceOnUse" />
    <radialGradient
       id="aa20-5"
       r="3.77508"
       fx="31.4697"
       fy="4.39236"
       cx="31.5"
       cy="4.4"
       gradientTransform="matrix(1.50806,0,0,0.577711,-17.7317,230.744)"
       xlink:href="#aa1"
       gradientUnits="userSpaceOnUse" />
    <radialGradient
       id="aa21-9"
       r="3.77508"
       fx="31.4697"
       fy="4.39236"
       cx="31.5"
       cy="4.4"
       gradientTransform="matrix(1.5659,0,0,0.599871,-44.4281,226.837)"
       xlink:href="#aa1"
       gradientUnits="userSpaceOnUse" />
    <radialGradient
       inkscape:collect="always"
       xlink:href="#linearGradient255678"
       id="radialGradient255680"
       cx="573.335"
       cy="219.087"
       fx="573.335"
       fy="219.087"
       r="13.5661"
       gradientTransform="matrix(1.68069,-3.12625e-5,2.24697e-5,1.20846,-921.263,-187.551)"
       gradientUnits="userSpaceOnUse" />
    <linearGradient
       inkscape:collect="always"
       id="linearGradient255678">
      <stop
         style="stop-color:#ac7741;stop-opacity:1"
         offset="0"
         id="stop255674" />
      <stop
         style="stop-color:#ac7741;stop-opacity:1"
         offset="0.725474"
         id="stop256130" />
      <stop
         style="stop-color:#71573f;stop-opacity:1"
         offset="1"
         id="stop255676" />
    </linearGradient>
    <radialGradient
       inkscape:collect="always"
       xlink:href="#linearGradient136046"
       id="radialGradient170937"
       cx="573.775"
       cy="173.098"
       fx="573.775"
       fy="173.098"
       r="20.0035"
       gradientTransform="matrix(1.98174,0.016368,-0.011982,1.45127,-1091.93,-201.758)"
       gradientUnits="userSpaceOnUse" />
    <linearGradient
       inkscape:collect="always"
       id="linearGradient136046">
      <stop
         style="stop-color:#654830;stop-opacity:1"
         offset="0"
         id="stop136042" />
      <stop
         style="stop-color:#71573f;stop-opacity:1"
         offset="0.589398"
         id="stop147183" />
      <stop
         style="stop-color:#b27c42;stop-opacity:1"
         offset="1"
         id="stop136044" />
    </linearGradient>
    <linearGradient
       inkscape:collect="always"
       xlink:href="#linearGradient48715"
       id="linearGradient231330"
       gradientUnits="userSpaceOnUse"
       gradientTransform="matrix(0.868889,0,0,0.861721,-96.7221,-6.15511)"
       x1="173.704"
       y1="85.3856"
       x2="171.445"
       y2="77.9704" />
    <linearGradient
       inkscape:collect="always"
       id="linearGradient48715">
      <stop
         style="stop-color:#dfc9b4;stop-opacity:1"
         offset="0"
         id="stop48711" />
      <stop
         style="stop-color:#dfc9b4;stop-opacity:0"
         offset="1"
         id="stop48713" />
    </linearGradient>
    <linearGradient
       inkscape:collect="always"
       xlink:href="#linearGradient241621"
       id="linearGradient241623"
       x1="614.675"
       y1="230.391"
       x2="605.986"
       y2="204.022"
       gradientUnits="userSpaceOnUse"
       gradientTransform="matrix(1.68072,0,0,1.68105,-921.277,-291.49)" />
    <linearGradient
       inkscape:collect="always"
       id="linearGradient241621">
      <stop
         style="stop-color:#71573f;stop-opacity:1"
         offset="0"
         id="stop241617" />
      <stop
         style="stop-color:#71573f;stop-opacity:1"
         offset="0.65665"
         id="stop242393" />
      <stop
         style="stop-color:#ae7841;stop-opacity:1"
         offset="1"
         id="stop241619" />
    </linearGradient>
    <radialGradient
       inkscape:collect="always"
       xlink:href="#linearGradient53814"
       id="radialGradient42856"
       gradientUnits="userSpaceOnUse"
       gradientTransform="matrix(-0.34836,-0.23102,-0.345424,0.520874,67.6804,206.994)"
       cx="24.8955"
       cy="10.2011"
       fx="24.9428"
       fy="10.1873"
       r="25.0311" />
    <radialGradient
       inkscape:collect="always"
       xlink:href="#linearGradient53231"
       id="radialGradient42858"
       gradientUnits="userSpaceOnUse"
       gradientTransform="matrix(-0.932922,-0.576793,-0.219136,0.354438,83.4641,223.759)"
       cx="45.3"
       cy="40.6"
       fx="45.3422"
       fy="40.5604"
       r="25.0311" />
    <radialGradient
       inkscape:collect="always"
       xlink:href="#aa1"
       id="radialGradient42862"
       gradientUnits="userSpaceOnUse"
       gradientTransform="matrix(0.738466,0,0,0.282893,122.102,153.421)"
       cx="31.5"
       cy="4.4"
       fx="31.4697"
       fy="4.39236"
       r="3.77508" />
    <radialGradient
       inkscape:collect="always"
       xlink:href="#aa1"
       id="radialGradient42864"
       gradientUnits="userSpaceOnUse"
       gradientTransform="matrix(0.766789,0,0,0.293745,126.301,148.97)"
       cx="31.5"
       cy="4.4"
       fx="31.4697"
       fy="4.39236"
       r="3.77508" />
    <filter
       inkscape:collect="always"
       style="color-interpolation-filters:sRGB"
       id="filter46859"
       x="-0.168247"
       y="-0.134211"
       width="1.33649"
       height="1.26842">
      <feGaussianBlur
         inkscape:collect="always"
         stdDeviation="4.79579"
         id="feGaussianBlur46861" />
    </filter>
    <radialGradient
       id="aa9-7"
       r="25.0311"
       fx="24.6341"
       fy="9.64565"
       cx="24.6"
       cy="9.6"
       gradientTransform="matrix(0.574704,-0.362,0.680255,1.07996,-102.292,245.225)"
       xlink:href="#aa3"
       gradientUnits="userSpaceOnUse" />
    <radialGradient
       id="aa10-68"
       r="25.0311"
       fx="43.962"
       fy="36.1646"
       cx="44"
       cy="36.2"
       gradientTransform="matrix(1.95545,-1.0924,0.415026,0.742919,-139.481,279.793)"
       xlink:href="#aa2"
       gradientUnits="userSpaceOnUse" />
    <radialGradient
       id="aa11-5"
       r="4.37914"
       fx="25.7678"
       fy="44.3745"
       cx="25.8"
       cy="44.4"
       gradientTransform="matrix(1.56472,0.060619,-0.09898,2.55489,-67.799,158.835)"
       xlink:href="#aa5"
       gradientUnits="userSpaceOnUse" />
    <radialGradient
       id="aa12-1"
       r="3.77508"
       fx="31.4697"
       fy="4.39236"
       cx="31.5"
       cy="4.4"
       gradientTransform="matrix(1.50806,0,0,0.577712,155.747,189.037)"
       xlink:href="#aa1"
       gradientUnits="userSpaceOnUse" />
    <radialGradient
       id="aa13-6"
       r="3.77508"
       fx="31.4697"
       fy="4.39236"
       cx="31.5"
       cy="4.4"
       gradientTransform="matrix(1.5659,0,0,0.599871,142.74,180.857)"
       xlink:href="#aa1"
       gradientUnits="userSpaceOnUse" />
    <radialGradient
       id="aa14-3"
       r="3.77508"
       fx="31.4697"
       fy="4.39236"
       cx="31.5"
       cy="4.4"
       gradientTransform="matrix(1.5659,0,0,0.599871,120.544,185.764)"
       xlink:href="#aa1"
       gradientUnits="userSpaceOnUse" />
    <radialGradient
       id="aa15-52"
       r="3.77508"
       fx="31.4697"
       fy="4.39236"
       cx="31.5"
       cy="4.4"
       gradientTransform="matrix(1.51963,0,0,0.582143,134.668,192.858)"
       xlink:href="#aa1"
       gradientUnits="userSpaceOnUse" />
    <radialGradient
       id="aa16-2"
       r="11.74"
       fx="34.0391"
       fy="36.9385"
       cx="34"
       cy="36.9"
       gradientTransform="matrix(2.1458,0.074468,-0.017776,0.512206,-125.59,225.309)"
       xlink:href="#aa4"
       gradientUnits="userSpaceOnUse" />
    <radialGradient
       id="aa17-4"
       r="25.0311"
       fx="23.5473"
       fy="5.08626"
       cx="23.5"
       cy="5.1"
       gradientTransform="matrix(0.33527,-0.785022,1.17378,0.501304,-4.34357,267.845)"
       xlink:href="#aa6"
       gradientUnits="userSpaceOnUse" />
    <radialGradient
       id="aa18-18"
       r="25.0311"
       fx="45.3422"
       fy="40.5604"
       cx="45.3"
       cy="40.6"
       gradientTransform="matrix(0.944861,-2.03085,0.771566,0.358975,-12.322,314.062)"
       xlink:href="#aa7"
       gradientUnits="userSpaceOnUse" />
    <radialGradient
       id="aa19-3"
       r="4.37914"
       fx="25.1313"
       fy="44.4324"
       cx="25.1"
       cy="44.4"
       gradientTransform="matrix(3.78861,0.115604,-0.561253,4.62044,-134.903,56.0118)"
       xlink:href="#aa8"
       gradientUnits="userSpaceOnUse" />
    <radialGradient
       id="aa20-4"
       r="3.77508"
       fx="31.4697"
       fy="4.39236"
       cx="31.5"
       cy="4.4"
       gradientTransform="matrix(1.50806,0,0,0.577711,92.507,221.731)"
       xlink:href="#aa1"
       gradientUnits="userSpaceOnUse" />
    <radialGradient
       id="aa21-6"
       r="3.77508"
       fx="31.4697"
       fy="4.39236"
       cx="31.5"
       cy="4.4"
       gradientTransform="matrix(1.5659,0,0,0.599871,65.8106,217.824)"
       xlink:href="#aa1"
       gradientUnits="userSpaceOnUse" />
    <filter
       inkscape:collect="always"
       style="color-interpolation-filters:sRGB"
       id="filter52598"
       x="-0.103832"
       y="-0.14262"
       width="1.20766"
       height="1.28524">
      <feGaussianBlur
         inkscape:collect="always"
         stdDeviation="1.33593"
         id="feGaussianBlur52600" />
    </filter>
  </defs>
  <path
     id="path46836"
     style="mix-blend-mode:normal;fill:#666666;fill-opacity:1;fill-rule:evenodd;stroke:none;stroke-width:0.848202px;stroke-linecap:butt;stroke-linejoin:miter;stroke-opacity:1;filter:url(#filter46859)"
     d="m 69.8215,58.157 c 0,0 -4.657,15.6195 -6.668,22.498 l -12.459,0.459 c 0,0 1.9699,19.319 1.1816,27.795 -0.7881,8.476 -17.7382,10.644 -17.7382,10.644 l -13.0158,10.23 20.1584,13.398 c 0,0 10.2252,3.546 17.9128,-4.93 4.0617,-4.479 15.0225,-23.55 18.5213,-35.968 7.3049,-6.8047 9.9171,-16.0094 10.8334,-18.3018 1.5765,-3.942 0.7871,-25.0352 0.7871,-25.0352 z"
     transform="matrix(1.14746,0,0,1.21133,-8.26168,-24.4126)"
     sodipodi:nodetypes="cccscccscscc" />
  <rect
     style="color:#000000;overflow:visible;opacity:1;fill:#392921;fill-opacity:1;stroke:none;stroke-width:0.3;stroke-miterlimit:4;stroke-dasharray:none;stroke-opacity:1;stop-color:#000000"
     id="rect43992"
     width="41.4793"
     height="29.9975"
     x="18.3088"
     y="82.6483"
     ry="4.33002" />
  <path
     style="fill:#392921;fill-opacity:1;fill-rule:evenodd;stroke:#000000;stroke-width:1px;stroke-linecap:butt;stroke-linejoin:miter;stroke-opacity:1"
     d="m 80.2328,61.0155 c 0,0 0.7883,21.092 -0.7882,25.034 -1.5765,3.944 -24.6377,24.2485 -27.7907,27.5985 -3.153,3.352 0.9849,-25.8235 1.3799,-27.4005 0.3949,-1.577 7.6859,-26.021 7.6859,-26.021 z"
     id="path111487" />
  <path
     style="fill:#71573f;fill-opacity:1;fill-rule:evenodd;stroke:#000000;stroke-width:1px;stroke-linecap:butt;stroke-linejoin:miter;stroke-opacity:1"
     d="M 50.7617,110.39 C 53.9624,108.739 56.5654,97.1526 48.6933,91.307 41.8586,86.2323 30.927,73.2342 30.927,73.2342 L 63.3132,59.6251 c 0,0 9.3844,29.2805 9.9774,40.7099 0.5909,11.427 -10.2847,22.252 -10.2847,22.252 -6.66,3.925 -15.2406,-5.447 -12.2442,-12.197 z"
     id="path109227"
     sodipodi:nodetypes="csccscc" />
  <g
     id="g54785"
     transform="matrix(1.10761,0,0,1.10742,-6.39379,-99.3092)"
     style="stroke-width:0.23476px">
    <path
       style="fill:#ffffff;stroke-width:0.367612px"
       d="m 51.0393,186.903 c -2.3105,-1.141 -5.2956,-3.309 -11.3172,-2.837 -6.1277,0.45 -14.8521,7.838 -16.7896,14.801 -1.9377,6.963 4.0987,14.191 6.36,16.374 2.2619,2.185 9.0483,8.459 15.3463,7.988 6.2984,-0.469 13.945,-12.288 15.3358,-16.872 2.8616,-8.49 -1.1128,-15.512 -9.0832,-19.539 z"
       id="path42826" />
    <path
       style="fill:url(#radialGradient42856);stroke-width:0.367612px"
       d="m 51.0393,186.903 c -2.3105,-1.141 -5.2956,-3.309 -11.3172,-2.837 -6.1277,0.45 -14.8521,7.838 -16.7896,14.801 -1.9377,6.963 4.0987,14.191 6.36,16.374 2.2619,2.185 9.0483,8.459 15.3463,7.988 6.2984,-0.469 13.945,-12.288 15.3358,-16.872 2.8616,-8.49 -1.1128,-15.512 -9.0832,-19.539 z"
       id="path42828" />
    <path
       style="fill:#ffffff;stroke-width:0.367612px"
       d="m 55.8164,204.87 c 9.4553,11.311 4.7488,5.687 0,0 z"
       id="path42838" />
    <ellipse
       cx="145.451"
       cy="155.211"
       rx="2.76044"
       ry="1.0735"
       transform="matrix(-0.520679,0.853752,0.853752,0.520679,0,0)"
       style="fill:url(#radialGradient42862);stroke-width:2.00773"
       id="ellipse42842" />
    <ellipse
       cx="150.531"
       cy="150.755"
       rx="2.9138"
       ry="1.0735"
       transform="matrix(-0.520679,0.853752,0.853752,0.520679,0,0)"
       style="fill:url(#radialGradient42864);stroke-width:2.07843"
       id="ellipse42844" />
    <path
       style="fill:#ffffff;fill-opacity:0.75;stroke-width:0.41003px"
       d="m 54.9526,190.204 c 0,0 -8.1575,11.879 -11.8758,14.597 -3.6114,2.743 -5.7853,0.134 -5.7853,0.134 0,0 2.5863,4.633 6.7489,2.17 4.0989,-2.419 11.2298,-13.347 12.0244,-14.512 0.8582,-1.207 -1.1122,-2.389 -1.1122,-2.389 z"
       id="path42852" />
    <path
       style="mix-blend-mode:normal;fill:#c0e9ff;fill-opacity:1;fill-rule:evenodd;stroke:none;stroke-width:0.902924px;stroke-linecap:butt;stroke-linejoin:miter;stroke-opacity:1;filter:url(#filter52598)"
       d="m 24.9892,197.493 17.8123,9.857 c 0,0 13.489,-15.651 13.0567,-15.91 -0.4324,-0.259 -14.4402,-6.571 -14.4402,-6.571 z"
       id="path52480" />
    <path
       style="fill:url(#radialGradient42858);stroke-width:0.367612px"
       d="m 51.1258,186.903 c -2.3105,-1.141 -5.2956,-3.309 -11.3172,-2.837 -6.1277,0.45 -14.8521,7.838 -16.7896,14.801 -1.9377,6.963 4.0987,14.191 6.36,16.374 2.2619,2.185 9.0483,8.459 15.3463,7.988 6.2984,-0.469 13.945,-12.288 15.3358,-16.872 2.8616,-8.49 -1.1128,-15.512 -9.0832,-19.539 z"
       id="path42830" />
    <ellipse
       cx="-166.969"
       cy="120.967"
       rx="3.06716"
       ry="1.0735"
       transform="matrix(-0.681991,-0.73136,-0.717285,0.69678,0,0)"
       style="fill:#000000;stroke-width:2.13498"
       id="ellipse42846" />
    <ellipse
       cx="-175.481"
       cy="121.426"
       rx="2.99048"
       ry="1.0735"
       transform="matrix(-0.681991,-0.73136,-0.717285,0.69678,0,0)"
       style="fill:#000000;stroke-width:2.07842"
       id="ellipse42848" />
    <ellipse
       cx="-183.379"
       cy="122.04"
       rx="2.99048"
       ry="1.0735"
       transform="matrix(-0.681991,-0.73136,-0.717285,0.69678,0,0)"
       style="fill:#000000;stroke-width:2.07842"
       id="ellipse42850" />
  </g>
  <path
     style="fill:#71573f;fill-opacity:1;fill-rule:evenodd;stroke:#000000;stroke-width:1px;stroke-linecap:butt;stroke-linejoin:miter;stroke-opacity:1"
     d="m 23.3203,48.0945 c -12.1852,-2.893 -15.56849,16.415 -18.05429,31.812 -0.7244,4.485 0.9984,16.427 11.03729,39.0325 4.2707,9.613 11.2944,19.55 24.0444,20.108 11.6961,0.511 12.6832,-12.32 6.701,-19.713 -6.6482,-8.216 -19.3009,-19.8246 -19.9047,-33.7105 -0.2259,-5.1965 0.168,-10.501 -0.9866,-15.574 -2.1009,-9.258 4.8909,-20.119 -2.8371,-21.955 z"
     id="path106286"
     sodipodi:nodetypes="ssssssss" />
  <path
     style="fill:#ad7841;fill-opacity:1;fill-rule:evenodd;stroke:#000000;stroke-width:1px;stroke-linecap:butt;stroke-linejoin:miter;stroke-opacity:1"
     d="m 103.568,18.4225 c 7.75,-4.818 24.599,-0.346 29.274,3.659 5.196,4.454 9.781,10.171 8.369,20.065 -1.115,7.807 -9.569,12.861 -14.698,12.274 -5.131,-0.585 -7.267,-2.337 -7.202,-3.172 0.07,-0.834 11.582,-4.571 11.219,-11.874 -0.471,-9.511 -10.925,-14.416 -15.426,-14.477"
     id="path172383"
     sodipodi:nodetypes="csszzsc" />
  <path
     style="fill:url(#radialGradient255680);fill-opacity:1;fill-rule:evenodd;stroke:none;stroke-width:0.999997px;stroke-linecap:butt;stroke-linejoin:miter;stroke-opacity:1"
     d="m 16.8462,61.7715 3.7144,17.742 c 0,0 6.2069,14.095 19.8325,14.983 13.6272,0.888 20.6543,-7.886 20.6543,-7.886 0,0 1.6522,-17.348 1.2404,-18.925 -0.4135,-1.577 -47.924,-5.519 -45.4416,-5.914 z"
     id="path227519"
     sodipodi:nodetypes="cczcsc" />
  <path
     style="fill:#9a683b;fill-opacity:1;fill-rule:evenodd;stroke:#000000;stroke-width:1px;stroke-linecap:butt;stroke-linejoin:miter;stroke-opacity:1"
     d="m 40.9729,21.5815 c 0,0 -8.6406,-2.51 -14.0054,-4.391 -4.6506,-1.631 -11.1499,-5.437 -17.48959,-0.559 -6.3414,4.881 -11.7785,24.465 -7.3884,26.833 5.1581,2.761 9.53129,-14.376 15.05249,-11.637 3.4135,2.02 11.8457,7.944 11.8457,7.944"
     id="path208240"
     sodipodi:nodetypes="cszccc" />
  <path
     style="fill:#ae7841;fill-opacity:1;fill-rule:evenodd;stroke:#000000;stroke-width:1px;stroke-linecap:butt;stroke-linejoin:miter;stroke-opacity:1"
     d="M 35.6081,18.3715 C 39.2317,16.6995 61.9466,-0.306509 75.1873,0.530491 88.4282,1.36649 117.713,13.2685 120.064,23.3915 c 2.202,9.486 -2.928,28.574 -8.224,32.478 -5.296,3.903 -28.1518,6.69 -32.8895,9.757 -4.738,3.068 -21.3233,13.522 -21.3233,13.522"
     id="path185790"
     sodipodi:nodetypes="czsssc" />
  <path
     style="fill:#9c693c;fill-opacity:1;fill-rule:evenodd;stroke:#000000;stroke-width:1px;stroke-linecap:butt;stroke-linejoin:miter;stroke-opacity:1"
     d="m 58.1146,21.7915 c 0.067,-0.419 13.7281,-8.434 15.8172,-10.524 2.0908,-2.09101 10.3134,-8.50201 14.2864,-7.31901 3.971,1.185 -1.395,10.10601 -1.812,14.77601 -0.419,4.67 1.324,13.8 -1.951,17.424 -3.2761,3.625 -14.7739,8.224 -14.7739,8.224"
     id="path213116"
     sodipodi:nodetypes="cssssc" />
  <path
     style="fill:url(#radialGradient170937);fill-opacity:1;fill-rule:evenodd;stroke:#000000;stroke-width:1px;stroke-linecap:butt;stroke-linejoin:miter;stroke-opacity:1"
     d="m 34.4248,19.8375 c 3.3514,-0.987 24.2427,-3.745 30.1555,2.169 5.9128,5.914 12.6138,22.669 11.0373,30.751 -1.5765,8.083 -0.034,11.675 -14.792,26.603 -4.6254,4.682 -32.5455,1.962 -37.4481,-4.731 -3.0136,-4.113 -12.2424,-12.32 -10.7667,-23.928 1.8639,-16.903 17.0593,-28.576 21.814,-30.864 z"
     id="path131126"
     sodipodi:nodetypes="csssscc" />
  <ellipse
     style="color:#000000;font-variation-settings:normal;overflow:visible;vector-effect:none;fill:#ffffff;fill-opacity:1;stroke:#000000;stroke-width:1.00172;stroke-linecap:butt;stroke-linejoin:miter;stroke-miterlimit:4;stroke-dasharray:none;stroke-dashoffset:0;stroke-opacity:0.976744;-inkscape-stroke:none;stop-color:#000000"
     id="path226076-7"
     cx="22.9522"
     cy="50.315"
     rx="7.13317"
     ry="8.29663"
     transform="matrix(0.991752,-0.128169,0.153048,0.988219,0,0)" />
  <ellipse
     style="color:#000000;font-variation-settings:normal;overflow:visible;vector-effect:none;fill:#ffffff;fill-opacity:1;stroke:#000000;stroke-width:1.00172;stroke-linecap:butt;stroke-linejoin:miter;stroke-miterlimit:4;stroke-dasharray:none;stroke-dashoffset:0;stroke-opacity:0.976744;-inkscape-stroke:none;stop-color:#000000"
     id="ellipse226328"
     cx="-66.3615"
     cy="40.7209"
     rx="7.13317"
     ry="8.29663"
     transform="matrix(-0.991752,-0.128169,-0.153048,0.988219,0,0)" />
  <ellipse
     style="color:#000000;font-variation-settings:normal;overflow:visible;vector-effect:none;fill:#000000;fill-opacity:1;stroke:none;stroke-width:1.00157;stroke-linecap:butt;stroke-linejoin:miter;stroke-miterlimit:4;stroke-dasharray:none;stroke-dashoffset:0;stroke-opacity:0.976744;-inkscape-stroke:none;stop-color:#000000"
     id="ellipse226695"
     cx="29.9491"
     cy="44.8665"
     rx="5.42004"
     ry="5.71681" />
  <ellipse
     style="color:#000000;font-variation-settings:normal;overflow:visible;vector-effect:none;fill:#000000;fill-opacity:1;stroke:none;stroke-width:1.00157;stroke-linecap:butt;stroke-linejoin:miter;stroke-miterlimit:4;stroke-dasharray:none;stroke-dashoffset:0;stroke-opacity:0.976744;-inkscape-stroke:none;stop-color:#000000"
     id="path226589-0"
     cx="59.2171"
     cy="45.8515"
     rx="5.42004"
     ry="5.71681" />
  <ellipse
     style="color:#000000;font-variation-settings:normal;overflow:visible;vector-effect:none;fill:#ffffff;fill-opacity:1;stroke:none;stroke-width:1.00157;stroke-linecap:butt;stroke-linejoin:miter;stroke-miterlimit:4;stroke-dasharray:none;stroke-dashoffset:0;stroke-opacity:0.976744;-inkscape-stroke:none;stop-color:#000000"
     id="path226767-9"
     cx="27.8784"
     cy="43.6835"
     rx="1.67529"
     ry="1.67562" />
  <ellipse
     style="color:#000000;font-variation-settings:normal;overflow:visible;vector-effect:none;fill:#ffffff;fill-opacity:1;stroke:none;stroke-width:1.00157;stroke-linecap:butt;stroke-linejoin:miter;stroke-miterlimit:4;stroke-dasharray:none;stroke-dashoffset:0;stroke-opacity:0.976744;-inkscape-stroke:none;stop-color:#000000"
     id="path226767-2"
     cx="57.9364"
     cy="44.8655"
     rx="1.67529"
     ry="1.67562" />
  <path
     style="fill:none;fill-rule:evenodd;stroke:#000000;stroke-width:1px;stroke-linecap:butt;stroke-linejoin:miter;stroke-opacity:1"
     d="m 26.9809,63.6945 3.0203,-0.872 c 0.034,0.117 2.5143,10.817 6.5699,12.184 6.7632,2.278 11.1432,0.311 10.7717,-2.021 1.3866,1.991 4.3413,5.682 10.5802,1.9 2.8101,-2.105 0.8908,-7.091 0.034,-11.314 l 1.2185,1.745"
     id="path230628"
     sodipodi:nodetypes="ccscccc" />
  <path
     style="fill:#b49579;fill-opacity:1;fill-rule:evenodd;stroke:#000000;stroke-width:1px;stroke-linecap:butt;stroke-linejoin:miter;stroke-opacity:1"
     d="m 41.8452,76.0995 c 0,0 2.4623,8.818 7.938,8.6 5.4775,-0.22 4.1968,-8.257 4.1968,-8.257 -3.4791,0.618 -4.9867,-0.377 -6.4691,-1.394 -1.6219,1.152 -3.6942,0.95 -5.6657,1.051 z"
     id="path231185-4"
     sodipodi:nodetypes="csccc" />
  <ellipse
     style="color:#000000;overflow:visible;fill:#1b1511;fill-opacity:1;stroke:#000000;stroke-width:0.645956;stroke-miterlimit:4;stroke-dasharray:none;stroke-opacity:1;stop-color:#000000"
     id="ellipse231187-0"
     cx="51.9528"
     cy="64.9455"
     rx="6.36732"
     ry="5.0314"
     transform="matrix(0.996017,0.089163,-0.072462,0.997371,0,0)" />
  <ellipse
     style="color:#000000;overflow:visible;fill:url(#linearGradient231330);fill-opacity:1;stroke:#000000;stroke-width:0.64492;stroke-miterlimit:4;stroke-dasharray:none;stroke-opacity:1;stop-color:#000000"
     id="ellipse231189-8"
     cx="51.8449"
     cy="63.3759"
     rx="4.91015"
     ry="2.59501"
     transform="matrix(0.9962,0.087099,-0.074595,0.997214,0,0)" />
  <ellipse
     style="color:#000000;overflow:visible;fill:#29221b;fill-opacity:1;stroke:none;stroke-width:0.646394;stroke-miterlimit:4;stroke-dasharray:none;stroke-opacity:1;stop-color:#000000"
     id="ellipse231191-6"
     cx="50.1147"
     cy="62.0394"
     rx="3.71278"
     ry="2.12205"
     transform="matrix(0.994329,0.106352,-0.051658,0.998665,0,0)" />
  <path
     style="fill:url(#linearGradient241623);fill-opacity:1;fill-rule:evenodd;stroke:#000000;stroke-width:1px;stroke-linecap:butt;stroke-linejoin:miter;stroke-opacity:1"
     d="m 118.025,41.6515 c 0,0 -6.504,13.798 -3.941,21.683 2.561,7.886 9.263,8.478 9.461,11.237 0.196,2.76 -5.716,27.5985 -11.827,30.7525 -6.11,3.153 -17.3438,2.76 -20.1028,0.985 -2.759,-1.774 -8.671,-5.914 -6.307,-12.0245 2.365,-6.11 9.658,-1.773 13.206,-4.929 3.5458,-3.153 6.6658,-9.2 6.7008,-13.798 0.03,-5.145 -21.2798,-12.127 -24.8342,-19.32"
     id="path113552"
     sodipodi:nodetypes="csssssssc" />
  <path
     style="fill:none;fill-rule:evenodd;stroke:#000000;stroke-width:1px;stroke-linecap:butt;stroke-linejoin:miter;stroke-opacity:1"
     d="m 49.8219,132.683 c -5.6707,0.08 -8.5448,-3.414 -11.7062,-6.55"
     id="path255480"
     sodipodi:nodetypes="cc" />
  <path
     style="fill:none;fill-rule:evenodd;stroke:#000000;stroke-width:1px;stroke-linecap:butt;stroke-linejoin:miter;stroke-opacity:1"
     d="m 42.0183,138.956 c 0,0 -7.8052,-3.345 -8.3632,-6.69"
     id="path255482" />
  <path
     style="fill:none;fill-rule:evenodd;stroke:#000000;stroke-width:1px;stroke-linecap:butt;stroke-linejoin:miter;stroke-opacity:1"
     d="m 89.1242,104.387 c -1.116,-2.23 4.459,-10.5935 2.228,-10.5935"
     id="path255484" />
  <path
     style="fill:none;fill-rule:evenodd;stroke:#000000;stroke-width:1px;stroke-linecap:butt;stroke-linejoin:miter;stroke-opacity:1"
     d="m 102.502,106.897 c 0,0 0.558,-7.8045 -1.672,-8.3625"
     id="path255486" />
</svg>
