<?xml version="1.0" encoding="UTF-8" standalone="no"?>
<!-- Copyright 2017 mathsisfun.com -->
<svg xmlns="http://www.w3.org/2000/svg" width="314.7" height="229.7" version="1.1">
<defs>
<marker id="id2" style="overflow:visible;" orient="auto">
<path transform="matrix(-0.4,0,0,-0.4,-4,0)" style="fill:#009100; stroke:#009100; stroke-width:1pt;" d="M 0,0 5,-5 -12.5,0 5,5 Z"/>
</marker>
<marker id="id3" style="overflow:visible;" orient="auto">
<path transform="matrix(-0.4,0,0,-0.4,-4,0)" style="fill:#0084c8; stroke:#0084c8; stroke-width:1pt;" d="M 0,0 5,-5 -12.5,0 5,5 Z"/>
</marker>
<marker id="id1" style="overflow:visible;" orient="auto">
<path transform="matrix(-0.4,0,0,-0.4,-4,0)" style="fill:black; stroke:black; stroke-width:1pt;" d="M 0,0 5,-5 -12.5,0 5,5 Z"/>
</marker>
</defs>
<g transform="translate(-1329,-817.504)">
<g transform="matrix(0.24,0,0,0.24,1220.83,816.09)">
<ellipse cx="1367" cy="447.3" rx="392.1" ry="387.3" style="color:black; overflow:visible; fill:#fffdf1; stroke:black; stroke-width:6;"/>
</g>
<rect x="1329" y="882.8" width="70.5" height="10.4" style="color:black; overflow:visible; fill:#fed290; stroke-width:0.67;"/>
<path style="color:black; overflow:visible; fill:#fed290; stroke-width:0.96;" d="m 1329.4,923.1 70.1,-40.6 0.1,12.5 -70.2,40.7"/>
<g transform="matrix(-0.24,0,0,0.24,1556.68,816.828)">
<path style="fill:#19aeff; stroke-width:0.44px;" d="m 671.6,262.5 c -1.4,0.7 -4.5,0.9 -7.5,0.9 -3,0 -5.2,2 -7.5,3.7 -1.1,0.8 -4.3,1.2 -5.6,1.9 -2,1 -2.8,1.6 -2.8,4.2 0,3.2 1.4,3.3 4.2,4.7 2.9,1.4 6.9,0.9 10.3,0.9 3.7,0 4.7,-1.4 7.5,-2.8 2.1,-1.1 2.8,-1.4 6.1,-1.4 1.2,0 2.1,2.3 4.7,2.3 2.6,0 5.3,0 7.9,0 3.1,0 2.6,-1.5 3.3,-4.2 0.5,-2 0,-4.9 0,-7 0,-0.4 -3.9,-3 -4.2,-3.3 -1.1,-1.1 -3.4,-1.4 -5.6,-1.4 -2.2,0 -5,0.1 -6.5,0.5 -1.9,0.5 -1.7,-0.1 -4.2,0.9 z"/>
<path style="fill:#19aeff; stroke-width:0.44px;" d="m 721.4,262.7 c 1.4,0.9 4.4,1.5 7.5,1.9 3,0.4 5,2.7 7.1,4.6 1.1,1 4.2,1.8 5.5,2.6 1.9,1.3 2.7,1.9 2.3,4.5 -0.4,3.1 -1.8,3.1 -4.8,4.1 -3.1,1.1 -9.2,-0.2 -12.5,-0.6 -3.8,-0.5 -4.6,-2 -7.3,-3.7 -2,-1.3 -2.7,-1.7 -6,-2.1 -1.2,-0.2 -0.4,2.3 -3,2 -2.7,-0.3 -5.4,-0.7 -8.1,-1 -3.2,-0.4 -2.5,-1.8 -2.8,-4.6 -0.3,-2.1 0.6,-4.9 0.9,-6.9 0,-0.4 4.3,-2.5 4.7,-2.7 1.3,-1 3.6,-1 5.9,-0.7 2.3,0.3 5.1,0.7 6.6,1.3 1.9,0.7 1.8,0.2 4.2,1.5 z"/>
<path style="fill:#19aeff;" d="m 660.2,128 c 5,0.5 8.6,6.5 8.1,11.1 0,3.7 -0.4,12.2 -5.6,10.9 0.2,-1.8 3.7,-6.4 1.7,-7 -0.1,2.4 -2.3,9.3 -5.4,6.3 2,-1.6 2.6,-9.3 1.3,-3.4 0.3,3.2 -6.5,6.6 -3.9,1.8 2,-1.3 0.9,-8.4 0.7,-3.8 0.6,2.7 -4.2,8.9 -4.8,4.9 4.1,-6 -0.6,-14 3.9,-19.7 1,-1 2.6,-1.2 4,-1 z"/>
<path style="fill:#19aeff;" d="m 666.4,133.7 c -2.2,15.9 -2.2,22.4 -2.7,42.8 -1.9,18 1.1,36.3 -2.7,54.3 1.6,8.1 0.9,14.6 0.9,35.6 10.8,-4.7 36.4,4.2 29.9,-8.9 -1.9,-10.8 -4.6,-28.4 -2.2,-39.6 3.9,-19.2 -0.6,-33.1 3.5,-52.2 2,15.3 2.8,24.9 2.1,40.3 -1,15.1 4.3,44.8 4.3,59.8 7.9,-3.3 31.5,6.9 28.4,-5.8 0.8,-18.4 -6.3,-51.4 -4.6,-69.8 0.6,-13 -0.8,-26 0,-38.8 0,-8.3 0.1,-8.6 -0.6,-17.3 -18.3,0 -37.8,-0.4 -56.2,-0.4 z"/>
<path style="fill:#19aeff;" d="m 693.9,7.6 c -7,0 -11.9,2.2 -13.7,12 -0.5,2.6 -4.8,4.5 -5.5,7.3 -0.5,1.9 4.6,1.3 3.5,2.8 -0.5,0.6 -1.1,2.9 -1.3,3.5 -0.1,0.4 1.3,0.8 1.2,1.3 -0.2,0.7 -1.6,0.2 -1.6,0.8 0,1.1 -0.4,3.3 -0.5,4 -0.2,3.1 3,3.5 6.9,5 1,0.4 1.2,3.1 2,4.8 0.3,3.9 -1.7,3.5 -5.7,7.1 9.6,6.9 19.4,6.9 27,-0.4 -4.2,-5.3 -4.6,-4.2 -6,-8.2 0.8,-10.8 5.3,-11 7.5,-16.1 4.7,-10.9 0.5,-23.3 -11,-23.6 -1,0 -2,-0.2 -3,-0.2 z"/>
<path style="fill:#19aeff;" d="m 735.7,149.3 c -5,0.5 -8.6,6.5 -8.1,11.1 0,3.7 0.4,12.2 5.6,10.9 -0.2,-1.8 -3.7,-6.4 -1.7,-7 0.1,2.4 2.3,9.3 5.4,6.3 -2,-1.6 -2.6,-9.3 -1.3,-3.4 -0.3,3.1 6.5,6.5 3.9,1.7 -2,-1.3 -0.9,-8.4 -0.7,-3.8 -0.6,2.7 4.2,8.9 4.8,4.8 -4.1,-5.9 0.6,-14 -3.9,-19.7 -1,-1 -2.6,-1.2 -4,-1 z"/>
<path style="fill:#19aeff;" d="m 682.6,52.5 c -10.4,4.3 -15.3,6.4 -21.7,9 l 0.1,1.6 -0.4,-0.3 c -1.4,1.3 -2.7,2.8 -4.1,4.3 l -1.7,2 c -3.7,3.8 -5.1,6 -8.8,11.4 -3.4,5 -9.2,13.1 -10,18.5 -0.6,9.7 11.2,24.1 18,38.1 l 12.3,-6.2 c -2.4,-8.3 -4.7,-6.7 -9.1,-13.7 -5.1,-7.9 -3.9,-10.9 -6.8,-18.8 2.4,-5.3 12.4,-12.9 15.3,-16.5 l 0.3,9 c 0.2,12.1 1.2,28.1 0.4,43.1 l 56.8,0.4 c -2.2,-16.4 -2.3,-22.8 -2.4,-31 l 1.2,-13.6 1.3,-8.5 c 3.4,5.1 6.4,10.4 9.4,15.7 3,5.4 5.5,9.3 8.3,13.8 -1.6,9.6 -4.2,18.9 -7,28 -2.6,8.3 -1.7,3.9 -4.2,12.2 l 12.3,6.3 c 9,-21.7 12.2,-29.9 13.6,-44.4 l 0.5,-2.1 c -0.5,-1.1 0.3,-0.8 -0.2,-1.9 l -1.7,-3.6 C 744.1,84 734,68.3 723.9,58.3 l -2.1,1.3 -0.1,-1.2 -16.7,-5.3 c -1.9,1.6 -4.1,1.5 -5.8,2.3 -3.6,1.7 -7.3,2.6 -16.4,-3 z"/>
<path style="fill:#19aeff;" d="m 700.8,4 c -7.1,0.1 -14.7,-5.4 -16.5,6.5 -0.5,3.2 8.6,1.2 7.9,4.6 -0.5,2.3 2,6.3 0.9,8.2 -3.7,6.2 -1.1,7.4 2.3,5.4 2.1,-1.3 2.5,-9.2 7.9,-5.7 4.2,2.7 -0.5,8 -2.2,8.8 0.3,4.7 2.2,2.5 -1.9,6.8 1.5,-0.4 -0.9,9.3 6.8,0.5 2.5,-5.6 -0.8,-0.7 2.5,-7 3.5,-11.3 8.5,-15.3 1,-21.8 C 708.7,9.6 701.9,4 700.9,4 Z"/>
<rect x="665.9" y="135.1" width="57.6" height="4.2" style="fill:#19aeff;"/>
<path style="fill:#19aeff;" d="m 667.6,134.5 v 5.9 h 2.3 v -5.9 z m 10.8,0.1 v 5.9 h 2.3 v -5.9 z m 22,0 v 5.9 h 2.3 v -5.9 z m 13.1,0 v 5.9 h 2.3 v -5.9 z"/>
<path style="fill:#19aeff;" d="m 689.1,134.5 c -0.7,0 -1.2,0.5 -1.2,1.1 v 3.3 c 0,0.6 0.5,1.1 1.2,1.1 h 6.7 c 0.7,0 1.2,-0.5 1.2,-1.1 v -3.3 c 0,-0.6 -0.5,-1.1 -1.2,-1.1 z m 0.5,0.7 h 5.7 c 0.5,0 0.9,0.4 0.9,0.8 v 2.4 c 0,0.5 -0.4,0.8 -0.9,0.8 h -5.7 c -0.5,0 -0.9,-0.4 -0.9,-0.8 V 136 c 0,-0.4 0.4,-0.8 0.9,-0.8 z"/>
<path style="fill:#19aeff; stroke-width:0.22;" d="m 681.9,50.8 3,-0.7 -0.1,2.1 2.4,2.4 1.2,2.2 -4.6,-0.1 -3.5,4.7 c 0.5,-3.7 0.7,-9 1.6,-10.5 z"/>
<path style="fill:#19aeff; stroke-width:0.18;" d="m 699.5,125.5 -6.7,7.6 -7.2,-7.6 4,-66 5.7,0.1 z"/>
<path style="fill:#19aeff; stroke-width:0.22;" d="m 704.3,50.8 -3.1,-0.7 0.1,2.1 -2.5,2.3 -1.2,2.2 4.6,-0.1 3.6,4.7 c -0.5,-3.7 -0.8,-9 -1.6,-10.5 z"/>
<path style="fill:#19aeff; stroke-width:0.34;" d="m 687.1,55.1 h 10.7 l -2.2,6.1 -6,-0.3 z"/>
</g>
<path style="marker-end:url(#id1); fill:black; stroke:black; stroke-width:1.8;" d="m 1566.7,875.7 v 44.1"/>
<path style="marker-end:url(#id2); fill:#009100; stroke:#009100; stroke-width:1.8;" d="m 1561.1,927.9 h -77"/>
<path style="marker-end:url(#id3); fill:#0084c8; stroke:#0084c8; stroke-width:1.8;" d="m 1482.9,976.7 76.9,-44.4"/>
<ellipse cx="1387.6" cy="890.1" rx="20.5" ry="20.3" style="color:black; overflow:visible; fill:none; stroke:black; stroke-width:0.79;"/>
<ellipse cx="1566.4" cy="927.5" rx="5.3" ry="5.2" style="color:black; overflow:visible; fill:black; stroke:black; stroke-width:0.24px;"/>
<text x="1543.8" y="872.7" transform="scale(1.00009,0.99991)" style="font-family:'Comic Sans MS'; font-size:15px; color:black; overflow:visible; fill:black; stroke-width:0.24px;">Weight</text>
<text x="1504.1" y="923.5" transform="scale(1.00001,0.99999)" style="font-family:'Comic Sans MS'; font-size:15px; color:black; overflow:visible; fill:#009100; stroke:#009100; stroke-width:0.24px;">Beam</text>
<text x="1514.5" y="972.5" transform="scale(1.00009,0.99991)" style="font-family:'Comic Sans MS'; font-size:15px; color:black; overflow:visible; fill:#0084c8; stroke-width:0.24px;">Strut</text>
<path style="fill:none; stroke:black; stroke-width:0.79;" d="m 1408.4,895.3 47.6,10.2"/>
<text x="1494.2" y="1039.6" transform="scale(1.0001,0.999901)" style="font-family:'Comic Sans MS'; font-size:27.3px; color:black; overflow:visible; fill:black; stroke-width:0.24px;">Free Body</text>
<path style="color:black; overflow:visible; fill:none; stroke:black; stroke-width:0.5;"/>
</g>
</svg>
