<?xml version="1.0" encoding="UTF-8" standalone="no"?>
<!-- Copyright 2017 mathsisfun.com -->

<svg
   xmlns:dc="http://purl.org/dc/elements/1.1/"
   xmlns:cc="http://creativecommons.org/ns#"
   xmlns:rdf="http://www.w3.org/1999/02/22-rdf-syntax-ns#"
   xmlns:svg="http://www.w3.org/2000/svg"
   xmlns="http://www.w3.org/2000/svg"
   xmlns:xlink="http://www.w3.org/1999/xlink"
   xmlns:sodipodi="http://sodipodi.sourceforge.net/DTD/sodipodi-0.dtd"
   xmlns:inkscape="http://www.inkscape.org/namespaces/inkscape"
   width="480.3"
   height="265.1"
   version="1.1"
   id="svg84"
   sodipodi:docname="inverse-square-law.svg"
   inkscape:version="0.92.4 (5da689c313, 2019-01-14)">
  <metadata
     id="metadata88">
    <rdf:RDF>
      <cc:Work
         rdf:about="">
        <dc:format>image/svg+xml</dc:format>
        <dc:type
           rdf:resource="http://purl.org/dc/dcmitype/StillImage" />
      </cc:Work>
    </rdf:RDF>
  </metadata>
  <sodipodi:namedview
     pagecolor="#ffffff"
     bordercolor="#666666"
     borderopacity="1"
     objecttolerance="10"
     gridtolerance="10"
     guidetolerance="10"
     inkscape:pageopacity="0"
     inkscape:pageshadow="2"
     inkscape:window-width="640"
     inkscape:window-height="480"
     id="namedview86"
     showgrid="false"
     inkscape:current-layer="svg84" />
  <defs
     id="defs14">
    <radialGradient
       id="id3"
       r="117.64"
       fx="-3600.8"
       fy="840.61"
       cx="-3600.8"
       cy="840.6"
       gradientTransform="matrix(1.1269,0,0,1.1269,4190.3,-814.698)"
       xlink:href="#id1"
       gradientUnits="userSpaceOnUse" />
    <linearGradient
       id="id1">
      <stop
         offset="0"
         style="stop-color:#fcffbb;stop-opacity:1"
         id="stop3" />
      <stop
         offset="1"
         style="stop-color:#fdffe8;stop-opacity:0"
         id="stop5" />
    </linearGradient>
    <radialGradient
       id="id4"
       r="86.873"
       fx="110.39"
       fy="368.4"
       cx="110.4"
       cy="368.4"
       gradientTransform="matrix(-0.115515,0,0,0.207673,146.236,57.358)"
       xlink:href="#id2"
       gradientUnits="userSpaceOnUse" />
    <linearGradient
       id="id2">
      <stop
         offset="0"
         style="stop-color:white;stop-opacity:1"
         id="stop9" />
      <stop
         offset="1"
         style="stop-color:#fcfc52;stop-opacity:1"
         id="stop11" />
    </linearGradient>
  </defs>
  <circle
     id="circle16"
     style="color:#000000;overflow:visible;fill:url(#id3);stroke-width:1px"
     r="132.569"
     cy="132.569"
     cx="132.569" />
  <path
     inkscape:connector-curvature="0"
     id="path18"
     d="m 133.469,122.369 c 5.4,0 9.8,4.5 9.8,10.1 0,2.8 -1.1,5.3 -2.9,7.1 -0.4,0.4 -1.2,1.5 -1.8,2.7 -0.3,0.6 -0.6,1.2 -0.9,1.7 -0.2,0.5 -0.3,1 -0.3,1.2 v 4.4 0.3 h -0.3 l -0.2,0.9 v 0.6 l -6.7,-0.6 v 0 l -0.3,-0.9 h -0.2 v -0.3 -4.3 c 0,-0.2 -0.1,-0.7 -0.3,-1.2 -0.2,-0.5 -0.5,-1.1 -0.9,-1.7 -0.7,-1.1 -1.5,-2.3 -1.8,-2.7 -1.8,-1.8 -2.9,-4.3 -2.9,-7.1 0,-5.6 4.4,-10.1 9.8,-10.1 z"
     style="overflow:visible;fill:url(#id4);stroke:#000000;stroke-width:0.77;stroke-linecap:round;stroke-linejoin:round" />
  <path
     inkscape:connector-curvature="0"
     id="path20"
     d="m 132.969,134.269 333.2,-82.2"
     style="fill:none;stroke:#c4a000;stroke-width:0.39" />
  <path
     inkscape:connector-curvature="0"
     id="path22"
     d="m 473.269,173.969 -340.6,-39.7"
     style="fill:none;stroke:#c4a000;stroke-width:0.39" />
  <text
     id="text24"
     style="color:#000000;font-size:15.7px;font-family:'Comic Sans MS';overflow:visible;fill:#000000;stroke-width:1px"
     y="204.569"
     x="216.669">1</text>
  <text
     id="text26"
     style="color:#000000;font-size:15.7px;font-family:'Comic Sans MS';overflow:visible;fill:#000000;stroke-width:1px"
     y="204.569"
     x="303.269">2</text>
  <text
     id="text28"
     style="color:#000000;font-size:15.7px;font-family:'Comic Sans MS';overflow:visible;fill:#000000;stroke-width:1px"
     y="204.569"
     x="390.369">3</text>
  <path
     inkscape:connector-curvature="0"
     id="path30"
     d="m 220.169,158.469 v 32.7"
     style="fill:none;stroke:#000000;stroke-width:0.21px" />
  <path
     inkscape:connector-curvature="0"
     id="path32"
     d="m 307.569,173.069 v 18.1"
     style="fill:none;stroke:#000000;stroke-width:0.21px" />
  <path
     inkscape:connector-curvature="0"
     id="path34"
     d="m 394.569,176.169 v 19.7"
     style="fill:none;stroke:#000000;stroke-width:0.21px" />
  <path
     inkscape:connector-curvature="0"
     id="path36"
     d="m 132.769,141.969 v 49.2"
     style="fill:none;stroke:#000000;stroke-width:0.21px" />
  <text
     id="text38"
     style="color:#000000;font-size:15.7px;font-family:'Comic Sans MS';overflow:visible;fill:#000000;stroke-width:1px"
     y="204.569"
     x="128.369">0</text>
  <path
     inkscape:connector-curvature="0"
     id="path40"
     d="m 362.569,77.469 c 21.5,5.7 43.1,11.7 62.5,27.5 3,18.5 4.3,42.2 0,83.4 -18.3,-10.5 -36.3,-20.4 -62.5,-27.5 4.1,-27.8 2.8,-55.6 0,-83.4 z"
     style="color:#000000;overflow:visible;fill:#dcd496;stroke:#ef2929;stroke-width:0.42;fill-opacity:1" />
  <path
     inkscape:connector-curvature="0"
     id="path42"
     d="m 286.069,96.069 c 14.3,3.8 28.6,7.8 41.5,18.3 2,12.3 2.8,28 0,55.4 -12.2,-7 -24.1,-13.6 -41.5,-18.3 2.7,-18.5 1.8,-37 0,-55.5 z"
     style="color:#000000;overflow:visible;fill:#fef7c1;stroke:#ef2929;stroke-width:0.42" />
  <path
     inkscape:connector-curvature="0"
     id="path44"
     d="m 209.769,115.469 c 7.1,1.9 14.2,3.8 20.6,9.1 1,6.1 1.4,13.9 0,27.5 -6,-3.5 -11.9,-6.7 -20.6,-9.1 1.3,-9.2 0.9,-18.3 0,-27.5 z"
     style="color:#000000;overflow:visible;fill:#faffec;stroke:#ef2929;stroke-width:0.42;fill-opacity:1" />
  <g
     id="g58"
     style="color:#000000;overflow:visible;fill:none;stroke:#ef2929;stroke-width:0.42"
     transform="translate(42.969,-504.331)">
    <path
       inkscape:connector-curvature="0"
       id="path46"
       d="m 321.6,610.2 c 21.5,5.6 43.1,11.7 62.5,27.5" />
    <path
       inkscape:connector-curvature="0"
       id="path48"
       d="m 361,596.8 c 3,18.5 4.3,42.2 0,83.4" />
    <path
       inkscape:connector-curvature="0"
       id="path50"
       d="M 383.6,666.1 C 365.3,655.5 347.3,645.6 321.1,638.6" />
    <path
       inkscape:connector-curvature="0"
       id="path52"
       d="m 338.6,671.2 c 4.1,-27.8 2.8,-55.6 0,-83.4" />
    <path
       inkscape:connector-curvature="0"
       id="path54"
       d="m 244.7,629.2 c 14.3,3.8 28.6,7.8 41.5,18.3" />
    <path
       inkscape:connector-curvature="0"
       id="path56"
       d="m 263.2,662.8 c 2.7,-18.5 1.8,-37 0,-55.5" />
  </g>
  <path
     inkscape:connector-curvature="0"
     id="path60"
     d="m 132.569,134.469 341.1,-34.3"
     style="fill:none;stroke:#c4a000;stroke-width:0.39" />
  <path
     inkscape:connector-curvature="0"
     id="path62"
     d="m 480.269,198.769 -347.4,-64.7"
     style="fill:none;stroke:#c4a000;stroke-width:0.39" />
  <g
     id="g68"
     transform="matrix(0.392,0,0,0.392,140.895,-60.406)">
    <text
       id="text64"
       style="color:#000000;font-size:40px;font-family:'Comic Sans MS';overflow:visible;fill:#000000;stroke-width:1px"
       y="401.4"
       x="129.7">Area = 1</text>
    <text
       id="text66"
       style="color:#000000;font-size:30px;font-family:'Comic Sans MS';overflow:visible;fill:#204a87;stroke-width:1px"
       y="433.8"
       x="120.7">Intensity = 1</text>
  </g>
  <g
     id="g74"
     transform="matrix(0.392,0,0,0.392,142.495,-59.639)">
    <text
       id="text70"
       style="color:#000000;font-size:40px;font-family:'Comic Sans MS';overflow:visible;fill:#000000;stroke-width:1px"
       y="355.2"
       x="343.3">Area = 4</text>
    <text
       id="text72"
       style="color:#000000;font-size:30px;font-family:'Comic Sans MS';overflow:visible;fill:#204a87;stroke-width:1px"
       y="387.6"
       x="316.1">Intensity = 0.25</text>
  </g>
  <g
     id="g80"
     transform="matrix(0.392,0,0,0.392,138.543,-60.406)">
    <text
       id="text76"
       style="color:#000000;font-size:40px;font-family:'Comic Sans MS';overflow:visible;fill:#000000;stroke-width:1px"
       y="315.8"
       x="574.8">Area = 9</text>
    <text
       id="text78"
       style="color:#000000;font-size:30px;font-family:'Comic Sans MS';overflow:visible;fill:#204a87;stroke-width:1px"
       y="347.2"
       x="529.3">Intensity = 0.111...</text>
  </g>
</svg>
