<?xml version="1.0" encoding="UTF-8" standalone="no"?>
<!-- Copyright 2017 mathsisfun.com -->
<svg xmlns="http://www.w3.org/2000/svg" xmlns:xlink="http://www.w3.org/1999/xlink" width="312.3" height="236.2" version="1.1">
<defs>
<linearGradient id="id3">
<stop offset="0" style="stop-color:#666666; stop-opacity:1;"/>
<stop offset="1" style="stop-color:#666666; stop-opacity:0;"/>
</linearGradient>
<marker id="id11" style="overflow:visible;" orient="auto">
<path transform="matrix(0.8,0,0,0.8,10,0)" style="fill:#3465a4; stroke:#3465a4; stroke-width:1pt;" d="M 0,0 5,-5 -12.5,0 5,5 Z"/>
</marker>
<marker id="id10" style="overflow:visible;" orient="auto">
<path transform="matrix(-0.8,0,0,-0.8,-10,0)" style="fill:#3465a4; stroke:#3465a4; stroke-width:1pt;" d="M 0,0 5,-5 -12.5,0 5,5 Z"/>
</marker>
<marker id="id9" style="overflow:visible;" orient="auto">
<path transform="matrix(0.8,0,0,0.8,10,0)" style="fill:#3465a4; stroke:#3465a4; stroke-width:1pt;" d="M 0,0 5,-5 -12.5,0 5,5 Z"/>
</marker>
<marker id="id7" style="overflow:visible;" orient="auto">
<path transform="matrix(-0.4,0,0,-0.4,-4,0)" style="fill:#a40000; stroke:#a40000; stroke-width:1pt;" d="M 0,0 5,-5 -12.5,0 5,5 Z"/>
</marker>
<marker id="id8" style="overflow:visible;" orient="auto">
<path transform="matrix(-0.4,0,0,-0.4,-4,0)" style="fill:#a40000; stroke:#a40000; stroke-width:1pt;" d="M 0,0 5,-5 -12.5,0 5,5 Z"/>
</marker>
<pattern id="id6" patternTransform="matrix(0.252173,-0.35402,-17.4512,-6.84752,292.035,780.421)" xlink:href="#id1"/>
<pattern id="id1" patternTransform="matrix(1.166,0.98506,22.553,-68.169,-43.617,-597.73)" xlink:href="#id2"/>
<pattern id="id2" height="1" width="9" patternUnits="userSpaceOnUse" patternTransform="translate(0,0) scale(10,10)">
<rect x="0" y="-0.5" width="1" height="2" style="fill:black;"/>
</pattern>
<pattern id="id5" patternTransform="matrix(0.298494,0.252173,5.77353,-17.4512,-828.641,294.255)" xlink:href="#id1"/>
<pattern patternTransform="matrix(1.166,0.98506,22.553,-68.169,-43.617,-597.73)" xlink:href="#id2"/>
<radialGradient id="id4" r="79.4048" fx="600.808" fy="699.182" cx="600.8" cy="699.2" gradientTransform="matrix(1,0,0,0.292762,-22.7349,500.04)" xlink:href="#id3" gradientUnits="userSpaceOnUse"/>
</defs>
<g transform="translate(-346.68,-537.38)">
<path style="fill:url(#id4); stroke-width:1px;" d="m 480.5,721.7 77.5,5.6 65.1,0.2 33.3,-31.6 -66.4,-13.9 -85,11.1 z"/>
<path style="fill:#cccccc; stroke:#666666; stroke-width:1px;" d="M 489.4,601.7 594.2,614.8 580.9,719.6 473.4,706 Z"/>
<path style="fill:none; stroke:#666666; stroke-width:1px;" d="m 489.4,601.7 104.8,13.1 42.4,-21.3 -92.9,-10.9 z"/>
<path style="fill:#666666; stroke:#666666; stroke-width:1px;" d="m 594.2,614.8 42.4,-21.3 -11,93.3 -44.8,32.8 z"/>
<path style="fill:#4e9a06; stroke:black; stroke-width:1px;" d="m 368.8,671.4 109.6,38.9 c 0,0 -1.1,0.2 3.6,0.9 4.7,0.6 17.7,-2.3 17.7,-2.3 l -12.6,6.2 c 0,0 -0.2,-0.6 -4.9,0.2 -4.7,0.9 -10.7,-3.6 -10.7,-3.6 L 368.6,675.1 Z"/>
<rect x="-812.6" y="405.9" ry="0" width="31.9" height="225.9" transform="rotate(-90)" style="color:black; overflow:visible; fill:url(#id5); stroke-width:0.95;"/>
<path style="fill:none; stroke:black; stroke-width:1.02;" d="m 387.9,724.3 c 83.3,-18.8 190.5,2.9 271,-5.1"/>
<path style="color:black; overflow:visible; fill:url(#id6); stroke-width:1.03;" d="m 403.9,741.7 -0.4,-19.4 c 69.8,-13.8 156,0.9 231.3,-0.8 l -4.9,20.2 z"/>
<path style="marker-end:url(#id7); fill:#a40000; stroke:#a40000; stroke-width:4.16;" d="m 370.8,624.5 v 40.7"/>
<path style="marker-end:url(#id8); fill:#a40000; stroke:#a40000; stroke-width:4.16;" d="M 496.7,537.4 V 704.6"/>
<path style="fill:none; stroke:#3465a4; stroke-width:1.04;" d="m 370.8,679.5 v 73.9"/>
<path style="fill:none; stroke:#3465a4; stroke-width:1.04;" d="m 482.4,713.6 v 39.9"/>
<path style="fill:none; stroke:#3465a4; stroke-width:1.04;" d="m 497.5,709 v 44.4"/>
<path style="marker-start:url(#id9); marker-end:url(#id10); fill:#3465a4; stroke:#3465a4; stroke-width:0.52px;" d="M 371.6,748.7 H 481.8"/>
<path style="marker-start:url(#id11); fill:#3465a4; stroke:#3465a4; stroke-width:0.52px;" d="m 498.9,748.7 h 24.2"/>
<text x="388.9" y="796.9" transform="scale(1.04088,0.960726)" style="font-family:Arial; font-size:19.5px; color:black; overflow:visible; fill:#3465a4; stroke-width:0.52px;">0.7</text>
<text x="455" y="803.2" transform="scale(1.04088,0.960726)" style="font-family:Arial; font-size:19.5px; color:black; overflow:visible; fill:#3465a4; stroke-width:0.52px;">0.07</text>
<text x="482.7" y="599" transform="scale(1.04088,0.960726)" style="font-family:Arial; font-weight:600; font-size:29.1px; color:black; overflow:visible; fill:#a40000; stroke-width:0.52px;">F</text>
<text x="331.5" y="644.1" transform="scale(1.04088,0.960726)" style="font-family:Arial; font-weight:600; font-size:20.6px; color:black; overflow:visible; fill:#a40000; stroke-width:0.52px;">500 N</text>
</g>
</svg>
