<?xml version="1.0" encoding="UTF-8" standalone="no"?>
<!-- Copyright 2017 mathsisfun.com -->
<svg xmlns="http://www.w3.org/2000/svg" width="129.2" height="129.2" version="1.1">
<defs>
</defs>
<rect x="0" y="0" width="129.2" height="129.2" style="color:black; overflow:visible; fill:white; stroke-width:0.85;"/>
<text x="20.6" y="56.2" style="font-family:Verdana; font-size:18px; color:black; overflow:visible; fill:#73d216; stroke-width:0.45px;">a</text>
<text x="17" y="70.9" style="font-family:Verdana; font-size:18px; color:black; overflow:visible; fill:#3465a4; stroke-width:0.45px;">a</text>
<path style="color:black; overflow:visible; fill:none; stroke:#f8e4ff; stroke-width:9; stroke-linecap:round;" d="M 29.5,-36.1 A 57.2,81.3 0 0 1 66.1,50 57.2,81.3 0 0 1 15.9,120.9"/>
<path style="color:black; overflow:visible; fill:none; stroke:#999999; stroke-width:1.36; stroke-linecap:round;" d="m 31.7,-39.5 a 60.3,84.5 0 0 1 38.6,89.4 60.3,84.5 0 0 1 -53,73.6"/>
<g transform="matrix(0.308371,0.327735,-0.327735,0.308371,672.97,-138.2)">
<path style="fill:none; stroke:#0084c8; stroke-width:1.9; stroke-dasharray:1.9, 1.9;" d="M -678.9,1140.2 -490,1458.8"/>
<path style="fill:none; stroke:#0084c8; stroke-width:1.9; stroke-dasharray:1.9, 1.9;" d="m -743.7,1394 318.6,-189"/>
</g>
<g transform="matrix(0.45,0,0,0.45,-249.68,-1486.46)">
<path transform="matrix(0.27015,-0.96282,0.96282,0.27015,0,0)" style="color:black; overflow:visible; fill:#73d216; stroke-width:3.36;" d="m -3141.6,1527.7 a 83.2,83.2 0 0 1 27.2,4.6 l -27.2,78.7 z"/>
<path transform="matrix(0.27015,-0.96282,0.96282,0.27015,0,0)" style="color:black; overflow:visible; fill:#3465a4; stroke-width:3.36;" d="m -3170.7,1532.9 a 83.2,83.2 0 0 1 29.1,-5.2 v 83.3 z"/>
</g>
<path style="fill:none; stroke:black; stroke-width:1.35;" d="M 66,70.4 -176.7,-99.8"/>
<path style="fill:none; stroke:black; stroke-width:1.35;" d="M 65.9,70.7 -163.7,92.3"/>
</svg>
