<?xml version="1.0" encoding="UTF-8" standalone="no"?>
<!-- Created with Inkscape (http://www.inkscape.org/) -->

<svg
   width="458.791"
   height="127.269"
   viewBox="0 0 121.389 33.6731"
   version="1.1"
   id="svg1443"
   inkscape:version="1.1 (c68e22c387, 2021-05-23)"
   sodipodi:docname="relativity-add.svg"
   xmlns:inkscape="http://www.inkscape.org/namespaces/inkscape"
   xmlns:sodipodi="http://sodipodi.sourceforge.net/DTD/sodipodi-0.dtd"
   xmlns:xlink="http://www.w3.org/1999/xlink"
   xmlns="http://www.w3.org/2000/svg"
   xmlns:svg="http://www.w3.org/2000/svg"
   xmlns:rdf="http://www.w3.org/1999/02/22-rdf-syntax-ns#"
   xmlns:cc="http://creativecommons.org/ns#"
   xmlns:dc="http://purl.org/dc/elements/1.1/">
  <defs
     id="defs1437">
    <marker
       inkscape:isstock="true"
       style="overflow:visible"
       id="marker1256"
       refX="0"
       refY="0"
       orient="auto"
       inkscape:stockid="Arrow1Mend">
      <path
         inkscape:connector-curvature="0"
         transform="matrix(-0.4,0,0,-0.4,-4,0)"
         style="fill:#656565;fill-opacity:1;fill-rule:evenodd;stroke:#656565;stroke-width:1pt;stroke-opacity:1"
         d="M 0,0 5,-5 -12.5,0 5,5 Z"
         id="path1254" />
    </marker>
    <marker
       inkscape:stockid="Arrow1Mend"
       orient="auto"
       refY="0"
       refX="0"
       id="marker3291"
       style="overflow:visible"
       inkscape:isstock="true">
      <path
         id="path3289"
         d="M 0,0 5,-5 -12.5,0 5,5 Z"
         style="fill:#edd400;fill-opacity:1;fill-rule:evenodd;stroke:#edd400;stroke-width:1pt;stroke-opacity:1"
         transform="matrix(-0.4,0,0,-0.4,-4,0)"
         inkscape:connector-curvature="0" />
    </marker>
    <marker
       inkscape:stockid="Arrow1Mend"
       orient="auto"
       refY="0"
       refX="0"
       id="Arrow1Mend"
       style="overflow:visible"
       inkscape:isstock="true"
       inkscape:collect="always">
      <path
         id="path1276"
         d="M 0,0 5,-5 -12.5,0 5,5 Z"
         style="fill:#5f00c5;fill-opacity:1;fill-rule:evenodd;stroke:#5f00c5;stroke-width:1pt;stroke-opacity:1"
         transform="matrix(-0.4,0,0,-0.4,-4,0)"
         inkscape:connector-curvature="0" />
    </marker>
    <marker
       inkscape:stockid="Dot_m"
       orient="auto"
       refY="0"
       refX="0"
       id="Dot_m"
       style="overflow:visible">
      <path
         inkscape:connector-curvature="0"
         id="path13121"
         d="m -2.5,-1 c 0,2.76 -2.24,5 -5,5 -2.76,0 -5,-2.24 -5,-5 0,-2.76 2.24,-5 5,-5 2.76,0 5,2.24 5,5 z"
         style="fill-rule:evenodd;stroke:#000000;stroke-width:1pt;marker-start:none;marker-end:none"
         transform="matrix(0.4,0,0,0.4,2.96,0.4)" />
    </marker>
    <marker
       inkscape:stockid="Arrow1Lend"
       orient="auto"
       refY="0"
       refX="0"
       id="Arrow1Lend"
       style="overflow:visible">
      <path
         inkscape:connector-curvature="0"
         id="path13183"
         d="M 0,0 5,-5 -12.5,0 5,5 Z"
         style="fill-rule:evenodd;stroke:#000000;stroke-width:1pt;marker-start:none"
         transform="matrix(-0.8,0,0,-0.8,-10,0)" />
    </marker>
    <linearGradient
       id="id11"
       gradientTransform="matrix(1,0,0,-1,0,-538)"
       xlink:href="#id4"
       x1="62.4"
       y1="-595"
       x2="62.4"
       y2="-603.2"
       gradientUnits="userSpaceOnUse" />
    <linearGradient
       id="id4"
       gradientTransform="matrix(1,0,0,-1,0,-538)"
       x1="62.4"
       y1="-595"
       x2="62.4"
       y2="-603.2"
       gradientUnits="userSpaceOnUse">
      <stop
         offset="0"
         style="stop-color:#8BA4D6"
         id="stop31" />
      <stop
         offset="1"
         style="stop-color:#1B3EA6"
         id="stop33" />
    </linearGradient>
    <linearGradient
       id="id10"
       gradientTransform="matrix(0.220421,0,0,0.248731,399.453,31.816)"
       xlink:href="#id1"
       x1="35.4"
       y1="107.5"
       x2="35.4"
       y2="108.6"
       gradientUnits="userSpaceOnUse" />
    <linearGradient
       id="id1">
      <stop
         offset="0"
         style="stop-color:#ff4141;stop-opacity:1"
         id="stop8" />
      <stop
         offset="1"
         style="stop-color:#f5ce90;stop-opacity:1"
         id="stop10" />
    </linearGradient>
    <linearGradient
       id="id9"
       gradientTransform="matrix(0.279442,0,0,0.248731,-413.629,-90.3542)"
       xlink:href="#id4"
       x1="35.4"
       y1="107.5"
       x2="35.4"
       y2="108.6"
       gradientUnits="userSpaceOnUse" />
    <linearGradient
       id="id6"
       gradientTransform="matrix(0.216115,0,0,0.216651,-387.484,127.133)"
       xlink:href="#id2"
       x1="10.4"
       y1="99"
       x2="44.4"
       y2="115.6"
       gradientUnits="userSpaceOnUse" />
    <linearGradient
       id="id2">
      <stop
         offset="0"
         style="stop-color:#c3eaff;stop-opacity:1"
         id="stop14" />
      <stop
         offset="1"
         style="stop-color:#fafafa;stop-opacity:1"
         id="stop16" />
    </linearGradient>
    <radialGradient
       id="id5"
       r="24.4976"
       fx="27.0347"
       fy="107.863"
       cx="27"
       cy="107.9"
       gradientTransform="matrix(0.216451,0,0,0.216823,-387.493,127.114)"
       xlink:href="#id3"
       gradientUnits="userSpaceOnUse" />
    <linearGradient
       id="id3"
       gradientTransform="matrix(1,0,0,-1,0,-538)"
       x1="62.4"
       y1="-595"
       x2="62.4"
       y2="-603.2"
       gradientUnits="userSpaceOnUse">
      <stop
         offset="0"
         style="stop-color:#8BA4D6"
         id="stop20" />
      <stop
         offset="0.917"
         style="stop-color:#b4c2ed;stop-opacity:1"
         id="stop22" />
      <stop
         offset="1"
         style="stop-color:#274ee1;stop-opacity:1"
         id="stop24" />
    </linearGradient>
    <filter
       inkscape:collect="always"
       id="filter3370"
       x="-0.583015"
       width="2.16631"
       y="-0.0259104"
       height="1.05591">
      <feGaussianBlur
         inkscape:collect="always"
         stdDeviation="4.4671533"
         id="feGaussianBlur3372" />
    </filter>
    <filter
       inkscape:collect="always"
       id="filter3366"
       x="-0.556759"
       width="2.11314"
       y="-0.0259586"
       height="1.05595">
      <feGaussianBlur
         inkscape:collect="always"
         stdDeviation="4.4671533"
         id="feGaussianBlur3368" />
    </filter>
    <filter
       inkscape:collect="always"
       id="filter3374"
       x="-0.612454"
       width="2.22491"
       y="-0.0287536"
       height="1.05751">
      <feGaussianBlur
         inkscape:collect="always"
         stdDeviation="4.4671533"
         id="feGaussianBlur3376" />
    </filter>
    <filter
       inkscape:collect="always"
       id="filter3438"
       x="-0.451405"
       width="1.90199"
       y="-0.0240774"
       height="1.0502">
      <feGaussianBlur
         inkscape:collect="always"
         stdDeviation="5.3914215"
         id="feGaussianBlur3440" />
    </filter>
    <filter
       inkscape:collect="always"
       id="filter3442"
       x="-0.45059"
       width="1.90199"
       y="-0.0240774"
       height="1.0502">
      <feGaussianBlur
         inkscape:collect="always"
         stdDeviation="5.3914215"
         id="feGaussianBlur3444" />
    </filter>
    <filter
       inkscape:collect="always"
       id="filter3544"
       x="-0.276924"
       width="1.55385"
       y="-0.0949958"
       height="1.18999">
      <feGaussianBlur
         inkscape:collect="always"
         stdDeviation="5.0485378"
         id="feGaussianBlur3546" />
    </filter>
    <filter
       inkscape:collect="always"
       id="filter3628"
       x="-0.0775617"
       y="-0.0208484"
       width="1.15511"
       height="1.04087">
      <feGaussianBlur
         inkscape:collect="always"
         stdDeviation="3.143885"
         id="feGaussianBlur3630" />
    </filter>
    <filter
       inkscape:collect="always"
       id="filter3624"
       x="-0.110057"
       y="-0.0254355"
       width="1.22011"
       height="1.05069">
      <feGaussianBlur
         inkscape:collect="always"
         stdDeviation="3.143885"
         id="feGaussianBlur3626" />
    </filter>
    <filter
       inkscape:collect="always"
       id="filter3620"
       x="-0.185498"
       width="1.37091"
       y="-0.0323135"
       height="1.06505">
      <feGaussianBlur
         inkscape:collect="always"
         stdDeviation="3.143885"
         id="feGaussianBlur3622" />
    </filter>
    <filter
       inkscape:collect="always"
       id="filter3616"
       x="-0.559871"
       width="2.11974"
       y="-0.0605549"
       height="1.12321">
      <feGaussianBlur
         inkscape:collect="always"
         stdDeviation="3.143885"
         id="feGaussianBlur3618" />
    </filter>
    <radialGradient
       r="90.8323"
       id="svg_14"
       gradientUnits="userSpaceOnUse"
       fy="185.556"
       fx="184.084"
       cy="1"
       cx="1"
       gradientTransform="matrix(0.030952,0.069187,-0.069187,0.030952,-743.176,338.875)">
      <stop
         stop-opacity="0.996094"
         stop-color="#aa56ff"
         offset="0"
         id="stop59" />
      <stop
         stop-opacity="0.992188"
         stop-color="#5f01c4"
         offset="1"
         id="stop61" />
    </radialGradient>
    <radialGradient
       xlink:href="#linearGradient9128"
       r="44.9518"
       id="radialGradient9134"
       gradientUnits="userSpaceOnUse"
       gradientTransform="matrix(0.034555,-0.03981,0.011859,0.010294,22.5912,841.07)"
       fy="107.73"
       fx="492.058"
       cy="115.558"
       cx="465.875" />
    <linearGradient
       id="linearGradient9128">
      <stop
         stop-color="#ffffff"
         offset="0"
         id="stop6" />
      <stop
         stop-color="#ffffff"
         offset="0.535714"
         id="stop8-2" />
      <stop
         stop-opacity="0"
         stop-color="#ffffff"
         offset="1"
         id="stop10-2" />
    </linearGradient>
    <radialGradient
       xlink:href="#linearGradient9128"
       r="19.1929"
       id="radialGradient9144"
       gradientUnits="userSpaceOnUse"
       gradientTransform="matrix(0.012529,0.00814,-0.049656,0.076429,41.5733,814.47)"
       fy="345.562"
       fx="231.574"
       cy="345.562"
       cx="231.574" />
    <radialGradient
       r="60.6091"
       id="radialGradient7156"
       gradientUnits="userSpaceOnUse"
       gradientTransform="matrix(-0.268512,-2.22935e-4,9.76671e-5,-0.117265,-724.93,435.489)"
       cy="511.983"
       cx="116.509">
      <stop
         stop-color="#eccd00"
         offset="0"
         id="stop27" />
      <stop
         stop-opacity="0"
         stop-color="#eccd00"
         offset="1"
         id="stop29" />
    </radialGradient>
    <radialGradient
       r="89.5062"
       id="radialGradient8135"
       gradientUnits="userSpaceOnUse"
       gradientTransform="matrix(-0.839272,0.013875,-0.006993,-0.422981,-746.927,473.333)"
       cy="422.25"
       cx="-38.4693">
      <stop
         stop-opacity="0"
         stop-color="#1a7edc"
         offset="0"
         id="stop32" />
      <stop
         stop-opacity="0"
         stop-color="#1a7edc"
         offset="0.103316"
         id="stop34" />
      <stop
         stop-opacity="0.319588"
         stop-color="#1a7edc"
         offset="0.583683"
         id="stop36" />
      <stop
         stop-opacity="0"
         stop-color="#1a7edc"
         offset="1"
         id="stop38" />
    </radialGradient>
    <radialGradient
       r="171.726"
       id="radialGradient9118"
       gradientUnits="userSpaceOnUse"
       gradientTransform="matrix(-0.771134,-0.027355,0.032845,-0.926045,-546.12,861.563)"
       cy="534.702"
       cx="262.299">
      <stop
         stop-opacity="0"
         stop-color="#cccccc"
         offset="0"
         id="stop41" />
      <stop
         stop-opacity="0"
         stop-color="#cccccc"
         offset="0.107143"
         id="stop43" />
      <stop
         stop-opacity="0.71134"
         stop-color="#cccccc"
         offset="0.202806"
         id="stop45" />
      <stop
         stop-opacity="0.484536"
         stop-color="#cccccc"
         offset="0.629874"
         id="stop47" />
      <stop
         stop-opacity="0"
         stop-color="#cccccc"
         offset="1"
         id="stop49" />
    </radialGradient>
    <linearGradient
       inkscape:collect="always"
       xlink:href="#id4"
       id="linearGradient2323"
       x1="-552.126"
       y1="274.196"
       x2="-552.126"
       y2="285.737"
       gradientUnits="userSpaceOnUse" />
    <radialGradient
       inkscape:collect="always"
       xlink:href="#svg_14"
       id="radialGradient2331"
       cx="-566.909"
       cy="269.958"
       fx="-566.909"
       fy="269.958"
       r="8.409"
       gradientTransform="matrix(1,0,0,0.361319,0.271553,173.232)"
       gradientUnits="userSpaceOnUse" />
    <radialGradient
       inkscape:collect="always"
       xlink:href="#svg_14"
       id="radialGradient2333"
       cx="-566.168"
       cy="286.007"
       fx="-566.168"
       fy="286.007"
       r="8.3705"
       gradientTransform="matrix(1,0,0,0.361125,-0.135777,182.044)"
       gradientUnits="userSpaceOnUse" />
  </defs>
  <sodipodi:namedview
     id="base"
     pagecolor="#ffffff"
     bordercolor="#666666"
     borderopacity="1.0"
     inkscape:pageopacity="0.0"
     inkscape:pageshadow="2"
     inkscape:zoom="0.35"
     inkscape:cx="400"
     inkscape:cy="560"
     inkscape:document-units="px"
     inkscape:current-layer="layer1"
     showgrid="false"
     units="px"
     inkscape:snap-global="false"
     inkscape:pagecheckerboard="0" />
  <metadata
     id="metadata1440">
    <rdf:RDF>
      <cc:Work
         rdf:about="">
        <dc:format>image/svg+xml</dc:format>
        <dc:type
           rdf:resource="http://purl.org/dc/dcmitype/StillImage" />
        <dc:title />
      </cc:Work>
    </rdf:RDF>
  </metadata>
  <g
     inkscape:label="Layer 1"
     inkscape:groupmode="layer"
     id="layer1"
     transform="translate(575.046,-263.695)">
    <path
       id="path1261"
       d="m -557.792,288.151 h 20.972"
       style="fill:none;fill-opacity:1;fill-rule:evenodd;stroke:#5f00c5;stroke-width:0.940861;stroke-linecap:butt;stroke-linejoin:miter;stroke-miterlimit:4;stroke-dasharray:none;stroke-opacity:1;marker-end:url(#Arrow1Mend)"
       inkscape:connector-curvature="0" />
    <text
       xml:space="preserve"
       style="color:#000000;font-style:italic;font-variant:normal;font-weight:normal;font-stretch:normal;font-size:7.0556px;line-height:6.61462px;font-family:Arial;-inkscape-font-specification:'Arial, Italic';font-variant-ligatures:normal;font-variant-caps:normal;font-variant-numeric:normal;font-feature-settings:normal;text-indent:0;text-align:start;text-decoration:none;text-decoration-line:none;text-decoration-style:solid;text-decoration-color:#000000;letter-spacing:0px;word-spacing:0px;text-transform:none;writing-mode:lr-tb;direction:ltr;baseline-shift:baseline;text-anchor:start;white-space:normal;clip-rule:nonzero;display:inline;overflow:visible;visibility:visible;opacity:1;isolation:auto;mix-blend-mode:normal;color-interpolation:sRGB;color-interpolation-filters:linearRGB;solid-color:#000000;solid-opacity:1;fill:#5f00c5;fill-opacity:1;fill-rule:nonzero;stroke:none;stroke-width:0.264585px;stroke-linecap:butt;stroke-linejoin:miter;stroke-miterlimit:4;stroke-dasharray:none;stroke-dashoffset:0;stroke-opacity:1;color-rendering:auto;image-rendering:auto;shape-rendering:auto;text-rendering:auto;enable-background:accumulate"
       x="-554.402"
       y="296.03"
       id="text1265"><tspan
         sodipodi:role="line"
         id="tspan1263"
         x="-554.402"
         y="296.03"
         style="font-style:italic;font-variant:normal;font-weight:normal;font-stretch:normal;font-size:7.0556px;font-family:Arial;-inkscape-font-specification:'Arial, Italic';font-variant-ligatures:normal;font-variant-caps:normal;font-variant-numeric:normal;font-feature-settings:normal;text-align:start;writing-mode:lr-tb;text-anchor:start;fill:#5f00c5;fill-opacity:1;stroke-width:0.264585px">0.6c</tspan></text>
    <g
       style="fill:#0084c8"
       transform="matrix(0.389248,0,0,0.389248,-288.942,195.951)"
       id="g1865">
      <path
         inkscape:connector-curvature="0"
         style="fill:#0084c8;fill-rule:evenodd;stroke:none;stroke-width:0.144018px;stroke-linecap:butt;stroke-linejoin:miter;stroke-opacity:1"
         d="m -445.499,255.71 c -0.375,0.184 -1.176,0.248 -1.974,0.248 -0.78,0 -1.378,0.539 -1.974,0.986 -0.299,0.224 -1.143,0.325 -1.481,0.494 -0.534,0.267 -0.74,0.421 -0.74,1.11 0,0.836 0.368,0.863 1.11,1.234 0.755,0.378 1.835,0.247 2.715,0.247 0.981,0 1.229,-0.368 1.974,-0.74 0.564,-0.282 0.748,-0.371 1.604,-0.371 0.307,0 0.542,0.617 1.234,0.617 0.699,0 1.398,0 2.097,0 0.832,0 0.683,-0.386 0.864,-1.11 0.135,-0.538 0,-1.293 0,-1.851 0,-0.111 -1.029,-0.782 -1.11,-0.864 -0.3,-0.3 -0.886,-0.37 -1.481,-0.37 -0.589,0 -1.325,0.02 -1.727,0.124 -0.514,0.128 -0.455,-0.02 -1.111,0.246 z"
         id="path1835" />
      <path
         inkscape:connector-curvature="0"
         style="fill:#0084c8;fill-rule:evenodd;stroke:none;stroke-width:0.145721px;stroke-linecap:butt;stroke-linejoin:miter;stroke-opacity:1"
         d="m -432.302,255.765 c 0.359,0.229 1.166,0.391 1.977,0.491 0.793,0.1 1.336,0.707 1.888,1.225 0.275,0.259 1.121,0.464 1.444,0.674 0.511,0.331 0.702,0.511 0.618,1.194 -0.101,0.829 -0.479,0.81 -1.279,1.086 -0.813,0.281 -2.42,-0.05 -3.314,-0.157 -0.997,-0.122 -1.206,-0.518 -1.917,-0.981 -0.539,-0.35 -0.716,-0.46 -1.586,-0.567 -0.312,-0.04 -0.101,0.609 -0.804,0.523 -0.711,-0.09 -1.422,-0.174 -2.132,-0.261 -0.846,-0.104 -0.648,-0.469 -0.743,-1.209 -0.07,-0.551 0.157,-1.283 0.224,-1.837 0.01,-0.11 1.142,-0.648 1.234,-0.718 0.342,-0.261 0.946,-0.257 1.551,-0.183 0.598,0.07 1.343,0.187 1.74,0.337 0.507,0.191 0.464,0.04 1.099,0.383 z"
         id="path1837"
         sodipodi:nodetypes="csssssssssssssssc" />
      <path
         inkscape:connector-curvature="0"
         style="fill:#0084c8;fill-opacity:1;fill-rule:nonzero;stroke:none;stroke-width:0.330731"
         d="m -448.518,220.13 c 1.332,0.12 2.285,1.715 2.147,2.94 -0.01,0.988 -0.102,3.221 -1.472,2.881 0.06,-0.467 0.986,-1.681 0.457,-1.855 -0.02,0.643 -0.607,2.465 -1.422,1.672 0.539,-0.431 0.683,-2.457 0.332,-0.91 0.08,0.832 -1.726,1.732 -1.044,0.463 0.536,-0.343 0.239,-2.212 0.19,-1.002 0.163,0.702 -1.115,2.343 -1.272,1.282 1.069,-1.572 -0.157,-3.703 1.035,-5.21 0.273,-0.273 0.685,-0.327 1.049,-0.261 z"
         id="path1839" />
      <path
         inkscape:connector-curvature="0"
         style="fill:#0084c8;fill-opacity:1;fill-rule:nonzero;stroke:none;stroke-width:0.330731;stroke-opacity:1"
         d="m -446.852,221.622 c -0.576,4.218 -0.582,5.914 -0.717,11.314 -0.511,4.772 0.297,9.612 -0.715,14.359 0.429,2.144 0.228,3.872 0.232,9.407 2.868,-1.234 9.625,1.111 7.901,-2.347 -0.516,-2.859 -1.217,-7.513 -0.588,-10.468 1.04,-5.072 -0.163,-8.753 0.932,-13.811 0.527,4.043 0.737,6.595 0.554,10.664 -0.253,3.991 1.138,11.84 1.141,15.827 2.088,-0.874 8.337,1.826 7.506,-1.523 0.209,-4.877 -1.656,-13.6 -1.207,-18.474 0.156,-3.45 -0.209,-6.885 -0.02,-10.268 -0.01,-2.184 0.02,-2.263 -0.169,-4.58 -4.852,0 -10.004,-0.1 -14.855,-0.1 z"
         id="path1841"
         sodipodi:nodetypes="cccccccccccccc" />
      <path
         inkscape:connector-curvature="0"
         style="fill:#0084c8;fill-opacity:1;fill-rule:nonzero;stroke:none;stroke-width:0.330731"
         d="m -439.598,188.265 c -1.845,0.01 -3.137,0.583 -3.621,3.175 -0.129,0.687 -1.267,1.189 -1.454,1.938 -0.121,0.491 1.223,0.342 0.935,0.749 -0.118,0.166 -0.28,0.757 -0.339,0.928 -0.03,0.09 0.351,0.224 0.318,0.332 -0.06,0.189 -0.416,0.05 -0.423,0.197 -0.02,0.3 -0.107,0.876 -0.117,1.06 -0.05,0.823 0.792,0.927 1.832,1.32 0.268,0.101 0.325,0.818 0.521,1.257 0.07,1.016 -0.44,0.936 -1.497,1.877 2.548,1.818 5.125,1.82 7.139,-0.101 -1.103,-1.402 -1.219,-1.099 -1.592,-2.168 0.21,-2.861 1.409,-2.921 1.986,-4.263 1.238,-2.881 0.143,-6.151 -2.902,-6.243 -0.264,0 -0.522,-0.06 -0.786,-0.06 z"
         id="path1843"
         sodipodi:nodetypes="cssssssssccccssc" />
      <path
         inkscape:connector-curvature="0"
         style="fill:#0084c8;fill-opacity:1;fill-rule:nonzero;stroke:none;stroke-width:0.330731"
         d="m -428.524,225.751 c -1.331,0.12 -2.284,1.715 -2.146,2.939 0.01,0.989 0.102,3.222 1.472,2.882 -0.06,-0.467 -0.987,-1.681 -0.458,-1.855 0.02,0.643 0.608,2.465 1.423,1.672 -0.54,-0.431 -0.683,-2.457 -0.332,-0.91 -0.09,0.832 1.726,1.731 1.044,0.463 -0.537,-0.343 -0.24,-2.212 -0.19,-1.002 -0.163,0.702 1.114,2.343 1.272,1.282 -1.07,-1.572 0.157,-3.703 -1.035,-5.21 -0.274,-0.273 -0.685,-0.326 -1.05,-0.261 z"
         id="path1845" />
      <path
         inkscape:connector-curvature="0"
         style="fill:#0084c8;fill-opacity:1;fill-rule:nonzero;stroke:none;stroke-width:0.264585;stroke-opacity:1"
         d="m -442.566,200.143 c -2.742,1.136 -4.05,1.683 -5.731,2.382 l 0.02,0.422 -0.116,-0.07 c -0.358,0.352 -0.717,0.734 -1.075,1.141 l -0.455,0.537 c -0.976,1.001 -1.357,1.593 -2.334,3.023 -0.902,1.323 -2.429,3.465 -2.653,4.903 -0.16,2.569 2.959,6.386 4.756,10.083 l 3.249,-1.629 c -0.644,-2.206 -1.229,-1.777 -2.41,-3.614 -1.339,-2.08 -1.031,-2.869 -1.809,-4.977 0.627,-1.396 3.275,-3.418 4.042,-4.37 l 0.08,2.376 c 0.06,3.191 0.33,7.441 0.106,11.406 l 15.033,0.102 c -0.587,-4.348 -0.609,-6.027 -0.638,-8.215 l 0.307,-3.589 0.338,-2.257 c 0.886,1.358 1.704,2.751 2.489,4.158 0.796,1.428 1.464,2.465 2.192,3.663 -0.429,2.538 -1.11,4.987 -1.861,7.409 -0.68,2.194 -0.446,1.024 -1.108,3.224 l 3.241,1.662 c 2.371,-5.745 3.215,-7.899 3.605,-11.757 l 0.134,-0.555 c -0.133,-0.3 0.09,-0.203 -0.04,-0.495 l -0.446,-0.959 c -2.669,-5.688 -5.341,-9.842 -8.011,-12.469 l -0.563,0.347 -0.03,-0.314 -4.415,-1.397 c -0.491,0.41 -1.08,0.39 -1.542,0.606 -0.948,0.443 -1.921,0.675 -4.344,-0.781 z"
         id="path1847"
         sodipodi:nodetypes="ccccccscccsccccccccscsccccccccccsc" />
      <path
         inkscape:connector-curvature="0"
         style="fill:#0084c8;fill-opacity:1;fill-rule:nonzero;stroke:none;stroke-width:0.330731"
         d="m -437.766,187.307 c -1.868,0.02 -3.886,-1.427 -4.376,1.733 -0.13,0.838 2.287,0.314 2.098,1.228 -0.123,0.598 0.519,1.67 0.228,2.165 -0.968,1.646 -0.3,1.963 0.604,1.428 0.56,-0.331 0.664,-2.42 2.088,-1.515 1.119,0.711 -0.139,2.119 -0.585,2.332 0.07,1.239 0.569,0.653 -0.501,1.799 0.398,-0.104 -0.237,2.464 1.8,0.122 0.654,-1.49 -0.216,-0.19 0.653,-1.856 0.914,-3.002 2.254,-4.038 0.257,-5.778 -0.202,-0.176 -1.999,-1.66 -2.266,-1.658 z"
         id="path1849"
         sodipodi:nodetypes="csssssccccsc" />
      <rect
         style="fill:#0084c8;fill-opacity:1;fill-rule:nonzero;stroke:none;stroke-width:0.330731"
         id="rect1851"
         width="15.2277"
         height="1.10201"
         x="-446.997"
         y="221.993" />
      <path
         inkscape:connector-curvature="0"
         style="fill:#0084c8;fill-opacity:1;fill-rule:nonzero;stroke:none;stroke-width:0.264585"
         d="m -446.544,221.84 v 1.554 h 0.595 v -1.554 z m 2.852,0.02 v 1.554 h 0.604 v -1.554 z m 5.813,0 v 1.554 h 0.603 v -1.554 z m 3.456,0 v 1.554 h 0.604 v -1.554 z"
         id="path1853" />
      <path
         inkscape:connector-curvature="0"
         style="fill:#0084c8;fill-opacity:1;fill-rule:nonzero;stroke:none;stroke-width:0.330731"
         d="m -440.866,221.83 c -0.174,0 -0.316,0.131 -0.316,0.292 v 0.872 c 0,0.161 0.142,0.287 0.316,0.287 h 1.777 c 0.175,0 0.312,-0.126 0.312,-0.287 v -0.872 c 0,-0.161 -0.137,-0.292 -0.312,-0.292 z m 0.142,0.196 h 1.493 c 0.127,0 0.227,0.1 0.227,0.214 v 0.632 c 0,0.116 -0.1,0.213 -0.227,0.213 h -1.493 c -0.127,0 -0.227,-0.1 -0.227,-0.213 v -0.632 c 0,-0.117 0.1,-0.214 0.227,-0.214 z"
         id="path1855" />
      <path
         inkscape:connector-curvature="0"
         style="fill:#0084c8;fill-opacity:1;fill-rule:nonzero;stroke:none;stroke-width:0.073464;stroke-miterlimit:4;stroke-dasharray:none;stroke-opacity:1"
         d="m -442.753,199.695 0.805,-0.186 -0.03,0.554 0.647,0.621 0.305,0.574 -1.205,-0.03 -0.938,1.237 c 0.128,-0.985 0.198,-2.379 0.411,-2.774 z"
         id="path1857"
         sodipodi:nodetypes="cccccccc" />
      <path
         inkscape:connector-curvature="0"
         style="fill:#0084c8;fill-opacity:1;fill-rule:nonzero;stroke:none;stroke-width:0.059956;stroke-miterlimit:4;stroke-dasharray:none;stroke-opacity:1"
         d="m -438.101,219.452 -1.767,2.003 -1.898,-2.003 1.067,-17.458 1.495,0.03 z"
         id="path1859"
         sodipodi:nodetypes="cccccc" />
      <path
         inkscape:connector-curvature="0"
         style="fill:#0084c8;fill-opacity:1;fill-rule:nonzero;stroke:none;stroke-width:0.073464;stroke-miterlimit:4;stroke-dasharray:none;stroke-opacity:1"
         d="m -436.836,199.687 -0.806,-0.186 0.03,0.555 -0.648,0.62 -0.305,0.574 1.206,-0.03 0.937,1.237 c -0.128,-0.985 -0.198,-2.379 -0.41,-2.774 z"
         id="path1861"
         sodipodi:nodetypes="cccccccc" />
      <path
         inkscape:connector-curvature="0"
         style="fill:#0084c8;fill-opacity:1;fill-rule:nonzero;stroke:none;stroke-width:0.113356;stroke-miterlimit:4;stroke-opacity:1"
         d="m -441.383,200.819 h 2.833 l -0.593,1.606 -1.582,-0.07 z"
         id="path1863"
         sodipodi:nodetypes="ccccc" />
    </g>
    <path
       inkscape:connector-curvature="0"
       style="fill:none;fill-opacity:1;fill-rule:evenodd;stroke:#656565;stroke-width:0.940865;stroke-linecap:butt;stroke-linejoin:miter;stroke-miterlimit:4;stroke-dasharray:none;stroke-opacity:1;marker-end:url(#marker1256)"
       d="m -527.548,275.887 h 18.383"
       id="path1248" />
    <text
       id="text1252"
       y="283.086"
       x="-527.142"
       style="color:#000000;font-style:italic;font-variant:normal;font-weight:normal;font-stretch:normal;font-size:7.0556px;line-height:6.61462px;font-family:Arial;-inkscape-font-specification:'Arial, Italic';font-variant-ligatures:normal;font-variant-caps:normal;font-variant-numeric:normal;font-feature-settings:normal;text-indent:0;text-align:start;text-decoration:none;text-decoration-line:none;text-decoration-style:solid;text-decoration-color:#000000;letter-spacing:0px;word-spacing:0px;text-transform:none;writing-mode:lr-tb;direction:ltr;baseline-shift:baseline;text-anchor:start;white-space:normal;clip-rule:nonzero;display:inline;overflow:visible;visibility:visible;opacity:1;isolation:auto;mix-blend-mode:normal;color-interpolation:sRGB;color-interpolation-filters:linearRGB;solid-color:#000000;solid-opacity:1;fill:#656565;fill-opacity:1;fill-rule:nonzero;stroke:none;stroke-width:0.264585px;stroke-linecap:butt;stroke-linejoin:miter;stroke-miterlimit:4;stroke-dasharray:none;stroke-dashoffset:0;stroke-opacity:1;color-rendering:auto;image-rendering:auto;shape-rendering:auto;text-rendering:auto;enable-background:accumulate"
       xml:space="preserve"><tspan
         style="font-style:italic;font-variant:normal;font-weight:normal;font-stretch:normal;font-size:7.0556px;font-family:Arial;-inkscape-font-specification:'Arial, Italic';font-variant-ligatures:normal;font-variant-caps:normal;font-variant-numeric:normal;font-feature-settings:normal;text-align:start;writing-mode:lr-tb;text-anchor:start;fill:#656565;fill-opacity:1;stroke-width:0.264585px"
         y="283.086"
         x="-527.142"
         id="tspan1250"
         sodipodi:role="line">0.5c</tspan></text>
    <path
       style="fill:none;fill-rule:evenodd;stroke:#19aeff;stroke-width:0.264585;stroke-linecap:butt;stroke-linejoin:miter;stroke-miterlimit:4;stroke-dasharray:1.05834, 1.05834;stroke-dashoffset:0;stroke-opacity:1"
       d="m -504.314,272.398 c -1.92,0 -46.084,0 -46.084,0"
       id="path1468"
       inkscape:connector-curvature="0" />
    <path
       style="fill:url(#radialGradient2331);fill-opacity:1;fill-rule:evenodd;stroke:none;stroke-width:1.587514;stroke-linejoin:round;stroke-miterlimit:4;stroke-dasharray:none"
       inkscape:connector-curvature="0"
       d="m -569.13,273.811 -5.916,-2.888 c 3.72,-1.783 8.806,-3.816 12.069,-3.005 2.144,0.532 4.749,4.283 4.749,4.283 z"
       id="path3307"
       stroke-miterlimit="4" />
    <path
       style="fill:url(#radialGradient2333);fill-opacity:1;fill-rule:evenodd;stroke:none;stroke-width:1.587514;stroke-linejoin:round;stroke-miterlimit:4;stroke-dasharray:none"
       inkscape:connector-curvature="0"
       id="path3309"
       d="m -568.927,282.305 -5.747,2.926 c 3.824,1.759 9.028,3.757 12.243,2.925 2.112,-0.547 4.498,-4.314 4.498,-4.314 z"
       stroke-miterlimit="4" />
    <path
       style="fill:url(#linearGradient2323);fill-opacity:1;fill-rule:evenodd;stroke:none;stroke-width:1.587523;stroke-linejoin:round;stroke-miterlimit:4"
       inkscape:connector-curvature="0"
       d="m -569.402,272.996 0.292,9.989 c 12.164,1.208 25.444,4.91 36.536,-5.117 -11.676,-9.95 -24.808,-6.517 -36.828,-4.872 z"
       id="path3297"
       stroke-miterlimit="4" />
    <g
       transform="matrix(0,0.026648,-0.027582,0,-486.448,263.699)"
       id="g3632"
       style="stroke-width:3.304479">
      <path
         inkscape:connector-curvature="0"
         sodipodi:nodetypes="ccccc"
         id="path2388"
         d="M 273.751,641.092 V 326.934 h 92.934 v 315.188 z"
         style="fill:#484848;fill-opacity:1;fill-rule:evenodd;stroke:#000000;stroke-width:3.304479px;stroke-linecap:butt;stroke-linejoin:miter;stroke-opacity:1" />
      <path
         inkscape:connector-curvature="0"
         sodipodi:nodetypes="ccsccc"
         id="path2402"
         d="m 272.741,168.34 v -28.284 c 0,0 30.305,-101.0153 48.488,-101.0153 18.182,0 45.456,97.9853 45.456,97.9853 v 30.304 z"
         style="fill:#484848;fill-opacity:1;fill-rule:evenodd;stroke:#000000;stroke-width:3.304479px;stroke-linecap:butt;stroke-linejoin:miter;stroke-opacity:1" />
      <path
         inkscape:connector-curvature="0"
         sodipodi:nodetypes="ccccc"
         id="path2406"
         d="M 273.751,325.914 V 167.32 h 92.934 v 159.624 z"
         style="fill:#484848;fill-opacity:1;fill-rule:evenodd;stroke:#000000;stroke-width:3.304479px;stroke-linecap:butt;stroke-linejoin:miter;stroke-opacity:1" />
      <path
         inkscape:connector-curvature="0"
         transform="matrix(0.996917,0,0,1.33378,0.986536,-171.462)"
         sodipodi:nodetypes="ccccsc"
         id="path3230"
         d="m 330.32,601.834 16.162,5.051 V 244.24 l -21.213,-69.7 c 0,0 5.051,59.599 5.051,70.71 0,11.112 1.01,359.615 0,356.584 z"
         style="fill:#797979;fill-opacity:1;fill-rule:evenodd;stroke:#5e5e5e;stroke-width:3.304479px;stroke-linecap:butt;stroke-linejoin:miter;stroke-opacity:1;filter:url(#filter3370)" />
      <path
         inkscape:connector-curvature="0"
         transform="matrix(0.996917,0,0,1.33378,0.986536,-171.462)"
         sodipodi:nodetypes="ccccsc"
         id="path3232"
         d="m 309.612,601.834 -16.163,5.051 V 244.24 l 22.224,-69.7 c 0,0 -6.061,59.599 -6.061,70.71 0,11.112 -1.01,359.615 0,356.584 z"
         style="fill:#797979;fill-opacity:1;fill-rule:evenodd;stroke:#5e5e5e;stroke-width:3.304479px;stroke-linecap:butt;stroke-linejoin:miter;stroke-opacity:1;filter:url(#filter3366)" />
      <path
         inkscape:connector-curvature="0"
         transform="matrix(1.43567,0,0,1.33316,-139.007,-171.223)"
         id="path3228"
         d="M 310.117,299.799 V 601.834 H 330.32 V 296.768 245.25 c 0,0 -5.051,-73.741 -9.091,-73.741 -4.041,0 -10.102,80.812 -10.102,80.812 z"
         style="fill:#cecece;fill-opacity:1;fill-rule:evenodd;stroke:#999999;stroke-width:3.304479px;stroke-linecap:butt;stroke-linejoin:miter;stroke-opacity:1;filter:url(#filter3374)" />
      <path
         inkscape:connector-curvature="0"
         sodipodi:nodetypes="ccccccc"
         id="path3378"
         d="M 293.954,636.041 V 152.178 l 15.153,-83.8429 -15.153,27.2741 -17.172,45.4568 v 498.005 z"
         style="fill:#656565;fill-opacity:1;fill-rule:evenodd;stroke:#7c7c7c;stroke-width:3.304479px;stroke-linecap:butt;stroke-linejoin:miter;stroke-opacity:1;filter:url(#filter3438)" />
      <path
         inkscape:connector-curvature="0"
         sodipodi:nodetypes="ccccccc"
         id="path3380"
         d="M 348.503,634.526 V 150.663 l -15.153,-83.8431 15.153,27.2741 17.172,45.457 v 498.005 z"
         style="fill:#656565;fill-opacity:1;fill-rule:evenodd;stroke:#7c7c7c;stroke-width:3.304479px;stroke-linecap:butt;stroke-linejoin:miter;stroke-opacity:1;filter:url(#filter3442)" />
      <path
         inkscape:connector-curvature="0"
         id="path2404"
         d="m 299.005,641.092 -20.203,35.355 h 83.843 l -21.213,-35.355 z"
         style="fill:#555151;fill-opacity:1;fill-rule:evenodd;stroke:#000000;stroke-width:3.304479px;stroke-linecap:butt;stroke-linejoin:miter;stroke-opacity:1" />
      <path
         inkscape:connector-curvature="0"
         sodipodi:nodetypes="cscc"
         id="path3218"
         d="m 282.843,489.569 c 0,0 -126.515,152.4 -91.924,161.624 15.152,4.041 44.447,-8.081 44.447,-8.081 l 44.446,-27.274"
         style="fill:#da0101;fill-opacity:1;fill-rule:evenodd;stroke:#727272;stroke-width:3.304479px;stroke-linecap:butt;stroke-linejoin:miter;stroke-opacity:1" />
      <path
         inkscape:connector-curvature="0"
         sodipodi:nodetypes="cscc"
         id="path3220"
         d="m 358.134,489.156 c 0,0 126.515,152.401 91.924,161.625 -15.152,4.04 -44.446,-8.081 -44.446,-8.081 l -44.447,-27.274"
         style="fill:#da0101;fill-opacity:1;fill-rule:evenodd;stroke:#727272;stroke-width:3.304479px;stroke-linecap:butt;stroke-linejoin:miter;stroke-opacity:1" />
      <path
         inkscape:connector-curvature="0"
         sodipodi:nodetypes="ccscc"
         id="path3226"
         d="m 314.157,492.599 -6.06,140.411 c 0,0 1.01,18.183 12.121,18.183 11.112,0 12.122,-18.183 12.122,-18.183 l -8.081,-140.411"
         style="fill:#da0101;fill-opacity:1;fill-rule:evenodd;stroke:#727272;stroke-width:3.304479px;stroke-linecap:butt;stroke-linejoin:miter;stroke-opacity:1" />
      <path
         inkscape:connector-curvature="0"
         id="path3446"
         d="m 279.812,616.848 3.031,-124.249 c 0,0 -35.356,43.437 -42.427,54.548 -7.071,11.112 16.163,71.721 21.214,72.731 5.05,1.011 18.182,-1.01 18.182,-3.03 z"
         style="fill:#a60101;fill-opacity:1;fill-rule:evenodd;stroke:none;stroke-width:3.304479px;stroke-linecap:butt;stroke-linejoin:miter;stroke-opacity:1;filter:url(#filter3544)" />
      <path
         inkscape:connector-curvature="0"
         transform="matrix(-1,0,0,1,776.807,-155.702)"
         id="path3548"
         d="m 415.837,771.405 3.03,-124.248 c 0,0 -35.355,43.436 -42.426,54.548 -7.071,11.112 16.162,71.721 21.213,72.731 5.051,1.01 18.183,-1.01 18.183,-3.031 z"
         style="fill:#a60101;fill-opacity:1;fill-rule:evenodd;stroke:none;stroke-width:3.304479px;stroke-linecap:butt;stroke-linejoin:miter;stroke-opacity:1;filter:url(#filter3544)" />
      <path
         inkscape:connector-curvature="0"
         id="path3550"
         d="m 302.288,642.607 -10.354,32.577"
         style="fill:none;fill-rule:evenodd;stroke:#000000;stroke-width:3.304479px;stroke-linecap:butt;stroke-linejoin:miter;stroke-opacity:1" />
      <path
         inkscape:connector-curvature="0"
         id="path3552"
         d="m 336.633,642.607 11.617,31.82"
         style="fill:none;fill-rule:evenodd;stroke:#000000;stroke-width:3.304479px;stroke-linecap:butt;stroke-linejoin:miter;stroke-opacity:1" />
      <path
         inkscape:connector-curvature="0"
         id="path3554"
         d="m 308.349,642.859 -3.03,31.315"
         style="fill:none;fill-rule:evenodd;stroke:#000000;stroke-width:3.304479px;stroke-linecap:butt;stroke-linejoin:miter;stroke-opacity:1" />
      <path
         inkscape:connector-curvature="0"
         id="path3556"
         d="m 330.572,642.354 4.041,30.557"
         style="fill:none;fill-rule:evenodd;stroke:#000000;stroke-width:3.304479px;stroke-linecap:butt;stroke-linejoin:miter;stroke-opacity:1" />
      <path
         inkscape:connector-curvature="0"
         id="path3558"
         d="m 319.461,651.951 0.252,19.95"
         style="fill:none;fill-rule:evenodd;stroke:#000000;stroke-width:3.304479px;stroke-linecap:butt;stroke-linejoin:miter;stroke-opacity:1" />
      <path
         inkscape:connector-curvature="0"
         sodipodi:nodetypes="cscsc"
         id="path3560"
         d="m 280,675.934 c 0,0 -15.714,55 -17.143,94.285 -1.428,39.286 57.143,300.001 57.143,300.001 0,0 61.429,-272.144 61.429,-307.144 0,-35 -24.286,-87.857 -24.286,-87.857"
         style="fill:#e90404;fill-opacity:1;fill-rule:evenodd;stroke:#747474;stroke-width:3.304479px;stroke-linecap:butt;stroke-linejoin:miter;stroke-opacity:1;filter:url(#filter3628)" />
      <path
         inkscape:connector-curvature="0"
         id="path3562"
         d="m 290.714,676.648 c 0,0 -9.285,72.143 -9.285,88.571 0,16.429 37.857,223.572 37.857,223.572 0,0 45.714,-207.857 45.714,-225.715 0,-17.857 -17.857,-87.142 -17.857,-87.142"
         style="fill:#e96804;fill-opacity:1;fill-rule:evenodd;stroke:#747474;stroke-width:3.304479px;stroke-linecap:butt;stroke-linejoin:miter;stroke-opacity:1;filter:url(#filter3624)" />
      <path
         inkscape:connector-curvature="0"
         id="path3564"
         d="m 309.286,675.934 c 0,0 -11.429,72.857 -9.286,87.142 2.143,14.286 19.286,154.286 19.286,154.286 0,0 32.143,-145 30,-156.428 -2.143,-11.429 -16.429,-84.286 -16.429,-84.286"
         style="fill:#e9b204;fill-opacity:1;fill-rule:evenodd;stroke:#747474;stroke-width:3.304479px;stroke-linecap:butt;stroke-linejoin:miter;stroke-opacity:1;filter:url(#filter3620)" />
      <path
         inkscape:connector-curvature="0"
         id="path3566"
         d="m 317.857,676.648 c 0,0 -3.571,74.286 -3.571,77.857 0,3.571 5.714,48.571 5.714,48.571 0,0 10.714,-40.714 10.714,-45.714 0,-5 -7.143,-81.428 -7.143,-81.428"
         style="fill:#e9e204;fill-opacity:1;fill-rule:evenodd;stroke:#747474;stroke-width:3.304479px;stroke-linecap:butt;stroke-linejoin:miter;stroke-opacity:1;filter:url(#filter3616)" />
    </g>
  </g>
</svg>
