<?xml version="1.0" encoding="UTF-8" standalone="no"?>
<!-- Copyright 2017 mathsisfun.com -->
<svg xmlns="http://www.w3.org/2000/svg" xmlns:xlink="http://www.w3.org/1999/xlink" width="595.6" height="326.3" version="1.0">
<defs>
<linearGradient id="id2">
<stop offset="0" style="stop-color:#3465a4; stop-opacity:1;"/>
<stop offset="1" style="stop-color:#3465a4; stop-opacity:0;"/>
</linearGradient>
<linearGradient id="id1">
<stop offset="0" style="stop-color:#2d2d2d; stop-opacity:1;"/>
<stop offset="1" style="stop-color:#666666; stop-opacity:0;"/>
</linearGradient>
<linearGradient id="id12" gradientTransform="matrix(0.65311,0,0,0.65311,112.79,367.45)" xlink:href="#id1" x1="431.3" y1="816.9" x2="384.4" y2="592.9" gradientUnits="userSpaceOnUse"/>
<linearGradient id="id11" xlink:href="#id1" x1="751.5" y1="906.6" x2="691.5" y2="735.7" gradientUnits="userSpaceOnUse"/>
<filter id="id13" x="-0.069198" y="-0.23059" width="1.1384" height="1.4612">
<feGaussianBlur stdDeviation="3.8778"/>
</filter>
<filter id="id14" x="-0.12582" y="-0.41926" width="1.2516" height="1.8385">
<feGaussianBlur stdDeviation="7.0506"/>
</filter>
<linearGradient id="id10" gradientTransform="matrix(0.84713,0,0,0.77757,100.99,206.01)" xlink:href="#id2" x1="578.9" y1="659.9" x2="584.9" y2="1131.5" gradientUnits="userSpaceOnUse"/>
<linearGradient id="id15" gradientTransform="matrix(0.89857,0,0,1.4103,-5.9717,-3.5326)" xlink:href="#id3" x1="44.2" y1="22.1" x2="50.3" y2="39.3" gradientUnits="userSpaceOnUse"/>
<linearGradient id="id3">
<stop offset="0" style="stop-color:#736781; stop-opacity:1;"/>
<stop offset="1" style="stop-color:#b0b1d0; stop-opacity:1;"/>
</linearGradient>
<linearGradient id="id16" gradientTransform="matrix(0.75049,0,0,1.6886,-5.9717,-3.5326)" xlink:href="#id3" x1="40.6" y1="13.3" x2="40.2" y2="29.5" gradientUnits="userSpaceOnUse"/>
<linearGradient id="id17" gradientTransform="matrix(1.5604,0,0,0.81217,-5.9717,-3.5326)" xlink:href="#id4" x1="22.1" y1="14.5" x2="13.9" y2="35.8" gradientUnits="userSpaceOnUse"/>
<linearGradient id="id4">
<stop offset="0" style="stop-color:#866986; stop-opacity:1;"/>
<stop offset="1" style="stop-color:#ddc9dd; stop-opacity:1;"/>
</linearGradient>
<linearGradient id="id18" gradientTransform="matrix(1.5666,0,0,0.80896,-5.9717,-3.5326)" xlink:href="#id5" x1="4" y1="27.8" x2="33.2" y2="27.8" gradientUnits="userSpaceOnUse"/>
<linearGradient id="id5">
<stop offset="0" style="stop-color:#c0a8c0; stop-opacity:1;"/>
<stop offset="0.438" style="stop-color:#695b69; stop-opacity:1;"/>
<stop offset="1" style="stop-color:#ddc9dd; stop-opacity:1;"/>
</linearGradient>
<linearGradient id="id19" gradientTransform="matrix(1.2508,0,0,1.0132,-5.9717,-3.5326)" xlink:href="#id5" x1="45.1" y1="12.1" x2="61.1" y2="30.3" gradientUnits="userSpaceOnUse"/>
<linearGradient id="id20" gradientTransform="matrix(1.005,0,0,1.261,-5.9717,-3.5326)" xlink:href="#id6" x1="40.5" y1="22.7" x2="56.9" y2="41.4" gradientUnits="userSpaceOnUse"/>
<linearGradient id="id6">
<stop offset="0" style="stop-color:#6c5065; stop-opacity:1;"/>
<stop offset="1" style="stop-color:#b69bac; stop-opacity:1;"/>
</linearGradient>
<linearGradient id="id21" gradientTransform="matrix(1.0069,0,0,1.2586,-5.9717,-3.5326)" xlink:href="#id7" x1="48" y1="24.9" x2="53.9" y2="32.9" gradientUnits="userSpaceOnUse"/>
<linearGradient id="id7">
<stop offset="0" style="stop-color:#fff6cd; stop-opacity:1;"/>
<stop offset="1" style="stop-color:#cdb97d; stop-opacity:1;"/>
</linearGradient>
<linearGradient id="id22" gradientTransform="matrix(0.66776,0,0,1.8978,-5.9717,-3.5326)" xlink:href="#id6" x1="36.3" y1="19.3" x2="37" y2="27.7" gradientUnits="userSpaceOnUse"/>
<linearGradient id="id23" gradientTransform="scale(0.95553,1.0465)" xlink:href="#id8" x1="24.7" y1="41" x2="25.5" y2="43.3" gradientUnits="userSpaceOnUse"/>
<linearGradient id="id8">
<stop offset="0" style="stop-color:#7c7c7c; stop-opacity:1;"/>
<stop offset="1" style="stop-color:#ededed; stop-opacity:1;"/>
</linearGradient>
<linearGradient id="id24" gradientTransform="matrix(0.76559,0,0,1.6553,-5.9717,-3.5326)" xlink:href="#id9" x1="32.2" y1="6.2" x2="32.3" y2="10.8" gradientUnits="userSpaceOnUse"/>
<linearGradient id="id9">
<stop offset="0" style="stop-color:#bbcad0; stop-opacity:1;"/>
<stop offset="1" style="stop-color:#76808b; stop-opacity:1;"/>
</linearGradient>
<linearGradient id="id25" gradientTransform="matrix(0.76559,0,0,1.6553,-5.9717,-3.5326)" xlink:href="#id9" x1="50.2" y1="6.7" x2="37.1" y2="6.5" gradientUnits="userSpaceOnUse"/>
</defs>
<g transform="translate(-286.78,-739.86)">
<rect x="286.8" y="740.2" width="598.1" height="327.5" style="color:black; overflow:visible; fill:url(#id10); stroke-width:2.84; stroke-linejoin:round;"/>
<path style="color:black; overflow:visible; fill:url(#id11); stroke-width:2.84; stroke-linejoin:round;" d="m 824.4,800 c 39.3,-1.8 63.4,75.4 36.4,68.8 13.2,20.7 -12.9,31.2 -37.2,21 -9.5,12.3 -45.6,6.1 -45.4,-3.7 -34.2,13.3 -101.7,17.4 -113.7,0 -19.5,9.3 -50.6,-3 -20.5,-33.6 -14.4,-36.6 -2.3,-52.3 20.4,-58.9 -14.6,-14.3 58,-47.8 72.2,-32.2 19.6,-23.3 45.2,-34.5 62.1,2 25.9,-10.7 61.3,14.9 25.5,36.7 z"/>
<path style="color:black; overflow:visible; fill:url(#id12); stroke-width:2.84; stroke-linejoin:round;" d="m 308.9,844.1 c -10.5,-24.5 -0.2,-49.6 28.1,-49.8 3.4,-12.7 26.9,-16.2 48.8,-14.6 -4.5,-12.7 -3.4,-28.5 27.5,-26.2 18.1,-4.4 36.6,-2.3 36.5,7.4 23.3,-8.7 55.8,18.1 41.6,31.3 11.3,-3.3 20.2,-0.1 23.9,8.4 -0.7,10.2 19,0.8 12.5,17.6 16.1,-4.9 53.1,32.4 47,41 19.4,2.7 -14.3,35.6 -34.9,23.7 -5.1,8.7 -30.3,2.4 -32.7,-5.9 -12.4,9.2 -25.1,3.9 -38,0.2 -13.1,15 -67.4,14.6 -84.2,6.5 -14.7,11 -53.5,10.5 -72.2,-2.9 -20.4,6.3 -26.2,-26.6 -3.9,-36.7 z"/>
<rect x="750.1" y="878.6" width="15.3" height="2.5" style="color:black; overflow:visible; fill:#0084c8; stroke-width:2.84; stroke-linejoin:round;"/>
<g transform="matrix(0.144,0,0,0.144,739.93,625.89)">
<rect x="33.8" y="919" width="106.2" height="17.7" style="color:black; overflow:visible; fill:#dc0000; stroke-width:2.84; stroke-linejoin:round;"/>
<rect x="874.8" y="-95.8" width="106.2" height="17.7" transform="matrix(0,1,-1,0,0,0)" style="color:black; overflow:visible; fill:#dc0000; stroke-width:2.84; stroke-linejoin:round;"/>
</g>
<rect x="500" y="851.1" width="15.3" height="2.5" style="color:black; overflow:visible; fill:#0084c8; stroke-width:2.84; stroke-linejoin:round;"/>
<g transform="matrix(0.144,0,0,0.144,725.1,652.29)">
<rect x="33.8" y="919" width="106.2" height="17.7" style="color:black; overflow:visible; fill:#dc0000; stroke-width:2.84; stroke-linejoin:round;"/>
<rect x="874.8" y="-95.8" width="106.2" height="17.7" transform="matrix(0,1,-1,0,0,0)" style="color:black; overflow:visible; fill:#dc0000; stroke-width:2.84; stroke-linejoin:round;"/>
</g>
<rect x="387.5" y="874.1" width="15.3" height="2.5" style="color:black; overflow:visible; fill:#0084c8; stroke-width:2.84; stroke-linejoin:round;"/>
<g transform="matrix(0.144,0,0,0.144,657.86,678.66)">
<rect x="33.8" y="919" width="106.2" height="17.7" style="color:black; overflow:visible; fill:#dc0000; stroke-width:2.84; stroke-linejoin:round;"/>
<rect x="874.8" y="-95.8" width="106.2" height="17.7" transform="matrix(0,1,-1,0,0,0)" style="color:black; overflow:visible; fill:#dc0000; stroke-width:2.84; stroke-linejoin:round;"/>
</g>
<rect x="463.2" y="862.3" width="15.3" height="2.5" style="color:black; overflow:visible; fill:#0084c8; stroke-width:2.84; stroke-linejoin:round;"/>
<g transform="matrix(0.144,0,0,0.144,684.62,657.88)">
<rect x="33.8" y="919" width="106.2" height="17.7" style="color:black; overflow:visible; fill:#dc0000; stroke-width:2.84; stroke-linejoin:round;"/>
<rect x="874.8" y="-95.8" width="106.2" height="17.7" transform="matrix(0,1,-1,0,0,0)" style="color:black; overflow:visible; fill:#dc0000; stroke-width:2.84; stroke-linejoin:round;"/>
</g>
<rect x="425.4" y="869.5" width="15.3" height="2.5" style="color:black; overflow:visible; fill:#0084c8; stroke-width:2.84; stroke-linejoin:round;"/>
<g transform="matrix(0.144,0,0,0.144,680.15,713.34)">
<rect x="33.8" y="919" width="106.2" height="17.7" style="color:black; overflow:visible; fill:#dc0000; stroke-width:2.84; stroke-linejoin:round;"/>
<rect x="874.8" y="-95.8" width="106.2" height="17.7" transform="matrix(0,1,-1,0,0,0)" style="color:black; overflow:visible; fill:#dc0000; stroke-width:2.84; stroke-linejoin:round;"/>
</g>
<rect x="804.3" y="870.2" width="15.3" height="2.5" style="color:black; overflow:visible; fill:#0084c8; stroke-width:2.84; stroke-linejoin:round;"/>
<g transform="matrix(0.144,0,0,0.144,355.49,666.33)">
<rect x="33.8" y="919" width="106.2" height="17.7" style="color:black; overflow:visible; fill:#dc0000; stroke-width:2.84; stroke-linejoin:round;"/>
<rect x="874.8" y="-95.8" width="106.2" height="17.7" transform="matrix(0,1,-1,0,0,0)" style="color:black; overflow:visible; fill:#dc0000; stroke-width:2.84; stroke-linejoin:round;"/>
</g>
<rect x="812.5" y="844.6" width="15.3" height="2.5" style="color:black; overflow:visible; fill:#0084c8; stroke-width:2.84; stroke-linejoin:round;"/>
<g transform="matrix(0.144,0,0,0.144,321.82,670.43)">
<rect x="33.8" y="919" width="106.2" height="17.7" style="color:black; overflow:visible; fill:#dc0000; stroke-width:2.84; stroke-linejoin:round;"/>
<rect x="874.8" y="-95.8" width="106.2" height="17.7" transform="matrix(0,1,-1,0,0,0)" style="color:black; overflow:visible; fill:#dc0000; stroke-width:2.84; stroke-linejoin:round;"/>
</g>
<rect x="777.7" y="856.9" width="15.3" height="2.5" style="color:black; overflow:visible; fill:#0084c8; stroke-width:2.84; stroke-linejoin:round;"/>
<g transform="matrix(0.144,0,0,0.144,313.65,700.06)">
<rect x="33.8" y="919" width="106.2" height="17.7" style="color:black; overflow:visible; fill:#dc0000; stroke-width:2.84; stroke-linejoin:round;"/>
<rect x="874.8" y="-95.8" width="106.2" height="17.7" transform="matrix(0,1,-1,0,0,0)" style="color:black; overflow:visible; fill:#dc0000; stroke-width:2.84; stroke-linejoin:round;"/>
</g>
<rect x="829.7" y="826.5" width="15.3" height="2.5" style="color:black; overflow:visible; fill:#0084c8; stroke-width:2.84; stroke-linejoin:round;"/>
<g transform="matrix(0.144,0,0,0.144,432.16,649.98)">
<rect x="33.8" y="919" width="106.2" height="17.7" style="color:black; overflow:visible; fill:#dc0000; stroke-width:2.84; stroke-linejoin:round;"/>
<rect x="874.8" y="-95.8" width="106.2" height="17.7" transform="matrix(0,1,-1,0,0,0)" style="color:black; overflow:visible; fill:#dc0000; stroke-width:2.84; stroke-linejoin:round;"/>
</g>
<path style="color:black; overflow:visible; fill:#4e9a06; fill-opacity:0.97; stroke-width:2.84; stroke-linejoin:round;" d="m 286.8,1065.2 0,-40.9 c 0,0 44.6,-12.3 90.7,-13.2 46.1,-1.1 124.5,15.3 162.2,16.3 37.7,1 63.8,23.5 96.1,17.4 32.3,-6.1 63.8,-48.7 106.1,-42.9 42.2,5.6 94.7,15 140.6,8.1 l 0,56.2 -595.6,0"/>
<rect x="355.9" y="1029.3" width="15.3" height="2.5" style="color:black; overflow:visible; fill:#0084c8; stroke-width:2.84; stroke-linejoin:round;"/>
<g id="id27" transform="matrix(0.144,0,0,0.144,426.63,896.48)">
<rect x="33.8" y="919" width="106.2" height="17.7" style="color:black; overflow:visible; fill:#dc0000; stroke-width:2.84; stroke-linejoin:round;"/>
<rect x="874.8" y="-95.8" width="106.2" height="17.7" transform="matrix(0,1,-1,0,0,0)" style="color:black; overflow:visible; fill:#dc0000; stroke-width:2.84; stroke-linejoin:round;"/>
</g>
<rect id="id26" x="334.4" y="1041.5" width="15.3" height="2.5" style="color:black; overflow:visible; fill:#0084c8; stroke-width:2.84; stroke-linejoin:round;"/>
<g transform="matrix(0.144,0,0,0.144,465.1,905.47)">
<rect x="33.8" y="919" width="106.2" height="17.7" style="color:black; overflow:visible; fill:#dc0000; stroke-width:2.84; stroke-linejoin:round;"/>
<rect x="874.8" y="-95.8" width="106.2" height="17.7" transform="matrix(0,1,-1,0,0,0)" style="color:black; overflow:visible; fill:#dc0000; stroke-width:2.84; stroke-linejoin:round;"/>
</g>
<rect x="710.6" y="1027.8" width="15.3" height="2.5" style="color:black; overflow:visible; fill:#0084c8; stroke-width:2.84; stroke-linejoin:round;"/>
<g transform="matrix(0.144,0,0,0.144,781.16,893.48)">
<rect x="33.8" y="919" width="106.2" height="17.7" style="color:black; overflow:visible; fill:#dc0000; stroke-width:2.84; stroke-linejoin:round;"/>
<rect x="874.8" y="-95.8" width="106.2" height="17.7" transform="matrix(0,1,-1,0,0,0)" style="color:black; overflow:visible; fill:#dc0000; stroke-width:2.84; stroke-linejoin:round;"/>
</g>
<rect x="682.2" y="1038.2" width="15.3" height="2.5" style="color:black; overflow:visible; fill:#0084c8; stroke-width:2.84; stroke-linejoin:round;"/>
<g transform="matrix(0.144,0,0,0.144,821.64,891.98)">
<rect x="33.8" y="919" width="106.2" height="17.7" style="color:black; overflow:visible; fill:#dc0000; stroke-width:2.84; stroke-linejoin:round;"/>
<rect x="874.8" y="-95.8" width="106.2" height="17.7" transform="matrix(0,1,-1,0,0,0)" style="color:black; overflow:visible; fill:#dc0000; stroke-width:2.84; stroke-linejoin:round;"/>
</g>
<rect x="387.3" y="1039" width="15.3" height="2.5" style="color:black; overflow:visible; fill:#0084c8; stroke-width:2.84; stroke-linejoin:round;"/>
<g transform="matrix(0.144,0,0,0.144,506.07,909.22)">
<rect x="33.8" y="919" width="106.2" height="17.7" style="color:black; overflow:visible; fill:#dc0000; stroke-width:2.84; stroke-linejoin:round;"/>
<rect x="874.8" y="-95.8" width="106.2" height="17.7" transform="matrix(0,1,-1,0,0,0)" style="color:black; overflow:visible; fill:#dc0000; stroke-width:2.84; stroke-linejoin:round;"/>
</g>
<rect x="536.5" y="832.9" width="15.3" height="2.5" style="color:black; overflow:visible; fill:#0084c8; stroke-width:2.84; stroke-linejoin:round;"/>
<g transform="matrix(0.144,0,0,0.144,342.68,692.61)">
<rect x="33.8" y="919" width="106.2" height="17.7" style="color:black; overflow:visible; fill:#dc0000; stroke-width:2.84; stroke-linejoin:round;"/>
<rect x="874.8" y="-95.8" width="106.2" height="17.7" transform="matrix(0,1,-1,0,0,0)" style="color:black; overflow:visible; fill:#dc0000; stroke-width:2.84; stroke-linejoin:round;"/>
</g>
<g id="id28" transform="matrix(-0.98653,0.16338,-0.16338,-0.98653,837.2,1349.9)">
<g>
<g transform="matrix(1.5772,0,0,1.5772,-31.923,-414.61)">
<g transform="translate(-8.3593,-0.22593)">
<path style="color:black; overflow:visible; fill:none; stroke:white; stroke-width:1.89; stroke-linejoin:round;" d="m 122,599.9 -14.9,-1.8 -4.6,1.6 -4.9,-0.5 -3,-9 -0.3,-3.2 -2.8,-2.5 -1.8,-0.1 -2.7,1.3 -8.1,-0.5 -8.8,4.5"/>
<path style="color:black; overflow:visible; fill:none; stroke:white; stroke-width:1.14; stroke-linejoin:round;" d="m 98.8,599.8 -5.3,-1.3 -3.6,-1.9 -4.6,-0.7 -3.1,1.5 -1.9,2.3 -3.7,-1.2"/>
<path style="color:black; overflow:visible; fill:none; stroke:white; stroke-width:2.84; stroke-linejoin:round;" d="m 155.3,598.1 -7.8,-1.9 -10.1,-2.1 -12.9,3.3 -3.1,2.9"/>
<path style="color:black; overflow:visible; fill:none; stroke:white; stroke-width:1.54; stroke-linejoin:round;" d="M 96.9,609.6 111,609.9 122.2,600.7"/>
</g>
</g>
</g>
<g style="filter:url(#id13);">
<g transform="matrix(1.5772,0,0,1.5772,-31.923,-414.61)">
<g transform="translate(-8.3593,-0.22593)">
<path style="color:black; overflow:visible; fill:none; stroke:white; stroke-width:1.89; stroke-linejoin:round;" d="m 122,599.9 -14.9,-1.8 -4.6,1.6 -4.9,-0.5 -3,-9 -0.3,-3.2 -2.8,-2.5 -1.8,-0.1 -2.7,1.3 -8.1,-0.5 -8.8,4.5"/>
<path style="color:black; overflow:visible; fill:none; stroke:white; stroke-width:1.14; stroke-linejoin:round;" d="m 98.8,599.8 -5.3,-1.3 -3.6,-1.9 -4.6,-0.7 -3.1,1.5 -1.9,2.3 -3.7,-1.2"/>
<path style="color:black; overflow:visible; fill:none; stroke:white; stroke-width:2.84; stroke-linejoin:round;" d="m 155.3,598.1 -7.8,-1.9 -10.1,-2.1 -12.9,3.3 -3.1,2.9"/>
<path style="color:black; overflow:visible; fill:none; stroke:white; stroke-width:1.54; stroke-linejoin:round;" d="M 96.9,609.6 111,609.9 122.2,600.7"/>
</g>
</g>
</g>
<g style="filter:url(#id13);">
<g transform="matrix(1.5772,0,0,1.5772,-31.923,-414.61)">
<g transform="translate(-8.3593,-0.22593)">
<path style="color:black; overflow:visible; fill:none; stroke:white; stroke-width:1.89; stroke-linejoin:round;" d="m 122,599.9 -14.9,-1.8 -4.6,1.6 -4.9,-0.5 -3,-9 -0.3,-3.2 -2.8,-2.5 -1.8,-0.1 -2.7,1.3 -8.1,-0.5 -8.8,4.5"/>
<path style="color:black; overflow:visible; fill:none; stroke:white; stroke-width:1.14; stroke-linejoin:round;" d="m 98.8,599.8 -5.3,-1.3 -3.6,-1.9 -4.6,-0.7 -3.1,1.5 -1.9,2.3 -3.7,-1.2"/>
<path style="color:black; overflow:visible; fill:none; stroke:white; stroke-width:2.84; stroke-linejoin:round;" d="m 155.3,598.1 -7.8,-1.9 -10.1,-2.1 -12.9,3.3 -3.1,2.9"/>
<path style="color:black; overflow:visible; fill:none; stroke:white; stroke-width:1.54; stroke-linejoin:round;" d="M 96.9,609.6 111,609.9 122.2,600.7"/>
</g>
</g>
</g>
<g style="filter:url(#id14);">
<g transform="matrix(1.5772,0,0,1.5772,-31.923,-414.61)">
<g transform="translate(-8.3593,-0.22593)">
<path style="color:black; overflow:visible; fill:none; stroke:white; stroke-width:1.89; stroke-linejoin:round;" d="m 122,599.9 -14.9,-1.8 -4.6,1.6 -4.9,-0.5 -3,-9 -0.3,-3.2 -2.8,-2.5 -1.8,-0.1 -2.7,1.3 -8.1,-0.5 -8.8,4.5"/>
<path style="color:black; overflow:visible; fill:none; stroke:white; stroke-width:1.14; stroke-linejoin:round;" d="m 98.8,599.8 -5.3,-1.3 -3.6,-1.9 -4.6,-0.7 -3.1,1.5 -1.9,2.3 -3.7,-1.2"/>
<path style="color:black; overflow:visible; fill:none; stroke:white; stroke-width:2.84; stroke-linejoin:round;" d="m 155.3,598.1 -7.8,-1.9 -10.1,-2.1 -12.9,3.3 -3.1,2.9"/>
<path style="color:black; overflow:visible; fill:none; stroke:white; stroke-width:1.54; stroke-linejoin:round;" d="M 96.9,609.6 111,609.9 122.2,600.7"/>
</g>
</g>
</g>
<g style="filter:url(#id14);">
<g transform="matrix(1.5772,0,0,1.5772,-31.923,-414.61)">
<g transform="translate(-8.3593,-0.22593)">
<path style="color:black; overflow:visible; fill:none; stroke:white; stroke-width:1.89; stroke-linejoin:round;" d="m 122,599.9 -14.9,-1.8 -4.6,1.6 -4.9,-0.5 -3,-9 -0.3,-3.2 -2.8,-2.5 -1.8,-0.1 -2.7,1.3 -8.1,-0.5 -8.8,4.5"/>
<path style="color:black; overflow:visible; fill:none; stroke:white; stroke-width:1.14; stroke-linejoin:round;" d="m 98.8,599.8 -5.3,-1.3 -3.6,-1.9 -4.6,-0.7 -3.1,1.5 -1.9,2.3 -3.7,-1.2"/>
<path style="color:black; overflow:visible; fill:none; stroke:white; stroke-width:2.84; stroke-linejoin:round;" d="m 155.3,598.1 -7.8,-1.9 -10.1,-2.1 -12.9,3.3 -3.1,2.9"/>
<path style="color:black; overflow:visible; fill:none; stroke:white; stroke-width:1.54; stroke-linejoin:round;" d="M 96.9,609.6 111,609.9 122.2,600.7"/>
</g>
</g>
</g>
</g>
<g transform="translate(596.3,990.54)">
<path style="fill:url(#id15); stroke-width:1px;" d="M 45.4,9.2 30.3,22.9 28.4,23.3 28.2,62.3 56.3,56.9 56.5,18.1 57.6,17.8 45.4,9.2 Z"/>
<path style="fill:url(#id16); stroke-width:1px;" d="m 28.4,23.7 -20.3,-6.9 0,39.4 20.1,6.2 0.2,-38.7 z"/>
<path style="fill:url(#id17); stroke-width:1px;" d="M 22,29.5 45.6,7.5 20.9,5.7 -0.2,23.3 22,29.5 Z"/>
<path style="fill:url(#id18); stroke-width:1px;" d="m 0.2,23.1 0,2.6 L 23.7,30.8 45.8,11.1 46,7.2 22.5,27.6 0.2,23.1 Z"/>
<path style="fill:url(#id19); stroke-width:1px;" d="M 45.4,7.3 64.2,20.3 63.1,22.5 45.8,11.1 45.4,7.3 Z"/>
<path style="fill:url(#id20); stroke-width:1px;" d="m 34,26.1 19.5,-2.4 -0.2,22.1 -19.7,3 0.4,-22.7 z"/>
<path style="fill:url(#id21); stroke-width:1px;" d="m 51.6,26.1 -5.8,0.7 0,6.9 5.8,-0.8 0,-6.9 z m -9.2,1 -6.6,0.6 -0,7 6.6,-0.7 0,-6.9 z m 9.2,9.2 -5.8,0.8 0,7.5 5.8,-0.9 0,-7.4 z m -9.2,1.1 -6.7,0.7 -0,7.8 6.8,-0.9 0,-7.6 z"/>
<path style="fill:url(#id22); stroke-width:1px;" d="m 13.2,57.4 0,-27.2 10.7,2.3 0,28.1 -10.7,-3.2 z"/>
<path transform="matrix(0.85771,0,0,1.1257,0.76487,-4.6583)" style="fill:#836f7c; stroke-width:0.38;" d="m 25.8,43.9 a 1.8,1.9 0 1 1 -3.5,0 1.8,1.9 0 1 1 3.5,0 z"/>
<path transform="matrix(0.85771,0,0,1.1257,-0.36087,-5.5965)" style="fill:url(#id23); stroke-width:0.38;" d="m 25.8,43.9 a 1.8,1.9 0 1 1 -3.5,0 1.8,1.9 0 1 1 3.5,0 z"/>
<path style="fill:#596067; stroke-width:1px;" d="m 15.8,3.2 5.3,-0.6 6.8,0 -5.6,1.7 -6.4,-1.1 z"/>
<path style="fill:url(#id24); stroke-width:1px;" d="m 15.8,17.1 6.9,1.3 0,-14.6 -6.9,-0.4 0,13.7 z"/>
<path style="fill:url(#id25); stroke-width:1px;" d="m 22.5,3.6 5.4,-0.8 -0.2,11.6 -5.3,3.8 0,-14.6 z"/>
</g>
<use transform="translate(193.87,-174.89)" xlink:href="#id26" x="0" y="0"/>
<g transform="matrix(0.144,0,0,0.144,686.72,688.86)">
<rect x="33.8" y="919" width="106.2" height="17.7" style="color:black; overflow:visible; fill:#dc0000; stroke-width:2.84; stroke-linejoin:round;"/>
<rect x="874.8" y="-95.8" width="106.2" height="17.7" transform="matrix(0,1,-1,0,0,0)" style="color:black; overflow:visible; fill:#dc0000; stroke-width:2.84; stroke-linejoin:round;"/>
</g>
<rect x="836.3" y="862.1" width="15.3" height="2.5" style="color:black; overflow:visible; fill:#0084c8; stroke-width:2.84; stroke-linejoin:round;"/>
<use transform="translate(-29.232,-245.1)" xlink:href="#id27" x="0" y="0"/>
<use transform="matrix(-0.17544,1.169,-0.93024,-0.22047,1386.9,411.98)" xlink:href="#id28" x="0" y="0"/>
<use transform="matrix(-0.71019,-0.41846,-0.41111,0.51982,1184.7,654.33)" xlink:href="#id28" x="0" y="0"/>
</g>
</svg>
