<?xml version="1.0" encoding="UTF-8" standalone="no"?>
<!-- Copyright 2017 mathsisfun.com -->
<svg xmlns="http://www.w3.org/2000/svg" width="68.4" height="171.5" version="1.1">
<defs>
<marker id="id3" style="overflow:visible;" orient="auto">
<path transform="scale(-0.6)" style="fill:#19aeff; stroke:#19aeff; stroke-width:0.63; stroke-linejoin:round;" d="M 8.7,4 -2.2,0 8.7,-4 C 7,-1.6 7,1.6 8.7,4 Z"/>
</marker>
<marker id="id1" style="overflow:visible;" orient="auto">
<path transform="scale(-0.6)" style="fill:#19aeff; stroke:#19aeff; stroke-width:0.63; stroke-linejoin:round;" d="M 8.7,4 -2.2,0 8.7,-4 C 7,-1.6 7,1.6 8.7,4 Z"/>
</marker>
<marker id="id2" style="overflow:visible;" orient="auto">
<path transform="scale(-0.6)" style="fill:#204a87; stroke:#204a87; stroke-width:0.63; stroke-linejoin:round;" d="M 8.7,4 -2.2,0 8.7,-4 C 7,-1.6 7,1.6 8.7,4 Z"/>
</marker>
</defs>
<path style="marker-end:url(#id1); fill:#19aeff; stroke:#19aeff; stroke-width:4.08;" d="M 57.9,2 11.7,81.8"/>
<path style="marker-end:url(#id2); fill:#204a87; stroke:#204a87; stroke-width:4.08;" d="M 57.9,170.6 V 6.2"/>
<path style="marker-end:url(#id3); fill:#19aeff; stroke:#19aeff; stroke-width:4.08;" d="M 9.5,86.3 55.6,166"/>
<text x="-112.8" y="52.6" transform="rotate(-90)" style="font-family:Arial; font-size:18.9px; color:black; overflow:visible; fill:#204a87; stroke-width:2.42px;">Tower</text>
<text x="91" y="52.8" transform="rotate(60.0001)" style="font-family:Arial; font-size:18.9px; color:black; overflow:visible; fill:#19aeff; stroke-width:2.42px;">Cable</text>
<text x="-33.8" y="42.5" transform="rotate(-60.0001)" style="font-family:Arial; font-size:18.9px; color:black; overflow:visible; fill:#19aeff; stroke-width:2.42px;">Cable</text>
</svg>
