<?xml version="1.0" encoding="UTF-8" standalone="no"?>
<!-- Created with Inkscape (http://www.inkscape.org/) -->

<svg
   width="318.97"
   height="194.683"
   id="svg2441"
   sodipodi:version="0.32"
   inkscape:version="1.1 (c68e22c387, 2021-05-23)"
   sodipodi:docname="table-coins.svg"
   inkscape:output_extension="org.inkscape.output.svg.inkscape"
   version="1.1"
   xmlns:inkscape="http://www.inkscape.org/namespaces/inkscape"
   xmlns:sodipodi="http://sodipodi.sourceforge.net/DTD/sodipodi-0.dtd"
   xmlns:xlink="http://www.w3.org/1999/xlink"
   xmlns="http://www.w3.org/2000/svg"
   xmlns:svg="http://www.w3.org/2000/svg"
   xmlns:rdf="http://www.w3.org/1999/02/22-rdf-syntax-ns#"
   xmlns:cc="http://creativecommons.org/ns#"
   xmlns:dc="http://purl.org/dc/elements/1.1/">
  <sodipodi:namedview
     id="base"
     pagecolor="#ffffff"
     bordercolor="#666666"
     borderopacity="1.0"
     gridtolerance="10000"
     guidetolerance="10"
     objecttolerance="10"
     inkscape:pageopacity="0.0"
     inkscape:pageshadow="2"
     inkscape:zoom="0.32151783"
     inkscape:cx="1011.8587"
     inkscape:cy="928.40876"
     inkscape:document-units="px"
     inkscape:current-layer="layer1"
     showgrid="false"
     showborder="true"
     inkscape:window-width="1680"
     inkscape:window-height="925"
     inkscape:window-x="-4"
     inkscape:window-y="-4"
     inkscape:pagecheckerboard="0"
     inkscape:snap-global="false" />
  <defs
     id="defs2443">
    <linearGradient
       id="linearGradient7620">
      <stop
         id="stop7621"
         offset="0.0000000"
         style="stop-color:#fafafa;stop-opacity:1" />
      <stop
         id="stop7622"
         offset="1.0000000"
         style="stop-color:#806f37;stop-opacity:0" />
    </linearGradient>
    <linearGradient
       gradientTransform="scale(1.4281,0.700229)"
       gradientUnits="userSpaceOnUse"
       id="linearGradient7638"
       x1="19.2754"
       x2="69.6089"
       xlink:href="#linearGradient7620"
       y1="35.8678"
       y2="74.922" />
    <linearGradient
       gradientTransform="matrix(1.70933,0,0,0.446303,-139.859,-333.712)"
       gradientUnits="userSpaceOnUse"
       id="linearGradient6830"
       x1="84.4132"
       x2="252.181"
       xlink:href="#linearGradient1683"
       y1="839.427"
       y2="839.427" />
    <linearGradient
       gradientTransform="matrix(2.61896,0,0,1.98601,-350.826,-852.554)"
       gradientUnits="userSpaceOnUse"
       id="linearGradient6829"
       x1="145.422"
       x2="203.387"
       xlink:href="#linearGradient3567"
       y1="542.161"
       y2="487.138" />
    <linearGradient
       gradientTransform="scale(0.607074,1.64725)"
       gradientUnits="userSpaceOnUse"
       id="linearGradient8912"
       x1="35.8313"
       x2="12.3281"
       xlink:href="#linearGradient7629"
       y1="24.8627"
       y2="48.0691" />
    <linearGradient
       gradientTransform="matrix(0.647024,0,0,7.0239,-440.813,-905.624)"
       gradientUnits="userSpaceOnUse"
       id="linearGradient6828"
       x1="797.599"
       x2="756.83"
       xlink:href="#linearGradient1683"
       y1="166.338"
       y2="166.338" />
    <linearGradient
       gradientTransform="matrix(0.217032,0,0,3.07128,-174.538,-354.338)"
       gradientUnits="userSpaceOnUse"
       id="linearGradient6827"
       x1="836.71"
       x2="873.074"
       xlink:href="#linearGradient1683"
       y1="143.255"
       y2="143.255" />
    <linearGradient
       id="linearGradient3567">
      <stop
         id="stop3568"
         offset="0.0000000"
         style="stop-color:#806f37;stop-opacity:1" />
      <stop
         id="stop3569"
         offset="1.0000000"
         style="stop-color:#bea451;stop-opacity:1" />
    </linearGradient>
    <linearGradient
       gradientTransform="matrix(5.50961,0,0,0.944038,-351.015,-850.872)"
       gradientUnits="userSpaceOnUse"
       id="linearGradient6826"
       x1="146.819"
       x2="178.206"
       xlink:href="#linearGradient3567"
       y1="1031.09"
       y2="1173.5" />
    <linearGradient
       gradientTransform="matrix(0.767323,0,0,1.30323,0,0.998287)"
       gradientUnits="userSpaceOnUse"
       id="linearGradient8907"
       x1="97.3891"
       x2="90.1613"
       xlink:href="#linearGradient7629"
       y1="58.9409"
       y2="78.7161" />
    <linearGradient
       gradientTransform="scale(0.595437,1.67944)"
       gradientUnits="userSpaceOnUse"
       id="linearGradient8280"
       x1="453.016"
       x2="489.24"
       xlink:href="#linearGradient7629"
       y1="33.9462"
       y2="58.5419" />
    <linearGradient
       id="linearGradient7629">
      <stop
         id="stop7630"
         offset="0.0000000"
         style="stop-color:#000000;stop-opacity:1" />
      <stop
         id="stop7631"
         offset="1.0000000"
         style="stop-color:#806f37;stop-opacity:0" />
    </linearGradient>
    <linearGradient
       gradientTransform="scale(0.687354,1.45485)"
       gradientUnits="userSpaceOnUse"
       id="linearGradient8264"
       x1="315.936"
       x2="297.272"
       xlink:href="#linearGradient7629"
       y1="40.6271"
       y2="67.2406" />
    <linearGradient
       gradientTransform="matrix(0.647024,0,0,7.0239,248.086,-881.187)"
       gradientUnits="userSpaceOnUse"
       id="linearGradient6825"
       x1="797.599"
       x2="756.83"
       xlink:href="#linearGradient1683"
       y1="166.338"
       y2="166.338" />
    <linearGradient
       gradientTransform="matrix(0.566697,0,0,8.01949,247.709,-881.41)"
       gradientUnits="userSpaceOnUse"
       id="linearGradient6824"
       x1="836.71"
       x2="873.074"
       xlink:href="#linearGradient1683"
       y1="143.255"
       y2="143.255" />
    <linearGradient
       gradientTransform="matrix(0.63111,0,0,6.86006,76.1861,-946.479)"
       gradientUnits="userSpaceOnUse"
       id="linearGradient6823"
       x1="797.599"
       x2="756.83"
       xlink:href="#linearGradient1683"
       y1="166.338"
       y2="166.338" />
    <linearGradient
       gradientTransform="matrix(0.552759,0,0,7.83242,75.8091,-946.702)"
       gradientUnits="userSpaceOnUse"
       id="linearGradient6822"
       x1="836.71"
       x2="873.074"
       xlink:href="#linearGradient1683"
       y1="143.255"
       y2="143.255" />
    <linearGradient
       gradientTransform="matrix(0.710673,0,0,7.31881,-347.971,-853.436)"
       gradientUnits="userSpaceOnUse"
       id="linearGradient6821"
       x1="797.599"
       x2="756.83"
       xlink:href="#linearGradient1683"
       y1="166.338"
       y2="166.338" />
    <linearGradient
       id="linearGradient1683">
      <stop
         id="stop1684"
         offset="0.0000000"
         style="stop-color:#806f37;stop-opacity:1" />
      <stop
         id="stop1685"
         offset="1.0000000"
         style="stop-color:#574b25;stop-opacity:1" />
    </linearGradient>
    <linearGradient
       gradientTransform="matrix(0.622445,0,0,8.3562,-348.16,-853.66)"
       gradientUnits="userSpaceOnUse"
       id="linearGradient6820"
       x1="836.71"
       x2="873.074"
       xlink:href="#linearGradient1683"
       y1="143.255"
       y2="143.255" />
    <marker
       style="overflow:visible"
       id="Arrow1Lstart6"
       refX="0"
       refY="0"
       orient="auto"
       inkscape:stockid="Arrow1Lstart6">
      <path
         transform="matrix(0.8,0,0,0.8,10,0)"
         style="fill:#fd3301;fill-rule:evenodd;stroke:#fd3301;stroke-width:1pt;marker-start:none"
         d="M 0,0 5,-5 -12.5,0 5,5 Z"
         id="path6234"
         inkscape:connector-curvature="0" />
    </marker>
    <marker
       style="overflow:visible"
       id="Arrow1Lend0"
       refX="0"
       refY="0"
       orient="auto"
       inkscape:stockid="Arrow1Lend0">
      <path
         transform="matrix(-0.8,0,0,-0.8,-10,0)"
         style="fill:#fd3301;fill-rule:evenodd;stroke:#fd3301;stroke-width:1pt;marker-start:none"
         d="M 0,0 5,-5 -12.5,0 5,5 Z"
         id="path6237"
         inkscape:connector-curvature="0" />
    </marker>
    <marker
       style="overflow:visible"
       id="Arrow1Lstart-5"
       refX="0"
       refY="0"
       orient="auto"
       inkscape:stockid="Arrow1Lstart">
      <path
         transform="matrix(0.8,0,0,0.8,10,0)"
         style="fill-rule:evenodd;stroke:#000000;stroke-width:1pt;marker-start:none"
         d="M 0,0 5,-5 -12.5,0 5,5 Z"
         id="path4231"
         inkscape:connector-curvature="0" />
    </marker>
    <marker
       style="overflow:visible"
       id="Arrow1Lend-2"
       refX="0"
       refY="0"
       orient="auto"
       inkscape:stockid="Arrow1Lend">
      <path
         transform="matrix(-0.8,0,0,-0.8,-10,0)"
         style="fill-rule:evenodd;stroke:#000000;stroke-width:1pt;marker-start:none"
         d="M 0,0 5,-5 -12.5,0 5,5 Z"
         id="path4234"
         inkscape:connector-curvature="0" />
    </marker>
    <filter
       id="id12"
       x="-0.121017"
       y="-0.43543"
       width="1.24032"
       height="1.89008">
      <feGaussianBlur
         stdDeviation="1.464063"
         id="feGaussianBlur66" />
    </filter>
    <linearGradient
       id="id13"
       gradientTransform="matrix(4.20847,0,0,4.20847,-1183.09,-217.989)"
       xlink:href="#id11"
       x1="112.8"
       y1="92.8"
       x2="129.5"
       y2="117.6"
       gradientUnits="userSpaceOnUse" />
    <linearGradient
       id="id11">
      <stop
         offset="0"
         style="stop-color:white;stop-opacity:1"
         id="stop61" />
      <stop
         offset="1"
         style="stop-color:white;stop-opacity:0"
         id="stop63" />
    </linearGradient>
    <radialGradient
       id="id14"
       r="3.26398"
       fx="285.229"
       fy="4005.47"
       cx="285.2"
       cy="4005.5"
       xlink:href="#id11"
       gradientUnits="userSpaceOnUse" />
    <linearGradient
       id="id15"
       xlink:href="#id11"
       x1="282.2"
       y1="3999.8"
       x2="288.5"
       y2="4009.8"
       gradientUnits="userSpaceOnUse" />
    <filter
       id="id16"
       x="-0.121017"
       y="-0.43543"
       width="1.24032"
       height="1.89008">
      <feGaussianBlur
         stdDeviation="1.464063"
         id="feGaussianBlur45" />
    </filter>
    <radialGradient
       id="id18"
       r="3.26398"
       fx="285.229"
       fy="4005.47"
       cx="285.2"
       cy="4005.5"
       gradientTransform="matrix(21.3362,0,-3.73333,13.7731,8210.98,-54971)"
       xlink:href="#id11"
       gradientUnits="userSpaceOnUse" />
    <linearGradient
       id="id19"
       gradientTransform="matrix(15.0929,0,-2.64091,9.74288,5621.59,-38823.6)"
       xlink:href="#id11"
       x1="282.2"
       y1="3999.8"
       x2="288.5"
       y2="4009.8"
       gradientUnits="userSpaceOnUse" />
    <linearGradient
       inkscape:collect="always"
       xlink:href="#id11"
       id="linearGradient3226"
       gradientUnits="userSpaceOnUse"
       gradientTransform="matrix(4.20847,0,0,4.20847,-1183.09,-217.989)"
       x1="112.8"
       y1="92.8"
       x2="129.5"
       y2="117.6" />
  </defs>
  <metadata
     id="metadata2446">
    <rdf:RDF>
      <cc:Work
         rdf:about="">
        <dc:format>image/svg+xml</dc:format>
        <dc:type
           rdf:resource="http://purl.org/dc/dcmitype/StillImage" />
      </cc:Work>
    </rdf:RDF>
  </metadata>
  <g
     id="layer1"
     inkscape:groupmode="layer"
     inkscape:label="Layer 1"
     transform="translate(893.728,-429.259)">
    <g
       id="g9554"
       transform="matrix(1.10592,0,0,1.10592,-897.637,425.568)">
      <path
         d="m 172.974,205.854 v 267.088 l 20.363,14.292 v -276.02 z"
         id="path1689"
         style="fill:url(#linearGradient6820);fill-opacity:1;fill-rule:evenodd;stroke:#000000;stroke-width:0.570158pt;stroke-linecap:butt;stroke-linejoin:miter;stroke-opacity:1"
         transform="matrix(0.382977,0,0,0.382977,-5.5718,-7.5054)"
         inkscape:connector-curvature="0" />
      <path
         d="m 193.746,213.332 -0.312,273.918 26.708,-4.821 v -272.67 z"
         id="path2315"
         style="fill:url(#linearGradient6821);fill-opacity:1;fill-rule:evenodd;stroke:#000000;stroke-width:0.570158pt;stroke-linecap:butt;stroke-linejoin:miter;stroke-opacity:1"
         transform="matrix(0.382977,0,0,0.382977,-5.5718,-7.5054)"
         inkscape:connector-curvature="0" />
      <path
         d="m 538.601,46.4 0.188,251.016 17.895,12.727 V 51.4237 Z"
         id="path4821"
         style="fill:url(#linearGradient6822);fill-opacity:1;fill-rule:evenodd;stroke:#000000;stroke-width:0.520184pt;stroke-linecap:butt;stroke-linejoin:miter;stroke-opacity:1"
         transform="matrix(0.382977,0,0,0.382977,-5.5718,-7.5054)"
         inkscape:connector-curvature="0" />
      <path
         d="m 557.257,53.4232 -0.277,256.7478 23.718,-4.336 V 50.0741 Z"
         id="path4822"
         style="fill:url(#linearGradient6823);fill-opacity:1;fill-rule:evenodd;stroke:#000000;stroke-width:0.520184pt;stroke-linecap:butt;stroke-linejoin:miter;stroke-opacity:1"
         transform="matrix(0.382977,0,0,0.382977,-5.5718,-7.5054)"
         inkscape:connector-curvature="0" />
      <path
         d="m 722.169,135.411 v 256.995 l 18.539,13.046 V 140.554 Z"
         id="path4825"
         style="fill:url(#linearGradient6824);fill-opacity:1;fill-rule:evenodd;stroke:#000000;stroke-width:0.532953pt;stroke-linecap:butt;stroke-linejoin:miter;stroke-opacity:1"
         transform="matrix(0.382977,0,0,0.382977,-5.5718,-7.5054)"
         inkscape:connector-curvature="0" />
      <path
         d="m 741.286,142.596 -0.284,262.88 24.316,-4.509 v -261.8 z"
         id="path4826"
         style="fill:url(#linearGradient6825);fill-opacity:1;fill-rule:evenodd;stroke:#000000;stroke-width:0.532953pt;stroke-linecap:butt;stroke-linejoin:miter;stroke-opacity:1"
         transform="matrix(0.382977,0,0,0.382977,-5.5718,-7.5054)"
         inkscape:connector-curvature="0" />
      <path
         d="m 201.083,59.9959 -0.142,9.2698 c 0,0 -0.571,-1.5687 1.711,-3.28 2.282,-1.7114 -0.285,11.6942 -0.285,11.6942 0,0 2.71,-10.2681 3.565,-6.988 0.856,3.2801 1.569,15.1169 1.569,15.1169 0,0 3.423,-11.1238 4.991,-7.2732 1.569,3.8505 4.279,14.2612 4.279,14.2612 l 0.142,-33.9418 z"
         id="path7639"
         style="opacity:0.8;fill:url(#linearGradient8264);fill-opacity:1;fill-rule:evenodd;stroke:#000000;stroke-width:0;stroke-linecap:butt;stroke-linejoin:miter;stroke-miterlimit:4;stroke-opacity:1"
         inkscape:connector-curvature="0" />
      <path
         d="m 270.964,50.4409 0.142,46.4917 c 0.143,0 0.571,-7.5585 2.282,-7.4159 1.854,-0.4278 4.278,1.2835 4.278,1.4261 0,0 -5.704,-13.6908 -2.709,-12.6925 2.852,0.9983 5.704,3.8506 5.419,3.708 0.143,0 -4.136,-18.2544 -1.284,-16.4005 2.853,1.854 3.423,5.5619 3.851,5.9897 0.57,-0.4278 -1.854,-8.9845 -0.143,-9.8402 1.997,-0.8557 4.421,8.2715 4.421,8.2715 l 0.428,-21.8197 z"
         id="path8276"
         style="opacity:0.497653;fill:url(#linearGradient8280);fill-opacity:1;fill-rule:evenodd;stroke:#000000;stroke-width:0;stroke-linecap:butt;stroke-linejoin:miter;stroke-miterlimit:4;stroke-opacity:1"
         inkscape:connector-curvature="0" />
      <path
         d="m 60.8955,76.6816 -0.1426,6.2749 c 0,0 0.1426,-2.4244 2.2818,-1.4261 2.1392,0.9983 5.5619,8.5568 5.5619,8.5568 0,0 0.5704,-5.9898 2.1392,-3.5653 1.5687,2.4244 1.7113,9.2698 1.7113,9.2698 0,0 2.4244,-11.1238 3.8505,-5.1341 1.4262,5.9897 2.4244,16.5434 2.4244,16.5434 V 79.6765 l -10.1254,1.5687 z"
         id="path8282"
         style="opacity:0.6;fill:url(#linearGradient8907);fill-opacity:1;fill-rule:evenodd;stroke:#000000;stroke-width:0;stroke-linecap:butt;stroke-linejoin:miter;stroke-miterlimit:4;stroke-opacity:1"
         inkscape:connector-curvature="0" />
      <path
         d="m 190.799,224.372 v 11.686 l 584.476,-88.114 v -11.369 l -584.352,87.682"
         id="path2941"
         style="fill:url(#linearGradient6826);fill-opacity:1;fill-rule:evenodd;stroke:#000000;stroke-width:0.570158pt;stroke-linecap:butt;stroke-linejoin:miter;stroke-opacity:1"
         transform="matrix(0.382977,0,0,0.382977,-5.5718,-7.5054)"
         inkscape:connector-curvature="0" />
      <path
         d="m 7.16886,35.0805 0.0722,98.5085 7.02784,4.911 V 37.0504 Z"
         id="path5455"
         style="fill:url(#linearGradient6827);fill-opacity:1;fill-rule:evenodd;stroke:#000000;stroke-width:0.204109pt;stroke-linecap:butt;stroke-linejoin:miter;stroke-opacity:1"
         inkscape:connector-curvature="0" />
      <path
         d="M 52.387,118.159 52.1025,381.04 76.2304,376.307 76.419,114.73 Z"
         id="path5456"
         style="fill:url(#linearGradient6828);fill-opacity:1;fill-rule:evenodd;stroke:#000000;stroke-width:0.532953pt;stroke-linecap:butt;stroke-linejoin:miter;stroke-opacity:1"
         transform="matrix(0.382977,0,0,0.382977,-5.5718,-7.5054)"
         inkscape:connector-curvature="0" />
      <path
         d="m 7.1598,38.2957 v 6.1513 c 0,0 1.41179,-1.7143 2.82358,-0.4033 1.41182,1.3109 0.73332,6.5171 0.73332,6.5171 0,0 1.591,-3.0598 2.9316,-2.7126 1.3977,0.3621 2.5639,4.1334 2.5282,5.2582 -0.031,1.1126 -1.2519,11.3074 -1.2519,11.3074 0,0 2.0097,-4.8911 3.3207,-4.4877 1.3109,0.4033 -2.6953,12.493 -2.7962,12.5939 0.1084,-0.032 2.8379,-5.5738 4.048,-2.7502 1.2102,2.8236 -2.5843,10.623 -2.5425,10.623 0.1426,0.1009 2.9805,-4.8231 3.8881,-3.2096 0.9076,1.6134 2.4274,17.111 2.4274,17.111 l 0.4278,-43.8975 z"
         id="path8908"
         style="opacity:0.5;fill:url(#linearGradient8912);fill-opacity:1;fill-rule:evenodd;stroke:#000000;stroke-width:0;stroke-linecap:butt;stroke-linejoin:miter;stroke-miterlimit:4;stroke-opacity:1"
         inkscape:connector-curvature="0" />
      <path
         d="M 190.647,235.887 24.5311,119.027 24.3977,109.332 190.67,224.378 l -0.02,11.509 z"
         id="path4191"
         style="fill:url(#linearGradient6829);fill-opacity:1;fill-rule:evenodd;stroke:#000000;stroke-width:0.570158pt;stroke-linecap:butt;stroke-linejoin:miter;stroke-opacity:1"
         transform="matrix(0.382977,0,0,0.382977,-5.5718,-7.5054)"
         inkscape:connector-curvature="0" />
      <path
         d="M 3.83452,34.4266 67.5218,78.2156 291.655,44.6896 210.782,3.63746 Z"
         id="path4829"
         style="fill:url(#linearGradient6830);fill-opacity:1;fill-rule:evenodd;stroke:#000000;stroke-width:0.600482;stroke-linecap:butt;stroke-linejoin:round;stroke-miterlimit:4;stroke-opacity:1"
         inkscape:connector-curvature="0" />
      <path
         d="M 51.2278,66.3298 C 51.4295,66.5315 3.832,34.262 3.832,34.262 c 0,0 15.328,-1.6135 22.5887,-3.227 C 33.6813,29.4215 96.8085,18.1272 99.6321,20.1441 102.456,22.1609 82.2872,30.43 82.2872,30.43 c 0,0 -7.2606,-2.0169 -12.101,1.2101 -4.8405,3.2269 -4.0337,8.8741 -4.0337,8.8741 0,0 -5.6472,-6.4539 -12.9078,-5.2438 -7.2607,1.2101 4.8404,9.6808 4.8404,9.6808 0,0 -14.1179,-8.4707 -20.9752,-4.0336 -6.8572,4.437 14.3196,25.0088 14.1179,25.4122 z"
         id="path7634"
         style="opacity:0.234742;fill:url(#linearGradient7638);fill-opacity:1;fill-rule:evenodd;stroke:#000000;stroke-width:0;stroke-linecap:butt;stroke-linejoin:miter;stroke-miterlimit:4;stroke-opacity:1"
         inkscape:connector-curvature="0" />
    </g>
    <g
       id="g6492"
       transform="matrix(0.144447,0,0,0.144447,-703.351,449.415)">
      <path
         style="fill:#f29519"
         d="m -708.337,215.723 c -1,77.2 144.6,54.1 140.2,-9 z"
         id="path73" />
      <path
         style="fill:url(#linearGradient3226)"
         d="m -708.337,215.723 c -1,77.2 144.6,54.1 140.2,-9 z"
         id="path75" />
      <g
         transform="matrix(3.92274,0,-0.686387,2.53223,-1085.71,-28.6621)"
         id="g87">
        <path
           transform="matrix(5.4391,0,0,5.4391,-1426.54,-21697.2)"
           style="fill:#fdca01;stroke:#f2a638;stroke-width:0.21"
           d="m 289.5,4006.6 c 0,1.7 -1.4,3.2 -3.2,3.2 -1.7,0 -3.2,-1.4 -3.2,-3.2 0,-1.7 1.4,-3.2 3.2,-3.2 1.7,0 3.2,1.4 3.2,3.2 z"
           id="path77" />
        <path
           transform="matrix(3.84755,0,0,3.84755,-970.862,-15320.4)"
           style="fill:#b7b7bb"
           d="m 289.5,4006.6 c 0,1.7 -1.4,3.2 -3.2,3.2 -1.7,0 -3.2,-1.4 -3.2,-3.2 0,-1.7 1.4,-3.2 3.2,-3.2 1.7,0 3.2,1.4 3.2,3.2 z"
           id="path79" />
        <path
           transform="matrix(5.4391,0,0,5.4391,-1426.54,-21697.2)"
           style="fill:url(#id14);stroke:#f2a638;stroke-width:0.21"
           d="m 289.5,4006.6 c 0,1.7 -1.4,3.2 -3.2,3.2 -1.7,0 -3.2,-1.4 -3.2,-3.2 0,-1.7 1.4,-3.2 3.2,-3.2 1.7,0 3.2,1.4 3.2,3.2 z"
           id="path81" />
        <path
           transform="matrix(3.84755,0,0,3.84755,-970.862,-15320.4)"
           style="fill:url(#id15)"
           d="m 289.5,4006.6 c 0,1.7 -1.4,3.2 -3.2,3.2 -1.7,0 -3.2,-1.4 -3.2,-3.2 0,-1.7 1.4,-3.2 3.2,-3.2 1.7,0 3.2,1.4 3.2,3.2 z"
           id="path83" />
        <text
           x="114.7"
           y="111.4"
           transform="matrix(1.09805,0,-0.032781,0.910706,0,0)"
           style="font-size:24.6px;font-family:Arial;fill:#000000"
           id="text85"> </text>
      </g>
      <path
         style="fill:#f29519"
         d="m -708.337,215.723 c -1,77.2 144.6,54.1 140.2,-9 z"
         id="path91" />
      <path
         style="fill:url(#id13)"
         d="m -708.337,215.723 c -1,77.2 144.6,54.1 140.2,-9 z"
         id="path93" />
      <path
         style="fill:#fdca01;stroke:#f2a638;stroke-width:3.6"
         d="m -570.137,212.323 c -6.3,23.4 -41.8,44.1 -80.2,44.1 -36.3,0 -63,-19.3 -56.3,-44.1 6.3,-23.4 41.8,-44.1 80.2,-44.1 36.3,0 63,19.3 56.3,44.1 z"
         id="path95" />
      <path
         style="fill:#b7b7bb;stroke-width:12.13"
         d="m -590.137,212.323 c -4.5,16.6 -29.6,31.2 -56.7,31.2 -25.7,0 -44.6,-13.6 -39.8,-31.2 4.5,-16.6 29.6,-31.2 56.7,-31.2 25.7,0 44.6,13.6 39.8,31.2 z"
         id="path97" />
      <path
         style="fill:url(#id18);stroke:#f2a638;stroke-width:3.6"
         d="m -570.137,212.323 c -6.3,23.4 -41.8,44.1 -80.2,44.1 -36.3,0 -63,-19.3 -56.3,-44.1 6.3,-23.4 41.8,-44.1 80.2,-44.1 36.3,0 63,19.3 56.3,44.1 z"
         id="path99" />
      <path
         style="fill:url(#id19);stroke-width:12.13"
         d="m -590.137,212.323 c -4.5,16.6 -29.6,31.2 -56.7,31.2 -25.7,0 -44.6,-13.6 -39.8,-31.2 4.5,-16.6 29.6,-31.2 56.7,-31.2 25.7,0 44.6,13.6 39.8,31.2 z"
         id="path101" />
    </g>
    <use
       x="0"
       y="0"
       xlink:href="#g6492"
       id="use6494"
       transform="translate(48.4032,-22.0113)"
       width="100%"
       height="100%" />
    <use
       x="0"
       y="0"
       xlink:href="#use6494"
       id="use6496"
       transform="translate(-28.4819,4.38945)"
       width="100%"
       height="100%" />
    <use
       x="0"
       y="0"
       xlink:href="#use6496"
       id="use6498"
       transform="translate(52.7624,1.35041)"
       width="100%"
       height="100%" />
    <use
       x="0"
       y="0"
       xlink:href="#use6498"
       id="use6500"
       transform="translate(19.5998,-15.8171)"
       width="100%"
       height="100%" />
    <use
       x="0"
       y="0"
       xlink:href="#use6500"
       id="use6502"
       transform="translate(31.5461,4.40562)"
       width="100%"
       height="100%" />
    <g
       id="g6150"
       style="fill:#000000;stroke:#000000;stroke-width:1.05265"
       transform="matrix(0.1642,0.08397,-0.118358,0.09696,-634.667,521.272)">
      <rect
         style="color:#000000;overflow:visible;fill:#000000;stroke:#000000;stroke-width:1.57898;stop-color:#000000"
         id="rect4225"
         width="38.9889"
         height="7.89459"
         x="-815.665"
         y="78.4138" />
      <rect
         style="color:#000000;overflow:visible;fill:#000000;stroke:#000000;stroke-width:1.57898;stop-color:#000000"
         id="rect6143"
         width="52.1067"
         height="7.89459"
         x="-110.242"
         y="-784.42"
         transform="rotate(-90)" />
      <rect
         style="color:#000000;overflow:visible;fill:#000000;stroke:#000000;stroke-width:1.57898;stop-color:#000000"
         id="rect6145"
         width="52.1067"
         height="7.89459"
         x="-110.242"
         y="-816.42"
         transform="rotate(-90)" />
    </g>
    <g
       id="g6510"
       style="fill:#000000;stroke:#000000;stroke-width:1.05265"
       transform="matrix(0.175444,0.05685,-0.101471,0.114515,-599.218,493.526)">
      <rect
         style="color:#000000;overflow:visible;fill:#000000;stroke:#000000;stroke-width:1.57898;stop-color:#000000"
         id="rect6504"
         width="38.9889"
         height="7.89459"
         x="-815.665"
         y="78.4138" />
      <rect
         style="color:#000000;overflow:visible;fill:#000000;stroke:#000000;stroke-width:1.57898;stop-color:#000000"
         id="rect6506"
         width="52.1067"
         height="7.89459"
         x="-110.242"
         y="-784.42"
         transform="rotate(-90)" />
      <rect
         style="color:#000000;overflow:visible;fill:#000000;stroke:#000000;stroke-width:1.57898;stop-color:#000000"
         id="rect6508"
         width="52.1067"
         height="7.89459"
         x="-110.242"
         y="-816.42"
         transform="rotate(-90)" />
    </g>
    <g
       id="g6518"
       style="fill:#000000;stroke:#000000;stroke-width:1.05265"
       transform="matrix(0.152735,-0.103367,-0.129298,-0.081805,-571.3,372.77)">
      <rect
         style="color:#000000;overflow:visible;fill:#000000;stroke:#000000;stroke-width:1.57898;stop-color:#000000"
         id="rect6512"
         width="38.9889"
         height="7.89459"
         x="-815.665"
         y="78.4138" />
      <rect
         style="color:#000000;overflow:visible;fill:#000000;stroke:#000000;stroke-width:1.57898;stop-color:#000000"
         id="rect6514"
         width="52.1067"
         height="7.89459"
         x="-110.242"
         y="-784.42"
         transform="rotate(-90)" />
      <rect
         style="color:#000000;overflow:visible;fill:#000000;stroke:#000000;stroke-width:1.57898;stop-color:#000000"
         id="rect6516"
         width="52.1067"
         height="7.89459"
         x="-110.242"
         y="-816.42"
         transform="rotate(-90)" />
    </g>
    <g
       id="g6526"
       style="fill:#000000;stroke:#000000;stroke-width:1.05265"
       transform="matrix(0.175444,0.05685,-0.101471,0.114515,-523.533,488.262)">
      <rect
         style="color:#000000;overflow:visible;fill:#000000;stroke:#000000;stroke-width:1.57898;stop-color:#000000"
         id="rect6520"
         width="38.9889"
         height="7.89459"
         x="-815.665"
         y="78.4138" />
      <rect
         style="color:#000000;overflow:visible;fill:#000000;stroke:#000000;stroke-width:1.57898;stop-color:#000000"
         id="rect6522"
         width="52.1067"
         height="7.89459"
         x="-110.242"
         y="-784.42"
         transform="rotate(-90)" />
      <rect
         style="color:#000000;overflow:visible;fill:#000000;stroke:#000000;stroke-width:1.57898;stop-color:#000000"
         id="rect6524"
         width="52.1067"
         height="7.89459"
         x="-110.242"
         y="-816.42"
         transform="rotate(-90)" />
    </g>
    <g
       id="g6534"
       style="fill:#000000;stroke:#000000;stroke-width:1.05265"
       transform="matrix(0.152074,0.104335,-0.129816,0.080981,-591.151,540.057)">
      <rect
         style="color:#000000;overflow:visible;fill:#000000;stroke:#000000;stroke-width:1.57898;stop-color:#000000"
         id="rect6528"
         width="38.9889"
         height="7.89459"
         x="-815.665"
         y="78.4138" />
      <rect
         style="color:#000000;overflow:visible;fill:#000000;stroke:#000000;stroke-width:1.57898;stop-color:#000000"
         id="rect6530"
         width="52.1067"
         height="7.89459"
         x="-110.242"
         y="-784.42"
         transform="rotate(-90)" />
      <rect
         style="color:#000000;overflow:visible;fill:#000000;stroke:#000000;stroke-width:1.57898;stop-color:#000000"
         id="rect6532"
         width="52.1067"
         height="7.89459"
         x="-110.242"
         y="-816.42"
         transform="rotate(-90)" />
    </g>
    <g
       id="g6542"
       style="fill:#000000;stroke:#000000;stroke-width:1.05265"
       transform="matrix(0.152779,-0.1033,-0.129263,-0.08186,-663.178,404.804)">
      <rect
         style="color:#000000;overflow:visible;fill:#000000;stroke:#000000;stroke-width:1.57898;stop-color:#000000"
         id="rect6536"
         width="38.9889"
         height="7.89459"
         x="-815.665"
         y="78.4138" />
      <rect
         style="color:#000000;overflow:visible;fill:#000000;stroke:#000000;stroke-width:1.57898;stop-color:#000000"
         id="rect6538"
         width="52.1067"
         height="7.89459"
         x="-110.242"
         y="-784.42"
         transform="rotate(-90)" />
      <rect
         style="color:#000000;overflow:visible;fill:#000000;stroke:#000000;stroke-width:1.57898;stop-color:#000000"
         id="rect6540"
         width="52.1067"
         height="7.89459"
         x="-110.242"
         y="-816.42"
         transform="rotate(-90)" />
    </g>
  </g>
</svg>
