<?xml version="1.0" encoding="UTF-8" standalone="no"?>
<!-- Created with Inkscape (http://www.inkscape.org/) -->

<svg
   xmlns:dc="http://purl.org/dc/elements/1.1/"
   xmlns:cc="http://creativecommons.org/ns#"
   xmlns:rdf="http://www.w3.org/1999/02/22-rdf-syntax-ns#"
   xmlns:svg="http://www.w3.org/2000/svg"
   xmlns="http://www.w3.org/2000/svg"
   xmlns:sodipodi="http://sodipodi.sourceforge.net/DTD/sodipodi-0.dtd"
   xmlns:inkscape="http://www.inkscape.org/namespaces/inkscape"
   width="397.5"
   height="124.884"
   viewBox="0 0 105.172 33.0421"
   version="1.1"
   id="svg8"
   inkscape:version="0.92.2 (5c3e80d, 2017-08-06)"
   sodipodi:docname="train-table-tennis.svg">
  <defs
     id="defs2">
    <marker
       inkscape:stockid="Arrow1Mend"
       orient="auto"
       refY="0"
       refX="0"
       id="Arrow1Mend"
       style="overflow:visible"
       inkscape:isstock="true"
       inkscape:collect="always">
      <path
         id="path1276"
         d="M 0,0 5,-5 -12.5,0 5,5 Z"
         style="fill:#005c94;fill-opacity:1;fill-rule:evenodd;stroke:#005c94;stroke-width:1pt;stroke-opacity:1"
         transform="matrix(-0.4,0,0,-0.4,-4,0)"
         inkscape:connector-curvature="0" />
    </marker>
  </defs>
  <sodipodi:namedview
     id="base"
     pagecolor="#ffffff"
     bordercolor="#666666"
     borderopacity="1.0"
     inkscape:pageopacity="0.0"
     inkscape:pageshadow="2"
     inkscape:zoom="0.35"
     inkscape:cx="400"
     inkscape:cy="560"
     inkscape:document-units="px"
     inkscape:current-layer="layer1"
     showgrid="false"
     inkscape:snap-global="false"
     units="px" />
  <metadata
     id="metadata5">
    <rdf:RDF>
      <cc:Work
         rdf:about="">
        <dc:format>image/svg+xml</dc:format>
        <dc:type
           rdf:resource="http://purl.org/dc/dcmitype/StillImage" />
        <dc:title></dc:title>
      </cc:Work>
    </rdf:RDF>
  </metadata>
  <g
     inkscape:label="Layer 1"
     inkscape:groupmode="layer"
     id="layer1"
     transform="translate(411.811,-102.183)">
    <g
       id="g839"
       transform="matrix(0.302276,0,0,0.302276,-283.217,93.6643)">
      <circle
         r="13.2291"
         cy="124.264"
         cx="-385.534"
         id="path833"
         style="color:#000000;clip-rule:nonzero;display:inline;overflow:visible;visibility:visible;opacity:1;isolation:auto;mix-blend-mode:normal;color-interpolation:sRGB;color-interpolation-filters:linearRGB;solid-color:#000000;solid-opacity:1;vector-effect:none;fill:#999999;fill-opacity:1;fill-rule:nonzero;stroke:none;stroke-width:1.40229;stroke-linecap:butt;stroke-linejoin:miter;stroke-miterlimit:4;stroke-dasharray:none;stroke-dashoffset:0;stroke-opacity:1;marker:none;marker-start:none;marker-mid:none;marker-end:none;color-rendering:auto;image-rendering:auto;shape-rendering:auto;text-rendering:auto;enable-background:accumulate" />
      <circle
         style="color:#000000;clip-rule:nonzero;display:inline;overflow:visible;visibility:visible;opacity:1;isolation:auto;mix-blend-mode:normal;color-interpolation:sRGB;color-interpolation-filters:linearRGB;solid-color:#000000;solid-opacity:1;vector-effect:none;fill:#999999;fill-opacity:1;fill-rule:nonzero;stroke:none;stroke-width:1.40229;stroke-linecap:butt;stroke-linejoin:miter;stroke-miterlimit:4;stroke-dasharray:none;stroke-dashoffset:0;stroke-opacity:1;marker:none;marker-start:none;marker-mid:none;marker-end:none;color-rendering:auto;image-rendering:auto;shape-rendering:auto;text-rendering:auto;enable-background:accumulate"
         id="circle835"
         cx="-354.852"
         cy="124.264"
         r="13.2291" />
    </g>
    <g
       transform="matrix(0.302276,0,0,0.302276,-211.352,93.6643)"
       id="g845">
      <circle
         style="color:#000000;clip-rule:nonzero;display:inline;overflow:visible;visibility:visible;opacity:1;isolation:auto;mix-blend-mode:normal;color-interpolation:sRGB;color-interpolation-filters:linearRGB;solid-color:#000000;solid-opacity:1;vector-effect:none;fill:#999999;fill-opacity:1;fill-rule:nonzero;stroke:none;stroke-width:1.40229;stroke-linecap:butt;stroke-linejoin:miter;stroke-miterlimit:4;stroke-dasharray:none;stroke-dashoffset:0;stroke-opacity:1;marker:none;marker-start:none;marker-mid:none;marker-end:none;color-rendering:auto;image-rendering:auto;shape-rendering:auto;text-rendering:auto;enable-background:accumulate"
         id="circle841"
         cx="-385.534"
         cy="124.264"
         r="13.2291" />
      <circle
         r="13.2291"
         cy="124.264"
         cx="-354.852"
         id="circle843"
         style="color:#000000;clip-rule:nonzero;display:inline;overflow:visible;visibility:visible;opacity:1;isolation:auto;mix-blend-mode:normal;color-interpolation:sRGB;color-interpolation-filters:linearRGB;solid-color:#000000;solid-opacity:1;vector-effect:none;fill:#999999;fill-opacity:1;fill-rule:nonzero;stroke:none;stroke-width:1.40229;stroke-linecap:butt;stroke-linejoin:miter;stroke-miterlimit:4;stroke-dasharray:none;stroke-dashoffset:0;stroke-opacity:1;marker:none;marker-start:none;marker-mid:none;marker-end:none;color-rendering:auto;image-rendering:auto;shape-rendering:auto;text-rendering:auto;enable-background:accumulate" />
    </g>
    <path
       style="color:#000000;clip-rule:nonzero;display:inline;overflow:visible;visibility:visible;opacity:1;isolation:auto;mix-blend-mode:normal;color-interpolation:sRGB;color-interpolation-filters:linearRGB;solid-color:#000000;solid-opacity:1;vector-effect:none;fill:#0084c8;fill-opacity:1;fill-rule:nonzero;stroke:none;stroke-width:0.326393;stroke-linecap:butt;stroke-linejoin:miter;stroke-miterlimit:4;stroke-dasharray:none;stroke-dashoffset:0;stroke-opacity:1;marker:none;marker-start:none;marker-mid:none;marker-end:none;color-rendering:auto;image-rendering:auto;shape-rendering:auto;text-rendering:auto;enable-background:accumulate"
       d="m -404.798,107.69 c -3.885,0 -7.013,2.814 -7.013,6.309 v 5.087 3.776 6.308 h 7.013 91.146 7.013 v -6.308 -3.776 -5.087 c 0,-3.495 -3.128,-6.309 -7.013,-6.309 z"
       id="rect817"
       inkscape:connector-curvature="0" />
    <rect
       style="color:#000000;clip-rule:nonzero;display:inline;overflow:visible;visibility:visible;opacity:1;isolation:auto;mix-blend-mode:normal;color-interpolation:sRGB;color-interpolation-filters:linearRGB;solid-color:#000000;solid-opacity:1;vector-effect:none;fill:#b8e6ff;fill-opacity:1;fill-rule:nonzero;stroke:none;stroke-width:0.423879;stroke-linecap:butt;stroke-linejoin:miter;stroke-miterlimit:4;stroke-dasharray:none;stroke-dashoffset:0;stroke-opacity:1;marker:none;marker-start:none;marker-mid:none;marker-end:none;color-rendering:auto;image-rendering:auto;shape-rendering:auto;text-rendering:auto;enable-background:accumulate"
       id="rect827"
       width="105.172"
       height="0"
       x="-409.069"
       y="124.486" />
    <rect
       style="color:#000000;clip-rule:nonzero;display:inline;overflow:visible;visibility:visible;opacity:1;isolation:auto;mix-blend-mode:normal;color-interpolation:sRGB;color-interpolation-filters:linearRGB;solid-color:#000000;solid-opacity:1;vector-effect:none;fill:#204a87;fill-opacity:1;fill-rule:nonzero;stroke:none;stroke-width:0.423879;stroke-linecap:butt;stroke-linejoin:miter;stroke-miterlimit:4;stroke-dasharray:none;stroke-dashoffset:0;stroke-opacity:1;marker:none;marker-start:none;marker-mid:none;marker-end:none;color-rendering:auto;image-rendering:auto;shape-rendering:auto;text-rendering:auto;enable-background:accumulate"
       id="rect831"
       width="105.172"
       height="2.55846"
       x="-411.811"
       y="129.17" />
    <rect
       style="color:#000000;clip-rule:nonzero;display:inline;overflow:visible;visibility:visible;opacity:1;isolation:auto;mix-blend-mode:normal;color-interpolation:sRGB;color-interpolation-filters:linearRGB;solid-color:#000000;solid-opacity:1;vector-effect:none;fill:#d0efff;fill-opacity:1;fill-rule:nonzero;stroke:none;stroke-width:0.463086;stroke-linecap:butt;stroke-linejoin:miter;stroke-miterlimit:4;stroke-dasharray:none;stroke-dashoffset:0;stroke-opacity:1;marker:none;marker-start:none;marker-mid:none;marker-end:none;color-rendering:auto;image-rendering:auto;shape-rendering:auto;text-rendering:auto;enable-background:accumulate"
       id="rect851"
       width="99.1716"
       height="8.45472"
       x="-407.981"
       y="114.888"
       ry="3.2728" />
    <path
       style="fill:#ffffff;fill-rule:evenodd;stroke:#999999;stroke-width:0.281853;stroke-linecap:butt;stroke-linejoin:miter;stroke-miterlimit:4;stroke-dasharray:none;stroke-opacity:1"
       d="m -387.762,111.256 c 5.374,-3.792 12.244,-0.843 19.131,-0.958 8.934,-0.2 15.356,-1.649 22.967,-1.875 7.61,-0.226 13.716,-1.916 18.694,2.719 4.977,4.634 6.247,11.163 2.077,15.314 -4.17,4.151 -12.761,2.232 -20.095,2.324 -7.333,0.09 -13.827,-0.426 -24.252,-0.405 -10.426,0.02 -14.985,2.169 -19.834,0.367 -4.849,-1.804 -4.061,-13.694 1.312,-17.486 z"
       id="path853"
       inkscape:connector-curvature="0"
       sodipodi:nodetypes="zczzzzzzz" />
    <g
       id="g1013"
       transform="matrix(0.271322,0,0,0.271322,-297.326,69.4584)">
      <path
         id="path2571"
         d="m -303.345,189.486 c -0.05,1.176 1.232,2.192 2.316,2.214 0.863,0.106 2.822,0.284 2.685,-0.95 -0.415,0 -1.582,0.665 -1.672,0.183 0.564,0.05 2.22,-0.243 1.622,-1.046 -0.438,0.42 -2.221,0.311 -0.83,0.184 0.716,0.166 1.71,-1.305 0.523,-0.857 -0.361,0.428 -1.957,-0.05 -0.895,0.05 0.593,0.223 2.173,-0.701 1.266,-0.961 -1.496,0.75 -3.213,-0.567 -4.666,0.298 -0.268,0.207 -0.363,0.56 -0.349,0.885 z"
         style="fill:#808080;fill-opacity:1;fill-rule:nonzero;stroke:none;stroke-width:0.291033"
         inkscape:connector-curvature="0" />
      <path
         sodipodi:nodetypes="cccccccccccccc"
         id="path1949"
         d="m -316.026,190.364 c 0.507,3.712 0.513,5.205 0.631,9.957 0.45,4.199 -0.261,8.458 0.63,12.635 -0.378,1.887 -0.201,3.408 -0.205,8.278 -2.523,-1.087 -8.469,0.977 -6.952,-2.065 0.454,-2.517 1.071,-6.611 0.517,-9.212 -0.915,-4.463 0.144,-7.702 -0.82,-12.153 -0.464,3.558 -0.648,5.803 -0.487,9.384 0.222,3.512 -1.002,10.418 -1.005,13.927 -1.837,-0.769 -7.335,1.607 -6.605,-1.341 -0.184,-4.29 1.458,-11.966 1.063,-16.255 -0.138,-3.036 0.183,-6.059 0.02,-9.037 0,-1.921 -0.02,-1.991 0.149,-4.029 4.269,0 8.802,-0.09 13.071,-0.09 z"
         style="fill:#808080;fill-opacity:1;fill-rule:nonzero;stroke:none;stroke-width:0.291033;stroke-opacity:1"
         inkscape:connector-curvature="0" />
      <path
         sodipodi:nodetypes="cssssssssccccssc"
         id="path1999"
         d="m -322.409,161.011 c 1.624,0 2.761,0.513 3.187,2.794 0.113,0.605 1.114,1.047 1.279,1.706 0.106,0.432 -1.076,0.301 -0.823,0.658 0.104,0.147 0.247,0.667 0.299,0.817 0.03,0.08 -0.309,0.198 -0.28,0.292 0.05,0.167 0.366,0.04 0.372,0.174 0.02,0.264 0.09,0.771 0.103,0.933 0.04,0.724 -0.697,0.816 -1.612,1.161 -0.236,0.09 -0.285,0.719 -0.459,1.106 -0.05,0.895 0.388,0.824 1.318,1.652 -2.243,1.6 -4.51,1.602 -6.282,-0.09 0.97,-1.233 1.072,-0.967 1.4,-1.907 -0.184,-2.518 -1.239,-2.571 -1.747,-3.752 -1.09,-2.535 -0.126,-5.413 2.553,-5.493 0.233,0 0.46,-0.05 0.692,-0.05 z"
         style="fill:#808080;fill-opacity:1;fill-rule:nonzero;stroke:none;stroke-width:0.291033"
         inkscape:connector-curvature="0" />
      <path
         id="rect2895"
         d="m -332.154,193.997 c 1.172,0.106 2.01,1.51 1.89,2.587 0,0.871 -0.09,2.836 -1.297,2.536 0.05,-0.41 0.869,-1.479 0.403,-1.632 -0.02,0.566 -0.535,2.169 -1.252,1.471 0.475,-0.379 0.602,-2.162 0.292,-0.8 0.08,0.732 -1.518,1.523 -0.918,0.407 0.472,-0.302 0.211,-1.946 0.167,-0.882 0.144,0.618 -0.98,2.062 -1.119,1.129 0.941,-1.384 -0.138,-3.259 0.911,-4.586 0.24,-0.239 0.602,-0.287 0.923,-0.23 z"
         style="fill:#808080;fill-opacity:1;fill-rule:nonzero;stroke:none;stroke-width:0.291033"
         inkscape:connector-curvature="0" />
      <path
         sodipodi:nodetypes="ccccccsccczcccccccscsccccccccccscc"
         id="rect1964"
         d="m -319.674,171.343 c 2.412,1.001 3.563,1.481 5.042,2.097 l -0.02,0.372 0.102,-0.06 c 0.315,0.31 0.631,0.646 0.946,1.004 l 0.4,0.473 c 0.859,0.88 1.053,1.012 1.912,2.271 0.794,1.164 1.664,2.054 2.001,3.319 1.957,1.514 4.388,4.934 7.429,7.307 l -0.176,2.302 c -1.943,1.019 -8.338,-5.292 -9.584,-7.511 -1.246,-2.219 -3.41,-3.842 -4.085,-4.68 l -0.07,2.091 c -0.05,2.807 -0.29,6.548 -0.09,10.037 l -13.229,0.09 c 0.517,-3.827 0.536,-5.304 0.563,-7.229 l -0.271,-3.158 -0.298,-1.987 c -0.779,1.195 -1.499,2.421 -2.19,3.659 -0.701,1.257 -1.288,2.17 -1.928,3.224 0.377,2.233 0.976,4.388 1.637,6.519 0.599,1.931 0.392,0.902 0.975,2.837 l -2.852,1.463 c -2.087,-5.055 -2.829,-6.951 -3.173,-10.346 l -0.118,-0.488 c 0.117,-0.264 -0.08,-0.179 0.04,-0.436 l 0.392,-0.844 c 2.35,-5.005 4.7,-8.66 7.05,-10.972 l 0.495,0.305 0.03,-0.276 3.885,-1.229 c 0.433,0.36 0.951,0.343 1.357,0.533 0.835,0.39 1.691,0.594 3.824,-0.687 z"
         style="fill:#808080;fill-opacity:1;fill-rule:nonzero;stroke:none;stroke-width:0.232826;stroke-opacity:1"
         inkscape:connector-curvature="0" />
      <path
         sodipodi:nodetypes="csssssccccsc"
         id="path2893"
         d="m -324.021,160.168 c 1.644,0.02 3.42,-1.255 3.851,1.525 0.114,0.738 -2.013,0.277 -1.846,1.081 0.108,0.526 -0.457,1.47 -0.2,1.905 0.851,1.449 0.263,1.728 -0.533,1.257 -0.492,-0.292 -0.584,-2.13 -1.837,-1.333 -0.985,0.625 0.122,1.864 0.515,2.052 -0.06,1.09 -0.5,0.574 0.441,1.583 -0.35,-0.09 0.209,2.168 -1.584,0.107 -0.576,-1.311 0.19,-0.167 -0.575,-1.633 -0.804,-2.642 -1.983,-3.553 -0.226,-5.085 0.178,-0.154 1.759,-1.46 1.994,-1.459 z"
         style="fill:#808080;fill-opacity:1;fill-rule:nonzero;stroke:none;stroke-width:0.291033"
         inkscape:connector-curvature="0" />
      <rect
         transform="scale(-1,1)"
         y="190.691"
         x="315.898"
         height="0.969731"
         width="13.3999"
         id="rect2573"
         style="fill:#808080;fill-opacity:1;fill-rule:nonzero;stroke:none;stroke-width:0.291033" />
      <path
         id="rect2575"
         d="m -316.297,190.557 v 1.367 h -0.523 v -1.367 z m -2.509,0.02 v 1.368 h -0.532 v -1.368 z m -5.116,0 v 1.368 h -0.53 v -1.368 z m -3.041,0 v 1.368 h -0.531 v -1.368 z"
         style="fill:#808080;fill-opacity:1;fill-rule:nonzero;stroke:none;stroke-width:0.232826"
         inkscape:connector-curvature="0" />
      <path
         id="rect2584"
         d="m -321.293,190.548 c 0.154,0 0.278,0.115 0.278,0.257 v 0.766 c 0,0.142 -0.124,0.254 -0.278,0.254 h -1.564 c -0.153,0 -0.274,-0.112 -0.274,-0.254 v -0.766 c 0,-0.142 0.121,-0.257 0.274,-0.257 z m -0.125,0.172 h -1.314 c -0.112,0 -0.2,0.09 -0.2,0.188 v 0.556 c 0,0.103 0.09,0.188 0.2,0.188 h 1.314 c 0.112,0 0.2,-0.09 0.2,-0.188 v -0.556 c 0,-0.102 -0.09,-0.188 -0.2,-0.188 z"
         style="fill:#808080;fill-opacity:1;fill-rule:nonzero;stroke:none;stroke-width:0.291033"
         inkscape:connector-curvature="0" />
      <path
         sodipodi:nodetypes="cccccccc"
         id="rect2589"
         d="m -319.633,171.07 -0.708,-0.164 0.03,0.487 -0.569,0.547 -0.268,0.505 1.06,-0.03 0.826,1.089 c -0.113,-0.867 -0.175,-2.093 -0.362,-2.441 z"
         style="fill:#808080;fill-opacity:1;fill-rule:nonzero;stroke:none;stroke-width:0.064646;stroke-miterlimit:4;stroke-dasharray:none;stroke-opacity:1"
         inkscape:connector-curvature="0" />
      <path
         sodipodi:nodetypes="cccccccc"
         id="path3486"
         d="m -324.839,171.063 0.709,-0.164 -0.03,0.487 0.57,0.547 0.268,0.505 -1.061,-0.03 -0.825,1.089 c 0.113,-0.867 0.175,-2.094 0.361,-2.441 z"
         style="fill:#808080;fill-opacity:1;fill-rule:nonzero;stroke:none;stroke-width:0.064646;stroke-miterlimit:4;stroke-dasharray:none;stroke-opacity:1"
         inkscape:connector-curvature="0" />
      <path
         sodipodi:nodetypes="ccccc"
         id="rect3477"
         d="m -320.838,172.059 h -2.493 l 0.522,1.413 1.392,-0.06 z"
         style="fill:#808080;fill-opacity:1;fill-rule:nonzero;stroke:none;stroke-width:0.099749;stroke-miterlimit:4;stroke-opacity:1"
         inkscape:connector-curvature="0" />
    </g>
    <g
       id="g1041"
       transform="matrix(0.286967,0,0,0.286967,-266.876,70.1297)">
      <path
         id="path2571-2"
         d="m -245.432,174.033 c 1.172,0.105 2.011,1.509 1.889,2.587 -0.01,0.869 -0.09,2.835 -1.295,2.535 0.05,-0.41 0.868,-1.479 0.402,-1.632 -0.02,0.565 -0.534,2.169 -1.251,1.471 0.474,-0.379 0.601,-2.162 0.292,-0.8 0.07,0.731 -1.518,1.523 -0.919,0.406 0.472,-0.301 0.211,-1.946 0.167,-0.881 0.144,0.617 -0.98,2.062 -1.119,1.128 0.941,-1.383 -0.138,-3.259 0.911,-4.585 0.24,-0.239 0.603,-0.287 0.923,-0.229 z"
         style="fill:#808080;fill-opacity:1;fill-rule:nonzero;stroke:none;stroke-width:0.291033"
         inkscape:connector-curvature="0" />
      <path
         sodipodi:nodetypes="cccccccccccccc"
         id="path1949-7"
         d="m -243.966,175.345 c -0.507,3.712 -0.512,5.205 -0.631,9.956 -0.45,4.2 0.261,8.459 -0.629,12.636 0.377,1.887 0.201,3.407 0.204,8.278 2.524,-1.087 8.47,0.977 6.953,-2.065 -0.454,-2.517 -1.071,-6.612 -0.518,-9.212 0.915,-4.463 -0.143,-7.702 0.82,-12.153 0.464,3.558 0.649,5.803 0.488,9.384 -0.223,3.512 1.001,10.418 1.004,13.927 1.837,-0.769 7.335,1.607 6.605,-1.341 0.184,-4.291 -1.457,-11.967 -1.062,-16.256 0.137,-3.036 -0.184,-6.058 -0.02,-9.035 0,-1.922 0.02,-1.992 -0.149,-4.031 -4.269,0 -8.802,-0.09 -13.071,-0.09 z"
         style="fill:#808080;fill-opacity:1;fill-rule:nonzero;stroke:none;stroke-width:0.291033;stroke-opacity:1"
         inkscape:connector-curvature="0" />
      <path
         sodipodi:nodetypes="cssssssssccccssc"
         id="path1999-1"
         d="m -237.583,145.993 c -1.623,0 -2.76,0.512 -3.186,2.794 -0.114,0.605 -1.115,1.045 -1.28,1.705 -0.106,0.432 1.077,0.3 0.823,0.659 -0.104,0.146 -0.246,0.666 -0.298,0.816 -0.03,0.08 0.309,0.197 0.28,0.292 -0.05,0.168 -0.366,0.04 -0.373,0.175 -0.02,0.264 -0.09,0.77 -0.102,0.931 -0.05,0.725 0.697,0.817 1.612,1.162 0.235,0.09 0.285,0.72 0.458,1.106 0.05,0.895 -0.387,0.825 -1.317,1.652 2.242,1.6 4.51,1.602 6.282,-0.09 -0.971,-1.234 -1.073,-0.968 -1.401,-1.909 0.185,-2.516 1.24,-2.57 1.748,-3.751 1.089,-2.535 0.126,-5.413 -2.554,-5.494 -0.232,0 -0.459,-0.05 -0.692,-0.05 z"
         style="fill:#808080;fill-opacity:1;fill-rule:nonzero;stroke:none;stroke-width:0.291033"
         inkscape:connector-curvature="0" />
      <path
         id="rect2895-7"
         d="m -227.838,178.979 c -1.171,0.105 -2.01,1.509 -1.889,2.586 0.01,0.87 0.09,2.835 1.296,2.536 -0.05,-0.411 -0.869,-1.479 -0.403,-1.632 0.02,0.566 0.535,2.169 1.252,1.471 -0.475,-0.379 -0.602,-2.162 -0.292,-0.801 -0.08,0.733 1.519,1.524 0.919,0.408 -0.473,-0.302 -0.212,-1.947 -0.167,-0.882 -0.145,0.618 0.98,2.062 1.119,1.128 -0.942,-1.383 0.137,-3.258 -0.912,-4.584 -0.24,-0.241 -0.602,-0.287 -0.923,-0.23 z"
         style="fill:#808080;fill-opacity:1;fill-rule:nonzero;stroke:none;stroke-width:0.291033"
         inkscape:connector-curvature="0" />
      <path
         sodipodi:nodetypes="ccccccscccsccccccccscsccccccccccsc"
         id="rect1964-8"
         d="m -240.195,156.445 c -2.412,0.999 -3.563,1.481 -5.043,2.096 l 0.02,0.371 -0.102,-0.06 c -0.315,0.31 -0.631,0.647 -0.946,1.004 l -0.4,0.474 c -0.858,0.881 -1.194,1.401 -2.053,2.66 -0.795,1.163 -2.139,3.048 -2.336,4.314 -0.141,2.26 2.605,5.619 4.186,8.872 l 2.859,-1.433 c -0.567,-1.94 -1.082,-1.564 -2.121,-3.179 -1.178,-1.832 -0.907,-2.526 -1.591,-4.381 0.551,-1.227 2.881,-3.007 3.556,-3.845 l 0.07,2.091 c 0.05,2.807 0.29,6.548 0.09,10.036 l 13.229,0.09 c -0.517,-3.826 -0.536,-5.303 -0.563,-7.228 l 0.27,-3.159 0.299,-1.986 c 0.779,1.196 1.499,2.421 2.19,3.66 0.701,1.255 1.288,2.168 1.928,3.223 -0.377,2.233 -0.976,4.388 -1.637,6.519 -0.599,1.93 -0.392,0.901 -0.975,2.838 l 2.852,1.461 c 2.087,-5.055 2.829,-6.951 3.173,-10.345 l 0.118,-0.489 c -0.117,-0.264 0.08,-0.178 -0.03,-0.435 l -0.393,-0.844 c -2.349,-5.005 -4.7,-8.66 -7.05,-10.972 l -0.495,0.306 -0.03,-0.277 -3.885,-1.23 c -0.432,0.362 -0.95,0.343 -1.357,0.533 -0.834,0.391 -1.69,0.595 -3.823,-0.687 z"
         style="fill:#808080;fill-opacity:1;fill-rule:nonzero;stroke:none;stroke-width:0.232826;stroke-opacity:1"
         inkscape:connector-curvature="0" />
      <path
         sodipodi:nodetypes="csssssccccsc"
         id="path2893-4"
         d="m -235.971,145.149 c -1.643,0.02 -3.419,-1.256 -3.85,1.526 -0.115,0.737 2.012,0.275 1.846,1.081 -0.108,0.525 0.456,1.468 0.2,1.905 -0.851,1.447 -0.263,1.726 0.532,1.256 0.493,-0.292 0.584,-2.13 1.837,-1.334 0.985,0.626 -0.122,1.865 -0.514,2.052 0.06,1.092 0.499,0.575 -0.441,1.584 0.35,-0.09 -0.21,2.168 1.584,0.108 0.575,-1.312 -0.19,-0.168 0.574,-1.634 0.805,-2.642 1.984,-3.553 0.226,-5.084 -0.177,-0.155 -1.759,-1.462 -1.994,-1.46 z"
         style="fill:#808080;fill-opacity:1;fill-rule:nonzero;stroke:none;stroke-width:0.291033"
         inkscape:connector-curvature="0" />
      <rect
         y="175.672"
         x="-244.094"
         height="0.969731"
         width="13.3999"
         id="rect2573-6"
         style="fill:#808080;fill-opacity:1;fill-rule:nonzero;stroke:none;stroke-width:0.291033" />
      <path
         id="rect2575-5"
         d="m -243.695,175.537 v 1.369 h 0.524 v -1.369 z m 2.51,0.02 v 1.368 h 0.531 v -1.368 z m 5.115,0 v 1.368 h 0.531 v -1.368 z m 3.041,0 v 1.368 h 0.532 v -1.368 z"
         style="fill:#808080;fill-opacity:1;fill-rule:nonzero;stroke:none;stroke-width:0.232826"
         inkscape:connector-curvature="0" />
      <path
         id="rect2584-4"
         d="m -238.698,175.529 c -0.154,0 -0.279,0.115 -0.279,0.256 v 0.768 c 0,0.141 0.125,0.252 0.279,0.252 h 1.563 c 0.153,0 0.275,-0.111 0.275,-0.252 v -0.768 c 0,-0.141 -0.122,-0.256 -0.275,-0.256 z m 0.124,0.172 h 1.314 c 0.112,0 0.2,0.09 0.2,0.188 v 0.556 c 0,0.103 -0.09,0.188 -0.2,0.188 h -1.314 c -0.111,0 -0.199,-0.09 -0.199,-0.188 v -0.556 c 0,-0.103 0.09,-0.188 0.199,-0.188 z"
         style="fill:#808080;fill-opacity:1;fill-rule:nonzero;stroke:none;stroke-width:0.291033"
         inkscape:connector-curvature="0" />
      <path
         sodipodi:nodetypes="cccccccc"
         id="rect2589-6"
         d="m -240.359,156.051 0.708,-0.164 -0.03,0.488 0.57,0.546 0.268,0.506 -1.06,-0.03 -0.826,1.089 c 0.113,-0.867 0.175,-2.094 0.362,-2.441 z"
         style="fill:#808080;fill-opacity:1;fill-rule:nonzero;stroke:none;stroke-width:0.064646;stroke-miterlimit:4;stroke-dasharray:none;stroke-opacity:1"
         inkscape:connector-curvature="0" />
      <path
         sodipodi:nodetypes="cccccccc"
         id="path3486-3"
         d="m -235.152,156.044 -0.709,-0.164 0.03,0.488 -0.571,0.546 -0.268,0.506 1.061,-0.03 0.825,1.089 c -0.113,-0.867 -0.174,-2.094 -0.361,-2.441 z"
         style="fill:#808080;fill-opacity:1;fill-rule:nonzero;stroke:none;stroke-width:0.064646;stroke-miterlimit:4;stroke-dasharray:none;stroke-opacity:1"
         inkscape:connector-curvature="0" />
      <path
         sodipodi:nodetypes="ccccc"
         id="rect3477-7"
         d="m -239.153,157.039 h 2.492 l -0.521,1.414 -1.392,-0.06 z"
         style="fill:#808080;fill-opacity:1;fill-rule:nonzero;stroke:none;stroke-width:0.099749;stroke-miterlimit:4;stroke-opacity:1"
         inkscape:connector-curvature="0" />
    </g>
    <rect
       style="color:#000000;clip-rule:nonzero;display:inline;overflow:visible;visibility:visible;opacity:1;isolation:auto;mix-blend-mode:normal;color-interpolation:sRGB;color-interpolation-filters:linearRGB;solid-color:#000000;solid-opacity:1;vector-effect:none;fill:#009100;fill-opacity:1;fill-rule:nonzero;stroke:none;stroke-width:0.197692;stroke-linecap:butt;stroke-linejoin:miter;stroke-miterlimit:4;stroke-dasharray:none;stroke-dashoffset:0;stroke-opacity:1;marker:none;marker-start:none;marker-mid:none;marker-end:none;color-rendering:auto;image-rendering:auto;shape-rendering:auto;text-rendering:auto;enable-background:accumulate"
       id="rect1043"
       width="24.5547"
       height="0.598894"
       x="-372.321"
       y="121.519" />
    <rect
       y="-368.385"
       x="-128.235"
       height="0.598894"
       width="6.45946"
       id="rect1045"
       style="color:#000000;clip-rule:nonzero;display:inline;overflow:visible;visibility:visible;opacity:1;isolation:auto;mix-blend-mode:normal;color-interpolation:sRGB;color-interpolation-filters:linearRGB;solid-color:#000000;solid-opacity:1;vector-effect:none;fill:#009100;fill-opacity:1;fill-rule:nonzero;stroke:none;stroke-width:0.101395;stroke-linecap:butt;stroke-linejoin:miter;stroke-miterlimit:4;stroke-dasharray:none;stroke-dashoffset:0;stroke-opacity:1;marker:none;marker-start:none;marker-mid:none;marker-end:none;color-rendering:auto;image-rendering:auto;shape-rendering:auto;text-rendering:auto;enable-background:accumulate"
       transform="rotate(-90)" />
    <rect
       transform="rotate(-90)"
       style="color:#000000;clip-rule:nonzero;display:inline;overflow:visible;visibility:visible;opacity:1;isolation:auto;mix-blend-mode:normal;color-interpolation:sRGB;color-interpolation-filters:linearRGB;solid-color:#000000;solid-opacity:1;vector-effect:none;fill:#009100;fill-opacity:1;fill-rule:nonzero;stroke:none;stroke-width:0.101395;stroke-linecap:butt;stroke-linejoin:miter;stroke-miterlimit:4;stroke-dasharray:none;stroke-dashoffset:0;stroke-opacity:1;marker:none;marker-start:none;marker-mid:none;marker-end:none;color-rendering:auto;image-rendering:auto;shape-rendering:auto;text-rendering:auto;enable-background:accumulate"
       id="rect1047"
       width="6.45946"
       height="0.598894"
       x="-128.577"
       y="-352.6" />
    <path
       style="fill:#999999;fill-rule:evenodd;stroke:#999999;stroke-width:0.191945;stroke-linecap:butt;stroke-linejoin:miter;stroke-miterlimit:4;stroke-dasharray:none;stroke-opacity:1"
       d="m -360.044,119.209 v 2.652"
       id="path1049"
       inkscape:connector-curvature="0" />
    <circle
       style="color:#000000;clip-rule:nonzero;display:inline;overflow:visible;visibility:visible;opacity:1;isolation:auto;mix-blend-mode:normal;color-interpolation:sRGB;color-interpolation-filters:linearRGB;solid-color:#000000;solid-opacity:1;vector-effect:none;fill:#edd400;fill-opacity:1;fill-rule:nonzero;stroke:none;stroke-width:0.177403;stroke-linecap:butt;stroke-linejoin:miter;stroke-miterlimit:4;stroke-dasharray:none;stroke-dashoffset:0;stroke-opacity:1;marker:none;marker-start:none;marker-mid:none;marker-end:none;color-rendering:auto;image-rendering:auto;shape-rendering:auto;text-rendering:auto;enable-background:accumulate"
       id="path1051"
       cx="-355.23"
       cy="120.823"
       r="0.553519" />
    <path
       style="fill:none;fill-rule:evenodd;stroke:#000000;stroke-width:0.079977px;stroke-linecap:butt;stroke-linejoin:miter;stroke-opacity:1"
       d="m -375.664,120.076 c 0,0 3.751,-3.993 10.406,-4.023 6.655,-0.03 9.286,3.811 9.286,3.811"
       id="path1053"
       inkscape:connector-curvature="0" />
    <path
       style="fill:none;fill-rule:evenodd;stroke:#000000;stroke-width:0.079977px;stroke-linecap:butt;stroke-linejoin:miter;stroke-opacity:1"
       d="m -354.61,119.895 c 0,0 2.63,-3.475 6.019,-3.475"
       id="path1055"
       inkscape:connector-curvature="0" />
    <g
       id="g1063"
       transform="matrix(0.201869,-0.02858,0.02858,0.201869,-332.154,84.1023)">
      <ellipse
         ry="4.52866"
         rx="7.07601"
         cy="147.905"
         cx="-236.732"
         id="path1057"
         style="color:#000000;clip-rule:nonzero;display:inline;overflow:visible;visibility:visible;opacity:1;isolation:auto;mix-blend-mode:normal;color-interpolation:sRGB;color-interpolation-filters:linearRGB;solid-color:#000000;solid-opacity:1;vector-effect:none;fill:#999999;fill-opacity:1;fill-rule:nonzero;stroke:none;stroke-width:0.634999;stroke-linecap:butt;stroke-linejoin:miter;stroke-miterlimit:4;stroke-dasharray:none;stroke-dashoffset:0;stroke-opacity:1;marker:none;marker-start:none;marker-mid:none;marker-end:none;color-rendering:auto;image-rendering:auto;shape-rendering:auto;text-rendering:auto;enable-background:accumulate" />
      <rect
         y="147.305"
         x="-256.595"
         height="1.21462"
         width="16.6994"
         id="rect1059"
         style="color:#000000;clip-rule:nonzero;display:inline;overflow:visible;visibility:visible;opacity:1;isolation:auto;mix-blend-mode:normal;color-interpolation:sRGB;color-interpolation-filters:linearRGB;solid-color:#000000;solid-opacity:1;vector-effect:none;fill:#999999;fill-opacity:1;fill-rule:nonzero;stroke:none;stroke-width:0.351563;stroke-linecap:butt;stroke-linejoin:miter;stroke-miterlimit:4;stroke-dasharray:none;stroke-dashoffset:0;stroke-opacity:1;marker:none;marker-start:none;marker-mid:none;marker-end:none;color-rendering:auto;image-rendering:auto;shape-rendering:auto;text-rendering:auto;enable-background:accumulate" />
    </g>
    <g
       transform="matrix(-0.170256,-0.112164,0.112164,-0.170256,-397.055,117.261)"
       id="g1069">
      <ellipse
         style="color:#000000;clip-rule:nonzero;display:inline;overflow:visible;visibility:visible;opacity:1;isolation:auto;mix-blend-mode:normal;color-interpolation:sRGB;color-interpolation-filters:linearRGB;solid-color:#000000;solid-opacity:1;vector-effect:none;fill:#999999;fill-opacity:1;fill-rule:nonzero;stroke:none;stroke-width:0.634999;stroke-linecap:butt;stroke-linejoin:miter;stroke-miterlimit:4;stroke-dasharray:none;stroke-dashoffset:0;stroke-opacity:1;marker:none;marker-start:none;marker-mid:none;marker-end:none;color-rendering:auto;image-rendering:auto;shape-rendering:auto;text-rendering:auto;enable-background:accumulate"
         id="ellipse1065"
         cx="-236.732"
         cy="147.905"
         rx="7.07601"
         ry="4.52866" />
      <rect
         style="color:#000000;clip-rule:nonzero;display:inline;overflow:visible;visibility:visible;opacity:1;isolation:auto;mix-blend-mode:normal;color-interpolation:sRGB;color-interpolation-filters:linearRGB;solid-color:#000000;solid-opacity:1;vector-effect:none;fill:#999999;fill-opacity:1;fill-rule:nonzero;stroke:none;stroke-width:0.351563;stroke-linecap:butt;stroke-linejoin:miter;stroke-miterlimit:4;stroke-dasharray:none;stroke-dashoffset:0;stroke-opacity:1;marker:none;marker-start:none;marker-mid:none;marker-end:none;color-rendering:auto;image-rendering:auto;shape-rendering:auto;text-rendering:auto;enable-background:accumulate"
         id="rect1067"
         width="16.6994"
         height="1.21462"
         x="-256.595"
         y="147.305" />
    </g>
    <path
       id="path1261"
       d="m -340.743,104.572 h 18.383"
       style="fill:none;fill-opacity:1;fill-rule:evenodd;stroke:#005c94;stroke-width:0.940858;stroke-linecap:butt;stroke-linejoin:miter;stroke-miterlimit:4;stroke-dasharray:none;stroke-opacity:1;marker-end:url(#Arrow1Mend)"
       inkscape:connector-curvature="0" />
    <g
       id="g3085"
       transform="matrix(1.05568,0,0,1.01808,85.2664,-21.777)">
      <rect
         y="129.207"
         x="-464.219"
         height="19.516"
         width="8.49344"
         id="rect847"
         style="color:#000000;clip-rule:nonzero;display:inline;overflow:visible;visibility:visible;opacity:1;isolation:auto;mix-blend-mode:normal;color-interpolation:sRGB;color-interpolation-filters:linearRGB;solid-color:#000000;solid-opacity:1;vector-effect:none;fill:#e9f7ff;fill-opacity:1;fill-rule:nonzero;stroke:#204a87;stroke-width:0.479188;stroke-linecap:butt;stroke-linejoin:miter;stroke-miterlimit:4;stroke-dasharray:none;stroke-dashoffset:0;stroke-opacity:1;marker:none;marker-start:none;marker-mid:none;marker-end:none;color-rendering:auto;image-rendering:auto;shape-rendering:auto;text-rendering:auto;enable-background:accumulate" />
      <path
         inkscape:connector-curvature="0"
         id="path3081"
         d="m -459.972,129.344 v 19.172"
         style="fill:none;fill-rule:evenodd;stroke:#0084c8;stroke-width:0.263315px;stroke-linecap:butt;stroke-linejoin:miter;stroke-opacity:1" />
    </g>
    <g
       transform="matrix(1.05568,0,0,1.01808,168.895,-21.777)"
       id="g3091">
      <rect
         style="color:#000000;clip-rule:nonzero;display:inline;overflow:visible;visibility:visible;opacity:1;isolation:auto;mix-blend-mode:normal;color-interpolation:sRGB;color-interpolation-filters:linearRGB;solid-color:#000000;solid-opacity:1;vector-effect:none;fill:#e9f7ff;fill-opacity:1;fill-rule:nonzero;stroke:#204a87;stroke-width:0.479188;stroke-linecap:butt;stroke-linejoin:miter;stroke-miterlimit:4;stroke-dasharray:none;stroke-dashoffset:0;stroke-opacity:1;marker:none;marker-start:none;marker-mid:none;marker-end:none;color-rendering:auto;image-rendering:auto;shape-rendering:auto;text-rendering:auto;enable-background:accumulate"
         id="rect3087"
         width="8.49344"
         height="19.516"
         x="-464.219"
         y="129.207" />
      <path
         style="fill:none;fill-rule:evenodd;stroke:#0084c8;stroke-width:0.263315px;stroke-linecap:butt;stroke-linejoin:miter;stroke-opacity:1"
         d="m -459.972,129.344 v 19.172"
         id="path3089"
         inkscape:connector-curvature="0" />
    </g>
  </g>
</svg>
