<?xml version="1.0" encoding="UTF-8" standalone="no"?>
<svg
   xmlns:dc="http://purl.org/dc/elements/1.1/"
   xmlns:cc="http://creativecommons.org/ns#"
   xmlns:rdf="http://www.w3.org/1999/02/22-rdf-syntax-ns#"
   xmlns:svg="http://www.w3.org/2000/svg"
   xmlns="http://www.w3.org/2000/svg"
   xmlns:sodipodi="http://sodipodi.sourceforge.net/DTD/sodipodi-0.dtd"
   xmlns:inkscape="http://www.inkscape.org/namespaces/inkscape"
   width="333.367"
   height="307.171"
   viewBox="0 0 333.367 307.171"
   id="svg6168"
   version="1.1"
   inkscape:version="1.0.1 (3bc2e813f5, 2020-09-07)"
   sodipodi:docname="wave-superposition.svg">
  <defs
     id="defs6170" />
  <sodipodi:namedview
     id="base"
     pagecolor="#ffffff"
     bordercolor="#666666"
     borderopacity="1.0"
     inkscape:pageopacity="0.0"
     inkscape:pageshadow="2"
     inkscape:zoom="0.52977"
     inkscape:cx="560"
     inkscape:cy="502.72"
     inkscape:document-units="px"
     inkscape:current-layer="layer1"
     showgrid="false"
     inkscape:window-width="1536"
     inkscape:window-height="801"
     inkscape:window-x="1528"
     inkscape:window-y="-8"
     inkscape:window-maximized="1"
     showborder="true"
     units="px"
     inkscape:document-rotation="0" />
  <metadata
     id="metadata6173">
    <rdf:RDF>
      <cc:Work
         rdf:about="">
        <dc:format>image/svg+xml</dc:format>
        <dc:type
           rdf:resource="http://purl.org/dc/dcmitype/StillImage" />
        <dc:title />
      </cc:Work>
    </rdf:RDF>
  </metadata>
  <g
     inkscape:label="Layer 1"
     inkscape:groupmode="layer"
     id="layer1"
     transform="translate(59.46,-527.468)">
    <path
       style="fill:none;fill-rule:evenodd;stroke:#9ade00;stroke-width:0.50896px;stroke-linecap:butt;stroke-linejoin:miter;stroke-opacity:1"
       d="M -52.7003,528.321 H 273.907"
       id="path6780"
       inkscape:connector-curvature="0" />
    <path
       inkscape:connector-curvature="0"
       id="path6782"
       d="M -52.7003,584.149 H 273.907"
       style="fill:none;fill-rule:evenodd;stroke:#9ade00;stroke-width:0.50896px;stroke-linecap:butt;stroke-linejoin:miter;stroke-opacity:1" />
    <path
       inkscape:connector-curvature="0"
       id="path6784"
       d="M -52.7003,556.238 H 273.907"
       style="fill:none;fill-rule:evenodd;stroke:#9ade00;stroke-width:1.017921;stroke-linecap:butt;stroke-linejoin:miter;stroke-miterlimit:4;stroke-dasharray:none;stroke-opacity:1" />
    <path
       inkscape:connector-curvature="0"
       id="path6823"
       d="M -57.0642,633.147 H 269.044"
       style="fill:none;fill-rule:evenodd;stroke:#9ade00;stroke-width:0.50896px;stroke-linecap:butt;stroke-linejoin:miter;stroke-opacity:1" />
    <path
       style="fill:none;fill-rule:evenodd;stroke:#9ade00;stroke-width:0.50896px;stroke-linecap:butt;stroke-linejoin:miter;stroke-opacity:1"
       d="M -57.8636,688.975 H 268.244"
       id="path6825"
       inkscape:connector-curvature="0" />
    <path
       style="fill:none;fill-rule:evenodd;stroke:#9ade00;stroke-width:1.01792;stroke-linecap:butt;stroke-linejoin:miter;stroke-miterlimit:4;stroke-dasharray:none;stroke-opacity:1"
       d="M -57.8636,661.063 H 268.244"
       id="path6827"
       inkscape:connector-curvature="0" />
    <path
       style="fill:none;fill-rule:evenodd;stroke:#9ade00;stroke-width:0.50896px;stroke-linecap:butt;stroke-linejoin:miter;stroke-opacity:1"
       d="M -59.46,756.784 H 266.648"
       id="path6833"
       inkscape:connector-curvature="0" />
    <path
       inkscape:connector-curvature="0"
       id="path6835"
       d="M -59.46,812.611 H 266.648"
       style="fill:none;fill-rule:evenodd;stroke:#9ade00;stroke-width:0.50896px;stroke-linecap:butt;stroke-linejoin:miter;stroke-opacity:1" />
    <path
       inkscape:connector-curvature="0"
       id="path6837"
       d="M -59.46,784.7 H 266.648"
       style="fill:none;fill-rule:evenodd;stroke:#9ade00;stroke-width:1.01792;stroke-linecap:butt;stroke-linejoin:miter;stroke-miterlimit:4;stroke-dasharray:none;stroke-opacity:1" />
    <path
       style="fill:none;stroke:#0084c8;stroke-width:1.526881;stroke-miterlimit:4;stroke-dasharray:none"
       d="m -30.4246,529.411 c 13.018,-4.067 25.99288,3.064 35.62699,11.37 15.61541,12.831 27.71391,30.105 45.80741,39.765 10.1843,5.675 22.9949,4.433 32.5735,-1.899 20.5717,-12.749 33.6067,-34.823 54.9677,-46.483 10.286,-5.894 23.366,-4.723 33.082,1.761 20.547,12.78 33.582,34.859 54.968,46.473 6.978,3.67 15.269,5.013 22.903,2.698"
       id="polyline6151"
       inkscape:connector-curvature="0" />
    <path
       style="color:#000000;clip-rule:nonzero;display:inline;overflow:visible;visibility:visible;opacity:1;isolation:auto;mix-blend-mode:normal;color-interpolation:sRGB;color-interpolation-filters:linearRGB;solid-color:#000000;solid-opacity:1;fill:none;fill-opacity:1;fill-rule:nonzero;stroke:#0084c8;stroke-width:1.526881;stroke-linecap:butt;stroke-linejoin:miter;stroke-miterlimit:4;stroke-dasharray:none;stroke-dashoffset:0;stroke-opacity:1;color-rendering:auto;image-rendering:auto;shape-rendering:auto;text-rendering:auto;enable-background:accumulate"
       d="m -28.5404,645.845 c 7.9899,12.994 12.6087,28.176 22.90346,39.664 3.28432,3.939 9.52723,4.814 13.23246,0.941 9.45398,-9.309 13.75668,-22.333 20.11408,-33.708 4.1175,-7.009 7.6192,-15.803 15.5131,-19.3 7.1,-1.771 11.7112,5.553 15.0653,10.586 8.52,13.305 13.1973,29.011 23.6157,41.079 3.2828,4.183 9.7975,5.42 13.6758,1.308 9.4715,-9.375 13.7875,-22.456 20.1805,-33.877 4.102,-6.967 7.609,-15.742 15.513,-19.132 7.146,-1.638 11.696,5.726 15.065,10.79 8.49,13.305 13.152,29.011 23.616,41.023 3.196,3.934 9.385,5.313 13.233,1.47 9.181,-8.657 13.37,-21.05 19.34,-31.886 4.291,-7.527 7.838,-16.648 15.778,-21.061 6.861,-2.702 11.991,4.403 15.269,9.35 6.764,10.612 11.406,22.394 17.814,33.21"
       id="polyline6186"
       inkscape:connector-curvature="0" />
    <path
       style="color:#000000;clip-rule:nonzero;display:inline;overflow:visible;visibility:visible;opacity:1;isolation:auto;mix-blend-mode:normal;color-interpolation:sRGB;color-interpolation-filters:linearRGB;solid-color:#000000;solid-opacity:1;fill:none;fill-opacity:1;fill-rule:nonzero;stroke:#0084c8;stroke-width:1.526881;stroke-linecap:butt;stroke-linejoin:miter;stroke-miterlimit:4;stroke-dasharray:none;stroke-dashoffset:0;stroke-opacity:1;color-rendering:auto;image-rendering:auto;shape-rendering:auto;text-rendering:auto;enable-background:accumulate"
       d="m -29.169,742.67 c 10.5816,15.193 15.1546,34.06 27.48363,48.087 3.86403,4.631 11.01186,5.786 15.77777,1.766 8.2731,-5.39 13.3678,-15.58 23.4147,-18.028 8.4437,-0.549 13.2126,7.981 17.096,14.16 8.2044,13.579 12.8512,29.341 23.1119,41.633 3.0385,4.036 9.3394,5.13 12.724,0.865 8.4233,-9.701 11.833,-22.532 16.287,-34.324 6.555,-18.114 11.131,-37.211 20.867,-53.986 2.555,-4.631 8.434,-10.021 13.742,-5.863 8.51,7.12 12.23,18.144 17.305,27.677 5.217,9.904 9.314,21.244 18.322,28.426 6.281,4.819 13.742,-0.24 18.323,-4.948 5.98,-5.242 11.161,-13.329 19.849,-13.711 8.556,1.288 12.745,10.118 16.796,16.765 6.55,11.722 11.243,24.491 18.831,35.622"
       id="polyline6213"
       inkscape:connector-curvature="0" />
    <text
       xml:space="preserve"
       style="color:#000000;font-style:normal;font-variant:normal;font-weight:normal;font-stretch:normal;font-size:6.10752px;line-height:0%;font-family:'Yu Gothic UI';-inkscape-font-specification:'Yu Gothic UI, Normal';text-indent:0;text-align:start;text-decoration:none;text-decoration-line:none;text-decoration-style:solid;text-decoration-color:#000000;letter-spacing:0px;word-spacing:0px;text-transform:none;writing-mode:lr-tb;direction:ltr;baseline-shift:baseline;text-anchor:start;white-space:normal;clip-rule:nonzero;display:inline;overflow:visible;visibility:visible;opacity:1;isolation:auto;mix-blend-mode:normal;color-interpolation:sRGB;color-interpolation-filters:linearRGB;solid-color:#000000;solid-opacity:1;fill:#ff6600;fill-opacity:1;fill-rule:nonzero;stroke:none;stroke-width:0.50896px;stroke-linecap:butt;stroke-linejoin:miter;stroke-miterlimit:4;stroke-dasharray:none;stroke-dashoffset:0;stroke-opacity:1;marker:none;marker-start:none;marker-mid:none;marker-end:none;color-rendering:auto;image-rendering:auto;shape-rendering:auto;text-rendering:auto;enable-background:accumulate;"
       x="88.0123"
       y="625.533"
       id="text6860"><tspan
         sodipodi:role="line"
         id="tspan6862"
         x="88.0123"
         y="625.533"
         style="font-size:57.258px;line-height:1.25;stroke-width:0.50896px;fill:#ff6600;">+</tspan></text>
    <text
       xml:space="preserve"
       style="color:#000000;font-style:normal;font-variant:normal;font-weight:normal;font-stretch:normal;font-size:6.10752px;line-height:0%;font-family:'Yu Gothic UI';-inkscape-font-specification:'Yu Gothic UI, Normal';text-indent:0;text-align:start;text-decoration:none;text-decoration-line:none;text-decoration-style:solid;text-decoration-color:#000000;letter-spacing:0px;word-spacing:0px;text-transform:none;writing-mode:lr-tb;direction:ltr;baseline-shift:baseline;text-anchor:start;white-space:normal;clip-rule:nonzero;display:inline;overflow:visible;visibility:visible;opacity:1;isolation:auto;mix-blend-mode:normal;color-interpolation:sRGB;color-interpolation-filters:linearRGB;solid-color:#000000;solid-opacity:1;fill:#ff6600;fill-opacity:1;fill-rule:nonzero;stroke:none;stroke-width:0.50896px;stroke-linecap:butt;stroke-linejoin:miter;stroke-miterlimit:4;stroke-dasharray:none;stroke-dashoffset:0;stroke-opacity:1;marker:none;marker-start:none;marker-mid:none;marker-end:none;color-rendering:auto;image-rendering:auto;shape-rendering:auto;text-rendering:auto;enable-background:accumulate;"
       x="90.8909"
       y="729.293"
       id="text6864"><tspan
         sodipodi:role="line"
         id="tspan6866"
         x="90.8909"
         y="729.293"
         style="font-size:57.258px;line-height:1.25;stroke-width:0.50896px;fill:#ff6600;">=</tspan></text>
  </g>
</svg>
