<?xml version="1.0" encoding="UTF-8" standalone="no"?>
<!-- Created with Inkscape (http://www.inkscape.org/) -->

<svg
   width="77.9728mm"
   height="48.5744mm"
   viewBox="0 0 276.282 172.114"
   id="svg4529"
   version="1.1"
   inkscape:version="1.1 (c68e22c387, 2021-05-23)"
   sodipodi:docname="wave-complex.svg"
   xmlns:inkscape="http://www.inkscape.org/namespaces/inkscape"
   xmlns:sodipodi="http://sodipodi.sourceforge.net/DTD/sodipodi-0.dtd"
   xmlns="http://www.w3.org/2000/svg"
   xmlns:svg="http://www.w3.org/2000/svg"
   xmlns:rdf="http://www.w3.org/1999/02/22-rdf-syntax-ns#"
   xmlns:cc="http://creativecommons.org/ns#"
   xmlns:dc="http://purl.org/dc/elements/1.1/">
  <defs
     id="defs4531">
    <marker
       inkscape:stockid="Arrow1Lstart"
       orient="auto"
       refY="0"
       refX="0"
       id="marker5733"
       style="overflow:visible"
       inkscape:isstock="true">
      <path
         id="path5735"
         d="M 0,0 5,-5 -12.5,0 5,5 Z"
         style="fill:#c17d11;fill-opacity:0.75;fill-rule:evenodd;stroke:#c17d11;stroke-width:1pt;stroke-opacity:1"
         transform="matrix(0.8,0,0,0.8,10,0)"
         inkscape:connector-curvature="0" />
    </marker>
    <marker
       inkscape:isstock="true"
       style="overflow:visible"
       id="marker5489"
       refX="0"
       refY="0"
       orient="auto"
       inkscape:stockid="Arrow1Lstart">
      <path
         transform="matrix(0.8,0,0,0.8,10,0)"
         style="fill:#c17d11;fill-opacity:0.75;fill-rule:evenodd;stroke:#c17d11;stroke-width:1pt;stroke-opacity:1"
         d="M 0,0 5,-5 -12.5,0 5,5 Z"
         id="path5491"
         inkscape:connector-curvature="0" />
    </marker>
    <marker
       inkscape:isstock="true"
       style="overflow:visible"
       id="marker5808"
       refX="0"
       refY="0"
       orient="auto"
       inkscape:stockid="Arrow1Mend">
      <path
         transform="matrix(-0.4,0,0,-0.4,-4,0)"
         style="fill:#000000;fill-opacity:1;fill-rule:evenodd;stroke:#000000;stroke-width:1pt;stroke-opacity:1"
         d="M 0,0 5,-5 -12.5,0 5,5 Z"
         id="path5810"
         inkscape:connector-curvature="0" />
    </marker>
    <marker
       inkscape:stockid="Arrow1Lend"
       orient="auto"
       refY="0"
       refX="0"
       id="Arrow1Lend"
       style="overflow:visible"
       inkscape:isstock="true">
      <path
         id="path5465"
         d="M 0,0 5,-5 -12.5,0 5,5 Z"
         style="fill:#000000;fill-opacity:1;fill-rule:evenodd;stroke:#000000;stroke-width:1pt;stroke-opacity:1"
         transform="matrix(-0.8,0,0,-0.8,-10,0)"
         inkscape:connector-curvature="0" />
    </marker>
    <marker
       inkscape:stockid="Arrow1MstartR"
       orient="auto"
       refY="0"
       refX="0"
       id="Arrow1MstartR"
       style="overflow:visible">
      <path
         inkscape:connector-curvature="0"
         id="path8138"
         d="M 0,0 5,-5 -12.5,0 5,5 Z"
         style="fill:#c4a000;fill-rule:evenodd;stroke:#c4a000;stroke-width:1pt;marker-start:none"
         transform="matrix(0.4,0,0,0.4,4,0)" />
    </marker>
    <marker
       inkscape:stockid="Arrow1MendB"
       orient="auto"
       refY="0"
       refX="0"
       id="Arrow1MendB"
       style="overflow:visible">
      <path
         inkscape:connector-curvature="0"
         id="path8141"
         d="M 0,0 5,-5 -12.5,0 5,5 Z"
         style="fill:#c4a000;fill-rule:evenodd;stroke:#c4a000;stroke-width:1pt;marker-start:none"
         transform="matrix(-0.4,0,0,-0.4,-4,0)" />
    </marker>
    <marker
       inkscape:stockid="Arrow1MstartU"
       orient="auto"
       refY="0"
       refX="0"
       id="Arrow1MstartU"
       style="overflow:visible">
      <path
         inkscape:connector-curvature="0"
         id="path8144"
         d="M 0,0 5,-5 -12.5,0 5,5 Z"
         style="fill:#c4a000;fill-rule:evenodd;stroke:#c4a000;stroke-width:1pt;marker-start:none"
         transform="matrix(0.4,0,0,0.4,4,0)" />
    </marker>
    <marker
       inkscape:stockid="Arrow1Mendc"
       orient="auto"
       refY="0"
       refX="0"
       id="Arrow1Mendc"
       style="overflow:visible">
      <path
         inkscape:connector-curvature="0"
         id="path8147"
         d="M 0,0 5,-5 -12.5,0 5,5 Z"
         style="fill:#c4a000;fill-rule:evenodd;stroke:#c4a000;stroke-width:1pt;marker-start:none"
         transform="matrix(-0.4,0,0,-0.4,-4,0)" />
    </marker>
    <marker
       inkscape:stockid="Arrow1Mstarty"
       orient="auto"
       refY="0"
       refX="0"
       id="Arrow1Mstarty"
       style="overflow:visible">
      <path
         inkscape:connector-curvature="0"
         id="path9144"
         d="M 0,0 5,-5 -12.5,0 5,5 Z"
         style="fill:#19aeff;fill-rule:evenodd;stroke:#19aeff;stroke-width:1pt;marker-start:none"
         transform="matrix(0.4,0,0,0.4,4,0)" />
    </marker>
    <marker
       inkscape:stockid="Arrow1Mend8"
       orient="auto"
       refY="0"
       refX="0"
       id="Arrow1Mend8"
       style="overflow:visible">
      <path
         inkscape:connector-curvature="0"
         id="path9147"
         d="M 0,0 5,-5 -12.5,0 5,5 Z"
         style="fill:#19aeff;fill-rule:evenodd;stroke:#19aeff;stroke-width:1pt;marker-start:none"
         transform="matrix(-0.4,0,0,-0.4,-4,0)" />
    </marker>
    <marker
       inkscape:stockid="Arrow1Mstarty"
       orient="auto"
       refY="0"
       refX="0"
       id="Arrow1Mstarty-5"
       style="overflow:visible">
      <path
         inkscape:connector-curvature="0"
         id="path9144-2"
         d="M 0,0 5,-5 -12.5,0 5,5 Z"
         style="fill:#19aeff;fill-rule:evenodd;stroke:#19aeff;stroke-width:1pt;marker-start:none"
         transform="matrix(0.4,0,0,0.4,4,0)" />
    </marker>
    <marker
       inkscape:stockid="Arrow1Mend8"
       orient="auto"
       refY="0"
       refX="0"
       id="Arrow1Mend8-3"
       style="overflow:visible">
      <path
         inkscape:connector-curvature="0"
         id="path9147-9"
         d="M 0,0 5,-5 -12.5,0 5,5 Z"
         style="fill:#19aeff;fill-rule:evenodd;stroke:#19aeff;stroke-width:1pt;marker-start:none"
         transform="matrix(-0.4,0,0,-0.4,-4,0)" />
    </marker>
    <marker
       inkscape:stockid="Arrow1Mstarty"
       orient="auto"
       refY="0"
       refX="0"
       id="marker5360"
       style="overflow:visible">
      <path
         inkscape:connector-curvature="0"
         id="path5362"
         d="M 0,0 5,-5 -12.5,0 5,5 Z"
         style="fill:#19aeff;fill-rule:evenodd;stroke:#19aeff;stroke-width:1pt;marker-start:none"
         transform="matrix(0.4,0,0,0.4,4,0)" />
    </marker>
    <marker
       inkscape:stockid="Arrow1Mend8"
       orient="auto"
       refY="0"
       refX="0"
       id="marker5364"
       style="overflow:visible">
      <path
         inkscape:connector-curvature="0"
         id="path5366"
         d="M 0,0 5,-5 -12.5,0 5,5 Z"
         style="fill:#19aeff;fill-rule:evenodd;stroke:#19aeff;stroke-width:1pt;marker-start:none"
         transform="matrix(-0.4,0,0,-0.4,-4,0)" />
    </marker>
    <marker
       inkscape:stockid="Arrow1Mstarty"
       orient="auto"
       refY="0"
       refX="0"
       id="marker5368"
       style="overflow:visible">
      <path
         inkscape:connector-curvature="0"
         id="path5370"
         d="M 0,0 5,-5 -12.5,0 5,5 Z"
         style="fill:#19aeff;fill-rule:evenodd;stroke:#19aeff;stroke-width:1pt;marker-start:none"
         transform="matrix(0.4,0,0,0.4,4,0)" />
    </marker>
    <marker
       inkscape:stockid="Arrow1Mend8"
       orient="auto"
       refY="0"
       refX="0"
       id="marker5372"
       style="overflow:visible">
      <path
         inkscape:connector-curvature="0"
         id="path5374"
         d="M 0,0 5,-5 -12.5,0 5,5 Z"
         style="fill:#19aeff;fill-rule:evenodd;stroke:#19aeff;stroke-width:1pt;marker-start:none"
         transform="matrix(-0.4,0,0,-0.4,-4,0)" />
    </marker>
    <marker
       inkscape:stockid="Arrow1Mstarty"
       orient="auto"
       refY="0"
       refX="0"
       id="marker5376"
       style="overflow:visible">
      <path
         inkscape:connector-curvature="0"
         id="path5378"
         d="M 0,0 5,-5 -12.5,0 5,5 Z"
         style="fill:#19aeff;fill-rule:evenodd;stroke:#19aeff;stroke-width:1pt;marker-start:none"
         transform="matrix(0.4,0,0,0.4,4,0)" />
    </marker>
    <marker
       inkscape:stockid="Arrow1Mend8"
       orient="auto"
       refY="0"
       refX="0"
       id="marker5380"
       style="overflow:visible">
      <path
         inkscape:connector-curvature="0"
         id="path5382"
         d="M 0,0 5,-5 -12.5,0 5,5 Z"
         style="fill:#19aeff;fill-rule:evenodd;stroke:#19aeff;stroke-width:1pt;marker-start:none"
         transform="matrix(-0.4,0,0,-0.4,-4,0)" />
    </marker>
  </defs>
  <sodipodi:namedview
     id="base"
     pagecolor="#ffffff"
     bordercolor="#666666"
     borderopacity="1.0"
     inkscape:pageopacity="0.0"
     inkscape:pageshadow="2"
     inkscape:zoom="0.74292"
     inkscape:cx="-402.04"
     inkscape:cy="-1704.5"
     inkscape:document-units="px"
     inkscape:current-layer="layer1"
     showgrid="false"
     inkscape:window-width="1536"
     inkscape:window-height="801"
     inkscape:window-x="1528"
     inkscape:window-y="-8"
     inkscape:window-maximized="1"
     showborder="true"
     inkscape:pagecheckerboard="0" />
  <metadata
     id="metadata4534">
    <rdf:RDF>
      <cc:Work
         rdf:about="">
        <dc:format>image/svg+xml</dc:format>
        <dc:type
           rdf:resource="http://purl.org/dc/dcmitype/StillImage" />
      </cc:Work>
    </rdf:RDF>
  </metadata>
  <g
     inkscape:label="Layer 1"
     inkscape:groupmode="layer"
     id="layer1"
     transform="translate(810.154,-672.459)">
    <path
       style="fill:none;stroke:#8f5902;stroke-width:1.50001;stroke-miterlimit:4;stroke-dasharray:none"
       d="m -809.445,715.247 c 2.17,-6.295 3.535,5.105 3.995,8.535 3.245,24.39 3.845,50.165 7.995,74.02 2.355,8.145 4.035,-5.745 4.44,-9.885 3.3,-26.86 3.685,-55.155 8.055,-81.405 2.595,-5.905 3.31,8.02 3.87,11.795 3.41,33.675 3.765,68.525 8.005,101.815 2.005,8.64 3.29,-6.155 3.585,-9.89 3.665,-42.745 3.925,-86.52 8.19,-129.045 1.25,-10.545 3.27,1.99 3.305,6.465 3.995,50.315 4.08,101.69 8.515,151.84 1.375,11.55 3.39,-3 3.415,-7.945 3.725,-50.655 3.975,-102.195 8.225,-152.685 0.57,-11.62 3.59,-2.87 3.455,4.16 3.8,46.345 3.94,93.75 8.395,139.865 1.27,11.405 3.7,-1.37 3.73,-6.775 3.33,-35.185 3.67,-71.46 7.955,-106.235 1.28,-10.15 4,1.08 4.105,6.07 2.985,23.175 3.49,47.72 7.695,70.195 2.08,7.725 4.375,-3.315 4.895,-7.605 2.59,-13.2 3.22,-28.62 7.595,-39.98 3.62,-3.295 5.03,8.18 6.5,12.985 2.175,7.51 3.095,19.135 7.49,22.155 4.505,-3.98 5.145,-16.305 7.215,-24.545 1.43,-5.45 1.98,-14.55 5.28,-16.11 3.97,6.62 4.16,18.94 5.79,28.44 1.57,10.15 2.03,21.695 5.205,30.35 3.135,0.125 3.145,-10.22 4.13,-15.03 2.795,-21.08 3.135,-43.72 7.36,-63.85 2.865,-2.875 3.14,8.785 3.915,12.92 2.99,25.515 3.405,52.31 7.585,77.18 2.455,6.37 3.455,-7.16 3.995,-10.705 3.07,-25.5 3.39,-52.44 7.775,-77.17 2.535,-6.11 3.615,7.155 4.22,10.91 2.79,20.825 3.27,43.12 7.49,63.01 2.6,5.74 3.985,-6.3 4.675,-10.205 2.55,-15.03 3.21,-31.75 7.32,-45.445 3.115,-4.355 4.455,6.895 5.495,11.28 2.46,11.08 3.15,24.775 7.495,33.51 3.715,0.6 4.37,-10.2 5.685,-15.7 2.28,-11.225 2.885,-24.61 6.805,-34.015 3.26,-0.395 3.455,9.84 4.5,14.63 2.645,18.63 3.32,38.515 6.995,56.475 2.87,5.26 3.45,-8.465 4.115,-12.515 3.28,-30.475 3.6,-62.205 7.795,-92.235 2.415,-6.64 3.035,7.905 3.535,11.59 3.16,39.045 4.03,78.75 7.04,117.855"
       id="polyline4818"
       inkscape:connector-curvature="0" />
  </g>
</svg>
