<?xml version="1.0" encoding="UTF-8" standalone="no"?>
<!-- Copyright 2017 mathsisfun.com -->
<svg xmlns="http://www.w3.org/2000/svg" xmlns:xlink="http://www.w3.org/1999/xlink" width="354.6" height="169.2" version="1.0">
<defs>
<linearGradient id="id1">
<stop offset="0" style="stop-color:#cccccc; stop-opacity:1;"/>
<stop offset="1" style="stop-color:#cccccc; stop-opacity:0;"/>
</linearGradient>
<linearGradient id="id2" gradientTransform="matrix(0.418291,0,0,0.449454,170.721,316.87)" xlink:href="#id1" x1="210.6" y1="670.8" x2="216.7" y2="481.4" gradientUnits="userSpaceOnUse"/>
</defs>
<g transform="translate(-105.104,-497.319)">
<rect x="154.3" y="539.1" ry="37.7" width="253" height="75.3" style="color:black; overflow:visible; fill:url(#id2); stroke:#999999; stroke-width:0.84;"/>
<g transform="matrix(0.398447,0,0,-0.41829,191.971,814.941)">
<path style="fill:#00ccff;" d="m 406.4,527.6 c -22.9,0 -41.6,18.6 -41.6,41.5 0,22.9 18.7,41.6 41.6,41.6 h 221.7 c 22.9,0 41.5,-18.7 41.5,-41.6 0,-22.9 -18.6,-41.5 -41.5,-41.5"/>
<path style="fill:none; stroke:#ff0000; stroke-width:4.56; stroke-linecap:round; stroke-linejoin:round;" d="m 406.4,527.6 c -22.9,0 -41.6,18.6 -41.6,41.5 0,22.9 18.7,41.6 41.6,41.6 h 221.7 c 22.9,0 41.5,-18.7 41.5,-41.6 0,-22.9 -18.6,-41.5 -41.5,-41.5 z"/>
<path style="fill:#ff0000;" d="m 380.9,512.2 -53.1,110.8 h 67.1 l 53,-110.8"/>
<path style="fill:none; stroke:#ff0000; stroke-width:4.56; stroke-linecap:round;" d="m 380.9,512.2 -53.1,110.8 h 67.1 l 53,-110.8 z"/>
</g>
<g transform="matrix(0.41829,0,0,-0.41829,178.64,814.941)">
<g>
<path style="fill:none; stroke:#008000; stroke-width:3.08; stroke-linejoin:round; stroke-dasharray:3.1, 3.1;" d="M 392.5,528.4 367,375.4"/>
<path style="fill:#008000;" d="M 373.9,374.7 364.9,362.1 360.2,377"/>
</g>
<g>
<path style="fill:none; stroke:#008000; stroke-width:3.08; stroke-linejoin:round; stroke-dasharray:3.1, 3.1;" d="m 420.2,537.6 -8.5,-162"/>
<path style="fill:#008000;" d="m 418.7,375.6 -7.8,-13.6 -6.2,14.3"/>
</g>
<g transform="translate(15.714,7.8571)">
<path style="fill:none; stroke:#008000; stroke-width:3.08; stroke-linejoin:round; stroke-dasharray:3.1, 3.1;" d="M 364.8,565.3 243.3,400.6"/>
<path style="fill:#008000;" d="m 249.2,397 -13.7,-7 2.6,15.2"/>
</g>
<g transform="translate(6.4286,6.4286)">
<path style="fill:none; stroke:#008000; stroke-width:3.08; stroke-linejoin:round; stroke-dasharray:3.1, 3.1;" d="M 401.7,574.5 306.3,383.4"/>
<path style="fill:#008000;" d="m 312.5,380.7 -12.4,-9.2 v 15.4"/>
</g>
<g transform="translate(10.714,9.2857)">
<path style="fill:none; stroke:#008000; stroke-width:3.08; stroke-linejoin:round; stroke-dasharray:3.1, 3.1;" d="M 374,602.3 190.3,444.7"/>
<path style="fill:#008000;" d="m 195.1,439.8 -14.9,-3.8 5.9,14.3"/>
</g>
</g>
<g transform="matrix(0.49375,0,0,-0.49375,82.2994,858.401)">
<g transform="translate(3.3203,4.333)">
<path style="fill:#3265ff; stroke:black; stroke-width:0.74; stroke-linecap:round; stroke-linejoin:round;" d="m 268.1,558.2 c 0,-3.9 -3.2,-7 -7,-7 -3.9,0 -7,3.1 -7,7 0,3.9 3.1,7.1 7,7.1 3.8,0 7,-3.2 7,-7.1 z"/>
<path style="fill:none; stroke:black; stroke-width:2.34; stroke-linejoin:round;" d="m 256.3,558.4 h 9.2"/>
</g>
<g transform="translate(3.3203,4.333)">
<path style="fill:none; stroke:black; stroke-width:0.74; stroke-linecap:round; stroke-linejoin:round;" d="m 272.9,558.3 h 14.9"/>
<path style="fill:black;" d="m 287.5,562.4 8.1,-4 -8.1,-4.1"/>
</g>
</g>
<g transform="matrix(0.49375,0,0,-0.49375,98.9849,841.419)">
<g transform="translate(3.3203,4.333)">
<path style="fill:#3265ff; stroke:black; stroke-width:0.74; stroke-linecap:round; stroke-linejoin:round;" d="m 268.1,558.2 c 0,-3.9 -3.2,-7 -7,-7 -3.9,0 -7,3.1 -7,7 0,3.9 3.1,7.1 7,7.1 3.8,0 7,-3.2 7,-7.1 z"/>
<path style="fill:none; stroke:black; stroke-width:2.34; stroke-linejoin:round;" d="m 256.3,558.4 h 9.2"/>
</g>
<g transform="translate(3.3203,4.333)">
<path style="fill:none; stroke:black; stroke-width:0.74; stroke-linecap:round; stroke-linejoin:round;" d="m 272.9,558.3 h 14.9"/>
<path style="fill:black;" d="m 287.5,562.4 8.1,-4 -8.1,-4.1"/>
</g>
</g>
<g transform="matrix(0.49375,0,0,-0.49375,114.83,853.047)">
<g transform="translate(3.3203,4.333)">
<path style="fill:#3265ff; stroke:black; stroke-width:0.74; stroke-linecap:round; stroke-linejoin:round;" d="m 268.1,558.2 c 0,-3.9 -3.2,-7 -7,-7 -3.9,0 -7,3.1 -7,7 0,3.9 3.1,7.1 7,7.1 3.8,0 7,-3.2 7,-7.1 z"/>
<path style="fill:none; stroke:black; stroke-width:2.34; stroke-linejoin:round;" d="m 256.3,558.4 h 9.2"/>
</g>
<g transform="translate(3.3203,4.333)">
<path style="fill:none; stroke:black; stroke-width:0.74; stroke-linecap:round; stroke-linejoin:round;" d="m 272.9,558.3 h 14.9"/>
<path style="fill:black;" d="m 287.5,562.4 8.1,-4 -8.1,-4.1"/>
</g>
</g>
<g transform="matrix(0.49375,0,0,-0.49375,146.3,851.415)">
<g transform="translate(3.3203,4.333)">
<path style="fill:#3265ff; stroke:black; stroke-width:0.74; stroke-linecap:round; stroke-linejoin:round;" d="m 268.1,558.2 c 0,-3.9 -3.2,-7 -7,-7 -3.9,0 -7,3.1 -7,7 0,3.9 3.1,7.1 7,7.1 3.8,0 7,-3.2 7,-7.1 z"/>
<path style="fill:none; stroke:black; stroke-width:2.34; stroke-linejoin:round;" d="m 256.3,558.4 h 9.2"/>
</g>
<g transform="translate(3.3203,4.333)">
<path style="fill:none; stroke:black; stroke-width:0.74; stroke-linecap:round; stroke-linejoin:round;" d="m 272.9,558.3 h 14.9"/>
<path style="fill:black;" d="m 287.5,562.4 8.1,-4 -8.1,-4.1"/>
</g>
</g>
<g transform="matrix(0.49375,0,0,-0.49375,164.728,842.715)">
<g transform="translate(3.3203,4.333)">
<path style="fill:#3265ff; stroke:black; stroke-width:0.74; stroke-linecap:round; stroke-linejoin:round;" d="m 268.1,558.2 c 0,-3.9 -3.2,-7 -7,-7 -3.9,0 -7,3.1 -7,7 0,3.9 3.1,7.1 7,7.1 3.8,0 7,-3.2 7,-7.1 z"/>
<path style="fill:none; stroke:black; stroke-width:2.34; stroke-linejoin:round;" d="m 256.3,558.4 h 9.2"/>
</g>
<g transform="translate(3.3203,4.333)">
<path style="fill:none; stroke:black; stroke-width:0.74; stroke-linecap:round; stroke-linejoin:round;" d="m 272.9,558.3 h 14.9"/>
<path style="fill:black;" d="m 287.5,562.4 8.1,-4 -8.1,-4.1"/>
</g>
</g>
<g transform="matrix(0.49375,0,0,-0.49375,180.573,854.343)">
<g transform="translate(3.3203,4.333)">
<path style="fill:#3265ff; stroke:black; stroke-width:0.74; stroke-linecap:round; stroke-linejoin:round;" d="m 268.1,558.2 c 0,-3.9 -3.2,-7 -7,-7 -3.9,0 -7,3.1 -7,7 0,3.9 3.1,7.1 7,7.1 3.8,0 7,-3.2 7,-7.1 z"/>
<path style="fill:none; stroke:black; stroke-width:2.34; stroke-linejoin:round;" d="m 256.3,558.4 h 9.2"/>
</g>
<g transform="translate(3.3203,4.333)">
<path style="fill:none; stroke:black; stroke-width:0.74; stroke-linecap:round; stroke-linejoin:round;" d="m 272.9,558.3 h 14.9"/>
<path style="fill:black;" d="m 287.5,562.4 8.1,-4 -8.1,-4.1"/>
</g>
</g>
<g style="stroke:#3265ff; stroke-width:3;" transform="matrix(0.41829,0,0,0.41829,165.932,351.474)">
<path style="fill:none; stroke:#3265ff; stroke-width:3; stroke-linecap:square;" d="M -88.5,507.2 V 350.8"/>
<path style="fill:none; stroke:#3265ff; stroke-width:3; stroke-linecap:square;" d="M -143.9,553.4 V 350.2"/>
<path style="fill:none; stroke:#3265ff; stroke-width:3; stroke-linejoin:round;" d="M -143.9,553.4 H 50.1"/>
<path style="fill:none; stroke:#3265ff; stroke-width:3; stroke-linecap:square; stroke-linejoin:bevel;" d="M -88.5,507.2 H 50.1"/>
<g style="stroke:#3265ff; stroke-width:3;" transform="matrix(1,0,0,-1,-176.16,1100.2)">
<path style="fill:none; stroke:#3265ff; stroke-width:3; stroke-linecap:round; stroke-linejoin:round;" d="m 244.8,565.3 c 0,-5.2 -10.4,-9.2 -23.2,-9.2 -12.8,0 -23,4.1 -23,9.2 0,5.1 10.2,9.2 23,9.2 12.8,0 23.2,-4.2 23.2,-9.2 z"/>
<path style="fill:none; stroke:#3265ff; stroke-width:3; stroke-linecap:round; stroke-linejoin:round;" d="m 244.8,555.9 c 0,-5.2 -10.4,-9.2 -23.2,-9.2 -12.8,0 -23,4.1 -23,9.2 0,5.1 10.2,9.2 23,9.2 12.8,0 23.2,-4.2 23.2,-9.2 z"/>
<path style="fill:none; stroke:#3265ff; stroke-width:3; stroke-linecap:round; stroke-linejoin:round;" d="m 244.8,574.5 c 0,-5.2 -10.4,-9.2 -23.2,-9.2 -12.8,0 -23,4.1 -23,9.2 0,5.1 10.2,9.2 23,9.2 12.8,0 23.2,-4.2 23.2,-9.2 z"/>
<path style="fill:none; stroke:#3265ff; stroke-width:3; stroke-linecap:round; stroke-linejoin:round;" d="m 244.8,583.9 c 0,-5.2 -10.4,-9.2 -23.2,-9.2 -12.8,0 -23,4.1 -23,9.2 0,5.1 10.2,9.2 23,9.2 12.8,0 23.2,-4.2 23.2,-9.2 z"/>
</g>
</g>
<text x="249.5" y="662.6" style="font-family:Arial; font-size:16.7px; color:black; overflow:visible; fill:#ff4141; stroke-width:0.42px;">X-Rays</text>
</g>
</svg>
