<?xml version="1.0" encoding="UTF-8" standalone="no"?>
<!-- Copyright 2017 mathsisfun.com -->
<svg xmlns="http://www.w3.org/2000/svg" width="422.5" height="68.2" version="1.1">
<defs>
</defs>
<g transform="translate(-2007.82,-1802.87)">
<path style="color:black; overflow:visible; fill:none; stroke:#204a87; stroke-width:1.2;" d="m 2130.4,1817.9 -103.9,41"/>
<path style="color:black; overflow:visible; fill:none; stroke:#204a87; stroke-width:1.2;" d="m 2104.6,1847.1 -74,15"/>
<path style="color:black; overflow:visible; fill:none; stroke:#204a87; stroke-width:1.2;" d="m 2112.3,1840.4 -93.4,9.6"/>
<path style="color:black; overflow:visible; fill:none; stroke:#204a87; stroke-width:1.2;" d="m 2081.5,1864 -68.3,-22.3"/>
<path style="overflow:visible; fill:none; stroke:#0197fd; stroke-width:2.01; stroke-linecap:round;" d="m 2008.8,1834.7 c 32.8,62.9 88.9,34 126.5,-24.4"/>
<path style="overflow:visible; fill:none; stroke:#0197fd; stroke-width:2.01; stroke-linecap:round;" d="m 2157.6,1834.7 c 16.4,31.4 38.6,40 61.5,33.3 22.8,-6.7 28.6,-48.5 65.9,-49.9"/>
<path style="color:black; overflow:visible; fill:none; stroke:#204a87; stroke-width:1.2;" d="m 2282.6,1818.5 -98.7,46.4"/>
<path style="color:black; overflow:visible; fill:#dcb400; stroke-width:0.52;" d="m 2046.4,1818.3 c 0.4,0.1 0.8,0.2 1.2,0.3 0.5,0.2 1.1,0.4 1.6,0.7 0.5,0.3 1,0.7 1.5,1 0.5,0.4 1,0.9 1.4,1.4 0.4,0.5 0.8,1 1.2,1.6 0.4,0.6 0.7,1.1 1,1.7 0.3,0.6 0.6,1.2 0.8,1.9 0.3,0.6 0.5,1.3 0.6,2 0.2,0.7 0.3,1.4 0.5,2 0.1,0.6 0.2,1.3 0.3,1.9 0,0.4 0.1,0.7 0.1,1.1 0,0.3 -0.1,0 -0.2,-0.2 -0.4,-0.5 -0.9,-0.9 -1.6,-1 -0.1,0 -0.2,-0.1 -0.3,-0.1 -0.9,0.6 -1.7,1.4 -2.5,2.1 0.2,0.1 0.2,0.1 0.3,-0.1 0.1,-0.3 0.2,-0.6 0.3,-0.9 0.1,-0.4 0.2,-0.9 0.3,-1.3 0.1,-0.5 0.3,-1 0.4,-1.5 0.2,-0.6 0.3,-1.1 0.5,-1.6 0.2,-0.6 0.3,-1.1 0.5,-1.7 0.2,-0.6 0.4,-1.3 0.6,-1.9 0.2,-0.7 0.5,-1.5 0.7,-2.2 0.3,-0.8 0.6,-1.6 0.9,-2.3 0.3,-0.8 0.7,-1.6 1.1,-2.3 0.4,-0.9 0.9,-1.7 1.5,-2.5 0.6,-0.8 1.2,-1.7 1.8,-2.5 0.6,-0.8 1.3,-1.6 1.9,-2.4 0.7,-0.8 1.4,-1.6 2.1,-2.4 0.7,-0.8 1.5,-1.5 2.2,-2.3 0.7,-0.7 1.5,-1.4 2.3,-2.1 0.6,-0.6 1.3,-1.1 1.9,-1.6 0,0 5,1.6 5,1.6 v 0 c -0.7,0.4 -1.3,0.9 -1.9,1.4 -0.8,0.6 -1.5,1.3 -2.2,1.9 -0.7,0.7 -1.5,1.4 -2.2,2.2 -0.7,0.7 -1.4,1.4 -2,2.2 -0.6,0.8 -1.3,1.5 -1.9,2.3 -0.6,0.8 -1.2,1.5 -1.8,2.3 -0.5,0.7 -1,1.4 -1.4,2.1 -0.4,0.7 -0.8,1.4 -1.1,2.1 -0.3,0.7 -0.6,1.4 -0.9,2.1 -0.3,0.7 -0.5,1.4 -0.7,2.1 -0.2,0.6 -0.4,1.3 -0.6,1.9 -0.2,0.6 -0.4,1.2 -0.5,1.7 -0.2,0.5 -0.3,1 -0.5,1.5 -0.1,0.5 -0.3,1 -0.4,1.5 -0.1,0.4 -0.2,0.8 -0.3,1.2 -0.1,0.4 -0.2,0.7 -0.3,1.1 -0.1,0.4 -0.1,0.9 -0.3,1.3 -0.9,0.8 -1.7,1.6 -2.7,2.3 -0.1,0.1 -0.3,0 -0.4,0 -0.8,-0.1 -1.4,-0.5 -1.9,-1.1 -0.2,-0.4 -0.4,-0.7 -0.5,-1.2 -0.1,-0.4 -0.1,-0.8 -0.2,-1.1 -0.1,-0.6 -0.2,-1.2 -0.2,-1.8 -0.1,-0.6 -0.2,-1.2 -0.4,-1.8 -0.1,-0.6 -0.3,-1.1 -0.5,-1.6 -0.2,-0.5 -0.4,-1.1 -0.7,-1.6 -0.2,-0.5 -0.5,-1 -0.8,-1.4 -0.3,-0.4 -0.6,-0.8 -0.9,-1.2 -0.3,-0.3 -0.6,-0.7 -1,-0.9 -0.3,-0.3 -0.7,-0.5 -1.1,-0.7 -0.3,-0.1 -0.6,-0.3 -1,-0.3 -0.3,-0.1 -0.6,-0.1 -1,-0.2 0,0 2.4,-4.6 2.4,-4.6 z"/>
<text x="2220.9" y="1833.8" transform="scale(1.00243,0.997576)" style="font-family:'Comic Sans MS'; font-weight:bold; font-size:37.2px; color:black; overflow:visible; fill:#dc0000; stroke-width:0.5px;">x</text>
<path style="overflow:visible; fill:none; stroke:#0197fd; stroke-width:2.01; stroke-linecap:round;" d="m 2302,1836.5 c 16.4,34.9 34.4,4 53.3,24.9 23,25.4 63.1,-19.3 74,-43.3"/>
<path style="color:black; overflow:visible; fill:none; stroke:#204a87; stroke-width:1.2;" d="m 2376.8,1868.3 -67.8,-20.6"/>
<text x="2335.4" y="1847.7" transform="scale(1.00243,0.997576)" style="font-family:'Comic Sans MS'; font-weight:bold; font-size:37.2px; color:black; overflow:visible; fill:#dc0000; stroke-width:0.5px;">x</text>
</g>
</svg>
