<?xml version="1.0" encoding="UTF-8" standalone="no"?>
<!-- Copyright 2017 mathsisfun.com -->
<svg xmlns="http://www.w3.org/2000/svg" width="233" height="211.3" version="1.1">
<defs/>
<g transform="translate(-1996.9,-482.544)">
<rect x="1996.9" y="482.5" width="233" height="211.3" style="color:black; overflow:visible; fill:white; stroke-width:1.95; stroke-linecap:round;"/>
<g transform="matrix(-0.490668,0.096151,0.096151,0.490668,2287.22,438.462)"/>
<path style="fill:none; stroke:#c4a000; stroke-width:1.5;" d="m 2030.3,691.3 c 7.1,-26.5 14.6,-53.5 28.5,-77.3 6.2,-9.9 14.8,-21 27.5,-21.5 13,0.3 22.8,10.3 30.9,19.3 20.3,24.3 34.8,52.7 51.6,79.3"/>
<path style="fill:none; stroke:#19aeff; stroke-width:1.5;" d="m 2034.8,691.3 c 6.2,-26.3 12.6,-53.1 25.3,-77.2 5.5,-9.8 13.4,-21 25.7,-21.7 12.7,0 22.7,9 32,16.4 10.4,8.3 20.4,18.6 34,21.3 11.4,2 20.7,-6.9 26.3,-15.8 12.6,-20.2 18.8,-43.6 24.8,-66.4 5.1,-20.3 9.2,-40.8 12.9,-61.4"/>
<g transform="matrix(0.5,0,0,0.5,1929.34,489.951)">
<polyline points="68.852 400.00, 68.852 0.00000, " style="fill:none; stroke:#0000ff; stroke-width:0.2;"/>
<polyline points="150.82 400.00, 150.82 0.00000, " style="fill:none; stroke:#0000ff; stroke-width:0.2;"/>
<polyline points="232.79 400.00, 232.79 0.00000, " style="fill:none; stroke:#0000ff; stroke-width:0.2;"/>
<polyline points="314.75 400.00, 314.75 0.00000, " style="fill:none; stroke:#0000ff; stroke-width:0.2;"/>
<polyline points="396.72 400.00, 396.72 0.00000, " style="fill:none; stroke:#0000ff; stroke-width:0.2;"/>
<polyline points="478.69 400.00, 478.69 0.00000, " style="fill:none; stroke:#0000ff; stroke-width:0.2;"/>
<polyline points="560.66 400.00, 560.66 0.00000, " style="fill:none; stroke:#0000ff; stroke-width:0.2;"/>
<polyline points="27.869 400.00, 27.869 0.00000, " style="fill:none; stroke:#0000ff; stroke-width:0.2;"/>
<polyline points="68.852 400.00, 68.852 0.00000, " style="fill:none; stroke:#0000ff; stroke-width:0.2;"/>
<polyline points="109.84 400.00, 109.84 0.00000, " style="fill:none; stroke:#0000ff; stroke-width:0.2;"/>
<polyline points="150.82 400.00, 150.82 0.00000, " style="fill:none; stroke:#0000ff; stroke-width:0.2;"/>
<polyline points="191.80 400.00, 191.80 0.00000, " style="fill:none; stroke:#0000ff; stroke-width:0.2;"/>
<polyline points="232.79 400.00, 232.79 0.00000, " style="fill:none; stroke:#0000ff; stroke-width:0.2;"/>
<polyline points="273.77 400.00, 273.77 0.00000, " style="fill:none; stroke:#0000ff; stroke-width:0.2;"/>
<polyline points="314.75 400.00, 314.75 0.00000, " style="fill:none; stroke:#0000ff; stroke-width:0.2;"/>
<polyline points="355.74 400.00, 355.74 0.00000, " style="fill:none; stroke:#0000ff; stroke-width:0.2;"/>
<polyline points="396.72 400.00, 396.72 0.00000, " style="fill:none; stroke:#0000ff; stroke-width:0.2;"/>
<polyline points="437.70 400.00, 437.70 0.00000, " style="fill:none; stroke:#0000ff; stroke-width:0.2;"/>
<polyline points="478.69 400.00, 478.69 0.00000, " style="fill:none; stroke:#0000ff; stroke-width:0.2;"/>
<polyline points="519.67 400.00, 519.67 0.00000, " style="fill:none; stroke:#0000ff; stroke-width:0.2;"/>
<polyline points="560.66 400.00, 560.66 0.00000, " style="fill:none; stroke:#0000ff; stroke-width:0.2;"/>
<polyline points="314.75 0.00000, 314.75 400.00, " style="fill:none; stroke:#ff4444; stroke-width:2;"/>
<polyline points="0.00000 368.85, 600.00 368.85, " style="fill:none; stroke:#0000ff; stroke-width:0.2;"/>
<polyline points="0.00000 286.89, 600.00 286.89, " style="fill:none; stroke:#0000ff; stroke-width:0.2;"/>
<polyline points="0.00000 204.92, 600.00 204.92, " style="fill:none; stroke:#0000ff; stroke-width:0.2;"/>
<polyline points="0.00000 122.95, 600.00 122.95, " style="fill:none; stroke:#0000ff; stroke-width:0.2;"/>
<polyline points="0.00000 40.984, 600.00 40.984, " style="fill:none; stroke:#0000ff; stroke-width:0.2;"/>
<polyline points="0.00000 368.85, 600.00 368.85, " style="fill:none; stroke:#0000ff; stroke-width:0.2;"/>
<polyline points="0.00000 327.87, 600.00 327.87, " style="fill:none; stroke:#0000ff; stroke-width:0.2;"/>
<polyline points="0.00000 286.89, 600.00 286.89, " style="fill:none; stroke:#0000ff; stroke-width:0.2;"/>
<polyline points="0.00000 245.90, 600.00 245.90, " style="fill:none; stroke:#0000ff; stroke-width:0.2;"/>
<polyline points="0.00000 204.92, 600.00 204.92, " style="fill:none; stroke:#0000ff; stroke-width:0.2;"/>
<polyline points="0.00000 163.93, 600.00 163.93, " style="fill:none; stroke:#0000ff; stroke-width:0.2;"/>
<polyline points="0.00000 122.95, 600.00 122.95, " style="fill:none; stroke:#0000ff; stroke-width:0.2;"/>
<polyline points="0.00000 81.967, 600.00 81.967, " style="fill:none; stroke:#0000ff; stroke-width:0.2;"/>
<polyline points="0.00000 40.984, 600.00 40.984, " style="fill:none; stroke:#0000ff; stroke-width:0.2;"/>
<polyline points="0.00000 204.92, 600.00 204.92, " style="fill:none; stroke:#4444ff; stroke-width:2;"/>
</g>
<text x="2156.6" y="669.6" style="font-family:'Comic Sans MS'; font-size:20px; color:black; overflow:visible; fill:#c4a000; stroke-width:0.5px;">0.2</text>
<text x="2132.1" y="532" style="font-family:'Comic Sans MS'; font-size:20px; color:black; overflow:visible; fill:#a40000; stroke-width:0.5px;">0.8</text>
<text x="2180.1" y="624.9" style="font-family:'Comic Sans MS'; font-size:20px; color:black; overflow:visible; fill:#19aeff; stroke-width:0.5px;">0.4</text>
<path style="fill:none; stroke:#ff4141; stroke-width:1.5;" d="m 2038,690.3 c 5.6,-25.9 11.3,-52.1 23,-76 5,-9.5 12.2,-20.5 24,-21.5 13.9,-0.3 24.6,10.2 37,14.8 8.1,3.7 18.3,2.3 24.5,-4.3 11.4,-11.6 16.6,-27.7 21.7,-42.8 7.4,-23.9 12.4,-48.5 16.8,-73.1"/>
<path style="fill:none; stroke:#a40000; stroke-width:1.5;" d="m 2040,692.7 c 5.3,-26.5 10.5,-53.4 21.7,-78.1 4.7,-9.4 11.2,-20.5 22.8,-21.8 14.6,-1.2 26.8,12.7 41.5,8.6 11,-3.9 16.5,-15.3 21,-25.1 11.5,-27.9 16.9,-57.8 22.3,-87.3 0.2,-1.3 0.5,-2.5 0.7,-3.7"/>
<text x="2162.3" y="576.4" style="font-family:'Comic Sans MS'; font-size:20px; color:black; overflow:visible; fill:#ff4141; stroke-width:0.5px;">0.6</text>
<text x="2077.7" y="555.9" style="font-family:'Comic Sans MS'; font-size:12px; color:black; overflow:visible; fill:black; stroke-width:0.5px;">1</text>
<text x="2074.7" y="515.3" style="font-family:'Comic Sans MS'; font-size:12px; color:black; overflow:visible; fill:black; stroke-width:0.5px;">2</text>
<text x="2126.3" y="604.4" style="font-family:'Comic Sans MS'; font-size:12px; color:black; overflow:visible; fill:black; stroke-width:0.5px;">1</text>
<text x="2041.1" y="604.1" style="font-family:'Comic Sans MS'; font-size:12px; color:black; overflow:visible; fill:black; stroke-width:0.5px;">-1</text>
<text x="1997.9" y="603.6" style="font-family:'Comic Sans MS'; font-size:12px; color:black; overflow:visible; fill:black; stroke-width:0.5px;">-2</text>
<text x="2074.5" y="637.8" style="font-family:'Comic Sans MS'; font-size:12px; color:black; overflow:visible; fill:black; stroke-width:0.5px;">-1</text>
<text x="2071.8" y="678.8" style="font-family:'Comic Sans MS'; font-size:12px; color:black; overflow:visible; fill:black; stroke-width:0.5px;">-2</text>
<text x="2165.7" y="603.6" style="font-family:'Comic Sans MS'; font-size:12px; color:black; overflow:visible; fill:black; stroke-width:0.5px;">2</text>
<text x="2079.5" y="604.1" style="font-family:'Comic Sans MS'; font-size:12px; color:black; overflow:visible; fill:black; stroke-width:0.5px;">0</text>
</g>
</svg>
