<?xml version="1.0" encoding="UTF-8" standalone="no"?>
<svg
   xmlns:dc="http://purl.org/dc/elements/1.1/"
   xmlns:cc="http://creativecommons.org/ns#"
   xmlns:rdf="http://www.w3.org/1999/02/22-rdf-syntax-ns#"
   xmlns:svg="http://www.w3.org/2000/svg"
   xmlns="http://www.w3.org/2000/svg"
   xmlns:sodipodi="http://sodipodi.sourceforge.net/DTD/sodipodi-0.dtd"
   xmlns:inkscape="http://www.inkscape.org/namespaces/inkscape"
   width="550px"
   height="340px"
   version="1.1"
   id="svg5612"
   sodipodi:docname="diff-eq-lin-d.svg"
   inkscape:version="1.0.1 (3bc2e813f5, 2020-09-07)">
  <metadata
     id="metadata5618">
    <rdf:RDF>
      <cc:Work
         rdf:about="">
        <dc:format>image/svg+xml</dc:format>
        <dc:type
           rdf:resource="http://purl.org/dc/dcmitype/StillImage" />
        <dc:title />
      </cc:Work>
    </rdf:RDF>
  </metadata>
  <defs
     id="defs5616">
    <marker
       inkscape:stockid="Arrow1Lstart"
       orient="auto"
       refY="0"
       refX="0"
       id="Arrow1Lstart"
       style="overflow:visible"
       inkscape:isstock="true">
      <path
         inkscape:connector-curvature="0"
         id="path5038"
         d="M 0,0 5,-5 -12.5,0 5,5 Z"
         style="fill:#0000ff;fill-opacity:1;fill-rule:evenodd;stroke:#0000ff;stroke-width:1pt;stroke-opacity:1"
         transform="matrix(0.8,0,0,0.8,10,0)" />
    </marker>
    <marker
       inkscape:stockid="Arrow1Lstart"
       orient="auto"
       refY="0"
       refX="0"
       id="Arrow1Lstart-7-7"
       style="overflow:visible"
       inkscape:isstock="true">
      <path
         inkscape:connector-curvature="0"
         id="path5038-8-0"
         d="M 0,0 5,-5 -12.5,0 5,5 Z"
         style="fill:#ff0000;fill-opacity:1;fill-rule:evenodd;stroke:#ff0000;stroke-width:1pt;stroke-opacity:1"
         transform="matrix(0.8,0,0,0.8,10,0)" />
    </marker>
  </defs>
  <sodipodi:namedview
     pagecolor="#ffffff"
     bordercolor="#666666"
     borderopacity="1"
     objecttolerance="10"
     gridtolerance="10"
     guidetolerance="10"
     inkscape:pageopacity="0"
     inkscape:pageshadow="2"
     inkscape:window-width="958"
     inkscape:window-height="1008"
     id="namedview5614"
     showgrid="false"
     inkscape:zoom="1.5568097"
     inkscape:cx="272.55785"
     inkscape:cy="157.75468"
     inkscape:window-x="-7"
     inkscape:window-y="0"
     inkscape:window-maximized="0"
     inkscape:current-layer="svg5612"
     inkscape:document-rotation="0" />
  <desc
     id="desc5446">SVG Output</desc>
  <polyline
     points="3.5714 340.00, 3.5714 0.0000, "
     stroke-width="0.5"
     stroke="#88f"
     fill="none"
     id="polyline5448"
     style="stroke:#8888ff;stroke-opacity:0.357388" />
  <polyline
     points="17.857 340.00, 17.857 0.0000, "
     stroke-width="0.5"
     stroke="#88f"
     fill="none"
     id="polyline5450"
     style="stroke:#8888ff;stroke-opacity:0.357388" />
  <polyline
     points="32.143 340.00, 32.143 0.0000, "
     stroke-width="0.5"
     stroke="#88f"
     fill="none"
     id="polyline5452"
     style="stroke:#8888ff;stroke-opacity:0.357388" />
  <polyline
     points="46.429 340.00, 46.429 0.0000, "
     stroke-width="0.5"
     stroke="#88f"
     fill="none"
     id="polyline5454"
     style="stroke:#8888ff;stroke-opacity:0.357388" />
  <text
     x="60.7143"
     y="184"
     style="text-anchor:middle;fill:#0000ff;stroke:none"
     id="text5456">-3</text>
  <polyline
     points="60.714 340.00, 60.714 0.0000, "
     stroke-width="0.5"
     stroke="#00f"
     fill="none"
     id="polyline5458" />
  <polyline
     points="75.000 340.00, 75.000 0.0000, "
     stroke-width="0.5"
     stroke="#88f"
     fill="none"
     id="polyline5460"
     style="stroke:#8888ff;stroke-opacity:0.357388" />
  <polyline
     points="89.286 340.00, 89.286 0.0000, "
     stroke-width="0.5"
     stroke="#88f"
     fill="none"
     id="polyline5462"
     style="stroke:#8888ff;stroke-opacity:0.357388" />
  <polyline
     points="103.57 340.00, 103.57 0.0000, "
     stroke-width="0.5"
     stroke="#88f"
     fill="none"
     id="polyline5464"
     style="stroke:#8888ff;stroke-opacity:0.357388" />
  <polyline
     points="117.86 340.00, 117.86 0.0000, "
     stroke-width="0.5"
     stroke="#88f"
     fill="none"
     id="polyline5466"
     style="stroke:#8888ff;stroke-opacity:0.357388" />
  <text
     x="132.143"
     y="184"
     style="text-anchor:middle;fill:#0000ff;stroke:none"
     id="text5468">-2</text>
  <polyline
     points="132.14 340.00, 132.14 0.0000, "
     stroke-width="0.5"
     stroke="#00f"
     fill="none"
     id="polyline5470" />
  <polyline
     points="146.43 340.00, 146.43 0.0000, "
     stroke-width="0.5"
     stroke="#88f"
     fill="none"
     id="polyline5472"
     style="stroke:#8888ff;stroke-opacity:0.357388" />
  <polyline
     points="160.71 340.00, 160.71 0.0000, "
     stroke-width="0.5"
     stroke="#88f"
     fill="none"
     id="polyline5474"
     style="stroke:#8888ff;stroke-opacity:0.357388" />
  <polyline
     points="175.00 340.00, 175.00 0.0000, "
     stroke-width="0.5"
     stroke="#88f"
     fill="none"
     id="polyline5476"
     style="stroke:#8888ff;stroke-opacity:0.357388" />
  <polyline
     points="189.29 340.00, 189.29 0.0000, "
     stroke-width="0.5"
     stroke="#88f"
     fill="none"
     id="polyline5478"
     style="stroke:#8888ff;stroke-opacity:0.357388" />
  <text
     x="203.571"
     y="184"
     style="text-anchor:middle;fill:#0000ff;stroke:none"
     id="text5480">-1</text>
  <polyline
     points="203.57 340.00, 203.57 0.0000, "
     stroke-width="0.5"
     stroke="#00f"
     fill="none"
     id="polyline5482" />
  <polyline
     points="217.86 340.00, 217.86 0.0000, "
     stroke-width="0.5"
     stroke="#88f"
     fill="none"
     id="polyline5484"
     style="stroke:#8888ff;stroke-opacity:0.357388" />
  <polyline
     points="232.14 340.00, 232.14 0.0000, "
     stroke-width="0.5"
     stroke="#88f"
     fill="none"
     id="polyline5486"
     style="stroke:#8888ff;stroke-opacity:0.357388" />
  <polyline
     points="246.43 340.00, 246.43 0.0000, "
     stroke-width="0.5"
     stroke="#88f"
     fill="none"
     id="polyline5488"
     style="stroke:#8888ff;stroke-opacity:0.357388" />
  <polyline
     points="260.71 340.00, 260.71 0.0000, "
     stroke-width="0.5"
     stroke="#88f"
     fill="none"
     id="polyline5490"
     style="stroke:#8888ff;stroke-opacity:0.357388" />
  <text
     x="279.883"
     y="180.821"
     style="text-anchor:middle;fill:#0000ff;stroke:none"
     id="text5492">0</text>
  <polyline
     points="275.00 340.00, 275.00 0.0000, "
     id="polyline5494"
     transform="matrix(1,0,0,0.98485369,0,5.1497448)"
     style="fill:none;stroke:#0000ff;stroke-width:0.5" />
  <polyline
     points="289.29 340.00, 289.29 0.0000, "
     stroke-width="0.5"
     stroke="#88f"
     fill="none"
     id="polyline5496"
     style="stroke:#8888ff;stroke-opacity:0.357388" />
  <polyline
     points="303.57 340.00, 303.57 0.0000, "
     stroke-width="0.5"
     stroke="#88f"
     fill="none"
     id="polyline5498"
     style="stroke:#8888ff;stroke-opacity:0.357388" />
  <polyline
     points="317.86 340.00, 317.86 0.0000, "
     stroke-width="0.5"
     stroke="#88f"
     fill="none"
     id="polyline5500"
     style="stroke:#8888ff;stroke-opacity:0.357388" />
  <polyline
     points="332.14 340.00, 332.14 0.0000, "
     stroke-width="0.5"
     stroke="#88f"
     fill="none"
     id="polyline5502"
     style="stroke:#8888ff;stroke-opacity:0.357388" />
  <text
     x="346.429"
     y="184"
     style="text-anchor:middle;fill:#0000ff;stroke:none"
     id="text5504">1</text>
  <polyline
     points="346.43 340.00, 346.43 0.0000, "
     stroke-width="0.5"
     stroke="#00f"
     fill="none"
     id="polyline5506" />
  <polyline
     points="360.71 340.00, 360.71 0.0000, "
     stroke-width="0.5"
     stroke="#88f"
     fill="none"
     id="polyline5508"
     style="stroke:#8888ff;stroke-opacity:0.357388" />
  <polyline
     points="375.00 340.00, 375.00 0.0000, "
     stroke-width="0.5"
     stroke="#88f"
     fill="none"
     id="polyline5510"
     style="stroke:#8888ff;stroke-opacity:0.357388" />
  <polyline
     points="389.29 340.00, 389.29 0.0000, "
     stroke-width="0.5"
     stroke="#88f"
     fill="none"
     id="polyline5512"
     style="stroke:#8888ff;stroke-opacity:0.357388" />
  <polyline
     points="403.57 340.00, 403.57 0.0000, "
     stroke-width="0.5"
     stroke="#88f"
     fill="none"
     id="polyline5514"
     style="stroke:#8888ff;stroke-opacity:0.357388" />
  <text
     x="417.857"
     y="184"
     style="text-anchor:middle;fill:#0000ff;stroke:none"
     id="text5516">2</text>
  <polyline
     points="417.86 340.00, 417.86 0.0000, "
     stroke-width="0.5"
     stroke="#00f"
     fill="none"
     id="polyline5518" />
  <polyline
     points="432.14 340.00, 432.14 0.0000, "
     stroke-width="0.5"
     stroke="#88f"
     fill="none"
     id="polyline5520"
     style="stroke:#8888ff;stroke-opacity:0.357388" />
  <polyline
     points="446.43 340.00, 446.43 0.0000, "
     stroke-width="0.5"
     stroke="#88f"
     fill="none"
     id="polyline5522"
     style="stroke:#8888ff;stroke-opacity:0.357388" />
  <polyline
     points="460.71 340.00, 460.71 0.0000, "
     stroke-width="0.5"
     stroke="#88f"
     fill="none"
     id="polyline5524"
     style="stroke:#8888ff;stroke-opacity:0.357388" />
  <polyline
     points="475.00 340.00, 475.00 0.0000, "
     stroke-width="0.5"
     stroke="#88f"
     fill="none"
     id="polyline5526"
     style="stroke:#8888ff;stroke-opacity:0.357388" />
  <text
     x="489.286"
     y="184"
     style="text-anchor:middle;fill:#0000ff;stroke:none"
     id="text5528">3</text>
  <polyline
     points="489.29 340.00, 489.29 0.0000, "
     stroke-width="0.5"
     stroke="#00f"
     fill="none"
     id="polyline5530" />
  <polyline
     points="503.57 340.00, 503.57 0.0000, "
     stroke-width="0.5"
     stroke="#88f"
     fill="none"
     id="polyline5532"
     style="stroke:#8888ff;stroke-opacity:0.357388" />
  <polyline
     points="517.86 340.00, 517.86 0.0000, "
     stroke-width="0.5"
     stroke="#88f"
     fill="none"
     id="polyline5534"
     style="stroke:#8888ff;stroke-opacity:0.357388" />
  <polyline
     points="532.14 340.00, 532.14 0.0000, "
     stroke-width="0.5"
     stroke="#88f"
     fill="none"
     id="polyline5536"
     style="stroke:#8888ff;stroke-opacity:0.357388" />
  <polyline
     points="546.43 340.00, 546.43 0.0000, "
     stroke-width="0.5"
     stroke="#88f"
     fill="none"
     id="polyline5538"
     style="stroke:#8888ff;stroke-opacity:0.357388" />
  <polyline
     points="275.00 340.00, 275.00 0.0000, "
     id="polyline5544"
     transform="matrix(1,0,0,0.98848881,0,3.9138061)"
     style="fill:none;stroke:#ff0000;stroke-width:1.5" />
  <polyline
     points="0.0000 327.14, 550.00 327.14, "
     stroke-width="0.5"
     stroke="#88f"
     fill="none"
     id="polyline5546"
     style="stroke:#8888ff;stroke-opacity:0.357388" />
  <text
     x="270"
     y="317.857"
     style="text-anchor:end;fill:#ff0000;stroke:none"
     id="text5548">-2</text>
  <polyline
     points="0.0000 312.86, 550.00 312.86, "
     stroke-width="0.5"
     stroke="#00f"
     fill="none"
     id="polyline5550" />
  <polyline
     points="0.0000 298.57, 550.00 298.57, "
     stroke-width="0.5"
     stroke="#88f"
     fill="none"
     id="polyline5552"
     style="stroke:#8888ff;stroke-opacity:0.357388" />
  <polyline
     points="0.0000 284.29, 550.00 284.29, "
     stroke-width="0.5"
     stroke="#88f"
     fill="none"
     id="polyline5554"
     style="stroke:#8888ff;stroke-opacity:0.357388" />
  <polyline
     points="0.0000 270.00, 550.00 270.00, "
     stroke-width="0.5"
     stroke="#88f"
     fill="none"
     id="polyline5556"
     style="stroke:#8888ff;stroke-opacity:0.357388" />
  <polyline
     points="0.0000 255.71, 550.00 255.71, "
     stroke-width="0.5"
     stroke="#88f"
     fill="none"
     id="polyline5558"
     style="stroke:#8888ff;stroke-opacity:0.357388" />
  <text
     x="270"
     y="246.429"
     style="text-anchor:end;fill:#ff0000;stroke:none"
     id="text5560">-1</text>
  <polyline
     points="0.0000 241.43, 550.00 241.43, "
     stroke-width="0.5"
     stroke="#00f"
     fill="none"
     id="polyline5562" />
  <polyline
     points="0.0000 227.14, 550.00 227.14, "
     stroke-width="0.5"
     stroke="#88f"
     fill="none"
     id="polyline5564"
     style="stroke:#8888ff;stroke-opacity:0.357388" />
  <polyline
     points="0.0000 212.86, 550.00 212.86, "
     stroke-width="0.5"
     stroke="#88f"
     fill="none"
     id="polyline5566"
     style="stroke:#8888ff;stroke-opacity:0.357388" />
  <polyline
     points="0.0000 198.57, 550.00 198.57, "
     stroke-width="0.5"
     stroke="#88f"
     fill="none"
     id="polyline5568"
     style="stroke:#8888ff;stroke-opacity:0.357388" />
  <polyline
     points="0.0000 184.29, 550.00 184.29, "
     stroke-width="0.5"
     stroke="#88f"
     fill="none"
     id="polyline5570"
     style="stroke:#8888ff;stroke-opacity:0.357388" />
  <text
     x="274.315"
     y="168.073"
     style="text-anchor:end;fill:#ff0000;stroke:none"
     id="text5572">0</text>
  <polyline
     points="0.0000 170.00, 550.00 170.00, "
     id="polyline5574"
     transform="scale(0.98808263,1)"
     style="fill:none;stroke:#0000ff;stroke-width:0.5" />
  <polyline
     points="0.0000 155.71, 550.00 155.71, "
     stroke-width="0.5"
     stroke="#88f"
     fill="none"
     id="polyline5576"
     style="stroke:#8888ff;stroke-opacity:0.357388" />
  <polyline
     points="0.0000 141.43, 550.00 141.43, "
     stroke-width="0.5"
     stroke="#88f"
     fill="none"
     id="polyline5578"
     style="stroke:#8888ff;stroke-opacity:0.357388" />
  <polyline
     points="0.0000 127.14, 550.00 127.14, "
     stroke-width="0.5"
     stroke="#88f"
     fill="none"
     id="polyline5580"
     style="stroke:#8888ff;stroke-opacity:0.357388" />
  <polyline
     points="0.0000 112.86, 550.00 112.86, "
     stroke-width="0.5"
     stroke="#88f"
     fill="none"
     id="polyline5582"
     style="stroke:#8888ff;stroke-opacity:0.357388" />
  <text
     x="270"
     y="103.571"
     style="text-anchor:end;fill:#ff0000;stroke:none"
     id="text5584">1</text>
  <polyline
     points="0.0000 98.571, 550.00 98.571, "
     stroke-width="0.5"
     stroke="#00f"
     fill="none"
     id="polyline5586" />
  <polyline
     points="0.0000 84.286, 550.00 84.286, "
     stroke-width="0.5"
     stroke="#88f"
     fill="none"
     id="polyline5588"
     style="stroke:#8888ff;stroke-opacity:0.357388" />
  <polyline
     points="0.0000 70.000, 550.00 70.000, "
     stroke-width="0.5"
     stroke="#88f"
     fill="none"
     id="polyline5590"
     style="stroke:#8888ff;stroke-opacity:0.357388" />
  <polyline
     points="0.0000 55.714, 550.00 55.714, "
     stroke-width="0.5"
     stroke="#88f"
     fill="none"
     id="polyline5592"
     style="stroke:#8888ff;stroke-opacity:0.357388" />
  <polyline
     points="0.0000 41.429, 550.00 41.429, "
     stroke-width="0.5"
     stroke="#88f"
     fill="none"
     id="polyline5594"
     style="stroke:#8888ff;stroke-opacity:0.357388" />
  <text
     x="270"
     y="32.1429"
     style="text-anchor:end;fill:#ff0000;stroke:none"
     id="text5596">2</text>
  <polyline
     points="0.0000 27.143, 550.00 27.143, "
     stroke-width="0.5"
     stroke="#00f"
     fill="none"
     id="polyline5598" />
  <polyline
     points="0.0000 12.857, 550.00 12.857, "
     stroke-width="0.5"
     stroke="#88f"
     fill="none"
     id="polyline5600"
     style="stroke:#8888ff;stroke-opacity:0.357388" />
  <polyline
     points="0.0000 170.00, 550.00 170.00, "
     id="polyline5604"
     transform="scale(0.98576798,1)"
     style="fill:none;stroke:#0000ff;stroke-width:2" />
  <polyline
     points="143.00 340.16, 144.00 336.35, 145.00 332.57, 146.00 328.81, 147.00 325.07, 148.00 321.35, 149.00 317.66, 150.00 313.98, 151.00 310.33, 152.00 306.70, 153.00 303.08, 154.00 299.49, 155.00 295.92, 156.00 292.37, 157.00 288.84, 158.00 285.33, 159.00 281.84, 160.00 278.37, 161.00 274.92, 162.00 271.49, 163.00 268.08, 164.00 264.68, 165.00 261.30, 166.00 257.95, 167.00 254.61, 168.00 251.28, 169.00 247.98, 170.00 244.69, 171.00 241.42, 172.00 238.17, 173.00 234.93, 174.00 231.71, 175.00 228.51, 176.00 225.32, 177.00 222.15, 178.00 219.00, 179.00 215.86, 180.00 212.74, 181.00 209.64, 182.00 206.55, 183.00 203.47, 184.00 200.41, 185.00 197.37, 186.00 194.34, 187.00 191.33, 188.00 188.33, 189.00 185.35, 190.00 182.39, 191.00 179.44, 192.00 176.50, 193.00 173.59, 194.00 170.68, 195.00 167.80, 196.00 164.93, 197.00 162.07, 198.00 159.23, 199.00 156.41, 200.00 153.60, 201.00 150.82, 202.00 148.04, 203.00 145.29, 204.00 142.55, 205.00 139.83, 206.00 137.13, 207.00 134.45, 208.00 131.79, 209.00 129.14, 210.00 126.52, 211.00 123.91, 212.00 121.33, 213.00 118.76, 214.00 116.22, 215.00 113.70, 216.00 111.20, 217.00 108.73, 218.00 106.27, 219.00 103.84, 220.00 101.44, 221.00 99.063, 222.00 96.710, 223.00 94.384, 224.00 92.084, 225.00 89.812, 226.00 87.569, 227.00 85.355, 228.00 83.170, 229.00 81.016, 230.00 78.893, 231.00 76.802, 232.00 74.743, 233.00 72.718, 234.00 70.727, 235.00 68.771, 236.00 66.850, 237.00 64.966, 238.00 63.119, 239.00 61.310, 240.00 59.539, 241.00 57.808, 242.00 56.118, 243.00 54.468, 244.00 52.860, 245.00 51.294, 246.00 49.772, 247.00 48.293, 248.00 46.859, 249.00 45.471, 250.00 44.128, 251.00 42.832, 252.00 41.584, 253.00 40.383, 254.00 39.232, 255.00 38.129, 256.00 37.076, 257.00 36.074, 258.00 35.122, 259.00 34.222, 260.00 33.374, 261.00 32.579, 262.00 31.836, 263.00 31.147, 264.00 30.511, 265.00 29.929, 266.00 29.402, 267.00 28.929, 268.00 28.512, 269.00 28.149, 270.00 27.842, 271.00 27.591, 272.00 27.395, 273.00 27.255, 274.00 27.171, 275.00 27.143, 276.00 27.171, 277.00 27.255, 278.00 27.395, 279.00 27.591, 280.00 27.842, 281.00 28.149, 282.00 28.512, 283.00 28.929, 284.00 29.402, 285.00 29.929, 286.00 30.511, 287.00 31.147, 288.00 31.836, 289.00 32.579, 290.00 33.374, 291.00 34.222, 292.00 35.122, 293.00 36.074, 294.00 37.076, 295.00 38.129, 296.00 39.232, 297.00 40.383, 298.00 41.584, 299.00 42.832, 300.00 44.128, 301.00 45.471, 302.00 46.859, 303.00 48.293, 304.00 49.772, 305.00 51.294, 306.00 52.860, 307.00 54.468, 308.00 56.118, 309.00 57.808, 310.00 59.539, 311.00 61.310, 312.00 63.119, 313.00 64.966, 314.00 66.850, 315.00 68.771, 316.00 70.727, 317.00 72.718, 318.00 74.743, 319.00 76.802, 320.00 78.893, 321.00 81.016, 322.00 83.170, 323.00 85.355, 324.00 87.569, 325.00 89.812, 326.00 92.084, 327.00 94.384, 328.00 96.710, 329.00 99.063, 330.00 101.44, 331.00 103.84, 332.00 106.27, 333.00 108.73, 334.00 111.20, 335.00 113.70, 336.00 116.22, 337.00 118.76, 338.00 121.33, 339.00 123.91, 340.00 126.52, 341.00 129.14, 342.00 131.79, 343.00 134.45, 344.00 137.13, 345.00 139.83, 346.00 142.55, 347.00 145.29, 348.00 148.04, 349.00 150.82, 350.00 153.60, 351.00 156.41, 352.00 159.23, 353.00 162.07, 354.00 164.93, 355.00 167.80, 356.00 170.68, 357.00 173.59, 358.00 176.50, 359.00 179.44, 360.00 182.39, 361.00 185.35, 362.00 188.33, 363.00 191.33, 364.00 194.34, 365.00 197.37, 366.00 200.41, 367.00 203.47, 368.00 206.55, 369.00 209.64, 370.00 212.74, 371.00 215.86, 372.00 219.00, 373.00 222.15, 374.00 225.32, 375.00 228.51, 376.00 231.71, 377.00 234.93, 378.00 238.17, 379.00 241.42, 380.00 244.69, 381.00 247.98, 382.00 251.28, 383.00 254.61, 384.00 257.95, 385.00 261.30, 386.00 264.68, 387.00 268.08, 388.00 271.49, 389.00 274.92, 390.00 278.37, 391.00 281.84, 392.00 285.33, 393.00 288.84, 394.00 292.37, 395.00 295.92, 396.00 299.49, 397.00 303.08, 398.00 306.70, 399.00 310.33, 400.00 313.98, 401.00 317.66, 402.00 321.35, 403.00 325.07, 404.00 328.81, 405.00 332.57, 406.00 336.35, 407.00 340.16, 408.00 343.99, "
     stroke-width="1.5"
     stroke="darkblue"
     fill="none"
     id="polyline5606" />
  <polyline
     points="144.00 341.30, 145.00 337.77, 146.00 334.28, 147.00 330.83, 148.00 327.40, 149.00 324.02, 150.00 320.66, 151.00 317.34, 152.00 314.06, 153.00 310.81, 154.00 307.60, 155.00 304.42, 156.00 301.28, 157.00 298.17, 158.00 295.10, 159.00 292.07, 160.00 289.07, 161.00 286.11, 162.00 283.18, 163.00 280.30, 164.00 277.45, 165.00 274.64, 166.00 271.86, 167.00 269.13, 168.00 266.43, 169.00 263.77, 170.00 261.15, 171.00 258.57, 172.00 256.03, 173.00 253.52, 174.00 251.06, 175.00 248.63, 176.00 246.25, 177.00 243.90, 178.00 241.59, 179.00 239.33, 180.00 237.10, 181.00 234.92, 182.00 232.77, 183.00 230.66, 184.00 228.60, 185.00 226.57, 186.00 224.59, 187.00 222.64, 188.00 220.74, 189.00 218.88, 190.00 217.05, 191.00 215.27, 192.00 213.53, 193.00 211.83, 194.00 210.17, 195.00 208.55, 196.00 206.97, 197.00 205.42, 198.00 203.92, 199.00 202.46, 200.00 201.04, 201.00 199.66, 202.00 198.31, 203.00 197.01, 204.00 195.74, 205.00 194.51, 206.00 193.32, 207.00 192.17, 208.00 191.05, 209.00 189.97, 210.00 188.93, 211.00 187.92, 212.00 186.95, 213.00 186.01, 214.00 185.11, 215.00 184.24, 216.00 183.41, 217.00 182.61, 218.00 181.84, 219.00 181.11, 220.00 180.40, 221.00 179.73, 222.00 179.08, 223.00 178.47, 224.00 177.89, 225.00 177.33, 226.00 176.80, 227.00 176.30, 228.00 175.82, 229.00 175.38, 230.00 174.95, 231.00 174.55, 232.00 174.17, 233.00 173.82, 234.00 173.48, 235.00 173.17, 236.00 172.88, 237.00 172.61, 238.00 172.36, 239.00 172.12, 240.00 171.90, 241.00 171.70, 242.00 171.52, 243.00 171.35, 244.00 171.19, 245.00 171.05, 246.00 170.92, 247.00 170.80, 248.00 170.70, 249.00 170.60, 250.00 170.51, 251.00 170.44, 252.00 170.37, 253.00 170.31, 254.00 170.26, 255.00 170.21, 256.00 170.17, 257.00 170.14, 258.00 170.11, 259.00 170.09, 260.00 170.07, 261.00 170.05, 262.00 170.04, 263.00 170.03, 264.00 170.02, 265.00 170.01, 266.00 170.01, 267.00 170.01, 268.00 170.00, 269.00 170.00, 270.00 170.00, 271.00 170.00, 272.00 170.00, 273.00 170.00, 274.00 170.00, 275.00 170.00, 276.00 170.00, 277.00 170.00, 278.00 170.00, 279.00 170.00, 280.00 170.00, 281.00 170.00, 282.00 170.00, 283.00 170.01, 284.00 170.01, 285.00 170.01, 286.00 170.02, 287.00 170.03, 288.00 170.04, 289.00 170.05, 290.00 170.07, 291.00 170.09, 292.00 170.11, 293.00 170.14, 294.00 170.17, 295.00 170.21, 296.00 170.26, 297.00 170.31, 298.00 170.37, 299.00 170.44, 300.00 170.51, 301.00 170.60, 302.00 170.70, 303.00 170.80, 304.00 170.92, 305.00 171.05, 306.00 171.19, 307.00 171.35, 308.00 171.52, 309.00 171.70, 310.00 171.90, 311.00 172.12, 312.00 172.36, 313.00 172.61, 314.00 172.88, 315.00 173.17, 316.00 173.48, 317.00 173.82, 318.00 174.17, 319.00 174.55, 320.00 174.95, 321.00 175.38, 322.00 175.82, 323.00 176.30, 324.00 176.80, 325.00 177.33, 326.00 177.89, 327.00 178.47, 328.00 179.08, 329.00 179.73, 330.00 180.40, 331.00 181.11, 332.00 181.84, 333.00 182.61, 334.00 183.41, 335.00 184.24, 336.00 185.11, 337.00 186.01, 338.00 186.95, 339.00 187.92, 340.00 188.93, 341.00 189.97, 342.00 191.05, 343.00 192.17, 344.00 193.32, 345.00 194.51, 346.00 195.74, 347.00 197.01, 348.00 198.31, 349.00 199.66, 350.00 201.04, 351.00 202.46, 352.00 203.92, 353.00 205.42, 354.00 206.97, 355.00 208.55, 356.00 210.17, 357.00 211.83, 358.00 213.53, 359.00 215.27, 360.00 217.05, 361.00 218.88, 362.00 220.74, 363.00 222.64, 364.00 224.59, 365.00 226.57, 366.00 228.60, 367.00 230.66, 368.00 232.77, 369.00 234.92, 370.00 237.10, 371.00 239.33, 372.00 241.59, 373.00 243.90, 374.00 246.25, 375.00 248.63, 376.00 251.06, 377.00 253.52, 378.00 256.03, 379.00 258.57, 380.00 261.15, 381.00 263.77, 382.00 266.43, 383.00 269.13, 384.00 271.86, 385.00 274.64, 386.00 277.45, 387.00 280.30, 388.00 283.18, 389.00 286.11, 390.00 289.07, 391.00 292.07, 392.00 295.10, 393.00 298.17, 394.00 301.28, 395.00 304.42, 396.00 307.60, 397.00 310.81, 398.00 314.06, 399.00 317.34, 400.00 320.66, 401.00 324.02, 402.00 327.40, 403.00 330.83, 404.00 334.28, 405.00 337.77, 406.00 341.30, 407.00 344.86, "
     stroke-width="1.5"
     stroke="orange"
     fill="none"
     id="polyline5608" />
  <polyline
     points="145.00 342.98, 146.00 339.76, 147.00 336.58, 148.00 333.46, 149.00 330.38, 150.00 327.34, 151.00 324.36, 152.00 321.42, 153.00 318.54, 154.00 315.70, 155.00 312.91, 156.00 310.18, 157.00 307.50, 158.00 304.86, 159.00 302.29, 160.00 299.76, 161.00 297.29, 162.00 294.88, 163.00 292.52, 164.00 290.22, 165.00 287.97, 166.00 285.78, 167.00 283.65, 168.00 281.58, 169.00 279.57, 170.00 277.61, 171.00 275.72, 172.00 273.89, 173.00 272.11, 174.00 270.40, 175.00 268.76, 176.00 267.17, 177.00 265.65, 178.00 264.19, 179.00 262.79, 180.00 261.46, 181.00 260.19, 182.00 258.99, 183.00 257.85, 184.00 256.78, 185.00 255.77, 186.00 254.83, 187.00 253.96, 188.00 253.15, 189.00 252.40, 190.00 251.72, 191.00 251.10, 192.00 250.56, 193.00 250.07, 194.00 249.65, 195.00 249.30, 196.00 249.00, 197.00 248.78, 198.00 248.61, 199.00 248.51, 200.00 248.47, 201.00 248.50, 202.00 248.58, 203.00 248.72, 204.00 248.93, 205.00 249.19, 206.00 249.51, 207.00 249.88, 208.00 250.31, 209.00 250.80, 210.00 251.34, 211.00 251.93, 212.00 252.57, 213.00 253.26, 214.00 254.00, 215.00 254.79, 216.00 255.62, 217.00 256.49, 218.00 257.41, 219.00 258.37, 220.00 259.36, 221.00 260.39, 222.00 261.46, 223.00 262.56, 224.00 263.69, 225.00 264.85, 226.00 266.03, 227.00 267.25, 228.00 268.48, 229.00 269.73, 230.00 271.01, 231.00 272.30, 232.00 273.60, 233.00 274.92, 234.00 276.24, 235.00 277.57, 236.00 278.91, 237.00 280.25, 238.00 281.59, 239.00 282.93, 240.00 284.27, 241.00 285.60, 242.00 286.92, 243.00 288.23, 244.00 289.52, 245.00 290.80, 246.00 292.07, 247.00 293.31, 248.00 294.53, 249.00 295.73, 250.00 296.90, 251.00 298.04, 252.00 299.16, 253.00 300.24, 254.00 301.29, 255.00 302.30, 256.00 303.27, 257.00 304.21, 258.00 305.10, 259.00 305.95, 260.00 306.76, 261.00 307.53, 262.00 308.24, 263.00 308.91, 264.00 309.53, 265.00 310.10, 266.00 310.62, 267.00 311.08, 268.00 311.49, 269.00 311.85, 270.00 312.16, 271.00 312.41, 272.00 312.61, 273.00 312.75, 274.00 312.83, 275.00 312.86, 276.00 312.83, 277.00 312.75, 278.00 312.61, 279.00 312.41, 280.00 312.16, 281.00 311.85, 282.00 311.49, 283.00 311.08, 284.00 310.62, 285.00 310.10, 286.00 309.53, 287.00 308.91, 288.00 308.24, 289.00 307.53, 290.00 306.76, 291.00 305.95, 292.00 305.10, 293.00 304.21, 294.00 303.27, 295.00 302.30, 296.00 301.29, 297.00 300.24, 298.00 299.16, 299.00 298.04, 300.00 296.90, 301.00 295.73, 302.00 294.53, 303.00 293.31, 304.00 292.07, 305.00 290.80, 306.00 289.52, 307.00 288.23, 308.00 286.92, 309.00 285.60, 310.00 284.27, 311.00 282.93, 312.00 281.59, 313.00 280.25, 314.00 278.91, 315.00 277.57, 316.00 276.24, 317.00 274.92, 318.00 273.60, 319.00 272.30, 320.00 271.01, 321.00 269.73, 322.00 268.48, 323.00 267.25, 324.00 266.03, 325.00 264.85, 326.00 263.69, 327.00 262.56, 328.00 261.46, 329.00 260.39, 330.00 259.36, 331.00 258.37, 332.00 257.41, 333.00 256.49, 334.00 255.62, 335.00 254.79, 336.00 254.00, 337.00 253.26, 338.00 252.57, 339.00 251.93, 340.00 251.34, 341.00 250.80, 342.00 250.31, 343.00 249.88, 344.00 249.51, 345.00 249.19, 346.00 248.93, 347.00 248.72, 348.00 248.58, 349.00 248.50, 350.00 248.47, 351.00 248.51, 352.00 248.61, 353.00 248.78, 354.00 249.00, 355.00 249.30, 356.00 249.65, 357.00 250.07, 358.00 250.56, 359.00 251.10, 360.00 251.72, 361.00 252.40, 362.00 253.15, 363.00 253.96, 364.00 254.83, 365.00 255.77, 366.00 256.78, 367.00 257.85, 368.00 258.99, 369.00 260.19, 370.00 261.46, 371.00 262.79, 372.00 264.19, 373.00 265.65, 374.00 267.17, 375.00 268.76, 376.00 270.40, 377.00 272.11, 378.00 273.89, 379.00 275.72, 380.00 277.61, 381.00 279.57, 382.00 281.58, 383.00 283.65, 384.00 285.78, 385.00 287.97, 386.00 290.22, 387.00 292.52, 388.00 294.88, 389.00 297.29, 390.00 299.76, 391.00 302.29, 392.00 304.86, 393.00 307.50, 394.00 310.18, 395.00 312.91, 396.00 315.70, 397.00 318.54, 398.00 321.42, 399.00 324.36, 400.00 327.34, 401.00 330.38, 402.00 333.46, 403.00 336.58, 404.00 339.76, 405.00 342.98, 406.00 346.24, "
     stroke-width="1.5"
     stroke="red"
     fill="none"
     id="polyline5610" />
  <text
     xml:space="preserve"
     style="font-style:normal;font-variant:normal;font-weight:normal;font-stretch:normal;font-size:40px;line-height:1.25;font-family:Verdana;-inkscape-font-specification:Verdana;letter-spacing:0px;word-spacing:0px;fill:#000000;fill-opacity:1;stroke:none"
     x="298.373"
     y="195.676"
     id="text1691-7-7"><tspan
       sodipodi:role="line"
       id="tspan1689-3-3"
       x="298.373"
       y="195.676"
       style="font-size:12px;fill:#ffa500">C=-1</tspan></text>
  <text
     xml:space="preserve"
     style="font-style:normal;font-variant:normal;font-weight:normal;font-stretch:normal;font-size:40px;line-height:1.25;font-family:Verdana;-inkscape-font-specification:Verdana;letter-spacing:0px;word-spacing:0px;fill:#000000;fill-opacity:1;stroke:none"
     x="172.387"
     y="138.596"
     id="text1691-7"><tspan
       sodipodi:role="line"
       id="tspan1689-3"
       x="172.387"
       y="138.596"
       style="font-size:13.3333px;fill:#00008b">C=1</tspan></text>
  <text
     xml:space="preserve"
     style="font-style:normal;font-variant:normal;font-weight:normal;font-stretch:normal;font-size:40px;line-height:1.25;font-family:Verdana;-inkscape-font-specification:Verdana;letter-spacing:0px;word-spacing:0px;fill:#000000;fill-opacity:1;stroke:none"
     x="305.512"
     y="310.479"
     id="text1691-7-7-3"><tspan
       sodipodi:role="line"
       id="tspan1689-3-3-0"
       x="305.512"
       y="310.479"
       style="font-size:12px;fill:#ff0000">C=-3</tspan></text>
  <path
     style="fill:none;stroke:#0000ff;stroke-width:0.933888px;stroke-linecap:butt;stroke-linejoin:miter;stroke-opacity:1;marker-start:url(#Arrow1Lstart)"
     d="M 547.7826,169.9621 542.17239,170"
     id="path5366"
     inkscape:connector-curvature="0" />
  <text
     xml:space="preserve"
     style="font-style:normal;font-variant:normal;font-weight:normal;font-stretch:normal;font-size:40px;line-height:1.25;font-family:Verdana;-inkscape-font-specification:Verdana;letter-spacing:0px;word-spacing:0px;fill:#0000ff;fill-opacity:1;stroke:none"
     x="535.html"
     y="161.609"
     id="text2596-2"><tspan
       sodipodi:role="line"
       id="tspan2594-3"
       x="535.html"
       y="161.609"
       style="font-size:21.3333px;fill:#0000ff;fill-opacity:1">x</tspan></text>
  <path
     style="fill:none;stroke:#ff0000;stroke-width:0.933888px;stroke-linecap:butt;stroke-linejoin:miter;stroke-opacity:1;marker-start:url(#Arrow1Lstart-7-7)"
     d="m 274.98129,1.9409929 0.0379,5.6102204"
     id="path5366-2-0"
     inkscape:connector-curvature="0" />
  <text
     xml:space="preserve"
     style="font-style:normal;font-variant:normal;font-weight:normal;font-stretch:normal;font-size:40px;line-height:1.25;font-family:Verdana;-inkscape-font-specification:Verdana;letter-spacing:0px;word-spacing:0px;fill:#ff0000;fill-opacity:1;stroke:none"
     x="282.426"
     y="13.0737"
     id="text2596"><tspan
       sodipodi:role="line"
       id="tspan2594"
       x="282.426"
       y="13.0737"
       style="font-size:21.3333px;fill:#ff0000;fill-opacity:1">y</tspan></text>
</svg>
