<?xml version="1.0" encoding="UTF-8" standalone="no"?>
<!-- Copyright 2017 mathsisfun.com -->
<svg xmlns="http://www.w3.org/2000/svg" width="177.7" height="207" version="1.1">
<defs/>
<g transform="translate(-2152.12,-863.664)">
<rect x="2152.1" y="863.7" width="177.7" height="207" style="color:black; overflow:visible; fill:white; stroke-width:1.71; stroke-linecap:round;"/>
<g transform="matrix(-0.490668,0.096151,0.096151,0.490668,2287.22,438.462)"/>
<path style="fill:none; stroke:#ffd700; stroke-width:1.5;" d="m 2184.2,971.9 c 4.1,21 13.9,41.5 29.5,56.4 13.1,12.6 31.4,19.2 49.5,18 22.9,-1.3 44.4,-11.5 63.5,-23.6"/>
<path style="fill:none; stroke:#c4a000; stroke-width:1.5;" d="m 2184.2,971.8 c 3,14.5 11.5,29.5 26,34.9 13.5,4.9 28.1,0 40,-6.7 22.1,-12.8 39.9,-31.8 56.5,-51 6.9,-8.2 13.6,-16.6 20,-25.1"/>
<g transform="matrix(0.5,0,0,0.5,2026.67,868.495)">
<polyline points="68.852 400.00, 68.852 0.00000, " style="fill:none; stroke:#0000ff; stroke-width:0.2;"/>
<polyline points="150.82 400.00, 150.82 0.00000, " style="fill:none; stroke:#0000ff; stroke-width:0.2;"/>
<polyline points="232.79 400.00, 232.79 0.00000, " style="fill:none; stroke:#0000ff; stroke-width:0.2;"/>
<polyline points="314.75 400.00, 314.75 0.00000, " style="fill:none; stroke:#0000ff; stroke-width:0.2;"/>
<polyline points="396.72 400.00, 396.72 0.00000, " style="fill:none; stroke:#0000ff; stroke-width:0.2;"/>
<polyline points="478.69 400.00, 478.69 0.00000, " style="fill:none; stroke:#0000ff; stroke-width:0.2;"/>
<polyline points="560.66 400.00, 560.66 0.00000, " style="fill:none; stroke:#0000ff; stroke-width:0.2;"/>
<polyline points="27.869 400.00, 27.869 0.00000, " style="fill:none; stroke:#0000ff; stroke-width:0.2;"/>
<polyline points="68.852 400.00, 68.852 0.00000, " style="fill:none; stroke:#0000ff; stroke-width:0.2;"/>
<polyline points="109.84 400.00, 109.84 0.00000, " style="fill:none; stroke:#0000ff; stroke-width:0.2;"/>
<polyline points="150.82 400.00, 150.82 0.00000, " style="fill:none; stroke:#0000ff; stroke-width:0.2;"/>
<polyline points="191.80 400.00, 191.80 0.00000, " style="fill:none; stroke:#0000ff; stroke-width:0.2;"/>
<polyline points="232.79 400.00, 232.79 0.00000, " style="fill:none; stroke:#0000ff; stroke-width:0.2;"/>
<polyline points="273.77 400.00, 273.77 0.00000, " style="fill:none; stroke:#0000ff; stroke-width:0.2;"/>
<polyline points="314.75 400.00, 314.75 0.00000, " style="fill:none; stroke:#0000ff; stroke-width:0.2;"/>
<polyline points="355.74 400.00, 355.74 0.00000, " style="fill:none; stroke:#0000ff; stroke-width:0.2;"/>
<polyline points="396.72 400.00, 396.72 0.00000, " style="fill:none; stroke:#0000ff; stroke-width:0.2;"/>
<polyline points="437.70 400.00, 437.70 0.00000, " style="fill:none; stroke:#0000ff; stroke-width:0.2;"/>
<polyline points="478.69 400.00, 478.69 0.00000, " style="fill:none; stroke:#0000ff; stroke-width:0.2;"/>
<polyline points="519.67 400.00, 519.67 0.00000, " style="fill:none; stroke:#0000ff; stroke-width:0.2;"/>
<polyline points="560.66 400.00, 560.66 0.00000, " style="fill:none; stroke:#0000ff; stroke-width:0.2;"/>
<polyline points="314.75 0.00000, 314.75 400.00, " style="fill:none; stroke:#ff4444; stroke-width:2;"/>
<polyline points="0.00000 368.85, 600.00 368.85, " style="fill:none; stroke:#0000ff; stroke-width:0.2;"/>
<polyline points="0.00000 286.89, 600.00 286.89, " style="fill:none; stroke:#0000ff; stroke-width:0.2;"/>
<polyline points="0.00000 204.92, 600.00 204.92, " style="fill:none; stroke:#0000ff; stroke-width:0.2;"/>
<polyline points="0.00000 122.95, 600.00 122.95, " style="fill:none; stroke:#0000ff; stroke-width:0.2;"/>
<polyline points="0.00000 40.984, 600.00 40.984, " style="fill:none; stroke:#0000ff; stroke-width:0.2;"/>
<polyline points="0.00000 368.85, 600.00 368.85, " style="fill:none; stroke:#0000ff; stroke-width:0.2;"/>
<polyline points="0.00000 327.87, 600.00 327.87, " style="fill:none; stroke:#0000ff; stroke-width:0.2;"/>
<polyline points="0.00000 286.89, 600.00 286.89, " style="fill:none; stroke:#0000ff; stroke-width:0.2;"/>
<polyline points="0.00000 245.90, 600.00 245.90, " style="fill:none; stroke:#0000ff; stroke-width:0.2;"/>
<polyline points="0.00000 204.92, 600.00 204.92, " style="fill:none; stroke:#0000ff; stroke-width:0.2;"/>
<polyline points="0.00000 163.93, 600.00 163.93, " style="fill:none; stroke:#0000ff; stroke-width:0.2;"/>
<polyline points="0.00000 122.95, 600.00 122.95, " style="fill:none; stroke:#0000ff; stroke-width:0.2;"/>
<polyline points="0.00000 81.967, 600.00 81.967, " style="fill:none; stroke:#0000ff; stroke-width:0.2;"/>
<polyline points="0.00000 40.984, 600.00 40.984, " style="fill:none; stroke:#0000ff; stroke-width:0.2;"/>
<polyline points="0.00000 204.92, 600.00 204.92, " style="fill:none; stroke:#4444ff; stroke-width:2;"/>
</g>
<text x="2271.1" y="1036.6" style="font-family:'Comic Sans MS'; font-size:18px; color:black; overflow:visible; fill:#ffd700; stroke-width:0.5px;">0.2</text>
<text x="2276.9" y="993.2" style="font-family:'Comic Sans MS'; font-size:18px; color:black; overflow:visible; fill:#c4a000; stroke-width:0.5px;">0.4</text>
<path style="fill:none; stroke:#19aeff; stroke-width:1.5;" d="m 2184.1,971.5 c 2.2,10.9 9.7,22.4 21.5,24.1 12.1,1.5 23.2,-5.3 32.5,-12.3 20.7,-16.3 36.7,-37.7 51.8,-59 13,-18.7 24.9,-38 36.2,-57.7"/>
<path style="fill:none; stroke:#007ad2; stroke-width:1.5;" d="m 2184.1,971.4 c 1.7,8.7 8.4,17.9 18,18.1 10.9,0 20.1,-7.2 28,-14 19.3,-17.8 34,-40 48,-62.1 9.5,-15.3 18.4,-31.1 27,-47"/>
<text x="2282.5" y="945.4" style="font-family:'Comic Sans MS'; font-size:18px; color:black; overflow:visible; fill:#19aeff; stroke-width:0.5px;">0.6</text>
<text x="2274.7" y="913" style="font-family:'Comic Sans MS'; font-size:18px; color:black; overflow:visible; fill:#007ad2; stroke-width:0.5px;">0.8</text>
<path style="fill:none; stroke:#ff4141; stroke-width:1.5;" d="m 2184.4,971.6 c 1.4,7.3 7.4,14.9 15.5,14.4 10.3,-0.9 18.4,-8.4 25.5,-15.2 18.5,-19.2 32.4,-42.2 45.7,-65.1 7.3,-12.7 14.1,-25.6 20.8,-38.7"/>
<text x="2254.7" y="893.1" style="font-family:'Comic Sans MS'; font-size:18px; color:black; overflow:visible; fill:#ff4141; stroke-width:0.5px;">1.0</text>
<text x="2176.8" y="933.9" style="font-family:'Comic Sans MS'; font-size:12px; color:black; overflow:visible; fill:black; stroke-width:0.5px;">1</text>
<text x="2173.8" y="893.3" style="font-family:'Comic Sans MS'; font-size:12px; color:black; overflow:visible; fill:black; stroke-width:0.5px;">2</text>
<text x="2173.6" y="1015.8" style="font-family:'Comic Sans MS'; font-size:12px; color:black; overflow:visible; fill:black; stroke-width:0.5px;">-1</text>
<text x="2170.9" y="1056.8" style="font-family:'Comic Sans MS'; font-size:12px; color:black; overflow:visible; fill:black; stroke-width:0.5px;">-2</text>
<text x="2224" y="983.5" style="font-family:'Comic Sans MS'; font-size:12px; color:black; overflow:visible; fill:black; stroke-width:0.5px;">1</text>
<text x="2138.7" y="983.2" style="font-family:'Comic Sans MS'; font-size:12px; color:black; overflow:visible; fill:black; stroke-width:0.5px;">-1</text>
<text x="2303.5" y="982.6" style="font-family:'Comic Sans MS'; font-size:12px; color:black; overflow:visible; fill:black; stroke-width:0.5px;">3</text>
<text x="2263.3" y="982.6" style="font-family:'Comic Sans MS'; font-size:12px; color:black; overflow:visible; fill:black; stroke-width:0.5px;">2</text>
<text x="2175.8" y="982.9" style="font-family:'Comic Sans MS'; font-size:12px; color:black; overflow:visible; fill:black; stroke-width:0.5px;">0</text>
</g>
</svg>
