<?xml version="1.0" encoding="UTF-8" standalone="no"?>
<!-- Copyright 2017 mathsisfun.com -->
<svg xmlns="http://www.w3.org/2000/svg" width="183.1" height="123.7" version="1.1">
<defs/>
<text x="29" y="93.8" style="font-family:'Comic Sans MS'; font-size:28px; color:black; overflow:visible; fill:#c4a000; stroke-width:0.5px;">dy</text>
<text x="28" y="123" style="font-family:'Comic Sans MS'; font-size:28px; color:black; overflow:visible; fill:#c4a000; stroke-width:0.5px;">dx</text>
<text x="128.9" y="106.9" style="font-family:'Comic Sans MS'; font-size:28px; color:black; overflow:visible; fill:#666666; stroke-width:0.5px;">5</text>
<text x="90.8" y="106.9" style="font-family:'Comic Sans MS'; font-size:28px; color:black; overflow:visible; fill:#007ad2; stroke-width:0.5px;">=</text>
<path style="fill:black; stroke:#c4a000; stroke-width:2;" d="m 24.6,98.5 h 41.6"/>
<text x="-0.9" y="14.6" style="font-family:'Comic Sans MS'; font-size:18.7px; color:black; overflow:visible; fill:#c4a000; stroke-width:0.5px;">differential</text>
<text x="110.9" y="14.6" style="font-family:'Comic Sans MS'; font-size:18.7px; color:black; overflow:visible; fill:#007ad2; stroke-width:0.5px;">equation</text>
<g transform="matrix(0.498197,0.042421,-0.042421,0.498197,12.4,-457.889)">
<path style="color:black; overflow:visible; fill:#007ad2; stroke-width:4;" d="m 300.1,943.5 c 0.5,8.5 1.1,17.4 -3.1,25.2 -6.8,13 -20.1,22.1 -23.8,36.8 -4.1,13.7 -3.2,28.1 -1.7,42.1 -2.9,1.1 -5.7,2.2 -8.6,3.2 -2.4,-20.7 -3,-43.2 7.5,-62 5.4,-10.1 15.1,-17.3 20,-27.7 3.5,-5 -1.1,-13.5 2.2,-16.9 2.5,-0.2 5.1,-0.5 7.6,-0.7 z"/>
<path style="color:black; overflow:visible; fill:#007ad2; stroke-width:4;" d="m 283.2,1029.2 c -4.8,1.3 -2.2,0.8 0.9,-0.4 -9.1,2.9 -13,13.5 -13.5,22.3 0.5,4.4 2.1,8.8 -3.7,8.8 -6,3.8 -4.6,-5.1 -5.1,-8.9 0.6,-12.2 6.9,-26.4 19.7,-29.6 5.9,-3.1 4.4,0.6 2.8,4.4 -0.4,1.1 -0.8,2.3 -1.2,3.4 z"/>
<path style="color:black; overflow:visible; fill:#007ad2; stroke-width:4;" d="m 262.9,1060 c -4.2,-7 -3.9,-16.1 -9.1,-22.5 -1.4,-3.9 -12.2,-4.5 -7.8,-8.4 2,-1.4 3.2,-6.6 6,-4.1 7.7,3.7 13.1,11 14.8,19.3 -0.5,4.3 7.2,11 1.7,12.9 -1.8,0.9 -3.7,1.9 -5.5,2.8 z"/>
</g>
<g transform="matrix(-0.5,0,0,0.5,133.9,-446.162)">
<path style="color:black; overflow:visible; fill:#c4a000; stroke-width:4;" d="m 162.1,966.8 c -3.7,6.6 1.8,12.9 5.2,18.3 5.3,7.6 6.1,17.4 3.8,26.2 -2.4,4.1 1.8,12.4 -3.2,13.7 -2.5,0.2 -7.4,3.8 -6.3,-1.2 -1,-10.2 5.1,-20.6 0.5,-30.4 -3.4,-7.6 -11.1,-14.2 -9.5,-23.3 -0.6,-4.9 4.3,-3 7.2,-3.4 0.8,0 1.6,0 2.4,0 z"/>
<path style="color:black; overflow:visible; fill:#c4a000; stroke-width:4;" d="m 160.1,1032.8 c 4.1,-10 -3.5,-21.9 -13.6,-24.3 1.5,-2.5 3,-5.1 4.4,-7.6 12.3,3.7 21.1,17.4 18.4,30.1 -1.1,2.5 -5.2,1 -7.6,1.7 -0.5,0 -1.1,0 -1.6,0.1 z"/>
<path style="color:black; overflow:visible; fill:#c4a000; stroke-width:4;" d="m 188.9,1000.9 c -7.7,6.2 -16.1,13.1 -18.1,23.4 0,4.5 -1.6,6.8 -6.1,6.7 -6.6,2.9 -2,-7.2 -1.4,-10.5 2.4,-9.4 9.9,-16.2 17.1,-22.1 2.8,0.8 5.6,1.6 8.5,2.5 z"/>
</g>
<text x="0" y="32.5" style="font-family:'Comic Sans MS'; font-size:18.7px; color:black; overflow:visible; fill:#c4a000; stroke-width:0.5px;">(derivative)</text>
<g transform="matrix(-0.490668,0.096151,0.096151,0.490668,1040.7,-579.908)"/>
<text x="161.8" y="106.3" style="font-family:'Comic Sans MS'; font-size:28px; color:black; overflow:visible; fill:#666666; stroke-width:0.5px;">y</text>
<text x="144.6" y="107.3" style="font-family:'Comic Sans MS'; font-size:28px; color:black; overflow:visible; fill:#666666; stroke-width:0.5px;">x</text>
</svg>
