<?xml version="1.0" encoding="UTF-8" standalone="no"?>
<svg
   xmlns:dc="http://purl.org/dc/elements/1.1/"
   xmlns:cc="http://creativecommons.org/ns#"
   xmlns:rdf="http://www.w3.org/1999/02/22-rdf-syntax-ns#"
   xmlns:svg="http://www.w3.org/2000/svg"
   xmlns="http://www.w3.org/2000/svg"
   xmlns:sodipodi="http://sodipodi.sourceforge.net/DTD/sodipodi-0.dtd"
   xmlns:inkscape="http://www.inkscape.org/namespaces/inkscape"
   width="317.2"
   height="298"
   version="1.1"
   id="svg125"
   sodipodi:docname="discontinuous-function.svg"
   inkscape:version="1.0.1 (3bc2e813f5, 2020-09-07)">
  <metadata
     id="metadata129">
    <rdf:RDF>
      <cc:Work
         rdf:about="">
        <dc:format>image/svg+xml</dc:format>
        <dc:type
           rdf:resource="http://purl.org/dc/dcmitype/StillImage" />
      </cc:Work>
    </rdf:RDF>
  </metadata>
  <sodipodi:namedview
     pagecolor="#ffffff"
     bordercolor="#666666"
     borderopacity="1"
     objecttolerance="10"
     gridtolerance="10"
     guidetolerance="10"
     inkscape:pageopacity="0"
     inkscape:pageshadow="2"
     inkscape:window-width="640"
     inkscape:window-height="480"
     id="namedview127"
     showgrid="false"
     inkscape:current-layer="svg125" />
  <defs
     id="defs5">
    <marker
       style="overflow:visible"
       id="marker1328"
       refX="0.0"
       refY="0.0"
       orient="auto"
       inkscape:stockid="Arrow1Mend"
       inkscape:isstock="true">
      <path
         transform="scale(0.4) rotate(180) translate(10,0)"
         style="fill-rule:evenodd;stroke:#3465a4;stroke-width:1pt;stroke-opacity:1;fill:#3465a4;fill-opacity:1"
         d="M 0.0,0.0 L 5.0,-5.0 L -12.5,0.0 L 5.0,5.0 L 0.0,0.0 z "
         id="path1326" />
    </marker>
    <marker
       style="overflow:visible"
       id="marker1318"
       refX="0.0"
       refY="0.0"
       orient="auto"
       inkscape:stockid="Arrow1Mend"
       inkscape:isstock="true">
      <path
         transform="scale(0.4) rotate(180) translate(10,0)"
         style="fill-rule:evenodd;stroke:#3465a4;stroke-width:1pt;stroke-opacity:1;fill:#3465a4;fill-opacity:1"
         d="M 0.0,0.0 L 5.0,-5.0 L -12.5,0.0 L 5.0,5.0 L 0.0,0.0 z "
         id="path1316" />
    </marker>
    <marker
       id="id1"
       style="overflow:visible"
       orient="auto">
      <path
         transform="matrix(-0.4,0,0,-0.4,-4,0)"
         style="stroke:black;stroke-width:1pt"
         d="M 0,0 5,-5 -12.5,0 5,5 Z"
         id="path2" />
    </marker>
  </defs>
  <g
     id="g1436"
     transform="translate(-346.216,-5.11174)">
    <path
       style="fill:none;fill-opacity:0.75;stroke:#3465a4;stroke-width:2;marker-end:url(#marker1328)"
       d="m 360.258,163.383 h 287.4"
       id="path7" />
    <path
       style="fill:none;fill-opacity:0.75;stroke:#3465a4;stroke-width:2;marker-end:url(#marker1318)"
       d="m 360.558,163.283 v -153"
       id="path9" />
    <path
       style="fill:none;fill-opacity:0.75;stroke:#cbced1;stroke-width:1;stroke-dasharray:8, 1;stroke-opacity:0.522337"
       d="m 360.758,136.283 h 293.4"
       id="path11" />
    <path
       style="fill:none;fill-opacity:0.75;stroke:#cbced1;stroke-width:1;stroke-dasharray:8, 1;stroke-opacity:0.522337"
       d="m 360.758,109.183 h 293.4"
       id="path13" />
    <path
       style="fill:none;fill-opacity:0.75;stroke:#cbced1;stroke-width:1;stroke-dasharray:8, 1;stroke-opacity:0.522337"
       d="m 360.758,82.083 h 293.4"
       id="path15" />
    <path
       style="fill:none;fill-opacity:0.75;stroke:#cbced1;stroke-width:1;stroke-dasharray:8, 1;stroke-opacity:0.522337"
       d="m 360.758,54.883 h 293.4"
       id="path17" />
    <text
       x="346.458"
       y="166.683"
       style="font-size:14.5px;font-family:'Comic Sans MS';overflow:visible;fill:#003366;stroke-width:1.9;stroke-linejoin:round"
       id="text19">0</text>
    <text
       x="623.058"
       y="179.683"
       style="font-size:14.5px;font-family:'Comic Sans MS';overflow:visible;fill:#6699cc;stroke-width:1.9;stroke-linejoin:round"
       id="text21">10</text>
    <text
       x="355.158"
       y="179.983"
       style="font-size:14.5px;font-family:'Comic Sans MS';overflow:visible;fill:#6699cc;stroke-width:1.9;stroke-linejoin:round"
       id="text23">0</text>
    <text
       x="346.258"
       y="32.483"
       style="font-size:14.5px;font-family:'Comic Sans MS';overflow:visible;fill:#003366;stroke-width:1.9;stroke-linejoin:round"
       id="text25">5</text>
    <text
       x="490.758"
       y="179.583"
       style="font-size:14.5px;font-family:'Comic Sans MS';overflow:visible;fill:#6699cc;stroke-width:1.9;stroke-linejoin:round"
       id="text27">5</text>
    <path
       style="fill:none;fill-opacity:0.75;stroke:#cbced1;stroke-width:1;stroke-dasharray:8, 1;stroke-opacity:0.522337"
       d="M 469.358,162.683 V 6.083"
       id="path29" />
    <path
       style="fill:none;fill-opacity:0.75;stroke:#cbced1;stroke-width:1;stroke-dasharray:8, 1;stroke-opacity:0.522337"
       d="M 442.258,162.683 V 6.083"
       id="path31" />
    <path
       style="fill:none;fill-opacity:0.75;stroke:#cbced1;stroke-width:1;stroke-dasharray:8, 1;stroke-opacity:0.522337"
       d="M 415.258,162.683 V 6.083"
       id="path33" />
    <path
       style="fill:none;fill-opacity:0.75;stroke:#cbced1;stroke-width:1;stroke-dasharray:8, 1;stroke-opacity:0.522337"
       d="M 388.158,162.683 V 6.083"
       id="path35" />
    <path
       style="fill:none;fill-opacity:0.75;stroke:#cbced1;stroke-width:1;stroke-dasharray:8, 1;stroke-opacity:0.522337"
       d="M 550.458,162.683 V 6.083"
       id="path37" />
    <path
       style="fill:none;fill-opacity:0.75;stroke:#cbced1;stroke-width:1;stroke-dasharray:8, 1;stroke-opacity:0.522337"
       d="M 523.458,162.683 V 6.083"
       id="path39" />
    <path
       style="fill:none;fill-opacity:0.75;stroke:#cbced1;stroke-width:1;stroke-dasharray:8, 1;stroke-opacity:0.522337"
       d="M 496.358,162.683 V 6.083"
       id="path41" />
    <path
       style="fill:none;fill-opacity:0.75;stroke:#cbced1;stroke-width:1;stroke-dasharray:8, 1;stroke-opacity:0.522337"
       d="m 360.758,27.783 h 293.4"
       id="path43" />
    <path
       style="fill:none;fill-opacity:0.75;stroke:#cbced1;stroke-width:1;stroke-dasharray:8, 1;stroke-opacity:0.522337"
       d="M 631.658,162.683 V 6.083"
       id="path45" />
    <path
       style="fill:none;fill-opacity:0.75;stroke:#cbced1;stroke-width:1;stroke-dasharray:8, 1;stroke-opacity:0.522337"
       d="M 604.558,162.683 V 6.083"
       id="path47" />
    <path
       style="fill:none;fill-opacity:0.75;stroke:#cbced1;stroke-width:1;stroke-dasharray:8, 1;stroke-opacity:0.522337"
       d="M 577.558,162.683 V 6.083"
       id="path49" />
  </g>
  <ellipse
     cx="206.546"
     cy="211.457"
     rx="12.6"
     ry="12.9"
     style="overflow:visible;fill:#fef4a5;fill-opacity:1;stroke-width:3.53;stroke-dasharray:10.6, 10.6"
     id="ellipse53" />
  <ellipse
     cx="104.046"
     cy="284.357"
     rx="12.4"
     ry="12.9"
     style="overflow:visible;fill:#fef4a5;fill-opacity:1;stroke-width:3.51;stroke-dasharray:10.5, 10.5"
     id="ellipse55" />
  <ellipse
     cx="56.8181"
     cy="211.17"
     rx="12.6"
     ry="12.9"
     style="overflow:visible;fill:#fef4a5;fill-opacity:1;stroke-width:3.53;stroke-dasharray:10.6, 10.6"
     id="ellipse57" />
  <path
     style="fill:none;fill-opacity:0.75;stroke:#ef2929;stroke-width:2.5"
     d="m 13.321,116.318 c 0,0 9.7,-0.6 39.9,-18.1 24.8,-14.4 33.4,-31.1 65,-41.9 18.4,-6.3 45.7,5.2 45.7,5.2"
     id="path59" />
  <path
     style="fill:none;fill-opacity:0.75;stroke:#ef2929;stroke-width:2.5"
     d="m 164.421,119.818 c 0,0 14.8,13.1 36.8,5.7 36,-12.2 87,-53.9 87,-53.9"
     id="path61" />
  <path
     style="fill:none;fill-opacity:0.75;stroke:#73d216;stroke-width:1.6;stroke-dasharray:4.8, 4.8"
     d="m 163.821,10.318 v 234.6"
     id="path63" />
  <g
     transform="matrix(1.0556,0,0,1.0556,573.374,-403.884)"
     id="g73"
     style="fill:#0084c8">
    <text
       x="-476.4"
       y="574.9"
       style="color:#000000;font-style:italic;font-size:19.9px;font-family:Georgia;overflow:visible;fill:#0084c8;stroke-width:0.84px"
       id="text65">f(x)</text>
    <text
       x="-514.3"
       y="575.3"
       style="color:#000000;font-style:italic;font-size:19.9px;font-family:Georgia;overflow:visible;fill:#0084c8;stroke-width:0.84px"
       id="text67">lim</text>
    <text
       x="-522.4"
       y="588.2"
       style="color:#000000;font-style:italic;font-size:17.3px;font-family:Georgia;overflow:visible;fill:#0084c8;stroke-width:0.84px"
       id="text69">x→a</text>
    <text
       x="-488.7"
       y="584.7"
       style="color:#000000;font-style:italic;font-size:19.9px;font-family:Georgia;overflow:visible;fill:#0084c8;stroke-width:0.84px"
       id="text71">-</text>
  </g>
  <text
     x="165.521"
     y="72.018"
     style="color:#000000;font-size:24px;font-family:'Comic Sans MS';overflow:visible;fill:#3465a4;stroke-width:1px"
     id="text75">3.8</text>
  <text
     x="128.121"
     y="130.118"
     style="color:#000000;font-size:24px;font-family:'Comic Sans MS';overflow:visible;fill:#0084c8;stroke-width:1px"
     id="text77">1.3</text>
  <text
     x="109.621"
     y="203.118"
     style="color:#000000;font-size:22.3px;font-family:'Comic Sans MS';overflow:visible;opacity:0.96;fill:#3465a4;stroke-width:1px"
     id="text79">=3.8</text>
  <text
     x="256.621"
     y="202.818"
     style="color:#000000;font-size:22.3px;font-family:'Comic Sans MS';overflow:visible;fill:#0084c8;stroke-width:1px"
     id="text81">=1.3</text>
  <text
     x="161.221"
     y="274.918"
     style="font-size:21.299999px;font-family:'Trebuchet MS';overflow:visible;fill:#8f5902;stroke-width:1px;-inkscape-font-specification:'Trebuchet MS, Normal';font-weight:normal;font-style:normal;font-stretch:normal;font-variant:normal;font-variant-ligatures:normal;font-variant-caps:normal;font-variant-numeric:normal;font-variant-east-asian:normal;"
     id="text83">does not exist</text>
  <text
     x="156.621"
     y="181.318"
     style="color:#000000;font-size:28px;font-family:'Comic Sans MS';overflow:visible;fill:#000000;stroke-width:1px"
     id="text85">a</text>
  <g
     transform="matrix(1,0,0,-1,160.093,795.758)"
     id="g93">
    <path
       style="color:#000000;overflow:visible;opacity:0.72;fill:#fce94f;stroke-width:1.6;stroke-dasharray:4.8, 4.8"
       d="m 10.4,571 c 5.2,-2.1 10.7,-3.2 16.2,-4 5.1,-0.7 10.3,-0.7 15.5,-0.8 5.6,-0.1 11.1,0.5 16.6,1.2 5.6,0.8 11.1,2.1 16.5,3.4 5,1.3 10.1,2.4 15.2,3.4 5,1 10,1.7 15,2.4 4.9,0.7 9.9,1.1 14.9,1.4 5.1,0.3 10.3,0 15.4,-0.4 4.8,-0.4 9.5,-1.2 14.3,-2.1 2.3,-0.5 4.7,-0.8 7,-1.1 l -2.6,3 c -2.3,0.4 -4.6,0.7 -7,1.1 -4.8,0.8 -9.6,1.7 -14.4,2 -5.2,0.3 -10.4,0.5 -15.6,0.2 -5,-0.3 -10,-0.7 -15,-1.5 -5,-0.7 -10.1,-1.5 -15.1,-2.5 -5.1,-1 -10.2,-2.1 -15.2,-3.4 -5.4,-1.3 -10.9,-2.6 -16.4,-3.3 -5.5,-0.6 -11,-1.2 -16.5,-1 -5.1,0.1 -10.3,0.3 -15.3,1 -5.5,0.9 -5.5,0.8 -9.9,2.3 z"
       id="path87" />
    <path
       style="color:#000000;overflow:visible;opacity:0.72;fill:#fce94f;stroke-width:1.6;stroke-dasharray:4.8, 4.8"
       d="m 28.6,562.4 c -0.3,0 -6.9,3.4 -9.5,4.9 -1.3,0.6 -2.4,1.7 -3.6,2.5 l -3.9,-0.9 c 0,0 3.4,-2.9 3.7,-2.7 5,-3 9.9,-5.8 15.7,-6.9 z"
       id="path89" />
    <path
       style="color:#000000;overflow:visible;opacity:0.72;fill:#fce94f;stroke-width:1.6;stroke-dasharray:4.8, 4.8"
       d="m 12.8,571 c 4.6,0.7 8.9,2.3 13.3,3.8 1.5,0.5 2.9,1.3 4.3,2 l -3.2,2.3 c -1.4,-0.6 -2.8,-1.4 -4.2,-1.9 -4.3,-1.5 -8.6,-2.9 -13.1,-3.6 z"
       id="path91" />
  </g>
  <g
     transform="matrix(-1,0,0,1,168.009,-348.585)"
     id="g101">
    <path
       style="color:#000000;overflow:visible;opacity:0.72;fill:#fce94f;stroke-width:1.6;stroke-dasharray:4.8, 4.8"
       d="m 10.4,571 c 5.2,-2.1 10.7,-3.2 16.2,-4 5.1,-0.7 10.3,-0.7 15.5,-0.8 5.6,-0.1 11.1,0.5 16.6,1.2 5.6,0.8 11.1,2.1 16.5,3.4 5,1.3 10.1,2.4 15.2,3.4 5,1 10,1.7 15,2.4 4.9,0.7 9.9,1.1 14.9,1.4 5.1,0.3 10.3,0 15.4,-0.4 4.8,-0.4 9.5,-1.2 14.3,-2.1 2.3,-0.5 4.7,-0.8 7,-1.1 l -2.6,3 c -2.3,0.4 -4.6,0.7 -7,1.1 -4.8,0.8 -9.6,1.7 -14.4,2 -5.2,0.3 -10.4,0.5 -15.6,0.2 -5,-0.3 -10,-0.7 -15,-1.5 -5,-0.7 -10.1,-1.5 -15.1,-2.5 -5.1,-1 -10.2,-2.1 -15.2,-3.4 -5.4,-1.3 -10.9,-2.6 -16.4,-3.3 -5.5,-0.6 -11,-1.2 -16.5,-1 -5.1,0.1 -10.3,0.3 -15.3,1 -5.5,0.9 -5.5,0.8 -9.9,2.3 z"
       id="path95" />
    <path
       style="color:#000000;overflow:visible;opacity:0.72;fill:#fce94f;stroke-width:1.6;stroke-dasharray:4.8, 4.8"
       d="m 28.6,562.4 c -0.3,0 -6.9,3.4 -9.5,4.9 -1.3,0.6 -2.4,1.7 -3.6,2.5 l -3.9,-0.9 c 0,0 3.4,-2.9 3.7,-2.7 5,-3 9.9,-5.8 15.7,-6.9 z"
       id="path97" />
    <path
       style="color:#000000;overflow:visible;opacity:0.72;fill:#fce94f;stroke-width:1.6;stroke-dasharray:4.8, 4.8"
       d="m 12.8,571 c 4.6,0.7 8.9,2.3 13.3,3.8 1.5,0.5 2.9,1.3 4.3,2 l -3.2,2.3 c -1.4,-0.6 -2.8,-1.4 -4.2,-1.9 -4.3,-1.5 -8.6,-2.9 -13.1,-3.6 z"
       id="path99" />
  </g>
  <text
     x="11.8842"
     y="264.118"
     style="font-style:normal;font-variant:normal;font-weight:normal;font-stretch:normal;font-size:21.3px;font-family:'Trebuchet MS';-inkscape-font-specification:'Trebuchet MS, Normal';font-variant-ligatures:normal;font-variant-caps:normal;font-variant-numeric:normal;font-variant-east-asian:normal;overflow:visible;fill:#8f5902;stroke-width:1px"
     id="text103">But...</text>
  <g
     transform="translate(721.19,-382.421)"
     id="g113"
     style="fill:#0084c8">
    <text
       x="-500.6"
       y="584.4"
       style="color:#000000;font-style:italic;font-size:21px;font-family:Georgia;overflow:visible;fill:#0084c8;stroke-width:0.89px"
       id="text105">f(x)</text>
    <text
       x="-540.7"
       y="584.8"
       style="color:#000000;font-style:italic;font-size:21px;font-family:Georgia;overflow:visible;fill:#0084c8;stroke-width:0.89px"
       id="text107">lim</text>
    <text
       x="-551"
       y="599.1"
       style="color:#000000;font-style:italic;font-size:18.3px;font-family:Georgia;overflow:visible;fill:#0084c8;stroke-width:0.89px"
       id="text109">x→a</text>
    <text
       x="-516.5"
       y="596.8"
       style="color:#000000;font-style:italic;font-size:21px;font-family:Georgia;overflow:visible;fill:#0084c8;stroke-width:0.89px"
       id="text111">+</text>
  </g>
  <g
     transform="translate(609.834,-311.883)"
     id="g121"
     style="fill:#0084c8">
    <text
       x="-487.4"
       y="586.5"
       style="color:#000000;font-style:italic;font-size:21px;font-family:Georgia;overflow:visible;fill:#0084c8;stroke-width:0.89px"
       id="text115">f(x)</text>
    <text
       x="-527.5"
       y="586.9"
       style="color:#000000;font-style:italic;font-size:21px;font-family:Georgia;overflow:visible;fill:#0084c8;stroke-width:0.89px"
       id="text117">lim</text>
    <text
       x="-535.9"
       y="600.6"
       style="color:#000000;font-style:italic;font-size:18.3px;font-family:Georgia;overflow:visible;fill:#0084c8;stroke-width:0.89px"
       id="text119">x→a</text>
  </g>
</svg>
