<?xml version="1.0" encoding="UTF-8" standalone="no"?>
<svg
   xmlns:dc="http://purl.org/dc/elements/1.1/"
   xmlns:cc="http://creativecommons.org/ns#"
   xmlns:rdf="http://www.w3.org/1999/02/22-rdf-syntax-ns#"
   xmlns:svg="http://www.w3.org/2000/svg"
   xmlns="http://www.w3.org/2000/svg"
   xmlns:sodipodi="http://sodipodi.sourceforge.net/DTD/sodipodi-0.dtd"
   xmlns:inkscape="http://www.inkscape.org/namespaces/inkscape"
   width="530.4"
   height="146.3"
   version="1.1"
   style="font-family:'Comic Sans MS';font-size:20px;fill:white"
   id="svg52"
   sodipodi:docname="fourier-square-sin5.svg"
   inkscape:version="1.0.1 (3bc2e813f5, 2020-09-07)">
  <metadata
     id="metadata56">
    <rdf:RDF>
      <cc:Work
         rdf:about="">
        <dc:format>image/svg+xml</dc:format>
        <dc:type
           rdf:resource="http://purl.org/dc/dcmitype/StillImage" />
      </cc:Work>
    </rdf:RDF>
  </metadata>
  <sodipodi:namedview
     pagecolor="#ffffff"
     bordercolor="#666666"
     borderopacity="1"
     objecttolerance="10"
     gridtolerance="10"
     guidetolerance="10"
     inkscape:pageopacity="0"
     inkscape:pageshadow="2"
     inkscape:window-width="640"
     inkscape:window-height="480"
     id="namedview54"
     showgrid="false"
     inkscape:current-layer="svg52" />
  <defs
     id="defs2" />
  <polyline
     points="0.0000 155.00, 530.00 155.00, "
     transform="matrix(0.998,0,0,3.07048,0.729122,-402.751)"
     style="fill:#ddeeff;fill-opacity:0.3;stroke:#cccccc;stroke-width:0.57"
     id="polyline4" />
  <polyline
     points="265.00 310.00, 265.00 0.0000, "
     transform="matrix(-0.471989,0,0,0.471989,390.259,0)"
     style="fill:#ddeeff;stroke:#999999;stroke-width:2.12"
     id="polyline6" />
  <path
     style="fill:none;stroke:#ff4141;stroke-width:1;stroke-dasharray:3, 3"
     d="M 0.1,32.5 H 102.1 v 81.3 h 163.1 V 32.5 h 162.7 v 81.3 H 530.1"
     id="path8" />
  <text
     x="421.1"
     y="139.9"
     style="font-style:italic;fill:#0084c8;stroke-width:1px;"
     id="text10">π</text>
  <text
     x="87.9"
     y="140.7"
     style="font-style:italic;fill:#0084c8;stroke-width:1px;"
     id="text12">-π</text>
  <text
     x="257.8"
     y="140.8"
     style="font-style:italic;fill:#0084c8;stroke-width:1px;"
     id="text14">0</text>
  <path
     style="fill:#3465a4;fill-opacity:1;stroke-width:0.9"
     d="m 217.9,20.5 c -1.9,-0 -3.7,2.1 -5.4,6.9 -4.2,11.5 -7.5,28.6 -10.8,45.8 h 16.2 16.2 c -3.3,-17.2 -6.6,-34.2 -10.8,-45.8 -1.7,-4.8 -3.5,-7 -5.4,-6.9 z"
     id="path16" />
  <path
     style="fill:#c17d11;fill-opacity:1;stroke-width:0.9"
     d="m 168.7,73.2 c 2.8,14.5 5.6,29.1 9,40.4 2.1,7.4 4.6,12 7.1,12.4 v 0 c 0,0 0.1,-0 0.2,-0 0,0 0.1,0 0.2,0 v -0 c 2.5,-0.4 5,-5 7.1,-12.4 3.3,-11.3 6.1,-25.8 9,-40.4 h -16 -0.3 z"
     id="path18" />
  <rect
     x="179.3"
     y="92.9"
     width="10.9"
     height="3"
     style="stroke-width:1.77"
     id="rect20" />
  <g
     transform="matrix(-0.3333,0,0,0.3333,274.698,56.7012)"
     id="g26">
    <rect
       x="158.4"
       y="-16.6"
       width="32.6"
       height="8.9"
       style="stroke-width:5.3"
       id="rect22" />
    <rect
       x="-4.2"
       y="170.3"
       width="32.6"
       height="8.9"
       transform="rotate(-90)"
       style="stroke-width:5.3"
       id="rect24" />
  </g>
  <text
     x="272.1"
     y="118"
     style="font-style:italic;fill:#4e9a06;stroke-width:1px"
     id="text28">-h</text>
  <path
     style="fill:#c17d11;fill-opacity:1;stroke-width:0.9"
     d="m 233.7,73.2 c 2.8,14.5 5.6,29.1 9,40.4 2.1,7.4 4.6,12 7.1,12.4 v 0 c 0,0 0.1,-0 0.2,-0 0,0 0.1,0 0.2,0 v -0 c 2.5,-0.4 5,-5 7.1,-12.4 3.3,-11.3 6.1,-25.8 9,-40.4 h -16 -0.3 z"
     id="path30" />
  <rect
     x="243.6"
     y="91.1"
     width="10.9"
     height="3"
     style="stroke-width:1.77"
     id="rect32" />
  <polyline
     points="0.0000 180.33, 1.0000 175.86, 2.0000 171.20, 3.0000 166.38, 4.0000 161.46, 5.0000 156.47, 6.0000 151.48, 7.0000 146.51, 8.0000 141.63, 9.0000 136.87, 10.000 132.28, 11.000 127.90, 12.000 123.78, 13.000 119.95, 14.000 116.44, 15.000 113.30, 16.000 110.55, 17.000 108.21, 18.000 106.31, 19.000 104.87, 20.000 103.90, 21.000 103.40, 22.000 103.39, 23.000 103.86, 24.000 104.81, 25.000 106.22, 26.000 108.10, 27.000 110.41, 28.000 113.14, 29.000 116.27, 30.000 119.75, 31.000 123.57, 32.000 127.68, 33.000 132.04, 34.000 136.62, 35.000 141.37, 36.000 146.25, 37.000 151.21, 38.000 156.21, 39.000 161.19, 40.000 166.12, 41.000 170.94, 42.000 175.62, 43.000 180.10, 44.000 184.35, 45.000 188.32, 46.000 191.98, 47.000 195.29, 48.000 198.23, 49.000 200.76, 50.000 202.86, 51.000 204.52, 52.000 205.71, 53.000 206.43, 54.000 206.67, 55.000 206.42, 56.000 205.69, 57.000 204.49, 58.000 202.82, 59.000 200.71, 60.000 198.17, 61.000 195.23, 62.000 191.90, 63.000 188.24, 64.000 184.26, 65.000 180.01, 66.000 175.52, 67.000 170.85, 68.000 166.02, 69.000 161.09, 70.000 156.11, 71.000 151.11, 72.000 146.15, 73.000 141.27, 74.000 136.52, 75.000 131.95, 76.000 127.59, 77.000 123.49, 78.000 119.68, 79.000 116.20, 80.000 113.08, 81.000 110.36, 82.000 108.06, 83.000 106.19, 84.000 104.78, 85.000 103.84, 86.000 103.38, 87.000 103.41, 88.000 103.91, 89.000 104.90, 90.000 106.35, 91.000 108.26, 92.000 110.60, 93.000 113.36, 94.000 116.51, 95.000 120.02, 96.000 123.86, 97.000 127.99, 98.000 132.37, 99.000 136.97, 100.00 141.73, 101.00 146.62, 102.00 151.58, 103.00 156.58, 104.00 161.56, 105.00 166.48, 106.00 171.30, 107.00 175.96, 108.00 180.42, 109.00 184.65, 110.00 188.60, 111.00 192.23, 112.00 195.52, 113.00 198.43, 114.00 200.93, 115.00 203.00, 116.00 204.62, 117.00 205.78, 118.00 206.46, 119.00 206.66, 120.00 206.38, 121.00 205.62, 122.00 204.38, 123.00 202.68, 124.00 200.54, 125.00 197.97, 126.00 194.99, 127.00 191.65, 128.00 187.96, 129.00 183.96, 130.00 179.69, 131.00 175.19, 132.00 170.50, 133.00 165.66, 134.00 160.73, 135.00 155.74, 136.00 150.74, 137.00 145.79, 138.00 140.92, 139.00 136.18, 140.00 131.62, 141.00 127.28, 142.00 123.19, 143.00 119.41, 144.00 115.96, 145.00 112.87, 146.00 110.18, 147.00 107.90, 148.00 106.07, 149.00 104.70, 150.00 103.79, 151.00 103.37, 152.00 103.43, 153.00 103.97, 154.00 104.99, 155.00 106.47, 156.00 108.41, 157.00 110.79, 158.00 113.58, 159.00 116.76, 160.00 120.30, 161.00 124.16, 162.00 128.31, 163.00 132.70, 164.00 137.31, 165.00 142.09, 166.00 146.98, 167.00 151.95, 168.00 156.95, 169.00 161.93, 170.00 166.84, 171.00 171.64, 172.00 176.29, 173.00 180.74, 174.00 184.95, 175.00 188.88, 176.00 192.49, 177.00 195.75, 178.00 198.63, 179.00 201.10, 180.00 203.14, 181.00 204.72, 182.00 205.85, 183.00 206.50, 184.00 206.66, 185.00 206.34, 186.00 205.54, 187.00 204.27, 188.00 202.54, 189.00 200.36, 190.00 197.76, 191.00 194.76, 192.00 191.38, 193.00 187.67, 194.00 183.65, 195.00 179.36, 196.00 174.85, 197.00 170.14, 198.00 165.30, 199.00 160.36, 200.00 155.37, 201.00 150.37, 202.00 145.42, 203.00 140.56, 204.00 135.84, 205.00 131.29, 206.00 126.97, 207.00 122.90, 208.00 119.14, 209.00 115.72, 210.00 112.66, 211.00 109.99, 212.00 107.75, 213.00 105.95, 214.00 104.61, 215.00 103.75, 216.00 103.36, 217.00 103.45, 218.00 104.03, 219.00 105.08, 220.00 106.60, 221.00 108.57, 222.00 110.98, 223.00 113.80, 224.00 117.01, 225.00 120.57, 226.00 124.45, 227.00 128.62, 228.00 133.04, 229.00 137.66, 230.00 142.44, 231.00 147.34, 232.00 152.32, 233.00 157.31, 234.00 162.29, 235.00 167.20, 236.00 171.99, 237.00 176.63, 238.00 181.06, 239.00 185.25, 240.00 189.16, 241.00 192.74, 242.00 195.97, 243.00 198.82, 244.00 201.26, 245.00 203.27, 246.00 204.82, 247.00 205.91, 248.00 206.52, 249.00 206.65, 250.00 206.30, 251.00 205.47, 252.00 204.16, 253.00 202.39, 254.00 200.19, 255.00 197.55, 256.00 194.52, 257.00 191.12, 258.00 187.38, 259.00 183.34, 260.00 179.04, 261.00 174.50, 262.00 169.79, 263.00 164.94, 264.00 159.99, 265.00 155.00, 266.00 150.01, 267.00 145.06, 268.00 140.21, 269.00 135.50, 270.00 130.96, 271.00 126.66, 272.00 122.62, 273.00 118.88, 274.00 115.48, 275.00 112.45, 276.00 109.81, 277.00 107.61, 278.00 105.84, 279.00 104.53, 280.00 103.70, 281.00 103.35, 282.00 103.48, 283.00 104.09, 284.00 105.18, 285.00 106.73, 286.00 108.74, 287.00 111.18, 288.00 114.03, 289.00 117.26, 290.00 120.84, 291.00 124.75, 292.00 128.94, 293.00 133.37, 294.00 138.01, 295.00 142.80, 296.00 147.71, 297.00 152.69, 298.00 157.68, 299.00 162.66, 300.00 167.56, 301.00 172.34, 302.00 176.96, 303.00 181.38, 304.00 185.55, 305.00 189.43, 306.00 192.99, 307.00 196.20, 308.00 199.02, 309.00 201.43, 310.00 203.40, 311.00 204.92, 312.00 205.97, 313.00 206.55, 314.00 206.64, 315.00 206.25, 316.00 205.39, 317.00 204.05, 318.00 202.25, 319.00 200.01, 320.00 197.34, 321.00 194.28, 322.00 190.86, 323.00 187.10, 324.00 183.03, 325.00 178.71, 326.00 174.16, 327.00 169.44, 328.00 164.58, 329.00 159.63, 330.00 154.63, 331.00 149.64, 332.00 144.70, 333.00 139.86, 334.00 135.15, 335.00 130.64, 336.00 126.35, 337.00 122.33, 338.00 118.62, 339.00 115.24, 340.00 112.24, 341.00 109.64, 342.00 107.46, 343.00 105.73, 344.00 104.46, 345.00 103.66, 346.00 103.34, 347.00 103.50, 348.00 104.15, 349.00 105.28, 350.00 106.86, 351.00 108.90, 352.00 111.37, 353.00 114.25, 354.00 117.51, 355.00 121.12, 356.00 125.05, 357.00 129.26, 358.00 133.71, 359.00 138.36, 360.00 143.16, 361.00 148.07, 362.00 153.05, 363.00 158.05, 364.00 163.02, 365.00 167.91, 366.00 172.69, 367.00 177.30, 368.00 181.69, 369.00 185.84, 370.00 189.70, 371.00 193.24, 372.00 196.42, 373.00 199.21, 374.00 201.59, 375.00 203.53, 376.00 205.01, 377.00 206.03, 378.00 206.57, 379.00 206.63, 380.00 206.21, 381.00 205.30, 382.00 203.93, 383.00 202.10, 384.00 199.82, 385.00 197.13, 386.00 194.04, 387.00 190.59, 388.00 186.81, 389.00 182.72, 390.00 178.38, 391.00 173.82, 392.00 169.08, 393.00 164.21, 394.00 159.26, 395.00 154.26, 396.00 149.27, 397.00 144.34, 398.00 139.50, 399.00 134.81, 400.00 130.31, 401.00 126.04, 402.00 122.04, 403.00 118.35, 404.00 115.01, 405.00 112.03, 406.00 109.46, 407.00 107.32, 408.00 105.62, 409.00 104.38, 410.00 103.62, 411.00 103.34, 412.00 103.54, 413.00 104.22, 414.00 105.38, 415.00 107.00, 416.00 109.07, 417.00 111.57, 418.00 114.48, 419.00 117.77, 420.00 121.40, 421.00 125.35, 422.00 129.58, 423.00 134.04, 424.00 138.70, 425.00 143.52, 426.00 148.44, 427.00 153.42, 428.00 158.42, 429.00 163.38, 430.00 168.27, 431.00 173.03, 432.00 177.63, 433.00 182.01, 434.00 186.14, 435.00 189.98, 436.00 193.49, 437.00 196.64, 438.00 199.40, 439.00 201.74, 440.00 203.65, 441.00 205.10, 442.00 206.09, 443.00 206.59, 444.00 206.62, 445.00 206.16, 446.00 205.22, 447.00 203.81, 448.00 201.94, 449.00 199.64, 450.00 196.92, 451.00 193.80, 452.00 190.32, 453.00 186.51, 454.00 182.41, 455.00 178.05, 456.00 173.48, 457.00 168.73, 458.00 163.85, 459.00 158.89, 460.00 153.89, 461.00 148.91, 462.00 143.98, 463.00 139.15, 464.00 134.48, 465.00 129.99, 466.00 125.74, 467.00 121.76, 468.00 118.10, 469.00 114.77, 470.00 111.83, 471.00 109.29, 472.00 107.18, 473.00 105.51, 474.00 104.31, 475.00 103.58, 476.00 103.33, 477.00 103.57, 478.00 104.29, 479.00 105.48, 480.00 107.14, 481.00 109.24, 482.00 111.77, 483.00 114.71, 484.00 118.02, 485.00 121.68, 486.00 125.65, 487.00 129.90, 488.00 134.38, 489.00 139.06, 490.00 143.88, 491.00 148.81, 492.00 153.79, 493.00 158.79, 494.00 163.75, 495.00 168.63, 496.00 173.38, 497.00 177.96, 498.00 182.32, 499.00 186.43, 500.00 190.25, 501.00 193.73, 502.00 196.86, 503.00 199.59, 504.00 201.90, 505.00 203.78, 506.00 205.19, 507.00 206.14, 508.00 206.61, 509.00 206.60, 510.00 206.10, 511.00 205.13, 512.00 203.69, 513.00 201.79, 514.00 199.45, 515.00 196.70, 516.00 193.56, 517.00 190.05, 518.00 186.22, 519.00 182.10, 520.00 177.72, 521.00 173.13, 522.00 168.37, 523.00 163.49, 524.00 158.52, 525.00 153.53, 526.00 148.54, 527.00 143.62, 528.00 138.80, 529.00 134.14, 530.00 129.67, "
     transform="translate(0.729122,-81.8266)"
     style="fill:none;fill-opacity:0.3;stroke:#3465a4;stroke-width:1.2;stroke-miterlimit:4;stroke-dasharray:none"
     id="polyline34" />
  <polyline
     points="0.0000 155.00, 530.00 155.00, "
     transform="translate(0.729122,-81.8266)"
     style="fill:#ddeeff;fill-opacity:0.3;stroke:black;stroke-width:1"
     id="polyline36" />
  <polyline
     points="265.00 310.00, 265.00 0.0000, "
     transform="translate(0.729122,-81.8266)"
     style="fill:#ddeeff;fill-opacity:0.3;stroke:black;stroke-width:1"
     id="polyline38" />
  <path
     style="fill:#3465a4;fill-opacity:1;stroke-width:0.9"
     d="m 151.9,20.5 c -1.9,-0 -3.7,2.1 -5.4,6.9 -4.2,11.5 -7.5,28.6 -10.8,45.8 h 16.2 16.2 c -3.3,-17.2 -6.6,-34.2 -10.8,-45.8 -1.7,-4.8 -3.5,-7 -5.4,-6.9 z"
     id="path40" />
  <path
     style="fill:#c17d11;fill-opacity:1;stroke-width:0.9"
     d="m 102.7,73.2 c 2.8,14.5 5.6,29.1 9,40.4 2.1,7.4 4.6,12 7.1,12.4 v 0 c 0,0 0.1,-0 0.2,-0 0,0 0.1,0 0.2,0 v -0 c 2.5,-0.4 5,-5 7.1,-12.4 3.3,-11.3 6.1,-25.8 9,-40.4 h -16 -0.3 z"
     id="path42" />
  <rect
     x="113.3"
     y="92.9"
     width="10.9"
     height="3"
     style="stroke-width:1.77"
     id="rect44" />
  <g
     transform="matrix(-0.3333,0,0,0.3333,208.698,56.7012)"
     id="g50">
    <rect
       x="158.4"
       y="-16.6"
       width="32.6"
       height="8.9"
       style="stroke-width:5.3"
       id="rect46" />
    <rect
       x="-4.2"
       y="170.3"
       width="32.6"
       height="8.9"
       transform="rotate(-90)"
       style="stroke-width:5.3"
       id="rect48" />
  </g>
  <text
     x="247.288"
     y="36.8163"
     style="font-style:italic;fill:#4e9a06;stroke-width:1px"
     id="text881">h</text>
</svg>
