<?xml version="1.0" encoding="UTF-8" standalone="no"?>
<svg
   xmlns:dc="http://purl.org/dc/elements/1.1/"
   xmlns:cc="http://creativecommons.org/ns#"
   xmlns:rdf="http://www.w3.org/1999/02/22-rdf-syntax-ns#"
   xmlns:svg="http://www.w3.org/2000/svg"
   xmlns="http://www.w3.org/2000/svg"
   xmlns:sodipodi="http://sodipodi.sourceforge.net/DTD/sodipodi-0.dtd"
   xmlns:inkscape="http://www.inkscape.org/namespaces/inkscape"
   width="530.4"
   height="146.3"
   version="1.1"
   style="font-family:'Comic Sans MS';font-size:20px"
   id="svg18"
   sodipodi:docname="fourier-square-sine5.svg"
   inkscape:version="1.0.1 (3bc2e813f5, 2020-09-07)">
  <metadata
     id="metadata22">
    <rdf:RDF>
      <cc:Work
         rdf:about="">
        <dc:format>image/svg+xml</dc:format>
        <dc:type
           rdf:resource="http://purl.org/dc/dcmitype/StillImage" />
      </cc:Work>
    </rdf:RDF>
  </metadata>
  <sodipodi:namedview
     pagecolor="#ffffff"
     bordercolor="#666666"
     borderopacity="1"
     objecttolerance="10"
     gridtolerance="10"
     guidetolerance="10"
     inkscape:pageopacity="0"
     inkscape:pageshadow="2"
     inkscape:window-width="640"
     inkscape:window-height="480"
     id="namedview20"
     showgrid="false"
     inkscape:current-layer="svg18" />
  <defs
     id="defs2" />
  <polyline
     points="0.0000 155.00, 530.00 155.00, "
     transform="translate(0.181673,-81.842)"
     style="fill:#ddeeff;fill-opacity:0.3;stroke:#cccccc;stroke-width:1"
     id="polyline4" />
  <polyline
     points="265.00 310.00, 265.00 0.0000, "
     transform="matrix(-0.471989,0,0,0.471989,390.259,0)"
     style="fill:#ddeeff;stroke:#999999;stroke-width:2.12"
     id="polyline6" />
  <path
     style="fill:none;stroke:#ff4141;stroke-width:1;stroke-dasharray:3, 3"
     d="M 0.1,32.5 H 102.1 v 81.3 h 163.1 V 32.5 h 162.7 v 81.3 H 530.1"
     id="path8" />
  <text
     x="421.1"
     y="135.9"
     style="font-style:italic;fill:#0084c8;stroke-width:1px;"
     id="text10">π</text>
  <text
     x="87.9"
     y="136.7"
     style="font-style:italic;fill:#0084c8;stroke-width:1px;"
     id="text12">-π</text>
  <text
     x="257.8"
     y="136.8"
     style="font-style:italic;fill:#0084c8;stroke-width:1px;"
     id="text14">0</text>
  <polyline
     points="0.0000 160.07, 1.0000 159.17, 2.0000 158.24, 3.0000 157.28, 4.0000 156.29, 5.0000 155.29, 6.0000 154.30, 7.0000 153.30, 8.0000 152.33, 9.0000 151.37, 10.000 150.46, 11.000 149.58, 12.000 148.76, 13.000 147.99, 14.000 147.29, 15.000 146.66, 16.000 146.11, 17.000 145.64, 18.000 145.26, 19.000 144.97, 20.000 144.78, 21.000 144.68, 22.000 144.68, 23.000 144.77, 24.000 144.96, 25.000 145.24, 26.000 145.62, 27.000 146.08, 28.000 146.63, 29.000 147.25, 30.000 147.95, 31.000 148.71, 32.000 149.54, 33.000 150.41, 34.000 151.32, 35.000 152.27, 36.000 153.25, 37.000 154.24, 38.000 155.24, 39.000 156.24, 40.000 157.22, 41.000 158.19, 42.000 159.12, 43.000 160.02, 44.000 160.87, 45.000 161.66, 46.000 162.40, 47.000 163.06, 48.000 163.65, 49.000 164.15, 50.000 164.57, 51.000 164.90, 52.000 165.14, 53.000 165.29, 54.000 165.33, 55.000 165.28, 56.000 165.14, 57.000 164.90, 58.000 164.56, 59.000 164.14, 60.000 163.63, 61.000 163.05, 62.000 162.38, 63.000 161.65, 64.000 160.85, 65.000 160.00, 66.000 159.10, 67.000 158.17, 68.000 157.20, 69.000 156.22, 70.000 155.22, 71.000 154.22, 72.000 153.23, 73.000 152.25, 74.000 151.30, 75.000 150.39, 76.000 149.52, 77.000 148.70, 78.000 147.94, 79.000 147.24, 80.000 146.62, 81.000 146.07, 82.000 145.61, 83.000 145.24, 84.000 144.96, 85.000 144.77, 86.000 144.68, 87.000 144.68, 88.000 144.78, 89.000 144.98, 90.000 145.27, 91.000 145.65, 92.000 146.12, 93.000 146.67, 94.000 147.30, 95.000 148.00, 96.000 148.77, 97.000 149.60, 98.000 150.47, 99.000 151.39, 100.00 152.35, 101.00 153.32, 102.00 154.32, 103.00 155.32, 104.00 156.31, 105.00 157.30, 106.00 158.26, 107.00 159.19, 108.00 160.08, 109.00 160.93, 110.00 161.72, 111.00 162.45, 112.00 163.10, 113.00 163.69, 114.00 164.19, 115.00 164.60, 116.00 164.92, 117.00 165.16, 118.00 165.29, 119.00 165.33, 120.00 165.28, 121.00 165.12, 122.00 164.88, 123.00 164.54, 124.00 164.11, 125.00 163.59, 126.00 163.00, 127.00 162.33, 128.00 161.59, 129.00 160.79, 130.00 159.94, 131.00 159.04, 132.00 158.10, 133.00 157.13, 134.00 156.15, 135.00 155.15, 136.00 154.15, 137.00 153.16, 138.00 152.18, 139.00 151.24, 140.00 150.32, 141.00 149.46, 142.00 148.64, 143.00 147.88, 144.00 147.19, 145.00 146.57, 146.00 146.04, 147.00 145.58, 148.00 145.21, 149.00 144.94, 150.00 144.76, 151.00 144.67, 152.00 144.69, 153.00 144.79, 154.00 145.00, 155.00 145.29, 156.00 145.68, 157.00 146.16, 158.00 146.72, 159.00 147.35, 160.00 148.06, 161.00 148.83, 162.00 149.66, 163.00 150.54, 164.00 151.46, 165.00 152.42, 166.00 153.40, 167.00 154.39, 168.00 155.39, 169.00 156.39, 170.00 157.37, 171.00 158.33, 172.00 159.26, 173.00 160.15, 174.00 160.99, 175.00 161.78, 176.00 162.50, 177.00 163.15, 178.00 163.73, 179.00 164.22, 180.00 164.63, 181.00 164.94, 182.00 165.17, 183.00 165.30, 184.00 165.33, 185.00 165.27, 186.00 165.11, 187.00 164.85, 188.00 164.51, 189.00 164.07, 190.00 163.55, 191.00 162.95, 192.00 162.28, 193.00 161.53, 194.00 160.73, 195.00 159.87, 196.00 158.97, 197.00 158.03, 198.00 157.06, 199.00 156.07, 200.00 155.07, 201.00 154.07, 202.00 153.08, 203.00 152.11, 204.00 151.17, 205.00 150.26, 206.00 149.39, 207.00 148.58, 208.00 147.83, 209.00 147.14, 210.00 146.53, 211.00 146.00, 212.00 145.55, 213.00 145.19, 214.00 144.92, 215.00 144.75, 216.00 144.67, 217.00 144.69, 218.00 144.81, 219.00 145.02, 220.00 145.32, 221.00 145.71, 222.00 146.20, 223.00 146.76, 224.00 147.40, 225.00 148.11, 226.00 148.89, 227.00 149.72, 228.00 150.61, 229.00 151.53, 230.00 152.49, 231.00 153.47, 232.00 154.46, 233.00 155.46, 234.00 156.46, 235.00 157.44, 236.00 158.40, 237.00 159.33, 238.00 160.21, 239.00 161.05, 240.00 161.83, 241.00 162.55, 242.00 163.19, 243.00 163.76, 244.00 164.25, 245.00 164.65, 246.00 164.96, 247.00 165.18, 248.00 165.30, 249.00 165.33, 250.00 165.26, 251.00 165.09, 252.00 164.83, 253.00 164.48, 254.00 164.04, 255.00 163.51, 256.00 162.90, 257.00 162.22, 258.00 161.48, 259.00 160.67, 260.00 159.81, 261.00 158.90, 262.00 157.96, 263.00 156.99, 264.00 156.00, 265.00 155.00, 266.00 154.00, 267.00 153.01, 268.00 152.04, 269.00 151.10, 270.00 150.19, 271.00 149.33, 272.00 148.52, 273.00 147.78, 274.00 147.10, 275.00 146.49, 276.00 145.96, 277.00 145.52, 278.00 145.17, 279.00 144.91, 280.00 144.74, 281.00 144.67, 282.00 144.70, 283.00 144.82, 284.00 145.04, 285.00 145.35, 286.00 145.75, 287.00 146.24, 288.00 146.81, 289.00 147.45, 290.00 148.17, 291.00 148.95, 292.00 149.79, 293.00 150.67, 294.00 151.60, 295.00 152.56, 296.00 153.54, 297.00 154.54, 298.00 155.54, 299.00 156.53, 300.00 157.51, 301.00 158.47, 302.00 159.39, 303.00 160.28, 304.00 161.11, 305.00 161.89, 306.00 162.60, 307.00 163.24, 308.00 163.80, 309.00 164.29, 310.00 164.68, 311.00 164.98, 312.00 165.19, 313.00 165.31, 314.00 165.33, 315.00 165.25, 316.00 165.08, 317.00 164.81, 318.00 164.45, 319.00 164.00, 320.00 163.47, 321.00 162.86, 322.00 162.17, 323.00 161.42, 324.00 160.61, 325.00 159.74, 326.00 158.83, 327.00 157.89, 328.00 156.92, 329.00 155.93, 330.00 154.93, 331.00 153.93, 332.00 152.94, 333.00 151.97, 334.00 151.03, 335.00 150.13, 336.00 149.27, 337.00 148.47, 338.00 147.72, 339.00 147.05, 340.00 146.45, 341.00 145.93, 342.00 145.49, 343.00 145.15, 344.00 144.89, 345.00 144.73, 346.00 144.67, 347.00 144.70, 348.00 144.83, 349.00 145.06, 350.00 145.37, 351.00 145.78, 352.00 146.27, 353.00 146.85, 354.00 147.50, 355.00 148.22, 356.00 149.01, 357.00 149.85, 358.00 150.74, 359.00 151.67, 360.00 152.63, 361.00 153.61, 362.00 154.61, 363.00 155.61, 364.00 156.60, 365.00 157.58, 366.00 158.54, 367.00 159.46, 368.00 160.34, 369.00 161.17, 370.00 161.94, 371.00 162.65, 372.00 163.28, 373.00 163.84, 374.00 164.32, 375.00 164.71, 376.00 165.00, 377.00 165.21, 378.00 165.31, 379.00 165.33, 380.00 165.24, 381.00 165.06, 382.00 164.79, 383.00 164.42, 384.00 163.96, 385.00 163.43, 386.00 162.81, 387.00 162.12, 388.00 161.36, 389.00 160.54, 390.00 159.68, 391.00 158.76, 392.00 157.82, 393.00 156.84, 394.00 155.85, 395.00 154.85, 396.00 153.85, 397.00 152.87, 398.00 151.90, 399.00 150.96, 400.00 150.06, 401.00 149.21, 402.00 148.41, 403.00 147.67, 404.00 147.00, 405.00 146.41, 406.00 145.89, 407.00 145.46, 408.00 145.12, 409.00 144.88, 410.00 144.72, 411.00 144.67, 412.00 144.71, 413.00 144.84, 414.00 145.08, 415.00 145.40, 416.00 145.81, 417.00 146.31, 418.00 146.90, 419.00 147.55, 420.00 148.28, 421.00 149.07, 422.00 149.92, 423.00 150.81, 424.00 151.74, 425.00 152.70, 426.00 153.69, 427.00 154.68, 428.00 155.68, 429.00 156.68, 430.00 157.65, 431.00 158.61, 432.00 159.53, 433.00 160.40, 434.00 161.23, 435.00 162.00, 436.00 162.70, 437.00 163.33, 438.00 163.88, 439.00 164.35, 440.00 164.73, 441.00 165.02, 442.00 165.22, 443.00 165.32, 444.00 165.32, 445.00 165.23, 446.00 165.04, 447.00 164.76, 448.00 164.39, 449.00 163.93, 450.00 163.38, 451.00 162.76, 452.00 162.06, 453.00 161.30, 454.00 160.48, 455.00 159.61, 456.00 158.70, 457.00 157.75, 458.00 156.77, 459.00 155.78, 460.00 154.78, 461.00 153.78, 462.00 152.80, 463.00 151.83, 464.00 150.90, 465.00 150.00, 466.00 149.15, 467.00 148.35, 468.00 147.62, 469.00 146.95, 470.00 146.37, 471.00 145.86, 472.00 145.44, 473.00 145.10, 474.00 144.86, 475.00 144.72, 476.00 144.67, 477.00 144.71, 478.00 144.86, 479.00 145.10, 480.00 145.43, 481.00 145.85, 482.00 146.35, 483.00 146.94, 484.00 147.60, 485.00 148.34, 486.00 149.13, 487.00 149.98, 488.00 150.88, 489.00 151.81, 490.00 152.78, 491.00 153.76, 492.00 154.76, 493.00 155.76, 494.00 156.75, 495.00 157.73, 496.00 158.68, 497.00 159.59, 498.00 160.46, 499.00 161.29, 500.00 162.05, 501.00 162.75, 502.00 163.37, 503.00 163.92, 504.00 164.38, 505.00 164.76, 506.00 165.04, 507.00 165.23, 508.00 165.32, 509.00 165.32, 510.00 165.22, 511.00 165.03, 512.00 164.74, 513.00 164.36, 514.00 163.89, 515.00 163.34, 516.00 162.71, 517.00 162.01, 518.00 161.24, 519.00 160.42, 520.00 159.54, 521.00 158.63, 522.00 157.67, 523.00 156.70, 524.00 155.70, 525.00 154.71, 526.00 153.71, 527.00 152.72, 528.00 151.76, 529.00 150.83, 530.00 149.93, "
     transform="translate(0.181673,-81.842)"
     style="fill:none;fill-opacity:0.3;stroke:#3465a4;stroke-width:2"
     id="polyline16" />
</svg>
