<?xml version="1.0" encoding="UTF-8" standalone="no"?>
<svg
   xmlns:dc="http://purl.org/dc/elements/1.1/"
   xmlns:cc="http://creativecommons.org/ns#"
   xmlns:rdf="http://www.w3.org/1999/02/22-rdf-syntax-ns#"
   xmlns:svg="http://www.w3.org/2000/svg"
   xmlns="http://www.w3.org/2000/svg"
   xmlns:sodipodi="http://sodipodi.sourceforge.net/DTD/sodipodi-0.dtd"
   xmlns:inkscape="http://www.inkscape.org/namespaces/inkscape"
   width="530.4"
   height="146.3"
   version="1.1"
   style="font-family:'Comic Sans MS';font-size:20px"
   id="svg18"
   sodipodi:docname="fourier-square-sine1-39.svg"
   inkscape:version="1.0.1 (3bc2e813f5, 2020-09-07)">
  <metadata
     id="metadata22">
    <rdf:RDF>
      <cc:Work
         rdf:about="">
        <dc:format>image/svg+xml</dc:format>
        <dc:type
           rdf:resource="http://purl.org/dc/dcmitype/StillImage" />
      </cc:Work>
    </rdf:RDF>
  </metadata>
  <sodipodi:namedview
     pagecolor="#ffffff"
     bordercolor="#666666"
     borderopacity="1"
     objecttolerance="10"
     gridtolerance="10"
     guidetolerance="10"
     inkscape:pageopacity="0"
     inkscape:pageshadow="2"
     inkscape:window-width="640"
     inkscape:window-height="480"
     id="namedview20"
     showgrid="false"
     inkscape:current-layer="svg18" />
  <defs
     id="defs2" />
  <polyline
     points="0.0000 155.00, 530.00 155.00, "
     transform="translate(0.181673,-81.842)"
     style="fill:#ddeeff;fill-opacity:0.3;stroke:#cccccc;stroke-width:1"
     id="polyline4" />
  <polyline
     points="265.00 310.00, 265.00 0.0000, "
     transform="matrix(-0.471989,0,0,0.471989,390.259,0)"
     style="fill:#ddeeff;stroke:#999999;stroke-width:2.12"
     id="polyline6" />
  <path
     style="fill:none;stroke:#ff4141;stroke-width:1;stroke-dasharray:3, 3"
     d="M 0.1,32.5 H 102.1 v 81.3 h 163.1 V 32.5 h 162.7 v 81.3 H 530.1"
     id="path8" />
  <text
     x="420.423"
     y="140.639"
     style="font-style:italic;fill:#0084c8;stroke-width:1px"
     id="text10">π</text>
  <text
     x="87.2235"
     y="141.439"
     style="font-style:italic;fill:#0084c8;stroke-width:1px"
     id="text12">-π</text>
  <text
     x="257.123"
     y="141.539"
     style="font-style:italic;fill:#0084c8;stroke-width:1px"
     id="text14">0</text>
  <polyline
     points="0.0000 114.02, 1.0000 113.73, 2.0000 113.84, 3.0000 114.27, 4.0000 114.78, 5.0000 115.08, 6.0000 115.00, 7.0000 114.59, 8.0000 114.09, 9.0000 113.78, 10.000 113.84, 11.000 114.23, 12.000 114.72, 13.000 115.04, 14.000 115.01, 15.000 114.64, 16.000 114.15, 17.000 113.82, 18.000 113.83, 19.000 114.18, 20.000 114.67, 21.000 115.01, 22.000 115.02, 23.000 114.69, 24.000 114.20, 25.000 113.84, 26.000 113.81, 27.000 114.13, 28.000 114.61, 29.000 115.00, 30.000 115.05, 31.000 114.74, 32.000 114.25, 33.000 113.85, 34.000 113.78, 35.000 114.07, 36.000 114.57, 37.000 114.99, 38.000 115.09, 39.000 114.81, 40.000 114.30, 41.000 113.86, 42.000 113.73, 43.000 114.00, 44.000 114.51, 45.000 114.99, 46.000 115.14, 47.000 114.88, 48.000 114.36, 49.000 113.85, 50.000 113.67, 51.000 113.91, 52.000 114.46, 53.000 115.00, 54.000 115.22, 55.000 114.98, 56.000 114.42, 57.000 113.83, 58.000 113.57, 59.000 113.80, 60.000 114.39, 61.000 115.02, 62.000 115.33, 63.000 115.12, 64.000 114.49, 65.000 113.80, 66.000 113.44, 67.000 113.63, 68.000 114.30, 69.000 115.07, 70.000 115.50, 71.000 115.32, 72.000 114.60, 73.000 113.73, 74.000 113.22, 75.000 113.38, 76.000 114.17, 77.000 115.16, 78.000 115.79, 79.000 115.65, 80.000 114.77, 81.000 113.60, 82.000 112.82, 83.000 112.93, 84.000 113.95, 85.000 115.36, 86.000 116.36, 87.000 116.30, 88.000 115.07, 89.000 113.27, 90.000 111.92, 91.000 111.91, 92.000 113.50, 93.000 115.99, 94.000 118.01, 95.000 118.14, 96.000 115.79, 97.000 111.71, 98.000 108.01, 99.000 107.51, 100.00 112.64, 101.00 124.34, 102.00 141.52, 103.00 161.29, 104.00 179.84, 105.00 193.80, 106.00 201.34, 107.00 202.69, 108.00 199.84, 109.00 195.60, 110.00 192.44, 111.00 191.67, 112.00 193.13, 113.00 195.63, 114.00 197.67, 115.00 198.27, 116.00 197.33, 117.00 195.57, 118.00 194.04, 119.00 193.52, 120.00 194.18, 121.00 195.54, 122.00 196.78, 123.00 197.25, 124.00 196.76, 125.00 195.66, 126.00 194.61, 127.00 194.16, 128.00 194.54, 129.00 195.46, 130.00 196.39, 131.00 196.81, 132.00 196.52, 133.00 195.73, 134.00 194.90, 135.00 194.49, 136.00 194.71, 137.00 195.40, 138.00 196.16, 139.00 196.56, 140.00 196.39, 141.00 195.78, 142.00 195.08, 143.00 194.69, 144.00 194.81, 145.00 195.36, 146.00 196.01, 147.00 196.40, 148.00 196.31, 149.00 195.82, 150.00 195.20, 151.00 194.82, 152.00 194.87, 153.00 195.32, 154.00 195.91, 155.00 196.29, 156.00 196.27, 157.00 195.85, 158.00 195.29, 159.00 194.91, 160.00 194.91, 161.00 195.29, 162.00 195.83, 163.00 196.21, 164.00 196.24, 165.00 195.89, 166.00 195.37, 167.00 194.98, 168.00 194.93, 169.00 195.25, 170.00 195.76, 171.00 196.16, 172.00 196.22, 173.00 195.92, 174.00 195.43, 175.00 195.03, 176.00 194.94, 177.00 195.22, 178.00 195.70, 179.00 196.11, 180.00 196.22, 181.00 195.96, 182.00 195.49, 183.00 195.07, 184.00 194.94, 185.00 195.18, 186.00 195.64, 187.00 196.08, 188.00 196.22, 189.00 196.01, 190.00 195.54, 191.00 195.10, 192.00 194.93, 193.00 195.13, 194.00 195.59, 195.00 196.05, 196.00 196.24, 197.00 196.06, 198.00 195.60, 199.00 195.12, 200.00 194.90, 201.00 195.07, 202.00 195.53, 203.00 196.03, 204.00 196.27, 205.00 196.12, 206.00 195.66, 207.00 195.14, 208.00 194.86, 209.00 194.99, 210.00 195.46, 211.00 196.01, 212.00 196.32, 213.00 196.21, 214.00 195.73, 215.00 195.15, 216.00 194.80, 217.00 194.90, 218.00 195.39, 219.00 196.00, 220.00 196.39, 221.00 196.33, 222.00 195.82, 223.00 195.16, 224.00 194.72, 225.00 194.76, 226.00 195.28, 227.00 196.00, 228.00 196.50, 229.00 196.49, 230.00 195.94, 231.00 195.16, 232.00 194.58, 233.00 194.55, 234.00 195.13, 235.00 196.01, 236.00 196.68, 237.00 196.75, 238.00 196.13, 239.00 195.14, 240.00 194.34, 241.00 194.22, 242.00 194.89, 243.00 196.04, 244.00 197.01, 245.00 197.21, 246.00 196.45, 247.00 195.08, 248.00 193.86, 249.00 193.55, 250.00 194.44, 251.00 196.15, 252.00 197.77, 253.00 198.26, 254.00 197.15, 255.00 194.82, 256.00 192.49, 257.00 191.64, 258.00 193.21, 259.00 196.92, 260.00 201.03, 261.00 202.84, 262.00 199.68, 263.00 190.04, 264.00 174.35, 265.00 155.00, 266.00 135.65, 267.00 119.96, 268.00 110.32, 269.00 107.16, 270.00 108.97, 271.00 113.08, 272.00 116.79, 273.00 118.36, 274.00 117.51, 275.00 115.18, 276.00 112.85, 277.00 111.74, 278.00 112.23, 279.00 113.85, 280.00 115.56, 281.00 116.45, 282.00 116.14, 283.00 114.92, 284.00 113.55, 285.00 112.79, 286.00 112.99, 287.00 113.96, 288.00 115.11, 289.00 115.78, 290.00 115.66, 291.00 114.86, 292.00 113.87, 293.00 113.25, 294.00 113.32, 295.00 113.99, 296.00 114.87, 297.00 115.45, 298.00 115.42, 299.00 114.84, 300.00 114.06, 301.00 113.51, 302.00 113.50, 303.00 114.00, 304.00 114.72, 305.00 115.24, 306.00 115.28, 307.00 114.84, 308.00 114.18, 309.00 113.67, 310.00 113.61, 311.00 114.00, 312.00 114.61, 313.00 115.10, 314.00 115.20, 315.00 114.85, 316.00 114.27, 317.00 113.79, 318.00 113.68, 319.00 113.99, 320.00 114.54, 321.00 115.01, 322.00 115.14, 323.00 114.86, 324.00 114.34, 325.00 113.88, 326.00 113.73, 327.00 113.97, 328.00 114.47, 329.00 114.93, 330.00 115.10, 331.00 114.88, 332.00 114.40, 333.00 113.94, 334.00 113.76, 335.00 113.95, 336.00 114.41, 337.00 114.87, 338.00 115.07, 339.00 114.90, 340.00 114.46, 341.00 113.99, 342.00 113.78, 343.00 113.92, 344.00 114.36, 345.00 114.82, 346.00 115.06, 347.00 114.93, 348.00 114.51, 349.00 114.04, 350.00 113.78, 351.00 113.89, 352.00 114.30, 353.00 114.78, 354.00 115.06, 355.00 114.97, 356.00 114.57, 357.00 114.08, 358.00 113.78, 359.00 113.84, 360.00 114.24, 361.00 114.75, 362.00 115.07, 363.00 115.02, 364.00 114.63, 365.00 114.11, 366.00 113.76, 367.00 113.79, 368.00 114.17, 369.00 114.71, 370.00 115.09, 371.00 115.09, 372.00 114.71, 373.00 114.15, 374.00 113.73, 375.00 113.71, 376.00 114.09, 377.00 114.68, 378.00 115.13, 379.00 115.18, 380.00 114.80, 381.00 114.18, 382.00 113.69, 383.00 113.60, 384.00 113.99, 385.00 114.64, 386.00 115.19, 387.00 115.31, 388.00 114.92, 389.00 114.22, 390.00 113.61, 391.00 113.44, 392.00 113.84, 393.00 114.60, 394.00 115.29, 395.00 115.51, 396.00 115.10, 397.00 114.27, 398.00 113.48, 399.00 113.19, 400.00 113.61, 401.00 114.54, 402.00 115.46, 403.00 115.84, 404.00 115.39, 405.00 114.34, 406.00 113.24, 407.00 112.75, 408.00 113.22, 409.00 114.46, 410.00 115.82, 411.00 116.48, 412.00 115.96, 413.00 114.43, 414.00 112.67, 415.00 111.73, 416.00 112.33, 417.00 114.37, 418.00 116.87, 419.00 118.33, 420.00 117.56, 421.00 114.40, 422.00 110.16, 423.00 107.31, 424.00 108.66, 425.00 116.20, 426.00 130.16, 427.00 148.71, 428.00 168.48, 429.00 185.66, 430.00 197.36, 431.00 202.49, 432.00 201.99, 433.00 198.29, 434.00 194.21, 435.00 191.86, 436.00 191.99, 437.00 194.01, 438.00 196.50, 439.00 198.09, 440.00 198.08, 441.00 196.73, 442.00 194.93, 443.00 193.70, 444.00 193.64, 445.00 194.64, 446.00 196.05, 447.00 197.07, 448.00 197.18, 449.00 196.40, 450.00 195.23, 451.00 194.35, 452.00 194.21, 453.00 194.84, 454.00 195.83, 455.00 196.62, 456.00 196.78, 457.00 196.27, 458.00 195.40, 459.00 194.68, 460.00 194.50, 461.00 194.93, 462.00 195.70, 463.00 196.37, 464.00 196.56, 465.00 196.20, 466.00 195.51, 467.00 194.88, 468.00 194.67, 469.00 194.98, 470.00 195.61, 471.00 196.20, 472.00 196.43, 473.00 196.17, 474.00 195.58, 475.00 195.02, 476.00 194.78, 477.00 195.00, 478.00 195.54, 479.00 196.09, 480.00 196.33, 481.00 196.15, 482.00 195.64, 483.00 195.12, 484.00 194.86, 485.00 195.01, 486.00 195.49, 487.00 196.00, 488.00 196.27, 489.00 196.14, 490.00 195.70, 491.00 195.19, 492.00 194.91, 493.00 195.01, 494.00 195.43, 495.00 195.93, 496.00 196.22, 497.00 196.15, 498.00 195.75, 499.00 195.26, 500.00 194.95, 501.00 195.00, 502.00 195.39, 503.00 195.87, 504.00 196.19, 505.00 196.16, 506.00 195.80, 507.00 195.31, 508.00 194.98, 509.00 194.99, 510.00 195.33, 511.00 195.82, 512.00 196.17, 513.00 196.18, 514.00 195.85, 515.00 195.36, 516.00 194.99, 517.00 194.96, 518.00 195.28, 519.00 195.77, 520.00 196.16, 521.00 196.22, 522.00 195.91, 523.00 195.41, 524.00 195.00, 525.00 194.92, 526.00 195.22, 527.00 195.73, 528.00 196.16, 529.00 196.27, 530.00 195.98, "
     transform="translate(0.1211,-81.493)"
     style="fill:none;fill-opacity:0.3;stroke:#3465a4;stroke-width:2"
     id="polyline16" />
</svg>
