<?xml version="1.0" encoding="UTF-8" standalone="no"?>
<svg
   xmlns:dc="http://purl.org/dc/elements/1.1/"
   xmlns:cc="http://creativecommons.org/ns#"
   xmlns:rdf="http://www.w3.org/1999/02/22-rdf-syntax-ns#"
   xmlns:svg="http://www.w3.org/2000/svg"
   xmlns="http://www.w3.org/2000/svg"
   xmlns:sodipodi="http://sodipodi.sourceforge.net/DTD/sodipodi-0.dtd"
   xmlns:inkscape="http://www.inkscape.org/namespaces/inkscape"
   width="530.4"
   height="146.3"
   version="1.1"
   style="font-family:'Comic Sans MS';font-size:20px;stroke-width:1px"
   id="svg32"
   sodipodi:docname="fourier-square-cos1-pos.svg"
   inkscape:version="1.0.1 (3bc2e813f5, 2020-09-07)">
  <metadata
     id="metadata36">
    <rdf:RDF>
      <cc:Work
         rdf:about="">
        <dc:format>image/svg+xml</dc:format>
        <dc:type
           rdf:resource="http://purl.org/dc/dcmitype/StillImage" />
      </cc:Work>
    </rdf:RDF>
  </metadata>
  <sodipodi:namedview
     pagecolor="#ffffff"
     bordercolor="#666666"
     borderopacity="1"
     objecttolerance="10"
     gridtolerance="10"
     guidetolerance="10"
     inkscape:pageopacity="0"
     inkscape:pageshadow="2"
     inkscape:window-width="640"
     inkscape:window-height="480"
     id="namedview34"
     showgrid="false"
     inkscape:current-layer="svg32" />
  <defs
     id="defs2" />
  <polyline
     points="0.0000 155.00, 530.00 155.00, "
     transform="translate(0.181673,-81.842)"
     style="fill:#ddeeff;fill-opacity:0.3;stroke:#cccccc;stroke-width:1"
     id="polyline4" />
  <polyline
     points="265.00 310.00, 265.00 0.0000, "
     transform="matrix(-0.471989,0,0,0.471989,390.259,0)"
     style="fill:#ddeeff;stroke:#999999;stroke-width:2.12"
     id="polyline6" />
  <path
     style="fill:none;stroke:#ff4141;stroke-width:1;stroke-dasharray:3, 3"
     d="M 0.1,32.5 H 102.1 v 81.3 h 163.1 V 32.5 h 162.7 v 81.3 H 530.1"
     id="path8" />
  <text
     x="421.1"
     y="139.9"
     style="font-style:italic;fill:#0084c8;"
     id="text10">π</text>
  <text
     x="87.9"
     y="140.7"
     style="font-style:italic;fill:#0084c8;"
     id="text12">-π</text>
  <text
     x="257.8"
     y="140.8"
     style="font-style:italic;fill:#0084c8;"
     id="text14">0</text>
  <path
     style="fill:none;fill-opacity:0.3;stroke:#3465a4;stroke-width:2"
     d="M 0.2,52.2 C 25.7,75 47,103.6 78.2,119 c 19.6,10.2 43.4,5.8 61,-6.5 36.4,-24 60.3,-63.4 99,-84.2 18.7,-10.5 42.3,-8.3 60,3.3 38.2,23.5 62.3,64.6 102,86.1 18.7,10.6 42.3,8.6 60,-2.9 26.9,-16.5 46.8,-41.7 70,-62.6"
     id="path16" />
  <path
     style="fill:#3465a4;fill-opacity:0.996564;stroke-width:2"
     d="M 346.3,73.2 C 329.7,56.4 313.1,39.7 292.2,28.4 283.8,23.7 274.5,21.6 265.2,21.7 v 51.5 z"
     id="path18" />
  <path
     style="fill:#c17d11;fill-opacity:1;stroke-width:2"
     d="m 428.2,124.8 c -13.1,-0 -26.3,-4.6 -37.1,-12.1 -16.7,-11 -30.8,-25.2 -44.8,-39.5 h 81.9"
     id="path20" />
  <rect
     x="388"
     y="89.7"
     width="32.6"
     height="8.9"
     style="fill:#ffffff;stroke-width:5.3"
     id="rect22" />
  <g
     style="fill:white"
     transform="translate(115.648,62.1092)"
     id="g28">
    <rect
       x="158.4"
       y="-16.6"
       width="32.6"
       height="8.9"
       style="fill:white;stroke-width:5.3"
       id="rect24" />
    <rect
       x="-4.2"
       y="170.3"
       width="32.6"
       height="8.9"
       transform="rotate(-90)"
       style="fill:white;stroke-width:5.3"
       id="rect26" />
  </g>
  <text
     x="247.8"
     y="39.1"
     style="font-style:italic;fill:#4e9a06"
     id="text30">h</text>
</svg>
