<?xml version="1.0" encoding="UTF-8" standalone="no"?>
<svg
   xmlns:dc="http://purl.org/dc/elements/1.1/"
   xmlns:cc="http://creativecommons.org/ns#"
   xmlns:rdf="http://www.w3.org/1999/02/22-rdf-syntax-ns#"
   xmlns:svg="http://www.w3.org/2000/svg"
   xmlns="http://www.w3.org/2000/svg"
   xmlns:sodipodi="http://sodipodi.sourceforge.net/DTD/sodipodi-0.dtd"
   xmlns:inkscape="http://www.inkscape.org/namespaces/inkscape"
   width="530.4"
   height="146.3"
   version="1.1"
   style="font-family:'Comic Sans MS';font-size:20px"
   id="svg18"
   sodipodi:docname="fourier-square-sine3.svg"
   inkscape:version="1.0.1 (3bc2e813f5, 2020-09-07)">
  <metadata
     id="metadata22">
    <rdf:RDF>
      <cc:Work
         rdf:about="">
        <dc:format>image/svg+xml</dc:format>
        <dc:type
           rdf:resource="http://purl.org/dc/dcmitype/StillImage" />
      </cc:Work>
    </rdf:RDF>
  </metadata>
  <sodipodi:namedview
     pagecolor="#ffffff"
     bordercolor="#666666"
     borderopacity="1"
     objecttolerance="10"
     gridtolerance="10"
     guidetolerance="10"
     inkscape:pageopacity="0"
     inkscape:pageshadow="2"
     inkscape:window-width="640"
     inkscape:window-height="480"
     id="namedview20"
     showgrid="false"
     inkscape:current-layer="svg18"
     inkscape:document-rotation="0" />
  <defs
     id="defs2" />
  <polyline
     points="0.0000 155.00, 530.00 155.00, "
     transform="translate(0.181673,-81.842)"
     style="fill:#ddeeff;fill-opacity:0.3;stroke:#cccccc;stroke-width:1"
     id="polyline4" />
  <polyline
     points="265.00 310.00, 265.00 0.0000, "
     transform="matrix(-0.471989,0,0,0.471989,390.259,0)"
     style="fill:#ddeeff;stroke:#999999;stroke-width:2.12"
     id="polyline6" />
  <path
     style="fill:none;stroke:#ff4141;stroke-width:1;stroke-dasharray:3, 3"
     d="M 0.1,32.5 H 102.1 v 81.3 h 163.1 V 32.5 h 162.7 v 81.3 H 530.1"
     id="path8" />
  <text
     x="421.1"
     y="135.9"
     style="font-style:italic;fill:#0084c8;stroke-width:1px"
     id="text10">π</text>
  <text
     x="87.9"
     y="136.7"
     style="font-style:italic;fill:#0084c8;stroke-width:1px"
     id="text12">-π</text>
  <text
     x="257.8"
     y="136.8"
     style="font-style:italic;fill:#0084c8;stroke-width:1px"
     id="text14">0</text>
  <path
     style="fill:none;fill-opacity:0.3;stroke:#3465a4;stroke-width:1.2;stroke-miterlimit:4;stroke-dasharray:none"
     d="m 0.2,78.6 c 7.9,8.4 20.8,16.2 32,8.7 15,-8.5 23.5,-26.9 41,-31.2 15.9,-1.2 25.4,14 36,23.2 7.7,8.1 20.3,15.2 31,8.1 15.4,-8.6 23.9,-27.7 42,-31.4 15.9,-0.4 25.2,14.8 36,24 7.7,8.2 20.7,14.3 31,6.9 14.8,-8.7 23.3,-27.2 41,-30.9 15.9,-0.6 25.2,14.6 36,23.8 7.7,8.1 20.5,14.6 31,7.2 14.9,-8.7 23.4,-27.1 41,-31 15.9,-0.8 25.3,14.4 36,23.6 7.7,8.1 20.4,14.8 31,7.5 15,-8.6 23.4,-27 41,-31.1 9.6,-1.4 17.5,5.6 24,11.6"
     id="path16" />
</svg>
