<?xml version="1.0" encoding="UTF-8" standalone="no"?>
<svg
   xmlns:dc="http://purl.org/dc/elements/1.1/"
   xmlns:cc="http://creativecommons.org/ns#"
   xmlns:rdf="http://www.w3.org/1999/02/22-rdf-syntax-ns#"
   xmlns:svg="http://www.w3.org/2000/svg"
   xmlns="http://www.w3.org/2000/svg"
   xmlns:sodipodi="http://sodipodi.sourceforge.net/DTD/sodipodi-0.dtd"
   xmlns:inkscape="http://www.inkscape.org/namespaces/inkscape"
   width="215.947"
   height="133.509"
   id="svg6589"
   version="1.1"
   inkscape:version="1.0.1 (3bc2e813f5, 2020-09-07)"
   sodipodi:docname="integral-subs-3.svg">
  <defs
     id="defs6591">
    <linearGradient
       id="linearGradient7357">
      <stop
         style="stop-color:#4e9a06;stop-opacity:1"
         offset="0"
         id="stop7359" />
      <stop
         style="stop-color:#73d216;stop-opacity:1"
         offset="1"
         id="stop7361" />
    </linearGradient>
  </defs>
  <sodipodi:namedview
     id="base"
     pagecolor="#ffffff"
     bordercolor="#666666"
     borderopacity="1.0"
     inkscape:pageopacity="0.0"
     inkscape:pageshadow="2"
     inkscape:zoom="0.5"
     inkscape:cx="767.16139"
     inkscape:cy="-157.48113"
     inkscape:document-units="px"
     inkscape:current-layer="layer1"
     showgrid="false"
     inkscape:window-width="1920"
     inkscape:window-height="1005"
     inkscape:window-x="1911"
     inkscape:window-y="-9"
     inkscape:window-maximized="1"
     showborder="true"
     inkscape:document-rotation="0" />
  <metadata
     id="metadata6594">
    <rdf:RDF>
      <cc:Work
         rdf:about="">
        <dc:format>image/svg+xml</dc:format>
        <dc:type
           rdf:resource="http://purl.org/dc/dcmitype/StillImage" />
        <dc:title />
      </cc:Work>
    </rdf:RDF>
  </metadata>
  <g
     inkscape:label="Layer 1"
     inkscape:groupmode="layer"
     id="layer1"
     transform="translate(-177.656,-731.25)">
    <text
       xml:space="preserve"
       style="color:#000000;font-style:normal;font-variant:normal;font-weight:normal;font-stretch:normal;font-size:42.6667px;line-height:125%;font-family:'Trebuchet MS';-inkscape-font-specification:'Trebuchet MS, Normal';font-variant-ligatures:normal;font-variant-caps:normal;font-variant-numeric:normal;font-variant-east-asian:normal;text-indent:0;text-align:start;text-decoration:none;text-decoration-line:none;letter-spacing:0px;word-spacing:0px;text-transform:none;writing-mode:lr-tb;direction:ltr;baseline-shift:baseline;text-anchor:start;display:inline;overflow:visible;visibility:visible;fill:#3465a4;fill-opacity:1;fill-rule:nonzero;stroke:none;stroke-width:0.317691px;marker:none;enable-background:accumulate"
       x="178.114"
       y="762.708"
       id="text7442"><tspan
         style="font-style:normal;font-variant:normal;font-weight:normal;font-stretch:normal;font-size:42.6667px;line-height:125%;font-family:'Trebuchet MS';-inkscape-font-specification:'Trebuchet MS, Normal';font-variant-ligatures:normal;font-variant-caps:normal;font-variant-numeric:normal;font-variant-east-asian:normal;text-align:start;writing-mode:lr-tb;text-anchor:start;fill:#3465a4;stroke:none;stroke-width:0.317691"
         sodipodi:role="line"
         id="tspan7444"
         x="178.114"
         y="762.708">∫</tspan></text>
    <text
       xml:space="preserve"
       style="color:#000000;font-style:normal;font-variant:normal;font-weight:normal;font-stretch:normal;font-size:42.6667px;line-height:125%;font-family:'Trebuchet MS';-inkscape-font-specification:'Trebuchet MS, Normal';font-variant-ligatures:normal;font-variant-caps:normal;font-variant-numeric:normal;font-variant-east-asian:normal;text-indent:0;text-align:start;text-decoration:none;text-decoration-line:none;letter-spacing:0px;word-spacing:0px;text-transform:none;writing-mode:lr-tb;direction:ltr;baseline-shift:baseline;text-anchor:start;display:inline;overflow:visible;visibility:visible;fill:#3465a4;fill-opacity:1;fill-rule:nonzero;stroke:none;stroke-width:0.317691px;marker:none;enable-background:accumulate"
       x="191.414"
       y="856.009"
       id="text7450"><tspan
         style="font-style:normal;font-variant:normal;font-weight:normal;font-stretch:normal;font-size:42.6667px;line-height:125%;font-family:'Trebuchet MS';-inkscape-font-specification:'Trebuchet MS, Normal';font-variant-ligatures:normal;font-variant-caps:normal;font-variant-numeric:normal;font-variant-east-asian:normal;text-align:start;writing-mode:lr-tb;text-anchor:start;fill:#3465a4;stroke:none;stroke-width:0.317691"
         sodipodi:role="line"
         id="tspan7452"
         x="191.414"
         y="856.009">∫</tspan></text>
    <text
       xml:space="preserve"
       style="color:#000000;font-style:italic;font-variant:normal;font-weight:normal;font-stretch:normal;font-size:29.3333px;line-height:125%;font-family:'Trebuchet MS';-inkscape-font-specification:'Trebuchet MS, Italic';font-variant-ligatures:normal;font-variant-caps:normal;font-variant-numeric:normal;font-variant-east-asian:normal;text-indent:0;text-align:start;text-decoration:none;text-decoration-line:none;letter-spacing:0px;word-spacing:0px;text-transform:none;writing-mode:lr-tb;direction:ltr;baseline-shift:baseline;text-anchor:start;display:inline;overflow:visible;visibility:visible;fill:#73d216;fill-opacity:1;fill-rule:nonzero;stroke:none;stroke-width:0.605px;marker:none;enable-background:accumulate"
       x="311.818"
       y="853.516"
       id="text7454"><tspan
         sodipodi:role="line"
         id="tspan7456"
         x="311.818"
         y="853.516"
         style="font-style:italic;font-variant:normal;font-weight:normal;font-stretch:normal;font-size:29.3333px;font-family:'Trebuchet MS';-inkscape-font-specification:'Trebuchet MS, Italic';font-variant-ligatures:normal;font-variant-caps:normal;font-variant-numeric:normal;font-variant-east-asian:normal;stroke-width:0.605px">du</tspan></text>
    <path
       style="color:#000000;display:inline;overflow:visible;visibility:visible;fill:#73d216;fill-opacity:1;fill-rule:nonzero;stroke:none;stroke-width:0.605px;marker:none;enable-background:accumulate"
       id="path7458"
       d="m 320.565,798.229 c 0.504,0.323 0.968,0.723 1.421,1.141 0.567,0.529 1.1,1.103 1.593,1.728 0.515,0.618 1.01,1.257 1.469,1.936 0.522,0.718 0.976,1.502 1.419,2.292 0.467,0.836 0.895,1.702 1.327,2.565 0.481,0.944 0.894,1.934 1.279,2.939 0.371,0.963 0.746,1.927 1.112,2.894 0.382,1.03 0.764,2.06 1.115,3.107 0.231,0.717 0.449,1.441 0.674,2.163 0,0 -5.909,3.183 -5.909,3.183 v 0 c -0.215,-0.692 -0.431,-1.383 -0.64,-2.077 -0.321,-0.984 -0.681,-1.949 -1.038,-2.915 -0.362,-0.965 -0.738,-1.924 -1.108,-2.884 -0.318,-0.85 -0.663,-1.685 -1.071,-2.479 -0.394,-0.791 -0.786,-1.584 -1.216,-2.348 -0.376,-0.665 -0.766,-1.319 -1.21,-1.924 -0.398,-0.563 -0.834,-1.086 -1.265,-1.613 -0.361,-0.415 -0.749,-0.798 -1.159,-1.143 -0.376,-0.294 -0.761,-0.567 -1.153,-0.833 0,0 4.36,-5.732 4.36,-5.732 z"
       inkscape:connector-curvature="0" />
    <path
       style="color:#000000;display:inline;overflow:visible;visibility:visible;fill:#73d216;fill-opacity:1;fill-rule:nonzero;stroke:none;stroke-width:0.605px;marker:none;enable-background:accumulate"
       id="path7460"
       d="m 340.943,804.109 c -0.377,0.283 -0.739,0.605 -1.092,0.937 -0.425,0.413 -0.757,0.945 -1.108,1.446 -0.398,0.646 -0.746,1.336 -1.101,2.017 -0.399,0.828 -0.801,1.657 -1.179,2.5 -0.422,0.885 -0.876,1.748 -1.266,2.654 -0.429,0.932 -0.842,1.875 -1.241,2.825 -0.395,0.907 -0.694,1.863 -0.98,2.825 -0.173,0.625 -0.314,1.26 -0.438,1.902 0,0 -6.454,0.698 -6.454,0.698 v 0 c 0.116,-0.786 0.234,-1.573 0.415,-2.343 0.261,-1.188 0.586,-2.359 0.985,-3.491 0.384,-1.052 0.812,-2.078 1.257,-3.096 0.439,-0.923 0.797,-1.9 1.278,-2.797 0.427,-0.805 0.795,-1.657 1.178,-2.491 0.361,-0.798 0.755,-1.572 1.137,-2.353 0.371,-0.759 0.81,-1.451 1.229,-2.172 0.387,-0.596 0.805,-1.153 1.273,-1.655 0,0 6.107,2.594 6.107,2.594 z"
       inkscape:connector-curvature="0" />
    <path
       style="color:#000000;display:inline;overflow:visible;visibility:visible;fill:#73d216;fill-opacity:1;fill-rule:nonzero;stroke:none;stroke-width:0.605px;marker:none;enable-background:accumulate"
       id="path7462"
       d="m 367.904,768.651 c 0.152,0.658 0.302,1.316 0.432,1.979 0.17,0.867 0.274,1.745 0.337,2.627 0.07,0.959 0.03,1.919 -0.03,2.875 -0.09,0.997 -0.263,1.978 -0.506,2.943 -0.265,1.025 -0.738,1.957 -1.298,2.833 -0.546,0.856 -1.257,1.549 -2.035,2.168 -1.924,1.483 -4.166,2.367 -6.453,2.981 -0.929,0.185 -1.865,0.33 -2.804,0.46 -0.951,0.08 -1.884,0.272 -2.827,0.412 -1.025,0.161 -2.065,0.201 -3.09,0.364 -1.081,0.11 -2.149,0.299 -3.225,0.447 -1.021,0.208 -2.046,0.39 -3.031,0.737 -0.993,0.249 -1.912,0.698 -2.856,1.082 -0.925,0.444 -1.859,0.864 -2.769,1.342 6.911,-3.353 2.866,-1.564 1.352,-0.601 -0.72,0.456 -1.358,1.01 -1.948,1.634 -0.549,0.615 -1.007,1.305 -1.417,2.028 -0.424,0.78 -0.781,1.595 -1.077,2.438 -0.316,0.907 -0.551,1.84 -0.764,2.779 -0.196,0.995 -0.331,2.002 -0.469,3.008 -0.123,1.084 -0.203,2.174 -0.289,3.262 -0.09,1.189 -0.183,2.379 -0.271,3.569 -0.04,0.604 -0.09,1.206 -0.149,1.809 0,0 -7.4,0.706 -7.4,0.706 v 0 c 0.09,-0.501 0.168,-1.005 0.183,-1.519 0.09,-1.195 0.176,-2.391 0.267,-3.587 0.09,-1.138 0.176,-2.278 0.272,-3.415 0.1,-1.129 0.275,-2.248 0.436,-3.367 0.178,-1.14 0.422,-2.27 0.748,-3.373 0.314,-1.079 0.637,-2.155 1.116,-3.169 0.453,-1.015 0.939,-2.014 1.559,-2.933 0.664,-0.996 1.382,-1.96 2.274,-2.749 2.075,-1.857 4.28,-3.078 6.924,-4.131 1.024,-0.447 2.045,-0.907 3.101,-1.266 1.085,-0.395 2.207,-0.673 3.327,-0.947 1.157,-0.218 2.317,-0.434 3.487,-0.572 1.095,-0.161 2.195,-0.274 3.291,-0.421 0.995,-0.1 1.983,-0.243 2.967,-0.413 0.917,-0.152 1.843,-0.238 2.752,-0.44 0.736,-0.163 1.481,-0.329 2.163,-0.669 0.328,-0.145 0.652,-0.293 0.965,-0.473 0.1,-0.06 0.381,-0.223 0.282,-0.174 -3.889,1.953 -4.912,2.251 -3.342,1.766 0.525,-0.171 1.066,-0.352 1.524,-0.67 0.419,-0.328 0.817,-0.687 1.088,-1.161 0.309,-0.587 0.46,-1.233 0.554,-1.893 0.123,-0.685 0.149,-1.38 0.161,-2.077 -0.03,-0.685 -0.06,-1.37 -0.19,-2.046 -0.1,-0.587 -0.227,-1.167 -0.36,-1.746 0,0 7.039,-2.437 7.039,-2.437 z"
       inkscape:connector-curvature="0" />
    <text
       id="text7484"
       y="853.629"
       x="253.983"
       style="color:#000000;font-style:italic;font-variant:normal;font-weight:normal;font-stretch:normal;font-size:29.3333px;line-height:125%;font-family:'Trebuchet MS';-inkscape-font-specification:'Trebuchet MS, Italic';font-variant-ligatures:normal;font-variant-caps:normal;font-variant-numeric:normal;font-variant-east-asian:normal;text-indent:0;text-align:start;text-decoration:none;text-decoration-line:none;letter-spacing:0px;word-spacing:0px;text-transform:none;writing-mode:lr-tb;direction:ltr;baseline-shift:baseline;text-anchor:start;display:inline;overflow:visible;visibility:visible;fill:#007ad2;fill-opacity:1;fill-rule:nonzero;stroke:none;stroke-width:0.605px;marker:none;enable-background:accumulate"
       xml:space="preserve"><tspan
         y="853.629"
         x="253.983"
         id="tspan7486"
         sodipodi:role="line"
         style="font-style:italic;font-variant:normal;font-weight:normal;font-stretch:normal;font-size:29.3333px;font-family:'Trebuchet MS';-inkscape-font-specification:'Trebuchet MS, Italic';font-variant-ligatures:normal;font-variant-caps:normal;font-variant-numeric:normal;font-variant-east-asian:normal;stroke-width:0.605px">(</tspan></text>
    <text
       xml:space="preserve"
       style="color:#000000;font-style:italic;font-variant:normal;font-weight:normal;font-stretch:normal;font-size:29.3333px;line-height:125%;font-family:'Trebuchet MS';-inkscape-font-specification:'Trebuchet MS, Italic';font-variant-ligatures:normal;font-variant-caps:normal;font-variant-numeric:normal;font-variant-east-asian:normal;text-indent:0;text-align:start;text-decoration:none;text-decoration-line:none;letter-spacing:0px;word-spacing:0px;text-transform:none;writing-mode:lr-tb;direction:ltr;baseline-shift:baseline;text-anchor:start;display:inline;overflow:visible;visibility:visible;fill:#007ad2;fill-opacity:1;fill-rule:nonzero;stroke:none;stroke-width:0.605px;marker:none;enable-background:accumulate"
       x="289.135"
       y="854.236"
       id="text7488"><tspan
         sodipodi:role="line"
         id="tspan7490"
         x="289.135"
         y="854.236"
         style="font-style:italic;font-variant:normal;font-weight:normal;font-stretch:normal;font-size:29.3333px;font-family:'Trebuchet MS';-inkscape-font-specification:'Trebuchet MS, Italic';font-variant-ligatures:normal;font-variant-caps:normal;font-variant-numeric:normal;font-variant-east-asian:normal;stroke-width:0.605px">)</tspan></text>
    <text
       xml:space="preserve"
       style="color:#000000;font-style:italic;font-variant:normal;font-weight:normal;font-stretch:normal;font-size:29.3333px;line-height:125%;font-family:'Trebuchet MS';-inkscape-font-specification:'Trebuchet MS, Italic';font-variant-ligatures:normal;font-variant-caps:normal;font-variant-numeric:normal;font-variant-east-asian:normal;text-indent:0;text-align:start;text-decoration:none;text-decoration-line:none;letter-spacing:0px;word-spacing:0px;text-transform:none;writing-mode:lr-tb;direction:ltr;baseline-shift:baseline;text-anchor:start;display:inline;overflow:visible;visibility:visible;fill:#4e9a06;fill-opacity:1;fill-rule:nonzero;stroke:none;stroke-width:0.605px;marker:none;enable-background:accumulate"
       x="268.015"
       y="853.412"
       id="text7492"><tspan
         sodipodi:role="line"
         id="tspan7494"
         x="268.015"
         y="853.412"
         style="font-style:italic;font-variant:normal;font-weight:normal;font-stretch:normal;font-size:29.3333px;font-family:'Trebuchet MS';-inkscape-font-specification:'Trebuchet MS, Italic';font-variant-ligatures:normal;font-variant-caps:normal;font-variant-numeric:normal;font-variant-east-asian:normal;stroke-width:0.605px">u</tspan></text>
    <path
       inkscape:connector-curvature="0"
       d="m 267.465,768.643 c 0.01,0.446 -0.01,0.891 -0.02,1.337 -0.02,0.576 -0.06,1.152 -0.1,1.726 -0.07,0.648 -0.124,1.296 -0.203,1.942 -0.1,0.759 -0.175,1.521 -0.235,2.283 -0.07,0.862 -0.09,1.727 -0.1,2.592 -0.01,0.911 0,1.823 0,2.734 0.01,0.964 0.06,1.925 0.09,2.888 0.04,1.045 0.113,2.09 0.18,3.135 0.07,1.061 0.148,2.123 0.23,3.184 0.08,1.072 0.173,2.143 0.267,3.214 0.09,1.188 0.229,2.373 0.405,3.553 0.203,1.253 0.447,2.502 0.692,3.748 0.244,1.227 0.526,2.445 0.845,3.656 0.316,1.226 0.688,2.439 1.089,3.643 0.266,0.785 0.531,1.569 0.811,2.35 0,0 6.045,-0.233 6.045,-0.233 v 0 c -0.3,-0.735 -0.564,-1.481 -0.807,-2.233 -0.393,-1.137 -0.787,-2.277 -1.088,-3.44 -0.316,-1.148 -0.623,-2.3 -0.852,-3.467 -0.259,-1.193 -0.465,-2.396 -0.703,-3.594 -0.179,-1.112 -0.349,-2.225 -0.426,-3.348 -0.1,-1.061 -0.187,-2.123 -0.271,-3.184 -0.09,-1.049 -0.164,-2.097 -0.235,-3.146 -0.07,-1.026 -0.134,-2.052 -0.188,-3.078 -0.04,-0.933 -0.09,-1.866 -0.11,-2.799 -0.02,-0.877 -0.03,-1.754 -0.02,-2.632 0,-0.806 0.02,-1.613 0.07,-2.418 0.04,-0.707 0.1,-1.413 0.195,-2.117 0.09,-0.694 0.161,-1.391 0.239,-2.086 0.04,-0.613 0.1,-1.223 0.122,-1.836 0.03,-0.513 0.02,-1.029 0.06,-1.543 0,0 -5.984,-0.831 -5.984,-0.831 z"
       id="path7496"
       style="color:#000000;display:inline;overflow:visible;visibility:visible;fill:#4e9a06;fill-opacity:1;fill-rule:nonzero;stroke:none;stroke-width:1.68371;marker:none;enable-background:accumulate" />
    <path
       inkscape:connector-curvature="0"
       d="m 277.581,799.563 c -0.514,0.456 -1.029,0.907 -1.493,1.407 -0.554,0.605 -1.039,1.252 -1.472,1.936 -0.443,0.724 -0.842,1.467 -1.193,2.232 -0.392,0.869 -0.675,1.774 -0.928,2.684 -0.264,0.971 -0.446,1.959 -0.608,2.948 -0.173,0.99 -0.341,1.979 -0.481,2.973 -0.165,1.102 -0.245,2.209 -0.262,3.319 0,0.898 0.02,1.794 0.07,2.691 0,0 7.686,0.909 7.686,0.909 v 0 c -0.08,-0.809 -0.09,-1.621 -0.1,-2.433 -0.01,-0.936 0,-1.87 0.149,-2.798 0.125,-0.969 0.275,-1.934 0.461,-2.894 0.125,-0.848 0.267,-1.694 0.477,-2.528 0.183,-0.697 0.383,-1.392 0.677,-2.057 0.265,-0.585 0.576,-1.148 0.919,-1.697 0.285,-0.428 0.617,-0.826 0.986,-1.196 0.355,-0.321 0.713,-0.644 1.102,-0.927 0,0 -5.978,-4.569 -5.978,-4.569 z"
       id="path7498"
       style="color:#000000;display:inline;overflow:visible;visibility:visible;fill:#4e9a06;fill-opacity:1;fill-rule:nonzero;stroke:none;stroke-width:0.605px;marker:none;enable-background:accumulate" />
    <path
       inkscape:connector-curvature="0"
       d="m 262.525,806.468 c 1.55,0.719 4.216,1.788 -2.97,-1.115 0.562,0.01 0.935,0.303 1.37,0.589 0.573,0.357 1.072,0.811 1.514,1.299 0.566,0.575 1.118,1.161 1.641,1.768 0.608,0.641 1.12,1.348 1.664,2.034 0.512,0.624 0.948,1.3 1.337,1.995 0.414,0.723 0.682,1.501 0.954,2.275 0.279,0.891 0.489,1.8 0.701,2.706 0.206,0.894 0.365,1.8 0.486,2.708 0.01,0.127 0.02,0.253 0.03,0.381 0,0 7.675,0.987 7.675,0.987 v 0 c 0,-0.192 0,-0.384 0,-0.576 -0.07,-1.084 -0.255,-2.155 -0.445,-3.227 -0.219,-0.992 -0.444,-1.984 -0.695,-2.97 -0.26,-1.005 -0.586,-2.001 -0.989,-2.965 -0.418,-0.94 -0.885,-1.859 -1.455,-2.73 -0.554,-0.793 -1.157,-1.554 -1.735,-2.333 -0.566,-0.662 -1.119,-1.332 -1.702,-1.983 -0.599,-0.593 -1.095,-1.274 -1.709,-1.857 -0.609,-0.559 -1.221,-1.12 -1.885,-1.622 -2.326,-0.952 -3.902,-1.842 -6.178,-2.193 0,0 2.395,6.829 2.395,6.829 z"
       id="path7500"
       style="color:#000000;display:inline;overflow:visible;visibility:visible;fill:#4e9a06;fill-opacity:1;fill-rule:nonzero;stroke:none;stroke-width:0.605px;marker:none;enable-background:accumulate" />
    <path
       inkscape:connector-curvature="0"
       id="path7502"
       d="m 312.9,769.815 c 4.803,0 80.703,0 80.703,0"
       style="fill:none;stroke:#73d216;stroke-width:2.904;stroke-linecap:butt;stroke-linejoin:miter;stroke-miterlimit:4;stroke-dasharray:none;stroke-opacity:1" />
    <path
       style="fill:none;stroke:#4e9a06;stroke-width:2.904;stroke-linecap:butt;stroke-linejoin:miter;stroke-miterlimit:4;stroke-dasharray:none;stroke-opacity:1"
       d="m 253.655,769.815 c 2.113,0 35.496,0 35.496,0"
       id="path7504"
       inkscape:connector-curvature="0" />
    <text
       xml:space="preserve"
       style="color:#000000;font-style:italic;font-variant:normal;font-weight:normal;font-stretch:normal;font-size:29.3333px;line-height:125%;font-family:'Trebuchet MS';-inkscape-font-specification:'Trebuchet MS, Italic';font-variant-ligatures:normal;font-variant-caps:normal;font-variant-numeric:normal;font-variant-east-asian:normal;text-indent:0;text-align:start;text-decoration:none;text-decoration-line:none;letter-spacing:0px;word-spacing:0px;text-transform:none;writing-mode:lr-tb;direction:ltr;baseline-shift:baseline;text-anchor:start;display:inline;overflow:visible;visibility:visible;fill:#007ad2;fill-opacity:1;fill-rule:nonzero;stroke:none;stroke-width:0.605px;marker:none;enable-background:accumulate"
       x="201.335"
       y="760.62"
       id="text7378-8"><tspan
         sodipodi:role="line"
         id="tspan7380-8"
         x="201.335"
         y="760.62"
         style="font-style:italic;font-variant:normal;font-weight:normal;font-stretch:normal;font-size:29.3333px;font-family:'Trebuchet MS';-inkscape-font-specification:'Trebuchet MS, Italic';font-variant-ligatures:normal;font-variant-caps:normal;font-variant-numeric:normal;font-variant-east-asian:normal;stroke-width:0.605px">cos</tspan></text>
    <text
       id="text7386-2"
       y="760.838"
       x="360.028"
       style="color:#000000;font-style:italic;font-variant:normal;font-weight:normal;font-stretch:normal;font-size:29.3333px;line-height:125%;font-family:'Trebuchet MS';-inkscape-font-specification:'Trebuchet MS, Italic';font-variant-ligatures:normal;font-variant-caps:normal;font-variant-numeric:normal;font-variant-east-asian:normal;text-indent:0;text-align:start;text-decoration:none;text-decoration-line:none;letter-spacing:0px;word-spacing:0px;text-transform:none;writing-mode:lr-tb;direction:ltr;baseline-shift:baseline;text-anchor:start;display:inline;overflow:visible;visibility:visible;fill:#73d216;fill-opacity:1;fill-rule:nonzero;stroke:none;stroke-width:0.605px;marker:none;enable-background:accumulate"
       xml:space="preserve"><tspan
         y="760.838"
         x="360.028"
         id="tspan7388-8"
         sodipodi:role="line"
         style="font-style:italic;font-variant:normal;font-weight:normal;font-stretch:normal;font-size:29.3333px;font-family:'Trebuchet MS';-inkscape-font-specification:'Trebuchet MS, Italic';font-variant-ligatures:normal;font-variant-caps:normal;font-variant-numeric:normal;font-variant-east-asian:normal;stroke-width:0.605px">dx</tspan></text>
    <text
       id="text7390-5"
       y="761.057"
       x="242.html"
       style="color:#000000;font-style:italic;font-variant:normal;font-weight:normal;font-stretch:normal;font-size:29.3333px;line-height:125%;font-family:'Trebuchet MS';-inkscape-font-specification:'Trebuchet MS, Italic';font-variant-ligatures:normal;font-variant-caps:normal;font-variant-numeric:normal;font-variant-east-asian:normal;text-indent:0;text-align:start;text-decoration:none;text-decoration-line:none;letter-spacing:0px;word-spacing:0px;text-transform:none;writing-mode:lr-tb;direction:ltr;baseline-shift:baseline;text-anchor:start;display:inline;overflow:visible;visibility:visible;fill:#007ad2;fill-opacity:1;fill-rule:nonzero;stroke:none;stroke-width:0.605px;marker:none;enable-background:accumulate"
       xml:space="preserve"><tspan
         y="761.057"
         x="242.html"
         id="tspan7392-2"
         sodipodi:role="line"
         style="font-style:italic;font-variant:normal;font-weight:normal;font-stretch:normal;font-size:29.3333px;font-family:'Trebuchet MS';-inkscape-font-specification:'Trebuchet MS, Italic';font-variant-ligatures:normal;font-variant-caps:normal;font-variant-numeric:normal;font-variant-east-asian:normal;stroke-width:0.605px">(</tspan></text>
    <text
       xml:space="preserve"
       style="color:#000000;font-style:italic;font-variant:normal;font-weight:normal;font-stretch:normal;font-size:29.3333px;line-height:125%;font-family:'Trebuchet MS';-inkscape-font-specification:'Trebuchet MS, Italic';font-variant-ligatures:normal;font-variant-caps:normal;font-variant-numeric:normal;font-variant-east-asian:normal;text-indent:0;text-align:start;text-decoration:none;text-decoration-line:none;letter-spacing:0px;word-spacing:0px;text-transform:none;writing-mode:lr-tb;direction:ltr;baseline-shift:baseline;text-anchor:start;display:inline;overflow:visible;visibility:visible;fill:#007ad2;fill-opacity:1;fill-rule:nonzero;stroke:none;stroke-width:0.605px;marker:none;enable-background:accumulate"
       x="290.393"
       y="761.662"
       id="text7394-7"><tspan
         sodipodi:role="line"
         id="tspan7396-6"
         x="290.393"
         y="761.662"
         style="font-style:italic;font-variant:normal;font-weight:normal;font-stretch:normal;font-size:29.3333px;font-family:'Trebuchet MS';-inkscape-font-specification:'Trebuchet MS, Italic';font-variant-ligatures:normal;font-variant-caps:normal;font-variant-numeric:normal;font-variant-east-asian:normal;stroke-width:0.605px">)</tspan></text>
    <text
       xml:space="preserve"
       style="color:#000000;font-style:italic;font-variant:normal;font-weight:normal;font-stretch:normal;font-size:29.3333px;line-height:125%;font-family:'Trebuchet MS';-inkscape-font-specification:'Trebuchet MS, Italic';font-variant-ligatures:normal;font-variant-caps:normal;font-variant-numeric:normal;font-variant-east-asian:normal;text-indent:0;text-align:start;text-decoration:none;text-decoration-line:none;letter-spacing:0px;word-spacing:0px;text-transform:none;writing-mode:lr-tb;direction:ltr;baseline-shift:baseline;text-anchor:start;display:inline;overflow:visible;visibility:visible;fill:#4e9a06;fill-opacity:1;fill-rule:nonzero;stroke:none;stroke-width:0.605px;marker:none;enable-background:accumulate"
       x="258.78"
       y="760.838"
       id="text7398-7"><tspan
         sodipodi:role="line"
         id="tspan7400-3"
         x="258.78"
         y="760.838"
         style="font-style:italic;font-variant:normal;font-weight:normal;font-stretch:normal;font-size:29.3333px;font-family:'Trebuchet MS';-inkscape-font-specification:'Trebuchet MS, Italic';font-variant-ligatures:normal;font-variant-caps:normal;font-variant-numeric:normal;font-variant-east-asian:normal;stroke-width:0.605px">x</tspan></text>
    <text
       id="text7402-3"
       y="760.838"
       x="316.468"
       style="color:#000000;font-style:italic;font-variant:normal;font-weight:normal;font-stretch:normal;font-size:29.3333px;line-height:125%;font-family:'Trebuchet MS';-inkscape-font-specification:'Trebuchet MS, Italic';font-variant-ligatures:normal;font-variant-caps:normal;font-variant-numeric:normal;font-variant-east-asian:normal;text-indent:0;text-align:start;text-decoration:none;text-decoration-line:none;letter-spacing:0px;word-spacing:0px;text-transform:none;writing-mode:lr-tb;direction:ltr;baseline-shift:baseline;text-anchor:start;display:inline;overflow:visible;visibility:visible;fill:#73d216;fill-opacity:1;fill-rule:nonzero;stroke:none;stroke-width:0.605px;marker:none;enable-background:accumulate"
       xml:space="preserve"><tspan
         y="760.838"
         x="316.468"
         id="tspan7404-5"
         sodipodi:role="line"
         style="font-style:italic;font-variant:normal;font-weight:normal;font-stretch:normal;font-size:29.3333px;font-family:'Trebuchet MS';-inkscape-font-specification:'Trebuchet MS, Italic';font-variant-ligatures:normal;font-variant-caps:normal;font-variant-numeric:normal;font-variant-east-asian:normal;stroke-width:0.605px">2x</tspan></text>
    <text
       id="text7420-6"
       y="752.148"
       x="273.52"
       style="color:#000000;font-style:italic;font-variant:normal;font-weight:normal;font-stretch:normal;font-size:21.3333px;line-height:125%;font-family:'Trebuchet MS';-inkscape-font-specification:'Trebuchet MS, Italic';font-variant-ligatures:normal;font-variant-caps:normal;font-variant-numeric:normal;font-variant-east-asian:normal;text-indent:0;text-align:start;text-decoration:none;text-decoration-line:none;letter-spacing:0px;word-spacing:0px;text-transform:none;writing-mode:lr-tb;direction:ltr;baseline-shift:baseline;text-anchor:start;display:inline;overflow:visible;visibility:visible;fill:#4e9a06;fill-opacity:1;fill-rule:nonzero;stroke:none;stroke-width:0.605px;marker:none;enable-background:accumulate"
       xml:space="preserve"><tspan
         y="752.148"
         x="273.52"
         id="tspan7422-9"
         sodipodi:role="line"
         style="font-style:italic;font-variant:normal;font-weight:normal;font-stretch:normal;font-size:21.3333px;font-family:'Trebuchet MS';-inkscape-font-specification:'Trebuchet MS, Italic';font-variant-ligatures:normal;font-variant-caps:normal;font-variant-numeric:normal;font-variant-east-asian:normal;stroke-width:0.605px">2</tspan></text>
    <text
       xml:space="preserve"
       style="color:#000000;font-style:italic;font-variant:normal;font-weight:normal;font-stretch:normal;font-size:29.3333px;line-height:125%;font-family:'Trebuchet MS';-inkscape-font-specification:'Trebuchet MS, Italic';font-variant-ligatures:normal;font-variant-caps:normal;font-variant-numeric:normal;font-variant-east-asian:normal;text-indent:0;text-align:start;text-decoration:none;text-decoration-line:none;letter-spacing:0px;word-spacing:0px;text-transform:none;writing-mode:lr-tb;direction:ltr;baseline-shift:baseline;text-anchor:start;display:inline;overflow:visible;visibility:visible;fill:#007ad2;fill-opacity:1;fill-rule:nonzero;stroke:none;stroke-width:0.605px;marker:none;enable-background:accumulate"
       x="212.904"
       y="853.525"
       id="text7378-8-6"><tspan
         sodipodi:role="line"
         id="tspan7380-8-1"
         x="212.904"
         y="853.525"
         style="font-style:italic;font-variant:normal;font-weight:normal;font-stretch:normal;font-size:29.3333px;font-family:'Trebuchet MS';-inkscape-font-specification:'Trebuchet MS, Italic';font-variant-ligatures:normal;font-variant-caps:normal;font-variant-numeric:normal;font-variant-east-asian:normal;stroke-width:0.605px">cos</tspan></text>
    <path
       style="color:#000000;display:inline;overflow:visible;visibility:visible;fill:#000000;fill-opacity:0.768293;fill-rule:nonzero;stroke:none;stroke-width:1.88214;marker:none;enable-background:accumulate"
       id="path6498-9"
       cx="928.548"
       cy="762.346"
       r="2.21507"
       d="" />
  </g>
</svg>
