<?xml version="1.0" encoding="UTF-8" standalone="no"?>
<svg
   xmlns:dc="http://purl.org/dc/elements/1.1/"
   xmlns:cc="http://creativecommons.org/ns#"
   xmlns:rdf="http://www.w3.org/1999/02/22-rdf-syntax-ns#"
   xmlns:svg="http://www.w3.org/2000/svg"
   xmlns="http://www.w3.org/2000/svg"
   xmlns:sodipodi="http://sodipodi.sourceforge.net/DTD/sodipodi-0.dtd"
   xmlns:inkscape="http://www.inkscape.org/namespaces/inkscape"
   width="147.386"
   height="118.966"
   id="svg9648"
   version="1.1"
   inkscape:version="1.0.1 (3bc2e813f5, 2020-09-07)"
   sodipodi:docname="integral-def-9.svg">
  <sodipodi:namedview
     id="base"
     pagecolor="#ffffff"
     bordercolor="#666666"
     borderopacity="1.0"
     inkscape:pageopacity="0.0"
     inkscape:pageshadow="2"
     inkscape:zoom="0.148992"
     inkscape:cx="836.109"
     inkscape:cy="2506.85"
     inkscape:document-units="px"
     inkscape:current-layer="layer1"
     showgrid="false"
     inkscape:window-width="1536"
     inkscape:window-height="801"
     inkscape:window-x="1528"
     inkscape:window-y="-8"
     inkscape:window-maximized="1"
     showborder="true"
     inkscape:document-rotation="0" />
  <defs
     id="defs9650">
    <marker
       style="overflow:visible"
       id="Arrow2LendJ"
       refX="0"
       refY="0"
       orient="auto"
       inkscape:stockid="Arrow2LendJ">
      <path
         transform="matrix(-1.1,0,0,-1.1,-1.1,0)"
         d="M 8.71859,4.03374 -2.20729,0.016013 8.71859,-4.00171 c -1.7455,2.37206 -1.73544,5.61745 0,8.03545 z"
         style="font-size:12px;fill:#ff0000;fill-rule:evenodd;stroke:#ff0000;stroke-width:0.625;stroke-linejoin:round"
         id="path6869"
         inkscape:connector-curvature="0" />
    </marker>
    <marker
       style="overflow:visible"
       id="Arrow2Lend5"
       refX="0"
       refY="0"
       orient="auto"
       inkscape:stockid="Arrow2Lend5">
      <path
         transform="matrix(-1.1,0,0,-1.1,-1.1,0)"
         d="M 8.71859,4.03374 -2.20729,0.016013 8.71859,-4.00171 c -1.7455,2.37206 -1.73544,5.61745 0,8.03545 z"
         style="font-size:12px;fill:#0000ff;fill-rule:evenodd;stroke:#0000ff;stroke-width:0.625;stroke-linejoin:round"
         id="path6772"
         inkscape:connector-curvature="0" />
    </marker>
  </defs>
  <metadata
     id="metadata9653">
    <rdf:RDF>
      <cc:Work
         rdf:about="">
        <dc:format>image/svg+xml</dc:format>
        <dc:type
           rdf:resource="http://purl.org/dc/dcmitype/StillImage" />
        <dc:title />
      </cc:Work>
    </rdf:RDF>
  </metadata>
  <g
     transform="translate(75.9456,-2073.41)"
     id="layer1"
     inkscape:groupmode="layer"
     inkscape:label="Layer 1">
    <rect
       style="color:#000000;clip-rule:nonzero;display:inline;overflow:visible;visibility:visible;opacity:1;isolation:auto;color-interpolation:sRGB;color-interpolation-filters:linearRGB;solid-color:#000000;solid-opacity:1;vector-effect:none;fill:#ffffff;fill-opacity:1;fill-rule:nonzero;stroke:none;stroke-width:1.9588;stroke-linecap:butt;stroke-linejoin:miter;stroke-miterlimit:4;stroke-dasharray:none;stroke-dashoffset:0;stroke-opacity:1;marker:none;marker-start:none;marker-mid:none;marker-end:none;color-rendering:auto;image-rendering:auto;shape-rendering:auto;text-rendering:auto;enable-background:accumulate"
       id="rect4049"
       width="147.386"
       height="118.966"
       x="-75.9456"
       y="2073.41" />
    <g
       id="g3976"
       transform="matrix(0.703723,0,0,0.703723,-1930.5,691.154)">
      <g
         transform="translate(618,-6)"
         id="g3978">
        <path
           style="fill:none;stroke:#e5e6e8;stroke-width:1.20119;stroke-linecap:butt;stroke-linejoin:miter;stroke-miterlimit:4;stroke-dasharray:9.60955, 1.20118999999999998;stroke-dashoffset:0;stroke-opacity:1"
           d="m 1832.63,1948.88 h 526.74"
           id="path3980"
           inkscape:connector-curvature="0" />
        <path
           style="fill:none;stroke:#e5e6e8;stroke-width:1.20119;stroke-linecap:butt;stroke-linejoin:miter;stroke-miterlimit:4;stroke-dasharray:9.60955, 1.20118999999999998;stroke-dashoffset:0;stroke-opacity:1"
           d="m 1832.63,1882.74 h 526.74"
           id="path3982"
           inkscape:connector-curvature="0" />
        <path
           style="fill:none;stroke:#e5e6e8;stroke-width:1.20119;stroke-linecap:butt;stroke-linejoin:miter;stroke-miterlimit:4;stroke-dasharray:9.60955, 1.20118999999999998;stroke-dashoffset:0;stroke-opacity:1"
           d="m 1832.63,1816.59 h 526.74"
           id="path3984"
           inkscape:connector-curvature="0" />
        <path
           style="fill:none;stroke:#e5e6e8;stroke-width:1.20119;stroke-linecap:butt;stroke-linejoin:miter;stroke-miterlimit:4;stroke-dasharray:9.60955, 1.20118999999999998;stroke-dashoffset:0;stroke-opacity:1"
           d="m 1832.63,1750.44 h 526.74"
           id="path3986"
           inkscape:connector-curvature="0" />
        <path
           style="fill:none;stroke:#e5e6e8;stroke-width:1.20119;stroke-linecap:butt;stroke-linejoin:miter;stroke-miterlimit:4;stroke-dasharray:9.60955, 1.20118999999999998;stroke-dashoffset:0;stroke-opacity:1"
           d="m 1832.63,2279.62 h 526.74"
           id="path3988"
           inkscape:connector-curvature="0" />
        <path
           style="fill:none;stroke:#e5e6e8;stroke-width:1.20119;stroke-linecap:butt;stroke-linejoin:miter;stroke-miterlimit:4;stroke-dasharray:9.60955, 1.20118999999999998;stroke-dashoffset:0;stroke-opacity:1"
           d="m 1832.63,2147.33 h 526.74"
           id="path3990"
           inkscape:connector-curvature="0" />
        <path
           style="fill:none;stroke:#e5e6e8;stroke-width:1.20119;stroke-linecap:butt;stroke-linejoin:miter;stroke-miterlimit:4;stroke-dasharray:9.60955, 1.20118999999999998;stroke-dashoffset:0;stroke-opacity:1"
           d="m 1832.63,2081.18 h 526.74"
           id="path3992"
           inkscape:connector-curvature="0" />
        <path
           style="fill:none;stroke:#e5e6e8;stroke-width:1.20119;stroke-linecap:butt;stroke-linejoin:miter;stroke-miterlimit:4;stroke-dasharray:9.60955, 1.20118999999999998;stroke-dashoffset:0;stroke-opacity:1"
           d="m 1832.63,2015.03 h 526.74"
           id="path3994"
           inkscape:connector-curvature="0" />
        <path
           style="fill:none;stroke:#e5e6e8;stroke-width:1.20119;stroke-linecap:butt;stroke-linejoin:miter;stroke-miterlimit:4;stroke-dasharray:9.60955, 1.20118999999999998;stroke-dashoffset:0;stroke-opacity:1"
           d="m 1832.63,2213.47 h 526.74"
           id="path3996"
           inkscape:connector-curvature="0" />
        <path
           style="fill:none;stroke:#e5e6e8;stroke-width:1.20119;stroke-linecap:butt;stroke-linejoin:miter;stroke-miterlimit:4;stroke-dasharray:9.60955, 1.20118999999999998;stroke-dashoffset:0;stroke-opacity:1"
           d="m 1832.63,1981.96 h 526.74"
           id="path3998"
           inkscape:connector-curvature="0" />
        <path
           style="fill:none;stroke:#e5e6e8;stroke-width:1.20119;stroke-linecap:butt;stroke-linejoin:miter;stroke-miterlimit:4;stroke-dasharray:9.60955, 1.20118999999999998;stroke-dashoffset:0;stroke-opacity:1"
           d="m 1832.63,1915.81 h 526.74"
           id="path4000"
           inkscape:connector-curvature="0" />
        <path
           style="fill:none;stroke:#e5e6e8;stroke-width:1.20119;stroke-linecap:butt;stroke-linejoin:miter;stroke-miterlimit:4;stroke-dasharray:9.60955, 1.20118999999999998;stroke-dashoffset:0;stroke-opacity:1"
           d="m 1832.63,1849.66 h 526.74"
           id="path4002"
           inkscape:connector-curvature="0" />
        <path
           style="fill:none;stroke:#e5e6e8;stroke-width:1.20119;stroke-linecap:butt;stroke-linejoin:miter;stroke-miterlimit:4;stroke-dasharray:9.60955, 1.20118999999999998;stroke-dashoffset:0;stroke-opacity:1"
           d="m 1832.63,1783.52 h 526.74"
           id="path4004"
           inkscape:connector-curvature="0" />
        <path
           style="fill:none;stroke:#e5e6e8;stroke-width:1.20119;stroke-linecap:butt;stroke-linejoin:miter;stroke-miterlimit:4;stroke-dasharray:9.60955, 1.20118999999999998;stroke-dashoffset:0;stroke-opacity:1"
           d="m 1832.63,2180.4 h 526.74"
           id="path4006"
           inkscape:connector-curvature="0" />
        <path
           style="fill:none;stroke:#e5e6e8;stroke-width:1.20119;stroke-linecap:butt;stroke-linejoin:miter;stroke-miterlimit:4;stroke-dasharray:9.60955, 1.20118999999999998;stroke-dashoffset:0;stroke-opacity:1"
           d="m 1832.63,2114.25 h 526.74"
           id="path4008"
           inkscape:connector-curvature="0" />
        <path
           style="fill:none;stroke:#e5e6e8;stroke-width:1.20119;stroke-linecap:butt;stroke-linejoin:miter;stroke-miterlimit:4;stroke-dasharray:9.60955, 1.20118999999999998;stroke-dashoffset:0;stroke-opacity:1"
           d="m 1832.63,2048.11 h 526.74"
           id="path4010"
           inkscape:connector-curvature="0" />
        <path
           style="fill:none;stroke:#e5e6e8;stroke-width:1.20119;stroke-linecap:butt;stroke-linejoin:miter;stroke-miterlimit:4;stroke-dasharray:9.60955, 1.20118999999999998;stroke-dashoffset:0;stroke-opacity:1"
           d="m 1832.63,2246.55 h 526.74"
           id="path4012"
           inkscape:connector-curvature="0" />
      </g>
      <g
         id="g4014">
        <path
           style="fill:none;stroke:#e5e6e8;stroke-width:1.20119;stroke-linecap:butt;stroke-linejoin:miter;stroke-miterlimit:4;stroke-dasharray:9.60955, 1.20118999999999998;stroke-dashoffset:0;stroke-opacity:1"
           d="M 2647.85,2272.4 V 1745.66"
           id="path4016"
           inkscape:connector-curvature="0" />
        <path
           style="fill:none;stroke:#e5e6e8;stroke-width:1.20119;stroke-linecap:butt;stroke-linejoin:miter;stroke-miterlimit:4;stroke-dasharray:9.60955, 1.20118999999999998;stroke-dashoffset:0;stroke-opacity:1"
           d="M 2581.71,2272.4 V 1745.66"
           id="path4018"
           inkscape:connector-curvature="0" />
        <path
           style="fill:none;stroke:#e5e6e8;stroke-width:1.20119;stroke-linecap:butt;stroke-linejoin:miter;stroke-miterlimit:4;stroke-dasharray:9.60955, 1.20118999999999998;stroke-dashoffset:0;stroke-opacity:1"
           d="M 2515.56,2272.4 V 1745.66"
           id="path4020"
           inkscape:connector-curvature="0" />
        <path
           style="fill:none;stroke:#e5e6e8;stroke-width:1.20119;stroke-linecap:butt;stroke-linejoin:miter;stroke-miterlimit:4;stroke-dasharray:9.60955, 1.20118999999999998;stroke-dashoffset:0;stroke-opacity:1"
           d="M 2449.41,2272.4 V 1745.66"
           id="path4022"
           inkscape:connector-curvature="0" />
        <path
           style="fill:none;stroke:#e5e6e8;stroke-width:1.20119;stroke-linecap:butt;stroke-linejoin:miter;stroke-miterlimit:4;stroke-dasharray:9.60955, 1.20118999999999998;stroke-dashoffset:0;stroke-opacity:1"
           d="M 2978.59,2272.4 V 1745.66"
           id="path4024"
           inkscape:connector-curvature="0" />
        <path
           style="fill:none;stroke:#e5e6e8;stroke-width:1.20119;stroke-linecap:butt;stroke-linejoin:miter;stroke-miterlimit:4;stroke-dasharray:9.60955, 1.20118999999999998;stroke-dashoffset:0;stroke-opacity:1"
           d="M 2846.29,2272.4 V 1745.66"
           id="path4026"
           inkscape:connector-curvature="0" />
        <path
           style="fill:none;stroke:#e5e6e8;stroke-width:1.20119;stroke-linecap:butt;stroke-linejoin:miter;stroke-miterlimit:4;stroke-dasharray:9.60955, 1.20118999999999998;stroke-dashoffset:0;stroke-opacity:1"
           d="M 2780.15,2272.4 V 1745.66"
           id="path4028"
           inkscape:connector-curvature="0" />
        <path
           style="fill:none;stroke:#e5e6e8;stroke-width:1.20119;stroke-linecap:butt;stroke-linejoin:miter;stroke-miterlimit:4;stroke-dasharray:9.60955, 1.20118999999999998;stroke-dashoffset:0;stroke-opacity:1"
           d="M 2714,2272.4 V 1745.66"
           id="path4030"
           inkscape:connector-curvature="0" />
        <path
           style="fill:none;stroke:#e5e6e8;stroke-width:1.20119;stroke-linecap:butt;stroke-linejoin:miter;stroke-miterlimit:4;stroke-dasharray:9.60955, 1.20118999999999998;stroke-dashoffset:0;stroke-opacity:1"
           d="M 2912.44,2272.4 V 1745.66"
           id="path4032"
           inkscape:connector-curvature="0" />
        <path
           style="fill:none;stroke:#e5e6e8;stroke-width:1.20119;stroke-linecap:butt;stroke-linejoin:miter;stroke-miterlimit:4;stroke-dasharray:9.60955, 1.20118999999999998;stroke-dashoffset:0;stroke-opacity:1"
           d="M 2680.93,2272.4 V 1745.66"
           id="path4034"
           inkscape:connector-curvature="0" />
        <path
           style="fill:none;stroke:#e5e6e8;stroke-width:1.20119;stroke-linecap:butt;stroke-linejoin:miter;stroke-miterlimit:4;stroke-dasharray:9.60955, 1.20118999999999998;stroke-dashoffset:0;stroke-opacity:1"
           d="M 2614.78,2272.4 V 1745.66"
           id="path4036"
           inkscape:connector-curvature="0" />
        <path
           style="fill:none;stroke:#e5e6e8;stroke-width:1.20119;stroke-linecap:butt;stroke-linejoin:miter;stroke-miterlimit:4;stroke-dasharray:9.60955, 1.20118999999999998;stroke-dashoffset:0;stroke-opacity:1"
           d="M 2548.63,2272.4 V 1745.66"
           id="path4038"
           inkscape:connector-curvature="0" />
        <path
           style="fill:none;stroke:#e5e6e8;stroke-width:1.20119;stroke-linecap:butt;stroke-linejoin:miter;stroke-miterlimit:4;stroke-dasharray:9.60955, 1.20118999999999998;stroke-dashoffset:0;stroke-opacity:1"
           d="M 2482.49,2272.4 V 1745.66"
           id="path4040"
           inkscape:connector-curvature="0" />
        <path
           style="fill:none;stroke:#e5e6e8;stroke-width:1.20119;stroke-linecap:butt;stroke-linejoin:miter;stroke-miterlimit:4;stroke-dasharray:9.60955, 1.20118999999999998;stroke-dashoffset:0;stroke-opacity:1"
           d="M 2879.37,2272.4 V 1745.66"
           id="path4042"
           inkscape:connector-curvature="0" />
        <path
           style="fill:none;stroke:#e5e6e8;stroke-width:1.20119;stroke-linecap:butt;stroke-linejoin:miter;stroke-miterlimit:4;stroke-dasharray:9.60955, 1.20118999999999998;stroke-dashoffset:0;stroke-opacity:1"
           d="M 2813.22,2272.4 V 1745.66"
           id="path4044"
           inkscape:connector-curvature="0" />
        <path
           style="fill:none;stroke:#e5e6e8;stroke-width:1.20119;stroke-linecap:butt;stroke-linejoin:miter;stroke-miterlimit:4;stroke-dasharray:9.60955, 1.20118999999999998;stroke-dashoffset:0;stroke-opacity:1"
           d="M 2747.07,2272.4 V 1745.66"
           id="path4046"
           inkscape:connector-curvature="0" />
        <path
           style="fill:none;stroke:#e5e6e8;stroke-width:1.20119;stroke-linecap:butt;stroke-linejoin:miter;stroke-miterlimit:4;stroke-dasharray:9.60955, 1.20118999999999998;stroke-dashoffset:0;stroke-opacity:1"
           d="M 2945.52,2272.4 V 1745.66"
           id="path4048"
           inkscape:connector-curvature="0" />
      </g>
    </g>
    <path
       style="fill:none;stroke:#0000ff;stroke-width:0.816;stroke-miterlimit:4;stroke-dasharray:none"
       d="m -91.9028,2190.91 1.536,-0.78 1.536,-0.82 1.536,-0.88 1.536,-0.92 1.536,-0.95 1.536,-1 1.536,-1.03 1.536,-1.08 1.536,-1.1 1.536,-1.16 1.536,-1.16 1.536,-1.21 1.536,-1.25 1.536,-1.26 1.536,-1.31 1.536,-1.32 1.536,-1.34 1.536,-1.37 1.536,-1.4 1.536,-1.41 1.536,-1.45 1.536,-1.44 1.536,-1.48 1.536,-1.47 1.536,-1.5 1.536,-1.51 1.536,-1.5 1.536,-1.54 1.536,-1.52 1.536,-1.54 1.536,-1.54 1.536,-1.53 1.536,-1.54 1.536,-1.53 1.536,-1.53 1.536,-1.51 1.536,-1.52 1.536,-1.52 1.536,-1.48 1.536,-1.47 1.536,-1.49 1.536,-1.44 1.536,-1.42 1.536,-1.41 1.5357,-1.4 1.536,-1.37 1.536,-1.33 1.536,-1.32 1.536,-1.3 1.536,-1.27 1.536,-1.22 1.536,-1.2 1.536,-1.18 1.53599,-1.13 1.536,-1.1 1.536,-1.07 1.536,-1.03 1.536,-1 1.536,-0.93 1.535998,-0.92 1.536002,-0.86 1.53602,-0.82 1.536,-0.79 1.536,-0.73 1.536,-0.68 1.536,-0.65 1.53599,-0.59 1.536,-0.55 1.536,-0.51 1.536,-0.44 1.536,-0.41 1.536,-0.35 1.536,-0.31 1.536,-0.24 1.536,-0.2 1.536,-0.16 1.536,-0.12 h 1.536 1.536 1.536 l 1.536,0.12 1.536,0.15 1.536,0.21 1.536,0.27 1.536,0.31 1.536,0.35 1.536,0.42 1.536,0.45 1.536,0.51 1.536,0.55 1.536,0.6 1.536,0.65 1.536,0.7 1.536,0.74 1.536,0.79 1.536,0.83 1.536,0.87 1.536,0.9 1.536,0.95 1.536,1.01 1.536,1.03 1.536,1.07 1.536,1.1 1.536,1.14 1.536,1.18 1.536,1.2 1.536,1.25 1.5363,1.26 1.536,1.3 1.536,1.32 1.536,1.34 1.536,1.38 1.536,1.4 1.536,1.42 1.536,1.42 1.536,1.46 1.536,1.46 1.536,1.49 1.536,1.49 1.536,1.51 1.536,1.51 1.536,1.52 1.536,1.53 1.536,1.53 1.5358,1.54 1.536,1.54 1.536,1.53 1.536,1.54 1.536,1.52 1.536,1.51 1.536,1.53 1.537,1.5 1.536,1.49 1.536,1.48 1.536,1.47 1.536,1.45 1.536,1.44 1.536,1.42 1.536,1.38 1.536,1.36 1.536,1.35 1.536,1.32 1.536,1.29 1.536,1.28 1.536,1.23 1.536,1.21 1.536,1.17 1.536,1.14 1.536,1.1 1.536,1.06 1.536,1.03 1.536,1 1.536,0.96 1.536,0.9 1.536,0.86 1.536,0.83 1.536,0.78 1.536,0.74 1.536,0.69 1.536,0.64 1.536,0.6 1.536,0.56 1.536,0.5 1.536,0.44 1.536,0.42 1.536,0.35 1.536,0.31 1.536,0.24 1.536,0.22 1.536,0.16 1.536,0.12 h 1.536 1.536 1.536 l 1.536,-0.12 1.536,-0.17 1.536,-0.21 1.536,-0.25 1.536,-0.3 1.536,-0.36 1.536,-0.41 1.536,-0.45 1.536,-0.51 1.536,-0.54 1.536,-0.61 1.536,-0.65 1.536,-0.69 1.536,-0.73 1.536,-0.78 1.536,-0.84 1.536,-0.86 1.536,-0.91 1.536,-0.95 1.536,-0.99 1.536,-1.03 1.536,-1.07 1.536,-1.11 1.536,-1.15 1.536,-1.16 1.536,-1.19 1.536,-1.25 1.536,-1.26 1.536,-1.31 1.536,-1.32 1.536,-1.34 1.536,-1.36 1.536,-1.4 1.536,-1.42 1.536,-1.42 1.536,-1.46 1.536,-1.46 1.536,-1.49 1.536,-1.49 1.536,-1.51 1.536,-1.51 1.536,-1.52 1.536,-1.53 1.536,-1.53 1.536,-1.54 1.536,-1.54 1.536,-1.53 1.536,-1.54 1.536,-1.51 1.536,-1.52 1.536,-1.53 1.536,-1.5 1.536,-1.5 1.536,-1.49 1.536,-1.45 1.536,-1.46 1.536,-1.43 1.536,-1.42 1.536,-1.39 1.536,-1.37 1.536,-1.35 1.536,-1.32 1.536,-1.29 1.536,-1.27 1.536,-1.23 1.536,-1.22 1.536,-1.16 1.536,-1.15 1.536,-1.12 1.536,-1.05 1.536,-1.04 1.536,-0.99 1.536,-0.95 1.536,-0.91 1.536,-0.88 1.536,-0.83 1.536,-0.78 1.536,-0.73 1.536,-0.71 1.536,-0.64 1.536,-0.6 1.536,-0.56 1.536,-0.5 1.536,-0.47 1.536,-0.39 1.536,-0.38 1.536,-0.3 1.536,-0.25 1.536,-0.21 1.536,-0.15 1.536,-0.12 h 1.536 1.536 1.536 l 1.536,0.12 1.536,0.16 1.536,0.2 1.536,0.24 1.536,0.31 1.536,0.35 1.536,0.4 1.536,0.47 1.536,0.5 1.536,0.54 1.536,0.6 1.536,0.65 1.536,0.68 1.536,0.73 1.536,0.8 1.536,0.81 1.536,0.88 1.536,0.9 1.536,0.96 1.536,0.98 1.536,1.02 1.536,1.07 1.536,1.1 1.536,1.13 1.536,1.18 1.536,1.21 1.536,1.22 1.536,1.26 1.536,1.3 1.536,1.32 1.536,1.34 1.536,1.37 1.536,1.41 1.536,1.4 1.536,1.44 1.536,1.44 1.536,1.48 1.536,1.47 1.536,1.49 1.536,1.5 1.536,1.52 1.536,1.53 1.536,1.52 1.536,1.54 1.536,1.53 1.536,1.54 1.536,1.54 1.536,1.53 1.536,1.51 1.536,1.53 1.536,1.52 1.536,1.5 1.536,1.49 1.536,1.49 1.536,1.47 1.536,1.44 1.536,1.44 1.536,1.43 1.536,1.39 1.536,1.37 1.536,1.36 1.536,1.32 1.536,1.28 1.536,1.29"
       id="path4052"
       inkscape:connector-curvature="0"
       sodipodi:nodetypes="ccccccccccccccccccccccccccccccccccccccccccccccccccccccccccccccccccccccccccccccccccccccccccccccccccccccccccccccccccccccccccccccccccccccccccccccccccccccccccccccccccccccccccccccccccccccccccccccccccccccccccccccccccccccccccccccccccccccccccccccccccccccccccccccccccccccccccccccccccccccccccccccccccccccccccccccccccccccccccccccccccccccccccccc" />
    <path
       style="fill:none;stroke:#0000ff;stroke-width:1.26797;stroke-linecap:butt;stroke-linejoin:miter;stroke-miterlimit:4;stroke-dasharray:none;stroke-dashoffset:0;stroke-opacity:1;marker-end:url(#Arrow2Lend5)"
       d="M -161.399,2151.25 H 77.8175"
       id="path4054"
       inkscape:connector-curvature="0" />
    <text
       id="text4056"
       y="2142.22"
       x="57.1651"
       style="font-style:normal;font-variant:normal;font-weight:normal;font-stretch:normal;font-size:19.2px;line-height:125%;font-family:'Trebuchet MS';-inkscape-font-specification:'Trebuchet MS';text-indent:0;text-align:start;text-decoration:none;text-decoration-line:none;letter-spacing:normal;word-spacing:normal;text-transform:none;writing-mode:lr-tb;direction:ltr;text-anchor:start;display:inline;overflow:visible;visibility:visible;fill:#0000ff;fill-opacity:1;fill-rule:nonzero;stroke:none;stroke-width:1.44;marker:none;enable-background:accumulate"
       xml:space="preserve"><tspan
         y="2142.22"
         x="57.1651"
         id="tspan4058"
         sodipodi:role="line"
         style="stroke-width:1.44">x</tspan></text>
    <path
       style="fill:none;stroke:#ff0000;stroke-width:1.26797;stroke-linecap:butt;stroke-linejoin:miter;stroke-miterlimit:4;stroke-dasharray:none;stroke-dashoffset:0;stroke-opacity:1;marker-end:url(#Arrow2LendJ)"
       d="M -43.9024,2363.02 V 2088.19"
       id="path4060"
       inkscape:connector-curvature="0" />
    <text
       id="text4062"
       y="2100.28"
       x="-36.1019"
       style="font-style:normal;font-variant:normal;font-weight:normal;font-stretch:normal;font-size:19.2px;line-height:125%;font-family:'Trebuchet MS';-inkscape-font-specification:'Trebuchet MS';text-indent:0;text-align:start;text-decoration:none;text-decoration-line:none;letter-spacing:normal;word-spacing:normal;text-transform:none;writing-mode:lr-tb;direction:ltr;text-anchor:start;display:inline;overflow:visible;visibility:visible;fill:#ff0000;fill-opacity:1;fill-rule:nonzero;stroke:none;stroke-width:1.44;marker:none;enable-background:accumulate"
       xml:space="preserve"><tspan
         y="2100.28"
         x="-36.1019"
         id="tspan4064"
         sodipodi:role="line"
         style="stroke-width:1.44">y</tspan></text>
    <text
       id="text4066"
       y="2165.07"
       x="2.54723"
       style="color:#000000;font-style:normal;font-variant:normal;font-weight:normal;font-stretch:normal;font-size:13.44px;line-height:125%;font-family:'Trebuchet MS';-inkscape-font-specification:'Trebuchet MS';text-indent:0;text-align:start;text-decoration:none;text-decoration-line:none;letter-spacing:0px;word-spacing:0px;text-transform:none;writing-mode:lr-tb;direction:ltr;baseline-shift:baseline;text-anchor:start;display:inline;overflow:visible;visibility:visible;fill:#000000;fill-opacity:1;fill-rule:nonzero;stroke:none;stroke-width:0.48px;marker:none;enable-background:accumulate"
       xml:space="preserve"><tspan
         y="2165.07"
         x="2.54723"
         id="tspan4068"
         sodipodi:role="line"
         style="stroke-width:0.48px">1</tspan></text>
    <text
       id="text4070"
       y="2164.56"
       x="-47.0848"
       style="color:#000000;font-style:normal;font-variant:normal;font-weight:normal;font-stretch:normal;font-size:13.44px;line-height:125%;font-family:'Trebuchet MS';-inkscape-font-specification:'Trebuchet MS';text-indent:0;text-align:start;text-decoration:none;text-decoration-line:none;letter-spacing:0px;word-spacing:0px;text-transform:none;writing-mode:lr-tb;direction:ltr;baseline-shift:baseline;text-anchor:start;display:inline;overflow:visible;visibility:visible;fill:#000000;fill-opacity:1;fill-rule:nonzero;stroke:none;stroke-width:0.48px;marker:none;enable-background:accumulate"
       xml:space="preserve"><tspan
         y="2164.56"
         x="-47.0848"
         id="tspan4072"
         sodipodi:role="line"
         style="stroke-width:0.48px">0</tspan></text>
    <text
       xml:space="preserve"
       style="font-style:normal;font-variant:normal;font-weight:normal;font-stretch:normal;font-size:13.44px;line-height:125%;font-family:'Trebuchet MS';-inkscape-font-specification:'Trebuchet MS';text-indent:0;text-align:start;text-decoration:none;text-decoration-line:none;letter-spacing:normal;word-spacing:normal;text-transform:none;writing-mode:lr-tb;direction:ltr;text-anchor:start;display:inline;overflow:visible;visibility:visible;fill:#0000ff;fill-opacity:1;fill-rule:nonzero;stroke:none;stroke-width:1.44;marker:none;enable-background:accumulate"
       x="9.61187"
       y="2099.8"
       id="text4076"><tspan
         sodipodi:role="line"
         id="tspan4078"
         x="9.61187"
         y="2099.8"
         style="stroke-width:1.44">y=sin(x)</tspan></text>
    <path
       style="color:#000000;display:inline;overflow:visible;visibility:visible;fill:#19aeff;fill-opacity:1;fill-rule:nonzero;stroke:#000000;stroke-width:0.48px;stroke-linecap:butt;stroke-linejoin:miter;stroke-miterlimit:4;stroke-dasharray:none;stroke-dashoffset:0;stroke-opacity:1;marker:none;enable-background:accumulate"
       d="m -44.1721,2151.35 1.0094,-0.9 1.536,-1.54 1.536,-1.53 1.536,-1.53 1.536,-1.52 1.536,-1.51 1.536,-1.51 1.536,-1.49 1.536,-1.48 1.536,-1.47 1.536,-1.44 1.536,-1.43 1.536,-1.42 1.536,-1.39 1.5361,-1.37 1.536,-1.33 1.536,-1.32 1.536,-1.3 1.536,-1.27 1.536,-1.23 1.536,-1.19 1.536,-1.18 1.53603,-1.13 1.536,-1.11 1.536,-1.06 1.536,-1.03 1.536,-1 1.536,-0.93 1.536002,-0.91 1.535998,-0.87 1.536,-0.81 -0.0372,39.25 z"
       id="path3972"
       inkscape:connector-curvature="0"
       sodipodi:nodetypes="cccccccccccccccccccccccccccccccccc" />
    <text
       xml:space="preserve"
       style="color:#000000;font-style:normal;font-variant:normal;font-weight:bold;font-stretch:normal;font-size:17.28px;line-height:125%;font-family:'Trebuchet MS';-inkscape-font-specification:'Trebuchet MS';text-indent:0;text-align:start;text-decoration:none;text-decoration-line:none;letter-spacing:0px;word-spacing:0px;text-transform:none;writing-mode:lr-tb;direction:ltr;baseline-shift:baseline;text-anchor:start;display:inline;overflow:visible;visibility:visible;fill:#ffffff;fill-opacity:1;fill-rule:nonzero;stroke:none;stroke-width:0.48px;marker:none;enable-background:accumulate"
       x="-17.5213"
       y="2144.05"
       id="text4080"><tspan
         sodipodi:role="line"
         id="tspan4082"
         x="-17.5213"
         y="2144.05"
         style="stroke-width:0.48px">A</tspan></text>
  </g>
</svg>
