<?xml version="1.0" encoding="UTF-8" standalone="no"?>
<svg
   xmlns:dc="http://purl.org/dc/elements/1.1/"
   xmlns:cc="http://creativecommons.org/ns#"
   xmlns:rdf="http://www.w3.org/1999/02/22-rdf-syntax-ns#"
   xmlns:svg="http://www.w3.org/2000/svg"
   xmlns="http://www.w3.org/2000/svg"
   xmlns:sodipodi="http://sodipodi.sourceforge.net/DTD/sodipodi-0.dtd"
   xmlns:inkscape="http://www.inkscape.org/namespaces/inkscape"
   width="259.133"
   height="146.765"
   version="1.1"
   id="svg48"
   sodipodi:docname="integrals-vs-derivative.svg"
   inkscape:version="1.0.1 (3bc2e813f5, 2020-09-07)">
  <metadata
     id="metadata52">
    <rdf:RDF>
      <cc:Work
         rdf:about="">
        <dc:format>image/svg+xml</dc:format>
        <dc:type
           rdf:resource="http://purl.org/dc/dcmitype/StillImage" />
      </cc:Work>
    </rdf:RDF>
  </metadata>
  <sodipodi:namedview
     pagecolor="#ffffff"
     bordercolor="#666666"
     borderopacity="1"
     objecttolerance="10"
     gridtolerance="10"
     guidetolerance="10"
     inkscape:pageopacity="0"
     inkscape:pageshadow="2"
     inkscape:window-width="640"
     inkscape:window-height="480"
     id="namedview50"
     showgrid="false"
     inkscape:current-layer="svg48"
     inkscape:document-rotation="0" />
  <defs
     id="defs2" />
  <text
     x="180.691"
     y="51.4724"
     style="font-style:italic;font-variant:normal;font-weight:normal;font-stretch:normal;font-size:30.9px;font-family:'Trebuchet MS';-inkscape-font-specification:'Trebuchet MS, Italic';font-variant-ligatures:normal;font-variant-caps:normal;font-variant-numeric:normal;font-variant-east-asian:normal;overflow:visible;fill:#ef2929;stroke-width:0.5px"
     id="text4">x  </text>
  <text
     x="-1.203"
     y="84.344"
     style="font-style:italic;font-variant:normal;font-weight:normal;font-stretch:normal;font-size:39.1069px;font-family:'Trebuchet MS';-inkscape-font-specification:'Trebuchet MS, Italic';font-variant-ligatures:normal;font-variant-caps:normal;font-variant-numeric:normal;font-variant-east-asian:normal;overflow:visible;fill:#0084c8;stroke-width:0.632798px"
     id="text6">2x</text>
  <g
     transform="matrix(0.428577,0.012968,-0.012968,0.428577,-110.455,-141.155)"
     id="g14">
    <path
       style="overflow:visible;fill:#729fcf;stroke-width:2.5"
       d="m 338.6,407.1 c 16.4,-11.9 36.8,-15.8 55.6,-22.5 34.6,-11.2 71,-16.1 107.3,-17.3 35.1,-0.6 71.5,1.9 103.9,16.6 8.3,4.5 17.9,6.5 24.9,13.2 -5,5 -9.3,2.8 -14.2,-1.5 -14.4,-5.8 -28.3,-13.6 -43.8,-16.5 -47.6,-10.8 -97.2,-7.3 -144.8,1.3 -24.1,5.3 -47.6,13.2 -70.7,22.1 -5.9,2.5 -10.7,8.8 -17.3,4.7 0.3,-0.5 -0.8,0 -0.8,-0.2 z"
       id="path8" />
    <path
       style="overflow:visible;fill:#729fcf;stroke-width:2.5"
       d="m 585.6,393.6 c 11.9,-4.9 25.2,-0.8 37.4,1.3 7.1,1.2 13.9,5.1 4.8,8.7 -9.4,-4.9 -20.8,-5.6 -31.4,-6.9 -4.5,-0.2 -9.2,1.4 -4.4,-0.6 -2.1,-0.8 -4.3,-1.7 -6.4,-2.5 z"
       id="path10" />
    <path
       style="overflow:visible;fill:#729fcf;stroke-width:2.5"
       d="m 619.1,373.9 c 1.9,10.2 8.6,20.7 15.8,26 -4.1,4.2 -8.6,3.9 -11.8,-1.5 -5.5,-5.8 -11.1,-16.4 -10.1,-22.9 2,-0.5 4,-1.1 6,-1.6 z"
       id="path12" />
  </g>
  <g
     transform="matrix(-0.428577,-0.012968,0.012968,-0.428577,293.835,290.107)"
     id="g22">
    <path
       style="overflow:visible;fill:#edd400;stroke-width:2.5"
       d="m 338.6,407.1 c 16.4,-11.9 36.8,-15.8 55.6,-22.5 34.6,-11.2 71,-16.1 107.3,-17.3 35.1,-0.6 71.5,1.9 103.9,16.6 8.3,4.5 17.9,6.5 24.9,13.2 -5,5 -9.3,2.8 -14.2,-1.5 -14.4,-5.8 -28.3,-13.6 -43.8,-16.5 -47.6,-10.8 -97.2,-7.3 -144.8,1.3 -24.1,5.3 -47.6,13.2 -70.7,22.1 -5.9,2.5 -10.7,8.8 -17.3,4.7 0.3,-0.5 -0.8,0 -0.8,-0.2 z"
       id="path16" />
    <path
       style="overflow:visible;fill:#edd400;stroke-width:2.5"
       d="m 585.6,393.6 c 11.9,-4.9 25.2,-0.8 37.4,1.3 7.1,1.2 13.9,5.1 4.8,8.7 -9.4,-4.9 -20.8,-5.6 -31.4,-6.9 -4.5,-0.2 -9.2,1.4 -4.4,-0.6 -2.1,-0.8 -4.3,-1.7 -6.4,-2.5 z"
       id="path18" />
    <path
       style="overflow:visible;fill:#edd400;stroke-width:2.5"
       d="m 619.1,373.9 c 1.9,10.2 8.6,20.7 15.8,26 -4.1,4.2 -8.6,3.9 -11.8,-1.5 -5.5,-5.8 -11.1,-16.4 -10.1,-22.9 2,-0.5 4,-1.1 6,-1.6 z"
       id="path20" />
  </g>
  <text
     x="52.9047"
     y="15.7046"
     style="font-style:italic;font-size:21.3px;font-family:'Trebuchet MS';overflow:visible;fill:#729fcf;stroke-width:1.25"
     id="text24">Integrals</text>
  <text
     x="43.7244"
     y="146.557"
     style="font-style:italic;font-size:21.3px;font-family:'Trebuchet MS';overflow:visible;fill:#edd400;stroke-width:1.25"
     id="text26">Derivative</text>
  <text
     x="195.491"
     y="41.3724"
     style="font-style:italic;font-variant:normal;font-weight:normal;font-stretch:normal;font-size:20px;font-family:'Trebuchet MS';-inkscape-font-specification:'Trebuchet MS, Italic';font-variant-ligatures:normal;font-variant-caps:normal;font-variant-numeric:normal;font-variant-east-asian:normal;overflow:visible;fill:#ef2929;stroke-width:0.5px"
     id="text28">2</text>
  <text
     x="200.905"
     y="80.1046"
     style="font-style:italic;font-variant:normal;font-weight:normal;font-stretch:normal;font-size:30.9px;font-family:'Trebuchet MS';-inkscape-font-specification:'Trebuchet MS, Italic';font-variant-ligatures:normal;font-variant-caps:normal;font-variant-numeric:normal;font-variant-east-asian:normal;overflow:visible;fill:#d76cff;stroke-width:0.5px"
     id="text30">x</text>
  <text
     x="215.905"
     y="68.4046"
     style="font-style:italic;font-variant:normal;font-weight:normal;font-stretch:normal;font-size:20px;font-family:'Trebuchet MS';-inkscape-font-specification:'Trebuchet MS, Italic';font-variant-ligatures:normal;font-variant-caps:normal;font-variant-numeric:normal;font-variant-east-asian:normal;overflow:visible;fill:#d76cff;stroke-width:0.5px"
     id="text32">2</text>
  <text
     x="167.658"
     y="108.744"
     style="font-style:italic;font-variant:normal;font-weight:normal;font-stretch:normal;font-size:30.9px;font-family:'Trebuchet MS';-inkscape-font-specification:'Trebuchet MS, Italic';font-variant-ligatures:normal;font-variant-caps:normal;font-variant-numeric:normal;font-variant-east-asian:normal;overflow:visible;fill:#204a87;stroke-width:0.5px"
     id="text34">x</text>
  <text
     x="182.858"
     y="96.6441"
     style="font-style:italic;font-variant:normal;font-weight:normal;font-stretch:normal;font-size:20px;font-family:'Trebuchet MS';-inkscape-font-specification:'Trebuchet MS, Italic';font-variant-ligatures:normal;font-variant-caps:normal;font-variant-numeric:normal;font-variant-east-asian:normal;overflow:visible;fill:#204a87;stroke-width:0.5px"
     id="text36">2</text>
  <text
     x="114.705"
     y="76.1384"
     style="font-style:italic;font-variant:normal;font-weight:normal;font-stretch:normal;font-size:30.9px;font-family:'Trebuchet MS';-inkscape-font-specification:'Trebuchet MS, Italic';font-variant-ligatures:normal;font-variant-caps:normal;font-variant-numeric:normal;font-variant-east-asian:normal;overflow:visible;fill:#ff9900;stroke-width:0.5px"
     id="text38">x</text>
  <text
     x="129.905"
     y="64.4384"
     style="font-style:italic;font-variant:normal;font-weight:normal;font-stretch:normal;font-size:20px;font-family:'Trebuchet MS';-inkscape-font-specification:'Trebuchet MS, Italic';font-variant-ligatures:normal;font-variant-caps:normal;font-variant-numeric:normal;font-variant-east-asian:normal;overflow:visible;fill:#ff9900;stroke-width:0.5px"
     id="text40">2</text>
  <text
     x="227.705"
     y="80.1046"
     style="font-style:italic;font-variant:normal;font-weight:normal;font-stretch:normal;font-size:30.9px;font-family:'Trebuchet MS';-inkscape-font-specification:'Trebuchet MS, Italic';font-variant-ligatures:normal;font-variant-caps:normal;font-variant-numeric:normal;font-variant-east-asian:normal;overflow:visible;fill:#d76cff;stroke-width:0.5px"
     id="text42">+3</text>
  <text
     x="142.405"
     y="76.1384"
     style="font-style:italic;font-variant:normal;font-weight:normal;font-stretch:normal;font-size:30.9px;font-family:'Trebuchet MS';-inkscape-font-specification:'Trebuchet MS, Italic';font-variant-ligatures:normal;font-variant-caps:normal;font-variant-numeric:normal;font-variant-east-asian:normal;overflow:visible;fill:#ff9900;stroke-width:0.5px"
     id="text44">+4</text>
  <text
     x="193.658"
     y="108.744"
     style="font-style:italic;font-variant:normal;font-weight:normal;font-stretch:normal;font-size:30.9px;font-family:'Trebuchet MS';-inkscape-font-specification:'Trebuchet MS, Italic';font-variant-ligatures:normal;font-variant-caps:normal;font-variant-numeric:normal;font-variant-east-asian:normal;overflow:visible;fill:#204a87;stroke-width:0.5px"
     id="text46">−6</text>
</svg>
