<?xml version="1.0" encoding="UTF-8" standalone="no"?>
<svg
   xmlns:dc="http://purl.org/dc/elements/1.1/"
   xmlns:cc="http://creativecommons.org/ns#"
   xmlns:rdf="http://www.w3.org/1999/02/22-rdf-syntax-ns#"
   xmlns:svg="http://www.w3.org/2000/svg"
   xmlns="http://www.w3.org/2000/svg"
   xmlns:sodipodi="http://sodipodi.sourceforge.net/DTD/sodipodi-0.dtd"
   xmlns:inkscape="http://www.inkscape.org/namespaces/inkscape"
   width="212.028"
   height="126.794"
   id="svg9648"
   version="1.1"
   inkscape:version="1.0.1 (3bc2e813f5, 2020-09-07)"
   sodipodi:docname="integral-def-cos-1-3.svg">
  <sodipodi:namedview
     id="base"
     pagecolor="#ffffff"
     bordercolor="#666666"
     borderopacity="1.0"
     inkscape:pageopacity="0.0"
     inkscape:pageshadow="2"
     inkscape:zoom="0.148992"
     inkscape:cx="836.109"
     inkscape:cy="2506.85"
     inkscape:document-units="px"
     inkscape:current-layer="layer1"
     showgrid="false"
     inkscape:window-width="1536"
     inkscape:window-height="801"
     inkscape:window-x="1528"
     inkscape:window-y="-8"
     inkscape:window-maximized="1"
     showborder="true"
     inkscape:document-rotation="0" />
  <defs
     id="defs9650">
    <marker
       style="overflow:visible"
       id="Arrow2LendJ"
       refX="0"
       refY="0"
       orient="auto"
       inkscape:stockid="Arrow2LendJ">
      <path
         transform="matrix(-1.1,0,0,-1.1,-1.1,0)"
         d="M 8.71859,4.03374 -2.20729,0.016013 8.71859,-4.00171 c -1.7455,2.37206 -1.73544,5.61745 0,8.03545 z"
         style="font-size:12px;fill:#ff0000;fill-rule:evenodd;stroke:#ff0000;stroke-width:0.625;stroke-linejoin:round"
         id="path6869"
         inkscape:connector-curvature="0" />
    </marker>
    <marker
       style="overflow:visible"
       id="Arrow2Lend5"
       refX="0"
       refY="0"
       orient="auto"
       inkscape:stockid="Arrow2Lend5">
      <path
         transform="matrix(-1.1,0,0,-1.1,-1.1,0)"
         d="M 8.71859,4.03374 -2.20729,0.016013 8.71859,-4.00171 c -1.7455,2.37206 -1.73544,5.61745 0,8.03545 z"
         style="font-size:12px;fill:#0000ff;fill-rule:evenodd;stroke:#0000ff;stroke-width:0.625;stroke-linejoin:round"
         id="path6772"
         inkscape:connector-curvature="0" />
    </marker>
  </defs>
  <metadata
     id="metadata9653">
    <rdf:RDF>
      <cc:Work
         rdf:about="">
        <dc:format>image/svg+xml</dc:format>
        <dc:type
           rdf:resource="http://purl.org/dc/dcmitype/StillImage" />
        <dc:title />
      </cc:Work>
    </rdf:RDF>
  </metadata>
  <g
     transform="translate(51.7048,-2714.32)"
     id="layer1"
     inkscape:groupmode="layer"
     inkscape:label="Layer 1">
    <rect
       style="color:#000000;clip-rule:nonzero;display:inline;overflow:visible;visibility:visible;opacity:1;isolation:auto;color-interpolation:sRGB;color-interpolation-filters:linearRGB;solid-color:#000000;solid-opacity:1;vector-effect:none;fill:#ffffff;fill-opacity:1;fill-rule:nonzero;stroke:none;stroke-width:2.42548;stroke-linecap:butt;stroke-linejoin:miter;stroke-miterlimit:4;stroke-dasharray:none;stroke-dashoffset:0;stroke-opacity:1;marker:none;marker-start:none;marker-mid:none;marker-end:none;color-rendering:auto;image-rendering:auto;shape-rendering:auto;text-rendering:auto;enable-background:accumulate"
       id="rect4051"
       width="212.028"
       height="126.794"
       x="-51.7048"
       y="2714.32" />
    <g
       transform="matrix(0.703723,0,0,0.703723,-1814.34,1280.59)"
       id="g5262">
      <g
         id="g5264"
         transform="translate(618,-6)">
        <path
           inkscape:connector-curvature="0"
           id="path5266"
           d="m 1832.63,1948.88 h 526.74"
           style="fill:none;stroke:#e5e6e8;stroke-width:1.20119;stroke-linecap:butt;stroke-linejoin:miter;stroke-miterlimit:4;stroke-dasharray:9.60955, 1.20118999999999998;stroke-dashoffset:0;stroke-opacity:1" />
        <path
           inkscape:connector-curvature="0"
           id="path5268"
           d="m 1832.63,1882.74 h 526.74"
           style="fill:none;stroke:#e5e6e8;stroke-width:1.20119;stroke-linecap:butt;stroke-linejoin:miter;stroke-miterlimit:4;stroke-dasharray:9.60955, 1.20118999999999998;stroke-dashoffset:0;stroke-opacity:1" />
        <path
           inkscape:connector-curvature="0"
           id="path5270"
           d="m 1832.63,1816.59 h 526.74"
           style="fill:none;stroke:#e5e6e8;stroke-width:1.20119;stroke-linecap:butt;stroke-linejoin:miter;stroke-miterlimit:4;stroke-dasharray:9.60955, 1.20118999999999998;stroke-dashoffset:0;stroke-opacity:1" />
        <path
           inkscape:connector-curvature="0"
           id="path5272"
           d="m 1832.63,1750.44 h 526.74"
           style="fill:none;stroke:#e5e6e8;stroke-width:1.20119;stroke-linecap:butt;stroke-linejoin:miter;stroke-miterlimit:4;stroke-dasharray:9.60955, 1.20118999999999998;stroke-dashoffset:0;stroke-opacity:1" />
        <path
           inkscape:connector-curvature="0"
           id="path5274"
           d="m 1832.63,2279.62 h 526.74"
           style="fill:none;stroke:#e5e6e8;stroke-width:1.20119;stroke-linecap:butt;stroke-linejoin:miter;stroke-miterlimit:4;stroke-dasharray:9.60955, 1.20118999999999998;stroke-dashoffset:0;stroke-opacity:1" />
        <path
           inkscape:connector-curvature="0"
           id="path5276"
           d="m 1832.63,2147.33 h 526.74"
           style="fill:none;stroke:#e5e6e8;stroke-width:1.20119;stroke-linecap:butt;stroke-linejoin:miter;stroke-miterlimit:4;stroke-dasharray:9.60955, 1.20118999999999998;stroke-dashoffset:0;stroke-opacity:1" />
        <path
           inkscape:connector-curvature="0"
           id="path5278"
           d="m 1832.63,2081.18 h 526.74"
           style="fill:none;stroke:#e5e6e8;stroke-width:1.20119;stroke-linecap:butt;stroke-linejoin:miter;stroke-miterlimit:4;stroke-dasharray:9.60955, 1.20118999999999998;stroke-dashoffset:0;stroke-opacity:1" />
        <path
           inkscape:connector-curvature="0"
           id="path5280"
           d="m 1832.63,2015.03 h 526.74"
           style="fill:none;stroke:#e5e6e8;stroke-width:1.20119;stroke-linecap:butt;stroke-linejoin:miter;stroke-miterlimit:4;stroke-dasharray:9.60955, 1.20118999999999998;stroke-dashoffset:0;stroke-opacity:1" />
        <path
           inkscape:connector-curvature="0"
           id="path5282"
           d="m 1832.63,2213.47 h 526.74"
           style="fill:none;stroke:#e5e6e8;stroke-width:1.20119;stroke-linecap:butt;stroke-linejoin:miter;stroke-miterlimit:4;stroke-dasharray:9.60955, 1.20118999999999998;stroke-dashoffset:0;stroke-opacity:1" />
        <path
           inkscape:connector-curvature="0"
           id="path5284"
           d="m 1832.63,1981.96 h 526.74"
           style="fill:none;stroke:#e5e6e8;stroke-width:1.20119;stroke-linecap:butt;stroke-linejoin:miter;stroke-miterlimit:4;stroke-dasharray:9.60955, 1.20118999999999998;stroke-dashoffset:0;stroke-opacity:1" />
        <path
           inkscape:connector-curvature="0"
           id="path5286"
           d="m 1832.63,1915.81 h 526.74"
           style="fill:none;stroke:#e5e6e8;stroke-width:1.20119;stroke-linecap:butt;stroke-linejoin:miter;stroke-miterlimit:4;stroke-dasharray:9.60955, 1.20118999999999998;stroke-dashoffset:0;stroke-opacity:1" />
        <path
           inkscape:connector-curvature="0"
           id="path5288"
           d="m 1832.63,1849.66 h 526.74"
           style="fill:none;stroke:#e5e6e8;stroke-width:1.20119;stroke-linecap:butt;stroke-linejoin:miter;stroke-miterlimit:4;stroke-dasharray:9.60955, 1.20118999999999998;stroke-dashoffset:0;stroke-opacity:1" />
        <path
           inkscape:connector-curvature="0"
           id="path5290"
           d="m 1832.63,1783.52 h 526.74"
           style="fill:none;stroke:#e5e6e8;stroke-width:1.20119;stroke-linecap:butt;stroke-linejoin:miter;stroke-miterlimit:4;stroke-dasharray:9.60955, 1.20118999999999998;stroke-dashoffset:0;stroke-opacity:1" />
        <path
           inkscape:connector-curvature="0"
           id="path5292"
           d="m 1832.63,2180.4 h 526.74"
           style="fill:none;stroke:#e5e6e8;stroke-width:1.20119;stroke-linecap:butt;stroke-linejoin:miter;stroke-miterlimit:4;stroke-dasharray:9.60955, 1.20118999999999998;stroke-dashoffset:0;stroke-opacity:1" />
        <path
           inkscape:connector-curvature="0"
           id="path5294"
           d="m 1832.63,2114.25 h 526.74"
           style="fill:none;stroke:#e5e6e8;stroke-width:1.20119;stroke-linecap:butt;stroke-linejoin:miter;stroke-miterlimit:4;stroke-dasharray:9.60955, 1.20118999999999998;stroke-dashoffset:0;stroke-opacity:1" />
        <path
           inkscape:connector-curvature="0"
           id="path5296"
           d="m 1832.63,2048.11 h 526.74"
           style="fill:none;stroke:#e5e6e8;stroke-width:1.20119;stroke-linecap:butt;stroke-linejoin:miter;stroke-miterlimit:4;stroke-dasharray:9.60955, 1.20118999999999998;stroke-dashoffset:0;stroke-opacity:1" />
        <path
           inkscape:connector-curvature="0"
           id="path5298"
           d="m 1832.63,2246.55 h 526.74"
           style="fill:none;stroke:#e5e6e8;stroke-width:1.20119;stroke-linecap:butt;stroke-linejoin:miter;stroke-miterlimit:4;stroke-dasharray:9.60955, 1.20118999999999998;stroke-dashoffset:0;stroke-opacity:1" />
      </g>
      <g
         id="g5300">
        <path
           inkscape:connector-curvature="0"
           id="path5302"
           d="M 2647.85,2272.4 V 1745.66"
           style="fill:none;stroke:#e5e6e8;stroke-width:1.20119;stroke-linecap:butt;stroke-linejoin:miter;stroke-miterlimit:4;stroke-dasharray:9.60955, 1.20118999999999998;stroke-dashoffset:0;stroke-opacity:1" />
        <path
           inkscape:connector-curvature="0"
           id="path5304"
           d="M 2581.71,2272.4 V 1745.66"
           style="fill:none;stroke:#e5e6e8;stroke-width:1.20119;stroke-linecap:butt;stroke-linejoin:miter;stroke-miterlimit:4;stroke-dasharray:9.60955, 1.20118999999999998;stroke-dashoffset:0;stroke-opacity:1" />
        <path
           inkscape:connector-curvature="0"
           id="path5306"
           d="M 2515.56,2272.4 V 1745.66"
           style="fill:none;stroke:#e5e6e8;stroke-width:1.20119;stroke-linecap:butt;stroke-linejoin:miter;stroke-miterlimit:4;stroke-dasharray:9.60955, 1.20118999999999998;stroke-dashoffset:0;stroke-opacity:1" />
        <path
           inkscape:connector-curvature="0"
           id="path5308"
           d="M 2449.41,2272.4 V 1745.66"
           style="fill:none;stroke:#e5e6e8;stroke-width:1.20119;stroke-linecap:butt;stroke-linejoin:miter;stroke-miterlimit:4;stroke-dasharray:9.60955, 1.20118999999999998;stroke-dashoffset:0;stroke-opacity:1" />
        <path
           inkscape:connector-curvature="0"
           id="path5310"
           d="M 2978.59,2272.4 V 1745.66"
           style="fill:none;stroke:#e5e6e8;stroke-width:1.20119;stroke-linecap:butt;stroke-linejoin:miter;stroke-miterlimit:4;stroke-dasharray:9.60955, 1.20118999999999998;stroke-dashoffset:0;stroke-opacity:1" />
        <path
           inkscape:connector-curvature="0"
           id="path5312"
           d="M 2846.29,2272.4 V 1745.66"
           style="fill:none;stroke:#e5e6e8;stroke-width:1.20119;stroke-linecap:butt;stroke-linejoin:miter;stroke-miterlimit:4;stroke-dasharray:9.60955, 1.20118999999999998;stroke-dashoffset:0;stroke-opacity:1" />
        <path
           inkscape:connector-curvature="0"
           id="path5314"
           d="M 2780.15,2272.4 V 1745.66"
           style="fill:none;stroke:#e5e6e8;stroke-width:1.20119;stroke-linecap:butt;stroke-linejoin:miter;stroke-miterlimit:4;stroke-dasharray:9.60955, 1.20118999999999998;stroke-dashoffset:0;stroke-opacity:1" />
        <path
           inkscape:connector-curvature="0"
           id="path5316"
           d="M 2714,2272.4 V 1745.66"
           style="fill:none;stroke:#e5e6e8;stroke-width:1.20119;stroke-linecap:butt;stroke-linejoin:miter;stroke-miterlimit:4;stroke-dasharray:9.60955, 1.20118999999999998;stroke-dashoffset:0;stroke-opacity:1" />
        <path
           inkscape:connector-curvature="0"
           id="path5318"
           d="M 2912.44,2272.4 V 1745.66"
           style="fill:none;stroke:#e5e6e8;stroke-width:1.20119;stroke-linecap:butt;stroke-linejoin:miter;stroke-miterlimit:4;stroke-dasharray:9.60955, 1.20118999999999998;stroke-dashoffset:0;stroke-opacity:1" />
        <path
           inkscape:connector-curvature="0"
           id="path5320"
           d="M 2680.93,2272.4 V 1745.66"
           style="fill:none;stroke:#e5e6e8;stroke-width:1.20119;stroke-linecap:butt;stroke-linejoin:miter;stroke-miterlimit:4;stroke-dasharray:9.60955, 1.20118999999999998;stroke-dashoffset:0;stroke-opacity:1" />
        <path
           inkscape:connector-curvature="0"
           id="path5322"
           d="M 2614.78,2272.4 V 1745.66"
           style="fill:none;stroke:#e5e6e8;stroke-width:1.20119;stroke-linecap:butt;stroke-linejoin:miter;stroke-miterlimit:4;stroke-dasharray:9.60955, 1.20118999999999998;stroke-dashoffset:0;stroke-opacity:1" />
        <path
           inkscape:connector-curvature="0"
           id="path5324"
           d="M 2548.63,2272.4 V 1745.66"
           style="fill:none;stroke:#e5e6e8;stroke-width:1.20119;stroke-linecap:butt;stroke-linejoin:miter;stroke-miterlimit:4;stroke-dasharray:9.60955, 1.20118999999999998;stroke-dashoffset:0;stroke-opacity:1" />
        <path
           inkscape:connector-curvature="0"
           id="path5326"
           d="M 2482.49,2272.4 V 1745.66"
           style="fill:none;stroke:#e5e6e8;stroke-width:1.20119;stroke-linecap:butt;stroke-linejoin:miter;stroke-miterlimit:4;stroke-dasharray:9.60955, 1.20118999999999998;stroke-dashoffset:0;stroke-opacity:1" />
        <path
           inkscape:connector-curvature="0"
           id="path5328"
           d="M 2879.37,2272.4 V 1745.66"
           style="fill:none;stroke:#e5e6e8;stroke-width:1.20119;stroke-linecap:butt;stroke-linejoin:miter;stroke-miterlimit:4;stroke-dasharray:9.60955, 1.20118999999999998;stroke-dashoffset:0;stroke-opacity:1" />
        <path
           inkscape:connector-curvature="0"
           id="path5330"
           d="M 2813.22,2272.4 V 1745.66"
           style="fill:none;stroke:#e5e6e8;stroke-width:1.20119;stroke-linecap:butt;stroke-linejoin:miter;stroke-miterlimit:4;stroke-dasharray:9.60955, 1.20118999999999998;stroke-dashoffset:0;stroke-opacity:1" />
        <path
           inkscape:connector-curvature="0"
           id="path5332"
           d="M 2747.07,2272.4 V 1745.66"
           style="fill:none;stroke:#e5e6e8;stroke-width:1.20119;stroke-linecap:butt;stroke-linejoin:miter;stroke-miterlimit:4;stroke-dasharray:9.60955, 1.20118999999999998;stroke-dashoffset:0;stroke-opacity:1" />
        <path
           inkscape:connector-curvature="0"
           id="path5334"
           d="M 2945.52,2272.4 V 1745.66"
           style="fill:none;stroke:#e5e6e8;stroke-width:1.20119;stroke-linecap:butt;stroke-linejoin:miter;stroke-miterlimit:4;stroke-dasharray:9.60955, 1.20118999999999998;stroke-dashoffset:0;stroke-opacity:1" />
      </g>
    </g>
    <text
       xml:space="preserve"
       style="font-style:normal;font-variant:normal;font-weight:normal;font-stretch:normal;font-size:19.2px;line-height:125%;font-family:'Trebuchet MS';-inkscape-font-specification:'Trebuchet MS';text-indent:0;text-align:start;text-decoration:none;text-decoration-line:none;letter-spacing:normal;word-spacing:normal;text-transform:none;writing-mode:lr-tb;direction:ltr;text-anchor:start;display:inline;overflow:visible;visibility:visible;fill:#0000ff;fill-opacity:1;fill-rule:nonzero;stroke:none;stroke-width:1.44;marker:none;enable-background:accumulate"
       x="134.396"
       y="2780.44"
       id="text5340"><tspan
         sodipodi:role="line"
         id="tspan5342"
         x="134.396"
         y="2780.44"
         style="stroke-width:1.44">x</tspan></text>
    <text
       xml:space="preserve"
       style="font-style:normal;font-variant:normal;font-weight:normal;font-stretch:normal;font-size:19.2px;line-height:125%;font-family:'Trebuchet MS';-inkscape-font-specification:'Trebuchet MS';text-indent:0;text-align:start;text-decoration:none;text-decoration-line:none;letter-spacing:normal;word-spacing:normal;text-transform:none;writing-mode:lr-tb;direction:ltr;text-anchor:start;display:inline;overflow:visible;visibility:visible;fill:#ff0000;fill-opacity:1;fill-rule:nonzero;stroke:none;stroke-width:1.44;marker:none;enable-background:accumulate"
       x="-38.0219"
       y="2732.92"
       id="text5346"><tspan
         sodipodi:role="line"
         id="tspan5348"
         x="-38.0219"
         y="2732.92"
         style="stroke-width:1.44">y</tspan></text>
    <text
       xml:space="preserve"
       style="color:#000000;font-style:normal;font-variant:normal;font-weight:normal;font-stretch:normal;font-size:13.44px;line-height:125%;font-family:'Trebuchet MS';-inkscape-font-specification:'Trebuchet MS';text-indent:0;text-align:start;text-decoration:none;text-decoration-line:none;letter-spacing:0px;word-spacing:0px;text-transform:none;writing-mode:lr-tb;direction:ltr;baseline-shift:baseline;text-anchor:start;display:inline;overflow:visible;visibility:visible;fill:#000000;fill-opacity:1;fill-rule:nonzero;stroke:none;stroke-width:0.48px;marker:none;enable-background:accumulate"
       x="92.7191"
       y="2782.19"
       id="text5350"><tspan
         sodipodi:role="line"
         id="tspan5352"
         x="92.7191"
         y="2782.19"
         style="stroke-width:0.48px">3</tspan></text>
    <text
       xml:space="preserve"
       style="color:#000000;font-style:normal;font-variant:normal;font-weight:normal;font-stretch:normal;font-size:13.44px;line-height:125%;font-family:'Trebuchet MS';-inkscape-font-specification:'Trebuchet MS';text-indent:0;text-align:start;text-decoration:none;text-decoration-line:none;letter-spacing:0px;word-spacing:0px;text-transform:none;writing-mode:lr-tb;direction:ltr;baseline-shift:baseline;text-anchor:start;display:inline;overflow:visible;visibility:visible;fill:#000000;fill-opacity:1;fill-rule:nonzero;stroke:none;stroke-width:0.48px;marker:none;enable-background:accumulate"
       x="0.0257196"
       y="2800.41"
       id="text5354"><tspan
         sodipodi:role="line"
         id="tspan5356"
         x="0.0257196"
         y="2800.41"
         style="stroke-width:0.48px">1</tspan></text>
    <text
       id="text5358"
       y="2747.28"
       x="-5.06194"
       style="font-style:normal;font-variant:normal;font-weight:normal;font-stretch:normal;font-size:13.44px;line-height:125%;font-family:'Trebuchet MS';-inkscape-font-specification:'Trebuchet MS';text-indent:0;text-align:start;text-decoration:none;text-decoration-line:none;letter-spacing:normal;word-spacing:normal;text-transform:none;writing-mode:lr-tb;direction:ltr;text-anchor:start;display:inline;overflow:visible;visibility:visible;fill:#0000ff;fill-opacity:1;fill-rule:nonzero;stroke:none;stroke-width:1.44;marker:none;enable-background:accumulate"
       xml:space="preserve"><tspan
         y="2747.28"
         x="-5.06194"
         id="tspan5360"
         sodipodi:role="line"
         style="stroke-width:1.44">y=cos(x)</tspan></text>
    <path
       sodipodi:nodetypes="ccccccccccccccccccc"
       inkscape:connector-curvature="0"
       id="path5378"
       d="m 2.53631,2787.82 -0.0144,-25.23 0.99912,0.93 1.536,1.32 1.536,1.33 1.536,1.39 1.536,1.39 1.53597,1.42 1.536,1.43 1.536,1.45 1.536,1.46 1.536,1.49 1.536,1.49 1.536,1.51 1.536,1.51 1.536,1.53 1.536,1.52 3.9341,3.87 z"
       style="color:#000000;display:inline;overflow:visible;visibility:visible;fill:#19aeff;fill-opacity:1;fill-rule:nonzero;stroke:#000000;stroke-width:0.48px;stroke-linecap:butt;stroke-linejoin:miter;stroke-miterlimit:4;stroke-dasharray:none;stroke-dashoffset:0;stroke-opacity:1;marker:none;enable-background:accumulate" />
    <path
       inkscape:connector-curvature="0"
       id="path5380"
       d="M -131.639,2787.73 H 152.948"
       style="fill:none;stroke:#0000ff;stroke-width:1.26797;stroke-linecap:butt;stroke-linejoin:miter;stroke-miterlimit:4;stroke-dasharray:none;stroke-dashoffset:0;stroke-opacity:1;marker-end:url(#Arrow2Lend5)" />
    <path
       style="color:#000000;display:inline;overflow:visible;visibility:visible;fill:#ff7676;fill-opacity:1;fill-rule:nonzero;stroke:#000000;stroke-width:0.48px;stroke-linecap:butt;stroke-linejoin:miter;stroke-miterlimit:4;stroke-dasharray:none;stroke-dashoffset:0;stroke-opacity:1;marker:none;enable-background:accumulate"
       d="m 28.8778,2787.61 2.2911,2.3 1.536,1.53 1.536,1.53 1.536,1.52 1.536,1.51 1.536,1.51 1.536,1.49 1.536,1.48 1.536,1.47 1.536,1.44 1.536,1.44 1.536,1.42 1.536,1.38 1.536,1.37 1.536,1.35 1.536,1.32 1.536,1.29 1.536,1.28 1.536,1.23 1.536,1.21 1.536,1.16 1.536,1.14 1.536,1.11 1.536,1.06 1.536,1.02 1.536,1 1.536,0.96 1.536,0.9 1.5363,0.86 1.536,0.83 1.536,0.79 1.536,0.74 1.536,0.68 1.536,0.65 1.536,0.6 1.536,0.55 1.536,0.5 1.536,0.46 1.536,0.41 1.536,0.36 1.536,0.3 1.536,0.25 1.536,0.28 -0.096,-45.78 z"
       id="path5382"
       inkscape:connector-curvature="0"
       sodipodi:nodetypes="cccccccccccccccccccccccccccccccccccccccccccccc" />
    <text
       id="text5368-7"
       y="2785.95"
       x="5.28347"
       style="color:#000000;font-style:normal;font-variant:normal;font-weight:bold;font-stretch:normal;font-size:17.28px;line-height:125%;font-family:'Trebuchet MS';-inkscape-font-specification:'Trebuchet MS';text-indent:0;text-align:start;text-decoration:none;text-decoration-line:none;letter-spacing:0px;word-spacing:0px;text-transform:none;writing-mode:lr-tb;direction:ltr;baseline-shift:baseline;text-anchor:start;display:inline;overflow:visible;visibility:visible;fill:#ffffff;fill-opacity:1;fill-rule:nonzero;stroke:none;stroke-width:0.48px;marker:none;enable-background:accumulate"
       xml:space="preserve"><tspan
         y="2785.95"
         x="5.28347"
         id="tspan5370-4"
         sodipodi:role="line"
         style="stroke-width:0.48px">+</tspan></text>
    <text
       xml:space="preserve"
       style="color:#000000;font-style:normal;font-variant:normal;font-weight:bold;font-stretch:normal;font-size:17.28px;line-height:125%;font-family:'Trebuchet MS';-inkscape-font-specification:'Trebuchet MS';text-indent:0;text-align:start;text-decoration:none;text-decoration-line:none;letter-spacing:0px;word-spacing:0px;text-transform:none;writing-mode:lr-tb;direction:ltr;baseline-shift:baseline;text-anchor:start;display:inline;overflow:visible;visibility:visible;fill:#ffffff;fill-opacity:1;fill-rule:nonzero;stroke:none;stroke-width:0.48px;marker:none;enable-background:accumulate"
       x="67.4328"
       y="2809.71"
       id="text5428"><tspan
         y="2809.71"
         x="67.4328"
         id="tspan5432"
         sodipodi:role="line"
         style="stroke-width:0.48px">−</tspan></text>
    <path
       inkscape:connector-curvature="0"
       id="path5344"
       d="M -43.9024,2993.74 V 2718.91"
       style="fill:none;stroke:#ff0000;stroke-width:1.26797;stroke-linecap:butt;stroke-linejoin:miter;stroke-miterlimit:4;stroke-dasharray:none;stroke-dashoffset:0;stroke-opacity:1;marker-end:url(#Arrow2LendJ)" />
    <path
       style="fill:none;stroke:#0000ff;stroke-width:0.816;stroke-miterlimit:4;stroke-dasharray:none"
       d="m -163.902,2827.39 1.536,-0.78 1.536,-0.82 1.536,-0.88 1.536,-0.92 1.536,-0.95 1.536,-1 1.536,-1.03 1.536,-1.08 1.536,-1.1 1.536,-1.16 1.536,-1.16 1.536,-1.21 1.536,-1.25 1.536,-1.26 1.536,-1.31 1.536,-1.32 1.536,-1.34 1.536,-1.37 1.536,-1.4 1.536,-1.41 1.536,-1.45 1.536,-1.44 1.535,-1.48 1.536,-1.47 1.536,-1.5 1.536,-1.51 1.536,-1.5 1.536,-1.54 1.536,-1.52 1.536,-1.54 1.536,-1.54 1.536,-1.53 1.536,-1.54 1.536,-1.53 1.536,-1.53 1.536,-1.51 1.536,-1.52 1.536,-1.52 1.536,-1.48 1.536,-1.47 1.536,-1.49 1.5362,-1.44 1.536,-1.42 1.536,-1.41 1.536,-1.4 1.536,-1.37 1.536,-1.33 1.536,-1.32 1.536,-1.3 1.536,-1.27 1.536,-1.22 1.536,-1.2 1.536,-1.18 1.536,-1.13 1.536,-1.1 1.536,-1.07 1.536,-1.03 1.536,-1 1.536,-0.93 1.536,-0.92 1.536,-0.86 1.536,-0.82 1.536,-0.79 1.536,-0.73 1.536,-0.68 1.536,-0.65 1.536,-0.59 1.536,-0.55 1.536,-0.51 1.536,-0.44 1.536,-0.41 1.536,-0.35 1.536,-0.31 1.536,-0.24 1.536,-0.2 1.536,-0.16 1.536,-0.12 h 1.536 1.536 1.536 l 1.536,0.12 1.536,0.15 1.536,0.21 1.536,0.27 1.536,0.31 1.536,0.35 1.536,0.42 1.536,0.45 1.536,0.51 1.536,0.55 1.536,0.6 1.5357,0.65 1.536,0.7 1.536,0.74 1.536,0.79 1.536,0.83 1.536,0.87 1.536,0.9 1.536,0.95 1.536,1.01 1.53599,1.03 1.536,1.07 1.536,1.1 1.536,1.14 1.536,1.18 1.536,1.2 1.535998,1.25 1.536002,1.26 1.53602,1.3 1.536,1.32 1.536,1.34 1.536,1.38 1.536,1.4 1.53599,1.42 1.536,1.42 1.536,1.46 1.536,1.46 1.536,1.49 1.536,1.49 1.536,1.51 1.536,1.51 1.536,1.52 1.536,1.53 1.536,1.53 1.536,1.54 1.536,1.54 1.536,1.53 1.536,1.54 1.536,1.52 1.536,1.51 1.536,1.53 1.536,1.5 1.536,1.49 1.536,1.48 1.536,1.47 1.536,1.45 1.536,1.44 1.536,1.42 1.536,1.38 1.536,1.36 1.536,1.35 1.536,1.32 1.536,1.29 1.536,1.28 1.536,1.23 1.536,1.21 1.536,1.17 1.536,1.14 1.536,1.1 1.536,1.06 1.536,1.03 1.536,1 1.536,0.96 1.536,0.9 1.5363,0.86 1.536,0.83 1.536,0.78 1.536,0.74 1.536,0.69 1.536,0.64 1.536,0.6 1.536,0.56 1.536,0.5 1.536,0.44 1.536,0.42 1.536,0.35 1.536,0.31 1.536,0.24 1.536,0.22 1.536,0.16 1.536,0.12 h 1.5358 1.536 1.536 l 1.536,-0.12 1.536,-0.17 1.536,-0.21 1.536,-0.25 1.537,-0.3 1.536,-0.36 1.536,-0.41 1.536,-0.45 1.536,-0.51 1.536,-0.54 1.536,-0.61 1.536,-0.65 1.536,-0.69 1.536,-0.73 1.536,-0.78 1.536,-0.84 1.536,-0.86 1.536,-0.91 1.536,-0.95 1.536,-0.99 1.536,-1.03 1.536,-1.07 1.536,-1.11 1.536,-1.15 1.536,-1.16 1.536,-1.19 1.536,-1.25 1.536,-1.26 1.536,-1.31 1.536,-1.32 1.536,-1.34 1.536,-1.36 1.536,-1.4 1.536,-1.42 1.536,-1.42 1.536,-1.46 1.536,-1.46 1.536,-1.49 1.536,-1.49 1.536,-1.51 1.536,-1.51 1.536,-1.52 1.536,-1.53 1.536,-1.53 1.536,-1.54 1.536,-1.54 1.536,-1.53 1.536,-1.54 1.536,-1.51 1.536,-1.52 1.536,-1.53 1.536,-1.5 1.536,-1.5 1.536,-1.49 1.536,-1.45 1.536,-1.46 1.536,-1.43 1.536,-1.42 1.536,-1.39 1.536,-1.37 1.536,-1.35 1.536,-1.32 1.536,-1.29 1.536,-1.27 1.536,-1.23 1.536,-1.22 1.536,-1.16 1.536,-1.15 1.536,-1.12 1.536,-1.05 1.536,-1.04 1.536,-0.99 1.536,-0.95 1.536,-0.91 1.536,-0.88 1.536,-0.83 1.536,-0.78 1.536,-0.73 1.536,-0.71 1.536,-0.64 1.536,-0.6 1.536,-0.56 1.536,-0.5 1.536,-0.47 1.536,-0.39 1.536,-0.38 1.536,-0.3 1.536,-0.25 1.536,-0.21 1.536,-0.15 1.536,-0.12 1.536,-0.12 h 1.536 l 1.536,0.12 1.536,0.12 1.536,0.16 1.536,0.2 1.536,0.24 1.536,0.31 1.536,0.35 1.536,0.4 1.536,0.47 1.536,0.5 1.536,0.54 1.536,0.6 1.536,0.65 1.536,0.68 1.536,0.73 1.536,0.8 1.536,0.81 1.536,0.88 1.536,0.9 1.536,0.96 1.536,0.98 1.536,1.02 1.536,1.07 1.536,1.1 1.536,1.13 1.536,1.18 1.536,1.21 1.536,1.22 1.536,1.26 1.536,1.3 1.536,1.32 1.536,1.34 1.536,1.37 1.536,1.41 1.536,1.4 1.536,1.44 1.536,1.44 1.536,1.48 1.536,1.47 1.536,1.49 1.536,1.5 1.536,1.52 1.536,1.53 1.536,1.52 1.536,1.54 1.536,1.53 1.536,1.54 1.536,1.54 1.536,1.53 1.536,1.51 1.536,1.53 1.536,1.52 1.536,1.5 1.536,1.49 1.536,1.49 1.536,1.47 1.536,1.44 1.536,1.44 1.536,1.43 1.536,1.39 1.536,1.37 1.536,1.36 1.536,1.32 1.536,1.28 1.536,1.29"
       id="path5372"
       inkscape:connector-curvature="0"
       sodipodi:nodetypes="ccccccccccccccccccccccccccccccccccccccccccccccccccccccccccccccccccccccccccccccccccccccccccccccccccccccccccccccccccccccccccccccccccccccccccccccccccccccccccccccccccccccccccccccccccccccccccccccccccccccccccccccccccccccccccccccccccccccccccccccccccccccccccccccccccccccccccccccccccccccccccccccccccccccccccccccccccccccccccccccccccccccccccccc" />
  </g>
</svg>
