<?xml version="1.0" encoding="UTF-8" standalone="no"?>
<svg
   xmlns:dc="http://purl.org/dc/elements/1.1/"
   xmlns:cc="http://creativecommons.org/ns#"
   xmlns:rdf="http://www.w3.org/1999/02/22-rdf-syntax-ns#"
   xmlns:svg="http://www.w3.org/2000/svg"
   xmlns="http://www.w3.org/2000/svg"
   xmlns:xlink="http://www.w3.org/1999/xlink"
   xmlns:sodipodi="http://sodipodi.sourceforge.net/DTD/sodipodi-0.dtd"
   xmlns:inkscape="http://www.inkscape.org/namespaces/inkscape"
   width="217.595"
   height="69.6699"
   id="svg6589"
   version="1.1"
   inkscape:version="1.0.1 (3bc2e813f5, 2020-09-07)"
   sodipodi:docname="integral-subs-1.svg">
  <defs
     id="defs6591">
    <linearGradient
       id="linearGradient7357">
      <stop
         style="stop-color:#4e9a06;stop-opacity:1"
         offset="0"
         id="stop7359" />
      <stop
         style="stop-color:#73d216;stop-opacity:1"
         offset="1"
         id="stop7361" />
    </linearGradient>
    <linearGradient
       inkscape:collect="always"
       xlink:href="#linearGradient7357"
       id="linearGradient7376"
       gradientUnits="userSpaceOnUse"
       x1="169.865"
       y1="162.356"
       x2="326"
       y2="162.356" />
  </defs>
  <sodipodi:namedview
     id="base"
     pagecolor="#ffffff"
     bordercolor="#666666"
     borderopacity="1.0"
     inkscape:pageopacity="0.0"
     inkscape:pageshadow="2"
     inkscape:zoom="0.5"
     inkscape:cx="767.16139"
     inkscape:cy="-157.48113"
     inkscape:document-units="px"
     inkscape:current-layer="layer1"
     showgrid="false"
     inkscape:window-width="1920"
     inkscape:window-height="1005"
     inkscape:window-x="1911"
     inkscape:window-y="-9"
     inkscape:window-maximized="1"
     showborder="true"
     inkscape:document-rotation="0" />
  <metadata
     id="metadata6594">
    <rdf:RDF>
      <cc:Work
         rdf:about="">
        <dc:format>image/svg+xml</dc:format>
        <dc:type
           rdf:resource="http://purl.org/dc/dcmitype/StillImage" />
        <dc:title />
      </cc:Work>
    </rdf:RDF>
  </metadata>
  <g
     inkscape:label="Layer 1"
     inkscape:groupmode="layer"
     id="layer1"
     transform="translate(210.024,-461.422)">
    <text
       id="text7276"
       y="487.499"
       x="-186.309"
       style="color:#000000;font-style:italic;font-variant:normal;font-weight:normal;font-stretch:normal;font-size:28.5451px;line-height:125%;font-family:'Trebuchet MS';-inkscape-font-specification:'Trebuchet MS, Italic';font-variant-ligatures:normal;font-variant-caps:normal;font-variant-numeric:normal;font-variant-east-asian:normal;text-indent:0;text-align:start;text-decoration:none;text-decoration-line:none;letter-spacing:0px;word-spacing:0px;text-transform:none;writing-mode:lr-tb;direction:ltr;baseline-shift:baseline;text-anchor:start;display:inline;overflow:visible;visibility:visible;fill:#007ad2;fill-opacity:1;fill-rule:nonzero;stroke:none;stroke-width:0.550001px;marker:none;enable-background:accumulate"
       xml:space="preserve"
       transform="scale(0.998254,1.00175)"><tspan
         y="487.499"
         x="-186.309"
         id="tspan7278"
         sodipodi:role="line"
         style="font-style:italic;font-variant:normal;font-weight:normal;font-stretch:normal;font-size:28.5451px;font-family:'Trebuchet MS';-inkscape-font-specification:'Trebuchet MS, Italic';font-variant-ligatures:normal;font-variant-caps:normal;font-variant-numeric:normal;font-variant-east-asian:normal;stroke-width:0.550001px">f</tspan></text>
    <text
       xml:space="preserve"
       style="color:#000000;font-style:normal;font-variant:normal;font-weight:normal;font-stretch:normal;font-size:40px;line-height:125%;font-family:'Trebuchet MS';-inkscape-font-specification:'Trebuchet MS, Normal';font-variant-ligatures:normal;font-variant-caps:normal;font-variant-numeric:normal;font-variant-east-asian:normal;text-indent:0;text-align:start;text-decoration:none;text-decoration-line:none;letter-spacing:0px;word-spacing:0px;text-transform:none;writing-mode:lr-tb;direction:ltr;baseline-shift:baseline;text-anchor:start;display:inline;overflow:visible;visibility:visible;fill:#3465a4;fill-opacity:1;fill-rule:nonzero;stroke:none;stroke-width:0.288811px;marker:none;enable-background:accumulate"
       x="-209.962"
       y="490.108"
       id="text7280"
       transform="scale(0.998254,1.00175)"><tspan
         style="font-style:normal;font-variant:normal;font-weight:normal;font-stretch:normal;font-size:40px;line-height:125%;font-family:'Trebuchet MS';-inkscape-font-specification:'Trebuchet MS, Normal';font-variant-ligatures:normal;font-variant-caps:normal;font-variant-numeric:normal;font-variant-east-asian:normal;text-align:start;writing-mode:lr-tb;text-anchor:start;fill:#3465a4;stroke:none;stroke-width:0.288811"
         sodipodi:role="line"
         id="tspan7282"
         x="-209.962"
         y="490.108">∫</tspan></text>
    <text
       xml:space="preserve"
       style="color:#000000;font-style:italic;font-variant:normal;font-weight:normal;font-stretch:normal;font-size:28.5451px;line-height:125%;font-family:'Trebuchet MS';-inkscape-font-specification:'Trebuchet MS, Italic';font-variant-ligatures:normal;font-variant-caps:normal;font-variant-numeric:normal;font-variant-east-asian:normal;text-indent:0;text-align:start;text-decoration:none;text-decoration-line:none;letter-spacing:0px;word-spacing:0px;text-transform:none;writing-mode:lr-tb;direction:ltr;baseline-shift:baseline;text-anchor:start;display:inline;overflow:visible;visibility:visible;fill:#3465a4;fill-opacity:1;fill-rule:nonzero;stroke:none;stroke-width:0.550001px;marker:none;enable-background:accumulate"
       x="-23.3724"
       y="487.499"
       id="text7284"
       transform="scale(0.998254,1.00175)"><tspan
         sodipodi:role="line"
         id="tspan7286"
         x="-23.3724"
         y="487.499"
         style="font-style:italic;font-variant:normal;font-weight:normal;font-stretch:normal;font-size:28.5451px;font-family:'Trebuchet MS';-inkscape-font-specification:'Trebuchet MS, Italic';font-variant-ligatures:normal;font-variant-caps:normal;font-variant-numeric:normal;font-variant-east-asian:normal;fill:#3465a4;stroke-width:0.550001px">dx</tspan></text>
    <text
       xml:space="preserve"
       style="color:#000000;font-style:italic;font-variant:normal;font-weight:normal;font-stretch:normal;font-size:28.5451px;line-height:125%;font-family:'Trebuchet MS';-inkscape-font-specification:'Trebuchet MS, Italic';font-variant-ligatures:normal;font-variant-caps:normal;font-variant-numeric:normal;font-variant-east-asian:normal;text-indent:0;text-align:start;text-decoration:none;text-decoration-line:none;letter-spacing:0px;word-spacing:0px;text-transform:none;writing-mode:lr-tb;direction:ltr;baseline-shift:baseline;text-anchor:start;display:inline;overflow:visible;visibility:visible;fill:#007ad2;fill-opacity:1;fill-rule:nonzero;stroke:none;stroke-width:0.550001px;marker:none;enable-background:accumulate"
       x="-175.092"
       y="487.499"
       id="text7288"
       transform="scale(0.998254,1.00175)"><tspan
         sodipodi:role="line"
         id="tspan7290"
         x="-175.092"
         y="487.499"
         style="font-style:italic;font-variant:normal;font-weight:normal;font-stretch:normal;font-size:28.5451px;font-family:'Trebuchet MS';-inkscape-font-specification:'Trebuchet MS, Italic';font-variant-ligatures:normal;font-variant-caps:normal;font-variant-numeric:normal;font-variant-east-asian:normal;stroke-width:0.550001px">(</tspan></text>
    <text
       id="text7292"
       y="487.499"
       x="-107.764"
       style="color:#000000;font-style:italic;font-variant:normal;font-weight:normal;font-stretch:normal;font-size:28.5451px;line-height:125%;font-family:'Trebuchet MS';-inkscape-font-specification:'Trebuchet MS, Italic';font-variant-ligatures:normal;font-variant-caps:normal;font-variant-numeric:normal;font-variant-east-asian:normal;text-indent:0;text-align:start;text-decoration:none;text-decoration-line:none;letter-spacing:0px;word-spacing:0px;text-transform:none;writing-mode:lr-tb;direction:ltr;baseline-shift:baseline;text-anchor:start;display:inline;overflow:visible;visibility:visible;fill:#007ad2;fill-opacity:1;fill-rule:nonzero;stroke:none;stroke-width:0.550001px;marker:none;enable-background:accumulate"
       xml:space="preserve"
       transform="scale(0.998254,1.00175)"><tspan
         y="487.499"
         x="-107.764"
         id="tspan7294"
         sodipodi:role="line"
         style="font-style:italic;font-variant:normal;font-weight:normal;font-stretch:normal;font-size:28.5451px;font-family:'Trebuchet MS';-inkscape-font-specification:'Trebuchet MS, Italic';font-variant-ligatures:normal;font-variant-caps:normal;font-variant-numeric:normal;font-variant-east-asian:normal;stroke-width:0.550001px">)</tspan></text>
    <text
       id="text7296"
       y="487.499"
       x="-146.61"
       style="color:#000000;font-style:italic;font-variant:normal;font-weight:normal;font-stretch:normal;font-size:28.5451px;line-height:125%;font-family:'Trebuchet MS';-inkscape-font-specification:'Trebuchet MS, Italic';font-variant-ligatures:normal;font-variant-caps:normal;font-variant-numeric:normal;font-variant-east-asian:normal;text-indent:0;text-align:start;text-decoration:none;text-decoration-line:none;letter-spacing:0px;word-spacing:0px;text-transform:none;writing-mode:lr-tb;direction:ltr;baseline-shift:baseline;text-anchor:start;display:inline;overflow:visible;visibility:visible;fill:#4e9a06;fill-opacity:1;fill-rule:nonzero;stroke:none;stroke-width:0.550001px;marker:none;enable-background:accumulate"
       xml:space="preserve"
       transform="scale(0.998254,1.00175)"><tspan
         y="487.499"
         x="-146.61"
         id="tspan7298"
         sodipodi:role="line"
         style="font-style:italic;font-variant:normal;font-weight:normal;font-stretch:normal;font-size:28.5451px;font-family:'Trebuchet MS';-inkscape-font-specification:'Trebuchet MS, Italic';font-variant-ligatures:normal;font-variant-caps:normal;font-variant-numeric:normal;font-variant-east-asian:normal;stroke-width:0.550001px">(x)</tspan></text>
    <text
       xml:space="preserve"
       style="color:#000000;font-style:italic;font-variant:normal;font-weight:normal;font-stretch:normal;font-size:28.5451px;line-height:125%;font-family:'Trebuchet MS';-inkscape-font-specification:'Trebuchet MS, Italic';font-variant-ligatures:normal;font-variant-caps:normal;font-variant-numeric:normal;font-variant-east-asian:normal;text-indent:0;text-align:start;text-decoration:none;text-decoration-line:none;letter-spacing:0px;word-spacing:0px;text-transform:none;writing-mode:lr-tb;direction:ltr;baseline-shift:baseline;text-anchor:start;display:inline;overflow:visible;visibility:visible;fill:#73d216;fill-opacity:1;fill-rule:nonzero;stroke:none;stroke-width:0.550001px;marker:none;enable-background:accumulate"
       x="-71.0411"
       y="487.499"
       id="text7300"
       transform="scale(0.998254,1.00175)"><tspan
         sodipodi:role="line"
         id="tspan7302"
         x="-71.0411"
         y="487.499"
         style="font-style:italic;font-variant:normal;font-weight:normal;font-stretch:normal;font-size:28.5451px;font-family:'Trebuchet MS';-inkscape-font-specification:'Trebuchet MS, Italic';font-variant-ligatures:normal;font-variant-caps:normal;font-variant-numeric:normal;font-variant-east-asian:normal;stroke-width:0.550001px">'(x)</tspan></text>
    <g
       id="g7369"
       transform="matrix(0.513544,-0.012751,-0.008284,-0.413135,-225.472,588.494)"
       style="stroke-width:0.931572">
      <path
         style="color:#000000;display:inline;overflow:visible;visibility:visible;fill:#4e9a06;fill-opacity:1;fill-rule:nonzero;stroke:none;stroke-width:0.931572px;marker:none;enable-background:accumulate"
         id="path6406-2"
         d="m 173.613,168.002 c 0.641,0.986 1.285,1.963 1.828,3.008 0.645,1.26 1.161,2.567 1.576,3.919 0.419,1.424 0.757,2.865 1.01,4.327 0.274,1.657 0.36,3.336 0.395,5.012 0.03,1.787 -0.08,3.57 -0.226,5.35 -0.125,1.783 -0.259,3.565 -0.439,5.344 -0.186,1.974 -0.509,3.928 -0.934,5.863 -0.36,1.559 -0.773,3.105 -1.201,4.647 0,0 -12.738,-1.329 -12.738,-1.329 v 0 c 0.447,-1.378 0.796,-2.784 1.161,-4.186 0.406,-1.619 0.753,-3.25 0.904,-4.916 0.195,-1.729 0.349,-3.462 0.441,-5.2 0.145,-1.519 0.263,-3.042 0.264,-4.569 0,-1.279 -0.05,-2.562 -0.246,-3.828 -0.189,-1.116 -0.46,-2.212 -0.787,-3.296 -0.284,-0.85 -0.655,-1.668 -1.098,-2.448 -0.44,-0.692 -0.884,-1.387 -1.395,-2.029 0,0 11.485,-5.669 11.485,-5.669 z"
         inkscape:connector-curvature="0" />
      <path
         style="color:#000000;display:inline;overflow:visible;visibility:visible;fill:#4e9a06;fill-opacity:1;fill-rule:nonzero;stroke:none;stroke-width:0.931572px;marker:none;enable-background:accumulate"
         id="path6408-0"
         d="m 193.318,184.181 c -2.787,0.663 -7.514,1.51 5.233,-0.813 -0.91,-0.185 -1.629,0.175 -2.443,0.506 -1.069,0.402 -2.057,1.002 -2.969,1.683 -1.143,0.783 -2.272,1.592 -3.362,2.448 -1.238,0.884 -2.352,1.917 -3.506,2.904 -1.081,0.889 -2.058,1.897 -2.968,2.958 -0.96,1.098 -1.711,2.346 -2.464,3.589 -0.813,1.442 -1.523,2.939 -2.233,4.433 -0.698,1.475 -1.321,2.987 -1.888,4.518 -0.07,0.216 -0.14,0.432 -0.211,0.648 0,0 -12.751,-1.191 -12.751,-1.191 v 0 c 0.08,-0.332 0.165,-0.664 0.247,-0.996 0.556,-1.857 1.29,-3.646 2.033,-5.435 0.759,-1.641 1.527,-3.278 2.333,-4.896 0.828,-1.647 1.76,-3.251 2.801,-4.772 1.057,-1.475 2.184,-2.893 3.457,-4.19 1.215,-1.168 2.497,-2.262 3.744,-3.395 1.183,-0.935 2.345,-1.89 3.548,-2.8 1.208,-0.802 2.283,-1.798 3.511,-2.578 1.207,-0.738 2.421,-1.481 3.695,-2.103 4.131,-0.772 7.03,-1.721 10.835,-1.469 0,0 -6.642,10.951 -6.642,10.951 z"
         inkscape:connector-curvature="0" />
      <path
         inkscape:transform-center-y="-0.787945"
         inkscape:transform-center-x="-10.717"
         inkscape:connector-curvature="0"
         d="m 321.611,163.243 c -0.657,0.974 -1.318,1.94 -1.878,2.976 -0.666,1.249 -1.204,2.547 -1.642,3.892 -0.442,1.417 -0.805,2.852 -1.082,4.31 -0.302,1.652 -0.416,3.329 -0.479,5.005 -0.06,1.785 0.02,3.571 0.137,5.352 0.1,1.785 0.199,3.57 0.349,5.351 0.153,1.977 0.443,3.936 0.835,5.878 0.334,1.565 0.721,3.118 1.123,4.666 0,0 12.759,-1.115 12.759,-1.115 v 0 c -0.424,-1.385 -0.75,-2.797 -1.091,-4.205 -0.379,-1.625 -0.699,-3.262 -0.822,-4.93 -0.165,-1.732 -0.29,-3.468 -0.353,-5.207 -0.119,-1.521 -0.212,-3.046 -0.188,-4.573 0.03,-1.279 0.09,-2.56 0.311,-3.824 0.207,-1.112 0.497,-2.203 0.842,-3.281 0.298,-0.846 0.683,-1.657 1.139,-2.43 0.451,-0.684 0.907,-1.372 1.428,-2.005 0,0 -11.388,-5.86 -11.388,-5.86 z"
         id="path7341"
         style="color:#000000;display:inline;overflow:visible;visibility:visible;fill:#73d216;fill-opacity:1;fill-rule:nonzero;stroke:none;stroke-width:0.931572px;marker:none;enable-background:accumulate" />
      <path
         inkscape:transform-center-y="2.48757"
         inkscape:transform-center-x="0.94842"
         inkscape:connector-curvature="0"
         d="m 301.637,179.089 c 2.776,0.709 7.488,1.635 -5.219,-0.901 0.913,-0.17 1.626,0.202 2.435,0.547 1.062,0.42 2.04,1.036 2.94,1.732 1.13,0.803 2.245,1.63 3.321,2.504 1.223,0.905 2.319,1.957 3.457,2.963 1.066,0.906 2.026,1.931 2.918,3.007 0.942,1.114 1.671,2.375 2.403,3.63 0.789,1.456 1.474,2.964 2.159,4.47 0.672,1.487 1.271,3.009 1.812,4.549 0.07,0.217 0.133,0.434 0.199,0.652 0,0 12.77,-0.978 12.77,-0.978 v 0 c -0.08,-0.333 -0.154,-0.667 -0.231,-1 -0.524,-1.866 -1.228,-3.667 -1.941,-5.468 -0.731,-1.654 -1.471,-3.303 -2.25,-4.934 -0.801,-1.661 -1.706,-3.281 -2.722,-4.819 -1.032,-1.492 -2.135,-2.93 -3.385,-4.247 -1.196,-1.188 -2.459,-2.304 -3.687,-3.457 -1.168,-0.955 -2.313,-1.93 -3.501,-2.859 -1.194,-0.823 -2.253,-1.836 -3.467,-2.637 -1.194,-0.759 -2.395,-1.521 -3.659,-2.165 -4.117,-0.841 -7.001,-1.838 -10.809,-1.65 0,0 6.457,11.061 6.457,11.061 z"
         id="path7343"
         style="color:#000000;display:inline;overflow:visible;visibility:visible;fill:#73d216;fill-opacity:1;fill-rule:nonzero;stroke:none;stroke-width:0.931572px;marker:none;enable-background:accumulate" />
      <path
         sodipodi:nodetypes="czc"
         inkscape:connector-curvature="0"
         id="path7355"
         d="m 175,187.362 c -2,-5 18.003,-49.103 70,-50 51.997,-0.896 76,48 76,48"
         style="fill:none;stroke:url(#linearGradient7376);stroke-width:11.9377;stroke-linecap:butt;stroke-linejoin:miter;stroke-miterlimit:4;stroke-dasharray:none;stroke-opacity:1" />
    </g>
    <text
       id="text868"
       y="487.499"
       x="-161.443"
       style="color:#000000;font-style:italic;font-variant:normal;font-weight:normal;font-stretch:normal;font-size:28.5451px;line-height:125%;font-family:Arial;-inkscape-font-specification:'Arial, Italic';font-variant-ligatures:normal;font-variant-caps:normal;font-variant-numeric:normal;font-variant-east-asian:normal;text-indent:0;text-align:start;text-decoration:none;text-decoration-line:none;letter-spacing:0px;word-spacing:0px;text-transform:none;writing-mode:lr-tb;direction:ltr;baseline-shift:baseline;text-anchor:start;display:inline;overflow:visible;visibility:visible;fill:#4e9a06;fill-opacity:1;fill-rule:nonzero;stroke:none;stroke-width:0.550001px;marker:none;enable-background:accumulate"
       xml:space="preserve"
       transform="scale(0.998254,1.00175)"><tspan
         y="487.499"
         x="-161.443"
         id="tspan866"
         sodipodi:role="line"
         style="font-style:italic;font-variant:normal;font-weight:normal;font-stretch:normal;font-size:28.5451px;font-family:Arial;-inkscape-font-specification:'Arial, Italic';font-variant-ligatures:normal;font-variant-caps:normal;font-variant-numeric:normal;font-variant-east-asian:normal;stroke-width:0.550001px">g</tspan></text>
    <text
       xml:space="preserve"
       style="color:#000000;font-style:italic;font-variant:normal;font-weight:normal;font-stretch:normal;font-size:28.5451px;line-height:125%;font-family:Arial;-inkscape-font-specification:'Arial, Italic';font-variant-ligatures:normal;font-variant-caps:normal;font-variant-numeric:normal;font-variant-east-asian:normal;text-indent:0;text-align:start;text-decoration:none;text-decoration-line:none;letter-spacing:0px;word-spacing:0px;text-transform:none;writing-mode:lr-tb;direction:ltr;baseline-shift:baseline;text-anchor:start;display:inline;overflow:visible;visibility:visible;fill:#73d216;fill-opacity:1;fill-rule:nonzero;stroke:none;stroke-width:0.550001px;marker:none;enable-background:accumulate"
       x="-86.7466"
       y="487.499"
       id="text872"
       transform="scale(0.998254,1.00175)"><tspan
         sodipodi:role="line"
         id="tspan870"
         x="-86.7466"
         y="487.499"
         style="font-style:italic;font-variant:normal;font-weight:normal;font-stretch:normal;font-size:28.5451px;font-family:Arial;-inkscape-font-specification:'Arial, Italic';font-variant-ligatures:normal;font-variant-caps:normal;font-variant-numeric:normal;font-variant-east-asian:normal;stroke-width:0.550001px">g</tspan></text>
  </g>
</svg>
