<?xml version="1.0" encoding="UTF-8" standalone="no"?>
<svg
   xmlns:dc="http://purl.org/dc/elements/1.1/"
   xmlns:cc="http://creativecommons.org/ns#"
   xmlns:rdf="http://www.w3.org/1999/02/22-rdf-syntax-ns#"
   xmlns:svg="http://www.w3.org/2000/svg"
   xmlns="http://www.w3.org/2000/svg"
   xmlns:sodipodi="http://sodipodi.sourceforge.net/DTD/sodipodi-0.dtd"
   xmlns:inkscape="http://www.inkscape.org/namespaces/inkscape"
   width="308.3"
   height="162.6"
   version="1.1"
   id="svg73"
   sodipodi:docname="jump-4.svg"
   inkscape:version="1.0.1 (3bc2e813f5, 2020-09-07)">
  <metadata
     id="metadata77">
    <rdf:RDF>
      <cc:Work
         rdf:about="">
        <dc:format>image/svg+xml</dc:format>
        <dc:type
           rdf:resource="http://purl.org/dc/dcmitype/StillImage" />
      </cc:Work>
    </rdf:RDF>
  </metadata>
  <sodipodi:namedview
     pagecolor="#ffffff"
     bordercolor="#666666"
     borderopacity="1"
     objecttolerance="10"
     gridtolerance="10"
     guidetolerance="10"
     inkscape:pageopacity="0"
     inkscape:pageshadow="2"
     inkscape:window-width="640"
     inkscape:window-height="480"
     id="namedview75"
     showgrid="false"
     inkscape:current-layer="svg73" />
  <defs
     id="defs5">
    <marker
       style="overflow:visible"
       id="marker1228"
       refX="0.0"
       refY="0.0"
       orient="auto"
       inkscape:stockid="Arrow1Mend"
       inkscape:isstock="true">
      <path
         transform="scale(0.4) rotate(180) translate(10,0)"
         style="fill-rule:evenodd;stroke:#3465a4;stroke-width:1pt;stroke-opacity:1;fill:#3465a4;fill-opacity:1"
         d="M 0.0,0.0 L 5.0,-5.0 L -12.5,0.0 L 5.0,5.0 L 0.0,0.0 z "
         id="path1226" />
    </marker>
    <marker
       style="overflow:visible"
       id="marker1218"
       refX="0.0"
       refY="0.0"
       orient="auto"
       inkscape:stockid="Arrow1Mend"
       inkscape:isstock="true">
      <path
         transform="scale(0.4) rotate(180) translate(10,0)"
         style="fill-rule:evenodd;stroke:#3465a4;stroke-width:1pt;stroke-opacity:1;fill:#3465a4;fill-opacity:1"
         d="M 0.0,0.0 L 5.0,-5.0 L -12.5,0.0 L 5.0,5.0 L 0.0,0.0 z "
         id="path1216" />
    </marker>
    <marker
       id="id1"
       style="overflow:visible"
       orient="auto">
      <path
         transform="matrix(-0.8,0,0,-0.8,-10,0)"
         style="stroke:black;stroke-width:1pt"
         d="M 0,0 5,-5 -12.5,0 5,5 Z"
         id="path2" />
    </marker>
  </defs>
  <path
     style="overflow:visible;fill:#0197fd;fill-opacity:0.3;stroke:#0197fd;stroke-width:1.33;stroke-linejoin:round"
     d="m -0.024,161.788 h 182.4"
     id="path7" />
  <rect
     x="17.976"
     y="25.188"
     width="63.5"
     height="135.9"
     style="overflow:visible;fill:#986601;fill-opacity:0.3;stroke:#986601;stroke-width:2.83;stroke-linejoin:round"
     id="rect9" />
  <path
     style="overflow:visible;fill:none;stroke:#0197fd;stroke-width:3.51;stroke-linejoin:round"
     d="m 81.876,22.588 c 0,0 24.1,-2.7 42.8,31.9 22.7,42.1 21.4,95.9 21.4,95.9"
     id="path11" />
  <path
     style="overflow:visible;fill:none;stroke:#009100;stroke-width:1.71;stroke-linejoin:round"
     d="m 112.376,60.588 h 59.6"
     id="path13" />
  <text
     x="104.776"
     y="20.388"
     style="font-size:14.7px;font-family:Verdana;text-align:center;text-anchor:middle;overflow:visible;fill:#005c94;stroke-width:1.02"
     id="text15">t=0</text>
  <g
     transform="matrix(-0.454167,0,0,0.454167,190.137,-46.544)"
     id="g47">
    <path
       style="fill:#393839;stroke:#ffffff;stroke-width:0.44px"
       d="m 252.8,152 c -0.3,0.1 -0.8,0.2 -1.4,0.2 -0.6,0 -1,0.4 -1.4,0.7 -0.2,0.2 -0.8,0.2 -1.1,0.4 -0.4,0.2 -0.5,0.3 -0.5,0.8 0,0.6 0.3,0.6 0.8,0.9 0.5,0.3 1.3,0.2 1.9,0.2 0.7,0 0.9,-0.3 1.4,-0.5 0.4,-0.2 0.5,-0.3 1.1,-0.3 0.2,0 0.4,0.4 0.9,0.4 0.5,0 1,0 1.5,0 0.6,0 0.5,-0.3 0.6,-0.8 0.1,-0.4 0,-0.9 0,-1.3 0,0 -0.7,-0.6 -0.8,-0.6 -0.2,-0.2 -0.6,-0.3 -1.1,-0.3 -0.4,0 -0.9,0 -1.2,0 -0.4,0 -0.3,0 -0.8,0.2 z"
       id="path17" />
    <path
       style="fill:#393839;stroke:#ffffff;stroke-width:0.44px"
       d="m 262.2,152 c 0.3,0.2 0.8,0.3 1.4,0.4 0.6,0 0.9,0.5 1.3,0.9 0.2,0.2 0.8,0.3 1,0.5 0.4,0.2 0.5,0.4 0.4,0.9 0,0.6 -0.3,0.6 -0.9,0.8 -0.6,0.2 -1.7,0 -2.4,-0.1 -0.7,0 -0.9,-0.4 -1.4,-0.7 -0.4,-0.3 -0.5,-0.3 -1.1,-0.4 -0.2,0 0,0.4 -0.6,0.4 -0.5,0 -1,-0.1 -1.5,-0.2 -0.6,0 -0.5,-0.3 -0.5,-0.9 0,-0.4 0.1,-0.9 0.2,-1.3 0,0 0.8,-0.5 0.9,-0.5 0.2,-0.2 0.7,-0.2 1.1,-0.1 0.4,0 1,0.1 1.2,0.2 0.4,0.1 0.3,0 0.8,0.3 z"
       id="path19" />
    <path
       style="fill:#393839;stroke:#ffffff;stroke-width:1"
       d="m 250.7,126.6 c 0.9,0 1.6,1.2 1.5,2.1 0,0.7 0,2.3 -1,2.1 0,-0.3 0.7,-1.2 0.3,-1.3 0,0.5 -0.4,1.8 -1,1.2 0.4,-0.3 0.5,-1.8 0.2,-0.6 0,0.6 -1.2,1.2 -0.7,0.3 0.4,-0.2 0.2,-1.6 0.1,-0.7 0.1,0.5 -0.8,1.7 -0.9,0.9 0.8,-1.1 -0.1,-2.6 0.7,-3.7 0.2,-0.2 0.5,-0.2 0.7,-0.2 z"
       id="path21" />
    <path
       style="fill:#393839;stroke:#ffffff;stroke-width:1"
       d="m 251.8,127.7 c -0.4,3 -0.4,4.2 -0.5,8.1 -0.4,3.4 0.2,6.9 -0.5,10.2 0.3,1.5 0.2,2.8 0.2,6.7 2,-0.9 6.8,0.8 5.6,-1.7 -0.4,-2 -0.9,-5.4 -0.4,-7.5 0.7,-3.6 -0.1,-6.2 0.7,-9.8 0.4,2.9 0.5,4.7 0.4,7.6 -0.2,2.8 0.8,8.4 0.8,11.3 1.5,-0.6 5.9,1.3 5.3,-1.1 0.1,-3.5 -1.2,-9.7 -0.9,-13.2 0.1,-2.5 -0.1,-4.9 0,-7.3 0,-1.6 0,-1.6 -0.1,-3.3 -3.4,0 -7.1,0 -10.5,0 z"
       id="path23" />
    <path
       style="fill:#393839;stroke:#ffffff;stroke-width:1"
       d="m 257,103.9 c -1.3,0 -2.2,0.4 -2.6,2.3 0,0.5 -0.9,0.8 -1,1.4 0,0.4 0.9,0.2 0.7,0.5 0,0.1 -0.2,0.5 -0.2,0.7 0,0 0.2,0.2 0.2,0.2 0,0.1 -0.3,0 -0.3,0.1 0,0.2 0,0.6 0,0.8 0,0.6 0.6,0.7 1.3,0.9 0.2,0 0.2,0.6 0.4,0.9 0,0.7 -0.3,0.7 -1.1,1.3 1.8,1.3 3.6,1.3 5.1,0 -0.8,-1 -0.9,-0.8 -1.1,-1.5 0.1,-2 1,-2.1 1.4,-3 0.9,-2.1 0.1,-4.4 -2.1,-4.5 -0.2,0 -0.4,0 -0.6,0 z"
       id="path25" />
    <path
       style="fill:#393839;stroke:#ffffff;stroke-width:1"
       d="m 264.9,130.6 c -0.9,0 -1.6,1.2 -1.5,2.1 0,0.7 0,2.3 1,2.1 0,-0.3 -0.7,-1.2 -0.3,-1.3 0,0.5 0.4,1.8 1,1.2 -0.4,-0.3 -0.5,-1.8 -0.2,-0.6 0,0.6 1.2,1.2 0.7,0.3 -0.4,-0.2 -0.2,-1.6 -0.1,-0.7 -0.1,0.5 0.8,1.7 0.9,0.9 -0.8,-1.1 0.1,-2.6 -0.7,-3.7 -0.2,-0.2 -0.5,-0.2 -0.7,-0.2 z"
       id="path27" />
    <path
       style="fill:#393839;stroke:#ffffff;stroke-width:1"
       d="m 254.9,112.4 c -1.9,0.8 -2.9,1.2 -4.1,1.7 v 0.3 0 c -0.3,0.3 -0.5,0.5 -0.8,0.8 l -0.3,0.4 c -0.7,0.7 -1,1.1 -1.7,2.2 -0.6,0.9 -1.7,2.5 -1.9,3.5 -0.1,1.8 2.1,4.6 3.4,7.2 l 2.3,-1.2 c -0.5,-1.6 -0.9,-1.3 -1.7,-2.6 -1,-1.5 -0.7,-2 -1.3,-3.5 0.4,-1 2.3,-2.4 2.9,-3.1 v 1.7 c 0,2.3 0.2,5.3 0,8.1 h 10.7 c -0.4,-3.1 -0.4,-4.3 -0.5,-5.9 l 0.2,-2.6 0.2,-1.6 c 0.6,1 1.2,2 1.8,3 0.6,1 1,1.8 1.6,2.6 -0.3,1.8 -0.8,3.6 -1.3,5.3 -0.5,1.6 -0.3,0.7 -0.8,2.3 l 2.3,1.2 c 1.7,-4.1 2.3,-5.6 2.6,-8.4 l 0.1,-0.4 c 0,-0.2 0,-0.1 0,-0.4 l -0.3,-0.7 c -1.9,-4.1 -3.8,-7 -5.7,-8.9 l -0.4,0.2 v -0.2 l -3.1,-1 c -0.3,0.3 -0.8,0.3 -1.1,0.4 -0.7,0.3 -1.4,0.5 -3.1,-0.6 z"
       id="path29" />
    <path
       style="fill:#393839;stroke:#ffffff;stroke-width:1"
       d="m 258.3,103.2 c -1.3,0 -2.8,-1 -3.1,1.2 0,0.6 1.6,0.2 1.5,0.9 0,0.4 0.4,1.2 0.2,1.5 -0.7,1.2 -0.2,1.4 0.4,1 0.4,-0.2 0.5,-1.7 1.5,-1.1 0.8,0.5 -0.1,1.5 -0.4,1.7 0,0.9 0.4,0.5 -0.4,1.3 0.3,0 -0.2,1.8 1.3,0 0.5,-1.1 -0.2,-0.1 0.5,-1.3 0.6,-2.1 1.6,-2.9 0.2,-4.1 -0.1,-0.1 -1.4,-1.2 -1.6,-1.2 z"
       id="path31" />
    <rect
       x="251.7"
       y="127.9"
       width="10.8"
       height="0.8"
       style="fill:#393839;stroke:#ffffff;stroke-width:1"
       id="rect33" />
    <path
       style="fill:#393839;stroke:#ffffff;stroke-width:1"
       d="m 252.1,127.8 v 1.1 h 0.4 v -1.1 z m 2,0 v 1.1 h 0.4 v -1.1 z m 4.1,0 v 1.1 h 0.4 v -1.1 z m 2.5,0 v 1.1 h 0.4 v -1.1 z"
       id="path35" />
    <path
       style="fill:#393839;stroke:#ffffff;stroke-width:1"
       d="m 256.1,127.8 c -0.1,0 -0.2,0 -0.2,0.2 v 0.6 c 0,0.1 0.1,0.2 0.2,0.2 h 1.3 c 0.1,0 0.2,0 0.2,-0.2 V 128 c 0,-0.1 -0.1,-0.2 -0.2,-0.2 z m 0.1,0.1 h 1.1 c 0,0 0.2,0 0.2,0.2 v 0.5 c 0,0 0,0.2 -0.2,0.2 h -1.1 c 0,0 -0.2,0 -0.2,-0.2 v -0.5 c 0,0 0,-0.2 0.2,-0.2 z"
       id="path37" />
    <path
       style="fill:#393839;stroke:#ffffff;stroke-width:0.22"
       d="m 254.8,112 0.6,-0.1 v 0.4 l 0.5,0.4 0.2,0.4 h -0.9 l -0.7,0.9 c 0,-0.7 0.1,-1.7 0.3,-2 z"
       id="path39" />
    <path
       style="fill:#393839;stroke:#ffffff;stroke-width:0.18"
       d="m 258.1,126.1 -1.3,1.4 -1.3,-1.4 0.8,-12.4 h 1.1 l 0.8,12.4 z"
       id="path41" />
    <path
       style="fill:#393839;stroke:#ffffff;stroke-width:0.22"
       d="m 259,112 -0.6,-0.1 v 0.4 l -0.5,0.4 -0.2,0.4 h 0.9 l 0.7,0.9 c 0,-0.7 -0.1,-1.7 -0.3,-2 z"
       id="path43" />
    <path
       style="fill:#393839;stroke:#ffffff;stroke-width:0.34"
       d="m 255.7,112.8 h 2 l -0.4,1.1 h -1.1 z"
       id="path45" />
  </g>
  <text
     x="182.276"
     y="42.188"
     style="color:#000000;font-size:14.7px;font-family:Verdana;text-align:center;text-anchor:middle;overflow:visible;fill:#3465a4;stroke-width:1.02;"
     id="text49">from t=1</text>
  <text
     x="186.876"
     y="93.788"
     style="color:#000000;font-size:14.7px;font-family:Verdana;text-align:center;text-anchor:middle;overflow:visible;fill:#3465a4;stroke-width:1.02;"
     id="text51">to t=1+Δt</text>
  <path
     style="fill:none;stroke:#3465a4;stroke-width:1.17;marker-end:url(#marker1218);stroke-miterlimit:4;stroke-dasharray:none"
     d="m 150.076,43.388 -17.9,13.6"
     id="path53" />
  <path
     style="color:#000000;overflow:visible;fill:none;stroke:#3465a4;stroke-width:1.17;marker-end:url(#marker1228);stroke-miterlimit:4;stroke-dasharray:none"
     d="m 159.476,84.188 c -4.7,-2.9 -15.4,-10.3 -22.5,-15.1"
     id="path55" />
  <path
     style="overflow:visible;fill:none;stroke:#009100;stroke-width:1.71;stroke-linejoin:round"
     d="m 113.576,64.788 h 59.6"
     id="path57" />
  <circle
     cx="127.976"
     cy="60.688"
     r="2.57974"
     style="color:#000000;overflow:visible;fill:#9ade00;stroke-width:0.44"
     id="circle59" />
  <circle
     cx="130.176"
     cy="65.188"
     r="2.57974"
     style="color:#000000;overflow:visible;fill:#9ade00;stroke-width:0.44"
     id="circle61" />
  <text
     x="187.876"
     y="60.788"
     style="color:#000000;font-size:14.7px;font-family:Verdana;text-align:center;text-anchor:middle;overflow:visible;fill:#009100;stroke-width:1.02;"
     id="text63">5 m</text>
  <text
     x="242.376"
     y="73.888"
     style="color:#000000;font-size:14.7px;font-family:Verdana;text-align:center;text-anchor:middle;overflow:visible;fill:#009100;stroke-width:1.02;"
     id="text65">5+10Δt+5(Δt)² m</text>
  <text
     x="101.176"
     y="67.288"
     style="color:#000000;font-size:14.7px;font-family:Verdana;text-align:center;text-anchor:middle;overflow:visible;fill:#005c94;stroke-width:1.02"
     id="text67">Δt</text>
  <path
     style="overflow:visible;fill:#ccff99;fill-opacity:0.3;stroke:#fdca01;stroke-width:1.7;stroke-linejoin:round"
     d="m 129.076,147.588 c 9.1,2.9 17,7.4 34.2,0 2.3,5.1 2.5,9.7 0,13.7 -11.2,0.4 -22.4,0.9 -34.2,0 -3.3,-5 -1.6,-9.3 0,-13.7 z"
     id="path69" />
</svg>
