<?xml version="1.0" encoding="UTF-8" standalone="no"?>
<!-- Copyright 2017 mathsisfun.com -->
<svg xmlns="http://www.w3.org/2000/svg" width="66.2" height="107.2" version="1.1" style="font-family:'Comic Sans MS'; font-size:31.1px; stroke-width:1pt;">
<defs>
	<marker style="overflow:visible;" orient="auto">
		<path transform="matrix(-0.4,0,0,-0.4,-4,0)" style="fill:#ffd700; stroke:#ffd700;" d="M 0,0 5,-5 -12.5,0 5,5 Z"/>
	</marker>
	<marker style="overflow:visible;" orient="auto">
		<path transform="matrix(-0.4,0,0,-0.4,-4,0)" style="fill:#fdca01;" d="M 0,0 5,-5 -12.5,0 5,5 Z"/>
	</marker>
	<marker style="overflow:visible;" orient="auto">
		<path transform="matrix(-0.4,0,0,-0.4,-4,0)" style="fill:#fdca01; stroke:black;" d="M 0,0 5,-5 -12.5,0 5,5 Z"/>
	</marker>
	<marker style="overflow:visible;" orient="auto">
		<path transform="matrix(-0.4,0,0,-0.4,-4,0)" style="fill:#fdca01; stroke:black;" d="M 0,0 5,-5 -12.5,0 5,5 Z"/>
	</marker>
	<marker style="overflow:visible;" orient="auto">
		<path transform="matrix(0.4,0,0,0.4,4,0)" style="fill:black; stroke:black;" d="M 0,0 5,-5 -12.5,0 5,5 Z"/>
	</marker>
	<marker style="overflow:visible;" orient="auto">
		<path transform="matrix(-0.4,0,0,-0.4,-4,0)" style="fill:black; stroke:black;" d="M 0,0 5,-5 -12.5,0 5,5 Z"/>
	</marker>
</defs>
<text x="17.1" y="29.8" style="font-style:italic; fill:#8f5902; stroke-width:1.46px;">x</text>
<text x="39.1" y="17.3" style="font-size:22.6px; font-style:italic; fill:#8d5fd3; stroke-width:1.93px;">3</text>
<text x="18.3" y="106.6" style="font-style:italic; fill:#8f5902; stroke-width:1.46px;">x</text>
<text x="39.3" y="94.8" style="font-size:22.6px; font-style:italic; fill:#19aeff; stroke-width:1.93px;">2</text>
<text x="-1.1" y="105.8" style="font-style:italic; fill:#8d5fd3; stroke-width:1.46px;">3</text>
<path style="fill:none; stroke:#fff1a5; stroke-width:4.85;" d="M 10.3,74.6 C 7.3,42.1 47,39.5 46.3,21.8"/>
<text x="51.2" y="49.2" style="font-size:17.9px; font-style:italic; fill:#ffd700; stroke-width:0.9px;">-1</text>
<path style="fill:none; stroke:#ffd700; stroke-width:4.85;" d="M 46.4,34 V 68.9"/>
<path style="fill:none; stroke:#ffd700; stroke-width:4.85;" d="m 56.4,54.3 c -0.6,0.4 -10,14.6 -10,14.6 L 38.2,52.3"/>
<path style="fill:none; stroke:#fff1a5; stroke-width:4.85;" d="m 20.3,59.9 c -0.6,0.4 -10,14.6 -10,14.6 L 2.2,57.9"/>
</svg>