<?xml version="1.0" encoding="UTF-8" standalone="no"?>
<svg
   xmlns:dc="http://purl.org/dc/elements/1.1/"
   xmlns:cc="http://creativecommons.org/ns#"
   xmlns:rdf="http://www.w3.org/1999/02/22-rdf-syntax-ns#"
   xmlns:svg="http://www.w3.org/2000/svg"
   xmlns="http://www.w3.org/2000/svg"
   xmlns:xlink="http://www.w3.org/1999/xlink"
   xmlns:sodipodi="http://sodipodi.sourceforge.net/DTD/sodipodi-0.dtd"
   xmlns:inkscape="http://www.inkscape.org/namespaces/inkscape"
   width="189.208"
   height="115.741"
   version="1.1"
   style="font-size:20px;font-family:'Comic Sans MS';fill:none;stroke-width:1"
   id="svg96"
   sodipodi:docname="solid-shell-conem1-3.svg"
   inkscape:version="1.0.1 (3bc2e813f5, 2020-09-07)">
  <metadata
     id="metadata100">
    <rdf:RDF>
      <cc:Work
         rdf:about="">
        <dc:format>image/svg+xml</dc:format>
        <dc:type
           rdf:resource="http://purl.org/dc/dcmitype/StillImage" />
      </cc:Work>
    </rdf:RDF>
  </metadata>
  <sodipodi:namedview
     pagecolor="#ffffff"
     bordercolor="#666666"
     borderopacity="1"
     objecttolerance="10"
     gridtolerance="10"
     guidetolerance="10"
     inkscape:pageopacity="0"
     inkscape:pageshadow="2"
     inkscape:window-width="640"
     inkscape:window-height="480"
     id="namedview98"
     showgrid="false"
     inkscape:current-layer="svg96"
     inkscape:snap-global="false" />
  <defs
     id="defs48">
    <linearGradient
       id="linearGradient1371">
      <stop
         offset="0"
         style="stop-color:#007dc1;stop-opacity:1"
         id="stop1365" />
      <stop
         offset="1"
         style="stop-color:#ffffff;stop-opacity:1"
         id="stop1369" />
    </linearGradient>
    <marker
       style="overflow:visible"
       id="marker1255"
       refX="0"
       refY="0"
       orient="auto"
       inkscape:stockid="Arrow1Lend"
       inkscape:isstock="true">
      <path
         transform="matrix(-0.8,0,0,-0.8,-10,0)"
         style="fill:#3465a4;fill-opacity:1;fill-rule:evenodd;stroke:#3465a4;stroke-width:1pt;stroke-opacity:1"
         d="M 0,0 5,-5 -12.5,0 5,5 Z"
         id="path1253" />
    </marker>
    <marker
       style="overflow:visible"
       id="marker1245"
       refX="0"
       refY="0"
       orient="auto"
       inkscape:stockid="Arrow1Lend"
       inkscape:isstock="true">
      <path
         transform="matrix(-0.8,0,0,-0.8,-10,0)"
         style="fill:#3465a4;fill-opacity:1;fill-rule:evenodd;stroke:#3465a4;stroke-width:1pt;stroke-opacity:1"
         d="M 0,0 5,-5 -12.5,0 5,5 Z"
         id="path1243" />
    </marker>
    <linearGradient
       id="id3">
      <stop
         offset="0"
         style="stop-color:#0250ed;stop-opacity:1"
         id="stop2" />
      <stop
         offset="1"
         style="stop-color:#bfd4ff;stop-opacity:1"
         id="stop4" />
    </linearGradient>
    <marker
       style="overflow:visible"
       orient="auto"
       id="marker9">
      <path
         transform="matrix(-0.8,0,0,-0.8,-10,0)"
         style="stroke:#000000"
         d="M 0,0 5,-5 -12.5,0 5,5 Z"
         id="path7" />
    </marker>
    <linearGradient
       id="id2">
      <stop
         offset="0"
         style="stop-color:#005c8f;stop-opacity:1"
         id="stop11" />
      <stop
         offset="0.305"
         style="stop-color:#057dbf;stop-opacity:0.69"
         id="stop13" />
      <stop
         offset="1"
         style="stop-color:#19aeff;stop-opacity:0"
         id="stop15" />
    </linearGradient>
    <marker
       style="overflow:visible"
       orient="auto"
       id="marker20">
      <path
         transform="matrix(-0.8,0,0,-0.8,-10,0)"
         style="stroke:#000000"
         d="M 0,0 5,-5 -12.5,0 5,5 Z"
         id="path18" />
    </marker>
    <radialGradient
       r="19.5106"
       fx="-207.624"
       fy="206.138"
       cx="-207.6"
       cy="206.1"
       gradientTransform="matrix(1.08223,0,0,0.602052,435.948,-36.0177)"
       xlink:href="#id1"
       gradientUnits="userSpaceOnUse"
       id="radialGradient22" />
    <linearGradient
       id="id1">
      <stop
         offset="0"
         style="stop-color:white;stop-opacity:1"
         id="stop24" />
      <stop
         offset="1"
         style="stop-color:white;stop-opacity:0"
         id="stop26" />
    </linearGradient>
    <linearGradient
       id="linearGradient33">
      <stop
         offset="0"
         style="stop-color:#009ef4;stop-opacity:1"
         id="stop29" />
      <stop
         offset="1"
         style="stop-color:#19aeff;stop-opacity:0"
         id="stop31" />
    </linearGradient>
    <linearGradient
       gradientTransform="matrix(0,0.999997,-0.999997,0,114.123,315.137)"
       xlink:href="#id2"
       x1="-221.3"
       y1="78.3"
       x2="-259.4"
       y2="-25.3"
       gradientUnits="userSpaceOnUse"
       id="linearGradient35" />
    <radialGradient
       id="id8"
       r="19.5106"
       fx="-207.624"
       fy="206.138"
       cx="-207.6"
       cy="206.1"
       gradientTransform="matrix(1.08223,0,0,0.602052,360.353,-193.096)"
       xlink:href="#id1"
       gradientUnits="userSpaceOnUse" />
    <marker
       id="id4"
       style="overflow:visible"
       orient="auto">
      <path
         transform="matrix(-0.8,0,0,-0.8,-10,0)"
         style="fill:#000000;stroke:#000000;stroke-width:1pt"
         d="M 0,0 5,-5 -12.5,0 5,5 Z"
         id="path38" />
    </marker>
    <radialGradient
       id="id5"
       r="19.5106"
       fx="-207.624"
       fy="206.138"
       cx="-207.6"
       cy="206.1"
       gradientTransform="matrix(1.08223,0,0,0.602052,292.899,-119.734)"
       xlink:href="#id1"
       gradientUnits="userSpaceOnUse" />
    <marker
       style="overflow:visible"
       orient="auto"
       id="marker44">
      <path
         transform="matrix(-0.8,0,0,-0.8,-10,0)"
         style="fill:#000000;stroke:#000000;stroke-width:1pt"
         d="M 0,0 5,-5 -12.5,0 5,5 Z"
         id="path42" />
    </marker>
    <linearGradient
       id="id7"
       gradientTransform="matrix(0,0.816653,-0.816772,0,123.659,254.87)"
       xlink:href="#linearGradient1371"
       x1="-221.3"
       y1="78.3"
       x2="-259.4"
       y2="-25.3"
       gradientUnits="userSpaceOnUse" />
    <linearGradient
       id="id6"
       gradientTransform="translate(-26.7163,51.0167)"
       xlink:href="#id3"
       x1="108.9"
       y1="12.4"
       x2="141.7"
       y2="12.4"
       gradientUnits="userSpaceOnUse" />
    <linearGradient
       inkscape:collect="always"
       xlink:href="#linearGradient1371"
       id="linearGradient1379"
       x1="51.9428"
       y1="-91.1594"
       x2="35.5132"
       y2="-81.0923"
       gradientUnits="userSpaceOnUse"
       gradientTransform="translate(-9.87068,-10.2861)" />
    <linearGradient
       id="id7-5"
       gradientTransform="matrix(0.527119,0,0,-0.438546,-59.5349,366.479)"
       xlink:href="#id4-9"
       x1="9.1"
       y1="643.8"
       x2="-120"
       y2="644.8"
       gradientUnits="userSpaceOnUse" />
    <linearGradient
       id="id4-9">
      <stop
         offset="0"
         style="stop-color:#d98200;stop-opacity:1"
         id="stop62" />
      <stop
         offset="0.444"
         style="stop-color:#efe87e;stop-opacity:0.91"
         id="stop64" />
      <stop
         offset="1"
         style="stop-color:#ffd491;stop-opacity:0.89"
         id="stop66" />
    </linearGradient>
    <linearGradient
       id="id8-4"
       gradientTransform="matrix(0.527119,0,0,0.438546,-59.5349,-133.741)"
       xlink:href="#id4-9"
       x1="-122"
       y1="534.7"
       x2="10"
       y2="534.7"
       gradientUnits="userSpaceOnUse" />
    <marker
       id="id9"
       style="overflow:visible"
       orient="auto">
      <path
         transform="matrix(-0.4,0,0,-0.4,-4,0)"
         style="fill:#8f5902;stroke:#8f5902;stroke-width:1pt"
         d="M 0,0 5,-5 -12.5,0 5,5 Z"
         id="path58-1" />
    </marker>
    <marker
       id="id10"
       style="overflow:visible"
       orient="auto">
      <path
         transform="matrix(-0.4,0,0,-0.4,-4,0)"
         style="fill:#8f5902;stroke:#8f5902;stroke-width:1pt"
         d="M 0,0 5,-5 -12.5,0 5,5 Z"
         id="path49" />
    </marker>
    <marker
       id="id12"
       style="overflow:visible"
       orient="auto">
      <path
         transform="matrix(0.8,0,0,0.8,10,0)"
         style="fill:#009100;stroke:#009100;stroke-width:1pt"
         d="M 0,0 5,-5 -12.5,0 5,5 Z"
         id="path52-2" />
    </marker>
    <marker
       id="id13"
       style="overflow:visible"
       orient="auto">
      <path
         transform="matrix(-0.8,0,0,-0.8,-10,0)"
         style="fill:#009100;stroke:#009100;stroke-width:1pt"
         d="M 0,0 5,-5 -12.5,0 5,5 Z"
         id="path55" />
    </marker>
  </defs>
  <path
     style="fill:#3465a4;stroke:#3465a4;stroke-width:1;marker-end:url(#marker1245)"
     d="M 10.5669,85.7826 H 187.267"
     id="path50" />
  <path
     style="fill:none;stroke:#c4a000;stroke-width:0.97"
     d="M 15.6669,100.541 111.067,4.74136"
     id="path58" />
  <text
     x="170.367"
     y="77.6414"
     style="font-style:italic;font-size:20px;font-family:'Comic Sans MS';fill:#3465a4;stroke-width:1px"
     id="text60">x</text>
  <text
     x="12.6669"
     y="12.9414"
     style="font-style:italic;font-size:20px;font-family:'Comic Sans MS';fill:#3465a4;stroke-width:1px"
     id="text62">y</text>
  <text
     x="30.7669"
     y="114.541"
     style="font-style:italic;font-size:20px;font-family:'Comic Sans MS';fill:#0084c8;stroke-width:1px"
     id="text64">0</text>
  <path
     style="fill:#3465a4;stroke:#3465a4;stroke-width:1;marker-end:url(#marker1255)"
     d="M 31.1669,114.941 V 1.94136"
     id="path68" />
  <path
     style="stroke:#0084c8;stroke-width:1;stroke-dasharray:3, 3"
     d="M 98.9669,96.9414 V 115.341"
     id="path74" />
  <text
     x="81.9669"
     y="114.541"
     style="font-style:italic;font-size:20px;font-family:'Comic Sans MS';fill:#19aeff;stroke-width:1px"
     id="text78">3</text>
  <text
     x="99.8669"
     y="114.541"
     style="font-style:italic;font-size:20px;font-family:'Comic Sans MS';fill:#19aeff;stroke-width:1px"
     id="text80">4</text>
  <path
     style="stroke:#0084c8;stroke-width:1.36;stroke-dasharray:1.4, 4.1"
     d="M 81.8669,97.5414 V 115.741"
     id="path82" />
  <path
     style="fill:url(#id7);stroke:#000000;stroke-width:0.66;stroke-miterlimit:4;stroke-dasharray:none"
     d="m 100.02,29.6533 c -7.8,0 -15.2531,1.3881 -18.0531,4.5881 l -49,48.7 c -1.5,0.8 -2.3,1.7 -2.3,2.6 0,5.5 30.3,10 67.6,10 37.3001,0 67.6001,-4.5 67.6001,-10 0,-0.2 0,-0.4 -0.1,-0.6 h 0.3 l -50.2,-50.8 c -3.3,-2.9 -8.047,-4.4881 -15.847,-4.4881 z"
     id="path86"
     sodipodi:nodetypes="sccssscccs" />
  <path
     style="stroke:#204a87;stroke-width:1;stroke-dasharray:3, 3"
     d="m 99.1669,38.4414 v 56.7"
     id="path92" />
  <ellipse
     cx="135.65"
     cy="-69.047"
     rx="21.1"
     ry="11.7"
     transform="matrix(0.588789,0.808287,-0.776813,0.629732,0,0)"
     style="font-size:20px;font-family:'Comic Sans MS';fill:url(#id8);stroke-width:2.89"
     id="ellipse94" />
  <g
     transform="translate(187.233,-4.70389)"
     id="g56"
     style="fill:#3465a4;fill-opacity:0.113402;stroke:#000000;stroke-width:0.5;stroke-miterlimit:4;stroke-dasharray:none;stroke-opacity:0.137457">
    <path
       style="fill:#3465a4;fill-opacity:0.113402;stroke:#000000;stroke-width:0.5;stroke-miterlimit:4;stroke-dasharray:none;stroke-opacity:0.137457"
       d="m -88.6,79.8 a 67.7,10.3 0 0 0 -67.7,10.3 67.7,10.3 0 0 0 67.7,10.3 67.7,10.3 0 0 0 67.8,-10.3 67.7,10.3 0 0 0 -67.8,-10.3 z m 0,5.4 a 16.2,4.9 0 0 1 16.2,4.9 16.2,4.9 0 0 1 -16.2,4.9 16.2,4.9 0 0 1 -16.2,-4.9 16.2,4.9 0 0 1 16.2,-4.9 z"
       id="path52" />
    <path
       style="fill:#3465a4;fill-opacity:0.113402;stroke:#000000;stroke-width:0.5;stroke-miterlimit:4;stroke-dasharray:none;stroke-opacity:0.137457"
       d="M -21.3,90.1 H -155.8"
       id="path54" />
  </g>
  <path
     style="stroke:#0084c8;stroke-width:1.09;stroke-dasharray:1.1, 3.3"
     d="m 81.8669,21.5414 v 11.7"
     id="path76" />
  <path
     style="stroke:#204a87;stroke-width:1.45;stroke-miterlimit:4;stroke-dasharray:1.37368, 4.27368;stroke-dashoffset:0"
     d="m 82.0669,35.7414 v 59.6"
     id="path90" />
  <path
     style="stroke:#0084c8;stroke-width:1.01959;stroke-dasharray:3.05878, 3.05878"
     d="M 99.1669,9.54136 V 38.4414"
     id="path88" />
  <path
     style="font-size:20px;font-family:'Comic Sans MS';fill:#8f5902;stroke:#8f5902;stroke-width:0.96px;marker-end:url(#id9)"
     d="m 97.7517,41.1831 h -21.3"
     id="path108" />
  <text
     x="125.642"
     y="20.5252"
     style="font-style:italic;font-size:16px;font-family:'Comic Sans MS';fill:#8f5902;stroke-width:0.65px"
     id="text110">r = 4-x</text>
  <path
     style="font-size:20px;font-family:'Comic Sans MS';fill:#db8d0d;stroke:#009100;stroke-width:1px"
     d="m 27.0047,40.5125 h 43.7"
     id="path112" />
  <path
     style="font-size:20px;font-family:'Comic Sans MS';fill:none;stroke:#8f5902;stroke-width:1px;marker-end:url(#id10)"
     d="m 142.571,24.5731 c 0,0 -3.3,4.1 -7.1,5.5 -3.8,1.4 -5.4,0 -8.8,2.2 -3.4,2.1 -3.9,2.7 -7.4,7.1"
     id="path114" />
  <text
     x="-1.19531"
     y="61.4125"
     style="font-style:italic;font-size:16px;font-family:'Comic Sans MS';fill:#009100;stroke-width:0.77px"
     id="text122">h=x</text>
  <g
     style="font-size:20px;font-family:'Comic Sans MS';fill:none;stroke-width:1px"
     transform="matrix(0.673549,0,0,0.673549,158.39,-15.1916)"
     id="g106">
    <path
       style="fill:url(#id7-5);stroke-width:0.89"
       d="m -54.5,148.7 c 0,-5.3 -15.5,-9.5 -34.5,-9.5 -19.1,0 -34.5,4.3 -34.5,9.5 V 83.6 c 0,-5.3 15.5,-9.5 34.5,-9.5 19.1,0 34.5,4.3 34.5,9.5 z"
       id="path98" />
    <path
       style="fill:url(#id8-4);stroke-width:0.89"
       d="m -54.5,84 c 0,5.3 -15.5,9.5 -34.5,9.5 -19.1,0 -34.5,-4.3 -34.5,-9.5 v 65.1 c 0,5.3 15.5,9.5 34.5,9.5 19.1,0 34.5,-4.3 34.5,-9.5 z"
       id="path100" />
    <ellipse
       cx="-88.6"
       cy="84.3"
       rx="34.5"
       ry="9.3"
       style="font-family:'Comic Sans MS';fill:none;stroke:#005c94;stroke-width:1"
       id="ellipse102" />
    <path
       style="fill:#db8d0d;stroke:#009100;stroke-width:1px"
       d="m -54.3,84.9 v 64"
       id="path104" />
  </g>
  <path
     style="fill:url(#id6);stroke:#000000;stroke-width:0.25"
     d="m 98.0082,33.7008 c -5.4,0 -10.5147,-0.9301 -15.6147,0.3699 l -0.085,11.0907 c 0,0.1333 0,0.2667 0,0.4 l 0.064,0.3346 c 5.0923,1.6464 11.8629,1.9916 17.426,2.0428 4.1958,-0.168 10.7098,-0.4604 15.0378,-1.9816 l 0.213,-11.6305 c -5.7,-1 -11.641,-0.5259 -17.0408,-0.6259 z"
     id="path72"
     sodipodi:nodetypes="ccccccccc" />
  <ellipse
     cx="33.7297"
     cy="-98.8848"
     rx="4.5"
     ry="16.2"
     transform="rotate(90)"
     style="font-size:20px;font-family:'Comic Sans MS';fill:url(#linearGradient1379);fill-opacity:1;stroke:#000000;stroke-width:0.25"
     id="ellipse84" />
  <path
     style="font-size:20px;font-family:'Comic Sans MS';fill:none;stroke:#009100;stroke-width:0.82px;marker-start:url(#id12);marker-end:url(#id13)"
     d="m 36.7047,42.1125 v 40.5"
     id="path120" />
</svg>
