<?xml version="1.0" encoding="UTF-8" standalone="no"?>
<svg
   xmlns:dc="http://purl.org/dc/elements/1.1/"
   xmlns:cc="http://creativecommons.org/ns#"
   xmlns:rdf="http://www.w3.org/1999/02/22-rdf-syntax-ns#"
   xmlns:svg="http://www.w3.org/2000/svg"
   xmlns="http://www.w3.org/2000/svg"
   xmlns:sodipodi="http://sodipodi.sourceforge.net/DTD/sodipodi-0.dtd"
   xmlns:inkscape="http://www.inkscape.org/namespaces/inkscape"
   width="316"
   height="89.1"
   version="1.1"
   style="font-family:'Comic Sans MS';font-size:20px;fill:black;stroke-width:1pt"
   id="svg56"
   sodipodi:docname="solid-rev-1.svg"
   inkscape:version="1.0.1 (3bc2e813f5, 2020-09-07)">
  <metadata
     id="metadata60">
    <rdf:RDF>
      <cc:Work
         rdf:about="">
        <dc:format>image/svg+xml</dc:format>
        <dc:type
           rdf:resource="http://purl.org/dc/dcmitype/StillImage" />
      </cc:Work>
    </rdf:RDF>
  </metadata>
  <sodipodi:namedview
     pagecolor="#ffffff"
     bordercolor="#666666"
     borderopacity="1"
     objecttolerance="10"
     gridtolerance="10"
     guidetolerance="10"
     inkscape:pageopacity="0"
     inkscape:pageshadow="2"
     inkscape:window-width="640"
     inkscape:window-height="480"
     id="namedview58"
     showgrid="false"
     inkscape:current-layer="svg56" />
  <defs
     id="defs36">
    <marker
       style="overflow:visible"
       id="marker1283"
       refX="0.0"
       refY="0.0"
       orient="auto"
       inkscape:stockid="Arrow1Lend"
       inkscape:isstock="true">
      <path
         transform="scale(0.8) rotate(180) translate(12.5,0)"
         style="fill-rule:evenodd;stroke:#3465a4;stroke-width:1pt;stroke-opacity:1;fill:#3465a4;fill-opacity:1"
         d="M 0.0,0.0 L 5.0,-5.0 L -12.5,0.0 L 5.0,5.0 L 0.0,0.0 z "
         id="path1281" />
    </marker>
    <marker
       style="overflow:visible"
       id="marker1273"
       refX="0.0"
       refY="0.0"
       orient="auto"
       inkscape:stockid="Arrow1Lend"
       inkscape:isstock="true">
      <path
         transform="scale(0.8) rotate(180) translate(12.5,0)"
         style="fill-rule:evenodd;stroke:#3465a4;stroke-width:1pt;stroke-opacity:1;fill:#3465a4;fill-opacity:1"
         d="M 0.0,0.0 L 5.0,-5.0 L -12.5,0.0 L 5.0,5.0 L 0.0,0.0 z "
         id="path1271" />
    </marker>
    <marker
       style="overflow:visible"
       orient="auto"
       id="marker4">
      <path
         transform="matrix(0.8,0,0,0.8,10,0)"
         style="fill:#204a87;stroke:#204a87"
         d="M 0,0 5,-5 -12.5,0 5,5 Z"
         id="path2" />
    </marker>
    <marker
       style="overflow:visible"
       orient="auto"
       id="marker8">
      <path
         transform="matrix(0.8,0,0,0.8,10,0)"
         style="fill:#009100;stroke:#009100"
         d="M 0,0 5,-5 -12.5,0 5,5 Z"
         id="path6" />
    </marker>
    <marker
       style="overflow:visible"
       orient="auto"
       id="marker12">
      <path
         transform="matrix(-0.8,0,0,-0.8,-10,0)"
         style="fill:#009100;stroke:#009100"
         d="M 0,0 5,-5 -12.5,0 5,5 Z"
         id="path10" />
    </marker>
    <marker
       style="overflow:visible"
       orient="auto"
       id="marker16">
      <path
         transform="matrix(0.4,0,0,0.4,4,0)"
         style="fill:#009100;stroke:#009100"
         d="M 0,0 5,-5 -12.5,0 5,5 Z"
         id="path14" />
    </marker>
    <marker
       style="overflow:visible"
       orient="auto"
       id="marker20">
      <path
         transform="matrix(-0.4,0,0,-0.4,-4,0)"
         style="fill:#373737;stroke:#373737"
         d="M 0,0 5,-5 -12.5,0 5,5 Z"
         id="path18" />
    </marker>
    <marker
       style="overflow:visible"
       orient="auto"
       id="marker24">
      <path
         transform="matrix(-0.4,0,0,-0.4,-4,0)"
         style="stroke:black"
         d="M 0,0 5,-5 -12.5,0 5,5 Z"
         id="path22" />
    </marker>
    <marker
       style="overflow:visible"
       orient="auto"
       id="marker28">
      <path
         transform="matrix(-0.8,0,0,-0.8,-10,0)"
         style="stroke:black"
         d="M 0,0 5,-5 -12.5,0 5,5 Z"
         id="path26" />
    </marker>
    <marker
       id="id2"
       style="overflow:visible"
       orient="auto">
      <path
         transform="matrix(-0.8,0,0,-0.8,-10,0)"
         style="stroke:black"
         d="M 0,0 5,-5 -12.5,0 5,5 Z"
         id="path30" />
    </marker>
    <marker
       id="id1"
       style="overflow:visible"
       orient="auto">
      <path
         transform="matrix(-0.8,0,0,-0.8,-10,0)"
         style="stroke:black"
         d="M 0,0 5,-5 -12.5,0 5,5 Z"
         id="path33" />
    </marker>
  </defs>
  <path
     style="fill:none;stroke:#3465a4;stroke-width:1;marker-end:url(#marker1273)"
     d="m -0.046,70.325 h 314.1"
     id="path38" />
  <path
     style="fill:none;stroke:#0084c8;stroke-width:1.09;stroke-miterlimit:4;stroke-dasharray:none"
     d="m 256.054,70.325 c 0,0 -43.1,-41.2 -76.5,-40.6 -33.4,0.6 -25.7,11.9 -53.3,12.7 -26.3,0.8 -27.8,-22 -56.1,-22.2 -1.4,0 -2.8,0 -4.4,0.1 -32.6,2.2 -43.9,50 -43.9,50"
     id="path40" />
  <path
     style="fill:none;stroke:#3465a4;stroke-width:1;marker-end:url(#marker1283)"
     d="M 11.254,83.325 V 1.925"
     id="path42" />
  <text
     x="289.48"
     y="63.9403"
     style="color:#000000;font-style:italic;overflow:visible;stroke-width:1px;fill:#3465a4;"
     id="text44">x</text>
  <text
     x="19.854"
     y="14.225"
     style="color:#000000;font-style:italic;overflow:visible;stroke-width:1px;fill:#3465a4;"
     id="text46">y</text>
  <text
     x="106.854"
     y="24.825"
     style="color:#000000;font-style:italic;overflow:visible;fill:#0084c8;stroke-width:1px;"
     id="text48">y=f(x)</text>
  <text
     x="18.154"
     y="84.325"
     style="color:#000000;font-style:italic;overflow:visible;fill:#0084c8;stroke-width:1px"
     id="text50">a</text>
  <text
     x="248.954"
     y="88.625"
     style="color:#000000;font-style:italic;overflow:visible;fill:#0084c8;stroke-width:1px"
     id="text52">b</text>
</svg>
