<?xml version="1.0" encoding="UTF-8" standalone="no"?>
<svg
   xmlns:dc="http://purl.org/dc/elements/1.1/"
   xmlns:cc="http://creativecommons.org/ns#"
   xmlns:rdf="http://www.w3.org/1999/02/22-rdf-syntax-ns#"
   xmlns:svg="http://www.w3.org/2000/svg"
   xmlns="http://www.w3.org/2000/svg"
   xmlns:xlink="http://www.w3.org/1999/xlink"
   xmlns:sodipodi="http://sodipodi.sourceforge.net/DTD/sodipodi-0.dtd"
   xmlns:inkscape="http://www.inkscape.org/namespaces/inkscape"
   width="185.4"
   height="122.9"
   version="1.1"
   style="font-family:'Comic Sans MS';font-size:20px;fill:none;stroke-width:1px"
   id="svg140"
   sodipodi:docname="solid-shell-cone-3.svg"
   inkscape:version="1.0.1 (3bc2e813f5, 2020-09-07)">
  <metadata
     id="metadata144">
    <rdf:RDF>
      <cc:Work
         rdf:about="">
        <dc:format>image/svg+xml</dc:format>
        <dc:type
           rdf:resource="http://purl.org/dc/dcmitype/StillImage" />
      </cc:Work>
    </rdf:RDF>
  </metadata>
  <sodipodi:namedview
     pagecolor="#ffffff"
     bordercolor="#666666"
     borderopacity="1"
     objecttolerance="10"
     gridtolerance="10"
     guidetolerance="10"
     inkscape:pageopacity="0"
     inkscape:pageshadow="2"
     inkscape:window-width="640"
     inkscape:window-height="480"
     id="namedview142"
     showgrid="false"
     inkscape:current-layer="svg140" />
  <defs
     id="defs78">
    <marker
       style="overflow:visible"
       id="marker1383"
       refX="0.0"
       refY="0.0"
       orient="auto"
       inkscape:stockid="Arrow1Lend"
       inkscape:isstock="true">
      <path
         transform="scale(0.8) rotate(180) translate(12.5,0)"
         style="fill-rule:evenodd;stroke:#3465a4;stroke-width:1pt;stroke-opacity:1;fill:#3465a4;fill-opacity:1"
         d="M 0.0,0.0 L 5.0,-5.0 L -12.5,0.0 L 5.0,5.0 L 0.0,0.0 z "
         id="path1381" />
    </marker>
    <marker
       style="overflow:visible"
       id="marker1373"
       refX="0.0"
       refY="0.0"
       orient="auto"
       inkscape:stockid="Arrow1Lend"
       inkscape:isstock="true">
      <path
         transform="scale(0.8) rotate(180) translate(12.5,0)"
         style="fill-rule:evenodd;stroke:#3465a4;stroke-width:1pt;stroke-opacity:1;fill:#3465a4;fill-opacity:1"
         d="M 0.0,0.0 L 5.0,-5.0 L -12.5,0.0 L 5.0,5.0 L 0.0,0.0 z "
         id="path1371" />
    </marker>
    <marker
       id="id13"
       style="overflow:visible"
       orient="auto">
      <path
         transform="matrix(-0.4,0,0,-0.4,-4,0)"
         style="fill:#8f5902;stroke:#8f5902;stroke-width:1pt"
         d="M 0,0 5,-5 -12.5,0 5,5 Z"
         id="path2" />
    </marker>
    <linearGradient
       id="id3">
      <stop
         offset="0"
         style="stop-color:#005c8f;stop-opacity:0.474227"
         id="stop5" />
      <stop
         offset="1"
         style="stop-color:#19aeff;stop-opacity:0.542955"
         id="stop9" />
    </linearGradient>
    <radialGradient
       id="id6"
       r="19.5106"
       fx="-207.624"
       fy="206.138"
       cx="-207.6"
       cy="206.1"
       gradientTransform="matrix(1.08223,0,0,0.602052,335.559,-176.945)"
       xlink:href="#id1"
       gradientUnits="userSpaceOnUse" />
    <linearGradient
       id="id1">
      <stop
         offset="0"
         style="stop-color:white;stop-opacity:1"
         id="stop35" />
      <stop
         offset="1"
         style="stop-color:white;stop-opacity:0"
         id="stop37" />
    </linearGradient>
    <linearGradient
       id="id12"
       gradientTransform="translate(20.4405,14.2556)"
       xlink:href="#id3"
       x1="0.6"
       y1="50.6"
       x2="138.3"
       y2="50.6"
       gradientUnits="userSpaceOnUse" />
    <marker
       id="id9"
       style="overflow:visible"
       orient="auto">
      <path
         transform="matrix(-0.4,0,0,-0.4,-4,0)"
         style="fill:black;stroke:black;stroke-width:1pt"
         d="M 0,0 5,-5 -12.5,0 5,5 Z"
         id="path51" />
    </marker>
    <marker
       id="id7"
       style="overflow:visible"
       orient="auto">
      <path
         transform="matrix(0.8,0,0,0.8,10,0)"
         style="fill:#009100;stroke:#009100;stroke-width:1pt"
         d="M 0,0 5,-5 -12.5,0 5,5 Z"
         id="path54" />
    </marker>
    <marker
       id="id8"
       style="overflow:visible"
       orient="auto">
      <path
         transform="matrix(-0.8,0,0,-0.8,-10,0)"
         style="fill:#009100;stroke:#009100;stroke-width:1pt"
         d="M 0,0 5,-5 -12.5,0 5,5 Z"
         id="path57" />
    </marker>
    <linearGradient
       id="id11"
       gradientTransform="matrix(0.527119,0,0,0.438546,-59.5349,-133.741)"
       xlink:href="#id4"
       x1="-122"
       y1="534.7"
       x2="10"
       y2="534.7"
       gradientUnits="userSpaceOnUse" />
    <linearGradient
       id="id4">
      <stop
         offset="0"
         style="stop-color:#d98200;stop-opacity:1"
         id="stop61" />
      <stop
         offset="0.444"
         style="stop-color:#efe87e;stop-opacity:0.91"
         id="stop63" />
      <stop
         offset="1"
         style="stop-color:#ffd491;stop-opacity:0.89"
         id="stop65" />
    </linearGradient>
    <linearGradient
       id="id10"
       gradientTransform="matrix(0.527119,0,0,-0.438546,-59.5349,366.479)"
       xlink:href="#id4"
       x1="9.1"
       y1="643.8"
       x2="-120"
       y2="644.8"
       gradientUnits="userSpaceOnUse" />
    <marker
       id="id14"
       style="overflow:visible"
       orient="auto">
      <path
         transform="matrix(0.8,0,0,0.8,10,0)"
         style="fill:#009100;stroke:#009100;stroke-width:1pt"
         d="M 0,0 5,-5 -12.5,0 5,5 Z"
         id="path69" />
    </marker>
    <marker
       id="id15"
       style="overflow:visible"
       orient="auto">
      <path
         transform="matrix(-0.8,0,0,-0.8,-10,0)"
         style="fill:#009100;stroke:#009100;stroke-width:1pt"
         d="M 0,0 5,-5 -12.5,0 5,5 Z"
         id="path72" />
    </marker>
    <marker
       id="id16"
       style="overflow:visible"
       orient="auto">
      <path
         transform="matrix(-0.4,0,0,-0.4,-4,0)"
         style="fill:#8f5902;stroke:#8f5902;stroke-width:1pt"
         d="M 0,0 5,-5 -12.5,0 5,5 Z"
         id="path75" />
    </marker>
  </defs>
  <path
     style="marker-end:url(#marker1383);stroke:#3465a4;stroke-width:1;fill:#3465a4"
     d="M 0,94.2 H 183.5"
     id="path80" />
  <ellipse
     cx="94.2"
     cy="-89.5"
     rx="10.3"
     ry="67.7"
     transform="rotate(90)"
     style="font-family:'Comic Sans MS';font-size:20px;fill:#005c8f;stroke:black;stroke-width:0.79"
     id="ellipse82" />
  <text
     x="171.7"
     y="111"
     style="font-style:italic;fill:#3465a4;"
     id="text84">x</text>
  <text
     x="97.6"
     y="12.1"
     style="font-style:italic;fill:#3465a4;"
     id="text86">y</text>
  <text
     x="82.3"
     y="122.5"
     style="font-style:italic;fill:#0084c8"
     id="text88">0</text>
  <ellipse
     cx="110.8"
     cy="-52.9"
     rx="21.1"
     ry="11.7"
     transform="matrix(0.588789,0.808287,-0.776813,0.629732,0,0)"
     style="fill:url(#id6);stroke-width:2.89"
     id="ellipse90" />
  <text
     x="146.6"
     y="116.1"
     style="font-style:italic;fill:#0084c8"
     id="text94">b</text>
  <path
     style="marker-end:url(#marker1373);stroke:#3465a4;stroke-width:1;fill:#3465a4"
     d="M 90.1,26.6 V 1.9"
     id="path96" />
  <path
     style="fill:none;stroke:#999999;stroke-width:1"
     d="M 156.8,94 H 22.4"
     id="path98" />
  <text
     x="232.5"
     y="-80.9"
     transform="rotate(43.3461)"
     style="font-style:italic;fill:#0084c8"
     id="text100">y=b-x</text>
  <text
     x="-136.2"
     y="5.1"
     style="font-family:'Comic Sans MS';font-size:20px;font-style:italic;fill:#009100;stroke-width:1px"
     id="text102">f(x)</text>
  <text
     x="-155.2"
     y="-30.8"
     style="font-family:'Comic Sans MS';font-size:20px;font-style:italic;fill:#005c94;stroke-width:1px"
     id="text104">2πr</text>
  <path
     style="marker-start:url(#id7);marker-end:url(#id8);fill:none;stroke:#009100;stroke-width:1px"
     d="M -72.4,-55.2 V 5.8"
     id="path106" />
  <path
     style="fill:#db8d0d;stroke:#009100;stroke-width:1px"
     d="m -152.6,-9.3 h 17.7"
     id="path108" />
  <path
     style="marker-end:url(#id9);fill:none;stroke:#005c94;stroke-width:1px"
     d="m -155.2,-34.2 c 0,0 -3.3,4.1 -7.1,5.5 -3.8,1.4 -5.4,0 -8.8,2.2 -3.4,2.1 -3.9,2.7 -7.4,7.1"
     id="path110" />
  <path
     style="stroke:#999999;stroke-width:1"
     d="M 89.9,26.3 V 56.3"
     id="path122" />
  <path
     style="fill:url(#id12);fill-opacity:1;stroke:black;stroke-width:0.79"
     d="M 89.9,25.8 24.6,91.1 a 67.7,10.3 0 0 0 -2.5,2.5 l -0.1,0.1 h 0 a 67.7,10.3 0 0 0 -0,0.2 67.7,10.3 0 0 0 67.7,10.3 67.7,10.3 0 0 0 67.7,-10.3 67.7,10.3 0 0 0 -0,-0.2 h 0.4 l -0.7,-0.7 a 67.7,10.3 0 0 0 -1.2,-1.2 z"
     id="path124" />
  <text
     x="103"
     y="117.8"
     style="font-style:italic;fill:#0084c8"
     id="text128">x</text>
  <text
     x="136"
     y="67.3"
     style="font-family:'Comic Sans MS';font-size:16px;font-style:italic;fill:#009100;stroke-width:0.77px"
     id="text130">h=b-x</text>
  <text
     x="115.2"
     y="32.7"
     style="font-family:'Comic Sans MS';font-size:16px;font-style:italic;fill:#8f5902;stroke-width:0.65px"
     id="text132">r=x</text>
  <path
     style="marker-start:url(#id14);marker-end:url(#id15);fill:none;stroke:#009100;stroke-width:0.82px"
     d="M 131.9,52.4 V 93"
     id="path134" />
  <path
     style="fill:#db8d0d;stroke:#009100;stroke-width:1px"
     d="m 116.6,50.2 h 17.7"
     id="path136" />
  <g
     transform="matrix(0.673549,0,0,0.673549,149.418,-6.71712)"
     id="g120">
    <path
       style="fill:url(#id10);stroke-width:0.89"
       d="m -54.5,148.7 c 0,-5.3 -15.5,-9.5 -34.5,-9.5 -19.1,0 -34.5,4.3 -34.5,9.5 V 83.6 c 0,-5.3 15.5,-9.5 34.5,-9.5 19.1,0 34.5,4.3 34.5,9.5 z"
       id="path112" />
    <path
       style="fill:url(#id11);stroke-width:0.89"
       d="m -54.5,84 c 0,5.3 -15.5,9.5 -34.5,9.5 -19.1,0 -34.5,-4.3 -34.5,-9.5 v 65.1 c 0,5.3 15.5,9.5 34.5,9.5 19.1,0 34.5,-4.3 34.5,-9.5 z"
       id="path114" />
    <ellipse
       cx="-88.6"
       cy="84.3"
       rx="34.5"
       ry="9.3"
       style="font-family:'Comic Sans MS';fill:none;stroke:#005c94;stroke-width:1"
       id="ellipse116" />
    <path
       style="fill:#db8d0d;stroke:#009100;stroke-width:1px"
       d="M -54.3,84.9 V 148.9"
       id="path118" />
  </g>
  <path
     style="marker-end:url(#id16);fill:none;stroke:#8f5902;stroke-width:1px"
     d="m 123.4,33.7 c 0,0 -3.3,4.1 -7.1,5.5 -3.8,1.4 -5.4,0 -8.8,2.2 -3.4,2.1 -3.9,2.7 -7.4,7.1"
     id="path138" />
  <path
     style="marker-end:url(#id13);fill:#8f5902;stroke:#8f5902;stroke-width:0.96px"
     d="M 90.2,50.5 H 111.5"
     id="path126" />
</svg>
