<?xml version="1.0" encoding="UTF-8" standalone="no"?>
<svg
   xmlns:dc="http://purl.org/dc/elements/1.1/"
   xmlns:cc="http://creativecommons.org/ns#"
   xmlns:rdf="http://www.w3.org/1999/02/22-rdf-syntax-ns#"
   xmlns:svg="http://www.w3.org/2000/svg"
   xmlns="http://www.w3.org/2000/svg"
   xmlns:xlink="http://www.w3.org/1999/xlink"
   xmlns:sodipodi="http://sodipodi.sourceforge.net/DTD/sodipodi-0.dtd"
   xmlns:inkscape="http://www.inkscape.org/namespaces/inkscape"
   width="316"
   height="135.3"
   version="1.1"
   style="fill:none;stroke-width:1pt"
   id="svg91"
   sodipodi:docname="solid-rev-2.svg"
   inkscape:version="1.0.1 (3bc2e813f5, 2020-09-07)">
  <metadata
     id="metadata95">
    <rdf:RDF>
      <cc:Work
         rdf:about="">
        <dc:format>image/svg+xml</dc:format>
        <dc:type
           rdf:resource="http://purl.org/dc/dcmitype/StillImage" />
      </cc:Work>
    </rdf:RDF>
  </metadata>
  <sodipodi:namedview
     pagecolor="#ffffff"
     bordercolor="#666666"
     borderopacity="1"
     objecttolerance="10"
     gridtolerance="10"
     guidetolerance="10"
     inkscape:pageopacity="0"
     inkscape:pageshadow="2"
     inkscape:window-width="640"
     inkscape:window-height="480"
     id="namedview93"
     showgrid="false"
     inkscape:current-layer="svg91"
     inkscape:document-rotation="0" />
  <defs
     id="defs63">
    <marker
       style="overflow:visible"
       id="marker1035"
       refX="0.0"
       refY="0.0"
       orient="auto"
       inkscape:stockid="Arrow1Lend"
       inkscape:isstock="true">
      <path
         transform="scale(0.8) rotate(180) translate(12.5,0)"
         style="fill-rule:evenodd;stroke:#3465a4;stroke-width:1pt;stroke-opacity:1"
         d="M 0.0,0.0 L 5.0,-5.0 L -12.5,0.0 L 5.0,5.0 L 0.0,0.0 z "
         id="path1033" />
    </marker>
    <marker
       style="overflow:visible"
       id="marker1964"
       refX="0.0"
       refY="0.0"
       orient="auto"
       inkscape:stockid="Arrow1Lend"
       inkscape:isstock="true"
       inkscape:collect="always">
      <path
         transform="scale(0.8) rotate(180) translate(12.5,0)"
         style="fill-rule:evenodd;stroke:#3465a4;stroke-width:1pt;stroke-opacity:1;fill:#3465a4;fill-opacity:1"
         d="M 0.0,0.0 L 5.0,-5.0 L -12.5,0.0 L 5.0,5.0 L 0.0,0.0 z "
         id="path1962" />
    </marker>
    <marker
       style="overflow:visible"
       id="marker1954"
       refX="0.0"
       refY="0.0"
       orient="auto"
       inkscape:stockid="Arrow1Lend"
       inkscape:isstock="true">
      <path
         transform="scale(0.8) rotate(180) translate(12.5,0)"
         style="fill-rule:evenodd;stroke:#3465a4;stroke-width:1pt;stroke-opacity:1"
         d="M 0.0,0.0 L 5.0,-5.0 L -12.5,0.0 L 5.0,5.0 L 0.0,0.0 z "
         id="path1952" />
    </marker>
    <marker
       style="overflow:visible"
       id="marker1862"
       refX="0.0"
       refY="0.0"
       orient="auto"
       inkscape:stockid="Arrow1Mend"
       inkscape:isstock="true">
      <path
         transform="scale(0.4) rotate(180) translate(10,0)"
         style="fill-rule:evenodd;stroke:#3465a4;stroke-width:1pt;stroke-opacity:1"
         d="M 0.0,0.0 L 5.0,-5.0 L -12.5,0.0 L 5.0,5.0 L 0.0,0.0 z "
         id="path1860" />
    </marker>
    <marker
       style="overflow:visible"
       id="marker1852"
       refX="0.0"
       refY="0.0"
       orient="auto"
       inkscape:stockid="Arrow1Mend"
       inkscape:isstock="true">
      <path
         transform="scale(0.4) rotate(180) translate(10,0)"
         style="fill-rule:evenodd;stroke:#3465a4;stroke-width:1pt;stroke-opacity:1"
         d="M 0.0,0.0 L 5.0,-5.0 L -12.5,0.0 L 5.0,5.0 L 0.0,0.0 z "
         id="path1850" />
    </marker>
    <marker
       style="overflow:visible"
       id="Arrow1Lend"
       refX="0.0"
       refY="0.0"
       orient="auto"
       inkscape:stockid="Arrow1Lend"
       inkscape:isstock="true">
      <path
         transform="scale(0.8) rotate(180) translate(12.5,0)"
         style="fill-rule:evenodd;stroke:#3465a4;stroke-width:1pt;stroke-opacity:1"
         d="M 0.0,0.0 L 5.0,-5.0 L -12.5,0.0 L 5.0,5.0 L 0.0,0.0 z "
         id="path1007" />
    </marker>
    <marker
       style="overflow:visible"
       id="marker1360"
       refX="0.0"
       refY="0.0"
       orient="auto"
       inkscape:stockid="Arrow1Lend"
       inkscape:isstock="true">
      <path
         transform="scale(0.8) rotate(180) translate(12.5,0)"
         style="fill-rule:evenodd;stroke:#3465a4;stroke-width:1pt;stroke-opacity:1;fill:#3465a4;fill-opacity:1"
         d="M 0.0,0.0 L 5.0,-5.0 L -12.5,0.0 L 5.0,5.0 L 0.0,0.0 z "
         id="path1358" />
    </marker>
    <marker
       id="id13"
       style="overflow:visible"
       orient="auto">
      <path
         transform="scale(0.8) translate(12.5,0)"
         style="fill:#204a87;stroke:#204a87"
         d="M 0,0 L 5,-5 L -12.5,0 L 5,5 L 0,0 z "
         id="path2" />
    </marker>
    <marker
       id="id12"
       style="overflow:visible"
       orient="auto">
      <path
         transform="scale(0.8) translate(12.5,0)"
         style="fill:#204a87;stroke:#204a87"
         d="M 0,0 L 5,-5 L -12.5,0 L 5,5 L 0,0 z "
         id="path5" />
    </marker>
    <marker
       id="id11"
       style="overflow:visible"
       orient="auto">
      <path
         transform="scale(0.8) translate(12.5,0)"
         style="fill:#204a87;stroke:#204a87"
         d="M 0,0 L 5,-5 L -12.5,0 L 5,5 L 0,0 z "
         id="path8" />
    </marker>
    <marker
       id="id10"
       style="overflow:visible"
       orient="auto">
      <path
         transform="scale(0.8) translate(12.5,0)"
         style="fill:#204a87;stroke:#204a87"
         d="M 0,0 L 5,-5 L -12.5,0 L 5,5 L 0,0 z "
         id="path11" />
    </marker>
    <marker
       id="id9"
       style="overflow:visible"
       orient="auto">
      <path
         transform="scale(0.8) translate(12.5,0)"
         style="fill:#204a87;stroke:#204a87"
         d="M 0,0 L 5,-5 L -12.5,0 L 5,5 L 0,0 z "
         id="path14" />
    </marker>
    <marker
       id="id8"
       style="overflow:visible"
       orient="auto">
      <path
         transform="scale(0.8) translate(12.5,0)"
         style="fill:#204a87;stroke:#204a87"
         d="M 0,0 L 5,-5 L -12.5,0 L 5,5 L 0,0 z "
         id="path21" />
    </marker>
    <linearGradient
       id="id2">
      <stop
         offset="0"
         style="stop-color:white;stop-opacity:1"
         id="stop50" />
      <stop
         offset="1"
         style="stop-color:white;stop-opacity:0"
         id="stop52" />
    </linearGradient>
    <linearGradient
       id="id1">
      <stop
         offset="0"
         style="stop-color:#009ef4;stop-opacity:1"
         id="stop55" />
      <stop
         offset="1"
         style="stop-color:#ffffff;stop-opacity:1"
         id="stop57" />
    </linearGradient>
    <linearGradient
       id="id4"
       gradientTransform="translate(387.717,-98.1489)"
       xlink:href="#id1"
       x1="-252.2"
       y1="210.9"
       x2="-263.501"
       y2="117.261"
       gradientUnits="userSpaceOnUse" />
    <radialGradient
       id="id5"
       r="19.5106"
       fx="-207.624"
       fy="206.138"
       cx="-207.6"
       cy="206.1"
       gradientTransform="matrix(1.92133,-1.49513e-6,0,0.76881,248.442,-224.001)"
       xlink:href="#id2"
       gradientUnits="userSpaceOnUse" />
    <radialGradient
       id="id6"
       r="19.5106"
       fx="-207.624"
       fy="206.138"
       cx="-207.6"
       cy="206.1"
       gradientTransform="matrix(1.64317,0,0,0.778226,395.064,-104.472)"
       xlink:href="#id2"
       gradientUnits="userSpaceOnUse" />
  </defs>
  <path
     style="marker-end:url(#marker1360);stroke:#3465a4;stroke-width:1;fill:#3465a4"
     d="m -0,70.3 h 314.1"
     id="path65" />
  <path
     style="fill:url(#id4);stroke:black;stroke-width:0.79"
     d="m 70.1,20.2 c -1.4,0 -2.8,0 -4.4,0.1 -32.6,2.2 -43.9,50 -43.9,50 0,0 11.3,47.8 43.9,50 32.6,2.2 32.9,-22.9 60.5,-22.1 27.6,0.8 19.9,12.2 53.3,12.7 33.4,0.6 76.5,-40.6 76.5,-40.6 0,0 -43.1,-41.2 -76.5,-40.6 -33.4,0.6 -25.7,11.9 -53.3,12.7 -26.3,0.8 -27.8,-22 -56.1,-22.2 z"
     id="path67" />
  <ellipse
     cx="-150.404"
     cy="-65.5026"
     rx="37.5275"
     ry="14.9898"
     transform="matrix(-0.994448,0.10523,-0.329025,-0.944321,0,0)"
     style="color:#000000;overflow:visible;fill:url(#id5);stroke-width:2.39064"
     id="ellipse69" />
  <ellipse
     cx="53.8889"
     cy="55.9452"
     rx="32.0606"
     ry="15.2112"
     transform="matrix(0.984162,-0.177272,0.309298,0.950965,0,0)"
     style="color:#000000;overflow:visible;fill:url(#id6);stroke-width:2.22636"
     id="ellipse71" />
  <path
     style="marker-end:url(#marker1964);stroke:#3465a4;stroke-width:1;fill:#3465a4"
     d="M 11.3,135.3 V 1.9"
     id="path73" />
  <text
     x="282.7"
     y="64.1"
     style="font-family:'Comic Sans MS';font-size:20px;font-style:italic;color:black;overflow:visible;fill:#3465a4;stroke-width:1px"
     id="text75">x</text>
  <text
     x="19.9"
     y="14.2"
     style="font-family:'Comic Sans MS';font-size:20px;font-style:italic;color:black;overflow:visible;fill:#3465a4;stroke-width:1px"
     id="text77">y</text>
  <path
     style="color:black;marker-start:url(#id8);overflow:visible;stroke:#204a87;stroke-width:0.84"
     d="m 81.3,111.9 c -3.7,-6.6 -13.1,-25.9 -12.2,-46.4 0.9,-20.5 7.8,-35.8 16.6,-40.1"
     id="path79" />
  <path
     style="color:black;marker-start:url(#id9);overflow:visible;stroke:#204a87;stroke-width:0.84"
     d="m 117.8,93.9 c -2,-4.1 -7.6,-15 -7.1,-26.9 0.5,-11.9 4.5,-20.8 9.6,-23.2"
     id="path81" />
  <path
     style="color:black;marker-start:url(#id10);overflow:visible;stroke:#204a87;stroke-width:0.84"
     d="m 153.7,102.8 c -3.1,-5.6 -10.3,-20.4 -9.6,-36.6 0.7,-16.1 6.2,-28.2 13.1,-31.5"
     id="path83" />
  <path
     style="color:black;marker-start:url(#id11);overflow:visible;stroke:#204a87;stroke-width:0.84"
     d="m 190.3,103.6 c -3.2,-5.6 -10.6,-20.9 -9.8,-37.5 0.8,-16.5 6.3,-28.9 13.4,-32.3"
     id="path85" />
  <path
     style="color:black;marker-start:url(#id12);overflow:visible;stroke:#204a87;stroke-width:0.84"
     d="m 227.2,88.2 c -1.8,-3.8 -5.9,-11.6 -5.4,-20.7 0.4,-9.1 3.5,-16 7.4,-17.8"
     id="path87" />
  <path
     style="color:black;marker-start:url(#id13);overflow:visible;stroke:#204a87;stroke-width:0.84"
     d="m 44.6,108.4 c -3.5,-6 -12.1,-23.8 -11.2,-42.6 0.9,-18.8 7.2,-32.9 15.2,-36.8"
     id="path89" />
</svg>
