<?xml version="1.0" encoding="UTF-8" standalone="no"?>
<svg
   xmlns:dc="http://purl.org/dc/elements/1.1/"
   xmlns:cc="http://creativecommons.org/ns#"
   xmlns:rdf="http://www.w3.org/1999/02/22-rdf-syntax-ns#"
   xmlns:svg="http://www.w3.org/2000/svg"
   xmlns="http://www.w3.org/2000/svg"
   xmlns:xlink="http://www.w3.org/1999/xlink"
   xmlns:sodipodi="http://sodipodi.sourceforge.net/DTD/sodipodi-0.dtd"
   xmlns:inkscape="http://www.inkscape.org/namespaces/inkscape"
   width="201.5"
   height="155.1"
   version="1.1"
   style="font-family:'Comic Sans MS';fill:none;stroke-width:1px;font-size:20px"
   id="svg296"
   sodipodi:docname="solid-shell-2.svg"
   inkscape:version="1.0.1 (3bc2e813f5, 2020-09-07)">
  <metadata
     id="metadata300">
    <rdf:RDF>
      <cc:Work
         rdf:about="">
        <dc:format>image/svg+xml</dc:format>
        <dc:type
           rdf:resource="http://purl.org/dc/dcmitype/StillImage" />
      </cc:Work>
    </rdf:RDF>
  </metadata>
  <sodipodi:namedview
     pagecolor="#ffffff"
     bordercolor="#666666"
     borderopacity="1"
     objecttolerance="10"
     gridtolerance="10"
     guidetolerance="10"
     inkscape:pageopacity="0"
     inkscape:pageshadow="2"
     inkscape:window-width="640"
     inkscape:window-height="480"
     id="namedview298"
     showgrid="false"
     inkscape:current-layer="svg296" />
  <defs
     id="defs140">
    <marker
       style="overflow:visible"
       id="marker1535"
       refX="0.0"
       refY="0.0"
       orient="auto"
       inkscape:stockid="Arrow1Lend"
       inkscape:isstock="true">
      <path
         transform="scale(0.8) rotate(180) translate(12.5,0)"
         style="fill-rule:evenodd;stroke:#3465a4;stroke-width:1pt;stroke-opacity:1;fill:#3465a4;fill-opacity:1"
         d="M 0.0,0.0 L 5.0,-5.0 L -12.5,0.0 L 5.0,5.0 L 0.0,0.0 z "
         id="path1533" />
    </marker>
    <marker
       style="overflow:visible"
       id="marker1525"
       refX="0.0"
       refY="0.0"
       orient="auto"
       inkscape:stockid="Arrow1Lend"
       inkscape:isstock="true">
      <path
         transform="scale(0.8) rotate(180) translate(12.5,0)"
         style="fill-rule:evenodd;stroke:#3465a4;stroke-width:1pt;stroke-opacity:1;fill:#3465a4;fill-opacity:1"
         d="M 0.0,0.0 L 5.0,-5.0 L -12.5,0.0 L 5.0,5.0 L 0.0,0.0 z "
         id="path1523" />
    </marker>
    <linearGradient
       id="linearGradient1191">
      <stop
         offset="0"
         style="stop-color:#005c8f;stop-opacity:1"
         id="stop1185" />
      <stop
         offset="0.305"
         style="stop-color:#057dbf;stop-opacity:0.69"
         id="stop1187" />
      <stop
         offset="1"
         style="stop-color:#ffffff;stop-opacity:1"
         id="stop1189" />
    </linearGradient>
    <linearGradient
       id="linearGradient6">
      <stop
         offset="0"
         style="stop-color:#204a87;stop-opacity:0.51"
         id="stop2" />
      <stop
         offset="1"
         style="stop-color:#d1dff4;stop-opacity:0.33"
         id="stop4" />
    </linearGradient>
    <marker
       style="overflow:visible"
       orient="auto"
       id="marker10">
      <path
         transform="matrix(0.8,0,0,0.8,10,0)"
         style="fill:#8f5902;stroke:#8f5902;stroke-width:1pt"
         d="M 0,0 5,-5 -12.5,0 5,5 Z"
         id="path8" />
    </marker>
    <marker
       style="overflow:visible"
       orient="auto"
       id="marker14">
      <path
         transform="matrix(0.8,0,0,0.8,10,0)"
         style="fill:#8f5902;stroke:#8f5902;stroke-width:1pt"
         d="M 0,0 5,-5 -12.5,0 5,5 Z"
         id="path12" />
    </marker>
    <marker
       style="overflow:visible"
       orient="auto"
       id="marker18">
      <path
         transform="matrix(0.8,0,0,0.8,10,0)"
         style="fill:#8f5902;stroke:#8f5902;stroke-width:1pt"
         d="M 0,0 5,-5 -12.5,0 5,5 Z"
         id="path16" />
    </marker>
    <marker
       id="id45"
       style="overflow:visible"
       orient="auto">
      <path
         transform="matrix(0.8,0,0,0.8,10,0)"
         style="fill:#8f5902;stroke:#8f5902;stroke-width:1pt"
         d="M 0,0 5,-5 -12.5,0 5,5 Z"
         id="path20" />
    </marker>
    <marker
       id="id46"
       style="overflow:visible"
       orient="auto">
      <path
         transform="matrix(0.8,0,0,0.8,10,0)"
         style="fill:#8f5902;stroke:#8f5902;stroke-width:1pt"
         d="M 0,0 5,-5 -12.5,0 5,5 Z"
         id="path23" />
    </marker>
    <marker
       id="id44"
       style="overflow:visible"
       orient="auto">
      <path
         transform="matrix(0.8,0,0,0.8,10,0)"
         style="fill:#8f5902;stroke:#8f5902;stroke-width:1pt"
         d="M 0,0 5,-5 -12.5,0 5,5 Z"
         id="path26" />
    </marker>
    <linearGradient
       id="id8">
      <stop
         offset="0"
         style="stop-color:#204a87;stop-opacity:1"
         id="stop29" />
      <stop
         offset="1"
         style="stop-color:#204a87;stop-opacity:0.16"
         id="stop31" />
    </linearGradient>
    <linearGradient
       id="id7">
      <stop
         offset="0"
         style="stop-color:#19aeff;stop-opacity:0.73"
         id="stop34" />
      <stop
         offset="0.642"
         style="stop-color:#e1f4ff;stop-opacity:0.88"
         id="stop36" />
      <stop
         offset="1"
         style="stop-color:#19aeff;stop-opacity:0.77"
         id="stop38" />
    </linearGradient>
    <linearGradient
       id="id6">
      <stop
         offset="0"
         style="stop-color:#0084c8;stop-opacity:0.83"
         id="stop41" />
      <stop
         offset="0.737"
         style="stop-color:#0084c8;stop-opacity:0.41"
         id="stop43" />
      <stop
         offset="1"
         style="stop-color:white;stop-opacity:0.47"
         id="stop45" />
    </linearGradient>
    <linearGradient
       id="id5">
      <stop
         offset="0"
         style="stop-color:#204a87;stop-opacity:1"
         id="stop48" />
      <stop
         offset="1"
         style="stop-color:#81a7e1;stop-opacity:0.52"
         id="stop50" />
    </linearGradient>
    <linearGradient
       id="linearGradient57">
      <stop
         offset="0"
         style="stop-color:#19aeff;stop-opacity:0.84"
         id="stop53" />
      <stop
         offset="1"
         style="stop-color:#68caff;stop-opacity:0.49"
         id="stop55" />
    </linearGradient>
    <linearGradient
       id="linearGradient63">
      <stop
         offset="0"
         style="stop-color:#204a87;stop-opacity:0.87"
         id="stop59" />
      <stop
         offset="1"
         style="stop-color:#81a7e1;stop-opacity:0.52"
         id="stop61" />
    </linearGradient>
    <linearGradient
       id="id4">
      <stop
         offset="0"
         style="stop-color:#17345f;stop-opacity:1"
         id="stop65" />
      <stop
         offset="1"
         style="stop-color:#d1dff4;stop-opacity:1"
         id="stop67" />
    </linearGradient>
    <linearGradient
       id="id3">
      <stop
         offset="0"
         style="stop-color:#204a87;stop-opacity:0.95"
         id="stop70" />
      <stop
         offset="1"
         style="stop-color:#d1dff4;stop-opacity:0.97"
         id="stop72" />
    </linearGradient>
    <marker
       id="id13"
       style="overflow:visible"
       orient="auto">
      <path
         transform="matrix(-0.8,0,0,-0.8,-10,0)"
         style="stroke:black;stroke-width:1pt;fill:black"
         d="M 0,0 5,-5 -12.5,0 5,5 Z"
         id="path75" />
    </marker>
    <linearGradient
       gradientTransform="matrix(0,1.51449,-0.99999,0,452.488,1129.52)"
       xlink:href="#id1"
       x1="-549.1"
       y1="238"
       x2="-525.3"
       y2="100.5"
       gradientUnits="userSpaceOnUse"
       id="linearGradient78" />
    <linearGradient
       id="id1">
      <stop
         offset="0"
         style="stop-color:#005c8f;stop-opacity:1"
         id="stop80" />
      <stop
         offset="0.305"
         style="stop-color:#057dbf;stop-opacity:0.69"
         id="stop82" />
      <stop
         offset="1"
         style="stop-color:#19aeff;stop-opacity:0"
         id="stop84" />
    </linearGradient>
    <radialGradient
       id="id47"
       r="19.5106"
       fx="-207.624"
       fy="206.138"
       cx="-207.6"
       cy="206.1"
       gradientTransform="matrix(0.986142,0,0,0.607494,337.668,-139.363)"
       xlink:href="#id2"
       gradientUnits="userSpaceOnUse" />
    <linearGradient
       id="id2">
      <stop
         offset="0"
         style="stop-color:white;stop-opacity:1"
         id="stop88" />
      <stop
         offset="1"
         style="stop-color:white;stop-opacity:0"
         id="stop90" />
    </linearGradient>
    <marker
       id="id14"
       style="overflow:visible"
       orient="auto">
      <path
         transform="matrix(-0.8,0,0,-0.8,-10,0)"
         style="stroke:black;stroke-width:1pt;fill:black"
         d="M 0,0 5,-5 -12.5,0 5,5 Z"
         id="path93" />
    </marker>
    <linearGradient
       id="id15"
       gradientTransform="translate(-337.694,-78.19)"
       xlink:href="#id3"
       x1="-122"
       y1="534.7"
       x2="10"
       y2="534.7"
       gradientUnits="userSpaceOnUse" />
    <linearGradient
       id="id12"
       gradientTransform="translate(-337.694,-78.19)"
       xlink:href="#id4"
       x1="23.1"
       y1="515.8"
       x2="-73.7"
       y2="515.8"
       gradientUnits="userSpaceOnUse" />
    <linearGradient
       id="id16"
       gradientTransform="matrix(0.931401,0,0,1,-765.275,176.165)"
       xlink:href="#id4"
       x1="23.1"
       y1="515.8"
       x2="-73.7"
       y2="515.8"
       gradientUnits="userSpaceOnUse" />
    <linearGradient
       id="id31"
       gradientTransform="matrix(1.73339,0,0,1.88774,-676.235,-98.4738)"
       xlink:href="#id5"
       x1="-114.1"
       y1="534.4"
       x2="10"
       y2="534.7"
       gradientUnits="userSpaceOnUse" />
    <linearGradient
       id="id11"
       gradientTransform="matrix(1.00033,0,0,0.905058,-160.108,-93.7496)"
       xlink:href="#id4"
       x1="23.1"
       y1="515.8"
       x2="-73.7"
       y2="515.8"
       gradientUnits="userSpaceOnUse" />
    <linearGradient
       id="id10"
       gradientTransform="matrix(1.04824,0,0,0.90487,-147.63,58.6808)"
       xlink:href="#id3"
       x1="-122"
       y1="534.7"
       x2="10"
       y2="534.7"
       gradientUnits="userSpaceOnUse" />
    <linearGradient
       id="id9"
       gradientTransform="matrix(0.820941,0,0,0.90487,-160.302,55.3428)"
       xlink:href="#id3"
       x1="-122"
       y1="534.7"
       x2="10"
       y2="534.7"
       gradientUnits="userSpaceOnUse" />
    <linearGradient
       id="id43"
       gradientTransform="matrix(0,1.21832,-0.7593,0,230.202,738.489)"
       xlink:href="#linearGradient1191"
       x1="-549.1"
       y1="238"
       x2="-525.3"
       y2="100.5"
       gradientUnits="userSpaceOnUse" />
    <radialGradient
       id="id42"
       r="19.5106"
       fx="-207.624"
       fy="206.138"
       cx="-207.6"
       cy="206.1"
       gradientTransform="matrix(1.21516,0,0,1.14939,809.301,726.636)"
       xlink:href="#id2"
       gradientUnits="userSpaceOnUse" />
    <linearGradient
       id="id29"
       gradientTransform="matrix(1.38032,0,0,1.38953,-696.475,134.57)"
       xlink:href="#id5"
       x1="-112.5"
       y1="535.6"
       x2="10"
       y2="534.7"
       gradientUnits="userSpaceOnUse" />
    <linearGradient
       id="id27"
       gradientTransform="matrix(1.03702,0,0,1.03841,-715.715,289.173)"
       xlink:href="#id5"
       x1="-108.2"
       y1="533.5"
       x2="10"
       y2="534.7"
       gradientUnits="userSpaceOnUse" />
    <linearGradient
       id="id25"
       gradientTransform="matrix(0.701959,0,0,0.705275,-734.335,430.572)"
       xlink:href="#id5"
       x1="-99.9"
       y1="534.7"
       x2="10"
       y2="534.7"
       gradientUnits="userSpaceOnUse" />
    <linearGradient
       id="id23"
       gradientTransform="matrix(0.353686,0,0,0.354161,-753.995,583.734)"
       xlink:href="#id5"
       x1="-122"
       y1="534.7"
       x2="10"
       y2="534.7"
       gradientUnits="userSpaceOnUse" />
    <linearGradient
       id="id17"
       gradientTransform="matrix(1.03702,0,0,1.03841,-1120.2,408.135)"
       xlink:href="#id3"
       x1="-122"
       y1="534.7"
       x2="10"
       y2="534.7"
       gradientUnits="userSpaceOnUse" />
    <linearGradient
       id="id18"
       gradientTransform="matrix(1.38032,0,0,1.38953,-1101.31,253.532)"
       xlink:href="#id3"
       x1="-122"
       y1="534.7"
       x2="10"
       y2="534.7"
       gradientUnits="userSpaceOnUse" />
    <linearGradient
       id="id19"
       gradientTransform="matrix(1.7405,0,0,1.88774,-1080.97,20.4878)"
       xlink:href="#id3"
       x1="-122"
       y1="534.7"
       x2="10"
       y2="534.7"
       gradientUnits="userSpaceOnUse" />
    <linearGradient
       id="id20"
       gradientTransform="matrix(0.70433,0,0,0.705275,-1139.55,549.534)"
       xlink:href="#id3"
       x1="-122"
       y1="534.7"
       x2="10"
       y2="534.7"
       gradientUnits="userSpaceOnUse" />
    <linearGradient
       id="id21"
       gradientTransform="matrix(0.353686,0,0,0.354161,-1158.84,702.696)"
       xlink:href="#id3"
       x1="-122"
       y1="534.7"
       x2="10"
       y2="534.7"
       gradientUnits="userSpaceOnUse" />
    <linearGradient
       id="id28"
       gradientTransform="translate(87.209,0.028663)"
       xlink:href="#id6"
       x1="-954.1"
       y1="831.9"
       x2="-770.4"
       y2="829.4"
       gradientUnits="userSpaceOnUse" />
    <linearGradient
       id="id26"
       gradientTransform="translate(85.344,0.028663)"
       xlink:href="#id6"
       x1="-927.1"
       y1="808.1"
       x2="-791.2"
       y2="808.1"
       gradientUnits="userSpaceOnUse" />
    <linearGradient
       id="id24"
       gradientTransform="matrix(1.0097,0,0,1,94.117,0.028663)"
       xlink:href="#id6"
       x1="-904.5"
       y1="782.3"
       x2="-813.8"
       y2="782.3"
       gradientUnits="userSpaceOnUse" />
    <linearGradient
       id="id30"
       gradientTransform="matrix(0.99451,0,0,0.965032,80.321,30.2008)"
       xlink:href="#id6"
       x1="-972.8"
       y1="847.6"
       x2="-745.6"
       y2="849.5"
       gradientUnits="userSpaceOnUse" />
    <linearGradient
       id="id22"
       gradientTransform="translate(85.344,0.028663)"
       xlink:href="#id6"
       x1="-882"
       y1="760.1"
       x2="-837.4"
       y2="760.1"
       gradientUnits="userSpaceOnUse" />
    <linearGradient
       id="id40"
       gradientTransform="translate(1095.34,-706.605)"
       xlink:href="#id7"
       x1="-975.6"
       y1="1086.2"
       x2="-750.2"
       y2="1086.2"
       gradientUnits="userSpaceOnUse" />
    <linearGradient
       id="id38"
       gradientTransform="translate(1095.34,-706.605)"
       xlink:href="#id7"
       x1="-960.6"
       y1="1066"
       x2="-765.7"
       y2="1063.4"
       gradientUnits="userSpaceOnUse" />
    <linearGradient
       id="id36"
       gradientTransform="translate(1095.34,-706.605)"
       xlink:href="#id7"
       x1="-937"
       y1="1044.3"
       x2="-778.6"
       y2="1044.3"
       gradientUnits="userSpaceOnUse" />
    <linearGradient
       id="id34"
       gradientTransform="translate(1095.34,-706.605)"
       xlink:href="#id7"
       x1="-919.6"
       y1="1018.5"
       x2="-796.9"
       y2="1017.2"
       gradientUnits="userSpaceOnUse" />
    <linearGradient
       id="id32"
       gradientTransform="translate(1095.34,-706.605)"
       xlink:href="#id7"
       x1="-899.8"
       y1="995.9"
       x2="-820.9"
       y2="995.9"
       gradientUnits="userSpaceOnUse" />
    <linearGradient
       id="id41"
       gradientTransform="translate(437.093,-696.787)"
       xlink:href="#id8"
       x1="-318.1"
       y1="1106.1"
       x2="-91.8"
       y2="1106.1"
       gradientUnits="userSpaceOnUse" />
    <linearGradient
       id="id39"
       gradientTransform="translate(437.093,-696.787)"
       xlink:href="#id8"
       x1="-295.1"
       y1="1092.9"
       x2="-114.2"
       y2="1092.9"
       gradientUnits="userSpaceOnUse" />
    <linearGradient
       id="id37"
       gradientTransform="translate(437.093,-696.787)"
       xlink:href="#id8"
       x1="-272.6"
       y1="1079"
       x2="-136.7"
       y2="1079"
       gradientUnits="userSpaceOnUse" />
    <linearGradient
       id="id35"
       gradientTransform="translate(437.093,-696.787)"
       xlink:href="#id8"
       x1="-250.5"
       y1="1063.1"
       x2="-158.5"
       y2="1063.1"
       gradientUnits="userSpaceOnUse" />
    <linearGradient
       id="id33"
       gradientTransform="translate(437.093,-696.787)"
       xlink:href="#id8"
       x1="-227.8"
       y1="1048.8"
       x2="-181.5"
       y2="1048.8"
       gradientUnits="userSpaceOnUse" />
    <radialGradient
       id="id48"
       r="19.5106"
       fx="-207.624"
       fy="206.138"
       cx="-207.6"
       cy="206.1"
       gradientTransform="matrix(0.798162,0,0,0.555217,350.953,-212.121)"
       xlink:href="#id2"
       gradientUnits="userSpaceOnUse" />
    <marker
       style="overflow:visible"
       orient="auto"
       id="marker132">
      <path
         transform="matrix(0.8,0,0,0.8,10,0)"
         style="fill:#204a87;stroke:#204a87"
         d="M 0,0 5,-5 -12.5,0 5,5 Z"
         id="path130" />
    </marker>
    <marker
       style="overflow:visible"
       orient="auto"
       id="marker136">
      <path
         transform="matrix(0.8,0,0,0.8,10,0)"
         style="fill:#204a87;stroke:#204a87"
         d="M 0,0 5,-5 -12.5,0 5,5 Z"
         id="path134" />
    </marker>
    <radialGradient
       id="id49"
       r="19.5106"
       fx="-207.624"
       fy="206.138"
       cx="-207.6"
       cy="206.1"
       gradientTransform="matrix(0.986142,0,0,0.607494,524.997,213.663)"
       xlink:href="#id2"
       gradientUnits="userSpaceOnUse" />
    <radialGradient
       id="id50"
       r="19.5106"
       fx="-207.624"
       fy="206.138"
       cx="-207.6"
       cy="206.1"
       gradientTransform="matrix(0.798162,0,0,0.555217,753.32,-128.341)"
       xlink:href="#id2"
       gradientUnits="userSpaceOnUse" />
  </defs>
  <path
     style="fill:url(#id9);stroke-width:0.77"
     d="m -152.5,498 c 0,10.9 -24.1,19.7 -53.8,19.7 -29.7,0 -53.8,-8.8 -53.8,-19.7 v 55.5 c 0,10.9 24.1,19.7 53.8,19.7 29.7,0 53.8,-8.8 53.8,-19.7 z"
     id="path142" />
  <path
     style="fill:url(#id10);stroke-width:0.87"
     d="m -137.7,508.1 c 0,10.9 -30.8,19.7 -68.7,19.7 -37.9,0 -68.7,-8.8 -68.7,-19.7 0,48.9 0,0 0,48.9 0,10.9 30.8,19.7 68.7,19.7 37.9,0 68.7,-8.8 68.7,-19.7 0,-48.9 0,0 0,-48.9 z"
     id="path144" />
  <path
     style="fill:url(#id11);stroke:black;stroke-width:0.85"
     d="m -150.6,405.8 c 0,-10.9 -29.4,-19.7 -65.6,-19.7 -36.2,0 -65.6,8.8 -65.6,19.7 0,-48.9 0,0 0,-48.9 0,-10.9 29.4,-19.7 65.6,-19.7 36.2,0 65.6,8.8 65.6,19.7 0,48.9 0,0 0,48.9 z"
     id="path146" />
  <path
     style="fill:url(#id12);stroke:black;stroke-width:0.89"
     d="m -328.2,473.8 c 0,-12 -29.3,-21.8 -65.5,-21.8 -36.2,0 -65.5,9.7 -65.5,21.8 0,-54 0,0 0,-54 0,-12 29.3,-21.8 65.5,-21.8 36.2,0 65.5,9.7 65.5,21.8 0,54 0,0 0,54 z"
     id="path148" />
  <path
     style="marker-end:url(#marker1525);stroke:#3465a4;stroke-width:1;fill:#3465a4"
     d="M 90.4,144.8 V 1.9"
     id="path150" />
  <text
     x="92.7"
     y="30.8"
     style="font-style:italic;fill:#3465a4;"
     id="text152">y</text>
  <text
     x="188.7"
     y="114.3"
     style="font-style:italic;fill:#3465a4;"
     id="text154">x</text>
  <path
     style="marker-end:url(#marker1535);stroke:#3465a4;stroke-width:1;fill:#3465a4"
     d="M 0,128.1 H 193.7"
     id="path156" />
  <path
     style="fill:#005c8f;stroke:black;stroke-width:1.05"
     d="m -605.6,349.6 c -59.6,0 -107.9,8.2 -107.9,18.3 v 30 c 0,10.1 48.3,18.3 107.9,18.3 59.6,0 107.9,-8.2 107.9,-18.3 0,-30 0,0 0,-30 0,-10.1 -48.3,-18.3 -107.9,-18.3 z"
     id="path158" />
  <ellipse
     cx="262.6"
     cy="575.8"
     rx="18.3"
     ry="107.9"
     transform="rotate(90)"
     style="fill:#005c8f;stroke:black;stroke-width:1.05"
     id="ellipse160" />
  <ellipse
     cx="262.4"
     cy="576.4"
     rx="14.6"
     ry="94.2"
     transform="rotate(90)"
     style="fill:white;stroke:black;stroke-width:0.88"
     id="ellipse162" />
  <path
     style="fill:url(#id15);stroke:black;stroke-width:0.89"
     d="m -328.2,418.4 c 0,12 -29.3,21.8 -65.5,21.8 -36.2,0 -65.5,-9.7 -65.5,-21.8 0,54 0,0 0,54 0,12 29.3,21.8 65.5,21.8 36.2,0 65.5,-9.7 65.5,-21.8 0,-54 0,0 0,-54 z"
     id="path164" />
  <path
     style="fill:url(#id16);stroke:black;stroke-width:0.86"
     d="m -756.4,728.1 c 0,-12 -27.3,-21.8 -61,-21.8 -33.7,0 -61,9.7 -61,21.8 0,-54 0,0 0,-54 0,-12 27.3,-21.8 61,-21.8 33.7,0 61,9.7 61,21.8 0,54 0,0 0,54 z"
     id="path166" />
  <path
     style="fill:#0084c8;fill-opacity:0.69;stroke-width:0.97"
     d="m -206.3,490 a 68.7,18.9 0 0 0 -68.7,18.9 68.7,18.9 0 0 0 68.7,18.9 68.7,18.9 0 0 0 68.7,-18.9 68.7,18.9 0 0 0 -68.7,-18.9 z m 0,4.1 a 53.9,14.8 0 0 1 53.9,14.8 53.9,14.8 0 0 1 -53.9,14.8 53.9,14.8 0 0 1 -53.9,-14.8 53.9,14.8 0 0 1 53.9,-14.8 z"
     id="path168" />
  <path
     style="fill:#0084c8;fill-opacity:0.69;stroke-width:0.77"
     d="m -207.3,486.7 a 52.9,15.5 0 0 0 -52.9,15.5 52.9,15.5 0 0 0 52.9,15.5 52.9,15.5 0 0 0 52.9,-15.5 52.9,15.5 0 0 0 -52.9,-15.5 z m 0,3.3 a 41.5,12.1 0 0 1 41.5,12.1 41.5,12.1 0 0 1 -41.5,12.1 41.5,12.1 0 0 1 -41.5,-12.1 41.5,12.1 0 0 1 41.5,-12.1 z"
     id="path170" />
  <g
     transform="rotate(45,-373.327,784.926)"
     id="g184">
    <path
       style="stroke:black;stroke-width:1px"
       d="m -479.9,619.1 v 54.2"
       id="path172" />
    <path
       style="stroke:black;stroke-width:1px"
       d="m -447.9,619.1 v 54.2"
       id="path174" />
    <path
       style="stroke:black;stroke-width:1px"
       d="m -415.8,619.1 v 54.2"
       id="path176" />
    <path
       style="stroke:black;stroke-width:1px"
       d="m -383.8,619.1 v 54.2"
       id="path178" />
    <path
       style="stroke:black;stroke-width:1px"
       d="m -351.8,619.1 v 54.2"
       id="path180" />
    <path
       style="stroke:black;stroke-width:1px"
       d="m -319.7,619.1 v 54.2"
       id="path182" />
  </g>
  <path
     style="fill:url(#id17);stroke-width:0.93"
     d="m -1110.3,923.8 c 0,12.5 -30.4,22.6 -68,22.6 -37.5,0 -68,-10.1 -68,-22.6 0,56.1 0,0 0,56.1 0,12.5 30.4,22.6 68,22.6 37.5,0 68,-10.1 68,-22.6 0,-56.1 0,0 0,-56.1 z"
     id="path186" />
  <path
     style="fill:url(#id18);stroke-width:1.24"
     d="m -1088.2,943.6 c 0,16.7 -40.5,30.2 -90.5,30.2 -50,0 -90.5,-13.5 -90.5,-30.2 0,75 0,0 0,75 0,16.7 40.5,30.2 90.5,30.2 50,0 90.5,-13.5 90.5,-30.2 0,-75 0,0 0,-75 z"
     id="path188" />
  <path
     style="fill:url(#id19);stroke-width:1.62"
     d="m -1064.4,958 c 0,22.7 -51.1,41.1 -114.1,41.1 -63,0 -114.1,-18.4 -114.1,-41.1 0,101.9 0,0 0,101.9 0,22.7 51.1,41.1 114.1,41.1 63,0 114.1,-18.4 114.1,-41.1 0,-101.9 0,0 0,-101.9 z"
     id="path190" />
  <path
     style="fill:url(#id20);stroke-width:0.63"
     d="m -1132.9,899.8 c 0,8.5 -20.7,15.3 -46.2,15.3 -25.5,0 -46.2,-6.9 -46.2,-15.3 0,38.1 0,0 0,38.1 0,8.5 20.7,15.4 46.2,15.4 25.5,0 46.2,-6.9 46.2,-15.4 0,-38.1 0,0 0,-38.1 z"
     id="path192" />
  <g
     transform="translate(-319.329,118.991)"
     id="g204">
    <path
       style="fill:#204a87;fill-opacity:0.52;stroke-width:0.5"
       d="m -859.5,802.7 a 113.3,38.8 0 0 0 -113.3,38.8 113.3,38.8 0 0 0 113.3,38.8 113.3,38.8 0 0 0 113.3,-38.8 113.3,38.8 0 0 0 -113.3,-38.8 z m 0,7.8 a 90.6,31.1 0 0 1 90.6,31.1 90.6,31.1 0 0 1 -90.6,31.1 90.6,31.1 0 0 1 -90.6,-31.1 90.6,31.1 0 0 1 90.6,-31.1 z"
       id="path194" />
    <path
       style="fill:#204a87;fill-opacity:0.52;stroke-width:0.5"
       d="m -859.5,781 a 68,23.3 0 0 0 -68,23.3 68,23.3 0 0 0 68,23.3 68,23.3 0 0 0 68,-23.3 68,23.3 0 0 0 -68,-23.3 z m 0,7.8 a 45.3,15.5 0 0 1 45.3,15.5 45.3,15.5 0 0 1 -45.3,15.5 45.3,15.5 0 0 1 -45.3,-15.5 45.3,15.5 0 0 1 45.3,-15.5 z"
       id="path196" />
    <ellipse
       cx="-859.5"
       cy="759.8"
       rx="22.7"
       ry="7.8"
       style="fill:#204a87;fill-opacity:0.52;stroke-width:0.5"
       id="ellipse198" />
    <path
       style="fill:#204a87;fill-opacity:0.52;stroke-width:0.5"
       d="m -859.5,792.8 a 90.6,31.1 0 0 0 -90.6,31.1 90.6,31.1 0 0 0 90.6,31.1 90.6,31.1 0 0 0 90.6,-31.1 90.6,31.1 0 0 0 -90.6,-31.1 z m 0,7.8 a 68,23.3 0 0 1 68,23.3 68,23.3 0 0 1 -68,23.3 68,23.3 0 0 1 -68,-23.3 68,23.3 0 0 1 68,-23.3 z"
       id="path200" />
    <path
       style="fill:#204a87;fill-opacity:0.52;stroke-width:0.5"
       d="m -859.5,766.4 a 45.3,15.5 0 0 0 -45.3,15.5 45.3,15.5 0 0 0 45.3,15.5 45.3,15.5 0 0 0 45.3,-15.5 45.3,15.5 0 0 0 -45.3,-15.5 z m 0,7.8 a 22.7,7.8 0 0 1 22.7,7.8 22.7,7.8 0 0 1 -22.7,7.8 22.7,7.8 0 0 1 -22.7,-7.8 22.7,7.8 0 0 1 22.7,-7.8 z"
       id="path202" />
  </g>
  <path
     style="fill:url(#id21);stroke-width:0.32"
     d="m -1155.5,878.6 c 0,4.3 -10.4,7.7 -23.2,7.7 -12.8,0 -23.2,-3.5 -23.2,-7.7 0,19.1 0,0 0,19.1 0,4.3 10.4,7.7 23.2,7.7 12.8,0 23.2,-3.5 23.2,-7.7 0,-19.1 0,0 0,-19.1 z"
     id="path206" />
  <path
     style="stroke:black;stroke-width:1px"
     d="m -817.3,1044.7 h 348.7"
     id="path208" />
  <ellipse
     cx="-774.4"
     cy="760.2"
     rx="22.3"
     ry="7.8"
     style="fill:url(#id22);stroke-width:0.49"
     id="ellipse210" />
  <path
     style="fill:url(#id23);stroke-width:0.32"
     d="m -750.6,759.6 c 0,4.3 -10.4,7.7 -23.2,7.7 -12.8,0 -23.2,-3.5 -23.2,-7.7 v 118 c 0,4.3 10.4,7.7 23.2,7.7 12.8,0 23.2,-3.5 23.2,-7.7 z"
     id="path212" />
  <path
     style="fill:url(#id24);stroke-width:0.5"
     d="m -751,767.8 v 11.9 a 22.9,7.8 0 0 1 0.5,1.6 22.9,7.8 0 0 1 -22.9,7.8 22.9,7.8 0 0 1 -22.9,-7.8 22.9,7.8 0 0 1 0,-0.3 v -13.2 a 45.8,15.5 0 0 0 -22.9,13.4 45.8,15.5 0 0 0 45.8,15.5 45.8,15.5 0 0 0 45.8,-15.5 45.8,15.5 0 0 0 -23.4,-13.5 z"
     id="path214" />
  <path
     style="fill:url(#id25);stroke-width:0.63"
     d="m -727.7,780.8 c 0,8.5 -20.6,15.3 -46,15.3 -25.4,0 -46,-6.9 -46,-15.3 v 96.5 c 0,8.5 20.6,15.3 46,15.3 25.4,0 46,-6.9 46,-15.3 z"
     id="path216" />
  <path
     style="fill:url(#id26);stroke-width:0.5"
     d="m -729,787.7 v 15.3 a 45.3,15.5 0 0 1 0.5,2.2 45.3,15.5 0 0 1 -45.3,15.5 45.3,15.5 0 0 1 -45.3,-15.5 45.3,15.5 0 0 1 0.3,-1.8 v -15.7 a 68,23.3 0 0 0 -23,17.4 68,23.3 0 0 0 68,23.3 68,23.3 0 0 0 68,-23.3 68,23.3 0 0 0 -23.2,-17.5 z"
     id="path218" />
  <path
     style="fill:url(#id27);stroke-width:0.93"
     d="m -705.9,804.9 c 0,12.5 -30.4,22.6 -68,22.6 -37.5,0 -68,-10.1 -68,-22.6 v 72.9 c 0,12.5 30.4,22.6 68,22.6 37.5,0 68,-10.1 68,-22.6 z"
     id="path220" />
  <path
     style="fill:url(#id28);stroke-width:0.5"
     d="m -841.2,803.5 a 90.6,31.1 0 0 0 -23.3,20.7 90.6,31.1 0 0 0 90.6,31.1 90.6,31.1 0 0 0 90.6,-31.1 90.6,31.1 0 0 0 -23.1,-20.7 v 18.2 a 68,23.3 0 0 1 0.5,2.5 68,23.3 0 0 1 -68,23.3 68,23.3 0 0 1 -68,-23.3 68,23.3 0 0 1 0.6,-2.9 z"
     id="path222" />
  <path
     style="fill:url(#id29);stroke-width:1.24"
     d="m -683.4,824.6 c 0,16.7 -40.5,30.2 -90.5,30.2 -50,0 -90.5,-13.5 -90.5,-30.2 v 53.6 c 0,16.7 40.5,30.2 90.5,30.2 50,0 90.5,-13.5 90.5,-30.2 z"
     id="path224" />
  <path
     style="fill:#005c8f;stroke-width:0.5"
     d="m -1165.8,738.1 a 113.3,38.8 0 0 0 -113.3,38.8 113.3,38.8 0 0 0 113.3,38.8 113.3,38.8 0 0 0 113.3,-38.8 113.3,38.8 0 0 0 -113.3,-38.8 z m 0,7.8 a 90.6,31.1 0 0 1 90.6,31.1 90.6,31.1 0 0 1 -90.6,31.1 90.6,31.1 0 0 1 -90.6,-31.1 90.6,31.1 0 0 1 90.6,-31.1 z"
     id="path226" />
  <path
     style="fill:url(#id30);stroke-width:0.49"
     d="m -684.1,820 v 19.9 a 90.1,30 0 0 1 0.4,2.7 90.1,30 0 0 1 -90.1,30 90.1,30 0 0 1 -90.1,-30 90.1,30 0 0 1 0.3,-1.7 v -20.8 a 112.7,37.5 0 0 0 -22.8,22.5 112.7,37.5 0 0 0 112.7,37.5 112.7,37.5 0 0 0 112.7,-37.5 112.7,37.5 0 0 0 -23,-22.6 z"
     id="path228" />
  <path
     style="fill:url(#id31);stroke-width:1.62"
     d="m -659.8,839 c 0,22.7 -50.9,41.1 -113.6,41.1 -62.7,0 -113.6,-18.4 -113.6,-41.1 v 39.2 c 0,22.7 50.9,41.1 113.6,41.1 62.7,0 113.6,-18.4 113.6,-41.1 z"
     id="path230" />
  <g
     style="stroke-width:1.41px"
     transform="matrix(0.735078,0,0,0.688496,-82.1501,288.127)"
     id="g262">
    <path
       style="fill:#005c94;fill-opacity:0.17;stroke-width:0.45"
       d="m 255.3,407.4 c 0,-4.3 -10.4,-7.7 -23.2,-7.7 -12.8,0 -23.2,3.5 -23.2,7.7 V 289.4 c 0,-4.3 10.4,-7.7 23.2,-7.7 12.8,0 23.2,3.5 23.2,7.7 z"
       id="path232" />
    <path
       style="fill:#005c94;fill-opacity:0.17;stroke-width:0.88"
       d="m 278.7,407.1 c 0,-8.5 -20.6,-15.4 -46,-15.4 -25.4,0 -46,6.9 -46,15.4 v -96.5 c 0,-8.5 20.6,-15.3 46,-15.3 25.4,0 46,6.9 46,15.3 z"
       id="path234" />
    <path
       style="fill:#005c94;fill-opacity:0.17;stroke-width:1.3"
       d="m 301,407.8 c 0,-12.5 -30.4,-22.6 -68,-22.6 -37.5,0 -68,10.1 -68,22.6 v -72.9 c 0,-12.5 30.4,-22.6 68,-22.6 37.5,0 68,10.1 68,22.6 z"
       id="path236" />
    <path
       style="fill:#005c94;fill-opacity:0.17;stroke-width:1.74"
       d="m 323.5,407.2 c 0,-16.7 -40.5,-30.2 -90.5,-30.2 -50,0 -90.5,13.5 -90.5,30.2 v -53.6 c 0,-16.7 40.5,-30.3 90.5,-30.3 50,0 90.5,13.5 90.5,30.3 z"
       id="path238" />
    <path
       style="fill:#005c94;fill-opacity:0.17;stroke-width:2.27"
       d="m 345,413.9 c 0,-22.7 -50.7,-41.1 -113.1,-41.1 -62.5,0 -113.1,18.4 -113.1,41.1 v -39.2 c 0,-22.7 50.7,-41.1 113.1,-41.1 62.5,0 113.1,18.4 113.1,41.1 z"
       id="path240" />
    <ellipse
       cx="231.9"
       cy="289.7"
       rx="22.3"
       ry="7.8"
       style="fill:url(#id32);stroke-width:0.7"
       id="ellipse242" />
    <path
       style="fill:url(#id33);stroke-width:0.45"
       d="m 255.6,289.2 c 0,4.3 -10.4,7.7 -23.2,7.7 -12.8,0 -23.2,-3.5 -23.2,-7.7 v 118 c 0,4.3 10.4,7.7 23.2,7.7 12.8,0 23.2,-3.5 23.2,-7.7 z"
       id="path244" />
    <path
       style="fill:url(#id34);stroke-width:0.7"
       d="m 255.2,297.4 v 11.9 a 22.9,7.8 0 0 1 0.5,1.6 22.9,7.8 0 0 1 -22.9,7.8 22.9,7.8 0 0 1 -22.9,-7.8 22.9,7.8 0 0 1 0,-0.3 v -13.2 a 45.8,15.5 0 0 0 -22.9,13.4 45.8,15.5 0 0 0 45.8,15.5 45.8,15.5 0 0 0 45.8,-15.5 45.8,15.5 0 0 0 -23.4,-13.5 z"
       id="path246" />
    <path
       style="fill:url(#id35);stroke-width:0.88"
       d="m 278.6,310.4 c 0,8.5 -20.6,15.4 -46,15.4 -25.4,0 -46,-6.9 -46,-15.4 v 96.5 c 0,8.5 20.6,15.4 46,15.4 25.4,0 46,-6.9 46,-15.4 z"
       id="path248" />
    <path
       style="fill:url(#id36);stroke-width:0.7"
       d="m 277.3,317.3 v 15.3 a 45.3,15.5 0 0 1 0.5,2.2 45.3,15.5 0 0 1 -45.3,15.5 45.3,15.5 0 0 1 -45.3,-15.5 45.3,15.5 0 0 1 0.3,-1.8 v -15.7 a 68,23.3 0 0 0 -23,17.4 68,23.3 0 0 0 68,23.3 68,23.3 0 0 0 68,-23.3 68,23.3 0 0 0 -23.2,-17.5 z"
       id="path250" />
    <path
       style="fill:url(#id37);stroke-width:1.3"
       d="m 300.4,334.5 c 0,12.5 -30.4,22.6 -68,22.6 -37.5,0 -68,-10.1 -68,-22.6 v 72.9 c 0,12.5 30.4,22.6 68,22.6 37.5,0 68,-10.1 68,-22.6 z"
       id="path252" />
    <path
       style="fill:url(#id38);stroke-width:0.7"
       d="m 165.1,333.1 a 90.6,31.1 0 0 0 -23.3,20.7 90.6,31.1 0 0 0 90.6,31.1 90.6,31.1 0 0 0 90.6,-31.1 90.6,31.1 0 0 0 -23.1,-20.7 v 18.2 a 68,23.3 0 0 1 0.5,2.5 68,23.3 0 0 1 -68,23.3 68,23.3 0 0 1 -68,-23.3 68,23.3 0 0 1 0.6,-2.9 z"
       id="path254" />
    <path
       style="fill:url(#id39);stroke-width:1.74"
       d="m 322.9,354.2 c 0,16.7 -40.5,30.2 -90.5,30.2 -50,0 -90.5,-13.5 -90.5,-30.2 v 53.6 c 0,16.7 40.5,30.3 90.5,30.3 50,0 90.5,-13.5 90.5,-30.3 z"
       id="path256" />
    <path
       style="fill:url(#id40);stroke-width:0.69"
       d="m 322.2,349.6 v 19.9 a 90.1,30 0 0 1 0.4,2.7 90.1,30 0 0 1 -90.1,30 90.1,30 0 0 1 -90.1,-30 90.1,30 0 0 1 0.3,-1.7 v -20.9 a 112.7,37.5 0 0 0 -22.8,22.5 112.7,37.5 0 0 0 112.7,37.5 112.7,37.5 0 0 0 112.7,-37.5 112.7,37.5 0 0 0 -23,-22.6 z"
       id="path258" />
    <path
       style="fill:url(#id41);stroke-width:2.27"
       d="m 345.3,369.2 c 0,22.7 -50.7,41.1 -113.1,41.1 -62.5,0 -113.1,-18.4 -113.1,-41.1 v 39.2 c 0,22.7 50.7,41.1 113.1,41.1 62.5,0 113.1,-18.4 113.1,-41.1 z"
       id="path260" />
  </g>
  <ellipse
     cx="557"
     cy="963.5"
     rx="23.7"
     ry="22.3"
     transform="matrix(0.288058,0.957613,-0.988262,0.152767,0,0)"
     style="fill:url(#id42);stroke-width:4.23"
     id="ellipse264" />
  <path
     style="fill:url(#id43);stroke:black;stroke-width:0.76"
     d="m 44.1,77.6 c -9.6,8.2 -22.2,15.5 -35.2,21.4 v 27.6 c 18.2,38.4 157.2,36.3 165.8,0 V 99.1 c -12.9,-5.9 -25.4,-13.2 -34.9,-21.3 -17.5,-13.2 -33.9,-39.4 -49.4,-39.9 -15.5,-0.5 -32,27.4 -46.3,39.8 z"
     id="path266" />
  <path
     style="marker-end:url(#id13);stroke:black;stroke-width:1"
     d="M 379.1,53 V -89.9"
     id="path268" />
  <text
     x="385.1"
     y="-69"
     style="font-style:italic;fill:black"
     id="text270">y</text>
  <text
     x="470.4"
     y="26.4"
     style="font-style:italic;fill:black"
     id="text272">x</text>
  <path
     style="marker-end:url(#id14);stroke:black;stroke-width:1"
     d="M 343.3,36.2 H 483.9"
     id="path274" />
  <path
     style="stroke:#0084c8;stroke-width:1.36"
     d="m 379,-54.4 c 14.7,-0.2 37,31.3 49.5,40.3 9.5,8.2 22,15.5 34.9,21.3 V 35"
     id="path276" />
  <text
     x="423.4"
     y="-24.8"
     style="font-family:'Comic Sans MS';font-style:italic;fill:#0084c8;stroke-width:1px"
     id="text278">f(x)</text>
  <path
     style="marker-start:url(#id44);stroke:#8f5902;stroke-width:1"
     d="m 25,111.8 c 10,5.9 39.2,21 70.6,20.4 31.4,-0.6 55.1,-10.6 62,-23.9"
     id="path280" />
  <path
     style="marker-start:url(#id45);stroke:#8f5902;stroke-width:1"
     d="m 66.1,72.8 c 4.1,2.1 14.8,8 26.7,7.8 11.9,-0.2 20.9,-4 23.4,-9"
     id="path282" />
  <path
     style="marker-start:url(#id46);stroke:#8f5902;stroke-width:1"
     d="m 53.4,94.5 c 5.9,3.1 21.8,11.7 39.2,11.4 17.5,-0.3 30.7,-5.9 34.4,-13.3"
     id="path284" />
  <ellipse
     cx="132.9"
     cy="-14.2"
     rx="19.2"
     ry="11.8"
     transform="matrix(0.77463,0.632415,-0.416946,0.908931,0,0)"
     style="fill:url(#id47);stroke-width:2.77"
     id="ellipse286" />
  <ellipse
     cx="185.3"
     cy="-97.7"
     rx="15.6"
     ry="10.8"
     transform="matrix(0.173412,0.984849,-0.857696,0.514157,0,0)"
     style="fill:url(#id48);stroke-width:2.38"
     id="ellipse288" />
  <path
     style="stroke:black;stroke-width:0.76"
     d="m 40.2,521.4 c -9.7,8.1 -22.4,15.5 -35.5,21.4 v 27.6 c 18.3,38.4 158.6,36.3 167.3,0 V 542.8 C 159,537 146.3,529.7 136.7,521.5 119.1,508.3 102.5,482.2 86.9,481.7 71.3,481.2 54.6,509 40.2,521.4 Z"
     id="path290" />
  <ellipse
     cx="320.3"
     cy="338.9"
     rx="19.2"
     ry="11.8"
     transform="matrix(0.77463,0.632415,-0.416946,0.908931,0,0)"
     style="fill:url(#id49);stroke-width:2.77"
     id="ellipse292" />
  <ellipse
     cx="587.6"
     cy="-13.9"
     rx="15.6"
     ry="10.8"
     transform="matrix(0.173412,0.984849,-0.857696,0.514157,0,0)"
     style="fill:url(#id50);stroke-width:2.38"
     id="ellipse294" />
</svg>
