<?xml version="1.0" encoding="UTF-8" standalone="no"?>
<svg
   xmlns:dc="http://purl.org/dc/elements/1.1/"
   xmlns:cc="http://creativecommons.org/ns#"
   xmlns:rdf="http://www.w3.org/1999/02/22-rdf-syntax-ns#"
   xmlns:svg="http://www.w3.org/2000/svg"
   xmlns="http://www.w3.org/2000/svg"
   xmlns:xlink="http://www.w3.org/1999/xlink"
   xmlns:sodipodi="http://sodipodi.sourceforge.net/DTD/sodipodi-0.dtd"
   xmlns:inkscape="http://www.inkscape.org/namespaces/inkscape"
   width="200.9"
   height="163.6"
   version="1.1"
   style="font-family:'Comic Sans MS';font-size:20px;fill:none;stroke-width:1px"
   id="svg359"
   sodipodi:docname="solid-shell-3.svg"
   inkscape:version="1.0.1 (3bc2e813f5, 2020-09-07)">
  <metadata
     id="metadata363">
    <rdf:RDF>
      <cc:Work
         rdf:about="">
        <dc:format>image/svg+xml</dc:format>
        <dc:type
           rdf:resource="http://purl.org/dc/dcmitype/StillImage" />
      </cc:Work>
    </rdf:RDF>
  </metadata>
  <sodipodi:namedview
     pagecolor="#ffffff"
     bordercolor="#666666"
     borderopacity="1"
     objecttolerance="10"
     gridtolerance="10"
     guidetolerance="10"
     inkscape:pageopacity="0"
     inkscape:pageshadow="2"
     inkscape:window-width="640"
     inkscape:window-height="480"
     id="namedview361"
     showgrid="false"
     inkscape:current-layer="svg359"
     inkscape:document-rotation="0" />
  <defs
     id="defs147">
    <marker
       style="overflow:visible"
       id="marker1413"
       refX="0.0"
       refY="0.0"
       orient="auto"
       inkscape:stockid="Arrow1Lend"
       inkscape:isstock="true">
      <path
         transform="scale(0.8) rotate(180) translate(12.5,0)"
         style="fill-rule:evenodd;stroke:#3465a4;stroke-width:1pt;stroke-opacity:1;fill:#3465a4;fill-opacity:1"
         d="M 0.0,0.0 L 5.0,-5.0 L -12.5,0.0 L 5.0,5.0 L 0.0,0.0 z "
         id="path1411" />
    </marker>
    <marker
       style="overflow:visible"
       id="marker1403"
       refX="0.0"
       refY="0.0"
       orient="auto"
       inkscape:stockid="Arrow1Lend"
       inkscape:isstock="true">
      <path
         transform="scale(0.8) rotate(180) translate(12.5,0)"
         style="fill-rule:evenodd;stroke:#3465a4;stroke-width:1pt;stroke-opacity:1;fill:#3465a4;fill-opacity:1"
         d="M 0.0,0.0 L 5.0,-5.0 L -12.5,0.0 L 5.0,5.0 L 0.0,0.0 z "
         id="path1401" />
    </marker>
    <linearGradient
       id="linearGradient1236">
      <stop
         offset="0"
         style="stop-color:#005a8c;stop-opacity:0.862543"
         id="stop1230" />
      <stop
         offset="1"
         style="stop-color:#19aeff;stop-opacity:0.697595"
         id="stop1234" />
    </linearGradient>
    <marker
       id="aa70"
       style="overflow:visible"
       orient="auto">
      <path
         transform="matrix(-0.8,0,0,-0.8,-10,0)"
         style="fill:#ff6600;stroke:#ff6600;stroke-width:1pt"
         d="M 0,0 5,-5 -12.5,0 5,5 Z"
         id="path2" />
    </marker>
    <linearGradient
       id="aa12">
      <stop
         offset="0"
         style="stop-color:#ff6600;stop-opacity:1"
         id="stop5" />
      <stop
         offset="1"
         style="stop-color:#ff6600;stop-opacity:0"
         id="stop7" />
    </linearGradient>
    <marker
       id="aa68"
       style="overflow:visible"
       orient="auto">
      <path
         transform="matrix(-0.8,0,0,-0.8,-10,0)"
         style="fill:#ff6600;stroke:#ff6600;stroke-width:1pt"
         d="M 0,0 5,-5 -12.5,0 5,5 Z"
         id="path10" />
    </marker>
    <linearGradient
       id="aa11">
      <stop
         offset="0"
         style="stop-color:#d98200;stop-opacity:0.83"
         id="stop13" />
      <stop
         offset="0.702"
         style="stop-color:#ffe1b5;stop-opacity:0.83"
         id="stop15" />
      <stop
         offset="1"
         style="stop-color:#ffdda8;stop-opacity:0.33"
         id="stop17" />
    </linearGradient>
    <linearGradient
       id="aa10">
      <stop
         offset="0"
         style="stop-color:#d98200;stop-opacity:1"
         id="stop20" />
      <stop
         offset="0.444"
         style="stop-color:#efe87e;stop-opacity:0.46"
         id="stop22" />
      <stop
         offset="1"
         style="stop-color:#ffd491;stop-opacity:0.81"
         id="stop24" />
    </linearGradient>
    <linearGradient
       id="aa9">
      <stop
         offset="0"
         style="stop-color:#005c8f;stop-opacity:0.53"
         id="stop27" />
      <stop
         offset="0.305"
         style="stop-color:#057dbf;stop-opacity:0.29"
         id="stop29" />
      <stop
         offset="1"
         style="stop-color:#19aeff;stop-opacity:0"
         id="stop31" />
    </linearGradient>
    <marker
       id="aa49"
       style="overflow:visible"
       orient="auto">
      <path
         transform="matrix(0.8,0,0,0.8,10,0)"
         style="fill:#8f5902;stroke:#8f5902;stroke-width:1pt"
         d="M 0,0 5,-5 -12.5,0 5,5 Z"
         id="path34" />
    </marker>
    <marker
       id="aa50"
       style="overflow:visible"
       orient="auto">
      <path
         transform="matrix(0.8,0,0,0.8,10,0)"
         style="fill:#8f5902;stroke:#8f5902;stroke-width:1pt"
         d="M 0,0 5,-5 -12.5,0 5,5 Z"
         id="path37" />
    </marker>
    <marker
       id="aa48"
       style="overflow:visible"
       orient="auto">
      <path
         transform="matrix(0.8,0,0,0.8,10,0)"
         style="fill:#8f5902;stroke:#8f5902;stroke-width:1pt"
         d="M 0,0 5,-5 -12.5,0 5,5 Z"
         id="path40" />
    </marker>
    <linearGradient
       id="aa8">
      <stop
         offset="0"
         style="stop-color:#204a87;stop-opacity:1"
         id="stop43" />
      <stop
         offset="1"
         style="stop-color:#204a87;stop-opacity:0.16"
         id="stop45" />
    </linearGradient>
    <linearGradient
       id="aa7">
      <stop
         offset="0"
         style="stop-color:#19aeff;stop-opacity:0.73"
         id="stop48" />
      <stop
         offset="0.642"
         style="stop-color:#e1f4ff;stop-opacity:0.88"
         id="stop50" />
      <stop
         offset="1"
         style="stop-color:#19aeff;stop-opacity:0.77"
         id="stop52" />
    </linearGradient>
    <linearGradient
       id="aa6">
      <stop
         offset="0"
         style="stop-color:#0084c8;stop-opacity:0.83"
         id="stop55" />
      <stop
         offset="0.737"
         style="stop-color:#0084c8;stop-opacity:0.41"
         id="stop57" />
      <stop
         offset="1"
         style="stop-color:white;stop-opacity:0.47"
         id="stop59" />
    </linearGradient>
    <linearGradient
       id="aa5">
      <stop
         offset="0"
         style="stop-color:#204a87;stop-opacity:1"
         id="stop62" />
      <stop
         offset="1"
         style="stop-color:#81a7e1;stop-opacity:0.52"
         id="stop64" />
    </linearGradient>
    <linearGradient
       id="aa4">
      <stop
         offset="0"
         style="stop-color:#17345f;stop-opacity:1"
         id="stop67" />
      <stop
         offset="1"
         style="stop-color:#d1dff4;stop-opacity:1"
         id="stop69" />
    </linearGradient>
    <linearGradient
       id="aa3">
      <stop
         offset="0"
         style="stop-color:#204a87;stop-opacity:0.95"
         id="stop72" />
      <stop
         offset="1"
         style="stop-color:#d1dff4;stop-opacity:0.97"
         id="stop74" />
    </linearGradient>
    <marker
       id="aa15"
       style="overflow:visible"
       orient="auto">
      <path
         transform="matrix(-0.8,0,0,-0.8,-10,0)"
         style="fill:black;stroke:black;stroke-width:1pt"
         d="M 0,0 5,-5 -12.5,0 5,5 Z"
         id="path77" />
    </marker>
    <linearGradient
       id="aa1">
      <stop
         offset="0"
         style="stop-color:#005c8f;stop-opacity:1"
         id="stop80" />
      <stop
         offset="0.305"
         style="stop-color:#057dbf;stop-opacity:0.69"
         id="stop82" />
      <stop
         offset="1"
         style="stop-color:#19aeff;stop-opacity:0"
         id="stop84" />
    </linearGradient>
    <radialGradient
       id="aa51"
       r="19.5106"
       fx="-207.624"
       fy="206.138"
       cx="-207.6"
       cy="206.1"
       gradientTransform="matrix(0.986142,0,0,0.607494,342.83,-986.671)"
       xlink:href="#aa2"
       gradientUnits="userSpaceOnUse" />
    <linearGradient
       id="aa2">
      <stop
         offset="0"
         style="stop-color:white;stop-opacity:1"
         id="stop88" />
      <stop
         offset="1"
         style="stop-color:white;stop-opacity:0"
         id="stop90" />
    </linearGradient>
    <marker
       id="aa16"
       style="overflow:visible"
       orient="auto">
      <path
         transform="matrix(-0.8,0,0,-0.8,-10,0)"
         style="fill:black;stroke:black;stroke-width:1pt"
         d="M 0,0 5,-5 -12.5,0 5,5 Z"
         id="path93" />
    </marker>
    <linearGradient
       id="aa56"
       gradientTransform="matrix(1.00684,0,0,0.837646,607.89,-230.575)"
       xlink:href="#aa3"
       x1="-122"
       y1="534.7"
       x2="10"
       y2="534.7"
       gradientUnits="userSpaceOnUse" />
    <linearGradient
       id="aa55"
       gradientTransform="matrix(1.00684,0,0,0.837646,606.377,-229.718)"
       xlink:href="#aa4"
       x1="23.1"
       y1="515.8"
       x2="-73.7"
       y2="515.8"
       gradientUnits="userSpaceOnUse" />
    <linearGradient
       id="aa21"
       gradientTransform="matrix(0.931401,0,0,1,-407.994,-590.716)"
       xlink:href="#aa4"
       x1="23.1"
       y1="515.8"
       x2="-73.7"
       y2="515.8"
       gradientUnits="userSpaceOnUse" />
    <linearGradient
       id="aa36"
       gradientTransform="matrix(1.73339,0,0,1.88774,-318.954,-865.355)"
       xlink:href="#aa5"
       x1="-114.1"
       y1="534.4"
       x2="10"
       y2="534.7"
       gradientUnits="userSpaceOnUse" />
    <linearGradient
       id="aa20"
       gradientTransform="matrix(1.00033,0,0,0.905058,197.173,-860.631)"
       xlink:href="#aa4"
       x1="23.1"
       y1="515.8"
       x2="-73.7"
       y2="515.8"
       gradientUnits="userSpaceOnUse" />
    <linearGradient
       id="aa19"
       gradientTransform="matrix(1.04824,0,0,0.90487,209.651,-708.2)"
       xlink:href="#aa3"
       x1="-122"
       y1="534.7"
       x2="10"
       y2="534.7"
       gradientUnits="userSpaceOnUse" />
    <linearGradient
       id="aa18"
       gradientTransform="matrix(0.820941,0,0,0.90487,196.979,-711.538)"
       xlink:href="#aa3"
       x1="-122"
       y1="534.7"
       x2="10"
       y2="534.7"
       gradientUnits="userSpaceOnUse" />
    <linearGradient
       id="aa47"
       gradientTransform="matrix(0,1.21832,-0.7593,0,587.483,-28.3916)"
       xlink:href="#aa1"
       x1="-549.1"
       y1="238"
       x2="-525.3"
       y2="100.5"
       gradientUnits="userSpaceOnUse" />
    <linearGradient
       id="aa34"
       gradientTransform="matrix(1.38032,0,0,1.38953,-339.194,-632.311)"
       xlink:href="#aa5"
       x1="-112.5"
       y1="535.6"
       x2="10"
       y2="534.7"
       gradientUnits="userSpaceOnUse" />
    <linearGradient
       id="aa32"
       gradientTransform="matrix(1.03702,0,0,1.03841,-358.434,-477.708)"
       xlink:href="#aa5"
       x1="-108.2"
       y1="533.5"
       x2="10"
       y2="534.7"
       gradientUnits="userSpaceOnUse" />
    <linearGradient
       id="aa30"
       gradientTransform="matrix(0.701959,0,0,0.705275,-377.054,-336.309)"
       xlink:href="#aa5"
       x1="-99.9"
       y1="534.7"
       x2="10"
       y2="534.7"
       gradientUnits="userSpaceOnUse" />
    <linearGradient
       id="aa28"
       gradientTransform="matrix(0.353686,0,0,0.354161,-396.714,-183.146)"
       xlink:href="#aa5"
       x1="-122"
       y1="534.7"
       x2="10"
       y2="534.7"
       gradientUnits="userSpaceOnUse" />
    <linearGradient
       id="aa22"
       gradientTransform="matrix(1.03702,0,0,1.03841,-762.924,-358.746)"
       xlink:href="#aa3"
       x1="-122"
       y1="534.7"
       x2="10"
       y2="534.7"
       gradientUnits="userSpaceOnUse" />
    <linearGradient
       id="aa23"
       gradientTransform="matrix(1.38032,0,0,1.38953,-744.034,-513.349)"
       xlink:href="#aa3"
       x1="-122"
       y1="534.7"
       x2="10"
       y2="534.7"
       gradientUnits="userSpaceOnUse" />
    <linearGradient
       id="aa24"
       gradientTransform="matrix(1.7405,0,0,1.88774,-723.694,-746.393)"
       xlink:href="#aa3"
       x1="-122"
       y1="534.7"
       x2="10"
       y2="534.7"
       gradientUnits="userSpaceOnUse" />
    <linearGradient
       id="aa25"
       gradientTransform="matrix(0.70433,0,0,0.705275,-782.274,-217.346)"
       xlink:href="#aa3"
       x1="-122"
       y1="534.7"
       x2="10"
       y2="534.7"
       gradientUnits="userSpaceOnUse" />
    <linearGradient
       id="aa26"
       gradientTransform="matrix(0.353686,0,0,0.354161,-801.564,-64.1842)"
       xlink:href="#aa3"
       x1="-122"
       y1="534.7"
       x2="10"
       y2="534.7"
       gradientUnits="userSpaceOnUse" />
    <linearGradient
       id="aa33"
       gradientTransform="translate(444.49,-766.853)"
       xlink:href="#aa6"
       x1="-954.1"
       y1="831.9"
       x2="-770.4"
       y2="829.4"
       gradientUnits="userSpaceOnUse" />
    <linearGradient
       id="aa31"
       gradientTransform="translate(442.625,-766.853)"
       xlink:href="#aa6"
       x1="-927.1"
       y1="808.1"
       x2="-791.2"
       y2="808.1"
       gradientUnits="userSpaceOnUse" />
    <linearGradient
       id="aa29"
       gradientTransform="matrix(1.0097,0,0,1,451.398,-766.853)"
       xlink:href="#aa6"
       x1="-904.5"
       y1="782.3"
       x2="-813.8"
       y2="782.3"
       gradientUnits="userSpaceOnUse" />
    <linearGradient
       id="aa35"
       gradientTransform="matrix(0.99451,0,0,0.965032,437.602,-736.68)"
       xlink:href="#aa6"
       x1="-972.8"
       y1="847.6"
       x2="-745.6"
       y2="849.5"
       gradientUnits="userSpaceOnUse" />
    <linearGradient
       id="aa27"
       gradientTransform="translate(442.625,-766.853)"
       xlink:href="#aa6"
       x1="-882"
       y1="760.1"
       x2="-837.4"
       y2="760.1"
       gradientUnits="userSpaceOnUse" />
    <linearGradient
       id="aa45"
       gradientTransform="translate(1095.34,-706.605)"
       xlink:href="#aa7"
       x1="-975.6"
       y1="1086.2"
       x2="-750.2"
       y2="1086.2"
       gradientUnits="userSpaceOnUse" />
    <linearGradient
       id="aa43"
       gradientTransform="translate(1095.34,-706.605)"
       xlink:href="#aa7"
       x1="-960.6"
       y1="1066"
       x2="-765.7"
       y2="1063.4"
       gradientUnits="userSpaceOnUse" />
    <linearGradient
       id="aa41"
       gradientTransform="translate(1095.34,-706.605)"
       xlink:href="#aa7"
       x1="-937"
       y1="1044.3"
       x2="-778.6"
       y2="1044.3"
       gradientUnits="userSpaceOnUse" />
    <linearGradient
       id="aa39"
       gradientTransform="translate(1095.34,-706.605)"
       xlink:href="#aa7"
       x1="-919.6"
       y1="1018.5"
       x2="-796.9"
       y2="1017.2"
       gradientUnits="userSpaceOnUse" />
    <linearGradient
       id="aa37"
       gradientTransform="translate(1095.34,-706.605)"
       xlink:href="#aa7"
       x1="-899.8"
       y1="995.9"
       x2="-820.9"
       y2="995.9"
       gradientUnits="userSpaceOnUse" />
    <linearGradient
       id="aa46"
       gradientTransform="translate(437.093,-696.787)"
       xlink:href="#aa8"
       x1="-318.1"
       y1="1106.1"
       x2="-91.8"
       y2="1106.1"
       gradientUnits="userSpaceOnUse" />
    <linearGradient
       id="aa44"
       gradientTransform="translate(437.093,-696.787)"
       xlink:href="#aa8"
       x1="-295.1"
       y1="1092.9"
       x2="-114.2"
       y2="1092.9"
       gradientUnits="userSpaceOnUse" />
    <linearGradient
       id="aa42"
       gradientTransform="translate(437.093,-696.787)"
       xlink:href="#aa8"
       x1="-272.6"
       y1="1079"
       x2="-136.7"
       y2="1079"
       gradientUnits="userSpaceOnUse" />
    <linearGradient
       id="aa40"
       gradientTransform="translate(437.093,-696.787)"
       xlink:href="#aa8"
       x1="-250.5"
       y1="1063.1"
       x2="-158.5"
       y2="1063.1"
       gradientUnits="userSpaceOnUse" />
    <linearGradient
       id="aa38"
       gradientTransform="translate(437.093,-696.787)"
       xlink:href="#aa8"
       x1="-227.8"
       y1="1048.8"
       x2="-181.5"
       y2="1048.8"
       gradientUnits="userSpaceOnUse" />
    <radialGradient
       id="aa52"
       r="19.5106"
       fx="-207.624"
       fy="206.138"
       cx="-207.6"
       cy="206.1"
       gradientTransform="matrix(0.798162,0,0,0.555217,-156.672,-731.313)"
       xlink:href="#aa2"
       gradientUnits="userSpaceOnUse" />
    <radialGradient
       id="aa53"
       r="19.5106"
       fx="-207.624"
       fy="206.138"
       cx="-207.6"
       cy="206.1"
       gradientTransform="matrix(0.986142,0,0,0.607494,530.159,-633.645)"
       xlink:href="#aa2"
       gradientUnits="userSpaceOnUse" />
    <radialGradient
       id="aa54"
       r="19.5106"
       fx="-207.624"
       fy="206.138"
       cx="-207.6"
       cy="206.1"
       gradientTransform="matrix(0.798162,0,0,0.555217,245.695,-647.533)"
       xlink:href="#aa2"
       gradientUnits="userSpaceOnUse" />
    <linearGradient
       id="aa17"
       gradientTransform="matrix(0,1.21832,-0.7593,0,586.578,593.095)"
       xlink:href="#aa9"
       x1="-549.1"
       y1="238"
       x2="-525.3"
       y2="100.5"
       gradientUnits="userSpaceOnUse" />
    <linearGradient
       id="aa57"
       gradientTransform="matrix(0.176946,0,0,0.147211,166.914,-103.806)"
       xlink:href="#aa4"
       x1="23.1"
       y1="515.8"
       x2="-73.7"
       y2="515.8"
       gradientUnits="userSpaceOnUse" />
    <linearGradient
       id="aa63"
       gradientTransform="matrix(0.148892,0,0,0.123872,98.942,-17.9616)"
       xlink:href="#aa10"
       x1="-122"
       y1="534.7"
       x2="10"
       y2="534.7"
       gradientUnits="userSpaceOnUse" />
    <linearGradient
       id="aa64"
       gradientTransform="matrix(0.234261,0,0,0.194897,103.725,-48.7568)"
       xlink:href="#aa10"
       x1="-122"
       y1="534.7"
       x2="10"
       y2="534.7"
       gradientUnits="userSpaceOnUse" />
    <linearGradient
       id="aa65"
       gradientTransform="matrix(0.319104,0,0,0.265484,108.478,-77.5937)"
       xlink:href="#aa10"
       x1="-122"
       y1="534.7"
       x2="10"
       y2="534.7"
       gradientUnits="userSpaceOnUse" />
    <linearGradient
       id="aa66"
       gradientTransform="matrix(0.416497,0,0,0.346512,113.934,-112.078)"
       xlink:href="#aa10"
       x1="-122"
       y1="534.7"
       x2="10"
       y2="534.7"
       gradientUnits="userSpaceOnUse" />
    <linearGradient
       id="aa67"
       gradientTransform="matrix(0.527119,0,0,0.438546,120.132,-151.008)"
       xlink:href="#aa10"
       x1="-122"
       y1="534.7"
       x2="10"
       y2="534.7"
       gradientUnits="userSpaceOnUse" />
    <linearGradient
       id="aa62"
       gradientTransform="matrix(0.148892,0,0,-0.123872,98.942,191.177)"
       xlink:href="#aa11"
       x1="8.1"
       y1="1146.5"
       x2="-121.8"
       y2="1146.5"
       gradientUnits="userSpaceOnUse" />
    <linearGradient
       id="aa61"
       gradientTransform="matrix(0.234261,0,0,-0.194897,103.725,226.823)"
       xlink:href="#aa10"
       x1="10.7"
       y1="893"
       x2="-120.1"
       y2="893"
       gradientUnits="userSpaceOnUse" />
    <linearGradient
       id="aa60"
       gradientTransform="matrix(0.319104,0,0,-0.265484,108.478,261.775)"
       xlink:href="#aa11"
       x1="13.3"
       y1="786.8"
       x2="-122.4"
       y2="788.9"
       gradientUnits="userSpaceOnUse" />
    <linearGradient
       id="aa59"
       gradientTransform="matrix(0.416497,0,0,-0.346512,113.934,301.612)"
       xlink:href="#aa10"
       x1="10.7"
       y1="699.5"
       x2="-120.7"
       y2="699.5"
       gradientUnits="userSpaceOnUse" />
    <linearGradient
       id="aa14"
       gradientTransform="matrix(0.527119,0,0,-0.438546,120.132,349.213)"
       xlink:href="#aa10"
       x1="9.1"
       y1="643.8"
       x2="-120"
       y2="644.8"
       gradientUnits="userSpaceOnUse" />
    <linearGradient
       id="aa58"
       gradientTransform="matrix(0,1.21832,-0.7593,0,670.67,744.59)"
       xlink:href="#aa1"
       x1="-549.1"
       y1="238"
       x2="-525.3"
       y2="100.5"
       gradientUnits="userSpaceOnUse" />
    <linearGradient
       id="aa13"
       gradientTransform="matrix(0,1.21832,-0.7593,0,229.167,740.077)"
       xlink:href="#linearGradient1236"
       x1="-549.1"
       y1="238"
       x2="-525.3"
       y2="100.5"
       gradientUnits="userSpaceOnUse" />
    <linearGradient
       id="aa69"
       gradientTransform="matrix(1.11277,0,0,1,378.368,-146.177)"
       xlink:href="#aa12"
       x1="-207.4"
       y1="255.8"
       x2="-252.8"
       y2="255.4"
       gradientUnits="userSpaceOnUse" />
    <linearGradient
       id="aa71"
       gradientTransform="matrix(-1.11277,0,0,1,-187.404,-146.629)"
       xlink:href="#aa12"
       x1="-207.4"
       y1="255.8"
       x2="-252.8"
       y2="255.4"
       gradientUnits="userSpaceOnUse" />
    <radialGradient
       id="id48"
       r="19.5106"
       fx="-207.624"
       fy="206.138"
       cx="-207.6"
       cy="206.1"
       gradientTransform="matrix(0.798162,0,0,0.555217,357.767,-215.51)"
       xlink:href="#aa2"
       gradientUnits="userSpaceOnUse" />
  </defs>
  <path
     style="fill:url(#aa13);stroke:black;stroke-width:0.76"
     d="m 44.2,77.9 c -9.6,8.2 -23.5,14.9 -36.5,20.9 l 0.2,29.6 c 18.2,38.4 157.2,36.3 165.8,0 l -0.2,-29.6 c -12.9,-5.9 -24.1,-12.6 -33.6,-20.7 -17.5,-13.2 -33.3,-37.3 -48.8,-37.7 -15.5,-0.5 -32.6,25.2 -46.9,37.6 z"
     id="path149" />
  <path
     style="fill:url(#aa14);stroke-width:0.89"
     d="m 125.1,131.438 c 0,-5.3 -15.5,-9.5 -34.5,-9.5 -19.1,0 -34.5,4.3 -34.5,9.5 V 66.341 c 0,-5.3 15.5,-9.5 34.5,-9.5 19.1,0 34.5,4.3 34.5,9.5 z"
     id="path151" />
  <path
     style="marker-end:url(#marker1403);stroke:#3465a4;stroke-width:1;fill:#3465a4"
     d="M 90.6,163.6 V 1.9"
     id="path153" />
  <text
     x="99.8765"
     y="18.4131"
     style="font-style:italic;fill:#3465a4"
     id="text155">y</text>
  <text
     x="186.983"
     y="119.811"
     style="font-style:italic;fill:#3465a4"
     id="text157">x</text>
  <path
     style="marker-end:url(#marker1413);stroke:#3465a4;stroke-width:1;fill:#3465a4"
     d="M 0,129.8 H 193.7"
     id="path159" />
  <path
     style="fill:url(#aa17);stroke:black;stroke-width:0.76"
     d="m 400.5,-67.7 c -9.6,8.2 -22.2,15.5 -35.2,21.4 v 27.6 c 18.2,38.4 157.2,36.3 165.8,0 v -27.6 c -12.9,-5.9 -25.4,-13.2 -34.9,-21.3 -17.5,-13.2 -33.9,-39.4 -49.4,-39.9 -15.5,-0.5 -32,27.4 -46.3,39.8 z"
     id="path161" />
  <path
     style="marker-end:url(#aa15);stroke:black;stroke-width:1"
     d="m 444.3,-162.9 v -155.8"
     id="path163" />
  <text
     x="449.1"
     y="-297.4"
     style="font-style:italic;fill:black"
     id="text165">y</text>
  <text
     x="545.1"
     y="-206.6"
     style="font-style:italic;fill:black"
     id="text167">x</text>
  <path
     style="marker-end:url(#aa16);stroke:black;stroke-width:1"
     d="M 356.7,-195 H 550.4"
     id="path169" />
  <path
     style="fill:url(#aa18);stroke-width:0.77"
     d="m 204.8,-268.8 c 0,10.9 -24.1,19.7 -53.8,19.7 -29.7,0 -53.8,-8.8 -53.8,-19.7 v 55.5 c 0,10.9 24.1,19.7 53.8,19.7 29.7,0 53.8,-8.8 53.8,-19.7 z"
     id="path171" />
  <path
     style="fill:url(#aa19);stroke-width:0.87"
     d="m 219.6,-258.8 c 0,10.9 -30.8,19.7 -68.7,19.7 -37.9,0 -68.7,-8.8 -68.7,-19.7 0,48.9 0,0 0,48.9 0,10.9 30.8,19.7 68.7,19.7 37.9,0 68.7,-8.8 68.7,-19.7 0,-48.9 0,0 0,-48.9 z"
     id="path173" />
  <path
     style="fill:url(#aa20);stroke:black;stroke-width:0.85"
     d="m 206.7,-361.1 c 0,-10.9 -29.4,-19.7 -65.6,-19.7 -36.2,0 -65.6,8.8 -65.6,19.7 0,-48.9 0,0 0,-48.9 0,-10.9 29.4,-19.7 65.6,-19.7 36.2,0 65.6,8.8 65.6,19.7 0,48.9 0,0 0,48.9 z"
     id="path175" />
  <path
     style="marker-end:url(#aa15);stroke:black;stroke-width:1"
     d="M 447.7,-622 V -764.9"
     id="path177" />
  <text
     x="450"
     y="-736"
     style="font-style:italic;fill:black"
     id="text179">y</text>
  <text
     x="546"
     y="-652.6"
     style="font-style:italic;fill:black"
     id="text181">x</text>
  <path
     style="marker-end:url(#aa16);stroke:black;stroke-width:1"
     d="M 357.3,-638.8 H 551"
     id="path183" />
  <path
     style="fill:#005c8f;stroke:black;stroke-width:1.05"
     d="m -248.3,-417.3 c -59.6,0 -107.9,8.2 -107.9,18.3 v 30 c 0,10.1 48.3,18.3 107.9,18.3 59.6,0 107.9,-8.2 107.9,-18.3 0,-30 0,0 0,-30 0,-10.1 -48.3,-18.3 -107.9,-18.3 z"
     id="path185" />
  <ellipse
     cx="-504.3"
     cy="218.5"
     rx="18.3"
     ry="107.9"
     transform="rotate(90)"
     style="fill:#005c8f;stroke:black;stroke-width:1.05"
     id="ellipse187" />
  <ellipse
     cx="-504.4"
     cy="219.1"
     rx="14.6"
     ry="94.2"
     transform="rotate(90)"
     style="fill:white;stroke:black;stroke-width:0.88"
     id="ellipse189" />
  <path
     style="fill:url(#aa21);stroke:black;stroke-width:0.86"
     d="m -399.1,-38.7 c 0,-12 -27.3,-21.8 -61,-21.8 -33.7,0 -61,9.7 -61,21.8 0,-54 0,0 0,-54 0,-12 27.3,-21.8 61,-21.8 33.7,0 61,9.7 61,21.8 0,54 0,0 0,54 z"
     id="path191" />
  <path
     style="fill:#0084c8;fill-opacity:0.69;stroke-width:0.97"
     d="m 151,-276.8 a 68.7,18.9 0 0 0 -68.7,18.9 68.7,18.9 0 0 0 68.7,18.9 68.7,18.9 0 0 0 68.7,-18.9 68.7,18.9 0 0 0 -68.7,-18.9 z m 0,4.1 a 53.9,14.8 0 0 1 53.9,14.8 53.9,14.8 0 0 1 -53.9,14.8 53.9,14.8 0 0 1 -53.9,-14.8 53.9,14.8 0 0 1 53.9,-14.8 z"
     id="path193" />
  <path
     style="fill:#0084c8;fill-opacity:0.69;stroke-width:0.77"
     d="m 150,-280.2 a 52.9,15.5 0 0 0 -52.9,15.5 52.9,15.5 0 0 0 52.9,15.5 52.9,15.5 0 0 0 52.9,-15.5 52.9,15.5 0 0 0 -52.9,-15.5 z m 0,3.3 a 41.5,12.1 0 0 1 41.5,12.1 41.5,12.1 0 0 1 -41.5,12.1 41.5,12.1 0 0 1 -41.5,-12.1 41.5,12.1 0 0 1 41.5,-12.1 z"
     id="path195" />
  <g
     transform="rotate(45,731.02,832.761)"
     id="g209">
    <path
       style="stroke:black;stroke-width:1px"
       d="m -479.9,619.1 v 54.2"
       id="path197" />
    <path
       style="stroke:black;stroke-width:1px"
       d="m -447.9,619.1 v 54.2"
       id="path199" />
    <path
       style="stroke:black;stroke-width:1px"
       d="m -415.8,619.1 v 54.2"
       id="path201" />
    <path
       style="stroke:black;stroke-width:1px"
       d="m -383.8,619.1 v 54.2"
       id="path203" />
    <path
       style="stroke:black;stroke-width:1px"
       d="m -351.8,619.1 v 54.2"
       id="path205" />
    <path
       style="stroke:black;stroke-width:1px"
       d="m -319.7,619.1 v 54.2"
       id="path207" />
  </g>
  <path
     style="fill:url(#aa22);stroke-width:0.93"
     d="m -753.1,157 c 0,12.5 -30.4,22.6 -68,22.6 -37.5,0 -68,-10.1 -68,-22.6 0,56.1 0,0 0,56.1 0,12.5 30.4,22.6 68,22.6 37.5,0 68,-10.1 68,-22.6 0,-56.1 0,0 0,-56.1 z"
     id="path211" />
  <path
     style="fill:url(#aa23);stroke-width:1.24"
     d="m -730.9,176.7 c 0,16.7 -40.5,30.2 -90.5,30.2 -50,0 -90.5,-13.5 -90.5,-30.2 0,75 0,0 0,75 0,16.7 40.5,30.2 90.5,30.2 50,0 90.5,-13.5 90.5,-30.2 0,-75 0,0 0,-75 z"
     id="path213" />
  <path
     style="fill:url(#aa24);stroke-width:1.62"
     d="m -707.1,191.1 c 0,22.7 -51.1,41.1 -114.1,41.1 -63,0 -114.1,-18.4 -114.1,-41.1 0,101.9 0,0 0,101.9 0,22.7 51.1,41.1 114.1,41.1 63,0 114.1,-18.4 114.1,-41.1 0,-101.9 0,0 0,-101.9 z"
     id="path215" />
  <path
     style="fill:url(#aa25);stroke-width:0.63"
     d="m -775.6,132.9 c 0,8.5 -20.7,15.3 -46.2,15.3 -25.5,0 -46.2,-6.9 -46.2,-15.3 0,38.1 0,0 0,38.1 0,8.5 20.7,15.4 46.2,15.4 25.5,0 46.2,-6.9 46.2,-15.4 0,-38.1 0,0 0,-38.1 z"
     id="path217" />
  <g
     transform="translate(37.952,-647.89)"
     id="g229">
    <path
       style="fill:#204a87;fill-opacity:0.52;stroke-width:0.5"
       d="m -859.5,802.7 a 113.3,38.8 0 0 0 -113.3,38.8 113.3,38.8 0 0 0 113.3,38.8 113.3,38.8 0 0 0 113.3,-38.8 113.3,38.8 0 0 0 -113.3,-38.8 z m 0,7.8 a 90.6,31.1 0 0 1 90.6,31.1 90.6,31.1 0 0 1 -90.6,31.1 90.6,31.1 0 0 1 -90.6,-31.1 90.6,31.1 0 0 1 90.6,-31.1 z"
       id="path219" />
    <path
       style="fill:#204a87;fill-opacity:0.52;stroke-width:0.5"
       d="m -859.5,781 a 68,23.3 0 0 0 -68,23.3 68,23.3 0 0 0 68,23.3 68,23.3 0 0 0 68,-23.3 68,23.3 0 0 0 -68,-23.3 z m 0,7.8 a 45.3,15.5 0 0 1 45.3,15.5 45.3,15.5 0 0 1 -45.3,15.5 45.3,15.5 0 0 1 -45.3,-15.5 45.3,15.5 0 0 1 45.3,-15.5 z"
       id="path221" />
    <ellipse
       cx="-859.5"
       cy="759.8"
       rx="22.7"
       ry="7.8"
       style="fill:#204a87;fill-opacity:0.52;stroke-width:0.5"
       id="ellipse223" />
    <path
       style="fill:#204a87;fill-opacity:0.52;stroke-width:0.5"
       d="m -859.5,792.8 a 90.6,31.1 0 0 0 -90.6,31.1 90.6,31.1 0 0 0 90.6,31.1 90.6,31.1 0 0 0 90.6,-31.1 90.6,31.1 0 0 0 -90.6,-31.1 z m 0,7.8 a 68,23.3 0 0 1 68,23.3 68,23.3 0 0 1 -68,23.3 68,23.3 0 0 1 -68,-23.3 68,23.3 0 0 1 68,-23.3 z"
       id="path225" />
    <path
       style="fill:#204a87;fill-opacity:0.52;stroke-width:0.5"
       d="m -859.5,766.4 a 45.3,15.5 0 0 0 -45.3,15.5 45.3,15.5 0 0 0 45.3,15.5 45.3,15.5 0 0 0 45.3,-15.5 45.3,15.5 0 0 0 -45.3,-15.5 z m 0,7.8 a 22.7,7.8 0 0 1 22.7,7.8 22.7,7.8 0 0 1 -22.7,7.8 22.7,7.8 0 0 1 -22.7,-7.8 22.7,7.8 0 0 1 22.7,-7.8 z"
       id="path227" />
  </g>
  <path
     style="fill:url(#aa26);stroke-width:0.32"
     d="m -798.2,111.7 c 0,4.3 -10.4,7.7 -23.2,7.7 -12.8,0 -23.2,-3.5 -23.2,-7.7 0,19.1 0,0 0,19.1 0,4.3 10.4,7.7 23.2,7.7 12.8,0 23.2,-3.5 23.2,-7.7 0,-19.1 0,0 0,-19.1 z"
     id="path231" />
  <path
     style="stroke:black;stroke-width:1px"
     d="m -460,277.8 h 348.7"
     id="path233" />
  <ellipse
     cx="-417.1"
     cy="-6.7"
     rx="22.3"
     ry="7.8"
     style="fill:url(#aa27);stroke-width:0.49"
     id="ellipse235" />
  <path
     style="fill:url(#aa28);stroke-width:0.32"
     d="m -393.4,-7.3 c 0,4.3 -10.4,7.7 -23.2,7.7 -12.8,0 -23.2,-3.5 -23.2,-7.7 V 110.7 c 0,4.3 10.4,7.7 23.2,7.7 12.8,0 23.2,-3.5 23.2,-7.7 z"
     id="path237" />
  <path
     style="fill:url(#aa29);stroke-width:0.5"
     d="M -393.7,0.9 V 12.8 a 22.9,7.8 0 0 1 0.5,1.6 22.9,7.8 0 0 1 -22.9,7.8 22.9,7.8 0 0 1 -22.9,-7.8 22.9,7.8 0 0 1 0,-0.3 V 1 a 45.8,15.5 0 0 0 -22.9,13.4 45.8,15.5 0 0 0 45.8,15.5 45.8,15.5 0 0 0 45.8,-15.5 45.8,15.5 0 0 0 -23.4,-13.5 z"
     id="path239" />
  <path
     style="fill:url(#aa30);stroke-width:0.63"
     d="m -370.4,13.9 c 0,8.5 -20.6,15.3 -46,15.3 -25.4,0 -46,-6.9 -46,-15.3 v 96.5 c 0,8.5 20.6,15.3 46,15.3 25.4,0 46,-6.9 46,-15.3 z"
     id="path241" />
  <path
     style="fill:url(#aa31);stroke-width:0.5"
     d="m -371.7,20.9 v 15.3 a 45.3,15.5 0 0 1 0.5,2.2 45.3,15.5 0 0 1 -45.3,15.5 45.3,15.5 0 0 1 -45.3,-15.5 45.3,15.5 0 0 1 0.3,-1.8 v -15.7 a 68,23.3 0 0 0 -23,17.4 68,23.3 0 0 0 68,23.3 68,23.3 0 0 0 68,-23.3 68,23.3 0 0 0 -23.2,-17.5 z"
     id="path243" />
  <path
     style="fill:url(#aa32);stroke-width:0.93"
     d="m -348.6,38 c 0,12.5 -30.4,22.6 -68,22.6 -37.5,0 -68,-10.1 -68,-22.6 v 72.9 c 0,12.5 30.4,22.6 68,22.6 37.5,0 68,-10.1 68,-22.6 z"
     id="path245" />
  <path
     style="fill:url(#aa33);stroke-width:0.5"
     d="m -483.9,36.6 a 90.6,31.1 0 0 0 -23.3,20.7 90.6,31.1 0 0 0 90.6,31.1 90.6,31.1 0 0 0 90.6,-31.1 90.6,31.1 0 0 0 -23.1,-20.7 v 18.2 a 68,23.3 0 0 1 0.5,2.5 68,23.3 0 0 1 -68,23.3 68,23.3 0 0 1 -68,-23.3 68,23.3 0 0 1 0.6,-2.9 z"
     id="path247" />
  <path
     style="fill:url(#aa34);stroke-width:1.24"
     d="m -326.1,57.8 c 0,16.7 -40.5,30.2 -90.5,30.2 -50,0 -90.5,-13.5 -90.5,-30.2 v 53.6 c 0,16.7 40.5,30.2 90.5,30.2 50,0 90.5,-13.5 90.5,-30.2 z"
     id="path249" />
  <path
     style="fill:#005c8f;stroke-width:0.5"
     d="m -808.5,-28.8 a 113.3,38.8 0 0 0 -113.3,38.8 113.3,38.8 0 0 0 113.3,38.8 113.3,38.8 0 0 0 113.3,-38.8 113.3,38.8 0 0 0 -113.3,-38.8 z m 0,7.8 a 90.6,31.1 0 0 1 90.6,31.1 90.6,31.1 0 0 1 -90.6,31.1 90.6,31.1 0 0 1 -90.6,-31.1 90.6,31.1 0 0 1 90.6,-31.1 z"
     id="path251" />
  <path
     style="fill:url(#aa35);stroke-width:0.49"
     d="m -326.8,53.1 v 19.9 a 90.1,30 0 0 1 0.4,2.7 90.1,30 0 0 1 -90.1,30 90.1,30 0 0 1 -90.1,-30 90.1,30 0 0 1 0.3,-1.7 v -20.8 a 112.7,37.5 0 0 0 -22.8,22.5 112.7,37.5 0 0 0 112.7,37.5 112.7,37.5 0 0 0 112.7,-37.5 112.7,37.5 0 0 0 -23,-22.6 z"
     id="path253" />
  <path
     style="fill:url(#aa36);stroke-width:1.62"
     d="m -302.5,72.1 c 0,22.7 -50.9,41.1 -113.6,41.1 -62.7,0 -113.6,-18.4 -113.6,-41.1 v 39.2 c 0,22.7 50.9,41.1 113.6,41.1 62.7,0 113.6,-18.4 113.6,-41.1 z"
     id="path255" />
  <g
     style="stroke-width:1.41px"
     transform="matrix(0.735078,0,0,0.688496,275.131,-478.754)"
     id="g287">
    <path
       style="fill:#005c94;fill-opacity:0.17;stroke-width:0.45"
       d="m 255.3,407.4 c 0,-4.3 -10.4,-7.7 -23.2,-7.7 -12.8,0 -23.2,3.5 -23.2,7.7 V 289.4 c 0,-4.3 10.4,-7.7 23.2,-7.7 12.8,0 23.2,3.5 23.2,7.7 z"
       id="path257" />
    <path
       style="fill:#005c94;fill-opacity:0.17;stroke-width:0.88"
       d="m 278.7,407.1 c 0,-8.5 -20.6,-15.4 -46,-15.4 -25.4,0 -46,6.9 -46,15.4 v -96.5 c 0,-8.5 20.6,-15.3 46,-15.3 25.4,0 46,6.9 46,15.3 z"
       id="path259" />
    <path
       style="fill:#005c94;fill-opacity:0.17;stroke-width:1.3"
       d="m 301,407.8 c 0,-12.5 -30.4,-22.6 -68,-22.6 -37.5,0 -68,10.1 -68,22.6 v -72.9 c 0,-12.5 30.4,-22.6 68,-22.6 37.5,0 68,10.1 68,22.6 z"
       id="path261" />
    <path
       style="fill:#005c94;fill-opacity:0.17;stroke-width:1.74"
       d="m 323.5,407.2 c 0,-16.7 -40.5,-30.2 -90.5,-30.2 -50,0 -90.5,13.5 -90.5,30.2 v -53.6 c 0,-16.7 40.5,-30.3 90.5,-30.3 50,0 90.5,13.5 90.5,30.3 z"
       id="path263" />
    <path
       style="fill:#005c94;fill-opacity:0.17;stroke-width:2.27"
       d="m 345,413.9 c 0,-22.7 -50.7,-41.1 -113.1,-41.1 -62.5,0 -113.1,18.4 -113.1,41.1 v -39.2 c 0,-22.7 50.7,-41.1 113.1,-41.1 62.5,0 113.1,18.4 113.1,41.1 z"
       id="path265" />
    <ellipse
       cx="231.9"
       cy="289.7"
       rx="22.3"
       ry="7.8"
       style="fill:url(#aa37);stroke-width:0.7"
       id="ellipse267" />
    <path
       style="fill:url(#aa38);stroke-width:0.45"
       d="m 255.6,289.2 c 0,4.3 -10.4,7.7 -23.2,7.7 -12.8,0 -23.2,-3.5 -23.2,-7.7 v 118 c 0,4.3 10.4,7.7 23.2,7.7 12.8,0 23.2,-3.5 23.2,-7.7 z"
       id="path269" />
    <path
       style="fill:url(#aa39);stroke-width:0.7"
       d="m 255.2,297.4 v 11.9 a 22.9,7.8 0 0 1 0.5,1.6 22.9,7.8 0 0 1 -22.9,7.8 22.9,7.8 0 0 1 -22.9,-7.8 22.9,7.8 0 0 1 0,-0.3 v -13.2 a 45.8,15.5 0 0 0 -22.9,13.4 45.8,15.5 0 0 0 45.8,15.5 45.8,15.5 0 0 0 45.8,-15.5 45.8,15.5 0 0 0 -23.4,-13.5 z"
       id="path271" />
    <path
       style="fill:url(#aa40);stroke-width:0.88"
       d="m 278.6,310.4 c 0,8.5 -20.6,15.4 -46,15.4 -25.4,0 -46,-6.9 -46,-15.4 v 96.5 c 0,8.5 20.6,15.4 46,15.4 25.4,0 46,-6.9 46,-15.4 z"
       id="path273" />
    <path
       style="fill:url(#aa41);stroke-width:0.7"
       d="m 277.3,317.3 v 15.3 a 45.3,15.5 0 0 1 0.5,2.2 45.3,15.5 0 0 1 -45.3,15.5 45.3,15.5 0 0 1 -45.3,-15.5 45.3,15.5 0 0 1 0.3,-1.8 v -15.7 a 68,23.3 0 0 0 -23,17.4 68,23.3 0 0 0 68,23.3 68,23.3 0 0 0 68,-23.3 68,23.3 0 0 0 -23.2,-17.5 z"
       id="path275" />
    <path
       style="fill:url(#aa42);stroke-width:1.3"
       d="m 300.4,334.5 c 0,12.5 -30.4,22.6 -68,22.6 -37.5,0 -68,-10.1 -68,-22.6 v 72.9 c 0,12.5 30.4,22.6 68,22.6 37.5,0 68,-10.1 68,-22.6 z"
       id="path277" />
    <path
       style="fill:url(#aa43);stroke-width:0.7"
       d="m 165.1,333.1 a 90.6,31.1 0 0 0 -23.3,20.7 90.6,31.1 0 0 0 90.6,31.1 90.6,31.1 0 0 0 90.6,-31.1 90.6,31.1 0 0 0 -23.1,-20.7 v 18.2 a 68,23.3 0 0 1 0.5,2.5 68,23.3 0 0 1 -68,23.3 68,23.3 0 0 1 -68,-23.3 68,23.3 0 0 1 0.6,-2.9 z"
       id="path279" />
    <path
       style="fill:url(#aa44);stroke-width:1.74"
       d="m 322.9,354.2 c 0,16.7 -40.5,30.2 -90.5,30.2 -50,0 -90.5,-13.5 -90.5,-30.2 v 53.6 c 0,16.7 40.5,30.3 90.5,30.3 50,0 90.5,-13.5 90.5,-30.3 z"
       id="path281" />
    <path
       style="fill:url(#aa45);stroke-width:0.69"
       d="m 322.2,349.6 v 19.9 a 90.1,30 0 0 1 0.4,2.7 90.1,30 0 0 1 -90.1,30 90.1,30 0 0 1 -90.1,-30 90.1,30 0 0 1 0.3,-1.7 v -20.9 a 112.7,37.5 0 0 0 -22.8,22.5 112.7,37.5 0 0 0 112.7,37.5 112.7,37.5 0 0 0 112.7,-37.5 112.7,37.5 0 0 0 -23,-22.6 z"
       id="path283" />
    <path
       style="fill:url(#aa46);stroke-width:2.27"
       d="m 345.3,369.2 c 0,22.7 -50.7,41.1 -113.1,41.1 -62.5,0 -113.1,-18.4 -113.1,-41.1 v 39.2 c 0,22.7 50.7,41.1 113.1,41.1 62.5,0 113.1,-18.4 113.1,-41.1 z"
       id="path285" />
  </g>
  <path
     style="fill:url(#aa47);stroke:black;stroke-width:0.76"
     d="m 401.4,-689.2 c -9.6,8.2 -22.2,15.5 -35.2,21.4 v 27.6 c 18.2,38.4 157.2,36.3 165.8,0 v -27.6 c -12.9,-5.9 -25.4,-13.2 -34.9,-21.3 -17.5,-13.2 -33.9,-39.4 -49.4,-39.9 -15.5,-0.5 -32,27.4 -46.3,39.8 z"
     id="path289" />
  <path
     style="marker-end:url(#aa15);stroke:black;stroke-width:1"
     d="M 736.4,-713.9 V -856.8"
     id="path291" />
  <text
     x="742.3"
     y="-835.8"
     style="font-style:italic;fill:black"
     id="text293">y</text>
  <text
     x="827.7"
     y="-740.5"
     style="font-style:italic;fill:black"
     id="text295">x</text>
  <path
     style="marker-end:url(#aa16);stroke:black;stroke-width:1"
     d="M 700.6,-730.6 H 841.2"
     id="path297" />
  <path
     style="stroke:#0084c8;stroke-width:1.36"
     d="m 736.3,-821.3 c 14.7,-0.2 37,31.3 49.5,40.3 9.5,8.2 22,15.5 34.9,21.3 v 27.8"
     id="path299" />
  <text
     x="780.6"
     y="-791.7"
     style="font-family:'Comic Sans MS';font-style:italic;fill:#0084c8;stroke-width:1px"
     id="text301">f(x)</text>
  <path
     style="marker-start:url(#aa48);stroke:#8f5902;stroke-width:1"
     d="m 382.2,-655.1 c 10,5.9 39.2,21 70.6,20.4 31.4,-0.6 55.1,-10.6 62,-23.9"
     id="path303" />
  <path
     style="marker-start:url(#aa49);stroke:#8f5902;stroke-width:1"
     d="m 423.4,-694.1 c 4.1,2.1 14.8,8 26.7,7.8 11.9,-0.2 20.9,-4 23.4,-9"
     id="path305" />
  <path
     style="marker-start:url(#aa50);stroke:#8f5902;stroke-width:1"
     d="m 410.6,-672.4 c 5.9,3.1 21.8,11.7 39.2,11.4 17.5,-0.3 30.7,-5.9 34.4,-13.3"
     id="path307" />
  <ellipse
     cx="138.1"
     cy="-861.5"
     rx="19.2"
     ry="11.8"
     transform="matrix(0.77463,0.632415,-0.416946,0.908931,0,0)"
     style="fill:url(#aa51);stroke-width:2.77"
     id="ellipse309" />
  <ellipse
     cx="-322.4"
     cy="-616.9"
     rx="15.6"
     ry="10.8"
     transform="matrix(0.173412,0.984849,-0.857696,0.514157,0,0)"
     style="fill:url(#aa52);stroke-width:2.38"
     id="ellipse311" />
  <path
     style="stroke:black;stroke-width:0.76"
     d="m 398.2,-245.7 c -9.6,8.1 -22.2,15.4 -35.3,21.3 v 27.4 c 18.2,38.1 157.7,36.1 166.3,0 v -27.4 c -13,-5.8 -25.5,-13.1 -35.1,-21.2 -17.6,-13.1 -34,-39.2 -49.5,-39.6 -15.6,-0.5 -32.1,27.2 -46.5,39.5 z"
     id="path313" />
  <ellipse
     cx="325.4"
     cy="-508.4"
     rx="19.2"
     ry="11.8"
     transform="matrix(0.77463,0.632415,-0.416946,0.908931,0,0)"
     style="fill:url(#aa53);stroke-width:2.77"
     id="ellipse315" />
  <ellipse
     cx="80"
     cy="-533.1"
     rx="15.6"
     ry="10.8"
     transform="matrix(0.173412,0.984849,-0.857696,0.514157,0,0)"
     style="fill:url(#aa54);stroke-width:2.38"
     id="ellipse317" />
  <path
     style="marker-end:url(#aa15);stroke:black;stroke-width:1"
     d="M 446.8,-0.6 V -143.5"
     id="path319" />
  <text
     x="449.1"
     y="-114.6"
     style="font-style:italic;fill:black"
     id="text321">y</text>
  <text
     x="545.1"
     y="-31.1"
     style="font-style:italic;fill:black"
     id="text323">x</text>
  <path
     style="marker-end:url(#aa16);stroke:black;stroke-width:1"
     d="M 356.4,-17.3 H 550"
     id="path325" />
  <path
     style="stroke:black;stroke-width:0.76"
     d="m 728.3,-301.5 c -9.6,8.1 -22.2,15.4 -35.3,21.3 v 27.4 c 18.2,38.1 157.7,36.1 166.3,0 v -27.4 c -13,-5.8 -25.5,-13.1 -35.1,-21.2 -17.6,-13.1 -34,-39.2 -49.5,-39.6 -15.6,-0.5 -32.1,27.2 -46.5,39.5 z"
     id="path327" />
  <path
     style="fill:url(#aa55);stroke-width:0.89"
     d="m 616,232.6 c 0,-10.1 -29.5,-18.2 -66,-18.2 -36.4,0 -66,8.2 -66,18.2 0,-45.2 0,0 0,-45.2 0,-10.1 29.5,-18.2 66,-18.2 36.4,0 66,8.2 66,18.2 0,45.2 0,0 0,45.2 z"
     id="path329" />
  <path
     style="fill:url(#aa56);stroke-width:0.89"
     d="m 617.5,185.4 c 0,10.1 -29.5,18.2 -66,18.2 -36.4,0 -66,-8.2 -66,-18.2 0,45.2 0,0 0,45.2 0,10.1 29.5,18.2 66,18.2 36.4,0 66,-8.2 66,-18.2 0,-45.2 0,0 0,-45.2 z"
     id="path331" />
  <path
     style="fill:url(#aa57);stroke-width:0.89"
     d="m 168.6,-22.5 c 0,-1.8 -5.2,-3.2 -11.6,-3.2 -6.4,0 -11.6,1.4 -11.6,3.2 0,-8 0,0 0,-8 0,-1.8 5.2,-3.2 11.6,-3.2 6.4,0 11.6,1.4 11.6,3.2 0,8 0,0 0,8 z"
     id="path333" />
  <path
     style="fill:url(#aa58);stroke:black;stroke-width:0.76"
     d="m 484.6,83.8 c -9.6,8.2 -22.2,15.5 -35.2,21.4 v 27.6 c 18.2,38.4 157.2,36.3 165.8,0 v -27.6 c -12.9,-5.8 -25.4,-13.2 -34.9,-21.3 -17.5,-13.2 -33.9,-39.4 -49.4,-39.9 -15.5,-0.5 -32,27.4 -46.3,39.8 z"
     id="path335" />
  <path
     style="fill:url(#aa59);stroke-width:0.89"
     d="m 117.9,129.5 c 0,-4.2 -12.2,-7.5 -27.3,-7.5 -15.1,0 -27.3,3.4 -27.3,7.5 V 59.5 c 0,-4.2 12.2,-7.5 27.3,-7.5 15.1,0 27.3,3.4 27.3,7.5 z"
     id="path337" />
  <path
     style="fill:url(#aa60);stroke-width:0.89"
     d="m 111.5,129.9 c 0,-3.2 -9.4,-5.8 -20.9,-5.8 -11.6,0 -20.9,2.6 -20.9,5.8 V 54 c 0,-3.2 9.4,-5.8 20.9,-5.8 11.6,0 20.9,2.6 20.9,5.8 z"
     id="path339" />
  <path
     style="fill:url(#aa61);stroke-width:0.89"
     d="m 106,130 c 0,-2.3 -6.9,-4.2 -15.4,-4.2 -8.5,0 -15.4,1.9 -15.4,4.2 V 48 c 0,-2.3 6.9,-4.2 15.4,-4.2 8.5,0 15.4,1.9 15.4,4.2 z"
     id="path341" />
  <path
     style="fill:url(#aa62);stroke-width:0.89"
     d="m 100.4,129.7 c 0,-1.5 -4.4,-2.7 -9.8,-2.7 -5.4,0 -9.8,1.2 -9.8,2.7 V 44.1 c 0,-1.5 4.4,-2.7 9.8,-2.7 5.4,0 9.8,1.2 9.8,2.7 z"
     id="path343" />
  <path
     style="fill:url(#aa63);stroke-width:0.89"
     d="m 100.4,43.6 c 0,1.5 -4.4,2.7 -9.8,2.7 -5.4,0 -9.8,-1.2 -9.8,-2.7 v 85.5 c 0,1.5 4.4,2.7 9.8,2.7 5.4,0 9.8,-1.2 9.8,-2.7 z"
     id="path345" />
  <path
     style="fill:url(#aa64);stroke-width:0.89"
     d="m 106,48 c 0,2.3 -6.9,4.2 -15.4,4.2 -8.5,0 -15.4,-1.9 -15.4,-4.2 v 82.1 c 0,2.3 6.9,4.2 15.4,4.2 8.5,0 15.4,-1.9 15.4,-4.2 z"
     id="path347" />
  <path
     style="fill:url(#aa65);stroke-width:0.89"
     d="m 111.5,54.2 c 0,3.2 -9.4,5.8 -20.9,5.8 -11.6,0 -20.9,-2.6 -20.9,-5.8 v 75.9 c 0,3.2 9.4,5.8 20.9,5.8 11.6,0 20.9,-2.6 20.9,-5.8 z"
     id="path349" />
  <path
     style="fill:url(#aa66);stroke-width:0.89"
     d="m 117.9,60 c 0,4.2 -12.2,7.5 -27.3,7.5 -15.1,0 -27.3,-3.4 -27.3,-7.5 v 70 c 0,4.2 12.2,7.5 27.3,7.5 15.1,0 27.3,-3.4 27.3,-7.5 z"
     id="path351" />
  <path
     style="fill:url(#aa67);stroke-width:0.89"
     d="m 125.1,66.741 c 0,5.3 -15.5,9.5 -34.5,9.5 -19.1,0 -34.5,-4.3 -34.5,-9.5 v 65.097 c 0,5.3 15.5,9.5 34.5,9.5 19.1,0 34.5,-4.3 34.5,-9.5 z"
     id="path353" />
  <path
     style="marker-end:url(#aa68);stroke:url(#aa69);stroke-width:1"
     d="m 97.5,109.3 c 9.4,-2.9 16.3,-1 24.4,0.5 8.2,1.5 19.1,0.4 35.7,-0.8"
     id="path355" />
  <path
     style="marker-end:url(#aa70);stroke:url(#aa71);stroke-width:1"
     d="m 93.5,108.8 c -9.4,-2.9 -16.3,-1 -24.4,0.5 -8.2,1.5 -19.1,0.4 -35.7,-0.8"
     id="path357" />
  <ellipse
     cx="192.114"
     cy="-101.089"
     rx="15.6"
     ry="10.8"
     transform="matrix(0.173412,0.984849,-0.857696,0.514157,0,0)"
     style="font-size:20px;font-family:'Comic Sans MS';fill:url(#id48);stroke-width:2.38"
     id="ellipse288" />
</svg>
