<?xml version="1.0" encoding="UTF-8" standalone="no"?>
<svg
   xmlns:dc="http://purl.org/dc/elements/1.1/"
   xmlns:cc="http://creativecommons.org/ns#"
   xmlns:rdf="http://www.w3.org/1999/02/22-rdf-syntax-ns#"
   xmlns:svg="http://www.w3.org/2000/svg"
   xmlns="http://www.w3.org/2000/svg"
   xmlns:xlink="http://www.w3.org/1999/xlink"
   xmlns:sodipodi="http://sodipodi.sourceforge.net/DTD/sodipodi-0.dtd"
   xmlns:inkscape="http://www.inkscape.org/namespaces/inkscape"
   width="185.4"
   height="122.9"
   version="1.1"
   style="font-family:'Comic Sans MS';font-size:20px;fill:none;stroke-width:1px"
   id="svg72"
   sodipodi:docname="solid-shell-cone-2.svg"
   inkscape:version="1.0.1 (3bc2e813f5, 2020-09-07)">
  <metadata
     id="metadata76">
    <rdf:RDF>
      <cc:Work
         rdf:about="">
        <dc:format>image/svg+xml</dc:format>
        <dc:type
           rdf:resource="http://purl.org/dc/dcmitype/StillImage" />
      </cc:Work>
    </rdf:RDF>
  </metadata>
  <sodipodi:namedview
     pagecolor="#ffffff"
     bordercolor="#666666"
     borderopacity="1"
     objecttolerance="10"
     gridtolerance="10"
     guidetolerance="10"
     inkscape:pageopacity="0"
     inkscape:pageshadow="2"
     inkscape:window-width="640"
     inkscape:window-height="480"
     id="namedview74"
     showgrid="false"
     inkscape:current-layer="svg72" />
  <defs
     id="defs42">
    <linearGradient
       id="linearGradient1347">
      <stop
         offset="0"
         style="stop-color:#005c8f;stop-opacity:1"
         id="stop1341" />
      <stop
         offset="0.305"
         style="stop-color:#057dbf;stop-opacity:0.69"
         id="stop1343" />
      <stop
         offset="1"
         style="stop-color:#ffffff;stop-opacity:1"
         id="stop1345" />
    </linearGradient>
    <marker
       style="overflow:visible"
       id="marker1231"
       refX="0.0"
       refY="0.0"
       orient="auto"
       inkscape:stockid="Arrow1Lend"
       inkscape:isstock="true">
      <path
         transform="scale(0.8) rotate(180) translate(12.5,0)"
         style="fill-rule:evenodd;stroke:#3465a4;stroke-width:1pt;stroke-opacity:1;fill:#3465a4;fill-opacity:1"
         d="M 0.0,0.0 L 5.0,-5.0 L -12.5,0.0 L 5.0,5.0 L 0.0,0.0 z "
         id="path1229" />
    </marker>
    <marker
       style="overflow:visible"
       id="marker1221"
       refX="0.0"
       refY="0.0"
       orient="auto"
       inkscape:stockid="Arrow1Lend"
       inkscape:isstock="true">
      <path
         transform="scale(0.8) rotate(180) translate(12.5,0)"
         style="fill-rule:evenodd;stroke:#3465a4;stroke-width:1pt;stroke-opacity:1;fill:#3465a4;fill-opacity:1"
         d="M 0.0,0.0 L 5.0,-5.0 L -12.5,0.0 L 5.0,5.0 L 0.0,0.0 z "
         id="path1219" />
    </marker>
    <marker
       style="overflow:visible"
       orient="auto"
       id="marker4">
      <path
         transform="matrix(1.1,0,0,1.1,1.1,0)"
         style="stroke:black;stroke-width:0.63;stroke-linejoin:round"
         d="M 8.7,4 -2.2,0 8.7,-4 c -1.7,2.4 -1.7,5.6 0,8 z"
         id="path2" />
    </marker>
    <marker
       style="overflow:visible"
       orient="auto"
       id="marker8">
      <path
         transform="matrix(0.8,0,0,0.8,10,0)"
         style="stroke:black;stroke-width:1pt"
         d="M 0,0 5,-5 -12.5,0 5,5 Z"
         id="path6" />
    </marker>
    <marker
       style="overflow:visible"
       orient="auto"
       id="marker12">
      <path
         transform="matrix(-0.8,0,0,-0.8,-10,0)"
         style="fill:black;stroke:black;stroke-width:1pt"
         d="M 0,0 5,-5 -12.5,0 5,5 Z"
         id="path10" />
    </marker>
    <linearGradient
       id="id2">
      <stop
         offset="0"
         style="stop-color:#005c8f;stop-opacity:1"
         id="stop14" />
      <stop
         offset="0.305"
         style="stop-color:#057dbf;stop-opacity:0.69"
         id="stop16" />
      <stop
         offset="1"
         style="stop-color:#19aeff;stop-opacity:0"
         id="stop18" />
    </linearGradient>
    <marker
       id="id3"
       style="overflow:visible"
       orient="auto">
      <path
         transform="matrix(-0.8,0,0,-0.8,-10,0)"
         style="fill:black;stroke:black;stroke-width:1pt"
         d="M 0,0 5,-5 -12.5,0 5,5 Z"
         id="path21" />
    </marker>
    <radialGradient
       id="id4"
       r="19.5106"
       fx="-207.624"
       fy="206.138"
       cx="-207.6"
       cy="206.1"
       gradientTransform="matrix(1.08223,0,0,0.602052,335.559,-176.945)"
       xlink:href="#id1"
       gradientUnits="userSpaceOnUse" />
    <linearGradient
       id="id1">
      <stop
         offset="0"
         style="stop-color:white;stop-opacity:1"
         id="stop25" />
      <stop
         offset="1"
         style="stop-color:white;stop-opacity:0"
         id="stop27" />
    </linearGradient>
    <linearGradient
       id="linearGradient34">
      <stop
         offset="0"
         style="stop-color:#009ef4;stop-opacity:1"
         id="stop30" />
      <stop
         offset="1"
         style="stop-color:#19aeff;stop-opacity:0"
         id="stop32" />
    </linearGradient>
    <linearGradient
       gradientTransform="matrix(0,0.999997,-0.999997,0,85.379,287.534)"
       xlink:href="#id2"
       x1="-221.3"
       y1="78.3"
       x2="-259.4"
       y2="-25.3"
       gradientUnits="userSpaceOnUse"
       id="linearGradient36" />
    <linearGradient
       gradientTransform="matrix(0,0.999997,-0.999997,0,84.7766,276.568)"
       xlink:href="#id2"
       x1="-221.3"
       y1="78.3"
       x2="-259.4"
       y2="-25.3"
       gradientUnits="userSpaceOnUse"
       id="linearGradient38" />
    <linearGradient
       id="id5"
       gradientTransform="translate(20.4405,14.2556)"
       xlink:href="#linearGradient1347"
       x1="0.6"
       y1="50.6"
       x2="138.3"
       y2="50.6"
       gradientUnits="userSpaceOnUse" />
    <radialGradient
       id="id6"
       r="19.5106"
       fx="-207.624"
       fy="206.138"
       cx="-207.6"
       cy="206.1"
       gradientTransform="matrix(1.08223,0,0,0.602052,357.126,-178.496)"
       xlink:href="#id1"
       gradientUnits="userSpaceOnUse" />
  </defs>
  <path
     style="marker-end:url(#marker1231);stroke:#3465a4;stroke-width:1;fill:#3465a4"
     d="M 0,94.2 H 183.5"
     id="path44" />
  <ellipse
     cx="94.2"
     cy="-89.5"
     rx="10.3"
     ry="67.7"
     transform="rotate(90)"
     style="font-family:'Comic Sans MS';font-size:20px;fill:#005c8f;stroke:black;stroke-width:0.79"
     id="ellipse46" />
  <text
     x="164.9"
     y="86.1"
     style="font-style:italic;fill:#3465a4;"
     id="text48">x</text>
  <text
     x="97.6"
     y="12.1"
     style="font-style:italic;fill:#3465a4;"
     id="text50">y</text>
  <text
     x="82.3"
     y="122.5"
     style="font-style:italic;fill:#0084c8"
     id="text52">0</text>
  <ellipse
     cx="110.8"
     cy="-52.9"
     rx="21.1"
     ry="11.7"
     transform="matrix(0.588789,0.808287,-0.776813,0.629732,0,0)"
     style="fill:url(#id4);stroke-width:2.89"
     id="ellipse54" />
  <path
     style="stroke:#999999;stroke-width:1"
     d="M 89.9,26.3 V 93.8"
     id="path58" />
  <text
     x="146.6"
     y="116.1"
     style="font-style:italic;fill:#0084c8"
     id="text60">b</text>
  <path
     style="marker-end:url(#marker1221);stroke:#3465a4;stroke-width:1;fill:#3465a4"
     d="M 90.1,26.6 V 1.9"
     id="path62" />
  <path
     style="fill:none;stroke:#999999;stroke-width:1"
     d="M 156.8,94 H 22.4"
     id="path64" />
  <path
     style="fill:url(#id5);stroke:black;stroke-width:0.79"
     d="M 89.9,25.8 24.6,91.1 a 67.7,10.3 0 0 0 -2.5,2.5 l -0.1,0.1 h 0 a 67.7,10.3 0 0 0 -0,0.2 67.7,10.3 0 0 0 67.7,10.3 67.7,10.3 0 0 0 67.7,-10.3 67.7,10.3 0 0 0 -0,-0.2 h 0.4 l -0.7,-0.7 a 67.7,10.3 0 0 0 -1.2,-1.2 z"
     id="path66" />
  <text
     x="101.6"
     y="-49.3"
     transform="rotate(43.3461)"
     style="font-style:italic;fill:#c4a000;"
     id="text68">y=b-x</text>
  <ellipse
     cx="132.4"
     cy="-54.4"
     rx="21.1"
     ry="11.7"
     transform="matrix(0.588789,0.808287,-0.776813,0.629732,0,0)"
     style="font-family:'Comic Sans MS';font-size:20px;fill:url(#id6);stroke-width:2.89"
     id="ellipse70" />
</svg>
