<?xml version="1.0" encoding="UTF-8" standalone="no"?>
<svg
   xmlns:dc="http://purl.org/dc/elements/1.1/"
   xmlns:cc="http://creativecommons.org/ns#"
   xmlns:rdf="http://www.w3.org/1999/02/22-rdf-syntax-ns#"
   xmlns:svg="http://www.w3.org/2000/svg"
   xmlns="http://www.w3.org/2000/svg"
   xmlns:xlink="http://www.w3.org/1999/xlink"
   xmlns:sodipodi="http://sodipodi.sourceforge.net/DTD/sodipodi-0.dtd"
   xmlns:inkscape="http://www.inkscape.org/namespaces/inkscape"
   width="151.8"
   height="231.8"
   version="1.1"
   id="svg124"
   sodipodi:docname="spring-mass.svg"
   inkscape:version="1.0.1 (3bc2e813f5, 2020-09-07)">
  <metadata
     id="metadata128">
    <rdf:RDF>
      <cc:Work
         rdf:about="">
        <dc:format>image/svg+xml</dc:format>
        <dc:type
           rdf:resource="http://purl.org/dc/dcmitype/StillImage" />
      </cc:Work>
    </rdf:RDF>
  </metadata>
  <sodipodi:namedview
     pagecolor="#ffffff"
     bordercolor="#666666"
     borderopacity="1"
     objecttolerance="10"
     gridtolerance="10"
     guidetolerance="10"
     inkscape:pageopacity="0"
     inkscape:pageshadow="2"
     inkscape:window-width="640"
     inkscape:window-height="480"
     id="namedview126"
     showgrid="false"
     inkscape:current-layer="svg124" />
  <defs
     id="defs60">
    <linearGradient
       id="id1">
      <stop
         offset="0"
         style="stop-color:#006ebe;stop-opacity:1"
         id="stop2" />
      <stop
         offset="0.698"
         style="stop-color:#7ec9ff;stop-opacity:1"
         id="stop4" />
      <stop
         offset="0.832"
         style="stop-color:#0092fb;stop-opacity:1"
         id="stop6" />
      <stop
         offset="1"
         style="stop-color:#0072c5;stop-opacity:1"
         id="stop8" />
    </linearGradient>
    <marker
       id="id10"
       style="overflow:visible"
       orient="auto">
      <path
         transform="matrix(0.4,0,0,0.4,4,0)"
         style="fill:#c4a000;stroke:#c4a000;stroke-width:1pt"
         d="M 0,0 5,-5 -12.5,0 5,5 Z"
         id="path11" />
    </marker>
    <marker
       id="id11"
       style="overflow:visible"
       orient="auto">
      <path
         transform="matrix(-0.4,0,0,-0.4,-4,0)"
         style="fill:#c4a000;stroke:#c4a000;stroke-width:1pt"
         d="M 0,0 5,-5 -12.5,0 5,5 Z"
         id="path14" />
    </marker>
    <linearGradient
       id="id9"
       gradientTransform="translate(676.818,-1255.02)"
       xlink:href="#id1"
       x1="-578.8"
       y1="1342.4"
       x2="-544.4"
       y2="1342.4"
       gradientUnits="userSpaceOnUse" />
    <linearGradient
       id="id8"
       gradientTransform="translate(676.818,-1255.02)"
       xlink:href="#id1"
       x1="-676.8"
       y1="1320.3"
       x2="-642.4"
       y2="1320.3"
       gradientUnits="userSpaceOnUse" />
    <linearGradient
       id="id4">
      <stop
         offset="0"
         style="stop-color:#777777;stop-opacity:1"
         id="stop19" />
      <stop
         offset="1"
         style="stop-color:#282828;stop-opacity:1"
         id="stop21" />
    </linearGradient>
    <linearGradient
       id="id3">
      <stop
         offset="0"
         style="stop-color:#b1b1b1;stop-opacity:1"
         id="stop24" />
      <stop
         offset="1"
         style="stop-color:black;stop-opacity:1"
         id="stop26" />
    </linearGradient>
    <linearGradient
       id="id5">
      <stop
         offset="0"
         style="stop-color:white;stop-opacity:1"
         id="stop29" />
      <stop
         offset="1"
         style="stop-color:#5f5f5f;stop-opacity:0"
         id="stop31" />
    </linearGradient>
    <linearGradient
       id="id6">
      <stop
         offset="0"
         style="stop-color:black;stop-opacity:0"
         id="stop34" />
      <stop
         offset="0.5"
         style="stop-color:black;stop-opacity:0.05"
         id="stop36" />
      <stop
         offset="1"
         style="stop-color:#777777;stop-opacity:0.6"
         id="stop38" />
    </linearGradient>
    <linearGradient
       id="id2">
      <stop
         offset="0"
         style="stop-color:black;stop-opacity:0"
         id="stop41" />
      <stop
         offset="1"
         style="stop-color:black;stop-opacity:1"
         id="stop43" />
    </linearGradient>
    <linearGradient
       id="id7">
      <stop
         offset="0"
         style="stop-color:white;stop-opacity:0.36"
         id="stop46" />
      <stop
         offset="1"
         style="stop-color:white;stop-opacity:0"
         id="stop48" />
    </linearGradient>
    <linearGradient
       id="id20"
       gradientTransform="matrix(0.310766,0,0,0.283266,-16.321,46.26)"
       xlink:href="#id2"
       x1="429.6"
       y1="482"
       x2="432.4"
       y2="493.9"
       gradientUnits="userSpaceOnUse" />
    <linearGradient
       id="id14"
       gradientTransform="matrix(0.193898,0,0,0.283266,34.525,46.72)"
       xlink:href="#id3"
       x1="436.9"
       y1="466.4"
       x2="517"
       y2="610.9"
       gradientUnits="userSpaceOnUse" />
    <linearGradient
       id="id15"
       gradientTransform="matrix(0.193898,0,0,0.283266,34.525,46.72)"
       xlink:href="#id4"
       x1="431.9"
       y1="492.6"
       x2="446.1"
       y2="512.1"
       gradientUnits="userSpaceOnUse" />
    <linearGradient
       id="id13"
       gradientTransform="matrix(0.193898,0,0,0.283266,34.525,46.72)"
       xlink:href="#id3"
       x1="368.4"
       y1="493.1"
       x2="353.2"
       y2="631.4"
       gradientUnits="userSpaceOnUse" />
    <linearGradient
       id="id12"
       gradientTransform="matrix(0.193898,0,0,0.283266,34.525,46.72)"
       xlink:href="#id4"
       x1="391.1"
       y1="463.6"
       x2="399.1"
       y2="493.1"
       gradientUnits="userSpaceOnUse" />
    <radialGradient
       id="id16"
       r="9.48438"
       fx="406.461"
       fy="444.923"
       cx="406.5"
       cy="444.9"
       gradientTransform="matrix(1,0,0,0.940692,0,26.3876)"
       xlink:href="#id5"
       gradientUnits="userSpaceOnUse" />
    <radialGradient
       id="id17"
       r="9.48438"
       fx="406.461"
       fy="444.923"
       cx="406.5"
       cy="444.9"
       gradientTransform="matrix(1,0,0,0.940692,0,26.3876)"
       xlink:href="#id6"
       gradientUnits="userSpaceOnUse" />
    <linearGradient
       id="id18"
       gradientTransform="translate(0.102188,5.14506)"
       xlink:href="#id2"
       x1="408.5"
       y1="441.1"
       x2="412.4"
       y2="447.2"
       gradientUnits="userSpaceOnUse" />
    <radialGradient
       id="id19"
       r="9.48438"
       fx="387.773"
       fy="437.36"
       cx="387.8"
       cy="437.4"
       gradientTransform="matrix(0.109372,0.120161,-0.461819,0.420353,560.065,207.9)"
       xlink:href="#id7"
       gradientUnits="userSpaceOnUse" />
  </defs>
  <path
     style="fill:none;stroke:url(#id8);stroke-width:2.4"
     d="m 19.318,27.29 v 5.6 c -9.8,0 -17.7,2.2 -17.7,4.8 0,2.7 7.9,4.8 17.7,4.8 5.6,0 13.8,-0.6 13.8,-1.8 0,-1.4 -8.3,-1.9 -14,-1.9 -9.8,0 -17.7,2.2 -17.7,4.8 0,2.7 7.9,4.8 17.7,4.8 5.6,0 13.8,-0.6 13.8,-1.8 0,-1.3 -8.3,-1.9 -14,-1.9 -9.8,0 -17.7,2.2 -17.7,4.8 0,2.7 7.9,4.8 17.7,4.8 5.6,0 13.8,-0.6 13.8,-1.8 0,-1.4 -8.1,-1.9 -14,-1.9 -9.7,0 -17.7,2.2 -17.7,4.8 0,2.7 7.9,4.8 17.7,4.8 5.7,0 14,-0.5 14,-1.9 0,-1.2 -8.2,-1.8 -13.8,-1.8 -9.8,0 -17.7,2.2 -17.7,4.8 0,2.7 7.9,4.8 17.7,4.8 5.7,0 14,-0.6 14,-1.9 0,-1.2 -8.2,-1.8 -13.8,-1.8 -9.8,0 -17.7,2.2 -17.7,4.8 0,2.7 7.9,4.8 17.7,4.8 5.7,0 14,-0.5 14,-1.9 0,-1.2 -4,-1.8 -13.8,-1.8 -9.9,0 -17.7,2.2 -17.7,4.8 0,2.7 7.9,4.8 17.7,4.8 5.6,0 13.8,-0.6 13.8,-1.8 0,-1.4 -8.3,-1.9 -14,-1.9 -9.8,0 -17.7,2.2 -17.7,4.8 0,2.7 7.9,4.8 17.7,4.8 5.6,0 13.8,-0.6 13.8,-1.8 0,-1.3 -8.3,-1.9 -14,-1.9 -9.8,0 -17.7,2.2 -17.7,4.8 0,2.7 7.9,4.8 17.7,4.8 5.6,0 13.8,-0.6 13.8,-1.8 0,-1.4 -8.3,-1.9 -14,-1.9 -9.8,0 -17.7,2.2 -17.7,4.8 0,2.7 7.9,4.8 18.2,4.9 v 6.8"
     id="path62" />
  <g
     transform="translate(438.397,-1254.79)"
     id="g68"
     style="fill:none">
    <circle
       cx="-309.7"
       cy="1403.9"
       r="16.0856"
       transform="matrix(0.574468,0,0,0.574468,-241.536,459.242)"
       style="color:#000000;overflow:visible;fill:none;stroke:#007ad2;stroke-width:5.84"
       id="circle64" />
    <path
       style="color:#000000;overflow:visible;fill:none;stroke:#007ad2;stroke-width:3.36"
       d="m -419.5,1274.1 v 14.3"
       id="path66" />
  </g>
  <g
     transform="translate(438.843,-1295.68)"
     id="g74"
     style="fill:none">
    <path
       transform="matrix(0.702128,0,0,0.702128,-202.635,429.098)"
       style="color:#000000;overflow:visible;fill:none;stroke:#007ad2;stroke-width:4.78"
       d="m -309.7,1387.8 a 16.1,16.1 0 0 1 16.1,16.1 16.1,16.1 0 0 1 -16.1,16.1 16.1,16.1 0 0 1 -16.1,-16.1"
       id="path70" />
    <path
       style="color:#000000;overflow:visible;fill:none;stroke:#007ad2;stroke-width:3.36"
       d="m -419.5,1390.9 v 14.3"
       id="path72" />
  </g>
  <path
     style="fill:none;stroke:url(#id9);stroke-width:2.4"
     d="m 117.318,24.09 v 9.4 c -9.8,0 -17.7,3.6 -17.7,8 0,4.4 7.9,8 17.7,8 5.6,0 13.8,-1 13.8,-3 0,-2.3 -8.3,-3.1 -14,-3.1 -9.8,0 -17.7,3.6 -17.7,8 0,4.5 7.9,8.1 17.7,8.1 5.6,0 13.8,-1.1 13.8,-3 0,-2.2 -8.3,-3.1 -14,-3.1 -9.8,0 -17.7,3.6 -17.7,8.1 0,4.4 7.9,8 17.7,8 5.6,0 13.8,-1 13.8,-3 0,-2.3 -8.1,-3.1 -14,-3.1 -9.7,0 -17.7,3.6 -17.7,8 0,4.4 7.9,8 17.7,8 5.7,0 14,-0.8 14,-3.1 0,-2 -8.2,-3 -13.8,-3 -9.8,0 -17.7,3.6 -17.7,8 0,4.4 7.9,8 17.7,8 5.7,0 14,-0.9 14,-3.1 0,-2 -8.2,-3 -13.8,-3 -9.8,0 -17.7,3.6 -17.7,8 0,4.5 7.9,8.1 17.7,8.1 5.7,0 14,-0.8 14,-3.1 0,-2 -4,-3 -13.8,-3 -9.9,0 -17.7,3.6 -17.7,8.1 0,4.4 7.9,8 17.7,8 5.6,0 13.8,-1 13.8,-3 0,-2.3 -8.3,-3.1 -14,-3.1 -9.8,0 -17.7,3.6 -17.7,8 0,4.4 7.9,8 17.7,8 5.6,0 13.8,-1.1 13.8,-3 0,-2.2 -8.3,-3.1 -14,-3.1 -9.8,0 -17.7,3.6 -17.7,8 0,4.4 7.9,8 17.7,8 5.6,0 13.8,-1 13.8,-3 0,-2.3 -8.3,-3.1 -14,-3.1 -9.8,0 -17.7,3.6 -17.7,8 0,4.4 7.9,8 18.2,8.3 v 11.2"
     id="path76" />
  <g
     transform="translate(536.848,-1252.37)"
     id="g82"
     style="fill:none">
    <path
       transform="matrix(0.702128,0,0,0.702128,-202.635,429.098)"
       style="color:#000000;overflow:visible;fill:none;stroke:#007ad2;stroke-width:4.78"
       d="m -309.7,1387.8 a 16.1,16.1 0 0 1 16.1,16.1 16.1,16.1 0 0 1 -16.1,16.1 16.1,16.1 0 0 1 -16.1,-16.1"
       id="path78" />
    <path
       style="color:#000000;overflow:visible;fill:none;stroke:#007ad2;stroke-width:3.36"
       d="m -419.5,1390.9 v 14.3"
       id="path80" />
  </g>
  <g
     transform="translate(536.398,-1254.79)"
     id="g88"
     style="fill:none">
    <circle
       cx="-309.7"
       cy="1403.9"
       r="16.0856"
       transform="matrix(0.574468,0,0,0.574468,-241.536,459.242)"
       style="color:#000000;overflow:visible;fill:none;stroke:#007ad2;stroke-width:5.84"
       id="circle84" />
    <path
       style="color:#000000;overflow:visible;fill:none;stroke:#007ad2;stroke-width:3.36"
       d="m -419.5,1274.1 v 14.3"
       id="path86" />
  </g>
  <path
     style="fill:none;stroke:#c4a000;stroke-width:2;stroke-dasharray:8, 4"
     d="m 26.818,96.39 h 53.3"
     id="path90" />
  <path
     style="fill:none;stroke:#c4a000;stroke-width:2;stroke-dasharray:8, 4"
     d="m 60.518,140.69 h 42"
     id="path92" />
  <text
     x="47.518"
     y="125.89"
     style="color:#000000;font-size:32px;font-family:'Comic Sans MS';overflow:visible;fill:#c4a000;stroke-width:1px"
     id="text94">x</text>
  <path
     style="fill:none;stroke:#c4a000;stroke-width:2.46;marker-start:url(#id10);marker-end:url(#id11)"
     d="m 72.518,100.39 v 35.4"
     id="path96" />
  <path
     style="fill:url(#id12);stroke:#000000;stroke-width:1;stroke-linecap:round;stroke-linejoin:round"
     d="m 101.718,183.29 16.6,-3.5 17,3.6 -18,4.4 z"
     id="path98" />
  <path
     style="fill:url(#id13);stroke:#000000;stroke-width:1;stroke-linecap:round;stroke-linejoin:round"
     d="m 101.718,183.29 15.5,4.3 1.8,43.8 -32.3,-14.3 z"
     id="path100" />
  <path
     style="fill:url(#id14);stroke:url(#id15);stroke-width:1;stroke-linecap:round;stroke-linejoin:round"
     d="m 117.218,187.69 18.1,-4.4 15.9,35.2 -32,12.9 z"
     id="path102" />
  <g
     transform="matrix(0.543894,0,0,0.935374,-103.643,-239.4)"
     id="g114">
    <path
       style="fill:#000000"
       d="m 406.4,436 c -5.2,0 -9.5,4 -9.5,8.9 0,4.9 4.2,8.9 9.5,8.9 5.2,0 9.5,-4 9.5,-8.9 0,-4.9 -4.3,-8.9 -9.5,-8.9 z m 0,3.5 c 3.2,0 5.8,2.4 5.8,5.4 0,3 -2.6,5.4 -5.8,5.4 -3.2,0 -5.7,-2.4 -5.7,-5.4 0,-3 2.6,-5.4 5.7,-5.4 z"
       id="path104" />
    <path
       style="fill:url(#id16)"
       d="m 406.4,436 c -5.2,0 -9.5,4 -9.5,8.9 0,4.9 4.2,8.9 9.5,8.9 5.2,0 9.5,-4 9.5,-8.9 0,-4.9 -4.3,-8.9 -9.5,-8.9 z m 0,3.5 c 3.2,0 5.8,2.4 5.8,5.4 0,3 -2.6,5.4 -5.8,5.4 -3.2,0 -5.7,-2.4 -5.7,-5.4 0,-3 2.6,-5.4 5.7,-5.4 z"
       id="path106" />
    <path
       style="fill:url(#id17)"
       d="m 406.4,436 c -5.2,0 -9.5,4 -9.5,8.9 0,4.9 4.2,8.9 9.5,8.9 5.2,0 9.5,-4 9.5,-8.9 0,-4.9 -4.3,-8.9 -9.5,-8.9 z m 0,3.5 c 3.2,0 5.8,2.4 5.8,5.4 0,3 -2.6,5.4 -5.8,5.4 -3.2,0 -5.7,-2.4 -5.7,-5.4 0,-3 2.6,-5.4 5.7,-5.4 z"
       id="path108" />
    <path
       style="fill:url(#id18)"
       d="m 406.4,436 c -5.2,0 -9.5,4 -9.5,8.9 0,4.9 4.2,8.9 9.5,8.9 5.2,0 9.5,-4 9.5,-8.9 0,-4.9 -4.3,-8.9 -9.5,-8.9 z m 0,3.5 c 3.2,0 5.8,2.4 5.8,5.4 0,3 -2.6,5.4 -5.8,5.4 -3.2,0 -5.7,-2.4 -5.7,-5.4 0,-3 2.6,-5.4 5.7,-5.4 z"
       id="path110" />
    <path
       style="fill:url(#id19)"
       d="m 406.4,436 c -5.2,0 -9.5,4 -9.5,8.9 0,4.9 4.2,8.9 9.5,8.9 5.2,0 9.5,-4 9.5,-8.9 0,-4.9 -4.3,-8.9 -9.5,-8.9 z m 0,3.5 c 3.2,0 5.8,2.4 5.8,5.4 0,3 -2.6,5.4 -5.8,5.4 -3.2,0 -5.7,-2.4 -5.7,-5.4 0,-3 2.6,-5.4 5.7,-5.4 z"
       id="path112" />
  </g>
  <ellipse
     cx="117.618"
     cy="184.49"
     rx="4.6"
     ry="1.7"
     style="fill:url(#id20);stroke-width:0.3"
     id="ellipse116" />
  <path
     style="color:#000000;overflow:visible;fill:none;stroke:#007ad2;stroke-width:3.36"
     d="m 116.718,173.69 a 11.3,11.3 0 0 1 -11.3,-11.3"
     id="path118" />
  <g
     transform="matrix(-0.981336,0.192302,0.192302,0.981336,3382.58,-1517.6)"
     id="g120" />
</svg>
