<?xml version="1.0" standalone="no"?>
<!DOCTYPE svg PUBLIC "-//W3C//DTD SVG 20010904//EN"
 "http://www.w3.org/TR/2001/REC-SVG-20010904/DTD/svg10.dtd">
<svg version="1.0" xmlns="http://www.w3.org/2000/svg"
 width="512.000000pt" height="512.000000pt" viewBox="0 0 512.000000 512.000000"
 preserveAspectRatio="xMidYMid meet">
<metadata>
Created by potrace 1.14, written by Peter Selinger 2001-2017
</metadata>
<g transform="translate(0.000000,512.000000) scale(0.100000,-0.100000)"
fill="#000000" stroke="none">
<path d="M2518 4695 c-2 -1 -48 -5 -103 -9 -361 -21 -720 -143 -1032 -349
-511 -338 -856 -890 -937 -1497 -14 -103 -17 -160 -16 -291 0 -79 2 -157 4
-174 14 -115 20 -153 41 -258 116 -568 480 -1076 995 -1389 234 -142 574 -259
825 -283 39 -4 79 -9 90 -11 26 -5 334 -5 360 0 11 2 47 7 80 11 95 12 98 12
161 25 561 113 1063 462 1379 956 149 235 269 560 310 844 11 75 15 471 5 530
-5 30 -11 73 -14 95 -29 227 -145 543 -283 769 -122 200 -314 420 -488 558
-264 210 -577 358 -893 423 -155 32 -176 35 -317 41 -66 3 -130 6 -142 8 -13
2 -24 2 -25 1z m134 -454 c107 -51 226 -208 316 -413 40 -91 119 -338 124
-388 l3 -25 -537 -1 -538 -1 6 26 c50 219 145 461 234 591 143 210 262 275
392 211z m-879 -213 c-57 -117 -142 -375 -173 -523 -5 -27 -12 -59 -15 -71 -5
-20 -9 -21 -254 -21 l-250 0 36 56 c105 166 263 339 409 447 89 66 243 163
261 163 7 1 1 -20 -14 -51z m1640 8 c190 -108 384 -281 514 -456 60 -82 103
-149 103 -163 0 -9 -480 -1 -488 8 -5 6 -15 39 -21 74 -23 120 -108 382 -162
499 -21 45 -35 82 -31 82 4 0 42 -20 85 -44z m-1909 -1170 c-10 -151 -9 -475
0 -622 l8 -110 -301 -1 -301 0 -9 36 c-52 210 -60 454 -23 666 24 133 25 139
35 146 4 3 140 5 303 6 l296 0 -8 -121z m1670 108 c26 -67 27 -665 2 -819 -3
-20 -11 -20 -618 -21 -435 0 -615 3 -615 10 -1 6 -5 56 -9 111 -15 178 -7 696
11 726 2 3 278 5 614 6 495 0 611 -3 615 -13z m1041 -4 c8 -28 34 -164 41
-220 22 -174 2 -455 -41 -600 -4 -14 -44 -16 -306 -16 l-300 -1 7 136 c10 169
10 415 0 587 l-7 131 301 -1 c261 0 301 -2 305 -16z m-2607 -1384 c54 -220
108 -378 168 -498 14 -27 21 -48 16 -48 -4 0 -45 21 -90 48 -234 135 -440 333
-585 563 l-35 55 248 1 248 0 30 -121z m1487 109 c-1 -24 -27 -123 -61 -227
-117 -364 -318 -621 -479 -612 -123 6 -258 140 -371 369 -60 121 -122 298
-158 456 l-6 26 538 -1 c351 -1 537 -4 537 -11z m935 3 c0 -13 -67 -112 -128
-189 -119 -150 -257 -277 -407 -375 -82 -53 -165 -98 -170 -92 -1 2 9 28 24
58 30 61 81 195 107 280 9 30 22 73 29 95 7 22 23 83 35 136 l22 95 244 0
c134 0 244 -3 244 -8z"/>
</g>
</svg>
